<?xml version="1.0" encoding="UTF-8" standalone="no"?>
<!-- Created with Inkscape (http://www.inkscape.org/) -->

<svg
   width="500"
   height="500"
   viewBox="0 0 132.29166 132.29167"
   version="1.1"
   id="svg2515"
   inkscape:version="1.1.2 (b8e25be833, 2022-02-05)"
   sodipodi:docname="bonsai14s02normal.svg"
   inkscape:export-filename="C:\Users\Lenovo\Desktop\Coding\Media files\Bonsais\bonsai14.png"
   inkscape:export-xdpi="96"
   inkscape:export-ydpi="96"
   xmlns:inkscape="http://www.inkscape.org/namespaces/inkscape"
   xmlns:sodipodi="http://sodipodi.sourceforge.net/DTD/sodipodi-0.dtd"
   xmlns="http://www.w3.org/2000/svg"
   xmlns:svg="http://www.w3.org/2000/svg">
  <sodipodi:namedview
     id="namedview2517"
     pagecolor="#ffffff"
     bordercolor="#666666"
     borderopacity="1.0"
     inkscape:pageshadow="2"
     inkscape:pageopacity="0.0"
     inkscape:pagecheckerboard="0"
     inkscape:document-units="mm"
     showgrid="false"
     units="px"
     inkscape:zoom="1.4142136"
     inkscape:cx="345.42165"
     inkscape:cy="242.18407"
     inkscape:window-width="1920"
     inkscape:window-height="1001"
     inkscape:window-x="-9"
     inkscape:window-y="-9"
     inkscape:window-maximized="1"
     inkscape:current-layer="g17385" />
  <defs
     id="defs2512">
    <marker
       style="overflow:visible"
       id="Arrow1Sstart"
       refX="0.0"
       refY="0.0"
       orient="auto"
       inkscape:stockid="Arrow1Sstart"
       inkscape:isstock="true">
      <path
         transform="scale(0.2) translate(6,0)"
         style="fill-rule:evenodd;fill:context-stroke;stroke:context-stroke;stroke-width:1.0pt"
         d="M 0.0,0.0 L 5.0,-5.0 L -12.5,0.0 L 5.0,5.0 L 0.0,0.0 z "
         id="path24092" />
    </marker>
    <marker
       style="overflow:visible"
       id="Arrow1Mstart"
       refX="0.0"
       refY="0.0"
       orient="auto"
       inkscape:stockid="Arrow1Mstart"
       inkscape:isstock="true">
      <path
         transform="scale(0.4) translate(10,0)"
         style="fill-rule:evenodd;fill:context-stroke;stroke:context-stroke;stroke-width:1.0pt"
         d="M 0.0,0.0 L 5.0,-5.0 L -12.5,0.0 L 5.0,5.0 L 0.0,0.0 z "
         id="path24086" />
    </marker>
    <marker
       style="overflow:visible"
       id="Arrow1Lstart"
       refX="0.0"
       refY="0.0"
       orient="auto"
       inkscape:stockid="Arrow1Lstart"
       inkscape:isstock="true">
      <path
         transform="scale(0.8) translate(12.5,0)"
         style="fill-rule:evenodd;fill:context-stroke;stroke:context-stroke;stroke-width:1.0pt"
         d="M 0.0,0.0 L 5.0,-5.0 L -12.5,0.0 L 5.0,5.0 L 0.0,0.0 z "
         id="path24080" />
    </marker>
    <marker
       style="overflow:visible;"
       id="Arrow1Lend"
       refX="0.0"
       refY="0.0"
       orient="auto"
       inkscape:stockid="Arrow1Lend"
       inkscape:isstock="true">
      <path
         transform="scale(0.8) rotate(180) translate(12.5,0)"
         style="fill-rule:evenodd;fill:context-stroke;stroke:context-stroke;stroke-width:1.0pt;"
         d="M 0.0,0.0 L 5.0,-5.0 L -12.5,0.0 L 5.0,5.0 L 0.0,0.0 z "
         id="path24083" />
    </marker>
  </defs>
  <g
     inkscape:label="Informal Upright Style"
     inkscape:groupmode="layer"
     id="g17385"
     style="display:inline">
    <g
       id="g17299"
       transform="translate(157.36058,-8.4372489)"
       style="display:inline">
      <g
         id="g17297"
         transform="translate(-99.28418,15.207661)">
        <path
           style="display:inline;fill:#e0af9a;fill-opacity:1;stroke:#e0af9a;stroke-width:1;stroke-linecap:round;stroke-linejoin:round;stroke-miterlimit:4;stroke-dasharray:none;stroke-opacity:1"
           d="m 1.3438111,105.02403 c 0,0 1.67276,-4.3889 -5.29634,-12.902323 -5.77031,-7.049 -13.8088901,-10.89145 -10.0810001,-22.220767 2.98845,-9.082106 31.71641,-16.843433 36.92376,-22.50005 9.82115,-10.668487 4.67956,-12.619651 -1.58353,-22.120096 C 16.120271,17.413522 8.0705011,20.957555 7.7574611,9.5870616 14.803541,20.119696 25.572371,18.866153 27.251611,28.55162 c 3.25423,4.596313 8.98302,11.718683 5.98525,14.797826 -2.2954,2.357716 -9.08519,15.422411 -20.03503,17.643247 -9.5903099,1.945097 -16.1629199,12.6144 -16.1629199,12.6144 -0.83876,8.885304 16.1910099,9.784984 21.9744099,18.254694 5.64474,8.266633 8.35928,5.77528 10.95842,12.103913 1.20531,2.9348 -28.6279299,1.05833 -28.6279299,1.05833 z"
           id="path17293"
           sodipodi:nodetypes="cssssccsssssc" />
        <path
           id="path17295"
           style="display:inline;fill:#c49078;fill-opacity:1;stroke:#c49078;stroke-width:3.77953;stroke-linecap:round;stroke-linejoin:round;stroke-miterlimit:4;stroke-dasharray:none;stroke-opacity:1"
           d="m 616.93555,1.8886719 c 0.55432,20.1347921 7.52722,27.8974661 16.79883,33.5175781 -5.45695,-5.012127 -9.35289,-12.21383 -10.31641,-24.990234 -2.22889,-2.6069221 -4.40217,-5.4177306 -6.48242,-8.5273441 z m 41.48828,48.2539061 c 3.39981,2.902953 6.69017,6.465507 9.7207,11.0625 23.67153,35.907194 43.10565,43.281672 5.98633,83.603512 -19.68132,21.37934 -128.25976,50.713 -139.55469,85.03907 -14.08966,42.81948 16.29251,57.34248 38.10156,83.98437 26.33989,32.17671 20.01758,48.76367 20.01758,48.76367 0,0 2.85378,0.16826 6.91797,0.39063 0.26375,-6.79288 -1.99109,-21.72151 -20.65039,-44.51563 -21.80905,-26.64189 -52.19123,-41.16294 -38.10156,-83.98242 11.29493,-34.32607 119.87336,-63.66167 139.55469,-85.04101 37.11932,-40.32185 17.68519,-47.69633 -5.98633,-83.60352 -4.87199,-7.390285 -10.41195,-12.111719 -16.00586,-15.701172 z"
           transform="matrix(0.26458333,0,0,0.26458333,-155.47346,9.0871833)"
           sodipodi:nodetypes="cccccssssccssssc" />
      </g>
    </g>
    <g
       id="g61999-7-3"
       transform="matrix(0.74146994,0,0,0.92845214,19.344096,55.35107)"
       style="display:inline">
      <path
         d="m 107.70689,62.552204 v 10.470444 c 0,3.510139 -2.84304,6.353528 -6.35106,6.353528 H 28.296968 c -3.508022,0 -6.351411,-2.843389 -6.351411,-6.353528 V 62.552204 h 85.761333 v 0"
         style="fill:#d2b77d;fill-opacity:1;fill-rule:nonzero;stroke:none;stroke-width:0.0352778"
         id="path176-0-9" />
      <path
         d="M 26.886209,73.022648 V 62.552204 h -4.940652 v 10.470444 c 0,3.510139 2.843389,6.353528 6.351411,6.353528 h 4.9403 c -3.50767,0 -6.351059,-2.843389 -6.351059,-6.353528 v 0"
         style="fill:#bd9d5b;fill-opacity:1;fill-rule:nonzero;stroke:none;stroke-width:0.0352778"
         id="path190-0-44" />
      <path
         d="m 21.945557,54.766399 h 85.761333 v 7.785805 H 21.945557 v -7.785805"
         style="fill:#e6d8b6;fill-opacity:1;fill-rule:nonzero;stroke:none;stroke-width:0.0352778"
         id="path196-8-0" />
      <path
         d="m 21.945557,54.766399 h 4.940652 v 7.785805 h -4.940652 v -7.785805"
         style="fill:#d8c18f;fill-opacity:1;fill-rule:nonzero;stroke:none;stroke-width:0.0352778"
         id="path198-6-96" />
    </g>
    <g
       id="g59683-6-0"
       transform="matrix(0.54799605,0,0,0.54799605,-1.4328979,28.929182)"
       style="display:inline">
      <g
         id="g59619-4-3-7"
         style="display:inline"
         transform="translate(-19.048131,34.631778)">
        <path
           d="M 195.22866,34.197195 161.34222,22.724717 c -3.92302,-1.309458 -6.79892,3.538799 -3.89811,6.28956 l 9.97227,9.456448 -9.45645,9.972268 c -2.75076,2.900808 0.37781,7.590209 4.22636,6.073864 L 195.41623,41.26248 c 2.97021,-1.316737 2.84828,-5.90912 -0.18757,-7.065285 z"
           id="path2-8-3-5-2"
           style="fill:#33cc33;fill-opacity:1;stroke-width:0.0781252" />
        <path
           id="path2-8-6-7-5-6"
           style="display:inline;fill:#139513;fill-opacity:1;stroke-width:0.0781251"
           d="m 160.099,22.504775 c -3.23955,-0.05452 -5.23815,4.059266 -2.65462,6.509162 l 9.972,9.456788 -9.45627,9.972 c -2.75076,2.90081 0.37755,7.590399 4.2261,6.074048 l 1.4397,-0.574125 c -1.53734,-1.28284 -2.05727,-3.724973 -0.37413,-5.499923 l 9.45627,-9.972 -9.972,-9.456788 c -1.86538,-1.768887 -1.34032,-4.402867 0.31419,-5.71128 L 161.34233,22.7244 c -0.42908,-0.143222 -0.84549,-0.212931 -1.24333,-0.219625 z" />
      </g>
      <g
         id="g59619-3-5"
         transform="translate(6.3500003,17.991672)">
        <path
           d="M 195.22866,34.197195 161.34222,22.724717 c -3.92302,-1.309458 -6.79892,3.538799 -3.89811,6.28956 l 9.97227,9.456448 -9.45645,9.972268 c -2.75076,2.900808 0.37781,7.590209 4.22636,6.073864 L 195.41623,41.26248 c 2.97021,-1.316737 2.84828,-5.90912 -0.18757,-7.065285 z"
           id="path2-8-38-0"
           style="fill:#33cc33;fill-opacity:1;stroke-width:0.0781252" />
        <path
           id="path2-8-6-4-7"
           style="display:inline;fill:#139513;fill-opacity:1;stroke-width:0.0781251"
           d="m 160.099,22.504775 c -3.23955,-0.05452 -5.23815,4.059266 -2.65462,6.509162 l 9.972,9.456788 -9.45627,9.972 c -2.75076,2.90081 0.37755,7.590399 4.2261,6.074048 l 1.4397,-0.574125 c -1.53734,-1.28284 -2.05727,-3.724973 -0.37413,-5.499923 l 9.45627,-9.972 -9.972,-9.456788 c -1.86538,-1.768887 -1.34032,-4.402867 0.31419,-5.71128 L 161.34233,22.7244 c -0.42908,-0.143222 -0.84549,-0.212931 -1.24333,-0.219625 z" />
      </g>
      <g
         id="g59619-7-9-2"
         style="display:inline"
         transform="translate(36.353744,34.631761)">
        <path
           d="M 195.22866,34.197195 161.34222,22.724717 c -3.92302,-1.309458 -6.79892,3.538799 -3.89811,6.28956 l 9.97227,9.456448 -9.45645,9.972268 c -2.75076,2.900808 0.37781,7.590209 4.22636,6.073864 L 195.41623,41.26248 c 2.97021,-1.316737 2.84828,-5.90912 -0.18757,-7.065285 z"
           id="path2-8-0-6-87"
           style="fill:#33cc33;fill-opacity:1;stroke-width:0.0781252" />
        <path
           id="path2-8-6-2-1-44"
           style="display:inline;fill:#139513;fill-opacity:1;stroke-width:0.0781251"
           d="m 160.099,22.504775 c -3.23955,-0.05452 -5.23815,4.059266 -2.65462,6.509162 l 9.972,9.456788 -9.45627,9.972 c -2.75076,2.90081 0.37755,7.590399 4.2261,6.074048 l 1.4397,-0.574125 c -1.53734,-1.28284 -2.05727,-3.724973 -0.37413,-5.499923 l 9.45627,-9.972 -9.972,-9.456788 c -1.86538,-1.768887 -1.34032,-4.402867 0.31419,-5.71128 L 161.34233,22.7244 c -0.42908,-0.143222 -0.84549,-0.212931 -1.24333,-0.219625 z" />
      </g>
    </g>
    <g
       id="g59683-6-0-7"
       transform="matrix(0.54799605,0,0,0.54799605,-67.816486,40.822592)"
       style="display:inline">
      <g
         id="g59619-4-3-7-6"
         style="display:inline"
         transform="translate(-19.048131,34.631778)">
        <path
           d="M 195.22866,34.197195 161.34222,22.724717 c -3.92302,-1.309458 -6.79892,3.538799 -3.89811,6.28956 l 9.97227,9.456448 -9.45645,9.972268 c -2.75076,2.900808 0.37781,7.590209 4.22636,6.073864 L 195.41623,41.26248 c 2.97021,-1.316737 2.84828,-5.90912 -0.18757,-7.065285 z"
           id="path2-8-3-5-2-1"
           style="fill:#33cc33;fill-opacity:1;stroke-width:0.0781252" />
        <path
           id="path2-8-6-7-5-6-6"
           style="display:inline;fill:#139513;fill-opacity:1;stroke-width:0.0781251"
           d="m 160.099,22.504775 c -3.23955,-0.05452 -5.23815,4.059266 -2.65462,6.509162 l 9.972,9.456788 -9.45627,9.972 c -2.75076,2.90081 0.37755,7.590399 4.2261,6.074048 l 1.4397,-0.574125 c -1.53734,-1.28284 -2.05727,-3.724973 -0.37413,-5.499923 l 9.45627,-9.972 -9.972,-9.456788 c -1.86538,-1.768887 -1.34032,-4.402867 0.31419,-5.71128 L 161.34233,22.7244 c -0.42908,-0.143222 -0.84549,-0.212931 -1.24333,-0.219625 z" />
      </g>
      <g
         id="g59619-3-5-8"
         transform="translate(6.3500003,17.991672)">
        <path
           d="M 195.22866,34.197195 161.34222,22.724717 c -3.92302,-1.309458 -6.79892,3.538799 -3.89811,6.28956 l 9.97227,9.456448 -9.45645,9.972268 c -2.75076,2.900808 0.37781,7.590209 4.22636,6.073864 L 195.41623,41.26248 c 2.97021,-1.316737 2.84828,-5.90912 -0.18757,-7.065285 z"
           id="path2-8-38-0-8"
           style="fill:#33cc33;fill-opacity:1;stroke-width:0.0781252" />
        <path
           id="path2-8-6-4-7-9"
           style="display:inline;fill:#139513;fill-opacity:1;stroke-width:0.0781251"
           d="m 160.099,22.504775 c -3.23955,-0.05452 -5.23815,4.059266 -2.65462,6.509162 l 9.972,9.456788 -9.45627,9.972 c -2.75076,2.90081 0.37755,7.590399 4.2261,6.074048 l 1.4397,-0.574125 c -1.53734,-1.28284 -2.05727,-3.724973 -0.37413,-5.499923 l 9.45627,-9.972 -9.972,-9.456788 c -1.86538,-1.768887 -1.34032,-4.402867 0.31419,-5.71128 L 161.34233,22.7244 c -0.42908,-0.143222 -0.84549,-0.212931 -1.24333,-0.219625 z" />
      </g>
      <g
         id="g59619-7-9-2-8"
         style="display:inline"
         transform="translate(36.353744,34.631761)">
        <path
           d="M 195.22866,34.197195 161.34222,22.724717 c -3.92302,-1.309458 -6.79892,3.538799 -3.89811,6.28956 l 9.97227,9.456448 -9.45645,9.972268 c -2.75076,2.900808 0.37781,7.590209 4.22636,6.073864 L 195.41623,41.26248 c 2.97021,-1.316737 2.84828,-5.90912 -0.18757,-7.065285 z"
           id="path2-8-0-6-87-6"
           style="fill:#33cc33;fill-opacity:1;stroke-width:0.0781252" />
        <path
           id="path2-8-6-2-1-44-3"
           style="display:inline;fill:#139513;fill-opacity:1;stroke-width:0.0781251"
           d="m 160.099,22.504775 c -3.23955,-0.05452 -5.23815,4.059266 -2.65462,6.509162 l 9.972,9.456788 -9.45627,9.972 c -2.75076,2.90081 0.37755,7.590399 4.2261,6.074048 l 1.4397,-0.574125 c -1.53734,-1.28284 -2.05727,-3.724973 -0.37413,-5.499923 l 9.45627,-9.972 -9.972,-9.456788 c -1.86538,-1.768887 -1.34032,-4.402867 0.31419,-5.71128 L 161.34233,22.7244 c -0.42908,-0.143222 -0.84549,-0.212931 -1.24333,-0.219625 z" />
      </g>
    </g>
    <g
       id="g59683-6-0-4"
       transform="matrix(0.46527966,0,0,0.46527966,-25.856419,19.740229)"
       style="display:inline">
      <g
         id="g59619-4-3-7-3"
         style="display:inline"
         transform="translate(-19.048131,34.631778)">
        <path
           d="M 195.22866,34.197195 161.34222,22.724717 c -3.92302,-1.309458 -6.79892,3.538799 -3.89811,6.28956 l 9.97227,9.456448 -9.45645,9.972268 c -2.75076,2.900808 0.37781,7.590209 4.22636,6.073864 L 195.41623,41.26248 c 2.97021,-1.316737 2.84828,-5.90912 -0.18757,-7.065285 z"
           id="path2-8-3-5-2-0"
           style="fill:#33cc33;fill-opacity:1;stroke-width:0.0781252" />
        <path
           id="path2-8-6-7-5-6-8"
           style="display:inline;fill:#139513;fill-opacity:1;stroke-width:0.0781251"
           d="m 160.099,22.504775 c -3.23955,-0.05452 -5.23815,4.059266 -2.65462,6.509162 l 9.972,9.456788 -9.45627,9.972 c -2.75076,2.90081 0.37755,7.590399 4.2261,6.074048 l 1.4397,-0.574125 c -1.53734,-1.28284 -2.05727,-3.724973 -0.37413,-5.499923 l 9.45627,-9.972 -9.972,-9.456788 c -1.86538,-1.768887 -1.34032,-4.402867 0.31419,-5.71128 L 161.34233,22.7244 c -0.42908,-0.143222 -0.84549,-0.212931 -1.24333,-0.219625 z" />
      </g>
      <g
         id="g59619-3-5-0"
         transform="translate(6.3500003,17.991672)">
        <path
           d="M 195.22866,34.197195 161.34222,22.724717 c -3.92302,-1.309458 -6.79892,3.538799 -3.89811,6.28956 l 9.97227,9.456448 -9.45645,9.972268 c -2.75076,2.900808 0.37781,7.590209 4.22636,6.073864 L 195.41623,41.26248 c 2.97021,-1.316737 2.84828,-5.90912 -0.18757,-7.065285 z"
           id="path2-8-38-0-9"
           style="fill:#33cc33;fill-opacity:1;stroke-width:0.0781252" />
        <path
           id="path2-8-6-4-7-0"
           style="display:inline;fill:#139513;fill-opacity:1;stroke-width:0.0781251"
           d="m 160.099,22.504775 c -3.23955,-0.05452 -5.23815,4.059266 -2.65462,6.509162 l 9.972,9.456788 -9.45627,9.972 c -2.75076,2.90081 0.37755,7.590399 4.2261,6.074048 l 1.4397,-0.574125 c -1.53734,-1.28284 -2.05727,-3.724973 -0.37413,-5.499923 l 9.45627,-9.972 -9.972,-9.456788 c -1.86538,-1.768887 -1.34032,-4.402867 0.31419,-5.71128 L 161.34233,22.7244 c -0.42908,-0.143222 -0.84549,-0.212931 -1.24333,-0.219625 z" />
      </g>
      <g
         id="g59619-7-9-2-5"
         style="display:inline"
         transform="translate(36.353744,34.631761)">
        <path
           d="M 195.22866,34.197195 161.34222,22.724717 c -3.92302,-1.309458 -6.79892,3.538799 -3.89811,6.28956 l 9.97227,9.456448 -9.45645,9.972268 c -2.75076,2.900808 0.37781,7.590209 4.22636,6.073864 L 195.41623,41.26248 c 2.97021,-1.316737 2.84828,-5.90912 -0.18757,-7.065285 z"
           id="path2-8-0-6-87-1"
           style="fill:#33cc33;fill-opacity:1;stroke-width:0.0781252" />
        <path
           id="path2-8-6-2-1-44-0"
           style="display:inline;fill:#139513;fill-opacity:1;stroke-width:0.0781251"
           d="m 160.099,22.504775 c -3.23955,-0.05452 -5.23815,4.059266 -2.65462,6.509162 l 9.972,9.456788 -9.45627,9.972 c -2.75076,2.90081 0.37755,7.590399 4.2261,6.074048 l 1.4397,-0.574125 c -1.53734,-1.28284 -2.05727,-3.724973 -0.37413,-5.499923 l 9.45627,-9.972 -9.972,-9.456788 c -1.86538,-1.768887 -1.34032,-4.402867 0.31419,-5.71128 L 161.34233,22.7244 c -0.42908,-0.143222 -0.84549,-0.212931 -1.24333,-0.219625 z" />
      </g>
    </g>
    <g
       id="g59683-6-0-4-4"
       transform="matrix(0.46527966,0,0,0.46527966,9.4876573,6.3101372)"
       style="display:inline">
      <g
         id="g59619-4-3-7-3-8"
         style="display:inline"
         transform="translate(-19.048131,34.631778)">
        <path
           d="M 195.22866,34.197195 161.34222,22.724717 c -3.92302,-1.309458 -6.79892,3.538799 -3.89811,6.28956 l 9.97227,9.456448 -9.45645,9.972268 c -2.75076,2.900808 0.37781,7.590209 4.22636,6.073864 L 195.41623,41.26248 c 2.97021,-1.316737 2.84828,-5.90912 -0.18757,-7.065285 z"
           id="path2-8-3-5-2-0-3"
           style="fill:#33cc33;fill-opacity:1;stroke-width:0.0781252" />
        <path
           id="path2-8-6-7-5-6-8-7"
           style="display:inline;fill:#139513;fill-opacity:1;stroke-width:0.0781251"
           d="m 160.099,22.504775 c -3.23955,-0.05452 -5.23815,4.059266 -2.65462,6.509162 l 9.972,9.456788 -9.45627,9.972 c -2.75076,2.90081 0.37755,7.590399 4.2261,6.074048 l 1.4397,-0.574125 c -1.53734,-1.28284 -2.05727,-3.724973 -0.37413,-5.499923 l 9.45627,-9.972 -9.972,-9.456788 c -1.86538,-1.768887 -1.34032,-4.402867 0.31419,-5.71128 L 161.34233,22.7244 c -0.42908,-0.143222 -0.84549,-0.212931 -1.24333,-0.219625 z" />
      </g>
      <g
         id="g59619-3-5-0-4"
         transform="translate(6.3500003,17.991672)">
        <path
           d="M 195.22866,34.197195 161.34222,22.724717 c -3.92302,-1.309458 -6.79892,3.538799 -3.89811,6.28956 l 9.97227,9.456448 -9.45645,9.972268 c -2.75076,2.900808 0.37781,7.590209 4.22636,6.073864 L 195.41623,41.26248 c 2.97021,-1.316737 2.84828,-5.90912 -0.18757,-7.065285 z"
           id="path2-8-38-0-9-0"
           style="fill:#33cc33;fill-opacity:1;stroke-width:0.0781252" />
        <path
           id="path2-8-6-4-7-0-1"
           style="display:inline;fill:#139513;fill-opacity:1;stroke-width:0.0781251"
           d="m 160.099,22.504775 c -3.23955,-0.05452 -5.23815,4.059266 -2.65462,6.509162 l 9.972,9.456788 -9.45627,9.972 c -2.75076,2.90081 0.37755,7.590399 4.2261,6.074048 l 1.4397,-0.574125 c -1.53734,-1.28284 -2.05727,-3.724973 -0.37413,-5.499923 l 9.45627,-9.972 -9.972,-9.456788 c -1.86538,-1.768887 -1.34032,-4.402867 0.31419,-5.71128 L 161.34233,22.7244 c -0.42908,-0.143222 -0.84549,-0.212931 -1.24333,-0.219625 z" />
      </g>
      <g
         id="g59619-7-9-2-5-9"
         style="display:inline"
         transform="translate(36.353744,34.631761)">
        <path
           d="M 195.22866,34.197195 161.34222,22.724717 c -3.92302,-1.309458 -6.79892,3.538799 -3.89811,6.28956 l 9.97227,9.456448 -9.45645,9.972268 c -2.75076,2.900808 0.37781,7.590209 4.22636,6.073864 L 195.41623,41.26248 c 2.97021,-1.316737 2.84828,-5.90912 -0.18757,-7.065285 z"
           id="path2-8-0-6-87-1-5"
           style="fill:#33cc33;fill-opacity:1;stroke-width:0.0781252" />
        <path
           id="path2-8-6-2-1-44-0-5"
           style="display:inline;fill:#139513;fill-opacity:1;stroke-width:0.0781251"
           d="m 160.099,22.504775 c -3.23955,-0.05452 -5.23815,4.059266 -2.65462,6.509162 l 9.972,9.456788 -9.45627,9.972 c -2.75076,2.90081 0.37755,7.590399 4.2261,6.074048 l 1.4397,-0.574125 c -1.53734,-1.28284 -2.05727,-3.724973 -0.37413,-5.499923 l 9.45627,-9.972 -9.972,-9.456788 c -1.86538,-1.768887 -1.34032,-4.402867 0.31419,-5.71128 L 161.34233,22.7244 c -0.42908,-0.143222 -0.84549,-0.212931 -1.24333,-0.219625 z" />
      </g>
    </g>
    <g
       id="g59683-6-0-4-4-9"
       transform="matrix(0.41358192,0,0,0.41358192,-9.0926156,-11.167787)"
       style="display:inline">
      <g
         id="g59619-4-3-7-3-8-1"
         style="display:inline"
         transform="translate(-19.048131,34.631778)">
        <path
           d="M 195.22866,34.197195 161.34222,22.724717 c -3.92302,-1.309458 -6.79892,3.538799 -3.89811,6.28956 l 9.97227,9.456448 -9.45645,9.972268 c -2.75076,2.900808 0.37781,7.590209 4.22636,6.073864 L 195.41623,41.26248 c 2.97021,-1.316737 2.84828,-5.90912 -0.18757,-7.065285 z"
           id="path2-8-3-5-2-0-3-5"
           style="fill:#33cc33;fill-opacity:1;stroke-width:0.0781252" />
        <path
           id="path2-8-6-7-5-6-8-7-7"
           style="display:inline;fill:#139513;fill-opacity:1;stroke-width:0.0781251"
           d="m 160.099,22.504775 c -3.23955,-0.05452 -5.23815,4.059266 -2.65462,6.509162 l 9.972,9.456788 -9.45627,9.972 c -2.75076,2.90081 0.37755,7.590399 4.2261,6.074048 l 1.4397,-0.574125 c -1.53734,-1.28284 -2.05727,-3.724973 -0.37413,-5.499923 l 9.45627,-9.972 -9.972,-9.456788 c -1.86538,-1.768887 -1.34032,-4.402867 0.31419,-5.71128 L 161.34233,22.7244 c -0.42908,-0.143222 -0.84549,-0.212931 -1.24333,-0.219625 z" />
      </g>
      <g
         id="g59619-3-5-0-4-3"
         transform="translate(6.3500003,17.991672)">
        <path
           d="M 195.22866,34.197195 161.34222,22.724717 c -3.92302,-1.309458 -6.79892,3.538799 -3.89811,6.28956 l 9.97227,9.456448 -9.45645,9.972268 c -2.75076,2.900808 0.37781,7.590209 4.22636,6.073864 L 195.41623,41.26248 c 2.97021,-1.316737 2.84828,-5.90912 -0.18757,-7.065285 z"
           id="path2-8-38-0-9-0-8"
           style="fill:#33cc33;fill-opacity:1;stroke-width:0.0781252" />
        <path
           id="path2-8-6-4-7-0-1-1"
           style="display:inline;fill:#139513;fill-opacity:1;stroke-width:0.0781251"
           d="m 160.099,22.504775 c -3.23955,-0.05452 -5.23815,4.059266 -2.65462,6.509162 l 9.972,9.456788 -9.45627,9.972 c -2.75076,2.90081 0.37755,7.590399 4.2261,6.074048 l 1.4397,-0.574125 c -1.53734,-1.28284 -2.05727,-3.724973 -0.37413,-5.499923 l 9.45627,-9.972 -9.972,-9.456788 c -1.86538,-1.768887 -1.34032,-4.402867 0.31419,-5.71128 L 161.34233,22.7244 c -0.42908,-0.143222 -0.84549,-0.212931 -1.24333,-0.219625 z" />
      </g>
      <g
         id="g59619-7-9-2-5-9-2"
         style="display:inline"
         transform="translate(36.353744,34.631761)">
        <path
           d="M 195.22866,34.197195 161.34222,22.724717 c -3.92302,-1.309458 -6.79892,3.538799 -3.89811,6.28956 l 9.97227,9.456448 -9.45645,9.972268 c -2.75076,2.900808 0.37781,7.590209 4.22636,6.073864 L 195.41623,41.26248 c 2.97021,-1.316737 2.84828,-5.90912 -0.18757,-7.065285 z"
           id="path2-8-0-6-87-1-5-5"
           style="fill:#33cc33;fill-opacity:1;stroke-width:0.0781252" />
        <path
           id="path2-8-6-2-1-44-0-5-0"
           style="display:inline;fill:#139513;fill-opacity:1;stroke-width:0.0781251"
           d="m 160.099,22.504775 c -3.23955,-0.05452 -5.23815,4.059266 -2.65462,6.509162 l 9.972,9.456788 -9.45627,9.972 c -2.75076,2.90081 0.37755,7.590399 4.2261,6.074048 l 1.4397,-0.574125 c -1.53734,-1.28284 -2.05727,-3.724973 -0.37413,-5.499923 l 9.45627,-9.972 -9.972,-9.456788 c -1.86538,-1.768887 -1.34032,-4.402867 0.31419,-5.71128 L 161.34233,22.7244 c -0.42908,-0.143222 -0.84549,-0.212931 -1.24333,-0.219625 z" />
      </g>
    </g>
  </g>
</svg>
