<?xml version="1.0" encoding="UTF-8" standalone="no"?>
<!-- Created with Inkscape (http://www.inkscape.org/) -->

<svg
   width="500"
   height="500"
   viewBox="0 0 132.29166 132.29167"
   version="1.1"
   id="svg2515"
   inkscape:version="1.1.2 (b8e25be833, 2022-02-05)"
   sodipodi:docname="bonsai09s06blooming.svg"
   inkscape:export-filename="C:\Users\Lenovo\Desktop\Coding\Media files\Bonsais\bonsai09.png"
   inkscape:export-xdpi="96"
   inkscape:export-ydpi="96"
   xmlns:inkscape="http://www.inkscape.org/namespaces/inkscape"
   xmlns:sodipodi="http://sodipodi.sourceforge.net/DTD/sodipodi-0.dtd"
   xmlns="http://www.w3.org/2000/svg"
   xmlns:svg="http://www.w3.org/2000/svg">
  <sodipodi:namedview
     id="namedview2517"
     pagecolor="#ffffff"
     bordercolor="#666666"
     borderopacity="1.0"
     inkscape:pageshadow="2"
     inkscape:pageopacity="0.0"
     inkscape:pagecheckerboard="0"
     inkscape:document-units="mm"
     showgrid="false"
     units="px"
     inkscape:zoom="1.4142136"
     inkscape:cx="272.58966"
     inkscape:cy="246.42671"
     inkscape:window-width="1920"
     inkscape:window-height="1001"
     inkscape:window-x="-9"
     inkscape:window-y="-9"
     inkscape:window-maximized="1"
     inkscape:current-layer="g17992" />
  <defs
     id="defs2512">
    <marker
       style="overflow:visible"
       id="Arrow1Sstart"
       refX="0.0"
       refY="0.0"
       orient="auto"
       inkscape:stockid="Arrow1Sstart"
       inkscape:isstock="true">
      <path
         transform="scale(0.2) translate(6,0)"
         style="fill-rule:evenodd;fill:context-stroke;stroke:context-stroke;stroke-width:1.0pt"
         d="M 0.0,0.0 L 5.0,-5.0 L -12.5,0.0 L 5.0,5.0 L 0.0,0.0 z "
         id="path24092" />
    </marker>
    <marker
       style="overflow:visible"
       id="Arrow1Mstart"
       refX="0.0"
       refY="0.0"
       orient="auto"
       inkscape:stockid="Arrow1Mstart"
       inkscape:isstock="true">
      <path
         transform="scale(0.4) translate(10,0)"
         style="fill-rule:evenodd;fill:context-stroke;stroke:context-stroke;stroke-width:1.0pt"
         d="M 0.0,0.0 L 5.0,-5.0 L -12.5,0.0 L 5.0,5.0 L 0.0,0.0 z "
         id="path24086" />
    </marker>
    <marker
       style="overflow:visible"
       id="Arrow1Lstart"
       refX="0.0"
       refY="0.0"
       orient="auto"
       inkscape:stockid="Arrow1Lstart"
       inkscape:isstock="true">
      <path
         transform="scale(0.8) translate(12.5,0)"
         style="fill-rule:evenodd;fill:context-stroke;stroke:context-stroke;stroke-width:1.0pt"
         d="M 0.0,0.0 L 5.0,-5.0 L -12.5,0.0 L 5.0,5.0 L 0.0,0.0 z "
         id="path24080" />
    </marker>
    <marker
       style="overflow:visible;"
       id="Arrow1Lend"
       refX="0.0"
       refY="0.0"
       orient="auto"
       inkscape:stockid="Arrow1Lend"
       inkscape:isstock="true">
      <path
         transform="scale(0.8) rotate(180) translate(12.5,0)"
         style="fill-rule:evenodd;fill:context-stroke;stroke:context-stroke;stroke-width:1.0pt;"
         d="M 0.0,0.0 L 5.0,-5.0 L -12.5,0.0 L 5.0,5.0 L 0.0,0.0 z "
         id="path24083" />
    </marker>
  </defs>
  <g
     inkscape:label="Full Cascade Style"
     inkscape:groupmode="layer"
     id="g17992"
     style="display:inline">
    <g
       id="g17906"
       transform="translate(124.68868,23.38778)">
      <path
         style="fill:#bc4b49;fill-opacity:1;stroke:#bc4b49;stroke-width:1;stroke-linecap:round;stroke-linejoin:round;stroke-miterlimit:4;stroke-dasharray:none;stroke-opacity:1"
         d="m -99.500015,30.838997 c 0,0 3.638799,-12.735798 11.176313,-18.453912 7.537513,-5.7181136 12.496916,-8.4784226 23.142885,-10.0872826 10.645968,-1.60885902 11.594881,-2.51410402 19.483052,-1.089031 7.888169,1.425072 21.667403,2.638059 27.063051,17.1643086 6.81601,18.350201 6.7258,20.263344 4.38657,25.721542 -2.33923,5.458201 -12.829945,17.760783 -15.334937,20.793141 -4.938372,5.978028 -5.458199,8.317257 -3.118973,13.255629 0.330604,2.90298 6.162124,16.3246 -1.302394,6.77885 -6.495032,-13.276708 -1.296749,-18.994823 1.822223,-22.893535 3.118972,-3.898715 15.179241,-16.422587 15.075031,-22.61254 -0.10422,-6.189957 -5.4582,-19.233654 -7.277605,-20.013397 -1.819399,-0.779743 -7.017683,-14.5551986 -26.771164,-12.7357996 -19.753485,1.819402 -19.233657,3.3788866 -25.211683,9.6168266 -5.152861,5.376899 -9.876742,12.21597 -7.277599,14.035371 2.599142,1.8194 -15.85477,0.519829 -15.85477,0.519829 z"
         id="path17902"
         sodipodi:nodetypes="cssssssccssssssc" />
      <path
         id="path17904"
         style="display:inline;fill:#9d3a3a;fill-opacity:1;stroke:#9d3a3a;stroke-width:3.77953;stroke-linecap:round;stroke-linejoin:round;stroke-miterlimit:4;stroke-dasharray:none;stroke-opacity:1"
         d="m -198.50781,1.9003906 c -11.86585,0.2218352 -22.69775,2.9847019 -47.84571,6.7851563 -40.23673,6.0807311 -58.98051,16.5132281 -87.46875,38.1250001 -28.48824,21.611769 -42.24023,69.746093 -42.24023,69.746093 0,0 4.05066,0.25117 7.5293,0.46289 4.26508,-12.64023 17.66416,-47.519947 40.73437,-65.021483 28.48824,-21.611765 47.23397,-32.044269 87.47071,-38.125 40.23672,-6.0807282 43.82315,-9.5013383 73.63671,-4.1152345 20.11821,3.6345445 50.36393,6.9268215 74.181644,25.5390625 C -117.04264,12.062664 -150.85821,8.5173186 -172.7168,4.5683594 -183.89688,2.5485708 -191.3883,1.7672895 -198.50781,1.9003906 Z m 85.4707,47.4980474 c 12.08952,11.359811 17.783837,22.610761 20.875001,23.935546 6.876491,2.947061 27.111957,52.245516 27.505859,75.640626 0.393865,23.3951 -45.18832,70.72954 -56.97656,85.46484 -11.78824,14.73529 -31.43683,36.34766 -6.88867,86.52735 6.32744,8.09164 10.12193,11.80717 12.19531,12.59375 -1.72535,-1.89721 -3.75185,-4.31148 -6.17188,-7.40625 -24.54815,-50.17969 -4.89957,-71.79206 6.88867,-86.52735 11.78825,-14.7353 57.370432,-62.06974 56.976568,-85.46484 C -59.026715,130.767 -79.262181,81.468545 -86.138672,78.521484 -89.703333,76.993771 -96.724636,62.271435 -113.03711,49.398438 Z"
         transform="scale(0.26458333)" />
    </g>
    <g
       id="g1582-1-6"
       transform="matrix(0.3112777,0,0,-0.38362995,-822.72397,760.4516)"
       style="display:inline">
      <path
         d="m 2651.62,1847.23 v -1.11 c 0,-16.09 5.85,-31.62 16.47,-43.71 h 171.95 c 5.3,6.05 9.42,12.95 12.21,20.35 2.79,7.41 4.25,15.32 4.25,23.36 v 1.11 h -204.88"
         style="fill:#7486f5;fill-opacity:1;fill-rule:nonzero;stroke:none;stroke-width:0.1"
         id="path266-6-15" />
      <path
         d="m 2679.53,1802.41 h 149.06 v -14.74 h -149.06 v 14.74"
         style="fill:#6475e0;fill-opacity:1;fill-rule:nonzero;stroke:none;stroke-width:0.1"
         id="path270-6-4" />
      <path
         d="m 2665.63,1847.23 h -14.01 v -1.11 c 0,-16.09 5.85,-31.62 16.47,-43.71 h 14 c -10.61,12.09 -16.46,27.62 -16.46,43.71 v 1.11"
         style="fill:#5266d3;fill-opacity:1;fill-rule:nonzero;stroke:none;stroke-width:0.1"
         id="path280-2-87" />
      <path
         d="m 2679.53,1802.41 h 14 v -14.74 h -14 v 14.74"
         style="fill:#4d5ec2;fill-opacity:1;fill-rule:nonzero;stroke:none;stroke-width:0.1"
         id="path282-6-23" />
    </g>
    <g
       id="g2469-0-1-1-7-07-7"
       style="display:inline"
       transform="translate(-3.76031,-38.939733)">
      <g
         id="g16088-3-9-2-4-9-1"
         transform="matrix(1.0970525,0,0,1.0970525,-112.63298,-9.184748)"
         style="display:inline">
        <g
           id="g16024-2-2-7-59-9-6">
          <path
             fill="#000000"
             d="m 151.83738,51.583012 -4.45472,1.194835 1.55252,2.873166 -2.59636,0.696885 -0.10873,-3.261455 -4.38999,1.17771 -1.18551,4.42577 3.264,0.09266 -0.69816,2.604332 -2.87719,-1.535351 -1.18289,4.411314 3.21496,3.214954 1.72072,-2.779061 1.91813,1.918128 -2.77915,1.722035 3.24408,3.244075 4.39927,-1.178939 -1.54722,-2.883763 2.60823,-0.698157 0.10076,3.270653 4.43764,-1.189621 1.18564,-4.427042 -3.2707,-0.100717 0.6968,-2.601661 2.88377,1.54722 1.18301,-4.417843 -3.264,-3.26527 -1.71551,2.785759 -1.89159,-1.892991 2.77253,-1.727376 z m -2.67436,4.490625 0.48876,0.904764 -0.96962,2.955402 -2.29303,-2.081117 -0.0345,-1.025404 2.80831,-0.753687 z m 2.71557,0.710026 2.04657,2.047968 -0.55107,0.89548 -3.04399,0.638472 0.65563,-3.025557 z m -7.47914,2.012234 1.00676,0.02908 2.07446,2.316845 -2.94875,0.944525 -0.8876,-0.474255 0.75509,-2.816237 z m 9.37209,2.270386 0.89548,0.48091 -0.75369,2.813608 -1.01608,-0.03179 -2.05589,-2.286409 2.93022,-0.976232 z m -5.90275,1.759168 -0.61995,3.025599 -0.82787,0.512659 -2.07179,-2.073105 0.51266,-0.826597 3.00695,-0.638514 z m 1.71415,0.468998 2.31023,2.049282 0.0305,0.997427 -2.82031,0.756399 -0.47154,-0.879583 0.95114,-2.923525 z"
             id="path2-3-53-2-5-5-0-2"
             style="fill:#cc9900;fill-opacity:1;stroke-width:0.0423895" />
          <path
             id="path2-3-5-3-1-2-5-5-0"
             style="display:inline;fill:#b38a10;fill-opacity:1;stroke-width:0.0423894"
             d="m 151.83733,51.583044 -4.45451,1.194761 0.20102,0.371551 0.23358,-0.06253 0.0176,0.528135 1.10019,2.036051 -1.02268,0.274402 0.014,0.422714 2.59622,-0.697116 -1.55236,-2.873208 3.20291,-0.858864 z m -5.60741,1.503783 -4.38991,1.177708 -1.18546,4.425569 3.26388,0.0925 -0.49971,1.863453 0.42427,0.22634 0.55655,-2.076357 1.00666,0.02894 0.0682,0.07597 0.0315,-0.118338 -3.26388,-0.0925 1.18546,-4.425569 2.81636,-0.755509 z m 9.66246,2.551266 -1.11001,1.802993 0.98185,0.982885 1.11053,-1.80299 z m -5.14181,0.435634 -1.38647,0.372071 0.28783,0.532783 -0.60564,1.845366 1.22318,1.110009 0.45372,-1.382345 0.26251,-1.211294 0.1695,-0.105939 0.0842,-0.255797 z m 2.14354,1.066602 -0.32091,0.199988 -0.0248,0.113686 1.37666,1.377693 -0.55087,0.895554 -1.38131,0.289904 -0.0755,0.348816 3.04426,-0.63872 0.55087,-0.895554 -0.98186,-0.982369 -0.35398,0.574644 z m -6.90707,1.655712 -0.14004,0.521414 1.63349,1.824697 -1.95595,0.626316 0.59479,0.317812 2.94866,-0.944128 -2.07429,-2.317174 z m -5.64358,1.055748 -1.18287,4.411102 3.21479,3.215306 0.60719,-0.980302 -2.23448,-2.235004 0.98391,-3.670062 z m 15.01562,1.214398 v 5.16e-4 l -0.97927,0.326078 0.28732,0.154514 -0.61598,2.299599 0.37207,0.41393 0.66611,-2.487186 0.96583,0.518313 0.19947,-0.744656 z m 1.31775,0.707451 -0.19947,0.744656 1.49603,0.803051 0.19947,-0.744657 z m -7.22075,1.052131 -1.65985,0.352433 -0.50539,2.467549 0.71778,0.718302 0.72089,-0.446484 0.25166,-0.773079 z m 1.71462,0.468705 -0.35553,1.092956 1.07797,0.956532 0.0305,0.997355 -1.43195,0.384472 0.19947,0.37207 2.81998,-0.756542 -0.0305,-0.997355 z m -5.8415,1.977141 -0.2527,0.407725 0.93793,0.93793 -2.77916,1.721858 3.24373,3.244246 1.25212,-0.33538 -2.90835,-2.908866 2.77916,-1.721858 -0.60771,-0.607716 -0.5731,0.354499 z m 8.19795,1.55081 -1.57458,0.421161 0.0724,2.338358 0.24132,0.45062 1.34876,-0.361735 z" />
        </g>
        <g
           id="g16024-7-4-1-25-03-4-5"
           style="display:inline"
           transform="translate(13.639481,-4.5465347)">
          <path
             fill="#000000"
             d="m 151.83738,51.583012 -4.45472,1.194835 1.55252,2.873166 -2.59636,0.696885 -0.10873,-3.261455 -4.38999,1.17771 -1.18551,4.42577 3.264,0.09266 -0.69816,2.604332 -2.87719,-1.535351 -1.18289,4.411314 3.21496,3.214954 1.72072,-2.779061 1.91813,1.918128 -2.77915,1.722035 3.24408,3.244075 4.39927,-1.178939 -1.54722,-2.883763 2.60823,-0.698157 0.10076,3.270653 4.43764,-1.189621 1.18564,-4.427042 -3.2707,-0.100717 0.6968,-2.601661 2.88377,1.54722 1.18301,-4.417843 -3.264,-3.26527 -1.71551,2.785759 -1.89159,-1.892991 2.77253,-1.727376 z m -2.67436,4.490625 0.48876,0.904764 -0.96962,2.955402 -2.29303,-2.081117 -0.0345,-1.025404 2.80831,-0.753687 z m 2.71557,0.710026 2.04657,2.047968 -0.55107,0.89548 -3.04399,0.638472 0.65563,-3.025557 z m -7.47914,2.012234 1.00676,0.02908 2.07446,2.316845 -2.94875,0.944525 -0.8876,-0.474255 0.75509,-2.816237 z m 9.37209,2.270386 0.89548,0.48091 -0.75369,2.813608 -1.01608,-0.03179 -2.05589,-2.286409 2.93022,-0.976232 z m -5.90275,1.759168 -0.61995,3.025599 -0.82787,0.512659 -2.07179,-2.073105 0.51266,-0.826597 3.00695,-0.638514 z m 1.71415,0.468998 2.31023,2.049282 0.0305,0.997427 -2.82031,0.756399 -0.47154,-0.879583 0.95114,-2.923525 z"
             id="path2-3-9-9-0-1-0-0-1"
             style="fill:#cc9900;fill-opacity:1;stroke-width:0.0423895" />
          <path
             id="path2-3-5-1-2-2-62-65-6-7"
             style="display:inline;fill:#b38a10;fill-opacity:1;stroke-width:0.0423894"
             d="m 151.83733,51.583044 -4.45451,1.194761 0.20102,0.371551 0.23358,-0.06253 0.0176,0.528135 1.10019,2.036051 -1.02268,0.274402 0.014,0.422714 2.59622,-0.697116 -1.55236,-2.873208 3.20291,-0.858864 z m -5.60741,1.503783 -4.38991,1.177708 -1.18546,4.425569 3.26388,0.0925 -0.49971,1.863453 0.42427,0.22634 0.55655,-2.076357 1.00666,0.02894 0.0682,0.07597 0.0315,-0.118338 -3.26388,-0.0925 1.18546,-4.425569 2.81636,-0.755509 z m 9.66246,2.551266 -1.11001,1.802993 0.98185,0.982885 1.11053,-1.80299 z m -5.14181,0.435634 -1.38647,0.372071 0.28783,0.532783 -0.60564,1.845366 1.22318,1.110009 0.45372,-1.382345 0.26251,-1.211294 0.1695,-0.105939 0.0842,-0.255797 z m 2.14354,1.066602 -0.32091,0.199988 -0.0248,0.113686 1.37666,1.377693 -0.55087,0.895554 -1.38131,0.289904 -0.0755,0.348816 3.04426,-0.63872 0.55087,-0.895554 -0.98186,-0.982369 -0.35398,0.574644 z m -6.90707,1.655712 -0.14004,0.521414 1.63349,1.824697 -1.95595,0.626316 0.59479,0.317812 2.94866,-0.944128 -2.07429,-2.317174 z m -5.64358,1.055748 -1.18287,4.411102 3.21479,3.215306 0.60719,-0.980302 -2.23448,-2.235004 0.98391,-3.670062 z m 15.01562,1.214398 v 5.16e-4 l -0.97927,0.326078 0.28732,0.154514 -0.61598,2.299599 0.37207,0.41393 0.66611,-2.487186 0.96583,0.518313 0.19947,-0.744656 z m 1.31775,0.707451 -0.19947,0.744656 1.49603,0.803051 0.19947,-0.744657 z m -7.22075,1.052131 -1.65985,0.352433 -0.50539,2.467549 0.71778,0.718302 0.72089,-0.446484 0.25166,-0.773079 z m 1.71462,0.468705 -0.35553,1.092956 1.07797,0.956532 0.0305,0.997355 -1.43195,0.384472 0.19947,0.37207 2.81998,-0.756542 -0.0305,-0.997355 z m -5.8415,1.977141 -0.2527,0.407725 0.93793,0.93793 -2.77916,1.721858 3.24373,3.244246 1.25212,-0.33538 -2.90835,-2.908866 2.77916,-1.721858 -0.60771,-0.607716 -0.5731,0.354499 z m 8.19795,1.55081 -1.57458,0.421161 0.0724,2.338358 0.24132,0.45062 1.34876,-0.361735 z" />
        </g>
        <g
           id="g16024-0-49-0-3-1-95-6"
           style="display:inline"
           transform="translate(28.315329,-1.2e-5)">
          <path
             fill="#000000"
             d="m 151.83738,51.583012 -4.45472,1.194835 1.55252,2.873166 -2.59636,0.696885 -0.10873,-3.261455 -4.38999,1.17771 -1.18551,4.42577 3.264,0.09266 -0.69816,2.604332 -2.87719,-1.535351 -1.18289,4.411314 3.21496,3.214954 1.72072,-2.779061 1.91813,1.918128 -2.77915,1.722035 3.24408,3.244075 4.39927,-1.178939 -1.54722,-2.883763 2.60823,-0.698157 0.10076,3.270653 4.43764,-1.189621 1.18564,-4.427042 -3.2707,-0.100717 0.6968,-2.601661 2.88377,1.54722 1.18301,-4.417843 -3.264,-3.26527 -1.71551,2.785759 -1.89159,-1.892991 2.77253,-1.727376 z m -2.67436,4.490625 0.48876,0.904764 -0.96962,2.955402 -2.29303,-2.081117 -0.0345,-1.025404 2.80831,-0.753687 z m 2.71557,0.710026 2.04657,2.047968 -0.55107,0.89548 -3.04399,0.638472 0.65563,-3.025557 z m -7.47914,2.012234 1.00676,0.02908 2.07446,2.316845 -2.94875,0.944525 -0.8876,-0.474255 0.75509,-2.816237 z m 9.37209,2.270386 0.89548,0.48091 -0.75369,2.813608 -1.01608,-0.03179 -2.05589,-2.286409 2.93022,-0.976232 z m -5.90275,1.759168 -0.61995,3.025599 -0.82787,0.512659 -2.07179,-2.073105 0.51266,-0.826597 3.00695,-0.638514 z m 1.71415,0.468998 2.31023,2.049282 0.0305,0.997427 -2.82031,0.756399 -0.47154,-0.879583 0.95114,-2.923525 z"
             id="path2-3-1-3-7-9-1-2-7"
             style="fill:#cc9900;fill-opacity:1;stroke-width:0.0423895" />
          <path
             id="path2-3-5-8-9-6-2-4-5-3"
             style="display:inline;fill:#b38a10;fill-opacity:1;stroke-width:0.0423894"
             d="m 151.83733,51.583044 -4.45451,1.194761 0.20102,0.371551 0.23358,-0.06253 0.0176,0.528135 1.10019,2.036051 -1.02268,0.274402 0.014,0.422714 2.59622,-0.697116 -1.55236,-2.873208 3.20291,-0.858864 z m -5.60741,1.503783 -4.38991,1.177708 -1.18546,4.425569 3.26388,0.0925 -0.49971,1.863453 0.42427,0.22634 0.55655,-2.076357 1.00666,0.02894 0.0682,0.07597 0.0315,-0.118338 -3.26388,-0.0925 1.18546,-4.425569 2.81636,-0.755509 z m 9.66246,2.551266 -1.11001,1.802993 0.98185,0.982885 1.11053,-1.80299 z m -5.14181,0.435634 -1.38647,0.372071 0.28783,0.532783 -0.60564,1.845366 1.22318,1.110009 0.45372,-1.382345 0.26251,-1.211294 0.1695,-0.105939 0.0842,-0.255797 z m 2.14354,1.066602 -0.32091,0.199988 -0.0248,0.113686 1.37666,1.377693 -0.55087,0.895554 -1.38131,0.289904 -0.0755,0.348816 3.04426,-0.63872 0.55087,-0.895554 -0.98186,-0.982369 -0.35398,0.574644 z m -6.90707,1.655712 -0.14004,0.521414 1.63349,1.824697 -1.95595,0.626316 0.59479,0.317812 2.94866,-0.944128 -2.07429,-2.317174 z m -5.64358,1.055748 -1.18287,4.411102 3.21479,3.215306 0.60719,-0.980302 -2.23448,-2.235004 0.98391,-3.670062 z m 15.01562,1.214398 v 5.16e-4 l -0.97927,0.326078 0.28732,0.154514 -0.61598,2.299599 0.37207,0.41393 0.66611,-2.487186 0.96583,0.518313 0.19947,-0.744656 z m 1.31775,0.707451 -0.19947,0.744656 1.49603,0.803051 0.19947,-0.744657 z m -7.22075,1.052131 -1.65985,0.352433 -0.50539,2.467549 0.71778,0.718302 0.72089,-0.446484 0.25166,-0.773079 z m 1.71462,0.468705 -0.35553,1.092956 1.07797,0.956532 0.0305,0.997355 -1.43195,0.384472 0.19947,0.37207 2.81998,-0.756542 -0.0305,-0.997355 z m -5.8415,1.977141 -0.2527,0.407725 0.93793,0.93793 -2.77916,1.721858 3.24373,3.244246 1.25212,-0.33538 -2.90835,-2.908866 2.77916,-1.721858 -0.60771,-0.607716 -0.5731,0.354499 z m 8.19795,1.55081 -1.57458,0.421161 0.0724,2.338358 0.24132,0.45062 1.34876,-0.361735 z" />
        </g>
      </g>
      <g
         id="g6-75-7-90-1-0-3"
         transform="matrix(0.0234375,0,0,0.0234375,80.572134,45.280115)"
         style="display:inline;fill:#2b95f5;fill-opacity:1">
        <path
           class="st0"
           d="m 511.976,213.063 -45.863,-9.749 31.374,-34.845 C 472.114,131.733 417.268,115.015 360.373,127.926 355.071,69.826 322.223,22.83 279.444,10.052 L 256,50.659 232.556,10.053 C 189.777,22.832 156.93,69.828 151.627,127.927 94.733,115.016 39.886,131.734 14.514,168.47 l 31.374,34.844 -45.864,9.749 c -1.066,44.634 33.479,90.396 87.097,113.393 -29.86,50.12 -30.91,107.448 -3.812,142.931 l 42.834,-19.071 -4.901,46.632 c 42.12,14.806 96.318,-3.907 134.758,-47.794 38.44,43.887 92.638,62.6 134.758,47.794 l -4.901,-46.632 42.835,19.072 c 27.097,-35.483 26.048,-92.811 -3.812,-142.932 53.617,-22.996 88.162,-68.759 87.096,-113.393 z m -196.599,83.322 c 3.526,-2.358 7.678,-3.63 11.998,-3.63 3.762,0 7.479,0.998 10.752,2.889 4.986,2.876 8.552,7.525 10.043,13.085 1.49,5.56 0.725,11.369 -2.156,16.353 -3.838,6.65 -10.996,10.781 -18.68,10.781 -3.765,0 -7.484,-1 -10.758,-2.89 -7.126,-4.116 -11.228,-12.025 -10.724,-20.072 l -40.32,-23.278 v 46.552 c 7.222,3.587 12.021,11.096 12.021,19.327 0,11.884 -9.669,21.551 -21.553,21.551 -11.884,0 -21.553,-9.667 -21.553,-21.551 0,-8.231 4.799,-15.74 12.021,-19.327 v -46.552 l -40.319,23.278 c 0.504,8.047 -3.598,15.956 -10.724,20.072 -3.275,1.889 -6.994,2.89 -10.758,2.89 -7.684,0 -14.842,-4.132 -18.682,-10.781 -2.878,-4.984 -3.644,-10.792 -2.154,-16.353 1.49,-5.56 5.057,-10.209 10.043,-13.087 3.272,-1.889 6.989,-2.887 10.752,-2.887 4.321,0 8.473,1.272 11.996,3.63 l 40.312,-23.274 -40.312,-23.272 c -3.523,2.359 -7.675,3.63 -11.996,3.63 -3.762,0 -7.479,-0.998 -10.752,-2.89 -4.986,-2.876 -8.552,-7.525 -10.043,-13.085 -1.49,-5.56 -0.724,-11.369 2.156,-16.353 3.838,-6.65 10.995,-10.781 18.68,-10.781 3.764,0 7.484,1 10.758,2.89 7.126,4.116 11.228,12.025 10.724,20.072 l 40.319,23.278 v -46.552 c -7.222,-3.587 -12.021,-11.096 -12.021,-19.327 0,-11.884 9.669,-21.551 21.553,-21.551 11.884,0 21.553,9.667 21.553,21.551 0,8.231 -4.799,15.74 -12.021,19.327 V 256.6 l 40.32,-23.278 c -0.504,-8.047 3.598,-15.956 10.724,-20.072 3.275,-1.889 6.994,-2.89 10.758,-2.89 7.684,0 14.842,4.132 18.682,10.781 2.878,4.984 3.644,10.792 2.154,16.353 -1.49,5.56 -5.057,10.209 -10.043,13.088 -3.272,1.889 -6.989,2.887 -10.752,2.887 -4.32,0 -8.472,-1.272 -11.998,-3.63 l -40.31,23.272 z"
           id="path4-1-5-9-3-3-8-5"
           style="fill:#2b95f5;fill-opacity:1" />
      </g>
      <g
         id="g6-2-7-0-9-0-26-1"
         transform="matrix(0.0234375,0,0,0.0234375,63.394148,39.213816)"
         style="display:inline;fill:#2b95f5;fill-opacity:1">
        <path
           class="st0"
           d="m 511.976,213.063 -45.863,-9.749 31.374,-34.845 C 472.114,131.733 417.268,115.015 360.373,127.926 355.071,69.826 322.223,22.83 279.444,10.052 L 256,50.659 232.556,10.053 C 189.777,22.832 156.93,69.828 151.627,127.927 94.733,115.016 39.886,131.734 14.514,168.47 l 31.374,34.844 -45.864,9.749 c -1.066,44.634 33.479,90.396 87.097,113.393 -29.86,50.12 -30.91,107.448 -3.812,142.931 l 42.834,-19.071 -4.901,46.632 c 42.12,14.806 96.318,-3.907 134.758,-47.794 38.44,43.887 92.638,62.6 134.758,47.794 l -4.901,-46.632 42.835,19.072 c 27.097,-35.483 26.048,-92.811 -3.812,-142.932 53.617,-22.996 88.162,-68.759 87.096,-113.393 z m -196.599,83.322 c 3.526,-2.358 7.678,-3.63 11.998,-3.63 3.762,0 7.479,0.998 10.752,2.889 4.986,2.876 8.552,7.525 10.043,13.085 1.49,5.56 0.725,11.369 -2.156,16.353 -3.838,6.65 -10.996,10.781 -18.68,10.781 -3.765,0 -7.484,-1 -10.758,-2.89 -7.126,-4.116 -11.228,-12.025 -10.724,-20.072 l -40.32,-23.278 v 46.552 c 7.222,3.587 12.021,11.096 12.021,19.327 0,11.884 -9.669,21.551 -21.553,21.551 -11.884,0 -21.553,-9.667 -21.553,-21.551 0,-8.231 4.799,-15.74 12.021,-19.327 v -46.552 l -40.319,23.278 c 0.504,8.047 -3.598,15.956 -10.724,20.072 -3.275,1.889 -6.994,2.89 -10.758,2.89 -7.684,0 -14.842,-4.132 -18.682,-10.781 -2.878,-4.984 -3.644,-10.792 -2.154,-16.353 1.49,-5.56 5.057,-10.209 10.043,-13.087 3.272,-1.889 6.989,-2.887 10.752,-2.887 4.321,0 8.473,1.272 11.996,3.63 l 40.312,-23.274 -40.312,-23.272 c -3.523,2.359 -7.675,3.63 -11.996,3.63 -3.762,0 -7.479,-0.998 -10.752,-2.89 -4.986,-2.876 -8.552,-7.525 -10.043,-13.085 -1.49,-5.56 -0.724,-11.369 2.156,-16.353 3.838,-6.65 10.995,-10.781 18.68,-10.781 3.764,0 7.484,1 10.758,2.89 7.126,4.116 11.228,12.025 10.724,20.072 l 40.319,23.278 v -46.552 c -7.222,-3.587 -12.021,-11.096 -12.021,-19.327 0,-11.884 9.669,-21.551 21.553,-21.551 11.884,0 21.553,9.667 21.553,21.551 0,8.231 -4.799,15.74 -12.021,19.327 V 256.6 l 40.32,-23.278 c -0.504,-8.047 3.598,-15.956 10.724,-20.072 3.275,-1.889 6.994,-2.89 10.758,-2.89 7.684,0 14.842,4.132 18.682,10.781 2.878,4.984 3.644,10.792 2.154,16.353 -1.49,5.56 -5.057,10.209 -10.043,13.088 -3.272,1.889 -6.989,2.887 -10.752,2.887 -4.32,0 -8.472,-1.272 -11.998,-3.63 l -40.31,23.272 z"
           id="path4-1-1-3-2-5-5-7-2"
           style="fill:#2b95f5;fill-opacity:1" />
      </g>
      <g
         id="g6-2-3-40-2-18-1-04-3"
         transform="matrix(0.0234375,0,0,0.0234375,48.430921,44.201603)"
         style="display:inline;fill:#2b95f5;fill-opacity:1">
        <path
           class="st0"
           d="m 511.976,213.063 -45.863,-9.749 31.374,-34.845 C 472.114,131.733 417.268,115.015 360.373,127.926 355.071,69.826 322.223,22.83 279.444,10.052 L 256,50.659 232.556,10.053 C 189.777,22.832 156.93,69.828 151.627,127.927 94.733,115.016 39.886,131.734 14.514,168.47 l 31.374,34.844 -45.864,9.749 c -1.066,44.634 33.479,90.396 87.097,113.393 -29.86,50.12 -30.91,107.448 -3.812,142.931 l 42.834,-19.071 -4.901,46.632 c 42.12,14.806 96.318,-3.907 134.758,-47.794 38.44,43.887 92.638,62.6 134.758,47.794 l -4.901,-46.632 42.835,19.072 c 27.097,-35.483 26.048,-92.811 -3.812,-142.932 53.617,-22.996 88.162,-68.759 87.096,-113.393 z m -196.599,83.322 c 3.526,-2.358 7.678,-3.63 11.998,-3.63 3.762,0 7.479,0.998 10.752,2.889 4.986,2.876 8.552,7.525 10.043,13.085 1.49,5.56 0.725,11.369 -2.156,16.353 -3.838,6.65 -10.996,10.781 -18.68,10.781 -3.765,0 -7.484,-1 -10.758,-2.89 -7.126,-4.116 -11.228,-12.025 -10.724,-20.072 l -40.32,-23.278 v 46.552 c 7.222,3.587 12.021,11.096 12.021,19.327 0,11.884 -9.669,21.551 -21.553,21.551 -11.884,0 -21.553,-9.667 -21.553,-21.551 0,-8.231 4.799,-15.74 12.021,-19.327 v -46.552 l -40.319,23.278 c 0.504,8.047 -3.598,15.956 -10.724,20.072 -3.275,1.889 -6.994,2.89 -10.758,2.89 -7.684,0 -14.842,-4.132 -18.682,-10.781 -2.878,-4.984 -3.644,-10.792 -2.154,-16.353 1.49,-5.56 5.057,-10.209 10.043,-13.087 3.272,-1.889 6.989,-2.887 10.752,-2.887 4.321,0 8.473,1.272 11.996,3.63 l 40.312,-23.274 -40.312,-23.272 c -3.523,2.359 -7.675,3.63 -11.996,3.63 -3.762,0 -7.479,-0.998 -10.752,-2.89 -4.986,-2.876 -8.552,-7.525 -10.043,-13.085 -1.49,-5.56 -0.724,-11.369 2.156,-16.353 3.838,-6.65 10.995,-10.781 18.68,-10.781 3.764,0 7.484,1 10.758,2.89 7.126,4.116 11.228,12.025 10.724,20.072 l 40.319,23.278 v -46.552 c -7.222,-3.587 -12.021,-11.096 -12.021,-19.327 0,-11.884 9.669,-21.551 21.553,-21.551 11.884,0 21.553,9.667 21.553,21.551 0,8.231 -4.799,15.74 -12.021,19.327 V 256.6 l 40.32,-23.278 c -0.504,-8.047 3.598,-15.956 10.724,-20.072 3.275,-1.889 6.994,-2.89 10.758,-2.89 7.684,0 14.842,4.132 18.682,10.781 2.878,4.984 3.644,10.792 2.154,16.353 -1.49,5.56 -5.057,10.209 -10.043,13.088 -3.272,1.889 -6.989,2.887 -10.752,2.887 -4.32,0 -8.472,-1.272 -11.998,-3.63 l -40.31,23.272 z"
           id="path4-1-1-7-7-8-8-96-3-3"
           style="fill:#2b95f5;fill-opacity:1" />
      </g>
    </g>
    <g
       id="g2469-0-1-1-7-07-4"
       style="display:inline"
       transform="translate(37.838071,-17.563449)">
      <g
         id="g16088-3-9-2-4-9-6"
         transform="matrix(1.0970525,0,0,1.0970525,-112.63298,-9.184748)"
         style="display:inline">
        <g
           id="g16024-2-2-7-59-9-4">
          <path
             fill="#000000"
             d="m 151.83738,51.583012 -4.45472,1.194835 1.55252,2.873166 -2.59636,0.696885 -0.10873,-3.261455 -4.38999,1.17771 -1.18551,4.42577 3.264,0.09266 -0.69816,2.604332 -2.87719,-1.535351 -1.18289,4.411314 3.21496,3.214954 1.72072,-2.779061 1.91813,1.918128 -2.77915,1.722035 3.24408,3.244075 4.39927,-1.178939 -1.54722,-2.883763 2.60823,-0.698157 0.10076,3.270653 4.43764,-1.189621 1.18564,-4.427042 -3.2707,-0.100717 0.6968,-2.601661 2.88377,1.54722 1.18301,-4.417843 -3.264,-3.26527 -1.71551,2.785759 -1.89159,-1.892991 2.77253,-1.727376 z m -2.67436,4.490625 0.48876,0.904764 -0.96962,2.955402 -2.29303,-2.081117 -0.0345,-1.025404 2.80831,-0.753687 z m 2.71557,0.710026 2.04657,2.047968 -0.55107,0.89548 -3.04399,0.638472 0.65563,-3.025557 z m -7.47914,2.012234 1.00676,0.02908 2.07446,2.316845 -2.94875,0.944525 -0.8876,-0.474255 0.75509,-2.816237 z m 9.37209,2.270386 0.89548,0.48091 -0.75369,2.813608 -1.01608,-0.03179 -2.05589,-2.286409 2.93022,-0.976232 z m -5.90275,1.759168 -0.61995,3.025599 -0.82787,0.512659 -2.07179,-2.073105 0.51266,-0.826597 3.00695,-0.638514 z m 1.71415,0.468998 2.31023,2.049282 0.0305,0.997427 -2.82031,0.756399 -0.47154,-0.879583 0.95114,-2.923525 z"
             id="path2-3-53-2-5-5-0-8"
             style="fill:#cc9900;fill-opacity:1;stroke-width:0.0423895" />
          <path
             id="path2-3-5-3-1-2-5-5-3"
             style="display:inline;fill:#b38a10;fill-opacity:1;stroke-width:0.0423894"
             d="m 151.83733,51.583044 -4.45451,1.194761 0.20102,0.371551 0.23358,-0.06253 0.0176,0.528135 1.10019,2.036051 -1.02268,0.274402 0.014,0.422714 2.59622,-0.697116 -1.55236,-2.873208 3.20291,-0.858864 z m -5.60741,1.503783 -4.38991,1.177708 -1.18546,4.425569 3.26388,0.0925 -0.49971,1.863453 0.42427,0.22634 0.55655,-2.076357 1.00666,0.02894 0.0682,0.07597 0.0315,-0.118338 -3.26388,-0.0925 1.18546,-4.425569 2.81636,-0.755509 z m 9.66246,2.551266 -1.11001,1.802993 0.98185,0.982885 1.11053,-1.80299 z m -5.14181,0.435634 -1.38647,0.372071 0.28783,0.532783 -0.60564,1.845366 1.22318,1.110009 0.45372,-1.382345 0.26251,-1.211294 0.1695,-0.105939 0.0842,-0.255797 z m 2.14354,1.066602 -0.32091,0.199988 -0.0248,0.113686 1.37666,1.377693 -0.55087,0.895554 -1.38131,0.289904 -0.0755,0.348816 3.04426,-0.63872 0.55087,-0.895554 -0.98186,-0.982369 -0.35398,0.574644 z m -6.90707,1.655712 -0.14004,0.521414 1.63349,1.824697 -1.95595,0.626316 0.59479,0.317812 2.94866,-0.944128 -2.07429,-2.317174 z m -5.64358,1.055748 -1.18287,4.411102 3.21479,3.215306 0.60719,-0.980302 -2.23448,-2.235004 0.98391,-3.670062 z m 15.01562,1.214398 v 5.16e-4 l -0.97927,0.326078 0.28732,0.154514 -0.61598,2.299599 0.37207,0.41393 0.66611,-2.487186 0.96583,0.518313 0.19947,-0.744656 z m 1.31775,0.707451 -0.19947,0.744656 1.49603,0.803051 0.19947,-0.744657 z m -7.22075,1.052131 -1.65985,0.352433 -0.50539,2.467549 0.71778,0.718302 0.72089,-0.446484 0.25166,-0.773079 z m 1.71462,0.468705 -0.35553,1.092956 1.07797,0.956532 0.0305,0.997355 -1.43195,0.384472 0.19947,0.37207 2.81998,-0.756542 -0.0305,-0.997355 z m -5.8415,1.977141 -0.2527,0.407725 0.93793,0.93793 -2.77916,1.721858 3.24373,3.244246 1.25212,-0.33538 -2.90835,-2.908866 2.77916,-1.721858 -0.60771,-0.607716 -0.5731,0.354499 z m 8.19795,1.55081 -1.57458,0.421161 0.0724,2.338358 0.24132,0.45062 1.34876,-0.361735 z" />
        </g>
        <g
           id="g16024-7-4-1-25-03-4-2"
           style="display:inline"
           transform="translate(13.639481,-4.5465347)">
          <path
             fill="#000000"
             d="m 151.83738,51.583012 -4.45472,1.194835 1.55252,2.873166 -2.59636,0.696885 -0.10873,-3.261455 -4.38999,1.17771 -1.18551,4.42577 3.264,0.09266 -0.69816,2.604332 -2.87719,-1.535351 -1.18289,4.411314 3.21496,3.214954 1.72072,-2.779061 1.91813,1.918128 -2.77915,1.722035 3.24408,3.244075 4.39927,-1.178939 -1.54722,-2.883763 2.60823,-0.698157 0.10076,3.270653 4.43764,-1.189621 1.18564,-4.427042 -3.2707,-0.100717 0.6968,-2.601661 2.88377,1.54722 1.18301,-4.417843 -3.264,-3.26527 -1.71551,2.785759 -1.89159,-1.892991 2.77253,-1.727376 z m -2.67436,4.490625 0.48876,0.904764 -0.96962,2.955402 -2.29303,-2.081117 -0.0345,-1.025404 2.80831,-0.753687 z m 2.71557,0.710026 2.04657,2.047968 -0.55107,0.89548 -3.04399,0.638472 0.65563,-3.025557 z m -7.47914,2.012234 1.00676,0.02908 2.07446,2.316845 -2.94875,0.944525 -0.8876,-0.474255 0.75509,-2.816237 z m 9.37209,2.270386 0.89548,0.48091 -0.75369,2.813608 -1.01608,-0.03179 -2.05589,-2.286409 2.93022,-0.976232 z m -5.90275,1.759168 -0.61995,3.025599 -0.82787,0.512659 -2.07179,-2.073105 0.51266,-0.826597 3.00695,-0.638514 z m 1.71415,0.468998 2.31023,2.049282 0.0305,0.997427 -2.82031,0.756399 -0.47154,-0.879583 0.95114,-2.923525 z"
             id="path2-3-9-9-0-1-0-0-0"
             style="fill:#cc9900;fill-opacity:1;stroke-width:0.0423895" />
          <path
             id="path2-3-5-1-2-2-62-65-6-9"
             style="display:inline;fill:#b38a10;fill-opacity:1;stroke-width:0.0423894"
             d="m 151.83733,51.583044 -4.45451,1.194761 0.20102,0.371551 0.23358,-0.06253 0.0176,0.528135 1.10019,2.036051 -1.02268,0.274402 0.014,0.422714 2.59622,-0.697116 -1.55236,-2.873208 3.20291,-0.858864 z m -5.60741,1.503783 -4.38991,1.177708 -1.18546,4.425569 3.26388,0.0925 -0.49971,1.863453 0.42427,0.22634 0.55655,-2.076357 1.00666,0.02894 0.0682,0.07597 0.0315,-0.118338 -3.26388,-0.0925 1.18546,-4.425569 2.81636,-0.755509 z m 9.66246,2.551266 -1.11001,1.802993 0.98185,0.982885 1.11053,-1.80299 z m -5.14181,0.435634 -1.38647,0.372071 0.28783,0.532783 -0.60564,1.845366 1.22318,1.110009 0.45372,-1.382345 0.26251,-1.211294 0.1695,-0.105939 0.0842,-0.255797 z m 2.14354,1.066602 -0.32091,0.199988 -0.0248,0.113686 1.37666,1.377693 -0.55087,0.895554 -1.38131,0.289904 -0.0755,0.348816 3.04426,-0.63872 0.55087,-0.895554 -0.98186,-0.982369 -0.35398,0.574644 z m -6.90707,1.655712 -0.14004,0.521414 1.63349,1.824697 -1.95595,0.626316 0.59479,0.317812 2.94866,-0.944128 -2.07429,-2.317174 z m -5.64358,1.055748 -1.18287,4.411102 3.21479,3.215306 0.60719,-0.980302 -2.23448,-2.235004 0.98391,-3.670062 z m 15.01562,1.214398 v 5.16e-4 l -0.97927,0.326078 0.28732,0.154514 -0.61598,2.299599 0.37207,0.41393 0.66611,-2.487186 0.96583,0.518313 0.19947,-0.744656 z m 1.31775,0.707451 -0.19947,0.744656 1.49603,0.803051 0.19947,-0.744657 z m -7.22075,1.052131 -1.65985,0.352433 -0.50539,2.467549 0.71778,0.718302 0.72089,-0.446484 0.25166,-0.773079 z m 1.71462,0.468705 -0.35553,1.092956 1.07797,0.956532 0.0305,0.997355 -1.43195,0.384472 0.19947,0.37207 2.81998,-0.756542 -0.0305,-0.997355 z m -5.8415,1.977141 -0.2527,0.407725 0.93793,0.93793 -2.77916,1.721858 3.24373,3.244246 1.25212,-0.33538 -2.90835,-2.908866 2.77916,-1.721858 -0.60771,-0.607716 -0.5731,0.354499 z m 8.19795,1.55081 -1.57458,0.421161 0.0724,2.338358 0.24132,0.45062 1.34876,-0.361735 z" />
        </g>
        <g
           id="g16024-0-49-0-3-1-95-8"
           style="display:inline"
           transform="translate(28.315329,-1.2e-5)">
          <path
             fill="#000000"
             d="m 151.83738,51.583012 -4.45472,1.194835 1.55252,2.873166 -2.59636,0.696885 -0.10873,-3.261455 -4.38999,1.17771 -1.18551,4.42577 3.264,0.09266 -0.69816,2.604332 -2.87719,-1.535351 -1.18289,4.411314 3.21496,3.214954 1.72072,-2.779061 1.91813,1.918128 -2.77915,1.722035 3.24408,3.244075 4.39927,-1.178939 -1.54722,-2.883763 2.60823,-0.698157 0.10076,3.270653 4.43764,-1.189621 1.18564,-4.427042 -3.2707,-0.100717 0.6968,-2.601661 2.88377,1.54722 1.18301,-4.417843 -3.264,-3.26527 -1.71551,2.785759 -1.89159,-1.892991 2.77253,-1.727376 z m -2.67436,4.490625 0.48876,0.904764 -0.96962,2.955402 -2.29303,-2.081117 -0.0345,-1.025404 2.80831,-0.753687 z m 2.71557,0.710026 2.04657,2.047968 -0.55107,0.89548 -3.04399,0.638472 0.65563,-3.025557 z m -7.47914,2.012234 1.00676,0.02908 2.07446,2.316845 -2.94875,0.944525 -0.8876,-0.474255 0.75509,-2.816237 z m 9.37209,2.270386 0.89548,0.48091 -0.75369,2.813608 -1.01608,-0.03179 -2.05589,-2.286409 2.93022,-0.976232 z m -5.90275,1.759168 -0.61995,3.025599 -0.82787,0.512659 -2.07179,-2.073105 0.51266,-0.826597 3.00695,-0.638514 z m 1.71415,0.468998 2.31023,2.049282 0.0305,0.997427 -2.82031,0.756399 -0.47154,-0.879583 0.95114,-2.923525 z"
             id="path2-3-1-3-7-9-1-2-8"
             style="fill:#cc9900;fill-opacity:1;stroke-width:0.0423895" />
          <path
             id="path2-3-5-8-9-6-2-4-5-8"
             style="display:inline;fill:#b38a10;fill-opacity:1;stroke-width:0.0423894"
             d="m 151.83733,51.583044 -4.45451,1.194761 0.20102,0.371551 0.23358,-0.06253 0.0176,0.528135 1.10019,2.036051 -1.02268,0.274402 0.014,0.422714 2.59622,-0.697116 -1.55236,-2.873208 3.20291,-0.858864 z m -5.60741,1.503783 -4.38991,1.177708 -1.18546,4.425569 3.26388,0.0925 -0.49971,1.863453 0.42427,0.22634 0.55655,-2.076357 1.00666,0.02894 0.0682,0.07597 0.0315,-0.118338 -3.26388,-0.0925 1.18546,-4.425569 2.81636,-0.755509 z m 9.66246,2.551266 -1.11001,1.802993 0.98185,0.982885 1.11053,-1.80299 z m -5.14181,0.435634 -1.38647,0.372071 0.28783,0.532783 -0.60564,1.845366 1.22318,1.110009 0.45372,-1.382345 0.26251,-1.211294 0.1695,-0.105939 0.0842,-0.255797 z m 2.14354,1.066602 -0.32091,0.199988 -0.0248,0.113686 1.37666,1.377693 -0.55087,0.895554 -1.38131,0.289904 -0.0755,0.348816 3.04426,-0.63872 0.55087,-0.895554 -0.98186,-0.982369 -0.35398,0.574644 z m -6.90707,1.655712 -0.14004,0.521414 1.63349,1.824697 -1.95595,0.626316 0.59479,0.317812 2.94866,-0.944128 -2.07429,-2.317174 z m -5.64358,1.055748 -1.18287,4.411102 3.21479,3.215306 0.60719,-0.980302 -2.23448,-2.235004 0.98391,-3.670062 z m 15.01562,1.214398 v 5.16e-4 l -0.97927,0.326078 0.28732,0.154514 -0.61598,2.299599 0.37207,0.41393 0.66611,-2.487186 0.96583,0.518313 0.19947,-0.744656 z m 1.31775,0.707451 -0.19947,0.744656 1.49603,0.803051 0.19947,-0.744657 z m -7.22075,1.052131 -1.65985,0.352433 -0.50539,2.467549 0.71778,0.718302 0.72089,-0.446484 0.25166,-0.773079 z m 1.71462,0.468705 -0.35553,1.092956 1.07797,0.956532 0.0305,0.997355 -1.43195,0.384472 0.19947,0.37207 2.81998,-0.756542 -0.0305,-0.997355 z m -5.8415,1.977141 -0.2527,0.407725 0.93793,0.93793 -2.77916,1.721858 3.24373,3.244246 1.25212,-0.33538 -2.90835,-2.908866 2.77916,-1.721858 -0.60771,-0.607716 -0.5731,0.354499 z m 8.19795,1.55081 -1.57458,0.421161 0.0724,2.338358 0.24132,0.45062 1.34876,-0.361735 z" />
        </g>
      </g>
      <g
         id="g6-75-7-90-1-0-5"
         transform="matrix(0.0234375,0,0,0.0234375,80.572134,45.280115)"
         style="display:inline;fill:#2b95f5;fill-opacity:1">
        <path
           class="st0"
           d="m 511.976,213.063 -45.863,-9.749 31.374,-34.845 C 472.114,131.733 417.268,115.015 360.373,127.926 355.071,69.826 322.223,22.83 279.444,10.052 L 256,50.659 232.556,10.053 C 189.777,22.832 156.93,69.828 151.627,127.927 94.733,115.016 39.886,131.734 14.514,168.47 l 31.374,34.844 -45.864,9.749 c -1.066,44.634 33.479,90.396 87.097,113.393 -29.86,50.12 -30.91,107.448 -3.812,142.931 l 42.834,-19.071 -4.901,46.632 c 42.12,14.806 96.318,-3.907 134.758,-47.794 38.44,43.887 92.638,62.6 134.758,47.794 l -4.901,-46.632 42.835,19.072 c 27.097,-35.483 26.048,-92.811 -3.812,-142.932 53.617,-22.996 88.162,-68.759 87.096,-113.393 z m -196.599,83.322 c 3.526,-2.358 7.678,-3.63 11.998,-3.63 3.762,0 7.479,0.998 10.752,2.889 4.986,2.876 8.552,7.525 10.043,13.085 1.49,5.56 0.725,11.369 -2.156,16.353 -3.838,6.65 -10.996,10.781 -18.68,10.781 -3.765,0 -7.484,-1 -10.758,-2.89 -7.126,-4.116 -11.228,-12.025 -10.724,-20.072 l -40.32,-23.278 v 46.552 c 7.222,3.587 12.021,11.096 12.021,19.327 0,11.884 -9.669,21.551 -21.553,21.551 -11.884,0 -21.553,-9.667 -21.553,-21.551 0,-8.231 4.799,-15.74 12.021,-19.327 v -46.552 l -40.319,23.278 c 0.504,8.047 -3.598,15.956 -10.724,20.072 -3.275,1.889 -6.994,2.89 -10.758,2.89 -7.684,0 -14.842,-4.132 -18.682,-10.781 -2.878,-4.984 -3.644,-10.792 -2.154,-16.353 1.49,-5.56 5.057,-10.209 10.043,-13.087 3.272,-1.889 6.989,-2.887 10.752,-2.887 4.321,0 8.473,1.272 11.996,3.63 l 40.312,-23.274 -40.312,-23.272 c -3.523,2.359 -7.675,3.63 -11.996,3.63 -3.762,0 -7.479,-0.998 -10.752,-2.89 -4.986,-2.876 -8.552,-7.525 -10.043,-13.085 -1.49,-5.56 -0.724,-11.369 2.156,-16.353 3.838,-6.65 10.995,-10.781 18.68,-10.781 3.764,0 7.484,1 10.758,2.89 7.126,4.116 11.228,12.025 10.724,20.072 l 40.319,23.278 v -46.552 c -7.222,-3.587 -12.021,-11.096 -12.021,-19.327 0,-11.884 9.669,-21.551 21.553,-21.551 11.884,0 21.553,9.667 21.553,21.551 0,8.231 -4.799,15.74 -12.021,19.327 V 256.6 l 40.32,-23.278 c -0.504,-8.047 3.598,-15.956 10.724,-20.072 3.275,-1.889 6.994,-2.89 10.758,-2.89 7.684,0 14.842,4.132 18.682,10.781 2.878,4.984 3.644,10.792 2.154,16.353 -1.49,5.56 -5.057,10.209 -10.043,13.088 -3.272,1.889 -6.989,2.887 -10.752,2.887 -4.32,0 -8.472,-1.272 -11.998,-3.63 l -40.31,23.272 z"
           id="path4-1-5-9-3-3-8-7"
           style="fill:#2b95f5;fill-opacity:1" />
      </g>
      <g
         id="g6-2-7-0-9-0-26-5"
         transform="matrix(0.0234375,0,0,0.0234375,63.394148,39.213816)"
         style="display:inline;fill:#2b95f5;fill-opacity:1">
        <path
           class="st0"
           d="m 511.976,213.063 -45.863,-9.749 31.374,-34.845 C 472.114,131.733 417.268,115.015 360.373,127.926 355.071,69.826 322.223,22.83 279.444,10.052 L 256,50.659 232.556,10.053 C 189.777,22.832 156.93,69.828 151.627,127.927 94.733,115.016 39.886,131.734 14.514,168.47 l 31.374,34.844 -45.864,9.749 c -1.066,44.634 33.479,90.396 87.097,113.393 -29.86,50.12 -30.91,107.448 -3.812,142.931 l 42.834,-19.071 -4.901,46.632 c 42.12,14.806 96.318,-3.907 134.758,-47.794 38.44,43.887 92.638,62.6 134.758,47.794 l -4.901,-46.632 42.835,19.072 c 27.097,-35.483 26.048,-92.811 -3.812,-142.932 53.617,-22.996 88.162,-68.759 87.096,-113.393 z m -196.599,83.322 c 3.526,-2.358 7.678,-3.63 11.998,-3.63 3.762,0 7.479,0.998 10.752,2.889 4.986,2.876 8.552,7.525 10.043,13.085 1.49,5.56 0.725,11.369 -2.156,16.353 -3.838,6.65 -10.996,10.781 -18.68,10.781 -3.765,0 -7.484,-1 -10.758,-2.89 -7.126,-4.116 -11.228,-12.025 -10.724,-20.072 l -40.32,-23.278 v 46.552 c 7.222,3.587 12.021,11.096 12.021,19.327 0,11.884 -9.669,21.551 -21.553,21.551 -11.884,0 -21.553,-9.667 -21.553,-21.551 0,-8.231 4.799,-15.74 12.021,-19.327 v -46.552 l -40.319,23.278 c 0.504,8.047 -3.598,15.956 -10.724,20.072 -3.275,1.889 -6.994,2.89 -10.758,2.89 -7.684,0 -14.842,-4.132 -18.682,-10.781 -2.878,-4.984 -3.644,-10.792 -2.154,-16.353 1.49,-5.56 5.057,-10.209 10.043,-13.087 3.272,-1.889 6.989,-2.887 10.752,-2.887 4.321,0 8.473,1.272 11.996,3.63 l 40.312,-23.274 -40.312,-23.272 c -3.523,2.359 -7.675,3.63 -11.996,3.63 -3.762,0 -7.479,-0.998 -10.752,-2.89 -4.986,-2.876 -8.552,-7.525 -10.043,-13.085 -1.49,-5.56 -0.724,-11.369 2.156,-16.353 3.838,-6.65 10.995,-10.781 18.68,-10.781 3.764,0 7.484,1 10.758,2.89 7.126,4.116 11.228,12.025 10.724,20.072 l 40.319,23.278 v -46.552 c -7.222,-3.587 -12.021,-11.096 -12.021,-19.327 0,-11.884 9.669,-21.551 21.553,-21.551 11.884,0 21.553,9.667 21.553,21.551 0,8.231 -4.799,15.74 -12.021,19.327 V 256.6 l 40.32,-23.278 c -0.504,-8.047 3.598,-15.956 10.724,-20.072 3.275,-1.889 6.994,-2.89 10.758,-2.89 7.684,0 14.842,4.132 18.682,10.781 2.878,4.984 3.644,10.792 2.154,16.353 -1.49,5.56 -5.057,10.209 -10.043,13.088 -3.272,1.889 -6.989,2.887 -10.752,2.887 -4.32,0 -8.472,-1.272 -11.998,-3.63 l -40.31,23.272 z"
           id="path4-1-1-3-2-5-5-7-7"
           style="fill:#2b95f5;fill-opacity:1" />
      </g>
      <g
         id="g6-2-3-40-2-18-1-04-1"
         transform="matrix(0.0234375,0,0,0.0234375,48.430921,44.201603)"
         style="display:inline;fill:#2b95f5;fill-opacity:1">
        <path
           class="st0"
           d="m 511.976,213.063 -45.863,-9.749 31.374,-34.845 C 472.114,131.733 417.268,115.015 360.373,127.926 355.071,69.826 322.223,22.83 279.444,10.052 L 256,50.659 232.556,10.053 C 189.777,22.832 156.93,69.828 151.627,127.927 94.733,115.016 39.886,131.734 14.514,168.47 l 31.374,34.844 -45.864,9.749 c -1.066,44.634 33.479,90.396 87.097,113.393 -29.86,50.12 -30.91,107.448 -3.812,142.931 l 42.834,-19.071 -4.901,46.632 c 42.12,14.806 96.318,-3.907 134.758,-47.794 38.44,43.887 92.638,62.6 134.758,47.794 l -4.901,-46.632 42.835,19.072 c 27.097,-35.483 26.048,-92.811 -3.812,-142.932 53.617,-22.996 88.162,-68.759 87.096,-113.393 z m -196.599,83.322 c 3.526,-2.358 7.678,-3.63 11.998,-3.63 3.762,0 7.479,0.998 10.752,2.889 4.986,2.876 8.552,7.525 10.043,13.085 1.49,5.56 0.725,11.369 -2.156,16.353 -3.838,6.65 -10.996,10.781 -18.68,10.781 -3.765,0 -7.484,-1 -10.758,-2.89 -7.126,-4.116 -11.228,-12.025 -10.724,-20.072 l -40.32,-23.278 v 46.552 c 7.222,3.587 12.021,11.096 12.021,19.327 0,11.884 -9.669,21.551 -21.553,21.551 -11.884,0 -21.553,-9.667 -21.553,-21.551 0,-8.231 4.799,-15.74 12.021,-19.327 v -46.552 l -40.319,23.278 c 0.504,8.047 -3.598,15.956 -10.724,20.072 -3.275,1.889 -6.994,2.89 -10.758,2.89 -7.684,0 -14.842,-4.132 -18.682,-10.781 -2.878,-4.984 -3.644,-10.792 -2.154,-16.353 1.49,-5.56 5.057,-10.209 10.043,-13.087 3.272,-1.889 6.989,-2.887 10.752,-2.887 4.321,0 8.473,1.272 11.996,3.63 l 40.312,-23.274 -40.312,-23.272 c -3.523,2.359 -7.675,3.63 -11.996,3.63 -3.762,0 -7.479,-0.998 -10.752,-2.89 -4.986,-2.876 -8.552,-7.525 -10.043,-13.085 -1.49,-5.56 -0.724,-11.369 2.156,-16.353 3.838,-6.65 10.995,-10.781 18.68,-10.781 3.764,0 7.484,1 10.758,2.89 7.126,4.116 11.228,12.025 10.724,20.072 l 40.319,23.278 v -46.552 c -7.222,-3.587 -12.021,-11.096 -12.021,-19.327 0,-11.884 9.669,-21.551 21.553,-21.551 11.884,0 21.553,9.667 21.553,21.551 0,8.231 -4.799,15.74 -12.021,19.327 V 256.6 l 40.32,-23.278 c -0.504,-8.047 3.598,-15.956 10.724,-20.072 3.275,-1.889 6.994,-2.89 10.758,-2.89 7.684,0 14.842,4.132 18.682,10.781 2.878,4.984 3.644,10.792 2.154,16.353 -1.49,5.56 -5.057,10.209 -10.043,13.088 -3.272,1.889 -6.989,2.887 -10.752,2.887 -4.32,0 -8.472,-1.272 -11.998,-3.63 l -40.31,23.272 z"
           id="path4-1-1-7-7-8-8-96-3-0"
           style="fill:#2b95f5;fill-opacity:1" />
      </g>
    </g>
    <g
       id="g2469-0-1-1-7-07-9"
       style="display:inline"
       transform="matrix(0.84905663,0,0,0.84905663,33.14804,17.064143)">
      <g
         id="g16088-3-9-2-4-9-2"
         transform="matrix(1.0970525,0,0,1.0970525,-112.63298,-9.184748)"
         style="display:inline">
        <g
           id="g16024-2-2-7-59-9-3">
          <path
             fill="#000000"
             d="m 151.83738,51.583012 -4.45472,1.194835 1.55252,2.873166 -2.59636,0.696885 -0.10873,-3.261455 -4.38999,1.17771 -1.18551,4.42577 3.264,0.09266 -0.69816,2.604332 -2.87719,-1.535351 -1.18289,4.411314 3.21496,3.214954 1.72072,-2.779061 1.91813,1.918128 -2.77915,1.722035 3.24408,3.244075 4.39927,-1.178939 -1.54722,-2.883763 2.60823,-0.698157 0.10076,3.270653 4.43764,-1.189621 1.18564,-4.427042 -3.2707,-0.100717 0.6968,-2.601661 2.88377,1.54722 1.18301,-4.417843 -3.264,-3.26527 -1.71551,2.785759 -1.89159,-1.892991 2.77253,-1.727376 z m -2.67436,4.490625 0.48876,0.904764 -0.96962,2.955402 -2.29303,-2.081117 -0.0345,-1.025404 2.80831,-0.753687 z m 2.71557,0.710026 2.04657,2.047968 -0.55107,0.89548 -3.04399,0.638472 0.65563,-3.025557 z m -7.47914,2.012234 1.00676,0.02908 2.07446,2.316845 -2.94875,0.944525 -0.8876,-0.474255 0.75509,-2.816237 z m 9.37209,2.270386 0.89548,0.48091 -0.75369,2.813608 -1.01608,-0.03179 -2.05589,-2.286409 2.93022,-0.976232 z m -5.90275,1.759168 -0.61995,3.025599 -0.82787,0.512659 -2.07179,-2.073105 0.51266,-0.826597 3.00695,-0.638514 z m 1.71415,0.468998 2.31023,2.049282 0.0305,0.997427 -2.82031,0.756399 -0.47154,-0.879583 0.95114,-2.923525 z"
             id="path2-3-53-2-5-5-0-87"
             style="fill:#cc9900;fill-opacity:1;stroke-width:0.0423895" />
          <path
             id="path2-3-5-3-1-2-5-5-1"
             style="display:inline;fill:#b38a10;fill-opacity:1;stroke-width:0.0423894"
             d="m 151.83733,51.583044 -4.45451,1.194761 0.20102,0.371551 0.23358,-0.06253 0.0176,0.528135 1.10019,2.036051 -1.02268,0.274402 0.014,0.422714 2.59622,-0.697116 -1.55236,-2.873208 3.20291,-0.858864 z m -5.60741,1.503783 -4.38991,1.177708 -1.18546,4.425569 3.26388,0.0925 -0.49971,1.863453 0.42427,0.22634 0.55655,-2.076357 1.00666,0.02894 0.0682,0.07597 0.0315,-0.118338 -3.26388,-0.0925 1.18546,-4.425569 2.81636,-0.755509 z m 9.66246,2.551266 -1.11001,1.802993 0.98185,0.982885 1.11053,-1.80299 z m -5.14181,0.435634 -1.38647,0.372071 0.28783,0.532783 -0.60564,1.845366 1.22318,1.110009 0.45372,-1.382345 0.26251,-1.211294 0.1695,-0.105939 0.0842,-0.255797 z m 2.14354,1.066602 -0.32091,0.199988 -0.0248,0.113686 1.37666,1.377693 -0.55087,0.895554 -1.38131,0.289904 -0.0755,0.348816 3.04426,-0.63872 0.55087,-0.895554 -0.98186,-0.982369 -0.35398,0.574644 z m -6.90707,1.655712 -0.14004,0.521414 1.63349,1.824697 -1.95595,0.626316 0.59479,0.317812 2.94866,-0.944128 -2.07429,-2.317174 z m -5.64358,1.055748 -1.18287,4.411102 3.21479,3.215306 0.60719,-0.980302 -2.23448,-2.235004 0.98391,-3.670062 z m 15.01562,1.214398 v 5.16e-4 l -0.97927,0.326078 0.28732,0.154514 -0.61598,2.299599 0.37207,0.41393 0.66611,-2.487186 0.96583,0.518313 0.19947,-0.744656 z m 1.31775,0.707451 -0.19947,0.744656 1.49603,0.803051 0.19947,-0.744657 z m -7.22075,1.052131 -1.65985,0.352433 -0.50539,2.467549 0.71778,0.718302 0.72089,-0.446484 0.25166,-0.773079 z m 1.71462,0.468705 -0.35553,1.092956 1.07797,0.956532 0.0305,0.997355 -1.43195,0.384472 0.19947,0.37207 2.81998,-0.756542 -0.0305,-0.997355 z m -5.8415,1.977141 -0.2527,0.407725 0.93793,0.93793 -2.77916,1.721858 3.24373,3.244246 1.25212,-0.33538 -2.90835,-2.908866 2.77916,-1.721858 -0.60771,-0.607716 -0.5731,0.354499 z m 8.19795,1.55081 -1.57458,0.421161 0.0724,2.338358 0.24132,0.45062 1.34876,-0.361735 z" />
        </g>
        <g
           id="g16024-7-4-1-25-03-4-6"
           style="display:inline"
           transform="translate(13.639481,-4.5465347)">
          <path
             fill="#000000"
             d="m 151.83738,51.583012 -4.45472,1.194835 1.55252,2.873166 -2.59636,0.696885 -0.10873,-3.261455 -4.38999,1.17771 -1.18551,4.42577 3.264,0.09266 -0.69816,2.604332 -2.87719,-1.535351 -1.18289,4.411314 3.21496,3.214954 1.72072,-2.779061 1.91813,1.918128 -2.77915,1.722035 3.24408,3.244075 4.39927,-1.178939 -1.54722,-2.883763 2.60823,-0.698157 0.10076,3.270653 4.43764,-1.189621 1.18564,-4.427042 -3.2707,-0.100717 0.6968,-2.601661 2.88377,1.54722 1.18301,-4.417843 -3.264,-3.26527 -1.71551,2.785759 -1.89159,-1.892991 2.77253,-1.727376 z m -2.67436,4.490625 0.48876,0.904764 -0.96962,2.955402 -2.29303,-2.081117 -0.0345,-1.025404 2.80831,-0.753687 z m 2.71557,0.710026 2.04657,2.047968 -0.55107,0.89548 -3.04399,0.638472 0.65563,-3.025557 z m -7.47914,2.012234 1.00676,0.02908 2.07446,2.316845 -2.94875,0.944525 -0.8876,-0.474255 0.75509,-2.816237 z m 9.37209,2.270386 0.89548,0.48091 -0.75369,2.813608 -1.01608,-0.03179 -2.05589,-2.286409 2.93022,-0.976232 z m -5.90275,1.759168 -0.61995,3.025599 -0.82787,0.512659 -2.07179,-2.073105 0.51266,-0.826597 3.00695,-0.638514 z m 1.71415,0.468998 2.31023,2.049282 0.0305,0.997427 -2.82031,0.756399 -0.47154,-0.879583 0.95114,-2.923525 z"
             id="path2-3-9-9-0-1-0-0-01"
             style="fill:#cc9900;fill-opacity:1;stroke-width:0.0423895" />
          <path
             id="path2-3-5-1-2-2-62-65-6-1"
             style="display:inline;fill:#b38a10;fill-opacity:1;stroke-width:0.0423894"
             d="m 151.83733,51.583044 -4.45451,1.194761 0.20102,0.371551 0.23358,-0.06253 0.0176,0.528135 1.10019,2.036051 -1.02268,0.274402 0.014,0.422714 2.59622,-0.697116 -1.55236,-2.873208 3.20291,-0.858864 z m -5.60741,1.503783 -4.38991,1.177708 -1.18546,4.425569 3.26388,0.0925 -0.49971,1.863453 0.42427,0.22634 0.55655,-2.076357 1.00666,0.02894 0.0682,0.07597 0.0315,-0.118338 -3.26388,-0.0925 1.18546,-4.425569 2.81636,-0.755509 z m 9.66246,2.551266 -1.11001,1.802993 0.98185,0.982885 1.11053,-1.80299 z m -5.14181,0.435634 -1.38647,0.372071 0.28783,0.532783 -0.60564,1.845366 1.22318,1.110009 0.45372,-1.382345 0.26251,-1.211294 0.1695,-0.105939 0.0842,-0.255797 z m 2.14354,1.066602 -0.32091,0.199988 -0.0248,0.113686 1.37666,1.377693 -0.55087,0.895554 -1.38131,0.289904 -0.0755,0.348816 3.04426,-0.63872 0.55087,-0.895554 -0.98186,-0.982369 -0.35398,0.574644 z m -6.90707,1.655712 -0.14004,0.521414 1.63349,1.824697 -1.95595,0.626316 0.59479,0.317812 2.94866,-0.944128 -2.07429,-2.317174 z m -5.64358,1.055748 -1.18287,4.411102 3.21479,3.215306 0.60719,-0.980302 -2.23448,-2.235004 0.98391,-3.670062 z m 15.01562,1.214398 v 5.16e-4 l -0.97927,0.326078 0.28732,0.154514 -0.61598,2.299599 0.37207,0.41393 0.66611,-2.487186 0.96583,0.518313 0.19947,-0.744656 z m 1.31775,0.707451 -0.19947,0.744656 1.49603,0.803051 0.19947,-0.744657 z m -7.22075,1.052131 -1.65985,0.352433 -0.50539,2.467549 0.71778,0.718302 0.72089,-0.446484 0.25166,-0.773079 z m 1.71462,0.468705 -0.35553,1.092956 1.07797,0.956532 0.0305,0.997355 -1.43195,0.384472 0.19947,0.37207 2.81998,-0.756542 -0.0305,-0.997355 z m -5.8415,1.977141 -0.2527,0.407725 0.93793,0.93793 -2.77916,1.721858 3.24373,3.244246 1.25212,-0.33538 -2.90835,-2.908866 2.77916,-1.721858 -0.60771,-0.607716 -0.5731,0.354499 z m 8.19795,1.55081 -1.57458,0.421161 0.0724,2.338358 0.24132,0.45062 1.34876,-0.361735 z" />
        </g>
        <g
           id="g16024-0-49-0-3-1-95-1"
           style="display:inline"
           transform="translate(28.315329,-1.2e-5)">
          <path
             fill="#000000"
             d="m 151.83738,51.583012 -4.45472,1.194835 1.55252,2.873166 -2.59636,0.696885 -0.10873,-3.261455 -4.38999,1.17771 -1.18551,4.42577 3.264,0.09266 -0.69816,2.604332 -2.87719,-1.535351 -1.18289,4.411314 3.21496,3.214954 1.72072,-2.779061 1.91813,1.918128 -2.77915,1.722035 3.24408,3.244075 4.39927,-1.178939 -1.54722,-2.883763 2.60823,-0.698157 0.10076,3.270653 4.43764,-1.189621 1.18564,-4.427042 -3.2707,-0.100717 0.6968,-2.601661 2.88377,1.54722 1.18301,-4.417843 -3.264,-3.26527 -1.71551,2.785759 -1.89159,-1.892991 2.77253,-1.727376 z m -2.67436,4.490625 0.48876,0.904764 -0.96962,2.955402 -2.29303,-2.081117 -0.0345,-1.025404 2.80831,-0.753687 z m 2.71557,0.710026 2.04657,2.047968 -0.55107,0.89548 -3.04399,0.638472 0.65563,-3.025557 z m -7.47914,2.012234 1.00676,0.02908 2.07446,2.316845 -2.94875,0.944525 -0.8876,-0.474255 0.75509,-2.816237 z m 9.37209,2.270386 0.89548,0.48091 -0.75369,2.813608 -1.01608,-0.03179 -2.05589,-2.286409 2.93022,-0.976232 z m -5.90275,1.759168 -0.61995,3.025599 -0.82787,0.512659 -2.07179,-2.073105 0.51266,-0.826597 3.00695,-0.638514 z m 1.71415,0.468998 2.31023,2.049282 0.0305,0.997427 -2.82031,0.756399 -0.47154,-0.879583 0.95114,-2.923525 z"
             id="path2-3-1-3-7-9-1-2-6"
             style="fill:#cc9900;fill-opacity:1;stroke-width:0.0423895" />
          <path
             id="path2-3-5-8-9-6-2-4-5-1"
             style="display:inline;fill:#b38a10;fill-opacity:1;stroke-width:0.0423894"
             d="m 151.83733,51.583044 -4.45451,1.194761 0.20102,0.371551 0.23358,-0.06253 0.0176,0.528135 1.10019,2.036051 -1.02268,0.274402 0.014,0.422714 2.59622,-0.697116 -1.55236,-2.873208 3.20291,-0.858864 z m -5.60741,1.503783 -4.38991,1.177708 -1.18546,4.425569 3.26388,0.0925 -0.49971,1.863453 0.42427,0.22634 0.55655,-2.076357 1.00666,0.02894 0.0682,0.07597 0.0315,-0.118338 -3.26388,-0.0925 1.18546,-4.425569 2.81636,-0.755509 z m 9.66246,2.551266 -1.11001,1.802993 0.98185,0.982885 1.11053,-1.80299 z m -5.14181,0.435634 -1.38647,0.372071 0.28783,0.532783 -0.60564,1.845366 1.22318,1.110009 0.45372,-1.382345 0.26251,-1.211294 0.1695,-0.105939 0.0842,-0.255797 z m 2.14354,1.066602 -0.32091,0.199988 -0.0248,0.113686 1.37666,1.377693 -0.55087,0.895554 -1.38131,0.289904 -0.0755,0.348816 3.04426,-0.63872 0.55087,-0.895554 -0.98186,-0.982369 -0.35398,0.574644 z m -6.90707,1.655712 -0.14004,0.521414 1.63349,1.824697 -1.95595,0.626316 0.59479,0.317812 2.94866,-0.944128 -2.07429,-2.317174 z m -5.64358,1.055748 -1.18287,4.411102 3.21479,3.215306 0.60719,-0.980302 -2.23448,-2.235004 0.98391,-3.670062 z m 15.01562,1.214398 v 5.16e-4 l -0.97927,0.326078 0.28732,0.154514 -0.61598,2.299599 0.37207,0.41393 0.66611,-2.487186 0.96583,0.518313 0.19947,-0.744656 z m 1.31775,0.707451 -0.19947,0.744656 1.49603,0.803051 0.19947,-0.744657 z m -7.22075,1.052131 -1.65985,0.352433 -0.50539,2.467549 0.71778,0.718302 0.72089,-0.446484 0.25166,-0.773079 z m 1.71462,0.468705 -0.35553,1.092956 1.07797,0.956532 0.0305,0.997355 -1.43195,0.384472 0.19947,0.37207 2.81998,-0.756542 -0.0305,-0.997355 z m -5.8415,1.977141 -0.2527,0.407725 0.93793,0.93793 -2.77916,1.721858 3.24373,3.244246 1.25212,-0.33538 -2.90835,-2.908866 2.77916,-1.721858 -0.60771,-0.607716 -0.5731,0.354499 z m 8.19795,1.55081 -1.57458,0.421161 0.0724,2.338358 0.24132,0.45062 1.34876,-0.361735 z" />
        </g>
      </g>
      <g
         id="g6-75-7-90-1-0-6"
         transform="matrix(0.0234375,0,0,0.0234375,80.572134,45.280115)"
         style="display:inline;fill:#2b95f5;fill-opacity:1">
        <path
           class="st0"
           d="m 511.976,213.063 -45.863,-9.749 31.374,-34.845 C 472.114,131.733 417.268,115.015 360.373,127.926 355.071,69.826 322.223,22.83 279.444,10.052 L 256,50.659 232.556,10.053 C 189.777,22.832 156.93,69.828 151.627,127.927 94.733,115.016 39.886,131.734 14.514,168.47 l 31.374,34.844 -45.864,9.749 c -1.066,44.634 33.479,90.396 87.097,113.393 -29.86,50.12 -30.91,107.448 -3.812,142.931 l 42.834,-19.071 -4.901,46.632 c 42.12,14.806 96.318,-3.907 134.758,-47.794 38.44,43.887 92.638,62.6 134.758,47.794 l -4.901,-46.632 42.835,19.072 c 27.097,-35.483 26.048,-92.811 -3.812,-142.932 53.617,-22.996 88.162,-68.759 87.096,-113.393 z m -196.599,83.322 c 3.526,-2.358 7.678,-3.63 11.998,-3.63 3.762,0 7.479,0.998 10.752,2.889 4.986,2.876 8.552,7.525 10.043,13.085 1.49,5.56 0.725,11.369 -2.156,16.353 -3.838,6.65 -10.996,10.781 -18.68,10.781 -3.765,0 -7.484,-1 -10.758,-2.89 -7.126,-4.116 -11.228,-12.025 -10.724,-20.072 l -40.32,-23.278 v 46.552 c 7.222,3.587 12.021,11.096 12.021,19.327 0,11.884 -9.669,21.551 -21.553,21.551 -11.884,0 -21.553,-9.667 -21.553,-21.551 0,-8.231 4.799,-15.74 12.021,-19.327 v -46.552 l -40.319,23.278 c 0.504,8.047 -3.598,15.956 -10.724,20.072 -3.275,1.889 -6.994,2.89 -10.758,2.89 -7.684,0 -14.842,-4.132 -18.682,-10.781 -2.878,-4.984 -3.644,-10.792 -2.154,-16.353 1.49,-5.56 5.057,-10.209 10.043,-13.087 3.272,-1.889 6.989,-2.887 10.752,-2.887 4.321,0 8.473,1.272 11.996,3.63 l 40.312,-23.274 -40.312,-23.272 c -3.523,2.359 -7.675,3.63 -11.996,3.63 -3.762,0 -7.479,-0.998 -10.752,-2.89 -4.986,-2.876 -8.552,-7.525 -10.043,-13.085 -1.49,-5.56 -0.724,-11.369 2.156,-16.353 3.838,-6.65 10.995,-10.781 18.68,-10.781 3.764,0 7.484,1 10.758,2.89 7.126,4.116 11.228,12.025 10.724,20.072 l 40.319,23.278 v -46.552 c -7.222,-3.587 -12.021,-11.096 -12.021,-19.327 0,-11.884 9.669,-21.551 21.553,-21.551 11.884,0 21.553,9.667 21.553,21.551 0,8.231 -4.799,15.74 -12.021,19.327 V 256.6 l 40.32,-23.278 c -0.504,-8.047 3.598,-15.956 10.724,-20.072 3.275,-1.889 6.994,-2.89 10.758,-2.89 7.684,0 14.842,4.132 18.682,10.781 2.878,4.984 3.644,10.792 2.154,16.353 -1.49,5.56 -5.057,10.209 -10.043,13.088 -3.272,1.889 -6.989,2.887 -10.752,2.887 -4.32,0 -8.472,-1.272 -11.998,-3.63 l -40.31,23.272 z"
           id="path4-1-5-9-3-3-8-2"
           style="fill:#2b95f5;fill-opacity:1" />
      </g>
      <g
         id="g6-2-7-0-9-0-26-8"
         transform="matrix(0.0234375,0,0,0.0234375,63.394148,39.213816)"
         style="display:inline;fill:#2b95f5;fill-opacity:1">
        <path
           class="st0"
           d="m 511.976,213.063 -45.863,-9.749 31.374,-34.845 C 472.114,131.733 417.268,115.015 360.373,127.926 355.071,69.826 322.223,22.83 279.444,10.052 L 256,50.659 232.556,10.053 C 189.777,22.832 156.93,69.828 151.627,127.927 94.733,115.016 39.886,131.734 14.514,168.47 l 31.374,34.844 -45.864,9.749 c -1.066,44.634 33.479,90.396 87.097,113.393 -29.86,50.12 -30.91,107.448 -3.812,142.931 l 42.834,-19.071 -4.901,46.632 c 42.12,14.806 96.318,-3.907 134.758,-47.794 38.44,43.887 92.638,62.6 134.758,47.794 l -4.901,-46.632 42.835,19.072 c 27.097,-35.483 26.048,-92.811 -3.812,-142.932 53.617,-22.996 88.162,-68.759 87.096,-113.393 z m -196.599,83.322 c 3.526,-2.358 7.678,-3.63 11.998,-3.63 3.762,0 7.479,0.998 10.752,2.889 4.986,2.876 8.552,7.525 10.043,13.085 1.49,5.56 0.725,11.369 -2.156,16.353 -3.838,6.65 -10.996,10.781 -18.68,10.781 -3.765,0 -7.484,-1 -10.758,-2.89 -7.126,-4.116 -11.228,-12.025 -10.724,-20.072 l -40.32,-23.278 v 46.552 c 7.222,3.587 12.021,11.096 12.021,19.327 0,11.884 -9.669,21.551 -21.553,21.551 -11.884,0 -21.553,-9.667 -21.553,-21.551 0,-8.231 4.799,-15.74 12.021,-19.327 v -46.552 l -40.319,23.278 c 0.504,8.047 -3.598,15.956 -10.724,20.072 -3.275,1.889 -6.994,2.89 -10.758,2.89 -7.684,0 -14.842,-4.132 -18.682,-10.781 -2.878,-4.984 -3.644,-10.792 -2.154,-16.353 1.49,-5.56 5.057,-10.209 10.043,-13.087 3.272,-1.889 6.989,-2.887 10.752,-2.887 4.321,0 8.473,1.272 11.996,3.63 l 40.312,-23.274 -40.312,-23.272 c -3.523,2.359 -7.675,3.63 -11.996,3.63 -3.762,0 -7.479,-0.998 -10.752,-2.89 -4.986,-2.876 -8.552,-7.525 -10.043,-13.085 -1.49,-5.56 -0.724,-11.369 2.156,-16.353 3.838,-6.65 10.995,-10.781 18.68,-10.781 3.764,0 7.484,1 10.758,2.89 7.126,4.116 11.228,12.025 10.724,20.072 l 40.319,23.278 v -46.552 c -7.222,-3.587 -12.021,-11.096 -12.021,-19.327 0,-11.884 9.669,-21.551 21.553,-21.551 11.884,0 21.553,9.667 21.553,21.551 0,8.231 -4.799,15.74 -12.021,19.327 V 256.6 l 40.32,-23.278 c -0.504,-8.047 3.598,-15.956 10.724,-20.072 3.275,-1.889 6.994,-2.89 10.758,-2.89 7.684,0 14.842,4.132 18.682,10.781 2.878,4.984 3.644,10.792 2.154,16.353 -1.49,5.56 -5.057,10.209 -10.043,13.088 -3.272,1.889 -6.989,2.887 -10.752,2.887 -4.32,0 -8.472,-1.272 -11.998,-3.63 l -40.31,23.272 z"
           id="path4-1-1-3-2-5-5-7-5"
           style="fill:#2b95f5;fill-opacity:1" />
      </g>
      <g
         id="g6-2-3-40-2-18-1-04-8"
         transform="matrix(0.0234375,0,0,0.0234375,48.430921,44.201603)"
         style="display:inline;fill:#2b95f5;fill-opacity:1">
        <path
           class="st0"
           d="m 511.976,213.063 -45.863,-9.749 31.374,-34.845 C 472.114,131.733 417.268,115.015 360.373,127.926 355.071,69.826 322.223,22.83 279.444,10.052 L 256,50.659 232.556,10.053 C 189.777,22.832 156.93,69.828 151.627,127.927 94.733,115.016 39.886,131.734 14.514,168.47 l 31.374,34.844 -45.864,9.749 c -1.066,44.634 33.479,90.396 87.097,113.393 -29.86,50.12 -30.91,107.448 -3.812,142.931 l 42.834,-19.071 -4.901,46.632 c 42.12,14.806 96.318,-3.907 134.758,-47.794 38.44,43.887 92.638,62.6 134.758,47.794 l -4.901,-46.632 42.835,19.072 c 27.097,-35.483 26.048,-92.811 -3.812,-142.932 53.617,-22.996 88.162,-68.759 87.096,-113.393 z m -196.599,83.322 c 3.526,-2.358 7.678,-3.63 11.998,-3.63 3.762,0 7.479,0.998 10.752,2.889 4.986,2.876 8.552,7.525 10.043,13.085 1.49,5.56 0.725,11.369 -2.156,16.353 -3.838,6.65 -10.996,10.781 -18.68,10.781 -3.765,0 -7.484,-1 -10.758,-2.89 -7.126,-4.116 -11.228,-12.025 -10.724,-20.072 l -40.32,-23.278 v 46.552 c 7.222,3.587 12.021,11.096 12.021,19.327 0,11.884 -9.669,21.551 -21.553,21.551 -11.884,0 -21.553,-9.667 -21.553,-21.551 0,-8.231 4.799,-15.74 12.021,-19.327 v -46.552 l -40.319,23.278 c 0.504,8.047 -3.598,15.956 -10.724,20.072 -3.275,1.889 -6.994,2.89 -10.758,2.89 -7.684,0 -14.842,-4.132 -18.682,-10.781 -2.878,-4.984 -3.644,-10.792 -2.154,-16.353 1.49,-5.56 5.057,-10.209 10.043,-13.087 3.272,-1.889 6.989,-2.887 10.752,-2.887 4.321,0 8.473,1.272 11.996,3.63 l 40.312,-23.274 -40.312,-23.272 c -3.523,2.359 -7.675,3.63 -11.996,3.63 -3.762,0 -7.479,-0.998 -10.752,-2.89 -4.986,-2.876 -8.552,-7.525 -10.043,-13.085 -1.49,-5.56 -0.724,-11.369 2.156,-16.353 3.838,-6.65 10.995,-10.781 18.68,-10.781 3.764,0 7.484,1 10.758,2.89 7.126,4.116 11.228,12.025 10.724,20.072 l 40.319,23.278 v -46.552 c -7.222,-3.587 -12.021,-11.096 -12.021,-19.327 0,-11.884 9.669,-21.551 21.553,-21.551 11.884,0 21.553,9.667 21.553,21.551 0,8.231 -4.799,15.74 -12.021,19.327 V 256.6 l 40.32,-23.278 c -0.504,-8.047 3.598,-15.956 10.724,-20.072 3.275,-1.889 6.994,-2.89 10.758,-2.89 7.684,0 14.842,4.132 18.682,10.781 2.878,4.984 3.644,10.792 2.154,16.353 -1.49,5.56 -5.057,10.209 -10.043,13.088 -3.272,1.889 -6.989,2.887 -10.752,2.887 -4.32,0 -8.472,-1.272 -11.998,-3.63 l -40.31,23.272 z"
           id="path4-1-1-7-7-8-8-96-3-05"
           style="fill:#2b95f5;fill-opacity:1" />
      </g>
    </g>
    <g
       id="g2469-0-1-1-7-07-9-7"
       style="display:inline"
       transform="matrix(0.84905663,0,0,0.84905663,50.258814,42.986457)">
      <g
         id="g16088-3-9-2-4-9-2-0"
         transform="matrix(1.0970525,0,0,1.0970525,-112.63298,-9.184748)"
         style="display:inline">
        <g
           id="g16024-2-2-7-59-9-3-5">
          <path
             fill="#000000"
             d="m 151.83738,51.583012 -4.45472,1.194835 1.55252,2.873166 -2.59636,0.696885 -0.10873,-3.261455 -4.38999,1.17771 -1.18551,4.42577 3.264,0.09266 -0.69816,2.604332 -2.87719,-1.535351 -1.18289,4.411314 3.21496,3.214954 1.72072,-2.779061 1.91813,1.918128 -2.77915,1.722035 3.24408,3.244075 4.39927,-1.178939 -1.54722,-2.883763 2.60823,-0.698157 0.10076,3.270653 4.43764,-1.189621 1.18564,-4.427042 -3.2707,-0.100717 0.6968,-2.601661 2.88377,1.54722 1.18301,-4.417843 -3.264,-3.26527 -1.71551,2.785759 -1.89159,-1.892991 2.77253,-1.727376 z m -2.67436,4.490625 0.48876,0.904764 -0.96962,2.955402 -2.29303,-2.081117 -0.0345,-1.025404 2.80831,-0.753687 z m 2.71557,0.710026 2.04657,2.047968 -0.55107,0.89548 -3.04399,0.638472 0.65563,-3.025557 z m -7.47914,2.012234 1.00676,0.02908 2.07446,2.316845 -2.94875,0.944525 -0.8876,-0.474255 0.75509,-2.816237 z m 9.37209,2.270386 0.89548,0.48091 -0.75369,2.813608 -1.01608,-0.03179 -2.05589,-2.286409 2.93022,-0.976232 z m -5.90275,1.759168 -0.61995,3.025599 -0.82787,0.512659 -2.07179,-2.073105 0.51266,-0.826597 3.00695,-0.638514 z m 1.71415,0.468998 2.31023,2.049282 0.0305,0.997427 -2.82031,0.756399 -0.47154,-0.879583 0.95114,-2.923525 z"
             id="path2-3-53-2-5-5-0-87-8"
             style="fill:#cc9900;fill-opacity:1;stroke-width:0.0423895" />
          <path
             id="path2-3-5-3-1-2-5-5-1-6"
             style="display:inline;fill:#b38a10;fill-opacity:1;stroke-width:0.0423894"
             d="m 151.83733,51.583044 -4.45451,1.194761 0.20102,0.371551 0.23358,-0.06253 0.0176,0.528135 1.10019,2.036051 -1.02268,0.274402 0.014,0.422714 2.59622,-0.697116 -1.55236,-2.873208 3.20291,-0.858864 z m -5.60741,1.503783 -4.38991,1.177708 -1.18546,4.425569 3.26388,0.0925 -0.49971,1.863453 0.42427,0.22634 0.55655,-2.076357 1.00666,0.02894 0.0682,0.07597 0.0315,-0.118338 -3.26388,-0.0925 1.18546,-4.425569 2.81636,-0.755509 z m 9.66246,2.551266 -1.11001,1.802993 0.98185,0.982885 1.11053,-1.80299 z m -5.14181,0.435634 -1.38647,0.372071 0.28783,0.532783 -0.60564,1.845366 1.22318,1.110009 0.45372,-1.382345 0.26251,-1.211294 0.1695,-0.105939 0.0842,-0.255797 z m 2.14354,1.066602 -0.32091,0.199988 -0.0248,0.113686 1.37666,1.377693 -0.55087,0.895554 -1.38131,0.289904 -0.0755,0.348816 3.04426,-0.63872 0.55087,-0.895554 -0.98186,-0.982369 -0.35398,0.574644 z m -6.90707,1.655712 -0.14004,0.521414 1.63349,1.824697 -1.95595,0.626316 0.59479,0.317812 2.94866,-0.944128 -2.07429,-2.317174 z m -5.64358,1.055748 -1.18287,4.411102 3.21479,3.215306 0.60719,-0.980302 -2.23448,-2.235004 0.98391,-3.670062 z m 15.01562,1.214398 v 5.16e-4 l -0.97927,0.326078 0.28732,0.154514 -0.61598,2.299599 0.37207,0.41393 0.66611,-2.487186 0.96583,0.518313 0.19947,-0.744656 z m 1.31775,0.707451 -0.19947,0.744656 1.49603,0.803051 0.19947,-0.744657 z m -7.22075,1.052131 -1.65985,0.352433 -0.50539,2.467549 0.71778,0.718302 0.72089,-0.446484 0.25166,-0.773079 z m 1.71462,0.468705 -0.35553,1.092956 1.07797,0.956532 0.0305,0.997355 -1.43195,0.384472 0.19947,0.37207 2.81998,-0.756542 -0.0305,-0.997355 z m -5.8415,1.977141 -0.2527,0.407725 0.93793,0.93793 -2.77916,1.721858 3.24373,3.244246 1.25212,-0.33538 -2.90835,-2.908866 2.77916,-1.721858 -0.60771,-0.607716 -0.5731,0.354499 z m 8.19795,1.55081 -1.57458,0.421161 0.0724,2.338358 0.24132,0.45062 1.34876,-0.361735 z" />
        </g>
        <g
           id="g16024-7-4-1-25-03-4-6-2"
           style="display:inline"
           transform="translate(13.639481,-4.5465347)">
          <path
             fill="#000000"
             d="m 151.83738,51.583012 -4.45472,1.194835 1.55252,2.873166 -2.59636,0.696885 -0.10873,-3.261455 -4.38999,1.17771 -1.18551,4.42577 3.264,0.09266 -0.69816,2.604332 -2.87719,-1.535351 -1.18289,4.411314 3.21496,3.214954 1.72072,-2.779061 1.91813,1.918128 -2.77915,1.722035 3.24408,3.244075 4.39927,-1.178939 -1.54722,-2.883763 2.60823,-0.698157 0.10076,3.270653 4.43764,-1.189621 1.18564,-4.427042 -3.2707,-0.100717 0.6968,-2.601661 2.88377,1.54722 1.18301,-4.417843 -3.264,-3.26527 -1.71551,2.785759 -1.89159,-1.892991 2.77253,-1.727376 z m -2.67436,4.490625 0.48876,0.904764 -0.96962,2.955402 -2.29303,-2.081117 -0.0345,-1.025404 2.80831,-0.753687 z m 2.71557,0.710026 2.04657,2.047968 -0.55107,0.89548 -3.04399,0.638472 0.65563,-3.025557 z m -7.47914,2.012234 1.00676,0.02908 2.07446,2.316845 -2.94875,0.944525 -0.8876,-0.474255 0.75509,-2.816237 z m 9.37209,2.270386 0.89548,0.48091 -0.75369,2.813608 -1.01608,-0.03179 -2.05589,-2.286409 2.93022,-0.976232 z m -5.90275,1.759168 -0.61995,3.025599 -0.82787,0.512659 -2.07179,-2.073105 0.51266,-0.826597 3.00695,-0.638514 z m 1.71415,0.468998 2.31023,2.049282 0.0305,0.997427 -2.82031,0.756399 -0.47154,-0.879583 0.95114,-2.923525 z"
             id="path2-3-9-9-0-1-0-0-01-0"
             style="fill:#cc9900;fill-opacity:1;stroke-width:0.0423895" />
          <path
             id="path2-3-5-1-2-2-62-65-6-1-4"
             style="display:inline;fill:#b38a10;fill-opacity:1;stroke-width:0.0423894"
             d="m 151.83733,51.583044 -4.45451,1.194761 0.20102,0.371551 0.23358,-0.06253 0.0176,0.528135 1.10019,2.036051 -1.02268,0.274402 0.014,0.422714 2.59622,-0.697116 -1.55236,-2.873208 3.20291,-0.858864 z m -5.60741,1.503783 -4.38991,1.177708 -1.18546,4.425569 3.26388,0.0925 -0.49971,1.863453 0.42427,0.22634 0.55655,-2.076357 1.00666,0.02894 0.0682,0.07597 0.0315,-0.118338 -3.26388,-0.0925 1.18546,-4.425569 2.81636,-0.755509 z m 9.66246,2.551266 -1.11001,1.802993 0.98185,0.982885 1.11053,-1.80299 z m -5.14181,0.435634 -1.38647,0.372071 0.28783,0.532783 -0.60564,1.845366 1.22318,1.110009 0.45372,-1.382345 0.26251,-1.211294 0.1695,-0.105939 0.0842,-0.255797 z m 2.14354,1.066602 -0.32091,0.199988 -0.0248,0.113686 1.37666,1.377693 -0.55087,0.895554 -1.38131,0.289904 -0.0755,0.348816 3.04426,-0.63872 0.55087,-0.895554 -0.98186,-0.982369 -0.35398,0.574644 z m -6.90707,1.655712 -0.14004,0.521414 1.63349,1.824697 -1.95595,0.626316 0.59479,0.317812 2.94866,-0.944128 -2.07429,-2.317174 z m -5.64358,1.055748 -1.18287,4.411102 3.21479,3.215306 0.60719,-0.980302 -2.23448,-2.235004 0.98391,-3.670062 z m 15.01562,1.214398 v 5.16e-4 l -0.97927,0.326078 0.28732,0.154514 -0.61598,2.299599 0.37207,0.41393 0.66611,-2.487186 0.96583,0.518313 0.19947,-0.744656 z m 1.31775,0.707451 -0.19947,0.744656 1.49603,0.803051 0.19947,-0.744657 z m -7.22075,1.052131 -1.65985,0.352433 -0.50539,2.467549 0.71778,0.718302 0.72089,-0.446484 0.25166,-0.773079 z m 1.71462,0.468705 -0.35553,1.092956 1.07797,0.956532 0.0305,0.997355 -1.43195,0.384472 0.19947,0.37207 2.81998,-0.756542 -0.0305,-0.997355 z m -5.8415,1.977141 -0.2527,0.407725 0.93793,0.93793 -2.77916,1.721858 3.24373,3.244246 1.25212,-0.33538 -2.90835,-2.908866 2.77916,-1.721858 -0.60771,-0.607716 -0.5731,0.354499 z m 8.19795,1.55081 -1.57458,0.421161 0.0724,2.338358 0.24132,0.45062 1.34876,-0.361735 z" />
        </g>
        <g
           id="g16024-0-49-0-3-1-95-1-5"
           style="display:inline"
           transform="translate(28.315329,-1.2e-5)">
          <path
             fill="#000000"
             d="m 151.83738,51.583012 -4.45472,1.194835 1.55252,2.873166 -2.59636,0.696885 -0.10873,-3.261455 -4.38999,1.17771 -1.18551,4.42577 3.264,0.09266 -0.69816,2.604332 -2.87719,-1.535351 -1.18289,4.411314 3.21496,3.214954 1.72072,-2.779061 1.91813,1.918128 -2.77915,1.722035 3.24408,3.244075 4.39927,-1.178939 -1.54722,-2.883763 2.60823,-0.698157 0.10076,3.270653 4.43764,-1.189621 1.18564,-4.427042 -3.2707,-0.100717 0.6968,-2.601661 2.88377,1.54722 1.18301,-4.417843 -3.264,-3.26527 -1.71551,2.785759 -1.89159,-1.892991 2.77253,-1.727376 z m -2.67436,4.490625 0.48876,0.904764 -0.96962,2.955402 -2.29303,-2.081117 -0.0345,-1.025404 2.80831,-0.753687 z m 2.71557,0.710026 2.04657,2.047968 -0.55107,0.89548 -3.04399,0.638472 0.65563,-3.025557 z m -7.47914,2.012234 1.00676,0.02908 2.07446,2.316845 -2.94875,0.944525 -0.8876,-0.474255 0.75509,-2.816237 z m 9.37209,2.270386 0.89548,0.48091 -0.75369,2.813608 -1.01608,-0.03179 -2.05589,-2.286409 2.93022,-0.976232 z m -5.90275,1.759168 -0.61995,3.025599 -0.82787,0.512659 -2.07179,-2.073105 0.51266,-0.826597 3.00695,-0.638514 z m 1.71415,0.468998 2.31023,2.049282 0.0305,0.997427 -2.82031,0.756399 -0.47154,-0.879583 0.95114,-2.923525 z"
             id="path2-3-1-3-7-9-1-2-6-3"
             style="fill:#cc9900;fill-opacity:1;stroke-width:0.0423895" />
          <path
             id="path2-3-5-8-9-6-2-4-5-1-8"
             style="display:inline;fill:#b38a10;fill-opacity:1;stroke-width:0.0423894"
             d="m 151.83733,51.583044 -4.45451,1.194761 0.20102,0.371551 0.23358,-0.06253 0.0176,0.528135 1.10019,2.036051 -1.02268,0.274402 0.014,0.422714 2.59622,-0.697116 -1.55236,-2.873208 3.20291,-0.858864 z m -5.60741,1.503783 -4.38991,1.177708 -1.18546,4.425569 3.26388,0.0925 -0.49971,1.863453 0.42427,0.22634 0.55655,-2.076357 1.00666,0.02894 0.0682,0.07597 0.0315,-0.118338 -3.26388,-0.0925 1.18546,-4.425569 2.81636,-0.755509 z m 9.66246,2.551266 -1.11001,1.802993 0.98185,0.982885 1.11053,-1.80299 z m -5.14181,0.435634 -1.38647,0.372071 0.28783,0.532783 -0.60564,1.845366 1.22318,1.110009 0.45372,-1.382345 0.26251,-1.211294 0.1695,-0.105939 0.0842,-0.255797 z m 2.14354,1.066602 -0.32091,0.199988 -0.0248,0.113686 1.37666,1.377693 -0.55087,0.895554 -1.38131,0.289904 -0.0755,0.348816 3.04426,-0.63872 0.55087,-0.895554 -0.98186,-0.982369 -0.35398,0.574644 z m -6.90707,1.655712 -0.14004,0.521414 1.63349,1.824697 -1.95595,0.626316 0.59479,0.317812 2.94866,-0.944128 -2.07429,-2.317174 z m -5.64358,1.055748 -1.18287,4.411102 3.21479,3.215306 0.60719,-0.980302 -2.23448,-2.235004 0.98391,-3.670062 z m 15.01562,1.214398 v 5.16e-4 l -0.97927,0.326078 0.28732,0.154514 -0.61598,2.299599 0.37207,0.41393 0.66611,-2.487186 0.96583,0.518313 0.19947,-0.744656 z m 1.31775,0.707451 -0.19947,0.744656 1.49603,0.803051 0.19947,-0.744657 z m -7.22075,1.052131 -1.65985,0.352433 -0.50539,2.467549 0.71778,0.718302 0.72089,-0.446484 0.25166,-0.773079 z m 1.71462,0.468705 -0.35553,1.092956 1.07797,0.956532 0.0305,0.997355 -1.43195,0.384472 0.19947,0.37207 2.81998,-0.756542 -0.0305,-0.997355 z m -5.8415,1.977141 -0.2527,0.407725 0.93793,0.93793 -2.77916,1.721858 3.24373,3.244246 1.25212,-0.33538 -2.90835,-2.908866 2.77916,-1.721858 -0.60771,-0.607716 -0.5731,0.354499 z m 8.19795,1.55081 -1.57458,0.421161 0.0724,2.338358 0.24132,0.45062 1.34876,-0.361735 z" />
        </g>
      </g>
      <g
         id="g6-75-7-90-1-0-6-4"
         transform="matrix(0.0234375,0,0,0.0234375,80.572134,45.280115)"
         style="display:inline;fill:#2b95f5;fill-opacity:1">
        <path
           class="st0"
           d="m 511.976,213.063 -45.863,-9.749 31.374,-34.845 C 472.114,131.733 417.268,115.015 360.373,127.926 355.071,69.826 322.223,22.83 279.444,10.052 L 256,50.659 232.556,10.053 C 189.777,22.832 156.93,69.828 151.627,127.927 94.733,115.016 39.886,131.734 14.514,168.47 l 31.374,34.844 -45.864,9.749 c -1.066,44.634 33.479,90.396 87.097,113.393 -29.86,50.12 -30.91,107.448 -3.812,142.931 l 42.834,-19.071 -4.901,46.632 c 42.12,14.806 96.318,-3.907 134.758,-47.794 38.44,43.887 92.638,62.6 134.758,47.794 l -4.901,-46.632 42.835,19.072 c 27.097,-35.483 26.048,-92.811 -3.812,-142.932 53.617,-22.996 88.162,-68.759 87.096,-113.393 z m -196.599,83.322 c 3.526,-2.358 7.678,-3.63 11.998,-3.63 3.762,0 7.479,0.998 10.752,2.889 4.986,2.876 8.552,7.525 10.043,13.085 1.49,5.56 0.725,11.369 -2.156,16.353 -3.838,6.65 -10.996,10.781 -18.68,10.781 -3.765,0 -7.484,-1 -10.758,-2.89 -7.126,-4.116 -11.228,-12.025 -10.724,-20.072 l -40.32,-23.278 v 46.552 c 7.222,3.587 12.021,11.096 12.021,19.327 0,11.884 -9.669,21.551 -21.553,21.551 -11.884,0 -21.553,-9.667 -21.553,-21.551 0,-8.231 4.799,-15.74 12.021,-19.327 v -46.552 l -40.319,23.278 c 0.504,8.047 -3.598,15.956 -10.724,20.072 -3.275,1.889 -6.994,2.89 -10.758,2.89 -7.684,0 -14.842,-4.132 -18.682,-10.781 -2.878,-4.984 -3.644,-10.792 -2.154,-16.353 1.49,-5.56 5.057,-10.209 10.043,-13.087 3.272,-1.889 6.989,-2.887 10.752,-2.887 4.321,0 8.473,1.272 11.996,3.63 l 40.312,-23.274 -40.312,-23.272 c -3.523,2.359 -7.675,3.63 -11.996,3.63 -3.762,0 -7.479,-0.998 -10.752,-2.89 -4.986,-2.876 -8.552,-7.525 -10.043,-13.085 -1.49,-5.56 -0.724,-11.369 2.156,-16.353 3.838,-6.65 10.995,-10.781 18.68,-10.781 3.764,0 7.484,1 10.758,2.89 7.126,4.116 11.228,12.025 10.724,20.072 l 40.319,23.278 v -46.552 c -7.222,-3.587 -12.021,-11.096 -12.021,-19.327 0,-11.884 9.669,-21.551 21.553,-21.551 11.884,0 21.553,9.667 21.553,21.551 0,8.231 -4.799,15.74 -12.021,19.327 V 256.6 l 40.32,-23.278 c -0.504,-8.047 3.598,-15.956 10.724,-20.072 3.275,-1.889 6.994,-2.89 10.758,-2.89 7.684,0 14.842,4.132 18.682,10.781 2.878,4.984 3.644,10.792 2.154,16.353 -1.49,5.56 -5.057,10.209 -10.043,13.088 -3.272,1.889 -6.989,2.887 -10.752,2.887 -4.32,0 -8.472,-1.272 -11.998,-3.63 l -40.31,23.272 z"
           id="path4-1-5-9-3-3-8-2-1"
           style="fill:#2b95f5;fill-opacity:1" />
      </g>
      <g
         id="g6-2-7-0-9-0-26-8-9"
         transform="matrix(0.0234375,0,0,0.0234375,63.394148,39.213816)"
         style="display:inline;fill:#2b95f5;fill-opacity:1">
        <path
           class="st0"
           d="m 511.976,213.063 -45.863,-9.749 31.374,-34.845 C 472.114,131.733 417.268,115.015 360.373,127.926 355.071,69.826 322.223,22.83 279.444,10.052 L 256,50.659 232.556,10.053 C 189.777,22.832 156.93,69.828 151.627,127.927 94.733,115.016 39.886,131.734 14.514,168.47 l 31.374,34.844 -45.864,9.749 c -1.066,44.634 33.479,90.396 87.097,113.393 -29.86,50.12 -30.91,107.448 -3.812,142.931 l 42.834,-19.071 -4.901,46.632 c 42.12,14.806 96.318,-3.907 134.758,-47.794 38.44,43.887 92.638,62.6 134.758,47.794 l -4.901,-46.632 42.835,19.072 c 27.097,-35.483 26.048,-92.811 -3.812,-142.932 53.617,-22.996 88.162,-68.759 87.096,-113.393 z m -196.599,83.322 c 3.526,-2.358 7.678,-3.63 11.998,-3.63 3.762,0 7.479,0.998 10.752,2.889 4.986,2.876 8.552,7.525 10.043,13.085 1.49,5.56 0.725,11.369 -2.156,16.353 -3.838,6.65 -10.996,10.781 -18.68,10.781 -3.765,0 -7.484,-1 -10.758,-2.89 -7.126,-4.116 -11.228,-12.025 -10.724,-20.072 l -40.32,-23.278 v 46.552 c 7.222,3.587 12.021,11.096 12.021,19.327 0,11.884 -9.669,21.551 -21.553,21.551 -11.884,0 -21.553,-9.667 -21.553,-21.551 0,-8.231 4.799,-15.74 12.021,-19.327 v -46.552 l -40.319,23.278 c 0.504,8.047 -3.598,15.956 -10.724,20.072 -3.275,1.889 -6.994,2.89 -10.758,2.89 -7.684,0 -14.842,-4.132 -18.682,-10.781 -2.878,-4.984 -3.644,-10.792 -2.154,-16.353 1.49,-5.56 5.057,-10.209 10.043,-13.087 3.272,-1.889 6.989,-2.887 10.752,-2.887 4.321,0 8.473,1.272 11.996,3.63 l 40.312,-23.274 -40.312,-23.272 c -3.523,2.359 -7.675,3.63 -11.996,3.63 -3.762,0 -7.479,-0.998 -10.752,-2.89 -4.986,-2.876 -8.552,-7.525 -10.043,-13.085 -1.49,-5.56 -0.724,-11.369 2.156,-16.353 3.838,-6.65 10.995,-10.781 18.68,-10.781 3.764,0 7.484,1 10.758,2.89 7.126,4.116 11.228,12.025 10.724,20.072 l 40.319,23.278 v -46.552 c -7.222,-3.587 -12.021,-11.096 -12.021,-19.327 0,-11.884 9.669,-21.551 21.553,-21.551 11.884,0 21.553,9.667 21.553,21.551 0,8.231 -4.799,15.74 -12.021,19.327 V 256.6 l 40.32,-23.278 c -0.504,-8.047 3.598,-15.956 10.724,-20.072 3.275,-1.889 6.994,-2.89 10.758,-2.89 7.684,0 14.842,4.132 18.682,10.781 2.878,4.984 3.644,10.792 2.154,16.353 -1.49,5.56 -5.057,10.209 -10.043,13.088 -3.272,1.889 -6.989,2.887 -10.752,2.887 -4.32,0 -8.472,-1.272 -11.998,-3.63 l -40.31,23.272 z"
           id="path4-1-1-3-2-5-5-7-5-9"
           style="fill:#2b95f5;fill-opacity:1" />
      </g>
      <g
         id="g6-2-3-40-2-18-1-04-8-4"
         transform="matrix(0.0234375,0,0,0.0234375,48.430921,44.201603)"
         style="display:inline;fill:#2b95f5;fill-opacity:1">
        <path
           class="st0"
           d="m 511.976,213.063 -45.863,-9.749 31.374,-34.845 C 472.114,131.733 417.268,115.015 360.373,127.926 355.071,69.826 322.223,22.83 279.444,10.052 L 256,50.659 232.556,10.053 C 189.777,22.832 156.93,69.828 151.627,127.927 94.733,115.016 39.886,131.734 14.514,168.47 l 31.374,34.844 -45.864,9.749 c -1.066,44.634 33.479,90.396 87.097,113.393 -29.86,50.12 -30.91,107.448 -3.812,142.931 l 42.834,-19.071 -4.901,46.632 c 42.12,14.806 96.318,-3.907 134.758,-47.794 38.44,43.887 92.638,62.6 134.758,47.794 l -4.901,-46.632 42.835,19.072 c 27.097,-35.483 26.048,-92.811 -3.812,-142.932 53.617,-22.996 88.162,-68.759 87.096,-113.393 z m -196.599,83.322 c 3.526,-2.358 7.678,-3.63 11.998,-3.63 3.762,0 7.479,0.998 10.752,2.889 4.986,2.876 8.552,7.525 10.043,13.085 1.49,5.56 0.725,11.369 -2.156,16.353 -3.838,6.65 -10.996,10.781 -18.68,10.781 -3.765,0 -7.484,-1 -10.758,-2.89 -7.126,-4.116 -11.228,-12.025 -10.724,-20.072 l -40.32,-23.278 v 46.552 c 7.222,3.587 12.021,11.096 12.021,19.327 0,11.884 -9.669,21.551 -21.553,21.551 -11.884,0 -21.553,-9.667 -21.553,-21.551 0,-8.231 4.799,-15.74 12.021,-19.327 v -46.552 l -40.319,23.278 c 0.504,8.047 -3.598,15.956 -10.724,20.072 -3.275,1.889 -6.994,2.89 -10.758,2.89 -7.684,0 -14.842,-4.132 -18.682,-10.781 -2.878,-4.984 -3.644,-10.792 -2.154,-16.353 1.49,-5.56 5.057,-10.209 10.043,-13.087 3.272,-1.889 6.989,-2.887 10.752,-2.887 4.321,0 8.473,1.272 11.996,3.63 l 40.312,-23.274 -40.312,-23.272 c -3.523,2.359 -7.675,3.63 -11.996,3.63 -3.762,0 -7.479,-0.998 -10.752,-2.89 -4.986,-2.876 -8.552,-7.525 -10.043,-13.085 -1.49,-5.56 -0.724,-11.369 2.156,-16.353 3.838,-6.65 10.995,-10.781 18.68,-10.781 3.764,0 7.484,1 10.758,2.89 7.126,4.116 11.228,12.025 10.724,20.072 l 40.319,23.278 v -46.552 c -7.222,-3.587 -12.021,-11.096 -12.021,-19.327 0,-11.884 9.669,-21.551 21.553,-21.551 11.884,0 21.553,9.667 21.553,21.551 0,8.231 -4.799,15.74 -12.021,19.327 V 256.6 l 40.32,-23.278 c -0.504,-8.047 3.598,-15.956 10.724,-20.072 3.275,-1.889 6.994,-2.89 10.758,-2.89 7.684,0 14.842,4.132 18.682,10.781 2.878,4.984 3.644,10.792 2.154,16.353 -1.49,5.56 -5.057,10.209 -10.043,13.088 -3.272,1.889 -6.989,2.887 -10.752,2.887 -4.32,0 -8.472,-1.272 -11.998,-3.63 l -40.31,23.272 z"
           id="path4-1-1-7-7-8-8-96-3-05-0"
           style="fill:#2b95f5;fill-opacity:1" />
      </g>
    </g>
    <g
       id="g2469-0-1-1-7-07-9-0"
       style="display:inline"
       transform="matrix(0.754717,0,0,0.754717,42.161205,75.480903)">
      <g
         id="g16088-3-9-2-4-9-2-1"
         transform="matrix(1.0970525,0,0,1.0970525,-112.63298,-9.184748)"
         style="display:inline">
        <g
           id="g16024-2-2-7-59-9-3-1">
          <path
             fill="#000000"
             d="m 151.83738,51.583012 -4.45472,1.194835 1.55252,2.873166 -2.59636,0.696885 -0.10873,-3.261455 -4.38999,1.17771 -1.18551,4.42577 3.264,0.09266 -0.69816,2.604332 -2.87719,-1.535351 -1.18289,4.411314 3.21496,3.214954 1.72072,-2.779061 1.91813,1.918128 -2.77915,1.722035 3.24408,3.244075 4.39927,-1.178939 -1.54722,-2.883763 2.60823,-0.698157 0.10076,3.270653 4.43764,-1.189621 1.18564,-4.427042 -3.2707,-0.100717 0.6968,-2.601661 2.88377,1.54722 1.18301,-4.417843 -3.264,-3.26527 -1.71551,2.785759 -1.89159,-1.892991 2.77253,-1.727376 z m -2.67436,4.490625 0.48876,0.904764 -0.96962,2.955402 -2.29303,-2.081117 -0.0345,-1.025404 2.80831,-0.753687 z m 2.71557,0.710026 2.04657,2.047968 -0.55107,0.89548 -3.04399,0.638472 0.65563,-3.025557 z m -7.47914,2.012234 1.00676,0.02908 2.07446,2.316845 -2.94875,0.944525 -0.8876,-0.474255 0.75509,-2.816237 z m 9.37209,2.270386 0.89548,0.48091 -0.75369,2.813608 -1.01608,-0.03179 -2.05589,-2.286409 2.93022,-0.976232 z m -5.90275,1.759168 -0.61995,3.025599 -0.82787,0.512659 -2.07179,-2.073105 0.51266,-0.826597 3.00695,-0.638514 z m 1.71415,0.468998 2.31023,2.049282 0.0305,0.997427 -2.82031,0.756399 -0.47154,-0.879583 0.95114,-2.923525 z"
             id="path2-3-53-2-5-5-0-87-2"
             style="fill:#cc9900;fill-opacity:1;stroke-width:0.0423895" />
          <path
             id="path2-3-5-3-1-2-5-5-1-5"
             style="display:inline;fill:#b38a10;fill-opacity:1;stroke-width:0.0423894"
             d="m 151.83733,51.583044 -4.45451,1.194761 0.20102,0.371551 0.23358,-0.06253 0.0176,0.528135 1.10019,2.036051 -1.02268,0.274402 0.014,0.422714 2.59622,-0.697116 -1.55236,-2.873208 3.20291,-0.858864 z m -5.60741,1.503783 -4.38991,1.177708 -1.18546,4.425569 3.26388,0.0925 -0.49971,1.863453 0.42427,0.22634 0.55655,-2.076357 1.00666,0.02894 0.0682,0.07597 0.0315,-0.118338 -3.26388,-0.0925 1.18546,-4.425569 2.81636,-0.755509 z m 9.66246,2.551266 -1.11001,1.802993 0.98185,0.982885 1.11053,-1.80299 z m -5.14181,0.435634 -1.38647,0.372071 0.28783,0.532783 -0.60564,1.845366 1.22318,1.110009 0.45372,-1.382345 0.26251,-1.211294 0.1695,-0.105939 0.0842,-0.255797 z m 2.14354,1.066602 -0.32091,0.199988 -0.0248,0.113686 1.37666,1.377693 -0.55087,0.895554 -1.38131,0.289904 -0.0755,0.348816 3.04426,-0.63872 0.55087,-0.895554 -0.98186,-0.982369 -0.35398,0.574644 z m -6.90707,1.655712 -0.14004,0.521414 1.63349,1.824697 -1.95595,0.626316 0.59479,0.317812 2.94866,-0.944128 -2.07429,-2.317174 z m -5.64358,1.055748 -1.18287,4.411102 3.21479,3.215306 0.60719,-0.980302 -2.23448,-2.235004 0.98391,-3.670062 z m 15.01562,1.214398 v 5.16e-4 l -0.97927,0.326078 0.28732,0.154514 -0.61598,2.299599 0.37207,0.41393 0.66611,-2.487186 0.96583,0.518313 0.19947,-0.744656 z m 1.31775,0.707451 -0.19947,0.744656 1.49603,0.803051 0.19947,-0.744657 z m -7.22075,1.052131 -1.65985,0.352433 -0.50539,2.467549 0.71778,0.718302 0.72089,-0.446484 0.25166,-0.773079 z m 1.71462,0.468705 -0.35553,1.092956 1.07797,0.956532 0.0305,0.997355 -1.43195,0.384472 0.19947,0.37207 2.81998,-0.756542 -0.0305,-0.997355 z m -5.8415,1.977141 -0.2527,0.407725 0.93793,0.93793 -2.77916,1.721858 3.24373,3.244246 1.25212,-0.33538 -2.90835,-2.908866 2.77916,-1.721858 -0.60771,-0.607716 -0.5731,0.354499 z m 8.19795,1.55081 -1.57458,0.421161 0.0724,2.338358 0.24132,0.45062 1.34876,-0.361735 z" />
        </g>
        <g
           id="g16024-7-4-1-25-03-4-6-6"
           style="display:inline"
           transform="translate(13.639481,-4.5465347)">
          <path
             fill="#000000"
             d="m 151.83738,51.583012 -4.45472,1.194835 1.55252,2.873166 -2.59636,0.696885 -0.10873,-3.261455 -4.38999,1.17771 -1.18551,4.42577 3.264,0.09266 -0.69816,2.604332 -2.87719,-1.535351 -1.18289,4.411314 3.21496,3.214954 1.72072,-2.779061 1.91813,1.918128 -2.77915,1.722035 3.24408,3.244075 4.39927,-1.178939 -1.54722,-2.883763 2.60823,-0.698157 0.10076,3.270653 4.43764,-1.189621 1.18564,-4.427042 -3.2707,-0.100717 0.6968,-2.601661 2.88377,1.54722 1.18301,-4.417843 -3.264,-3.26527 -1.71551,2.785759 -1.89159,-1.892991 2.77253,-1.727376 z m -2.67436,4.490625 0.48876,0.904764 -0.96962,2.955402 -2.29303,-2.081117 -0.0345,-1.025404 2.80831,-0.753687 z m 2.71557,0.710026 2.04657,2.047968 -0.55107,0.89548 -3.04399,0.638472 0.65563,-3.025557 z m -7.47914,2.012234 1.00676,0.02908 2.07446,2.316845 -2.94875,0.944525 -0.8876,-0.474255 0.75509,-2.816237 z m 9.37209,2.270386 0.89548,0.48091 -0.75369,2.813608 -1.01608,-0.03179 -2.05589,-2.286409 2.93022,-0.976232 z m -5.90275,1.759168 -0.61995,3.025599 -0.82787,0.512659 -2.07179,-2.073105 0.51266,-0.826597 3.00695,-0.638514 z m 1.71415,0.468998 2.31023,2.049282 0.0305,0.997427 -2.82031,0.756399 -0.47154,-0.879583 0.95114,-2.923525 z"
             id="path2-3-9-9-0-1-0-0-01-4"
             style="fill:#cc9900;fill-opacity:1;stroke-width:0.0423895" />
          <path
             id="path2-3-5-1-2-2-62-65-6-1-8"
             style="display:inline;fill:#b38a10;fill-opacity:1;stroke-width:0.0423894"
             d="m 151.83733,51.583044 -4.45451,1.194761 0.20102,0.371551 0.23358,-0.06253 0.0176,0.528135 1.10019,2.036051 -1.02268,0.274402 0.014,0.422714 2.59622,-0.697116 -1.55236,-2.873208 3.20291,-0.858864 z m -5.60741,1.503783 -4.38991,1.177708 -1.18546,4.425569 3.26388,0.0925 -0.49971,1.863453 0.42427,0.22634 0.55655,-2.076357 1.00666,0.02894 0.0682,0.07597 0.0315,-0.118338 -3.26388,-0.0925 1.18546,-4.425569 2.81636,-0.755509 z m 9.66246,2.551266 -1.11001,1.802993 0.98185,0.982885 1.11053,-1.80299 z m -5.14181,0.435634 -1.38647,0.372071 0.28783,0.532783 -0.60564,1.845366 1.22318,1.110009 0.45372,-1.382345 0.26251,-1.211294 0.1695,-0.105939 0.0842,-0.255797 z m 2.14354,1.066602 -0.32091,0.199988 -0.0248,0.113686 1.37666,1.377693 -0.55087,0.895554 -1.38131,0.289904 -0.0755,0.348816 3.04426,-0.63872 0.55087,-0.895554 -0.98186,-0.982369 -0.35398,0.574644 z m -6.90707,1.655712 -0.14004,0.521414 1.63349,1.824697 -1.95595,0.626316 0.59479,0.317812 2.94866,-0.944128 -2.07429,-2.317174 z m -5.64358,1.055748 -1.18287,4.411102 3.21479,3.215306 0.60719,-0.980302 -2.23448,-2.235004 0.98391,-3.670062 z m 15.01562,1.214398 v 5.16e-4 l -0.97927,0.326078 0.28732,0.154514 -0.61598,2.299599 0.37207,0.41393 0.66611,-2.487186 0.96583,0.518313 0.19947,-0.744656 z m 1.31775,0.707451 -0.19947,0.744656 1.49603,0.803051 0.19947,-0.744657 z m -7.22075,1.052131 -1.65985,0.352433 -0.50539,2.467549 0.71778,0.718302 0.72089,-0.446484 0.25166,-0.773079 z m 1.71462,0.468705 -0.35553,1.092956 1.07797,0.956532 0.0305,0.997355 -1.43195,0.384472 0.19947,0.37207 2.81998,-0.756542 -0.0305,-0.997355 z m -5.8415,1.977141 -0.2527,0.407725 0.93793,0.93793 -2.77916,1.721858 3.24373,3.244246 1.25212,-0.33538 -2.90835,-2.908866 2.77916,-1.721858 -0.60771,-0.607716 -0.5731,0.354499 z m 8.19795,1.55081 -1.57458,0.421161 0.0724,2.338358 0.24132,0.45062 1.34876,-0.361735 z" />
        </g>
        <g
           id="g16024-0-49-0-3-1-95-1-6"
           style="display:inline"
           transform="translate(28.315329,-1.2e-5)">
          <path
             fill="#000000"
             d="m 151.83738,51.583012 -4.45472,1.194835 1.55252,2.873166 -2.59636,0.696885 -0.10873,-3.261455 -4.38999,1.17771 -1.18551,4.42577 3.264,0.09266 -0.69816,2.604332 -2.87719,-1.535351 -1.18289,4.411314 3.21496,3.214954 1.72072,-2.779061 1.91813,1.918128 -2.77915,1.722035 3.24408,3.244075 4.39927,-1.178939 -1.54722,-2.883763 2.60823,-0.698157 0.10076,3.270653 4.43764,-1.189621 1.18564,-4.427042 -3.2707,-0.100717 0.6968,-2.601661 2.88377,1.54722 1.18301,-4.417843 -3.264,-3.26527 -1.71551,2.785759 -1.89159,-1.892991 2.77253,-1.727376 z m -2.67436,4.490625 0.48876,0.904764 -0.96962,2.955402 -2.29303,-2.081117 -0.0345,-1.025404 2.80831,-0.753687 z m 2.71557,0.710026 2.04657,2.047968 -0.55107,0.89548 -3.04399,0.638472 0.65563,-3.025557 z m -7.47914,2.012234 1.00676,0.02908 2.07446,2.316845 -2.94875,0.944525 -0.8876,-0.474255 0.75509,-2.816237 z m 9.37209,2.270386 0.89548,0.48091 -0.75369,2.813608 -1.01608,-0.03179 -2.05589,-2.286409 2.93022,-0.976232 z m -5.90275,1.759168 -0.61995,3.025599 -0.82787,0.512659 -2.07179,-2.073105 0.51266,-0.826597 3.00695,-0.638514 z m 1.71415,0.468998 2.31023,2.049282 0.0305,0.997427 -2.82031,0.756399 -0.47154,-0.879583 0.95114,-2.923525 z"
             id="path2-3-1-3-7-9-1-2-6-5"
             style="fill:#cc9900;fill-opacity:1;stroke-width:0.0423895" />
          <path
             id="path2-3-5-8-9-6-2-4-5-1-84"
             style="display:inline;fill:#b38a10;fill-opacity:1;stroke-width:0.0423894"
             d="m 151.83733,51.583044 -4.45451,1.194761 0.20102,0.371551 0.23358,-0.06253 0.0176,0.528135 1.10019,2.036051 -1.02268,0.274402 0.014,0.422714 2.59622,-0.697116 -1.55236,-2.873208 3.20291,-0.858864 z m -5.60741,1.503783 -4.38991,1.177708 -1.18546,4.425569 3.26388,0.0925 -0.49971,1.863453 0.42427,0.22634 0.55655,-2.076357 1.00666,0.02894 0.0682,0.07597 0.0315,-0.118338 -3.26388,-0.0925 1.18546,-4.425569 2.81636,-0.755509 z m 9.66246,2.551266 -1.11001,1.802993 0.98185,0.982885 1.11053,-1.80299 z m -5.14181,0.435634 -1.38647,0.372071 0.28783,0.532783 -0.60564,1.845366 1.22318,1.110009 0.45372,-1.382345 0.26251,-1.211294 0.1695,-0.105939 0.0842,-0.255797 z m 2.14354,1.066602 -0.32091,0.199988 -0.0248,0.113686 1.37666,1.377693 -0.55087,0.895554 -1.38131,0.289904 -0.0755,0.348816 3.04426,-0.63872 0.55087,-0.895554 -0.98186,-0.982369 -0.35398,0.574644 z m -6.90707,1.655712 -0.14004,0.521414 1.63349,1.824697 -1.95595,0.626316 0.59479,0.317812 2.94866,-0.944128 -2.07429,-2.317174 z m -5.64358,1.055748 -1.18287,4.411102 3.21479,3.215306 0.60719,-0.980302 -2.23448,-2.235004 0.98391,-3.670062 z m 15.01562,1.214398 v 5.16e-4 l -0.97927,0.326078 0.28732,0.154514 -0.61598,2.299599 0.37207,0.41393 0.66611,-2.487186 0.96583,0.518313 0.19947,-0.744656 z m 1.31775,0.707451 -0.19947,0.744656 1.49603,0.803051 0.19947,-0.744657 z m -7.22075,1.052131 -1.65985,0.352433 -0.50539,2.467549 0.71778,0.718302 0.72089,-0.446484 0.25166,-0.773079 z m 1.71462,0.468705 -0.35553,1.092956 1.07797,0.956532 0.0305,0.997355 -1.43195,0.384472 0.19947,0.37207 2.81998,-0.756542 -0.0305,-0.997355 z m -5.8415,1.977141 -0.2527,0.407725 0.93793,0.93793 -2.77916,1.721858 3.24373,3.244246 1.25212,-0.33538 -2.90835,-2.908866 2.77916,-1.721858 -0.60771,-0.607716 -0.5731,0.354499 z m 8.19795,1.55081 -1.57458,0.421161 0.0724,2.338358 0.24132,0.45062 1.34876,-0.361735 z" />
        </g>
      </g>
      <g
         id="g6-75-7-90-1-0-6-1"
         transform="matrix(0.0234375,0,0,0.0234375,80.572134,45.280115)"
         style="display:inline;fill:#2b95f5;fill-opacity:1">
        <path
           class="st0"
           d="m 511.976,213.063 -45.863,-9.749 31.374,-34.845 C 472.114,131.733 417.268,115.015 360.373,127.926 355.071,69.826 322.223,22.83 279.444,10.052 L 256,50.659 232.556,10.053 C 189.777,22.832 156.93,69.828 151.627,127.927 94.733,115.016 39.886,131.734 14.514,168.47 l 31.374,34.844 -45.864,9.749 c -1.066,44.634 33.479,90.396 87.097,113.393 -29.86,50.12 -30.91,107.448 -3.812,142.931 l 42.834,-19.071 -4.901,46.632 c 42.12,14.806 96.318,-3.907 134.758,-47.794 38.44,43.887 92.638,62.6 134.758,47.794 l -4.901,-46.632 42.835,19.072 c 27.097,-35.483 26.048,-92.811 -3.812,-142.932 53.617,-22.996 88.162,-68.759 87.096,-113.393 z m -196.599,83.322 c 3.526,-2.358 7.678,-3.63 11.998,-3.63 3.762,0 7.479,0.998 10.752,2.889 4.986,2.876 8.552,7.525 10.043,13.085 1.49,5.56 0.725,11.369 -2.156,16.353 -3.838,6.65 -10.996,10.781 -18.68,10.781 -3.765,0 -7.484,-1 -10.758,-2.89 -7.126,-4.116 -11.228,-12.025 -10.724,-20.072 l -40.32,-23.278 v 46.552 c 7.222,3.587 12.021,11.096 12.021,19.327 0,11.884 -9.669,21.551 -21.553,21.551 -11.884,0 -21.553,-9.667 -21.553,-21.551 0,-8.231 4.799,-15.74 12.021,-19.327 v -46.552 l -40.319,23.278 c 0.504,8.047 -3.598,15.956 -10.724,20.072 -3.275,1.889 -6.994,2.89 -10.758,2.89 -7.684,0 -14.842,-4.132 -18.682,-10.781 -2.878,-4.984 -3.644,-10.792 -2.154,-16.353 1.49,-5.56 5.057,-10.209 10.043,-13.087 3.272,-1.889 6.989,-2.887 10.752,-2.887 4.321,0 8.473,1.272 11.996,3.63 l 40.312,-23.274 -40.312,-23.272 c -3.523,2.359 -7.675,3.63 -11.996,3.63 -3.762,0 -7.479,-0.998 -10.752,-2.89 -4.986,-2.876 -8.552,-7.525 -10.043,-13.085 -1.49,-5.56 -0.724,-11.369 2.156,-16.353 3.838,-6.65 10.995,-10.781 18.68,-10.781 3.764,0 7.484,1 10.758,2.89 7.126,4.116 11.228,12.025 10.724,20.072 l 40.319,23.278 v -46.552 c -7.222,-3.587 -12.021,-11.096 -12.021,-19.327 0,-11.884 9.669,-21.551 21.553,-21.551 11.884,0 21.553,9.667 21.553,21.551 0,8.231 -4.799,15.74 -12.021,19.327 V 256.6 l 40.32,-23.278 c -0.504,-8.047 3.598,-15.956 10.724,-20.072 3.275,-1.889 6.994,-2.89 10.758,-2.89 7.684,0 14.842,4.132 18.682,10.781 2.878,4.984 3.644,10.792 2.154,16.353 -1.49,5.56 -5.057,10.209 -10.043,13.088 -3.272,1.889 -6.989,2.887 -10.752,2.887 -4.32,0 -8.472,-1.272 -11.998,-3.63 l -40.31,23.272 z"
           id="path4-1-5-9-3-3-8-2-6"
           style="fill:#2b95f5;fill-opacity:1" />
      </g>
      <g
         id="g6-2-7-0-9-0-26-8-8"
         transform="matrix(0.0234375,0,0,0.0234375,63.394148,39.213816)"
         style="display:inline;fill:#2b95f5;fill-opacity:1">
        <path
           class="st0"
           d="m 511.976,213.063 -45.863,-9.749 31.374,-34.845 C 472.114,131.733 417.268,115.015 360.373,127.926 355.071,69.826 322.223,22.83 279.444,10.052 L 256,50.659 232.556,10.053 C 189.777,22.832 156.93,69.828 151.627,127.927 94.733,115.016 39.886,131.734 14.514,168.47 l 31.374,34.844 -45.864,9.749 c -1.066,44.634 33.479,90.396 87.097,113.393 -29.86,50.12 -30.91,107.448 -3.812,142.931 l 42.834,-19.071 -4.901,46.632 c 42.12,14.806 96.318,-3.907 134.758,-47.794 38.44,43.887 92.638,62.6 134.758,47.794 l -4.901,-46.632 42.835,19.072 c 27.097,-35.483 26.048,-92.811 -3.812,-142.932 53.617,-22.996 88.162,-68.759 87.096,-113.393 z m -196.599,83.322 c 3.526,-2.358 7.678,-3.63 11.998,-3.63 3.762,0 7.479,0.998 10.752,2.889 4.986,2.876 8.552,7.525 10.043,13.085 1.49,5.56 0.725,11.369 -2.156,16.353 -3.838,6.65 -10.996,10.781 -18.68,10.781 -3.765,0 -7.484,-1 -10.758,-2.89 -7.126,-4.116 -11.228,-12.025 -10.724,-20.072 l -40.32,-23.278 v 46.552 c 7.222,3.587 12.021,11.096 12.021,19.327 0,11.884 -9.669,21.551 -21.553,21.551 -11.884,0 -21.553,-9.667 -21.553,-21.551 0,-8.231 4.799,-15.74 12.021,-19.327 v -46.552 l -40.319,23.278 c 0.504,8.047 -3.598,15.956 -10.724,20.072 -3.275,1.889 -6.994,2.89 -10.758,2.89 -7.684,0 -14.842,-4.132 -18.682,-10.781 -2.878,-4.984 -3.644,-10.792 -2.154,-16.353 1.49,-5.56 5.057,-10.209 10.043,-13.087 3.272,-1.889 6.989,-2.887 10.752,-2.887 4.321,0 8.473,1.272 11.996,3.63 l 40.312,-23.274 -40.312,-23.272 c -3.523,2.359 -7.675,3.63 -11.996,3.63 -3.762,0 -7.479,-0.998 -10.752,-2.89 -4.986,-2.876 -8.552,-7.525 -10.043,-13.085 -1.49,-5.56 -0.724,-11.369 2.156,-16.353 3.838,-6.65 10.995,-10.781 18.68,-10.781 3.764,0 7.484,1 10.758,2.89 7.126,4.116 11.228,12.025 10.724,20.072 l 40.319,23.278 v -46.552 c -7.222,-3.587 -12.021,-11.096 -12.021,-19.327 0,-11.884 9.669,-21.551 21.553,-21.551 11.884,0 21.553,9.667 21.553,21.551 0,8.231 -4.799,15.74 -12.021,19.327 V 256.6 l 40.32,-23.278 c -0.504,-8.047 3.598,-15.956 10.724,-20.072 3.275,-1.889 6.994,-2.89 10.758,-2.89 7.684,0 14.842,4.132 18.682,10.781 2.878,4.984 3.644,10.792 2.154,16.353 -1.49,5.56 -5.057,10.209 -10.043,13.088 -3.272,1.889 -6.989,2.887 -10.752,2.887 -4.32,0 -8.472,-1.272 -11.998,-3.63 l -40.31,23.272 z"
           id="path4-1-1-3-2-5-5-7-5-3"
           style="fill:#2b95f5;fill-opacity:1" />
      </g>
      <g
         id="g6-2-3-40-2-18-1-04-8-7"
         transform="matrix(0.0234375,0,0,0.0234375,48.430921,44.201603)"
         style="display:inline;fill:#2b95f5;fill-opacity:1">
        <path
           class="st0"
           d="m 511.976,213.063 -45.863,-9.749 31.374,-34.845 C 472.114,131.733 417.268,115.015 360.373,127.926 355.071,69.826 322.223,22.83 279.444,10.052 L 256,50.659 232.556,10.053 C 189.777,22.832 156.93,69.828 151.627,127.927 94.733,115.016 39.886,131.734 14.514,168.47 l 31.374,34.844 -45.864,9.749 c -1.066,44.634 33.479,90.396 87.097,113.393 -29.86,50.12 -30.91,107.448 -3.812,142.931 l 42.834,-19.071 -4.901,46.632 c 42.12,14.806 96.318,-3.907 134.758,-47.794 38.44,43.887 92.638,62.6 134.758,47.794 l -4.901,-46.632 42.835,19.072 c 27.097,-35.483 26.048,-92.811 -3.812,-142.932 53.617,-22.996 88.162,-68.759 87.096,-113.393 z m -196.599,83.322 c 3.526,-2.358 7.678,-3.63 11.998,-3.63 3.762,0 7.479,0.998 10.752,2.889 4.986,2.876 8.552,7.525 10.043,13.085 1.49,5.56 0.725,11.369 -2.156,16.353 -3.838,6.65 -10.996,10.781 -18.68,10.781 -3.765,0 -7.484,-1 -10.758,-2.89 -7.126,-4.116 -11.228,-12.025 -10.724,-20.072 l -40.32,-23.278 v 46.552 c 7.222,3.587 12.021,11.096 12.021,19.327 0,11.884 -9.669,21.551 -21.553,21.551 -11.884,0 -21.553,-9.667 -21.553,-21.551 0,-8.231 4.799,-15.74 12.021,-19.327 v -46.552 l -40.319,23.278 c 0.504,8.047 -3.598,15.956 -10.724,20.072 -3.275,1.889 -6.994,2.89 -10.758,2.89 -7.684,0 -14.842,-4.132 -18.682,-10.781 -2.878,-4.984 -3.644,-10.792 -2.154,-16.353 1.49,-5.56 5.057,-10.209 10.043,-13.087 3.272,-1.889 6.989,-2.887 10.752,-2.887 4.321,0 8.473,1.272 11.996,3.63 l 40.312,-23.274 -40.312,-23.272 c -3.523,2.359 -7.675,3.63 -11.996,3.63 -3.762,0 -7.479,-0.998 -10.752,-2.89 -4.986,-2.876 -8.552,-7.525 -10.043,-13.085 -1.49,-5.56 -0.724,-11.369 2.156,-16.353 3.838,-6.65 10.995,-10.781 18.68,-10.781 3.764,0 7.484,1 10.758,2.89 7.126,4.116 11.228,12.025 10.724,20.072 l 40.319,23.278 v -46.552 c -7.222,-3.587 -12.021,-11.096 -12.021,-19.327 0,-11.884 9.669,-21.551 21.553,-21.551 11.884,0 21.553,9.667 21.553,21.551 0,8.231 -4.799,15.74 -12.021,19.327 V 256.6 l 40.32,-23.278 c -0.504,-8.047 3.598,-15.956 10.724,-20.072 3.275,-1.889 6.994,-2.89 10.758,-2.89 7.684,0 14.842,4.132 18.682,10.781 2.878,4.984 3.644,10.792 2.154,16.353 -1.49,5.56 -5.057,10.209 -10.043,13.088 -3.272,1.889 -6.989,2.887 -10.752,2.887 -4.32,0 -8.472,-1.272 -11.998,-3.63 l -40.31,23.272 z"
           id="path4-1-1-7-7-8-8-96-3-05-7"
           style="fill:#2b95f5;fill-opacity:1" />
      </g>
    </g>
  </g>
</svg>
