<?xml version="1.0" encoding="UTF-8" standalone="no"?>
<!-- Created with Inkscape (http://www.inkscape.org/) -->

<svg
   width="500"
   height="500"
   viewBox="0 0 132.29166 132.29167"
   version="1.1"
   id="svg2515"
   inkscape:version="1.1.2 (b8e25be833, 2022-02-05)"
   sodipodi:docname="bonsai01s02normal.svg"
   inkscape:export-filename="C:\Users\Lenovo\Desktop\Coding\Media files\Bonsais\bonsai01.png"
   inkscape:export-xdpi="96"
   inkscape:export-ydpi="96"
   xmlns:inkscape="http://www.inkscape.org/namespaces/inkscape"
   xmlns:sodipodi="http://sodipodi.sourceforge.net/DTD/sodipodi-0.dtd"
   xmlns="http://www.w3.org/2000/svg"
   xmlns:svg="http://www.w3.org/2000/svg">
  <sodipodi:namedview
     id="namedview2517"
     pagecolor="#ffffff"
     bordercolor="#666666"
     borderopacity="1.0"
     inkscape:pageshadow="2"
     inkscape:pageopacity="0.0"
     inkscape:pagecheckerboard="0"
     inkscape:document-units="mm"
     showgrid="false"
     units="px"
     inkscape:zoom="1.4142136"
     inkscape:cx="213.19269"
     inkscape:cy="245.7196"
     inkscape:window-width="1920"
     inkscape:window-height="1001"
     inkscape:window-x="-9"
     inkscape:window-y="-9"
     inkscape:window-maximized="1"
     inkscape:current-layer="g17385" />
  <defs
     id="defs2512">
    <marker
       style="overflow:visible"
       id="Arrow1Sstart"
       refX="0.0"
       refY="0.0"
       orient="auto"
       inkscape:stockid="Arrow1Sstart"
       inkscape:isstock="true">
      <path
         transform="scale(0.2) translate(6,0)"
         style="fill-rule:evenodd;fill:context-stroke;stroke:context-stroke;stroke-width:1.0pt"
         d="M 0.0,0.0 L 5.0,-5.0 L -12.5,0.0 L 5.0,5.0 L 0.0,0.0 z "
         id="path24092" />
    </marker>
    <marker
       style="overflow:visible"
       id="Arrow1Mstart"
       refX="0.0"
       refY="0.0"
       orient="auto"
       inkscape:stockid="Arrow1Mstart"
       inkscape:isstock="true">
      <path
         transform="scale(0.4) translate(10,0)"
         style="fill-rule:evenodd;fill:context-stroke;stroke:context-stroke;stroke-width:1.0pt"
         d="M 0.0,0.0 L 5.0,-5.0 L -12.5,0.0 L 5.0,5.0 L 0.0,0.0 z "
         id="path24086" />
    </marker>
    <marker
       style="overflow:visible"
       id="Arrow1Lstart"
       refX="0.0"
       refY="0.0"
       orient="auto"
       inkscape:stockid="Arrow1Lstart"
       inkscape:isstock="true">
      <path
         transform="scale(0.8) translate(12.5,0)"
         style="fill-rule:evenodd;fill:context-stroke;stroke:context-stroke;stroke-width:1.0pt"
         d="M 0.0,0.0 L 5.0,-5.0 L -12.5,0.0 L 5.0,5.0 L 0.0,0.0 z "
         id="path24080" />
    </marker>
    <marker
       style="overflow:visible;"
       id="Arrow1Lend"
       refX="0.0"
       refY="0.0"
       orient="auto"
       inkscape:stockid="Arrow1Lend"
       inkscape:isstock="true">
      <path
         transform="scale(0.8) rotate(180) translate(12.5,0)"
         style="fill-rule:evenodd;fill:context-stroke;stroke:context-stroke;stroke-width:1.0pt;"
         d="M 0.0,0.0 L 5.0,-5.0 L -12.5,0.0 L 5.0,5.0 L 0.0,0.0 z "
         id="path24083" />
    </marker>
  </defs>
  <g
     inkscape:label="Informal Upright Style"
     inkscape:groupmode="layer"
     id="g17385"
     style="display:inline">
    <g
       id="g17299"
       transform="translate(157.36058,-8.4372489)"
       style="display:inline">
      <g
         id="g17297"
         transform="translate(-99.28418,15.207661)">
        <path
           style="display:inline;fill:#d25c4f;fill-opacity:1;stroke:#d25c4f;stroke-width:1;stroke-linecap:round;stroke-linejoin:round;stroke-miterlimit:4;stroke-dasharray:none;stroke-opacity:1"
           d="m 1.3438111,105.02403 c 0,0 1.67276,-4.3889 -5.29634,-12.902323 -5.77031,-7.049 -13.8088901,-10.89145 -10.0810001,-22.220767 2.98845,-9.082106 31.71641,-16.843433 36.92376,-22.50005 9.82115,-10.668487 4.67956,-12.619651 -1.58353,-22.120096 C 16.120271,17.413522 8.0705011,20.957555 7.7574611,9.5870616 14.803541,20.119696 25.572371,18.866153 27.251611,28.55162 c 3.25423,4.596313 8.98302,11.718683 5.98525,14.797826 -2.2954,2.357716 -9.08519,15.422411 -20.03503,17.643247 -9.5903099,1.945097 -16.1629199,12.6144 -16.1629199,12.6144 -0.83876,8.885304 16.1910099,9.784984 21.9744099,18.254694 5.64474,8.266633 8.35928,5.77528 10.95842,12.103913 1.20531,2.9348 -28.6279299,1.05833 -28.6279299,1.05833 z"
           id="path17293"
           sodipodi:nodetypes="cssssccsssssc" />
        <path
           id="path17295"
           style="display:inline;fill:#ae4942;fill-opacity:1;stroke:#ae4942;stroke-width:3.77953;stroke-linecap:round;stroke-linejoin:round;stroke-miterlimit:4;stroke-dasharray:none;stroke-opacity:1"
           d="m 616.93555,1.8886719 c 0.55432,20.1347921 7.52722,27.8974661 16.79883,33.5175781 -5.45695,-5.012127 -9.35289,-12.21383 -10.31641,-24.990234 -2.22889,-2.6069221 -4.40217,-5.4177306 -6.48242,-8.5273441 z m 41.48828,48.2539061 c 3.39981,2.902953 6.69017,6.465507 9.7207,11.0625 23.67153,35.907194 43.10565,43.281672 5.98633,83.603512 -19.68132,21.37934 -128.25976,50.713 -139.55469,85.03907 -14.08966,42.81948 16.29251,57.34248 38.10156,83.98437 26.33989,32.17671 20.01758,48.76367 20.01758,48.76367 0,0 2.85378,0.16826 6.91797,0.39063 0.26375,-6.79288 -1.99109,-21.72151 -20.65039,-44.51563 -21.80905,-26.64189 -52.19123,-41.16294 -38.10156,-83.98242 11.29493,-34.32607 119.87336,-63.66167 139.55469,-85.04101 37.11932,-40.32185 17.68519,-47.69633 -5.98633,-83.60352 -4.87199,-7.390285 -10.41195,-12.111719 -16.00586,-15.701172 z"
           transform="matrix(0.26458333,0,0,0.26458333,-155.47346,9.0871833)"
           sodipodi:nodetypes="cccccssssccssssc" />
      </g>
    </g>
    <g
       id="g12660-3-0"
       transform="matrix(1.4229856,0,0,0.65562122,-134.68783,69.746814)"
       style="display:inline">
      <path
         d="m 168.27731,59.952815 h -51.86892 c -6.1983,10.167055 -5.11175,20.330583 1.09009,30.497638 h 49.68875 c 5.49627,-10.167055 6.58636,-20.330583 1.09008,-30.497638"
         style="fill:#d49f28;fill-opacity:1;fill-rule:nonzero;stroke:none;stroke-width:0.0352778"
         id="path428-9-2" />
      <path
         d="m 161.81903,71.418093 c 1.00444,0 1.81871,1.767416 1.81871,3.947583 0,2.180166 -0.81427,3.947583 -1.81871,3.947583 -1.00443,0 -1.81871,-1.767417 -1.81871,-3.947583 0,-2.180167 0.81428,-3.947583 1.81871,-3.947583"
         style="fill:#e9b22a;fill-opacity:1;fill-rule:nonzero;stroke:none;stroke-width:0.0239452"
         id="path430-3-7" />
      <path
         d="m 143.20502,71.418093 c 1.00444,0 1.81871,1.767335 1.81871,3.947401 0,2.180066 -0.81427,3.947401 -1.81871,3.947401 -1.00443,0 -1.81871,-1.767335 -1.81871,-3.947401 0,-2.180066 0.81428,-3.947401 1.81871,-3.947401"
         style="fill:#e9b22a;fill-opacity:1;fill-rule:nonzero;stroke:none;stroke-width:0.0239446"
         id="path432-8-9" />
      <path
         d="m 126.63982,71.418093 c 1.00444,0 1.81871,1.767416 1.81871,3.947583 0,2.180166 -0.81427,3.947583 -1.81871,3.947583 -1.00443,0 -1.81871,-1.767417 -1.81871,-3.947583 0,-2.180167 0.81428,-3.947583 1.81871,-3.947583"
         style="fill:#e9b22a;fill-opacity:1;fill-rule:nonzero;stroke:none;stroke-width:0.0239452"
         id="path434-6-0" />
      <path
         d="m 121.35081,59.952815 h -4.94242 c -6.1983,10.167055 -5.11175,20.330583 1.09009,30.497638 h 4.93889 C 116.23553,80.283398 115.14898,70.11987 121.35081,59.952815"
         style="fill:#ac7a1d;fill-opacity:1;fill-rule:nonzero;stroke:none;stroke-width:0.0352778"
         id="path442-4-6" />
      <path
         d="m 119.75273,55.599537 h 44.65461 v 4.353278 h -44.65461 v -4.353278"
         style="fill:#e9b22a;fill-opacity:1;fill-rule:nonzero;stroke:none;stroke-width:0.0352778"
         id="path446-0-5" />
      <path
         d="m 119.75273,55.599537 h 4.94241 v 4.353278 h -4.94241 v -4.353278"
         style="fill:#c9941c;fill-opacity:1;fill-rule:nonzero;stroke:none;stroke-width:0.0352778"
         id="path448-8-3" />
    </g>
    <g
       id="g11655-5-4-9-4-2-6-8-0-9"
       transform="matrix(0.3768519,0,0,0.3768519,-31.596926,53.166814)"
       style="display:inline">
      <g
         id="g1337-33-1-4-8-5-2-4-2-4"
         transform="matrix(1.7323514,0,0,1.7323514,74.811857,17.735385)">
        <path
           class="cls-2"
           d="m 33.56,14 a 16,16 0 1 0 16,16 16.06,16.06 0 0 0 -16,-16 z"
           id="path14-5-1-7-76-6-4-5-5-2"
           style="fill:#33cc33;fill-opacity:1" />
        <path
           id="path14-8-5-0-1-1-3-1-4-7-1"
           style="fill:#369936;fill-opacity:1;stroke-width:1"
           class="cls-2"
           d="M 33.56,14 A 16,16 0 1 0 34.987246,45.935791 16,16 0 0 1 35.966739,14.192871 16.06,16.06 0 0 0 33.56,14 Z" />
      </g>
      <g
         id="g1337-3-2-2-1-6-3-9-7-8-2"
         transform="matrix(1.7323514,0,0,1.7323514,114.33064,1.9904048)">
        <path
           class="cls-2"
           d="m 33.56,14 a 16,16 0 1 0 16,16 16.06,16.06 0 0 0 -16,-16 z"
           id="path14-7-2-9-4-0-7-1-4-0-1"
           style="fill:#33cc33;fill-opacity:1" />
        <path
           id="path14-8-2-9-2-4-7-7-9-5-6-5"
           style="fill:#369936;fill-opacity:1;stroke-width:1"
           class="cls-2"
           d="M 33.56,14 A 16,16 0 1 0 34.987246,45.935791 16,16 0 0 1 35.966739,14.192871 16.06,16.06 0 0 0 33.56,14 Z" />
      </g>
      <g
         id="g1337-1-7-4-7-0-0-6-4-5-4"
         transform="matrix(1.7323514,0,0,1.7323514,160.00723,17.731538)">
        <path
           class="cls-2"
           d="m 33.56,14 a 16,16 0 1 0 16,16 16.06,16.06 0 0 0 -16,-16 z"
           id="path14-1-9-7-1-8-6-2-0-6-5"
           style="fill:#33cc33;fill-opacity:1" />
        <path
           id="path14-8-6-5-6-0-3-7-1-8-3-8"
           style="fill:#369936;fill-opacity:1;stroke-width:1"
           class="cls-2"
           d="M 33.56,14 A 16,16 0 1 0 34.987246,45.935791 16,16 0 0 1 35.966739,14.192871 16.06,16.06 0 0 0 33.56,14 Z" />
      </g>
    </g>
    <g
       id="g11655-5-4-9-4-2-6-8-0-9-0"
       transform="matrix(0.3768519,0,0,0.3768519,32.759958,43.924364)"
       style="display:inline">
      <g
         id="g1337-33-1-4-8-5-2-4-2-4-8"
         transform="matrix(1.7323514,0,0,1.7323514,74.811857,17.735385)">
        <path
           class="cls-2"
           d="m 33.56,14 a 16,16 0 1 0 16,16 16.06,16.06 0 0 0 -16,-16 z"
           id="path14-5-1-7-76-6-4-5-5-2-2"
           style="fill:#33cc33;fill-opacity:1" />
        <path
           id="path14-8-5-0-1-1-3-1-4-7-1-5"
           style="fill:#369936;fill-opacity:1;stroke-width:1"
           class="cls-2"
           d="M 33.56,14 A 16,16 0 1 0 34.987246,45.935791 16,16 0 0 1 35.966739,14.192871 16.06,16.06 0 0 0 33.56,14 Z" />
      </g>
      <g
         id="g1337-3-2-2-1-6-3-9-7-8-2-8"
         transform="matrix(1.7323514,0,0,1.7323514,114.33064,1.9904048)">
        <path
           class="cls-2"
           d="m 33.56,14 a 16,16 0 1 0 16,16 16.06,16.06 0 0 0 -16,-16 z"
           id="path14-7-2-9-4-0-7-1-4-0-1-5"
           style="fill:#33cc33;fill-opacity:1" />
        <path
           id="path14-8-2-9-2-4-7-7-9-5-6-5-3"
           style="fill:#369936;fill-opacity:1;stroke-width:1"
           class="cls-2"
           d="M 33.56,14 A 16,16 0 1 0 34.987246,45.935791 16,16 0 0 1 35.966739,14.192871 16.06,16.06 0 0 0 33.56,14 Z" />
      </g>
      <g
         id="g1337-1-7-4-7-0-0-6-4-5-4-3"
         transform="matrix(1.7323514,0,0,1.7323514,160.00723,17.731538)">
        <path
           class="cls-2"
           d="m 33.56,14 a 16,16 0 1 0 16,16 16.06,16.06 0 0 0 -16,-16 z"
           id="path14-1-9-7-1-8-6-2-0-6-5-6"
           style="fill:#33cc33;fill-opacity:1" />
        <path
           id="path14-8-6-5-6-0-3-7-1-8-3-8-9"
           style="fill:#369936;fill-opacity:1;stroke-width:1"
           class="cls-2"
           d="M 33.56,14 A 16,16 0 1 0 34.987246,45.935791 16,16 0 0 1 35.966739,14.192871 16.06,16.06 0 0 0 33.56,14 Z" />
      </g>
    </g>
    <g
       id="g11655-5-4-9-4-2-6-8-0-9-0-1"
       transform="matrix(0.28441652,0,0,0.28441652,17.106786,-1.803997)"
       style="display:inline">
      <g
         id="g1337-33-1-4-8-5-2-4-2-4-8-5"
         transform="matrix(1.7323514,0,0,1.7323514,74.811857,17.735385)">
        <path
           class="cls-2"
           d="m 33.56,14 a 16,16 0 1 0 16,16 16.06,16.06 0 0 0 -16,-16 z"
           id="path14-5-1-7-76-6-4-5-5-2-2-9"
           style="fill:#33cc33;fill-opacity:1" />
        <path
           id="path14-8-5-0-1-1-3-1-4-7-1-5-8"
           style="fill:#369936;fill-opacity:1;stroke-width:1"
           class="cls-2"
           d="M 33.56,14 A 16,16 0 1 0 34.987246,45.935791 16,16 0 0 1 35.966739,14.192871 16.06,16.06 0 0 0 33.56,14 Z" />
      </g>
      <g
         id="g1337-3-2-2-1-6-3-9-7-8-2-8-0"
         transform="matrix(1.7323514,0,0,1.7323514,114.33064,1.9904048)">
        <path
           class="cls-2"
           d="m 33.56,14 a 16,16 0 1 0 16,16 16.06,16.06 0 0 0 -16,-16 z"
           id="path14-7-2-9-4-0-7-1-4-0-1-5-5"
           style="fill:#33cc33;fill-opacity:1" />
        <path
           id="path14-8-2-9-2-4-7-7-9-5-6-5-3-7"
           style="fill:#369936;fill-opacity:1;stroke-width:1"
           class="cls-2"
           d="M 33.56,14 A 16,16 0 1 0 34.987246,45.935791 16,16 0 0 1 35.966739,14.192871 16.06,16.06 0 0 0 33.56,14 Z" />
      </g>
      <g
         id="g1337-1-7-4-7-0-0-6-4-5-4-3-0"
         transform="matrix(1.7323514,0,0,1.7323514,160.00723,17.731538)">
        <path
           class="cls-2"
           d="m 33.56,14 a 16,16 0 1 0 16,16 16.06,16.06 0 0 0 -16,-16 z"
           id="path14-1-9-7-1-8-6-2-0-6-5-6-7"
           style="fill:#33cc33;fill-opacity:1" />
        <path
           id="path14-8-6-5-6-0-3-7-1-8-3-8-9-8"
           style="fill:#369936;fill-opacity:1;stroke-width:1"
           class="cls-2"
           d="M 33.56,14 A 16,16 0 1 0 34.987246,45.935791 16,16 0 0 1 35.966739,14.192871 16.06,16.06 0 0 0 33.56,14 Z" />
      </g>
    </g>
    <g
       id="g11655-5-4-9-4-2-6-8-0-9-0-1-3"
       transform="matrix(0.31996859,0,0,0.31996859,39.677774,16.78667)"
       style="display:inline">
      <g
         id="g1337-33-1-4-8-5-2-4-2-4-8-5-6"
         transform="matrix(1.7323514,0,0,1.7323514,74.811857,17.735385)">
        <path
           class="cls-2"
           d="m 33.56,14 a 16,16 0 1 0 16,16 16.06,16.06 0 0 0 -16,-16 z"
           id="path14-5-1-7-76-6-4-5-5-2-2-9-9"
           style="fill:#33cc33;fill-opacity:1" />
        <path
           id="path14-8-5-0-1-1-3-1-4-7-1-5-8-2"
           style="fill:#369936;fill-opacity:1;stroke-width:1"
           class="cls-2"
           d="M 33.56,14 A 16,16 0 1 0 34.987246,45.935791 16,16 0 0 1 35.966739,14.192871 16.06,16.06 0 0 0 33.56,14 Z" />
      </g>
      <g
         id="g1337-3-2-2-1-6-3-9-7-8-2-8-0-8"
         transform="matrix(1.7323514,0,0,1.7323514,114.33064,1.9904048)">
        <path
           class="cls-2"
           d="m 33.56,14 a 16,16 0 1 0 16,16 16.06,16.06 0 0 0 -16,-16 z"
           id="path14-7-2-9-4-0-7-1-4-0-1-5-5-7"
           style="fill:#33cc33;fill-opacity:1" />
        <path
           id="path14-8-2-9-2-4-7-7-9-5-6-5-3-7-1"
           style="fill:#369936;fill-opacity:1;stroke-width:1"
           class="cls-2"
           d="M 33.56,14 A 16,16 0 1 0 34.987246,45.935791 16,16 0 0 1 35.966739,14.192871 16.06,16.06 0 0 0 33.56,14 Z" />
      </g>
      <g
         id="g1337-1-7-4-7-0-0-6-4-5-4-3-0-4"
         transform="matrix(1.7323514,0,0,1.7323514,160.00723,17.731538)">
        <path
           class="cls-2"
           d="m 33.56,14 a 16,16 0 1 0 16,16 16.06,16.06 0 0 0 -16,-16 z"
           id="path14-1-9-7-1-8-6-2-0-6-5-6-7-6"
           style="fill:#33cc33;fill-opacity:1" />
        <path
           id="path14-8-6-5-6-0-3-7-1-8-3-8-9-8-3"
           style="fill:#369936;fill-opacity:1;stroke-width:1"
           class="cls-2"
           d="M 33.56,14 A 16,16 0 1 0 34.987246,45.935791 16,16 0 0 1 35.966739,14.192871 16.06,16.06 0 0 0 33.56,14 Z" />
      </g>
    </g>
    <g
       id="g11655-5-4-9-4-2-6-8-0-9-0-1-3-5"
       transform="matrix(0.31996859,0,0,0.31996859,0.88297953,31.168188)"
       style="display:inline">
      <g
         id="g1337-33-1-4-8-5-2-4-2-4-8-5-6-1"
         transform="matrix(1.7323514,0,0,1.7323514,74.811857,17.735385)">
        <path
           class="cls-2"
           d="m 33.56,14 a 16,16 0 1 0 16,16 16.06,16.06 0 0 0 -16,-16 z"
           id="path14-5-1-7-76-6-4-5-5-2-2-9-9-3"
           style="fill:#33cc33;fill-opacity:1" />
        <path
           id="path14-8-5-0-1-1-3-1-4-7-1-5-8-2-3"
           style="fill:#369936;fill-opacity:1;stroke-width:1"
           class="cls-2"
           d="M 33.56,14 A 16,16 0 1 0 34.987246,45.935791 16,16 0 0 1 35.966739,14.192871 16.06,16.06 0 0 0 33.56,14 Z" />
      </g>
      <g
         id="g1337-3-2-2-1-6-3-9-7-8-2-8-0-8-8"
         transform="matrix(1.7323514,0,0,1.7323514,114.33064,1.9904048)">
        <path
           class="cls-2"
           d="m 33.56,14 a 16,16 0 1 0 16,16 16.06,16.06 0 0 0 -16,-16 z"
           id="path14-7-2-9-4-0-7-1-4-0-1-5-5-7-8"
           style="fill:#33cc33;fill-opacity:1" />
        <path
           id="path14-8-2-9-2-4-7-7-9-5-6-5-3-7-1-2"
           style="fill:#369936;fill-opacity:1;stroke-width:1"
           class="cls-2"
           d="M 33.56,14 A 16,16 0 1 0 34.987246,45.935791 16,16 0 0 1 35.966739,14.192871 16.06,16.06 0 0 0 33.56,14 Z" />
      </g>
      <g
         id="g1337-1-7-4-7-0-0-6-4-5-4-3-0-4-9"
         transform="matrix(1.7323514,0,0,1.7323514,160.00723,17.731538)">
        <path
           class="cls-2"
           d="m 33.56,14 a 16,16 0 1 0 16,16 16.06,16.06 0 0 0 -16,-16 z"
           id="path14-1-9-7-1-8-6-2-0-6-5-6-7-6-0"
           style="fill:#33cc33;fill-opacity:1" />
        <path
           id="path14-8-6-5-6-0-3-7-1-8-3-8-9-8-3-9"
           style="fill:#369936;fill-opacity:1;stroke-width:1"
           class="cls-2"
           d="M 33.56,14 A 16,16 0 1 0 34.987246,45.935791 16,16 0 0 1 35.966739,14.192871 16.06,16.06 0 0 0 33.56,14 Z" />
      </g>
    </g>
  </g>
</svg>
