<?xml version="1.0" encoding="UTF-8" standalone="no"?>
<!-- Created with Inkscape (http://www.inkscape.org/) -->

<svg
   width="500"
   height="500"
   viewBox="0 0 132.29166 132.29167"
   version="1.1"
   id="svg2515"
   inkscape:version="1.1.2 (b8e25be833, 2022-02-05)"
   sodipodi:docname="bonsai01s06normal.svg"
   inkscape:export-filename="C:\Users\Lenovo\Desktop\Coding\Media files\Bonsais\bonsai01.png"
   inkscape:export-xdpi="96"
   inkscape:export-ydpi="96"
   xmlns:inkscape="http://www.inkscape.org/namespaces/inkscape"
   xmlns:sodipodi="http://sodipodi.sourceforge.net/DTD/sodipodi-0.dtd"
   xmlns="http://www.w3.org/2000/svg"
   xmlns:svg="http://www.w3.org/2000/svg">
  <sodipodi:namedview
     id="namedview2517"
     pagecolor="#ffffff"
     bordercolor="#666666"
     borderopacity="1.0"
     inkscape:pageshadow="2"
     inkscape:pageopacity="0.0"
     inkscape:pagecheckerboard="0"
     inkscape:document-units="mm"
     showgrid="false"
     units="px"
     inkscape:zoom="1.4142136"
     inkscape:cx="213.19269"
     inkscape:cy="245.7196"
     inkscape:window-width="1920"
     inkscape:window-height="1001"
     inkscape:window-x="-9"
     inkscape:window-y="-9"
     inkscape:window-maximized="1"
     inkscape:current-layer="g17992" />
  <defs
     id="defs2512">
    <marker
       style="overflow:visible"
       id="Arrow1Sstart"
       refX="0.0"
       refY="0.0"
       orient="auto"
       inkscape:stockid="Arrow1Sstart"
       inkscape:isstock="true">
      <path
         transform="scale(0.2) translate(6,0)"
         style="fill-rule:evenodd;fill:context-stroke;stroke:context-stroke;stroke-width:1.0pt"
         d="M 0.0,0.0 L 5.0,-5.0 L -12.5,0.0 L 5.0,5.0 L 0.0,0.0 z "
         id="path24092" />
    </marker>
    <marker
       style="overflow:visible"
       id="Arrow1Mstart"
       refX="0.0"
       refY="0.0"
       orient="auto"
       inkscape:stockid="Arrow1Mstart"
       inkscape:isstock="true">
      <path
         transform="scale(0.4) translate(10,0)"
         style="fill-rule:evenodd;fill:context-stroke;stroke:context-stroke;stroke-width:1.0pt"
         d="M 0.0,0.0 L 5.0,-5.0 L -12.5,0.0 L 5.0,5.0 L 0.0,0.0 z "
         id="path24086" />
    </marker>
    <marker
       style="overflow:visible"
       id="Arrow1Lstart"
       refX="0.0"
       refY="0.0"
       orient="auto"
       inkscape:stockid="Arrow1Lstart"
       inkscape:isstock="true">
      <path
         transform="scale(0.8) translate(12.5,0)"
         style="fill-rule:evenodd;fill:context-stroke;stroke:context-stroke;stroke-width:1.0pt"
         d="M 0.0,0.0 L 5.0,-5.0 L -12.5,0.0 L 5.0,5.0 L 0.0,0.0 z "
         id="path24080" />
    </marker>
    <marker
       style="overflow:visible;"
       id="Arrow1Lend"
       refX="0.0"
       refY="0.0"
       orient="auto"
       inkscape:stockid="Arrow1Lend"
       inkscape:isstock="true">
      <path
         transform="scale(0.8) rotate(180) translate(12.5,0)"
         style="fill-rule:evenodd;fill:context-stroke;stroke:context-stroke;stroke-width:1.0pt;"
         d="M 0.0,0.0 L 5.0,-5.0 L -12.5,0.0 L 5.0,5.0 L 0.0,0.0 z "
         id="path24083" />
    </marker>
  </defs>
  <g
     inkscape:label="Full Cascade Style"
     inkscape:groupmode="layer"
     id="g17992"
     style="display:inline">
    <g
       id="g17906"
       transform="translate(124.68868,23.38778)">
      <path
         style="fill:#d25c4f;fill-opacity:1;stroke:#d25c4f;stroke-width:1;stroke-linecap:round;stroke-linejoin:round;stroke-miterlimit:4;stroke-dasharray:none;stroke-opacity:1"
         d="m -99.500015,30.838997 c 0,0 3.638799,-12.735798 11.176313,-18.453912 7.537513,-5.7181136 12.496916,-8.4784226 23.142885,-10.0872826 10.645968,-1.60885902 11.594881,-2.51410402 19.483052,-1.089031 7.888169,1.425072 21.667403,2.638059 27.063051,17.1643086 6.81601,18.350201 6.7258,20.263344 4.38657,25.721542 -2.33923,5.458201 -12.829945,17.760783 -15.334937,20.793141 -4.938372,5.978028 -5.458199,8.317257 -3.118973,13.255629 0.330604,2.90298 6.162124,16.3246 -1.302394,6.77885 -6.495032,-13.276708 -1.296749,-18.994823 1.822223,-22.893535 3.118972,-3.898715 15.179241,-16.422587 15.075031,-22.61254 -0.10422,-6.189957 -5.4582,-19.233654 -7.277605,-20.013397 -1.819399,-0.779743 -7.017683,-14.5551986 -26.771164,-12.7357996 -19.753485,1.819402 -19.233657,3.3788866 -25.211683,9.6168266 -5.152861,5.376899 -9.876742,12.21597 -7.277599,14.035371 2.599142,1.8194 -15.85477,0.519829 -15.85477,0.519829 z"
         id="path17902"
         sodipodi:nodetypes="cssssssccssssssc" />
      <path
         id="path17904"
         style="display:inline;fill:#ae4942;fill-opacity:1;stroke:#ae4942;stroke-width:3.77953;stroke-linecap:round;stroke-linejoin:round;stroke-miterlimit:4;stroke-dasharray:none;stroke-opacity:1"
         d="m -198.50781,1.9003906 c -11.86585,0.2218352 -22.69775,2.9847019 -47.84571,6.7851563 -40.23673,6.0807311 -58.98051,16.5132281 -87.46875,38.1250001 -28.48824,21.611769 -42.24023,69.746093 -42.24023,69.746093 0,0 4.05066,0.25117 7.5293,0.46289 4.26508,-12.64023 17.66416,-47.519947 40.73437,-65.021483 28.48824,-21.611765 47.23397,-32.044269 87.47071,-38.125 40.23672,-6.0807282 43.82315,-9.5013383 73.63671,-4.1152345 20.11821,3.6345445 50.36393,6.9268215 74.181644,25.5390625 C -117.04264,12.062664 -150.85821,8.5173186 -172.7168,4.5683594 -183.89688,2.5485708 -191.3883,1.7672895 -198.50781,1.9003906 Z m 85.4707,47.4980474 c 12.08952,11.359811 17.783837,22.610761 20.875001,23.935546 6.876491,2.947061 27.111957,52.245516 27.505859,75.640626 0.393865,23.3951 -45.18832,70.72954 -56.97656,85.46484 -11.78824,14.73529 -31.43683,36.34766 -6.88867,86.52735 6.32744,8.09164 10.12193,11.80717 12.19531,12.59375 -1.72535,-1.89721 -3.75185,-4.31148 -6.17188,-7.40625 -24.54815,-50.17969 -4.89957,-71.79206 6.88867,-86.52735 11.78825,-14.7353 57.370432,-62.06974 56.976568,-85.46484 C -59.026715,130.767 -79.262181,81.468545 -86.138672,78.521484 -89.703333,76.993771 -96.724636,62.271435 -113.03711,49.398438 Z"
         transform="scale(0.26458333)" />
    </g>
    <g
       id="g12660-3-0-7-5-2-3"
       transform="matrix(1.4229856,0,0,0.65562122,-159.28615,15.138365)"
       style="display:inline">
      <path
         d="m 168.27731,59.952815 h -51.86892 c -6.1983,10.167055 -5.11175,20.330583 1.09009,30.497638 h 49.68875 c 5.49627,-10.167055 6.58636,-20.330583 1.09008,-30.497638"
         style="fill:#d49f28;fill-opacity:1;fill-rule:nonzero;stroke:none;stroke-width:0.0352778"
         id="path428-9-2-2-3-0-0" />
      <path
         d="m 161.81903,71.418093 c 1.00444,0 1.81871,1.767416 1.81871,3.947583 0,2.180166 -0.81427,3.947583 -1.81871,3.947583 -1.00443,0 -1.81871,-1.767417 -1.81871,-3.947583 0,-2.180167 0.81428,-3.947583 1.81871,-3.947583"
         style="fill:#e9b22a;fill-opacity:1;fill-rule:nonzero;stroke:none;stroke-width:0.0239452"
         id="path430-3-7-4-0-2-3" />
      <path
         d="m 143.20502,71.418093 c 1.00444,0 1.81871,1.767335 1.81871,3.947401 0,2.180066 -0.81427,3.947401 -1.81871,3.947401 -1.00443,0 -1.81871,-1.767335 -1.81871,-3.947401 0,-2.180066 0.81428,-3.947401 1.81871,-3.947401"
         style="fill:#e9b22a;fill-opacity:1;fill-rule:nonzero;stroke:none;stroke-width:0.0239446"
         id="path432-8-9-2-5-5-2" />
      <path
         d="m 126.63982,71.418093 c 1.00444,0 1.81871,1.767416 1.81871,3.947583 0,2.180166 -0.81427,3.947583 -1.81871,3.947583 -1.00443,0 -1.81871,-1.767417 -1.81871,-3.947583 0,-2.180167 0.81428,-3.947583 1.81871,-3.947583"
         style="fill:#e9b22a;fill-opacity:1;fill-rule:nonzero;stroke:none;stroke-width:0.0239452"
         id="path434-6-0-7-6-1-7" />
      <path
         d="m 121.35081,59.952815 h -4.94242 c -6.1983,10.167055 -5.11175,20.330583 1.09009,30.497638 h 4.93889 C 116.23553,80.283398 115.14898,70.11987 121.35081,59.952815"
         style="fill:#ac7a1d;fill-opacity:1;fill-rule:nonzero;stroke:none;stroke-width:0.0352778"
         id="path442-4-6-2-2-7-3" />
      <path
         d="m 119.75273,55.599537 h 44.65461 v 4.353278 h -44.65461 v -4.353278"
         style="fill:#e9b22a;fill-opacity:1;fill-rule:nonzero;stroke:none;stroke-width:0.0352778"
         id="path446-0-5-5-9-0-8" />
      <path
         d="m 119.75273,55.599537 h 4.94241 v 4.353278 h -4.94241 v -4.353278"
         style="fill:#c9941c;fill-opacity:1;fill-rule:nonzero;stroke:none;stroke-width:0.0352778"
         id="path448-8-3-2-8-4-7" />
    </g>
    <g
       id="g11655-5-4-9-4-2-6-8-0-9-5-4-7-2-8-7-27-6"
       transform="matrix(0.28441652,0,0,0.28441652,43.585696,97.462892)"
       style="display:inline">
      <g
         id="g1337-33-1-4-8-5-2-4-2-4-7-7-5-2-4-6-5-0"
         transform="matrix(1.7323514,0,0,1.7323514,74.811857,17.735385)">
        <path
           class="cls-2"
           d="m 33.56,14 a 16,16 0 1 0 16,16 16.06,16.06 0 0 0 -16,-16 z"
           id="path14-5-1-7-76-6-4-5-5-2-5-4-3-8-1-5-3-5"
           style="fill:#33cc33;fill-opacity:1" />
        <path
           id="path14-8-5-0-1-1-3-1-4-7-1-9-9-5-4-4-9-1-4"
           style="fill:#369936;fill-opacity:1;stroke-width:1"
           class="cls-2"
           d="M 33.56,14 A 16,16 0 1 0 34.987246,45.935791 16,16 0 0 1 35.966739,14.192871 16.06,16.06 0 0 0 33.56,14 Z" />
      </g>
      <g
         id="g1337-3-2-2-1-6-3-9-7-8-2-4-4-1-3-8-7-7-5"
         transform="matrix(1.7323514,0,0,1.7323514,114.33064,1.9904048)">
        <path
           class="cls-2"
           d="m 33.56,14 a 16,16 0 1 0 16,16 16.06,16.06 0 0 0 -16,-16 z"
           id="path14-7-2-9-4-0-7-1-4-0-1-9-4-7-3-9-6-6-3"
           style="fill:#33cc33;fill-opacity:1" />
        <path
           id="path14-8-2-9-2-4-7-7-9-5-6-5-0-6-7-8-5-6-6-8"
           style="fill:#369936;fill-opacity:1;stroke-width:1"
           class="cls-2"
           d="M 33.56,14 A 16,16 0 1 0 34.987246,45.935791 16,16 0 0 1 35.966739,14.192871 16.06,16.06 0 0 0 33.56,14 Z" />
      </g>
      <g
         id="g1337-1-7-4-7-0-0-6-4-5-4-4-2-9-7-4-5-22-6"
         transform="matrix(1.7323514,0,0,1.7323514,160.00723,17.731538)">
        <path
           class="cls-2"
           d="m 33.56,14 a 16,16 0 1 0 16,16 16.06,16.06 0 0 0 -16,-16 z"
           id="path14-1-9-7-1-8-6-2-0-6-5-7-3-2-2-25-5-4-9"
           style="fill:#33cc33;fill-opacity:1" />
        <path
           id="path14-8-6-5-6-0-3-7-1-8-3-8-91-4-6-8-5-3-3-4"
           style="fill:#369936;fill-opacity:1;stroke-width:1"
           class="cls-2"
           d="M 33.56,14 A 16,16 0 1 0 34.987246,45.935791 16,16 0 0 1 35.966739,14.192871 16.06,16.06 0 0 0 33.56,14 Z" />
      </g>
    </g>
    <g
       id="g11655-5-4-9-4-2-6-8-0-9-5-4-7-2-8-7-27-6-4"
       transform="matrix(0.31996859,0,0,0.31996859,50.42356,69.572093)"
       style="display:inline">
      <g
         id="g1337-33-1-4-8-5-2-4-2-4-7-7-5-2-4-6-5-0-9"
         transform="matrix(1.7323514,0,0,1.7323514,74.811857,17.735385)">
        <path
           class="cls-2"
           d="m 33.56,14 a 16,16 0 1 0 16,16 16.06,16.06 0 0 0 -16,-16 z"
           id="path14-5-1-7-76-6-4-5-5-2-5-4-3-8-1-5-3-5-4"
           style="fill:#33cc33;fill-opacity:1" />
        <path
           id="path14-8-5-0-1-1-3-1-4-7-1-9-9-5-4-4-9-1-4-7"
           style="fill:#369936;fill-opacity:1;stroke-width:1"
           class="cls-2"
           d="M 33.56,14 A 16,16 0 1 0 34.987246,45.935791 16,16 0 0 1 35.966739,14.192871 16.06,16.06 0 0 0 33.56,14 Z" />
      </g>
      <g
         id="g1337-3-2-2-1-6-3-9-7-8-2-4-4-1-3-8-7-7-5-1"
         transform="matrix(1.7323514,0,0,1.7323514,114.33064,1.9904048)">
        <path
           class="cls-2"
           d="m 33.56,14 a 16,16 0 1 0 16,16 16.06,16.06 0 0 0 -16,-16 z"
           id="path14-7-2-9-4-0-7-1-4-0-1-9-4-7-3-9-6-6-3-3"
           style="fill:#33cc33;fill-opacity:1" />
        <path
           id="path14-8-2-9-2-4-7-7-9-5-6-5-0-6-7-8-5-6-6-8-3"
           style="fill:#369936;fill-opacity:1;stroke-width:1"
           class="cls-2"
           d="M 33.56,14 A 16,16 0 1 0 34.987246,45.935791 16,16 0 0 1 35.966739,14.192871 16.06,16.06 0 0 0 33.56,14 Z" />
      </g>
      <g
         id="g1337-1-7-4-7-0-0-6-4-5-4-4-2-9-7-4-5-22-6-6"
         transform="matrix(1.7323514,0,0,1.7323514,160.00723,17.731538)">
        <path
           class="cls-2"
           d="m 33.56,14 a 16,16 0 1 0 16,16 16.06,16.06 0 0 0 -16,-16 z"
           id="path14-1-9-7-1-8-6-2-0-6-5-7-3-2-2-25-5-4-9-4"
           style="fill:#33cc33;fill-opacity:1" />
        <path
           id="path14-8-6-5-6-0-3-7-1-8-3-8-91-4-6-8-5-3-3-4-3"
           style="fill:#369936;fill-opacity:1;stroke-width:1"
           class="cls-2"
           d="M 33.56,14 A 16,16 0 1 0 34.987246,45.935791 16,16 0 0 1 35.966739,14.192871 16.06,16.06 0 0 0 33.56,14 Z" />
      </g>
    </g>
    <g
       id="g11655-5-4-9-4-2-6-8-0-9-5-4-7-2-8-7-27-6-4-4"
       transform="matrix(0.31996859,0,0,0.31996859,33.291831,43.093815)"
       style="display:inline">
      <g
         id="g1337-33-1-4-8-5-2-4-2-4-7-7-5-2-4-6-5-0-9-6"
         transform="matrix(1.7323514,0,0,1.7323514,74.811857,17.735385)">
        <path
           class="cls-2"
           d="m 33.56,14 a 16,16 0 1 0 16,16 16.06,16.06 0 0 0 -16,-16 z"
           id="path14-5-1-7-76-6-4-5-5-2-5-4-3-8-1-5-3-5-4-6"
           style="fill:#33cc33;fill-opacity:1" />
        <path
           id="path14-8-5-0-1-1-3-1-4-7-1-9-9-5-4-4-9-1-4-7-7"
           style="fill:#369936;fill-opacity:1;stroke-width:1"
           class="cls-2"
           d="M 33.56,14 A 16,16 0 1 0 34.987246,45.935791 16,16 0 0 1 35.966739,14.192871 16.06,16.06 0 0 0 33.56,14 Z" />
      </g>
      <g
         id="g1337-3-2-2-1-6-3-9-7-8-2-4-4-1-3-8-7-7-5-1-5"
         transform="matrix(1.7323514,0,0,1.7323514,114.33064,1.9904048)">
        <path
           class="cls-2"
           d="m 33.56,14 a 16,16 0 1 0 16,16 16.06,16.06 0 0 0 -16,-16 z"
           id="path14-7-2-9-4-0-7-1-4-0-1-9-4-7-3-9-6-6-3-3-6"
           style="fill:#33cc33;fill-opacity:1" />
        <path
           id="path14-8-2-9-2-4-7-7-9-5-6-5-0-6-7-8-5-6-6-8-3-4"
           style="fill:#369936;fill-opacity:1;stroke-width:1"
           class="cls-2"
           d="M 33.56,14 A 16,16 0 1 0 34.987246,45.935791 16,16 0 0 1 35.966739,14.192871 16.06,16.06 0 0 0 33.56,14 Z" />
      </g>
      <g
         id="g1337-1-7-4-7-0-0-6-4-5-4-4-2-9-7-4-5-22-6-6-4"
         transform="matrix(1.7323514,0,0,1.7323514,160.00723,17.731538)">
        <path
           class="cls-2"
           d="m 33.56,14 a 16,16 0 1 0 16,16 16.06,16.06 0 0 0 -16,-16 z"
           id="path14-1-9-7-1-8-6-2-0-6-5-7-3-2-2-25-5-4-9-4-3"
           style="fill:#33cc33;fill-opacity:1" />
        <path
           id="path14-8-6-5-6-0-3-7-1-8-3-8-91-4-6-8-5-3-3-4-3-3"
           style="fill:#369936;fill-opacity:1;stroke-width:1"
           class="cls-2"
           d="M 33.56,14 A 16,16 0 1 0 34.987246,45.935791 16,16 0 0 1 35.966739,14.192871 16.06,16.06 0 0 0 33.56,14 Z" />
      </g>
    </g>
    <g
       id="g11655-5-4-9-4-2-6-8-0-9-5-4-7-2-8-7-27-6-4-4-5"
       transform="matrix(0.3768519,0,0,0.3768519,38.095973,13.826494)"
       style="display:inline">
      <g
         id="g1337-33-1-4-8-5-2-4-2-4-7-7-5-2-4-6-5-0-9-6-1"
         transform="matrix(1.7323514,0,0,1.7323514,74.811857,17.735385)">
        <path
           class="cls-2"
           d="m 33.56,14 a 16,16 0 1 0 16,16 16.06,16.06 0 0 0 -16,-16 z"
           id="path14-5-1-7-76-6-4-5-5-2-5-4-3-8-1-5-3-5-4-6-2"
           style="fill:#33cc33;fill-opacity:1" />
        <path
           id="path14-8-5-0-1-1-3-1-4-7-1-9-9-5-4-4-9-1-4-7-7-4"
           style="fill:#369936;fill-opacity:1;stroke-width:1"
           class="cls-2"
           d="M 33.56,14 A 16,16 0 1 0 34.987246,45.935791 16,16 0 0 1 35.966739,14.192871 16.06,16.06 0 0 0 33.56,14 Z" />
      </g>
      <g
         id="g1337-3-2-2-1-6-3-9-7-8-2-4-4-1-3-8-7-7-5-1-5-7"
         transform="matrix(1.7323514,0,0,1.7323514,114.33064,1.9904048)">
        <path
           class="cls-2"
           d="m 33.56,14 a 16,16 0 1 0 16,16 16.06,16.06 0 0 0 -16,-16 z"
           id="path14-7-2-9-4-0-7-1-4-0-1-9-4-7-3-9-6-6-3-3-6-2"
           style="fill:#33cc33;fill-opacity:1" />
        <path
           id="path14-8-2-9-2-4-7-7-9-5-6-5-0-6-7-8-5-6-6-8-3-4-9"
           style="fill:#369936;fill-opacity:1;stroke-width:1"
           class="cls-2"
           d="M 33.56,14 A 16,16 0 1 0 34.987246,45.935791 16,16 0 0 1 35.966739,14.192871 16.06,16.06 0 0 0 33.56,14 Z" />
      </g>
      <g
         id="g1337-1-7-4-7-0-0-6-4-5-4-4-2-9-7-4-5-22-6-6-4-9"
         transform="matrix(1.7323514,0,0,1.7323514,160.00723,17.731538)">
        <path
           class="cls-2"
           d="m 33.56,14 a 16,16 0 1 0 16,16 16.06,16.06 0 0 0 -16,-16 z"
           id="path14-1-9-7-1-8-6-2-0-6-5-7-3-2-2-25-5-4-9-4-3-8"
           style="fill:#33cc33;fill-opacity:1" />
        <path
           id="path14-8-6-5-6-0-3-7-1-8-3-8-91-4-6-8-5-3-3-4-3-3-8"
           style="fill:#369936;fill-opacity:1;stroke-width:1"
           class="cls-2"
           d="M 33.56,14 A 16,16 0 1 0 34.987246,45.935791 16,16 0 0 1 35.966739,14.192871 16.06,16.06 0 0 0 33.56,14 Z" />
      </g>
    </g>
    <g
       id="g11655-5-4-9-4-2-6-8-0-9-5-4-7-2-8-7-27-6-4-4-5-2"
       transform="matrix(0.3768519,0,0,0.3768519,-3.5702833,-7.9449201)"
       style="display:inline">
      <g
         id="g1337-33-1-4-8-5-2-4-2-4-7-7-5-2-4-6-5-0-9-6-1-4"
         transform="matrix(1.7323514,0,0,1.7323514,74.811857,17.735385)">
        <path
           class="cls-2"
           d="m 33.56,14 a 16,16 0 1 0 16,16 16.06,16.06 0 0 0 -16,-16 z"
           id="path14-5-1-7-76-6-4-5-5-2-5-4-3-8-1-5-3-5-4-6-2-9"
           style="fill:#33cc33;fill-opacity:1" />
        <path
           id="path14-8-5-0-1-1-3-1-4-7-1-9-9-5-4-4-9-1-4-7-7-4-0"
           style="fill:#369936;fill-opacity:1;stroke-width:1"
           class="cls-2"
           d="M 33.56,14 A 16,16 0 1 0 34.987246,45.935791 16,16 0 0 1 35.966739,14.192871 16.06,16.06 0 0 0 33.56,14 Z" />
      </g>
      <g
         id="g1337-3-2-2-1-6-3-9-7-8-2-4-4-1-3-8-7-7-5-1-5-7-3"
         transform="matrix(1.7323514,0,0,1.7323514,114.33064,1.9904048)">
        <path
           class="cls-2"
           d="m 33.56,14 a 16,16 0 1 0 16,16 16.06,16.06 0 0 0 -16,-16 z"
           id="path14-7-2-9-4-0-7-1-4-0-1-9-4-7-3-9-6-6-3-3-6-2-3"
           style="fill:#33cc33;fill-opacity:1" />
        <path
           id="path14-8-2-9-2-4-7-7-9-5-6-5-0-6-7-8-5-6-6-8-3-4-9-4"
           style="fill:#369936;fill-opacity:1;stroke-width:1"
           class="cls-2"
           d="M 33.56,14 A 16,16 0 1 0 34.987246,45.935791 16,16 0 0 1 35.966739,14.192871 16.06,16.06 0 0 0 33.56,14 Z" />
      </g>
      <g
         id="g1337-1-7-4-7-0-0-6-4-5-4-4-2-9-7-4-5-22-6-6-4-9-4"
         transform="matrix(1.7323514,0,0,1.7323514,160.00723,17.731538)">
        <path
           class="cls-2"
           d="m 33.56,14 a 16,16 0 1 0 16,16 16.06,16.06 0 0 0 -16,-16 z"
           id="path14-1-9-7-1-8-6-2-0-6-5-7-3-2-2-25-5-4-9-4-3-8-2"
           style="fill:#33cc33;fill-opacity:1" />
        <path
           id="path14-8-6-5-6-0-3-7-1-8-3-8-91-4-6-8-5-3-3-4-3-3-8-3"
           style="fill:#369936;fill-opacity:1;stroke-width:1"
           class="cls-2"
           d="M 33.56,14 A 16,16 0 1 0 34.987246,45.935791 16,16 0 0 1 35.966739,14.192871 16.06,16.06 0 0 0 33.56,14 Z" />
      </g>
    </g>
  </g>
</svg>
