<?xml version="1.0" encoding="UTF-8" standalone="no"?>
<!-- Created with Inkscape (http://www.inkscape.org/) -->

<svg
   width="500"
   height="500"
   viewBox="0 0 132.29166 132.29167"
   version="1.1"
   id="svg2515"
   inkscape:version="1.1.2 (b8e25be833, 2022-02-05)"
   sodipodi:docname="bonsai09s05normal.svg"
   inkscape:export-filename="C:\Users\Lenovo\Desktop\Coding\Media files\Bonsais\bonsai09.png"
   inkscape:export-xdpi="96"
   inkscape:export-ydpi="96"
   xmlns:inkscape="http://www.inkscape.org/namespaces/inkscape"
   xmlns:sodipodi="http://sodipodi.sourceforge.net/DTD/sodipodi-0.dtd"
   xmlns="http://www.w3.org/2000/svg"
   xmlns:svg="http://www.w3.org/2000/svg">
  <sodipodi:namedview
     id="namedview2517"
     pagecolor="#ffffff"
     bordercolor="#666666"
     borderopacity="1.0"
     inkscape:pageshadow="2"
     inkscape:pageopacity="0.0"
     inkscape:pagecheckerboard="0"
     inkscape:document-units="mm"
     showgrid="false"
     units="px"
     inkscape:zoom="1.4142136"
     inkscape:cx="272.58966"
     inkscape:cy="252.79067"
     inkscape:window-width="1920"
     inkscape:window-height="1001"
     inkscape:window-x="-9"
     inkscape:window-y="-9"
     inkscape:window-maximized="1"
     inkscape:current-layer="g51917" />
  <defs
     id="defs2512">
    <marker
       style="overflow:visible"
       id="Arrow1Sstart"
       refX="0.0"
       refY="0.0"
       orient="auto"
       inkscape:stockid="Arrow1Sstart"
       inkscape:isstock="true">
      <path
         transform="scale(0.2) translate(6,0)"
         style="fill-rule:evenodd;fill:context-stroke;stroke:context-stroke;stroke-width:1.0pt"
         d="M 0.0,0.0 L 5.0,-5.0 L -12.5,0.0 L 5.0,5.0 L 0.0,0.0 z "
         id="path24092" />
    </marker>
    <marker
       style="overflow:visible"
       id="Arrow1Mstart"
       refX="0.0"
       refY="0.0"
       orient="auto"
       inkscape:stockid="Arrow1Mstart"
       inkscape:isstock="true">
      <path
         transform="scale(0.4) translate(10,0)"
         style="fill-rule:evenodd;fill:context-stroke;stroke:context-stroke;stroke-width:1.0pt"
         d="M 0.0,0.0 L 5.0,-5.0 L -12.5,0.0 L 5.0,5.0 L 0.0,0.0 z "
         id="path24086" />
    </marker>
    <marker
       style="overflow:visible"
       id="Arrow1Lstart"
       refX="0.0"
       refY="0.0"
       orient="auto"
       inkscape:stockid="Arrow1Lstart"
       inkscape:isstock="true">
      <path
         transform="scale(0.8) translate(12.5,0)"
         style="fill-rule:evenodd;fill:context-stroke;stroke:context-stroke;stroke-width:1.0pt"
         d="M 0.0,0.0 L 5.0,-5.0 L -12.5,0.0 L 5.0,5.0 L 0.0,0.0 z "
         id="path24080" />
    </marker>
    <marker
       style="overflow:visible;"
       id="Arrow1Lend"
       refX="0.0"
       refY="0.0"
       orient="auto"
       inkscape:stockid="Arrow1Lend"
       inkscape:isstock="true">
      <path
         transform="scale(0.8) rotate(180) translate(12.5,0)"
         style="fill-rule:evenodd;fill:context-stroke;stroke:context-stroke;stroke-width:1.0pt;"
         d="M 0.0,0.0 L 5.0,-5.0 L -12.5,0.0 L 5.0,5.0 L 0.0,0.0 z "
         id="path24083" />
    </marker>
  </defs>
  <g
     inkscape:label="Double Trunk"
     inkscape:groupmode="layer"
     id="g51917"
     style="display:inline">
    <g
       id="g51833"
       transform="translate(157.39097,29.859785)"
       style="display:inline">
      <g
         id="g51831"
         transform="translate(-5.2916669)">
        <g
           id="g51823"
           transform="rotate(-13.017437,48.811012,639.29985)">
          <path
             style="display:inline;fill:#bc4b49;fill-opacity:1;stroke:#bc4b49;stroke-width:1;stroke-linecap:round;stroke-linejoin:round;stroke-miterlimit:4;stroke-dasharray:none;stroke-opacity:1"
             d="m 35.870136,79.809188 c 0,0 -5.93462,-10.285377 -0.36765,-17.935201 6.813833,-9.363182 12.17001,-5.093403 20.635714,-13.494745 6.786493,-6.734912 3.856953,-4.941474 9.61376,-12.344267 8.901728,-11.446877 8.659273,-1.55111 18.063763,-7.957382 7.913798,-5.390822 6.163238,-9.447209 15.526264,-17.43746 -2.405674,12.080364 -8.000423,9.916592 -10.90212,19.308518 -10.998001,6.255711 -2.636099,3.404697 -10.733417,5.461961 -9.484259,2.409639 -8.368428,8.046906 -13.315573,14.129643 -7.813845,9.607437 -15.695209,6.410437 -18.541148,16.263577 -2.153488,7.455755 1.038976,14.510776 2.528597,17.311986 1.489631,2.80121 -12.50819,-3.30663 -12.50819,-3.30663 z"
             id="path51819"
             sodipodi:nodetypes="cssssccssssc" />
          <path
             id="path51821"
             style="display:inline;fill:#9d3a3a;fill-opacity:1;stroke:#9d3a3a;stroke-width:3.77953;stroke-linecap:round;stroke-linejoin:round;stroke-miterlimit:4;stroke-dasharray:none;stroke-opacity:1"
             d="m 970.33008,153.07031 c -35.38782,30.19938 -28.77318,45.53149 -58.6836,65.90625 -35.54452,24.21268 -34.62715,-13.18957 -68.27148,30.07422 -21.75801,27.97906 -10.6862,21.20147 -36.33594,46.65625 -31.99636,31.7531 -52.23911,15.6155 -77.99218,51.00391 -21.04052,28.91272 1.38867,67.78515 1.38867,67.78515 0,0 0.53969,0.23173 0.68554,0.29493 -5.05604,-10.82763 -16.10396,-40.35023 0.75977,-63.52344 25.75307,-35.38841 45.99778,-19.2508 77.99414,-51.00391 25.64974,-25.45478 14.57793,-18.67719 36.33594,-46.65625 33.64432,-43.26379 32.72695,-5.86154 68.27148,-30.07422 28.41915,-19.35891 23.88953,-34.17576 53.71875,-61.50781 0.76306,-2.74415 1.48041,-5.69857 2.12891,-8.95508 z"
             transform="matrix(0.26458333,0,0,0.26458333,-157.39097,-29.859785)" />
        </g>
        <g
           id="g51829"
           transform="translate(-103.45205,-31.75)">
          <path
             style="display:inline;fill:#bc4b49;fill-opacity:1;stroke:#bc4b49;stroke-width:1;stroke-linecap:round;stroke-linejoin:round;stroke-miterlimit:4;stroke-dasharray:none;stroke-opacity:1"
             d="m 1.5429645,115.20461 c 0,0 -0.44391,-8.09307 -7.413009,-16.606491 -5.7703105,-7.049 -13.8088905,-10.89145 -10.0809905,-22.220768 2.98845,-9.082106 6.5809805,-11.287183 11.7883305,-16.9438 C 5.6584545,48.765064 7.3043845,49.408168 12.774609,39.430122 17.377757,31.033683 4.9076645,22.010606 9.6217105,10.640113 12.96362,22.495664 18.44838,26.548244 20.12762,36.233711 15.444354,48.50294 18.442121,45.423796 15.444354,48.50294 c -2.295407,2.357716 -5.14072,4.406037 -7.8642035,6.795331 -7.35602602,6.453392 -10.606666,25.3144 -10.606666,25.3144 10.538324,6.504058 13.6860715,7.919038 15.6244115,17.990108 1.46672,7.620671 12.857197,14.782431 15.456337,16.601831 2.59915,1.8194 -26.5112685,0 -26.5112685,0 z"
             id="path51825"
             sodipodi:nodetypes="cssssccsssssc" />
          <path
             id="path51827"
             style="display:inline;fill:#9d3a3a;fill-opacity:1;stroke:#9d3a3a;stroke-width:3.77953;stroke-linecap:round;stroke-linejoin:round;stroke-miterlimit:4;stroke-dasharray:none;stroke-opacity:1"
             d="m 631.22852,153.07031 c -17.81689,42.97509 29.31375,77.07793 11.91601,108.8125 -20.67485,37.7123 -26.89433,35.28168 -64.01367,75.60352 -19.68132,21.37934 -33.25976,29.71299 -44.55469,64.03906 -14.0897,42.81947 16.29252,57.3425 38.10156,83.98438 26.33991,32.17672 28.01758,62.76562 28.01758,62.76562 0,0 3.6319,0.21449 8.51367,0.49219 -0.94557,-7.59992 -5.65489,-33.43191 -27.77929,-60.45899 -21.80905,-26.64183 -52.19127,-41.16491 -38.10157,-83.98437 11.29494,-34.32607 24.87337,-42.65972 44.55469,-64.03906 37.11934,-40.32184 43.34078,-37.89122 64.01563,-75.60352 15.60524,-28.46494 -20.69795,-58.8372 -15.48828,-95.80664 -1.82765,-4.8605 -3.57081,-10.09019 -5.18164,-15.80469 z"
             transform="matrix(0.26458333,0,0,0.26458333,-157.39097,-29.859785)" />
        </g>
      </g>
    </g>
    <g
       id="g1582-1-77"
       transform="matrix(0.3112777,0,0,-0.38362995,-796.59403,815.06004)"
       style="display:inline">
      <path
         d="m 2651.62,1847.23 v -1.11 c 0,-16.09 5.85,-31.62 16.47,-43.71 h 171.95 c 5.3,6.05 9.42,12.95 12.21,20.35 2.79,7.41 4.25,15.32 4.25,23.36 v 1.11 h -204.88"
         style="fill:#f5e274;fill-opacity:1;fill-rule:nonzero;stroke:none;stroke-width:0.1"
         id="path266-6-1" />
      <path
         d="m 2679.53,1802.41 h 149.06 v -14.74 h -149.06 v 14.74"
         style="fill:#e0ce64;fill-opacity:1;fill-rule:nonzero;stroke:none;stroke-width:0.1"
         id="path270-6-6" />
      <path
         d="m 2665.63,1847.23 h -14.01 v -1.11 c 0,-16.09 5.85,-31.62 16.47,-43.71 h 14 c -10.61,12.09 -16.46,27.62 -16.46,43.71 v 1.11"
         style="fill:#d3c252;fill-opacity:1;fill-rule:nonzero;stroke:none;stroke-width:0.1"
         id="path280-2-7" />
      <path
         d="m 2679.53,1802.41 h 14 v -14.74 h -14 v 14.74"
         style="fill:#c2b14d;fill-opacity:1;fill-rule:nonzero;stroke:none;stroke-width:0.1"
         id="path282-6-24" />
    </g>
    <g
       id="g16088-8-4-9-6-5-0-7"
       transform="matrix(1.0970525,0,0,1.0970525,-140.72629,-0.86556153)"
       style="display:inline">
      <g
         id="g16024-8-4-5-2-2-0-2">
        <path
           fill="#000000"
           d="m 151.83738,51.583012 -4.45472,1.194835 1.55252,2.873166 -2.59636,0.696885 -0.10873,-3.261455 -4.38999,1.17771 -1.18551,4.42577 3.264,0.09266 -0.69816,2.604332 -2.87719,-1.535351 -1.18289,4.411314 3.21496,3.214954 1.72072,-2.779061 1.91813,1.918128 -2.77915,1.722035 3.24408,3.244075 4.39927,-1.178939 -1.54722,-2.883763 2.60823,-0.698157 0.10076,3.270653 4.43764,-1.189621 1.18564,-4.427042 -3.2707,-0.100717 0.6968,-2.601661 2.88377,1.54722 1.18301,-4.417843 -3.264,-3.26527 -1.71551,2.785759 -1.89159,-1.892991 2.77253,-1.727376 z m -2.67436,4.490625 0.48876,0.904764 -0.96962,2.955402 -2.29303,-2.081117 -0.0345,-1.025404 2.80831,-0.753687 z m 2.71557,0.710026 2.04657,2.047968 -0.55107,0.89548 -3.04399,0.638472 0.65563,-3.025557 z m -7.47914,2.012234 1.00676,0.02908 2.07446,2.316845 -2.94875,0.944525 -0.8876,-0.474255 0.75509,-2.816237 z m 9.37209,2.270386 0.89548,0.48091 -0.75369,2.813608 -1.01608,-0.03179 -2.05589,-2.286409 2.93022,-0.976232 z m -5.90275,1.759168 -0.61995,3.025599 -0.82787,0.512659 -2.07179,-2.073105 0.51266,-0.826597 3.00695,-0.638514 z m 1.71415,0.468998 2.31023,2.049282 0.0305,0.997427 -2.82031,0.756399 -0.47154,-0.879583 0.95114,-2.923525 z"
           id="path2-3-59-46-1-16-1-8-0"
           style="fill:#cc9900;fill-opacity:1;stroke-width:0.0423895" />
        <path
           id="path2-3-5-0-1-1-9-2-9-3"
           style="display:inline;fill:#b38a10;fill-opacity:1;stroke-width:0.0423894"
           d="m 151.83733,51.583044 -4.45451,1.194761 0.20102,0.371551 0.23358,-0.06253 0.0176,0.528135 1.10019,2.036051 -1.02268,0.274402 0.014,0.422714 2.59622,-0.697116 -1.55236,-2.873208 3.20291,-0.858864 z m -5.60741,1.503783 -4.38991,1.177708 -1.18546,4.425569 3.26388,0.0925 -0.49971,1.863453 0.42427,0.22634 0.55655,-2.076357 1.00666,0.02894 0.0682,0.07597 0.0315,-0.118338 -3.26388,-0.0925 1.18546,-4.425569 2.81636,-0.755509 z m 9.66246,2.551266 -1.11001,1.802993 0.98185,0.982885 1.11053,-1.80299 z m -5.14181,0.435634 -1.38647,0.372071 0.28783,0.532783 -0.60564,1.845366 1.22318,1.110009 0.45372,-1.382345 0.26251,-1.211294 0.1695,-0.105939 0.0842,-0.255797 z m 2.14354,1.066602 -0.32091,0.199988 -0.0248,0.113686 1.37666,1.377693 -0.55087,0.895554 -1.38131,0.289904 -0.0755,0.348816 3.04426,-0.63872 0.55087,-0.895554 -0.98186,-0.982369 -0.35398,0.574644 z m -6.90707,1.655712 -0.14004,0.521414 1.63349,1.824697 -1.95595,0.626316 0.59479,0.317812 2.94866,-0.944128 -2.07429,-2.317174 z m -5.64358,1.055748 -1.18287,4.411102 3.21479,3.215306 0.60719,-0.980302 -2.23448,-2.235004 0.98391,-3.670062 z m 15.01562,1.214398 v 5.16e-4 l -0.97927,0.326078 0.28732,0.154514 -0.61598,2.299599 0.37207,0.41393 0.66611,-2.487186 0.96583,0.518313 0.19947,-0.744656 z m 1.31775,0.707451 -0.19947,0.744656 1.49603,0.803051 0.19947,-0.744657 z m -7.22075,1.052131 -1.65985,0.352433 -0.50539,2.467549 0.71778,0.718302 0.72089,-0.446484 0.25166,-0.773079 z m 1.71462,0.468705 -0.35553,1.092956 1.07797,0.956532 0.0305,0.997355 -1.43195,0.384472 0.19947,0.37207 2.81998,-0.756542 -0.0305,-0.997355 z m -5.8415,1.977141 -0.2527,0.407725 0.93793,0.93793 -2.77916,1.721858 3.24373,3.244246 1.25212,-0.33538 -2.90835,-2.908866 2.77916,-1.721858 -0.60771,-0.607716 -0.5731,0.354499 z m 8.19795,1.55081 -1.57458,0.421161 0.0724,2.338358 0.24132,0.45062 1.34876,-0.361735 z" />
      </g>
      <g
         id="g16024-7-2-2-4-9-6-3-2"
         style="display:inline"
         transform="translate(13.639481,-4.5465347)">
        <path
           fill="#000000"
           d="m 151.83738,51.583012 -4.45472,1.194835 1.55252,2.873166 -2.59636,0.696885 -0.10873,-3.261455 -4.38999,1.17771 -1.18551,4.42577 3.264,0.09266 -0.69816,2.604332 -2.87719,-1.535351 -1.18289,4.411314 3.21496,3.214954 1.72072,-2.779061 1.91813,1.918128 -2.77915,1.722035 3.24408,3.244075 4.39927,-1.178939 -1.54722,-2.883763 2.60823,-0.698157 0.10076,3.270653 4.43764,-1.189621 1.18564,-4.427042 -3.2707,-0.100717 0.6968,-2.601661 2.88377,1.54722 1.18301,-4.417843 -3.264,-3.26527 -1.71551,2.785759 -1.89159,-1.892991 2.77253,-1.727376 z m -2.67436,4.490625 0.48876,0.904764 -0.96962,2.955402 -2.29303,-2.081117 -0.0345,-1.025404 2.80831,-0.753687 z m 2.71557,0.710026 2.04657,2.047968 -0.55107,0.89548 -3.04399,0.638472 0.65563,-3.025557 z m -7.47914,2.012234 1.00676,0.02908 2.07446,2.316845 -2.94875,0.944525 -0.8876,-0.474255 0.75509,-2.816237 z m 9.37209,2.270386 0.89548,0.48091 -0.75369,2.813608 -1.01608,-0.03179 -2.05589,-2.286409 2.93022,-0.976232 z m -5.90275,1.759168 -0.61995,3.025599 -0.82787,0.512659 -2.07179,-2.073105 0.51266,-0.826597 3.00695,-0.638514 z m 1.71415,0.468998 2.31023,2.049282 0.0305,0.997427 -2.82031,0.756399 -0.47154,-0.879583 0.95114,-2.923525 z"
           id="path2-3-9-8-9-3-7-4-3-6"
           style="fill:#cc9900;fill-opacity:1;stroke-width:0.0423895" />
        <path
           id="path2-3-5-1-6-1-0-9-6-7-0"
           style="display:inline;fill:#b38a10;fill-opacity:1;stroke-width:0.0423894"
           d="m 151.83733,51.583044 -4.45451,1.194761 0.20102,0.371551 0.23358,-0.06253 0.0176,0.528135 1.10019,2.036051 -1.02268,0.274402 0.014,0.422714 2.59622,-0.697116 -1.55236,-2.873208 3.20291,-0.858864 z m -5.60741,1.503783 -4.38991,1.177708 -1.18546,4.425569 3.26388,0.0925 -0.49971,1.863453 0.42427,0.22634 0.55655,-2.076357 1.00666,0.02894 0.0682,0.07597 0.0315,-0.118338 -3.26388,-0.0925 1.18546,-4.425569 2.81636,-0.755509 z m 9.66246,2.551266 -1.11001,1.802993 0.98185,0.982885 1.11053,-1.80299 z m -5.14181,0.435634 -1.38647,0.372071 0.28783,0.532783 -0.60564,1.845366 1.22318,1.110009 0.45372,-1.382345 0.26251,-1.211294 0.1695,-0.105939 0.0842,-0.255797 z m 2.14354,1.066602 -0.32091,0.199988 -0.0248,0.113686 1.37666,1.377693 -0.55087,0.895554 -1.38131,0.289904 -0.0755,0.348816 3.04426,-0.63872 0.55087,-0.895554 -0.98186,-0.982369 -0.35398,0.574644 z m -6.90707,1.655712 -0.14004,0.521414 1.63349,1.824697 -1.95595,0.626316 0.59479,0.317812 2.94866,-0.944128 -2.07429,-2.317174 z m -5.64358,1.055748 -1.18287,4.411102 3.21479,3.215306 0.60719,-0.980302 -2.23448,-2.235004 0.98391,-3.670062 z m 15.01562,1.214398 v 5.16e-4 l -0.97927,0.326078 0.28732,0.154514 -0.61598,2.299599 0.37207,0.41393 0.66611,-2.487186 0.96583,0.518313 0.19947,-0.744656 z m 1.31775,0.707451 -0.19947,0.744656 1.49603,0.803051 0.19947,-0.744657 z m -7.22075,1.052131 -1.65985,0.352433 -0.50539,2.467549 0.71778,0.718302 0.72089,-0.446484 0.25166,-0.773079 z m 1.71462,0.468705 -0.35553,1.092956 1.07797,0.956532 0.0305,0.997355 -1.43195,0.384472 0.19947,0.37207 2.81998,-0.756542 -0.0305,-0.997355 z m -5.8415,1.977141 -0.2527,0.407725 0.93793,0.93793 -2.77916,1.721858 3.24373,3.244246 1.25212,-0.33538 -2.90835,-2.908866 2.77916,-1.721858 -0.60771,-0.607716 -0.5731,0.354499 z m 8.19795,1.55081 -1.57458,0.421161 0.0724,2.338358 0.24132,0.45062 1.34876,-0.361735 z" />
      </g>
      <g
         id="g16024-0-4-2-7-6-7-6-69"
         style="display:inline"
         transform="translate(28.315329,-1.2e-5)">
        <path
           fill="#000000"
           d="m 151.83738,51.583012 -4.45472,1.194835 1.55252,2.873166 -2.59636,0.696885 -0.10873,-3.261455 -4.38999,1.17771 -1.18551,4.42577 3.264,0.09266 -0.69816,2.604332 -2.87719,-1.535351 -1.18289,4.411314 3.21496,3.214954 1.72072,-2.779061 1.91813,1.918128 -2.77915,1.722035 3.24408,3.244075 4.39927,-1.178939 -1.54722,-2.883763 2.60823,-0.698157 0.10076,3.270653 4.43764,-1.189621 1.18564,-4.427042 -3.2707,-0.100717 0.6968,-2.601661 2.88377,1.54722 1.18301,-4.417843 -3.264,-3.26527 -1.71551,2.785759 -1.89159,-1.892991 2.77253,-1.727376 z m -2.67436,4.490625 0.48876,0.904764 -0.96962,2.955402 -2.29303,-2.081117 -0.0345,-1.025404 2.80831,-0.753687 z m 2.71557,0.710026 2.04657,2.047968 -0.55107,0.89548 -3.04399,0.638472 0.65563,-3.025557 z m -7.47914,2.012234 1.00676,0.02908 2.07446,2.316845 -2.94875,0.944525 -0.8876,-0.474255 0.75509,-2.816237 z m 9.37209,2.270386 0.89548,0.48091 -0.75369,2.813608 -1.01608,-0.03179 -2.05589,-2.286409 2.93022,-0.976232 z m -5.90275,1.759168 -0.61995,3.025599 -0.82787,0.512659 -2.07179,-2.073105 0.51266,-0.826597 3.00695,-0.638514 z m 1.71415,0.468998 2.31023,2.049282 0.0305,0.997427 -2.82031,0.756399 -0.47154,-0.879583 0.95114,-2.923525 z"
           id="path2-3-1-2-1-7-1-3-4-1"
           style="fill:#cc9900;fill-opacity:1;stroke-width:0.0423895" />
        <path
           id="path2-3-5-8-4-5-4-36-5-6-9"
           style="display:inline;fill:#b38a10;fill-opacity:1;stroke-width:0.0423894"
           d="m 151.83733,51.583044 -4.45451,1.194761 0.20102,0.371551 0.23358,-0.06253 0.0176,0.528135 1.10019,2.036051 -1.02268,0.274402 0.014,0.422714 2.59622,-0.697116 -1.55236,-2.873208 3.20291,-0.858864 z m -5.60741,1.503783 -4.38991,1.177708 -1.18546,4.425569 3.26388,0.0925 -0.49971,1.863453 0.42427,0.22634 0.55655,-2.076357 1.00666,0.02894 0.0682,0.07597 0.0315,-0.118338 -3.26388,-0.0925 1.18546,-4.425569 2.81636,-0.755509 z m 9.66246,2.551266 -1.11001,1.802993 0.98185,0.982885 1.11053,-1.80299 z m -5.14181,0.435634 -1.38647,0.372071 0.28783,0.532783 -0.60564,1.845366 1.22318,1.110009 0.45372,-1.382345 0.26251,-1.211294 0.1695,-0.105939 0.0842,-0.255797 z m 2.14354,1.066602 -0.32091,0.199988 -0.0248,0.113686 1.37666,1.377693 -0.55087,0.895554 -1.38131,0.289904 -0.0755,0.348816 3.04426,-0.63872 0.55087,-0.895554 -0.98186,-0.982369 -0.35398,0.574644 z m -6.90707,1.655712 -0.14004,0.521414 1.63349,1.824697 -1.95595,0.626316 0.59479,0.317812 2.94866,-0.944128 -2.07429,-2.317174 z m -5.64358,1.055748 -1.18287,4.411102 3.21479,3.215306 0.60719,-0.980302 -2.23448,-2.235004 0.98391,-3.670062 z m 15.01562,1.214398 v 5.16e-4 l -0.97927,0.326078 0.28732,0.154514 -0.61598,2.299599 0.37207,0.41393 0.66611,-2.487186 0.96583,0.518313 0.19947,-0.744656 z m 1.31775,0.707451 -0.19947,0.744656 1.49603,0.803051 0.19947,-0.744657 z m -7.22075,1.052131 -1.65985,0.352433 -0.50539,2.467549 0.71778,0.718302 0.72089,-0.446484 0.25166,-0.773079 z m 1.71462,0.468705 -0.35553,1.092956 1.07797,0.956532 0.0305,0.997355 -1.43195,0.384472 0.19947,0.37207 2.81998,-0.756542 -0.0305,-0.997355 z m -5.8415,1.977141 -0.2527,0.407725 0.93793,0.93793 -2.77916,1.721858 3.24373,3.244246 1.25212,-0.33538 -2.90835,-2.908866 2.77916,-1.721858 -0.60771,-0.607716 -0.5731,0.354499 z m 8.19795,1.55081 -1.57458,0.421161 0.0724,2.338358 0.24132,0.45062 1.34876,-0.361735 z" />
      </g>
    </g>
    <g
       id="g16088-8-4-9-6-5-0-7-7"
       transform="matrix(0.9314597,0,0,0.9314597,-62.106393,13.364987)"
       style="display:inline">
      <g
         id="g16024-8-4-5-2-2-0-2-2">
        <path
           fill="#000000"
           d="m 151.83738,51.583012 -4.45472,1.194835 1.55252,2.873166 -2.59636,0.696885 -0.10873,-3.261455 -4.38999,1.17771 -1.18551,4.42577 3.264,0.09266 -0.69816,2.604332 -2.87719,-1.535351 -1.18289,4.411314 3.21496,3.214954 1.72072,-2.779061 1.91813,1.918128 -2.77915,1.722035 3.24408,3.244075 4.39927,-1.178939 -1.54722,-2.883763 2.60823,-0.698157 0.10076,3.270653 4.43764,-1.189621 1.18564,-4.427042 -3.2707,-0.100717 0.6968,-2.601661 2.88377,1.54722 1.18301,-4.417843 -3.264,-3.26527 -1.71551,2.785759 -1.89159,-1.892991 2.77253,-1.727376 z m -2.67436,4.490625 0.48876,0.904764 -0.96962,2.955402 -2.29303,-2.081117 -0.0345,-1.025404 2.80831,-0.753687 z m 2.71557,0.710026 2.04657,2.047968 -0.55107,0.89548 -3.04399,0.638472 0.65563,-3.025557 z m -7.47914,2.012234 1.00676,0.02908 2.07446,2.316845 -2.94875,0.944525 -0.8876,-0.474255 0.75509,-2.816237 z m 9.37209,2.270386 0.89548,0.48091 -0.75369,2.813608 -1.01608,-0.03179 -2.05589,-2.286409 2.93022,-0.976232 z m -5.90275,1.759168 -0.61995,3.025599 -0.82787,0.512659 -2.07179,-2.073105 0.51266,-0.826597 3.00695,-0.638514 z m 1.71415,0.468998 2.31023,2.049282 0.0305,0.997427 -2.82031,0.756399 -0.47154,-0.879583 0.95114,-2.923525 z"
           id="path2-3-59-46-1-16-1-8-0-1"
           style="fill:#cc9900;fill-opacity:1;stroke-width:0.0423895" />
        <path
           id="path2-3-5-0-1-1-9-2-9-3-0"
           style="display:inline;fill:#b38a10;fill-opacity:1;stroke-width:0.0423894"
           d="m 151.83733,51.583044 -4.45451,1.194761 0.20102,0.371551 0.23358,-0.06253 0.0176,0.528135 1.10019,2.036051 -1.02268,0.274402 0.014,0.422714 2.59622,-0.697116 -1.55236,-2.873208 3.20291,-0.858864 z m -5.60741,1.503783 -4.38991,1.177708 -1.18546,4.425569 3.26388,0.0925 -0.49971,1.863453 0.42427,0.22634 0.55655,-2.076357 1.00666,0.02894 0.0682,0.07597 0.0315,-0.118338 -3.26388,-0.0925 1.18546,-4.425569 2.81636,-0.755509 z m 9.66246,2.551266 -1.11001,1.802993 0.98185,0.982885 1.11053,-1.80299 z m -5.14181,0.435634 -1.38647,0.372071 0.28783,0.532783 -0.60564,1.845366 1.22318,1.110009 0.45372,-1.382345 0.26251,-1.211294 0.1695,-0.105939 0.0842,-0.255797 z m 2.14354,1.066602 -0.32091,0.199988 -0.0248,0.113686 1.37666,1.377693 -0.55087,0.895554 -1.38131,0.289904 -0.0755,0.348816 3.04426,-0.63872 0.55087,-0.895554 -0.98186,-0.982369 -0.35398,0.574644 z m -6.90707,1.655712 -0.14004,0.521414 1.63349,1.824697 -1.95595,0.626316 0.59479,0.317812 2.94866,-0.944128 -2.07429,-2.317174 z m -5.64358,1.055748 -1.18287,4.411102 3.21479,3.215306 0.60719,-0.980302 -2.23448,-2.235004 0.98391,-3.670062 z m 15.01562,1.214398 v 5.16e-4 l -0.97927,0.326078 0.28732,0.154514 -0.61598,2.299599 0.37207,0.41393 0.66611,-2.487186 0.96583,0.518313 0.19947,-0.744656 z m 1.31775,0.707451 -0.19947,0.744656 1.49603,0.803051 0.19947,-0.744657 z m -7.22075,1.052131 -1.65985,0.352433 -0.50539,2.467549 0.71778,0.718302 0.72089,-0.446484 0.25166,-0.773079 z m 1.71462,0.468705 -0.35553,1.092956 1.07797,0.956532 0.0305,0.997355 -1.43195,0.384472 0.19947,0.37207 2.81998,-0.756542 -0.0305,-0.997355 z m -5.8415,1.977141 -0.2527,0.407725 0.93793,0.93793 -2.77916,1.721858 3.24373,3.244246 1.25212,-0.33538 -2.90835,-2.908866 2.77916,-1.721858 -0.60771,-0.607716 -0.5731,0.354499 z m 8.19795,1.55081 -1.57458,0.421161 0.0724,2.338358 0.24132,0.45062 1.34876,-0.361735 z" />
      </g>
      <g
         id="g16024-7-2-2-4-9-6-3-2-9"
         style="display:inline"
         transform="translate(13.639481,-4.5465347)">
        <path
           fill="#000000"
           d="m 151.83738,51.583012 -4.45472,1.194835 1.55252,2.873166 -2.59636,0.696885 -0.10873,-3.261455 -4.38999,1.17771 -1.18551,4.42577 3.264,0.09266 -0.69816,2.604332 -2.87719,-1.535351 -1.18289,4.411314 3.21496,3.214954 1.72072,-2.779061 1.91813,1.918128 -2.77915,1.722035 3.24408,3.244075 4.39927,-1.178939 -1.54722,-2.883763 2.60823,-0.698157 0.10076,3.270653 4.43764,-1.189621 1.18564,-4.427042 -3.2707,-0.100717 0.6968,-2.601661 2.88377,1.54722 1.18301,-4.417843 -3.264,-3.26527 -1.71551,2.785759 -1.89159,-1.892991 2.77253,-1.727376 z m -2.67436,4.490625 0.48876,0.904764 -0.96962,2.955402 -2.29303,-2.081117 -0.0345,-1.025404 2.80831,-0.753687 z m 2.71557,0.710026 2.04657,2.047968 -0.55107,0.89548 -3.04399,0.638472 0.65563,-3.025557 z m -7.47914,2.012234 1.00676,0.02908 2.07446,2.316845 -2.94875,0.944525 -0.8876,-0.474255 0.75509,-2.816237 z m 9.37209,2.270386 0.89548,0.48091 -0.75369,2.813608 -1.01608,-0.03179 -2.05589,-2.286409 2.93022,-0.976232 z m -5.90275,1.759168 -0.61995,3.025599 -0.82787,0.512659 -2.07179,-2.073105 0.51266,-0.826597 3.00695,-0.638514 z m 1.71415,0.468998 2.31023,2.049282 0.0305,0.997427 -2.82031,0.756399 -0.47154,-0.879583 0.95114,-2.923525 z"
           id="path2-3-9-8-9-3-7-4-3-6-2"
           style="fill:#cc9900;fill-opacity:1;stroke-width:0.0423895" />
        <path
           id="path2-3-5-1-6-1-0-9-6-7-0-8"
           style="display:inline;fill:#b38a10;fill-opacity:1;stroke-width:0.0423894"
           d="m 151.83733,51.583044 -4.45451,1.194761 0.20102,0.371551 0.23358,-0.06253 0.0176,0.528135 1.10019,2.036051 -1.02268,0.274402 0.014,0.422714 2.59622,-0.697116 -1.55236,-2.873208 3.20291,-0.858864 z m -5.60741,1.503783 -4.38991,1.177708 -1.18546,4.425569 3.26388,0.0925 -0.49971,1.863453 0.42427,0.22634 0.55655,-2.076357 1.00666,0.02894 0.0682,0.07597 0.0315,-0.118338 -3.26388,-0.0925 1.18546,-4.425569 2.81636,-0.755509 z m 9.66246,2.551266 -1.11001,1.802993 0.98185,0.982885 1.11053,-1.80299 z m -5.14181,0.435634 -1.38647,0.372071 0.28783,0.532783 -0.60564,1.845366 1.22318,1.110009 0.45372,-1.382345 0.26251,-1.211294 0.1695,-0.105939 0.0842,-0.255797 z m 2.14354,1.066602 -0.32091,0.199988 -0.0248,0.113686 1.37666,1.377693 -0.55087,0.895554 -1.38131,0.289904 -0.0755,0.348816 3.04426,-0.63872 0.55087,-0.895554 -0.98186,-0.982369 -0.35398,0.574644 z m -6.90707,1.655712 -0.14004,0.521414 1.63349,1.824697 -1.95595,0.626316 0.59479,0.317812 2.94866,-0.944128 -2.07429,-2.317174 z m -5.64358,1.055748 -1.18287,4.411102 3.21479,3.215306 0.60719,-0.980302 -2.23448,-2.235004 0.98391,-3.670062 z m 15.01562,1.214398 v 5.16e-4 l -0.97927,0.326078 0.28732,0.154514 -0.61598,2.299599 0.37207,0.41393 0.66611,-2.487186 0.96583,0.518313 0.19947,-0.744656 z m 1.31775,0.707451 -0.19947,0.744656 1.49603,0.803051 0.19947,-0.744657 z m -7.22075,1.052131 -1.65985,0.352433 -0.50539,2.467549 0.71778,0.718302 0.72089,-0.446484 0.25166,-0.773079 z m 1.71462,0.468705 -0.35553,1.092956 1.07797,0.956532 0.0305,0.997355 -1.43195,0.384472 0.19947,0.37207 2.81998,-0.756542 -0.0305,-0.997355 z m -5.8415,1.977141 -0.2527,0.407725 0.93793,0.93793 -2.77916,1.721858 3.24373,3.244246 1.25212,-0.33538 -2.90835,-2.908866 2.77916,-1.721858 -0.60771,-0.607716 -0.5731,0.354499 z m 8.19795,1.55081 -1.57458,0.421161 0.0724,2.338358 0.24132,0.45062 1.34876,-0.361735 z" />
      </g>
      <g
         id="g16024-0-4-2-7-6-7-6-69-1"
         style="display:inline"
         transform="translate(28.315329,-1.2e-5)">
        <path
           fill="#000000"
           d="m 151.83738,51.583012 -4.45472,1.194835 1.55252,2.873166 -2.59636,0.696885 -0.10873,-3.261455 -4.38999,1.17771 -1.18551,4.42577 3.264,0.09266 -0.69816,2.604332 -2.87719,-1.535351 -1.18289,4.411314 3.21496,3.214954 1.72072,-2.779061 1.91813,1.918128 -2.77915,1.722035 3.24408,3.244075 4.39927,-1.178939 -1.54722,-2.883763 2.60823,-0.698157 0.10076,3.270653 4.43764,-1.189621 1.18564,-4.427042 -3.2707,-0.100717 0.6968,-2.601661 2.88377,1.54722 1.18301,-4.417843 -3.264,-3.26527 -1.71551,2.785759 -1.89159,-1.892991 2.77253,-1.727376 z m -2.67436,4.490625 0.48876,0.904764 -0.96962,2.955402 -2.29303,-2.081117 -0.0345,-1.025404 2.80831,-0.753687 z m 2.71557,0.710026 2.04657,2.047968 -0.55107,0.89548 -3.04399,0.638472 0.65563,-3.025557 z m -7.47914,2.012234 1.00676,0.02908 2.07446,2.316845 -2.94875,0.944525 -0.8876,-0.474255 0.75509,-2.816237 z m 9.37209,2.270386 0.89548,0.48091 -0.75369,2.813608 -1.01608,-0.03179 -2.05589,-2.286409 2.93022,-0.976232 z m -5.90275,1.759168 -0.61995,3.025599 -0.82787,0.512659 -2.07179,-2.073105 0.51266,-0.826597 3.00695,-0.638514 z m 1.71415,0.468998 2.31023,2.049282 0.0305,0.997427 -2.82031,0.756399 -0.47154,-0.879583 0.95114,-2.923525 z"
           id="path2-3-1-2-1-7-1-3-4-1-3"
           style="fill:#cc9900;fill-opacity:1;stroke-width:0.0423895" />
        <path
           id="path2-3-5-8-4-5-4-36-5-6-9-9"
           style="display:inline;fill:#b38a10;fill-opacity:1;stroke-width:0.0423894"
           d="m 151.83733,51.583044 -4.45451,1.194761 0.20102,0.371551 0.23358,-0.06253 0.0176,0.528135 1.10019,2.036051 -1.02268,0.274402 0.014,0.422714 2.59622,-0.697116 -1.55236,-2.873208 3.20291,-0.858864 z m -5.60741,1.503783 -4.38991,1.177708 -1.18546,4.425569 3.26388,0.0925 -0.49971,1.863453 0.42427,0.22634 0.55655,-2.076357 1.00666,0.02894 0.0682,0.07597 0.0315,-0.118338 -3.26388,-0.0925 1.18546,-4.425569 2.81636,-0.755509 z m 9.66246,2.551266 -1.11001,1.802993 0.98185,0.982885 1.11053,-1.80299 z m -5.14181,0.435634 -1.38647,0.372071 0.28783,0.532783 -0.60564,1.845366 1.22318,1.110009 0.45372,-1.382345 0.26251,-1.211294 0.1695,-0.105939 0.0842,-0.255797 z m 2.14354,1.066602 -0.32091,0.199988 -0.0248,0.113686 1.37666,1.377693 -0.55087,0.895554 -1.38131,0.289904 -0.0755,0.348816 3.04426,-0.63872 0.55087,-0.895554 -0.98186,-0.982369 -0.35398,0.574644 z m -6.90707,1.655712 -0.14004,0.521414 1.63349,1.824697 -1.95595,0.626316 0.59479,0.317812 2.94866,-0.944128 -2.07429,-2.317174 z m -5.64358,1.055748 -1.18287,4.411102 3.21479,3.215306 0.60719,-0.980302 -2.23448,-2.235004 0.98391,-3.670062 z m 15.01562,1.214398 v 5.16e-4 l -0.97927,0.326078 0.28732,0.154514 -0.61598,2.299599 0.37207,0.41393 0.66611,-2.487186 0.96583,0.518313 0.19947,-0.744656 z m 1.31775,0.707451 -0.19947,0.744656 1.49603,0.803051 0.19947,-0.744657 z m -7.22075,1.052131 -1.65985,0.352433 -0.50539,2.467549 0.71778,0.718302 0.72089,-0.446484 0.25166,-0.773079 z m 1.71462,0.468705 -0.35553,1.092956 1.07797,0.956532 0.0305,0.997355 -1.43195,0.384472 0.19947,0.37207 2.81998,-0.756542 -0.0305,-0.997355 z m -5.8415,1.977141 -0.2527,0.407725 0.93793,0.93793 -2.77916,1.721858 3.24373,3.244246 1.25212,-0.33538 -2.90835,-2.908866 2.77916,-1.721858 -0.60771,-0.607716 -0.5731,0.354499 z m 8.19795,1.55081 -1.57458,0.421161 0.0724,2.338358 0.24132,0.45062 1.34876,-0.361735 z" />
      </g>
    </g>
    <g
       id="g16088-8-4-9-6-5-0-7-7-9"
       transform="matrix(0.9314597,0,0,0.9314597,-90.004865,-19.616559)"
       style="display:inline">
      <g
         id="g16024-8-4-5-2-2-0-2-2-9">
        <path
           fill="#000000"
           d="m 151.83738,51.583012 -4.45472,1.194835 1.55252,2.873166 -2.59636,0.696885 -0.10873,-3.261455 -4.38999,1.17771 -1.18551,4.42577 3.264,0.09266 -0.69816,2.604332 -2.87719,-1.535351 -1.18289,4.411314 3.21496,3.214954 1.72072,-2.779061 1.91813,1.918128 -2.77915,1.722035 3.24408,3.244075 4.39927,-1.178939 -1.54722,-2.883763 2.60823,-0.698157 0.10076,3.270653 4.43764,-1.189621 1.18564,-4.427042 -3.2707,-0.100717 0.6968,-2.601661 2.88377,1.54722 1.18301,-4.417843 -3.264,-3.26527 -1.71551,2.785759 -1.89159,-1.892991 2.77253,-1.727376 z m -2.67436,4.490625 0.48876,0.904764 -0.96962,2.955402 -2.29303,-2.081117 -0.0345,-1.025404 2.80831,-0.753687 z m 2.71557,0.710026 2.04657,2.047968 -0.55107,0.89548 -3.04399,0.638472 0.65563,-3.025557 z m -7.47914,2.012234 1.00676,0.02908 2.07446,2.316845 -2.94875,0.944525 -0.8876,-0.474255 0.75509,-2.816237 z m 9.37209,2.270386 0.89548,0.48091 -0.75369,2.813608 -1.01608,-0.03179 -2.05589,-2.286409 2.93022,-0.976232 z m -5.90275,1.759168 -0.61995,3.025599 -0.82787,0.512659 -2.07179,-2.073105 0.51266,-0.826597 3.00695,-0.638514 z m 1.71415,0.468998 2.31023,2.049282 0.0305,0.997427 -2.82031,0.756399 -0.47154,-0.879583 0.95114,-2.923525 z"
           id="path2-3-59-46-1-16-1-8-0-1-8"
           style="fill:#cc9900;fill-opacity:1;stroke-width:0.0423895" />
        <path
           id="path2-3-5-0-1-1-9-2-9-3-0-5"
           style="display:inline;fill:#b38a10;fill-opacity:1;stroke-width:0.0423894"
           d="m 151.83733,51.583044 -4.45451,1.194761 0.20102,0.371551 0.23358,-0.06253 0.0176,0.528135 1.10019,2.036051 -1.02268,0.274402 0.014,0.422714 2.59622,-0.697116 -1.55236,-2.873208 3.20291,-0.858864 z m -5.60741,1.503783 -4.38991,1.177708 -1.18546,4.425569 3.26388,0.0925 -0.49971,1.863453 0.42427,0.22634 0.55655,-2.076357 1.00666,0.02894 0.0682,0.07597 0.0315,-0.118338 -3.26388,-0.0925 1.18546,-4.425569 2.81636,-0.755509 z m 9.66246,2.551266 -1.11001,1.802993 0.98185,0.982885 1.11053,-1.80299 z m -5.14181,0.435634 -1.38647,0.372071 0.28783,0.532783 -0.60564,1.845366 1.22318,1.110009 0.45372,-1.382345 0.26251,-1.211294 0.1695,-0.105939 0.0842,-0.255797 z m 2.14354,1.066602 -0.32091,0.199988 -0.0248,0.113686 1.37666,1.377693 -0.55087,0.895554 -1.38131,0.289904 -0.0755,0.348816 3.04426,-0.63872 0.55087,-0.895554 -0.98186,-0.982369 -0.35398,0.574644 z m -6.90707,1.655712 -0.14004,0.521414 1.63349,1.824697 -1.95595,0.626316 0.59479,0.317812 2.94866,-0.944128 -2.07429,-2.317174 z m -5.64358,1.055748 -1.18287,4.411102 3.21479,3.215306 0.60719,-0.980302 -2.23448,-2.235004 0.98391,-3.670062 z m 15.01562,1.214398 v 5.16e-4 l -0.97927,0.326078 0.28732,0.154514 -0.61598,2.299599 0.37207,0.41393 0.66611,-2.487186 0.96583,0.518313 0.19947,-0.744656 z m 1.31775,0.707451 -0.19947,0.744656 1.49603,0.803051 0.19947,-0.744657 z m -7.22075,1.052131 -1.65985,0.352433 -0.50539,2.467549 0.71778,0.718302 0.72089,-0.446484 0.25166,-0.773079 z m 1.71462,0.468705 -0.35553,1.092956 1.07797,0.956532 0.0305,0.997355 -1.43195,0.384472 0.19947,0.37207 2.81998,-0.756542 -0.0305,-0.997355 z m -5.8415,1.977141 -0.2527,0.407725 0.93793,0.93793 -2.77916,1.721858 3.24373,3.244246 1.25212,-0.33538 -2.90835,-2.908866 2.77916,-1.721858 -0.60771,-0.607716 -0.5731,0.354499 z m 8.19795,1.55081 -1.57458,0.421161 0.0724,2.338358 0.24132,0.45062 1.34876,-0.361735 z" />
      </g>
      <g
         id="g16024-7-2-2-4-9-6-3-2-9-1"
         style="display:inline"
         transform="translate(13.639481,-4.5465347)">
        <path
           fill="#000000"
           d="m 151.83738,51.583012 -4.45472,1.194835 1.55252,2.873166 -2.59636,0.696885 -0.10873,-3.261455 -4.38999,1.17771 -1.18551,4.42577 3.264,0.09266 -0.69816,2.604332 -2.87719,-1.535351 -1.18289,4.411314 3.21496,3.214954 1.72072,-2.779061 1.91813,1.918128 -2.77915,1.722035 3.24408,3.244075 4.39927,-1.178939 -1.54722,-2.883763 2.60823,-0.698157 0.10076,3.270653 4.43764,-1.189621 1.18564,-4.427042 -3.2707,-0.100717 0.6968,-2.601661 2.88377,1.54722 1.18301,-4.417843 -3.264,-3.26527 -1.71551,2.785759 -1.89159,-1.892991 2.77253,-1.727376 z m -2.67436,4.490625 0.48876,0.904764 -0.96962,2.955402 -2.29303,-2.081117 -0.0345,-1.025404 2.80831,-0.753687 z m 2.71557,0.710026 2.04657,2.047968 -0.55107,0.89548 -3.04399,0.638472 0.65563,-3.025557 z m -7.47914,2.012234 1.00676,0.02908 2.07446,2.316845 -2.94875,0.944525 -0.8876,-0.474255 0.75509,-2.816237 z m 9.37209,2.270386 0.89548,0.48091 -0.75369,2.813608 -1.01608,-0.03179 -2.05589,-2.286409 2.93022,-0.976232 z m -5.90275,1.759168 -0.61995,3.025599 -0.82787,0.512659 -2.07179,-2.073105 0.51266,-0.826597 3.00695,-0.638514 z m 1.71415,0.468998 2.31023,2.049282 0.0305,0.997427 -2.82031,0.756399 -0.47154,-0.879583 0.95114,-2.923525 z"
           id="path2-3-9-8-9-3-7-4-3-6-2-5"
           style="fill:#cc9900;fill-opacity:1;stroke-width:0.0423895" />
        <path
           id="path2-3-5-1-6-1-0-9-6-7-0-8-6"
           style="display:inline;fill:#b38a10;fill-opacity:1;stroke-width:0.0423894"
           d="m 151.83733,51.583044 -4.45451,1.194761 0.20102,0.371551 0.23358,-0.06253 0.0176,0.528135 1.10019,2.036051 -1.02268,0.274402 0.014,0.422714 2.59622,-0.697116 -1.55236,-2.873208 3.20291,-0.858864 z m -5.60741,1.503783 -4.38991,1.177708 -1.18546,4.425569 3.26388,0.0925 -0.49971,1.863453 0.42427,0.22634 0.55655,-2.076357 1.00666,0.02894 0.0682,0.07597 0.0315,-0.118338 -3.26388,-0.0925 1.18546,-4.425569 2.81636,-0.755509 z m 9.66246,2.551266 -1.11001,1.802993 0.98185,0.982885 1.11053,-1.80299 z m -5.14181,0.435634 -1.38647,0.372071 0.28783,0.532783 -0.60564,1.845366 1.22318,1.110009 0.45372,-1.382345 0.26251,-1.211294 0.1695,-0.105939 0.0842,-0.255797 z m 2.14354,1.066602 -0.32091,0.199988 -0.0248,0.113686 1.37666,1.377693 -0.55087,0.895554 -1.38131,0.289904 -0.0755,0.348816 3.04426,-0.63872 0.55087,-0.895554 -0.98186,-0.982369 -0.35398,0.574644 z m -6.90707,1.655712 -0.14004,0.521414 1.63349,1.824697 -1.95595,0.626316 0.59479,0.317812 2.94866,-0.944128 -2.07429,-2.317174 z m -5.64358,1.055748 -1.18287,4.411102 3.21479,3.215306 0.60719,-0.980302 -2.23448,-2.235004 0.98391,-3.670062 z m 15.01562,1.214398 v 5.16e-4 l -0.97927,0.326078 0.28732,0.154514 -0.61598,2.299599 0.37207,0.41393 0.66611,-2.487186 0.96583,0.518313 0.19947,-0.744656 z m 1.31775,0.707451 -0.19947,0.744656 1.49603,0.803051 0.19947,-0.744657 z m -7.22075,1.052131 -1.65985,0.352433 -0.50539,2.467549 0.71778,0.718302 0.72089,-0.446484 0.25166,-0.773079 z m 1.71462,0.468705 -0.35553,1.092956 1.07797,0.956532 0.0305,0.997355 -1.43195,0.384472 0.19947,0.37207 2.81998,-0.756542 -0.0305,-0.997355 z m -5.8415,1.977141 -0.2527,0.407725 0.93793,0.93793 -2.77916,1.721858 3.24373,3.244246 1.25212,-0.33538 -2.90835,-2.908866 2.77916,-1.721858 -0.60771,-0.607716 -0.5731,0.354499 z m 8.19795,1.55081 -1.57458,0.421161 0.0724,2.338358 0.24132,0.45062 1.34876,-0.361735 z" />
      </g>
      <g
         id="g16024-0-4-2-7-6-7-6-69-1-0"
         style="display:inline"
         transform="translate(28.315329,-1.2e-5)">
        <path
           fill="#000000"
           d="m 151.83738,51.583012 -4.45472,1.194835 1.55252,2.873166 -2.59636,0.696885 -0.10873,-3.261455 -4.38999,1.17771 -1.18551,4.42577 3.264,0.09266 -0.69816,2.604332 -2.87719,-1.535351 -1.18289,4.411314 3.21496,3.214954 1.72072,-2.779061 1.91813,1.918128 -2.77915,1.722035 3.24408,3.244075 4.39927,-1.178939 -1.54722,-2.883763 2.60823,-0.698157 0.10076,3.270653 4.43764,-1.189621 1.18564,-4.427042 -3.2707,-0.100717 0.6968,-2.601661 2.88377,1.54722 1.18301,-4.417843 -3.264,-3.26527 -1.71551,2.785759 -1.89159,-1.892991 2.77253,-1.727376 z m -2.67436,4.490625 0.48876,0.904764 -0.96962,2.955402 -2.29303,-2.081117 -0.0345,-1.025404 2.80831,-0.753687 z m 2.71557,0.710026 2.04657,2.047968 -0.55107,0.89548 -3.04399,0.638472 0.65563,-3.025557 z m -7.47914,2.012234 1.00676,0.02908 2.07446,2.316845 -2.94875,0.944525 -0.8876,-0.474255 0.75509,-2.816237 z m 9.37209,2.270386 0.89548,0.48091 -0.75369,2.813608 -1.01608,-0.03179 -2.05589,-2.286409 2.93022,-0.976232 z m -5.90275,1.759168 -0.61995,3.025599 -0.82787,0.512659 -2.07179,-2.073105 0.51266,-0.826597 3.00695,-0.638514 z m 1.71415,0.468998 2.31023,2.049282 0.0305,0.997427 -2.82031,0.756399 -0.47154,-0.879583 0.95114,-2.923525 z"
           id="path2-3-1-2-1-7-1-3-4-1-3-2"
           style="fill:#cc9900;fill-opacity:1;stroke-width:0.0423895" />
        <path
           id="path2-3-5-8-4-5-4-36-5-6-9-9-7"
           style="display:inline;fill:#b38a10;fill-opacity:1;stroke-width:0.0423894"
           d="m 151.83733,51.583044 -4.45451,1.194761 0.20102,0.371551 0.23358,-0.06253 0.0176,0.528135 1.10019,2.036051 -1.02268,0.274402 0.014,0.422714 2.59622,-0.697116 -1.55236,-2.873208 3.20291,-0.858864 z m -5.60741,1.503783 -4.38991,1.177708 -1.18546,4.425569 3.26388,0.0925 -0.49971,1.863453 0.42427,0.22634 0.55655,-2.076357 1.00666,0.02894 0.0682,0.07597 0.0315,-0.118338 -3.26388,-0.0925 1.18546,-4.425569 2.81636,-0.755509 z m 9.66246,2.551266 -1.11001,1.802993 0.98185,0.982885 1.11053,-1.80299 z m -5.14181,0.435634 -1.38647,0.372071 0.28783,0.532783 -0.60564,1.845366 1.22318,1.110009 0.45372,-1.382345 0.26251,-1.211294 0.1695,-0.105939 0.0842,-0.255797 z m 2.14354,1.066602 -0.32091,0.199988 -0.0248,0.113686 1.37666,1.377693 -0.55087,0.895554 -1.38131,0.289904 -0.0755,0.348816 3.04426,-0.63872 0.55087,-0.895554 -0.98186,-0.982369 -0.35398,0.574644 z m -6.90707,1.655712 -0.14004,0.521414 1.63349,1.824697 -1.95595,0.626316 0.59479,0.317812 2.94866,-0.944128 -2.07429,-2.317174 z m -5.64358,1.055748 -1.18287,4.411102 3.21479,3.215306 0.60719,-0.980302 -2.23448,-2.235004 0.98391,-3.670062 z m 15.01562,1.214398 v 5.16e-4 l -0.97927,0.326078 0.28732,0.154514 -0.61598,2.299599 0.37207,0.41393 0.66611,-2.487186 0.96583,0.518313 0.19947,-0.744656 z m 1.31775,0.707451 -0.19947,0.744656 1.49603,0.803051 0.19947,-0.744657 z m -7.22075,1.052131 -1.65985,0.352433 -0.50539,2.467549 0.71778,0.718302 0.72089,-0.446484 0.25166,-0.773079 z m 1.71462,0.468705 -0.35553,1.092956 1.07797,0.956532 0.0305,0.997355 -1.43195,0.384472 0.19947,0.37207 2.81998,-0.756542 -0.0305,-0.997355 z m -5.8415,1.977141 -0.2527,0.407725 0.93793,0.93793 -2.77916,1.721858 3.24373,3.244246 1.25212,-0.33538 -2.90835,-2.908866 2.77916,-1.721858 -0.60771,-0.607716 -0.5731,0.354499 z m 8.19795,1.55081 -1.57458,0.421161 0.0724,2.338358 0.24132,0.45062 1.34876,-0.361735 z" />
      </g>
    </g>
    <g
       id="g16088-8-4-9-6-5-0-7-7-9-1"
       transform="matrix(0.62097313,0,0,0.62097313,6.9139987,8.2750077)"
       style="display:inline">
      <g
         id="g16024-8-4-5-2-2-0-2-2-9-0">
        <path
           fill="#000000"
           d="m 151.83738,51.583012 -4.45472,1.194835 1.55252,2.873166 -2.59636,0.696885 -0.10873,-3.261455 -4.38999,1.17771 -1.18551,4.42577 3.264,0.09266 -0.69816,2.604332 -2.87719,-1.535351 -1.18289,4.411314 3.21496,3.214954 1.72072,-2.779061 1.91813,1.918128 -2.77915,1.722035 3.24408,3.244075 4.39927,-1.178939 -1.54722,-2.883763 2.60823,-0.698157 0.10076,3.270653 4.43764,-1.189621 1.18564,-4.427042 -3.2707,-0.100717 0.6968,-2.601661 2.88377,1.54722 1.18301,-4.417843 -3.264,-3.26527 -1.71551,2.785759 -1.89159,-1.892991 2.77253,-1.727376 z m -2.67436,4.490625 0.48876,0.904764 -0.96962,2.955402 -2.29303,-2.081117 -0.0345,-1.025404 2.80831,-0.753687 z m 2.71557,0.710026 2.04657,2.047968 -0.55107,0.89548 -3.04399,0.638472 0.65563,-3.025557 z m -7.47914,2.012234 1.00676,0.02908 2.07446,2.316845 -2.94875,0.944525 -0.8876,-0.474255 0.75509,-2.816237 z m 9.37209,2.270386 0.89548,0.48091 -0.75369,2.813608 -1.01608,-0.03179 -2.05589,-2.286409 2.93022,-0.976232 z m -5.90275,1.759168 -0.61995,3.025599 -0.82787,0.512659 -2.07179,-2.073105 0.51266,-0.826597 3.00695,-0.638514 z m 1.71415,0.468998 2.31023,2.049282 0.0305,0.997427 -2.82031,0.756399 -0.47154,-0.879583 0.95114,-2.923525 z"
           id="path2-3-59-46-1-16-1-8-0-1-8-5"
           style="fill:#cc9900;fill-opacity:1;stroke-width:0.0423895" />
        <path
           id="path2-3-5-0-1-1-9-2-9-3-0-5-6"
           style="display:inline;fill:#b38a10;fill-opacity:1;stroke-width:0.0423894"
           d="m 151.83733,51.583044 -4.45451,1.194761 0.20102,0.371551 0.23358,-0.06253 0.0176,0.528135 1.10019,2.036051 -1.02268,0.274402 0.014,0.422714 2.59622,-0.697116 -1.55236,-2.873208 3.20291,-0.858864 z m -5.60741,1.503783 -4.38991,1.177708 -1.18546,4.425569 3.26388,0.0925 -0.49971,1.863453 0.42427,0.22634 0.55655,-2.076357 1.00666,0.02894 0.0682,0.07597 0.0315,-0.118338 -3.26388,-0.0925 1.18546,-4.425569 2.81636,-0.755509 z m 9.66246,2.551266 -1.11001,1.802993 0.98185,0.982885 1.11053,-1.80299 z m -5.14181,0.435634 -1.38647,0.372071 0.28783,0.532783 -0.60564,1.845366 1.22318,1.110009 0.45372,-1.382345 0.26251,-1.211294 0.1695,-0.105939 0.0842,-0.255797 z m 2.14354,1.066602 -0.32091,0.199988 -0.0248,0.113686 1.37666,1.377693 -0.55087,0.895554 -1.38131,0.289904 -0.0755,0.348816 3.04426,-0.63872 0.55087,-0.895554 -0.98186,-0.982369 -0.35398,0.574644 z m -6.90707,1.655712 -0.14004,0.521414 1.63349,1.824697 -1.95595,0.626316 0.59479,0.317812 2.94866,-0.944128 -2.07429,-2.317174 z m -5.64358,1.055748 -1.18287,4.411102 3.21479,3.215306 0.60719,-0.980302 -2.23448,-2.235004 0.98391,-3.670062 z m 15.01562,1.214398 v 5.16e-4 l -0.97927,0.326078 0.28732,0.154514 -0.61598,2.299599 0.37207,0.41393 0.66611,-2.487186 0.96583,0.518313 0.19947,-0.744656 z m 1.31775,0.707451 -0.19947,0.744656 1.49603,0.803051 0.19947,-0.744657 z m -7.22075,1.052131 -1.65985,0.352433 -0.50539,2.467549 0.71778,0.718302 0.72089,-0.446484 0.25166,-0.773079 z m 1.71462,0.468705 -0.35553,1.092956 1.07797,0.956532 0.0305,0.997355 -1.43195,0.384472 0.19947,0.37207 2.81998,-0.756542 -0.0305,-0.997355 z m -5.8415,1.977141 -0.2527,0.407725 0.93793,0.93793 -2.77916,1.721858 3.24373,3.244246 1.25212,-0.33538 -2.90835,-2.908866 2.77916,-1.721858 -0.60771,-0.607716 -0.5731,0.354499 z m 8.19795,1.55081 -1.57458,0.421161 0.0724,2.338358 0.24132,0.45062 1.34876,-0.361735 z" />
      </g>
      <g
         id="g16024-7-2-2-4-9-6-3-2-9-1-1"
         style="display:inline"
         transform="translate(13.639481,-4.5465347)">
        <path
           fill="#000000"
           d="m 151.83738,51.583012 -4.45472,1.194835 1.55252,2.873166 -2.59636,0.696885 -0.10873,-3.261455 -4.38999,1.17771 -1.18551,4.42577 3.264,0.09266 -0.69816,2.604332 -2.87719,-1.535351 -1.18289,4.411314 3.21496,3.214954 1.72072,-2.779061 1.91813,1.918128 -2.77915,1.722035 3.24408,3.244075 4.39927,-1.178939 -1.54722,-2.883763 2.60823,-0.698157 0.10076,3.270653 4.43764,-1.189621 1.18564,-4.427042 -3.2707,-0.100717 0.6968,-2.601661 2.88377,1.54722 1.18301,-4.417843 -3.264,-3.26527 -1.71551,2.785759 -1.89159,-1.892991 2.77253,-1.727376 z m -2.67436,4.490625 0.48876,0.904764 -0.96962,2.955402 -2.29303,-2.081117 -0.0345,-1.025404 2.80831,-0.753687 z m 2.71557,0.710026 2.04657,2.047968 -0.55107,0.89548 -3.04399,0.638472 0.65563,-3.025557 z m -7.47914,2.012234 1.00676,0.02908 2.07446,2.316845 -2.94875,0.944525 -0.8876,-0.474255 0.75509,-2.816237 z m 9.37209,2.270386 0.89548,0.48091 -0.75369,2.813608 -1.01608,-0.03179 -2.05589,-2.286409 2.93022,-0.976232 z m -5.90275,1.759168 -0.61995,3.025599 -0.82787,0.512659 -2.07179,-2.073105 0.51266,-0.826597 3.00695,-0.638514 z m 1.71415,0.468998 2.31023,2.049282 0.0305,0.997427 -2.82031,0.756399 -0.47154,-0.879583 0.95114,-2.923525 z"
           id="path2-3-9-8-9-3-7-4-3-6-2-5-3"
           style="fill:#cc9900;fill-opacity:1;stroke-width:0.0423895" />
        <path
           id="path2-3-5-1-6-1-0-9-6-7-0-8-6-4"
           style="display:inline;fill:#b38a10;fill-opacity:1;stroke-width:0.0423894"
           d="m 151.83733,51.583044 -4.45451,1.194761 0.20102,0.371551 0.23358,-0.06253 0.0176,0.528135 1.10019,2.036051 -1.02268,0.274402 0.014,0.422714 2.59622,-0.697116 -1.55236,-2.873208 3.20291,-0.858864 z m -5.60741,1.503783 -4.38991,1.177708 -1.18546,4.425569 3.26388,0.0925 -0.49971,1.863453 0.42427,0.22634 0.55655,-2.076357 1.00666,0.02894 0.0682,0.07597 0.0315,-0.118338 -3.26388,-0.0925 1.18546,-4.425569 2.81636,-0.755509 z m 9.66246,2.551266 -1.11001,1.802993 0.98185,0.982885 1.11053,-1.80299 z m -5.14181,0.435634 -1.38647,0.372071 0.28783,0.532783 -0.60564,1.845366 1.22318,1.110009 0.45372,-1.382345 0.26251,-1.211294 0.1695,-0.105939 0.0842,-0.255797 z m 2.14354,1.066602 -0.32091,0.199988 -0.0248,0.113686 1.37666,1.377693 -0.55087,0.895554 -1.38131,0.289904 -0.0755,0.348816 3.04426,-0.63872 0.55087,-0.895554 -0.98186,-0.982369 -0.35398,0.574644 z m -6.90707,1.655712 -0.14004,0.521414 1.63349,1.824697 -1.95595,0.626316 0.59479,0.317812 2.94866,-0.944128 -2.07429,-2.317174 z m -5.64358,1.055748 -1.18287,4.411102 3.21479,3.215306 0.60719,-0.980302 -2.23448,-2.235004 0.98391,-3.670062 z m 15.01562,1.214398 v 5.16e-4 l -0.97927,0.326078 0.28732,0.154514 -0.61598,2.299599 0.37207,0.41393 0.66611,-2.487186 0.96583,0.518313 0.19947,-0.744656 z m 1.31775,0.707451 -0.19947,0.744656 1.49603,0.803051 0.19947,-0.744657 z m -7.22075,1.052131 -1.65985,0.352433 -0.50539,2.467549 0.71778,0.718302 0.72089,-0.446484 0.25166,-0.773079 z m 1.71462,0.468705 -0.35553,1.092956 1.07797,0.956532 0.0305,0.997355 -1.43195,0.384472 0.19947,0.37207 2.81998,-0.756542 -0.0305,-0.997355 z m -5.8415,1.977141 -0.2527,0.407725 0.93793,0.93793 -2.77916,1.721858 3.24373,3.244246 1.25212,-0.33538 -2.90835,-2.908866 2.77916,-1.721858 -0.60771,-0.607716 -0.5731,0.354499 z m 8.19795,1.55081 -1.57458,0.421161 0.0724,2.338358 0.24132,0.45062 1.34876,-0.361735 z" />
      </g>
      <g
         id="g16024-0-4-2-7-6-7-6-69-1-0-7"
         style="display:inline"
         transform="translate(28.315329,-1.2e-5)">
        <path
           fill="#000000"
           d="m 151.83738,51.583012 -4.45472,1.194835 1.55252,2.873166 -2.59636,0.696885 -0.10873,-3.261455 -4.38999,1.17771 -1.18551,4.42577 3.264,0.09266 -0.69816,2.604332 -2.87719,-1.535351 -1.18289,4.411314 3.21496,3.214954 1.72072,-2.779061 1.91813,1.918128 -2.77915,1.722035 3.24408,3.244075 4.39927,-1.178939 -1.54722,-2.883763 2.60823,-0.698157 0.10076,3.270653 4.43764,-1.189621 1.18564,-4.427042 -3.2707,-0.100717 0.6968,-2.601661 2.88377,1.54722 1.18301,-4.417843 -3.264,-3.26527 -1.71551,2.785759 -1.89159,-1.892991 2.77253,-1.727376 z m -2.67436,4.490625 0.48876,0.904764 -0.96962,2.955402 -2.29303,-2.081117 -0.0345,-1.025404 2.80831,-0.753687 z m 2.71557,0.710026 2.04657,2.047968 -0.55107,0.89548 -3.04399,0.638472 0.65563,-3.025557 z m -7.47914,2.012234 1.00676,0.02908 2.07446,2.316845 -2.94875,0.944525 -0.8876,-0.474255 0.75509,-2.816237 z m 9.37209,2.270386 0.89548,0.48091 -0.75369,2.813608 -1.01608,-0.03179 -2.05589,-2.286409 2.93022,-0.976232 z m -5.90275,1.759168 -0.61995,3.025599 -0.82787,0.512659 -2.07179,-2.073105 0.51266,-0.826597 3.00695,-0.638514 z m 1.71415,0.468998 2.31023,2.049282 0.0305,0.997427 -2.82031,0.756399 -0.47154,-0.879583 0.95114,-2.923525 z"
           id="path2-3-1-2-1-7-1-3-4-1-3-2-0"
           style="fill:#cc9900;fill-opacity:1;stroke-width:0.0423895" />
        <path
           id="path2-3-5-8-4-5-4-36-5-6-9-9-7-5"
           style="display:inline;fill:#b38a10;fill-opacity:1;stroke-width:0.0423894"
           d="m 151.83733,51.583044 -4.45451,1.194761 0.20102,0.371551 0.23358,-0.06253 0.0176,0.528135 1.10019,2.036051 -1.02268,0.274402 0.014,0.422714 2.59622,-0.697116 -1.55236,-2.873208 3.20291,-0.858864 z m -5.60741,1.503783 -4.38991,1.177708 -1.18546,4.425569 3.26388,0.0925 -0.49971,1.863453 0.42427,0.22634 0.55655,-2.076357 1.00666,0.02894 0.0682,0.07597 0.0315,-0.118338 -3.26388,-0.0925 1.18546,-4.425569 2.81636,-0.755509 z m 9.66246,2.551266 -1.11001,1.802993 0.98185,0.982885 1.11053,-1.80299 z m -5.14181,0.435634 -1.38647,0.372071 0.28783,0.532783 -0.60564,1.845366 1.22318,1.110009 0.45372,-1.382345 0.26251,-1.211294 0.1695,-0.105939 0.0842,-0.255797 z m 2.14354,1.066602 -0.32091,0.199988 -0.0248,0.113686 1.37666,1.377693 -0.55087,0.895554 -1.38131,0.289904 -0.0755,0.348816 3.04426,-0.63872 0.55087,-0.895554 -0.98186,-0.982369 -0.35398,0.574644 z m -6.90707,1.655712 -0.14004,0.521414 1.63349,1.824697 -1.95595,0.626316 0.59479,0.317812 2.94866,-0.944128 -2.07429,-2.317174 z m -5.64358,1.055748 -1.18287,4.411102 3.21479,3.215306 0.60719,-0.980302 -2.23448,-2.235004 0.98391,-3.670062 z m 15.01562,1.214398 v 5.16e-4 l -0.97927,0.326078 0.28732,0.154514 -0.61598,2.299599 0.37207,0.41393 0.66611,-2.487186 0.96583,0.518313 0.19947,-0.744656 z m 1.31775,0.707451 -0.19947,0.744656 1.49603,0.803051 0.19947,-0.744657 z m -7.22075,1.052131 -1.65985,0.352433 -0.50539,2.467549 0.71778,0.718302 0.72089,-0.446484 0.25166,-0.773079 z m 1.71462,0.468705 -0.35553,1.092956 1.07797,0.956532 0.0305,0.997355 -1.43195,0.384472 0.19947,0.37207 2.81998,-0.756542 -0.0305,-0.997355 z m -5.8415,1.977141 -0.2527,0.407725 0.93793,0.93793 -2.77916,1.721858 3.24373,3.244246 1.25212,-0.33538 -2.90835,-2.908866 2.77916,-1.721858 -0.60771,-0.607716 -0.5731,0.354499 z m 8.19795,1.55081 -1.57458,0.421161 0.0724,2.338358 0.24132,0.45062 1.34876,-0.361735 z" />
      </g>
    </g>
    <g
       id="g16088-8-4-9-6-5-0-7-7-9-1-4"
       transform="matrix(0.62097313,0,0,0.62097313,-43.043396,-27.771052)"
       style="display:inline">
      <g
         id="g16024-8-4-5-2-2-0-2-2-9-0-5">
        <path
           fill="#000000"
           d="m 151.83738,51.583012 -4.45472,1.194835 1.55252,2.873166 -2.59636,0.696885 -0.10873,-3.261455 -4.38999,1.17771 -1.18551,4.42577 3.264,0.09266 -0.69816,2.604332 -2.87719,-1.535351 -1.18289,4.411314 3.21496,3.214954 1.72072,-2.779061 1.91813,1.918128 -2.77915,1.722035 3.24408,3.244075 4.39927,-1.178939 -1.54722,-2.883763 2.60823,-0.698157 0.10076,3.270653 4.43764,-1.189621 1.18564,-4.427042 -3.2707,-0.100717 0.6968,-2.601661 2.88377,1.54722 1.18301,-4.417843 -3.264,-3.26527 -1.71551,2.785759 -1.89159,-1.892991 2.77253,-1.727376 z m -2.67436,4.490625 0.48876,0.904764 -0.96962,2.955402 -2.29303,-2.081117 -0.0345,-1.025404 2.80831,-0.753687 z m 2.71557,0.710026 2.04657,2.047968 -0.55107,0.89548 -3.04399,0.638472 0.65563,-3.025557 z m -7.47914,2.012234 1.00676,0.02908 2.07446,2.316845 -2.94875,0.944525 -0.8876,-0.474255 0.75509,-2.816237 z m 9.37209,2.270386 0.89548,0.48091 -0.75369,2.813608 -1.01608,-0.03179 -2.05589,-2.286409 2.93022,-0.976232 z m -5.90275,1.759168 -0.61995,3.025599 -0.82787,0.512659 -2.07179,-2.073105 0.51266,-0.826597 3.00695,-0.638514 z m 1.71415,0.468998 2.31023,2.049282 0.0305,0.997427 -2.82031,0.756399 -0.47154,-0.879583 0.95114,-2.923525 z"
           id="path2-3-59-46-1-16-1-8-0-1-8-5-2"
           style="fill:#cc9900;fill-opacity:1;stroke-width:0.0423895" />
        <path
           id="path2-3-5-0-1-1-9-2-9-3-0-5-6-0"
           style="display:inline;fill:#b38a10;fill-opacity:1;stroke-width:0.0423894"
           d="m 151.83733,51.583044 -4.45451,1.194761 0.20102,0.371551 0.23358,-0.06253 0.0176,0.528135 1.10019,2.036051 -1.02268,0.274402 0.014,0.422714 2.59622,-0.697116 -1.55236,-2.873208 3.20291,-0.858864 z m -5.60741,1.503783 -4.38991,1.177708 -1.18546,4.425569 3.26388,0.0925 -0.49971,1.863453 0.42427,0.22634 0.55655,-2.076357 1.00666,0.02894 0.0682,0.07597 0.0315,-0.118338 -3.26388,-0.0925 1.18546,-4.425569 2.81636,-0.755509 z m 9.66246,2.551266 -1.11001,1.802993 0.98185,0.982885 1.11053,-1.80299 z m -5.14181,0.435634 -1.38647,0.372071 0.28783,0.532783 -0.60564,1.845366 1.22318,1.110009 0.45372,-1.382345 0.26251,-1.211294 0.1695,-0.105939 0.0842,-0.255797 z m 2.14354,1.066602 -0.32091,0.199988 -0.0248,0.113686 1.37666,1.377693 -0.55087,0.895554 -1.38131,0.289904 -0.0755,0.348816 3.04426,-0.63872 0.55087,-0.895554 -0.98186,-0.982369 -0.35398,0.574644 z m -6.90707,1.655712 -0.14004,0.521414 1.63349,1.824697 -1.95595,0.626316 0.59479,0.317812 2.94866,-0.944128 -2.07429,-2.317174 z m -5.64358,1.055748 -1.18287,4.411102 3.21479,3.215306 0.60719,-0.980302 -2.23448,-2.235004 0.98391,-3.670062 z m 15.01562,1.214398 v 5.16e-4 l -0.97927,0.326078 0.28732,0.154514 -0.61598,2.299599 0.37207,0.41393 0.66611,-2.487186 0.96583,0.518313 0.19947,-0.744656 z m 1.31775,0.707451 -0.19947,0.744656 1.49603,0.803051 0.19947,-0.744657 z m -7.22075,1.052131 -1.65985,0.352433 -0.50539,2.467549 0.71778,0.718302 0.72089,-0.446484 0.25166,-0.773079 z m 1.71462,0.468705 -0.35553,1.092956 1.07797,0.956532 0.0305,0.997355 -1.43195,0.384472 0.19947,0.37207 2.81998,-0.756542 -0.0305,-0.997355 z m -5.8415,1.977141 -0.2527,0.407725 0.93793,0.93793 -2.77916,1.721858 3.24373,3.244246 1.25212,-0.33538 -2.90835,-2.908866 2.77916,-1.721858 -0.60771,-0.607716 -0.5731,0.354499 z m 8.19795,1.55081 -1.57458,0.421161 0.0724,2.338358 0.24132,0.45062 1.34876,-0.361735 z" />
      </g>
      <g
         id="g16024-7-2-2-4-9-6-3-2-9-1-1-7"
         style="display:inline"
         transform="translate(13.639481,-4.5465347)">
        <path
           fill="#000000"
           d="m 151.83738,51.583012 -4.45472,1.194835 1.55252,2.873166 -2.59636,0.696885 -0.10873,-3.261455 -4.38999,1.17771 -1.18551,4.42577 3.264,0.09266 -0.69816,2.604332 -2.87719,-1.535351 -1.18289,4.411314 3.21496,3.214954 1.72072,-2.779061 1.91813,1.918128 -2.77915,1.722035 3.24408,3.244075 4.39927,-1.178939 -1.54722,-2.883763 2.60823,-0.698157 0.10076,3.270653 4.43764,-1.189621 1.18564,-4.427042 -3.2707,-0.100717 0.6968,-2.601661 2.88377,1.54722 1.18301,-4.417843 -3.264,-3.26527 -1.71551,2.785759 -1.89159,-1.892991 2.77253,-1.727376 z m -2.67436,4.490625 0.48876,0.904764 -0.96962,2.955402 -2.29303,-2.081117 -0.0345,-1.025404 2.80831,-0.753687 z m 2.71557,0.710026 2.04657,2.047968 -0.55107,0.89548 -3.04399,0.638472 0.65563,-3.025557 z m -7.47914,2.012234 1.00676,0.02908 2.07446,2.316845 -2.94875,0.944525 -0.8876,-0.474255 0.75509,-2.816237 z m 9.37209,2.270386 0.89548,0.48091 -0.75369,2.813608 -1.01608,-0.03179 -2.05589,-2.286409 2.93022,-0.976232 z m -5.90275,1.759168 -0.61995,3.025599 -0.82787,0.512659 -2.07179,-2.073105 0.51266,-0.826597 3.00695,-0.638514 z m 1.71415,0.468998 2.31023,2.049282 0.0305,0.997427 -2.82031,0.756399 -0.47154,-0.879583 0.95114,-2.923525 z"
           id="path2-3-9-8-9-3-7-4-3-6-2-5-3-3"
           style="fill:#cc9900;fill-opacity:1;stroke-width:0.0423895" />
        <path
           id="path2-3-5-1-6-1-0-9-6-7-0-8-6-4-5"
           style="display:inline;fill:#b38a10;fill-opacity:1;stroke-width:0.0423894"
           d="m 151.83733,51.583044 -4.45451,1.194761 0.20102,0.371551 0.23358,-0.06253 0.0176,0.528135 1.10019,2.036051 -1.02268,0.274402 0.014,0.422714 2.59622,-0.697116 -1.55236,-2.873208 3.20291,-0.858864 z m -5.60741,1.503783 -4.38991,1.177708 -1.18546,4.425569 3.26388,0.0925 -0.49971,1.863453 0.42427,0.22634 0.55655,-2.076357 1.00666,0.02894 0.0682,0.07597 0.0315,-0.118338 -3.26388,-0.0925 1.18546,-4.425569 2.81636,-0.755509 z m 9.66246,2.551266 -1.11001,1.802993 0.98185,0.982885 1.11053,-1.80299 z m -5.14181,0.435634 -1.38647,0.372071 0.28783,0.532783 -0.60564,1.845366 1.22318,1.110009 0.45372,-1.382345 0.26251,-1.211294 0.1695,-0.105939 0.0842,-0.255797 z m 2.14354,1.066602 -0.32091,0.199988 -0.0248,0.113686 1.37666,1.377693 -0.55087,0.895554 -1.38131,0.289904 -0.0755,0.348816 3.04426,-0.63872 0.55087,-0.895554 -0.98186,-0.982369 -0.35398,0.574644 z m -6.90707,1.655712 -0.14004,0.521414 1.63349,1.824697 -1.95595,0.626316 0.59479,0.317812 2.94866,-0.944128 -2.07429,-2.317174 z m -5.64358,1.055748 -1.18287,4.411102 3.21479,3.215306 0.60719,-0.980302 -2.23448,-2.235004 0.98391,-3.670062 z m 15.01562,1.214398 v 5.16e-4 l -0.97927,0.326078 0.28732,0.154514 -0.61598,2.299599 0.37207,0.41393 0.66611,-2.487186 0.96583,0.518313 0.19947,-0.744656 z m 1.31775,0.707451 -0.19947,0.744656 1.49603,0.803051 0.19947,-0.744657 z m -7.22075,1.052131 -1.65985,0.352433 -0.50539,2.467549 0.71778,0.718302 0.72089,-0.446484 0.25166,-0.773079 z m 1.71462,0.468705 -0.35553,1.092956 1.07797,0.956532 0.0305,0.997355 -1.43195,0.384472 0.19947,0.37207 2.81998,-0.756542 -0.0305,-0.997355 z m -5.8415,1.977141 -0.2527,0.407725 0.93793,0.93793 -2.77916,1.721858 3.24373,3.244246 1.25212,-0.33538 -2.90835,-2.908866 2.77916,-1.721858 -0.60771,-0.607716 -0.5731,0.354499 z m 8.19795,1.55081 -1.57458,0.421161 0.0724,2.338358 0.24132,0.45062 1.34876,-0.361735 z" />
      </g>
      <g
         id="g16024-0-4-2-7-6-7-6-69-1-0-7-7"
         style="display:inline"
         transform="translate(28.315329,-1.2e-5)">
        <path
           fill="#000000"
           d="m 151.83738,51.583012 -4.45472,1.194835 1.55252,2.873166 -2.59636,0.696885 -0.10873,-3.261455 -4.38999,1.17771 -1.18551,4.42577 3.264,0.09266 -0.69816,2.604332 -2.87719,-1.535351 -1.18289,4.411314 3.21496,3.214954 1.72072,-2.779061 1.91813,1.918128 -2.77915,1.722035 3.24408,3.244075 4.39927,-1.178939 -1.54722,-2.883763 2.60823,-0.698157 0.10076,3.270653 4.43764,-1.189621 1.18564,-4.427042 -3.2707,-0.100717 0.6968,-2.601661 2.88377,1.54722 1.18301,-4.417843 -3.264,-3.26527 -1.71551,2.785759 -1.89159,-1.892991 2.77253,-1.727376 z m -2.67436,4.490625 0.48876,0.904764 -0.96962,2.955402 -2.29303,-2.081117 -0.0345,-1.025404 2.80831,-0.753687 z m 2.71557,0.710026 2.04657,2.047968 -0.55107,0.89548 -3.04399,0.638472 0.65563,-3.025557 z m -7.47914,2.012234 1.00676,0.02908 2.07446,2.316845 -2.94875,0.944525 -0.8876,-0.474255 0.75509,-2.816237 z m 9.37209,2.270386 0.89548,0.48091 -0.75369,2.813608 -1.01608,-0.03179 -2.05589,-2.286409 2.93022,-0.976232 z m -5.90275,1.759168 -0.61995,3.025599 -0.82787,0.512659 -2.07179,-2.073105 0.51266,-0.826597 3.00695,-0.638514 z m 1.71415,0.468998 2.31023,2.049282 0.0305,0.997427 -2.82031,0.756399 -0.47154,-0.879583 0.95114,-2.923525 z"
           id="path2-3-1-2-1-7-1-3-4-1-3-2-0-4"
           style="fill:#cc9900;fill-opacity:1;stroke-width:0.0423895" />
        <path
           id="path2-3-5-8-4-5-4-36-5-6-9-9-7-5-9"
           style="display:inline;fill:#b38a10;fill-opacity:1;stroke-width:0.0423894"
           d="m 151.83733,51.583044 -4.45451,1.194761 0.20102,0.371551 0.23358,-0.06253 0.0176,0.528135 1.10019,2.036051 -1.02268,0.274402 0.014,0.422714 2.59622,-0.697116 -1.55236,-2.873208 3.20291,-0.858864 z m -5.60741,1.503783 -4.38991,1.177708 -1.18546,4.425569 3.26388,0.0925 -0.49971,1.863453 0.42427,0.22634 0.55655,-2.076357 1.00666,0.02894 0.0682,0.07597 0.0315,-0.118338 -3.26388,-0.0925 1.18546,-4.425569 2.81636,-0.755509 z m 9.66246,2.551266 -1.11001,1.802993 0.98185,0.982885 1.11053,-1.80299 z m -5.14181,0.435634 -1.38647,0.372071 0.28783,0.532783 -0.60564,1.845366 1.22318,1.110009 0.45372,-1.382345 0.26251,-1.211294 0.1695,-0.105939 0.0842,-0.255797 z m 2.14354,1.066602 -0.32091,0.199988 -0.0248,0.113686 1.37666,1.377693 -0.55087,0.895554 -1.38131,0.289904 -0.0755,0.348816 3.04426,-0.63872 0.55087,-0.895554 -0.98186,-0.982369 -0.35398,0.574644 z m -6.90707,1.655712 -0.14004,0.521414 1.63349,1.824697 -1.95595,0.626316 0.59479,0.317812 2.94866,-0.944128 -2.07429,-2.317174 z m -5.64358,1.055748 -1.18287,4.411102 3.21479,3.215306 0.60719,-0.980302 -2.23448,-2.235004 0.98391,-3.670062 z m 15.01562,1.214398 v 5.16e-4 l -0.97927,0.326078 0.28732,0.154514 -0.61598,2.299599 0.37207,0.41393 0.66611,-2.487186 0.96583,0.518313 0.19947,-0.744656 z m 1.31775,0.707451 -0.19947,0.744656 1.49603,0.803051 0.19947,-0.744657 z m -7.22075,1.052131 -1.65985,0.352433 -0.50539,2.467549 0.71778,0.718302 0.72089,-0.446484 0.25166,-0.773079 z m 1.71462,0.468705 -0.35553,1.092956 1.07797,0.956532 0.0305,0.997355 -1.43195,0.384472 0.19947,0.37207 2.81998,-0.756542 -0.0305,-0.997355 z m -5.8415,1.977141 -0.2527,0.407725 0.93793,0.93793 -2.77916,1.721858 3.24373,3.244246 1.25212,-0.33538 -2.90835,-2.908866 2.77916,-1.721858 -0.60771,-0.607716 -0.5731,0.354499 z m 8.19795,1.55081 -1.57458,0.421161 0.0724,2.338358 0.24132,0.45062 1.34876,-0.361735 z" />
      </g>
    </g>
  </g>
</svg>
