<?xml version="1.0" encoding="UTF-8" standalone="no"?>
<!-- Created with Inkscape (http://www.inkscape.org/) -->

<svg
   width="500"
   height="500"
   viewBox="0 0 132.29166 132.29167"
   version="1.1"
   id="svg2515"
   inkscape:version="1.1.2 (b8e25be833, 2022-02-05)"
   sodipodi:docname="bonsai07s02normal.svg"
   inkscape:export-filename="C:\Users\Lenovo\Desktop\Coding\Media files\Bonsais\bonsai07.png"
   inkscape:export-xdpi="96"
   inkscape:export-ydpi="96"
   xmlns:inkscape="http://www.inkscape.org/namespaces/inkscape"
   xmlns:sodipodi="http://sodipodi.sourceforge.net/DTD/sodipodi-0.dtd"
   xmlns="http://www.w3.org/2000/svg"
   xmlns:svg="http://www.w3.org/2000/svg">
  <sodipodi:namedview
     id="namedview2517"
     pagecolor="#ffffff"
     bordercolor="#666666"
     borderopacity="1.0"
     inkscape:pageshadow="2"
     inkscape:pageopacity="0.0"
     inkscape:pagecheckerboard="0"
     inkscape:document-units="mm"
     showgrid="false"
     units="px"
     inkscape:zoom="1.4142136"
     inkscape:cx="272.58966"
     inkscape:cy="252.08356"
     inkscape:window-width="1920"
     inkscape:window-height="1001"
     inkscape:window-x="-9"
     inkscape:window-y="-9"
     inkscape:window-maximized="1"
     inkscape:current-layer="g17385" />
  <defs
     id="defs2512">
    <marker
       style="overflow:visible"
       id="Arrow1Sstart"
       refX="0.0"
       refY="0.0"
       orient="auto"
       inkscape:stockid="Arrow1Sstart"
       inkscape:isstock="true">
      <path
         transform="scale(0.2) translate(6,0)"
         style="fill-rule:evenodd;fill:context-stroke;stroke:context-stroke;stroke-width:1.0pt"
         d="M 0.0,0.0 L 5.0,-5.0 L -12.5,0.0 L 5.0,5.0 L 0.0,0.0 z "
         id="path24092" />
    </marker>
    <marker
       style="overflow:visible"
       id="Arrow1Mstart"
       refX="0.0"
       refY="0.0"
       orient="auto"
       inkscape:stockid="Arrow1Mstart"
       inkscape:isstock="true">
      <path
         transform="scale(0.4) translate(10,0)"
         style="fill-rule:evenodd;fill:context-stroke;stroke:context-stroke;stroke-width:1.0pt"
         d="M 0.0,0.0 L 5.0,-5.0 L -12.5,0.0 L 5.0,5.0 L 0.0,0.0 z "
         id="path24086" />
    </marker>
    <marker
       style="overflow:visible"
       id="Arrow1Lstart"
       refX="0.0"
       refY="0.0"
       orient="auto"
       inkscape:stockid="Arrow1Lstart"
       inkscape:isstock="true">
      <path
         transform="scale(0.8) translate(12.5,0)"
         style="fill-rule:evenodd;fill:context-stroke;stroke:context-stroke;stroke-width:1.0pt"
         d="M 0.0,0.0 L 5.0,-5.0 L -12.5,0.0 L 5.0,5.0 L 0.0,0.0 z "
         id="path24080" />
    </marker>
    <marker
       style="overflow:visible;"
       id="Arrow1Lend"
       refX="0.0"
       refY="0.0"
       orient="auto"
       inkscape:stockid="Arrow1Lend"
       inkscape:isstock="true">
      <path
         transform="scale(0.8) rotate(180) translate(12.5,0)"
         style="fill-rule:evenodd;fill:context-stroke;stroke:context-stroke;stroke-width:1.0pt;"
         d="M 0.0,0.0 L 5.0,-5.0 L -12.5,0.0 L 5.0,5.0 L 0.0,0.0 z "
         id="path24083" />
    </marker>
  </defs>
  <g
     inkscape:label="Informal Upright Style"
     inkscape:groupmode="layer"
     id="g17385"
     style="display:inline">
    <g
       id="g17299"
       transform="translate(157.36058,-8.4372489)"
       style="display:inline">
      <g
         id="g17297"
         transform="translate(-99.28418,15.207661)">
        <path
           style="display:inline;fill:#c49078;fill-opacity:1;stroke:#c49078;stroke-width:1;stroke-linecap:round;stroke-linejoin:round;stroke-miterlimit:4;stroke-dasharray:none;stroke-opacity:1"
           d="m 1.3438111,105.02403 c 0,0 1.67276,-4.3889 -5.29634,-12.902323 -5.77031,-7.049 -13.8088901,-10.89145 -10.0810001,-22.220767 2.98845,-9.082106 31.71641,-16.843433 36.92376,-22.50005 9.82115,-10.668487 4.67956,-12.619651 -1.58353,-22.120096 C 16.120271,17.413522 8.0705011,20.957555 7.7574611,9.5870616 14.803541,20.119696 25.572371,18.866153 27.251611,28.55162 c 3.25423,4.596313 8.98302,11.718683 5.98525,14.797826 -2.2954,2.357716 -9.08519,15.422411 -20.03503,17.643247 -9.5903099,1.945097 -16.1629199,12.6144 -16.1629199,12.6144 -0.83876,8.885304 16.1910099,9.784984 21.9744099,18.254694 5.64474,8.266633 8.35928,5.77528 10.95842,12.103913 1.20531,2.9348 -28.6279299,1.05833 -28.6279299,1.05833 z"
           id="path17293"
           sodipodi:nodetypes="cssssccsssssc" />
        <path
           id="path17295"
           style="display:inline;fill:#996a5a;fill-opacity:1;stroke:#996a5a;stroke-width:3.77953;stroke-linecap:round;stroke-linejoin:round;stroke-miterlimit:4;stroke-dasharray:none;stroke-opacity:1"
           d="m 616.93555,1.8886719 c 0.55432,20.1347921 7.52722,27.8974661 16.79883,33.5175781 -5.45695,-5.012127 -9.35289,-12.21383 -10.31641,-24.990234 -2.22889,-2.6069221 -4.40217,-5.4177306 -6.48242,-8.5273441 z m 41.48828,48.2539061 c 3.39981,2.902953 6.69017,6.465507 9.7207,11.0625 23.67153,35.907194 43.10565,43.281672 5.98633,83.603512 -19.68132,21.37934 -128.25976,50.713 -139.55469,85.03907 -14.08966,42.81948 16.29251,57.34248 38.10156,83.98437 26.33989,32.17671 20.01758,48.76367 20.01758,48.76367 0,0 2.85378,0.16826 6.91797,0.39063 0.26375,-6.79288 -1.99109,-21.72151 -20.65039,-44.51563 -21.80905,-26.64189 -52.19123,-41.16294 -38.10156,-83.98242 11.29493,-34.32607 119.87336,-63.66167 139.55469,-85.04101 37.11932,-40.32185 17.68519,-47.69633 -5.98633,-83.60352 -4.87199,-7.390285 -10.41195,-12.111719 -16.00586,-15.701172 z"
           transform="matrix(0.26458333,0,0,0.26458333,-155.47346,9.0871833)"
           sodipodi:nodetypes="cccccssssccssssc" />
      </g>
    </g>
    <g
       id="g14957-5-87"
       transform="matrix(0.93685654,0,0,1.0593526,-79.03971,65.387834)"
       style="display:inline">
      <path
         d="m 190.04491,46.908858 h -66.294 l -0.007,0.02822 c 0,0 0.52564,4.205111 2.794,8.015111 1.87325,3.150306 5.31989,5.044722 8.99583,5.044722 h 39.38764 c 7.47536,0 13.87828,-5.383389 15.08125,-12.738805 0.0318,-0.204611 0.0494,-0.321028 0.0494,-0.321028 l -0.007,-0.02822 v 0"
         style="fill:#cca058;fill-opacity:1;fill-rule:nonzero;stroke:none;stroke-width:0.0352778"
         id="path410-5-7" />
      <path
         d="m 131.47675,54.952191 c -2.26484,-3.81 -2.79048,-8.015111 -2.79048,-8.015111 l 0.004,-0.02822 h -4.93889 l -0.007,0.02822 c 0,0 0.52564,4.205111 2.794,8.015111 1.87325,3.150306 5.31989,5.044722 8.99583,5.044722 h 4.93889 c -3.67594,0 -7.11906,-1.894416 -8.99583,-5.044722"
         style="fill:#c59144;fill-opacity:1;fill-rule:nonzero;stroke:none;stroke-width:0.0352778"
         id="path416-2-7" />
      <path
         d="m 189.5475,38.42808 h -65.3027 c -1.17122,0 -2.23661,0.47625 -3.00566,1.245306 -0.76906,0.769055 -1.24531,1.834444 -1.24531,3.009194 0,2.183695 1.64042,3.982861 3.75708,4.226278 h 66.294 c 2.13078,-0.250472 3.75709,-2.053167 3.75709,-4.226278 0,-2.3495 -1.905,-4.2545 -4.2545,-4.2545 v 0"
         style="fill:#d7ab67;fill-opacity:1;fill-rule:nonzero;stroke:none;stroke-width:0.0352778"
         id="path422-0-7" />
      <path
         d="m 124.93272,42.68258 c 0,-1.17475 0.47625,-2.240139 1.2453,-3.009194 0.77259,-0.769056 1.83445,-1.245306 3.0092,-1.245306 h -4.94242 c -1.17122,0 -2.23661,0.47625 -3.00566,1.245306 -0.76906,0.769055 -1.24531,1.834444 -1.24531,3.009194 0,2.183695 1.64042,3.982861 3.75708,4.226278 h 4.93889 c -2.11314,-0.243417 -3.75708,-2.042583 -3.75708,-4.226278 v 0"
         style="fill:#d19b4f;fill-opacity:1;fill-rule:nonzero;stroke:none;stroke-width:0.0352778"
         id="path424-7-1" />
    </g>
    <g
       id="g13172-1-7-8-6"
       transform="matrix(0.42308982,0,0,0.42308982,-35.21039,77.312777)"
       style="display:inline">
      <g
         id="g1026-5-3-4-9"
         transform="matrix(1.7323514,0,0,1.7323514,88.015267,-80.552475)">
        <polygon
           class="cls-1"
           points="37.93,50.37 30.37,37.27 15.24,37.27 7.67,50.37 15.24,63.47 30.37,63.47 "
           id="polygon14-4-2-88-8"
           style="fill:#99cc00;fill-opacity:1" />
        <path
           id="polygon16-3-6-8-4"
           style="fill:#6d9003;fill-opacity:1;stroke-width:1"
           class="cls-1"
           d="M 15.240068,37.269902 7.67,50.37 15.240068,63.480107 h 5.759521 L 13.479081,50.448613 21.03914,37.348516 h 9.376221 l -0.04541,-0.07861 z" />
      </g>
      <g
         id="g1026-9-48-4-02-1"
         transform="matrix(1.7323514,0,0,1.7323514,124.5879,-98.495687)">
        <polygon
           class="cls-1"
           points="15.24,37.27 7.67,50.37 15.24,63.47 30.37,63.47 37.93,50.37 30.37,37.27 "
           id="polygon14-3-3-3-9-6"
           style="fill:#99cc00;fill-opacity:1" />
        <path
           id="polygon16-8-8-5-2-4"
           style="fill:#6d9003;fill-opacity:1;stroke-width:1"
           class="cls-1"
           d="M 15.240068,37.269902 7.67,50.37 15.240068,63.480107 h 5.759521 L 13.479081,50.448613 21.03914,37.348516 h 9.376221 l -0.04541,-0.07861 z" />
      </g>
      <g
         id="g1026-9-4-4-7-5-2"
         transform="matrix(1.7323514,0,0,1.7323514,160.86322,-80.773313)">
        <polygon
           class="cls-1"
           points="15.24,37.27 7.67,50.37 15.24,63.47 30.37,63.47 37.93,50.37 30.37,37.27 "
           id="polygon14-3-9-4-8-8-8"
           style="fill:#99cc00;fill-opacity:1" />
        <path
           id="polygon16-8-1-0-7-7-6"
           style="fill:#6d9003;fill-opacity:1;stroke-width:1"
           class="cls-1"
           d="M 15.240068,37.269902 7.67,50.37 15.240068,63.480107 h 5.759521 L 13.479081,50.448613 21.03914,37.348516 h 9.376221 l -0.04541,-0.07861 z" />
      </g>
    </g>
    <g
       id="g13172-1-7-8-6-5"
       transform="matrix(0.42308982,0,0,0.42308982,29.585693,65.419367)"
       style="display:inline">
      <g
         id="g1026-5-3-4-9-1"
         transform="matrix(1.7323514,0,0,1.7323514,88.015267,-80.552475)">
        <polygon
           class="cls-1"
           points="30.37,37.27 15.24,37.27 7.67,50.37 15.24,63.47 30.37,63.47 37.93,50.37 "
           id="polygon14-4-2-88-8-8"
           style="fill:#99cc00;fill-opacity:1" />
        <path
           id="polygon16-3-6-8-4-1"
           style="fill:#6d9003;fill-opacity:1;stroke-width:1"
           class="cls-1"
           d="M 15.240068,37.269902 7.67,50.37 15.240068,63.480107 h 5.759521 L 13.479081,50.448613 21.03914,37.348516 h 9.376221 l -0.04541,-0.07861 z" />
      </g>
      <g
         id="g1026-9-48-4-02-1-9"
         transform="matrix(1.7323514,0,0,1.7323514,124.5879,-98.495687)">
        <polygon
           class="cls-1"
           points="7.67,50.37 15.24,63.47 30.37,63.47 37.93,50.37 30.37,37.27 15.24,37.27 "
           id="polygon14-3-3-3-9-6-4"
           style="fill:#99cc00;fill-opacity:1" />
        <path
           id="polygon16-8-8-5-2-4-3"
           style="fill:#6d9003;fill-opacity:1;stroke-width:1"
           class="cls-1"
           d="M 15.240068,37.269902 7.67,50.37 15.240068,63.480107 h 5.759521 L 13.479081,50.448613 21.03914,37.348516 h 9.376221 l -0.04541,-0.07861 z" />
      </g>
      <g
         id="g1026-9-4-4-7-5-2-1"
         transform="matrix(1.7323514,0,0,1.7323514,160.86322,-80.773313)">
        <polygon
           class="cls-1"
           points="7.67,50.37 15.24,63.47 30.37,63.47 37.93,50.37 30.37,37.27 15.24,37.27 "
           id="polygon14-3-9-4-8-8-8-5"
           style="fill:#99cc00;fill-opacity:1" />
        <path
           id="polygon16-8-1-0-7-7-6-5"
           style="fill:#6d9003;fill-opacity:1;stroke-width:1"
           class="cls-1"
           d="M 15.240068,37.269902 7.67,50.37 15.240068,63.480107 h 5.759521 L 13.479081,50.448613 21.03914,37.348516 h 9.376221 l -0.04541,-0.07861 z" />
      </g>
    </g>
    <g
       id="g13172-1-7-8-6-8"
       transform="matrix(0.35922721,0,0,0.35922721,-2.0259313,50.193294)"
       style="display:inline">
      <g
         id="g1026-5-3-4-9-8"
         transform="matrix(1.7323514,0,0,1.7323514,88.015267,-80.552475)">
        <polygon
           class="cls-1"
           points="37.93,50.37 30.37,37.27 15.24,37.27 7.67,50.37 15.24,63.47 30.37,63.47 "
           id="polygon14-4-2-88-8-4"
           style="fill:#99cc00;fill-opacity:1" />
        <path
           id="polygon16-3-6-8-4-3"
           style="fill:#6d9003;fill-opacity:1;stroke-width:1"
           class="cls-1"
           d="M 15.240068,37.269902 7.67,50.37 15.240068,63.480107 h 5.759521 L 13.479081,50.448613 21.03914,37.348516 h 9.376221 l -0.04541,-0.07861 z" />
      </g>
      <g
         id="g1026-9-48-4-02-1-1"
         transform="matrix(1.7323514,0,0,1.7323514,124.5879,-98.495687)">
        <polygon
           class="cls-1"
           points="15.24,37.27 7.67,50.37 15.24,63.47 30.37,63.47 37.93,50.37 30.37,37.27 "
           id="polygon14-3-3-3-9-6-1"
           style="fill:#99cc00;fill-opacity:1" />
        <path
           id="polygon16-8-8-5-2-4-1"
           style="fill:#6d9003;fill-opacity:1;stroke-width:1"
           class="cls-1"
           d="M 15.240068,37.269902 7.67,50.37 15.240068,63.480107 h 5.759521 L 13.479081,50.448613 21.03914,37.348516 h 9.376221 l -0.04541,-0.07861 z" />
      </g>
      <g
         id="g1026-9-4-4-7-5-2-4"
         transform="matrix(1.7323514,0,0,1.7323514,160.86322,-80.773313)">
        <polygon
           class="cls-1"
           points="15.24,37.27 7.67,50.37 15.24,63.47 30.37,63.47 37.93,50.37 30.37,37.27 "
           id="polygon14-3-9-4-8-8-8-8"
           style="fill:#99cc00;fill-opacity:1" />
        <path
           id="polygon16-8-1-0-7-7-6-53"
           style="fill:#6d9003;fill-opacity:1;stroke-width:1"
           class="cls-1"
           d="M 15.240068,37.269902 7.67,50.37 15.240068,63.480107 h 5.759521 L 13.479081,50.448613 21.03914,37.348516 h 9.376221 l -0.04541,-0.07861 z" />
      </g>
    </g>
    <g
       id="g13172-1-7-8-6-8-9"
       transform="matrix(0.35922721,0,0,0.35922721,36.493145,34.646535)"
       style="display:inline">
      <g
         id="g1026-5-3-4-9-8-6"
         transform="matrix(1.7323514,0,0,1.7323514,88.015267,-80.552475)">
        <polygon
           class="cls-1"
           points="37.93,50.37 30.37,37.27 15.24,37.27 7.67,50.37 15.24,63.47 30.37,63.47 "
           id="polygon14-4-2-88-8-4-9"
           style="fill:#99cc00;fill-opacity:1" />
        <path
           id="polygon16-3-6-8-4-3-8"
           style="fill:#6d9003;fill-opacity:1;stroke-width:1"
           class="cls-1"
           d="M 15.240068,37.269902 7.67,50.37 15.240068,63.480107 h 5.759521 L 13.479081,50.448613 21.03914,37.348516 h 9.376221 l -0.04541,-0.07861 z" />
      </g>
      <g
         id="g1026-9-48-4-02-1-1-7"
         transform="matrix(1.7323514,0,0,1.7323514,124.5879,-98.495687)">
        <polygon
           class="cls-1"
           points="15.24,37.27 7.67,50.37 15.24,63.47 30.37,63.47 37.93,50.37 30.37,37.27 "
           id="polygon14-3-3-3-9-6-1-8"
           style="fill:#99cc00;fill-opacity:1" />
        <path
           id="polygon16-8-8-5-2-4-1-6"
           style="fill:#6d9003;fill-opacity:1;stroke-width:1"
           class="cls-1"
           d="M 15.240068,37.269902 7.67,50.37 15.240068,63.480107 h 5.759521 L 13.479081,50.448613 21.03914,37.348516 h 9.376221 l -0.04541,-0.07861 z" />
      </g>
      <g
         id="g1026-9-4-4-7-5-2-4-8"
         transform="matrix(1.7323514,0,0,1.7323514,160.86322,-80.773313)">
        <polygon
           class="cls-1"
           points="15.24,37.27 7.67,50.37 15.24,63.47 30.37,63.47 37.93,50.37 30.37,37.27 "
           id="polygon14-3-9-4-8-8-8-8-1"
           style="fill:#99cc00;fill-opacity:1" />
        <path
           id="polygon16-8-1-0-7-7-6-53-7"
           style="fill:#6d9003;fill-opacity:1;stroke-width:1"
           class="cls-1"
           d="M 15.240068,37.269902 7.67,50.37 15.240068,63.480107 h 5.759521 L 13.479081,50.448613 21.03914,37.348516 h 9.376221 l -0.04541,-0.07861 z" />
      </g>
    </g>
    <g
       id="g13172-1-7-8-6-8-9-5"
       transform="matrix(0.31931308,0,0,0.31931308,14.147906,16.371975)"
       style="display:inline">
      <g
         id="g1026-5-3-4-9-8-6-5"
         transform="matrix(1.7323514,0,0,1.7323514,88.015267,-80.552475)">
        <polygon
           class="cls-1"
           points="30.37,63.47 37.93,50.37 30.37,37.27 15.24,37.27 7.67,50.37 15.24,63.47 "
           id="polygon14-4-2-88-8-4-9-9"
           style="fill:#99cc00;fill-opacity:1" />
        <path
           id="polygon16-3-6-8-4-3-8-3"
           style="fill:#6d9003;fill-opacity:1;stroke-width:1"
           class="cls-1"
           d="M 15.240068,37.269902 7.67,50.37 15.240068,63.480107 h 5.759521 L 13.479081,50.448613 21.03914,37.348516 h 9.376221 l -0.04541,-0.07861 z" />
      </g>
      <g
         id="g1026-9-48-4-02-1-1-7-4"
         transform="matrix(1.7323514,0,0,1.7323514,124.5879,-98.495687)">
        <polygon
           class="cls-1"
           points="30.37,37.27 15.24,37.27 7.67,50.37 15.24,63.47 30.37,63.47 37.93,50.37 "
           id="polygon14-3-3-3-9-6-1-8-1"
           style="fill:#99cc00;fill-opacity:1" />
        <path
           id="polygon16-8-8-5-2-4-1-6-5"
           style="fill:#6d9003;fill-opacity:1;stroke-width:1"
           class="cls-1"
           d="M 15.240068,37.269902 7.67,50.37 15.240068,63.480107 h 5.759521 L 13.479081,50.448613 21.03914,37.348516 h 9.376221 l -0.04541,-0.07861 z" />
      </g>
      <g
         id="g1026-9-4-4-7-5-2-4-8-2"
         transform="matrix(1.7323514,0,0,1.7323514,160.86322,-80.773313)">
        <polygon
           class="cls-1"
           points="30.37,37.27 15.24,37.27 7.67,50.37 15.24,63.47 30.37,63.47 37.93,50.37 "
           id="polygon14-3-9-4-8-8-8-8-1-2"
           style="fill:#99cc00;fill-opacity:1" />
        <path
           id="polygon16-8-1-0-7-7-6-53-7-3"
           style="fill:#6d9003;fill-opacity:1;stroke-width:1"
           class="cls-1"
           d="M 15.240068,37.269902 7.67,50.37 15.240068,63.480107 h 5.759521 L 13.479081,50.448613 21.03914,37.348516 h 9.376221 l -0.04541,-0.07861 z" />
      </g>
    </g>
  </g>
</svg>
