<?xml version="1.0" encoding="UTF-8" standalone="no"?>
<!-- Created with Inkscape (http://www.inkscape.org/) -->

<svg
   width="500"
   height="500"
   viewBox="0 0 132.29166 132.29167"
   version="1.1"
   id="svg2515"
   inkscape:version="1.1.2 (b8e25be833, 2022-02-05)"
   sodipodi:docname="bonsai08s05blooming.svg"
   inkscape:export-filename="C:\Users\Lenovo\Desktop\Coding\Media files\Bonsais\bonsai08.png"
   inkscape:export-xdpi="96"
   inkscape:export-ydpi="96"
   xmlns:inkscape="http://www.inkscape.org/namespaces/inkscape"
   xmlns:sodipodi="http://sodipodi.sourceforge.net/DTD/sodipodi-0.dtd"
   xmlns="http://www.w3.org/2000/svg"
   xmlns:svg="http://www.w3.org/2000/svg">
  <sodipodi:namedview
     id="namedview2517"
     pagecolor="#ffffff"
     bordercolor="#666666"
     borderopacity="1.0"
     inkscape:pageshadow="2"
     inkscape:pageopacity="0.0"
     inkscape:pagecheckerboard="0"
     inkscape:document-units="mm"
     showgrid="false"
     units="px"
     inkscape:zoom="1.4142136"
     inkscape:cx="272.58966"
     inkscape:cy="249.25513"
     inkscape:window-width="1920"
     inkscape:window-height="1001"
     inkscape:window-x="-9"
     inkscape:window-y="-9"
     inkscape:window-maximized="1"
     inkscape:current-layer="g51917" />
  <defs
     id="defs2512">
    <marker
       style="overflow:visible"
       id="Arrow1Sstart"
       refX="0.0"
       refY="0.0"
       orient="auto"
       inkscape:stockid="Arrow1Sstart"
       inkscape:isstock="true">
      <path
         transform="scale(0.2) translate(6,0)"
         style="fill-rule:evenodd;fill:context-stroke;stroke:context-stroke;stroke-width:1.0pt"
         d="M 0.0,0.0 L 5.0,-5.0 L -12.5,0.0 L 5.0,5.0 L 0.0,0.0 z "
         id="path24092" />
    </marker>
    <marker
       style="overflow:visible"
       id="Arrow1Mstart"
       refX="0.0"
       refY="0.0"
       orient="auto"
       inkscape:stockid="Arrow1Mstart"
       inkscape:isstock="true">
      <path
         transform="scale(0.4) translate(10,0)"
         style="fill-rule:evenodd;fill:context-stroke;stroke:context-stroke;stroke-width:1.0pt"
         d="M 0.0,0.0 L 5.0,-5.0 L -12.5,0.0 L 5.0,5.0 L 0.0,0.0 z "
         id="path24086" />
    </marker>
    <marker
       style="overflow:visible"
       id="Arrow1Lstart"
       refX="0.0"
       refY="0.0"
       orient="auto"
       inkscape:stockid="Arrow1Lstart"
       inkscape:isstock="true">
      <path
         transform="scale(0.8) translate(12.5,0)"
         style="fill-rule:evenodd;fill:context-stroke;stroke:context-stroke;stroke-width:1.0pt"
         d="M 0.0,0.0 L 5.0,-5.0 L -12.5,0.0 L 5.0,5.0 L 0.0,0.0 z "
         id="path24080" />
    </marker>
    <marker
       style="overflow:visible;"
       id="Arrow1Lend"
       refX="0.0"
       refY="0.0"
       orient="auto"
       inkscape:stockid="Arrow1Lend"
       inkscape:isstock="true">
      <path
         transform="scale(0.8) rotate(180) translate(12.5,0)"
         style="fill-rule:evenodd;fill:context-stroke;stroke:context-stroke;stroke-width:1.0pt;"
         d="M 0.0,0.0 L 5.0,-5.0 L -12.5,0.0 L 5.0,5.0 L 0.0,0.0 z "
         id="path24083" />
    </marker>
  </defs>
  <g
     inkscape:label="Double Trunk"
     inkscape:groupmode="layer"
     id="g51917"
     style="display:inline">
    <g
       id="g51833"
       transform="translate(157.39097,29.859785)"
       style="display:inline">
      <g
         id="g51831"
         transform="translate(-5.2916669)">
        <g
           id="g51823"
           transform="rotate(-13.017437,48.811012,639.29985)">
          <path
             style="display:inline;fill:#c25745;fill-opacity:1;stroke:#c25745;stroke-width:1;stroke-linecap:round;stroke-linejoin:round;stroke-miterlimit:4;stroke-dasharray:none;stroke-opacity:1"
             d="m 35.870136,79.809188 c 0,0 -5.93462,-10.285377 -0.36765,-17.935201 6.813833,-9.363182 12.17001,-5.093403 20.635714,-13.494745 6.786493,-6.734912 3.856953,-4.941474 9.61376,-12.344267 8.901728,-11.446877 8.659273,-1.55111 18.063763,-7.957382 7.913798,-5.390822 6.163238,-9.447209 15.526264,-17.43746 -2.405674,12.080364 -8.000423,9.916592 -10.90212,19.308518 -10.998001,6.255711 -2.636099,3.404697 -10.733417,5.461961 -9.484259,2.409639 -8.368428,8.046906 -13.315573,14.129643 -7.813845,9.607437 -15.695209,6.410437 -18.541148,16.263577 -2.153488,7.455755 1.038976,14.510776 2.528597,17.311986 1.489631,2.80121 -12.50819,-3.30663 -12.50819,-3.30663 z"
             id="path51819"
             sodipodi:nodetypes="cssssccssssc" />
          <path
             id="path51821"
             style="display:inline;fill:#c63c25;fill-opacity:1;stroke:#c63c25;stroke-width:3.77953;stroke-linecap:round;stroke-linejoin:round;stroke-miterlimit:4;stroke-dasharray:none;stroke-opacity:1"
             d="m 970.33008,153.07031 c -35.38782,30.19938 -28.77318,45.53149 -58.6836,65.90625 -35.54452,24.21268 -34.62715,-13.18957 -68.27148,30.07422 -21.75801,27.97906 -10.6862,21.20147 -36.33594,46.65625 -31.99636,31.7531 -52.23911,15.6155 -77.99218,51.00391 -21.04052,28.91272 1.38867,67.78515 1.38867,67.78515 0,0 0.53969,0.23173 0.68554,0.29493 -5.05604,-10.82763 -16.10396,-40.35023 0.75977,-63.52344 25.75307,-35.38841 45.99778,-19.2508 77.99414,-51.00391 25.64974,-25.45478 14.57793,-18.67719 36.33594,-46.65625 33.64432,-43.26379 32.72695,-5.86154 68.27148,-30.07422 28.41915,-19.35891 23.88953,-34.17576 53.71875,-61.50781 0.76306,-2.74415 1.48041,-5.69857 2.12891,-8.95508 z"
             transform="matrix(0.26458333,0,0,0.26458333,-157.39097,-29.859785)" />
        </g>
        <g
           id="g51829"
           transform="translate(-103.45205,-31.75)">
          <path
             style="display:inline;fill:#c25745;fill-opacity:1;stroke:#c25745;stroke-width:1;stroke-linecap:round;stroke-linejoin:round;stroke-miterlimit:4;stroke-dasharray:none;stroke-opacity:1"
             d="m 1.5429645,115.20461 c 0,0 -0.44391,-8.09307 -7.413009,-16.606491 -5.7703105,-7.049 -13.8088905,-10.89145 -10.0809905,-22.220768 2.98845,-9.082106 6.5809805,-11.287183 11.7883305,-16.9438 C 5.6584545,48.765064 7.3043845,49.408168 12.774609,39.430122 17.377757,31.033683 4.9076645,22.010606 9.6217105,10.640113 12.96362,22.495664 18.44838,26.548244 20.12762,36.233711 15.444354,48.50294 18.442121,45.423796 15.444354,48.50294 c -2.295407,2.357716 -5.14072,4.406037 -7.8642035,6.795331 -7.35602602,6.453392 -10.606666,25.3144 -10.606666,25.3144 10.538324,6.504058 13.6860715,7.919038 15.6244115,17.990108 1.46672,7.620671 12.857197,14.782431 15.456337,16.601831 2.59915,1.8194 -26.5112685,0 -26.5112685,0 z"
             id="path51825"
             sodipodi:nodetypes="cssssccsssssc" />
          <path
             id="path51827"
             style="display:inline;fill:#c63c25;fill-opacity:1;stroke:#c63c25;stroke-width:3.77953;stroke-linecap:round;stroke-linejoin:round;stroke-miterlimit:4;stroke-dasharray:none;stroke-opacity:1"
             d="m 631.22852,153.07031 c -17.81689,42.97509 29.31375,77.07793 11.91601,108.8125 -20.67485,37.7123 -26.89433,35.28168 -64.01367,75.60352 -19.68132,21.37934 -33.25976,29.71299 -44.55469,64.03906 -14.0897,42.81947 16.29252,57.3425 38.10156,83.98438 26.33991,32.17672 28.01758,62.76562 28.01758,62.76562 0,0 3.6319,0.21449 8.51367,0.49219 -0.94557,-7.59992 -5.65489,-33.43191 -27.77929,-60.45899 -21.80905,-26.64183 -52.19127,-41.16491 -38.10157,-83.98437 11.29494,-34.32607 24.87337,-42.65972 44.55469,-64.03906 37.11934,-40.32184 43.34078,-37.89122 64.01563,-75.60352 15.60524,-28.46494 -20.69795,-58.8372 -15.48828,-95.80664 -1.82765,-4.8605 -3.57081,-10.09019 -5.18164,-15.80469 z"
             transform="matrix(0.26458333,0,0,0.26458333,-157.39097,-29.859785)" />
        </g>
      </g>
    </g>
    <g
       id="g1698-3-5-8-5-0"
       transform="matrix(0.45577979,0,0,-0.25932357,-932.61105,465.68827)"
       style="display:inline">
      <path
         d="m 2139.93,1319.15 v -21.93 h 79.02 v 21.93 h -79.02"
         style="fill:#5884cc;fill-opacity:1;fill-rule:nonzero;stroke:none;stroke-width:0.1"
         id="path370-2-9-7-7-8" />
      <path
         d="m 2248.25,1380.72 c -0.18,2.6 -2.35,4.61 -4.94,4.61 h -127.74 c -2.6,0 -4.76,-2.01 -4.95,-4.61 l -0.11,-7.96 h 137.85 l -0.11,7.96 v 0"
         style="fill:#5884cc;fill-opacity:1;fill-rule:nonzero;stroke:none;stroke-width:0.1"
         id="path374-7-3-7-3-9" />
      <path
         d="m 2139.93,1319.15 c -17.07,11.94 -28.49,31.42 -29.42,53.61 h 137.85 c -0.92,-22.19 -12.34,-41.67 -29.41,-53.61 -11.19,-7.84 -24.82,-12.43 -39.51,-12.43 -14.7,0 -28.32,4.59 -39.51,12.43 v 0"
         style="fill:#70bdeb;fill-opacity:1;fill-rule:nonzero;stroke:none;stroke-width:0.1"
         id="path376-5-7-2-1-3" />
      <path
         d="m 2115.57,1385.33 c -2.6,0 -4.76,-2.01 -4.95,-4.61 l -0.11,-7.96 h 14.01 l 0.11,7.96 c 0.19,2.6 2.34,4.61 4.95,4.61 h -14.01"
         style="fill:#467ac6;fill-opacity:1;fill-rule:nonzero;stroke:none;stroke-width:0.1"
         id="path402-1-6-0-4-1-4" />
      <path
         d="m 2153.93,1319.15 c -17.07,11.94 -28.49,31.42 -29.41,53.61 h -14.01 c 0.93,-22.19 12.35,-41.67 29.42,-53.61 11.19,-7.84 24.81,-12.43 39.51,-12.43 2.36,0 4.7,0.13 7,0.36 -12.01,1.21 -23.12,5.49 -32.51,12.07 v 0"
         style="fill:#52a8dc;fill-opacity:1;fill-rule:nonzero;stroke:none;stroke-width:0.1"
         id="path404-4-2-7-0-8" />
    </g>
    <g
       id="g3139-9-8-3-8-5"
       style="display:inline"
       transform="translate(-27.773142,9.2178566)">
      <g
         id="g2290-3-1-0-1-4">
        <g
           id="g28241-4-2-8-5-5"
           transform="matrix(0.65272443,0,0,0.65272443,-39.473483,-6.814027)"
           style="display:inline">
          <g
             id="g28177-2-0-3-3-5"
             transform="translate(6.0854167,55.827083)">
            <path
               d="m 147.71798,47.981196 -9.09029,-4.991828 9.09029,-4.991827 c 0.75396,-0.414021 1.02025,-1.3669 0.59012,-2.111777 l -1.24519,-2.156779 c -0.43006,-0.744878 -1.38837,-0.99072 -2.12392,-0.544804 l -8.86816,5.376573 0.22213,-10.368336 c 0.0184,-0.859937 -0.67361,-1.566974 -1.5338,-1.566974 h -2.49039 c -0.86012,0 -1.55221,0.707037 -1.53373,1.566974 l 0.22206,10.368336 -8.86816,-5.376509 c -0.73548,-0.445916 -1.69386,-0.200074 -2.12392,0.544804 l -1.24519,2.156778 c -0.43006,0.744879 -0.16377,1.697757 0.59019,2.111777 l 9.09022,4.991764 -9.09028,4.991828 c -0.75396,0.41402 -1.02026,1.3669 -0.59013,2.111777 l 1.24519,2.156779 c 0.43006,0.744877 1.38844,0.990719 2.12392,0.544803 l 8.86816,-5.376572 -0.22212,10.368336 c -0.0184,0.859938 0.67367,1.566974 1.53379,1.566974 h 2.49045 c 0.86013,0 1.55221,-0.707036 1.5338,-1.566974 l -0.22219,-10.368336 8.86816,5.376508 c 0.73548,0.445918 1.69386,0.200075 2.12392,-0.544804 l 1.24519,-2.156777 c 0.43006,-0.744879 0.16384,-1.697694 -0.59012,-2.111714 z"
               id="path2-07-0-0-7-4-0"
               style="fill:#00ff99;fill-opacity:1;stroke-width:0.0639215" />
            <path
               id="path2-07-3-8-5-5-3-7"
               style="display:inline;fill:#265d47;fill-opacity:1;stroke:none;stroke-width:0.0639215;stroke-opacity:1"
               d="m 128.56448,26.625567 c -0.86012,0 -1.55224,0.706892 -1.53375,1.566828 l 0.17363,8.093046 3.75274,2.275313 -0.22221,-10.368359 c -0.0139,-0.644292 0.37135,-1.202201 0.92708,-1.441773 -0.18612,-0.0803 -0.39133,-0.125055 -0.6072,-0.125055 z M 117.653,32.963163 c -0.55098,-0.02227 -1.09649,0.254259 -1.39216,0.766363 l -1.2454,2.156457 c -0.43006,0.744879 -0.16382,1.697995 0.59014,2.112015 l 9.0904,4.991426 -9.0904,4.991944 c -0.75396,0.41402 -1.02027,1.367136 -0.59014,2.112015 l 1.2454,2.156457 c 0.43006,0.744882 1.38842,0.991108 2.1239,0.545188 l 1.40353,-0.851112 -1.06866,-1.850533 c -0.43014,-0.744879 -0.16382,-1.697995 0.59014,-2.112015 l 9.0904,-4.991944 -9.0904,-4.991426 c -0.75396,-0.41402 -1.02021,-1.367136 -0.59014,-2.112015 l 1.06866,-1.850533 -1.40353,-0.851111 c -0.22984,-0.139348 -0.48129,-0.211053 -0.73174,-0.221176 z m 24.31376,0 c -0.25045,0.01012 -0.50239,0.08183 -0.73225,0.221176 l -5.11493,3.101102 -0.0486,2.275313 7.46414,-4.525304 -0.17673,-0.306443 c -0.29567,-0.512103 -0.84066,-0.788109 -1.39165,-0.765844 z m -11.00966,14.454933 -3.75274,2.275314 -0.17363,8.093046 c -0.0184,0.859927 0.67363,1.566828 1.53375,1.566828 h 2.49029 c 0.21585,0 0.42108,-0.04424 0.6072,-0.12454 -0.55573,-0.239572 -0.94087,-0.797994 -0.92708,-1.442288 z m 5.1139,0 0.0486,2.275314 5.11493,3.101102 c 0.73548,0.44592 1.69384,0.20021 2.1239,-0.544672 l 0.17673,-0.30644 z" />
          </g>
          <g
             id="g28177-5-21-2-4-2-0"
             transform="translate(29.832267,47.29614)"
             style="display:inline">
            <path
               d="m 147.71798,47.981196 -9.09029,-4.991828 9.09029,-4.991827 c 0.75396,-0.414021 1.02025,-1.3669 0.59012,-2.111777 l -1.24519,-2.156779 c -0.43006,-0.744878 -1.38837,-0.99072 -2.12392,-0.544804 l -8.86816,5.376573 0.22213,-10.368336 c 0.0184,-0.859937 -0.67361,-1.566974 -1.5338,-1.566974 h -2.49039 c -0.86012,0 -1.55221,0.707037 -1.53373,1.566974 l 0.22206,10.368336 -8.86816,-5.376509 c -0.73548,-0.445916 -1.69386,-0.200074 -2.12392,0.544804 l -1.24519,2.156778 c -0.43006,0.744879 -0.16377,1.697757 0.59019,2.111777 l 9.09022,4.991764 -9.09028,4.991828 c -0.75396,0.41402 -1.02026,1.3669 -0.59013,2.111777 l 1.24519,2.156779 c 0.43006,0.744877 1.38844,0.990719 2.12392,0.544803 l 8.86816,-5.376572 -0.22212,10.368336 c -0.0184,0.859938 0.67367,1.566974 1.53379,1.566974 h 2.49045 c 0.86013,0 1.55221,-0.707036 1.5338,-1.566974 l -0.22219,-10.368336 8.86816,5.376508 c 0.73548,0.445918 1.69386,0.200075 2.12392,-0.544804 l 1.24519,-2.156777 c 0.43006,-0.744879 0.16384,-1.697694 -0.59012,-2.111714 z"
               id="path2-07-6-1-2-0-8-4"
               style="fill:#00ff99;fill-opacity:1;stroke-width:0.0639215" />
            <path
               id="path2-07-3-7-6-9-7-3-2"
               style="display:inline;fill:#265d47;fill-opacity:1;stroke:none;stroke-width:0.0639215;stroke-opacity:1"
               d="m 128.56448,26.625567 c -0.86012,0 -1.55224,0.706892 -1.53375,1.566828 l 0.17363,8.093046 3.75274,2.275313 -0.22221,-10.368359 c -0.0139,-0.644292 0.37135,-1.202201 0.92708,-1.441773 -0.18612,-0.0803 -0.39133,-0.125055 -0.6072,-0.125055 z M 117.653,32.963163 c -0.55098,-0.02227 -1.09649,0.254259 -1.39216,0.766363 l -1.2454,2.156457 c -0.43006,0.744879 -0.16382,1.697995 0.59014,2.112015 l 9.0904,4.991426 -9.0904,4.991944 c -0.75396,0.41402 -1.02027,1.367136 -0.59014,2.112015 l 1.2454,2.156457 c 0.43006,0.744882 1.38842,0.991108 2.1239,0.545188 l 1.40353,-0.851112 -1.06866,-1.850533 c -0.43014,-0.744879 -0.16382,-1.697995 0.59014,-2.112015 l 9.0904,-4.991944 -9.0904,-4.991426 c -0.75396,-0.41402 -1.02021,-1.367136 -0.59014,-2.112015 l 1.06866,-1.850533 -1.40353,-0.851111 c -0.22984,-0.139348 -0.48129,-0.211053 -0.73174,-0.221176 z m 24.31376,0 c -0.25045,0.01012 -0.50239,0.08183 -0.73225,0.221176 l -5.11493,3.101102 -0.0486,2.275313 7.46414,-4.525304 -0.17673,-0.306443 c -0.29567,-0.512103 -0.84066,-0.788109 -1.39165,-0.765844 z m -11.00966,14.454933 -3.75274,2.275314 -0.17363,8.093046 c -0.0184,0.859927 0.67363,1.566828 1.53375,1.566828 h 2.49029 c 0.21585,0 0.42108,-0.04424 0.6072,-0.12454 -0.55573,-0.239572 -0.94087,-0.797994 -0.92708,-1.442288 z m 5.1139,0 0.0486,2.275314 5.11493,3.101102 c 0.73548,0.44592 1.69384,0.20021 2.1239,-0.544672 l 0.17673,-0.30644 z" />
          </g>
          <g
             id="g28177-7-5-5-6-8-7"
             transform="translate(53.579157,55.826567)"
             style="display:inline">
            <path
               d="m 147.71798,47.981196 -9.09029,-4.991828 9.09029,-4.991827 c 0.75396,-0.414021 1.02025,-1.3669 0.59012,-2.111777 l -1.24519,-2.156779 c -0.43006,-0.744878 -1.38837,-0.99072 -2.12392,-0.544804 l -8.86816,5.376573 0.22213,-10.368336 c 0.0184,-0.859937 -0.67361,-1.566974 -1.5338,-1.566974 h -2.49039 c -0.86012,0 -1.55221,0.707037 -1.53373,1.566974 l 0.22206,10.368336 -8.86816,-5.376509 c -0.73548,-0.445916 -1.69386,-0.200074 -2.12392,0.544804 l -1.24519,2.156778 c -0.43006,0.744879 -0.16377,1.697757 0.59019,2.111777 l 9.09022,4.991764 -9.09028,4.991828 c -0.75396,0.41402 -1.02026,1.3669 -0.59013,2.111777 l 1.24519,2.156779 c 0.43006,0.744877 1.38844,0.990719 2.12392,0.544803 l 8.86816,-5.376572 -0.22212,10.368336 c -0.0184,0.859938 0.67367,1.566974 1.53379,1.566974 h 2.49045 c 0.86013,0 1.55221,-0.707036 1.5338,-1.566974 l -0.22219,-10.368336 8.86816,5.376508 c 0.73548,0.445918 1.69386,0.200075 2.12392,-0.544804 l 1.24519,-2.156777 c 0.43006,-0.744879 0.16384,-1.697694 -0.59012,-2.111714 z"
               id="path2-07-8-3-2-8-6-5"
               style="fill:#00ff99;fill-opacity:1;stroke-width:0.0639215" />
            <path
               id="path2-07-3-2-1-9-5-6-0"
               style="display:inline;fill:#265d47;fill-opacity:1;stroke:none;stroke-width:0.0639215;stroke-opacity:1"
               d="m 128.56448,26.625567 c -0.86012,0 -1.55224,0.706892 -1.53375,1.566828 l 0.17363,8.093046 3.75274,2.275313 -0.22221,-10.368359 c -0.0139,-0.644292 0.37135,-1.202201 0.92708,-1.441773 -0.18612,-0.0803 -0.39133,-0.125055 -0.6072,-0.125055 z M 117.653,32.963163 c -0.55098,-0.02227 -1.09649,0.254259 -1.39216,0.766363 l -1.2454,2.156457 c -0.43006,0.744879 -0.16382,1.697995 0.59014,2.112015 l 9.0904,4.991426 -9.0904,4.991944 c -0.75396,0.41402 -1.02027,1.367136 -0.59014,2.112015 l 1.2454,2.156457 c 0.43006,0.744882 1.38842,0.991108 2.1239,0.545188 l 1.40353,-0.851112 -1.06866,-1.850533 c -0.43014,-0.744879 -0.16382,-1.697995 0.59014,-2.112015 l 9.0904,-4.991944 -9.0904,-4.991426 c -0.75396,-0.41402 -1.02021,-1.367136 -0.59014,-2.112015 l 1.06866,-1.850533 -1.40353,-0.851111 c -0.22984,-0.139348 -0.48129,-0.211053 -0.73174,-0.221176 z m 24.31376,0 c -0.25045,0.01012 -0.50239,0.08183 -0.73225,0.221176 l -5.11493,3.101102 -0.0486,2.275313 7.46414,-4.525304 -0.17673,-0.306443 c -0.29567,-0.512103 -0.84066,-0.788109 -1.39165,-0.765844 z m -11.00966,14.454933 -3.75274,2.275314 -0.17363,8.093046 c -0.0184,0.859927 0.67363,1.566828 1.53375,1.566828 h 2.49029 c 0.21585,0 0.42108,-0.04424 0.6072,-0.12454 -0.55573,-0.239572 -0.94087,-0.797994 -0.92708,-1.442288 z m 5.1139,0 0.0486,2.275314 5.11493,3.101102 c 0.73548,0.44592 1.69384,0.20021 2.1239,-0.544672 l 0.17673,-0.30644 z" />
          </g>
        </g>
      </g>
      <g
         id="g6-5-9-8-3-5"
         transform="matrix(0.0234375,0,0,0.0234375,72.751741,57.13844)"
         style="display:inline;fill:#f5b42b;fill-opacity:1">
        <path
           class="st0"
           d="m 511.976,213.063 -45.863,-9.749 31.374,-34.845 C 472.114,131.733 417.268,115.015 360.373,127.926 355.071,69.826 322.223,22.83 279.444,10.052 L 256,50.659 232.556,10.053 C 189.777,22.832 156.93,69.828 151.627,127.927 94.733,115.016 39.886,131.734 14.514,168.47 l 31.374,34.844 -45.864,9.749 c -1.066,44.634 33.479,90.396 87.097,113.393 -29.86,50.12 -30.91,107.448 -3.812,142.931 l 42.834,-19.071 -4.901,46.632 c 42.12,14.806 96.318,-3.907 134.758,-47.794 38.44,43.887 92.638,62.6 134.758,47.794 l -4.901,-46.632 42.835,19.072 c 27.097,-35.483 26.048,-92.811 -3.812,-142.932 53.617,-22.996 88.162,-68.759 87.096,-113.393 z m -196.599,83.322 c 3.526,-2.358 7.678,-3.63 11.998,-3.63 3.762,0 7.479,0.998 10.752,2.889 4.986,2.876 8.552,7.525 10.043,13.085 1.49,5.56 0.725,11.369 -2.156,16.353 -3.838,6.65 -10.996,10.781 -18.68,10.781 -3.765,0 -7.484,-1 -10.758,-2.89 -7.126,-4.116 -11.228,-12.025 -10.724,-20.072 l -40.32,-23.278 v 46.552 c 7.222,3.587 12.021,11.096 12.021,19.327 0,11.884 -9.669,21.551 -21.553,21.551 -11.884,0 -21.553,-9.667 -21.553,-21.551 0,-8.231 4.799,-15.74 12.021,-19.327 v -46.552 l -40.319,23.278 c 0.504,8.047 -3.598,15.956 -10.724,20.072 -3.275,1.889 -6.994,2.89 -10.758,2.89 -7.684,0 -14.842,-4.132 -18.682,-10.781 -2.878,-4.984 -3.644,-10.792 -2.154,-16.353 1.49,-5.56 5.057,-10.209 10.043,-13.087 3.272,-1.889 6.989,-2.887 10.752,-2.887 4.321,0 8.473,1.272 11.996,3.63 l 40.312,-23.274 -40.312,-23.272 c -3.523,2.359 -7.675,3.63 -11.996,3.63 -3.762,0 -7.479,-0.998 -10.752,-2.89 -4.986,-2.876 -8.552,-7.525 -10.043,-13.085 -1.49,-5.56 -0.724,-11.369 2.156,-16.353 3.838,-6.65 10.995,-10.781 18.68,-10.781 3.764,0 7.484,1 10.758,2.89 7.126,4.116 11.228,12.025 10.724,20.072 l 40.319,23.278 v -46.552 c -7.222,-3.587 -12.021,-11.096 -12.021,-19.327 0,-11.884 9.669,-21.551 21.553,-21.551 11.884,0 21.553,9.667 21.553,21.551 0,8.231 -4.799,15.74 -12.021,19.327 V 256.6 l 40.32,-23.278 c -0.504,-8.047 3.598,-15.956 10.724,-20.072 3.275,-1.889 6.994,-2.89 10.758,-2.89 7.684,0 14.842,4.132 18.682,10.781 2.878,4.984 3.644,10.792 2.154,16.353 -1.49,5.56 -5.057,10.209 -10.043,13.088 -3.272,1.889 -6.989,2.887 -10.752,2.887 -4.32,0 -8.472,-1.272 -11.998,-3.63 l -40.31,23.272 z"
           id="path4-1-77-2-8-9-3"
           style="fill:#f5b42b;fill-opacity:1" />
      </g>
      <g
         id="g6-4-2-6-7-2-3"
         transform="matrix(0.0234375,0,0,0.0234375,56.044743,50.693647)"
         style="display:inline;fill:#f5b42b;fill-opacity:1">
        <path
           class="st0"
           d="m 511.976,213.063 -45.863,-9.749 31.374,-34.845 C 472.114,131.733 417.268,115.015 360.373,127.926 355.071,69.826 322.223,22.83 279.444,10.052 L 256,50.659 232.556,10.053 C 189.777,22.832 156.93,69.828 151.627,127.927 94.733,115.016 39.886,131.734 14.514,168.47 l 31.374,34.844 -45.864,9.749 c -1.066,44.634 33.479,90.396 87.097,113.393 -29.86,50.12 -30.91,107.448 -3.812,142.931 l 42.834,-19.071 -4.901,46.632 c 42.12,14.806 96.318,-3.907 134.758,-47.794 38.44,43.887 92.638,62.6 134.758,47.794 l -4.901,-46.632 42.835,19.072 c 27.097,-35.483 26.048,-92.811 -3.812,-142.932 53.617,-22.996 88.162,-68.759 87.096,-113.393 z m -196.599,83.322 c 3.526,-2.358 7.678,-3.63 11.998,-3.63 3.762,0 7.479,0.998 10.752,2.889 4.986,2.876 8.552,7.525 10.043,13.085 1.49,5.56 0.725,11.369 -2.156,16.353 -3.838,6.65 -10.996,10.781 -18.68,10.781 -3.765,0 -7.484,-1 -10.758,-2.89 -7.126,-4.116 -11.228,-12.025 -10.724,-20.072 l -40.32,-23.278 v 46.552 c 7.222,3.587 12.021,11.096 12.021,19.327 0,11.884 -9.669,21.551 -21.553,21.551 -11.884,0 -21.553,-9.667 -21.553,-21.551 0,-8.231 4.799,-15.74 12.021,-19.327 v -46.552 l -40.319,23.278 c 0.504,8.047 -3.598,15.956 -10.724,20.072 -3.275,1.889 -6.994,2.89 -10.758,2.89 -7.684,0 -14.842,-4.132 -18.682,-10.781 -2.878,-4.984 -3.644,-10.792 -2.154,-16.353 1.49,-5.56 5.057,-10.209 10.043,-13.087 3.272,-1.889 6.989,-2.887 10.752,-2.887 4.321,0 8.473,1.272 11.996,3.63 l 40.312,-23.274 -40.312,-23.272 c -3.523,2.359 -7.675,3.63 -11.996,3.63 -3.762,0 -7.479,-0.998 -10.752,-2.89 -4.986,-2.876 -8.552,-7.525 -10.043,-13.085 -1.49,-5.56 -0.724,-11.369 2.156,-16.353 3.838,-6.65 10.995,-10.781 18.68,-10.781 3.764,0 7.484,1 10.758,2.89 7.126,4.116 11.228,12.025 10.724,20.072 l 40.319,23.278 v -46.552 c -7.222,-3.587 -12.021,-11.096 -12.021,-19.327 0,-11.884 9.669,-21.551 21.553,-21.551 11.884,0 21.553,9.667 21.553,21.551 0,8.231 -4.799,15.74 -12.021,19.327 V 256.6 l 40.32,-23.278 c -0.504,-8.047 3.598,-15.956 10.724,-20.072 3.275,-1.889 6.994,-2.89 10.758,-2.89 7.684,0 14.842,4.132 18.682,10.781 2.878,4.984 3.644,10.792 2.154,16.353 -1.49,5.56 -5.057,10.209 -10.043,13.088 -3.272,1.889 -6.989,2.887 -10.752,2.887 -4.32,0 -8.472,-1.272 -11.998,-3.63 l -40.31,23.272 z"
           id="path4-1-6-2-5-8-3-9"
           style="fill:#f5b42b;fill-opacity:1" />
      </g>
      <g
         id="g6-4-4-2-1-8-4-9"
         transform="matrix(0.0234375,0,0,0.0234375,40.544594,56.262002)"
         style="display:inline;fill:#f5b42b;fill-opacity:1">
        <path
           class="st0"
           d="m 511.976,213.063 -45.863,-9.749 31.374,-34.845 C 472.114,131.733 417.268,115.015 360.373,127.926 355.071,69.826 322.223,22.83 279.444,10.052 L 256,50.659 232.556,10.053 C 189.777,22.832 156.93,69.828 151.627,127.927 94.733,115.016 39.886,131.734 14.514,168.47 l 31.374,34.844 -45.864,9.749 c -1.066,44.634 33.479,90.396 87.097,113.393 -29.86,50.12 -30.91,107.448 -3.812,142.931 l 42.834,-19.071 -4.901,46.632 c 42.12,14.806 96.318,-3.907 134.758,-47.794 38.44,43.887 92.638,62.6 134.758,47.794 l -4.901,-46.632 42.835,19.072 c 27.097,-35.483 26.048,-92.811 -3.812,-142.932 53.617,-22.996 88.162,-68.759 87.096,-113.393 z m -196.599,83.322 c 3.526,-2.358 7.678,-3.63 11.998,-3.63 3.762,0 7.479,0.998 10.752,2.889 4.986,2.876 8.552,7.525 10.043,13.085 1.49,5.56 0.725,11.369 -2.156,16.353 -3.838,6.65 -10.996,10.781 -18.68,10.781 -3.765,0 -7.484,-1 -10.758,-2.89 -7.126,-4.116 -11.228,-12.025 -10.724,-20.072 l -40.32,-23.278 v 46.552 c 7.222,3.587 12.021,11.096 12.021,19.327 0,11.884 -9.669,21.551 -21.553,21.551 -11.884,0 -21.553,-9.667 -21.553,-21.551 0,-8.231 4.799,-15.74 12.021,-19.327 v -46.552 l -40.319,23.278 c 0.504,8.047 -3.598,15.956 -10.724,20.072 -3.275,1.889 -6.994,2.89 -10.758,2.89 -7.684,0 -14.842,-4.132 -18.682,-10.781 -2.878,-4.984 -3.644,-10.792 -2.154,-16.353 1.49,-5.56 5.057,-10.209 10.043,-13.087 3.272,-1.889 6.989,-2.887 10.752,-2.887 4.321,0 8.473,1.272 11.996,3.63 l 40.312,-23.274 -40.312,-23.272 c -3.523,2.359 -7.675,3.63 -11.996,3.63 -3.762,0 -7.479,-0.998 -10.752,-2.89 -4.986,-2.876 -8.552,-7.525 -10.043,-13.085 -1.49,-5.56 -0.724,-11.369 2.156,-16.353 3.838,-6.65 10.995,-10.781 18.68,-10.781 3.764,0 7.484,1 10.758,2.89 7.126,4.116 11.228,12.025 10.724,20.072 l 40.319,23.278 v -46.552 c -7.222,-3.587 -12.021,-11.096 -12.021,-19.327 0,-11.884 9.669,-21.551 21.553,-21.551 11.884,0 21.553,9.667 21.553,21.551 0,8.231 -4.799,15.74 -12.021,19.327 V 256.6 l 40.32,-23.278 c -0.504,-8.047 3.598,-15.956 10.724,-20.072 3.275,-1.889 6.994,-2.89 10.758,-2.89 7.684,0 14.842,4.132 18.682,10.781 2.878,4.984 3.644,10.792 2.154,16.353 -1.49,5.56 -5.057,10.209 -10.043,13.088 -3.272,1.889 -6.989,2.887 -10.752,2.887 -4.32,0 -8.472,-1.272 -11.998,-3.63 l -40.31,23.272 z"
           id="path4-1-6-9-5-0-8-6-0"
           style="fill:#f5b42b;fill-opacity:1" />
      </g>
    </g>
    <g
       id="g3139-9-8-3-8-9-7"
       style="display:inline"
       transform="matrix(0.8490566,0,0,0.8490566,6.0286121,-11.055196)">
      <g
         id="g2290-3-1-0-1-9-3">
        <g
           id="g28241-4-2-8-5-8-9"
           transform="matrix(0.65272443,0,0,0.65272443,-39.473483,-6.814027)"
           style="display:inline">
          <g
             id="g28177-2-0-3-3-7-6"
             transform="translate(6.0854167,55.827083)">
            <path
               d="m 147.71798,47.981196 -9.09029,-4.991828 9.09029,-4.991827 c 0.75396,-0.414021 1.02025,-1.3669 0.59012,-2.111777 l -1.24519,-2.156779 c -0.43006,-0.744878 -1.38837,-0.99072 -2.12392,-0.544804 l -8.86816,5.376573 0.22213,-10.368336 c 0.0184,-0.859937 -0.67361,-1.566974 -1.5338,-1.566974 h -2.49039 c -0.86012,0 -1.55221,0.707037 -1.53373,1.566974 l 0.22206,10.368336 -8.86816,-5.376509 c -0.73548,-0.445916 -1.69386,-0.200074 -2.12392,0.544804 l -1.24519,2.156778 c -0.43006,0.744879 -0.16377,1.697757 0.59019,2.111777 l 9.09022,4.991764 -9.09028,4.991828 c -0.75396,0.41402 -1.02026,1.3669 -0.59013,2.111777 l 1.24519,2.156779 c 0.43006,0.744877 1.38844,0.990719 2.12392,0.544803 l 8.86816,-5.376572 -0.22212,10.368336 c -0.0184,0.859938 0.67367,1.566974 1.53379,1.566974 h 2.49045 c 0.86013,0 1.55221,-0.707036 1.5338,-1.566974 l -0.22219,-10.368336 8.86816,5.376508 c 0.73548,0.445918 1.69386,0.200075 2.12392,-0.544804 l 1.24519,-2.156777 c 0.43006,-0.744879 0.16384,-1.697694 -0.59012,-2.111714 z"
               id="path2-07-0-0-7-4-3-8"
               style="fill:#00ff99;fill-opacity:1;stroke-width:0.0639215" />
            <path
               id="path2-07-3-8-5-5-3-2-7"
               style="display:inline;fill:#265d47;fill-opacity:1;stroke:none;stroke-width:0.0639215;stroke-opacity:1"
               d="m 128.56448,26.625567 c -0.86012,0 -1.55224,0.706892 -1.53375,1.566828 l 0.17363,8.093046 3.75274,2.275313 -0.22221,-10.368359 c -0.0139,-0.644292 0.37135,-1.202201 0.92708,-1.441773 -0.18612,-0.0803 -0.39133,-0.125055 -0.6072,-0.125055 z M 117.653,32.963163 c -0.55098,-0.02227 -1.09649,0.254259 -1.39216,0.766363 l -1.2454,2.156457 c -0.43006,0.744879 -0.16382,1.697995 0.59014,2.112015 l 9.0904,4.991426 -9.0904,4.991944 c -0.75396,0.41402 -1.02027,1.367136 -0.59014,2.112015 l 1.2454,2.156457 c 0.43006,0.744882 1.38842,0.991108 2.1239,0.545188 l 1.40353,-0.851112 -1.06866,-1.850533 c -0.43014,-0.744879 -0.16382,-1.697995 0.59014,-2.112015 l 9.0904,-4.991944 -9.0904,-4.991426 c -0.75396,-0.41402 -1.02021,-1.367136 -0.59014,-2.112015 l 1.06866,-1.850533 -1.40353,-0.851111 c -0.22984,-0.139348 -0.48129,-0.211053 -0.73174,-0.221176 z m 24.31376,0 c -0.25045,0.01012 -0.50239,0.08183 -0.73225,0.221176 l -5.11493,3.101102 -0.0486,2.275313 7.46414,-4.525304 -0.17673,-0.306443 c -0.29567,-0.512103 -0.84066,-0.788109 -1.39165,-0.765844 z m -11.00966,14.454933 -3.75274,2.275314 -0.17363,8.093046 c -0.0184,0.859927 0.67363,1.566828 1.53375,1.566828 h 2.49029 c 0.21585,0 0.42108,-0.04424 0.6072,-0.12454 -0.55573,-0.239572 -0.94087,-0.797994 -0.92708,-1.442288 z m 5.1139,0 0.0486,2.275314 5.11493,3.101102 c 0.73548,0.44592 1.69384,0.20021 2.1239,-0.544672 l 0.17673,-0.30644 z" />
          </g>
          <g
             id="g28177-5-21-2-4-2-4-5"
             transform="translate(29.832267,47.29614)"
             style="display:inline">
            <path
               d="m 147.71798,47.981196 -9.09029,-4.991828 9.09029,-4.991827 c 0.75396,-0.414021 1.02025,-1.3669 0.59012,-2.111777 l -1.24519,-2.156779 c -0.43006,-0.744878 -1.38837,-0.99072 -2.12392,-0.544804 l -8.86816,5.376573 0.22213,-10.368336 c 0.0184,-0.859937 -0.67361,-1.566974 -1.5338,-1.566974 h -2.49039 c -0.86012,0 -1.55221,0.707037 -1.53373,1.566974 l 0.22206,10.368336 -8.86816,-5.376509 c -0.73548,-0.445916 -1.69386,-0.200074 -2.12392,0.544804 l -1.24519,2.156778 c -0.43006,0.744879 -0.16377,1.697757 0.59019,2.111777 l 9.09022,4.991764 -9.09028,4.991828 c -0.75396,0.41402 -1.02026,1.3669 -0.59013,2.111777 l 1.24519,2.156779 c 0.43006,0.744877 1.38844,0.990719 2.12392,0.544803 l 8.86816,-5.376572 -0.22212,10.368336 c -0.0184,0.859938 0.67367,1.566974 1.53379,1.566974 h 2.49045 c 0.86013,0 1.55221,-0.707036 1.5338,-1.566974 l -0.22219,-10.368336 8.86816,5.376508 c 0.73548,0.445918 1.69386,0.200075 2.12392,-0.544804 l 1.24519,-2.156777 c 0.43006,-0.744879 0.16384,-1.697694 -0.59012,-2.111714 z"
               id="path2-07-6-1-2-0-8-8-4"
               style="fill:#00ff99;fill-opacity:1;stroke-width:0.0639215" />
            <path
               id="path2-07-3-7-6-9-7-3-4-7"
               style="display:inline;fill:#265d47;fill-opacity:1;stroke:none;stroke-width:0.0639215;stroke-opacity:1"
               d="m 128.56448,26.625567 c -0.86012,0 -1.55224,0.706892 -1.53375,1.566828 l 0.17363,8.093046 3.75274,2.275313 -0.22221,-10.368359 c -0.0139,-0.644292 0.37135,-1.202201 0.92708,-1.441773 -0.18612,-0.0803 -0.39133,-0.125055 -0.6072,-0.125055 z M 117.653,32.963163 c -0.55098,-0.02227 -1.09649,0.254259 -1.39216,0.766363 l -1.2454,2.156457 c -0.43006,0.744879 -0.16382,1.697995 0.59014,2.112015 l 9.0904,4.991426 -9.0904,4.991944 c -0.75396,0.41402 -1.02027,1.367136 -0.59014,2.112015 l 1.2454,2.156457 c 0.43006,0.744882 1.38842,0.991108 2.1239,0.545188 l 1.40353,-0.851112 -1.06866,-1.850533 c -0.43014,-0.744879 -0.16382,-1.697995 0.59014,-2.112015 l 9.0904,-4.991944 -9.0904,-4.991426 c -0.75396,-0.41402 -1.02021,-1.367136 -0.59014,-2.112015 l 1.06866,-1.850533 -1.40353,-0.851111 c -0.22984,-0.139348 -0.48129,-0.211053 -0.73174,-0.221176 z m 24.31376,0 c -0.25045,0.01012 -0.50239,0.08183 -0.73225,0.221176 l -5.11493,3.101102 -0.0486,2.275313 7.46414,-4.525304 -0.17673,-0.306443 c -0.29567,-0.512103 -0.84066,-0.788109 -1.39165,-0.765844 z m -11.00966,14.454933 -3.75274,2.275314 -0.17363,8.093046 c -0.0184,0.859927 0.67363,1.566828 1.53375,1.566828 h 2.49029 c 0.21585,0 0.42108,-0.04424 0.6072,-0.12454 -0.55573,-0.239572 -0.94087,-0.797994 -0.92708,-1.442288 z m 5.1139,0 0.0486,2.275314 5.11493,3.101102 c 0.73548,0.44592 1.69384,0.20021 2.1239,-0.544672 l 0.17673,-0.30644 z" />
          </g>
          <g
             id="g28177-7-5-5-6-8-3-1"
             transform="translate(53.579157,55.826567)"
             style="display:inline">
            <path
               d="m 147.71798,47.981196 -9.09029,-4.991828 9.09029,-4.991827 c 0.75396,-0.414021 1.02025,-1.3669 0.59012,-2.111777 l -1.24519,-2.156779 c -0.43006,-0.744878 -1.38837,-0.99072 -2.12392,-0.544804 l -8.86816,5.376573 0.22213,-10.368336 c 0.0184,-0.859937 -0.67361,-1.566974 -1.5338,-1.566974 h -2.49039 c -0.86012,0 -1.55221,0.707037 -1.53373,1.566974 l 0.22206,10.368336 -8.86816,-5.376509 c -0.73548,-0.445916 -1.69386,-0.200074 -2.12392,0.544804 l -1.24519,2.156778 c -0.43006,0.744879 -0.16377,1.697757 0.59019,2.111777 l 9.09022,4.991764 -9.09028,4.991828 c -0.75396,0.41402 -1.02026,1.3669 -0.59013,2.111777 l 1.24519,2.156779 c 0.43006,0.744877 1.38844,0.990719 2.12392,0.544803 l 8.86816,-5.376572 -0.22212,10.368336 c -0.0184,0.859938 0.67367,1.566974 1.53379,1.566974 h 2.49045 c 0.86013,0 1.55221,-0.707036 1.5338,-1.566974 l -0.22219,-10.368336 8.86816,5.376508 c 0.73548,0.445918 1.69386,0.200075 2.12392,-0.544804 l 1.24519,-2.156777 c 0.43006,-0.744879 0.16384,-1.697694 -0.59012,-2.111714 z"
               id="path2-07-8-3-2-8-6-3-0"
               style="fill:#00ff99;fill-opacity:1;stroke-width:0.0639215" />
            <path
               id="path2-07-3-2-1-9-5-6-00-9"
               style="display:inline;fill:#265d47;fill-opacity:1;stroke:none;stroke-width:0.0639215;stroke-opacity:1"
               d="m 128.56448,26.625567 c -0.86012,0 -1.55224,0.706892 -1.53375,1.566828 l 0.17363,8.093046 3.75274,2.275313 -0.22221,-10.368359 c -0.0139,-0.644292 0.37135,-1.202201 0.92708,-1.441773 -0.18612,-0.0803 -0.39133,-0.125055 -0.6072,-0.125055 z M 117.653,32.963163 c -0.55098,-0.02227 -1.09649,0.254259 -1.39216,0.766363 l -1.2454,2.156457 c -0.43006,0.744879 -0.16382,1.697995 0.59014,2.112015 l 9.0904,4.991426 -9.0904,4.991944 c -0.75396,0.41402 -1.02027,1.367136 -0.59014,2.112015 l 1.2454,2.156457 c 0.43006,0.744882 1.38842,0.991108 2.1239,0.545188 l 1.40353,-0.851112 -1.06866,-1.850533 c -0.43014,-0.744879 -0.16382,-1.697995 0.59014,-2.112015 l 9.0904,-4.991944 -9.0904,-4.991426 c -0.75396,-0.41402 -1.02021,-1.367136 -0.59014,-2.112015 l 1.06866,-1.850533 -1.40353,-0.851111 c -0.22984,-0.139348 -0.48129,-0.211053 -0.73174,-0.221176 z m 24.31376,0 c -0.25045,0.01012 -0.50239,0.08183 -0.73225,0.221176 l -5.11493,3.101102 -0.0486,2.275313 7.46414,-4.525304 -0.17673,-0.306443 c -0.29567,-0.512103 -0.84066,-0.788109 -1.39165,-0.765844 z m -11.00966,14.454933 -3.75274,2.275314 -0.17363,8.093046 c -0.0184,0.859927 0.67363,1.566828 1.53375,1.566828 h 2.49029 c 0.21585,0 0.42108,-0.04424 0.6072,-0.12454 -0.55573,-0.239572 -0.94087,-0.797994 -0.92708,-1.442288 z m 5.1139,0 0.0486,2.275314 5.11493,3.101102 c 0.73548,0.44592 1.69384,0.20021 2.1239,-0.544672 l 0.17673,-0.30644 z" />
          </g>
        </g>
      </g>
      <g
         id="g6-5-9-8-3-0-0"
         transform="matrix(0.0234375,0,0,0.0234375,72.751741,57.13844)"
         style="display:inline;fill:#f5b42b;fill-opacity:1">
        <path
           class="st0"
           d="m 511.976,213.063 -45.863,-9.749 31.374,-34.845 C 472.114,131.733 417.268,115.015 360.373,127.926 355.071,69.826 322.223,22.83 279.444,10.052 L 256,50.659 232.556,10.053 C 189.777,22.832 156.93,69.828 151.627,127.927 94.733,115.016 39.886,131.734 14.514,168.47 l 31.374,34.844 -45.864,9.749 c -1.066,44.634 33.479,90.396 87.097,113.393 -29.86,50.12 -30.91,107.448 -3.812,142.931 l 42.834,-19.071 -4.901,46.632 c 42.12,14.806 96.318,-3.907 134.758,-47.794 38.44,43.887 92.638,62.6 134.758,47.794 l -4.901,-46.632 42.835,19.072 c 27.097,-35.483 26.048,-92.811 -3.812,-142.932 53.617,-22.996 88.162,-68.759 87.096,-113.393 z m -196.599,83.322 c 3.526,-2.358 7.678,-3.63 11.998,-3.63 3.762,0 7.479,0.998 10.752,2.889 4.986,2.876 8.552,7.525 10.043,13.085 1.49,5.56 0.725,11.369 -2.156,16.353 -3.838,6.65 -10.996,10.781 -18.68,10.781 -3.765,0 -7.484,-1 -10.758,-2.89 -7.126,-4.116 -11.228,-12.025 -10.724,-20.072 l -40.32,-23.278 v 46.552 c 7.222,3.587 12.021,11.096 12.021,19.327 0,11.884 -9.669,21.551 -21.553,21.551 -11.884,0 -21.553,-9.667 -21.553,-21.551 0,-8.231 4.799,-15.74 12.021,-19.327 v -46.552 l -40.319,23.278 c 0.504,8.047 -3.598,15.956 -10.724,20.072 -3.275,1.889 -6.994,2.89 -10.758,2.89 -7.684,0 -14.842,-4.132 -18.682,-10.781 -2.878,-4.984 -3.644,-10.792 -2.154,-16.353 1.49,-5.56 5.057,-10.209 10.043,-13.087 3.272,-1.889 6.989,-2.887 10.752,-2.887 4.321,0 8.473,1.272 11.996,3.63 l 40.312,-23.274 -40.312,-23.272 c -3.523,2.359 -7.675,3.63 -11.996,3.63 -3.762,0 -7.479,-0.998 -10.752,-2.89 -4.986,-2.876 -8.552,-7.525 -10.043,-13.085 -1.49,-5.56 -0.724,-11.369 2.156,-16.353 3.838,-6.65 10.995,-10.781 18.68,-10.781 3.764,0 7.484,1 10.758,2.89 7.126,4.116 11.228,12.025 10.724,20.072 l 40.319,23.278 v -46.552 c -7.222,-3.587 -12.021,-11.096 -12.021,-19.327 0,-11.884 9.669,-21.551 21.553,-21.551 11.884,0 21.553,9.667 21.553,21.551 0,8.231 -4.799,15.74 -12.021,19.327 V 256.6 l 40.32,-23.278 c -0.504,-8.047 3.598,-15.956 10.724,-20.072 3.275,-1.889 6.994,-2.89 10.758,-2.89 7.684,0 14.842,4.132 18.682,10.781 2.878,4.984 3.644,10.792 2.154,16.353 -1.49,5.56 -5.057,10.209 -10.043,13.088 -3.272,1.889 -6.989,2.887 -10.752,2.887 -4.32,0 -8.472,-1.272 -11.998,-3.63 l -40.31,23.272 z"
           id="path4-1-77-2-8-9-7-8"
           style="fill:#f5b42b;fill-opacity:1" />
      </g>
      <g
         id="g6-4-2-6-7-2-4-7"
         transform="matrix(0.0234375,0,0,0.0234375,56.044743,50.693647)"
         style="display:inline;fill:#f5b42b;fill-opacity:1">
        <path
           class="st0"
           d="m 511.976,213.063 -45.863,-9.749 31.374,-34.845 C 472.114,131.733 417.268,115.015 360.373,127.926 355.071,69.826 322.223,22.83 279.444,10.052 L 256,50.659 232.556,10.053 C 189.777,22.832 156.93,69.828 151.627,127.927 94.733,115.016 39.886,131.734 14.514,168.47 l 31.374,34.844 -45.864,9.749 c -1.066,44.634 33.479,90.396 87.097,113.393 -29.86,50.12 -30.91,107.448 -3.812,142.931 l 42.834,-19.071 -4.901,46.632 c 42.12,14.806 96.318,-3.907 134.758,-47.794 38.44,43.887 92.638,62.6 134.758,47.794 l -4.901,-46.632 42.835,19.072 c 27.097,-35.483 26.048,-92.811 -3.812,-142.932 53.617,-22.996 88.162,-68.759 87.096,-113.393 z m -196.599,83.322 c 3.526,-2.358 7.678,-3.63 11.998,-3.63 3.762,0 7.479,0.998 10.752,2.889 4.986,2.876 8.552,7.525 10.043,13.085 1.49,5.56 0.725,11.369 -2.156,16.353 -3.838,6.65 -10.996,10.781 -18.68,10.781 -3.765,0 -7.484,-1 -10.758,-2.89 -7.126,-4.116 -11.228,-12.025 -10.724,-20.072 l -40.32,-23.278 v 46.552 c 7.222,3.587 12.021,11.096 12.021,19.327 0,11.884 -9.669,21.551 -21.553,21.551 -11.884,0 -21.553,-9.667 -21.553,-21.551 0,-8.231 4.799,-15.74 12.021,-19.327 v -46.552 l -40.319,23.278 c 0.504,8.047 -3.598,15.956 -10.724,20.072 -3.275,1.889 -6.994,2.89 -10.758,2.89 -7.684,0 -14.842,-4.132 -18.682,-10.781 -2.878,-4.984 -3.644,-10.792 -2.154,-16.353 1.49,-5.56 5.057,-10.209 10.043,-13.087 3.272,-1.889 6.989,-2.887 10.752,-2.887 4.321,0 8.473,1.272 11.996,3.63 l 40.312,-23.274 -40.312,-23.272 c -3.523,2.359 -7.675,3.63 -11.996,3.63 -3.762,0 -7.479,-0.998 -10.752,-2.89 -4.986,-2.876 -8.552,-7.525 -10.043,-13.085 -1.49,-5.56 -0.724,-11.369 2.156,-16.353 3.838,-6.65 10.995,-10.781 18.68,-10.781 3.764,0 7.484,1 10.758,2.89 7.126,4.116 11.228,12.025 10.724,20.072 l 40.319,23.278 v -46.552 c -7.222,-3.587 -12.021,-11.096 -12.021,-19.327 0,-11.884 9.669,-21.551 21.553,-21.551 11.884,0 21.553,9.667 21.553,21.551 0,8.231 -4.799,15.74 -12.021,19.327 V 256.6 l 40.32,-23.278 c -0.504,-8.047 3.598,-15.956 10.724,-20.072 3.275,-1.889 6.994,-2.89 10.758,-2.89 7.684,0 14.842,4.132 18.682,10.781 2.878,4.984 3.644,10.792 2.154,16.353 -1.49,5.56 -5.057,10.209 -10.043,13.088 -3.272,1.889 -6.989,2.887 -10.752,2.887 -4.32,0 -8.472,-1.272 -11.998,-3.63 l -40.31,23.272 z"
           id="path4-1-6-2-5-8-3-7-1"
           style="fill:#f5b42b;fill-opacity:1" />
      </g>
      <g
         id="g6-4-4-2-1-8-4-3-6"
         transform="matrix(0.0234375,0,0,0.0234375,40.544594,56.262002)"
         style="display:inline;fill:#f5b42b;fill-opacity:1">
        <path
           class="st0"
           d="m 511.976,213.063 -45.863,-9.749 31.374,-34.845 C 472.114,131.733 417.268,115.015 360.373,127.926 355.071,69.826 322.223,22.83 279.444,10.052 L 256,50.659 232.556,10.053 C 189.777,22.832 156.93,69.828 151.627,127.927 94.733,115.016 39.886,131.734 14.514,168.47 l 31.374,34.844 -45.864,9.749 c -1.066,44.634 33.479,90.396 87.097,113.393 -29.86,50.12 -30.91,107.448 -3.812,142.931 l 42.834,-19.071 -4.901,46.632 c 42.12,14.806 96.318,-3.907 134.758,-47.794 38.44,43.887 92.638,62.6 134.758,47.794 l -4.901,-46.632 42.835,19.072 c 27.097,-35.483 26.048,-92.811 -3.812,-142.932 53.617,-22.996 88.162,-68.759 87.096,-113.393 z m -196.599,83.322 c 3.526,-2.358 7.678,-3.63 11.998,-3.63 3.762,0 7.479,0.998 10.752,2.889 4.986,2.876 8.552,7.525 10.043,13.085 1.49,5.56 0.725,11.369 -2.156,16.353 -3.838,6.65 -10.996,10.781 -18.68,10.781 -3.765,0 -7.484,-1 -10.758,-2.89 -7.126,-4.116 -11.228,-12.025 -10.724,-20.072 l -40.32,-23.278 v 46.552 c 7.222,3.587 12.021,11.096 12.021,19.327 0,11.884 -9.669,21.551 -21.553,21.551 -11.884,0 -21.553,-9.667 -21.553,-21.551 0,-8.231 4.799,-15.74 12.021,-19.327 v -46.552 l -40.319,23.278 c 0.504,8.047 -3.598,15.956 -10.724,20.072 -3.275,1.889 -6.994,2.89 -10.758,2.89 -7.684,0 -14.842,-4.132 -18.682,-10.781 -2.878,-4.984 -3.644,-10.792 -2.154,-16.353 1.49,-5.56 5.057,-10.209 10.043,-13.087 3.272,-1.889 6.989,-2.887 10.752,-2.887 4.321,0 8.473,1.272 11.996,3.63 l 40.312,-23.274 -40.312,-23.272 c -3.523,2.359 -7.675,3.63 -11.996,3.63 -3.762,0 -7.479,-0.998 -10.752,-2.89 -4.986,-2.876 -8.552,-7.525 -10.043,-13.085 -1.49,-5.56 -0.724,-11.369 2.156,-16.353 3.838,-6.65 10.995,-10.781 18.68,-10.781 3.764,0 7.484,1 10.758,2.89 7.126,4.116 11.228,12.025 10.724,20.072 l 40.319,23.278 v -46.552 c -7.222,-3.587 -12.021,-11.096 -12.021,-19.327 0,-11.884 9.669,-21.551 21.553,-21.551 11.884,0 21.553,9.667 21.553,21.551 0,8.231 -4.799,15.74 -12.021,19.327 V 256.6 l 40.32,-23.278 c -0.504,-8.047 3.598,-15.956 10.724,-20.072 3.275,-1.889 6.994,-2.89 10.758,-2.89 7.684,0 14.842,4.132 18.682,10.781 2.878,4.984 3.644,10.792 2.154,16.353 -1.49,5.56 -5.057,10.209 -10.043,13.088 -3.272,1.889 -6.989,2.887 -10.752,2.887 -4.32,0 -8.472,-1.272 -11.998,-3.63 l -40.31,23.272 z"
           id="path4-1-6-9-5-0-8-6-1-6"
           style="fill:#f5b42b;fill-opacity:1" />
      </g>
    </g>
    <g
       id="g3139-9-8-3-8-9"
       style="display:inline"
       transform="matrix(0.8490566,0,0,0.8490566,33.927084,21.926351)">
      <g
         id="g2290-3-1-0-1-9">
        <g
           id="g28241-4-2-8-5-8"
           transform="matrix(0.65272443,0,0,0.65272443,-39.473483,-6.814027)"
           style="display:inline">
          <g
             id="g28177-2-0-3-3-7"
             transform="translate(6.0854167,55.827083)">
            <path
               d="m 147.71798,47.981196 -9.09029,-4.991828 9.09029,-4.991827 c 0.75396,-0.414021 1.02025,-1.3669 0.59012,-2.111777 l -1.24519,-2.156779 c -0.43006,-0.744878 -1.38837,-0.99072 -2.12392,-0.544804 l -8.86816,5.376573 0.22213,-10.368336 c 0.0184,-0.859937 -0.67361,-1.566974 -1.5338,-1.566974 h -2.49039 c -0.86012,0 -1.55221,0.707037 -1.53373,1.566974 l 0.22206,10.368336 -8.86816,-5.376509 c -0.73548,-0.445916 -1.69386,-0.200074 -2.12392,0.544804 l -1.24519,2.156778 c -0.43006,0.744879 -0.16377,1.697757 0.59019,2.111777 l 9.09022,4.991764 -9.09028,4.991828 c -0.75396,0.41402 -1.02026,1.3669 -0.59013,2.111777 l 1.24519,2.156779 c 0.43006,0.744877 1.38844,0.990719 2.12392,0.544803 l 8.86816,-5.376572 -0.22212,10.368336 c -0.0184,0.859938 0.67367,1.566974 1.53379,1.566974 h 2.49045 c 0.86013,0 1.55221,-0.707036 1.5338,-1.566974 l -0.22219,-10.368336 8.86816,5.376508 c 0.73548,0.445918 1.69386,0.200075 2.12392,-0.544804 l 1.24519,-2.156777 c 0.43006,-0.744879 0.16384,-1.697694 -0.59012,-2.111714 z"
               id="path2-07-0-0-7-4-3"
               style="fill:#00ff99;fill-opacity:1;stroke-width:0.0639215" />
            <path
               id="path2-07-3-8-5-5-3-2"
               style="display:inline;fill:#265d47;fill-opacity:1;stroke:none;stroke-width:0.0639215;stroke-opacity:1"
               d="m 128.56448,26.625567 c -0.86012,0 -1.55224,0.706892 -1.53375,1.566828 l 0.17363,8.093046 3.75274,2.275313 -0.22221,-10.368359 c -0.0139,-0.644292 0.37135,-1.202201 0.92708,-1.441773 -0.18612,-0.0803 -0.39133,-0.125055 -0.6072,-0.125055 z M 117.653,32.963163 c -0.55098,-0.02227 -1.09649,0.254259 -1.39216,0.766363 l -1.2454,2.156457 c -0.43006,0.744879 -0.16382,1.697995 0.59014,2.112015 l 9.0904,4.991426 -9.0904,4.991944 c -0.75396,0.41402 -1.02027,1.367136 -0.59014,2.112015 l 1.2454,2.156457 c 0.43006,0.744882 1.38842,0.991108 2.1239,0.545188 l 1.40353,-0.851112 -1.06866,-1.850533 c -0.43014,-0.744879 -0.16382,-1.697995 0.59014,-2.112015 l 9.0904,-4.991944 -9.0904,-4.991426 c -0.75396,-0.41402 -1.02021,-1.367136 -0.59014,-2.112015 l 1.06866,-1.850533 -1.40353,-0.851111 c -0.22984,-0.139348 -0.48129,-0.211053 -0.73174,-0.221176 z m 24.31376,0 c -0.25045,0.01012 -0.50239,0.08183 -0.73225,0.221176 l -5.11493,3.101102 -0.0486,2.275313 7.46414,-4.525304 -0.17673,-0.306443 c -0.29567,-0.512103 -0.84066,-0.788109 -1.39165,-0.765844 z m -11.00966,14.454933 -3.75274,2.275314 -0.17363,8.093046 c -0.0184,0.859927 0.67363,1.566828 1.53375,1.566828 h 2.49029 c 0.21585,0 0.42108,-0.04424 0.6072,-0.12454 -0.55573,-0.239572 -0.94087,-0.797994 -0.92708,-1.442288 z m 5.1139,0 0.0486,2.275314 5.11493,3.101102 c 0.73548,0.44592 1.69384,0.20021 2.1239,-0.544672 l 0.17673,-0.30644 z" />
          </g>
          <g
             id="g28177-5-21-2-4-2-4"
             transform="translate(29.832267,47.29614)"
             style="display:inline">
            <path
               d="m 147.71798,47.981196 -9.09029,-4.991828 9.09029,-4.991827 c 0.75396,-0.414021 1.02025,-1.3669 0.59012,-2.111777 l -1.24519,-2.156779 c -0.43006,-0.744878 -1.38837,-0.99072 -2.12392,-0.544804 l -8.86816,5.376573 0.22213,-10.368336 c 0.0184,-0.859937 -0.67361,-1.566974 -1.5338,-1.566974 h -2.49039 c -0.86012,0 -1.55221,0.707037 -1.53373,1.566974 l 0.22206,10.368336 -8.86816,-5.376509 c -0.73548,-0.445916 -1.69386,-0.200074 -2.12392,0.544804 l -1.24519,2.156778 c -0.43006,0.744879 -0.16377,1.697757 0.59019,2.111777 l 9.09022,4.991764 -9.09028,4.991828 c -0.75396,0.41402 -1.02026,1.3669 -0.59013,2.111777 l 1.24519,2.156779 c 0.43006,0.744877 1.38844,0.990719 2.12392,0.544803 l 8.86816,-5.376572 -0.22212,10.368336 c -0.0184,0.859938 0.67367,1.566974 1.53379,1.566974 h 2.49045 c 0.86013,0 1.55221,-0.707036 1.5338,-1.566974 l -0.22219,-10.368336 8.86816,5.376508 c 0.73548,0.445918 1.69386,0.200075 2.12392,-0.544804 l 1.24519,-2.156777 c 0.43006,-0.744879 0.16384,-1.697694 -0.59012,-2.111714 z"
               id="path2-07-6-1-2-0-8-8"
               style="fill:#00ff99;fill-opacity:1;stroke-width:0.0639215" />
            <path
               id="path2-07-3-7-6-9-7-3-4"
               style="display:inline;fill:#265d47;fill-opacity:1;stroke:none;stroke-width:0.0639215;stroke-opacity:1"
               d="m 128.56448,26.625567 c -0.86012,0 -1.55224,0.706892 -1.53375,1.566828 l 0.17363,8.093046 3.75274,2.275313 -0.22221,-10.368359 c -0.0139,-0.644292 0.37135,-1.202201 0.92708,-1.441773 -0.18612,-0.0803 -0.39133,-0.125055 -0.6072,-0.125055 z M 117.653,32.963163 c -0.55098,-0.02227 -1.09649,0.254259 -1.39216,0.766363 l -1.2454,2.156457 c -0.43006,0.744879 -0.16382,1.697995 0.59014,2.112015 l 9.0904,4.991426 -9.0904,4.991944 c -0.75396,0.41402 -1.02027,1.367136 -0.59014,2.112015 l 1.2454,2.156457 c 0.43006,0.744882 1.38842,0.991108 2.1239,0.545188 l 1.40353,-0.851112 -1.06866,-1.850533 c -0.43014,-0.744879 -0.16382,-1.697995 0.59014,-2.112015 l 9.0904,-4.991944 -9.0904,-4.991426 c -0.75396,-0.41402 -1.02021,-1.367136 -0.59014,-2.112015 l 1.06866,-1.850533 -1.40353,-0.851111 c -0.22984,-0.139348 -0.48129,-0.211053 -0.73174,-0.221176 z m 24.31376,0 c -0.25045,0.01012 -0.50239,0.08183 -0.73225,0.221176 l -5.11493,3.101102 -0.0486,2.275313 7.46414,-4.525304 -0.17673,-0.306443 c -0.29567,-0.512103 -0.84066,-0.788109 -1.39165,-0.765844 z m -11.00966,14.454933 -3.75274,2.275314 -0.17363,8.093046 c -0.0184,0.859927 0.67363,1.566828 1.53375,1.566828 h 2.49029 c 0.21585,0 0.42108,-0.04424 0.6072,-0.12454 -0.55573,-0.239572 -0.94087,-0.797994 -0.92708,-1.442288 z m 5.1139,0 0.0486,2.275314 5.11493,3.101102 c 0.73548,0.44592 1.69384,0.20021 2.1239,-0.544672 l 0.17673,-0.30644 z" />
          </g>
          <g
             id="g28177-7-5-5-6-8-3"
             transform="translate(53.579157,55.826567)"
             style="display:inline">
            <path
               d="m 147.71798,47.981196 -9.09029,-4.991828 9.09029,-4.991827 c 0.75396,-0.414021 1.02025,-1.3669 0.59012,-2.111777 l -1.24519,-2.156779 c -0.43006,-0.744878 -1.38837,-0.99072 -2.12392,-0.544804 l -8.86816,5.376573 0.22213,-10.368336 c 0.0184,-0.859937 -0.67361,-1.566974 -1.5338,-1.566974 h -2.49039 c -0.86012,0 -1.55221,0.707037 -1.53373,1.566974 l 0.22206,10.368336 -8.86816,-5.376509 c -0.73548,-0.445916 -1.69386,-0.200074 -2.12392,0.544804 l -1.24519,2.156778 c -0.43006,0.744879 -0.16377,1.697757 0.59019,2.111777 l 9.09022,4.991764 -9.09028,4.991828 c -0.75396,0.41402 -1.02026,1.3669 -0.59013,2.111777 l 1.24519,2.156779 c 0.43006,0.744877 1.38844,0.990719 2.12392,0.544803 l 8.86816,-5.376572 -0.22212,10.368336 c -0.0184,0.859938 0.67367,1.566974 1.53379,1.566974 h 2.49045 c 0.86013,0 1.55221,-0.707036 1.5338,-1.566974 l -0.22219,-10.368336 8.86816,5.376508 c 0.73548,0.445918 1.69386,0.200075 2.12392,-0.544804 l 1.24519,-2.156777 c 0.43006,-0.744879 0.16384,-1.697694 -0.59012,-2.111714 z"
               id="path2-07-8-3-2-8-6-3"
               style="fill:#00ff99;fill-opacity:1;stroke-width:0.0639215" />
            <path
               id="path2-07-3-2-1-9-5-6-00"
               style="display:inline;fill:#265d47;fill-opacity:1;stroke:none;stroke-width:0.0639215;stroke-opacity:1"
               d="m 128.56448,26.625567 c -0.86012,0 -1.55224,0.706892 -1.53375,1.566828 l 0.17363,8.093046 3.75274,2.275313 -0.22221,-10.368359 c -0.0139,-0.644292 0.37135,-1.202201 0.92708,-1.441773 -0.18612,-0.0803 -0.39133,-0.125055 -0.6072,-0.125055 z M 117.653,32.963163 c -0.55098,-0.02227 -1.09649,0.254259 -1.39216,0.766363 l -1.2454,2.156457 c -0.43006,0.744879 -0.16382,1.697995 0.59014,2.112015 l 9.0904,4.991426 -9.0904,4.991944 c -0.75396,0.41402 -1.02027,1.367136 -0.59014,2.112015 l 1.2454,2.156457 c 0.43006,0.744882 1.38842,0.991108 2.1239,0.545188 l 1.40353,-0.851112 -1.06866,-1.850533 c -0.43014,-0.744879 -0.16382,-1.697995 0.59014,-2.112015 l 9.0904,-4.991944 -9.0904,-4.991426 c -0.75396,-0.41402 -1.02021,-1.367136 -0.59014,-2.112015 l 1.06866,-1.850533 -1.40353,-0.851111 c -0.22984,-0.139348 -0.48129,-0.211053 -0.73174,-0.221176 z m 24.31376,0 c -0.25045,0.01012 -0.50239,0.08183 -0.73225,0.221176 l -5.11493,3.101102 -0.0486,2.275313 7.46414,-4.525304 -0.17673,-0.306443 c -0.29567,-0.512103 -0.84066,-0.788109 -1.39165,-0.765844 z m -11.00966,14.454933 -3.75274,2.275314 -0.17363,8.093046 c -0.0184,0.859927 0.67363,1.566828 1.53375,1.566828 h 2.49029 c 0.21585,0 0.42108,-0.04424 0.6072,-0.12454 -0.55573,-0.239572 -0.94087,-0.797994 -0.92708,-1.442288 z m 5.1139,0 0.0486,2.275314 5.11493,3.101102 c 0.73548,0.44592 1.69384,0.20021 2.1239,-0.544672 l 0.17673,-0.30644 z" />
          </g>
        </g>
      </g>
      <g
         id="g6-5-9-8-3-0"
         transform="matrix(0.0234375,0,0,0.0234375,72.751741,57.13844)"
         style="display:inline;fill:#f5b42b;fill-opacity:1">
        <path
           class="st0"
           d="m 511.976,213.063 -45.863,-9.749 31.374,-34.845 C 472.114,131.733 417.268,115.015 360.373,127.926 355.071,69.826 322.223,22.83 279.444,10.052 L 256,50.659 232.556,10.053 C 189.777,22.832 156.93,69.828 151.627,127.927 94.733,115.016 39.886,131.734 14.514,168.47 l 31.374,34.844 -45.864,9.749 c -1.066,44.634 33.479,90.396 87.097,113.393 -29.86,50.12 -30.91,107.448 -3.812,142.931 l 42.834,-19.071 -4.901,46.632 c 42.12,14.806 96.318,-3.907 134.758,-47.794 38.44,43.887 92.638,62.6 134.758,47.794 l -4.901,-46.632 42.835,19.072 c 27.097,-35.483 26.048,-92.811 -3.812,-142.932 53.617,-22.996 88.162,-68.759 87.096,-113.393 z m -196.599,83.322 c 3.526,-2.358 7.678,-3.63 11.998,-3.63 3.762,0 7.479,0.998 10.752,2.889 4.986,2.876 8.552,7.525 10.043,13.085 1.49,5.56 0.725,11.369 -2.156,16.353 -3.838,6.65 -10.996,10.781 -18.68,10.781 -3.765,0 -7.484,-1 -10.758,-2.89 -7.126,-4.116 -11.228,-12.025 -10.724,-20.072 l -40.32,-23.278 v 46.552 c 7.222,3.587 12.021,11.096 12.021,19.327 0,11.884 -9.669,21.551 -21.553,21.551 -11.884,0 -21.553,-9.667 -21.553,-21.551 0,-8.231 4.799,-15.74 12.021,-19.327 v -46.552 l -40.319,23.278 c 0.504,8.047 -3.598,15.956 -10.724,20.072 -3.275,1.889 -6.994,2.89 -10.758,2.89 -7.684,0 -14.842,-4.132 -18.682,-10.781 -2.878,-4.984 -3.644,-10.792 -2.154,-16.353 1.49,-5.56 5.057,-10.209 10.043,-13.087 3.272,-1.889 6.989,-2.887 10.752,-2.887 4.321,0 8.473,1.272 11.996,3.63 l 40.312,-23.274 -40.312,-23.272 c -3.523,2.359 -7.675,3.63 -11.996,3.63 -3.762,0 -7.479,-0.998 -10.752,-2.89 -4.986,-2.876 -8.552,-7.525 -10.043,-13.085 -1.49,-5.56 -0.724,-11.369 2.156,-16.353 3.838,-6.65 10.995,-10.781 18.68,-10.781 3.764,0 7.484,1 10.758,2.89 7.126,4.116 11.228,12.025 10.724,20.072 l 40.319,23.278 v -46.552 c -7.222,-3.587 -12.021,-11.096 -12.021,-19.327 0,-11.884 9.669,-21.551 21.553,-21.551 11.884,0 21.553,9.667 21.553,21.551 0,8.231 -4.799,15.74 -12.021,19.327 V 256.6 l 40.32,-23.278 c -0.504,-8.047 3.598,-15.956 10.724,-20.072 3.275,-1.889 6.994,-2.89 10.758,-2.89 7.684,0 14.842,4.132 18.682,10.781 2.878,4.984 3.644,10.792 2.154,16.353 -1.49,5.56 -5.057,10.209 -10.043,13.088 -3.272,1.889 -6.989,2.887 -10.752,2.887 -4.32,0 -8.472,-1.272 -11.998,-3.63 l -40.31,23.272 z"
           id="path4-1-77-2-8-9-7"
           style="fill:#f5b42b;fill-opacity:1" />
      </g>
      <g
         id="g6-4-2-6-7-2-4"
         transform="matrix(0.0234375,0,0,0.0234375,56.044743,50.693647)"
         style="display:inline;fill:#f5b42b;fill-opacity:1">
        <path
           class="st0"
           d="m 511.976,213.063 -45.863,-9.749 31.374,-34.845 C 472.114,131.733 417.268,115.015 360.373,127.926 355.071,69.826 322.223,22.83 279.444,10.052 L 256,50.659 232.556,10.053 C 189.777,22.832 156.93,69.828 151.627,127.927 94.733,115.016 39.886,131.734 14.514,168.47 l 31.374,34.844 -45.864,9.749 c -1.066,44.634 33.479,90.396 87.097,113.393 -29.86,50.12 -30.91,107.448 -3.812,142.931 l 42.834,-19.071 -4.901,46.632 c 42.12,14.806 96.318,-3.907 134.758,-47.794 38.44,43.887 92.638,62.6 134.758,47.794 l -4.901,-46.632 42.835,19.072 c 27.097,-35.483 26.048,-92.811 -3.812,-142.932 53.617,-22.996 88.162,-68.759 87.096,-113.393 z m -196.599,83.322 c 3.526,-2.358 7.678,-3.63 11.998,-3.63 3.762,0 7.479,0.998 10.752,2.889 4.986,2.876 8.552,7.525 10.043,13.085 1.49,5.56 0.725,11.369 -2.156,16.353 -3.838,6.65 -10.996,10.781 -18.68,10.781 -3.765,0 -7.484,-1 -10.758,-2.89 -7.126,-4.116 -11.228,-12.025 -10.724,-20.072 l -40.32,-23.278 v 46.552 c 7.222,3.587 12.021,11.096 12.021,19.327 0,11.884 -9.669,21.551 -21.553,21.551 -11.884,0 -21.553,-9.667 -21.553,-21.551 0,-8.231 4.799,-15.74 12.021,-19.327 v -46.552 l -40.319,23.278 c 0.504,8.047 -3.598,15.956 -10.724,20.072 -3.275,1.889 -6.994,2.89 -10.758,2.89 -7.684,0 -14.842,-4.132 -18.682,-10.781 -2.878,-4.984 -3.644,-10.792 -2.154,-16.353 1.49,-5.56 5.057,-10.209 10.043,-13.087 3.272,-1.889 6.989,-2.887 10.752,-2.887 4.321,0 8.473,1.272 11.996,3.63 l 40.312,-23.274 -40.312,-23.272 c -3.523,2.359 -7.675,3.63 -11.996,3.63 -3.762,0 -7.479,-0.998 -10.752,-2.89 -4.986,-2.876 -8.552,-7.525 -10.043,-13.085 -1.49,-5.56 -0.724,-11.369 2.156,-16.353 3.838,-6.65 10.995,-10.781 18.68,-10.781 3.764,0 7.484,1 10.758,2.89 7.126,4.116 11.228,12.025 10.724,20.072 l 40.319,23.278 v -46.552 c -7.222,-3.587 -12.021,-11.096 -12.021,-19.327 0,-11.884 9.669,-21.551 21.553,-21.551 11.884,0 21.553,9.667 21.553,21.551 0,8.231 -4.799,15.74 -12.021,19.327 V 256.6 l 40.32,-23.278 c -0.504,-8.047 3.598,-15.956 10.724,-20.072 3.275,-1.889 6.994,-2.89 10.758,-2.89 7.684,0 14.842,4.132 18.682,10.781 2.878,4.984 3.644,10.792 2.154,16.353 -1.49,5.56 -5.057,10.209 -10.043,13.088 -3.272,1.889 -6.989,2.887 -10.752,2.887 -4.32,0 -8.472,-1.272 -11.998,-3.63 l -40.31,23.272 z"
           id="path4-1-6-2-5-8-3-7"
           style="fill:#f5b42b;fill-opacity:1" />
      </g>
      <g
         id="g6-4-4-2-1-8-4-3"
         transform="matrix(0.0234375,0,0,0.0234375,40.544594,56.262002)"
         style="display:inline;fill:#f5b42b;fill-opacity:1">
        <path
           class="st0"
           d="m 511.976,213.063 -45.863,-9.749 31.374,-34.845 C 472.114,131.733 417.268,115.015 360.373,127.926 355.071,69.826 322.223,22.83 279.444,10.052 L 256,50.659 232.556,10.053 C 189.777,22.832 156.93,69.828 151.627,127.927 94.733,115.016 39.886,131.734 14.514,168.47 l 31.374,34.844 -45.864,9.749 c -1.066,44.634 33.479,90.396 87.097,113.393 -29.86,50.12 -30.91,107.448 -3.812,142.931 l 42.834,-19.071 -4.901,46.632 c 42.12,14.806 96.318,-3.907 134.758,-47.794 38.44,43.887 92.638,62.6 134.758,47.794 l -4.901,-46.632 42.835,19.072 c 27.097,-35.483 26.048,-92.811 -3.812,-142.932 53.617,-22.996 88.162,-68.759 87.096,-113.393 z m -196.599,83.322 c 3.526,-2.358 7.678,-3.63 11.998,-3.63 3.762,0 7.479,0.998 10.752,2.889 4.986,2.876 8.552,7.525 10.043,13.085 1.49,5.56 0.725,11.369 -2.156,16.353 -3.838,6.65 -10.996,10.781 -18.68,10.781 -3.765,0 -7.484,-1 -10.758,-2.89 -7.126,-4.116 -11.228,-12.025 -10.724,-20.072 l -40.32,-23.278 v 46.552 c 7.222,3.587 12.021,11.096 12.021,19.327 0,11.884 -9.669,21.551 -21.553,21.551 -11.884,0 -21.553,-9.667 -21.553,-21.551 0,-8.231 4.799,-15.74 12.021,-19.327 v -46.552 l -40.319,23.278 c 0.504,8.047 -3.598,15.956 -10.724,20.072 -3.275,1.889 -6.994,2.89 -10.758,2.89 -7.684,0 -14.842,-4.132 -18.682,-10.781 -2.878,-4.984 -3.644,-10.792 -2.154,-16.353 1.49,-5.56 5.057,-10.209 10.043,-13.087 3.272,-1.889 6.989,-2.887 10.752,-2.887 4.321,0 8.473,1.272 11.996,3.63 l 40.312,-23.274 -40.312,-23.272 c -3.523,2.359 -7.675,3.63 -11.996,3.63 -3.762,0 -7.479,-0.998 -10.752,-2.89 -4.986,-2.876 -8.552,-7.525 -10.043,-13.085 -1.49,-5.56 -0.724,-11.369 2.156,-16.353 3.838,-6.65 10.995,-10.781 18.68,-10.781 3.764,0 7.484,1 10.758,2.89 7.126,4.116 11.228,12.025 10.724,20.072 l 40.319,23.278 v -46.552 c -7.222,-3.587 -12.021,-11.096 -12.021,-19.327 0,-11.884 9.669,-21.551 21.553,-21.551 11.884,0 21.553,9.667 21.553,21.551 0,8.231 -4.799,15.74 -12.021,19.327 V 256.6 l 40.32,-23.278 c -0.504,-8.047 3.598,-15.956 10.724,-20.072 3.275,-1.889 6.994,-2.89 10.758,-2.89 7.684,0 14.842,4.132 18.682,10.781 2.878,4.984 3.644,10.792 2.154,16.353 -1.49,5.56 -5.057,10.209 -10.043,13.088 -3.272,1.889 -6.989,2.887 -10.752,2.887 -4.32,0 -8.472,-1.272 -11.998,-3.63 l -40.31,23.272 z"
           id="path4-1-6-9-5-0-8-6-1"
           style="fill:#f5b42b;fill-opacity:1" />
      </g>
    </g>
    <g
       id="g3139-9-8-3-8-9-9"
       style="display:inline"
       transform="matrix(0.56603774,0,0,0.56603774,70.759928,12.924249)">
      <g
         id="g2290-3-1-0-1-9-0">
        <g
           id="g28241-4-2-8-5-8-7"
           transform="matrix(0.65272443,0,0,0.65272443,-39.473483,-6.814027)"
           style="display:inline">
          <g
             id="g28177-2-0-3-3-7-4"
             transform="translate(6.0854167,55.827083)">
            <path
               d="m 147.71798,47.981196 -9.09029,-4.991828 9.09029,-4.991827 c 0.75396,-0.414021 1.02025,-1.3669 0.59012,-2.111777 l -1.24519,-2.156779 c -0.43006,-0.744878 -1.38837,-0.99072 -2.12392,-0.544804 l -8.86816,5.376573 0.22213,-10.368336 c 0.0184,-0.859937 -0.67361,-1.566974 -1.5338,-1.566974 h -2.49039 c -0.86012,0 -1.55221,0.707037 -1.53373,1.566974 l 0.22206,10.368336 -8.86816,-5.376509 c -0.73548,-0.445916 -1.69386,-0.200074 -2.12392,0.544804 l -1.24519,2.156778 c -0.43006,0.744879 -0.16377,1.697757 0.59019,2.111777 l 9.09022,4.991764 -9.09028,4.991828 c -0.75396,0.41402 -1.02026,1.3669 -0.59013,2.111777 l 1.24519,2.156779 c 0.43006,0.744877 1.38844,0.990719 2.12392,0.544803 l 8.86816,-5.376572 -0.22212,10.368336 c -0.0184,0.859938 0.67367,1.566974 1.53379,1.566974 h 2.49045 c 0.86013,0 1.55221,-0.707036 1.5338,-1.566974 l -0.22219,-10.368336 8.86816,5.376508 c 0.73548,0.445918 1.69386,0.200075 2.12392,-0.544804 l 1.24519,-2.156777 c 0.43006,-0.744879 0.16384,-1.697694 -0.59012,-2.111714 z"
               id="path2-07-0-0-7-4-3-5"
               style="fill:#00ff99;fill-opacity:1;stroke-width:0.0639215" />
            <path
               id="path2-07-3-8-5-5-3-2-3"
               style="display:inline;fill:#265d47;fill-opacity:1;stroke:none;stroke-width:0.0639215;stroke-opacity:1"
               d="m 128.56448,26.625567 c -0.86012,0 -1.55224,0.706892 -1.53375,1.566828 l 0.17363,8.093046 3.75274,2.275313 -0.22221,-10.368359 c -0.0139,-0.644292 0.37135,-1.202201 0.92708,-1.441773 -0.18612,-0.0803 -0.39133,-0.125055 -0.6072,-0.125055 z M 117.653,32.963163 c -0.55098,-0.02227 -1.09649,0.254259 -1.39216,0.766363 l -1.2454,2.156457 c -0.43006,0.744879 -0.16382,1.697995 0.59014,2.112015 l 9.0904,4.991426 -9.0904,4.991944 c -0.75396,0.41402 -1.02027,1.367136 -0.59014,2.112015 l 1.2454,2.156457 c 0.43006,0.744882 1.38842,0.991108 2.1239,0.545188 l 1.40353,-0.851112 -1.06866,-1.850533 c -0.43014,-0.744879 -0.16382,-1.697995 0.59014,-2.112015 l 9.0904,-4.991944 -9.0904,-4.991426 c -0.75396,-0.41402 -1.02021,-1.367136 -0.59014,-2.112015 l 1.06866,-1.850533 -1.40353,-0.851111 c -0.22984,-0.139348 -0.48129,-0.211053 -0.73174,-0.221176 z m 24.31376,0 c -0.25045,0.01012 -0.50239,0.08183 -0.73225,0.221176 l -5.11493,3.101102 -0.0486,2.275313 7.46414,-4.525304 -0.17673,-0.306443 c -0.29567,-0.512103 -0.84066,-0.788109 -1.39165,-0.765844 z m -11.00966,14.454933 -3.75274,2.275314 -0.17363,8.093046 c -0.0184,0.859927 0.67363,1.566828 1.53375,1.566828 h 2.49029 c 0.21585,0 0.42108,-0.04424 0.6072,-0.12454 -0.55573,-0.239572 -0.94087,-0.797994 -0.92708,-1.442288 z m 5.1139,0 0.0486,2.275314 5.11493,3.101102 c 0.73548,0.44592 1.69384,0.20021 2.1239,-0.544672 l 0.17673,-0.30644 z" />
          </g>
          <g
             id="g28177-5-21-2-4-2-4-7"
             transform="translate(29.832267,47.29614)"
             style="display:inline">
            <path
               d="m 147.71798,47.981196 -9.09029,-4.991828 9.09029,-4.991827 c 0.75396,-0.414021 1.02025,-1.3669 0.59012,-2.111777 l -1.24519,-2.156779 c -0.43006,-0.744878 -1.38837,-0.99072 -2.12392,-0.544804 l -8.86816,5.376573 0.22213,-10.368336 c 0.0184,-0.859937 -0.67361,-1.566974 -1.5338,-1.566974 h -2.49039 c -0.86012,0 -1.55221,0.707037 -1.53373,1.566974 l 0.22206,10.368336 -8.86816,-5.376509 c -0.73548,-0.445916 -1.69386,-0.200074 -2.12392,0.544804 l -1.24519,2.156778 c -0.43006,0.744879 -0.16377,1.697757 0.59019,2.111777 l 9.09022,4.991764 -9.09028,4.991828 c -0.75396,0.41402 -1.02026,1.3669 -0.59013,2.111777 l 1.24519,2.156779 c 0.43006,0.744877 1.38844,0.990719 2.12392,0.544803 l 8.86816,-5.376572 -0.22212,10.368336 c -0.0184,0.859938 0.67367,1.566974 1.53379,1.566974 h 2.49045 c 0.86013,0 1.55221,-0.707036 1.5338,-1.566974 l -0.22219,-10.368336 8.86816,5.376508 c 0.73548,0.445918 1.69386,0.200075 2.12392,-0.544804 l 1.24519,-2.156777 c 0.43006,-0.744879 0.16384,-1.697694 -0.59012,-2.111714 z"
               id="path2-07-6-1-2-0-8-8-2"
               style="fill:#00ff99;fill-opacity:1;stroke-width:0.0639215" />
            <path
               id="path2-07-3-7-6-9-7-3-4-3"
               style="display:inline;fill:#265d47;fill-opacity:1;stroke:none;stroke-width:0.0639215;stroke-opacity:1"
               d="m 128.56448,26.625567 c -0.86012,0 -1.55224,0.706892 -1.53375,1.566828 l 0.17363,8.093046 3.75274,2.275313 -0.22221,-10.368359 c -0.0139,-0.644292 0.37135,-1.202201 0.92708,-1.441773 -0.18612,-0.0803 -0.39133,-0.125055 -0.6072,-0.125055 z M 117.653,32.963163 c -0.55098,-0.02227 -1.09649,0.254259 -1.39216,0.766363 l -1.2454,2.156457 c -0.43006,0.744879 -0.16382,1.697995 0.59014,2.112015 l 9.0904,4.991426 -9.0904,4.991944 c -0.75396,0.41402 -1.02027,1.367136 -0.59014,2.112015 l 1.2454,2.156457 c 0.43006,0.744882 1.38842,0.991108 2.1239,0.545188 l 1.40353,-0.851112 -1.06866,-1.850533 c -0.43014,-0.744879 -0.16382,-1.697995 0.59014,-2.112015 l 9.0904,-4.991944 -9.0904,-4.991426 c -0.75396,-0.41402 -1.02021,-1.367136 -0.59014,-2.112015 l 1.06866,-1.850533 -1.40353,-0.851111 c -0.22984,-0.139348 -0.48129,-0.211053 -0.73174,-0.221176 z m 24.31376,0 c -0.25045,0.01012 -0.50239,0.08183 -0.73225,0.221176 l -5.11493,3.101102 -0.0486,2.275313 7.46414,-4.525304 -0.17673,-0.306443 c -0.29567,-0.512103 -0.84066,-0.788109 -1.39165,-0.765844 z m -11.00966,14.454933 -3.75274,2.275314 -0.17363,8.093046 c -0.0184,0.859927 0.67363,1.566828 1.53375,1.566828 h 2.49029 c 0.21585,0 0.42108,-0.04424 0.6072,-0.12454 -0.55573,-0.239572 -0.94087,-0.797994 -0.92708,-1.442288 z m 5.1139,0 0.0486,2.275314 5.11493,3.101102 c 0.73548,0.44592 1.69384,0.20021 2.1239,-0.544672 l 0.17673,-0.30644 z" />
          </g>
          <g
             id="g28177-7-5-5-6-8-3-9"
             transform="translate(53.579157,55.826567)"
             style="display:inline">
            <path
               d="m 147.71798,47.981196 -9.09029,-4.991828 9.09029,-4.991827 c 0.75396,-0.414021 1.02025,-1.3669 0.59012,-2.111777 l -1.24519,-2.156779 c -0.43006,-0.744878 -1.38837,-0.99072 -2.12392,-0.544804 l -8.86816,5.376573 0.22213,-10.368336 c 0.0184,-0.859937 -0.67361,-1.566974 -1.5338,-1.566974 h -2.49039 c -0.86012,0 -1.55221,0.707037 -1.53373,1.566974 l 0.22206,10.368336 -8.86816,-5.376509 c -0.73548,-0.445916 -1.69386,-0.200074 -2.12392,0.544804 l -1.24519,2.156778 c -0.43006,0.744879 -0.16377,1.697757 0.59019,2.111777 l 9.09022,4.991764 -9.09028,4.991828 c -0.75396,0.41402 -1.02026,1.3669 -0.59013,2.111777 l 1.24519,2.156779 c 0.43006,0.744877 1.38844,0.990719 2.12392,0.544803 l 8.86816,-5.376572 -0.22212,10.368336 c -0.0184,0.859938 0.67367,1.566974 1.53379,1.566974 h 2.49045 c 0.86013,0 1.55221,-0.707036 1.5338,-1.566974 l -0.22219,-10.368336 8.86816,5.376508 c 0.73548,0.445918 1.69386,0.200075 2.12392,-0.544804 l 1.24519,-2.156777 c 0.43006,-0.744879 0.16384,-1.697694 -0.59012,-2.111714 z"
               id="path2-07-8-3-2-8-6-3-7"
               style="fill:#00ff99;fill-opacity:1;stroke-width:0.0639215" />
            <path
               id="path2-07-3-2-1-9-5-6-00-6"
               style="display:inline;fill:#265d47;fill-opacity:1;stroke:none;stroke-width:0.0639215;stroke-opacity:1"
               d="m 128.56448,26.625567 c -0.86012,0 -1.55224,0.706892 -1.53375,1.566828 l 0.17363,8.093046 3.75274,2.275313 -0.22221,-10.368359 c -0.0139,-0.644292 0.37135,-1.202201 0.92708,-1.441773 -0.18612,-0.0803 -0.39133,-0.125055 -0.6072,-0.125055 z M 117.653,32.963163 c -0.55098,-0.02227 -1.09649,0.254259 -1.39216,0.766363 l -1.2454,2.156457 c -0.43006,0.744879 -0.16382,1.697995 0.59014,2.112015 l 9.0904,4.991426 -9.0904,4.991944 c -0.75396,0.41402 -1.02027,1.367136 -0.59014,2.112015 l 1.2454,2.156457 c 0.43006,0.744882 1.38842,0.991108 2.1239,0.545188 l 1.40353,-0.851112 -1.06866,-1.850533 c -0.43014,-0.744879 -0.16382,-1.697995 0.59014,-2.112015 l 9.0904,-4.991944 -9.0904,-4.991426 c -0.75396,-0.41402 -1.02021,-1.367136 -0.59014,-2.112015 l 1.06866,-1.850533 -1.40353,-0.851111 c -0.22984,-0.139348 -0.48129,-0.211053 -0.73174,-0.221176 z m 24.31376,0 c -0.25045,0.01012 -0.50239,0.08183 -0.73225,0.221176 l -5.11493,3.101102 -0.0486,2.275313 7.46414,-4.525304 -0.17673,-0.306443 c -0.29567,-0.512103 -0.84066,-0.788109 -1.39165,-0.765844 z m -11.00966,14.454933 -3.75274,2.275314 -0.17363,8.093046 c -0.0184,0.859927 0.67363,1.566828 1.53375,1.566828 h 2.49029 c 0.21585,0 0.42108,-0.04424 0.6072,-0.12454 -0.55573,-0.239572 -0.94087,-0.797994 -0.92708,-1.442288 z m 5.1139,0 0.0486,2.275314 5.11493,3.101102 c 0.73548,0.44592 1.69384,0.20021 2.1239,-0.544672 l 0.17673,-0.30644 z" />
          </g>
        </g>
      </g>
      <g
         id="g6-5-9-8-3-0-5"
         transform="matrix(0.0234375,0,0,0.0234375,72.751741,57.13844)"
         style="display:inline;fill:#f5b42b;fill-opacity:1">
        <path
           class="st0"
           d="m 511.976,213.063 -45.863,-9.749 31.374,-34.845 C 472.114,131.733 417.268,115.015 360.373,127.926 355.071,69.826 322.223,22.83 279.444,10.052 L 256,50.659 232.556,10.053 C 189.777,22.832 156.93,69.828 151.627,127.927 94.733,115.016 39.886,131.734 14.514,168.47 l 31.374,34.844 -45.864,9.749 c -1.066,44.634 33.479,90.396 87.097,113.393 -29.86,50.12 -30.91,107.448 -3.812,142.931 l 42.834,-19.071 -4.901,46.632 c 42.12,14.806 96.318,-3.907 134.758,-47.794 38.44,43.887 92.638,62.6 134.758,47.794 l -4.901,-46.632 42.835,19.072 c 27.097,-35.483 26.048,-92.811 -3.812,-142.932 53.617,-22.996 88.162,-68.759 87.096,-113.393 z m -196.599,83.322 c 3.526,-2.358 7.678,-3.63 11.998,-3.63 3.762,0 7.479,0.998 10.752,2.889 4.986,2.876 8.552,7.525 10.043,13.085 1.49,5.56 0.725,11.369 -2.156,16.353 -3.838,6.65 -10.996,10.781 -18.68,10.781 -3.765,0 -7.484,-1 -10.758,-2.89 -7.126,-4.116 -11.228,-12.025 -10.724,-20.072 l -40.32,-23.278 v 46.552 c 7.222,3.587 12.021,11.096 12.021,19.327 0,11.884 -9.669,21.551 -21.553,21.551 -11.884,0 -21.553,-9.667 -21.553,-21.551 0,-8.231 4.799,-15.74 12.021,-19.327 v -46.552 l -40.319,23.278 c 0.504,8.047 -3.598,15.956 -10.724,20.072 -3.275,1.889 -6.994,2.89 -10.758,2.89 -7.684,0 -14.842,-4.132 -18.682,-10.781 -2.878,-4.984 -3.644,-10.792 -2.154,-16.353 1.49,-5.56 5.057,-10.209 10.043,-13.087 3.272,-1.889 6.989,-2.887 10.752,-2.887 4.321,0 8.473,1.272 11.996,3.63 l 40.312,-23.274 -40.312,-23.272 c -3.523,2.359 -7.675,3.63 -11.996,3.63 -3.762,0 -7.479,-0.998 -10.752,-2.89 -4.986,-2.876 -8.552,-7.525 -10.043,-13.085 -1.49,-5.56 -0.724,-11.369 2.156,-16.353 3.838,-6.65 10.995,-10.781 18.68,-10.781 3.764,0 7.484,1 10.758,2.89 7.126,4.116 11.228,12.025 10.724,20.072 l 40.319,23.278 v -46.552 c -7.222,-3.587 -12.021,-11.096 -12.021,-19.327 0,-11.884 9.669,-21.551 21.553,-21.551 11.884,0 21.553,9.667 21.553,21.551 0,8.231 -4.799,15.74 -12.021,19.327 V 256.6 l 40.32,-23.278 c -0.504,-8.047 3.598,-15.956 10.724,-20.072 3.275,-1.889 6.994,-2.89 10.758,-2.89 7.684,0 14.842,4.132 18.682,10.781 2.878,4.984 3.644,10.792 2.154,16.353 -1.49,5.56 -5.057,10.209 -10.043,13.088 -3.272,1.889 -6.989,2.887 -10.752,2.887 -4.32,0 -8.472,-1.272 -11.998,-3.63 l -40.31,23.272 z"
           id="path4-1-77-2-8-9-7-1"
           style="fill:#f5b42b;fill-opacity:1" />
      </g>
      <g
         id="g6-4-2-6-7-2-4-3"
         transform="matrix(0.0234375,0,0,0.0234375,56.044743,50.693647)"
         style="display:inline;fill:#f5b42b;fill-opacity:1">
        <path
           class="st0"
           d="m 511.976,213.063 -45.863,-9.749 31.374,-34.845 C 472.114,131.733 417.268,115.015 360.373,127.926 355.071,69.826 322.223,22.83 279.444,10.052 L 256,50.659 232.556,10.053 C 189.777,22.832 156.93,69.828 151.627,127.927 94.733,115.016 39.886,131.734 14.514,168.47 l 31.374,34.844 -45.864,9.749 c -1.066,44.634 33.479,90.396 87.097,113.393 -29.86,50.12 -30.91,107.448 -3.812,142.931 l 42.834,-19.071 -4.901,46.632 c 42.12,14.806 96.318,-3.907 134.758,-47.794 38.44,43.887 92.638,62.6 134.758,47.794 l -4.901,-46.632 42.835,19.072 c 27.097,-35.483 26.048,-92.811 -3.812,-142.932 53.617,-22.996 88.162,-68.759 87.096,-113.393 z m -196.599,83.322 c 3.526,-2.358 7.678,-3.63 11.998,-3.63 3.762,0 7.479,0.998 10.752,2.889 4.986,2.876 8.552,7.525 10.043,13.085 1.49,5.56 0.725,11.369 -2.156,16.353 -3.838,6.65 -10.996,10.781 -18.68,10.781 -3.765,0 -7.484,-1 -10.758,-2.89 -7.126,-4.116 -11.228,-12.025 -10.724,-20.072 l -40.32,-23.278 v 46.552 c 7.222,3.587 12.021,11.096 12.021,19.327 0,11.884 -9.669,21.551 -21.553,21.551 -11.884,0 -21.553,-9.667 -21.553,-21.551 0,-8.231 4.799,-15.74 12.021,-19.327 v -46.552 l -40.319,23.278 c 0.504,8.047 -3.598,15.956 -10.724,20.072 -3.275,1.889 -6.994,2.89 -10.758,2.89 -7.684,0 -14.842,-4.132 -18.682,-10.781 -2.878,-4.984 -3.644,-10.792 -2.154,-16.353 1.49,-5.56 5.057,-10.209 10.043,-13.087 3.272,-1.889 6.989,-2.887 10.752,-2.887 4.321,0 8.473,1.272 11.996,3.63 l 40.312,-23.274 -40.312,-23.272 c -3.523,2.359 -7.675,3.63 -11.996,3.63 -3.762,0 -7.479,-0.998 -10.752,-2.89 -4.986,-2.876 -8.552,-7.525 -10.043,-13.085 -1.49,-5.56 -0.724,-11.369 2.156,-16.353 3.838,-6.65 10.995,-10.781 18.68,-10.781 3.764,0 7.484,1 10.758,2.89 7.126,4.116 11.228,12.025 10.724,20.072 l 40.319,23.278 v -46.552 c -7.222,-3.587 -12.021,-11.096 -12.021,-19.327 0,-11.884 9.669,-21.551 21.553,-21.551 11.884,0 21.553,9.667 21.553,21.551 0,8.231 -4.799,15.74 -12.021,19.327 V 256.6 l 40.32,-23.278 c -0.504,-8.047 3.598,-15.956 10.724,-20.072 3.275,-1.889 6.994,-2.89 10.758,-2.89 7.684,0 14.842,4.132 18.682,10.781 2.878,4.984 3.644,10.792 2.154,16.353 -1.49,5.56 -5.057,10.209 -10.043,13.088 -3.272,1.889 -6.989,2.887 -10.752,2.887 -4.32,0 -8.472,-1.272 -11.998,-3.63 l -40.31,23.272 z"
           id="path4-1-6-2-5-8-3-7-4"
           style="fill:#f5b42b;fill-opacity:1" />
      </g>
      <g
         id="g6-4-4-2-1-8-4-3-3"
         transform="matrix(0.0234375,0,0,0.0234375,40.544594,56.262002)"
         style="display:inline;fill:#f5b42b;fill-opacity:1">
        <path
           class="st0"
           d="m 511.976,213.063 -45.863,-9.749 31.374,-34.845 C 472.114,131.733 417.268,115.015 360.373,127.926 355.071,69.826 322.223,22.83 279.444,10.052 L 256,50.659 232.556,10.053 C 189.777,22.832 156.93,69.828 151.627,127.927 94.733,115.016 39.886,131.734 14.514,168.47 l 31.374,34.844 -45.864,9.749 c -1.066,44.634 33.479,90.396 87.097,113.393 -29.86,50.12 -30.91,107.448 -3.812,142.931 l 42.834,-19.071 -4.901,46.632 c 42.12,14.806 96.318,-3.907 134.758,-47.794 38.44,43.887 92.638,62.6 134.758,47.794 l -4.901,-46.632 42.835,19.072 c 27.097,-35.483 26.048,-92.811 -3.812,-142.932 53.617,-22.996 88.162,-68.759 87.096,-113.393 z m -196.599,83.322 c 3.526,-2.358 7.678,-3.63 11.998,-3.63 3.762,0 7.479,0.998 10.752,2.889 4.986,2.876 8.552,7.525 10.043,13.085 1.49,5.56 0.725,11.369 -2.156,16.353 -3.838,6.65 -10.996,10.781 -18.68,10.781 -3.765,0 -7.484,-1 -10.758,-2.89 -7.126,-4.116 -11.228,-12.025 -10.724,-20.072 l -40.32,-23.278 v 46.552 c 7.222,3.587 12.021,11.096 12.021,19.327 0,11.884 -9.669,21.551 -21.553,21.551 -11.884,0 -21.553,-9.667 -21.553,-21.551 0,-8.231 4.799,-15.74 12.021,-19.327 v -46.552 l -40.319,23.278 c 0.504,8.047 -3.598,15.956 -10.724,20.072 -3.275,1.889 -6.994,2.89 -10.758,2.89 -7.684,0 -14.842,-4.132 -18.682,-10.781 -2.878,-4.984 -3.644,-10.792 -2.154,-16.353 1.49,-5.56 5.057,-10.209 10.043,-13.087 3.272,-1.889 6.989,-2.887 10.752,-2.887 4.321,0 8.473,1.272 11.996,3.63 l 40.312,-23.274 -40.312,-23.272 c -3.523,2.359 -7.675,3.63 -11.996,3.63 -3.762,0 -7.479,-0.998 -10.752,-2.89 -4.986,-2.876 -8.552,-7.525 -10.043,-13.085 -1.49,-5.56 -0.724,-11.369 2.156,-16.353 3.838,-6.65 10.995,-10.781 18.68,-10.781 3.764,0 7.484,1 10.758,2.89 7.126,4.116 11.228,12.025 10.724,20.072 l 40.319,23.278 v -46.552 c -7.222,-3.587 -12.021,-11.096 -12.021,-19.327 0,-11.884 9.669,-21.551 21.553,-21.551 11.884,0 21.553,9.667 21.553,21.551 0,8.231 -4.799,15.74 -12.021,19.327 V 256.6 l 40.32,-23.278 c -0.504,-8.047 3.598,-15.956 10.724,-20.072 3.275,-1.889 6.994,-2.89 10.758,-2.89 7.684,0 14.842,4.132 18.682,10.781 2.878,4.984 3.644,10.792 2.154,16.353 -1.49,5.56 -5.057,10.209 -10.043,13.088 -3.272,1.889 -6.989,2.887 -10.752,2.887 -4.32,0 -8.472,-1.272 -11.998,-3.63 l -40.31,23.272 z"
           id="path4-1-6-9-5-0-8-6-1-0"
           style="fill:#f5b42b;fill-opacity:1" />
      </g>
    </g>
    <g
       id="g3139-9-8-3-8-9-9-1"
       style="display:inline"
       transform="matrix(0.56603774,0,0,0.56603774,20.802532,-22.063477)">
      <g
         id="g2290-3-1-0-1-9-0-0">
        <g
           id="g28241-4-2-8-5-8-7-8"
           transform="matrix(0.65272443,0,0,0.65272443,-39.473483,-6.814027)"
           style="display:inline">
          <g
             id="g28177-2-0-3-3-7-4-0"
             transform="translate(6.0854167,55.827083)">
            <path
               d="m 147.71798,47.981196 -9.09029,-4.991828 9.09029,-4.991827 c 0.75396,-0.414021 1.02025,-1.3669 0.59012,-2.111777 l -1.24519,-2.156779 c -0.43006,-0.744878 -1.38837,-0.99072 -2.12392,-0.544804 l -8.86816,5.376573 0.22213,-10.368336 c 0.0184,-0.859937 -0.67361,-1.566974 -1.5338,-1.566974 h -2.49039 c -0.86012,0 -1.55221,0.707037 -1.53373,1.566974 l 0.22206,10.368336 -8.86816,-5.376509 c -0.73548,-0.445916 -1.69386,-0.200074 -2.12392,0.544804 l -1.24519,2.156778 c -0.43006,0.744879 -0.16377,1.697757 0.59019,2.111777 l 9.09022,4.991764 -9.09028,4.991828 c -0.75396,0.41402 -1.02026,1.3669 -0.59013,2.111777 l 1.24519,2.156779 c 0.43006,0.744877 1.38844,0.990719 2.12392,0.544803 l 8.86816,-5.376572 -0.22212,10.368336 c -0.0184,0.859938 0.67367,1.566974 1.53379,1.566974 h 2.49045 c 0.86013,0 1.55221,-0.707036 1.5338,-1.566974 l -0.22219,-10.368336 8.86816,5.376508 c 0.73548,0.445918 1.69386,0.200075 2.12392,-0.544804 l 1.24519,-2.156777 c 0.43006,-0.744879 0.16384,-1.697694 -0.59012,-2.111714 z"
               id="path2-07-0-0-7-4-3-5-0"
               style="fill:#00ff99;fill-opacity:1;stroke-width:0.0639215" />
            <path
               id="path2-07-3-8-5-5-3-2-3-1"
               style="display:inline;fill:#265d47;fill-opacity:1;stroke:none;stroke-width:0.0639215;stroke-opacity:1"
               d="m 128.56448,26.625567 c -0.86012,0 -1.55224,0.706892 -1.53375,1.566828 l 0.17363,8.093046 3.75274,2.275313 -0.22221,-10.368359 c -0.0139,-0.644292 0.37135,-1.202201 0.92708,-1.441773 -0.18612,-0.0803 -0.39133,-0.125055 -0.6072,-0.125055 z M 117.653,32.963163 c -0.55098,-0.02227 -1.09649,0.254259 -1.39216,0.766363 l -1.2454,2.156457 c -0.43006,0.744879 -0.16382,1.697995 0.59014,2.112015 l 9.0904,4.991426 -9.0904,4.991944 c -0.75396,0.41402 -1.02027,1.367136 -0.59014,2.112015 l 1.2454,2.156457 c 0.43006,0.744882 1.38842,0.991108 2.1239,0.545188 l 1.40353,-0.851112 -1.06866,-1.850533 c -0.43014,-0.744879 -0.16382,-1.697995 0.59014,-2.112015 l 9.0904,-4.991944 -9.0904,-4.991426 c -0.75396,-0.41402 -1.02021,-1.367136 -0.59014,-2.112015 l 1.06866,-1.850533 -1.40353,-0.851111 c -0.22984,-0.139348 -0.48129,-0.211053 -0.73174,-0.221176 z m 24.31376,0 c -0.25045,0.01012 -0.50239,0.08183 -0.73225,0.221176 l -5.11493,3.101102 -0.0486,2.275313 7.46414,-4.525304 -0.17673,-0.306443 c -0.29567,-0.512103 -0.84066,-0.788109 -1.39165,-0.765844 z m -11.00966,14.454933 -3.75274,2.275314 -0.17363,8.093046 c -0.0184,0.859927 0.67363,1.566828 1.53375,1.566828 h 2.49029 c 0.21585,0 0.42108,-0.04424 0.6072,-0.12454 -0.55573,-0.239572 -0.94087,-0.797994 -0.92708,-1.442288 z m 5.1139,0 0.0486,2.275314 5.11493,3.101102 c 0.73548,0.44592 1.69384,0.20021 2.1239,-0.544672 l 0.17673,-0.30644 z" />
          </g>
          <g
             id="g28177-5-21-2-4-2-4-7-1"
             transform="translate(29.832267,47.29614)"
             style="display:inline">
            <path
               d="m 147.71798,47.981196 -9.09029,-4.991828 9.09029,-4.991827 c 0.75396,-0.414021 1.02025,-1.3669 0.59012,-2.111777 l -1.24519,-2.156779 c -0.43006,-0.744878 -1.38837,-0.99072 -2.12392,-0.544804 l -8.86816,5.376573 0.22213,-10.368336 c 0.0184,-0.859937 -0.67361,-1.566974 -1.5338,-1.566974 h -2.49039 c -0.86012,0 -1.55221,0.707037 -1.53373,1.566974 l 0.22206,10.368336 -8.86816,-5.376509 c -0.73548,-0.445916 -1.69386,-0.200074 -2.12392,0.544804 l -1.24519,2.156778 c -0.43006,0.744879 -0.16377,1.697757 0.59019,2.111777 l 9.09022,4.991764 -9.09028,4.991828 c -0.75396,0.41402 -1.02026,1.3669 -0.59013,2.111777 l 1.24519,2.156779 c 0.43006,0.744877 1.38844,0.990719 2.12392,0.544803 l 8.86816,-5.376572 -0.22212,10.368336 c -0.0184,0.859938 0.67367,1.566974 1.53379,1.566974 h 2.49045 c 0.86013,0 1.55221,-0.707036 1.5338,-1.566974 l -0.22219,-10.368336 8.86816,5.376508 c 0.73548,0.445918 1.69386,0.200075 2.12392,-0.544804 l 1.24519,-2.156777 c 0.43006,-0.744879 0.16384,-1.697694 -0.59012,-2.111714 z"
               id="path2-07-6-1-2-0-8-8-2-7"
               style="fill:#00ff99;fill-opacity:1;stroke-width:0.0639215" />
            <path
               id="path2-07-3-7-6-9-7-3-4-3-0"
               style="display:inline;fill:#265d47;fill-opacity:1;stroke:none;stroke-width:0.0639215;stroke-opacity:1"
               d="m 128.56448,26.625567 c -0.86012,0 -1.55224,0.706892 -1.53375,1.566828 l 0.17363,8.093046 3.75274,2.275313 -0.22221,-10.368359 c -0.0139,-0.644292 0.37135,-1.202201 0.92708,-1.441773 -0.18612,-0.0803 -0.39133,-0.125055 -0.6072,-0.125055 z M 117.653,32.963163 c -0.55098,-0.02227 -1.09649,0.254259 -1.39216,0.766363 l -1.2454,2.156457 c -0.43006,0.744879 -0.16382,1.697995 0.59014,2.112015 l 9.0904,4.991426 -9.0904,4.991944 c -0.75396,0.41402 -1.02027,1.367136 -0.59014,2.112015 l 1.2454,2.156457 c 0.43006,0.744882 1.38842,0.991108 2.1239,0.545188 l 1.40353,-0.851112 -1.06866,-1.850533 c -0.43014,-0.744879 -0.16382,-1.697995 0.59014,-2.112015 l 9.0904,-4.991944 -9.0904,-4.991426 c -0.75396,-0.41402 -1.02021,-1.367136 -0.59014,-2.112015 l 1.06866,-1.850533 -1.40353,-0.851111 c -0.22984,-0.139348 -0.48129,-0.211053 -0.73174,-0.221176 z m 24.31376,0 c -0.25045,0.01012 -0.50239,0.08183 -0.73225,0.221176 l -5.11493,3.101102 -0.0486,2.275313 7.46414,-4.525304 -0.17673,-0.306443 c -0.29567,-0.512103 -0.84066,-0.788109 -1.39165,-0.765844 z m -11.00966,14.454933 -3.75274,2.275314 -0.17363,8.093046 c -0.0184,0.859927 0.67363,1.566828 1.53375,1.566828 h 2.49029 c 0.21585,0 0.42108,-0.04424 0.6072,-0.12454 -0.55573,-0.239572 -0.94087,-0.797994 -0.92708,-1.442288 z m 5.1139,0 0.0486,2.275314 5.11493,3.101102 c 0.73548,0.44592 1.69384,0.20021 2.1239,-0.544672 l 0.17673,-0.30644 z" />
          </g>
          <g
             id="g28177-7-5-5-6-8-3-9-2"
             transform="translate(53.579157,55.826567)"
             style="display:inline">
            <path
               d="m 147.71798,47.981196 -9.09029,-4.991828 9.09029,-4.991827 c 0.75396,-0.414021 1.02025,-1.3669 0.59012,-2.111777 l -1.24519,-2.156779 c -0.43006,-0.744878 -1.38837,-0.99072 -2.12392,-0.544804 l -8.86816,5.376573 0.22213,-10.368336 c 0.0184,-0.859937 -0.67361,-1.566974 -1.5338,-1.566974 h -2.49039 c -0.86012,0 -1.55221,0.707037 -1.53373,1.566974 l 0.22206,10.368336 -8.86816,-5.376509 c -0.73548,-0.445916 -1.69386,-0.200074 -2.12392,0.544804 l -1.24519,2.156778 c -0.43006,0.744879 -0.16377,1.697757 0.59019,2.111777 l 9.09022,4.991764 -9.09028,4.991828 c -0.75396,0.41402 -1.02026,1.3669 -0.59013,2.111777 l 1.24519,2.156779 c 0.43006,0.744877 1.38844,0.990719 2.12392,0.544803 l 8.86816,-5.376572 -0.22212,10.368336 c -0.0184,0.859938 0.67367,1.566974 1.53379,1.566974 h 2.49045 c 0.86013,0 1.55221,-0.707036 1.5338,-1.566974 l -0.22219,-10.368336 8.86816,5.376508 c 0.73548,0.445918 1.69386,0.200075 2.12392,-0.544804 l 1.24519,-2.156777 c 0.43006,-0.744879 0.16384,-1.697694 -0.59012,-2.111714 z"
               id="path2-07-8-3-2-8-6-3-7-7"
               style="fill:#00ff99;fill-opacity:1;stroke-width:0.0639215" />
            <path
               id="path2-07-3-2-1-9-5-6-00-6-6"
               style="display:inline;fill:#265d47;fill-opacity:1;stroke:none;stroke-width:0.0639215;stroke-opacity:1"
               d="m 128.56448,26.625567 c -0.86012,0 -1.55224,0.706892 -1.53375,1.566828 l 0.17363,8.093046 3.75274,2.275313 -0.22221,-10.368359 c -0.0139,-0.644292 0.37135,-1.202201 0.92708,-1.441773 -0.18612,-0.0803 -0.39133,-0.125055 -0.6072,-0.125055 z M 117.653,32.963163 c -0.55098,-0.02227 -1.09649,0.254259 -1.39216,0.766363 l -1.2454,2.156457 c -0.43006,0.744879 -0.16382,1.697995 0.59014,2.112015 l 9.0904,4.991426 -9.0904,4.991944 c -0.75396,0.41402 -1.02027,1.367136 -0.59014,2.112015 l 1.2454,2.156457 c 0.43006,0.744882 1.38842,0.991108 2.1239,0.545188 l 1.40353,-0.851112 -1.06866,-1.850533 c -0.43014,-0.744879 -0.16382,-1.697995 0.59014,-2.112015 l 9.0904,-4.991944 -9.0904,-4.991426 c -0.75396,-0.41402 -1.02021,-1.367136 -0.59014,-2.112015 l 1.06866,-1.850533 -1.40353,-0.851111 c -0.22984,-0.139348 -0.48129,-0.211053 -0.73174,-0.221176 z m 24.31376,0 c -0.25045,0.01012 -0.50239,0.08183 -0.73225,0.221176 l -5.11493,3.101102 -0.0486,2.275313 7.46414,-4.525304 -0.17673,-0.306443 c -0.29567,-0.512103 -0.84066,-0.788109 -1.39165,-0.765844 z m -11.00966,14.454933 -3.75274,2.275314 -0.17363,8.093046 c -0.0184,0.859927 0.67363,1.566828 1.53375,1.566828 h 2.49029 c 0.21585,0 0.42108,-0.04424 0.6072,-0.12454 -0.55573,-0.239572 -0.94087,-0.797994 -0.92708,-1.442288 z m 5.1139,0 0.0486,2.275314 5.11493,3.101102 c 0.73548,0.44592 1.69384,0.20021 2.1239,-0.544672 l 0.17673,-0.30644 z" />
          </g>
        </g>
      </g>
      <g
         id="g6-5-9-8-3-0-5-2"
         transform="matrix(0.0234375,0,0,0.0234375,72.751741,57.13844)"
         style="display:inline;fill:#f5b42b;fill-opacity:1">
        <path
           class="st0"
           d="m 511.976,213.063 -45.863,-9.749 31.374,-34.845 C 472.114,131.733 417.268,115.015 360.373,127.926 355.071,69.826 322.223,22.83 279.444,10.052 L 256,50.659 232.556,10.053 C 189.777,22.832 156.93,69.828 151.627,127.927 94.733,115.016 39.886,131.734 14.514,168.47 l 31.374,34.844 -45.864,9.749 c -1.066,44.634 33.479,90.396 87.097,113.393 -29.86,50.12 -30.91,107.448 -3.812,142.931 l 42.834,-19.071 -4.901,46.632 c 42.12,14.806 96.318,-3.907 134.758,-47.794 38.44,43.887 92.638,62.6 134.758,47.794 l -4.901,-46.632 42.835,19.072 c 27.097,-35.483 26.048,-92.811 -3.812,-142.932 53.617,-22.996 88.162,-68.759 87.096,-113.393 z m -196.599,83.322 c 3.526,-2.358 7.678,-3.63 11.998,-3.63 3.762,0 7.479,0.998 10.752,2.889 4.986,2.876 8.552,7.525 10.043,13.085 1.49,5.56 0.725,11.369 -2.156,16.353 -3.838,6.65 -10.996,10.781 -18.68,10.781 -3.765,0 -7.484,-1 -10.758,-2.89 -7.126,-4.116 -11.228,-12.025 -10.724,-20.072 l -40.32,-23.278 v 46.552 c 7.222,3.587 12.021,11.096 12.021,19.327 0,11.884 -9.669,21.551 -21.553,21.551 -11.884,0 -21.553,-9.667 -21.553,-21.551 0,-8.231 4.799,-15.74 12.021,-19.327 v -46.552 l -40.319,23.278 c 0.504,8.047 -3.598,15.956 -10.724,20.072 -3.275,1.889 -6.994,2.89 -10.758,2.89 -7.684,0 -14.842,-4.132 -18.682,-10.781 -2.878,-4.984 -3.644,-10.792 -2.154,-16.353 1.49,-5.56 5.057,-10.209 10.043,-13.087 3.272,-1.889 6.989,-2.887 10.752,-2.887 4.321,0 8.473,1.272 11.996,3.63 l 40.312,-23.274 -40.312,-23.272 c -3.523,2.359 -7.675,3.63 -11.996,3.63 -3.762,0 -7.479,-0.998 -10.752,-2.89 -4.986,-2.876 -8.552,-7.525 -10.043,-13.085 -1.49,-5.56 -0.724,-11.369 2.156,-16.353 3.838,-6.65 10.995,-10.781 18.68,-10.781 3.764,0 7.484,1 10.758,2.89 7.126,4.116 11.228,12.025 10.724,20.072 l 40.319,23.278 v -46.552 c -7.222,-3.587 -12.021,-11.096 -12.021,-19.327 0,-11.884 9.669,-21.551 21.553,-21.551 11.884,0 21.553,9.667 21.553,21.551 0,8.231 -4.799,15.74 -12.021,19.327 V 256.6 l 40.32,-23.278 c -0.504,-8.047 3.598,-15.956 10.724,-20.072 3.275,-1.889 6.994,-2.89 10.758,-2.89 7.684,0 14.842,4.132 18.682,10.781 2.878,4.984 3.644,10.792 2.154,16.353 -1.49,5.56 -5.057,10.209 -10.043,13.088 -3.272,1.889 -6.989,2.887 -10.752,2.887 -4.32,0 -8.472,-1.272 -11.998,-3.63 l -40.31,23.272 z"
           id="path4-1-77-2-8-9-7-1-1"
           style="fill:#f5b42b;fill-opacity:1" />
      </g>
      <g
         id="g6-4-2-6-7-2-4-3-6"
         transform="matrix(0.0234375,0,0,0.0234375,56.044743,50.693647)"
         style="display:inline;fill:#f5b42b;fill-opacity:1">
        <path
           class="st0"
           d="m 511.976,213.063 -45.863,-9.749 31.374,-34.845 C 472.114,131.733 417.268,115.015 360.373,127.926 355.071,69.826 322.223,22.83 279.444,10.052 L 256,50.659 232.556,10.053 C 189.777,22.832 156.93,69.828 151.627,127.927 94.733,115.016 39.886,131.734 14.514,168.47 l 31.374,34.844 -45.864,9.749 c -1.066,44.634 33.479,90.396 87.097,113.393 -29.86,50.12 -30.91,107.448 -3.812,142.931 l 42.834,-19.071 -4.901,46.632 c 42.12,14.806 96.318,-3.907 134.758,-47.794 38.44,43.887 92.638,62.6 134.758,47.794 l -4.901,-46.632 42.835,19.072 c 27.097,-35.483 26.048,-92.811 -3.812,-142.932 53.617,-22.996 88.162,-68.759 87.096,-113.393 z m -196.599,83.322 c 3.526,-2.358 7.678,-3.63 11.998,-3.63 3.762,0 7.479,0.998 10.752,2.889 4.986,2.876 8.552,7.525 10.043,13.085 1.49,5.56 0.725,11.369 -2.156,16.353 -3.838,6.65 -10.996,10.781 -18.68,10.781 -3.765,0 -7.484,-1 -10.758,-2.89 -7.126,-4.116 -11.228,-12.025 -10.724,-20.072 l -40.32,-23.278 v 46.552 c 7.222,3.587 12.021,11.096 12.021,19.327 0,11.884 -9.669,21.551 -21.553,21.551 -11.884,0 -21.553,-9.667 -21.553,-21.551 0,-8.231 4.799,-15.74 12.021,-19.327 v -46.552 l -40.319,23.278 c 0.504,8.047 -3.598,15.956 -10.724,20.072 -3.275,1.889 -6.994,2.89 -10.758,2.89 -7.684,0 -14.842,-4.132 -18.682,-10.781 -2.878,-4.984 -3.644,-10.792 -2.154,-16.353 1.49,-5.56 5.057,-10.209 10.043,-13.087 3.272,-1.889 6.989,-2.887 10.752,-2.887 4.321,0 8.473,1.272 11.996,3.63 l 40.312,-23.274 -40.312,-23.272 c -3.523,2.359 -7.675,3.63 -11.996,3.63 -3.762,0 -7.479,-0.998 -10.752,-2.89 -4.986,-2.876 -8.552,-7.525 -10.043,-13.085 -1.49,-5.56 -0.724,-11.369 2.156,-16.353 3.838,-6.65 10.995,-10.781 18.68,-10.781 3.764,0 7.484,1 10.758,2.89 7.126,4.116 11.228,12.025 10.724,20.072 l 40.319,23.278 v -46.552 c -7.222,-3.587 -12.021,-11.096 -12.021,-19.327 0,-11.884 9.669,-21.551 21.553,-21.551 11.884,0 21.553,9.667 21.553,21.551 0,8.231 -4.799,15.74 -12.021,19.327 V 256.6 l 40.32,-23.278 c -0.504,-8.047 3.598,-15.956 10.724,-20.072 3.275,-1.889 6.994,-2.89 10.758,-2.89 7.684,0 14.842,4.132 18.682,10.781 2.878,4.984 3.644,10.792 2.154,16.353 -1.49,5.56 -5.057,10.209 -10.043,13.088 -3.272,1.889 -6.989,2.887 -10.752,2.887 -4.32,0 -8.472,-1.272 -11.998,-3.63 l -40.31,23.272 z"
           id="path4-1-6-2-5-8-3-7-4-6"
           style="fill:#f5b42b;fill-opacity:1" />
      </g>
      <g
         id="g6-4-4-2-1-8-4-3-3-3"
         transform="matrix(0.0234375,0,0,0.0234375,40.544594,56.262002)"
         style="display:inline;fill:#f5b42b;fill-opacity:1">
        <path
           class="st0"
           d="m 511.976,213.063 -45.863,-9.749 31.374,-34.845 C 472.114,131.733 417.268,115.015 360.373,127.926 355.071,69.826 322.223,22.83 279.444,10.052 L 256,50.659 232.556,10.053 C 189.777,22.832 156.93,69.828 151.627,127.927 94.733,115.016 39.886,131.734 14.514,168.47 l 31.374,34.844 -45.864,9.749 c -1.066,44.634 33.479,90.396 87.097,113.393 -29.86,50.12 -30.91,107.448 -3.812,142.931 l 42.834,-19.071 -4.901,46.632 c 42.12,14.806 96.318,-3.907 134.758,-47.794 38.44,43.887 92.638,62.6 134.758,47.794 l -4.901,-46.632 42.835,19.072 c 27.097,-35.483 26.048,-92.811 -3.812,-142.932 53.617,-22.996 88.162,-68.759 87.096,-113.393 z m -196.599,83.322 c 3.526,-2.358 7.678,-3.63 11.998,-3.63 3.762,0 7.479,0.998 10.752,2.889 4.986,2.876 8.552,7.525 10.043,13.085 1.49,5.56 0.725,11.369 -2.156,16.353 -3.838,6.65 -10.996,10.781 -18.68,10.781 -3.765,0 -7.484,-1 -10.758,-2.89 -7.126,-4.116 -11.228,-12.025 -10.724,-20.072 l -40.32,-23.278 v 46.552 c 7.222,3.587 12.021,11.096 12.021,19.327 0,11.884 -9.669,21.551 -21.553,21.551 -11.884,0 -21.553,-9.667 -21.553,-21.551 0,-8.231 4.799,-15.74 12.021,-19.327 v -46.552 l -40.319,23.278 c 0.504,8.047 -3.598,15.956 -10.724,20.072 -3.275,1.889 -6.994,2.89 -10.758,2.89 -7.684,0 -14.842,-4.132 -18.682,-10.781 -2.878,-4.984 -3.644,-10.792 -2.154,-16.353 1.49,-5.56 5.057,-10.209 10.043,-13.087 3.272,-1.889 6.989,-2.887 10.752,-2.887 4.321,0 8.473,1.272 11.996,3.63 l 40.312,-23.274 -40.312,-23.272 c -3.523,2.359 -7.675,3.63 -11.996,3.63 -3.762,0 -7.479,-0.998 -10.752,-2.89 -4.986,-2.876 -8.552,-7.525 -10.043,-13.085 -1.49,-5.56 -0.724,-11.369 2.156,-16.353 3.838,-6.65 10.995,-10.781 18.68,-10.781 3.764,0 7.484,1 10.758,2.89 7.126,4.116 11.228,12.025 10.724,20.072 l 40.319,23.278 v -46.552 c -7.222,-3.587 -12.021,-11.096 -12.021,-19.327 0,-11.884 9.669,-21.551 21.553,-21.551 11.884,0 21.553,9.667 21.553,21.551 0,8.231 -4.799,15.74 -12.021,19.327 V 256.6 l 40.32,-23.278 c -0.504,-8.047 3.598,-15.956 10.724,-20.072 3.275,-1.889 6.994,-2.89 10.758,-2.89 7.684,0 14.842,4.132 18.682,10.781 2.878,4.984 3.644,10.792 2.154,16.353 -1.49,5.56 -5.057,10.209 -10.043,13.088 -3.272,1.889 -6.989,2.887 -10.752,2.887 -4.32,0 -8.472,-1.272 -11.998,-3.63 l -40.31,23.272 z"
           id="path4-1-6-9-5-0-8-6-1-0-0"
           style="fill:#f5b42b;fill-opacity:1" />
      </g>
    </g>
  </g>
</svg>
