<?xml version="1.0" encoding="UTF-8" standalone="no"?>
<!-- Created with Inkscape (http://www.inkscape.org/) -->

<svg
   width="500"
   height="500"
   viewBox="0 0 132.29166 132.29167"
   version="1.1"
   id="svg2515"
   inkscape:version="1.1.2 (b8e25be833, 2022-02-05)"
   sodipodi:docname="bonsai14s02blooming.svg"
   inkscape:export-filename="C:\Users\Lenovo\Desktop\Coding\Media files\Bonsais\bonsai14.png"
   inkscape:export-xdpi="96"
   inkscape:export-ydpi="96"
   xmlns:inkscape="http://www.inkscape.org/namespaces/inkscape"
   xmlns:sodipodi="http://sodipodi.sourceforge.net/DTD/sodipodi-0.dtd"
   xmlns="http://www.w3.org/2000/svg"
   xmlns:svg="http://www.w3.org/2000/svg">
  <sodipodi:namedview
     id="namedview2517"
     pagecolor="#ffffff"
     bordercolor="#666666"
     borderopacity="1.0"
     inkscape:pageshadow="2"
     inkscape:pageopacity="0.0"
     inkscape:pagecheckerboard="0"
     inkscape:document-units="mm"
     showgrid="false"
     units="px"
     inkscape:zoom="1.4142136"
     inkscape:cx="345.42165"
     inkscape:cy="242.18407"
     inkscape:window-width="1920"
     inkscape:window-height="1001"
     inkscape:window-x="-9"
     inkscape:window-y="-9"
     inkscape:window-maximized="1"
     inkscape:current-layer="g17385" />
  <defs
     id="defs2512">
    <marker
       style="overflow:visible"
       id="Arrow1Sstart"
       refX="0.0"
       refY="0.0"
       orient="auto"
       inkscape:stockid="Arrow1Sstart"
       inkscape:isstock="true">
      <path
         transform="scale(0.2) translate(6,0)"
         style="fill-rule:evenodd;fill:context-stroke;stroke:context-stroke;stroke-width:1.0pt"
         d="M 0.0,0.0 L 5.0,-5.0 L -12.5,0.0 L 5.0,5.0 L 0.0,0.0 z "
         id="path24092" />
    </marker>
    <marker
       style="overflow:visible"
       id="Arrow1Mstart"
       refX="0.0"
       refY="0.0"
       orient="auto"
       inkscape:stockid="Arrow1Mstart"
       inkscape:isstock="true">
      <path
         transform="scale(0.4) translate(10,0)"
         style="fill-rule:evenodd;fill:context-stroke;stroke:context-stroke;stroke-width:1.0pt"
         d="M 0.0,0.0 L 5.0,-5.0 L -12.5,0.0 L 5.0,5.0 L 0.0,0.0 z "
         id="path24086" />
    </marker>
    <marker
       style="overflow:visible"
       id="Arrow1Lstart"
       refX="0.0"
       refY="0.0"
       orient="auto"
       inkscape:stockid="Arrow1Lstart"
       inkscape:isstock="true">
      <path
         transform="scale(0.8) translate(12.5,0)"
         style="fill-rule:evenodd;fill:context-stroke;stroke:context-stroke;stroke-width:1.0pt"
         d="M 0.0,0.0 L 5.0,-5.0 L -12.5,0.0 L 5.0,5.0 L 0.0,0.0 z "
         id="path24080" />
    </marker>
    <marker
       style="overflow:visible;"
       id="Arrow1Lend"
       refX="0.0"
       refY="0.0"
       orient="auto"
       inkscape:stockid="Arrow1Lend"
       inkscape:isstock="true">
      <path
         transform="scale(0.8) rotate(180) translate(12.5,0)"
         style="fill-rule:evenodd;fill:context-stroke;stroke:context-stroke;stroke-width:1.0pt;"
         d="M 0.0,0.0 L 5.0,-5.0 L -12.5,0.0 L 5.0,5.0 L 0.0,0.0 z "
         id="path24083" />
    </marker>
  </defs>
  <g
     inkscape:label="Informal Upright Style"
     inkscape:groupmode="layer"
     id="g17385"
     style="display:inline">
    <g
       id="g17299"
       transform="translate(157.36058,-8.4372489)"
       style="display:inline">
      <g
         id="g17297"
         transform="translate(-99.28418,15.207661)">
        <path
           style="display:inline;fill:#e0af9a;fill-opacity:1;stroke:#e0af9a;stroke-width:1;stroke-linecap:round;stroke-linejoin:round;stroke-miterlimit:4;stroke-dasharray:none;stroke-opacity:1"
           d="m 1.3438111,105.02403 c 0,0 1.67276,-4.3889 -5.29634,-12.902323 -5.77031,-7.049 -13.8088901,-10.89145 -10.0810001,-22.220767 2.98845,-9.082106 31.71641,-16.843433 36.92376,-22.50005 9.82115,-10.668487 4.67956,-12.619651 -1.58353,-22.120096 C 16.120271,17.413522 8.0705011,20.957555 7.7574611,9.5870616 14.803541,20.119696 25.572371,18.866153 27.251611,28.55162 c 3.25423,4.596313 8.98302,11.718683 5.98525,14.797826 -2.2954,2.357716 -9.08519,15.422411 -20.03503,17.643247 -9.5903099,1.945097 -16.1629199,12.6144 -16.1629199,12.6144 -0.83876,8.885304 16.1910099,9.784984 21.9744099,18.254694 5.64474,8.266633 8.35928,5.77528 10.95842,12.103913 1.20531,2.9348 -28.6279299,1.05833 -28.6279299,1.05833 z"
           id="path17293"
           sodipodi:nodetypes="cssssccsssssc" />
        <path
           id="path17295"
           style="display:inline;fill:#c49078;fill-opacity:1;stroke:#c49078;stroke-width:3.77953;stroke-linecap:round;stroke-linejoin:round;stroke-miterlimit:4;stroke-dasharray:none;stroke-opacity:1"
           d="m 616.93555,1.8886719 c 0.55432,20.1347921 7.52722,27.8974661 16.79883,33.5175781 -5.45695,-5.012127 -9.35289,-12.21383 -10.31641,-24.990234 -2.22889,-2.6069221 -4.40217,-5.4177306 -6.48242,-8.5273441 z m 41.48828,48.2539061 c 3.39981,2.902953 6.69017,6.465507 9.7207,11.0625 23.67153,35.907194 43.10565,43.281672 5.98633,83.603512 -19.68132,21.37934 -128.25976,50.713 -139.55469,85.03907 -14.08966,42.81948 16.29251,57.34248 38.10156,83.98437 26.33989,32.17671 20.01758,48.76367 20.01758,48.76367 0,0 2.85378,0.16826 6.91797,0.39063 0.26375,-6.79288 -1.99109,-21.72151 -20.65039,-44.51563 -21.80905,-26.64189 -52.19123,-41.16294 -38.10156,-83.98242 11.29493,-34.32607 119.87336,-63.66167 139.55469,-85.04101 37.11932,-40.32185 17.68519,-47.69633 -5.98633,-83.60352 -4.87199,-7.390285 -10.41195,-12.111719 -16.00586,-15.701172 z"
           transform="matrix(0.26458333,0,0,0.26458333,-155.47346,9.0871833)"
           sodipodi:nodetypes="cccccssssccssssc" />
      </g>
    </g>
    <g
       id="g61999-7-9"
       transform="matrix(0.74146994,0,0,0.92845214,19.344096,55.35107)"
       style="display:inline">
      <path
         d="m 107.70689,62.552204 v 10.470444 c 0,3.510139 -2.84304,6.353528 -6.35106,6.353528 H 28.296968 c -3.508022,0 -6.351411,-2.843389 -6.351411,-6.353528 V 62.552204 h 85.761333 v 0"
         style="fill:#7d8dd2;fill-opacity:1;fill-rule:nonzero;stroke:none;stroke-width:0.0352778"
         id="path176-0-95" />
      <path
         d="M 26.886209,73.022648 V 62.552204 h -4.940652 v 10.470444 c 0,3.510139 2.843389,6.353528 6.351411,6.353528 h 4.9403 c -3.50767,0 -6.351059,-2.843389 -6.351059,-6.353528 v 0"
         style="fill:#5b6fbd;fill-opacity:1;fill-rule:nonzero;stroke:none;stroke-width:0.0352778"
         id="path190-0-9" />
      <path
         d="m 21.945557,54.766399 h 85.761333 v 7.785805 H 21.945557 v -7.785805"
         style="fill:#b6bfe6;fill-opacity:1;fill-rule:nonzero;stroke:none;stroke-width:0.0352778"
         id="path196-8-56" />
      <path
         d="m 21.945557,54.766399 h 4.940652 v 7.785805 h -4.940652 v -7.785805"
         style="fill:#8f9ed8;fill-opacity:1;fill-rule:nonzero;stroke:none;stroke-width:0.0352778"
         id="path198-6-7" />
    </g>
    <g
       id="g6644-4-8"
       style="display:inline"
       transform="translate(33.672677,10.153765)">
      <g
         id="g59683-14-9"
         transform="matrix(0.54799605,0,0,0.54799605,-35.105575,18.775417)"
         style="display:inline">
        <g
           id="g59619-4-4-8"
           style="display:inline"
           transform="translate(-19.048131,34.631778)">
          <path
             d="M 195.22866,34.197195 161.34222,22.724717 c -3.92302,-1.309458 -6.79892,3.538799 -3.89811,6.28956 l 9.97227,9.456448 -9.45645,9.972268 c -2.75076,2.900808 0.37781,7.590209 4.22636,6.073864 L 195.41623,41.26248 c 2.97021,-1.316737 2.84828,-5.90912 -0.18757,-7.065285 z"
             id="path2-8-3-72-9"
             style="fill:#33cc33;fill-opacity:1;stroke-width:0.0781252" />
          <path
             id="path2-8-6-7-3-7"
             style="display:inline;fill:#139513;fill-opacity:1;stroke-width:0.0781251"
             d="m 160.099,22.504775 c -3.23955,-0.05452 -5.23815,4.059266 -2.65462,6.509162 l 9.972,9.456788 -9.45627,9.972 c -2.75076,2.90081 0.37755,7.590399 4.2261,6.074048 l 1.4397,-0.574125 c -1.53734,-1.28284 -2.05727,-3.724973 -0.37413,-5.499923 l 9.45627,-9.972 -9.972,-9.456788 c -1.86538,-1.768887 -1.34032,-4.402867 0.31419,-5.71128 L 161.34233,22.7244 c -0.42908,-0.143222 -0.84549,-0.212931 -1.24333,-0.219625 z" />
        </g>
        <g
           id="g59619-8-2"
           transform="translate(6.3500003,17.991672)">
          <path
             d="M 195.22866,34.197195 161.34222,22.724717 c -3.92302,-1.309458 -6.79892,3.538799 -3.89811,6.28956 l 9.97227,9.456448 -9.45645,9.972268 c -2.75076,2.900808 0.37781,7.590209 4.22636,6.073864 L 195.41623,41.26248 c 2.97021,-1.316737 2.84828,-5.90912 -0.18757,-7.065285 z"
             id="path2-8-8-3"
             style="fill:#33cc33;fill-opacity:1;stroke-width:0.0781252" />
          <path
             id="path2-8-6-6-5"
             style="display:inline;fill:#139513;fill-opacity:1;stroke-width:0.0781251"
             d="m 160.099,22.504775 c -3.23955,-0.05452 -5.23815,4.059266 -2.65462,6.509162 l 9.972,9.456788 -9.45627,9.972 c -2.75076,2.90081 0.37755,7.590399 4.2261,6.074048 l 1.4397,-0.574125 c -1.53734,-1.28284 -2.05727,-3.724973 -0.37413,-5.499923 l 9.45627,-9.972 -9.972,-9.456788 c -1.86538,-1.768887 -1.34032,-4.402867 0.31419,-5.71128 L 161.34233,22.7244 c -0.42908,-0.143222 -0.84549,-0.212931 -1.24333,-0.219625 z" />
        </g>
        <g
           id="g59619-7-82-71"
           style="display:inline"
           transform="translate(36.353744,34.631761)">
          <path
             d="M 195.22866,34.197195 161.34222,22.724717 c -3.92302,-1.309458 -6.79892,3.538799 -3.89811,6.28956 l 9.97227,9.456448 -9.45645,9.972268 c -2.75076,2.900808 0.37781,7.590209 4.22636,6.073864 L 195.41623,41.26248 c 2.97021,-1.316737 2.84828,-5.90912 -0.18757,-7.065285 z"
             id="path2-8-0-41-6"
             style="fill:#33cc33;fill-opacity:1;stroke-width:0.0781252" />
          <path
             id="path2-8-6-2-8-7"
             style="display:inline;fill:#139513;fill-opacity:1;stroke-width:0.0781251"
             d="m 160.099,22.504775 c -3.23955,-0.05452 -5.23815,4.059266 -2.65462,6.509162 l 9.972,9.456788 -9.45627,9.972 c -2.75076,2.90081 0.37755,7.590399 4.2261,6.074048 l 1.4397,-0.574125 c -1.53734,-1.28284 -2.05727,-3.724973 -0.37413,-5.499923 l 9.45627,-9.972 -9.972,-9.456788 c -1.86538,-1.768887 -1.34032,-4.402867 0.31419,-5.71128 L 161.34233,22.7244 c -0.42908,-0.143222 -0.84549,-0.212931 -1.24333,-0.219625 z" />
        </g>
      </g>
      <g
         id="g12-6-7"
         transform="matrix(0.02343752,0,0,0.02343752,70.55894,48.996759)"
         style="display:inline;fill:#ff8566;fill-opacity:1">
        <g
           id="g10-0-9"
           style="fill:#ff8566;fill-opacity:1">
          <path
             d="m 511.109,220.854 c -1.777,-5.181 -5.984,-9.165 -11.263,-10.651 l -30.105,-8.456 19.384,-24.538 c 3.404,-4.298 4.466,-9.99 2.851,-15.226 -1.615,-5.236 -5.703,-9.339 -10.928,-10.982 -35.862,-11.259 -78.652,-20.739 -124.314,-5.908 -4.185,1.361 -8.337,2.922 -12.457,4.684 0.412,-4.462 0.618,-8.89 0.618,-13.28 0,-47.972 -22.289,-85.736 -44.102,-116.352 -3.176,-4.462 -8.586,-7.171 -13.822,-6.993 -5.475,0.087 -10.559,2.856 -13.595,7.416 L 256.085,46.516 238.783,20.568 c -3.035,-4.558 -8.119,-7.329 -13.595,-7.416 -5.377,-0.179 -10.657,2.531 -13.822,6.993 -21.802,30.598 -44.091,68.358 -44.091,116.352 0,4.347 0.207,8.732 0.607,13.145 -4.131,-1.74 -8.315,-3.285 -12.575,-4.646 -46.27,-14.847 -90.609,-4.558 -124.076,6.071 -5.214,1.653 -9.279,5.762 -10.874,10.987 -1.604,5.231 -0.542,10.911 2.841,15.199 l 19.308,24.463 -30.355,8.51 c -5.291,1.485 -9.507,5.481 -11.274,10.684 -1.756,5.204 -0.846,10.944 2.45,15.34 22.625,30.165 51.875,63.003 97.493,77.936 3.676,1.166 7.404,2.196 11.188,3.089 -2.2,2.618 -4.293,5.285 -6.267,8.006 -28.392,39.082 -32.448,84.696 -32.805,120.064 -0.054,5.481 2.591,10.635 7.068,13.784 4.477,3.161 10.234,3.898 15.362,2 l 29.336,-10.857 -1.258,31.265 c -0.216,5.475 2.266,10.706 6.656,13.991 4.369,3.279 10.093,4.19 15.296,2.461 33.531,-11.286 75.659,-29.244 104.042,-68.309 2.309,-3.182 4.51,-6.489 6.592,-9.903 2.07,3.42 4.272,6.727 6.581,9.909 28.381,39.065 70.52,57.024 104.052,68.304 1.735,0.579 3.535,0.867 5.312,0.867 3.556,0 7.068,-1.138 9.995,-3.328 4.379,-3.29 6.863,-8.521 6.645,-13.995 l -1.269,-31.26 29.336,10.857 c 5.128,1.897 10.885,1.16 15.362,-2 4.477,-3.149 7.123,-8.304 7.068,-13.784 -0.357,-35.363 -4.402,-80.971 -32.805,-120.054 -1.984,-2.732 -4.076,-5.415 -6.277,-8.038 3.935,-0.927 7.794,-2.006 11.579,-3.23 45.89,-14.907 75.996,-49.44 97.103,-77.855 3.264,-4.405 4.165,-10.128 2.397,-15.316 z M 255.197,325.216 c -30.604,0 -55.506,-24.902 -55.506,-55.506 0,-30.604 24.902,-55.506 55.506,-55.506 30.604,0 55.506,24.902 55.506,55.506 0,30.604 -24.902,55.506 -55.506,55.506 z"
             id="path8-8-10-4"
             style="fill:#ff8566;fill-opacity:1" />
        </g>
      </g>
      <g
         id="g12-2-07-8"
         transform="matrix(0.02343752,0,0,0.02343752,54.117007,39.878056)"
         style="display:inline;fill:#ff8566;fill-opacity:1">
        <g
           id="g10-9-7-9"
           style="fill:#ff8566;fill-opacity:1">
          <path
             d="m 511.109,220.854 c -1.777,-5.181 -5.984,-9.165 -11.263,-10.651 l -30.105,-8.456 19.384,-24.538 c 3.404,-4.298 4.466,-9.99 2.851,-15.226 -1.615,-5.236 -5.703,-9.339 -10.928,-10.982 -35.862,-11.259 -78.652,-20.739 -124.314,-5.908 -4.185,1.361 -8.337,2.922 -12.457,4.684 0.412,-4.462 0.618,-8.89 0.618,-13.28 0,-47.972 -22.289,-85.736 -44.102,-116.352 -3.176,-4.462 -8.586,-7.171 -13.822,-6.993 -5.475,0.087 -10.559,2.856 -13.595,7.416 L 256.085,46.516 238.783,20.568 c -3.035,-4.558 -8.119,-7.329 -13.595,-7.416 -5.377,-0.179 -10.657,2.531 -13.822,6.993 -21.802,30.598 -44.091,68.358 -44.091,116.352 0,4.347 0.207,8.732 0.607,13.145 -4.131,-1.74 -8.315,-3.285 -12.575,-4.646 -46.27,-14.847 -90.609,-4.558 -124.076,6.071 -5.214,1.653 -9.279,5.762 -10.874,10.987 -1.604,5.231 -0.542,10.911 2.841,15.199 l 19.308,24.463 -30.355,8.51 c -5.291,1.485 -9.507,5.481 -11.274,10.684 -1.756,5.204 -0.846,10.944 2.45,15.34 22.625,30.165 51.875,63.003 97.493,77.936 3.676,1.166 7.404,2.196 11.188,3.089 -2.2,2.618 -4.293,5.285 -6.267,8.006 -28.392,39.082 -32.448,84.696 -32.805,120.064 -0.054,5.481 2.591,10.635 7.068,13.784 4.477,3.161 10.234,3.898 15.362,2 l 29.336,-10.857 -1.258,31.265 c -0.216,5.475 2.266,10.706 6.656,13.991 4.369,3.279 10.093,4.19 15.296,2.461 33.531,-11.286 75.659,-29.244 104.042,-68.309 2.309,-3.182 4.51,-6.489 6.592,-9.903 2.07,3.42 4.272,6.727 6.581,9.909 28.381,39.065 70.52,57.024 104.052,68.304 1.735,0.579 3.535,0.867 5.312,0.867 3.556,0 7.068,-1.138 9.995,-3.328 4.379,-3.29 6.863,-8.521 6.645,-13.995 l -1.269,-31.26 29.336,10.857 c 5.128,1.897 10.885,1.16 15.362,-2 4.477,-3.149 7.123,-8.304 7.068,-13.784 -0.357,-35.363 -4.402,-80.971 -32.805,-120.054 -1.984,-2.732 -4.076,-5.415 -6.277,-8.038 3.935,-0.927 7.794,-2.006 11.579,-3.23 45.89,-14.907 75.996,-49.44 97.103,-77.855 3.264,-4.405 4.165,-10.128 2.397,-15.316 z M 255.197,325.216 c -30.604,0 -55.506,-24.902 -55.506,-55.506 0,-30.604 24.902,-55.506 55.506,-55.506 30.604,0 55.506,24.902 55.506,55.506 0,30.604 -24.902,55.506 -55.506,55.506 z"
             id="path8-8-1-39-5"
             style="fill:#ff8566;fill-opacity:1" />
        </g>
      </g>
      <g
         id="g12-2-0-7-6"
         transform="matrix(0.02343752,0,0,0.02343752,40.198931,48.996768)"
         style="display:inline;fill:#ff8566;fill-opacity:1">
        <g
           id="g10-9-5-91-9"
           style="fill:#ff8566;fill-opacity:1">
          <path
             d="m 511.109,220.854 c -1.777,-5.181 -5.984,-9.165 -11.263,-10.651 l -30.105,-8.456 19.384,-24.538 c 3.404,-4.298 4.466,-9.99 2.851,-15.226 -1.615,-5.236 -5.703,-9.339 -10.928,-10.982 -35.862,-11.259 -78.652,-20.739 -124.314,-5.908 -4.185,1.361 -8.337,2.922 -12.457,4.684 0.412,-4.462 0.618,-8.89 0.618,-13.28 0,-47.972 -22.289,-85.736 -44.102,-116.352 -3.176,-4.462 -8.586,-7.171 -13.822,-6.993 -5.475,0.087 -10.559,2.856 -13.595,7.416 L 256.085,46.516 238.783,20.568 c -3.035,-4.558 -8.119,-7.329 -13.595,-7.416 -5.377,-0.179 -10.657,2.531 -13.822,6.993 -21.802,30.598 -44.091,68.358 -44.091,116.352 0,4.347 0.207,8.732 0.607,13.145 -4.131,-1.74 -8.315,-3.285 -12.575,-4.646 -46.27,-14.847 -90.609,-4.558 -124.076,6.071 -5.214,1.653 -9.279,5.762 -10.874,10.987 -1.604,5.231 -0.542,10.911 2.841,15.199 l 19.308,24.463 -30.355,8.51 c -5.291,1.485 -9.507,5.481 -11.274,10.684 -1.756,5.204 -0.846,10.944 2.45,15.34 22.625,30.165 51.875,63.003 97.493,77.936 3.676,1.166 7.404,2.196 11.188,3.089 -2.2,2.618 -4.293,5.285 -6.267,8.006 -28.392,39.082 -32.448,84.696 -32.805,120.064 -0.054,5.481 2.591,10.635 7.068,13.784 4.477,3.161 10.234,3.898 15.362,2 l 29.336,-10.857 -1.258,31.265 c -0.216,5.475 2.266,10.706 6.656,13.991 4.369,3.279 10.093,4.19 15.296,2.461 33.531,-11.286 75.659,-29.244 104.042,-68.309 2.309,-3.182 4.51,-6.489 6.592,-9.903 2.07,3.42 4.272,6.727 6.581,9.909 28.381,39.065 70.52,57.024 104.052,68.304 1.735,0.579 3.535,0.867 5.312,0.867 3.556,0 7.068,-1.138 9.995,-3.328 4.379,-3.29 6.863,-8.521 6.645,-13.995 l -1.269,-31.26 29.336,10.857 c 5.128,1.897 10.885,1.16 15.362,-2 4.477,-3.149 7.123,-8.304 7.068,-13.784 -0.357,-35.363 -4.402,-80.971 -32.805,-120.054 -1.984,-2.732 -4.076,-5.415 -6.277,-8.038 3.935,-0.927 7.794,-2.006 11.579,-3.23 45.89,-14.907 75.996,-49.44 97.103,-77.855 3.264,-4.405 4.165,-10.128 2.397,-15.316 z M 255.197,325.216 c -30.604,0 -55.506,-24.902 -55.506,-55.506 0,-30.604 24.902,-55.506 55.506,-55.506 30.604,0 55.506,24.902 55.506,55.506 0,30.604 -24.902,55.506 -55.506,55.506 z"
             id="path8-8-1-8-69-6"
             style="fill:#ff8566;fill-opacity:1" />
        </g>
      </g>
    </g>
    <g
       id="g6644-4-7"
       style="display:inline"
       transform="translate(-32.710911,22.047175)">
      <g
         id="g59683-14-6"
         transform="matrix(0.54799605,0,0,0.54799605,-35.105575,18.775417)"
         style="display:inline">
        <g
           id="g59619-4-4-3"
           style="display:inline"
           transform="translate(-19.048131,34.631778)">
          <path
             d="M 195.22866,34.197195 161.34222,22.724717 c -3.92302,-1.309458 -6.79892,3.538799 -3.89811,6.28956 l 9.97227,9.456448 -9.45645,9.972268 c -2.75076,2.900808 0.37781,7.590209 4.22636,6.073864 L 195.41623,41.26248 c 2.97021,-1.316737 2.84828,-5.90912 -0.18757,-7.065285 z"
             id="path2-8-3-72-3"
             style="fill:#33cc33;fill-opacity:1;stroke-width:0.0781252" />
          <path
             id="path2-8-6-7-3-5"
             style="display:inline;fill:#139513;fill-opacity:1;stroke-width:0.0781251"
             d="m 160.099,22.504775 c -3.23955,-0.05452 -5.23815,4.059266 -2.65462,6.509162 l 9.972,9.456788 -9.45627,9.972 c -2.75076,2.90081 0.37755,7.590399 4.2261,6.074048 l 1.4397,-0.574125 c -1.53734,-1.28284 -2.05727,-3.724973 -0.37413,-5.499923 l 9.45627,-9.972 -9.972,-9.456788 c -1.86538,-1.768887 -1.34032,-4.402867 0.31419,-5.71128 L 161.34233,22.7244 c -0.42908,-0.143222 -0.84549,-0.212931 -1.24333,-0.219625 z" />
        </g>
        <g
           id="g59619-8-3"
           transform="translate(6.3500003,17.991672)">
          <path
             d="M 195.22866,34.197195 161.34222,22.724717 c -3.92302,-1.309458 -6.79892,3.538799 -3.89811,6.28956 l 9.97227,9.456448 -9.45645,9.972268 c -2.75076,2.900808 0.37781,7.590209 4.22636,6.073864 L 195.41623,41.26248 c 2.97021,-1.316737 2.84828,-5.90912 -0.18757,-7.065285 z"
             id="path2-8-8-8"
             style="fill:#33cc33;fill-opacity:1;stroke-width:0.0781252" />
          <path
             id="path2-8-6-6-8"
             style="display:inline;fill:#139513;fill-opacity:1;stroke-width:0.0781251"
             d="m 160.099,22.504775 c -3.23955,-0.05452 -5.23815,4.059266 -2.65462,6.509162 l 9.972,9.456788 -9.45627,9.972 c -2.75076,2.90081 0.37755,7.590399 4.2261,6.074048 l 1.4397,-0.574125 c -1.53734,-1.28284 -2.05727,-3.724973 -0.37413,-5.499923 l 9.45627,-9.972 -9.972,-9.456788 c -1.86538,-1.768887 -1.34032,-4.402867 0.31419,-5.71128 L 161.34233,22.7244 c -0.42908,-0.143222 -0.84549,-0.212931 -1.24333,-0.219625 z" />
        </g>
        <g
           id="g59619-7-82-7"
           style="display:inline"
           transform="translate(36.353744,34.631761)">
          <path
             d="M 195.22866,34.197195 161.34222,22.724717 c -3.92302,-1.309458 -6.79892,3.538799 -3.89811,6.28956 l 9.97227,9.456448 -9.45645,9.972268 c -2.75076,2.900808 0.37781,7.590209 4.22636,6.073864 L 195.41623,41.26248 c 2.97021,-1.316737 2.84828,-5.90912 -0.18757,-7.065285 z"
             id="path2-8-0-41-4"
             style="fill:#33cc33;fill-opacity:1;stroke-width:0.0781252" />
          <path
             id="path2-8-6-2-8-3"
             style="display:inline;fill:#139513;fill-opacity:1;stroke-width:0.0781251"
             d="m 160.099,22.504775 c -3.23955,-0.05452 -5.23815,4.059266 -2.65462,6.509162 l 9.972,9.456788 -9.45627,9.972 c -2.75076,2.90081 0.37755,7.590399 4.2261,6.074048 l 1.4397,-0.574125 c -1.53734,-1.28284 -2.05727,-3.724973 -0.37413,-5.499923 l 9.45627,-9.972 -9.972,-9.456788 c -1.86538,-1.768887 -1.34032,-4.402867 0.31419,-5.71128 L 161.34233,22.7244 c -0.42908,-0.143222 -0.84549,-0.212931 -1.24333,-0.219625 z" />
        </g>
      </g>
      <g
         id="g12-6-8"
         transform="matrix(0.02343752,0,0,0.02343752,70.55894,48.996759)"
         style="display:inline;fill:#ff8566;fill-opacity:1">
        <g
           id="g10-0-8"
           style="fill:#ff8566;fill-opacity:1">
          <path
             d="m 511.109,220.854 c -1.777,-5.181 -5.984,-9.165 -11.263,-10.651 l -30.105,-8.456 19.384,-24.538 c 3.404,-4.298 4.466,-9.99 2.851,-15.226 -1.615,-5.236 -5.703,-9.339 -10.928,-10.982 -35.862,-11.259 -78.652,-20.739 -124.314,-5.908 -4.185,1.361 -8.337,2.922 -12.457,4.684 0.412,-4.462 0.618,-8.89 0.618,-13.28 0,-47.972 -22.289,-85.736 -44.102,-116.352 -3.176,-4.462 -8.586,-7.171 -13.822,-6.993 -5.475,0.087 -10.559,2.856 -13.595,7.416 L 256.085,46.516 238.783,20.568 c -3.035,-4.558 -8.119,-7.329 -13.595,-7.416 -5.377,-0.179 -10.657,2.531 -13.822,6.993 -21.802,30.598 -44.091,68.358 -44.091,116.352 0,4.347 0.207,8.732 0.607,13.145 -4.131,-1.74 -8.315,-3.285 -12.575,-4.646 -46.27,-14.847 -90.609,-4.558 -124.076,6.071 -5.214,1.653 -9.279,5.762 -10.874,10.987 -1.604,5.231 -0.542,10.911 2.841,15.199 l 19.308,24.463 -30.355,8.51 c -5.291,1.485 -9.507,5.481 -11.274,10.684 -1.756,5.204 -0.846,10.944 2.45,15.34 22.625,30.165 51.875,63.003 97.493,77.936 3.676,1.166 7.404,2.196 11.188,3.089 -2.2,2.618 -4.293,5.285 -6.267,8.006 -28.392,39.082 -32.448,84.696 -32.805,120.064 -0.054,5.481 2.591,10.635 7.068,13.784 4.477,3.161 10.234,3.898 15.362,2 l 29.336,-10.857 -1.258,31.265 c -0.216,5.475 2.266,10.706 6.656,13.991 4.369,3.279 10.093,4.19 15.296,2.461 33.531,-11.286 75.659,-29.244 104.042,-68.309 2.309,-3.182 4.51,-6.489 6.592,-9.903 2.07,3.42 4.272,6.727 6.581,9.909 28.381,39.065 70.52,57.024 104.052,68.304 1.735,0.579 3.535,0.867 5.312,0.867 3.556,0 7.068,-1.138 9.995,-3.328 4.379,-3.29 6.863,-8.521 6.645,-13.995 l -1.269,-31.26 29.336,10.857 c 5.128,1.897 10.885,1.16 15.362,-2 4.477,-3.149 7.123,-8.304 7.068,-13.784 -0.357,-35.363 -4.402,-80.971 -32.805,-120.054 -1.984,-2.732 -4.076,-5.415 -6.277,-8.038 3.935,-0.927 7.794,-2.006 11.579,-3.23 45.89,-14.907 75.996,-49.44 97.103,-77.855 3.264,-4.405 4.165,-10.128 2.397,-15.316 z M 255.197,325.216 c -30.604,0 -55.506,-24.902 -55.506,-55.506 0,-30.604 24.902,-55.506 55.506,-55.506 30.604,0 55.506,24.902 55.506,55.506 0,30.604 -24.902,55.506 -55.506,55.506 z"
             id="path8-8-10-5"
             style="fill:#ff8566;fill-opacity:1" />
        </g>
      </g>
      <g
         id="g12-2-07-1"
         transform="matrix(0.02343752,0,0,0.02343752,54.117007,39.878056)"
         style="display:inline;fill:#ff8566;fill-opacity:1">
        <g
           id="g10-9-7-7"
           style="fill:#ff8566;fill-opacity:1">
          <path
             d="m 511.109,220.854 c -1.777,-5.181 -5.984,-9.165 -11.263,-10.651 l -30.105,-8.456 19.384,-24.538 c 3.404,-4.298 4.466,-9.99 2.851,-15.226 -1.615,-5.236 -5.703,-9.339 -10.928,-10.982 -35.862,-11.259 -78.652,-20.739 -124.314,-5.908 -4.185,1.361 -8.337,2.922 -12.457,4.684 0.412,-4.462 0.618,-8.89 0.618,-13.28 0,-47.972 -22.289,-85.736 -44.102,-116.352 -3.176,-4.462 -8.586,-7.171 -13.822,-6.993 -5.475,0.087 -10.559,2.856 -13.595,7.416 L 256.085,46.516 238.783,20.568 c -3.035,-4.558 -8.119,-7.329 -13.595,-7.416 -5.377,-0.179 -10.657,2.531 -13.822,6.993 -21.802,30.598 -44.091,68.358 -44.091,116.352 0,4.347 0.207,8.732 0.607,13.145 -4.131,-1.74 -8.315,-3.285 -12.575,-4.646 -46.27,-14.847 -90.609,-4.558 -124.076,6.071 -5.214,1.653 -9.279,5.762 -10.874,10.987 -1.604,5.231 -0.542,10.911 2.841,15.199 l 19.308,24.463 -30.355,8.51 c -5.291,1.485 -9.507,5.481 -11.274,10.684 -1.756,5.204 -0.846,10.944 2.45,15.34 22.625,30.165 51.875,63.003 97.493,77.936 3.676,1.166 7.404,2.196 11.188,3.089 -2.2,2.618 -4.293,5.285 -6.267,8.006 -28.392,39.082 -32.448,84.696 -32.805,120.064 -0.054,5.481 2.591,10.635 7.068,13.784 4.477,3.161 10.234,3.898 15.362,2 l 29.336,-10.857 -1.258,31.265 c -0.216,5.475 2.266,10.706 6.656,13.991 4.369,3.279 10.093,4.19 15.296,2.461 33.531,-11.286 75.659,-29.244 104.042,-68.309 2.309,-3.182 4.51,-6.489 6.592,-9.903 2.07,3.42 4.272,6.727 6.581,9.909 28.381,39.065 70.52,57.024 104.052,68.304 1.735,0.579 3.535,0.867 5.312,0.867 3.556,0 7.068,-1.138 9.995,-3.328 4.379,-3.29 6.863,-8.521 6.645,-13.995 l -1.269,-31.26 29.336,10.857 c 5.128,1.897 10.885,1.16 15.362,-2 4.477,-3.149 7.123,-8.304 7.068,-13.784 -0.357,-35.363 -4.402,-80.971 -32.805,-120.054 -1.984,-2.732 -4.076,-5.415 -6.277,-8.038 3.935,-0.927 7.794,-2.006 11.579,-3.23 45.89,-14.907 75.996,-49.44 97.103,-77.855 3.264,-4.405 4.165,-10.128 2.397,-15.316 z M 255.197,325.216 c -30.604,0 -55.506,-24.902 -55.506,-55.506 0,-30.604 24.902,-55.506 55.506,-55.506 30.604,0 55.506,24.902 55.506,55.506 0,30.604 -24.902,55.506 -55.506,55.506 z"
             id="path8-8-1-39-4"
             style="fill:#ff8566;fill-opacity:1" />
        </g>
      </g>
      <g
         id="g12-2-0-7-9"
         transform="matrix(0.02343752,0,0,0.02343752,40.198931,48.996768)"
         style="display:inline;fill:#ff8566;fill-opacity:1">
        <g
           id="g10-9-5-91-2"
           style="fill:#ff8566;fill-opacity:1">
          <path
             d="m 511.109,220.854 c -1.777,-5.181 -5.984,-9.165 -11.263,-10.651 l -30.105,-8.456 19.384,-24.538 c 3.404,-4.298 4.466,-9.99 2.851,-15.226 -1.615,-5.236 -5.703,-9.339 -10.928,-10.982 -35.862,-11.259 -78.652,-20.739 -124.314,-5.908 -4.185,1.361 -8.337,2.922 -12.457,4.684 0.412,-4.462 0.618,-8.89 0.618,-13.28 0,-47.972 -22.289,-85.736 -44.102,-116.352 -3.176,-4.462 -8.586,-7.171 -13.822,-6.993 -5.475,0.087 -10.559,2.856 -13.595,7.416 L 256.085,46.516 238.783,20.568 c -3.035,-4.558 -8.119,-7.329 -13.595,-7.416 -5.377,-0.179 -10.657,2.531 -13.822,6.993 -21.802,30.598 -44.091,68.358 -44.091,116.352 0,4.347 0.207,8.732 0.607,13.145 -4.131,-1.74 -8.315,-3.285 -12.575,-4.646 -46.27,-14.847 -90.609,-4.558 -124.076,6.071 -5.214,1.653 -9.279,5.762 -10.874,10.987 -1.604,5.231 -0.542,10.911 2.841,15.199 l 19.308,24.463 -30.355,8.51 c -5.291,1.485 -9.507,5.481 -11.274,10.684 -1.756,5.204 -0.846,10.944 2.45,15.34 22.625,30.165 51.875,63.003 97.493,77.936 3.676,1.166 7.404,2.196 11.188,3.089 -2.2,2.618 -4.293,5.285 -6.267,8.006 -28.392,39.082 -32.448,84.696 -32.805,120.064 -0.054,5.481 2.591,10.635 7.068,13.784 4.477,3.161 10.234,3.898 15.362,2 l 29.336,-10.857 -1.258,31.265 c -0.216,5.475 2.266,10.706 6.656,13.991 4.369,3.279 10.093,4.19 15.296,2.461 33.531,-11.286 75.659,-29.244 104.042,-68.309 2.309,-3.182 4.51,-6.489 6.592,-9.903 2.07,3.42 4.272,6.727 6.581,9.909 28.381,39.065 70.52,57.024 104.052,68.304 1.735,0.579 3.535,0.867 5.312,0.867 3.556,0 7.068,-1.138 9.995,-3.328 4.379,-3.29 6.863,-8.521 6.645,-13.995 l -1.269,-31.26 29.336,10.857 c 5.128,1.897 10.885,1.16 15.362,-2 4.477,-3.149 7.123,-8.304 7.068,-13.784 -0.357,-35.363 -4.402,-80.971 -32.805,-120.054 -1.984,-2.732 -4.076,-5.415 -6.277,-8.038 3.935,-0.927 7.794,-2.006 11.579,-3.23 45.89,-14.907 75.996,-49.44 97.103,-77.855 3.264,-4.405 4.165,-10.128 2.397,-15.316 z M 255.197,325.216 c -30.604,0 -55.506,-24.902 -55.506,-55.506 0,-30.604 24.902,-55.506 55.506,-55.506 30.604,0 55.506,24.902 55.506,55.506 0,30.604 -24.902,55.506 -55.506,55.506 z"
             id="path8-8-1-8-69-1"
             style="fill:#ff8566;fill-opacity:1" />
        </g>
      </g>
    </g>
    <g
       id="g6644-4-1"
       style="display:inline"
       transform="matrix(0.8490566,0,0,0.8490566,3.9502006,3.7988371)">
      <g
         id="g59683-14-2"
         transform="matrix(0.54799605,0,0,0.54799605,-35.105575,18.775417)"
         style="display:inline">
        <g
           id="g59619-4-4-6"
           style="display:inline"
           transform="translate(-19.048131,34.631778)">
          <path
             d="M 195.22866,34.197195 161.34222,22.724717 c -3.92302,-1.309458 -6.79892,3.538799 -3.89811,6.28956 l 9.97227,9.456448 -9.45645,9.972268 c -2.75076,2.900808 0.37781,7.590209 4.22636,6.073864 L 195.41623,41.26248 c 2.97021,-1.316737 2.84828,-5.90912 -0.18757,-7.065285 z"
             id="path2-8-3-72-4"
             style="fill:#33cc33;fill-opacity:1;stroke-width:0.0781252" />
          <path
             id="path2-8-6-7-3-75"
             style="display:inline;fill:#139513;fill-opacity:1;stroke-width:0.0781251"
             d="m 160.099,22.504775 c -3.23955,-0.05452 -5.23815,4.059266 -2.65462,6.509162 l 9.972,9.456788 -9.45627,9.972 c -2.75076,2.90081 0.37755,7.590399 4.2261,6.074048 l 1.4397,-0.574125 c -1.53734,-1.28284 -2.05727,-3.724973 -0.37413,-5.499923 l 9.45627,-9.972 -9.972,-9.456788 c -1.86538,-1.768887 -1.34032,-4.402867 0.31419,-5.71128 L 161.34233,22.7244 c -0.42908,-0.143222 -0.84549,-0.212931 -1.24333,-0.219625 z" />
        </g>
        <g
           id="g59619-8-6"
           transform="translate(6.3500003,17.991672)">
          <path
             d="M 195.22866,34.197195 161.34222,22.724717 c -3.92302,-1.309458 -6.79892,3.538799 -3.89811,6.28956 l 9.97227,9.456448 -9.45645,9.972268 c -2.75076,2.900808 0.37781,7.590209 4.22636,6.073864 L 195.41623,41.26248 c 2.97021,-1.316737 2.84828,-5.90912 -0.18757,-7.065285 z"
             id="path2-8-8-39"
             style="fill:#33cc33;fill-opacity:1;stroke-width:0.0781252" />
          <path
             id="path2-8-6-6-2"
             style="display:inline;fill:#139513;fill-opacity:1;stroke-width:0.0781251"
             d="m 160.099,22.504775 c -3.23955,-0.05452 -5.23815,4.059266 -2.65462,6.509162 l 9.972,9.456788 -9.45627,9.972 c -2.75076,2.90081 0.37755,7.590399 4.2261,6.074048 l 1.4397,-0.574125 c -1.53734,-1.28284 -2.05727,-3.724973 -0.37413,-5.499923 l 9.45627,-9.972 -9.972,-9.456788 c -1.86538,-1.768887 -1.34032,-4.402867 0.31419,-5.71128 L 161.34233,22.7244 c -0.42908,-0.143222 -0.84549,-0.212931 -1.24333,-0.219625 z" />
        </g>
        <g
           id="g59619-7-82-6"
           style="display:inline"
           transform="translate(36.353744,34.631761)">
          <path
             d="M 195.22866,34.197195 161.34222,22.724717 c -3.92302,-1.309458 -6.79892,3.538799 -3.89811,6.28956 l 9.97227,9.456448 -9.45645,9.972268 c -2.75076,2.900808 0.37781,7.590209 4.22636,6.073864 L 195.41623,41.26248 c 2.97021,-1.316737 2.84828,-5.90912 -0.18757,-7.065285 z"
             id="path2-8-0-41-5"
             style="fill:#33cc33;fill-opacity:1;stroke-width:0.0781252" />
          <path
             id="path2-8-6-2-8-1"
             style="display:inline;fill:#139513;fill-opacity:1;stroke-width:0.0781251"
             d="m 160.099,22.504775 c -3.23955,-0.05452 -5.23815,4.059266 -2.65462,6.509162 l 9.972,9.456788 -9.45627,9.972 c -2.75076,2.90081 0.37755,7.590399 4.2261,6.074048 l 1.4397,-0.574125 c -1.53734,-1.28284 -2.05727,-3.724973 -0.37413,-5.499923 l 9.45627,-9.972 -9.972,-9.456788 c -1.86538,-1.768887 -1.34032,-4.402867 0.31419,-5.71128 L 161.34233,22.7244 c -0.42908,-0.143222 -0.84549,-0.212931 -1.24333,-0.219625 z" />
        </g>
      </g>
      <g
         id="g12-6-3"
         transform="matrix(0.02343752,0,0,0.02343752,70.55894,48.996759)"
         style="display:inline;fill:#ff8566;fill-opacity:1">
        <g
           id="g10-0-5"
           style="fill:#ff8566;fill-opacity:1">
          <path
             d="m 511.109,220.854 c -1.777,-5.181 -5.984,-9.165 -11.263,-10.651 l -30.105,-8.456 19.384,-24.538 c 3.404,-4.298 4.466,-9.99 2.851,-15.226 -1.615,-5.236 -5.703,-9.339 -10.928,-10.982 -35.862,-11.259 -78.652,-20.739 -124.314,-5.908 -4.185,1.361 -8.337,2.922 -12.457,4.684 0.412,-4.462 0.618,-8.89 0.618,-13.28 0,-47.972 -22.289,-85.736 -44.102,-116.352 -3.176,-4.462 -8.586,-7.171 -13.822,-6.993 -5.475,0.087 -10.559,2.856 -13.595,7.416 L 256.085,46.516 238.783,20.568 c -3.035,-4.558 -8.119,-7.329 -13.595,-7.416 -5.377,-0.179 -10.657,2.531 -13.822,6.993 -21.802,30.598 -44.091,68.358 -44.091,116.352 0,4.347 0.207,8.732 0.607,13.145 -4.131,-1.74 -8.315,-3.285 -12.575,-4.646 -46.27,-14.847 -90.609,-4.558 -124.076,6.071 -5.214,1.653 -9.279,5.762 -10.874,10.987 -1.604,5.231 -0.542,10.911 2.841,15.199 l 19.308,24.463 -30.355,8.51 c -5.291,1.485 -9.507,5.481 -11.274,10.684 -1.756,5.204 -0.846,10.944 2.45,15.34 22.625,30.165 51.875,63.003 97.493,77.936 3.676,1.166 7.404,2.196 11.188,3.089 -2.2,2.618 -4.293,5.285 -6.267,8.006 -28.392,39.082 -32.448,84.696 -32.805,120.064 -0.054,5.481 2.591,10.635 7.068,13.784 4.477,3.161 10.234,3.898 15.362,2 l 29.336,-10.857 -1.258,31.265 c -0.216,5.475 2.266,10.706 6.656,13.991 4.369,3.279 10.093,4.19 15.296,2.461 33.531,-11.286 75.659,-29.244 104.042,-68.309 2.309,-3.182 4.51,-6.489 6.592,-9.903 2.07,3.42 4.272,6.727 6.581,9.909 28.381,39.065 70.52,57.024 104.052,68.304 1.735,0.579 3.535,0.867 5.312,0.867 3.556,0 7.068,-1.138 9.995,-3.328 4.379,-3.29 6.863,-8.521 6.645,-13.995 l -1.269,-31.26 29.336,10.857 c 5.128,1.897 10.885,1.16 15.362,-2 4.477,-3.149 7.123,-8.304 7.068,-13.784 -0.357,-35.363 -4.402,-80.971 -32.805,-120.054 -1.984,-2.732 -4.076,-5.415 -6.277,-8.038 3.935,-0.927 7.794,-2.006 11.579,-3.23 45.89,-14.907 75.996,-49.44 97.103,-77.855 3.264,-4.405 4.165,-10.128 2.397,-15.316 z M 255.197,325.216 c -30.604,0 -55.506,-24.902 -55.506,-55.506 0,-30.604 24.902,-55.506 55.506,-55.506 30.604,0 55.506,24.902 55.506,55.506 0,30.604 -24.902,55.506 -55.506,55.506 z"
             id="path8-8-10-0"
             style="fill:#ff8566;fill-opacity:1" />
        </g>
      </g>
      <g
         id="g12-2-07-9"
         transform="matrix(0.02343752,0,0,0.02343752,54.117007,39.878056)"
         style="display:inline;fill:#ff8566;fill-opacity:1">
        <g
           id="g10-9-7-0"
           style="fill:#ff8566;fill-opacity:1">
          <path
             d="m 511.109,220.854 c -1.777,-5.181 -5.984,-9.165 -11.263,-10.651 l -30.105,-8.456 19.384,-24.538 c 3.404,-4.298 4.466,-9.99 2.851,-15.226 -1.615,-5.236 -5.703,-9.339 -10.928,-10.982 -35.862,-11.259 -78.652,-20.739 -124.314,-5.908 -4.185,1.361 -8.337,2.922 -12.457,4.684 0.412,-4.462 0.618,-8.89 0.618,-13.28 0,-47.972 -22.289,-85.736 -44.102,-116.352 -3.176,-4.462 -8.586,-7.171 -13.822,-6.993 -5.475,0.087 -10.559,2.856 -13.595,7.416 L 256.085,46.516 238.783,20.568 c -3.035,-4.558 -8.119,-7.329 -13.595,-7.416 -5.377,-0.179 -10.657,2.531 -13.822,6.993 -21.802,30.598 -44.091,68.358 -44.091,116.352 0,4.347 0.207,8.732 0.607,13.145 -4.131,-1.74 -8.315,-3.285 -12.575,-4.646 -46.27,-14.847 -90.609,-4.558 -124.076,6.071 -5.214,1.653 -9.279,5.762 -10.874,10.987 -1.604,5.231 -0.542,10.911 2.841,15.199 l 19.308,24.463 -30.355,8.51 c -5.291,1.485 -9.507,5.481 -11.274,10.684 -1.756,5.204 -0.846,10.944 2.45,15.34 22.625,30.165 51.875,63.003 97.493,77.936 3.676,1.166 7.404,2.196 11.188,3.089 -2.2,2.618 -4.293,5.285 -6.267,8.006 -28.392,39.082 -32.448,84.696 -32.805,120.064 -0.054,5.481 2.591,10.635 7.068,13.784 4.477,3.161 10.234,3.898 15.362,2 l 29.336,-10.857 -1.258,31.265 c -0.216,5.475 2.266,10.706 6.656,13.991 4.369,3.279 10.093,4.19 15.296,2.461 33.531,-11.286 75.659,-29.244 104.042,-68.309 2.309,-3.182 4.51,-6.489 6.592,-9.903 2.07,3.42 4.272,6.727 6.581,9.909 28.381,39.065 70.52,57.024 104.052,68.304 1.735,0.579 3.535,0.867 5.312,0.867 3.556,0 7.068,-1.138 9.995,-3.328 4.379,-3.29 6.863,-8.521 6.645,-13.995 l -1.269,-31.26 29.336,10.857 c 5.128,1.897 10.885,1.16 15.362,-2 4.477,-3.149 7.123,-8.304 7.068,-13.784 -0.357,-35.363 -4.402,-80.971 -32.805,-120.054 -1.984,-2.732 -4.076,-5.415 -6.277,-8.038 3.935,-0.927 7.794,-2.006 11.579,-3.23 45.89,-14.907 75.996,-49.44 97.103,-77.855 3.264,-4.405 4.165,-10.128 2.397,-15.316 z M 255.197,325.216 c -30.604,0 -55.506,-24.902 -55.506,-55.506 0,-30.604 24.902,-55.506 55.506,-55.506 30.604,0 55.506,24.902 55.506,55.506 0,30.604 -24.902,55.506 -55.506,55.506 z"
             id="path8-8-1-39-6"
             style="fill:#ff8566;fill-opacity:1" />
        </g>
      </g>
      <g
         id="g12-2-0-7-94"
         transform="matrix(0.02343752,0,0,0.02343752,40.198931,48.996768)"
         style="display:inline;fill:#ff8566;fill-opacity:1">
        <g
           id="g10-9-5-91-98"
           style="fill:#ff8566;fill-opacity:1">
          <path
             d="m 511.109,220.854 c -1.777,-5.181 -5.984,-9.165 -11.263,-10.651 l -30.105,-8.456 19.384,-24.538 c 3.404,-4.298 4.466,-9.99 2.851,-15.226 -1.615,-5.236 -5.703,-9.339 -10.928,-10.982 -35.862,-11.259 -78.652,-20.739 -124.314,-5.908 -4.185,1.361 -8.337,2.922 -12.457,4.684 0.412,-4.462 0.618,-8.89 0.618,-13.28 0,-47.972 -22.289,-85.736 -44.102,-116.352 -3.176,-4.462 -8.586,-7.171 -13.822,-6.993 -5.475,0.087 -10.559,2.856 -13.595,7.416 L 256.085,46.516 238.783,20.568 c -3.035,-4.558 -8.119,-7.329 -13.595,-7.416 -5.377,-0.179 -10.657,2.531 -13.822,6.993 -21.802,30.598 -44.091,68.358 -44.091,116.352 0,4.347 0.207,8.732 0.607,13.145 -4.131,-1.74 -8.315,-3.285 -12.575,-4.646 -46.27,-14.847 -90.609,-4.558 -124.076,6.071 -5.214,1.653 -9.279,5.762 -10.874,10.987 -1.604,5.231 -0.542,10.911 2.841,15.199 l 19.308,24.463 -30.355,8.51 c -5.291,1.485 -9.507,5.481 -11.274,10.684 -1.756,5.204 -0.846,10.944 2.45,15.34 22.625,30.165 51.875,63.003 97.493,77.936 3.676,1.166 7.404,2.196 11.188,3.089 -2.2,2.618 -4.293,5.285 -6.267,8.006 -28.392,39.082 -32.448,84.696 -32.805,120.064 -0.054,5.481 2.591,10.635 7.068,13.784 4.477,3.161 10.234,3.898 15.362,2 l 29.336,-10.857 -1.258,31.265 c -0.216,5.475 2.266,10.706 6.656,13.991 4.369,3.279 10.093,4.19 15.296,2.461 33.531,-11.286 75.659,-29.244 104.042,-68.309 2.309,-3.182 4.51,-6.489 6.592,-9.903 2.07,3.42 4.272,6.727 6.581,9.909 28.381,39.065 70.52,57.024 104.052,68.304 1.735,0.579 3.535,0.867 5.312,0.867 3.556,0 7.068,-1.138 9.995,-3.328 4.379,-3.29 6.863,-8.521 6.645,-13.995 l -1.269,-31.26 29.336,10.857 c 5.128,1.897 10.885,1.16 15.362,-2 4.477,-3.149 7.123,-8.304 7.068,-13.784 -0.357,-35.363 -4.402,-80.971 -32.805,-120.054 -1.984,-2.732 -4.076,-5.415 -6.277,-8.038 3.935,-0.927 7.794,-2.006 11.579,-3.23 45.89,-14.907 75.996,-49.44 97.103,-77.855 3.264,-4.405 4.165,-10.128 2.397,-15.316 z M 255.197,325.216 c -30.604,0 -55.506,-24.902 -55.506,-55.506 0,-30.604 24.902,-55.506 55.506,-55.506 30.604,0 55.506,24.902 55.506,55.506 0,30.604 -24.902,55.506 -55.506,55.506 z"
             id="path8-8-1-8-69-5"
             style="fill:#ff8566;fill-opacity:1" />
        </g>
      </g>
    </g>
    <g
       id="g6644-4-1-5"
       style="display:inline"
       transform="matrix(0.8490566,0,0,0.8490566,39.294277,-9.6312547)">
      <g
         id="g59683-14-2-8"
         transform="matrix(0.54799605,0,0,0.54799605,-35.105575,18.775417)"
         style="display:inline">
        <g
           id="g59619-4-4-6-4"
           style="display:inline"
           transform="translate(-19.048131,34.631778)">
          <path
             d="M 195.22866,34.197195 161.34222,22.724717 c -3.92302,-1.309458 -6.79892,3.538799 -3.89811,6.28956 l 9.97227,9.456448 -9.45645,9.972268 c -2.75076,2.900808 0.37781,7.590209 4.22636,6.073864 L 195.41623,41.26248 c 2.97021,-1.316737 2.84828,-5.90912 -0.18757,-7.065285 z"
             id="path2-8-3-72-4-3"
             style="fill:#33cc33;fill-opacity:1;stroke-width:0.0781252" />
          <path
             id="path2-8-6-7-3-75-8"
             style="display:inline;fill:#139513;fill-opacity:1;stroke-width:0.0781251"
             d="m 160.099,22.504775 c -3.23955,-0.05452 -5.23815,4.059266 -2.65462,6.509162 l 9.972,9.456788 -9.45627,9.972 c -2.75076,2.90081 0.37755,7.590399 4.2261,6.074048 l 1.4397,-0.574125 c -1.53734,-1.28284 -2.05727,-3.724973 -0.37413,-5.499923 l 9.45627,-9.972 -9.972,-9.456788 c -1.86538,-1.768887 -1.34032,-4.402867 0.31419,-5.71128 L 161.34233,22.7244 c -0.42908,-0.143222 -0.84549,-0.212931 -1.24333,-0.219625 z" />
        </g>
        <g
           id="g59619-8-6-3"
           transform="translate(6.3500003,17.991672)">
          <path
             d="M 195.22866,34.197195 161.34222,22.724717 c -3.92302,-1.309458 -6.79892,3.538799 -3.89811,6.28956 l 9.97227,9.456448 -9.45645,9.972268 c -2.75076,2.900808 0.37781,7.590209 4.22636,6.073864 L 195.41623,41.26248 c 2.97021,-1.316737 2.84828,-5.90912 -0.18757,-7.065285 z"
             id="path2-8-8-39-5"
             style="fill:#33cc33;fill-opacity:1;stroke-width:0.0781252" />
          <path
             id="path2-8-6-6-2-7"
             style="display:inline;fill:#139513;fill-opacity:1;stroke-width:0.0781251"
             d="m 160.099,22.504775 c -3.23955,-0.05452 -5.23815,4.059266 -2.65462,6.509162 l 9.972,9.456788 -9.45627,9.972 c -2.75076,2.90081 0.37755,7.590399 4.2261,6.074048 l 1.4397,-0.574125 c -1.53734,-1.28284 -2.05727,-3.724973 -0.37413,-5.499923 l 9.45627,-9.972 -9.972,-9.456788 c -1.86538,-1.768887 -1.34032,-4.402867 0.31419,-5.71128 L 161.34233,22.7244 c -0.42908,-0.143222 -0.84549,-0.212931 -1.24333,-0.219625 z" />
        </g>
        <g
           id="g59619-7-82-6-2"
           style="display:inline"
           transform="translate(36.353744,34.631761)">
          <path
             d="M 195.22866,34.197195 161.34222,22.724717 c -3.92302,-1.309458 -6.79892,3.538799 -3.89811,6.28956 l 9.97227,9.456448 -9.45645,9.972268 c -2.75076,2.900808 0.37781,7.590209 4.22636,6.073864 L 195.41623,41.26248 c 2.97021,-1.316737 2.84828,-5.90912 -0.18757,-7.065285 z"
             id="path2-8-0-41-5-4"
             style="fill:#33cc33;fill-opacity:1;stroke-width:0.0781252" />
          <path
             id="path2-8-6-2-8-1-4"
             style="display:inline;fill:#139513;fill-opacity:1;stroke-width:0.0781251"
             d="m 160.099,22.504775 c -3.23955,-0.05452 -5.23815,4.059266 -2.65462,6.509162 l 9.972,9.456788 -9.45627,9.972 c -2.75076,2.90081 0.37755,7.590399 4.2261,6.074048 l 1.4397,-0.574125 c -1.53734,-1.28284 -2.05727,-3.724973 -0.37413,-5.499923 l 9.45627,-9.972 -9.972,-9.456788 c -1.86538,-1.768887 -1.34032,-4.402867 0.31419,-5.71128 L 161.34233,22.7244 c -0.42908,-0.143222 -0.84549,-0.212931 -1.24333,-0.219625 z" />
        </g>
      </g>
      <g
         id="g12-6-3-6"
         transform="matrix(0.02343752,0,0,0.02343752,70.55894,48.996759)"
         style="display:inline;fill:#ff8566;fill-opacity:1">
        <g
           id="g10-0-5-8"
           style="fill:#ff8566;fill-opacity:1">
          <path
             d="m 511.109,220.854 c -1.777,-5.181 -5.984,-9.165 -11.263,-10.651 l -30.105,-8.456 19.384,-24.538 c 3.404,-4.298 4.466,-9.99 2.851,-15.226 -1.615,-5.236 -5.703,-9.339 -10.928,-10.982 -35.862,-11.259 -78.652,-20.739 -124.314,-5.908 -4.185,1.361 -8.337,2.922 -12.457,4.684 0.412,-4.462 0.618,-8.89 0.618,-13.28 0,-47.972 -22.289,-85.736 -44.102,-116.352 -3.176,-4.462 -8.586,-7.171 -13.822,-6.993 -5.475,0.087 -10.559,2.856 -13.595,7.416 L 256.085,46.516 238.783,20.568 c -3.035,-4.558 -8.119,-7.329 -13.595,-7.416 -5.377,-0.179 -10.657,2.531 -13.822,6.993 -21.802,30.598 -44.091,68.358 -44.091,116.352 0,4.347 0.207,8.732 0.607,13.145 -4.131,-1.74 -8.315,-3.285 -12.575,-4.646 -46.27,-14.847 -90.609,-4.558 -124.076,6.071 -5.214,1.653 -9.279,5.762 -10.874,10.987 -1.604,5.231 -0.542,10.911 2.841,15.199 l 19.308,24.463 -30.355,8.51 c -5.291,1.485 -9.507,5.481 -11.274,10.684 -1.756,5.204 -0.846,10.944 2.45,15.34 22.625,30.165 51.875,63.003 97.493,77.936 3.676,1.166 7.404,2.196 11.188,3.089 -2.2,2.618 -4.293,5.285 -6.267,8.006 -28.392,39.082 -32.448,84.696 -32.805,120.064 -0.054,5.481 2.591,10.635 7.068,13.784 4.477,3.161 10.234,3.898 15.362,2 l 29.336,-10.857 -1.258,31.265 c -0.216,5.475 2.266,10.706 6.656,13.991 4.369,3.279 10.093,4.19 15.296,2.461 33.531,-11.286 75.659,-29.244 104.042,-68.309 2.309,-3.182 4.51,-6.489 6.592,-9.903 2.07,3.42 4.272,6.727 6.581,9.909 28.381,39.065 70.52,57.024 104.052,68.304 1.735,0.579 3.535,0.867 5.312,0.867 3.556,0 7.068,-1.138 9.995,-3.328 4.379,-3.29 6.863,-8.521 6.645,-13.995 l -1.269,-31.26 29.336,10.857 c 5.128,1.897 10.885,1.16 15.362,-2 4.477,-3.149 7.123,-8.304 7.068,-13.784 -0.357,-35.363 -4.402,-80.971 -32.805,-120.054 -1.984,-2.732 -4.076,-5.415 -6.277,-8.038 3.935,-0.927 7.794,-2.006 11.579,-3.23 45.89,-14.907 75.996,-49.44 97.103,-77.855 3.264,-4.405 4.165,-10.128 2.397,-15.316 z M 255.197,325.216 c -30.604,0 -55.506,-24.902 -55.506,-55.506 0,-30.604 24.902,-55.506 55.506,-55.506 30.604,0 55.506,24.902 55.506,55.506 0,30.604 -24.902,55.506 -55.506,55.506 z"
             id="path8-8-10-0-9"
             style="fill:#ff8566;fill-opacity:1" />
        </g>
      </g>
      <g
         id="g12-2-07-9-4"
         transform="matrix(0.02343752,0,0,0.02343752,54.117007,39.878056)"
         style="display:inline;fill:#ff8566;fill-opacity:1">
        <g
           id="g10-9-7-0-4"
           style="fill:#ff8566;fill-opacity:1">
          <path
             d="m 511.109,220.854 c -1.777,-5.181 -5.984,-9.165 -11.263,-10.651 l -30.105,-8.456 19.384,-24.538 c 3.404,-4.298 4.466,-9.99 2.851,-15.226 -1.615,-5.236 -5.703,-9.339 -10.928,-10.982 -35.862,-11.259 -78.652,-20.739 -124.314,-5.908 -4.185,1.361 -8.337,2.922 -12.457,4.684 0.412,-4.462 0.618,-8.89 0.618,-13.28 0,-47.972 -22.289,-85.736 -44.102,-116.352 -3.176,-4.462 -8.586,-7.171 -13.822,-6.993 -5.475,0.087 -10.559,2.856 -13.595,7.416 L 256.085,46.516 238.783,20.568 c -3.035,-4.558 -8.119,-7.329 -13.595,-7.416 -5.377,-0.179 -10.657,2.531 -13.822,6.993 -21.802,30.598 -44.091,68.358 -44.091,116.352 0,4.347 0.207,8.732 0.607,13.145 -4.131,-1.74 -8.315,-3.285 -12.575,-4.646 -46.27,-14.847 -90.609,-4.558 -124.076,6.071 -5.214,1.653 -9.279,5.762 -10.874,10.987 -1.604,5.231 -0.542,10.911 2.841,15.199 l 19.308,24.463 -30.355,8.51 c -5.291,1.485 -9.507,5.481 -11.274,10.684 -1.756,5.204 -0.846,10.944 2.45,15.34 22.625,30.165 51.875,63.003 97.493,77.936 3.676,1.166 7.404,2.196 11.188,3.089 -2.2,2.618 -4.293,5.285 -6.267,8.006 -28.392,39.082 -32.448,84.696 -32.805,120.064 -0.054,5.481 2.591,10.635 7.068,13.784 4.477,3.161 10.234,3.898 15.362,2 l 29.336,-10.857 -1.258,31.265 c -0.216,5.475 2.266,10.706 6.656,13.991 4.369,3.279 10.093,4.19 15.296,2.461 33.531,-11.286 75.659,-29.244 104.042,-68.309 2.309,-3.182 4.51,-6.489 6.592,-9.903 2.07,3.42 4.272,6.727 6.581,9.909 28.381,39.065 70.52,57.024 104.052,68.304 1.735,0.579 3.535,0.867 5.312,0.867 3.556,0 7.068,-1.138 9.995,-3.328 4.379,-3.29 6.863,-8.521 6.645,-13.995 l -1.269,-31.26 29.336,10.857 c 5.128,1.897 10.885,1.16 15.362,-2 4.477,-3.149 7.123,-8.304 7.068,-13.784 -0.357,-35.363 -4.402,-80.971 -32.805,-120.054 -1.984,-2.732 -4.076,-5.415 -6.277,-8.038 3.935,-0.927 7.794,-2.006 11.579,-3.23 45.89,-14.907 75.996,-49.44 97.103,-77.855 3.264,-4.405 4.165,-10.128 2.397,-15.316 z M 255.197,325.216 c -30.604,0 -55.506,-24.902 -55.506,-55.506 0,-30.604 24.902,-55.506 55.506,-55.506 30.604,0 55.506,24.902 55.506,55.506 0,30.604 -24.902,55.506 -55.506,55.506 z"
             id="path8-8-1-39-6-2"
             style="fill:#ff8566;fill-opacity:1" />
        </g>
      </g>
      <g
         id="g12-2-0-7-94-9"
         transform="matrix(0.02343752,0,0,0.02343752,40.198931,48.996768)"
         style="display:inline;fill:#ff8566;fill-opacity:1">
        <g
           id="g10-9-5-91-98-1"
           style="fill:#ff8566;fill-opacity:1">
          <path
             d="m 511.109,220.854 c -1.777,-5.181 -5.984,-9.165 -11.263,-10.651 l -30.105,-8.456 19.384,-24.538 c 3.404,-4.298 4.466,-9.99 2.851,-15.226 -1.615,-5.236 -5.703,-9.339 -10.928,-10.982 -35.862,-11.259 -78.652,-20.739 -124.314,-5.908 -4.185,1.361 -8.337,2.922 -12.457,4.684 0.412,-4.462 0.618,-8.89 0.618,-13.28 0,-47.972 -22.289,-85.736 -44.102,-116.352 -3.176,-4.462 -8.586,-7.171 -13.822,-6.993 -5.475,0.087 -10.559,2.856 -13.595,7.416 L 256.085,46.516 238.783,20.568 c -3.035,-4.558 -8.119,-7.329 -13.595,-7.416 -5.377,-0.179 -10.657,2.531 -13.822,6.993 -21.802,30.598 -44.091,68.358 -44.091,116.352 0,4.347 0.207,8.732 0.607,13.145 -4.131,-1.74 -8.315,-3.285 -12.575,-4.646 -46.27,-14.847 -90.609,-4.558 -124.076,6.071 -5.214,1.653 -9.279,5.762 -10.874,10.987 -1.604,5.231 -0.542,10.911 2.841,15.199 l 19.308,24.463 -30.355,8.51 c -5.291,1.485 -9.507,5.481 -11.274,10.684 -1.756,5.204 -0.846,10.944 2.45,15.34 22.625,30.165 51.875,63.003 97.493,77.936 3.676,1.166 7.404,2.196 11.188,3.089 -2.2,2.618 -4.293,5.285 -6.267,8.006 -28.392,39.082 -32.448,84.696 -32.805,120.064 -0.054,5.481 2.591,10.635 7.068,13.784 4.477,3.161 10.234,3.898 15.362,2 l 29.336,-10.857 -1.258,31.265 c -0.216,5.475 2.266,10.706 6.656,13.991 4.369,3.279 10.093,4.19 15.296,2.461 33.531,-11.286 75.659,-29.244 104.042,-68.309 2.309,-3.182 4.51,-6.489 6.592,-9.903 2.07,3.42 4.272,6.727 6.581,9.909 28.381,39.065 70.52,57.024 104.052,68.304 1.735,0.579 3.535,0.867 5.312,0.867 3.556,0 7.068,-1.138 9.995,-3.328 4.379,-3.29 6.863,-8.521 6.645,-13.995 l -1.269,-31.26 29.336,10.857 c 5.128,1.897 10.885,1.16 15.362,-2 4.477,-3.149 7.123,-8.304 7.068,-13.784 -0.357,-35.363 -4.402,-80.971 -32.805,-120.054 -1.984,-2.732 -4.076,-5.415 -6.277,-8.038 3.935,-0.927 7.794,-2.006 11.579,-3.23 45.89,-14.907 75.996,-49.44 97.103,-77.855 3.264,-4.405 4.165,-10.128 2.397,-15.316 z M 255.197,325.216 c -30.604,0 -55.506,-24.902 -55.506,-55.506 0,-30.604 24.902,-55.506 55.506,-55.506 30.604,0 55.506,24.902 55.506,55.506 0,30.604 -24.902,55.506 -55.506,55.506 z"
             id="path8-8-1-8-69-5-4"
             style="fill:#ff8566;fill-opacity:1" />
        </g>
      </g>
    </g>
    <g
       id="g6644-4-1-4"
       style="display:inline"
       transform="matrix(0.75471698,0,0,0.75471698,17.402157,-25.337913)">
      <g
         id="g59683-14-2-5"
         transform="matrix(0.54799605,0,0,0.54799605,-35.105575,18.775417)"
         style="display:inline">
        <g
           id="g59619-4-4-6-1"
           style="display:inline"
           transform="translate(-19.048131,34.631778)">
          <path
             d="M 195.22866,34.197195 161.34222,22.724717 c -3.92302,-1.309458 -6.79892,3.538799 -3.89811,6.28956 l 9.97227,9.456448 -9.45645,9.972268 c -2.75076,2.900808 0.37781,7.590209 4.22636,6.073864 L 195.41623,41.26248 c 2.97021,-1.316737 2.84828,-5.90912 -0.18757,-7.065285 z"
             id="path2-8-3-72-4-1"
             style="fill:#33cc33;fill-opacity:1;stroke-width:0.0781252" />
          <path
             id="path2-8-6-7-3-75-7"
             style="display:inline;fill:#139513;fill-opacity:1;stroke-width:0.0781251"
             d="m 160.099,22.504775 c -3.23955,-0.05452 -5.23815,4.059266 -2.65462,6.509162 l 9.972,9.456788 -9.45627,9.972 c -2.75076,2.90081 0.37755,7.590399 4.2261,6.074048 l 1.4397,-0.574125 c -1.53734,-1.28284 -2.05727,-3.724973 -0.37413,-5.499923 l 9.45627,-9.972 -9.972,-9.456788 c -1.86538,-1.768887 -1.34032,-4.402867 0.31419,-5.71128 L 161.34233,22.7244 c -0.42908,-0.143222 -0.84549,-0.212931 -1.24333,-0.219625 z" />
        </g>
        <g
           id="g59619-8-6-36"
           transform="translate(6.3500003,17.991672)">
          <path
             d="M 195.22866,34.197195 161.34222,22.724717 c -3.92302,-1.309458 -6.79892,3.538799 -3.89811,6.28956 l 9.97227,9.456448 -9.45645,9.972268 c -2.75076,2.900808 0.37781,7.590209 4.22636,6.073864 L 195.41623,41.26248 c 2.97021,-1.316737 2.84828,-5.90912 -0.18757,-7.065285 z"
             id="path2-8-8-39-9"
             style="fill:#33cc33;fill-opacity:1;stroke-width:0.0781252" />
          <path
             id="path2-8-6-6-2-2"
             style="display:inline;fill:#139513;fill-opacity:1;stroke-width:0.0781251"
             d="m 160.099,22.504775 c -3.23955,-0.05452 -5.23815,4.059266 -2.65462,6.509162 l 9.972,9.456788 -9.45627,9.972 c -2.75076,2.90081 0.37755,7.590399 4.2261,6.074048 l 1.4397,-0.574125 c -1.53734,-1.28284 -2.05727,-3.724973 -0.37413,-5.499923 l 9.45627,-9.972 -9.972,-9.456788 c -1.86538,-1.768887 -1.34032,-4.402867 0.31419,-5.71128 L 161.34233,22.7244 c -0.42908,-0.143222 -0.84549,-0.212931 -1.24333,-0.219625 z" />
        </g>
        <g
           id="g59619-7-82-6-6"
           style="display:inline"
           transform="translate(36.353744,34.631761)">
          <path
             d="M 195.22866,34.197195 161.34222,22.724717 c -3.92302,-1.309458 -6.79892,3.538799 -3.89811,6.28956 l 9.97227,9.456448 -9.45645,9.972268 c -2.75076,2.900808 0.37781,7.590209 4.22636,6.073864 L 195.41623,41.26248 c 2.97021,-1.316737 2.84828,-5.90912 -0.18757,-7.065285 z"
             id="path2-8-0-41-5-0"
             style="fill:#33cc33;fill-opacity:1;stroke-width:0.0781252" />
          <path
             id="path2-8-6-2-8-1-9"
             style="display:inline;fill:#139513;fill-opacity:1;stroke-width:0.0781251"
             d="m 160.099,22.504775 c -3.23955,-0.05452 -5.23815,4.059266 -2.65462,6.509162 l 9.972,9.456788 -9.45627,9.972 c -2.75076,2.90081 0.37755,7.590399 4.2261,6.074048 l 1.4397,-0.574125 c -1.53734,-1.28284 -2.05727,-3.724973 -0.37413,-5.499923 l 9.45627,-9.972 -9.972,-9.456788 c -1.86538,-1.768887 -1.34032,-4.402867 0.31419,-5.71128 L 161.34233,22.7244 c -0.42908,-0.143222 -0.84549,-0.212931 -1.24333,-0.219625 z" />
        </g>
      </g>
      <g
         id="g12-6-3-3"
         transform="matrix(0.02343752,0,0,0.02343752,70.55894,48.996759)"
         style="display:inline;fill:#ff8566;fill-opacity:1">
        <g
           id="g10-0-5-3"
           style="fill:#ff8566;fill-opacity:1">
          <path
             d="m 511.109,220.854 c -1.777,-5.181 -5.984,-9.165 -11.263,-10.651 l -30.105,-8.456 19.384,-24.538 c 3.404,-4.298 4.466,-9.99 2.851,-15.226 -1.615,-5.236 -5.703,-9.339 -10.928,-10.982 -35.862,-11.259 -78.652,-20.739 -124.314,-5.908 -4.185,1.361 -8.337,2.922 -12.457,4.684 0.412,-4.462 0.618,-8.89 0.618,-13.28 0,-47.972 -22.289,-85.736 -44.102,-116.352 -3.176,-4.462 -8.586,-7.171 -13.822,-6.993 -5.475,0.087 -10.559,2.856 -13.595,7.416 L 256.085,46.516 238.783,20.568 c -3.035,-4.558 -8.119,-7.329 -13.595,-7.416 -5.377,-0.179 -10.657,2.531 -13.822,6.993 -21.802,30.598 -44.091,68.358 -44.091,116.352 0,4.347 0.207,8.732 0.607,13.145 -4.131,-1.74 -8.315,-3.285 -12.575,-4.646 -46.27,-14.847 -90.609,-4.558 -124.076,6.071 -5.214,1.653 -9.279,5.762 -10.874,10.987 -1.604,5.231 -0.542,10.911 2.841,15.199 l 19.308,24.463 -30.355,8.51 c -5.291,1.485 -9.507,5.481 -11.274,10.684 -1.756,5.204 -0.846,10.944 2.45,15.34 22.625,30.165 51.875,63.003 97.493,77.936 3.676,1.166 7.404,2.196 11.188,3.089 -2.2,2.618 -4.293,5.285 -6.267,8.006 -28.392,39.082 -32.448,84.696 -32.805,120.064 -0.054,5.481 2.591,10.635 7.068,13.784 4.477,3.161 10.234,3.898 15.362,2 l 29.336,-10.857 -1.258,31.265 c -0.216,5.475 2.266,10.706 6.656,13.991 4.369,3.279 10.093,4.19 15.296,2.461 33.531,-11.286 75.659,-29.244 104.042,-68.309 2.309,-3.182 4.51,-6.489 6.592,-9.903 2.07,3.42 4.272,6.727 6.581,9.909 28.381,39.065 70.52,57.024 104.052,68.304 1.735,0.579 3.535,0.867 5.312,0.867 3.556,0 7.068,-1.138 9.995,-3.328 4.379,-3.29 6.863,-8.521 6.645,-13.995 l -1.269,-31.26 29.336,10.857 c 5.128,1.897 10.885,1.16 15.362,-2 4.477,-3.149 7.123,-8.304 7.068,-13.784 -0.357,-35.363 -4.402,-80.971 -32.805,-120.054 -1.984,-2.732 -4.076,-5.415 -6.277,-8.038 3.935,-0.927 7.794,-2.006 11.579,-3.23 45.89,-14.907 75.996,-49.44 97.103,-77.855 3.264,-4.405 4.165,-10.128 2.397,-15.316 z M 255.197,325.216 c -30.604,0 -55.506,-24.902 -55.506,-55.506 0,-30.604 24.902,-55.506 55.506,-55.506 30.604,0 55.506,24.902 55.506,55.506 0,30.604 -24.902,55.506 -55.506,55.506 z"
             id="path8-8-10-0-1"
             style="fill:#ff8566;fill-opacity:1" />
        </g>
      </g>
      <g
         id="g12-2-07-9-0"
         transform="matrix(0.02343752,0,0,0.02343752,54.117007,39.878056)"
         style="display:inline;fill:#ff8566;fill-opacity:1">
        <g
           id="g10-9-7-0-2"
           style="fill:#ff8566;fill-opacity:1">
          <path
             d="m 511.109,220.854 c -1.777,-5.181 -5.984,-9.165 -11.263,-10.651 l -30.105,-8.456 19.384,-24.538 c 3.404,-4.298 4.466,-9.99 2.851,-15.226 -1.615,-5.236 -5.703,-9.339 -10.928,-10.982 -35.862,-11.259 -78.652,-20.739 -124.314,-5.908 -4.185,1.361 -8.337,2.922 -12.457,4.684 0.412,-4.462 0.618,-8.89 0.618,-13.28 0,-47.972 -22.289,-85.736 -44.102,-116.352 -3.176,-4.462 -8.586,-7.171 -13.822,-6.993 -5.475,0.087 -10.559,2.856 -13.595,7.416 L 256.085,46.516 238.783,20.568 c -3.035,-4.558 -8.119,-7.329 -13.595,-7.416 -5.377,-0.179 -10.657,2.531 -13.822,6.993 -21.802,30.598 -44.091,68.358 -44.091,116.352 0,4.347 0.207,8.732 0.607,13.145 -4.131,-1.74 -8.315,-3.285 -12.575,-4.646 -46.27,-14.847 -90.609,-4.558 -124.076,6.071 -5.214,1.653 -9.279,5.762 -10.874,10.987 -1.604,5.231 -0.542,10.911 2.841,15.199 l 19.308,24.463 -30.355,8.51 c -5.291,1.485 -9.507,5.481 -11.274,10.684 -1.756,5.204 -0.846,10.944 2.45,15.34 22.625,30.165 51.875,63.003 97.493,77.936 3.676,1.166 7.404,2.196 11.188,3.089 -2.2,2.618 -4.293,5.285 -6.267,8.006 -28.392,39.082 -32.448,84.696 -32.805,120.064 -0.054,5.481 2.591,10.635 7.068,13.784 4.477,3.161 10.234,3.898 15.362,2 l 29.336,-10.857 -1.258,31.265 c -0.216,5.475 2.266,10.706 6.656,13.991 4.369,3.279 10.093,4.19 15.296,2.461 33.531,-11.286 75.659,-29.244 104.042,-68.309 2.309,-3.182 4.51,-6.489 6.592,-9.903 2.07,3.42 4.272,6.727 6.581,9.909 28.381,39.065 70.52,57.024 104.052,68.304 1.735,0.579 3.535,0.867 5.312,0.867 3.556,0 7.068,-1.138 9.995,-3.328 4.379,-3.29 6.863,-8.521 6.645,-13.995 l -1.269,-31.26 29.336,10.857 c 5.128,1.897 10.885,1.16 15.362,-2 4.477,-3.149 7.123,-8.304 7.068,-13.784 -0.357,-35.363 -4.402,-80.971 -32.805,-120.054 -1.984,-2.732 -4.076,-5.415 -6.277,-8.038 3.935,-0.927 7.794,-2.006 11.579,-3.23 45.89,-14.907 75.996,-49.44 97.103,-77.855 3.264,-4.405 4.165,-10.128 2.397,-15.316 z M 255.197,325.216 c -30.604,0 -55.506,-24.902 -55.506,-55.506 0,-30.604 24.902,-55.506 55.506,-55.506 30.604,0 55.506,24.902 55.506,55.506 0,30.604 -24.902,55.506 -55.506,55.506 z"
             id="path8-8-1-39-6-9"
             style="fill:#ff8566;fill-opacity:1" />
        </g>
      </g>
      <g
         id="g12-2-0-7-94-92"
         transform="matrix(0.02343752,0,0,0.02343752,40.198931,48.996768)"
         style="display:inline;fill:#ff8566;fill-opacity:1">
        <g
           id="g10-9-5-91-98-2"
           style="fill:#ff8566;fill-opacity:1">
          <path
             d="m 511.109,220.854 c -1.777,-5.181 -5.984,-9.165 -11.263,-10.651 l -30.105,-8.456 19.384,-24.538 c 3.404,-4.298 4.466,-9.99 2.851,-15.226 -1.615,-5.236 -5.703,-9.339 -10.928,-10.982 -35.862,-11.259 -78.652,-20.739 -124.314,-5.908 -4.185,1.361 -8.337,2.922 -12.457,4.684 0.412,-4.462 0.618,-8.89 0.618,-13.28 0,-47.972 -22.289,-85.736 -44.102,-116.352 -3.176,-4.462 -8.586,-7.171 -13.822,-6.993 -5.475,0.087 -10.559,2.856 -13.595,7.416 L 256.085,46.516 238.783,20.568 c -3.035,-4.558 -8.119,-7.329 -13.595,-7.416 -5.377,-0.179 -10.657,2.531 -13.822,6.993 -21.802,30.598 -44.091,68.358 -44.091,116.352 0,4.347 0.207,8.732 0.607,13.145 -4.131,-1.74 -8.315,-3.285 -12.575,-4.646 -46.27,-14.847 -90.609,-4.558 -124.076,6.071 -5.214,1.653 -9.279,5.762 -10.874,10.987 -1.604,5.231 -0.542,10.911 2.841,15.199 l 19.308,24.463 -30.355,8.51 c -5.291,1.485 -9.507,5.481 -11.274,10.684 -1.756,5.204 -0.846,10.944 2.45,15.34 22.625,30.165 51.875,63.003 97.493,77.936 3.676,1.166 7.404,2.196 11.188,3.089 -2.2,2.618 -4.293,5.285 -6.267,8.006 -28.392,39.082 -32.448,84.696 -32.805,120.064 -0.054,5.481 2.591,10.635 7.068,13.784 4.477,3.161 10.234,3.898 15.362,2 l 29.336,-10.857 -1.258,31.265 c -0.216,5.475 2.266,10.706 6.656,13.991 4.369,3.279 10.093,4.19 15.296,2.461 33.531,-11.286 75.659,-29.244 104.042,-68.309 2.309,-3.182 4.51,-6.489 6.592,-9.903 2.07,3.42 4.272,6.727 6.581,9.909 28.381,39.065 70.52,57.024 104.052,68.304 1.735,0.579 3.535,0.867 5.312,0.867 3.556,0 7.068,-1.138 9.995,-3.328 4.379,-3.29 6.863,-8.521 6.645,-13.995 l -1.269,-31.26 29.336,10.857 c 5.128,1.897 10.885,1.16 15.362,-2 4.477,-3.149 7.123,-8.304 7.068,-13.784 -0.357,-35.363 -4.402,-80.971 -32.805,-120.054 -1.984,-2.732 -4.076,-5.415 -6.277,-8.038 3.935,-0.927 7.794,-2.006 11.579,-3.23 45.89,-14.907 75.996,-49.44 97.103,-77.855 3.264,-4.405 4.165,-10.128 2.397,-15.316 z M 255.197,325.216 c -30.604,0 -55.506,-24.902 -55.506,-55.506 0,-30.604 24.902,-55.506 55.506,-55.506 30.604,0 55.506,24.902 55.506,55.506 0,30.604 -24.902,55.506 -55.506,55.506 z"
             id="path8-8-1-8-69-5-7"
             style="fill:#ff8566;fill-opacity:1" />
        </g>
      </g>
    </g>
  </g>
</svg>
