<?xml version="1.0" encoding="UTF-8" standalone="no"?>
<!-- Created with Inkscape (http://www.inkscape.org/) -->

<svg
   width="500"
   height="500"
   viewBox="0 0 132.29166 132.29167"
   version="1.1"
   id="svg2515"
   inkscape:version="1.1.2 (b8e25be833, 2022-02-05)"
   sodipodi:docname="bonsai02s06normal.svg"
   inkscape:export-filename="C:\Users\Lenovo\Desktop\Coding\Media files\Bonsais\bonsai02.png"
   inkscape:export-xdpi="96"
   inkscape:export-ydpi="96"
   xmlns:inkscape="http://www.inkscape.org/namespaces/inkscape"
   xmlns:sodipodi="http://sodipodi.sourceforge.net/DTD/sodipodi-0.dtd"
   xmlns="http://www.w3.org/2000/svg"
   xmlns:svg="http://www.w3.org/2000/svg">
  <sodipodi:namedview
     id="namedview2517"
     pagecolor="#ffffff"
     bordercolor="#666666"
     borderopacity="1.0"
     inkscape:pageshadow="2"
     inkscape:pageopacity="0.0"
     inkscape:pagecheckerboard="0"
     inkscape:document-units="mm"
     showgrid="false"
     units="px"
     inkscape:zoom="1.4142136"
     inkscape:cx="202.58609"
     inkscape:cy="239.35564"
     inkscape:window-width="1920"
     inkscape:window-height="1001"
     inkscape:window-x="-9"
     inkscape:window-y="-9"
     inkscape:window-maximized="1"
     inkscape:current-layer="g17992" />
  <defs
     id="defs2512">
    <marker
       style="overflow:visible"
       id="Arrow1Sstart"
       refX="0.0"
       refY="0.0"
       orient="auto"
       inkscape:stockid="Arrow1Sstart"
       inkscape:isstock="true">
      <path
         transform="scale(0.2) translate(6,0)"
         style="fill-rule:evenodd;fill:context-stroke;stroke:context-stroke;stroke-width:1.0pt"
         d="M 0.0,0.0 L 5.0,-5.0 L -12.5,0.0 L 5.0,5.0 L 0.0,0.0 z "
         id="path24092" />
    </marker>
    <marker
       style="overflow:visible"
       id="Arrow1Mstart"
       refX="0.0"
       refY="0.0"
       orient="auto"
       inkscape:stockid="Arrow1Mstart"
       inkscape:isstock="true">
      <path
         transform="scale(0.4) translate(10,0)"
         style="fill-rule:evenodd;fill:context-stroke;stroke:context-stroke;stroke-width:1.0pt"
         d="M 0.0,0.0 L 5.0,-5.0 L -12.5,0.0 L 5.0,5.0 L 0.0,0.0 z "
         id="path24086" />
    </marker>
    <marker
       style="overflow:visible"
       id="Arrow1Lstart"
       refX="0.0"
       refY="0.0"
       orient="auto"
       inkscape:stockid="Arrow1Lstart"
       inkscape:isstock="true">
      <path
         transform="scale(0.8) translate(12.5,0)"
         style="fill-rule:evenodd;fill:context-stroke;stroke:context-stroke;stroke-width:1.0pt"
         d="M 0.0,0.0 L 5.0,-5.0 L -12.5,0.0 L 5.0,5.0 L 0.0,0.0 z "
         id="path24080" />
    </marker>
    <marker
       style="overflow:visible;"
       id="Arrow1Lend"
       refX="0.0"
       refY="0.0"
       orient="auto"
       inkscape:stockid="Arrow1Lend"
       inkscape:isstock="true">
      <path
         transform="scale(0.8) rotate(180) translate(12.5,0)"
         style="fill-rule:evenodd;fill:context-stroke;stroke:context-stroke;stroke-width:1.0pt;"
         d="M 0.0,0.0 L 5.0,-5.0 L -12.5,0.0 L 5.0,5.0 L 0.0,0.0 z "
         id="path24083" />
    </marker>
  </defs>
  <g
     inkscape:label="Full Cascade Style"
     inkscape:groupmode="layer"
     id="g17992"
     style="display:inline">
    <g
       id="g17906"
       transform="translate(124.68868,23.38778)">
      <path
         style="fill:#b64a11;fill-opacity:1;stroke:#b64a11;stroke-width:1;stroke-linecap:round;stroke-linejoin:round;stroke-miterlimit:4;stroke-dasharray:none;stroke-opacity:1"
         d="m -99.500015,30.838997 c 0,0 3.638799,-12.735798 11.176313,-18.453912 7.537513,-5.7181136 12.496916,-8.4784226 23.142885,-10.0872826 10.645968,-1.60885902 11.594881,-2.51410402 19.483052,-1.089031 7.888169,1.425072 21.667403,2.638059 27.063051,17.1643086 6.81601,18.350201 6.7258,20.263344 4.38657,25.721542 -2.33923,5.458201 -12.829945,17.760783 -15.334937,20.793141 -4.938372,5.978028 -5.458199,8.317257 -3.118973,13.255629 0.330604,2.90298 6.162124,16.3246 -1.302394,6.77885 -6.495032,-13.276708 -1.296749,-18.994823 1.822223,-22.893535 3.118972,-3.898715 15.179241,-16.422587 15.075031,-22.61254 -0.10422,-6.189957 -5.4582,-19.233654 -7.277605,-20.013397 -1.819399,-0.779743 -7.017683,-14.5551986 -26.771164,-12.7357996 -19.753485,1.819402 -19.233657,3.3788866 -25.211683,9.6168266 -5.152861,5.376899 -9.876742,12.21597 -7.277599,14.035371 2.599142,1.8194 -15.85477,0.519829 -15.85477,0.519829 z"
         id="path17902"
         sodipodi:nodetypes="cssssssccssssssc" />
      <path
         id="path17904"
         style="display:inline;fill:#9b3d0c;fill-opacity:1;stroke:#9b3d0c;stroke-width:3.77953;stroke-linecap:round;stroke-linejoin:round;stroke-miterlimit:4;stroke-dasharray:none;stroke-opacity:1"
         d="m -198.50781,1.9003906 c -11.86585,0.2218352 -22.69775,2.9847019 -47.84571,6.7851563 -40.23673,6.0807311 -58.98051,16.5132281 -87.46875,38.1250001 -28.48824,21.611769 -42.24023,69.746093 -42.24023,69.746093 0,0 4.05066,0.25117 7.5293,0.46289 4.26508,-12.64023 17.66416,-47.519947 40.73437,-65.021483 28.48824,-21.611765 47.23397,-32.044269 87.47071,-38.125 40.23672,-6.0807282 43.82315,-9.5013383 73.63671,-4.1152345 20.11821,3.6345445 50.36393,6.9268215 74.181644,25.5390625 C -117.04264,12.062664 -150.85821,8.5173186 -172.7168,4.5683594 -183.89688,2.5485708 -191.3883,1.7672895 -198.50781,1.9003906 Z m 85.4707,47.4980474 c 12.08952,11.359811 17.783837,22.610761 20.875001,23.935546 6.876491,2.947061 27.111957,52.245516 27.505859,75.640626 0.393865,23.3951 -45.18832,70.72954 -56.97656,85.46484 -11.78824,14.73529 -31.43683,36.34766 -6.88867,86.52735 6.32744,8.09164 10.12193,11.80717 12.19531,12.59375 -1.72535,-1.89721 -3.75185,-4.31148 -6.17188,-7.40625 -24.54815,-50.17969 -4.89957,-71.79206 6.88867,-86.52735 11.78825,-14.7353 57.370432,-62.06974 56.976568,-85.46484 C -59.026715,130.767 -79.262181,81.468545 -86.138672,78.521484 -89.703333,76.993771 -96.724636,62.271435 -113.03711,49.398438 Z"
         transform="scale(0.26458333)" />
    </g>
    <path
       d="m 2.6851187,57.651331 v 4.9283 c 0,3.54189 2.873022,6.41351 6.415264,6.41351 H 59.781143 c 3.542594,0 6.415264,-2.87162 6.415264,-6.41351 v -4.9283 H 2.6851187"
       style="fill:#f68213;fill-opacity:1;fill-rule:nonzero;stroke:none;stroke-width:0.0352778"
       id="path17908" />
    <path
       d="M 2.6851187,51.590601 H 66.196407 v 6.06073 H 2.6851187 v -6.06073"
       style="fill:#ef8927;fill-opacity:1;fill-rule:nonzero;stroke:none;stroke-width:0.0352778"
       id="path17910" />
    <path
       d="m 11.126033,68.993141 h 46.62699 v 5.44692 h -46.62699 v -5.44692"
       style="fill:#e17825;fill-opacity:1;fill-rule:nonzero;stroke:none;stroke-width:0.0352778"
       id="path17912" />
    <path
       d="m 7.6257717,62.579631 v -4.9283 h -4.940653 v 4.9283 c 0,3.54189 2.873022,6.41351 6.415264,6.41351 h 4.9406523 c -3.542241,0 -6.4152633,-2.87162 -6.4152633,-6.41351"
       style="fill:#d2651c;fill-opacity:1;fill-rule:nonzero;stroke:none;stroke-width:0.0352778"
       id="path17914" />
    <path
       d="m 2.6851187,51.590601 h 4.940653 v 6.06073 h -4.940653 v -6.06073"
       style="fill:#cd6c1c;fill-opacity:1;fill-rule:nonzero;stroke:none;stroke-width:0.0352778"
       id="path17916" />
    <path
       d="m 11.126033,68.993141 h 4.940652 v 5.44692 h -4.940652 v -5.44692"
       style="fill:#bd5b1e;fill-opacity:1;fill-rule:nonzero;stroke:none;stroke-width:0.0352778"
       id="path17918" />
    <g
       id="g41434-1-2-0-78-2-2"
       transform="matrix(1.221846,0,0,1.221846,-12.367918,-21.356477)"
       style="display:inline">
      <ellipse
         class="cls-1"
         cx="61.260708"
         cy="25.501854"
         rx="10"
         ry="6.4311991"
         id="ellipse41422-8-6-48-7-6-3"
         style="display:inline;fill:#00b050;fill-opacity:1;stroke-width:0.735836" />
      <path
         id="path41424-5-1-0-0-8-8"
         style="display:inline;fill:#0c8242;fill-opacity:1;stroke-width:0.735837"
         class="cls-1"
         d="m 61.26058,19.070655 a 10,6.4311992 0 0 0 -9.99987,6.431042 10,6.4311992 0 0 0 9.99987,6.431462 10,6.4311992 0 0 0 8.027523,-2.59677 8.8747265,5.7075134 0 0 1 -6.605473,1.898596 8.8747265,5.7075134 0 0 1 -8.87444,-5.707586 8.8747265,5.7075134 0 0 1 8.87444,-5.707586 8.8747265,5.7075134 0 0 1 6.909683,2.126124 10,6.4311992 0 0 0 -8.331733,-2.875282 z" />
      <ellipse
         class="cls-1"
         cx="73.139175"
         cy="34.505405"
         rx="9.9996233"
         ry="6.4311991"
         id="ellipse41426-9-7-58-5-6-12"
         style="display:inline;fill:#00b050;fill-opacity:1;stroke-width:0.735836" />
      <path
         id="path41428-6-9-0-9-5-0"
         style="display:inline;fill:#0b8241;fill-opacity:1;stroke-width:0.735837"
         class="cls-1"
         d="m 73.139046,28.074209 a 10,6.4311992 0 0 0 -9.99987,6.431042 10,6.4311992 0 0 0 9.99987,6.431462 10,6.4311992 0 0 0 8.027523,-2.59677 8.8747265,5.7075134 0 0 1 -6.605473,1.898596 8.8747265,5.7075134 0 0 1 -8.87444,-5.707586 8.8747265,5.7075134 0 0 1 8.87444,-5.707586 8.8747265,5.7075134 0 0 1 6.909683,2.126124 10,6.4311992 0 0 0 -8.331733,-2.875282 z" />
      <ellipse
         class="cls-1"
         cx="49.762188"
         cy="34.655258"
         rx="10"
         ry="6.4311991"
         id="ellipse41430-3-6-6-4-9-31"
         style="display:inline;fill:#00b050;fill-opacity:1;stroke-width:0.735836" />
      <path
         id="path41432-6-93-7-7-7-7"
         style="display:inline;fill:#0c8242;fill-opacity:1;stroke-width:0.735837"
         class="cls-1"
         d="m 49.762057,28.224061 a 10,6.4311992 0 0 0 -9.99987,6.431042 10,6.4311992 0 0 0 9.99987,6.431462 10,6.4311992 0 0 0 8.027523,-2.59677 8.8747265,5.7075134 0 0 1 -6.605473,1.898596 8.8747265,5.7075134 0 0 1 -8.87444,-5.707586 8.8747265,5.7075134 0 0 1 8.87444,-5.707586 8.8747265,5.7075134 0 0 1 6.909683,2.126124 10,6.4311992 0 0 0 -8.331733,-2.875282 z" />
    </g>
    <g
       id="g41434-1-2-0-78-2-17"
       transform="matrix(1.221846,0,0,1.221846,29.282053,0.54085068)"
       style="display:inline">
      <ellipse
         class="cls-1"
         cx="61.260708"
         cy="25.501854"
         rx="10"
         ry="6.4311991"
         id="ellipse41422-8-6-48-7-6-0"
         style="display:inline;fill:#00b050;fill-opacity:1;stroke-width:0.735836" />
      <path
         id="path41424-5-1-0-0-8-9"
         style="display:inline;fill:#0c8242;fill-opacity:1;stroke-width:0.735837"
         class="cls-1"
         d="m 61.26058,19.070655 a 10,6.4311992 0 0 0 -9.99987,6.431042 10,6.4311992 0 0 0 9.99987,6.431462 10,6.4311992 0 0 0 8.027523,-2.59677 8.8747265,5.7075134 0 0 1 -6.605473,1.898596 8.8747265,5.7075134 0 0 1 -8.87444,-5.707586 8.8747265,5.7075134 0 0 1 8.87444,-5.707586 8.8747265,5.7075134 0 0 1 6.909683,2.126124 10,6.4311992 0 0 0 -8.331733,-2.875282 z" />
      <ellipse
         class="cls-1"
         cx="73.139175"
         cy="34.505405"
         rx="9.9996233"
         ry="6.4311991"
         id="ellipse41426-9-7-58-5-6-4"
         style="display:inline;fill:#00b050;fill-opacity:1;stroke-width:0.735836" />
      <path
         id="path41428-6-9-0-9-5-1"
         style="display:inline;fill:#0b8241;fill-opacity:1;stroke-width:0.735837"
         class="cls-1"
         d="m 73.139046,28.074209 a 10,6.4311992 0 0 0 -9.99987,6.431042 10,6.4311992 0 0 0 9.99987,6.431462 10,6.4311992 0 0 0 8.027523,-2.59677 8.8747265,5.7075134 0 0 1 -6.605473,1.898596 8.8747265,5.7075134 0 0 1 -8.87444,-5.707586 8.8747265,5.7075134 0 0 1 8.87444,-5.707586 8.8747265,5.7075134 0 0 1 6.909683,2.126124 10,6.4311992 0 0 0 -8.331733,-2.875282 z" />
      <ellipse
         class="cls-1"
         cx="49.762188"
         cy="34.655258"
         rx="10"
         ry="6.4311991"
         id="ellipse41430-3-6-6-4-9-4"
         style="display:inline;fill:#00b050;fill-opacity:1;stroke-width:0.735836" />
      <path
         id="path41432-6-93-7-7-7-9"
         style="display:inline;fill:#0c8242;fill-opacity:1;stroke-width:0.735837"
         class="cls-1"
         d="m 49.762057,28.224061 a 10,6.4311992 0 0 0 -9.99987,6.431042 10,6.4311992 0 0 0 9.99987,6.431462 10,6.4311992 0 0 0 8.027523,-2.59677 8.8747265,5.7075134 0 0 1 -6.605473,1.898596 8.8747265,5.7075134 0 0 1 -8.87444,-5.707586 8.8747265,5.7075134 0 0 1 8.87444,-5.707586 8.8747265,5.7075134 0 0 1 6.909683,2.126124 10,6.4311992 0 0 0 -8.331733,-2.875282 z" />
    </g>
    <g
       id="g41434-1-2-0-78-2-17-5"
       transform="matrix(1.0374254,0,0,1.0374254,25.981367,31.706364)"
       style="display:inline">
      <ellipse
         class="cls-1"
         cx="61.260708"
         cy="25.501854"
         rx="10"
         ry="6.4311991"
         id="ellipse41422-8-6-48-7-6-0-1"
         style="display:inline;fill:#00b050;fill-opacity:1;stroke-width:0.735836" />
      <path
         id="path41424-5-1-0-0-8-9-1"
         style="display:inline;fill:#0c8242;fill-opacity:1;stroke-width:0.735837"
         class="cls-1"
         d="m 61.26058,19.070655 a 10,6.4311992 0 0 0 -9.99987,6.431042 10,6.4311992 0 0 0 9.99987,6.431462 10,6.4311992 0 0 0 8.027523,-2.59677 8.8747265,5.7075134 0 0 1 -6.605473,1.898596 8.8747265,5.7075134 0 0 1 -8.87444,-5.707586 8.8747265,5.7075134 0 0 1 8.87444,-5.707586 8.8747265,5.7075134 0 0 1 6.909683,2.126124 10,6.4311992 0 0 0 -8.331733,-2.875282 z" />
      <ellipse
         class="cls-1"
         cx="73.139175"
         cy="34.505405"
         rx="9.9996233"
         ry="6.4311991"
         id="ellipse41426-9-7-58-5-6-4-0"
         style="display:inline;fill:#00b050;fill-opacity:1;stroke-width:0.735836" />
      <path
         id="path41428-6-9-0-9-5-1-4"
         style="display:inline;fill:#0b8241;fill-opacity:1;stroke-width:0.735837"
         class="cls-1"
         d="m 73.139046,28.074209 a 10,6.4311992 0 0 0 -9.99987,6.431042 10,6.4311992 0 0 0 9.99987,6.431462 10,6.4311992 0 0 0 8.027523,-2.59677 8.8747265,5.7075134 0 0 1 -6.605473,1.898596 8.8747265,5.7075134 0 0 1 -8.87444,-5.707586 8.8747265,5.7075134 0 0 1 8.87444,-5.707586 8.8747265,5.7075134 0 0 1 6.909683,2.126124 10,6.4311992 0 0 0 -8.331733,-2.875282 z" />
      <ellipse
         class="cls-1"
         cx="49.762188"
         cy="34.655258"
         rx="10"
         ry="6.4311991"
         id="ellipse41430-3-6-6-4-9-4-5"
         style="display:inline;fill:#00b050;fill-opacity:1;stroke-width:0.735836" />
      <path
         id="path41432-6-93-7-7-7-9-0"
         style="display:inline;fill:#0c8242;fill-opacity:1;stroke-width:0.735837"
         class="cls-1"
         d="m 49.762057,28.224061 a 10,6.4311992 0 0 0 -9.99987,6.431042 10,6.4311992 0 0 0 9.99987,6.431462 10,6.4311992 0 0 0 8.027523,-2.59677 8.8747265,5.7075134 0 0 1 -6.605473,1.898596 8.8747265,5.7075134 0 0 1 -8.87444,-5.707586 8.8747265,5.7075134 0 0 1 8.87444,-5.707586 8.8747265,5.7075134 0 0 1 6.909683,2.126124 10,6.4311992 0 0 0 -8.331733,-2.875282 z" />
    </g>
    <g
       id="g41434-1-2-0-78-2-17-7"
       transform="matrix(1.0374254,0,0,1.0374254,43.112993,58.184724)"
       style="display:inline">
      <ellipse
         class="cls-1"
         cx="61.260708"
         cy="25.501854"
         rx="10"
         ry="6.4311991"
         id="ellipse41422-8-6-48-7-6-0-8"
         style="display:inline;fill:#00b050;fill-opacity:1;stroke-width:0.735836" />
      <path
         id="path41424-5-1-0-0-8-9-3"
         style="display:inline;fill:#0c8242;fill-opacity:1;stroke-width:0.735837"
         class="cls-1"
         d="m 61.26058,19.070655 a 10,6.4311992 0 0 0 -9.99987,6.431042 10,6.4311992 0 0 0 9.99987,6.431462 10,6.4311992 0 0 0 8.027523,-2.59677 8.8747265,5.7075134 0 0 1 -6.605473,1.898596 8.8747265,5.7075134 0 0 1 -8.87444,-5.707586 8.8747265,5.7075134 0 0 1 8.87444,-5.707586 8.8747265,5.7075134 0 0 1 6.909683,2.126124 10,6.4311992 0 0 0 -8.331733,-2.875282 z" />
      <ellipse
         class="cls-1"
         cx="73.139175"
         cy="34.505405"
         rx="9.9996233"
         ry="6.4311991"
         id="ellipse41426-9-7-58-5-6-4-9"
         style="display:inline;fill:#00b050;fill-opacity:1;stroke-width:0.735836" />
      <path
         id="path41428-6-9-0-9-5-1-2"
         style="display:inline;fill:#0b8241;fill-opacity:1;stroke-width:0.735837"
         class="cls-1"
         d="m 73.139046,28.074209 a 10,6.4311992 0 0 0 -9.99987,6.431042 10,6.4311992 0 0 0 9.99987,6.431462 10,6.4311992 0 0 0 8.027523,-2.59677 8.8747265,5.7075134 0 0 1 -6.605473,1.898596 8.8747265,5.7075134 0 0 1 -8.87444,-5.707586 8.8747265,5.7075134 0 0 1 8.87444,-5.707586 8.8747265,5.7075134 0 0 1 6.909683,2.126124 10,6.4311992 0 0 0 -8.331733,-2.875282 z" />
      <ellipse
         class="cls-1"
         cx="49.762188"
         cy="34.655258"
         rx="10"
         ry="6.4311991"
         id="ellipse41430-3-6-6-4-9-4-4"
         style="display:inline;fill:#00b050;fill-opacity:1;stroke-width:0.735836" />
      <path
         id="path41432-6-93-7-7-7-9-5"
         style="display:inline;fill:#0c8242;fill-opacity:1;stroke-width:0.735837"
         class="cls-1"
         d="m 49.762057,28.224061 a 10,6.4311992 0 0 0 -9.99987,6.431042 10,6.4311992 0 0 0 9.99987,6.431462 10,6.4311992 0 0 0 8.027523,-2.59677 8.8747265,5.7075134 0 0 1 -6.605473,1.898596 8.8747265,5.7075134 0 0 1 -8.87444,-5.707586 8.8747265,5.7075134 0 0 1 8.87444,-5.707586 8.8747265,5.7075134 0 0 1 6.909683,2.126124 10,6.4311992 0 0 0 -8.331733,-2.875282 z" />
    </g>
    <g
       id="g41434-1-2-0-78-2-17-8"
       transform="matrix(0.92215594,0,0,0.92215594,36.675904,87.340809)"
       style="display:inline">
      <ellipse
         class="cls-1"
         cx="61.260708"
         cy="25.501854"
         rx="10"
         ry="6.4311991"
         id="ellipse41422-8-6-48-7-6-0-2"
         style="display:inline;fill:#00b050;fill-opacity:1;stroke-width:0.735836" />
      <path
         id="path41424-5-1-0-0-8-9-35"
         style="display:inline;fill:#0c8242;fill-opacity:1;stroke-width:0.735837"
         class="cls-1"
         d="m 61.26058,19.070655 a 10,6.4311992 0 0 0 -9.99987,6.431042 10,6.4311992 0 0 0 9.99987,6.431462 10,6.4311992 0 0 0 8.027523,-2.59677 8.8747265,5.7075134 0 0 1 -6.605473,1.898596 8.8747265,5.7075134 0 0 1 -8.87444,-5.707586 8.8747265,5.7075134 0 0 1 8.87444,-5.707586 8.8747265,5.7075134 0 0 1 6.909683,2.126124 10,6.4311992 0 0 0 -8.331733,-2.875282 z" />
      <ellipse
         class="cls-1"
         cx="73.139175"
         cy="34.505405"
         rx="9.9996233"
         ry="6.4311991"
         id="ellipse41426-9-7-58-5-6-4-3"
         style="display:inline;fill:#00b050;fill-opacity:1;stroke-width:0.735836" />
      <path
         id="path41428-6-9-0-9-5-1-42"
         style="display:inline;fill:#0b8241;fill-opacity:1;stroke-width:0.735837"
         class="cls-1"
         d="m 73.139046,28.074209 a 10,6.4311992 0 0 0 -9.99987,6.431042 10,6.4311992 0 0 0 9.99987,6.431462 10,6.4311992 0 0 0 8.027523,-2.59677 8.8747265,5.7075134 0 0 1 -6.605473,1.898596 8.8747265,5.7075134 0 0 1 -8.87444,-5.707586 8.8747265,5.7075134 0 0 1 8.87444,-5.707586 8.8747265,5.7075134 0 0 1 6.909683,2.126124 10,6.4311992 0 0 0 -8.331733,-2.875282 z" />
      <ellipse
         class="cls-1"
         cx="49.762188"
         cy="34.655258"
         rx="10"
         ry="6.4311991"
         id="ellipse41430-3-6-6-4-9-4-7"
         style="display:inline;fill:#00b050;fill-opacity:1;stroke-width:0.735836" />
      <path
         id="path41432-6-93-7-7-7-9-03"
         style="display:inline;fill:#0c8242;fill-opacity:1;stroke-width:0.735837"
         class="cls-1"
         d="m 49.762057,28.224061 a 10,6.4311992 0 0 0 -9.99987,6.431042 10,6.4311992 0 0 0 9.99987,6.431462 10,6.4311992 0 0 0 8.027523,-2.59677 8.8747265,5.7075134 0 0 1 -6.605473,1.898596 8.8747265,5.7075134 0 0 1 -8.87444,-5.707586 8.8747265,5.7075134 0 0 1 8.87444,-5.707586 8.8747265,5.7075134 0 0 1 6.909683,2.126124 10,6.4311992 0 0 0 -8.331733,-2.875282 z" />
    </g>
  </g>
</svg>
