<?xml version="1.0" encoding="UTF-8" standalone="no"?>
<!-- Created with Inkscape (http://www.inkscape.org/) -->

<svg
   width="500"
   height="500"
   viewBox="0 0 132.29166 132.29167"
   version="1.1"
   id="svg2515"
   inkscape:version="1.1.2 (b8e25be833, 2022-02-05)"
   sodipodi:docname="bonsai12s06normal.svg"
   inkscape:export-filename="C:\Users\Lenovo\Desktop\Coding\Media files\Bonsais\bonsai12.png"
   inkscape:export-xdpi="96"
   inkscape:export-ydpi="96"
   xmlns:inkscape="http://www.inkscape.org/namespaces/inkscape"
   xmlns:sodipodi="http://sodipodi.sourceforge.net/DTD/sodipodi-0.dtd"
   xmlns="http://www.w3.org/2000/svg"
   xmlns:svg="http://www.w3.org/2000/svg">
  <sodipodi:namedview
     id="namedview2517"
     pagecolor="#ffffff"
     bordercolor="#666666"
     borderopacity="1.0"
     inkscape:pageshadow="2"
     inkscape:pageopacity="0.0"
     inkscape:pagecheckerboard="0"
     inkscape:document-units="mm"
     showgrid="false"
     units="px"
     inkscape:zoom="1.4142136"
     inkscape:cx="278.24651"
     inkscape:cy="258.44752"
     inkscape:window-width="1920"
     inkscape:window-height="1001"
     inkscape:window-x="-9"
     inkscape:window-y="-9"
     inkscape:window-maximized="1"
     inkscape:current-layer="g17992" />
  <defs
     id="defs2512">
    <marker
       style="overflow:visible"
       id="Arrow1Sstart"
       refX="0.0"
       refY="0.0"
       orient="auto"
       inkscape:stockid="Arrow1Sstart"
       inkscape:isstock="true">
      <path
         transform="scale(0.2) translate(6,0)"
         style="fill-rule:evenodd;fill:context-stroke;stroke:context-stroke;stroke-width:1.0pt"
         d="M 0.0,0.0 L 5.0,-5.0 L -12.5,0.0 L 5.0,5.0 L 0.0,0.0 z "
         id="path24092" />
    </marker>
    <marker
       style="overflow:visible"
       id="Arrow1Mstart"
       refX="0.0"
       refY="0.0"
       orient="auto"
       inkscape:stockid="Arrow1Mstart"
       inkscape:isstock="true">
      <path
         transform="scale(0.4) translate(10,0)"
         style="fill-rule:evenodd;fill:context-stroke;stroke:context-stroke;stroke-width:1.0pt"
         d="M 0.0,0.0 L 5.0,-5.0 L -12.5,0.0 L 5.0,5.0 L 0.0,0.0 z "
         id="path24086" />
    </marker>
    <marker
       style="overflow:visible"
       id="Arrow1Lstart"
       refX="0.0"
       refY="0.0"
       orient="auto"
       inkscape:stockid="Arrow1Lstart"
       inkscape:isstock="true">
      <path
         transform="scale(0.8) translate(12.5,0)"
         style="fill-rule:evenodd;fill:context-stroke;stroke:context-stroke;stroke-width:1.0pt"
         d="M 0.0,0.0 L 5.0,-5.0 L -12.5,0.0 L 5.0,5.0 L 0.0,0.0 z "
         id="path24080" />
    </marker>
    <marker
       style="overflow:visible;"
       id="Arrow1Lend"
       refX="0.0"
       refY="0.0"
       orient="auto"
       inkscape:stockid="Arrow1Lend"
       inkscape:isstock="true">
      <path
         transform="scale(0.8) rotate(180) translate(12.5,0)"
         style="fill-rule:evenodd;fill:context-stroke;stroke:context-stroke;stroke-width:1.0pt;"
         d="M 0.0,0.0 L 5.0,-5.0 L -12.5,0.0 L 5.0,5.0 L 0.0,0.0 z "
         id="path24083" />
    </marker>
  </defs>
  <g
     inkscape:label="Full Cascade Style"
     inkscape:groupmode="layer"
     id="g17992"
     style="display:inline">
    <g
       id="g17906"
       transform="translate(124.68868,25.504448)">
      <path
         style="fill:#e0af9a;fill-opacity:1;stroke:#e0af9a;stroke-width:1;stroke-linecap:round;stroke-linejoin:round;stroke-miterlimit:4;stroke-dasharray:none;stroke-opacity:1"
         d="m -99.500015,30.838997 c 0,0 3.638799,-12.735798 11.176313,-18.453912 7.537513,-5.7181136 12.496916,-8.4784226 23.142885,-10.0872826 10.645968,-1.60885902 11.594881,-2.51410402 19.483052,-1.089031 7.888169,1.425072 21.667403,2.638059 27.063051,17.1643086 6.81601,18.350201 6.7258,20.263344 4.38657,25.721542 -2.33923,5.458201 -12.829945,17.760783 -15.334937,20.793141 -4.938372,5.978028 -5.458199,8.317257 -3.118973,13.255629 0.330604,2.90298 6.162124,16.3246 -1.302394,6.77885 -6.495032,-13.276708 -1.296749,-18.994823 1.822223,-22.893535 3.118972,-3.898715 15.179241,-16.422587 15.075031,-22.61254 -0.10422,-6.189957 -5.4582,-19.233654 -7.277605,-20.013397 -1.819399,-0.779743 -7.017683,-14.5551986 -26.771164,-12.7357996 -19.753485,1.819402 -19.233657,3.3788866 -25.211683,9.6168266 -5.152861,5.376899 -9.876742,12.21597 -7.277599,14.035371 2.599142,1.8194 -15.85477,0.519829 -15.85477,0.519829 z"
         id="path17902"
         sodipodi:nodetypes="cssssssccssssssc" />
      <path
         id="path17904"
         style="display:inline;fill:#a6705c;fill-opacity:1;stroke:#a6705c;stroke-width:3.77953;stroke-linecap:round;stroke-linejoin:round;stroke-miterlimit:4;stroke-dasharray:none;stroke-opacity:1"
         d="m -198.50781,1.9003906 c -11.86585,0.2218352 -22.69775,2.9847019 -47.84571,6.7851563 -40.23673,6.0807311 -58.98051,16.5132281 -87.46875,38.1250001 -28.48824,21.611769 -42.24023,69.746093 -42.24023,69.746093 0,0 4.05066,0.25117 7.5293,0.46289 4.26508,-12.64023 17.66416,-47.519947 40.73437,-65.021483 28.48824,-21.611765 47.23397,-32.044269 87.47071,-38.125 40.23672,-6.0807282 43.82315,-9.5013383 73.63671,-4.1152345 20.11821,3.6345445 50.36393,6.9268215 74.181644,25.5390625 C -117.04264,12.062664 -150.85821,8.5173186 -172.7168,4.5683594 -183.89688,2.5485708 -191.3883,1.7672895 -198.50781,1.9003906 Z m 85.4707,47.4980474 c 12.08952,11.359811 17.783837,22.610761 20.875001,23.935546 6.876491,2.947061 27.111957,52.245516 27.505859,75.640626 0.393865,23.3951 -45.18832,70.72954 -56.97656,85.46484 -11.78824,14.73529 -31.43683,36.34766 -6.88867,86.52735 6.32744,8.09164 10.12193,11.80717 12.19531,12.59375 -1.72535,-1.89721 -3.75185,-4.31148 -6.17188,-7.40625 -24.54815,-50.17969 -4.89957,-71.79206 6.88867,-86.52735 11.78825,-14.7353 57.370432,-62.06974 56.976568,-85.46484 C -59.026715,130.767 -79.262181,81.468545 -86.138672,78.521484 -89.703333,76.993771 -96.724636,62.271435 -113.03711,49.398438 Z"
         transform="scale(0.26458333)" />
    </g>
    <g
       id="g54773-4-0"
       transform="matrix(0.85856851,0,0,1.0007543,-63.944429,10.460665)"
       style="display:inline">
      <path
         d="m 145.34527,60.22495 v 5.820833 h -16.14664 l -4.79425,-5.820833 h 20.94089"
         style="fill:#bdb864;fill-opacity:1;fill-rule:nonzero;stroke:none;stroke-width:0.0352778"
         id="path594-9-4" />
      <path
         d="m 104.96986,60.22495 -4.79425,5.820833 H 84.134802 V 60.22495 h 20.835058"
         style="fill:#bdb764;fill-opacity:1;fill-rule:nonzero;stroke:none;stroke-width:0.0352778"
         id="path600-2-58" />
      <path
         d="m 84.134802,60.22495 h 4.938888 v 5.820833 H 84.134802 V 60.22495"
         style="fill:#a19d53;fill-opacity:1;fill-rule:nonzero;stroke:none;stroke-width:0.0352778"
         id="path622-2-22" />
      <path
         d="m 77.791857,43.214006 c 0,6.057194 2.204861,12.463639 6.198306,17.010944 h 61.393917 c 1.99672,-2.271889 3.54541,-5.012972 4.59316,-7.9375 1.05128,-2.928055 1.60162,-6.043083 1.60162,-9.073444 H 77.791857"
         style="fill:#cfca71;fill-opacity:1;fill-rule:nonzero;stroke:none;stroke-width:0.0352778"
         id="path624-9-5" />
      <path
         d="m 77.791857,43.214006 c 0,6.057194 2.204861,12.463639 6.198306,17.010944 h 4.942416 C 84.935607,55.677645 82.734274,49.2712 82.734274,43.214006 h -4.942417 v 0"
         style="fill:#bbb351;fill-opacity:1;fill-rule:nonzero;stroke:none;stroke-width:0.0352778"
         id="path626-3-59" />
    </g>
    <g
       id="g52262-6-1-7-4-3-0"
       transform="matrix(0.98398321,0,0,0.98398321,-80.485347,-11.289301)"
       style="display:inline">
      <g
         id="g52161-24-5-3-1-9-7"
         transform="translate(2.80633,13.657473)">
        <circle
           cx="128.43347"
           cy="19.267973"
           r="3.3333101"
           id="circle4-75-9-3-4-66-5"
           style="fill:#cccc00;fill-opacity:1;stroke-width:0.0520829" />
        <path
           d="m 140.66464,18.36173 c -1.37811,-2.131235 -3.16612,-3.941639 -5.17027,-5.235901 -2.21718,-1.433324 -4.66508,-2.191131 -7.0786,-2.191131 -2.21457,0 -4.39216,0.632808 -6.47235,1.880716 -2.12134,1.272387 -4.0432,3.131229 -5.71246,5.524441 a 1.6624884,1.6624884 0 0 0 -0.0333,1.851029 c 1.37551,2.152589 3.14581,3.965597 5.11871,5.24215 2.22134,1.439053 4.61195,2.168214 7.09943,2.168214 2.4328,0 4.8859,-0.751556 7.0937,-2.1729 2.00311,-1.290096 3.78748,-3.107271 5.16038,-5.256214 a 1.6770716,1.6770716 0 0 0 -0.005,-1.810404 z m -12.23116,5.906209 a 4.9999651,4.9999651 0 1 1 4.99996,-4.999965 5.0056942,5.0056942 0 0 1 -4.99996,4.999965 z"
           id="path6-3-9-51-0-4-3"
           style="fill:#cccc00;fill-opacity:1;stroke-width:0.0520829" />
        <path
           id="circle4-7-83-5-7-6-52-8"
           style="display:inline;fill:#929208;fill-opacity:1;stroke-width:0.052083"
           d="m 128.43364,15.935 a 3.33331,3.33331 0 0 0 -3.33364,3.333128 3.33331,3.33331 0 0 0 3.33364,3.333131 3.33331,3.33331 0 0 0 1.32292,-0.276469 3.33331,3.33331 0 0 1 -2.01022,-3.056662 3.33331,3.33331 0 0 1 2.0128,-3.058726 3.33331,3.33331 0 0 0 -1.3255,-0.274402 z" />
        <path
           id="path6-9-8-9-5-6-4-1"
           style="display:inline;fill:#929208;fill-opacity:1;stroke-width:0.052083"
           d="m 128.4161,10.935 c -2.21457,0 -4.39176,0.633113 -6.47195,1.881021 -2.12134,1.272389 -4.04357,3.130999 -5.71283,5.524211 a 1.6624884,1.6624884 0 0 0 -0.0331,1.851049 c 1.37551,2.152589 3.14566,3.965506 5.11856,5.242057 2.22134,1.439056 4.61234,2.168345 7.09982,2.168345 0.4346,0 0.86941,-0.02433 1.3038,-0.07183 -2.00611,-0.215829 -3.9384,-0.918187 -5.75727,-2.096514 -1.9729,-1.276551 -3.74356,-3.089468 -5.11907,-5.242057 a 1.6624884,1.6624884 0 0 1 0.0336,-1.851049 c 1.66926,-2.393212 3.59097,-4.251822 5.71231,-5.524211 1.66601,-0.999435 3.39481,-1.60328 5.15472,-1.804541 -0.44288,-0.05037 -0.88638,-0.07648 -1.3286,-0.07648 z m 2.10427,3.365169 a 4.9999651,4.9999651 0 0 0 -0.70745,0.203605 4.9999651,4.9999651 0 0 1 3.62097,4.764566 5.0056941,5.0056941 0 0 1 -3.59565,4.789374 4.9999651,4.9999651 0 0 0 1.24178,0.210839 5.0056941,5.0056941 0 0 0 5.00022,-5.000213 4.9999651,4.9999651 0 0 0 -5.55987,-4.968171 z" />
      </g>
      <g
         id="g52161-2-5-7-7-1-9-4"
         transform="translate(17.432111,2.9961017)"
         style="display:inline">
        <circle
           cx="128.43347"
           cy="19.267973"
           r="3.3333101"
           id="circle4-9-3-2-3-4-86-6"
           style="fill:#cccc00;fill-opacity:1;stroke-width:0.0520829" />
        <path
           d="m 140.66464,18.36173 c -1.37811,-2.131235 -3.16612,-3.941639 -5.17027,-5.235901 -2.21718,-1.433324 -4.66508,-2.191131 -7.0786,-2.191131 -2.21457,0 -4.39216,0.632808 -6.47235,1.880716 -2.12134,1.272387 -4.0432,3.131229 -5.71246,5.524441 a 1.6624884,1.6624884 0 0 0 -0.0333,1.851029 c 1.37551,2.152589 3.14581,3.965597 5.11871,5.24215 2.22134,1.439053 4.61195,2.168214 7.09943,2.168214 2.4328,0 4.8859,-0.751556 7.0937,-2.1729 2.00311,-1.290096 3.78748,-3.107271 5.16038,-5.256214 a 1.6770716,1.6770716 0 0 0 -0.005,-1.810404 z m -12.23116,5.906209 a 4.9999651,4.9999651 0 1 1 4.99996,-4.999965 5.0056942,5.0056942 0 0 1 -4.99996,4.999965 z"
           id="path6-5-5-4-0-05-4-6"
           style="fill:#cccc00;fill-opacity:1;stroke-width:0.0520829" />
        <path
           id="circle4-7-8-8-4-6-4-4-9"
           style="display:inline;fill:#929208;fill-opacity:1;stroke-width:0.052083"
           d="m 128.43364,15.935 a 3.33331,3.33331 0 0 0 -3.33364,3.333128 3.33331,3.33331 0 0 0 3.33364,3.333131 3.33331,3.33331 0 0 0 1.32292,-0.276469 3.33331,3.33331 0 0 1 -2.01022,-3.056662 3.33331,3.33331 0 0 1 2.0128,-3.058726 3.33331,3.33331 0 0 0 -1.3255,-0.274402 z" />
        <path
           id="path6-9-2-7-5-5-8-8-6"
           style="display:inline;fill:#929208;fill-opacity:1;stroke-width:0.052083"
           d="m 128.4161,10.935 c -2.21457,0 -4.39176,0.633113 -6.47195,1.881021 -2.12134,1.272389 -4.04357,3.130999 -5.71283,5.524211 a 1.6624884,1.6624884 0 0 0 -0.0331,1.851049 c 1.37551,2.152589 3.14566,3.965506 5.11856,5.242057 2.22134,1.439056 4.61234,2.168345 7.09982,2.168345 0.4346,0 0.86941,-0.02433 1.3038,-0.07183 -2.00611,-0.215829 -3.9384,-0.918187 -5.75727,-2.096514 -1.9729,-1.276551 -3.74356,-3.089468 -5.11907,-5.242057 a 1.6624884,1.6624884 0 0 1 0.0336,-1.851049 c 1.66926,-2.393212 3.59097,-4.251822 5.71231,-5.524211 1.66601,-0.999435 3.39481,-1.60328 5.15472,-1.804541 -0.44288,-0.05037 -0.88638,-0.07648 -1.3286,-0.07648 z m 2.10427,3.365169 a 4.9999651,4.9999651 0 0 0 -0.70745,0.203605 4.9999651,4.9999651 0 0 1 3.62097,4.764566 5.0056941,5.0056941 0 0 1 -3.59565,4.789374 4.9999651,4.9999651 0 0 0 1.24178,0.210839 5.0056941,5.0056941 0 0 0 5.00022,-5.000213 4.9999651,4.9999651 0 0 0 -5.55987,-4.968171 z" />
      </g>
      <g
         id="g52161-2-2-9-5-7-3-7-7"
         transform="translate(31.668923,13.657602)"
         style="display:inline">
        <circle
           cx="128.43347"
           cy="19.267973"
           r="3.3333101"
           id="circle4-9-4-3-5-8-1-9-1"
           style="fill:#cccc00;fill-opacity:1;stroke-width:0.0520829" />
        <path
           d="m 140.66464,18.36173 c -1.37811,-2.131235 -3.16612,-3.941639 -5.17027,-5.235901 -2.21718,-1.433324 -4.66508,-2.191131 -7.0786,-2.191131 -2.21457,0 -4.39216,0.632808 -6.47235,1.880716 -2.12134,1.272387 -4.0432,3.131229 -5.71246,5.524441 a 1.6624884,1.6624884 0 0 0 -0.0333,1.851029 c 1.37551,2.152589 3.14581,3.965597 5.11871,5.24215 2.22134,1.439053 4.61195,2.168214 7.09943,2.168214 2.4328,0 4.8859,-0.751556 7.0937,-2.1729 2.00311,-1.290096 3.78748,-3.107271 5.16038,-5.256214 a 1.6770716,1.6770716 0 0 0 -0.005,-1.810404 z m -12.23116,5.906209 a 4.9999651,4.9999651 0 1 1 4.99996,-4.999965 5.0056942,5.0056942 0 0 1 -4.99996,4.999965 z"
           id="path6-5-6-9-0-9-6-0-9"
           style="fill:#cccc00;fill-opacity:1;stroke-width:0.0520829" />
        <path
           id="circle4-7-8-1-7-1-6-2-4-4"
           style="display:inline;fill:#929208;fill-opacity:1;stroke-width:0.052083"
           d="m 128.43364,15.935 a 3.33331,3.33331 0 0 0 -3.33364,3.333128 3.33331,3.33331 0 0 0 3.33364,3.333131 3.33331,3.33331 0 0 0 1.32292,-0.276469 3.33331,3.33331 0 0 1 -2.01022,-3.056662 3.33331,3.33331 0 0 1 2.0128,-3.058726 3.33331,3.33331 0 0 0 -1.3255,-0.274402 z" />
        <path
           id="path6-9-2-9-0-9-4-5-7-5"
           style="display:inline;fill:#929208;fill-opacity:1;stroke-width:0.052083"
           d="m 128.4161,10.935 c -2.21457,0 -4.39176,0.633113 -6.47195,1.881021 -2.12134,1.272389 -4.04357,3.130999 -5.71283,5.524211 a 1.6624884,1.6624884 0 0 0 -0.0331,1.851049 c 1.37551,2.152589 3.14566,3.965506 5.11856,5.242057 2.22134,1.439056 4.61234,2.168345 7.09982,2.168345 0.4346,0 0.86941,-0.02433 1.3038,-0.07183 -2.00611,-0.215829 -3.9384,-0.918187 -5.75727,-2.096514 -1.9729,-1.276551 -3.74356,-3.089468 -5.11907,-5.242057 a 1.6624884,1.6624884 0 0 1 0.0336,-1.851049 c 1.66926,-2.393212 3.59097,-4.251822 5.71231,-5.524211 1.66601,-0.999435 3.39481,-1.60328 5.15472,-1.804541 -0.44288,-0.05037 -0.88638,-0.07648 -1.3286,-0.07648 z m 2.10427,3.365169 a 4.9999651,4.9999651 0 0 0 -0.70745,0.203605 4.9999651,4.9999651 0 0 1 3.62097,4.764566 5.0056941,5.0056941 0 0 1 -3.59565,4.789374 4.9999651,4.9999651 0 0 0 1.24178,0.210839 5.0056941,5.0056941 0 0 0 5.00022,-5.000213 4.9999651,4.9999651 0 0 0 -5.55987,-4.968171 z" />
      </g>
    </g>
    <g
       id="g52262-6-1-7-4-3-0-8"
       transform="matrix(0.98398321,0,0,0.98398321,-37.82863,12.203652)"
       style="display:inline">
      <g
         id="g52161-24-5-3-1-9-7-1"
         transform="translate(2.80633,13.657473)">
        <circle
           cx="128.43347"
           cy="19.267973"
           r="3.3333101"
           id="circle4-75-9-3-4-66-5-3"
           style="fill:#cccc00;fill-opacity:1;stroke-width:0.0520829" />
        <path
           d="m 140.66464,18.36173 c -1.37811,-2.131235 -3.16612,-3.941639 -5.17027,-5.235901 -2.21718,-1.433324 -4.66508,-2.191131 -7.0786,-2.191131 -2.21457,0 -4.39216,0.632808 -6.47235,1.880716 -2.12134,1.272387 -4.0432,3.131229 -5.71246,5.524441 a 1.6624884,1.6624884 0 0 0 -0.0333,1.851029 c 1.37551,2.152589 3.14581,3.965597 5.11871,5.24215 2.22134,1.439053 4.61195,2.168214 7.09943,2.168214 2.4328,0 4.8859,-0.751556 7.0937,-2.1729 2.00311,-1.290096 3.78748,-3.107271 5.16038,-5.256214 a 1.6770716,1.6770716 0 0 0 -0.005,-1.810404 z m -12.23116,5.906209 a 4.9999651,4.9999651 0 1 1 4.99996,-4.999965 5.0056942,5.0056942 0 0 1 -4.99996,4.999965 z"
           id="path6-3-9-51-0-4-3-8"
           style="fill:#cccc00;fill-opacity:1;stroke-width:0.0520829" />
        <path
           id="circle4-7-83-5-7-6-52-8-6"
           style="display:inline;fill:#929208;fill-opacity:1;stroke-width:0.052083"
           d="m 128.43364,15.935 a 3.33331,3.33331 0 0 0 -3.33364,3.333128 3.33331,3.33331 0 0 0 3.33364,3.333131 3.33331,3.33331 0 0 0 1.32292,-0.276469 3.33331,3.33331 0 0 1 -2.01022,-3.056662 3.33331,3.33331 0 0 1 2.0128,-3.058726 3.33331,3.33331 0 0 0 -1.3255,-0.274402 z" />
        <path
           id="path6-9-8-9-5-6-4-1-9"
           style="display:inline;fill:#929208;fill-opacity:1;stroke-width:0.052083"
           d="m 128.4161,10.935 c -2.21457,0 -4.39176,0.633113 -6.47195,1.881021 -2.12134,1.272389 -4.04357,3.130999 -5.71283,5.524211 a 1.6624884,1.6624884 0 0 0 -0.0331,1.851049 c 1.37551,2.152589 3.14566,3.965506 5.11856,5.242057 2.22134,1.439056 4.61234,2.168345 7.09982,2.168345 0.4346,0 0.86941,-0.02433 1.3038,-0.07183 -2.00611,-0.215829 -3.9384,-0.918187 -5.75727,-2.096514 -1.9729,-1.276551 -3.74356,-3.089468 -5.11907,-5.242057 a 1.6624884,1.6624884 0 0 1 0.0336,-1.851049 c 1.66926,-2.393212 3.59097,-4.251822 5.71231,-5.524211 1.66601,-0.999435 3.39481,-1.60328 5.15472,-1.804541 -0.44288,-0.05037 -0.88638,-0.07648 -1.3286,-0.07648 z m 2.10427,3.365169 a 4.9999651,4.9999651 0 0 0 -0.70745,0.203605 4.9999651,4.9999651 0 0 1 3.62097,4.764566 5.0056941,5.0056941 0 0 1 -3.59565,4.789374 4.9999651,4.9999651 0 0 0 1.24178,0.210839 5.0056941,5.0056941 0 0 0 5.00022,-5.000213 4.9999651,4.9999651 0 0 0 -5.55987,-4.968171 z" />
      </g>
      <g
         id="g52161-2-5-7-7-1-9-4-9"
         transform="translate(17.432111,2.9961017)"
         style="display:inline">
        <circle
           cx="128.43347"
           cy="19.267973"
           r="3.3333101"
           id="circle4-9-3-2-3-4-86-6-3"
           style="fill:#cccc00;fill-opacity:1;stroke-width:0.0520829" />
        <path
           d="m 140.66464,18.36173 c -1.37811,-2.131235 -3.16612,-3.941639 -5.17027,-5.235901 -2.21718,-1.433324 -4.66508,-2.191131 -7.0786,-2.191131 -2.21457,0 -4.39216,0.632808 -6.47235,1.880716 -2.12134,1.272387 -4.0432,3.131229 -5.71246,5.524441 a 1.6624884,1.6624884 0 0 0 -0.0333,1.851029 c 1.37551,2.152589 3.14581,3.965597 5.11871,5.24215 2.22134,1.439053 4.61195,2.168214 7.09943,2.168214 2.4328,0 4.8859,-0.751556 7.0937,-2.1729 2.00311,-1.290096 3.78748,-3.107271 5.16038,-5.256214 a 1.6770716,1.6770716 0 0 0 -0.005,-1.810404 z m -12.23116,5.906209 a 4.9999651,4.9999651 0 1 1 4.99996,-4.999965 5.0056942,5.0056942 0 0 1 -4.99996,4.999965 z"
           id="path6-5-5-4-0-05-4-6-7"
           style="fill:#cccc00;fill-opacity:1;stroke-width:0.0520829" />
        <path
           id="circle4-7-8-8-4-6-4-4-9-4"
           style="display:inline;fill:#929208;fill-opacity:1;stroke-width:0.052083"
           d="m 128.43364,15.935 a 3.33331,3.33331 0 0 0 -3.33364,3.333128 3.33331,3.33331 0 0 0 3.33364,3.333131 3.33331,3.33331 0 0 0 1.32292,-0.276469 3.33331,3.33331 0 0 1 -2.01022,-3.056662 3.33331,3.33331 0 0 1 2.0128,-3.058726 3.33331,3.33331 0 0 0 -1.3255,-0.274402 z" />
        <path
           id="path6-9-2-7-5-5-8-8-6-5"
           style="display:inline;fill:#929208;fill-opacity:1;stroke-width:0.052083"
           d="m 128.4161,10.935 c -2.21457,0 -4.39176,0.633113 -6.47195,1.881021 -2.12134,1.272389 -4.04357,3.130999 -5.71283,5.524211 a 1.6624884,1.6624884 0 0 0 -0.0331,1.851049 c 1.37551,2.152589 3.14566,3.965506 5.11856,5.242057 2.22134,1.439056 4.61234,2.168345 7.09982,2.168345 0.4346,0 0.86941,-0.02433 1.3038,-0.07183 -2.00611,-0.215829 -3.9384,-0.918187 -5.75727,-2.096514 -1.9729,-1.276551 -3.74356,-3.089468 -5.11907,-5.242057 a 1.6624884,1.6624884 0 0 1 0.0336,-1.851049 c 1.66926,-2.393212 3.59097,-4.251822 5.71231,-5.524211 1.66601,-0.999435 3.39481,-1.60328 5.15472,-1.804541 -0.44288,-0.05037 -0.88638,-0.07648 -1.3286,-0.07648 z m 2.10427,3.365169 a 4.9999651,4.9999651 0 0 0 -0.70745,0.203605 4.9999651,4.9999651 0 0 1 3.62097,4.764566 5.0056941,5.0056941 0 0 1 -3.59565,4.789374 4.9999651,4.9999651 0 0 0 1.24178,0.210839 5.0056941,5.0056941 0 0 0 5.00022,-5.000213 4.9999651,4.9999651 0 0 0 -5.55987,-4.968171 z" />
      </g>
      <g
         id="g52161-2-2-9-5-7-3-7-7-2"
         transform="translate(31.668923,13.657602)"
         style="display:inline">
        <circle
           cx="128.43347"
           cy="19.267973"
           r="3.3333101"
           id="circle4-9-4-3-5-8-1-9-1-4"
           style="fill:#cccc00;fill-opacity:1;stroke-width:0.0520829" />
        <path
           d="m 140.66464,18.36173 c -1.37811,-2.131235 -3.16612,-3.941639 -5.17027,-5.235901 -2.21718,-1.433324 -4.66508,-2.191131 -7.0786,-2.191131 -2.21457,0 -4.39216,0.632808 -6.47235,1.880716 -2.12134,1.272387 -4.0432,3.131229 -5.71246,5.524441 a 1.6624884,1.6624884 0 0 0 -0.0333,1.851029 c 1.37551,2.152589 3.14581,3.965597 5.11871,5.24215 2.22134,1.439053 4.61195,2.168214 7.09943,2.168214 2.4328,0 4.8859,-0.751556 7.0937,-2.1729 2.00311,-1.290096 3.78748,-3.107271 5.16038,-5.256214 a 1.6770716,1.6770716 0 0 0 -0.005,-1.810404 z m -12.23116,5.906209 a 4.9999651,4.9999651 0 1 1 4.99996,-4.999965 5.0056942,5.0056942 0 0 1 -4.99996,4.999965 z"
           id="path6-5-6-9-0-9-6-0-9-7"
           style="fill:#cccc00;fill-opacity:1;stroke-width:0.0520829" />
        <path
           id="circle4-7-8-1-7-1-6-2-4-4-3"
           style="display:inline;fill:#929208;fill-opacity:1;stroke-width:0.052083"
           d="m 128.43364,15.935 a 3.33331,3.33331 0 0 0 -3.33364,3.333128 3.33331,3.33331 0 0 0 3.33364,3.333131 3.33331,3.33331 0 0 0 1.32292,-0.276469 3.33331,3.33331 0 0 1 -2.01022,-3.056662 3.33331,3.33331 0 0 1 2.0128,-3.058726 3.33331,3.33331 0 0 0 -1.3255,-0.274402 z" />
        <path
           id="path6-9-2-9-0-9-4-5-7-5-9"
           style="display:inline;fill:#929208;fill-opacity:1;stroke-width:0.052083"
           d="m 128.4161,10.935 c -2.21457,0 -4.39176,0.633113 -6.47195,1.881021 -2.12134,1.272389 -4.04357,3.130999 -5.71283,5.524211 a 1.6624884,1.6624884 0 0 0 -0.0331,1.851049 c 1.37551,2.152589 3.14566,3.965506 5.11856,5.242057 2.22134,1.439056 4.61234,2.168345 7.09982,2.168345 0.4346,0 0.86941,-0.02433 1.3038,-0.07183 -2.00611,-0.215829 -3.9384,-0.918187 -5.75727,-2.096514 -1.9729,-1.276551 -3.74356,-3.089468 -5.11907,-5.242057 a 1.6624884,1.6624884 0 0 1 0.0336,-1.851049 c 1.66926,-2.393212 3.59097,-4.251822 5.71231,-5.524211 1.66601,-0.999435 3.39481,-1.60328 5.15472,-1.804541 -0.44288,-0.05037 -0.88638,-0.07648 -1.3286,-0.07648 z m 2.10427,3.365169 a 4.9999651,4.9999651 0 0 0 -0.70745,0.203605 4.9999651,4.9999651 0 0 1 3.62097,4.764566 5.0056941,5.0056941 0 0 1 -3.59565,4.789374 4.9999651,4.9999651 0 0 0 1.24178,0.210839 5.0056941,5.0056941 0 0 0 5.00022,-5.000213 4.9999651,4.9999651 0 0 0 -5.55987,-4.968171 z" />
      </g>
    </g>
    <g
       id="g52262-6-1-7-4-3-0-8-5"
       transform="matrix(0.83545744,0,0,0.83545744,-32.315344,41.968679)"
       style="display:inline">
      <g
         id="g52161-24-5-3-1-9-7-1-1"
         transform="translate(2.80633,13.657473)">
        <circle
           cx="128.43347"
           cy="19.267973"
           r="3.3333101"
           id="circle4-75-9-3-4-66-5-3-1"
           style="fill:#cccc00;fill-opacity:1;stroke-width:0.0520829" />
        <path
           d="m 140.66464,18.36173 c -1.37811,-2.131235 -3.16612,-3.941639 -5.17027,-5.235901 -2.21718,-1.433324 -4.66508,-2.191131 -7.0786,-2.191131 -2.21457,0 -4.39216,0.632808 -6.47235,1.880716 -2.12134,1.272387 -4.0432,3.131229 -5.71246,5.524441 a 1.6624884,1.6624884 0 0 0 -0.0333,1.851029 c 1.37551,2.152589 3.14581,3.965597 5.11871,5.24215 2.22134,1.439053 4.61195,2.168214 7.09943,2.168214 2.4328,0 4.8859,-0.751556 7.0937,-2.1729 2.00311,-1.290096 3.78748,-3.107271 5.16038,-5.256214 a 1.6770716,1.6770716 0 0 0 -0.005,-1.810404 z m -12.23116,5.906209 a 4.9999651,4.9999651 0 1 1 4.99996,-4.999965 5.0056942,5.0056942 0 0 1 -4.99996,4.999965 z"
           id="path6-3-9-51-0-4-3-8-5"
           style="fill:#cccc00;fill-opacity:1;stroke-width:0.0520829" />
        <path
           id="circle4-7-83-5-7-6-52-8-6-9"
           style="display:inline;fill:#929208;fill-opacity:1;stroke-width:0.052083"
           d="m 128.43364,15.935 a 3.33331,3.33331 0 0 0 -3.33364,3.333128 3.33331,3.33331 0 0 0 3.33364,3.333131 3.33331,3.33331 0 0 0 1.32292,-0.276469 3.33331,3.33331 0 0 1 -2.01022,-3.056662 3.33331,3.33331 0 0 1 2.0128,-3.058726 3.33331,3.33331 0 0 0 -1.3255,-0.274402 z" />
        <path
           id="path6-9-8-9-5-6-4-1-9-8"
           style="display:inline;fill:#929208;fill-opacity:1;stroke-width:0.052083"
           d="m 128.4161,10.935 c -2.21457,0 -4.39176,0.633113 -6.47195,1.881021 -2.12134,1.272389 -4.04357,3.130999 -5.71283,5.524211 a 1.6624884,1.6624884 0 0 0 -0.0331,1.851049 c 1.37551,2.152589 3.14566,3.965506 5.11856,5.242057 2.22134,1.439056 4.61234,2.168345 7.09982,2.168345 0.4346,0 0.86941,-0.02433 1.3038,-0.07183 -2.00611,-0.215829 -3.9384,-0.918187 -5.75727,-2.096514 -1.9729,-1.276551 -3.74356,-3.089468 -5.11907,-5.242057 a 1.6624884,1.6624884 0 0 1 0.0336,-1.851049 c 1.66926,-2.393212 3.59097,-4.251822 5.71231,-5.524211 1.66601,-0.999435 3.39481,-1.60328 5.15472,-1.804541 -0.44288,-0.05037 -0.88638,-0.07648 -1.3286,-0.07648 z m 2.10427,3.365169 a 4.9999651,4.9999651 0 0 0 -0.70745,0.203605 4.9999651,4.9999651 0 0 1 3.62097,4.764566 5.0056941,5.0056941 0 0 1 -3.59565,4.789374 4.9999651,4.9999651 0 0 0 1.24178,0.210839 5.0056941,5.0056941 0 0 0 5.00022,-5.000213 4.9999651,4.9999651 0 0 0 -5.55987,-4.968171 z" />
      </g>
      <g
         id="g52161-2-5-7-7-1-9-4-9-2"
         transform="translate(17.432111,2.9961017)"
         style="display:inline">
        <circle
           cx="128.43347"
           cy="19.267973"
           r="3.3333101"
           id="circle4-9-3-2-3-4-86-6-3-1"
           style="fill:#cccc00;fill-opacity:1;stroke-width:0.0520829" />
        <path
           d="m 140.66464,18.36173 c -1.37811,-2.131235 -3.16612,-3.941639 -5.17027,-5.235901 -2.21718,-1.433324 -4.66508,-2.191131 -7.0786,-2.191131 -2.21457,0 -4.39216,0.632808 -6.47235,1.880716 -2.12134,1.272387 -4.0432,3.131229 -5.71246,5.524441 a 1.6624884,1.6624884 0 0 0 -0.0333,1.851029 c 1.37551,2.152589 3.14581,3.965597 5.11871,5.24215 2.22134,1.439053 4.61195,2.168214 7.09943,2.168214 2.4328,0 4.8859,-0.751556 7.0937,-2.1729 2.00311,-1.290096 3.78748,-3.107271 5.16038,-5.256214 a 1.6770716,1.6770716 0 0 0 -0.005,-1.810404 z m -12.23116,5.906209 a 4.9999651,4.9999651 0 1 1 4.99996,-4.999965 5.0056942,5.0056942 0 0 1 -4.99996,4.999965 z"
           id="path6-5-5-4-0-05-4-6-7-1"
           style="fill:#cccc00;fill-opacity:1;stroke-width:0.0520829" />
        <path
           id="circle4-7-8-8-4-6-4-4-9-4-0"
           style="display:inline;fill:#929208;fill-opacity:1;stroke-width:0.052083"
           d="m 128.43364,15.935 a 3.33331,3.33331 0 0 0 -3.33364,3.333128 3.33331,3.33331 0 0 0 3.33364,3.333131 3.33331,3.33331 0 0 0 1.32292,-0.276469 3.33331,3.33331 0 0 1 -2.01022,-3.056662 3.33331,3.33331 0 0 1 2.0128,-3.058726 3.33331,3.33331 0 0 0 -1.3255,-0.274402 z" />
        <path
           id="path6-9-2-7-5-5-8-8-6-5-0"
           style="display:inline;fill:#929208;fill-opacity:1;stroke-width:0.052083"
           d="m 128.4161,10.935 c -2.21457,0 -4.39176,0.633113 -6.47195,1.881021 -2.12134,1.272389 -4.04357,3.130999 -5.71283,5.524211 a 1.6624884,1.6624884 0 0 0 -0.0331,1.851049 c 1.37551,2.152589 3.14566,3.965506 5.11856,5.242057 2.22134,1.439056 4.61234,2.168345 7.09982,2.168345 0.4346,0 0.86941,-0.02433 1.3038,-0.07183 -2.00611,-0.215829 -3.9384,-0.918187 -5.75727,-2.096514 -1.9729,-1.276551 -3.74356,-3.089468 -5.11907,-5.242057 a 1.6624884,1.6624884 0 0 1 0.0336,-1.851049 c 1.66926,-2.393212 3.59097,-4.251822 5.71231,-5.524211 1.66601,-0.999435 3.39481,-1.60328 5.15472,-1.804541 -0.44288,-0.05037 -0.88638,-0.07648 -1.3286,-0.07648 z m 2.10427,3.365169 a 4.9999651,4.9999651 0 0 0 -0.70745,0.203605 4.9999651,4.9999651 0 0 1 3.62097,4.764566 5.0056941,5.0056941 0 0 1 -3.59565,4.789374 4.9999651,4.9999651 0 0 0 1.24178,0.210839 5.0056941,5.0056941 0 0 0 5.00022,-5.000213 4.9999651,4.9999651 0 0 0 -5.55987,-4.968171 z" />
      </g>
      <g
         id="g52161-2-2-9-5-7-3-7-7-2-3"
         transform="translate(31.668923,13.657602)"
         style="display:inline">
        <circle
           cx="128.43347"
           cy="19.267973"
           r="3.3333101"
           id="circle4-9-4-3-5-8-1-9-1-4-8"
           style="fill:#cccc00;fill-opacity:1;stroke-width:0.0520829" />
        <path
           d="m 140.66464,18.36173 c -1.37811,-2.131235 -3.16612,-3.941639 -5.17027,-5.235901 -2.21718,-1.433324 -4.66508,-2.191131 -7.0786,-2.191131 -2.21457,0 -4.39216,0.632808 -6.47235,1.880716 -2.12134,1.272387 -4.0432,3.131229 -5.71246,5.524441 a 1.6624884,1.6624884 0 0 0 -0.0333,1.851029 c 1.37551,2.152589 3.14581,3.965597 5.11871,5.24215 2.22134,1.439053 4.61195,2.168214 7.09943,2.168214 2.4328,0 4.8859,-0.751556 7.0937,-2.1729 2.00311,-1.290096 3.78748,-3.107271 5.16038,-5.256214 a 1.6770716,1.6770716 0 0 0 -0.005,-1.810404 z m -12.23116,5.906209 a 4.9999651,4.9999651 0 1 1 4.99996,-4.999965 5.0056942,5.0056942 0 0 1 -4.99996,4.999965 z"
           id="path6-5-6-9-0-9-6-0-9-7-8"
           style="fill:#cccc00;fill-opacity:1;stroke-width:0.0520829" />
        <path
           id="circle4-7-8-1-7-1-6-2-4-4-3-0"
           style="display:inline;fill:#929208;fill-opacity:1;stroke-width:0.052083"
           d="m 128.43364,15.935 a 3.33331,3.33331 0 0 0 -3.33364,3.333128 3.33331,3.33331 0 0 0 3.33364,3.333131 3.33331,3.33331 0 0 0 1.32292,-0.276469 3.33331,3.33331 0 0 1 -2.01022,-3.056662 3.33331,3.33331 0 0 1 2.0128,-3.058726 3.33331,3.33331 0 0 0 -1.3255,-0.274402 z" />
        <path
           id="path6-9-2-9-0-9-4-5-7-5-9-8"
           style="display:inline;fill:#929208;fill-opacity:1;stroke-width:0.052083"
           d="m 128.4161,10.935 c -2.21457,0 -4.39176,0.633113 -6.47195,1.881021 -2.12134,1.272389 -4.04357,3.130999 -5.71283,5.524211 a 1.6624884,1.6624884 0 0 0 -0.0331,1.851049 c 1.37551,2.152589 3.14566,3.965506 5.11856,5.242057 2.22134,1.439056 4.61234,2.168345 7.09982,2.168345 0.4346,0 0.86941,-0.02433 1.3038,-0.07183 -2.00611,-0.215829 -3.9384,-0.918187 -5.75727,-2.096514 -1.9729,-1.276551 -3.74356,-3.089468 -5.11907,-5.242057 a 1.6624884,1.6624884 0 0 1 0.0336,-1.851049 c 1.66926,-2.393212 3.59097,-4.251822 5.71231,-5.524211 1.66601,-0.999435 3.39481,-1.60328 5.15472,-1.804541 -0.44288,-0.05037 -0.88638,-0.07648 -1.3286,-0.07648 z m 2.10427,3.365169 a 4.9999651,4.9999651 0 0 0 -0.70745,0.203605 4.9999651,4.9999651 0 0 1 3.62097,4.764566 5.0056941,5.0056941 0 0 1 -3.59565,4.789374 4.9999651,4.9999651 0 0 0 1.24178,0.210839 5.0056941,5.0056941 0 0 0 5.00022,-5.000213 4.9999651,4.9999651 0 0 0 -5.55987,-4.968171 z" />
      </g>
    </g>
    <g
       id="g52262-6-1-7-4-3-0-8-5-9"
       transform="matrix(0.83545744,0,0,0.83545744,-13.617077,68.42016)"
       style="display:inline">
      <g
         id="g52161-24-5-3-1-9-7-1-1-9"
         transform="translate(2.80633,13.657473)">
        <circle
           cx="128.43347"
           cy="19.267973"
           r="3.3333101"
           id="circle4-75-9-3-4-66-5-3-1-0"
           style="fill:#cccc00;fill-opacity:1;stroke-width:0.0520829" />
        <path
           d="m 140.66464,18.36173 c -1.37811,-2.131235 -3.16612,-3.941639 -5.17027,-5.235901 -2.21718,-1.433324 -4.66508,-2.191131 -7.0786,-2.191131 -2.21457,0 -4.39216,0.632808 -6.47235,1.880716 -2.12134,1.272387 -4.0432,3.131229 -5.71246,5.524441 a 1.6624884,1.6624884 0 0 0 -0.0333,1.851029 c 1.37551,2.152589 3.14581,3.965597 5.11871,5.24215 2.22134,1.439053 4.61195,2.168214 7.09943,2.168214 2.4328,0 4.8859,-0.751556 7.0937,-2.1729 2.00311,-1.290096 3.78748,-3.107271 5.16038,-5.256214 a 1.6770716,1.6770716 0 0 0 -0.005,-1.810404 z m -12.23116,5.906209 a 4.9999651,4.9999651 0 1 1 4.99996,-4.999965 5.0056942,5.0056942 0 0 1 -4.99996,4.999965 z"
           id="path6-3-9-51-0-4-3-8-5-3"
           style="fill:#cccc00;fill-opacity:1;stroke-width:0.0520829" />
        <path
           id="circle4-7-83-5-7-6-52-8-6-9-5"
           style="display:inline;fill:#929208;fill-opacity:1;stroke-width:0.052083"
           d="m 128.43364,15.935 a 3.33331,3.33331 0 0 0 -3.33364,3.333128 3.33331,3.33331 0 0 0 3.33364,3.333131 3.33331,3.33331 0 0 0 1.32292,-0.276469 3.33331,3.33331 0 0 1 -2.01022,-3.056662 3.33331,3.33331 0 0 1 2.0128,-3.058726 3.33331,3.33331 0 0 0 -1.3255,-0.274402 z" />
        <path
           id="path6-9-8-9-5-6-4-1-9-8-4"
           style="display:inline;fill:#929208;fill-opacity:1;stroke-width:0.052083"
           d="m 128.4161,10.935 c -2.21457,0 -4.39176,0.633113 -6.47195,1.881021 -2.12134,1.272389 -4.04357,3.130999 -5.71283,5.524211 a 1.6624884,1.6624884 0 0 0 -0.0331,1.851049 c 1.37551,2.152589 3.14566,3.965506 5.11856,5.242057 2.22134,1.439056 4.61234,2.168345 7.09982,2.168345 0.4346,0 0.86941,-0.02433 1.3038,-0.07183 -2.00611,-0.215829 -3.9384,-0.918187 -5.75727,-2.096514 -1.9729,-1.276551 -3.74356,-3.089468 -5.11907,-5.242057 a 1.6624884,1.6624884 0 0 1 0.0336,-1.851049 c 1.66926,-2.393212 3.59097,-4.251822 5.71231,-5.524211 1.66601,-0.999435 3.39481,-1.60328 5.15472,-1.804541 -0.44288,-0.05037 -0.88638,-0.07648 -1.3286,-0.07648 z m 2.10427,3.365169 a 4.9999651,4.9999651 0 0 0 -0.70745,0.203605 4.9999651,4.9999651 0 0 1 3.62097,4.764566 5.0056941,5.0056941 0 0 1 -3.59565,4.789374 4.9999651,4.9999651 0 0 0 1.24178,0.210839 5.0056941,5.0056941 0 0 0 5.00022,-5.000213 4.9999651,4.9999651 0 0 0 -5.55987,-4.968171 z" />
      </g>
      <g
         id="g52161-2-5-7-7-1-9-4-9-2-6"
         transform="translate(17.432111,2.9961017)"
         style="display:inline">
        <circle
           cx="128.43347"
           cy="19.267973"
           r="3.3333101"
           id="circle4-9-3-2-3-4-86-6-3-1-7"
           style="fill:#cccc00;fill-opacity:1;stroke-width:0.0520829" />
        <path
           d="m 140.66464,18.36173 c -1.37811,-2.131235 -3.16612,-3.941639 -5.17027,-5.235901 -2.21718,-1.433324 -4.66508,-2.191131 -7.0786,-2.191131 -2.21457,0 -4.39216,0.632808 -6.47235,1.880716 -2.12134,1.272387 -4.0432,3.131229 -5.71246,5.524441 a 1.6624884,1.6624884 0 0 0 -0.0333,1.851029 c 1.37551,2.152589 3.14581,3.965597 5.11871,5.24215 2.22134,1.439053 4.61195,2.168214 7.09943,2.168214 2.4328,0 4.8859,-0.751556 7.0937,-2.1729 2.00311,-1.290096 3.78748,-3.107271 5.16038,-5.256214 a 1.6770716,1.6770716 0 0 0 -0.005,-1.810404 z m -12.23116,5.906209 a 4.9999651,4.9999651 0 1 1 4.99996,-4.999965 5.0056942,5.0056942 0 0 1 -4.99996,4.999965 z"
           id="path6-5-5-4-0-05-4-6-7-1-2"
           style="fill:#cccc00;fill-opacity:1;stroke-width:0.0520829" />
        <path
           id="circle4-7-8-8-4-6-4-4-9-4-0-4"
           style="display:inline;fill:#929208;fill-opacity:1;stroke-width:0.052083"
           d="m 128.43364,15.935 a 3.33331,3.33331 0 0 0 -3.33364,3.333128 3.33331,3.33331 0 0 0 3.33364,3.333131 3.33331,3.33331 0 0 0 1.32292,-0.276469 3.33331,3.33331 0 0 1 -2.01022,-3.056662 3.33331,3.33331 0 0 1 2.0128,-3.058726 3.33331,3.33331 0 0 0 -1.3255,-0.274402 z" />
        <path
           id="path6-9-2-7-5-5-8-8-6-5-0-2"
           style="display:inline;fill:#929208;fill-opacity:1;stroke-width:0.052083"
           d="m 128.4161,10.935 c -2.21457,0 -4.39176,0.633113 -6.47195,1.881021 -2.12134,1.272389 -4.04357,3.130999 -5.71283,5.524211 a 1.6624884,1.6624884 0 0 0 -0.0331,1.851049 c 1.37551,2.152589 3.14566,3.965506 5.11856,5.242057 2.22134,1.439056 4.61234,2.168345 7.09982,2.168345 0.4346,0 0.86941,-0.02433 1.3038,-0.07183 -2.00611,-0.215829 -3.9384,-0.918187 -5.75727,-2.096514 -1.9729,-1.276551 -3.74356,-3.089468 -5.11907,-5.242057 a 1.6624884,1.6624884 0 0 1 0.0336,-1.851049 c 1.66926,-2.393212 3.59097,-4.251822 5.71231,-5.524211 1.66601,-0.999435 3.39481,-1.60328 5.15472,-1.804541 -0.44288,-0.05037 -0.88638,-0.07648 -1.3286,-0.07648 z m 2.10427,3.365169 a 4.9999651,4.9999651 0 0 0 -0.70745,0.203605 4.9999651,4.9999651 0 0 1 3.62097,4.764566 5.0056941,5.0056941 0 0 1 -3.59565,4.789374 4.9999651,4.9999651 0 0 0 1.24178,0.210839 5.0056941,5.0056941 0 0 0 5.00022,-5.000213 4.9999651,4.9999651 0 0 0 -5.55987,-4.968171 z" />
      </g>
      <g
         id="g52161-2-2-9-5-7-3-7-7-2-3-0"
         transform="translate(31.668923,13.657602)"
         style="display:inline">
        <circle
           cx="128.43347"
           cy="19.267973"
           r="3.3333101"
           id="circle4-9-4-3-5-8-1-9-1-4-8-6"
           style="fill:#cccc00;fill-opacity:1;stroke-width:0.0520829" />
        <path
           d="m 140.66464,18.36173 c -1.37811,-2.131235 -3.16612,-3.941639 -5.17027,-5.235901 -2.21718,-1.433324 -4.66508,-2.191131 -7.0786,-2.191131 -2.21457,0 -4.39216,0.632808 -6.47235,1.880716 -2.12134,1.272387 -4.0432,3.131229 -5.71246,5.524441 a 1.6624884,1.6624884 0 0 0 -0.0333,1.851029 c 1.37551,2.152589 3.14581,3.965597 5.11871,5.24215 2.22134,1.439053 4.61195,2.168214 7.09943,2.168214 2.4328,0 4.8859,-0.751556 7.0937,-2.1729 2.00311,-1.290096 3.78748,-3.107271 5.16038,-5.256214 a 1.6770716,1.6770716 0 0 0 -0.005,-1.810404 z m -12.23116,5.906209 a 4.9999651,4.9999651 0 1 1 4.99996,-4.999965 5.0056942,5.0056942 0 0 1 -4.99996,4.999965 z"
           id="path6-5-6-9-0-9-6-0-9-7-8-7"
           style="fill:#cccc00;fill-opacity:1;stroke-width:0.0520829" />
        <path
           id="circle4-7-8-1-7-1-6-2-4-4-3-0-7"
           style="display:inline;fill:#929208;fill-opacity:1;stroke-width:0.052083"
           d="m 128.43364,15.935 a 3.33331,3.33331 0 0 0 -3.33364,3.333128 3.33331,3.33331 0 0 0 3.33364,3.333131 3.33331,3.33331 0 0 0 1.32292,-0.276469 3.33331,3.33331 0 0 1 -2.01022,-3.056662 3.33331,3.33331 0 0 1 2.0128,-3.058726 3.33331,3.33331 0 0 0 -1.3255,-0.274402 z" />
        <path
           id="path6-9-2-9-0-9-4-5-7-5-9-8-8"
           style="display:inline;fill:#929208;fill-opacity:1;stroke-width:0.052083"
           d="m 128.4161,10.935 c -2.21457,0 -4.39176,0.633113 -6.47195,1.881021 -2.12134,1.272389 -4.04357,3.130999 -5.71283,5.524211 a 1.6624884,1.6624884 0 0 0 -0.0331,1.851049 c 1.37551,2.152589 3.14566,3.965506 5.11856,5.242057 2.22134,1.439056 4.61234,2.168345 7.09982,2.168345 0.4346,0 0.86941,-0.02433 1.3038,-0.07183 -2.00611,-0.215829 -3.9384,-0.918187 -5.75727,-2.096514 -1.9729,-1.276551 -3.74356,-3.089468 -5.11907,-5.242057 a 1.6624884,1.6624884 0 0 1 0.0336,-1.851049 c 1.66926,-2.393212 3.59097,-4.251822 5.71231,-5.524211 1.66601,-0.999435 3.39481,-1.60328 5.15472,-1.804541 -0.44288,-0.05037 -0.88638,-0.07648 -1.3286,-0.07648 z m 2.10427,3.365169 a 4.9999651,4.9999651 0 0 0 -0.70745,0.203605 4.9999651,4.9999651 0 0 1 3.62097,4.764566 5.0056941,5.0056941 0 0 1 -3.59565,4.789374 4.9999651,4.9999651 0 0 0 1.24178,0.210839 5.0056941,5.0056941 0 0 0 5.00022,-5.000213 4.9999651,4.9999651 0 0 0 -5.55987,-4.968171 z" />
      </g>
    </g>
    <g
       id="g52262-6-1-7-4-3-0-8-5-9-1"
       transform="matrix(0.74262884,0,0,0.74262884,-14.676162,96.618731)"
       style="display:inline">
      <g
         id="g52161-24-5-3-1-9-7-1-1-9-8"
         transform="translate(2.80633,13.657473)">
        <circle
           cx="128.43347"
           cy="19.267973"
           r="3.3333101"
           id="circle4-75-9-3-4-66-5-3-1-0-0"
           style="fill:#cccc00;fill-opacity:1;stroke-width:0.0520829" />
        <path
           d="m 140.66464,18.36173 c -1.37811,-2.131235 -3.16612,-3.941639 -5.17027,-5.235901 -2.21718,-1.433324 -4.66508,-2.191131 -7.0786,-2.191131 -2.21457,0 -4.39216,0.632808 -6.47235,1.880716 -2.12134,1.272387 -4.0432,3.131229 -5.71246,5.524441 a 1.6624884,1.6624884 0 0 0 -0.0333,1.851029 c 1.37551,2.152589 3.14581,3.965597 5.11871,5.24215 2.22134,1.439053 4.61195,2.168214 7.09943,2.168214 2.4328,0 4.8859,-0.751556 7.0937,-2.1729 2.00311,-1.290096 3.78748,-3.107271 5.16038,-5.256214 a 1.6770716,1.6770716 0 0 0 -0.005,-1.810404 z m -12.23116,5.906209 a 4.9999651,4.9999651 0 1 1 4.99996,-4.999965 5.0056942,5.0056942 0 0 1 -4.99996,4.999965 z"
           id="path6-3-9-51-0-4-3-8-5-3-1"
           style="fill:#cccc00;fill-opacity:1;stroke-width:0.0520829" />
        <path
           id="circle4-7-83-5-7-6-52-8-6-9-5-4"
           style="display:inline;fill:#929208;fill-opacity:1;stroke-width:0.052083"
           d="m 128.43364,15.935 a 3.33331,3.33331 0 0 0 -3.33364,3.333128 3.33331,3.33331 0 0 0 3.33364,3.333131 3.33331,3.33331 0 0 0 1.32292,-0.276469 3.33331,3.33331 0 0 1 -2.01022,-3.056662 3.33331,3.33331 0 0 1 2.0128,-3.058726 3.33331,3.33331 0 0 0 -1.3255,-0.274402 z" />
        <path
           id="path6-9-8-9-5-6-4-1-9-8-4-1"
           style="display:inline;fill:#929208;fill-opacity:1;stroke-width:0.052083"
           d="m 128.4161,10.935 c -2.21457,0 -4.39176,0.633113 -6.47195,1.881021 -2.12134,1.272389 -4.04357,3.130999 -5.71283,5.524211 a 1.6624884,1.6624884 0 0 0 -0.0331,1.851049 c 1.37551,2.152589 3.14566,3.965506 5.11856,5.242057 2.22134,1.439056 4.61234,2.168345 7.09982,2.168345 0.4346,0 0.86941,-0.02433 1.3038,-0.07183 -2.00611,-0.215829 -3.9384,-0.918187 -5.75727,-2.096514 -1.9729,-1.276551 -3.74356,-3.089468 -5.11907,-5.242057 a 1.6624884,1.6624884 0 0 1 0.0336,-1.851049 c 1.66926,-2.393212 3.59097,-4.251822 5.71231,-5.524211 1.66601,-0.999435 3.39481,-1.60328 5.15472,-1.804541 -0.44288,-0.05037 -0.88638,-0.07648 -1.3286,-0.07648 z m 2.10427,3.365169 a 4.9999651,4.9999651 0 0 0 -0.70745,0.203605 4.9999651,4.9999651 0 0 1 3.62097,4.764566 5.0056941,5.0056941 0 0 1 -3.59565,4.789374 4.9999651,4.9999651 0 0 0 1.24178,0.210839 5.0056941,5.0056941 0 0 0 5.00022,-5.000213 4.9999651,4.9999651 0 0 0 -5.55987,-4.968171 z" />
      </g>
      <g
         id="g52161-2-5-7-7-1-9-4-9-2-6-1"
         transform="translate(17.432111,2.9961017)"
         style="display:inline">
        <circle
           cx="128.43347"
           cy="19.267973"
           r="3.3333101"
           id="circle4-9-3-2-3-4-86-6-3-1-7-5"
           style="fill:#cccc00;fill-opacity:1;stroke-width:0.0520829" />
        <path
           d="m 140.66464,18.36173 c -1.37811,-2.131235 -3.16612,-3.941639 -5.17027,-5.235901 -2.21718,-1.433324 -4.66508,-2.191131 -7.0786,-2.191131 -2.21457,0 -4.39216,0.632808 -6.47235,1.880716 -2.12134,1.272387 -4.0432,3.131229 -5.71246,5.524441 a 1.6624884,1.6624884 0 0 0 -0.0333,1.851029 c 1.37551,2.152589 3.14581,3.965597 5.11871,5.24215 2.22134,1.439053 4.61195,2.168214 7.09943,2.168214 2.4328,0 4.8859,-0.751556 7.0937,-2.1729 2.00311,-1.290096 3.78748,-3.107271 5.16038,-5.256214 a 1.6770716,1.6770716 0 0 0 -0.005,-1.810404 z m -12.23116,5.906209 a 4.9999651,4.9999651 0 1 1 4.99996,-4.999965 5.0056942,5.0056942 0 0 1 -4.99996,4.999965 z"
           id="path6-5-5-4-0-05-4-6-7-1-2-2"
           style="fill:#cccc00;fill-opacity:1;stroke-width:0.0520829" />
        <path
           id="circle4-7-8-8-4-6-4-4-9-4-0-4-6"
           style="display:inline;fill:#929208;fill-opacity:1;stroke-width:0.052083"
           d="m 128.43364,15.935 a 3.33331,3.33331 0 0 0 -3.33364,3.333128 3.33331,3.33331 0 0 0 3.33364,3.333131 3.33331,3.33331 0 0 0 1.32292,-0.276469 3.33331,3.33331 0 0 1 -2.01022,-3.056662 3.33331,3.33331 0 0 1 2.0128,-3.058726 3.33331,3.33331 0 0 0 -1.3255,-0.274402 z" />
        <path
           id="path6-9-2-7-5-5-8-8-6-5-0-2-3"
           style="display:inline;fill:#929208;fill-opacity:1;stroke-width:0.052083"
           d="m 128.4161,10.935 c -2.21457,0 -4.39176,0.633113 -6.47195,1.881021 -2.12134,1.272389 -4.04357,3.130999 -5.71283,5.524211 a 1.6624884,1.6624884 0 0 0 -0.0331,1.851049 c 1.37551,2.152589 3.14566,3.965506 5.11856,5.242057 2.22134,1.439056 4.61234,2.168345 7.09982,2.168345 0.4346,0 0.86941,-0.02433 1.3038,-0.07183 -2.00611,-0.215829 -3.9384,-0.918187 -5.75727,-2.096514 -1.9729,-1.276551 -3.74356,-3.089468 -5.11907,-5.242057 a 1.6624884,1.6624884 0 0 1 0.0336,-1.851049 c 1.66926,-2.393212 3.59097,-4.251822 5.71231,-5.524211 1.66601,-0.999435 3.39481,-1.60328 5.15472,-1.804541 -0.44288,-0.05037 -0.88638,-0.07648 -1.3286,-0.07648 z m 2.10427,3.365169 a 4.9999651,4.9999651 0 0 0 -0.70745,0.203605 4.9999651,4.9999651 0 0 1 3.62097,4.764566 5.0056941,5.0056941 0 0 1 -3.59565,4.789374 4.9999651,4.9999651 0 0 0 1.24178,0.210839 5.0056941,5.0056941 0 0 0 5.00022,-5.000213 4.9999651,4.9999651 0 0 0 -5.55987,-4.968171 z" />
      </g>
      <g
         id="g52161-2-2-9-5-7-3-7-7-2-3-0-2"
         transform="translate(31.668923,13.657602)"
         style="display:inline">
        <circle
           cx="128.43347"
           cy="19.267973"
           r="3.3333101"
           id="circle4-9-4-3-5-8-1-9-1-4-8-6-4"
           style="fill:#cccc00;fill-opacity:1;stroke-width:0.0520829" />
        <path
           d="m 140.66464,18.36173 c -1.37811,-2.131235 -3.16612,-3.941639 -5.17027,-5.235901 -2.21718,-1.433324 -4.66508,-2.191131 -7.0786,-2.191131 -2.21457,0 -4.39216,0.632808 -6.47235,1.880716 -2.12134,1.272387 -4.0432,3.131229 -5.71246,5.524441 a 1.6624884,1.6624884 0 0 0 -0.0333,1.851029 c 1.37551,2.152589 3.14581,3.965597 5.11871,5.24215 2.22134,1.439053 4.61195,2.168214 7.09943,2.168214 2.4328,0 4.8859,-0.751556 7.0937,-2.1729 2.00311,-1.290096 3.78748,-3.107271 5.16038,-5.256214 a 1.6770716,1.6770716 0 0 0 -0.005,-1.810404 z m -12.23116,5.906209 a 4.9999651,4.9999651 0 1 1 4.99996,-4.999965 5.0056942,5.0056942 0 0 1 -4.99996,4.999965 z"
           id="path6-5-6-9-0-9-6-0-9-7-8-7-2"
           style="fill:#cccc00;fill-opacity:1;stroke-width:0.0520829" />
        <path
           id="circle4-7-8-1-7-1-6-2-4-4-3-0-7-2"
           style="display:inline;fill:#929208;fill-opacity:1;stroke-width:0.052083"
           d="m 128.43364,15.935 a 3.33331,3.33331 0 0 0 -3.33364,3.333128 3.33331,3.33331 0 0 0 3.33364,3.333131 3.33331,3.33331 0 0 0 1.32292,-0.276469 3.33331,3.33331 0 0 1 -2.01022,-3.056662 3.33331,3.33331 0 0 1 2.0128,-3.058726 3.33331,3.33331 0 0 0 -1.3255,-0.274402 z" />
        <path
           id="path6-9-2-9-0-9-4-5-7-5-9-8-8-6"
           style="display:inline;fill:#929208;fill-opacity:1;stroke-width:0.052083"
           d="m 128.4161,10.935 c -2.21457,0 -4.39176,0.633113 -6.47195,1.881021 -2.12134,1.272389 -4.04357,3.130999 -5.71283,5.524211 a 1.6624884,1.6624884 0 0 0 -0.0331,1.851049 c 1.37551,2.152589 3.14566,3.965506 5.11856,5.242057 2.22134,1.439056 4.61234,2.168345 7.09982,2.168345 0.4346,0 0.86941,-0.02433 1.3038,-0.07183 -2.00611,-0.215829 -3.9384,-0.918187 -5.75727,-2.096514 -1.9729,-1.276551 -3.74356,-3.089468 -5.11907,-5.242057 a 1.6624884,1.6624884 0 0 1 0.0336,-1.851049 c 1.66926,-2.393212 3.59097,-4.251822 5.71231,-5.524211 1.66601,-0.999435 3.39481,-1.60328 5.15472,-1.804541 -0.44288,-0.05037 -0.88638,-0.07648 -1.3286,-0.07648 z m 2.10427,3.365169 a 4.9999651,4.9999651 0 0 0 -0.70745,0.203605 4.9999651,4.9999651 0 0 1 3.62097,4.764566 5.0056941,5.0056941 0 0 1 -3.59565,4.789374 4.9999651,4.9999651 0 0 0 1.24178,0.210839 5.0056941,5.0056941 0 0 0 5.00022,-5.000213 4.9999651,4.9999651 0 0 0 -5.55987,-4.968171 z" />
      </g>
    </g>
  </g>
</svg>
