<?xml version="1.0" encoding="UTF-8" standalone="no"?>
<!-- Created with Inkscape (http://www.inkscape.org/) -->

<svg
   width="500"
   height="500"
   viewBox="0 0 132.29166 132.29167"
   version="1.1"
   id="svg2515"
   inkscape:version="1.1.2 (b8e25be833, 2022-02-05)"
   sodipodi:docname="bonsai13s02normal.svg"
   inkscape:export-filename="C:\Users\Lenovo\Desktop\Coding\Media files\Bonsais\bonsai13.png"
   inkscape:export-xdpi="96"
   inkscape:export-ydpi="96"
   xmlns:inkscape="http://www.inkscape.org/namespaces/inkscape"
   xmlns:sodipodi="http://sodipodi.sourceforge.net/DTD/sodipodi-0.dtd"
   xmlns="http://www.w3.org/2000/svg"
   xmlns:svg="http://www.w3.org/2000/svg">
  <sodipodi:namedview
     id="namedview2517"
     pagecolor="#ffffff"
     bordercolor="#666666"
     borderopacity="1.0"
     inkscape:pageshadow="2"
     inkscape:pageopacity="0.0"
     inkscape:pagecheckerboard="0"
     inkscape:document-units="mm"
     showgrid="false"
     units="px"
     inkscape:zoom="1.4142136"
     inkscape:cx="293.80286"
     inkscape:cy="252.08356"
     inkscape:window-width="1920"
     inkscape:window-height="1001"
     inkscape:window-x="-9"
     inkscape:window-y="-9"
     inkscape:window-maximized="1"
     inkscape:current-layer="g17385" />
  <defs
     id="defs2512">
    <marker
       style="overflow:visible"
       id="Arrow1Sstart"
       refX="0.0"
       refY="0.0"
       orient="auto"
       inkscape:stockid="Arrow1Sstart"
       inkscape:isstock="true">
      <path
         transform="scale(0.2) translate(6,0)"
         style="fill-rule:evenodd;fill:context-stroke;stroke:context-stroke;stroke-width:1.0pt"
         d="M 0.0,0.0 L 5.0,-5.0 L -12.5,0.0 L 5.0,5.0 L 0.0,0.0 z "
         id="path24092" />
    </marker>
    <marker
       style="overflow:visible"
       id="Arrow1Mstart"
       refX="0.0"
       refY="0.0"
       orient="auto"
       inkscape:stockid="Arrow1Mstart"
       inkscape:isstock="true">
      <path
         transform="scale(0.4) translate(10,0)"
         style="fill-rule:evenodd;fill:context-stroke;stroke:context-stroke;stroke-width:1.0pt"
         d="M 0.0,0.0 L 5.0,-5.0 L -12.5,0.0 L 5.0,5.0 L 0.0,0.0 z "
         id="path24086" />
    </marker>
    <marker
       style="overflow:visible"
       id="Arrow1Lstart"
       refX="0.0"
       refY="0.0"
       orient="auto"
       inkscape:stockid="Arrow1Lstart"
       inkscape:isstock="true">
      <path
         transform="scale(0.8) translate(12.5,0)"
         style="fill-rule:evenodd;fill:context-stroke;stroke:context-stroke;stroke-width:1.0pt"
         d="M 0.0,0.0 L 5.0,-5.0 L -12.5,0.0 L 5.0,5.0 L 0.0,0.0 z "
         id="path24080" />
    </marker>
    <marker
       style="overflow:visible;"
       id="Arrow1Lend"
       refX="0.0"
       refY="0.0"
       orient="auto"
       inkscape:stockid="Arrow1Lend"
       inkscape:isstock="true">
      <path
         transform="scale(0.8) rotate(180) translate(12.5,0)"
         style="fill-rule:evenodd;fill:context-stroke;stroke:context-stroke;stroke-width:1.0pt;"
         d="M 0.0,0.0 L 5.0,-5.0 L -12.5,0.0 L 5.0,5.0 L 0.0,0.0 z "
         id="path24083" />
    </marker>
  </defs>
  <g
     inkscape:label="Informal Upright Style"
     inkscape:groupmode="layer"
     id="g17385"
     style="display:inline">
    <g
       id="g17299"
       transform="translate(157.36058,-8.4372489)"
       style="display:inline">
      <g
         id="g17297"
         transform="translate(-99.28418,15.207661)">
        <path
           style="display:inline;fill:#c49078;fill-opacity:1;stroke:#c49078;stroke-width:1;stroke-linecap:round;stroke-linejoin:round;stroke-miterlimit:4;stroke-dasharray:none;stroke-opacity:1"
           d="m 1.3438111,105.02403 c 0,0 1.67276,-4.3889 -5.29634,-12.902323 -5.77031,-7.049 -13.8088901,-10.89145 -10.0810001,-22.220767 2.98845,-9.082106 31.71641,-16.843433 36.92376,-22.50005 9.82115,-10.668487 4.67956,-12.619651 -1.58353,-22.120096 C 16.120271,17.413522 8.0705011,20.957555 7.7574611,9.5870616 14.803541,20.119696 25.572371,18.866153 27.251611,28.55162 c 3.25423,4.596313 8.98302,11.718683 5.98525,14.797826 -2.2954,2.357716 -9.08519,15.422411 -20.03503,17.643247 -9.5903099,1.945097 -16.1629199,12.6144 -16.1629199,12.6144 -0.83876,8.885304 16.1910099,9.784984 21.9744099,18.254694 5.64474,8.266633 8.35928,5.77528 10.95842,12.103913 1.20531,2.9348 -28.6279299,1.05833 -28.6279299,1.05833 z"
           id="path17293"
           sodipodi:nodetypes="cssssccsssssc" />
        <path
           id="path17295"
           style="display:inline;fill:#9f6e5c;fill-opacity:1;stroke:#9f6e5c;stroke-width:3.77953;stroke-linecap:round;stroke-linejoin:round;stroke-miterlimit:4;stroke-dasharray:none;stroke-opacity:1"
           d="m 616.93555,1.8886719 c 0.55432,20.1347921 7.52722,27.8974661 16.79883,33.5175781 -5.45695,-5.012127 -9.35289,-12.21383 -10.31641,-24.990234 -2.22889,-2.6069221 -4.40217,-5.4177306 -6.48242,-8.5273441 z m 41.48828,48.2539061 c 3.39981,2.902953 6.69017,6.465507 9.7207,11.0625 23.67153,35.907194 43.10565,43.281672 5.98633,83.603512 -19.68132,21.37934 -128.25976,50.713 -139.55469,85.03907 -14.08966,42.81948 16.29251,57.34248 38.10156,83.98437 26.33989,32.17671 20.01758,48.76367 20.01758,48.76367 0,0 2.85378,0.16826 6.91797,0.39063 0.26375,-6.79288 -1.99109,-21.72151 -20.65039,-44.51563 -21.80905,-26.64189 -52.19123,-41.16294 -38.10156,-83.98242 11.29493,-34.32607 119.87336,-63.66167 139.55469,-85.04101 37.11932,-40.32185 17.68519,-47.69633 -5.98633,-83.60352 -4.87199,-7.390285 -10.41195,-12.111719 -16.00586,-15.701172 z"
           transform="matrix(0.26458333,0,0,0.26458333,-155.47346,9.0871833)"
           sodipodi:nodetypes="cccccssssccssssc" />
      </g>
    </g>
    <g
       id="g74342-4-2"
       transform="matrix(1.8427433,0,0,0.55206973,-178.35954,74.243436)"
       style="display:inline">
      <path
         d="m 157.51223,66.642765 c 1.67216,3.453694 2.61408,7.327194 2.61408,11.415888 0,6.76275 -2.56469,12.929306 -6.77686,17.571861 -2.11667,2.331861 -5.13292,3.640667 -8.28322,3.640667 h -22.22147 c -3.15031,0 -6.16656,-1.305278 -8.28323,-3.640667 -4.21216,-4.642555 -6.77686,-10.809111 -6.77686,-17.571861 0,-4.088694 0.93839,-7.962194 2.61409,-11.415888 h 47.00058 l 0.0882,-0.04586 c 0.0106,0.01411 0.0176,0.03175 0.0247,0.04586 v 0"
         style="fill:#dadb90;fill-opacity:1;fill-rule:nonzero;stroke:none;stroke-width:0.0352778"
         id="path82-3-6" />
      <path
         d="m 119.50395,95.630514 c -4.21217,-4.642555 -6.78039,-10.809111 -6.78039,-17.571861 0,-4.088694 0.93839,-7.962194 2.61408,-11.415888 h -4.93888 c -1.6757,3.453694 -2.61409,7.327194 -2.61409,11.415888 0,6.76275 2.5647,12.929306 6.77686,17.571861 2.11667,2.335389 5.13292,3.640667 8.28323,3.640667 h 4.94241 c -3.1503,0 -6.17008,-1.305278 -8.28322,-3.640667"
         style="fill:#cecf71;fill-opacity:1;fill-rule:nonzero;stroke:none;stroke-width:0.0352778"
         id="path90-0-79" />
      <path
         d="m 150.626,57.883293 h -33.34455 c -2.86456,2.374194 -5.21758,5.341055 -6.86153,8.713611 -0.007,0.01411 -0.0141,0.03175 -0.0212,0.04586 h 47.00058 l 0.0882,-0.04586 c -1.64394,-3.372556 -3.99697,-6.339417 -6.86153,-8.713611 v 0"
         style="fill:#d2b77d;fill-opacity:1;fill-rule:nonzero;stroke:none;stroke-width:0.0352778"
         id="path94-7-3" />
      <path
         d="m 122.22387,57.883293 h -4.94242 c -2.86456,2.374194 -5.21758,5.341055 -6.86153,8.713611 -0.007,0.01411 -0.0141,0.03175 -0.0212,0.04586 h 4.93888 c 0.007,-0.01411 0.0141,-0.03175 0.0212,-0.04586 1.64747,-3.372556 3.99697,-6.339417 6.86506,-8.713611"
         style="fill:#c4a257;fill-opacity:1;fill-rule:nonzero;stroke:none;stroke-width:0.0352778"
         id="path96-6-8" />
    </g>
    <g
       id="g71859-9-1"
       transform="matrix(0.64572611,0,0,0.64572611,-75.809629,55.980222)"
       style="display:inline">
      <g
         id="g71795-0-41"
         transform="matrix(1,0,0,-1,18.25625,86.474996)">
        <path
           fill="#000000"
           d="m 128.2522,34.742849 a 4.7440164,4.7440164 0 0 0 -4.0305,2.248948 l 1.44511,0.885128 -1.44962,-0.876096 -12.81404,21.164047 -0.0135,0.02258 a 4.6627291,4.6627291 0 0 0 1.69574,6.394602 c 0.70901,0.413209 1.51285,0.634491 2.33475,0.643523 h 25.66421 a 4.7440164,4.7440164 0 0 0 4.04404,-2.359589 4.6604711,4.6604711 0 0 0 -0.0136,-4.678536 l -12.82533,-21.186626 -0.007,-0.009 a 4.7056307,4.7056307 0 0 0 -4.03049,-2.248948 z"
           id="path2-15-6-8"
           style="fill:#00cc99;fill-opacity:1;stroke-width:2.25799" />
        <path
           id="path2-15-1-0-4"
           style="display:inline;fill:#0e7b5f;fill-opacity:1;stroke-width:2.25799"
           d="m 128.2516,34.743004 a 4.7440164,4.7440164 0 0 0 -4.03024,2.248959 l 1.44539,0.885216 -1.45004,-0.875916 -12.81369,21.164084 -0.0134,0.02222 a 4.662729,4.662729 0 0 0 1.69551,6.394958 c 0.70901,0.413211 1.51284,0.634334 2.33474,0.643372 h 5.61878 c -0.74865,-0.04118 -1.47677,-0.256535 -2.12545,-0.634585 a 4.662729,4.662729 0 0 1 -1.69602,-6.394442 l 0.0134,-0.02274 12.81421,-21.164084 1.44952,0.876432 -1.44487,-0.885216 a 4.7440164,4.7440164 0 0 1 1.12551,-1.244886 4.7056307,4.7056307 0 0 0 -2.92282,-1.013373 z" />
      </g>
      <g
         id="g71795-9-7-2"
         transform="matrix(1,0,0,-1,41.611385,76.119468)"
         style="display:inline">
        <path
           fill="#000000"
           d="m 128.2522,34.742849 a 4.7440164,4.7440164 0 0 0 -4.0305,2.248948 l 1.44511,0.885128 -1.44962,-0.876096 -12.81404,21.164047 -0.0135,0.02258 a 4.6627291,4.6627291 0 0 0 1.69574,6.394602 c 0.70901,0.413209 1.51285,0.634491 2.33475,0.643523 h 25.66421 a 4.7440164,4.7440164 0 0 0 4.04404,-2.359589 4.6604711,4.6604711 0 0 0 -0.0136,-4.678536 l -12.82533,-21.186626 -0.007,-0.009 a 4.7056307,4.7056307 0 0 0 -4.03049,-2.248948 z"
           id="path2-15-5-8-15"
           style="fill:#00cc99;fill-opacity:1;stroke-width:2.25799" />
        <path
           id="path2-15-1-5-8-87"
           style="display:inline;fill:#0e7b5f;fill-opacity:1;stroke-width:2.25799"
           d="m 128.2516,34.743004 a 4.7440164,4.7440164 0 0 0 -4.03024,2.248959 l 1.44539,0.885216 -1.45004,-0.875916 -12.81369,21.164084 -0.0134,0.02222 a 4.662729,4.662729 0 0 0 1.69551,6.394958 c 0.70901,0.413211 1.51284,0.634334 2.33474,0.643372 h 5.61878 c -0.74865,-0.04118 -1.47677,-0.256535 -2.12545,-0.634585 a 4.662729,4.662729 0 0 1 -1.69602,-6.394442 l 0.0134,-0.02274 12.81421,-21.164084 1.44952,0.876432 -1.44487,-0.885216 a 4.7440164,4.7440164 0 0 1 1.12551,-1.244886 4.7056307,4.7056307 0 0 0 -2.92282,-1.013373 z" />
      </g>
      <g
         id="g71795-4-2-80"
         transform="matrix(1,0,0,-1,65.953052,86.761456)"
         style="display:inline">
        <path
           fill="#000000"
           d="m 128.2522,34.742849 a 4.7440164,4.7440164 0 0 0 -4.0305,2.248948 l 1.44511,0.885128 -1.44962,-0.876096 -12.81404,21.164047 -0.0135,0.02258 a 4.6627291,4.6627291 0 0 0 1.69574,6.394602 c 0.70901,0.413209 1.51285,0.634491 2.33475,0.643523 h 25.66421 a 4.7440164,4.7440164 0 0 0 4.04404,-2.359589 4.6604711,4.6604711 0 0 0 -0.0136,-4.678536 l -12.82533,-21.186626 -0.007,-0.009 a 4.7056307,4.7056307 0 0 0 -4.03049,-2.248948 z"
           id="path2-15-8-9-3"
           style="fill:#00cc99;fill-opacity:1;stroke-width:2.25799" />
        <path
           id="path2-15-1-1-5-56"
           style="display:inline;fill:#0e7b5f;fill-opacity:1;stroke-width:2.25799"
           d="m 128.2516,34.743004 a 4.7440164,4.7440164 0 0 0 -4.03024,2.248959 l 1.44539,0.885216 -1.45004,-0.875916 -12.81369,21.164084 -0.0134,0.02222 a 4.662729,4.662729 0 0 0 1.69551,6.394958 c 0.70901,0.413211 1.51284,0.634334 2.33474,0.643372 h 5.61878 c -0.74865,-0.04118 -1.47677,-0.256535 -2.12545,-0.634585 a 4.662729,4.662729 0 0 1 -1.69602,-6.394442 l 0.0134,-0.02274 12.81421,-21.164084 1.44952,0.876432 -1.44487,-0.885216 a 4.7440164,4.7440164 0 0 1 1.12551,-1.244886 4.7056307,4.7056307 0 0 0 -2.92282,-1.013373 z" />
      </g>
    </g>
    <g
       id="g71859-9-1-4"
       transform="matrix(0.54825802,0,0,0.54825802,-36.526937,33.668248)"
       style="display:inline">
      <g
         id="g71795-0-41-1"
         transform="matrix(1,0,0,-1,18.25625,86.474996)">
        <path
           fill="#000000"
           d="m 128.2522,34.742849 a 4.7440164,4.7440164 0 0 0 -4.0305,2.248948 l 1.44511,0.885128 -1.44962,-0.876096 -12.81404,21.164047 -0.0135,0.02258 a 4.6627291,4.6627291 0 0 0 1.69574,6.394602 c 0.70901,0.413209 1.51285,0.634491 2.33475,0.643523 h 25.66421 a 4.7440164,4.7440164 0 0 0 4.04404,-2.359589 4.6604711,4.6604711 0 0 0 -0.0136,-4.678536 l -12.82533,-21.186626 -0.007,-0.009 a 4.7056307,4.7056307 0 0 0 -4.03049,-2.248948 z"
           id="path2-15-6-8-67"
           style="fill:#00cc99;fill-opacity:1;stroke-width:2.25799" />
        <path
           id="path2-15-1-0-4-4"
           style="display:inline;fill:#0e7b5f;fill-opacity:1;stroke-width:2.25799"
           d="m 128.2516,34.743004 a 4.7440164,4.7440164 0 0 0 -4.03024,2.248959 l 1.44539,0.885216 -1.45004,-0.875916 -12.81369,21.164084 -0.0134,0.02222 a 4.662729,4.662729 0 0 0 1.69551,6.394958 c 0.70901,0.413211 1.51284,0.634334 2.33474,0.643372 h 5.61878 c -0.74865,-0.04118 -1.47677,-0.256535 -2.12545,-0.634585 a 4.662729,4.662729 0 0 1 -1.69602,-6.394442 l 0.0134,-0.02274 12.81421,-21.164084 1.44952,0.876432 -1.44487,-0.885216 a 4.7440164,4.7440164 0 0 1 1.12551,-1.244886 4.7056307,4.7056307 0 0 0 -2.92282,-1.013373 z" />
      </g>
      <g
         id="g71795-9-7-2-2"
         transform="matrix(1,0,0,-1,41.611385,76.119468)"
         style="display:inline">
        <path
           fill="#000000"
           d="m 128.2522,34.742849 a 4.7440164,4.7440164 0 0 0 -4.0305,2.248948 l 1.44511,0.885128 -1.44962,-0.876096 -12.81404,21.164047 -0.0135,0.02258 a 4.6627291,4.6627291 0 0 0 1.69574,6.394602 c 0.70901,0.413209 1.51285,0.634491 2.33475,0.643523 h 25.66421 a 4.7440164,4.7440164 0 0 0 4.04404,-2.359589 4.6604711,4.6604711 0 0 0 -0.0136,-4.678536 l -12.82533,-21.186626 -0.007,-0.009 a 4.7056307,4.7056307 0 0 0 -4.03049,-2.248948 z"
           id="path2-15-5-8-15-3"
           style="fill:#00cc99;fill-opacity:1;stroke-width:2.25799" />
        <path
           id="path2-15-1-5-8-87-3"
           style="display:inline;fill:#0e7b5f;fill-opacity:1;stroke-width:2.25799"
           d="m 128.2516,34.743004 a 4.7440164,4.7440164 0 0 0 -4.03024,2.248959 l 1.44539,0.885216 -1.45004,-0.875916 -12.81369,21.164084 -0.0134,0.02222 a 4.662729,4.662729 0 0 0 1.69551,6.394958 c 0.70901,0.413211 1.51284,0.634334 2.33474,0.643372 h 5.61878 c -0.74865,-0.04118 -1.47677,-0.256535 -2.12545,-0.634585 a 4.662729,4.662729 0 0 1 -1.69602,-6.394442 l 0.0134,-0.02274 12.81421,-21.164084 1.44952,0.876432 -1.44487,-0.885216 a 4.7440164,4.7440164 0 0 1 1.12551,-1.244886 4.7056307,4.7056307 0 0 0 -2.92282,-1.013373 z" />
      </g>
      <g
         id="g71795-4-2-80-5"
         transform="matrix(1,0,0,-1,65.953052,86.761456)"
         style="display:inline">
        <path
           fill="#000000"
           d="m 128.2522,34.742849 a 4.7440164,4.7440164 0 0 0 -4.0305,2.248948 l 1.44511,0.885128 -1.44962,-0.876096 -12.81404,21.164047 -0.0135,0.02258 a 4.6627291,4.6627291 0 0 0 1.69574,6.394602 c 0.70901,0.413209 1.51285,0.634491 2.33475,0.643523 h 25.66421 a 4.7440164,4.7440164 0 0 0 4.04404,-2.359589 4.6604711,4.6604711 0 0 0 -0.0136,-4.678536 l -12.82533,-21.186626 -0.007,-0.009 a 4.7056307,4.7056307 0 0 0 -4.03049,-2.248948 z"
           id="path2-15-8-9-3-8"
           style="fill:#00cc99;fill-opacity:1;stroke-width:2.25799" />
        <path
           id="path2-15-1-1-5-56-5"
           style="display:inline;fill:#0e7b5f;fill-opacity:1;stroke-width:2.25799"
           d="m 128.2516,34.743004 a 4.7440164,4.7440164 0 0 0 -4.03024,2.248959 l 1.44539,0.885216 -1.45004,-0.875916 -12.81369,21.164084 -0.0134,0.02222 a 4.662729,4.662729 0 0 0 1.69551,6.394958 c 0.70901,0.413211 1.51284,0.634334 2.33474,0.643372 h 5.61878 c -0.74865,-0.04118 -1.47677,-0.256535 -2.12545,-0.634585 a 4.662729,4.662729 0 0 1 -1.69602,-6.394442 l 0.0134,-0.02274 12.81421,-21.164084 1.44952,0.876432 -1.44487,-0.885216 a 4.7440164,4.7440164 0 0 1 1.12551,-1.244886 4.7056307,4.7056307 0 0 0 -2.92282,-1.013373 z" />
      </g>
    </g>
    <g
       id="g71859-9-1-4-4"
       transform="matrix(0.48734046,0,0,0.48734046,-16.343263,0.27193322)"
       style="display:inline">
      <g
         id="g71795-0-41-1-3"
         transform="matrix(1,0,0,-1,18.25625,86.474996)">
        <path
           fill="#000000"
           d="m 128.2522,34.742849 a 4.7440164,4.7440164 0 0 0 -4.0305,2.248948 l 1.44511,0.885128 -1.44962,-0.876096 -12.81404,21.164047 -0.0135,0.02258 a 4.6627291,4.6627291 0 0 0 1.69574,6.394602 c 0.70901,0.413209 1.51285,0.634491 2.33475,0.643523 h 25.66421 a 4.7440164,4.7440164 0 0 0 4.04404,-2.359589 4.6604711,4.6604711 0 0 0 -0.0136,-4.678536 l -12.82533,-21.186626 -0.007,-0.009 a 4.7056307,4.7056307 0 0 0 -4.03049,-2.248948 z"
           id="path2-15-6-8-67-4"
           style="fill:#00cc99;fill-opacity:1;stroke-width:2.25799" />
        <path
           id="path2-15-1-0-4-4-9"
           style="display:inline;fill:#0e7b5f;fill-opacity:1;stroke-width:2.25799"
           d="m 128.2516,34.743004 a 4.7440164,4.7440164 0 0 0 -4.03024,2.248959 l 1.44539,0.885216 -1.45004,-0.875916 -12.81369,21.164084 -0.0134,0.02222 a 4.662729,4.662729 0 0 0 1.69551,6.394958 c 0.70901,0.413211 1.51284,0.634334 2.33474,0.643372 h 5.61878 c -0.74865,-0.04118 -1.47677,-0.256535 -2.12545,-0.634585 a 4.662729,4.662729 0 0 1 -1.69602,-6.394442 l 0.0134,-0.02274 12.81421,-21.164084 1.44952,0.876432 -1.44487,-0.885216 a 4.7440164,4.7440164 0 0 1 1.12551,-1.244886 4.7056307,4.7056307 0 0 0 -2.92282,-1.013373 z" />
      </g>
      <g
         id="g71795-9-7-2-2-1"
         transform="matrix(1,0,0,-1,41.611385,76.119468)"
         style="display:inline">
        <path
           fill="#000000"
           d="m 128.2522,34.742849 a 4.7440164,4.7440164 0 0 0 -4.0305,2.248948 l 1.44511,0.885128 -1.44962,-0.876096 -12.81404,21.164047 -0.0135,0.02258 a 4.6627291,4.6627291 0 0 0 1.69574,6.394602 c 0.70901,0.413209 1.51285,0.634491 2.33475,0.643523 h 25.66421 a 4.7440164,4.7440164 0 0 0 4.04404,-2.359589 4.6604711,4.6604711 0 0 0 -0.0136,-4.678536 l -12.82533,-21.186626 -0.007,-0.009 a 4.7056307,4.7056307 0 0 0 -4.03049,-2.248948 z"
           id="path2-15-5-8-15-3-7"
           style="fill:#00cc99;fill-opacity:1;stroke-width:2.25799" />
        <path
           id="path2-15-1-5-8-87-3-3"
           style="display:inline;fill:#0e7b5f;fill-opacity:1;stroke-width:2.25799"
           d="m 128.2516,34.743004 a 4.7440164,4.7440164 0 0 0 -4.03024,2.248959 l 1.44539,0.885216 -1.45004,-0.875916 -12.81369,21.164084 -0.0134,0.02222 a 4.662729,4.662729 0 0 0 1.69551,6.394958 c 0.70901,0.413211 1.51284,0.634334 2.33474,0.643372 h 5.61878 c -0.74865,-0.04118 -1.47677,-0.256535 -2.12545,-0.634585 a 4.662729,4.662729 0 0 1 -1.69602,-6.394442 l 0.0134,-0.02274 12.81421,-21.164084 1.44952,0.876432 -1.44487,-0.885216 a 4.7440164,4.7440164 0 0 1 1.12551,-1.244886 4.7056307,4.7056307 0 0 0 -2.92282,-1.013373 z" />
      </g>
      <g
         id="g71795-4-2-80-5-9"
         transform="matrix(1,0,0,-1,65.953052,86.761456)"
         style="display:inline">
        <path
           fill="#000000"
           d="m 128.2522,34.742849 a 4.7440164,4.7440164 0 0 0 -4.0305,2.248948 l 1.44511,0.885128 -1.44962,-0.876096 -12.81404,21.164047 -0.0135,0.02258 a 4.6627291,4.6627291 0 0 0 1.69574,6.394602 c 0.70901,0.413209 1.51285,0.634491 2.33475,0.643523 h 25.66421 a 4.7440164,4.7440164 0 0 0 4.04404,-2.359589 4.6604711,4.6604711 0 0 0 -0.0136,-4.678536 l -12.82533,-21.186626 -0.007,-0.009 a 4.7056307,4.7056307 0 0 0 -4.03049,-2.248948 z"
           id="path2-15-8-9-3-8-3"
           style="fill:#00cc99;fill-opacity:1;stroke-width:2.25799" />
        <path
           id="path2-15-1-1-5-56-5-2"
           style="display:inline;fill:#0e7b5f;fill-opacity:1;stroke-width:2.25799"
           d="m 128.2516,34.743004 a 4.7440164,4.7440164 0 0 0 -4.03024,2.248959 l 1.44539,0.885216 -1.45004,-0.875916 -12.81369,21.164084 -0.0134,0.02222 a 4.662729,4.662729 0 0 0 1.69551,6.394958 c 0.70901,0.413211 1.51284,0.634334 2.33474,0.643372 h 5.61878 c -0.74865,-0.04118 -1.47677,-0.256535 -2.12545,-0.634585 a 4.662729,4.662729 0 0 1 -1.69602,-6.394442 l 0.0134,-0.02274 12.81421,-21.164084 1.44952,0.876432 -1.44487,-0.885216 a 4.7440164,4.7440164 0 0 1 1.12551,-1.244886 4.7056307,4.7056307 0 0 0 -2.92282,-1.013373 z" />
      </g>
    </g>
    <g
       id="g71859-9-1-4-0"
       transform="matrix(0.54825802,0,0,0.54825802,1.992143,19.179823)"
       style="display:inline">
      <g
         id="g71795-0-41-1-2"
         transform="matrix(1,0,0,-1,18.25625,86.474996)">
        <path
           fill="#000000"
           d="m 128.2522,34.742849 a 4.7440164,4.7440164 0 0 0 -4.0305,2.248948 l 1.44511,0.885128 -1.44962,-0.876096 -12.81404,21.164047 -0.0135,0.02258 a 4.6627291,4.6627291 0 0 0 1.69574,6.394602 c 0.70901,0.413209 1.51285,0.634491 2.33475,0.643523 h 25.66421 a 4.7440164,4.7440164 0 0 0 4.04404,-2.359589 4.6604711,4.6604711 0 0 0 -0.0136,-4.678536 l -12.82533,-21.186626 -0.007,-0.009 a 4.7056307,4.7056307 0 0 0 -4.03049,-2.248948 z"
           id="path2-15-6-8-67-5"
           style="fill:#00cc99;fill-opacity:1;stroke-width:2.25799" />
        <path
           id="path2-15-1-0-4-4-8"
           style="display:inline;fill:#0e7b5f;fill-opacity:1;stroke-width:2.25799"
           d="m 128.2516,34.743004 a 4.7440164,4.7440164 0 0 0 -4.03024,2.248959 l 1.44539,0.885216 -1.45004,-0.875916 -12.81369,21.164084 -0.0134,0.02222 a 4.662729,4.662729 0 0 0 1.69551,6.394958 c 0.70901,0.413211 1.51284,0.634334 2.33474,0.643372 h 5.61878 c -0.74865,-0.04118 -1.47677,-0.256535 -2.12545,-0.634585 a 4.662729,4.662729 0 0 1 -1.69602,-6.394442 l 0.0134,-0.02274 12.81421,-21.164084 1.44952,0.876432 -1.44487,-0.885216 a 4.7440164,4.7440164 0 0 1 1.12551,-1.244886 4.7056307,4.7056307 0 0 0 -2.92282,-1.013373 z" />
      </g>
      <g
         id="g71795-9-7-2-2-2"
         transform="matrix(1,0,0,-1,41.611385,76.119468)"
         style="display:inline">
        <path
           fill="#000000"
           d="m 128.2522,34.742849 a 4.7440164,4.7440164 0 0 0 -4.0305,2.248948 l 1.44511,0.885128 -1.44962,-0.876096 -12.81404,21.164047 -0.0135,0.02258 a 4.6627291,4.6627291 0 0 0 1.69574,6.394602 c 0.70901,0.413209 1.51285,0.634491 2.33475,0.643523 h 25.66421 a 4.7440164,4.7440164 0 0 0 4.04404,-2.359589 4.6604711,4.6604711 0 0 0 -0.0136,-4.678536 l -12.82533,-21.186626 -0.007,-0.009 a 4.7056307,4.7056307 0 0 0 -4.03049,-2.248948 z"
           id="path2-15-5-8-15-3-2"
           style="fill:#00cc99;fill-opacity:1;stroke-width:2.25799" />
        <path
           id="path2-15-1-5-8-87-3-5"
           style="display:inline;fill:#0e7b5f;fill-opacity:1;stroke-width:2.25799"
           d="m 128.2516,34.743004 a 4.7440164,4.7440164 0 0 0 -4.03024,2.248959 l 1.44539,0.885216 -1.45004,-0.875916 -12.81369,21.164084 -0.0134,0.02222 a 4.662729,4.662729 0 0 0 1.69551,6.394958 c 0.70901,0.413211 1.51284,0.634334 2.33474,0.643372 h 5.61878 c -0.74865,-0.04118 -1.47677,-0.256535 -2.12545,-0.634585 a 4.662729,4.662729 0 0 1 -1.69602,-6.394442 l 0.0134,-0.02274 12.81421,-21.164084 1.44952,0.876432 -1.44487,-0.885216 a 4.7440164,4.7440164 0 0 1 1.12551,-1.244886 4.7056307,4.7056307 0 0 0 -2.92282,-1.013373 z" />
      </g>
      <g
         id="g71795-4-2-80-5-8"
         transform="matrix(1,0,0,-1,65.953052,86.761456)"
         style="display:inline">
        <path
           fill="#000000"
           d="m 128.2522,34.742849 a 4.7440164,4.7440164 0 0 0 -4.0305,2.248948 l 1.44511,0.885128 -1.44962,-0.876096 -12.81404,21.164047 -0.0135,0.02258 a 4.6627291,4.6627291 0 0 0 1.69574,6.394602 c 0.70901,0.413209 1.51285,0.634491 2.33475,0.643523 h 25.66421 a 4.7440164,4.7440164 0 0 0 4.04404,-2.359589 4.6604711,4.6604711 0 0 0 -0.0136,-4.678536 l -12.82533,-21.186626 -0.007,-0.009 a 4.7056307,4.7056307 0 0 0 -4.03049,-2.248948 z"
           id="path2-15-8-9-3-8-1"
           style="fill:#00cc99;fill-opacity:1;stroke-width:2.25799" />
        <path
           id="path2-15-1-1-5-56-5-3"
           style="display:inline;fill:#0e7b5f;fill-opacity:1;stroke-width:2.25799"
           d="m 128.2516,34.743004 a 4.7440164,4.7440164 0 0 0 -4.03024,2.248959 l 1.44539,0.885216 -1.45004,-0.875916 -12.81369,21.164084 -0.0134,0.02222 a 4.662729,4.662729 0 0 0 1.69551,6.394958 c 0.70901,0.413211 1.51284,0.634334 2.33474,0.643372 h 5.61878 c -0.74865,-0.04118 -1.47677,-0.256535 -2.12545,-0.634585 a 4.662729,4.662729 0 0 1 -1.69602,-6.394442 l 0.0134,-0.02274 12.81421,-21.164084 1.44952,0.876432 -1.44487,-0.885216 a 4.7440164,4.7440164 0 0 1 1.12551,-1.244886 4.7056307,4.7056307 0 0 0 -2.92282,-1.013373 z" />
      </g>
    </g>
    <g
       id="g71859-9-1-5"
       transform="matrix(0.64572611,0,0,0.64572611,-9.9552103,47.261814)"
       style="display:inline">
      <g
         id="g71795-0-41-4"
         transform="matrix(1,0,0,-1,18.25625,86.474996)">
        <path
           fill="#000000"
           d="m 128.2522,34.742849 a 4.7440164,4.7440164 0 0 0 -4.0305,2.248948 l 1.44511,0.885128 -1.44962,-0.876096 -12.81404,21.164047 -0.0135,0.02258 a 4.6627291,4.6627291 0 0 0 1.69574,6.394602 c 0.70901,0.413209 1.51285,0.634491 2.33475,0.643523 h 25.66421 a 4.7440164,4.7440164 0 0 0 4.04404,-2.359589 4.6604711,4.6604711 0 0 0 -0.0136,-4.678536 l -12.82533,-21.186626 -0.007,-0.009 a 4.7056307,4.7056307 0 0 0 -4.03049,-2.248948 z"
           id="path2-15-6-8-6"
           style="fill:#00cc99;fill-opacity:1;stroke-width:2.25799" />
        <path
           id="path2-15-1-0-4-7"
           style="display:inline;fill:#0e7b5f;fill-opacity:1;stroke-width:2.25799"
           d="m 128.2516,34.743004 a 4.7440164,4.7440164 0 0 0 -4.03024,2.248959 l 1.44539,0.885216 -1.45004,-0.875916 -12.81369,21.164084 -0.0134,0.02222 a 4.662729,4.662729 0 0 0 1.69551,6.394958 c 0.70901,0.413211 1.51284,0.634334 2.33474,0.643372 h 5.61878 c -0.74865,-0.04118 -1.47677,-0.256535 -2.12545,-0.634585 a 4.662729,4.662729 0 0 1 -1.69602,-6.394442 l 0.0134,-0.02274 12.81421,-21.164084 1.44952,0.876432 -1.44487,-0.885216 a 4.7440164,4.7440164 0 0 1 1.12551,-1.244886 4.7056307,4.7056307 0 0 0 -2.92282,-1.013373 z" />
      </g>
      <g
         id="g71795-9-7-2-5"
         transform="matrix(1,0,0,-1,41.611385,76.119468)"
         style="display:inline">
        <path
           fill="#000000"
           d="m 128.2522,34.742849 a 4.7440164,4.7440164 0 0 0 -4.0305,2.248948 l 1.44511,0.885128 -1.44962,-0.876096 -12.81404,21.164047 -0.0135,0.02258 a 4.6627291,4.6627291 0 0 0 1.69574,6.394602 c 0.70901,0.413209 1.51285,0.634491 2.33475,0.643523 h 25.66421 a 4.7440164,4.7440164 0 0 0 4.04404,-2.359589 4.6604711,4.6604711 0 0 0 -0.0136,-4.678536 l -12.82533,-21.186626 -0.007,-0.009 a 4.7056307,4.7056307 0 0 0 -4.03049,-2.248948 z"
           id="path2-15-5-8-15-7"
           style="fill:#00cc99;fill-opacity:1;stroke-width:2.25799" />
        <path
           id="path2-15-1-5-8-87-8"
           style="display:inline;fill:#0e7b5f;fill-opacity:1;stroke-width:2.25799"
           d="m 128.2516,34.743004 a 4.7440164,4.7440164 0 0 0 -4.03024,2.248959 l 1.44539,0.885216 -1.45004,-0.875916 -12.81369,21.164084 -0.0134,0.02222 a 4.662729,4.662729 0 0 0 1.69551,6.394958 c 0.70901,0.413211 1.51284,0.634334 2.33474,0.643372 h 5.61878 c -0.74865,-0.04118 -1.47677,-0.256535 -2.12545,-0.634585 a 4.662729,4.662729 0 0 1 -1.69602,-6.394442 l 0.0134,-0.02274 12.81421,-21.164084 1.44952,0.876432 -1.44487,-0.885216 a 4.7440164,4.7440164 0 0 1 1.12551,-1.244886 4.7056307,4.7056307 0 0 0 -2.92282,-1.013373 z" />
      </g>
      <g
         id="g71795-4-2-80-9"
         transform="matrix(1,0,0,-1,65.953052,86.761456)"
         style="display:inline">
        <path
           fill="#000000"
           d="m 128.2522,34.742849 a 4.7440164,4.7440164 0 0 0 -4.0305,2.248948 l 1.44511,0.885128 -1.44962,-0.876096 -12.81404,21.164047 -0.0135,0.02258 a 4.6627291,4.6627291 0 0 0 1.69574,6.394602 c 0.70901,0.413209 1.51285,0.634491 2.33475,0.643523 h 25.66421 a 4.7440164,4.7440164 0 0 0 4.04404,-2.359589 4.6604711,4.6604711 0 0 0 -0.0136,-4.678536 l -12.82533,-21.186626 -0.007,-0.009 a 4.7056307,4.7056307 0 0 0 -4.03049,-2.248948 z"
           id="path2-15-8-9-3-5"
           style="fill:#00cc99;fill-opacity:1;stroke-width:2.25799" />
        <path
           id="path2-15-1-1-5-56-7"
           style="display:inline;fill:#0e7b5f;fill-opacity:1;stroke-width:2.25799"
           d="m 128.2516,34.743004 a 4.7440164,4.7440164 0 0 0 -4.03024,2.248959 l 1.44539,0.885216 -1.45004,-0.875916 -12.81369,21.164084 -0.0134,0.02222 a 4.662729,4.662729 0 0 0 1.69551,6.394958 c 0.70901,0.413211 1.51284,0.634334 2.33474,0.643372 h 5.61878 c -0.74865,-0.04118 -1.47677,-0.256535 -2.12545,-0.634585 a 4.662729,4.662729 0 0 1 -1.69602,-6.394442 l 0.0134,-0.02274 12.81421,-21.164084 1.44952,0.876432 -1.44487,-0.885216 a 4.7440164,4.7440164 0 0 1 1.12551,-1.244886 4.7056307,4.7056307 0 0 0 -2.92282,-1.013373 z" />
      </g>
    </g>
  </g>
</svg>
