<?xml version="1.0" encoding="UTF-8" standalone="no"?>
<!-- Created with Inkscape (http://www.inkscape.org/) -->

<svg
   width="500"
   height="500"
   viewBox="0 0 132.29166 132.29167"
   version="1.1"
   id="svg2515"
   inkscape:version="1.1.2 (b8e25be833, 2022-02-05)"
   sodipodi:docname="bonsai07s00normal.svg"
   inkscape:export-filename="C:\Users\Lenovo\Desktop\Coding\Media files\Bonsais\bonsai07.png"
   inkscape:export-xdpi="96"
   inkscape:export-ydpi="96"
   xmlns:inkscape="http://www.inkscape.org/namespaces/inkscape"
   xmlns:sodipodi="http://sodipodi.sourceforge.net/DTD/sodipodi-0.dtd"
   xmlns="http://www.w3.org/2000/svg"
   xmlns:svg="http://www.w3.org/2000/svg">
  <sodipodi:namedview
     id="namedview2517"
     pagecolor="#ffffff"
     bordercolor="#666666"
     borderopacity="1.0"
     inkscape:pageshadow="2"
     inkscape:pageopacity="0.0"
     inkscape:pagecheckerboard="0"
     inkscape:document-units="mm"
     showgrid="false"
     units="px"
     inkscape:zoom="1.4142136"
     inkscape:cx="272.58966"
     inkscape:cy="252.08356"
     inkscape:window-width="1920"
     inkscape:window-height="1001"
     inkscape:window-x="-9"
     inkscape:window-y="-9"
     inkscape:window-maximized="1"
     inkscape:current-layer="g41450" />
  <defs
     id="defs2512">
    <marker
       style="overflow:visible"
       id="Arrow1Sstart"
       refX="0.0"
       refY="0.0"
       orient="auto"
       inkscape:stockid="Arrow1Sstart"
       inkscape:isstock="true">
      <path
         transform="scale(0.2) translate(6,0)"
         style="fill-rule:evenodd;fill:context-stroke;stroke:context-stroke;stroke-width:1.0pt"
         d="M 0.0,0.0 L 5.0,-5.0 L -12.5,0.0 L 5.0,5.0 L 0.0,0.0 z "
         id="path24092" />
    </marker>
    <marker
       style="overflow:visible"
       id="Arrow1Mstart"
       refX="0.0"
       refY="0.0"
       orient="auto"
       inkscape:stockid="Arrow1Mstart"
       inkscape:isstock="true">
      <path
         transform="scale(0.4) translate(10,0)"
         style="fill-rule:evenodd;fill:context-stroke;stroke:context-stroke;stroke-width:1.0pt"
         d="M 0.0,0.0 L 5.0,-5.0 L -12.5,0.0 L 5.0,5.0 L 0.0,0.0 z "
         id="path24086" />
    </marker>
    <marker
       style="overflow:visible"
       id="Arrow1Lstart"
       refX="0.0"
       refY="0.0"
       orient="auto"
       inkscape:stockid="Arrow1Lstart"
       inkscape:isstock="true">
      <path
         transform="scale(0.8) translate(12.5,0)"
         style="fill-rule:evenodd;fill:context-stroke;stroke:context-stroke;stroke-width:1.0pt"
         d="M 0.0,0.0 L 5.0,-5.0 L -12.5,0.0 L 5.0,5.0 L 0.0,0.0 z "
         id="path24080" />
    </marker>
    <marker
       style="overflow:visible;"
       id="Arrow1Lend"
       refX="0.0"
       refY="0.0"
       orient="auto"
       inkscape:stockid="Arrow1Lend"
       inkscape:isstock="true">
      <path
         transform="scale(0.8) rotate(180) translate(12.5,0)"
         style="fill-rule:evenodd;fill:context-stroke;stroke:context-stroke;stroke-width:1.0pt;"
         d="M 0.0,0.0 L 5.0,-5.0 L -12.5,0.0 L 5.0,5.0 L 0.0,0.0 z "
         id="path24083" />
    </marker>
  </defs>
  <g
     inkscape:label="Seedling"
     inkscape:groupmode="layer"
     id="g41450"
     style="display:inline">
    <g
       id="g12942"
       transform="matrix(1.1087839,-0.524201,0.524201,1.1087839,-99.15334,51.939833)"
       style="display:inline">
      <g
         id="g12940"
         transform="rotate(52.341693,37.478195,160.98666)"
         style="display:inline">
        <path
           style="display:inline;fill:#c49078;fill-opacity:1;stroke:#c49078;stroke-width:0.21573px;stroke-linecap:butt;stroke-linejoin:miter;stroke-opacity:1"
           d="m -16.77114,19.210699 c -7.149057,-5.290116 12.7222869,12.508911 16.7419545,15.682334 4.026542,3.178851 12.0796305,5.933855 13.9869405,9.748475 1.907311,3.81463 5.51001,11.86772 6.78155,10.59618 1.271541,-1.27155 -6.357702,-16.530034 -9.748477,-16.530034 -3.3907745,0 -13.0522215,-7.37746 -15.4704066,-9.536554 -5.9338564,-5.298085 -6.3426434,-5.558358 -12.2915614,-9.960401 z"
           id="path12936"
           sodipodi:nodetypes="sssssss" />
        <path
           id="path12938"
           style="fill:#996a5a;fill-opacity:1;stroke:#996a5a;stroke-width:0.999998px;stroke-linecap:butt;stroke-linejoin:miter;stroke-opacity:1"
           d="m -320.57422,0.50195312 c -4.31489,-0.43449032 68.2451,64.34347688 84.54883,77.21484388 18.6647,14.735294 55.99476,27.505143 64.83594,45.187503 8.84118,17.68236 25.54143,55.01326 31.43554,49.11914 0.51541,-0.51541 0.70765,-1.53686 0.63282,-2.95313 -6.24279,3.7977 -22.36547,-32.19187 -30.99805,-49.45703 -8.84117,-17.68236 -46.17124,-30.452205 -64.83594,-45.187499 -12.11288,-9.562808 -55.25156,-47.756254 -74.87304,-66.5917966 -1.28968,-0.9539158 -2.38412,-1.7627562 -3.80274,-2.8125 -4.14235,-3.0652355 -6.32695,-4.45746123 -6.94336,-4.51953128 z"
           transform="matrix(0.21573041,0,0,0.21573041,50.888527,18.127204)" />
      </g>
    </g>
    <g
       id="g826"
       transform="matrix(0.18000336,0,0,0.18000336,19.912331,34.307367)">
      <path
         style="fill:#ff7043"
         d="M 423.085,310.775 H 90.612 v -34.997 c 0,-9.668 7.831,-17.499 17.499,-17.499 h 297.476 c 9.668,0 17.499,7.831 17.499,17.499 v 34.997 z"
         id="path4" />
      <polygon
         style="fill:#ff5722"
         points="90.612,310.775 423.085,310.775 388.088,485.761 125.609,485.761 "
         id="polygon6" />
      <path
         style="fill:#d84315"
         d="M 414.335,512.009 H 99.361 c -14.498,0 -26.248,-11.75 -26.248,-26.248 v -8.749 h 367.47 v 8.749 c 0,14.497 -11.75,26.248 -26.248,26.248 z"
         id="path8" />
    </g>
    <g
       id="g12950"
       transform="matrix(1.1920448,0.28847441,-0.28847441,1.1920448,-18.257176,-50.438165)"
       style="display:inline">
      <g
         id="g12948"
         transform="rotate(69.050902,25.05929,116.22513)"
         style="display:inline">
        <path
           style="display:inline;fill:#c49078;fill-opacity:1;stroke:#c49078;stroke-width:0.21573px;stroke-linecap:butt;stroke-linejoin:miter;stroke-opacity:1"
           d="m -16.77114,19.210699 c -7.149057,-5.290116 12.7222869,12.508911 16.7419545,15.682334 4.026542,3.178851 7.7129208,3.997908 11.3965135,6.916094 1.095133,-1.036855 3.531739,-0.893495 2.218981,-1.572961 C 10.531015,39.557586 -2.0613935,31.330194 -4.4795786,29.1711 -10.413435,23.873015 -10.822222,23.612742 -16.77114,19.210699 Z"
           id="path12944"
           sodipodi:nodetypes="ssccss" />
        <path
           id="path12946"
           style="fill:#996a5a;fill-opacity:1;stroke:#996a5a;stroke-width:0.999998px;stroke-linecap:butt;stroke-linejoin:miter;stroke-opacity:1"
           d="m -320.57422,0.50195312 c -4.31489,-0.43449032 68.2451,64.34347688 84.54883,77.21484388 18.6647,14.735294 43.07238,25.467693 52.82823,32.058743 1.84643,-6.51249 -35.14787,-22.736431 -51.75792,-35.349759 -12.11288,-9.562808 -55.25156,-47.756254 -74.87304,-66.5917966 -1.28968,-0.9539158 -2.38412,-1.7627562 -3.80274,-2.8125 -4.14235,-3.0652355 -6.32695,-4.45746123 -6.94336,-4.51953128 z"
           transform="matrix(0.21573041,0,0,0.21573041,50.888527,18.127204)"
           sodipodi:nodetypes="sscccss" />
      </g>
    </g>
    <g
       id="g12992"
       transform="matrix(1.221846,0,0,1.221846,-9.011843,18.494814)"
       style="display:inline">
      <g
         id="g13172-1-7"
         transform="matrix(0.34627099,0,0,0.34627099,4.6326264,30.77286)"
         style="display:inline">
        <g
           id="g1026-5-3"
           transform="matrix(1.7323514,0,0,1.7323514,88.015267,-80.552475)">
          <polygon
             class="cls-1"
             points="15.24,63.47 30.37,63.47 37.93,50.37 30.37,37.27 15.24,37.27 7.67,50.37 "
             id="polygon14-4-2"
             style="fill:#99cc00;fill-opacity:1" />
          <path
             id="polygon16-3-6"
             style="fill:#6d9003;fill-opacity:1;stroke-width:1"
             class="cls-1"
             d="M 15.240068,37.269902 7.67,50.37 15.240068,63.480107 h 5.759521 L 13.479081,50.448613 21.03914,37.348516 h 9.376221 l -0.04541,-0.07861 z" />
        </g>
        <g
           id="g1026-9-48-4"
           transform="matrix(1.7323514,0,0,1.7323514,124.5879,-98.495687)">
          <polygon
             class="cls-1"
             points="37.93,50.37 30.37,37.27 15.24,37.27 7.67,50.37 15.24,63.47 30.37,63.47 "
             id="polygon14-3-3-3"
             style="fill:#99cc00;fill-opacity:1" />
          <path
             id="polygon16-8-8-5"
             style="fill:#6d9003;fill-opacity:1;stroke-width:1"
             class="cls-1"
             d="M 15.240068,37.269902 7.67,50.37 15.240068,63.480107 h 5.759521 L 13.479081,50.448613 21.03914,37.348516 h 9.376221 l -0.04541,-0.07861 z" />
        </g>
        <g
           id="g1026-9-4-4-7"
           transform="matrix(1.7323514,0,0,1.7323514,160.86322,-80.773313)">
          <polygon
             class="cls-1"
             points="37.93,50.37 30.37,37.27 15.24,37.27 7.67,50.37 15.24,63.47 30.37,63.47 "
             id="polygon14-3-9-4-8"
             style="fill:#99cc00;fill-opacity:1" />
          <path
             id="polygon16-8-1-0-7"
             style="fill:#6d9003;fill-opacity:1;stroke-width:1"
             class="cls-1"
             d="M 15.240068,37.269902 7.67,50.37 15.240068,63.480107 h 5.759521 L 13.479081,50.448613 21.03914,37.348516 h 9.376221 l -0.04541,-0.07861 z" />
        </g>
      </g>
      <g
         id="g13172-1-7-3"
         transform="matrix(0.2613366,0,0,0.2613366,37.656101,7.1254255)"
         style="display:inline">
        <g
           id="g1026-5-3-7"
           transform="matrix(1.7323514,0,0,1.7323514,88.015267,-80.552475)">
          <polygon
             class="cls-1"
             points="30.37,37.27 15.24,37.27 7.67,50.37 15.24,63.47 30.37,63.47 37.93,50.37 "
             id="polygon14-4-2-8"
             style="fill:#99cc00;fill-opacity:1" />
          <path
             id="polygon16-3-6-4"
             style="fill:#6d9003;fill-opacity:1;stroke-width:1"
             class="cls-1"
             d="M 15.240068,37.269902 7.67,50.37 15.240068,63.480107 h 5.759521 L 13.479081,50.448613 21.03914,37.348516 h 9.376221 l -0.04541,-0.07861 z" />
        </g>
        <g
           id="g1026-9-48-4-0"
           transform="matrix(1.7323514,0,0,1.7323514,124.5879,-98.495687)">
          <polygon
             class="cls-1"
             points="7.67,50.37 15.24,63.47 30.37,63.47 37.93,50.37 30.37,37.27 15.24,37.27 "
             id="polygon14-3-3-3-0"
             style="fill:#99cc00;fill-opacity:1" />
          <path
             id="polygon16-8-8-5-5"
             style="fill:#6d9003;fill-opacity:1;stroke-width:1"
             class="cls-1"
             d="M 15.240068,37.269902 7.67,50.37 15.240068,63.480107 h 5.759521 L 13.479081,50.448613 21.03914,37.348516 h 9.376221 l -0.04541,-0.07861 z" />
        </g>
        <g
           id="g1026-9-4-4-7-4"
           transform="matrix(1.7323514,0,0,1.7323514,160.86322,-80.773313)">
          <polygon
             class="cls-1"
             points="7.67,50.37 15.24,63.47 30.37,63.47 37.93,50.37 30.37,37.27 15.24,37.27 "
             id="polygon14-3-9-4-8-4"
             style="fill:#99cc00;fill-opacity:1" />
          <path
             id="polygon16-8-1-0-7-5"
             style="fill:#6d9003;fill-opacity:1;stroke-width:1"
             class="cls-1"
             d="M 15.240068,37.269902 7.67,50.37 15.240068,63.480107 h 5.759521 L 13.479081,50.448613 21.03914,37.348516 h 9.376221 l -0.04541,-0.07861 z" />
        </g>
      </g>
      <g
         id="g13172-1-7-3-7"
         transform="matrix(0.2613366,0,0,0.2613366,2.2585326,6.5571412)"
         style="display:inline">
        <g
           id="g1026-5-3-7-5"
           transform="matrix(1.7323514,0,0,1.7323514,88.015267,-80.552475)">
          <polygon
             class="cls-1"
             points="15.24,37.27 7.67,50.37 15.24,63.47 30.37,63.47 37.93,50.37 30.37,37.27 "
             id="polygon14-4-2-8-7"
             style="fill:#99cc00;fill-opacity:1" />
          <path
             id="polygon16-3-6-4-5"
             style="fill:#6d9003;fill-opacity:1;stroke-width:1"
             class="cls-1"
             d="M 15.240068,37.269902 7.67,50.37 15.240068,63.480107 h 5.759521 L 13.479081,50.448613 21.03914,37.348516 h 9.376221 l -0.04541,-0.07861 z" />
        </g>
        <g
           id="g1026-9-48-4-0-8"
           transform="matrix(1.7323514,0,0,1.7323514,124.5879,-98.495687)">
          <polygon
             class="cls-1"
             points="15.24,63.47 30.37,63.47 37.93,50.37 30.37,37.27 15.24,37.27 7.67,50.37 "
             id="polygon14-3-3-3-0-4"
             style="fill:#99cc00;fill-opacity:1" />
          <path
             id="polygon16-8-8-5-5-5"
             style="fill:#6d9003;fill-opacity:1;stroke-width:1"
             class="cls-1"
             d="M 15.240068,37.269902 7.67,50.37 15.240068,63.480107 h 5.759521 L 13.479081,50.448613 21.03914,37.348516 h 9.376221 l -0.04541,-0.07861 z" />
        </g>
        <g
           id="g1026-9-4-4-7-4-5"
           transform="matrix(1.7323514,0,0,1.7323514,160.86322,-80.773313)">
          <polygon
             class="cls-1"
             points="15.24,63.47 30.37,63.47 37.93,50.37 30.37,37.27 15.24,37.27 7.67,50.37 "
             id="polygon14-3-9-4-8-4-0"
             style="fill:#99cc00;fill-opacity:1" />
          <path
             id="polygon16-8-1-0-7-5-7"
             style="fill:#6d9003;fill-opacity:1;stroke-width:1"
             class="cls-1"
             d="M 15.240068,37.269902 7.67,50.37 15.240068,63.480107 h 5.759521 L 13.479081,50.448613 21.03914,37.348516 h 9.376221 l -0.04541,-0.07861 z" />
        </g>
      </g>
    </g>
  </g>
</svg>
