<?xml version="1.0" encoding="UTF-8" standalone="no"?>
<!-- Created with Inkscape (http://www.inkscape.org/) -->

<svg
   width="500"
   height="500"
   viewBox="0 0 132.29166 132.29167"
   version="1.1"
   id="svg2515"
   inkscape:version="1.1.2 (b8e25be833, 2022-02-05)"
   sodipodi:docname="bonsai06s02blooming.svg"
   inkscape:export-filename="C:\Users\Lenovo\Desktop\Coding\Media files\Bonsais\bonsai06.png"
   inkscape:export-xdpi="96"
   inkscape:export-ydpi="96"
   xmlns:inkscape="http://www.inkscape.org/namespaces/inkscape"
   xmlns:sodipodi="http://sodipodi.sourceforge.net/DTD/sodipodi-0.dtd"
   xmlns="http://www.w3.org/2000/svg"
   xmlns:svg="http://www.w3.org/2000/svg"
   xmlns:sketch="http://www.bohemiancoding.com/sketch/ns">
  <sodipodi:namedview
     id="namedview2517"
     pagecolor="#ffffff"
     bordercolor="#666666"
     borderopacity="1.0"
     inkscape:pageshadow="2"
     inkscape:pageopacity="0.0"
     inkscape:pagecheckerboard="0"
     inkscape:document-units="mm"
     showgrid="false"
     units="px"
     inkscape:zoom="1.4142136"
     inkscape:cx="272.58966"
     inkscape:cy="245.01249"
     inkscape:window-width="1920"
     inkscape:window-height="1001"
     inkscape:window-x="-9"
     inkscape:window-y="-9"
     inkscape:window-maximized="1"
     inkscape:current-layer="g17385"
     showguides="false" />
  <defs
     id="defs2512">
    <marker
       style="overflow:visible"
       id="Arrow1Sstart"
       refX="0.0"
       refY="0.0"
       orient="auto"
       inkscape:stockid="Arrow1Sstart"
       inkscape:isstock="true">
      <path
         transform="scale(0.2) translate(6,0)"
         style="fill-rule:evenodd;fill:context-stroke;stroke:context-stroke;stroke-width:1.0pt"
         d="M 0.0,0.0 L 5.0,-5.0 L -12.5,0.0 L 5.0,5.0 L 0.0,0.0 z "
         id="path24092" />
    </marker>
    <marker
       style="overflow:visible"
       id="Arrow1Mstart"
       refX="0.0"
       refY="0.0"
       orient="auto"
       inkscape:stockid="Arrow1Mstart"
       inkscape:isstock="true">
      <path
         transform="scale(0.4) translate(10,0)"
         style="fill-rule:evenodd;fill:context-stroke;stroke:context-stroke;stroke-width:1.0pt"
         d="M 0.0,0.0 L 5.0,-5.0 L -12.5,0.0 L 5.0,5.0 L 0.0,0.0 z "
         id="path24086" />
    </marker>
    <marker
       style="overflow:visible"
       id="Arrow1Lstart"
       refX="0.0"
       refY="0.0"
       orient="auto"
       inkscape:stockid="Arrow1Lstart"
       inkscape:isstock="true">
      <path
         transform="scale(0.8) translate(12.5,0)"
         style="fill-rule:evenodd;fill:context-stroke;stroke:context-stroke;stroke-width:1.0pt"
         d="M 0.0,0.0 L 5.0,-5.0 L -12.5,0.0 L 5.0,5.0 L 0.0,0.0 z "
         id="path24080" />
    </marker>
    <marker
       style="overflow:visible;"
       id="Arrow1Lend"
       refX="0.0"
       refY="0.0"
       orient="auto"
       inkscape:stockid="Arrow1Lend"
       inkscape:isstock="true">
      <path
         transform="scale(0.8) rotate(180) translate(12.5,0)"
         style="fill-rule:evenodd;fill:context-stroke;stroke:context-stroke;stroke-width:1.0pt;"
         d="M 0.0,0.0 L 5.0,-5.0 L -12.5,0.0 L 5.0,5.0 L 0.0,0.0 z "
         id="path24083" />
    </marker>
  </defs>
  <g
     inkscape:label="Informal Upright Style"
     inkscape:groupmode="layer"
     id="g17385"
     style="display:inline">
    <g
       id="g17299"
       transform="translate(157.36058,-8.4372489)"
       style="display:inline">
      <g
         id="g17297"
         transform="translate(-99.28418,15.207661)">
        <path
           style="display:inline;fill:#c49078;fill-opacity:1;stroke:#c49078;stroke-width:1;stroke-linecap:round;stroke-linejoin:round;stroke-miterlimit:4;stroke-dasharray:none;stroke-opacity:1"
           d="m 1.3438111,105.02403 c 0,0 1.67276,-4.3889 -5.29634,-12.902323 -5.77031,-7.049 -13.8088901,-10.89145 -10.0810001,-22.220767 2.98845,-9.082106 31.71641,-16.843433 36.92376,-22.50005 9.82115,-10.668487 4.67956,-12.619651 -1.58353,-22.120096 C 16.120271,17.413522 8.0705011,20.957555 7.7574611,9.5870616 14.803541,20.119696 25.572371,18.866153 27.251611,28.55162 c 3.25423,4.596313 8.98302,11.718683 5.98525,14.797826 -2.2954,2.357716 -9.08519,15.422411 -20.03503,17.643247 -9.5903099,1.945097 -16.1629199,12.6144 -16.1629199,12.6144 -0.83876,8.885304 16.1910099,9.784984 21.9744099,18.254694 5.64474,8.266633 8.35928,5.77528 10.95842,12.103913 1.20531,2.9348 -28.6279299,1.05833 -28.6279299,1.05833 z"
           id="path17293"
           sodipodi:nodetypes="cssssccsssssc" />
        <path
           id="path17295"
           style="display:inline;fill:#9f6a57;fill-opacity:1;stroke:#9f6a57;stroke-width:3.77953;stroke-linecap:round;stroke-linejoin:round;stroke-miterlimit:4;stroke-dasharray:none;stroke-opacity:1"
           d="m 616.93555,1.8886719 c 0.55432,20.1347921 7.52722,27.8974661 16.79883,33.5175781 -5.45695,-5.012127 -9.35289,-12.21383 -10.31641,-24.990234 -2.22889,-2.6069221 -4.40217,-5.4177306 -6.48242,-8.5273441 z m 41.48828,48.2539061 c 3.39981,2.902953 6.69017,6.465507 9.7207,11.0625 23.67153,35.907194 43.10565,43.281672 5.98633,83.603512 -19.68132,21.37934 -128.25976,50.713 -139.55469,85.03907 -14.08966,42.81948 16.29251,57.34248 38.10156,83.98437 26.33989,32.17671 20.01758,48.76367 20.01758,48.76367 0,0 2.85378,0.16826 6.91797,0.39063 0.26375,-6.79288 -1.99109,-21.72151 -20.65039,-44.51563 -21.80905,-26.64189 -52.19123,-41.16294 -38.10156,-83.98242 11.29493,-34.32607 119.87336,-63.66167 139.55469,-85.04101 37.11932,-40.32185 17.68519,-47.69633 -5.98633,-83.60352 -4.87199,-7.390285 -10.41195,-12.111719 -16.00586,-15.701172 z"
           transform="matrix(0.26458333,0,0,0.26458333,-155.47346,9.0871833)"
           sodipodi:nodetypes="cccccssssccssssc" />
      </g>
    </g>
    <g
       id="g1638-6-6"
       transform="matrix(0.46471746,0,0,-0.25891218,-387.13525,464.91411)"
       style="display:inline">
      <path
         d="m 1063.22,1363.63 -3.97,5.96 H 896.482 l -3.956,-5.96 c -12.178,-18.31 -12.178,-42.14 0,-60.45 l 3.956,-5.96 h 162.768 l 3.97,5.96 c 12.17,18.31 12.17,42.14 0,60.45"
         style="fill:#9fbde1;fill-opacity:1;fill-rule:nonzero;stroke:none;stroke-width:0.1"
         id="path314-0-6-3" />
      <path
         d="m 909.212,1385.47 h 137.318 v -15.88 H 909.212 v 15.88"
         style="fill:#bfd9f3;fill-opacity:1;fill-rule:nonzero;stroke:none;stroke-width:0.1"
         id="path316-2-3" />
      <path
         d="m 906.53,1363.63 3.957,5.96 h -14.005 l -3.956,-5.96 c -12.178,-18.31 -12.178,-42.14 0,-60.45 l 3.956,-5.96 h 14.005 l -3.957,5.96 c -12.177,18.31 -12.177,42.14 0,60.45"
         style="fill:#799dbe;fill-opacity:1;fill-rule:nonzero;stroke:none;stroke-width:0.1"
         id="path326-2-6" />
      <path
         d="m 909.212,1385.47 h 14.005 v -15.88 h -14.005 v 15.88"
         style="fill:#96b9e4;fill-opacity:1;fill-rule:nonzero;stroke:none;stroke-width:0.1"
         id="path328-0-1" />
    </g>
    <g
       id="g3441-8-2"
       style="display:inline"
       transform="translate(-31.62579,21.274399)">
      <g
         id="g4022-16-9">
        <g
           id="g22226-7-5"
           transform="matrix(0.54835514,0,0,0.54835514,-13.965797,15.325438)"
           style="display:inline">
          <g
             id="g22138-63-0"
             transform="translate(-26.833461,54.442803)">
            <g
               id="Page-1-8-2-9"
               stroke="none"
               stroke-width="1"
               fill="none"
               fill-rule="evenodd"
               sketch:type="MSPage"
               style="fill:#81cc29;fill-opacity:1"
               transform="matrix(1.25,0,0,1.25,123.91155,12.485537)">
              <g
                 id="Icon-Set-Filled-05-1"
                 sketch:type="MSLayerGroup"
                 transform="translate(-519,-781)"
                 fill="#000000"
                 style="fill:#81cc29;fill-opacity:1">
                <path
                   d="M 542.067,786.028 C 540.599,783.053 537.543,781 534,781 c -4.749,0 -8.63,3.682 -8.967,8.345 C 521.542,790.34 519,793.39 519,797 c 0,4.26 3.54,7.755 8,8 h 15 c 4.966,0 9,-4.253 9,-9.5 0,-5.056 -3.951,-9.177 -8.933,-9.472"
                   id="cloud-9-9"
                   sketch:type="MSShapeGroup"
                   style="fill:#99ffcc;fill-opacity:1" />
              </g>
            </g>
            <path
               id="cloud-7-1-2"
               style="fill:#5de7a2;fill-opacity:1;fill-rule:evenodd;stroke:none;stroke-width:1.25"
               d="m 142.66142,12.485383 c -5.93625,0 -10.78737,4.602654 -11.20862,10.431404 -4.36375,1.243751 -7.54166,5.056426 -7.54166,9.568923 0,5.325002 4.42491,9.693659 9.99991,9.999909 h 4.23385 c -5.575,-0.30625 -10.00043,-4.674907 -10.00043,-9.999909 0,-4.512497 3.17791,-8.325172 7.54166,-9.568923 0.36984,-5.117375 4.15439,-9.28873 9.08989,-10.2309 -0.68475,-0.130707 -1.3914,-0.200504 -2.1146,-0.200504 z" />
          </g>
          <g
             id="g22138-4-9-1"
             transform="translate(0.33401899,35.484808)"
             style="display:inline">
            <g
               id="Page-1-8-0-6-9"
               stroke="none"
               stroke-width="1"
               fill="none"
               fill-rule="evenodd"
               sketch:type="MSPage"
               style="fill:#81cc29;fill-opacity:1"
               transform="matrix(1.25,0,0,1.25,123.91155,12.485537)">
              <g
                 id="Icon-Set-Filled-2-9-7"
                 sketch:type="MSLayerGroup"
                 transform="translate(-519,-781)"
                 fill="#000000"
                 style="fill:#81cc29;fill-opacity:1">
                <path
                   d="M 542.067,786.028 C 540.599,783.053 537.543,781 534,781 c -4.749,0 -8.63,3.682 -8.967,8.345 C 521.542,790.34 519,793.39 519,797 c 0,4.26 3.54,7.755 8,8 h 15 c 4.966,0 9,-4.253 9,-9.5 0,-5.056 -3.951,-9.177 -8.933,-9.472"
                   id="cloud-1-3-1"
                   sketch:type="MSShapeGroup"
                   style="fill:#99ffcc;fill-opacity:1" />
              </g>
            </g>
            <path
               id="cloud-7-8-0-5"
               style="fill:#5de7a2;fill-opacity:1;fill-rule:evenodd;stroke:none;stroke-width:1.25"
               d="m 142.66142,12.485383 c -5.93625,0 -10.78737,4.602654 -11.20862,10.431404 -4.36375,1.243751 -7.54166,5.056426 -7.54166,9.568923 0,5.325002 4.42491,9.693659 9.99991,9.999909 h 4.23385 c -5.575,-0.30625 -10.00043,-4.674907 -10.00043,-9.999909 0,-4.512497 3.17791,-8.325172 7.54166,-9.568923 0.36984,-5.117375 4.15439,-9.28873 9.08989,-10.2309 -0.68475,-0.130707 -1.3914,-0.200504 -2.1146,-0.200504 z" />
          </g>
          <g
             id="g22138-5-5-5"
             transform="translate(29.81882,54.442617)"
             style="display:inline">
            <g
               id="Page-1-8-4-0-7"
               stroke="none"
               stroke-width="1"
               fill="none"
               fill-rule="evenodd"
               sketch:type="MSPage"
               style="fill:#81cc29;fill-opacity:1"
               transform="matrix(1.25,0,0,1.25,123.91155,12.485537)">
              <g
                 id="Icon-Set-Filled-8-6-8"
                 sketch:type="MSLayerGroup"
                 transform="translate(-519,-781)"
                 fill="#000000"
                 style="fill:#81cc29;fill-opacity:1">
                <path
                   d="M 542.067,786.028 C 540.599,783.053 537.543,781 534,781 c -4.749,0 -8.63,3.682 -8.967,8.345 C 521.542,790.34 519,793.39 519,797 c 0,4.26 3.54,7.755 8,8 h 15 c 4.966,0 9,-4.253 9,-9.5 0,-5.056 -3.951,-9.177 -8.933,-9.472"
                   id="cloud-3-2-1"
                   sketch:type="MSShapeGroup"
                   style="fill:#99ffcc;fill-opacity:1" />
              </g>
            </g>
            <path
               id="cloud-7-4-7-3"
               style="fill:#5de7a2;fill-opacity:1;fill-rule:evenodd;stroke:none;stroke-width:1.25"
               d="m 142.66142,12.485383 c -5.93625,0 -10.78737,4.602654 -11.20862,10.431404 -4.36375,1.243751 -7.54166,5.056426 -7.54166,9.568923 0,5.325002 4.42491,9.693659 9.99991,9.999909 h 4.23385 c -5.575,-0.30625 -10.00043,-4.674907 -10.00043,-9.999909 0,-4.512497 3.17791,-8.325172 7.54166,-9.568923 0.36984,-5.117375 4.15439,-9.28873 9.08989,-10.2309 -0.68475,-0.130707 -1.3914,-0.200504 -2.1146,-0.200504 z" />
          </g>
        </g>
      </g>
      <g
         id="g12-2-2-1-8-6-6"
         transform="matrix(0.02343752,0,0,0.02343752,48.902568,50.278243)"
         style="display:inline;fill:#f71e31;fill-opacity:1">
        <g
           id="g10-8-6-3-7-1-5"
           style="fill:#f71e31;fill-opacity:1">
          <path
             d="m 511.109,220.854 c -1.777,-5.181 -5.984,-9.165 -11.263,-10.651 l -30.105,-8.456 19.384,-24.538 c 3.404,-4.298 4.466,-9.99 2.851,-15.226 -1.615,-5.236 -5.703,-9.339 -10.928,-10.982 -35.862,-11.259 -78.652,-20.739 -124.314,-5.908 -4.185,1.361 -8.337,2.922 -12.457,4.684 0.412,-4.462 0.618,-8.89 0.618,-13.28 0,-47.972 -22.289,-85.736 -44.102,-116.352 -3.176,-4.462 -8.586,-7.171 -13.822,-6.993 -5.475,0.087 -10.559,2.856 -13.595,7.416 L 256.085,46.516 238.783,20.568 c -3.035,-4.558 -8.119,-7.329 -13.595,-7.416 -5.377,-0.179 -10.657,2.531 -13.822,6.993 -21.802,30.598 -44.091,68.358 -44.091,116.352 0,4.347 0.207,8.732 0.607,13.145 -4.131,-1.74 -8.315,-3.285 -12.575,-4.646 -46.27,-14.847 -90.609,-4.558 -124.076,6.071 -5.214,1.653 -9.279,5.762 -10.874,10.987 -1.604,5.231 -0.542,10.911 2.841,15.199 l 19.308,24.463 -30.355,8.51 c -5.291,1.485 -9.507,5.481 -11.274,10.684 -1.756,5.204 -0.846,10.944 2.45,15.34 22.625,30.165 51.875,63.003 97.493,77.936 3.676,1.166 7.404,2.196 11.188,3.089 -2.2,2.618 -4.293,5.285 -6.267,8.006 -28.392,39.082 -32.448,84.696 -32.805,120.064 -0.054,5.481 2.591,10.635 7.068,13.784 4.477,3.161 10.234,3.898 15.362,2 l 29.336,-10.857 -1.258,31.265 c -0.216,5.475 2.266,10.706 6.656,13.991 4.369,3.279 10.093,4.19 15.296,2.461 33.531,-11.286 75.659,-29.244 104.042,-68.309 2.309,-3.182 4.51,-6.489 6.592,-9.903 2.07,3.42 4.272,6.727 6.581,9.909 28.381,39.065 70.52,57.024 104.052,68.304 1.735,0.579 3.535,0.867 5.312,0.867 3.556,0 7.068,-1.138 9.995,-3.328 4.379,-3.29 6.863,-8.521 6.645,-13.995 l -1.269,-31.26 29.336,10.857 c 5.128,1.897 10.885,1.16 15.362,-2 4.477,-3.149 7.123,-8.304 7.068,-13.784 -0.357,-35.363 -4.402,-80.971 -32.805,-120.054 -1.984,-2.732 -4.076,-5.415 -6.277,-8.038 3.935,-0.927 7.794,-2.006 11.579,-3.23 45.89,-14.907 75.996,-49.44 97.103,-77.855 3.264,-4.405 4.165,-10.128 2.397,-15.316 z M 255.197,325.216 c -30.604,0 -55.506,-24.902 -55.506,-55.506 0,-30.604 24.902,-55.506 55.506,-55.506 30.604,0 55.506,24.902 55.506,55.506 0,30.604 -24.902,55.506 -55.506,55.506 z"
             id="path8-8-6-2-9-0-84-4"
             style="fill:#f71e31;fill-opacity:1" />
        </g>
      </g>
      <g
         id="g12-2-2-1-5-2"
         transform="matrix(0.02343752,0,0,0.02343752,63.799995,39.882529)"
         style="display:inline;fill:#f71e31;fill-opacity:1">
        <g
           id="g10-8-6-3-9-5"
           style="fill:#f71e31;fill-opacity:1">
          <path
             d="m 511.109,220.854 c -1.777,-5.181 -5.984,-9.165 -11.263,-10.651 l -30.105,-8.456 19.384,-24.538 c 3.404,-4.298 4.466,-9.99 2.851,-15.226 -1.615,-5.236 -5.703,-9.339 -10.928,-10.982 -35.862,-11.259 -78.652,-20.739 -124.314,-5.908 -4.185,1.361 -8.337,2.922 -12.457,4.684 0.412,-4.462 0.618,-8.89 0.618,-13.28 0,-47.972 -22.289,-85.736 -44.102,-116.352 -3.176,-4.462 -8.586,-7.171 -13.822,-6.993 -5.475,0.087 -10.559,2.856 -13.595,7.416 L 256.085,46.516 238.783,20.568 c -3.035,-4.558 -8.119,-7.329 -13.595,-7.416 -5.377,-0.179 -10.657,2.531 -13.822,6.993 -21.802,30.598 -44.091,68.358 -44.091,116.352 0,4.347 0.207,8.732 0.607,13.145 -4.131,-1.74 -8.315,-3.285 -12.575,-4.646 -46.27,-14.847 -90.609,-4.558 -124.076,6.071 -5.214,1.653 -9.279,5.762 -10.874,10.987 -1.604,5.231 -0.542,10.911 2.841,15.199 l 19.308,24.463 -30.355,8.51 c -5.291,1.485 -9.507,5.481 -11.274,10.684 -1.756,5.204 -0.846,10.944 2.45,15.34 22.625,30.165 51.875,63.003 97.493,77.936 3.676,1.166 7.404,2.196 11.188,3.089 -2.2,2.618 -4.293,5.285 -6.267,8.006 -28.392,39.082 -32.448,84.696 -32.805,120.064 -0.054,5.481 2.591,10.635 7.068,13.784 4.477,3.161 10.234,3.898 15.362,2 l 29.336,-10.857 -1.258,31.265 c -0.216,5.475 2.266,10.706 6.656,13.991 4.369,3.279 10.093,4.19 15.296,2.461 33.531,-11.286 75.659,-29.244 104.042,-68.309 2.309,-3.182 4.51,-6.489 6.592,-9.903 2.07,3.42 4.272,6.727 6.581,9.909 28.381,39.065 70.52,57.024 104.052,68.304 1.735,0.579 3.535,0.867 5.312,0.867 3.556,0 7.068,-1.138 9.995,-3.328 4.379,-3.29 6.863,-8.521 6.645,-13.995 l -1.269,-31.26 29.336,10.857 c 5.128,1.897 10.885,1.16 15.362,-2 4.477,-3.149 7.123,-8.304 7.068,-13.784 -0.357,-35.363 -4.402,-80.971 -32.805,-120.054 -1.984,-2.732 -4.076,-5.415 -6.277,-8.038 3.935,-0.927 7.794,-2.006 11.579,-3.23 45.89,-14.907 75.996,-49.44 97.103,-77.855 3.264,-4.405 4.165,-10.128 2.397,-15.316 z M 255.197,325.216 c -30.604,0 -55.506,-24.902 -55.506,-55.506 0,-30.604 24.902,-55.506 55.506,-55.506 30.604,0 55.506,24.902 55.506,55.506 0,30.604 -24.902,55.506 -55.506,55.506 z"
             id="path8-8-6-2-9-63-0"
             style="fill:#f71e31;fill-opacity:1" />
        </g>
      </g>
      <g
         id="g12-2-2-14-2"
         transform="matrix(0.02343752,0,0,0.02343752,79.968137,50.278141)"
         style="display:inline;fill:#f71e31;fill-opacity:1">
        <g
           id="g10-8-6-5-7"
           style="fill:#f71e31;fill-opacity:1">
          <path
             d="m 511.109,220.854 c -1.777,-5.181 -5.984,-9.165 -11.263,-10.651 l -30.105,-8.456 19.384,-24.538 c 3.404,-4.298 4.466,-9.99 2.851,-15.226 -1.615,-5.236 -5.703,-9.339 -10.928,-10.982 -35.862,-11.259 -78.652,-20.739 -124.314,-5.908 -4.185,1.361 -8.337,2.922 -12.457,4.684 0.412,-4.462 0.618,-8.89 0.618,-13.28 0,-47.972 -22.289,-85.736 -44.102,-116.352 -3.176,-4.462 -8.586,-7.171 -13.822,-6.993 -5.475,0.087 -10.559,2.856 -13.595,7.416 L 256.085,46.516 238.783,20.568 c -3.035,-4.558 -8.119,-7.329 -13.595,-7.416 -5.377,-0.179 -10.657,2.531 -13.822,6.993 -21.802,30.598 -44.091,68.358 -44.091,116.352 0,4.347 0.207,8.732 0.607,13.145 -4.131,-1.74 -8.315,-3.285 -12.575,-4.646 -46.27,-14.847 -90.609,-4.558 -124.076,6.071 -5.214,1.653 -9.279,5.762 -10.874,10.987 -1.604,5.231 -0.542,10.911 2.841,15.199 l 19.308,24.463 -30.355,8.51 c -5.291,1.485 -9.507,5.481 -11.274,10.684 -1.756,5.204 -0.846,10.944 2.45,15.34 22.625,30.165 51.875,63.003 97.493,77.936 3.676,1.166 7.404,2.196 11.188,3.089 -2.2,2.618 -4.293,5.285 -6.267,8.006 -28.392,39.082 -32.448,84.696 -32.805,120.064 -0.054,5.481 2.591,10.635 7.068,13.784 4.477,3.161 10.234,3.898 15.362,2 l 29.336,-10.857 -1.258,31.265 c -0.216,5.475 2.266,10.706 6.656,13.991 4.369,3.279 10.093,4.19 15.296,2.461 33.531,-11.286 75.659,-29.244 104.042,-68.309 2.309,-3.182 4.51,-6.489 6.592,-9.903 2.07,3.42 4.272,6.727 6.581,9.909 28.381,39.065 70.52,57.024 104.052,68.304 1.735,0.579 3.535,0.867 5.312,0.867 3.556,0 7.068,-1.138 9.995,-3.328 4.379,-3.29 6.863,-8.521 6.645,-13.995 l -1.269,-31.26 29.336,10.857 c 5.128,1.897 10.885,1.16 15.362,-2 4.477,-3.149 7.123,-8.304 7.068,-13.784 -0.357,-35.363 -4.402,-80.971 -32.805,-120.054 -1.984,-2.732 -4.076,-5.415 -6.277,-8.038 3.935,-0.927 7.794,-2.006 11.579,-3.23 45.89,-14.907 75.996,-49.44 97.103,-77.855 3.264,-4.405 4.165,-10.128 2.397,-15.316 z M 255.197,325.216 c -30.604,0 -55.506,-24.902 -55.506,-55.506 0,-30.604 24.902,-55.506 55.506,-55.506 30.604,0 55.506,24.902 55.506,55.506 0,30.604 -24.902,55.506 -55.506,55.506 z"
             id="path8-8-6-2-2-7"
             style="fill:#f71e31;fill-opacity:1" />
        </g>
      </g>
    </g>
    <g
       id="g3441-8-4"
       style="display:inline"
       transform="translate(31.582792,9.380989)">
      <g
         id="g4022-16-6">
        <g
           id="g22226-7-2"
           transform="matrix(0.54835514,0,0,0.54835514,-13.965797,15.325438)"
           style="display:inline">
          <g
             id="g22138-63-9"
             transform="translate(-26.833461,54.442803)">
            <g
               id="Page-1-8-2-0"
               stroke="none"
               stroke-width="1"
               fill="none"
               fill-rule="evenodd"
               sketch:type="MSPage"
               style="fill:#81cc29;fill-opacity:1"
               transform="matrix(1.25,0,0,1.25,123.91155,12.485537)">
              <g
                 id="Icon-Set-Filled-05-4"
                 sketch:type="MSLayerGroup"
                 transform="translate(-519,-781)"
                 fill="#000000"
                 style="fill:#81cc29;fill-opacity:1">
                <path
                   d="M 542.067,786.028 C 540.599,783.053 537.543,781 534,781 c -4.749,0 -8.63,3.682 -8.967,8.345 C 521.542,790.34 519,793.39 519,797 c 0,4.26 3.54,7.755 8,8 h 15 c 4.966,0 9,-4.253 9,-9.5 0,-5.056 -3.951,-9.177 -8.933,-9.472"
                   id="cloud-9-7"
                   sketch:type="MSShapeGroup"
                   style="fill:#99ffcc;fill-opacity:1" />
              </g>
            </g>
            <path
               id="cloud-7-1-0"
               style="fill:#5de7a2;fill-opacity:1;fill-rule:evenodd;stroke:none;stroke-width:1.25"
               d="m 142.66142,12.485383 c -5.93625,0 -10.78737,4.602654 -11.20862,10.431404 -4.36375,1.243751 -7.54166,5.056426 -7.54166,9.568923 0,5.325002 4.42491,9.693659 9.99991,9.999909 h 4.23385 c -5.575,-0.30625 -10.00043,-4.674907 -10.00043,-9.999909 0,-4.512497 3.17791,-8.325172 7.54166,-9.568923 0.36984,-5.117375 4.15439,-9.28873 9.08989,-10.2309 -0.68475,-0.130707 -1.3914,-0.200504 -2.1146,-0.200504 z" />
          </g>
          <g
             id="g22138-4-9-6"
             transform="translate(0.33401899,35.484808)"
             style="display:inline">
            <g
               id="Page-1-8-0-6-97"
               stroke="none"
               stroke-width="1"
               fill="none"
               fill-rule="evenodd"
               sketch:type="MSPage"
               style="fill:#81cc29;fill-opacity:1"
               transform="matrix(1.25,0,0,1.25,123.91155,12.485537)">
              <g
                 id="Icon-Set-Filled-2-9-9"
                 sketch:type="MSLayerGroup"
                 transform="translate(-519,-781)"
                 fill="#000000"
                 style="fill:#81cc29;fill-opacity:1">
                <path
                   d="M 542.067,786.028 C 540.599,783.053 537.543,781 534,781 c -4.749,0 -8.63,3.682 -8.967,8.345 C 521.542,790.34 519,793.39 519,797 c 0,4.26 3.54,7.755 8,8 h 15 c 4.966,0 9,-4.253 9,-9.5 0,-5.056 -3.951,-9.177 -8.933,-9.472"
                   id="cloud-1-3-5"
                   sketch:type="MSShapeGroup"
                   style="fill:#99ffcc;fill-opacity:1" />
              </g>
            </g>
            <path
               id="cloud-7-8-0-6"
               style="fill:#5de7a2;fill-opacity:1;fill-rule:evenodd;stroke:none;stroke-width:1.25"
               d="m 142.66142,12.485383 c -5.93625,0 -10.78737,4.602654 -11.20862,10.431404 -4.36375,1.243751 -7.54166,5.056426 -7.54166,9.568923 0,5.325002 4.42491,9.693659 9.99991,9.999909 h 4.23385 c -5.575,-0.30625 -10.00043,-4.674907 -10.00043,-9.999909 0,-4.512497 3.17791,-8.325172 7.54166,-9.568923 0.36984,-5.117375 4.15439,-9.28873 9.08989,-10.2309 -0.68475,-0.130707 -1.3914,-0.200504 -2.1146,-0.200504 z" />
          </g>
          <g
             id="g22138-5-5-4"
             transform="translate(29.81882,54.442617)"
             style="display:inline">
            <g
               id="Page-1-8-4-0-9"
               stroke="none"
               stroke-width="1"
               fill="none"
               fill-rule="evenodd"
               sketch:type="MSPage"
               style="fill:#81cc29;fill-opacity:1"
               transform="matrix(1.25,0,0,1.25,123.91155,12.485537)">
              <g
                 id="Icon-Set-Filled-8-6-4"
                 sketch:type="MSLayerGroup"
                 transform="translate(-519,-781)"
                 fill="#000000"
                 style="fill:#81cc29;fill-opacity:1">
                <path
                   d="M 542.067,786.028 C 540.599,783.053 537.543,781 534,781 c -4.749,0 -8.63,3.682 -8.967,8.345 C 521.542,790.34 519,793.39 519,797 c 0,4.26 3.54,7.755 8,8 h 15 c 4.966,0 9,-4.253 9,-9.5 0,-5.056 -3.951,-9.177 -8.933,-9.472"
                   id="cloud-3-2-4"
                   sketch:type="MSShapeGroup"
                   style="fill:#99ffcc;fill-opacity:1" />
              </g>
            </g>
            <path
               id="cloud-7-4-7-0"
               style="fill:#5de7a2;fill-opacity:1;fill-rule:evenodd;stroke:none;stroke-width:1.25"
               d="m 142.66142,12.485383 c -5.93625,0 -10.78737,4.602654 -11.20862,10.431404 -4.36375,1.243751 -7.54166,5.056426 -7.54166,9.568923 0,5.325002 4.42491,9.693659 9.99991,9.999909 h 4.23385 c -5.575,-0.30625 -10.00043,-4.674907 -10.00043,-9.999909 0,-4.512497 3.17791,-8.325172 7.54166,-9.568923 0.36984,-5.117375 4.15439,-9.28873 9.08989,-10.2309 -0.68475,-0.130707 -1.3914,-0.200504 -2.1146,-0.200504 z" />
          </g>
        </g>
      </g>
      <g
         id="g12-2-2-1-8-6-3"
         transform="matrix(0.02343752,0,0,0.02343752,48.902568,50.278243)"
         style="display:inline;fill:#f71e31;fill-opacity:1">
        <g
           id="g10-8-6-3-7-1-8"
           style="fill:#f71e31;fill-opacity:1">
          <path
             d="m 511.109,220.854 c -1.777,-5.181 -5.984,-9.165 -11.263,-10.651 l -30.105,-8.456 19.384,-24.538 c 3.404,-4.298 4.466,-9.99 2.851,-15.226 -1.615,-5.236 -5.703,-9.339 -10.928,-10.982 -35.862,-11.259 -78.652,-20.739 -124.314,-5.908 -4.185,1.361 -8.337,2.922 -12.457,4.684 0.412,-4.462 0.618,-8.89 0.618,-13.28 0,-47.972 -22.289,-85.736 -44.102,-116.352 -3.176,-4.462 -8.586,-7.171 -13.822,-6.993 -5.475,0.087 -10.559,2.856 -13.595,7.416 L 256.085,46.516 238.783,20.568 c -3.035,-4.558 -8.119,-7.329 -13.595,-7.416 -5.377,-0.179 -10.657,2.531 -13.822,6.993 -21.802,30.598 -44.091,68.358 -44.091,116.352 0,4.347 0.207,8.732 0.607,13.145 -4.131,-1.74 -8.315,-3.285 -12.575,-4.646 -46.27,-14.847 -90.609,-4.558 -124.076,6.071 -5.214,1.653 -9.279,5.762 -10.874,10.987 -1.604,5.231 -0.542,10.911 2.841,15.199 l 19.308,24.463 -30.355,8.51 c -5.291,1.485 -9.507,5.481 -11.274,10.684 -1.756,5.204 -0.846,10.944 2.45,15.34 22.625,30.165 51.875,63.003 97.493,77.936 3.676,1.166 7.404,2.196 11.188,3.089 -2.2,2.618 -4.293,5.285 -6.267,8.006 -28.392,39.082 -32.448,84.696 -32.805,120.064 -0.054,5.481 2.591,10.635 7.068,13.784 4.477,3.161 10.234,3.898 15.362,2 l 29.336,-10.857 -1.258,31.265 c -0.216,5.475 2.266,10.706 6.656,13.991 4.369,3.279 10.093,4.19 15.296,2.461 33.531,-11.286 75.659,-29.244 104.042,-68.309 2.309,-3.182 4.51,-6.489 6.592,-9.903 2.07,3.42 4.272,6.727 6.581,9.909 28.381,39.065 70.52,57.024 104.052,68.304 1.735,0.579 3.535,0.867 5.312,0.867 3.556,0 7.068,-1.138 9.995,-3.328 4.379,-3.29 6.863,-8.521 6.645,-13.995 l -1.269,-31.26 29.336,10.857 c 5.128,1.897 10.885,1.16 15.362,-2 4.477,-3.149 7.123,-8.304 7.068,-13.784 -0.357,-35.363 -4.402,-80.971 -32.805,-120.054 -1.984,-2.732 -4.076,-5.415 -6.277,-8.038 3.935,-0.927 7.794,-2.006 11.579,-3.23 45.89,-14.907 75.996,-49.44 97.103,-77.855 3.264,-4.405 4.165,-10.128 2.397,-15.316 z M 255.197,325.216 c -30.604,0 -55.506,-24.902 -55.506,-55.506 0,-30.604 24.902,-55.506 55.506,-55.506 30.604,0 55.506,24.902 55.506,55.506 0,30.604 -24.902,55.506 -55.506,55.506 z"
             id="path8-8-6-2-9-0-84-9"
             style="fill:#f71e31;fill-opacity:1" />
        </g>
      </g>
      <g
         id="g12-2-2-1-5-6"
         transform="matrix(0.02343752,0,0,0.02343752,63.799995,39.882529)"
         style="display:inline;fill:#f71e31;fill-opacity:1">
        <g
           id="g10-8-6-3-9-51"
           style="fill:#f71e31;fill-opacity:1">
          <path
             d="m 511.109,220.854 c -1.777,-5.181 -5.984,-9.165 -11.263,-10.651 l -30.105,-8.456 19.384,-24.538 c 3.404,-4.298 4.466,-9.99 2.851,-15.226 -1.615,-5.236 -5.703,-9.339 -10.928,-10.982 -35.862,-11.259 -78.652,-20.739 -124.314,-5.908 -4.185,1.361 -8.337,2.922 -12.457,4.684 0.412,-4.462 0.618,-8.89 0.618,-13.28 0,-47.972 -22.289,-85.736 -44.102,-116.352 -3.176,-4.462 -8.586,-7.171 -13.822,-6.993 -5.475,0.087 -10.559,2.856 -13.595,7.416 L 256.085,46.516 238.783,20.568 c -3.035,-4.558 -8.119,-7.329 -13.595,-7.416 -5.377,-0.179 -10.657,2.531 -13.822,6.993 -21.802,30.598 -44.091,68.358 -44.091,116.352 0,4.347 0.207,8.732 0.607,13.145 -4.131,-1.74 -8.315,-3.285 -12.575,-4.646 -46.27,-14.847 -90.609,-4.558 -124.076,6.071 -5.214,1.653 -9.279,5.762 -10.874,10.987 -1.604,5.231 -0.542,10.911 2.841,15.199 l 19.308,24.463 -30.355,8.51 c -5.291,1.485 -9.507,5.481 -11.274,10.684 -1.756,5.204 -0.846,10.944 2.45,15.34 22.625,30.165 51.875,63.003 97.493,77.936 3.676,1.166 7.404,2.196 11.188,3.089 -2.2,2.618 -4.293,5.285 -6.267,8.006 -28.392,39.082 -32.448,84.696 -32.805,120.064 -0.054,5.481 2.591,10.635 7.068,13.784 4.477,3.161 10.234,3.898 15.362,2 l 29.336,-10.857 -1.258,31.265 c -0.216,5.475 2.266,10.706 6.656,13.991 4.369,3.279 10.093,4.19 15.296,2.461 33.531,-11.286 75.659,-29.244 104.042,-68.309 2.309,-3.182 4.51,-6.489 6.592,-9.903 2.07,3.42 4.272,6.727 6.581,9.909 28.381,39.065 70.52,57.024 104.052,68.304 1.735,0.579 3.535,0.867 5.312,0.867 3.556,0 7.068,-1.138 9.995,-3.328 4.379,-3.29 6.863,-8.521 6.645,-13.995 l -1.269,-31.26 29.336,10.857 c 5.128,1.897 10.885,1.16 15.362,-2 4.477,-3.149 7.123,-8.304 7.068,-13.784 -0.357,-35.363 -4.402,-80.971 -32.805,-120.054 -1.984,-2.732 -4.076,-5.415 -6.277,-8.038 3.935,-0.927 7.794,-2.006 11.579,-3.23 45.89,-14.907 75.996,-49.44 97.103,-77.855 3.264,-4.405 4.165,-10.128 2.397,-15.316 z M 255.197,325.216 c -30.604,0 -55.506,-24.902 -55.506,-55.506 0,-30.604 24.902,-55.506 55.506,-55.506 30.604,0 55.506,24.902 55.506,55.506 0,30.604 -24.902,55.506 -55.506,55.506 z"
             id="path8-8-6-2-9-63-1"
             style="fill:#f71e31;fill-opacity:1" />
        </g>
      </g>
      <g
         id="g12-2-2-14-1"
         transform="matrix(0.02343752,0,0,0.02343752,79.968137,50.278141)"
         style="display:inline;fill:#f71e31;fill-opacity:1">
        <g
           id="g10-8-6-5-2"
           style="fill:#f71e31;fill-opacity:1">
          <path
             d="m 511.109,220.854 c -1.777,-5.181 -5.984,-9.165 -11.263,-10.651 l -30.105,-8.456 19.384,-24.538 c 3.404,-4.298 4.466,-9.99 2.851,-15.226 -1.615,-5.236 -5.703,-9.339 -10.928,-10.982 -35.862,-11.259 -78.652,-20.739 -124.314,-5.908 -4.185,1.361 -8.337,2.922 -12.457,4.684 0.412,-4.462 0.618,-8.89 0.618,-13.28 0,-47.972 -22.289,-85.736 -44.102,-116.352 -3.176,-4.462 -8.586,-7.171 -13.822,-6.993 -5.475,0.087 -10.559,2.856 -13.595,7.416 L 256.085,46.516 238.783,20.568 c -3.035,-4.558 -8.119,-7.329 -13.595,-7.416 -5.377,-0.179 -10.657,2.531 -13.822,6.993 -21.802,30.598 -44.091,68.358 -44.091,116.352 0,4.347 0.207,8.732 0.607,13.145 -4.131,-1.74 -8.315,-3.285 -12.575,-4.646 -46.27,-14.847 -90.609,-4.558 -124.076,6.071 -5.214,1.653 -9.279,5.762 -10.874,10.987 -1.604,5.231 -0.542,10.911 2.841,15.199 l 19.308,24.463 -30.355,8.51 c -5.291,1.485 -9.507,5.481 -11.274,10.684 -1.756,5.204 -0.846,10.944 2.45,15.34 22.625,30.165 51.875,63.003 97.493,77.936 3.676,1.166 7.404,2.196 11.188,3.089 -2.2,2.618 -4.293,5.285 -6.267,8.006 -28.392,39.082 -32.448,84.696 -32.805,120.064 -0.054,5.481 2.591,10.635 7.068,13.784 4.477,3.161 10.234,3.898 15.362,2 l 29.336,-10.857 -1.258,31.265 c -0.216,5.475 2.266,10.706 6.656,13.991 4.369,3.279 10.093,4.19 15.296,2.461 33.531,-11.286 75.659,-29.244 104.042,-68.309 2.309,-3.182 4.51,-6.489 6.592,-9.903 2.07,3.42 4.272,6.727 6.581,9.909 28.381,39.065 70.52,57.024 104.052,68.304 1.735,0.579 3.535,0.867 5.312,0.867 3.556,0 7.068,-1.138 9.995,-3.328 4.379,-3.29 6.863,-8.521 6.645,-13.995 l -1.269,-31.26 29.336,10.857 c 5.128,1.897 10.885,1.16 15.362,-2 4.477,-3.149 7.123,-8.304 7.068,-13.784 -0.357,-35.363 -4.402,-80.971 -32.805,-120.054 -1.984,-2.732 -4.076,-5.415 -6.277,-8.038 3.935,-0.927 7.794,-2.006 11.579,-3.23 45.89,-14.907 75.996,-49.44 97.103,-77.855 3.264,-4.405 4.165,-10.128 2.397,-15.316 z M 255.197,325.216 c -30.604,0 -55.506,-24.902 -55.506,-55.506 0,-30.604 24.902,-55.506 55.506,-55.506 30.604,0 55.506,24.902 55.506,55.506 0,30.604 -24.902,55.506 -55.506,55.506 z"
             id="path8-8-6-2-2-1"
             style="fill:#f71e31;fill-opacity:1" />
        </g>
      </g>
    </g>
    <g
       id="g3441-8-6-4"
       style="display:inline"
       transform="matrix(0.84905661,0,0,0.84905661,39.696422,-10.287386)">
      <g
         id="g4022-16-69-9">
        <g
           id="g22226-7-3-4"
           transform="matrix(0.54835514,0,0,0.54835514,-13.965797,15.325438)"
           style="display:inline">
          <g
             id="g22138-63-3-6"
             transform="translate(-26.833461,54.442803)">
            <g
               id="Page-1-8-2-4-3"
               stroke="none"
               stroke-width="1"
               fill="none"
               fill-rule="evenodd"
               sketch:type="MSPage"
               style="fill:#81cc29;fill-opacity:1"
               transform="matrix(1.25,0,0,1.25,123.91155,12.485537)">
              <g
                 id="Icon-Set-Filled-05-0-9"
                 sketch:type="MSLayerGroup"
                 transform="translate(-519,-781)"
                 fill="#000000"
                 style="fill:#81cc29;fill-opacity:1">
                <path
                   d="M 542.067,786.028 C 540.599,783.053 537.543,781 534,781 c -4.749,0 -8.63,3.682 -8.967,8.345 C 521.542,790.34 519,793.39 519,797 c 0,4.26 3.54,7.755 8,8 h 15 c 4.966,0 9,-4.253 9,-9.5 0,-5.056 -3.951,-9.177 -8.933,-9.472"
                   id="cloud-9-6-8"
                   sketch:type="MSShapeGroup"
                   style="fill:#99ffcc;fill-opacity:1" />
              </g>
            </g>
            <path
               id="cloud-7-1-9-2"
               style="fill:#5de7a2;fill-opacity:1;fill-rule:evenodd;stroke:none;stroke-width:1.25"
               d="m 142.66142,12.485383 c -5.93625,0 -10.78737,4.602654 -11.20862,10.431404 -4.36375,1.243751 -7.54166,5.056426 -7.54166,9.568923 0,5.325002 4.42491,9.693659 9.99991,9.999909 h 4.23385 c -5.575,-0.30625 -10.00043,-4.674907 -10.00043,-9.999909 0,-4.512497 3.17791,-8.325172 7.54166,-9.568923 0.36984,-5.117375 4.15439,-9.28873 9.08989,-10.2309 -0.68475,-0.130707 -1.3914,-0.200504 -2.1146,-0.200504 z" />
          </g>
          <g
             id="g22138-4-9-8-6"
             transform="translate(0.33401899,35.484808)"
             style="display:inline">
            <g
               id="Page-1-8-0-6-8-0"
               stroke="none"
               stroke-width="1"
               fill="none"
               fill-rule="evenodd"
               sketch:type="MSPage"
               style="fill:#81cc29;fill-opacity:1"
               transform="matrix(1.25,0,0,1.25,123.91155,12.485537)">
              <g
                 id="Icon-Set-Filled-2-9-90-3"
                 sketch:type="MSLayerGroup"
                 transform="translate(-519,-781)"
                 fill="#000000"
                 style="fill:#81cc29;fill-opacity:1">
                <path
                   d="M 542.067,786.028 C 540.599,783.053 537.543,781 534,781 c -4.749,0 -8.63,3.682 -8.967,8.345 C 521.542,790.34 519,793.39 519,797 c 0,4.26 3.54,7.755 8,8 h 15 c 4.966,0 9,-4.253 9,-9.5 0,-5.056 -3.951,-9.177 -8.933,-9.472"
                   id="cloud-1-3-0-7"
                   sketch:type="MSShapeGroup"
                   style="fill:#99ffcc;fill-opacity:1" />
              </g>
            </g>
            <path
               id="cloud-7-8-0-2-1"
               style="fill:#5de7a2;fill-opacity:1;fill-rule:evenodd;stroke:none;stroke-width:1.25"
               d="m 142.66142,12.485383 c -5.93625,0 -10.78737,4.602654 -11.20862,10.431404 -4.36375,1.243751 -7.54166,5.056426 -7.54166,9.568923 0,5.325002 4.42491,9.693659 9.99991,9.999909 h 4.23385 c -5.575,-0.30625 -10.00043,-4.674907 -10.00043,-9.999909 0,-4.512497 3.17791,-8.325172 7.54166,-9.568923 0.36984,-5.117375 4.15439,-9.28873 9.08989,-10.2309 -0.68475,-0.130707 -1.3914,-0.200504 -2.1146,-0.200504 z" />
          </g>
          <g
             id="g22138-5-5-43-0"
             transform="translate(29.81882,54.442617)"
             style="display:inline">
            <g
               id="Page-1-8-4-0-74-3"
               stroke="none"
               stroke-width="1"
               fill="none"
               fill-rule="evenodd"
               sketch:type="MSPage"
               style="fill:#81cc29;fill-opacity:1"
               transform="matrix(1.25,0,0,1.25,123.91155,12.485537)">
              <g
                 id="Icon-Set-Filled-8-6-2-1"
                 sketch:type="MSLayerGroup"
                 transform="translate(-519,-781)"
                 fill="#000000"
                 style="fill:#81cc29;fill-opacity:1">
                <path
                   d="M 542.067,786.028 C 540.599,783.053 537.543,781 534,781 c -4.749,0 -8.63,3.682 -8.967,8.345 C 521.542,790.34 519,793.39 519,797 c 0,4.26 3.54,7.755 8,8 h 15 c 4.966,0 9,-4.253 9,-9.5 0,-5.056 -3.951,-9.177 -8.933,-9.472"
                   id="cloud-3-2-7-4"
                   sketch:type="MSShapeGroup"
                   style="fill:#99ffcc;fill-opacity:1" />
              </g>
            </g>
            <path
               id="cloud-7-4-7-07-2"
               style="fill:#5de7a2;fill-opacity:1;fill-rule:evenodd;stroke:none;stroke-width:1.25"
               d="m 142.66142,12.485383 c -5.93625,0 -10.78737,4.602654 -11.20862,10.431404 -4.36375,1.243751 -7.54166,5.056426 -7.54166,9.568923 0,5.325002 4.42491,9.693659 9.99991,9.999909 h 4.23385 c -5.575,-0.30625 -10.00043,-4.674907 -10.00043,-9.999909 0,-4.512497 3.17791,-8.325172 7.54166,-9.568923 0.36984,-5.117375 4.15439,-9.28873 9.08989,-10.2309 -0.68475,-0.130707 -1.3914,-0.200504 -2.1146,-0.200504 z" />
          </g>
        </g>
      </g>
      <g
         id="g12-2-2-1-8-6-5-9"
         transform="matrix(0.02343752,0,0,0.02343752,48.902568,50.278243)"
         style="display:inline;fill:#f71e31;fill-opacity:1">
        <g
           id="g10-8-6-3-7-1-7-6"
           style="fill:#f71e31;fill-opacity:1">
          <path
             d="m 511.109,220.854 c -1.777,-5.181 -5.984,-9.165 -11.263,-10.651 l -30.105,-8.456 19.384,-24.538 c 3.404,-4.298 4.466,-9.99 2.851,-15.226 -1.615,-5.236 -5.703,-9.339 -10.928,-10.982 -35.862,-11.259 -78.652,-20.739 -124.314,-5.908 -4.185,1.361 -8.337,2.922 -12.457,4.684 0.412,-4.462 0.618,-8.89 0.618,-13.28 0,-47.972 -22.289,-85.736 -44.102,-116.352 -3.176,-4.462 -8.586,-7.171 -13.822,-6.993 -5.475,0.087 -10.559,2.856 -13.595,7.416 L 256.085,46.516 238.783,20.568 c -3.035,-4.558 -8.119,-7.329 -13.595,-7.416 -5.377,-0.179 -10.657,2.531 -13.822,6.993 -21.802,30.598 -44.091,68.358 -44.091,116.352 0,4.347 0.207,8.732 0.607,13.145 -4.131,-1.74 -8.315,-3.285 -12.575,-4.646 -46.27,-14.847 -90.609,-4.558 -124.076,6.071 -5.214,1.653 -9.279,5.762 -10.874,10.987 -1.604,5.231 -0.542,10.911 2.841,15.199 l 19.308,24.463 -30.355,8.51 c -5.291,1.485 -9.507,5.481 -11.274,10.684 -1.756,5.204 -0.846,10.944 2.45,15.34 22.625,30.165 51.875,63.003 97.493,77.936 3.676,1.166 7.404,2.196 11.188,3.089 -2.2,2.618 -4.293,5.285 -6.267,8.006 -28.392,39.082 -32.448,84.696 -32.805,120.064 -0.054,5.481 2.591,10.635 7.068,13.784 4.477,3.161 10.234,3.898 15.362,2 l 29.336,-10.857 -1.258,31.265 c -0.216,5.475 2.266,10.706 6.656,13.991 4.369,3.279 10.093,4.19 15.296,2.461 33.531,-11.286 75.659,-29.244 104.042,-68.309 2.309,-3.182 4.51,-6.489 6.592,-9.903 2.07,3.42 4.272,6.727 6.581,9.909 28.381,39.065 70.52,57.024 104.052,68.304 1.735,0.579 3.535,0.867 5.312,0.867 3.556,0 7.068,-1.138 9.995,-3.328 4.379,-3.29 6.863,-8.521 6.645,-13.995 l -1.269,-31.26 29.336,10.857 c 5.128,1.897 10.885,1.16 15.362,-2 4.477,-3.149 7.123,-8.304 7.068,-13.784 -0.357,-35.363 -4.402,-80.971 -32.805,-120.054 -1.984,-2.732 -4.076,-5.415 -6.277,-8.038 3.935,-0.927 7.794,-2.006 11.579,-3.23 45.89,-14.907 75.996,-49.44 97.103,-77.855 3.264,-4.405 4.165,-10.128 2.397,-15.316 z M 255.197,325.216 c -30.604,0 -55.506,-24.902 -55.506,-55.506 0,-30.604 24.902,-55.506 55.506,-55.506 30.604,0 55.506,24.902 55.506,55.506 0,30.604 -24.902,55.506 -55.506,55.506 z"
             id="path8-8-6-2-9-0-84-1-5"
             style="fill:#f71e31;fill-opacity:1" />
        </g>
      </g>
      <g
         id="g12-2-2-1-5-8-0"
         transform="matrix(0.02343752,0,0,0.02343752,63.799995,39.882529)"
         style="display:inline;fill:#f71e31;fill-opacity:1">
        <g
           id="g10-8-6-3-9-0-5"
           style="fill:#f71e31;fill-opacity:1">
          <path
             d="m 511.109,220.854 c -1.777,-5.181 -5.984,-9.165 -11.263,-10.651 l -30.105,-8.456 19.384,-24.538 c 3.404,-4.298 4.466,-9.99 2.851,-15.226 -1.615,-5.236 -5.703,-9.339 -10.928,-10.982 -35.862,-11.259 -78.652,-20.739 -124.314,-5.908 -4.185,1.361 -8.337,2.922 -12.457,4.684 0.412,-4.462 0.618,-8.89 0.618,-13.28 0,-47.972 -22.289,-85.736 -44.102,-116.352 -3.176,-4.462 -8.586,-7.171 -13.822,-6.993 -5.475,0.087 -10.559,2.856 -13.595,7.416 L 256.085,46.516 238.783,20.568 c -3.035,-4.558 -8.119,-7.329 -13.595,-7.416 -5.377,-0.179 -10.657,2.531 -13.822,6.993 -21.802,30.598 -44.091,68.358 -44.091,116.352 0,4.347 0.207,8.732 0.607,13.145 -4.131,-1.74 -8.315,-3.285 -12.575,-4.646 -46.27,-14.847 -90.609,-4.558 -124.076,6.071 -5.214,1.653 -9.279,5.762 -10.874,10.987 -1.604,5.231 -0.542,10.911 2.841,15.199 l 19.308,24.463 -30.355,8.51 c -5.291,1.485 -9.507,5.481 -11.274,10.684 -1.756,5.204 -0.846,10.944 2.45,15.34 22.625,30.165 51.875,63.003 97.493,77.936 3.676,1.166 7.404,2.196 11.188,3.089 -2.2,2.618 -4.293,5.285 -6.267,8.006 -28.392,39.082 -32.448,84.696 -32.805,120.064 -0.054,5.481 2.591,10.635 7.068,13.784 4.477,3.161 10.234,3.898 15.362,2 l 29.336,-10.857 -1.258,31.265 c -0.216,5.475 2.266,10.706 6.656,13.991 4.369,3.279 10.093,4.19 15.296,2.461 33.531,-11.286 75.659,-29.244 104.042,-68.309 2.309,-3.182 4.51,-6.489 6.592,-9.903 2.07,3.42 4.272,6.727 6.581,9.909 28.381,39.065 70.52,57.024 104.052,68.304 1.735,0.579 3.535,0.867 5.312,0.867 3.556,0 7.068,-1.138 9.995,-3.328 4.379,-3.29 6.863,-8.521 6.645,-13.995 l -1.269,-31.26 29.336,10.857 c 5.128,1.897 10.885,1.16 15.362,-2 4.477,-3.149 7.123,-8.304 7.068,-13.784 -0.357,-35.363 -4.402,-80.971 -32.805,-120.054 -1.984,-2.732 -4.076,-5.415 -6.277,-8.038 3.935,-0.927 7.794,-2.006 11.579,-3.23 45.89,-14.907 75.996,-49.44 97.103,-77.855 3.264,-4.405 4.165,-10.128 2.397,-15.316 z M 255.197,325.216 c -30.604,0 -55.506,-24.902 -55.506,-55.506 0,-30.604 24.902,-55.506 55.506,-55.506 30.604,0 55.506,24.902 55.506,55.506 0,30.604 -24.902,55.506 -55.506,55.506 z"
             id="path8-8-6-2-9-63-18-2"
             style="fill:#f71e31;fill-opacity:1" />
        </g>
      </g>
      <g
         id="g12-2-2-14-7-0"
         transform="matrix(0.02343752,0,0,0.02343752,79.968137,50.278141)"
         style="display:inline;fill:#f71e31;fill-opacity:1">
        <g
           id="g10-8-6-5-1-9"
           style="fill:#f71e31;fill-opacity:1">
          <path
             d="m 511.109,220.854 c -1.777,-5.181 -5.984,-9.165 -11.263,-10.651 l -30.105,-8.456 19.384,-24.538 c 3.404,-4.298 4.466,-9.99 2.851,-15.226 -1.615,-5.236 -5.703,-9.339 -10.928,-10.982 -35.862,-11.259 -78.652,-20.739 -124.314,-5.908 -4.185,1.361 -8.337,2.922 -12.457,4.684 0.412,-4.462 0.618,-8.89 0.618,-13.28 0,-47.972 -22.289,-85.736 -44.102,-116.352 -3.176,-4.462 -8.586,-7.171 -13.822,-6.993 -5.475,0.087 -10.559,2.856 -13.595,7.416 L 256.085,46.516 238.783,20.568 c -3.035,-4.558 -8.119,-7.329 -13.595,-7.416 -5.377,-0.179 -10.657,2.531 -13.822,6.993 -21.802,30.598 -44.091,68.358 -44.091,116.352 0,4.347 0.207,8.732 0.607,13.145 -4.131,-1.74 -8.315,-3.285 -12.575,-4.646 -46.27,-14.847 -90.609,-4.558 -124.076,6.071 -5.214,1.653 -9.279,5.762 -10.874,10.987 -1.604,5.231 -0.542,10.911 2.841,15.199 l 19.308,24.463 -30.355,8.51 c -5.291,1.485 -9.507,5.481 -11.274,10.684 -1.756,5.204 -0.846,10.944 2.45,15.34 22.625,30.165 51.875,63.003 97.493,77.936 3.676,1.166 7.404,2.196 11.188,3.089 -2.2,2.618 -4.293,5.285 -6.267,8.006 -28.392,39.082 -32.448,84.696 -32.805,120.064 -0.054,5.481 2.591,10.635 7.068,13.784 4.477,3.161 10.234,3.898 15.362,2 l 29.336,-10.857 -1.258,31.265 c -0.216,5.475 2.266,10.706 6.656,13.991 4.369,3.279 10.093,4.19 15.296,2.461 33.531,-11.286 75.659,-29.244 104.042,-68.309 2.309,-3.182 4.51,-6.489 6.592,-9.903 2.07,3.42 4.272,6.727 6.581,9.909 28.381,39.065 70.52,57.024 104.052,68.304 1.735,0.579 3.535,0.867 5.312,0.867 3.556,0 7.068,-1.138 9.995,-3.328 4.379,-3.29 6.863,-8.521 6.645,-13.995 l -1.269,-31.26 29.336,10.857 c 5.128,1.897 10.885,1.16 15.362,-2 4.477,-3.149 7.123,-8.304 7.068,-13.784 -0.357,-35.363 -4.402,-80.971 -32.805,-120.054 -1.984,-2.732 -4.076,-5.415 -6.277,-8.038 3.935,-0.927 7.794,-2.006 11.579,-3.23 45.89,-14.907 75.996,-49.44 97.103,-77.855 3.264,-4.405 4.165,-10.128 2.397,-15.316 z M 255.197,325.216 c -30.604,0 -55.506,-24.902 -55.506,-55.506 0,-30.604 24.902,-55.506 55.506,-55.506 30.604,0 55.506,24.902 55.506,55.506 0,30.604 -24.902,55.506 -55.506,55.506 z"
             id="path8-8-6-2-2-9-1"
             style="fill:#f71e31;fill-opacity:1" />
        </g>
      </g>
    </g>
    <g
       id="g3441-8-6"
       style="display:inline"
       transform="matrix(0.84905661,0,0,0.84905661,2.2356784,2.6135381)">
      <g
         id="g4022-16-69">
        <g
           id="g22226-7-3"
           transform="matrix(0.54835514,0,0,0.54835514,-13.965797,15.325438)"
           style="display:inline">
          <g
             id="g22138-63-3"
             transform="translate(-26.833461,54.442803)">
            <g
               id="Page-1-8-2-4"
               stroke="none"
               stroke-width="1"
               fill="none"
               fill-rule="evenodd"
               sketch:type="MSPage"
               style="fill:#81cc29;fill-opacity:1"
               transform="matrix(1.25,0,0,1.25,123.91155,12.485537)">
              <g
                 id="Icon-Set-Filled-05-0"
                 sketch:type="MSLayerGroup"
                 transform="translate(-519,-781)"
                 fill="#000000"
                 style="fill:#81cc29;fill-opacity:1">
                <path
                   d="M 542.067,786.028 C 540.599,783.053 537.543,781 534,781 c -4.749,0 -8.63,3.682 -8.967,8.345 C 521.542,790.34 519,793.39 519,797 c 0,4.26 3.54,7.755 8,8 h 15 c 4.966,0 9,-4.253 9,-9.5 0,-5.056 -3.951,-9.177 -8.933,-9.472"
                   id="cloud-9-6"
                   sketch:type="MSShapeGroup"
                   style="fill:#99ffcc;fill-opacity:1" />
              </g>
            </g>
            <path
               id="cloud-7-1-9"
               style="fill:#5de7a2;fill-opacity:1;fill-rule:evenodd;stroke:none;stroke-width:1.25"
               d="m 142.66142,12.485383 c -5.93625,0 -10.78737,4.602654 -11.20862,10.431404 -4.36375,1.243751 -7.54166,5.056426 -7.54166,9.568923 0,5.325002 4.42491,9.693659 9.99991,9.999909 h 4.23385 c -5.575,-0.30625 -10.00043,-4.674907 -10.00043,-9.999909 0,-4.512497 3.17791,-8.325172 7.54166,-9.568923 0.36984,-5.117375 4.15439,-9.28873 9.08989,-10.2309 -0.68475,-0.130707 -1.3914,-0.200504 -2.1146,-0.200504 z" />
          </g>
          <g
             id="g22138-4-9-8"
             transform="translate(0.33401899,35.484808)"
             style="display:inline">
            <g
               id="Page-1-8-0-6-8"
               stroke="none"
               stroke-width="1"
               fill="none"
               fill-rule="evenodd"
               sketch:type="MSPage"
               style="fill:#81cc29;fill-opacity:1"
               transform="matrix(1.25,0,0,1.25,123.91155,12.485537)">
              <g
                 id="Icon-Set-Filled-2-9-90"
                 sketch:type="MSLayerGroup"
                 transform="translate(-519,-781)"
                 fill="#000000"
                 style="fill:#81cc29;fill-opacity:1">
                <path
                   d="M 542.067,786.028 C 540.599,783.053 537.543,781 534,781 c -4.749,0 -8.63,3.682 -8.967,8.345 C 521.542,790.34 519,793.39 519,797 c 0,4.26 3.54,7.755 8,8 h 15 c 4.966,0 9,-4.253 9,-9.5 0,-5.056 -3.951,-9.177 -8.933,-9.472"
                   id="cloud-1-3-0"
                   sketch:type="MSShapeGroup"
                   style="fill:#99ffcc;fill-opacity:1" />
              </g>
            </g>
            <path
               id="cloud-7-8-0-2"
               style="fill:#5de7a2;fill-opacity:1;fill-rule:evenodd;stroke:none;stroke-width:1.25"
               d="m 142.66142,12.485383 c -5.93625,0 -10.78737,4.602654 -11.20862,10.431404 -4.36375,1.243751 -7.54166,5.056426 -7.54166,9.568923 0,5.325002 4.42491,9.693659 9.99991,9.999909 h 4.23385 c -5.575,-0.30625 -10.00043,-4.674907 -10.00043,-9.999909 0,-4.512497 3.17791,-8.325172 7.54166,-9.568923 0.36984,-5.117375 4.15439,-9.28873 9.08989,-10.2309 -0.68475,-0.130707 -1.3914,-0.200504 -2.1146,-0.200504 z" />
          </g>
          <g
             id="g22138-5-5-43"
             transform="translate(29.81882,54.442617)"
             style="display:inline">
            <g
               id="Page-1-8-4-0-74"
               stroke="none"
               stroke-width="1"
               fill="none"
               fill-rule="evenodd"
               sketch:type="MSPage"
               style="fill:#81cc29;fill-opacity:1"
               transform="matrix(1.25,0,0,1.25,123.91155,12.485537)">
              <g
                 id="Icon-Set-Filled-8-6-2"
                 sketch:type="MSLayerGroup"
                 transform="translate(-519,-781)"
                 fill="#000000"
                 style="fill:#81cc29;fill-opacity:1">
                <path
                   d="M 542.067,786.028 C 540.599,783.053 537.543,781 534,781 c -4.749,0 -8.63,3.682 -8.967,8.345 C 521.542,790.34 519,793.39 519,797 c 0,4.26 3.54,7.755 8,8 h 15 c 4.966,0 9,-4.253 9,-9.5 0,-5.056 -3.951,-9.177 -8.933,-9.472"
                   id="cloud-3-2-7"
                   sketch:type="MSShapeGroup"
                   style="fill:#99ffcc;fill-opacity:1" />
              </g>
            </g>
            <path
               id="cloud-7-4-7-07"
               style="fill:#5de7a2;fill-opacity:1;fill-rule:evenodd;stroke:none;stroke-width:1.25"
               d="m 142.66142,12.485383 c -5.93625,0 -10.78737,4.602654 -11.20862,10.431404 -4.36375,1.243751 -7.54166,5.056426 -7.54166,9.568923 0,5.325002 4.42491,9.693659 9.99991,9.999909 h 4.23385 c -5.575,-0.30625 -10.00043,-4.674907 -10.00043,-9.999909 0,-4.512497 3.17791,-8.325172 7.54166,-9.568923 0.36984,-5.117375 4.15439,-9.28873 9.08989,-10.2309 -0.68475,-0.130707 -1.3914,-0.200504 -2.1146,-0.200504 z" />
          </g>
        </g>
      </g>
      <g
         id="g12-2-2-1-8-6-5"
         transform="matrix(0.02343752,0,0,0.02343752,48.902568,50.278243)"
         style="display:inline;fill:#f71e31;fill-opacity:1">
        <g
           id="g10-8-6-3-7-1-7"
           style="fill:#f71e31;fill-opacity:1">
          <path
             d="m 511.109,220.854 c -1.777,-5.181 -5.984,-9.165 -11.263,-10.651 l -30.105,-8.456 19.384,-24.538 c 3.404,-4.298 4.466,-9.99 2.851,-15.226 -1.615,-5.236 -5.703,-9.339 -10.928,-10.982 -35.862,-11.259 -78.652,-20.739 -124.314,-5.908 -4.185,1.361 -8.337,2.922 -12.457,4.684 0.412,-4.462 0.618,-8.89 0.618,-13.28 0,-47.972 -22.289,-85.736 -44.102,-116.352 -3.176,-4.462 -8.586,-7.171 -13.822,-6.993 -5.475,0.087 -10.559,2.856 -13.595,7.416 L 256.085,46.516 238.783,20.568 c -3.035,-4.558 -8.119,-7.329 -13.595,-7.416 -5.377,-0.179 -10.657,2.531 -13.822,6.993 -21.802,30.598 -44.091,68.358 -44.091,116.352 0,4.347 0.207,8.732 0.607,13.145 -4.131,-1.74 -8.315,-3.285 -12.575,-4.646 -46.27,-14.847 -90.609,-4.558 -124.076,6.071 -5.214,1.653 -9.279,5.762 -10.874,10.987 -1.604,5.231 -0.542,10.911 2.841,15.199 l 19.308,24.463 -30.355,8.51 c -5.291,1.485 -9.507,5.481 -11.274,10.684 -1.756,5.204 -0.846,10.944 2.45,15.34 22.625,30.165 51.875,63.003 97.493,77.936 3.676,1.166 7.404,2.196 11.188,3.089 -2.2,2.618 -4.293,5.285 -6.267,8.006 -28.392,39.082 -32.448,84.696 -32.805,120.064 -0.054,5.481 2.591,10.635 7.068,13.784 4.477,3.161 10.234,3.898 15.362,2 l 29.336,-10.857 -1.258,31.265 c -0.216,5.475 2.266,10.706 6.656,13.991 4.369,3.279 10.093,4.19 15.296,2.461 33.531,-11.286 75.659,-29.244 104.042,-68.309 2.309,-3.182 4.51,-6.489 6.592,-9.903 2.07,3.42 4.272,6.727 6.581,9.909 28.381,39.065 70.52,57.024 104.052,68.304 1.735,0.579 3.535,0.867 5.312,0.867 3.556,0 7.068,-1.138 9.995,-3.328 4.379,-3.29 6.863,-8.521 6.645,-13.995 l -1.269,-31.26 29.336,10.857 c 5.128,1.897 10.885,1.16 15.362,-2 4.477,-3.149 7.123,-8.304 7.068,-13.784 -0.357,-35.363 -4.402,-80.971 -32.805,-120.054 -1.984,-2.732 -4.076,-5.415 -6.277,-8.038 3.935,-0.927 7.794,-2.006 11.579,-3.23 45.89,-14.907 75.996,-49.44 97.103,-77.855 3.264,-4.405 4.165,-10.128 2.397,-15.316 z M 255.197,325.216 c -30.604,0 -55.506,-24.902 -55.506,-55.506 0,-30.604 24.902,-55.506 55.506,-55.506 30.604,0 55.506,24.902 55.506,55.506 0,30.604 -24.902,55.506 -55.506,55.506 z"
             id="path8-8-6-2-9-0-84-1"
             style="fill:#f71e31;fill-opacity:1" />
        </g>
      </g>
      <g
         id="g12-2-2-1-5-8"
         transform="matrix(0.02343752,0,0,0.02343752,63.799995,39.882529)"
         style="display:inline;fill:#f71e31;fill-opacity:1">
        <g
           id="g10-8-6-3-9-0"
           style="fill:#f71e31;fill-opacity:1">
          <path
             d="m 511.109,220.854 c -1.777,-5.181 -5.984,-9.165 -11.263,-10.651 l -30.105,-8.456 19.384,-24.538 c 3.404,-4.298 4.466,-9.99 2.851,-15.226 -1.615,-5.236 -5.703,-9.339 -10.928,-10.982 -35.862,-11.259 -78.652,-20.739 -124.314,-5.908 -4.185,1.361 -8.337,2.922 -12.457,4.684 0.412,-4.462 0.618,-8.89 0.618,-13.28 0,-47.972 -22.289,-85.736 -44.102,-116.352 -3.176,-4.462 -8.586,-7.171 -13.822,-6.993 -5.475,0.087 -10.559,2.856 -13.595,7.416 L 256.085,46.516 238.783,20.568 c -3.035,-4.558 -8.119,-7.329 -13.595,-7.416 -5.377,-0.179 -10.657,2.531 -13.822,6.993 -21.802,30.598 -44.091,68.358 -44.091,116.352 0,4.347 0.207,8.732 0.607,13.145 -4.131,-1.74 -8.315,-3.285 -12.575,-4.646 -46.27,-14.847 -90.609,-4.558 -124.076,6.071 -5.214,1.653 -9.279,5.762 -10.874,10.987 -1.604,5.231 -0.542,10.911 2.841,15.199 l 19.308,24.463 -30.355,8.51 c -5.291,1.485 -9.507,5.481 -11.274,10.684 -1.756,5.204 -0.846,10.944 2.45,15.34 22.625,30.165 51.875,63.003 97.493,77.936 3.676,1.166 7.404,2.196 11.188,3.089 -2.2,2.618 -4.293,5.285 -6.267,8.006 -28.392,39.082 -32.448,84.696 -32.805,120.064 -0.054,5.481 2.591,10.635 7.068,13.784 4.477,3.161 10.234,3.898 15.362,2 l 29.336,-10.857 -1.258,31.265 c -0.216,5.475 2.266,10.706 6.656,13.991 4.369,3.279 10.093,4.19 15.296,2.461 33.531,-11.286 75.659,-29.244 104.042,-68.309 2.309,-3.182 4.51,-6.489 6.592,-9.903 2.07,3.42 4.272,6.727 6.581,9.909 28.381,39.065 70.52,57.024 104.052,68.304 1.735,0.579 3.535,0.867 5.312,0.867 3.556,0 7.068,-1.138 9.995,-3.328 4.379,-3.29 6.863,-8.521 6.645,-13.995 l -1.269,-31.26 29.336,10.857 c 5.128,1.897 10.885,1.16 15.362,-2 4.477,-3.149 7.123,-8.304 7.068,-13.784 -0.357,-35.363 -4.402,-80.971 -32.805,-120.054 -1.984,-2.732 -4.076,-5.415 -6.277,-8.038 3.935,-0.927 7.794,-2.006 11.579,-3.23 45.89,-14.907 75.996,-49.44 97.103,-77.855 3.264,-4.405 4.165,-10.128 2.397,-15.316 z M 255.197,325.216 c -30.604,0 -55.506,-24.902 -55.506,-55.506 0,-30.604 24.902,-55.506 55.506,-55.506 30.604,0 55.506,24.902 55.506,55.506 0,30.604 -24.902,55.506 -55.506,55.506 z"
             id="path8-8-6-2-9-63-18"
             style="fill:#f71e31;fill-opacity:1" />
        </g>
      </g>
      <g
         id="g12-2-2-14-7"
         transform="matrix(0.02343752,0,0,0.02343752,79.968137,50.278141)"
         style="display:inline;fill:#f71e31;fill-opacity:1">
        <g
           id="g10-8-6-5-1"
           style="fill:#f71e31;fill-opacity:1">
          <path
             d="m 511.109,220.854 c -1.777,-5.181 -5.984,-9.165 -11.263,-10.651 l -30.105,-8.456 19.384,-24.538 c 3.404,-4.298 4.466,-9.99 2.851,-15.226 -1.615,-5.236 -5.703,-9.339 -10.928,-10.982 -35.862,-11.259 -78.652,-20.739 -124.314,-5.908 -4.185,1.361 -8.337,2.922 -12.457,4.684 0.412,-4.462 0.618,-8.89 0.618,-13.28 0,-47.972 -22.289,-85.736 -44.102,-116.352 -3.176,-4.462 -8.586,-7.171 -13.822,-6.993 -5.475,0.087 -10.559,2.856 -13.595,7.416 L 256.085,46.516 238.783,20.568 c -3.035,-4.558 -8.119,-7.329 -13.595,-7.416 -5.377,-0.179 -10.657,2.531 -13.822,6.993 -21.802,30.598 -44.091,68.358 -44.091,116.352 0,4.347 0.207,8.732 0.607,13.145 -4.131,-1.74 -8.315,-3.285 -12.575,-4.646 -46.27,-14.847 -90.609,-4.558 -124.076,6.071 -5.214,1.653 -9.279,5.762 -10.874,10.987 -1.604,5.231 -0.542,10.911 2.841,15.199 l 19.308,24.463 -30.355,8.51 c -5.291,1.485 -9.507,5.481 -11.274,10.684 -1.756,5.204 -0.846,10.944 2.45,15.34 22.625,30.165 51.875,63.003 97.493,77.936 3.676,1.166 7.404,2.196 11.188,3.089 -2.2,2.618 -4.293,5.285 -6.267,8.006 -28.392,39.082 -32.448,84.696 -32.805,120.064 -0.054,5.481 2.591,10.635 7.068,13.784 4.477,3.161 10.234,3.898 15.362,2 l 29.336,-10.857 -1.258,31.265 c -0.216,5.475 2.266,10.706 6.656,13.991 4.369,3.279 10.093,4.19 15.296,2.461 33.531,-11.286 75.659,-29.244 104.042,-68.309 2.309,-3.182 4.51,-6.489 6.592,-9.903 2.07,3.42 4.272,6.727 6.581,9.909 28.381,39.065 70.52,57.024 104.052,68.304 1.735,0.579 3.535,0.867 5.312,0.867 3.556,0 7.068,-1.138 9.995,-3.328 4.379,-3.29 6.863,-8.521 6.645,-13.995 l -1.269,-31.26 29.336,10.857 c 5.128,1.897 10.885,1.16 15.362,-2 4.477,-3.149 7.123,-8.304 7.068,-13.784 -0.357,-35.363 -4.402,-80.971 -32.805,-120.054 -1.984,-2.732 -4.076,-5.415 -6.277,-8.038 3.935,-0.927 7.794,-2.006 11.579,-3.23 45.89,-14.907 75.996,-49.44 97.103,-77.855 3.264,-4.405 4.165,-10.128 2.397,-15.316 z M 255.197,325.216 c -30.604,0 -55.506,-24.902 -55.506,-55.506 0,-30.604 24.902,-55.506 55.506,-55.506 30.604,0 55.506,24.902 55.506,55.506 0,30.604 -24.902,55.506 -55.506,55.506 z"
             id="path8-8-6-2-2-9"
             style="fill:#f71e31;fill-opacity:1" />
        </g>
      </g>
    </g>
    <g
       id="g3441-8-6-2"
       style="display:inline"
       transform="matrix(0.75471698,0,0,0.75471698,16.929658,-25.838161)">
      <g
         id="g4022-16-69-5">
        <g
           id="g22226-7-3-5"
           transform="matrix(0.54835514,0,0,0.54835514,-13.965797,15.325438)"
           style="display:inline">
          <g
             id="g22138-63-3-0"
             transform="translate(-26.833461,54.442803)">
            <g
               id="Page-1-8-2-4-9"
               stroke="none"
               stroke-width="1"
               fill="none"
               fill-rule="evenodd"
               sketch:type="MSPage"
               style="fill:#81cc29;fill-opacity:1"
               transform="matrix(1.25,0,0,1.25,123.91155,12.485537)">
              <g
                 id="Icon-Set-Filled-05-0-6"
                 sketch:type="MSLayerGroup"
                 transform="translate(-519,-781)"
                 fill="#000000"
                 style="fill:#81cc29;fill-opacity:1">
                <path
                   d="M 542.067,786.028 C 540.599,783.053 537.543,781 534,781 c -4.749,0 -8.63,3.682 -8.967,8.345 C 521.542,790.34 519,793.39 519,797 c 0,4.26 3.54,7.755 8,8 h 15 c 4.966,0 9,-4.253 9,-9.5 0,-5.056 -3.951,-9.177 -8.933,-9.472"
                   id="cloud-9-6-83"
                   sketch:type="MSShapeGroup"
                   style="fill:#99ffcc;fill-opacity:1" />
              </g>
            </g>
            <path
               id="cloud-7-1-9-5"
               style="fill:#5de7a2;fill-opacity:1;fill-rule:evenodd;stroke:none;stroke-width:1.25"
               d="m 142.66142,12.485383 c -5.93625,0 -10.78737,4.602654 -11.20862,10.431404 -4.36375,1.243751 -7.54166,5.056426 -7.54166,9.568923 0,5.325002 4.42491,9.693659 9.99991,9.999909 h 4.23385 c -5.575,-0.30625 -10.00043,-4.674907 -10.00043,-9.999909 0,-4.512497 3.17791,-8.325172 7.54166,-9.568923 0.36984,-5.117375 4.15439,-9.28873 9.08989,-10.2309 -0.68475,-0.130707 -1.3914,-0.200504 -2.1146,-0.200504 z" />
          </g>
          <g
             id="g22138-4-9-8-7"
             transform="translate(0.33401899,35.484808)"
             style="display:inline">
            <g
               id="Page-1-8-0-6-8-7"
               stroke="none"
               stroke-width="1"
               fill="none"
               fill-rule="evenodd"
               sketch:type="MSPage"
               style="fill:#81cc29;fill-opacity:1"
               transform="matrix(1.25,0,0,1.25,123.91155,12.485537)">
              <g
                 id="Icon-Set-Filled-2-9-90-0"
                 sketch:type="MSLayerGroup"
                 transform="translate(-519,-781)"
                 fill="#000000"
                 style="fill:#81cc29;fill-opacity:1">
                <path
                   d="M 542.067,786.028 C 540.599,783.053 537.543,781 534,781 c -4.749,0 -8.63,3.682 -8.967,8.345 C 521.542,790.34 519,793.39 519,797 c 0,4.26 3.54,7.755 8,8 h 15 c 4.966,0 9,-4.253 9,-9.5 0,-5.056 -3.951,-9.177 -8.933,-9.472"
                   id="cloud-1-3-0-4"
                   sketch:type="MSShapeGroup"
                   style="fill:#99ffcc;fill-opacity:1" />
              </g>
            </g>
            <path
               id="cloud-7-8-0-2-8"
               style="fill:#5de7a2;fill-opacity:1;fill-rule:evenodd;stroke:none;stroke-width:1.25"
               d="m 142.66142,12.485383 c -5.93625,0 -10.78737,4.602654 -11.20862,10.431404 -4.36375,1.243751 -7.54166,5.056426 -7.54166,9.568923 0,5.325002 4.42491,9.693659 9.99991,9.999909 h 4.23385 c -5.575,-0.30625 -10.00043,-4.674907 -10.00043,-9.999909 0,-4.512497 3.17791,-8.325172 7.54166,-9.568923 0.36984,-5.117375 4.15439,-9.28873 9.08989,-10.2309 -0.68475,-0.130707 -1.3914,-0.200504 -2.1146,-0.200504 z" />
          </g>
          <g
             id="g22138-5-5-43-2"
             transform="translate(29.81882,54.442617)"
             style="display:inline">
            <g
               id="Page-1-8-4-0-74-0"
               stroke="none"
               stroke-width="1"
               fill="none"
               fill-rule="evenodd"
               sketch:type="MSPage"
               style="fill:#81cc29;fill-opacity:1"
               transform="matrix(1.25,0,0,1.25,123.91155,12.485537)">
              <g
                 id="Icon-Set-Filled-8-6-2-8"
                 sketch:type="MSLayerGroup"
                 transform="translate(-519,-781)"
                 fill="#000000"
                 style="fill:#81cc29;fill-opacity:1">
                <path
                   d="M 542.067,786.028 C 540.599,783.053 537.543,781 534,781 c -4.749,0 -8.63,3.682 -8.967,8.345 C 521.542,790.34 519,793.39 519,797 c 0,4.26 3.54,7.755 8,8 h 15 c 4.966,0 9,-4.253 9,-9.5 0,-5.056 -3.951,-9.177 -8.933,-9.472"
                   id="cloud-3-2-7-49"
                   sketch:type="MSShapeGroup"
                   style="fill:#99ffcc;fill-opacity:1" />
              </g>
            </g>
            <path
               id="cloud-7-4-7-07-7"
               style="fill:#5de7a2;fill-opacity:1;fill-rule:evenodd;stroke:none;stroke-width:1.25"
               d="m 142.66142,12.485383 c -5.93625,0 -10.78737,4.602654 -11.20862,10.431404 -4.36375,1.243751 -7.54166,5.056426 -7.54166,9.568923 0,5.325002 4.42491,9.693659 9.99991,9.999909 h 4.23385 c -5.575,-0.30625 -10.00043,-4.674907 -10.00043,-9.999909 0,-4.512497 3.17791,-8.325172 7.54166,-9.568923 0.36984,-5.117375 4.15439,-9.28873 9.08989,-10.2309 -0.68475,-0.130707 -1.3914,-0.200504 -2.1146,-0.200504 z" />
          </g>
        </g>
      </g>
      <g
         id="g12-2-2-1-8-6-5-99"
         transform="matrix(0.02343752,0,0,0.02343752,48.902568,50.278243)"
         style="display:inline;fill:#f71e31;fill-opacity:1">
        <g
           id="g10-8-6-3-7-1-7-8"
           style="fill:#f71e31;fill-opacity:1">
          <path
             d="m 511.109,220.854 c -1.777,-5.181 -5.984,-9.165 -11.263,-10.651 l -30.105,-8.456 19.384,-24.538 c 3.404,-4.298 4.466,-9.99 2.851,-15.226 -1.615,-5.236 -5.703,-9.339 -10.928,-10.982 -35.862,-11.259 -78.652,-20.739 -124.314,-5.908 -4.185,1.361 -8.337,2.922 -12.457,4.684 0.412,-4.462 0.618,-8.89 0.618,-13.28 0,-47.972 -22.289,-85.736 -44.102,-116.352 -3.176,-4.462 -8.586,-7.171 -13.822,-6.993 -5.475,0.087 -10.559,2.856 -13.595,7.416 L 256.085,46.516 238.783,20.568 c -3.035,-4.558 -8.119,-7.329 -13.595,-7.416 -5.377,-0.179 -10.657,2.531 -13.822,6.993 -21.802,30.598 -44.091,68.358 -44.091,116.352 0,4.347 0.207,8.732 0.607,13.145 -4.131,-1.74 -8.315,-3.285 -12.575,-4.646 -46.27,-14.847 -90.609,-4.558 -124.076,6.071 -5.214,1.653 -9.279,5.762 -10.874,10.987 -1.604,5.231 -0.542,10.911 2.841,15.199 l 19.308,24.463 -30.355,8.51 c -5.291,1.485 -9.507,5.481 -11.274,10.684 -1.756,5.204 -0.846,10.944 2.45,15.34 22.625,30.165 51.875,63.003 97.493,77.936 3.676,1.166 7.404,2.196 11.188,3.089 -2.2,2.618 -4.293,5.285 -6.267,8.006 -28.392,39.082 -32.448,84.696 -32.805,120.064 -0.054,5.481 2.591,10.635 7.068,13.784 4.477,3.161 10.234,3.898 15.362,2 l 29.336,-10.857 -1.258,31.265 c -0.216,5.475 2.266,10.706 6.656,13.991 4.369,3.279 10.093,4.19 15.296,2.461 33.531,-11.286 75.659,-29.244 104.042,-68.309 2.309,-3.182 4.51,-6.489 6.592,-9.903 2.07,3.42 4.272,6.727 6.581,9.909 28.381,39.065 70.52,57.024 104.052,68.304 1.735,0.579 3.535,0.867 5.312,0.867 3.556,0 7.068,-1.138 9.995,-3.328 4.379,-3.29 6.863,-8.521 6.645,-13.995 l -1.269,-31.26 29.336,10.857 c 5.128,1.897 10.885,1.16 15.362,-2 4.477,-3.149 7.123,-8.304 7.068,-13.784 -0.357,-35.363 -4.402,-80.971 -32.805,-120.054 -1.984,-2.732 -4.076,-5.415 -6.277,-8.038 3.935,-0.927 7.794,-2.006 11.579,-3.23 45.89,-14.907 75.996,-49.44 97.103,-77.855 3.264,-4.405 4.165,-10.128 2.397,-15.316 z M 255.197,325.216 c -30.604,0 -55.506,-24.902 -55.506,-55.506 0,-30.604 24.902,-55.506 55.506,-55.506 30.604,0 55.506,24.902 55.506,55.506 0,30.604 -24.902,55.506 -55.506,55.506 z"
             id="path8-8-6-2-9-0-84-1-0"
             style="fill:#f71e31;fill-opacity:1" />
        </g>
      </g>
      <g
         id="g12-2-2-1-5-8-1"
         transform="matrix(0.02343752,0,0,0.02343752,63.799995,39.882529)"
         style="display:inline;fill:#f71e31;fill-opacity:1">
        <g
           id="g10-8-6-3-9-0-4"
           style="fill:#f71e31;fill-opacity:1">
          <path
             d="m 511.109,220.854 c -1.777,-5.181 -5.984,-9.165 -11.263,-10.651 l -30.105,-8.456 19.384,-24.538 c 3.404,-4.298 4.466,-9.99 2.851,-15.226 -1.615,-5.236 -5.703,-9.339 -10.928,-10.982 -35.862,-11.259 -78.652,-20.739 -124.314,-5.908 -4.185,1.361 -8.337,2.922 -12.457,4.684 0.412,-4.462 0.618,-8.89 0.618,-13.28 0,-47.972 -22.289,-85.736 -44.102,-116.352 -3.176,-4.462 -8.586,-7.171 -13.822,-6.993 -5.475,0.087 -10.559,2.856 -13.595,7.416 L 256.085,46.516 238.783,20.568 c -3.035,-4.558 -8.119,-7.329 -13.595,-7.416 -5.377,-0.179 -10.657,2.531 -13.822,6.993 -21.802,30.598 -44.091,68.358 -44.091,116.352 0,4.347 0.207,8.732 0.607,13.145 -4.131,-1.74 -8.315,-3.285 -12.575,-4.646 -46.27,-14.847 -90.609,-4.558 -124.076,6.071 -5.214,1.653 -9.279,5.762 -10.874,10.987 -1.604,5.231 -0.542,10.911 2.841,15.199 l 19.308,24.463 -30.355,8.51 c -5.291,1.485 -9.507,5.481 -11.274,10.684 -1.756,5.204 -0.846,10.944 2.45,15.34 22.625,30.165 51.875,63.003 97.493,77.936 3.676,1.166 7.404,2.196 11.188,3.089 -2.2,2.618 -4.293,5.285 -6.267,8.006 -28.392,39.082 -32.448,84.696 -32.805,120.064 -0.054,5.481 2.591,10.635 7.068,13.784 4.477,3.161 10.234,3.898 15.362,2 l 29.336,-10.857 -1.258,31.265 c -0.216,5.475 2.266,10.706 6.656,13.991 4.369,3.279 10.093,4.19 15.296,2.461 33.531,-11.286 75.659,-29.244 104.042,-68.309 2.309,-3.182 4.51,-6.489 6.592,-9.903 2.07,3.42 4.272,6.727 6.581,9.909 28.381,39.065 70.52,57.024 104.052,68.304 1.735,0.579 3.535,0.867 5.312,0.867 3.556,0 7.068,-1.138 9.995,-3.328 4.379,-3.29 6.863,-8.521 6.645,-13.995 l -1.269,-31.26 29.336,10.857 c 5.128,1.897 10.885,1.16 15.362,-2 4.477,-3.149 7.123,-8.304 7.068,-13.784 -0.357,-35.363 -4.402,-80.971 -32.805,-120.054 -1.984,-2.732 -4.076,-5.415 -6.277,-8.038 3.935,-0.927 7.794,-2.006 11.579,-3.23 45.89,-14.907 75.996,-49.44 97.103,-77.855 3.264,-4.405 4.165,-10.128 2.397,-15.316 z M 255.197,325.216 c -30.604,0 -55.506,-24.902 -55.506,-55.506 0,-30.604 24.902,-55.506 55.506,-55.506 30.604,0 55.506,24.902 55.506,55.506 0,30.604 -24.902,55.506 -55.506,55.506 z"
             id="path8-8-6-2-9-63-18-4"
             style="fill:#f71e31;fill-opacity:1" />
        </g>
      </g>
      <g
         id="g12-2-2-14-7-3"
         transform="matrix(0.02343752,0,0,0.02343752,79.968137,50.278141)"
         style="display:inline;fill:#f71e31;fill-opacity:1">
        <g
           id="g10-8-6-5-1-93"
           style="fill:#f71e31;fill-opacity:1">
          <path
             d="m 511.109,220.854 c -1.777,-5.181 -5.984,-9.165 -11.263,-10.651 l -30.105,-8.456 19.384,-24.538 c 3.404,-4.298 4.466,-9.99 2.851,-15.226 -1.615,-5.236 -5.703,-9.339 -10.928,-10.982 -35.862,-11.259 -78.652,-20.739 -124.314,-5.908 -4.185,1.361 -8.337,2.922 -12.457,4.684 0.412,-4.462 0.618,-8.89 0.618,-13.28 0,-47.972 -22.289,-85.736 -44.102,-116.352 -3.176,-4.462 -8.586,-7.171 -13.822,-6.993 -5.475,0.087 -10.559,2.856 -13.595,7.416 L 256.085,46.516 238.783,20.568 c -3.035,-4.558 -8.119,-7.329 -13.595,-7.416 -5.377,-0.179 -10.657,2.531 -13.822,6.993 -21.802,30.598 -44.091,68.358 -44.091,116.352 0,4.347 0.207,8.732 0.607,13.145 -4.131,-1.74 -8.315,-3.285 -12.575,-4.646 -46.27,-14.847 -90.609,-4.558 -124.076,6.071 -5.214,1.653 -9.279,5.762 -10.874,10.987 -1.604,5.231 -0.542,10.911 2.841,15.199 l 19.308,24.463 -30.355,8.51 c -5.291,1.485 -9.507,5.481 -11.274,10.684 -1.756,5.204 -0.846,10.944 2.45,15.34 22.625,30.165 51.875,63.003 97.493,77.936 3.676,1.166 7.404,2.196 11.188,3.089 -2.2,2.618 -4.293,5.285 -6.267,8.006 -28.392,39.082 -32.448,84.696 -32.805,120.064 -0.054,5.481 2.591,10.635 7.068,13.784 4.477,3.161 10.234,3.898 15.362,2 l 29.336,-10.857 -1.258,31.265 c -0.216,5.475 2.266,10.706 6.656,13.991 4.369,3.279 10.093,4.19 15.296,2.461 33.531,-11.286 75.659,-29.244 104.042,-68.309 2.309,-3.182 4.51,-6.489 6.592,-9.903 2.07,3.42 4.272,6.727 6.581,9.909 28.381,39.065 70.52,57.024 104.052,68.304 1.735,0.579 3.535,0.867 5.312,0.867 3.556,0 7.068,-1.138 9.995,-3.328 4.379,-3.29 6.863,-8.521 6.645,-13.995 l -1.269,-31.26 29.336,10.857 c 5.128,1.897 10.885,1.16 15.362,-2 4.477,-3.149 7.123,-8.304 7.068,-13.784 -0.357,-35.363 -4.402,-80.971 -32.805,-120.054 -1.984,-2.732 -4.076,-5.415 -6.277,-8.038 3.935,-0.927 7.794,-2.006 11.579,-3.23 45.89,-14.907 75.996,-49.44 97.103,-77.855 3.264,-4.405 4.165,-10.128 2.397,-15.316 z M 255.197,325.216 c -30.604,0 -55.506,-24.902 -55.506,-55.506 0,-30.604 24.902,-55.506 55.506,-55.506 30.604,0 55.506,24.902 55.506,55.506 0,30.604 -24.902,55.506 -55.506,55.506 z"
             id="path8-8-6-2-2-9-5"
             style="fill:#f71e31;fill-opacity:1" />
        </g>
      </g>
    </g>
  </g>
</svg>
