<?xml version="1.0" encoding="UTF-8" standalone="no"?>
<!-- Created with Inkscape (http://www.inkscape.org/) -->

<svg
   width="500"
   height="500"
   viewBox="0 0 132.29166 132.29167"
   version="1.1"
   id="svg2515"
   inkscape:version="1.1.2 (b8e25be833, 2022-02-05)"
   sodipodi:docname="bonsai07s02blooming.svg"
   inkscape:export-filename="C:\Users\Lenovo\Desktop\Coding\Media files\Bonsais\bonsai07.png"
   inkscape:export-xdpi="96"
   inkscape:export-ydpi="96"
   xmlns:inkscape="http://www.inkscape.org/namespaces/inkscape"
   xmlns:sodipodi="http://sodipodi.sourceforge.net/DTD/sodipodi-0.dtd"
   xmlns="http://www.w3.org/2000/svg"
   xmlns:svg="http://www.w3.org/2000/svg">
  <sodipodi:namedview
     id="namedview2517"
     pagecolor="#ffffff"
     bordercolor="#666666"
     borderopacity="1.0"
     inkscape:pageshadow="2"
     inkscape:pageopacity="0.0"
     inkscape:pagecheckerboard="0"
     inkscape:document-units="mm"
     showgrid="false"
     units="px"
     inkscape:zoom="1.4142136"
     inkscape:cx="272.58966"
     inkscape:cy="252.79067"
     inkscape:window-width="1920"
     inkscape:window-height="1001"
     inkscape:window-x="-9"
     inkscape:window-y="-9"
     inkscape:window-maximized="1"
     inkscape:current-layer="g17385" />
  <defs
     id="defs2512">
    <marker
       style="overflow:visible"
       id="Arrow1Sstart"
       refX="0.0"
       refY="0.0"
       orient="auto"
       inkscape:stockid="Arrow1Sstart"
       inkscape:isstock="true">
      <path
         transform="scale(0.2) translate(6,0)"
         style="fill-rule:evenodd;fill:context-stroke;stroke:context-stroke;stroke-width:1.0pt"
         d="M 0.0,0.0 L 5.0,-5.0 L -12.5,0.0 L 5.0,5.0 L 0.0,0.0 z "
         id="path24092" />
    </marker>
    <marker
       style="overflow:visible"
       id="Arrow1Mstart"
       refX="0.0"
       refY="0.0"
       orient="auto"
       inkscape:stockid="Arrow1Mstart"
       inkscape:isstock="true">
      <path
         transform="scale(0.4) translate(10,0)"
         style="fill-rule:evenodd;fill:context-stroke;stroke:context-stroke;stroke-width:1.0pt"
         d="M 0.0,0.0 L 5.0,-5.0 L -12.5,0.0 L 5.0,5.0 L 0.0,0.0 z "
         id="path24086" />
    </marker>
    <marker
       style="overflow:visible"
       id="Arrow1Lstart"
       refX="0.0"
       refY="0.0"
       orient="auto"
       inkscape:stockid="Arrow1Lstart"
       inkscape:isstock="true">
      <path
         transform="scale(0.8) translate(12.5,0)"
         style="fill-rule:evenodd;fill:context-stroke;stroke:context-stroke;stroke-width:1.0pt"
         d="M 0.0,0.0 L 5.0,-5.0 L -12.5,0.0 L 5.0,5.0 L 0.0,0.0 z "
         id="path24080" />
    </marker>
    <marker
       style="overflow:visible;"
       id="Arrow1Lend"
       refX="0.0"
       refY="0.0"
       orient="auto"
       inkscape:stockid="Arrow1Lend"
       inkscape:isstock="true">
      <path
         transform="scale(0.8) rotate(180) translate(12.5,0)"
         style="fill-rule:evenodd;fill:context-stroke;stroke:context-stroke;stroke-width:1.0pt;"
         d="M 0.0,0.0 L 5.0,-5.0 L -12.5,0.0 L 5.0,5.0 L 0.0,0.0 z "
         id="path24083" />
    </marker>
  </defs>
  <g
     inkscape:label="Informal Upright Style"
     inkscape:groupmode="layer"
     id="g17385"
     style="display:inline">
    <g
       id="g17299"
       transform="translate(157.36058,-8.4372489)"
       style="display:inline">
      <g
         id="g17297"
         transform="translate(-99.28418,15.207661)">
        <path
           style="display:inline;fill:#c49078;fill-opacity:1;stroke:#c49078;stroke-width:1;stroke-linecap:round;stroke-linejoin:round;stroke-miterlimit:4;stroke-dasharray:none;stroke-opacity:1"
           d="m 1.3438111,105.02403 c 0,0 1.67276,-4.3889 -5.29634,-12.902323 -5.77031,-7.049 -13.8088901,-10.89145 -10.0810001,-22.220767 2.98845,-9.082106 31.71641,-16.843433 36.92376,-22.50005 9.82115,-10.668487 4.67956,-12.619651 -1.58353,-22.120096 C 16.120271,17.413522 8.0705011,20.957555 7.7574611,9.5870616 14.803541,20.119696 25.572371,18.866153 27.251611,28.55162 c 3.25423,4.596313 8.98302,11.718683 5.98525,14.797826 -2.2954,2.357716 -9.08519,15.422411 -20.03503,17.643247 -9.5903099,1.945097 -16.1629199,12.6144 -16.1629199,12.6144 -0.83876,8.885304 16.1910099,9.784984 21.9744099,18.254694 5.64474,8.266633 8.35928,5.77528 10.95842,12.103913 1.20531,2.9348 -28.6279299,1.05833 -28.6279299,1.05833 z"
           id="path17293"
           sodipodi:nodetypes="cssssccsssssc" />
        <path
           id="path17295"
           style="display:inline;fill:#996a5a;fill-opacity:1;stroke:#996a5a;stroke-width:3.77953;stroke-linecap:round;stroke-linejoin:round;stroke-miterlimit:4;stroke-dasharray:none;stroke-opacity:1"
           d="m 616.93555,1.8886719 c 0.55432,20.1347921 7.52722,27.8974661 16.79883,33.5175781 -5.45695,-5.012127 -9.35289,-12.21383 -10.31641,-24.990234 -2.22889,-2.6069221 -4.40217,-5.4177306 -6.48242,-8.5273441 z m 41.48828,48.2539061 c 3.39981,2.902953 6.69017,6.465507 9.7207,11.0625 23.67153,35.907194 43.10565,43.281672 5.98633,83.603512 -19.68132,21.37934 -128.25976,50.713 -139.55469,85.03907 -14.08966,42.81948 16.29251,57.34248 38.10156,83.98437 26.33989,32.17671 20.01758,48.76367 20.01758,48.76367 0,0 2.85378,0.16826 6.91797,0.39063 0.26375,-6.79288 -1.99109,-21.72151 -20.65039,-44.51563 -21.80905,-26.64189 -52.19123,-41.16294 -38.10156,-83.98242 11.29493,-34.32607 119.87336,-63.66167 139.55469,-85.04101 37.11932,-40.32185 17.68519,-47.69633 -5.98633,-83.60352 -4.87199,-7.390285 -10.41195,-12.111719 -16.00586,-15.701172 z"
           transform="matrix(0.26458333,0,0,0.26458333,-155.47346,9.0871833)"
           sodipodi:nodetypes="cccccssssccssssc" />
      </g>
    </g>
    <g
       id="g14957-5-8"
       transform="matrix(0.93685654,0,0,1.0593526,-79.03971,65.387834)"
       style="display:inline">
      <path
         d="m 190.04491,46.908858 h -66.294 l -0.007,0.02822 c 0,0 0.52564,4.205111 2.794,8.015111 1.87325,3.150306 5.31989,5.044722 8.99583,5.044722 h 39.38764 c 7.47536,0 13.87828,-5.383389 15.08125,-12.738805 0.0318,-0.204611 0.0494,-0.321028 0.0494,-0.321028 l -0.007,-0.02822 v 0"
         style="fill:#5884cc;fill-opacity:1;fill-rule:nonzero;stroke:none;stroke-width:0.0352778"
         id="path410-5-2" />
      <path
         d="m 131.47675,54.952191 c -2.26484,-3.81 -2.79048,-8.015111 -2.79048,-8.015111 l 0.004,-0.02822 h -4.93889 l -0.007,0.02822 c 0,0 0.52564,4.205111 2.794,8.015111 1.87325,3.150306 5.31989,5.044722 8.99583,5.044722 h 4.93889 c -3.67594,0 -7.11906,-1.894416 -8.99583,-5.044722"
         style="fill:#4477c5;fill-opacity:1;fill-rule:nonzero;stroke:none;stroke-width:0.0352778"
         id="path416-2-6" />
      <path
         d="m 189.5475,38.42808 h -65.3027 c -1.17122,0 -2.23661,0.47625 -3.00566,1.245306 -0.76906,0.769055 -1.24531,1.834444 -1.24531,3.009194 0,2.183695 1.64042,3.982861 3.75708,4.226278 h 66.294 c 2.13078,-0.250472 3.75709,-2.053167 3.75709,-4.226278 0,-2.3495 -1.905,-4.2545 -4.2545,-4.2545 v 0"
         style="fill:#6799d7;fill-opacity:1;fill-rule:nonzero;stroke:none;stroke-width:0.0352778"
         id="path422-0-0" />
      <path
         d="m 124.93272,42.68258 c 0,-1.17475 0.47625,-2.240139 1.2453,-3.009194 0.77259,-0.769056 1.83445,-1.245306 3.0092,-1.245306 h -4.94242 c -1.17122,0 -2.23661,0.47625 -3.00566,1.245306 -0.76906,0.769055 -1.24531,1.834444 -1.24531,3.009194 0,2.183695 1.64042,3.982861 3.75708,4.226278 h 4.93889 c -2.11314,-0.243417 -3.75708,-2.042583 -3.75708,-4.226278 v 0"
         style="fill:#4f8cd1;fill-opacity:1;fill-rule:nonzero;stroke:none;stroke-width:0.0352778"
         id="path424-7-6" />
    </g>
    <g
       id="g3122-4-9"
       style="display:inline"
       transform="translate(-31.858901,21.218266)">
      <g
         id="g7603-03-1">
        <g
           id="g13172-1-7-80-1"
           transform="matrix(0.42308981,0,0,0.42308981,-3.3514869,56.094511)"
           style="display:inline">
          <g
             id="g1026-5-3-8-2"
             transform="matrix(1.7323514,0,0,1.7323514,88.015267,-80.552475)">
            <polygon
               class="cls-1"
               points="15.24,37.27 7.67,50.37 15.24,63.47 30.37,63.47 37.93,50.37 30.37,37.27 "
               id="polygon14-4-2-2-7"
               style="fill:#99cc00;fill-opacity:1" />
            <path
               id="polygon16-3-6-7-4"
               style="fill:#6d9003;fill-opacity:1;stroke-width:1"
               class="cls-1"
               d="M 15.240068,37.269902 7.67,50.37 15.240068,63.480107 h 5.759521 L 13.479081,50.448613 21.03914,37.348516 h 9.376221 l -0.04541,-0.07861 z" />
          </g>
          <g
             id="g1026-9-48-4-0-8"
             transform="matrix(1.7323514,0,0,1.7323514,124.5879,-98.495687)">
            <polygon
               class="cls-1"
               points="15.24,63.47 30.37,63.47 37.93,50.37 30.37,37.27 15.24,37.27 7.67,50.37 "
               id="polygon14-3-3-3-7-8"
               style="fill:#99cc00;fill-opacity:1" />
            <path
               id="polygon16-8-8-5-5-60"
               style="fill:#6d9003;fill-opacity:1;stroke-width:1"
               class="cls-1"
               d="M 15.240068,37.269902 7.67,50.37 15.240068,63.480107 h 5.759521 L 13.479081,50.448613 21.03914,37.348516 h 9.376221 l -0.04541,-0.07861 z" />
          </g>
          <g
             id="g1026-9-4-4-7-1-9"
             transform="matrix(1.7323514,0,0,1.7323514,160.86322,-80.773313)">
            <polygon
               class="cls-1"
               points="15.24,63.47 30.37,63.47 37.93,50.37 30.37,37.27 15.24,37.27 7.67,50.37 "
               id="polygon14-3-9-4-8-0-9"
               style="fill:#99cc00;fill-opacity:1" />
            <path
               id="polygon16-8-1-0-7-91-8"
               style="fill:#6d9003;fill-opacity:1;stroke-width:1"
               class="cls-1"
               d="M 15.240068,37.269902 7.67,50.37 15.240068,63.480107 h 5.759521 L 13.479081,50.448613 21.03914,37.348516 h 9.376221 l -0.04541,-0.07861 z" />
          </g>
        </g>
      </g>
      <g
         id="g6-4-7-5"
         transform="matrix(0.0234375,0,0,0.0234375,49.177037,61.314611)"
         style="display:inline;fill:#77f5ef;fill-opacity:1">
        <path
           class="st0"
           d="m 511.976,213.063 -45.863,-9.749 31.374,-34.845 C 472.114,131.733 417.268,115.015 360.373,127.926 355.071,69.826 322.223,22.83 279.444,10.052 L 256,50.659 232.556,10.053 C 189.777,22.832 156.93,69.828 151.627,127.927 94.733,115.016 39.886,131.734 14.514,168.47 l 31.374,34.844 -45.864,9.749 c -1.066,44.634 33.479,90.396 87.097,113.393 -29.86,50.12 -30.91,107.448 -3.812,142.931 l 42.834,-19.071 -4.901,46.632 c 42.12,14.806 96.318,-3.907 134.758,-47.794 38.44,43.887 92.638,62.6 134.758,47.794 l -4.901,-46.632 42.835,19.072 c 27.097,-35.483 26.048,-92.811 -3.812,-142.932 53.617,-22.996 88.162,-68.759 87.096,-113.393 z m -196.599,83.322 c 3.526,-2.358 7.678,-3.63 11.998,-3.63 3.762,0 7.479,0.998 10.752,2.889 4.986,2.876 8.552,7.525 10.043,13.085 1.49,5.56 0.725,11.369 -2.156,16.353 -3.838,6.65 -10.996,10.781 -18.68,10.781 -3.765,0 -7.484,-1 -10.758,-2.89 -7.126,-4.116 -11.228,-12.025 -10.724,-20.072 l -40.32,-23.278 v 46.552 c 7.222,3.587 12.021,11.096 12.021,19.327 0,11.884 -9.669,21.551 -21.553,21.551 -11.884,0 -21.553,-9.667 -21.553,-21.551 0,-8.231 4.799,-15.74 12.021,-19.327 v -46.552 l -40.319,23.278 c 0.504,8.047 -3.598,15.956 -10.724,20.072 -3.275,1.889 -6.994,2.89 -10.758,2.89 -7.684,0 -14.842,-4.132 -18.682,-10.781 -2.878,-4.984 -3.644,-10.792 -2.154,-16.353 1.49,-5.56 5.057,-10.209 10.043,-13.087 3.272,-1.889 6.989,-2.887 10.752,-2.887 4.321,0 8.473,1.272 11.996,3.63 l 40.312,-23.274 -40.312,-23.272 c -3.523,2.359 -7.675,3.63 -11.996,3.63 -3.762,0 -7.479,-0.998 -10.752,-2.89 -4.986,-2.876 -8.552,-7.525 -10.043,-13.085 -1.49,-5.56 -0.724,-11.369 2.156,-16.353 3.838,-6.65 10.995,-10.781 18.68,-10.781 3.764,0 7.484,1 10.758,2.89 7.126,4.116 11.228,12.025 10.724,20.072 l 40.319,23.278 v -46.552 c -7.222,-3.587 -12.021,-11.096 -12.021,-19.327 0,-11.884 9.669,-21.551 21.553,-21.551 11.884,0 21.553,9.667 21.553,21.551 0,8.231 -4.799,15.74 -12.021,19.327 V 256.6 l 40.32,-23.278 c -0.504,-8.047 3.598,-15.956 10.724,-20.072 3.275,-1.889 6.994,-2.89 10.758,-2.89 7.684,0 14.842,4.132 18.682,10.781 2.878,4.984 3.644,10.792 2.154,16.353 -1.49,5.56 -5.057,10.209 -10.043,13.088 -3.272,1.889 -6.989,2.887 -10.752,2.887 -4.32,0 -8.472,-1.272 -11.998,-3.63 l -40.31,23.272 z"
           id="path4-1-3-17-7"
           style="fill:#77f5ef;fill-opacity:1" />
      </g>
      <g
         id="g6-45-5"
         transform="matrix(0.0234375,0,0,0.0234375,79.998264,61.221177)"
         style="fill:#77f5ef;fill-opacity:1">
        <path
           class="st0"
           d="m 511.976,213.063 -45.863,-9.749 31.374,-34.845 C 472.114,131.733 417.268,115.015 360.373,127.926 355.071,69.826 322.223,22.83 279.444,10.052 L 256,50.659 232.556,10.053 C 189.777,22.832 156.93,69.828 151.627,127.927 94.733,115.016 39.886,131.734 14.514,168.47 l 31.374,34.844 -45.864,9.749 c -1.066,44.634 33.479,90.396 87.097,113.393 -29.86,50.12 -30.91,107.448 -3.812,142.931 l 42.834,-19.071 -4.901,46.632 c 42.12,14.806 96.318,-3.907 134.758,-47.794 38.44,43.887 92.638,62.6 134.758,47.794 l -4.901,-46.632 42.835,19.072 c 27.097,-35.483 26.048,-92.811 -3.812,-142.932 53.617,-22.996 88.162,-68.759 87.096,-113.393 z m -196.599,83.322 c 3.526,-2.358 7.678,-3.63 11.998,-3.63 3.762,0 7.479,0.998 10.752,2.889 4.986,2.876 8.552,7.525 10.043,13.085 1.49,5.56 0.725,11.369 -2.156,16.353 -3.838,6.65 -10.996,10.781 -18.68,10.781 -3.765,0 -7.484,-1 -10.758,-2.89 -7.126,-4.116 -11.228,-12.025 -10.724,-20.072 l -40.32,-23.278 v 46.552 c 7.222,3.587 12.021,11.096 12.021,19.327 0,11.884 -9.669,21.551 -21.553,21.551 -11.884,0 -21.553,-9.667 -21.553,-21.551 0,-8.231 4.799,-15.74 12.021,-19.327 v -46.552 l -40.319,23.278 c 0.504,8.047 -3.598,15.956 -10.724,20.072 -3.275,1.889 -6.994,2.89 -10.758,2.89 -7.684,0 -14.842,-4.132 -18.682,-10.781 -2.878,-4.984 -3.644,-10.792 -2.154,-16.353 1.49,-5.56 5.057,-10.209 10.043,-13.087 3.272,-1.889 6.989,-2.887 10.752,-2.887 4.321,0 8.473,1.272 11.996,3.63 l 40.312,-23.274 -40.312,-23.272 c -3.523,2.359 -7.675,3.63 -11.996,3.63 -3.762,0 -7.479,-0.998 -10.752,-2.89 -4.986,-2.876 -8.552,-7.525 -10.043,-13.085 -1.49,-5.56 -0.724,-11.369 2.156,-16.353 3.838,-6.65 10.995,-10.781 18.68,-10.781 3.764,0 7.484,1 10.758,2.89 7.126,4.116 11.228,12.025 10.724,20.072 l 40.319,23.278 v -46.552 c -7.222,-3.587 -12.021,-11.096 -12.021,-19.327 0,-11.884 9.669,-21.551 21.553,-21.551 11.884,0 21.553,9.667 21.553,21.551 0,8.231 -4.799,15.74 -12.021,19.327 V 256.6 l 40.32,-23.278 c -0.504,-8.047 3.598,-15.956 10.724,-20.072 3.275,-1.889 6.994,-2.89 10.758,-2.89 7.684,0 14.842,4.132 18.682,10.781 2.878,4.984 3.644,10.792 2.154,16.353 -1.49,5.56 -5.057,10.209 -10.043,13.088 -3.272,1.889 -6.989,2.887 -10.752,2.887 -4.32,0 -8.472,-1.272 -11.998,-3.63 l -40.31,23.272 z"
           id="path4-1-6-0"
           style="fill:#77f5ef;fill-opacity:1" />
      </g>
      <g
         id="g6-5-5-7"
         transform="matrix(0.0234375,0,0,0.0234375,64.650546,53.723021)"
         style="display:inline;fill:#77f5ef;fill-opacity:1">
        <path
           class="st0"
           d="m 511.976,213.063 -45.863,-9.749 31.374,-34.845 C 472.114,131.733 417.268,115.015 360.373,127.926 355.071,69.826 322.223,22.83 279.444,10.052 L 256,50.659 232.556,10.053 C 189.777,22.832 156.93,69.828 151.627,127.927 94.733,115.016 39.886,131.734 14.514,168.47 l 31.374,34.844 -45.864,9.749 c -1.066,44.634 33.479,90.396 87.097,113.393 -29.86,50.12 -30.91,107.448 -3.812,142.931 l 42.834,-19.071 -4.901,46.632 c 42.12,14.806 96.318,-3.907 134.758,-47.794 38.44,43.887 92.638,62.6 134.758,47.794 l -4.901,-46.632 42.835,19.072 c 27.097,-35.483 26.048,-92.811 -3.812,-142.932 53.617,-22.996 88.162,-68.759 87.096,-113.393 z m -196.599,83.322 c 3.526,-2.358 7.678,-3.63 11.998,-3.63 3.762,0 7.479,0.998 10.752,2.889 4.986,2.876 8.552,7.525 10.043,13.085 1.49,5.56 0.725,11.369 -2.156,16.353 -3.838,6.65 -10.996,10.781 -18.68,10.781 -3.765,0 -7.484,-1 -10.758,-2.89 -7.126,-4.116 -11.228,-12.025 -10.724,-20.072 l -40.32,-23.278 v 46.552 c 7.222,3.587 12.021,11.096 12.021,19.327 0,11.884 -9.669,21.551 -21.553,21.551 -11.884,0 -21.553,-9.667 -21.553,-21.551 0,-8.231 4.799,-15.74 12.021,-19.327 v -46.552 l -40.319,23.278 c 0.504,8.047 -3.598,15.956 -10.724,20.072 -3.275,1.889 -6.994,2.89 -10.758,2.89 -7.684,0 -14.842,-4.132 -18.682,-10.781 -2.878,-4.984 -3.644,-10.792 -2.154,-16.353 1.49,-5.56 5.057,-10.209 10.043,-13.087 3.272,-1.889 6.989,-2.887 10.752,-2.887 4.321,0 8.473,1.272 11.996,3.63 l 40.312,-23.274 -40.312,-23.272 c -3.523,2.359 -7.675,3.63 -11.996,3.63 -3.762,0 -7.479,-0.998 -10.752,-2.89 -4.986,-2.876 -8.552,-7.525 -10.043,-13.085 -1.49,-5.56 -0.724,-11.369 2.156,-16.353 3.838,-6.65 10.995,-10.781 18.68,-10.781 3.764,0 7.484,1 10.758,2.89 7.126,4.116 11.228,12.025 10.724,20.072 l 40.319,23.278 v -46.552 c -7.222,-3.587 -12.021,-11.096 -12.021,-19.327 0,-11.884 9.669,-21.551 21.553,-21.551 11.884,0 21.553,9.667 21.553,21.551 0,8.231 -4.799,15.74 -12.021,19.327 V 256.6 l 40.32,-23.278 c -0.504,-8.047 3.598,-15.956 10.724,-20.072 3.275,-1.889 6.994,-2.89 10.758,-2.89 7.684,0 14.842,4.132 18.682,10.781 2.878,4.984 3.644,10.792 2.154,16.353 -1.49,5.56 -5.057,10.209 -10.043,13.088 -3.272,1.889 -6.989,2.887 -10.752,2.887 -4.32,0 -8.472,-1.272 -11.998,-3.63 l -40.31,23.272 z"
           id="path4-1-7-1-8"
           style="fill:#77f5ef;fill-opacity:1" />
      </g>
    </g>
    <g
       id="g3122-4-7"
       style="display:inline"
       transform="translate(32.937182,9.3248557)">
      <g
         id="g7603-03-3">
        <g
           id="g13172-1-7-80-2"
           transform="matrix(0.42308981,0,0,0.42308981,-3.3514869,56.094511)"
           style="display:inline">
          <g
             id="g1026-5-3-8-8"
             transform="matrix(1.7323514,0,0,1.7323514,88.015267,-80.552475)">
            <polygon
               class="cls-1"
               points="15.24,37.27 7.67,50.37 15.24,63.47 30.37,63.47 37.93,50.37 30.37,37.27 "
               id="polygon14-4-2-2-72"
               style="fill:#99cc00;fill-opacity:1" />
            <path
               id="polygon16-3-6-7-6"
               style="fill:#6d9003;fill-opacity:1;stroke-width:1"
               class="cls-1"
               d="M 15.240068,37.269902 7.67,50.37 15.240068,63.480107 h 5.759521 L 13.479081,50.448613 21.03914,37.348516 h 9.376221 l -0.04541,-0.07861 z" />
          </g>
          <g
             id="g1026-9-48-4-0-1"
             transform="matrix(1.7323514,0,0,1.7323514,124.5879,-98.495687)">
            <polygon
               class="cls-1"
               points="15.24,63.47 30.37,63.47 37.93,50.37 30.37,37.27 15.24,37.27 7.67,50.37 "
               id="polygon14-3-3-3-7-6"
               style="fill:#99cc00;fill-opacity:1" />
            <path
               id="polygon16-8-8-5-5-7"
               style="fill:#6d9003;fill-opacity:1;stroke-width:1"
               class="cls-1"
               d="M 15.240068,37.269902 7.67,50.37 15.240068,63.480107 h 5.759521 L 13.479081,50.448613 21.03914,37.348516 h 9.376221 l -0.04541,-0.07861 z" />
          </g>
          <g
             id="g1026-9-4-4-7-1-90"
             transform="matrix(1.7323514,0,0,1.7323514,160.86322,-80.773313)">
            <polygon
               class="cls-1"
               points="15.24,63.47 30.37,63.47 37.93,50.37 30.37,37.27 15.24,37.27 7.67,50.37 "
               id="polygon14-3-9-4-8-0-8"
               style="fill:#99cc00;fill-opacity:1" />
            <path
               id="polygon16-8-1-0-7-91-1"
               style="fill:#6d9003;fill-opacity:1;stroke-width:1"
               class="cls-1"
               d="M 15.240068,37.269902 7.67,50.37 15.240068,63.480107 h 5.759521 L 13.479081,50.448613 21.03914,37.348516 h 9.376221 l -0.04541,-0.07861 z" />
          </g>
        </g>
      </g>
      <g
         id="g6-4-7-3"
         transform="matrix(0.0234375,0,0,0.0234375,49.177037,61.314611)"
         style="display:inline;fill:#77f5ef;fill-opacity:1">
        <path
           class="st0"
           d="m 511.976,213.063 -45.863,-9.749 31.374,-34.845 C 472.114,131.733 417.268,115.015 360.373,127.926 355.071,69.826 322.223,22.83 279.444,10.052 L 256,50.659 232.556,10.053 C 189.777,22.832 156.93,69.828 151.627,127.927 94.733,115.016 39.886,131.734 14.514,168.47 l 31.374,34.844 -45.864,9.749 c -1.066,44.634 33.479,90.396 87.097,113.393 -29.86,50.12 -30.91,107.448 -3.812,142.931 l 42.834,-19.071 -4.901,46.632 c 42.12,14.806 96.318,-3.907 134.758,-47.794 38.44,43.887 92.638,62.6 134.758,47.794 l -4.901,-46.632 42.835,19.072 c 27.097,-35.483 26.048,-92.811 -3.812,-142.932 53.617,-22.996 88.162,-68.759 87.096,-113.393 z m -196.599,83.322 c 3.526,-2.358 7.678,-3.63 11.998,-3.63 3.762,0 7.479,0.998 10.752,2.889 4.986,2.876 8.552,7.525 10.043,13.085 1.49,5.56 0.725,11.369 -2.156,16.353 -3.838,6.65 -10.996,10.781 -18.68,10.781 -3.765,0 -7.484,-1 -10.758,-2.89 -7.126,-4.116 -11.228,-12.025 -10.724,-20.072 l -40.32,-23.278 v 46.552 c 7.222,3.587 12.021,11.096 12.021,19.327 0,11.884 -9.669,21.551 -21.553,21.551 -11.884,0 -21.553,-9.667 -21.553,-21.551 0,-8.231 4.799,-15.74 12.021,-19.327 v -46.552 l -40.319,23.278 c 0.504,8.047 -3.598,15.956 -10.724,20.072 -3.275,1.889 -6.994,2.89 -10.758,2.89 -7.684,0 -14.842,-4.132 -18.682,-10.781 -2.878,-4.984 -3.644,-10.792 -2.154,-16.353 1.49,-5.56 5.057,-10.209 10.043,-13.087 3.272,-1.889 6.989,-2.887 10.752,-2.887 4.321,0 8.473,1.272 11.996,3.63 l 40.312,-23.274 -40.312,-23.272 c -3.523,2.359 -7.675,3.63 -11.996,3.63 -3.762,0 -7.479,-0.998 -10.752,-2.89 -4.986,-2.876 -8.552,-7.525 -10.043,-13.085 -1.49,-5.56 -0.724,-11.369 2.156,-16.353 3.838,-6.65 10.995,-10.781 18.68,-10.781 3.764,0 7.484,1 10.758,2.89 7.126,4.116 11.228,12.025 10.724,20.072 l 40.319,23.278 v -46.552 c -7.222,-3.587 -12.021,-11.096 -12.021,-19.327 0,-11.884 9.669,-21.551 21.553,-21.551 11.884,0 21.553,9.667 21.553,21.551 0,8.231 -4.799,15.74 -12.021,19.327 V 256.6 l 40.32,-23.278 c -0.504,-8.047 3.598,-15.956 10.724,-20.072 3.275,-1.889 6.994,-2.89 10.758,-2.89 7.684,0 14.842,4.132 18.682,10.781 2.878,4.984 3.644,10.792 2.154,16.353 -1.49,5.56 -5.057,10.209 -10.043,13.088 -3.272,1.889 -6.989,2.887 -10.752,2.887 -4.32,0 -8.472,-1.272 -11.998,-3.63 l -40.31,23.272 z"
           id="path4-1-3-17-6"
           style="fill:#77f5ef;fill-opacity:1" />
      </g>
      <g
         id="g6-45-4"
         transform="matrix(0.0234375,0,0,0.0234375,79.998264,61.221177)"
         style="fill:#77f5ef;fill-opacity:1">
        <path
           class="st0"
           d="m 511.976,213.063 -45.863,-9.749 31.374,-34.845 C 472.114,131.733 417.268,115.015 360.373,127.926 355.071,69.826 322.223,22.83 279.444,10.052 L 256,50.659 232.556,10.053 C 189.777,22.832 156.93,69.828 151.627,127.927 94.733,115.016 39.886,131.734 14.514,168.47 l 31.374,34.844 -45.864,9.749 c -1.066,44.634 33.479,90.396 87.097,113.393 -29.86,50.12 -30.91,107.448 -3.812,142.931 l 42.834,-19.071 -4.901,46.632 c 42.12,14.806 96.318,-3.907 134.758,-47.794 38.44,43.887 92.638,62.6 134.758,47.794 l -4.901,-46.632 42.835,19.072 c 27.097,-35.483 26.048,-92.811 -3.812,-142.932 53.617,-22.996 88.162,-68.759 87.096,-113.393 z m -196.599,83.322 c 3.526,-2.358 7.678,-3.63 11.998,-3.63 3.762,0 7.479,0.998 10.752,2.889 4.986,2.876 8.552,7.525 10.043,13.085 1.49,5.56 0.725,11.369 -2.156,16.353 -3.838,6.65 -10.996,10.781 -18.68,10.781 -3.765,0 -7.484,-1 -10.758,-2.89 -7.126,-4.116 -11.228,-12.025 -10.724,-20.072 l -40.32,-23.278 v 46.552 c 7.222,3.587 12.021,11.096 12.021,19.327 0,11.884 -9.669,21.551 -21.553,21.551 -11.884,0 -21.553,-9.667 -21.553,-21.551 0,-8.231 4.799,-15.74 12.021,-19.327 v -46.552 l -40.319,23.278 c 0.504,8.047 -3.598,15.956 -10.724,20.072 -3.275,1.889 -6.994,2.89 -10.758,2.89 -7.684,0 -14.842,-4.132 -18.682,-10.781 -2.878,-4.984 -3.644,-10.792 -2.154,-16.353 1.49,-5.56 5.057,-10.209 10.043,-13.087 3.272,-1.889 6.989,-2.887 10.752,-2.887 4.321,0 8.473,1.272 11.996,3.63 l 40.312,-23.274 -40.312,-23.272 c -3.523,2.359 -7.675,3.63 -11.996,3.63 -3.762,0 -7.479,-0.998 -10.752,-2.89 -4.986,-2.876 -8.552,-7.525 -10.043,-13.085 -1.49,-5.56 -0.724,-11.369 2.156,-16.353 3.838,-6.65 10.995,-10.781 18.68,-10.781 3.764,0 7.484,1 10.758,2.89 7.126,4.116 11.228,12.025 10.724,20.072 l 40.319,23.278 v -46.552 c -7.222,-3.587 -12.021,-11.096 -12.021,-19.327 0,-11.884 9.669,-21.551 21.553,-21.551 11.884,0 21.553,9.667 21.553,21.551 0,8.231 -4.799,15.74 -12.021,19.327 V 256.6 l 40.32,-23.278 c -0.504,-8.047 3.598,-15.956 10.724,-20.072 3.275,-1.889 6.994,-2.89 10.758,-2.89 7.684,0 14.842,4.132 18.682,10.781 2.878,4.984 3.644,10.792 2.154,16.353 -1.49,5.56 -5.057,10.209 -10.043,13.088 -3.272,1.889 -6.989,2.887 -10.752,2.887 -4.32,0 -8.472,-1.272 -11.998,-3.63 l -40.31,23.272 z"
           id="path4-1-6-9"
           style="fill:#77f5ef;fill-opacity:1" />
      </g>
      <g
         id="g6-5-5-5"
         transform="matrix(0.0234375,0,0,0.0234375,64.650546,53.723021)"
         style="display:inline;fill:#77f5ef;fill-opacity:1">
        <path
           class="st0"
           d="m 511.976,213.063 -45.863,-9.749 31.374,-34.845 C 472.114,131.733 417.268,115.015 360.373,127.926 355.071,69.826 322.223,22.83 279.444,10.052 L 256,50.659 232.556,10.053 C 189.777,22.832 156.93,69.828 151.627,127.927 94.733,115.016 39.886,131.734 14.514,168.47 l 31.374,34.844 -45.864,9.749 c -1.066,44.634 33.479,90.396 87.097,113.393 -29.86,50.12 -30.91,107.448 -3.812,142.931 l 42.834,-19.071 -4.901,46.632 c 42.12,14.806 96.318,-3.907 134.758,-47.794 38.44,43.887 92.638,62.6 134.758,47.794 l -4.901,-46.632 42.835,19.072 c 27.097,-35.483 26.048,-92.811 -3.812,-142.932 53.617,-22.996 88.162,-68.759 87.096,-113.393 z m -196.599,83.322 c 3.526,-2.358 7.678,-3.63 11.998,-3.63 3.762,0 7.479,0.998 10.752,2.889 4.986,2.876 8.552,7.525 10.043,13.085 1.49,5.56 0.725,11.369 -2.156,16.353 -3.838,6.65 -10.996,10.781 -18.68,10.781 -3.765,0 -7.484,-1 -10.758,-2.89 -7.126,-4.116 -11.228,-12.025 -10.724,-20.072 l -40.32,-23.278 v 46.552 c 7.222,3.587 12.021,11.096 12.021,19.327 0,11.884 -9.669,21.551 -21.553,21.551 -11.884,0 -21.553,-9.667 -21.553,-21.551 0,-8.231 4.799,-15.74 12.021,-19.327 v -46.552 l -40.319,23.278 c 0.504,8.047 -3.598,15.956 -10.724,20.072 -3.275,1.889 -6.994,2.89 -10.758,2.89 -7.684,0 -14.842,-4.132 -18.682,-10.781 -2.878,-4.984 -3.644,-10.792 -2.154,-16.353 1.49,-5.56 5.057,-10.209 10.043,-13.087 3.272,-1.889 6.989,-2.887 10.752,-2.887 4.321,0 8.473,1.272 11.996,3.63 l 40.312,-23.274 -40.312,-23.272 c -3.523,2.359 -7.675,3.63 -11.996,3.63 -3.762,0 -7.479,-0.998 -10.752,-2.89 -4.986,-2.876 -8.552,-7.525 -10.043,-13.085 -1.49,-5.56 -0.724,-11.369 2.156,-16.353 3.838,-6.65 10.995,-10.781 18.68,-10.781 3.764,0 7.484,1 10.758,2.89 7.126,4.116 11.228,12.025 10.724,20.072 l 40.319,23.278 v -46.552 c -7.222,-3.587 -12.021,-11.096 -12.021,-19.327 0,-11.884 9.669,-21.551 21.553,-21.551 11.884,0 21.553,9.667 21.553,21.551 0,8.231 -4.799,15.74 -12.021,19.327 V 256.6 l 40.32,-23.278 c -0.504,-8.047 3.598,-15.956 10.724,-20.072 3.275,-1.889 6.994,-2.89 10.758,-2.89 7.684,0 14.842,4.132 18.682,10.781 2.878,4.984 3.644,10.792 2.154,16.353 -1.49,5.56 -5.057,10.209 -10.043,13.088 -3.272,1.889 -6.989,2.887 -10.752,2.887 -4.32,0 -8.472,-1.272 -11.998,-3.63 l -40.31,23.272 z"
           id="path4-1-7-1-88"
           style="fill:#77f5ef;fill-opacity:1" />
      </g>
    </g>
    <g
       id="g3122-4-8"
       style="display:inline"
       transform="matrix(0.84905664,0,0,0.84905664,0.81967054,2.565877)">
      <g
         id="g7603-03-6">
        <g
           id="g13172-1-7-80-7"
           transform="matrix(0.42308981,0,0,0.42308981,-3.3514869,56.094511)"
           style="display:inline">
          <g
             id="g1026-5-3-8-6"
             transform="matrix(1.7323514,0,0,1.7323514,88.015267,-80.552475)">
            <polygon
               class="cls-1"
               points="15.24,63.47 30.37,63.47 37.93,50.37 30.37,37.27 15.24,37.27 7.67,50.37 "
               id="polygon14-4-2-2-1"
               style="fill:#99cc00;fill-opacity:1" />
            <path
               id="polygon16-3-6-7-3"
               style="fill:#6d9003;fill-opacity:1;stroke-width:1"
               class="cls-1"
               d="M 15.240068,37.269902 7.67,50.37 15.240068,63.480107 h 5.759521 L 13.479081,50.448613 21.03914,37.348516 h 9.376221 l -0.04541,-0.07861 z" />
          </g>
          <g
             id="g1026-9-48-4-0-9"
             transform="matrix(1.7323514,0,0,1.7323514,124.5879,-98.495687)">
            <polygon
               class="cls-1"
               points="37.93,50.37 30.37,37.27 15.24,37.27 7.67,50.37 15.24,63.47 30.37,63.47 "
               id="polygon14-3-3-3-7-0"
               style="fill:#99cc00;fill-opacity:1" />
            <path
               id="polygon16-8-8-5-5-2"
               style="fill:#6d9003;fill-opacity:1;stroke-width:1"
               class="cls-1"
               d="M 15.240068,37.269902 7.67,50.37 15.240068,63.480107 h 5.759521 L 13.479081,50.448613 21.03914,37.348516 h 9.376221 l -0.04541,-0.07861 z" />
          </g>
          <g
             id="g1026-9-4-4-7-1-0"
             transform="matrix(1.7323514,0,0,1.7323514,160.86322,-80.773313)">
            <polygon
               class="cls-1"
               points="37.93,50.37 30.37,37.27 15.24,37.27 7.67,50.37 15.24,63.47 30.37,63.47 "
               id="polygon14-3-9-4-8-0-0"
               style="fill:#99cc00;fill-opacity:1" />
            <path
               id="polygon16-8-1-0-7-91-7"
               style="fill:#6d9003;fill-opacity:1;stroke-width:1"
               class="cls-1"
               d="M 15.240068,37.269902 7.67,50.37 15.240068,63.480107 h 5.759521 L 13.479081,50.448613 21.03914,37.348516 h 9.376221 l -0.04541,-0.07861 z" />
          </g>
        </g>
      </g>
      <g
         id="g6-4-7-0"
         transform="matrix(0.0234375,0,0,0.0234375,49.177037,61.314611)"
         style="display:inline;fill:#77f5ef;fill-opacity:1">
        <path
           class="st0"
           d="m 511.976,213.063 -45.863,-9.749 31.374,-34.845 C 472.114,131.733 417.268,115.015 360.373,127.926 355.071,69.826 322.223,22.83 279.444,10.052 L 256,50.659 232.556,10.053 C 189.777,22.832 156.93,69.828 151.627,127.927 94.733,115.016 39.886,131.734 14.514,168.47 l 31.374,34.844 -45.864,9.749 c -1.066,44.634 33.479,90.396 87.097,113.393 -29.86,50.12 -30.91,107.448 -3.812,142.931 l 42.834,-19.071 -4.901,46.632 c 42.12,14.806 96.318,-3.907 134.758,-47.794 38.44,43.887 92.638,62.6 134.758,47.794 l -4.901,-46.632 42.835,19.072 c 27.097,-35.483 26.048,-92.811 -3.812,-142.932 53.617,-22.996 88.162,-68.759 87.096,-113.393 z m -196.599,83.322 c 3.526,-2.358 7.678,-3.63 11.998,-3.63 3.762,0 7.479,0.998 10.752,2.889 4.986,2.876 8.552,7.525 10.043,13.085 1.49,5.56 0.725,11.369 -2.156,16.353 -3.838,6.65 -10.996,10.781 -18.68,10.781 -3.765,0 -7.484,-1 -10.758,-2.89 -7.126,-4.116 -11.228,-12.025 -10.724,-20.072 l -40.32,-23.278 v 46.552 c 7.222,3.587 12.021,11.096 12.021,19.327 0,11.884 -9.669,21.551 -21.553,21.551 -11.884,0 -21.553,-9.667 -21.553,-21.551 0,-8.231 4.799,-15.74 12.021,-19.327 v -46.552 l -40.319,23.278 c 0.504,8.047 -3.598,15.956 -10.724,20.072 -3.275,1.889 -6.994,2.89 -10.758,2.89 -7.684,0 -14.842,-4.132 -18.682,-10.781 -2.878,-4.984 -3.644,-10.792 -2.154,-16.353 1.49,-5.56 5.057,-10.209 10.043,-13.087 3.272,-1.889 6.989,-2.887 10.752,-2.887 4.321,0 8.473,1.272 11.996,3.63 l 40.312,-23.274 -40.312,-23.272 c -3.523,2.359 -7.675,3.63 -11.996,3.63 -3.762,0 -7.479,-0.998 -10.752,-2.89 -4.986,-2.876 -8.552,-7.525 -10.043,-13.085 -1.49,-5.56 -0.724,-11.369 2.156,-16.353 3.838,-6.65 10.995,-10.781 18.68,-10.781 3.764,0 7.484,1 10.758,2.89 7.126,4.116 11.228,12.025 10.724,20.072 l 40.319,23.278 v -46.552 c -7.222,-3.587 -12.021,-11.096 -12.021,-19.327 0,-11.884 9.669,-21.551 21.553,-21.551 11.884,0 21.553,9.667 21.553,21.551 0,8.231 -4.799,15.74 -12.021,19.327 V 256.6 l 40.32,-23.278 c -0.504,-8.047 3.598,-15.956 10.724,-20.072 3.275,-1.889 6.994,-2.89 10.758,-2.89 7.684,0 14.842,4.132 18.682,10.781 2.878,4.984 3.644,10.792 2.154,16.353 -1.49,5.56 -5.057,10.209 -10.043,13.088 -3.272,1.889 -6.989,2.887 -10.752,2.887 -4.32,0 -8.472,-1.272 -11.998,-3.63 l -40.31,23.272 z"
           id="path4-1-3-17-0"
           style="fill:#77f5ef;fill-opacity:1" />
      </g>
      <g
         id="g6-45-6"
         transform="matrix(0.0234375,0,0,0.0234375,79.998264,61.221177)"
         style="fill:#77f5ef;fill-opacity:1">
        <path
           class="st0"
           d="m 511.976,213.063 -45.863,-9.749 31.374,-34.845 C 472.114,131.733 417.268,115.015 360.373,127.926 355.071,69.826 322.223,22.83 279.444,10.052 L 256,50.659 232.556,10.053 C 189.777,22.832 156.93,69.828 151.627,127.927 94.733,115.016 39.886,131.734 14.514,168.47 l 31.374,34.844 -45.864,9.749 c -1.066,44.634 33.479,90.396 87.097,113.393 -29.86,50.12 -30.91,107.448 -3.812,142.931 l 42.834,-19.071 -4.901,46.632 c 42.12,14.806 96.318,-3.907 134.758,-47.794 38.44,43.887 92.638,62.6 134.758,47.794 l -4.901,-46.632 42.835,19.072 c 27.097,-35.483 26.048,-92.811 -3.812,-142.932 53.617,-22.996 88.162,-68.759 87.096,-113.393 z m -196.599,83.322 c 3.526,-2.358 7.678,-3.63 11.998,-3.63 3.762,0 7.479,0.998 10.752,2.889 4.986,2.876 8.552,7.525 10.043,13.085 1.49,5.56 0.725,11.369 -2.156,16.353 -3.838,6.65 -10.996,10.781 -18.68,10.781 -3.765,0 -7.484,-1 -10.758,-2.89 -7.126,-4.116 -11.228,-12.025 -10.724,-20.072 l -40.32,-23.278 v 46.552 c 7.222,3.587 12.021,11.096 12.021,19.327 0,11.884 -9.669,21.551 -21.553,21.551 -11.884,0 -21.553,-9.667 -21.553,-21.551 0,-8.231 4.799,-15.74 12.021,-19.327 v -46.552 l -40.319,23.278 c 0.504,8.047 -3.598,15.956 -10.724,20.072 -3.275,1.889 -6.994,2.89 -10.758,2.89 -7.684,0 -14.842,-4.132 -18.682,-10.781 -2.878,-4.984 -3.644,-10.792 -2.154,-16.353 1.49,-5.56 5.057,-10.209 10.043,-13.087 3.272,-1.889 6.989,-2.887 10.752,-2.887 4.321,0 8.473,1.272 11.996,3.63 l 40.312,-23.274 -40.312,-23.272 c -3.523,2.359 -7.675,3.63 -11.996,3.63 -3.762,0 -7.479,-0.998 -10.752,-2.89 -4.986,-2.876 -8.552,-7.525 -10.043,-13.085 -1.49,-5.56 -0.724,-11.369 2.156,-16.353 3.838,-6.65 10.995,-10.781 18.68,-10.781 3.764,0 7.484,1 10.758,2.89 7.126,4.116 11.228,12.025 10.724,20.072 l 40.319,23.278 v -46.552 c -7.222,-3.587 -12.021,-11.096 -12.021,-19.327 0,-11.884 9.669,-21.551 21.553,-21.551 11.884,0 21.553,9.667 21.553,21.551 0,8.231 -4.799,15.74 -12.021,19.327 V 256.6 l 40.32,-23.278 c -0.504,-8.047 3.598,-15.956 10.724,-20.072 3.275,-1.889 6.994,-2.89 10.758,-2.89 7.684,0 14.842,4.132 18.682,10.781 2.878,4.984 3.644,10.792 2.154,16.353 -1.49,5.56 -5.057,10.209 -10.043,13.088 -3.272,1.889 -6.989,2.887 -10.752,2.887 -4.32,0 -8.472,-1.272 -11.998,-3.63 l -40.31,23.272 z"
           id="path4-1-6-2"
           style="fill:#77f5ef;fill-opacity:1" />
      </g>
      <g
         id="g6-5-5-9"
         transform="matrix(0.0234375,0,0,0.0234375,64.650546,53.723021)"
         style="display:inline;fill:#77f5ef;fill-opacity:1">
        <path
           class="st0"
           d="m 511.976,213.063 -45.863,-9.749 31.374,-34.845 C 472.114,131.733 417.268,115.015 360.373,127.926 355.071,69.826 322.223,22.83 279.444,10.052 L 256,50.659 232.556,10.053 C 189.777,22.832 156.93,69.828 151.627,127.927 94.733,115.016 39.886,131.734 14.514,168.47 l 31.374,34.844 -45.864,9.749 c -1.066,44.634 33.479,90.396 87.097,113.393 -29.86,50.12 -30.91,107.448 -3.812,142.931 l 42.834,-19.071 -4.901,46.632 c 42.12,14.806 96.318,-3.907 134.758,-47.794 38.44,43.887 92.638,62.6 134.758,47.794 l -4.901,-46.632 42.835,19.072 c 27.097,-35.483 26.048,-92.811 -3.812,-142.932 53.617,-22.996 88.162,-68.759 87.096,-113.393 z m -196.599,83.322 c 3.526,-2.358 7.678,-3.63 11.998,-3.63 3.762,0 7.479,0.998 10.752,2.889 4.986,2.876 8.552,7.525 10.043,13.085 1.49,5.56 0.725,11.369 -2.156,16.353 -3.838,6.65 -10.996,10.781 -18.68,10.781 -3.765,0 -7.484,-1 -10.758,-2.89 -7.126,-4.116 -11.228,-12.025 -10.724,-20.072 l -40.32,-23.278 v 46.552 c 7.222,3.587 12.021,11.096 12.021,19.327 0,11.884 -9.669,21.551 -21.553,21.551 -11.884,0 -21.553,-9.667 -21.553,-21.551 0,-8.231 4.799,-15.74 12.021,-19.327 v -46.552 l -40.319,23.278 c 0.504,8.047 -3.598,15.956 -10.724,20.072 -3.275,1.889 -6.994,2.89 -10.758,2.89 -7.684,0 -14.842,-4.132 -18.682,-10.781 -2.878,-4.984 -3.644,-10.792 -2.154,-16.353 1.49,-5.56 5.057,-10.209 10.043,-13.087 3.272,-1.889 6.989,-2.887 10.752,-2.887 4.321,0 8.473,1.272 11.996,3.63 l 40.312,-23.274 -40.312,-23.272 c -3.523,2.359 -7.675,3.63 -11.996,3.63 -3.762,0 -7.479,-0.998 -10.752,-2.89 -4.986,-2.876 -8.552,-7.525 -10.043,-13.085 -1.49,-5.56 -0.724,-11.369 2.156,-16.353 3.838,-6.65 10.995,-10.781 18.68,-10.781 3.764,0 7.484,1 10.758,2.89 7.126,4.116 11.228,12.025 10.724,20.072 l 40.319,23.278 v -46.552 c -7.222,-3.587 -12.021,-11.096 -12.021,-19.327 0,-11.884 9.669,-21.551 21.553,-21.551 11.884,0 21.553,9.667 21.553,21.551 0,8.231 -4.799,15.74 -12.021,19.327 V 256.6 l 40.32,-23.278 c -0.504,-8.047 3.598,-15.956 10.724,-20.072 3.275,-1.889 6.994,-2.89 10.758,-2.89 7.684,0 14.842,4.132 18.682,10.781 2.878,4.984 3.644,10.792 2.154,16.353 -1.49,5.56 -5.057,10.209 -10.043,13.088 -3.272,1.889 -6.989,2.887 -10.752,2.887 -4.32,0 -8.472,-1.272 -11.998,-3.63 l -40.31,23.272 z"
           id="path4-1-7-1-5"
           style="fill:#77f5ef;fill-opacity:1" />
      </g>
    </g>
    <g
       id="g3122-4-8-4"
       style="display:inline"
       transform="matrix(0.84905664,0,0,0.84905664,39.338704,-12.980821)">
      <g
         id="g7603-03-6-6">
        <g
           id="g13172-1-7-80-7-0"
           transform="matrix(0.42308981,0,0,0.42308981,-3.3514869,56.094511)"
           style="display:inline">
          <g
             id="g1026-5-3-8-6-3"
             transform="matrix(1.7323514,0,0,1.7323514,88.015267,-80.552475)">
            <polygon
               class="cls-1"
               points="15.24,63.47 30.37,63.47 37.93,50.37 30.37,37.27 15.24,37.27 7.67,50.37 "
               id="polygon14-4-2-2-1-3"
               style="fill:#99cc00;fill-opacity:1" />
            <path
               id="polygon16-3-6-7-3-1"
               style="fill:#6d9003;fill-opacity:1;stroke-width:1"
               class="cls-1"
               d="M 15.240068,37.269902 7.67,50.37 15.240068,63.480107 h 5.759521 L 13.479081,50.448613 21.03914,37.348516 h 9.376221 l -0.04541,-0.07861 z" />
          </g>
          <g
             id="g1026-9-48-4-0-9-1"
             transform="matrix(1.7323514,0,0,1.7323514,124.5879,-98.495687)">
            <polygon
               class="cls-1"
               points="37.93,50.37 30.37,37.27 15.24,37.27 7.67,50.37 15.24,63.47 30.37,63.47 "
               id="polygon14-3-3-3-7-0-1"
               style="fill:#99cc00;fill-opacity:1" />
            <path
               id="polygon16-8-8-5-5-2-0"
               style="fill:#6d9003;fill-opacity:1;stroke-width:1"
               class="cls-1"
               d="M 15.240068,37.269902 7.67,50.37 15.240068,63.480107 h 5.759521 L 13.479081,50.448613 21.03914,37.348516 h 9.376221 l -0.04541,-0.07861 z" />
          </g>
          <g
             id="g1026-9-4-4-7-1-0-2"
             transform="matrix(1.7323514,0,0,1.7323514,160.86322,-80.773313)">
            <polygon
               class="cls-1"
               points="37.93,50.37 30.37,37.27 15.24,37.27 7.67,50.37 15.24,63.47 30.37,63.47 "
               id="polygon14-3-9-4-8-0-0-4"
               style="fill:#99cc00;fill-opacity:1" />
            <path
               id="polygon16-8-1-0-7-91-7-6"
               style="fill:#6d9003;fill-opacity:1;stroke-width:1"
               class="cls-1"
               d="M 15.240068,37.269902 7.67,50.37 15.240068,63.480107 h 5.759521 L 13.479081,50.448613 21.03914,37.348516 h 9.376221 l -0.04541,-0.07861 z" />
          </g>
        </g>
      </g>
      <g
         id="g6-4-7-0-0"
         transform="matrix(0.0234375,0,0,0.0234375,49.177037,61.314611)"
         style="display:inline;fill:#77f5ef;fill-opacity:1">
        <path
           class="st0"
           d="m 511.976,213.063 -45.863,-9.749 31.374,-34.845 C 472.114,131.733 417.268,115.015 360.373,127.926 355.071,69.826 322.223,22.83 279.444,10.052 L 256,50.659 232.556,10.053 C 189.777,22.832 156.93,69.828 151.627,127.927 94.733,115.016 39.886,131.734 14.514,168.47 l 31.374,34.844 -45.864,9.749 c -1.066,44.634 33.479,90.396 87.097,113.393 -29.86,50.12 -30.91,107.448 -3.812,142.931 l 42.834,-19.071 -4.901,46.632 c 42.12,14.806 96.318,-3.907 134.758,-47.794 38.44,43.887 92.638,62.6 134.758,47.794 l -4.901,-46.632 42.835,19.072 c 27.097,-35.483 26.048,-92.811 -3.812,-142.932 53.617,-22.996 88.162,-68.759 87.096,-113.393 z m -196.599,83.322 c 3.526,-2.358 7.678,-3.63 11.998,-3.63 3.762,0 7.479,0.998 10.752,2.889 4.986,2.876 8.552,7.525 10.043,13.085 1.49,5.56 0.725,11.369 -2.156,16.353 -3.838,6.65 -10.996,10.781 -18.68,10.781 -3.765,0 -7.484,-1 -10.758,-2.89 -7.126,-4.116 -11.228,-12.025 -10.724,-20.072 l -40.32,-23.278 v 46.552 c 7.222,3.587 12.021,11.096 12.021,19.327 0,11.884 -9.669,21.551 -21.553,21.551 -11.884,0 -21.553,-9.667 -21.553,-21.551 0,-8.231 4.799,-15.74 12.021,-19.327 v -46.552 l -40.319,23.278 c 0.504,8.047 -3.598,15.956 -10.724,20.072 -3.275,1.889 -6.994,2.89 -10.758,2.89 -7.684,0 -14.842,-4.132 -18.682,-10.781 -2.878,-4.984 -3.644,-10.792 -2.154,-16.353 1.49,-5.56 5.057,-10.209 10.043,-13.087 3.272,-1.889 6.989,-2.887 10.752,-2.887 4.321,0 8.473,1.272 11.996,3.63 l 40.312,-23.274 -40.312,-23.272 c -3.523,2.359 -7.675,3.63 -11.996,3.63 -3.762,0 -7.479,-0.998 -10.752,-2.89 -4.986,-2.876 -8.552,-7.525 -10.043,-13.085 -1.49,-5.56 -0.724,-11.369 2.156,-16.353 3.838,-6.65 10.995,-10.781 18.68,-10.781 3.764,0 7.484,1 10.758,2.89 7.126,4.116 11.228,12.025 10.724,20.072 l 40.319,23.278 v -46.552 c -7.222,-3.587 -12.021,-11.096 -12.021,-19.327 0,-11.884 9.669,-21.551 21.553,-21.551 11.884,0 21.553,9.667 21.553,21.551 0,8.231 -4.799,15.74 -12.021,19.327 V 256.6 l 40.32,-23.278 c -0.504,-8.047 3.598,-15.956 10.724,-20.072 3.275,-1.889 6.994,-2.89 10.758,-2.89 7.684,0 14.842,4.132 18.682,10.781 2.878,4.984 3.644,10.792 2.154,16.353 -1.49,5.56 -5.057,10.209 -10.043,13.088 -3.272,1.889 -6.989,2.887 -10.752,2.887 -4.32,0 -8.472,-1.272 -11.998,-3.63 l -40.31,23.272 z"
           id="path4-1-3-17-0-5"
           style="fill:#77f5ef;fill-opacity:1" />
      </g>
      <g
         id="g6-45-6-0"
         transform="matrix(0.0234375,0,0,0.0234375,79.998264,61.221177)"
         style="fill:#77f5ef;fill-opacity:1">
        <path
           class="st0"
           d="m 511.976,213.063 -45.863,-9.749 31.374,-34.845 C 472.114,131.733 417.268,115.015 360.373,127.926 355.071,69.826 322.223,22.83 279.444,10.052 L 256,50.659 232.556,10.053 C 189.777,22.832 156.93,69.828 151.627,127.927 94.733,115.016 39.886,131.734 14.514,168.47 l 31.374,34.844 -45.864,9.749 c -1.066,44.634 33.479,90.396 87.097,113.393 -29.86,50.12 -30.91,107.448 -3.812,142.931 l 42.834,-19.071 -4.901,46.632 c 42.12,14.806 96.318,-3.907 134.758,-47.794 38.44,43.887 92.638,62.6 134.758,47.794 l -4.901,-46.632 42.835,19.072 c 27.097,-35.483 26.048,-92.811 -3.812,-142.932 53.617,-22.996 88.162,-68.759 87.096,-113.393 z m -196.599,83.322 c 3.526,-2.358 7.678,-3.63 11.998,-3.63 3.762,0 7.479,0.998 10.752,2.889 4.986,2.876 8.552,7.525 10.043,13.085 1.49,5.56 0.725,11.369 -2.156,16.353 -3.838,6.65 -10.996,10.781 -18.68,10.781 -3.765,0 -7.484,-1 -10.758,-2.89 -7.126,-4.116 -11.228,-12.025 -10.724,-20.072 l -40.32,-23.278 v 46.552 c 7.222,3.587 12.021,11.096 12.021,19.327 0,11.884 -9.669,21.551 -21.553,21.551 -11.884,0 -21.553,-9.667 -21.553,-21.551 0,-8.231 4.799,-15.74 12.021,-19.327 v -46.552 l -40.319,23.278 c 0.504,8.047 -3.598,15.956 -10.724,20.072 -3.275,1.889 -6.994,2.89 -10.758,2.89 -7.684,0 -14.842,-4.132 -18.682,-10.781 -2.878,-4.984 -3.644,-10.792 -2.154,-16.353 1.49,-5.56 5.057,-10.209 10.043,-13.087 3.272,-1.889 6.989,-2.887 10.752,-2.887 4.321,0 8.473,1.272 11.996,3.63 l 40.312,-23.274 -40.312,-23.272 c -3.523,2.359 -7.675,3.63 -11.996,3.63 -3.762,0 -7.479,-0.998 -10.752,-2.89 -4.986,-2.876 -8.552,-7.525 -10.043,-13.085 -1.49,-5.56 -0.724,-11.369 2.156,-16.353 3.838,-6.65 10.995,-10.781 18.68,-10.781 3.764,0 7.484,1 10.758,2.89 7.126,4.116 11.228,12.025 10.724,20.072 l 40.319,23.278 v -46.552 c -7.222,-3.587 -12.021,-11.096 -12.021,-19.327 0,-11.884 9.669,-21.551 21.553,-21.551 11.884,0 21.553,9.667 21.553,21.551 0,8.231 -4.799,15.74 -12.021,19.327 V 256.6 l 40.32,-23.278 c -0.504,-8.047 3.598,-15.956 10.724,-20.072 3.275,-1.889 6.994,-2.89 10.758,-2.89 7.684,0 14.842,4.132 18.682,10.781 2.878,4.984 3.644,10.792 2.154,16.353 -1.49,5.56 -5.057,10.209 -10.043,13.088 -3.272,1.889 -6.989,2.887 -10.752,2.887 -4.32,0 -8.472,-1.272 -11.998,-3.63 l -40.31,23.272 z"
           id="path4-1-6-2-5"
           style="fill:#77f5ef;fill-opacity:1" />
      </g>
      <g
         id="g6-5-5-9-6"
         transform="matrix(0.0234375,0,0,0.0234375,64.650546,53.723021)"
         style="display:inline;fill:#77f5ef;fill-opacity:1">
        <path
           class="st0"
           d="m 511.976,213.063 -45.863,-9.749 31.374,-34.845 C 472.114,131.733 417.268,115.015 360.373,127.926 355.071,69.826 322.223,22.83 279.444,10.052 L 256,50.659 232.556,10.053 C 189.777,22.832 156.93,69.828 151.627,127.927 94.733,115.016 39.886,131.734 14.514,168.47 l 31.374,34.844 -45.864,9.749 c -1.066,44.634 33.479,90.396 87.097,113.393 -29.86,50.12 -30.91,107.448 -3.812,142.931 l 42.834,-19.071 -4.901,46.632 c 42.12,14.806 96.318,-3.907 134.758,-47.794 38.44,43.887 92.638,62.6 134.758,47.794 l -4.901,-46.632 42.835,19.072 c 27.097,-35.483 26.048,-92.811 -3.812,-142.932 53.617,-22.996 88.162,-68.759 87.096,-113.393 z m -196.599,83.322 c 3.526,-2.358 7.678,-3.63 11.998,-3.63 3.762,0 7.479,0.998 10.752,2.889 4.986,2.876 8.552,7.525 10.043,13.085 1.49,5.56 0.725,11.369 -2.156,16.353 -3.838,6.65 -10.996,10.781 -18.68,10.781 -3.765,0 -7.484,-1 -10.758,-2.89 -7.126,-4.116 -11.228,-12.025 -10.724,-20.072 l -40.32,-23.278 v 46.552 c 7.222,3.587 12.021,11.096 12.021,19.327 0,11.884 -9.669,21.551 -21.553,21.551 -11.884,0 -21.553,-9.667 -21.553,-21.551 0,-8.231 4.799,-15.74 12.021,-19.327 v -46.552 l -40.319,23.278 c 0.504,8.047 -3.598,15.956 -10.724,20.072 -3.275,1.889 -6.994,2.89 -10.758,2.89 -7.684,0 -14.842,-4.132 -18.682,-10.781 -2.878,-4.984 -3.644,-10.792 -2.154,-16.353 1.49,-5.56 5.057,-10.209 10.043,-13.087 3.272,-1.889 6.989,-2.887 10.752,-2.887 4.321,0 8.473,1.272 11.996,3.63 l 40.312,-23.274 -40.312,-23.272 c -3.523,2.359 -7.675,3.63 -11.996,3.63 -3.762,0 -7.479,-0.998 -10.752,-2.89 -4.986,-2.876 -8.552,-7.525 -10.043,-13.085 -1.49,-5.56 -0.724,-11.369 2.156,-16.353 3.838,-6.65 10.995,-10.781 18.68,-10.781 3.764,0 7.484,1 10.758,2.89 7.126,4.116 11.228,12.025 10.724,20.072 l 40.319,23.278 v -46.552 c -7.222,-3.587 -12.021,-11.096 -12.021,-19.327 0,-11.884 9.669,-21.551 21.553,-21.551 11.884,0 21.553,9.667 21.553,21.551 0,8.231 -4.799,15.74 -12.021,19.327 V 256.6 l 40.32,-23.278 c -0.504,-8.047 3.598,-15.956 10.724,-20.072 3.275,-1.889 6.994,-2.89 10.758,-2.89 7.684,0 14.842,4.132 18.682,10.781 2.878,4.984 3.644,10.792 2.154,16.353 -1.49,5.56 -5.057,10.209 -10.043,13.088 -3.272,1.889 -6.989,2.887 -10.752,2.887 -4.32,0 -8.472,-1.272 -11.998,-3.63 l -40.31,23.272 z"
           id="path4-1-7-1-5-7"
           style="fill:#77f5ef;fill-opacity:1" />
      </g>
    </g>
    <g
       id="g3122-4-8-4-2"
       style="display:inline"
       transform="matrix(0.75471701,0,0,0.75471701,16.652212,-26.006991)">
      <g
         id="g7603-03-6-6-6">
        <g
           id="g13172-1-7-80-7-0-0"
           transform="matrix(0.42308981,0,0,0.42308981,-3.3514869,56.094511)"
           style="display:inline">
          <g
             id="g1026-5-3-8-6-3-5"
             transform="matrix(1.7323514,0,0,1.7323514,88.015267,-80.552475)">
            <polygon
               class="cls-1"
               points="37.93,50.37 30.37,37.27 15.24,37.27 7.67,50.37 15.24,63.47 30.37,63.47 "
               id="polygon14-4-2-2-1-3-1"
               style="fill:#99cc00;fill-opacity:1" />
            <path
               id="polygon16-3-6-7-3-1-8"
               style="fill:#6d9003;fill-opacity:1;stroke-width:1"
               class="cls-1"
               d="M 15.240068,37.269902 7.67,50.37 15.240068,63.480107 h 5.759521 L 13.479081,50.448613 21.03914,37.348516 h 9.376221 l -0.04541,-0.07861 z" />
          </g>
          <g
             id="g1026-9-48-4-0-9-1-8"
             transform="matrix(1.7323514,0,0,1.7323514,124.5879,-98.495687)">
            <polygon
               class="cls-1"
               points="15.24,37.27 7.67,50.37 15.24,63.47 30.37,63.47 37.93,50.37 30.37,37.27 "
               id="polygon14-3-3-3-7-0-1-7"
               style="fill:#99cc00;fill-opacity:1" />
            <path
               id="polygon16-8-8-5-5-2-0-8"
               style="fill:#6d9003;fill-opacity:1;stroke-width:1"
               class="cls-1"
               d="M 15.240068,37.269902 7.67,50.37 15.240068,63.480107 h 5.759521 L 13.479081,50.448613 21.03914,37.348516 h 9.376221 l -0.04541,-0.07861 z" />
          </g>
          <g
             id="g1026-9-4-4-7-1-0-2-8"
             transform="matrix(1.7323514,0,0,1.7323514,160.86322,-80.773313)">
            <polygon
               class="cls-1"
               points="15.24,37.27 7.67,50.37 15.24,63.47 30.37,63.47 37.93,50.37 30.37,37.27 "
               id="polygon14-3-9-4-8-0-0-4-0"
               style="fill:#99cc00;fill-opacity:1" />
            <path
               id="polygon16-8-1-0-7-91-7-6-0"
               style="fill:#6d9003;fill-opacity:1;stroke-width:1"
               class="cls-1"
               d="M 15.240068,37.269902 7.67,50.37 15.240068,63.480107 h 5.759521 L 13.479081,50.448613 21.03914,37.348516 h 9.376221 l -0.04541,-0.07861 z" />
          </g>
        </g>
      </g>
      <g
         id="g6-4-7-0-0-5"
         transform="matrix(0.0234375,0,0,0.0234375,49.177037,61.314611)"
         style="display:inline;fill:#77f5ef;fill-opacity:1">
        <path
           class="st0"
           d="m 511.976,213.063 -45.863,-9.749 31.374,-34.845 C 472.114,131.733 417.268,115.015 360.373,127.926 355.071,69.826 322.223,22.83 279.444,10.052 L 256,50.659 232.556,10.053 C 189.777,22.832 156.93,69.828 151.627,127.927 94.733,115.016 39.886,131.734 14.514,168.47 l 31.374,34.844 -45.864,9.749 c -1.066,44.634 33.479,90.396 87.097,113.393 -29.86,50.12 -30.91,107.448 -3.812,142.931 l 42.834,-19.071 -4.901,46.632 c 42.12,14.806 96.318,-3.907 134.758,-47.794 38.44,43.887 92.638,62.6 134.758,47.794 l -4.901,-46.632 42.835,19.072 c 27.097,-35.483 26.048,-92.811 -3.812,-142.932 53.617,-22.996 88.162,-68.759 87.096,-113.393 z m -196.599,83.322 c 3.526,-2.358 7.678,-3.63 11.998,-3.63 3.762,0 7.479,0.998 10.752,2.889 4.986,2.876 8.552,7.525 10.043,13.085 1.49,5.56 0.725,11.369 -2.156,16.353 -3.838,6.65 -10.996,10.781 -18.68,10.781 -3.765,0 -7.484,-1 -10.758,-2.89 -7.126,-4.116 -11.228,-12.025 -10.724,-20.072 l -40.32,-23.278 v 46.552 c 7.222,3.587 12.021,11.096 12.021,19.327 0,11.884 -9.669,21.551 -21.553,21.551 -11.884,0 -21.553,-9.667 -21.553,-21.551 0,-8.231 4.799,-15.74 12.021,-19.327 v -46.552 l -40.319,23.278 c 0.504,8.047 -3.598,15.956 -10.724,20.072 -3.275,1.889 -6.994,2.89 -10.758,2.89 -7.684,0 -14.842,-4.132 -18.682,-10.781 -2.878,-4.984 -3.644,-10.792 -2.154,-16.353 1.49,-5.56 5.057,-10.209 10.043,-13.087 3.272,-1.889 6.989,-2.887 10.752,-2.887 4.321,0 8.473,1.272 11.996,3.63 l 40.312,-23.274 -40.312,-23.272 c -3.523,2.359 -7.675,3.63 -11.996,3.63 -3.762,0 -7.479,-0.998 -10.752,-2.89 -4.986,-2.876 -8.552,-7.525 -10.043,-13.085 -1.49,-5.56 -0.724,-11.369 2.156,-16.353 3.838,-6.65 10.995,-10.781 18.68,-10.781 3.764,0 7.484,1 10.758,2.89 7.126,4.116 11.228,12.025 10.724,20.072 l 40.319,23.278 v -46.552 c -7.222,-3.587 -12.021,-11.096 -12.021,-19.327 0,-11.884 9.669,-21.551 21.553,-21.551 11.884,0 21.553,9.667 21.553,21.551 0,8.231 -4.799,15.74 -12.021,19.327 V 256.6 l 40.32,-23.278 c -0.504,-8.047 3.598,-15.956 10.724,-20.072 3.275,-1.889 6.994,-2.89 10.758,-2.89 7.684,0 14.842,4.132 18.682,10.781 2.878,4.984 3.644,10.792 2.154,16.353 -1.49,5.56 -5.057,10.209 -10.043,13.088 -3.272,1.889 -6.989,2.887 -10.752,2.887 -4.32,0 -8.472,-1.272 -11.998,-3.63 l -40.31,23.272 z"
           id="path4-1-3-17-0-5-3"
           style="fill:#77f5ef;fill-opacity:1" />
      </g>
      <g
         id="g6-45-6-0-3"
         transform="matrix(0.0234375,0,0,0.0234375,79.998264,61.221177)"
         style="fill:#77f5ef;fill-opacity:1">
        <path
           class="st0"
           d="m 511.976,213.063 -45.863,-9.749 31.374,-34.845 C 472.114,131.733 417.268,115.015 360.373,127.926 355.071,69.826 322.223,22.83 279.444,10.052 L 256,50.659 232.556,10.053 C 189.777,22.832 156.93,69.828 151.627,127.927 94.733,115.016 39.886,131.734 14.514,168.47 l 31.374,34.844 -45.864,9.749 c -1.066,44.634 33.479,90.396 87.097,113.393 -29.86,50.12 -30.91,107.448 -3.812,142.931 l 42.834,-19.071 -4.901,46.632 c 42.12,14.806 96.318,-3.907 134.758,-47.794 38.44,43.887 92.638,62.6 134.758,47.794 l -4.901,-46.632 42.835,19.072 c 27.097,-35.483 26.048,-92.811 -3.812,-142.932 53.617,-22.996 88.162,-68.759 87.096,-113.393 z m -196.599,83.322 c 3.526,-2.358 7.678,-3.63 11.998,-3.63 3.762,0 7.479,0.998 10.752,2.889 4.986,2.876 8.552,7.525 10.043,13.085 1.49,5.56 0.725,11.369 -2.156,16.353 -3.838,6.65 -10.996,10.781 -18.68,10.781 -3.765,0 -7.484,-1 -10.758,-2.89 -7.126,-4.116 -11.228,-12.025 -10.724,-20.072 l -40.32,-23.278 v 46.552 c 7.222,3.587 12.021,11.096 12.021,19.327 0,11.884 -9.669,21.551 -21.553,21.551 -11.884,0 -21.553,-9.667 -21.553,-21.551 0,-8.231 4.799,-15.74 12.021,-19.327 v -46.552 l -40.319,23.278 c 0.504,8.047 -3.598,15.956 -10.724,20.072 -3.275,1.889 -6.994,2.89 -10.758,2.89 -7.684,0 -14.842,-4.132 -18.682,-10.781 -2.878,-4.984 -3.644,-10.792 -2.154,-16.353 1.49,-5.56 5.057,-10.209 10.043,-13.087 3.272,-1.889 6.989,-2.887 10.752,-2.887 4.321,0 8.473,1.272 11.996,3.63 l 40.312,-23.274 -40.312,-23.272 c -3.523,2.359 -7.675,3.63 -11.996,3.63 -3.762,0 -7.479,-0.998 -10.752,-2.89 -4.986,-2.876 -8.552,-7.525 -10.043,-13.085 -1.49,-5.56 -0.724,-11.369 2.156,-16.353 3.838,-6.65 10.995,-10.781 18.68,-10.781 3.764,0 7.484,1 10.758,2.89 7.126,4.116 11.228,12.025 10.724,20.072 l 40.319,23.278 v -46.552 c -7.222,-3.587 -12.021,-11.096 -12.021,-19.327 0,-11.884 9.669,-21.551 21.553,-21.551 11.884,0 21.553,9.667 21.553,21.551 0,8.231 -4.799,15.74 -12.021,19.327 V 256.6 l 40.32,-23.278 c -0.504,-8.047 3.598,-15.956 10.724,-20.072 3.275,-1.889 6.994,-2.89 10.758,-2.89 7.684,0 14.842,4.132 18.682,10.781 2.878,4.984 3.644,10.792 2.154,16.353 -1.49,5.56 -5.057,10.209 -10.043,13.088 -3.272,1.889 -6.989,2.887 -10.752,2.887 -4.32,0 -8.472,-1.272 -11.998,-3.63 l -40.31,23.272 z"
           id="path4-1-6-2-5-9"
           style="fill:#77f5ef;fill-opacity:1" />
      </g>
      <g
         id="g6-5-5-9-6-0"
         transform="matrix(0.0234375,0,0,0.0234375,64.650546,53.723021)"
         style="display:inline;fill:#77f5ef;fill-opacity:1">
        <path
           class="st0"
           d="m 511.976,213.063 -45.863,-9.749 31.374,-34.845 C 472.114,131.733 417.268,115.015 360.373,127.926 355.071,69.826 322.223,22.83 279.444,10.052 L 256,50.659 232.556,10.053 C 189.777,22.832 156.93,69.828 151.627,127.927 94.733,115.016 39.886,131.734 14.514,168.47 l 31.374,34.844 -45.864,9.749 c -1.066,44.634 33.479,90.396 87.097,113.393 -29.86,50.12 -30.91,107.448 -3.812,142.931 l 42.834,-19.071 -4.901,46.632 c 42.12,14.806 96.318,-3.907 134.758,-47.794 38.44,43.887 92.638,62.6 134.758,47.794 l -4.901,-46.632 42.835,19.072 c 27.097,-35.483 26.048,-92.811 -3.812,-142.932 53.617,-22.996 88.162,-68.759 87.096,-113.393 z m -196.599,83.322 c 3.526,-2.358 7.678,-3.63 11.998,-3.63 3.762,0 7.479,0.998 10.752,2.889 4.986,2.876 8.552,7.525 10.043,13.085 1.49,5.56 0.725,11.369 -2.156,16.353 -3.838,6.65 -10.996,10.781 -18.68,10.781 -3.765,0 -7.484,-1 -10.758,-2.89 -7.126,-4.116 -11.228,-12.025 -10.724,-20.072 l -40.32,-23.278 v 46.552 c 7.222,3.587 12.021,11.096 12.021,19.327 0,11.884 -9.669,21.551 -21.553,21.551 -11.884,0 -21.553,-9.667 -21.553,-21.551 0,-8.231 4.799,-15.74 12.021,-19.327 v -46.552 l -40.319,23.278 c 0.504,8.047 -3.598,15.956 -10.724,20.072 -3.275,1.889 -6.994,2.89 -10.758,2.89 -7.684,0 -14.842,-4.132 -18.682,-10.781 -2.878,-4.984 -3.644,-10.792 -2.154,-16.353 1.49,-5.56 5.057,-10.209 10.043,-13.087 3.272,-1.889 6.989,-2.887 10.752,-2.887 4.321,0 8.473,1.272 11.996,3.63 l 40.312,-23.274 -40.312,-23.272 c -3.523,2.359 -7.675,3.63 -11.996,3.63 -3.762,0 -7.479,-0.998 -10.752,-2.89 -4.986,-2.876 -8.552,-7.525 -10.043,-13.085 -1.49,-5.56 -0.724,-11.369 2.156,-16.353 3.838,-6.65 10.995,-10.781 18.68,-10.781 3.764,0 7.484,1 10.758,2.89 7.126,4.116 11.228,12.025 10.724,20.072 l 40.319,23.278 v -46.552 c -7.222,-3.587 -12.021,-11.096 -12.021,-19.327 0,-11.884 9.669,-21.551 21.553,-21.551 11.884,0 21.553,9.667 21.553,21.551 0,8.231 -4.799,15.74 -12.021,19.327 V 256.6 l 40.32,-23.278 c -0.504,-8.047 3.598,-15.956 10.724,-20.072 3.275,-1.889 6.994,-2.89 10.758,-2.89 7.684,0 14.842,4.132 18.682,10.781 2.878,4.984 3.644,10.792 2.154,16.353 -1.49,5.56 -5.057,10.209 -10.043,13.088 -3.272,1.889 -6.989,2.887 -10.752,2.887 -4.32,0 -8.472,-1.272 -11.998,-3.63 l -40.31,23.272 z"
           id="path4-1-7-1-5-7-4"
           style="fill:#77f5ef;fill-opacity:1" />
      </g>
    </g>
  </g>
</svg>
