<?xml version="1.0" encoding="UTF-8" standalone="no"?>
<!-- Created with Inkscape (http://www.inkscape.org/) -->

<svg
   width="500"
   height="500"
   viewBox="0 0 132.29166 132.29167"
   version="1.1"
   id="svg2515"
   inkscape:version="1.1.2 (b8e25be833, 2022-02-05)"
   sodipodi:docname="bonsai09s02blooming.svg"
   inkscape:export-filename="C:\Users\Lenovo\Desktop\Coding\Media files\Bonsais\bonsai09.png"
   inkscape:export-xdpi="96"
   inkscape:export-ydpi="96"
   xmlns:inkscape="http://www.inkscape.org/namespaces/inkscape"
   xmlns:sodipodi="http://sodipodi.sourceforge.net/DTD/sodipodi-0.dtd"
   xmlns="http://www.w3.org/2000/svg"
   xmlns:svg="http://www.w3.org/2000/svg">
  <sodipodi:namedview
     id="namedview2517"
     pagecolor="#ffffff"
     bordercolor="#666666"
     borderopacity="1.0"
     inkscape:pageshadow="2"
     inkscape:pageopacity="0.0"
     inkscape:pagecheckerboard="0"
     inkscape:document-units="mm"
     showgrid="false"
     units="px"
     inkscape:zoom="1.4142136"
     inkscape:cx="272.58966"
     inkscape:cy="246.42671"
     inkscape:window-width="1920"
     inkscape:window-height="1001"
     inkscape:window-x="-9"
     inkscape:window-y="-9"
     inkscape:window-maximized="1"
     inkscape:current-layer="g17385" />
  <defs
     id="defs2512">
    <marker
       style="overflow:visible"
       id="Arrow1Sstart"
       refX="0.0"
       refY="0.0"
       orient="auto"
       inkscape:stockid="Arrow1Sstart"
       inkscape:isstock="true">
      <path
         transform="scale(0.2) translate(6,0)"
         style="fill-rule:evenodd;fill:context-stroke;stroke:context-stroke;stroke-width:1.0pt"
         d="M 0.0,0.0 L 5.0,-5.0 L -12.5,0.0 L 5.0,5.0 L 0.0,0.0 z "
         id="path24092" />
    </marker>
    <marker
       style="overflow:visible"
       id="Arrow1Mstart"
       refX="0.0"
       refY="0.0"
       orient="auto"
       inkscape:stockid="Arrow1Mstart"
       inkscape:isstock="true">
      <path
         transform="scale(0.4) translate(10,0)"
         style="fill-rule:evenodd;fill:context-stroke;stroke:context-stroke;stroke-width:1.0pt"
         d="M 0.0,0.0 L 5.0,-5.0 L -12.5,0.0 L 5.0,5.0 L 0.0,0.0 z "
         id="path24086" />
    </marker>
    <marker
       style="overflow:visible"
       id="Arrow1Lstart"
       refX="0.0"
       refY="0.0"
       orient="auto"
       inkscape:stockid="Arrow1Lstart"
       inkscape:isstock="true">
      <path
         transform="scale(0.8) translate(12.5,0)"
         style="fill-rule:evenodd;fill:context-stroke;stroke:context-stroke;stroke-width:1.0pt"
         d="M 0.0,0.0 L 5.0,-5.0 L -12.5,0.0 L 5.0,5.0 L 0.0,0.0 z "
         id="path24080" />
    </marker>
    <marker
       style="overflow:visible;"
       id="Arrow1Lend"
       refX="0.0"
       refY="0.0"
       orient="auto"
       inkscape:stockid="Arrow1Lend"
       inkscape:isstock="true">
      <path
         transform="scale(0.8) rotate(180) translate(12.5,0)"
         style="fill-rule:evenodd;fill:context-stroke;stroke:context-stroke;stroke-width:1.0pt;"
         d="M 0.0,0.0 L 5.0,-5.0 L -12.5,0.0 L 5.0,5.0 L 0.0,0.0 z "
         id="path24083" />
    </marker>
  </defs>
  <g
     inkscape:label="Informal Upright Style"
     inkscape:groupmode="layer"
     id="g17385"
     style="display:inline">
    <g
       id="g17299"
       transform="translate(157.36058,-8.4372489)"
       style="display:inline">
      <g
         id="g17297"
         transform="translate(-99.28418,15.207661)">
        <path
           style="display:inline;fill:#bc4b49;fill-opacity:1;stroke:#bc4b49;stroke-width:1;stroke-linecap:round;stroke-linejoin:round;stroke-miterlimit:4;stroke-dasharray:none;stroke-opacity:1"
           d="m 1.3438111,105.02403 c 0,0 1.67276,-4.3889 -5.29634,-12.902323 -5.77031,-7.049 -13.8088901,-10.89145 -10.0810001,-22.220767 2.98845,-9.082106 31.71641,-16.843433 36.92376,-22.50005 9.82115,-10.668487 4.67956,-12.619651 -1.58353,-22.120096 C 16.120271,17.413522 8.0705011,20.957555 7.7574611,9.5870616 14.803541,20.119696 25.572371,18.866153 27.251611,28.55162 c 3.25423,4.596313 8.98302,11.718683 5.98525,14.797826 -2.2954,2.357716 -9.08519,15.422411 -20.03503,17.643247 -9.5903099,1.945097 -16.1629199,12.6144 -16.1629199,12.6144 -0.83876,8.885304 16.1910099,9.784984 21.9744099,18.254694 5.64474,8.266633 8.35928,5.77528 10.95842,12.103913 1.20531,2.9348 -28.6279299,1.05833 -28.6279299,1.05833 z"
           id="path17293"
           sodipodi:nodetypes="cssssccsssssc" />
        <path
           id="path17295"
           style="display:inline;fill:#9d3a3a;fill-opacity:1;stroke:#9d3a3a;stroke-width:3.77953;stroke-linecap:round;stroke-linejoin:round;stroke-miterlimit:4;stroke-dasharray:none;stroke-opacity:1"
           d="m 616.93555,1.8886719 c 0.55432,20.1347921 7.52722,27.8974661 16.79883,33.5175781 -5.45695,-5.012127 -9.35289,-12.21383 -10.31641,-24.990234 -2.22889,-2.6069221 -4.40217,-5.4177306 -6.48242,-8.5273441 z m 41.48828,48.2539061 c 3.39981,2.902953 6.69017,6.465507 9.7207,11.0625 23.67153,35.907194 43.10565,43.281672 5.98633,83.603512 -19.68132,21.37934 -128.25976,50.713 -139.55469,85.03907 -14.08966,42.81948 16.29251,57.34248 38.10156,83.98437 26.33989,32.17671 20.01758,48.76367 20.01758,48.76367 0,0 2.85378,0.16826 6.91797,0.39063 0.26375,-6.79288 -1.99109,-21.72151 -20.65039,-44.51563 -21.80905,-26.64189 -52.19123,-41.16294 -38.10156,-83.98242 11.29493,-34.32607 119.87336,-63.66167 139.55469,-85.04101 37.11932,-40.32185 17.68519,-47.69633 -5.98633,-83.60352 -4.87199,-7.390285 -10.41195,-12.111719 -16.00586,-15.701172 z"
           transform="matrix(0.26458333,0,0,0.26458333,-155.47346,9.0871833)"
           sodipodi:nodetypes="cccccssssccssssc" />
      </g>
    </g>
    <g
       id="g1582-1-7"
       transform="matrix(0.3112777,0,0,-0.38362995,-789.36003,815.06004)"
       style="display:inline">
      <path
         d="m 2651.62,1847.23 v -1.11 c 0,-16.09 5.85,-31.62 16.47,-43.71 h 171.95 c 5.3,6.05 9.42,12.95 12.21,20.35 2.79,7.41 4.25,15.32 4.25,23.36 v 1.11 h -204.88"
         style="fill:#f57486;fill-opacity:1;fill-rule:nonzero;stroke:none;stroke-width:0.1"
         id="path266-6-7" />
      <path
         d="m 2679.53,1802.41 h 149.06 v -14.74 h -149.06 v 14.74"
         style="fill:#e06475;fill-opacity:1;fill-rule:nonzero;stroke:none;stroke-width:0.1"
         id="path270-6-5" />
      <path
         d="m 2665.63,1847.23 h -14.01 v -1.11 c 0,-16.09 5.85,-31.62 16.47,-43.71 h 14 c -10.61,12.09 -16.46,27.62 -16.46,43.71 v 1.11"
         style="fill:#d35263;fill-opacity:1;fill-rule:nonzero;stroke:none;stroke-width:0.1"
         id="path280-2-8" />
      <path
         d="m 2679.53,1802.41 h 14 v -14.74 h -14 v 14.74"
         style="fill:#c24d5a;fill-opacity:1;fill-rule:nonzero;stroke:none;stroke-width:0.1"
         id="path282-6-2" />
    </g>
    <g
       id="g2469-0-1"
       style="display:inline"
       transform="translate(31.989175,12.937672)">
      <g
         id="g16088-3-9"
         transform="matrix(1.0970525,0,0,1.0970525,-112.63298,-9.184748)"
         style="display:inline">
        <g
           id="g16024-2-2">
          <path
             fill="#000000"
             d="m 151.83738,51.583012 -4.45472,1.194835 1.55252,2.873166 -2.59636,0.696885 -0.10873,-3.261455 -4.38999,1.17771 -1.18551,4.42577 3.264,0.09266 -0.69816,2.604332 -2.87719,-1.535351 -1.18289,4.411314 3.21496,3.214954 1.72072,-2.779061 1.91813,1.918128 -2.77915,1.722035 3.24408,3.244075 4.39927,-1.178939 -1.54722,-2.883763 2.60823,-0.698157 0.10076,3.270653 4.43764,-1.189621 1.18564,-4.427042 -3.2707,-0.100717 0.6968,-2.601661 2.88377,1.54722 1.18301,-4.417843 -3.264,-3.26527 -1.71551,2.785759 -1.89159,-1.892991 2.77253,-1.727376 z m -2.67436,4.490625 0.48876,0.904764 -0.96962,2.955402 -2.29303,-2.081117 -0.0345,-1.025404 2.80831,-0.753687 z m 2.71557,0.710026 2.04657,2.047968 -0.55107,0.89548 -3.04399,0.638472 0.65563,-3.025557 z m -7.47914,2.012234 1.00676,0.02908 2.07446,2.316845 -2.94875,0.944525 -0.8876,-0.474255 0.75509,-2.816237 z m 9.37209,2.270386 0.89548,0.48091 -0.75369,2.813608 -1.01608,-0.03179 -2.05589,-2.286409 2.93022,-0.976232 z m -5.90275,1.759168 -0.61995,3.025599 -0.82787,0.512659 -2.07179,-2.073105 0.51266,-0.826597 3.00695,-0.638514 z m 1.71415,0.468998 2.31023,2.049282 0.0305,0.997427 -2.82031,0.756399 -0.47154,-0.879583 0.95114,-2.923525 z"
             id="path2-3-53-2"
             style="fill:#cc9900;fill-opacity:1;stroke-width:0.0423895" />
          <path
             id="path2-3-5-3-1"
             style="display:inline;fill:#b38a10;fill-opacity:1;stroke-width:0.0423894"
             d="m 151.83733,51.583044 -4.45451,1.194761 0.20102,0.371551 0.23358,-0.06253 0.0176,0.528135 1.10019,2.036051 -1.02268,0.274402 0.014,0.422714 2.59622,-0.697116 -1.55236,-2.873208 3.20291,-0.858864 z m -5.60741,1.503783 -4.38991,1.177708 -1.18546,4.425569 3.26388,0.0925 -0.49971,1.863453 0.42427,0.22634 0.55655,-2.076357 1.00666,0.02894 0.0682,0.07597 0.0315,-0.118338 -3.26388,-0.0925 1.18546,-4.425569 2.81636,-0.755509 z m 9.66246,2.551266 -1.11001,1.802993 0.98185,0.982885 1.11053,-1.80299 z m -5.14181,0.435634 -1.38647,0.372071 0.28783,0.532783 -0.60564,1.845366 1.22318,1.110009 0.45372,-1.382345 0.26251,-1.211294 0.1695,-0.105939 0.0842,-0.255797 z m 2.14354,1.066602 -0.32091,0.199988 -0.0248,0.113686 1.37666,1.377693 -0.55087,0.895554 -1.38131,0.289904 -0.0755,0.348816 3.04426,-0.63872 0.55087,-0.895554 -0.98186,-0.982369 -0.35398,0.574644 z m -6.90707,1.655712 -0.14004,0.521414 1.63349,1.824697 -1.95595,0.626316 0.59479,0.317812 2.94866,-0.944128 -2.07429,-2.317174 z m -5.64358,1.055748 -1.18287,4.411102 3.21479,3.215306 0.60719,-0.980302 -2.23448,-2.235004 0.98391,-3.670062 z m 15.01562,1.214398 v 5.16e-4 l -0.97927,0.326078 0.28732,0.154514 -0.61598,2.299599 0.37207,0.41393 0.66611,-2.487186 0.96583,0.518313 0.19947,-0.744656 z m 1.31775,0.707451 -0.19947,0.744656 1.49603,0.803051 0.19947,-0.744657 z m -7.22075,1.052131 -1.65985,0.352433 -0.50539,2.467549 0.71778,0.718302 0.72089,-0.446484 0.25166,-0.773079 z m 1.71462,0.468705 -0.35553,1.092956 1.07797,0.956532 0.0305,0.997355 -1.43195,0.384472 0.19947,0.37207 2.81998,-0.756542 -0.0305,-0.997355 z m -5.8415,1.977141 -0.2527,0.407725 0.93793,0.93793 -2.77916,1.721858 3.24373,3.244246 1.25212,-0.33538 -2.90835,-2.908866 2.77916,-1.721858 -0.60771,-0.607716 -0.5731,0.354499 z m 8.19795,1.55081 -1.57458,0.421161 0.0724,2.338358 0.24132,0.45062 1.34876,-0.361735 z" />
        </g>
        <g
           id="g16024-7-4-1"
           style="display:inline"
           transform="translate(13.639481,-4.5465347)">
          <path
             fill="#000000"
             d="m 151.83738,51.583012 -4.45472,1.194835 1.55252,2.873166 -2.59636,0.696885 -0.10873,-3.261455 -4.38999,1.17771 -1.18551,4.42577 3.264,0.09266 -0.69816,2.604332 -2.87719,-1.535351 -1.18289,4.411314 3.21496,3.214954 1.72072,-2.779061 1.91813,1.918128 -2.77915,1.722035 3.24408,3.244075 4.39927,-1.178939 -1.54722,-2.883763 2.60823,-0.698157 0.10076,3.270653 4.43764,-1.189621 1.18564,-4.427042 -3.2707,-0.100717 0.6968,-2.601661 2.88377,1.54722 1.18301,-4.417843 -3.264,-3.26527 -1.71551,2.785759 -1.89159,-1.892991 2.77253,-1.727376 z m -2.67436,4.490625 0.48876,0.904764 -0.96962,2.955402 -2.29303,-2.081117 -0.0345,-1.025404 2.80831,-0.753687 z m 2.71557,0.710026 2.04657,2.047968 -0.55107,0.89548 -3.04399,0.638472 0.65563,-3.025557 z m -7.47914,2.012234 1.00676,0.02908 2.07446,2.316845 -2.94875,0.944525 -0.8876,-0.474255 0.75509,-2.816237 z m 9.37209,2.270386 0.89548,0.48091 -0.75369,2.813608 -1.01608,-0.03179 -2.05589,-2.286409 2.93022,-0.976232 z m -5.90275,1.759168 -0.61995,3.025599 -0.82787,0.512659 -2.07179,-2.073105 0.51266,-0.826597 3.00695,-0.638514 z m 1.71415,0.468998 2.31023,2.049282 0.0305,0.997427 -2.82031,0.756399 -0.47154,-0.879583 0.95114,-2.923525 z"
             id="path2-3-9-9-0"
             style="fill:#cc9900;fill-opacity:1;stroke-width:0.0423895" />
          <path
             id="path2-3-5-1-2-2"
             style="display:inline;fill:#b38a10;fill-opacity:1;stroke-width:0.0423894"
             d="m 151.83733,51.583044 -4.45451,1.194761 0.20102,0.371551 0.23358,-0.06253 0.0176,0.528135 1.10019,2.036051 -1.02268,0.274402 0.014,0.422714 2.59622,-0.697116 -1.55236,-2.873208 3.20291,-0.858864 z m -5.60741,1.503783 -4.38991,1.177708 -1.18546,4.425569 3.26388,0.0925 -0.49971,1.863453 0.42427,0.22634 0.55655,-2.076357 1.00666,0.02894 0.0682,0.07597 0.0315,-0.118338 -3.26388,-0.0925 1.18546,-4.425569 2.81636,-0.755509 z m 9.66246,2.551266 -1.11001,1.802993 0.98185,0.982885 1.11053,-1.80299 z m -5.14181,0.435634 -1.38647,0.372071 0.28783,0.532783 -0.60564,1.845366 1.22318,1.110009 0.45372,-1.382345 0.26251,-1.211294 0.1695,-0.105939 0.0842,-0.255797 z m 2.14354,1.066602 -0.32091,0.199988 -0.0248,0.113686 1.37666,1.377693 -0.55087,0.895554 -1.38131,0.289904 -0.0755,0.348816 3.04426,-0.63872 0.55087,-0.895554 -0.98186,-0.982369 -0.35398,0.574644 z m -6.90707,1.655712 -0.14004,0.521414 1.63349,1.824697 -1.95595,0.626316 0.59479,0.317812 2.94866,-0.944128 -2.07429,-2.317174 z m -5.64358,1.055748 -1.18287,4.411102 3.21479,3.215306 0.60719,-0.980302 -2.23448,-2.235004 0.98391,-3.670062 z m 15.01562,1.214398 v 5.16e-4 l -0.97927,0.326078 0.28732,0.154514 -0.61598,2.299599 0.37207,0.41393 0.66611,-2.487186 0.96583,0.518313 0.19947,-0.744656 z m 1.31775,0.707451 -0.19947,0.744656 1.49603,0.803051 0.19947,-0.744657 z m -7.22075,1.052131 -1.65985,0.352433 -0.50539,2.467549 0.71778,0.718302 0.72089,-0.446484 0.25166,-0.773079 z m 1.71462,0.468705 -0.35553,1.092956 1.07797,0.956532 0.0305,0.997355 -1.43195,0.384472 0.19947,0.37207 2.81998,-0.756542 -0.0305,-0.997355 z m -5.8415,1.977141 -0.2527,0.407725 0.93793,0.93793 -2.77916,1.721858 3.24373,3.244246 1.25212,-0.33538 -2.90835,-2.908866 2.77916,-1.721858 -0.60771,-0.607716 -0.5731,0.354499 z m 8.19795,1.55081 -1.57458,0.421161 0.0724,2.338358 0.24132,0.45062 1.34876,-0.361735 z" />
        </g>
        <g
           id="g16024-0-49-0"
           style="display:inline"
           transform="translate(28.315329,-1.2e-5)">
          <path
             fill="#000000"
             d="m 151.83738,51.583012 -4.45472,1.194835 1.55252,2.873166 -2.59636,0.696885 -0.10873,-3.261455 -4.38999,1.17771 -1.18551,4.42577 3.264,0.09266 -0.69816,2.604332 -2.87719,-1.535351 -1.18289,4.411314 3.21496,3.214954 1.72072,-2.779061 1.91813,1.918128 -2.77915,1.722035 3.24408,3.244075 4.39927,-1.178939 -1.54722,-2.883763 2.60823,-0.698157 0.10076,3.270653 4.43764,-1.189621 1.18564,-4.427042 -3.2707,-0.100717 0.6968,-2.601661 2.88377,1.54722 1.18301,-4.417843 -3.264,-3.26527 -1.71551,2.785759 -1.89159,-1.892991 2.77253,-1.727376 z m -2.67436,4.490625 0.48876,0.904764 -0.96962,2.955402 -2.29303,-2.081117 -0.0345,-1.025404 2.80831,-0.753687 z m 2.71557,0.710026 2.04657,2.047968 -0.55107,0.89548 -3.04399,0.638472 0.65563,-3.025557 z m -7.47914,2.012234 1.00676,0.02908 2.07446,2.316845 -2.94875,0.944525 -0.8876,-0.474255 0.75509,-2.816237 z m 9.37209,2.270386 0.89548,0.48091 -0.75369,2.813608 -1.01608,-0.03179 -2.05589,-2.286409 2.93022,-0.976232 z m -5.90275,1.759168 -0.61995,3.025599 -0.82787,0.512659 -2.07179,-2.073105 0.51266,-0.826597 3.00695,-0.638514 z m 1.71415,0.468998 2.31023,2.049282 0.0305,0.997427 -2.82031,0.756399 -0.47154,-0.879583 0.95114,-2.923525 z"
             id="path2-3-1-3-7"
             style="fill:#cc9900;fill-opacity:1;stroke-width:0.0423895" />
          <path
             id="path2-3-5-8-9-6"
             style="display:inline;fill:#b38a10;fill-opacity:1;stroke-width:0.0423894"
             d="m 151.83733,51.583044 -4.45451,1.194761 0.20102,0.371551 0.23358,-0.06253 0.0176,0.528135 1.10019,2.036051 -1.02268,0.274402 0.014,0.422714 2.59622,-0.697116 -1.55236,-2.873208 3.20291,-0.858864 z m -5.60741,1.503783 -4.38991,1.177708 -1.18546,4.425569 3.26388,0.0925 -0.49971,1.863453 0.42427,0.22634 0.55655,-2.076357 1.00666,0.02894 0.0682,0.07597 0.0315,-0.118338 -3.26388,-0.0925 1.18546,-4.425569 2.81636,-0.755509 z m 9.66246,2.551266 -1.11001,1.802993 0.98185,0.982885 1.11053,-1.80299 z m -5.14181,0.435634 -1.38647,0.372071 0.28783,0.532783 -0.60564,1.845366 1.22318,1.110009 0.45372,-1.382345 0.26251,-1.211294 0.1695,-0.105939 0.0842,-0.255797 z m 2.14354,1.066602 -0.32091,0.199988 -0.0248,0.113686 1.37666,1.377693 -0.55087,0.895554 -1.38131,0.289904 -0.0755,0.348816 3.04426,-0.63872 0.55087,-0.895554 -0.98186,-0.982369 -0.35398,0.574644 z m -6.90707,1.655712 -0.14004,0.521414 1.63349,1.824697 -1.95595,0.626316 0.59479,0.317812 2.94866,-0.944128 -2.07429,-2.317174 z m -5.64358,1.055748 -1.18287,4.411102 3.21479,3.215306 0.60719,-0.980302 -2.23448,-2.235004 0.98391,-3.670062 z m 15.01562,1.214398 v 5.16e-4 l -0.97927,0.326078 0.28732,0.154514 -0.61598,2.299599 0.37207,0.41393 0.66611,-2.487186 0.96583,0.518313 0.19947,-0.744656 z m 1.31775,0.707451 -0.19947,0.744656 1.49603,0.803051 0.19947,-0.744657 z m -7.22075,1.052131 -1.65985,0.352433 -0.50539,2.467549 0.71778,0.718302 0.72089,-0.446484 0.25166,-0.773079 z m 1.71462,0.468705 -0.35553,1.092956 1.07797,0.956532 0.0305,0.997355 -1.43195,0.384472 0.19947,0.37207 2.81998,-0.756542 -0.0305,-0.997355 z m -5.8415,1.977141 -0.2527,0.407725 0.93793,0.93793 -2.77916,1.721858 3.24373,3.244246 1.25212,-0.33538 -2.90835,-2.908866 2.77916,-1.721858 -0.60771,-0.607716 -0.5731,0.354499 z m 8.19795,1.55081 -1.57458,0.421161 0.0724,2.338358 0.24132,0.45062 1.34876,-0.361735 z" />
        </g>
      </g>
      <g
         id="g6-75-7"
         transform="matrix(0.0234375,0,0,0.0234375,80.572134,45.280115)"
         style="display:inline;fill:#2b95f5;fill-opacity:1">
        <path
           class="st0"
           d="m 511.976,213.063 -45.863,-9.749 31.374,-34.845 C 472.114,131.733 417.268,115.015 360.373,127.926 355.071,69.826 322.223,22.83 279.444,10.052 L 256,50.659 232.556,10.053 C 189.777,22.832 156.93,69.828 151.627,127.927 94.733,115.016 39.886,131.734 14.514,168.47 l 31.374,34.844 -45.864,9.749 c -1.066,44.634 33.479,90.396 87.097,113.393 -29.86,50.12 -30.91,107.448 -3.812,142.931 l 42.834,-19.071 -4.901,46.632 c 42.12,14.806 96.318,-3.907 134.758,-47.794 38.44,43.887 92.638,62.6 134.758,47.794 l -4.901,-46.632 42.835,19.072 c 27.097,-35.483 26.048,-92.811 -3.812,-142.932 53.617,-22.996 88.162,-68.759 87.096,-113.393 z m -196.599,83.322 c 3.526,-2.358 7.678,-3.63 11.998,-3.63 3.762,0 7.479,0.998 10.752,2.889 4.986,2.876 8.552,7.525 10.043,13.085 1.49,5.56 0.725,11.369 -2.156,16.353 -3.838,6.65 -10.996,10.781 -18.68,10.781 -3.765,0 -7.484,-1 -10.758,-2.89 -7.126,-4.116 -11.228,-12.025 -10.724,-20.072 l -40.32,-23.278 v 46.552 c 7.222,3.587 12.021,11.096 12.021,19.327 0,11.884 -9.669,21.551 -21.553,21.551 -11.884,0 -21.553,-9.667 -21.553,-21.551 0,-8.231 4.799,-15.74 12.021,-19.327 v -46.552 l -40.319,23.278 c 0.504,8.047 -3.598,15.956 -10.724,20.072 -3.275,1.889 -6.994,2.89 -10.758,2.89 -7.684,0 -14.842,-4.132 -18.682,-10.781 -2.878,-4.984 -3.644,-10.792 -2.154,-16.353 1.49,-5.56 5.057,-10.209 10.043,-13.087 3.272,-1.889 6.989,-2.887 10.752,-2.887 4.321,0 8.473,1.272 11.996,3.63 l 40.312,-23.274 -40.312,-23.272 c -3.523,2.359 -7.675,3.63 -11.996,3.63 -3.762,0 -7.479,-0.998 -10.752,-2.89 -4.986,-2.876 -8.552,-7.525 -10.043,-13.085 -1.49,-5.56 -0.724,-11.369 2.156,-16.353 3.838,-6.65 10.995,-10.781 18.68,-10.781 3.764,0 7.484,1 10.758,2.89 7.126,4.116 11.228,12.025 10.724,20.072 l 40.319,23.278 v -46.552 c -7.222,-3.587 -12.021,-11.096 -12.021,-19.327 0,-11.884 9.669,-21.551 21.553,-21.551 11.884,0 21.553,9.667 21.553,21.551 0,8.231 -4.799,15.74 -12.021,19.327 V 256.6 l 40.32,-23.278 c -0.504,-8.047 3.598,-15.956 10.724,-20.072 3.275,-1.889 6.994,-2.89 10.758,-2.89 7.684,0 14.842,4.132 18.682,10.781 2.878,4.984 3.644,10.792 2.154,16.353 -1.49,5.56 -5.057,10.209 -10.043,13.088 -3.272,1.889 -6.989,2.887 -10.752,2.887 -4.32,0 -8.472,-1.272 -11.998,-3.63 l -40.31,23.272 z"
           id="path4-1-5-9"
           style="fill:#2b95f5;fill-opacity:1" />
      </g>
      <g
         id="g6-2-7-0"
         transform="matrix(0.0234375,0,0,0.0234375,63.394148,39.213816)"
         style="display:inline;fill:#2b95f5;fill-opacity:1">
        <path
           class="st0"
           d="m 511.976,213.063 -45.863,-9.749 31.374,-34.845 C 472.114,131.733 417.268,115.015 360.373,127.926 355.071,69.826 322.223,22.83 279.444,10.052 L 256,50.659 232.556,10.053 C 189.777,22.832 156.93,69.828 151.627,127.927 94.733,115.016 39.886,131.734 14.514,168.47 l 31.374,34.844 -45.864,9.749 c -1.066,44.634 33.479,90.396 87.097,113.393 -29.86,50.12 -30.91,107.448 -3.812,142.931 l 42.834,-19.071 -4.901,46.632 c 42.12,14.806 96.318,-3.907 134.758,-47.794 38.44,43.887 92.638,62.6 134.758,47.794 l -4.901,-46.632 42.835,19.072 c 27.097,-35.483 26.048,-92.811 -3.812,-142.932 53.617,-22.996 88.162,-68.759 87.096,-113.393 z m -196.599,83.322 c 3.526,-2.358 7.678,-3.63 11.998,-3.63 3.762,0 7.479,0.998 10.752,2.889 4.986,2.876 8.552,7.525 10.043,13.085 1.49,5.56 0.725,11.369 -2.156,16.353 -3.838,6.65 -10.996,10.781 -18.68,10.781 -3.765,0 -7.484,-1 -10.758,-2.89 -7.126,-4.116 -11.228,-12.025 -10.724,-20.072 l -40.32,-23.278 v 46.552 c 7.222,3.587 12.021,11.096 12.021,19.327 0,11.884 -9.669,21.551 -21.553,21.551 -11.884,0 -21.553,-9.667 -21.553,-21.551 0,-8.231 4.799,-15.74 12.021,-19.327 v -46.552 l -40.319,23.278 c 0.504,8.047 -3.598,15.956 -10.724,20.072 -3.275,1.889 -6.994,2.89 -10.758,2.89 -7.684,0 -14.842,-4.132 -18.682,-10.781 -2.878,-4.984 -3.644,-10.792 -2.154,-16.353 1.49,-5.56 5.057,-10.209 10.043,-13.087 3.272,-1.889 6.989,-2.887 10.752,-2.887 4.321,0 8.473,1.272 11.996,3.63 l 40.312,-23.274 -40.312,-23.272 c -3.523,2.359 -7.675,3.63 -11.996,3.63 -3.762,0 -7.479,-0.998 -10.752,-2.89 -4.986,-2.876 -8.552,-7.525 -10.043,-13.085 -1.49,-5.56 -0.724,-11.369 2.156,-16.353 3.838,-6.65 10.995,-10.781 18.68,-10.781 3.764,0 7.484,1 10.758,2.89 7.126,4.116 11.228,12.025 10.724,20.072 l 40.319,23.278 v -46.552 c -7.222,-3.587 -12.021,-11.096 -12.021,-19.327 0,-11.884 9.669,-21.551 21.553,-21.551 11.884,0 21.553,9.667 21.553,21.551 0,8.231 -4.799,15.74 -12.021,19.327 V 256.6 l 40.32,-23.278 c -0.504,-8.047 3.598,-15.956 10.724,-20.072 3.275,-1.889 6.994,-2.89 10.758,-2.89 7.684,0 14.842,4.132 18.682,10.781 2.878,4.984 3.644,10.792 2.154,16.353 -1.49,5.56 -5.057,10.209 -10.043,13.088 -3.272,1.889 -6.989,2.887 -10.752,2.887 -4.32,0 -8.472,-1.272 -11.998,-3.63 l -40.31,23.272 z"
           id="path4-1-1-3-2"
           style="fill:#2b95f5;fill-opacity:1" />
      </g>
      <g
         id="g6-2-3-40-2"
         transform="matrix(0.0234375,0,0,0.0234375,48.430921,44.201603)"
         style="display:inline;fill:#2b95f5;fill-opacity:1">
        <path
           class="st0"
           d="m 511.976,213.063 -45.863,-9.749 31.374,-34.845 C 472.114,131.733 417.268,115.015 360.373,127.926 355.071,69.826 322.223,22.83 279.444,10.052 L 256,50.659 232.556,10.053 C 189.777,22.832 156.93,69.828 151.627,127.927 94.733,115.016 39.886,131.734 14.514,168.47 l 31.374,34.844 -45.864,9.749 c -1.066,44.634 33.479,90.396 87.097,113.393 -29.86,50.12 -30.91,107.448 -3.812,142.931 l 42.834,-19.071 -4.901,46.632 c 42.12,14.806 96.318,-3.907 134.758,-47.794 38.44,43.887 92.638,62.6 134.758,47.794 l -4.901,-46.632 42.835,19.072 c 27.097,-35.483 26.048,-92.811 -3.812,-142.932 53.617,-22.996 88.162,-68.759 87.096,-113.393 z m -196.599,83.322 c 3.526,-2.358 7.678,-3.63 11.998,-3.63 3.762,0 7.479,0.998 10.752,2.889 4.986,2.876 8.552,7.525 10.043,13.085 1.49,5.56 0.725,11.369 -2.156,16.353 -3.838,6.65 -10.996,10.781 -18.68,10.781 -3.765,0 -7.484,-1 -10.758,-2.89 -7.126,-4.116 -11.228,-12.025 -10.724,-20.072 l -40.32,-23.278 v 46.552 c 7.222,3.587 12.021,11.096 12.021,19.327 0,11.884 -9.669,21.551 -21.553,21.551 -11.884,0 -21.553,-9.667 -21.553,-21.551 0,-8.231 4.799,-15.74 12.021,-19.327 v -46.552 l -40.319,23.278 c 0.504,8.047 -3.598,15.956 -10.724,20.072 -3.275,1.889 -6.994,2.89 -10.758,2.89 -7.684,0 -14.842,-4.132 -18.682,-10.781 -2.878,-4.984 -3.644,-10.792 -2.154,-16.353 1.49,-5.56 5.057,-10.209 10.043,-13.087 3.272,-1.889 6.989,-2.887 10.752,-2.887 4.321,0 8.473,1.272 11.996,3.63 l 40.312,-23.274 -40.312,-23.272 c -3.523,2.359 -7.675,3.63 -11.996,3.63 -3.762,0 -7.479,-0.998 -10.752,-2.89 -4.986,-2.876 -8.552,-7.525 -10.043,-13.085 -1.49,-5.56 -0.724,-11.369 2.156,-16.353 3.838,-6.65 10.995,-10.781 18.68,-10.781 3.764,0 7.484,1 10.758,2.89 7.126,4.116 11.228,12.025 10.724,20.072 l 40.319,23.278 v -46.552 c -7.222,-3.587 -12.021,-11.096 -12.021,-19.327 0,-11.884 9.669,-21.551 21.553,-21.551 11.884,0 21.553,9.667 21.553,21.551 0,8.231 -4.799,15.74 -12.021,19.327 V 256.6 l 40.32,-23.278 c -0.504,-8.047 3.598,-15.956 10.724,-20.072 3.275,-1.889 6.994,-2.89 10.758,-2.89 7.684,0 14.842,4.132 18.682,10.781 2.878,4.984 3.644,10.792 2.154,16.353 -1.49,5.56 -5.057,10.209 -10.043,13.088 -3.272,1.889 -6.989,2.887 -10.752,2.887 -4.32,0 -8.472,-1.272 -11.998,-3.63 l -40.31,23.272 z"
           id="path4-1-1-7-7-8"
           style="fill:#2b95f5;fill-opacity:1" />
      </g>
    </g>
    <g
       id="g2469-0-1-8"
       style="display:inline"
       transform="translate(-32.27773,20.597748)">
      <g
         id="g16088-3-9-9"
         transform="matrix(1.0970525,0,0,1.0970525,-112.63298,-9.184748)"
         style="display:inline">
        <g
           id="g16024-2-2-6">
          <path
             fill="#000000"
             d="m 151.83738,51.583012 -4.45472,1.194835 1.55252,2.873166 -2.59636,0.696885 -0.10873,-3.261455 -4.38999,1.17771 -1.18551,4.42577 3.264,0.09266 -0.69816,2.604332 -2.87719,-1.535351 -1.18289,4.411314 3.21496,3.214954 1.72072,-2.779061 1.91813,1.918128 -2.77915,1.722035 3.24408,3.244075 4.39927,-1.178939 -1.54722,-2.883763 2.60823,-0.698157 0.10076,3.270653 4.43764,-1.189621 1.18564,-4.427042 -3.2707,-0.100717 0.6968,-2.601661 2.88377,1.54722 1.18301,-4.417843 -3.264,-3.26527 -1.71551,2.785759 -1.89159,-1.892991 2.77253,-1.727376 z m -2.67436,4.490625 0.48876,0.904764 -0.96962,2.955402 -2.29303,-2.081117 -0.0345,-1.025404 2.80831,-0.753687 z m 2.71557,0.710026 2.04657,2.047968 -0.55107,0.89548 -3.04399,0.638472 0.65563,-3.025557 z m -7.47914,2.012234 1.00676,0.02908 2.07446,2.316845 -2.94875,0.944525 -0.8876,-0.474255 0.75509,-2.816237 z m 9.37209,2.270386 0.89548,0.48091 -0.75369,2.813608 -1.01608,-0.03179 -2.05589,-2.286409 2.93022,-0.976232 z m -5.90275,1.759168 -0.61995,3.025599 -0.82787,0.512659 -2.07179,-2.073105 0.51266,-0.826597 3.00695,-0.638514 z m 1.71415,0.468998 2.31023,2.049282 0.0305,0.997427 -2.82031,0.756399 -0.47154,-0.879583 0.95114,-2.923525 z"
             id="path2-3-53-2-1"
             style="fill:#cc9900;fill-opacity:1;stroke-width:0.0423895" />
          <path
             id="path2-3-5-3-1-9"
             style="display:inline;fill:#b38a10;fill-opacity:1;stroke-width:0.0423894"
             d="m 151.83733,51.583044 -4.45451,1.194761 0.20102,0.371551 0.23358,-0.06253 0.0176,0.528135 1.10019,2.036051 -1.02268,0.274402 0.014,0.422714 2.59622,-0.697116 -1.55236,-2.873208 3.20291,-0.858864 z m -5.60741,1.503783 -4.38991,1.177708 -1.18546,4.425569 3.26388,0.0925 -0.49971,1.863453 0.42427,0.22634 0.55655,-2.076357 1.00666,0.02894 0.0682,0.07597 0.0315,-0.118338 -3.26388,-0.0925 1.18546,-4.425569 2.81636,-0.755509 z m 9.66246,2.551266 -1.11001,1.802993 0.98185,0.982885 1.11053,-1.80299 z m -5.14181,0.435634 -1.38647,0.372071 0.28783,0.532783 -0.60564,1.845366 1.22318,1.110009 0.45372,-1.382345 0.26251,-1.211294 0.1695,-0.105939 0.0842,-0.255797 z m 2.14354,1.066602 -0.32091,0.199988 -0.0248,0.113686 1.37666,1.377693 -0.55087,0.895554 -1.38131,0.289904 -0.0755,0.348816 3.04426,-0.63872 0.55087,-0.895554 -0.98186,-0.982369 -0.35398,0.574644 z m -6.90707,1.655712 -0.14004,0.521414 1.63349,1.824697 -1.95595,0.626316 0.59479,0.317812 2.94866,-0.944128 -2.07429,-2.317174 z m -5.64358,1.055748 -1.18287,4.411102 3.21479,3.215306 0.60719,-0.980302 -2.23448,-2.235004 0.98391,-3.670062 z m 15.01562,1.214398 v 5.16e-4 l -0.97927,0.326078 0.28732,0.154514 -0.61598,2.299599 0.37207,0.41393 0.66611,-2.487186 0.96583,0.518313 0.19947,-0.744656 z m 1.31775,0.707451 -0.19947,0.744656 1.49603,0.803051 0.19947,-0.744657 z m -7.22075,1.052131 -1.65985,0.352433 -0.50539,2.467549 0.71778,0.718302 0.72089,-0.446484 0.25166,-0.773079 z m 1.71462,0.468705 -0.35553,1.092956 1.07797,0.956532 0.0305,0.997355 -1.43195,0.384472 0.19947,0.37207 2.81998,-0.756542 -0.0305,-0.997355 z m -5.8415,1.977141 -0.2527,0.407725 0.93793,0.93793 -2.77916,1.721858 3.24373,3.244246 1.25212,-0.33538 -2.90835,-2.908866 2.77916,-1.721858 -0.60771,-0.607716 -0.5731,0.354499 z m 8.19795,1.55081 -1.57458,0.421161 0.0724,2.338358 0.24132,0.45062 1.34876,-0.361735 z" />
        </g>
        <g
           id="g16024-7-4-1-6"
           style="display:inline"
           transform="translate(13.639481,-4.5465347)">
          <path
             fill="#000000"
             d="m 151.83738,51.583012 -4.45472,1.194835 1.55252,2.873166 -2.59636,0.696885 -0.10873,-3.261455 -4.38999,1.17771 -1.18551,4.42577 3.264,0.09266 -0.69816,2.604332 -2.87719,-1.535351 -1.18289,4.411314 3.21496,3.214954 1.72072,-2.779061 1.91813,1.918128 -2.77915,1.722035 3.24408,3.244075 4.39927,-1.178939 -1.54722,-2.883763 2.60823,-0.698157 0.10076,3.270653 4.43764,-1.189621 1.18564,-4.427042 -3.2707,-0.100717 0.6968,-2.601661 2.88377,1.54722 1.18301,-4.417843 -3.264,-3.26527 -1.71551,2.785759 -1.89159,-1.892991 2.77253,-1.727376 z m -2.67436,4.490625 0.48876,0.904764 -0.96962,2.955402 -2.29303,-2.081117 -0.0345,-1.025404 2.80831,-0.753687 z m 2.71557,0.710026 2.04657,2.047968 -0.55107,0.89548 -3.04399,0.638472 0.65563,-3.025557 z m -7.47914,2.012234 1.00676,0.02908 2.07446,2.316845 -2.94875,0.944525 -0.8876,-0.474255 0.75509,-2.816237 z m 9.37209,2.270386 0.89548,0.48091 -0.75369,2.813608 -1.01608,-0.03179 -2.05589,-2.286409 2.93022,-0.976232 z m -5.90275,1.759168 -0.61995,3.025599 -0.82787,0.512659 -2.07179,-2.073105 0.51266,-0.826597 3.00695,-0.638514 z m 1.71415,0.468998 2.31023,2.049282 0.0305,0.997427 -2.82031,0.756399 -0.47154,-0.879583 0.95114,-2.923525 z"
             id="path2-3-9-9-0-7"
             style="fill:#cc9900;fill-opacity:1;stroke-width:0.0423895" />
          <path
             id="path2-3-5-1-2-2-6"
             style="display:inline;fill:#b38a10;fill-opacity:1;stroke-width:0.0423894"
             d="m 151.83733,51.583044 -4.45451,1.194761 0.20102,0.371551 0.23358,-0.06253 0.0176,0.528135 1.10019,2.036051 -1.02268,0.274402 0.014,0.422714 2.59622,-0.697116 -1.55236,-2.873208 3.20291,-0.858864 z m -5.60741,1.503783 -4.38991,1.177708 -1.18546,4.425569 3.26388,0.0925 -0.49971,1.863453 0.42427,0.22634 0.55655,-2.076357 1.00666,0.02894 0.0682,0.07597 0.0315,-0.118338 -3.26388,-0.0925 1.18546,-4.425569 2.81636,-0.755509 z m 9.66246,2.551266 -1.11001,1.802993 0.98185,0.982885 1.11053,-1.80299 z m -5.14181,0.435634 -1.38647,0.372071 0.28783,0.532783 -0.60564,1.845366 1.22318,1.110009 0.45372,-1.382345 0.26251,-1.211294 0.1695,-0.105939 0.0842,-0.255797 z m 2.14354,1.066602 -0.32091,0.199988 -0.0248,0.113686 1.37666,1.377693 -0.55087,0.895554 -1.38131,0.289904 -0.0755,0.348816 3.04426,-0.63872 0.55087,-0.895554 -0.98186,-0.982369 -0.35398,0.574644 z m -6.90707,1.655712 -0.14004,0.521414 1.63349,1.824697 -1.95595,0.626316 0.59479,0.317812 2.94866,-0.944128 -2.07429,-2.317174 z m -5.64358,1.055748 -1.18287,4.411102 3.21479,3.215306 0.60719,-0.980302 -2.23448,-2.235004 0.98391,-3.670062 z m 15.01562,1.214398 v 5.16e-4 l -0.97927,0.326078 0.28732,0.154514 -0.61598,2.299599 0.37207,0.41393 0.66611,-2.487186 0.96583,0.518313 0.19947,-0.744656 z m 1.31775,0.707451 -0.19947,0.744656 1.49603,0.803051 0.19947,-0.744657 z m -7.22075,1.052131 -1.65985,0.352433 -0.50539,2.467549 0.71778,0.718302 0.72089,-0.446484 0.25166,-0.773079 z m 1.71462,0.468705 -0.35553,1.092956 1.07797,0.956532 0.0305,0.997355 -1.43195,0.384472 0.19947,0.37207 2.81998,-0.756542 -0.0305,-0.997355 z m -5.8415,1.977141 -0.2527,0.407725 0.93793,0.93793 -2.77916,1.721858 3.24373,3.244246 1.25212,-0.33538 -2.90835,-2.908866 2.77916,-1.721858 -0.60771,-0.607716 -0.5731,0.354499 z m 8.19795,1.55081 -1.57458,0.421161 0.0724,2.338358 0.24132,0.45062 1.34876,-0.361735 z" />
        </g>
        <g
           id="g16024-0-49-0-1"
           style="display:inline"
           transform="translate(28.315329,-1.2e-5)">
          <path
             fill="#000000"
             d="m 151.83738,51.583012 -4.45472,1.194835 1.55252,2.873166 -2.59636,0.696885 -0.10873,-3.261455 -4.38999,1.17771 -1.18551,4.42577 3.264,0.09266 -0.69816,2.604332 -2.87719,-1.535351 -1.18289,4.411314 3.21496,3.214954 1.72072,-2.779061 1.91813,1.918128 -2.77915,1.722035 3.24408,3.244075 4.39927,-1.178939 -1.54722,-2.883763 2.60823,-0.698157 0.10076,3.270653 4.43764,-1.189621 1.18564,-4.427042 -3.2707,-0.100717 0.6968,-2.601661 2.88377,1.54722 1.18301,-4.417843 -3.264,-3.26527 -1.71551,2.785759 -1.89159,-1.892991 2.77253,-1.727376 z m -2.67436,4.490625 0.48876,0.904764 -0.96962,2.955402 -2.29303,-2.081117 -0.0345,-1.025404 2.80831,-0.753687 z m 2.71557,0.710026 2.04657,2.047968 -0.55107,0.89548 -3.04399,0.638472 0.65563,-3.025557 z m -7.47914,2.012234 1.00676,0.02908 2.07446,2.316845 -2.94875,0.944525 -0.8876,-0.474255 0.75509,-2.816237 z m 9.37209,2.270386 0.89548,0.48091 -0.75369,2.813608 -1.01608,-0.03179 -2.05589,-2.286409 2.93022,-0.976232 z m -5.90275,1.759168 -0.61995,3.025599 -0.82787,0.512659 -2.07179,-2.073105 0.51266,-0.826597 3.00695,-0.638514 z m 1.71415,0.468998 2.31023,2.049282 0.0305,0.997427 -2.82031,0.756399 -0.47154,-0.879583 0.95114,-2.923525 z"
             id="path2-3-1-3-7-8"
             style="fill:#cc9900;fill-opacity:1;stroke-width:0.0423895" />
          <path
             id="path2-3-5-8-9-6-3"
             style="display:inline;fill:#b38a10;fill-opacity:1;stroke-width:0.0423894"
             d="m 151.83733,51.583044 -4.45451,1.194761 0.20102,0.371551 0.23358,-0.06253 0.0176,0.528135 1.10019,2.036051 -1.02268,0.274402 0.014,0.422714 2.59622,-0.697116 -1.55236,-2.873208 3.20291,-0.858864 z m -5.60741,1.503783 -4.38991,1.177708 -1.18546,4.425569 3.26388,0.0925 -0.49971,1.863453 0.42427,0.22634 0.55655,-2.076357 1.00666,0.02894 0.0682,0.07597 0.0315,-0.118338 -3.26388,-0.0925 1.18546,-4.425569 2.81636,-0.755509 z m 9.66246,2.551266 -1.11001,1.802993 0.98185,0.982885 1.11053,-1.80299 z m -5.14181,0.435634 -1.38647,0.372071 0.28783,0.532783 -0.60564,1.845366 1.22318,1.110009 0.45372,-1.382345 0.26251,-1.211294 0.1695,-0.105939 0.0842,-0.255797 z m 2.14354,1.066602 -0.32091,0.199988 -0.0248,0.113686 1.37666,1.377693 -0.55087,0.895554 -1.38131,0.289904 -0.0755,0.348816 3.04426,-0.63872 0.55087,-0.895554 -0.98186,-0.982369 -0.35398,0.574644 z m -6.90707,1.655712 -0.14004,0.521414 1.63349,1.824697 -1.95595,0.626316 0.59479,0.317812 2.94866,-0.944128 -2.07429,-2.317174 z m -5.64358,1.055748 -1.18287,4.411102 3.21479,3.215306 0.60719,-0.980302 -2.23448,-2.235004 0.98391,-3.670062 z m 15.01562,1.214398 v 5.16e-4 l -0.97927,0.326078 0.28732,0.154514 -0.61598,2.299599 0.37207,0.41393 0.66611,-2.487186 0.96583,0.518313 0.19947,-0.744656 z m 1.31775,0.707451 -0.19947,0.744656 1.49603,0.803051 0.19947,-0.744657 z m -7.22075,1.052131 -1.65985,0.352433 -0.50539,2.467549 0.71778,0.718302 0.72089,-0.446484 0.25166,-0.773079 z m 1.71462,0.468705 -0.35553,1.092956 1.07797,0.956532 0.0305,0.997355 -1.43195,0.384472 0.19947,0.37207 2.81998,-0.756542 -0.0305,-0.997355 z m -5.8415,1.977141 -0.2527,0.407725 0.93793,0.93793 -2.77916,1.721858 3.24373,3.244246 1.25212,-0.33538 -2.90835,-2.908866 2.77916,-1.721858 -0.60771,-0.607716 -0.5731,0.354499 z m 8.19795,1.55081 -1.57458,0.421161 0.0724,2.338358 0.24132,0.45062 1.34876,-0.361735 z" />
        </g>
      </g>
      <g
         id="g6-75-7-9"
         transform="matrix(0.0234375,0,0,0.0234375,80.572134,45.280115)"
         style="display:inline;fill:#2b95f5;fill-opacity:1">
        <path
           class="st0"
           d="m 511.976,213.063 -45.863,-9.749 31.374,-34.845 C 472.114,131.733 417.268,115.015 360.373,127.926 355.071,69.826 322.223,22.83 279.444,10.052 L 256,50.659 232.556,10.053 C 189.777,22.832 156.93,69.828 151.627,127.927 94.733,115.016 39.886,131.734 14.514,168.47 l 31.374,34.844 -45.864,9.749 c -1.066,44.634 33.479,90.396 87.097,113.393 -29.86,50.12 -30.91,107.448 -3.812,142.931 l 42.834,-19.071 -4.901,46.632 c 42.12,14.806 96.318,-3.907 134.758,-47.794 38.44,43.887 92.638,62.6 134.758,47.794 l -4.901,-46.632 42.835,19.072 c 27.097,-35.483 26.048,-92.811 -3.812,-142.932 53.617,-22.996 88.162,-68.759 87.096,-113.393 z m -196.599,83.322 c 3.526,-2.358 7.678,-3.63 11.998,-3.63 3.762,0 7.479,0.998 10.752,2.889 4.986,2.876 8.552,7.525 10.043,13.085 1.49,5.56 0.725,11.369 -2.156,16.353 -3.838,6.65 -10.996,10.781 -18.68,10.781 -3.765,0 -7.484,-1 -10.758,-2.89 -7.126,-4.116 -11.228,-12.025 -10.724,-20.072 l -40.32,-23.278 v 46.552 c 7.222,3.587 12.021,11.096 12.021,19.327 0,11.884 -9.669,21.551 -21.553,21.551 -11.884,0 -21.553,-9.667 -21.553,-21.551 0,-8.231 4.799,-15.74 12.021,-19.327 v -46.552 l -40.319,23.278 c 0.504,8.047 -3.598,15.956 -10.724,20.072 -3.275,1.889 -6.994,2.89 -10.758,2.89 -7.684,0 -14.842,-4.132 -18.682,-10.781 -2.878,-4.984 -3.644,-10.792 -2.154,-16.353 1.49,-5.56 5.057,-10.209 10.043,-13.087 3.272,-1.889 6.989,-2.887 10.752,-2.887 4.321,0 8.473,1.272 11.996,3.63 l 40.312,-23.274 -40.312,-23.272 c -3.523,2.359 -7.675,3.63 -11.996,3.63 -3.762,0 -7.479,-0.998 -10.752,-2.89 -4.986,-2.876 -8.552,-7.525 -10.043,-13.085 -1.49,-5.56 -0.724,-11.369 2.156,-16.353 3.838,-6.65 10.995,-10.781 18.68,-10.781 3.764,0 7.484,1 10.758,2.89 7.126,4.116 11.228,12.025 10.724,20.072 l 40.319,23.278 v -46.552 c -7.222,-3.587 -12.021,-11.096 -12.021,-19.327 0,-11.884 9.669,-21.551 21.553,-21.551 11.884,0 21.553,9.667 21.553,21.551 0,8.231 -4.799,15.74 -12.021,19.327 V 256.6 l 40.32,-23.278 c -0.504,-8.047 3.598,-15.956 10.724,-20.072 3.275,-1.889 6.994,-2.89 10.758,-2.89 7.684,0 14.842,4.132 18.682,10.781 2.878,4.984 3.644,10.792 2.154,16.353 -1.49,5.56 -5.057,10.209 -10.043,13.088 -3.272,1.889 -6.989,2.887 -10.752,2.887 -4.32,0 -8.472,-1.272 -11.998,-3.63 l -40.31,23.272 z"
           id="path4-1-5-9-5"
           style="fill:#2b95f5;fill-opacity:1" />
      </g>
      <g
         id="g6-2-7-0-0"
         transform="matrix(0.0234375,0,0,0.0234375,63.394148,39.213816)"
         style="display:inline;fill:#2b95f5;fill-opacity:1">
        <path
           class="st0"
           d="m 511.976,213.063 -45.863,-9.749 31.374,-34.845 C 472.114,131.733 417.268,115.015 360.373,127.926 355.071,69.826 322.223,22.83 279.444,10.052 L 256,50.659 232.556,10.053 C 189.777,22.832 156.93,69.828 151.627,127.927 94.733,115.016 39.886,131.734 14.514,168.47 l 31.374,34.844 -45.864,9.749 c -1.066,44.634 33.479,90.396 87.097,113.393 -29.86,50.12 -30.91,107.448 -3.812,142.931 l 42.834,-19.071 -4.901,46.632 c 42.12,14.806 96.318,-3.907 134.758,-47.794 38.44,43.887 92.638,62.6 134.758,47.794 l -4.901,-46.632 42.835,19.072 c 27.097,-35.483 26.048,-92.811 -3.812,-142.932 53.617,-22.996 88.162,-68.759 87.096,-113.393 z m -196.599,83.322 c 3.526,-2.358 7.678,-3.63 11.998,-3.63 3.762,0 7.479,0.998 10.752,2.889 4.986,2.876 8.552,7.525 10.043,13.085 1.49,5.56 0.725,11.369 -2.156,16.353 -3.838,6.65 -10.996,10.781 -18.68,10.781 -3.765,0 -7.484,-1 -10.758,-2.89 -7.126,-4.116 -11.228,-12.025 -10.724,-20.072 l -40.32,-23.278 v 46.552 c 7.222,3.587 12.021,11.096 12.021,19.327 0,11.884 -9.669,21.551 -21.553,21.551 -11.884,0 -21.553,-9.667 -21.553,-21.551 0,-8.231 4.799,-15.74 12.021,-19.327 v -46.552 l -40.319,23.278 c 0.504,8.047 -3.598,15.956 -10.724,20.072 -3.275,1.889 -6.994,2.89 -10.758,2.89 -7.684,0 -14.842,-4.132 -18.682,-10.781 -2.878,-4.984 -3.644,-10.792 -2.154,-16.353 1.49,-5.56 5.057,-10.209 10.043,-13.087 3.272,-1.889 6.989,-2.887 10.752,-2.887 4.321,0 8.473,1.272 11.996,3.63 l 40.312,-23.274 -40.312,-23.272 c -3.523,2.359 -7.675,3.63 -11.996,3.63 -3.762,0 -7.479,-0.998 -10.752,-2.89 -4.986,-2.876 -8.552,-7.525 -10.043,-13.085 -1.49,-5.56 -0.724,-11.369 2.156,-16.353 3.838,-6.65 10.995,-10.781 18.68,-10.781 3.764,0 7.484,1 10.758,2.89 7.126,4.116 11.228,12.025 10.724,20.072 l 40.319,23.278 v -46.552 c -7.222,-3.587 -12.021,-11.096 -12.021,-19.327 0,-11.884 9.669,-21.551 21.553,-21.551 11.884,0 21.553,9.667 21.553,21.551 0,8.231 -4.799,15.74 -12.021,19.327 V 256.6 l 40.32,-23.278 c -0.504,-8.047 3.598,-15.956 10.724,-20.072 3.275,-1.889 6.994,-2.89 10.758,-2.89 7.684,0 14.842,4.132 18.682,10.781 2.878,4.984 3.644,10.792 2.154,16.353 -1.49,5.56 -5.057,10.209 -10.043,13.088 -3.272,1.889 -6.989,2.887 -10.752,2.887 -4.32,0 -8.472,-1.272 -11.998,-3.63 l -40.31,23.272 z"
           id="path4-1-1-3-2-3"
           style="fill:#2b95f5;fill-opacity:1" />
      </g>
      <g
         id="g6-2-3-40-2-8"
         transform="matrix(0.0234375,0,0,0.0234375,48.430921,44.201603)"
         style="display:inline;fill:#2b95f5;fill-opacity:1">
        <path
           class="st0"
           d="m 511.976,213.063 -45.863,-9.749 31.374,-34.845 C 472.114,131.733 417.268,115.015 360.373,127.926 355.071,69.826 322.223,22.83 279.444,10.052 L 256,50.659 232.556,10.053 C 189.777,22.832 156.93,69.828 151.627,127.927 94.733,115.016 39.886,131.734 14.514,168.47 l 31.374,34.844 -45.864,9.749 c -1.066,44.634 33.479,90.396 87.097,113.393 -29.86,50.12 -30.91,107.448 -3.812,142.931 l 42.834,-19.071 -4.901,46.632 c 42.12,14.806 96.318,-3.907 134.758,-47.794 38.44,43.887 92.638,62.6 134.758,47.794 l -4.901,-46.632 42.835,19.072 c 27.097,-35.483 26.048,-92.811 -3.812,-142.932 53.617,-22.996 88.162,-68.759 87.096,-113.393 z m -196.599,83.322 c 3.526,-2.358 7.678,-3.63 11.998,-3.63 3.762,0 7.479,0.998 10.752,2.889 4.986,2.876 8.552,7.525 10.043,13.085 1.49,5.56 0.725,11.369 -2.156,16.353 -3.838,6.65 -10.996,10.781 -18.68,10.781 -3.765,0 -7.484,-1 -10.758,-2.89 -7.126,-4.116 -11.228,-12.025 -10.724,-20.072 l -40.32,-23.278 v 46.552 c 7.222,3.587 12.021,11.096 12.021,19.327 0,11.884 -9.669,21.551 -21.553,21.551 -11.884,0 -21.553,-9.667 -21.553,-21.551 0,-8.231 4.799,-15.74 12.021,-19.327 v -46.552 l -40.319,23.278 c 0.504,8.047 -3.598,15.956 -10.724,20.072 -3.275,1.889 -6.994,2.89 -10.758,2.89 -7.684,0 -14.842,-4.132 -18.682,-10.781 -2.878,-4.984 -3.644,-10.792 -2.154,-16.353 1.49,-5.56 5.057,-10.209 10.043,-13.087 3.272,-1.889 6.989,-2.887 10.752,-2.887 4.321,0 8.473,1.272 11.996,3.63 l 40.312,-23.274 -40.312,-23.272 c -3.523,2.359 -7.675,3.63 -11.996,3.63 -3.762,0 -7.479,-0.998 -10.752,-2.89 -4.986,-2.876 -8.552,-7.525 -10.043,-13.085 -1.49,-5.56 -0.724,-11.369 2.156,-16.353 3.838,-6.65 10.995,-10.781 18.68,-10.781 3.764,0 7.484,1 10.758,2.89 7.126,4.116 11.228,12.025 10.724,20.072 l 40.319,23.278 v -46.552 c -7.222,-3.587 -12.021,-11.096 -12.021,-19.327 0,-11.884 9.669,-21.551 21.553,-21.551 11.884,0 21.553,9.667 21.553,21.551 0,8.231 -4.799,15.74 -12.021,19.327 V 256.6 l 40.32,-23.278 c -0.504,-8.047 3.598,-15.956 10.724,-20.072 3.275,-1.889 6.994,-2.89 10.758,-2.89 7.684,0 14.842,4.132 18.682,10.781 2.878,4.984 3.644,10.792 2.154,16.353 -1.49,5.56 -5.057,10.209 -10.043,13.088 -3.272,1.889 -6.989,2.887 -10.752,2.887 -4.32,0 -8.472,-1.272 -11.998,-3.63 l -40.31,23.272 z"
           id="path4-1-1-7-7-8-5"
           style="fill:#2b95f5;fill-opacity:1" />
      </g>
    </g>
    <g
       id="g2469-0-1-3-6"
       style="display:inline"
       transform="matrix(0.84905663,0,0,0.84905663,39.013082,-12.449403)">
      <g
         id="g16088-3-9-5-3"
         transform="matrix(1.0970525,0,0,1.0970525,-112.63298,-9.184748)"
         style="display:inline">
        <g
           id="g16024-2-2-2-1">
          <path
             fill="#000000"
             d="m 151.83738,51.583012 -4.45472,1.194835 1.55252,2.873166 -2.59636,0.696885 -0.10873,-3.261455 -4.38999,1.17771 -1.18551,4.42577 3.264,0.09266 -0.69816,2.604332 -2.87719,-1.535351 -1.18289,4.411314 3.21496,3.214954 1.72072,-2.779061 1.91813,1.918128 -2.77915,1.722035 3.24408,3.244075 4.39927,-1.178939 -1.54722,-2.883763 2.60823,-0.698157 0.10076,3.270653 4.43764,-1.189621 1.18564,-4.427042 -3.2707,-0.100717 0.6968,-2.601661 2.88377,1.54722 1.18301,-4.417843 -3.264,-3.26527 -1.71551,2.785759 -1.89159,-1.892991 2.77253,-1.727376 z m -2.67436,4.490625 0.48876,0.904764 -0.96962,2.955402 -2.29303,-2.081117 -0.0345,-1.025404 2.80831,-0.753687 z m 2.71557,0.710026 2.04657,2.047968 -0.55107,0.89548 -3.04399,0.638472 0.65563,-3.025557 z m -7.47914,2.012234 1.00676,0.02908 2.07446,2.316845 -2.94875,0.944525 -0.8876,-0.474255 0.75509,-2.816237 z m 9.37209,2.270386 0.89548,0.48091 -0.75369,2.813608 -1.01608,-0.03179 -2.05589,-2.286409 2.93022,-0.976232 z m -5.90275,1.759168 -0.61995,3.025599 -0.82787,0.512659 -2.07179,-2.073105 0.51266,-0.826597 3.00695,-0.638514 z m 1.71415,0.468998 2.31023,2.049282 0.0305,0.997427 -2.82031,0.756399 -0.47154,-0.879583 0.95114,-2.923525 z"
             id="path2-3-53-2-4-8"
             style="fill:#cc9900;fill-opacity:1;stroke-width:0.0423895" />
          <path
             id="path2-3-5-3-1-4-9"
             style="display:inline;fill:#b38a10;fill-opacity:1;stroke-width:0.0423894"
             d="m 151.83733,51.583044 -4.45451,1.194761 0.20102,0.371551 0.23358,-0.06253 0.0176,0.528135 1.10019,2.036051 -1.02268,0.274402 0.014,0.422714 2.59622,-0.697116 -1.55236,-2.873208 3.20291,-0.858864 z m -5.60741,1.503783 -4.38991,1.177708 -1.18546,4.425569 3.26388,0.0925 -0.49971,1.863453 0.42427,0.22634 0.55655,-2.076357 1.00666,0.02894 0.0682,0.07597 0.0315,-0.118338 -3.26388,-0.0925 1.18546,-4.425569 2.81636,-0.755509 z m 9.66246,2.551266 -1.11001,1.802993 0.98185,0.982885 1.11053,-1.80299 z m -5.14181,0.435634 -1.38647,0.372071 0.28783,0.532783 -0.60564,1.845366 1.22318,1.110009 0.45372,-1.382345 0.26251,-1.211294 0.1695,-0.105939 0.0842,-0.255797 z m 2.14354,1.066602 -0.32091,0.199988 -0.0248,0.113686 1.37666,1.377693 -0.55087,0.895554 -1.38131,0.289904 -0.0755,0.348816 3.04426,-0.63872 0.55087,-0.895554 -0.98186,-0.982369 -0.35398,0.574644 z m -6.90707,1.655712 -0.14004,0.521414 1.63349,1.824697 -1.95595,0.626316 0.59479,0.317812 2.94866,-0.944128 -2.07429,-2.317174 z m -5.64358,1.055748 -1.18287,4.411102 3.21479,3.215306 0.60719,-0.980302 -2.23448,-2.235004 0.98391,-3.670062 z m 15.01562,1.214398 v 5.16e-4 l -0.97927,0.326078 0.28732,0.154514 -0.61598,2.299599 0.37207,0.41393 0.66611,-2.487186 0.96583,0.518313 0.19947,-0.744656 z m 1.31775,0.707451 -0.19947,0.744656 1.49603,0.803051 0.19947,-0.744657 z m -7.22075,1.052131 -1.65985,0.352433 -0.50539,2.467549 0.71778,0.718302 0.72089,-0.446484 0.25166,-0.773079 z m 1.71462,0.468705 -0.35553,1.092956 1.07797,0.956532 0.0305,0.997355 -1.43195,0.384472 0.19947,0.37207 2.81998,-0.756542 -0.0305,-0.997355 z m -5.8415,1.977141 -0.2527,0.407725 0.93793,0.93793 -2.77916,1.721858 3.24373,3.244246 1.25212,-0.33538 -2.90835,-2.908866 2.77916,-1.721858 -0.60771,-0.607716 -0.5731,0.354499 z m 8.19795,1.55081 -1.57458,0.421161 0.0724,2.338358 0.24132,0.45062 1.34876,-0.361735 z" />
        </g>
        <g
           id="g16024-7-4-1-2-3"
           style="display:inline"
           transform="translate(13.639481,-4.5465347)">
          <path
             fill="#000000"
             d="m 151.83738,51.583012 -4.45472,1.194835 1.55252,2.873166 -2.59636,0.696885 -0.10873,-3.261455 -4.38999,1.17771 -1.18551,4.42577 3.264,0.09266 -0.69816,2.604332 -2.87719,-1.535351 -1.18289,4.411314 3.21496,3.214954 1.72072,-2.779061 1.91813,1.918128 -2.77915,1.722035 3.24408,3.244075 4.39927,-1.178939 -1.54722,-2.883763 2.60823,-0.698157 0.10076,3.270653 4.43764,-1.189621 1.18564,-4.427042 -3.2707,-0.100717 0.6968,-2.601661 2.88377,1.54722 1.18301,-4.417843 -3.264,-3.26527 -1.71551,2.785759 -1.89159,-1.892991 2.77253,-1.727376 z m -2.67436,4.490625 0.48876,0.904764 -0.96962,2.955402 -2.29303,-2.081117 -0.0345,-1.025404 2.80831,-0.753687 z m 2.71557,0.710026 2.04657,2.047968 -0.55107,0.89548 -3.04399,0.638472 0.65563,-3.025557 z m -7.47914,2.012234 1.00676,0.02908 2.07446,2.316845 -2.94875,0.944525 -0.8876,-0.474255 0.75509,-2.816237 z m 9.37209,2.270386 0.89548,0.48091 -0.75369,2.813608 -1.01608,-0.03179 -2.05589,-2.286409 2.93022,-0.976232 z m -5.90275,1.759168 -0.61995,3.025599 -0.82787,0.512659 -2.07179,-2.073105 0.51266,-0.826597 3.00695,-0.638514 z m 1.71415,0.468998 2.31023,2.049282 0.0305,0.997427 -2.82031,0.756399 -0.47154,-0.879583 0.95114,-2.923525 z"
             id="path2-3-9-9-0-6-3"
             style="fill:#cc9900;fill-opacity:1;stroke-width:0.0423895" />
          <path
             id="path2-3-5-1-2-2-0-5"
             style="display:inline;fill:#b38a10;fill-opacity:1;stroke-width:0.0423894"
             d="m 151.83733,51.583044 -4.45451,1.194761 0.20102,0.371551 0.23358,-0.06253 0.0176,0.528135 1.10019,2.036051 -1.02268,0.274402 0.014,0.422714 2.59622,-0.697116 -1.55236,-2.873208 3.20291,-0.858864 z m -5.60741,1.503783 -4.38991,1.177708 -1.18546,4.425569 3.26388,0.0925 -0.49971,1.863453 0.42427,0.22634 0.55655,-2.076357 1.00666,0.02894 0.0682,0.07597 0.0315,-0.118338 -3.26388,-0.0925 1.18546,-4.425569 2.81636,-0.755509 z m 9.66246,2.551266 -1.11001,1.802993 0.98185,0.982885 1.11053,-1.80299 z m -5.14181,0.435634 -1.38647,0.372071 0.28783,0.532783 -0.60564,1.845366 1.22318,1.110009 0.45372,-1.382345 0.26251,-1.211294 0.1695,-0.105939 0.0842,-0.255797 z m 2.14354,1.066602 -0.32091,0.199988 -0.0248,0.113686 1.37666,1.377693 -0.55087,0.895554 -1.38131,0.289904 -0.0755,0.348816 3.04426,-0.63872 0.55087,-0.895554 -0.98186,-0.982369 -0.35398,0.574644 z m -6.90707,1.655712 -0.14004,0.521414 1.63349,1.824697 -1.95595,0.626316 0.59479,0.317812 2.94866,-0.944128 -2.07429,-2.317174 z m -5.64358,1.055748 -1.18287,4.411102 3.21479,3.215306 0.60719,-0.980302 -2.23448,-2.235004 0.98391,-3.670062 z m 15.01562,1.214398 v 5.16e-4 l -0.97927,0.326078 0.28732,0.154514 -0.61598,2.299599 0.37207,0.41393 0.66611,-2.487186 0.96583,0.518313 0.19947,-0.744656 z m 1.31775,0.707451 -0.19947,0.744656 1.49603,0.803051 0.19947,-0.744657 z m -7.22075,1.052131 -1.65985,0.352433 -0.50539,2.467549 0.71778,0.718302 0.72089,-0.446484 0.25166,-0.773079 z m 1.71462,0.468705 -0.35553,1.092956 1.07797,0.956532 0.0305,0.997355 -1.43195,0.384472 0.19947,0.37207 2.81998,-0.756542 -0.0305,-0.997355 z m -5.8415,1.977141 -0.2527,0.407725 0.93793,0.93793 -2.77916,1.721858 3.24373,3.244246 1.25212,-0.33538 -2.90835,-2.908866 2.77916,-1.721858 -0.60771,-0.607716 -0.5731,0.354499 z m 8.19795,1.55081 -1.57458,0.421161 0.0724,2.338358 0.24132,0.45062 1.34876,-0.361735 z" />
        </g>
        <g
           id="g16024-0-49-0-2-8"
           style="display:inline"
           transform="translate(28.315329,-1.2e-5)">
          <path
             fill="#000000"
             d="m 151.83738,51.583012 -4.45472,1.194835 1.55252,2.873166 -2.59636,0.696885 -0.10873,-3.261455 -4.38999,1.17771 -1.18551,4.42577 3.264,0.09266 -0.69816,2.604332 -2.87719,-1.535351 -1.18289,4.411314 3.21496,3.214954 1.72072,-2.779061 1.91813,1.918128 -2.77915,1.722035 3.24408,3.244075 4.39927,-1.178939 -1.54722,-2.883763 2.60823,-0.698157 0.10076,3.270653 4.43764,-1.189621 1.18564,-4.427042 -3.2707,-0.100717 0.6968,-2.601661 2.88377,1.54722 1.18301,-4.417843 -3.264,-3.26527 -1.71551,2.785759 -1.89159,-1.892991 2.77253,-1.727376 z m -2.67436,4.490625 0.48876,0.904764 -0.96962,2.955402 -2.29303,-2.081117 -0.0345,-1.025404 2.80831,-0.753687 z m 2.71557,0.710026 2.04657,2.047968 -0.55107,0.89548 -3.04399,0.638472 0.65563,-3.025557 z m -7.47914,2.012234 1.00676,0.02908 2.07446,2.316845 -2.94875,0.944525 -0.8876,-0.474255 0.75509,-2.816237 z m 9.37209,2.270386 0.89548,0.48091 -0.75369,2.813608 -1.01608,-0.03179 -2.05589,-2.286409 2.93022,-0.976232 z m -5.90275,1.759168 -0.61995,3.025599 -0.82787,0.512659 -2.07179,-2.073105 0.51266,-0.826597 3.00695,-0.638514 z m 1.71415,0.468998 2.31023,2.049282 0.0305,0.997427 -2.82031,0.756399 -0.47154,-0.879583 0.95114,-2.923525 z"
             id="path2-3-1-3-7-0-8"
             style="fill:#cc9900;fill-opacity:1;stroke-width:0.0423895" />
          <path
             id="path2-3-5-8-9-6-37-3"
             style="display:inline;fill:#b38a10;fill-opacity:1;stroke-width:0.0423894"
             d="m 151.83733,51.583044 -4.45451,1.194761 0.20102,0.371551 0.23358,-0.06253 0.0176,0.528135 1.10019,2.036051 -1.02268,0.274402 0.014,0.422714 2.59622,-0.697116 -1.55236,-2.873208 3.20291,-0.858864 z m -5.60741,1.503783 -4.38991,1.177708 -1.18546,4.425569 3.26388,0.0925 -0.49971,1.863453 0.42427,0.22634 0.55655,-2.076357 1.00666,0.02894 0.0682,0.07597 0.0315,-0.118338 -3.26388,-0.0925 1.18546,-4.425569 2.81636,-0.755509 z m 9.66246,2.551266 -1.11001,1.802993 0.98185,0.982885 1.11053,-1.80299 z m -5.14181,0.435634 -1.38647,0.372071 0.28783,0.532783 -0.60564,1.845366 1.22318,1.110009 0.45372,-1.382345 0.26251,-1.211294 0.1695,-0.105939 0.0842,-0.255797 z m 2.14354,1.066602 -0.32091,0.199988 -0.0248,0.113686 1.37666,1.377693 -0.55087,0.895554 -1.38131,0.289904 -0.0755,0.348816 3.04426,-0.63872 0.55087,-0.895554 -0.98186,-0.982369 -0.35398,0.574644 z m -6.90707,1.655712 -0.14004,0.521414 1.63349,1.824697 -1.95595,0.626316 0.59479,0.317812 2.94866,-0.944128 -2.07429,-2.317174 z m -5.64358,1.055748 -1.18287,4.411102 3.21479,3.215306 0.60719,-0.980302 -2.23448,-2.235004 0.98391,-3.670062 z m 15.01562,1.214398 v 5.16e-4 l -0.97927,0.326078 0.28732,0.154514 -0.61598,2.299599 0.37207,0.41393 0.66611,-2.487186 0.96583,0.518313 0.19947,-0.744656 z m 1.31775,0.707451 -0.19947,0.744656 1.49603,0.803051 0.19947,-0.744657 z m -7.22075,1.052131 -1.65985,0.352433 -0.50539,2.467549 0.71778,0.718302 0.72089,-0.446484 0.25166,-0.773079 z m 1.71462,0.468705 -0.35553,1.092956 1.07797,0.956532 0.0305,0.997355 -1.43195,0.384472 0.19947,0.37207 2.81998,-0.756542 -0.0305,-0.997355 z m -5.8415,1.977141 -0.2527,0.407725 0.93793,0.93793 -2.77916,1.721858 3.24373,3.244246 1.25212,-0.33538 -2.90835,-2.908866 2.77916,-1.721858 -0.60771,-0.607716 -0.5731,0.354499 z m 8.19795,1.55081 -1.57458,0.421161 0.0724,2.338358 0.24132,0.45062 1.34876,-0.361735 z" />
        </g>
      </g>
      <g
         id="g6-75-7-6-0"
         transform="matrix(0.0234375,0,0,0.0234375,80.572134,45.280115)"
         style="display:inline;fill:#2b95f5;fill-opacity:1">
        <path
           class="st0"
           d="m 511.976,213.063 -45.863,-9.749 31.374,-34.845 C 472.114,131.733 417.268,115.015 360.373,127.926 355.071,69.826 322.223,22.83 279.444,10.052 L 256,50.659 232.556,10.053 C 189.777,22.832 156.93,69.828 151.627,127.927 94.733,115.016 39.886,131.734 14.514,168.47 l 31.374,34.844 -45.864,9.749 c -1.066,44.634 33.479,90.396 87.097,113.393 -29.86,50.12 -30.91,107.448 -3.812,142.931 l 42.834,-19.071 -4.901,46.632 c 42.12,14.806 96.318,-3.907 134.758,-47.794 38.44,43.887 92.638,62.6 134.758,47.794 l -4.901,-46.632 42.835,19.072 c 27.097,-35.483 26.048,-92.811 -3.812,-142.932 53.617,-22.996 88.162,-68.759 87.096,-113.393 z m -196.599,83.322 c 3.526,-2.358 7.678,-3.63 11.998,-3.63 3.762,0 7.479,0.998 10.752,2.889 4.986,2.876 8.552,7.525 10.043,13.085 1.49,5.56 0.725,11.369 -2.156,16.353 -3.838,6.65 -10.996,10.781 -18.68,10.781 -3.765,0 -7.484,-1 -10.758,-2.89 -7.126,-4.116 -11.228,-12.025 -10.724,-20.072 l -40.32,-23.278 v 46.552 c 7.222,3.587 12.021,11.096 12.021,19.327 0,11.884 -9.669,21.551 -21.553,21.551 -11.884,0 -21.553,-9.667 -21.553,-21.551 0,-8.231 4.799,-15.74 12.021,-19.327 v -46.552 l -40.319,23.278 c 0.504,8.047 -3.598,15.956 -10.724,20.072 -3.275,1.889 -6.994,2.89 -10.758,2.89 -7.684,0 -14.842,-4.132 -18.682,-10.781 -2.878,-4.984 -3.644,-10.792 -2.154,-16.353 1.49,-5.56 5.057,-10.209 10.043,-13.087 3.272,-1.889 6.989,-2.887 10.752,-2.887 4.321,0 8.473,1.272 11.996,3.63 l 40.312,-23.274 -40.312,-23.272 c -3.523,2.359 -7.675,3.63 -11.996,3.63 -3.762,0 -7.479,-0.998 -10.752,-2.89 -4.986,-2.876 -8.552,-7.525 -10.043,-13.085 -1.49,-5.56 -0.724,-11.369 2.156,-16.353 3.838,-6.65 10.995,-10.781 18.68,-10.781 3.764,0 7.484,1 10.758,2.89 7.126,4.116 11.228,12.025 10.724,20.072 l 40.319,23.278 v -46.552 c -7.222,-3.587 -12.021,-11.096 -12.021,-19.327 0,-11.884 9.669,-21.551 21.553,-21.551 11.884,0 21.553,9.667 21.553,21.551 0,8.231 -4.799,15.74 -12.021,19.327 V 256.6 l 40.32,-23.278 c -0.504,-8.047 3.598,-15.956 10.724,-20.072 3.275,-1.889 6.994,-2.89 10.758,-2.89 7.684,0 14.842,4.132 18.682,10.781 2.878,4.984 3.644,10.792 2.154,16.353 -1.49,5.56 -5.057,10.209 -10.043,13.088 -3.272,1.889 -6.989,2.887 -10.752,2.887 -4.32,0 -8.472,-1.272 -11.998,-3.63 l -40.31,23.272 z"
           id="path4-1-5-9-7-4"
           style="fill:#2b95f5;fill-opacity:1" />
      </g>
      <g
         id="g6-2-7-0-3-1"
         transform="matrix(0.0234375,0,0,0.0234375,63.394148,39.213816)"
         style="display:inline;fill:#2b95f5;fill-opacity:1">
        <path
           class="st0"
           d="m 511.976,213.063 -45.863,-9.749 31.374,-34.845 C 472.114,131.733 417.268,115.015 360.373,127.926 355.071,69.826 322.223,22.83 279.444,10.052 L 256,50.659 232.556,10.053 C 189.777,22.832 156.93,69.828 151.627,127.927 94.733,115.016 39.886,131.734 14.514,168.47 l 31.374,34.844 -45.864,9.749 c -1.066,44.634 33.479,90.396 87.097,113.393 -29.86,50.12 -30.91,107.448 -3.812,142.931 l 42.834,-19.071 -4.901,46.632 c 42.12,14.806 96.318,-3.907 134.758,-47.794 38.44,43.887 92.638,62.6 134.758,47.794 l -4.901,-46.632 42.835,19.072 c 27.097,-35.483 26.048,-92.811 -3.812,-142.932 53.617,-22.996 88.162,-68.759 87.096,-113.393 z m -196.599,83.322 c 3.526,-2.358 7.678,-3.63 11.998,-3.63 3.762,0 7.479,0.998 10.752,2.889 4.986,2.876 8.552,7.525 10.043,13.085 1.49,5.56 0.725,11.369 -2.156,16.353 -3.838,6.65 -10.996,10.781 -18.68,10.781 -3.765,0 -7.484,-1 -10.758,-2.89 -7.126,-4.116 -11.228,-12.025 -10.724,-20.072 l -40.32,-23.278 v 46.552 c 7.222,3.587 12.021,11.096 12.021,19.327 0,11.884 -9.669,21.551 -21.553,21.551 -11.884,0 -21.553,-9.667 -21.553,-21.551 0,-8.231 4.799,-15.74 12.021,-19.327 v -46.552 l -40.319,23.278 c 0.504,8.047 -3.598,15.956 -10.724,20.072 -3.275,1.889 -6.994,2.89 -10.758,2.89 -7.684,0 -14.842,-4.132 -18.682,-10.781 -2.878,-4.984 -3.644,-10.792 -2.154,-16.353 1.49,-5.56 5.057,-10.209 10.043,-13.087 3.272,-1.889 6.989,-2.887 10.752,-2.887 4.321,0 8.473,1.272 11.996,3.63 l 40.312,-23.274 -40.312,-23.272 c -3.523,2.359 -7.675,3.63 -11.996,3.63 -3.762,0 -7.479,-0.998 -10.752,-2.89 -4.986,-2.876 -8.552,-7.525 -10.043,-13.085 -1.49,-5.56 -0.724,-11.369 2.156,-16.353 3.838,-6.65 10.995,-10.781 18.68,-10.781 3.764,0 7.484,1 10.758,2.89 7.126,4.116 11.228,12.025 10.724,20.072 l 40.319,23.278 v -46.552 c -7.222,-3.587 -12.021,-11.096 -12.021,-19.327 0,-11.884 9.669,-21.551 21.553,-21.551 11.884,0 21.553,9.667 21.553,21.551 0,8.231 -4.799,15.74 -12.021,19.327 V 256.6 l 40.32,-23.278 c -0.504,-8.047 3.598,-15.956 10.724,-20.072 3.275,-1.889 6.994,-2.89 10.758,-2.89 7.684,0 14.842,4.132 18.682,10.781 2.878,4.984 3.644,10.792 2.154,16.353 -1.49,5.56 -5.057,10.209 -10.043,13.088 -3.272,1.889 -6.989,2.887 -10.752,2.887 -4.32,0 -8.472,-1.272 -11.998,-3.63 l -40.31,23.272 z"
           id="path4-1-1-3-2-9-4"
           style="fill:#2b95f5;fill-opacity:1" />
      </g>
      <g
         id="g6-2-3-40-2-1-9"
         transform="matrix(0.0234375,0,0,0.0234375,48.430921,44.201603)"
         style="display:inline;fill:#2b95f5;fill-opacity:1">
        <path
           class="st0"
           d="m 511.976,213.063 -45.863,-9.749 31.374,-34.845 C 472.114,131.733 417.268,115.015 360.373,127.926 355.071,69.826 322.223,22.83 279.444,10.052 L 256,50.659 232.556,10.053 C 189.777,22.832 156.93,69.828 151.627,127.927 94.733,115.016 39.886,131.734 14.514,168.47 l 31.374,34.844 -45.864,9.749 c -1.066,44.634 33.479,90.396 87.097,113.393 -29.86,50.12 -30.91,107.448 -3.812,142.931 l 42.834,-19.071 -4.901,46.632 c 42.12,14.806 96.318,-3.907 134.758,-47.794 38.44,43.887 92.638,62.6 134.758,47.794 l -4.901,-46.632 42.835,19.072 c 27.097,-35.483 26.048,-92.811 -3.812,-142.932 53.617,-22.996 88.162,-68.759 87.096,-113.393 z m -196.599,83.322 c 3.526,-2.358 7.678,-3.63 11.998,-3.63 3.762,0 7.479,0.998 10.752,2.889 4.986,2.876 8.552,7.525 10.043,13.085 1.49,5.56 0.725,11.369 -2.156,16.353 -3.838,6.65 -10.996,10.781 -18.68,10.781 -3.765,0 -7.484,-1 -10.758,-2.89 -7.126,-4.116 -11.228,-12.025 -10.724,-20.072 l -40.32,-23.278 v 46.552 c 7.222,3.587 12.021,11.096 12.021,19.327 0,11.884 -9.669,21.551 -21.553,21.551 -11.884,0 -21.553,-9.667 -21.553,-21.551 0,-8.231 4.799,-15.74 12.021,-19.327 v -46.552 l -40.319,23.278 c 0.504,8.047 -3.598,15.956 -10.724,20.072 -3.275,1.889 -6.994,2.89 -10.758,2.89 -7.684,0 -14.842,-4.132 -18.682,-10.781 -2.878,-4.984 -3.644,-10.792 -2.154,-16.353 1.49,-5.56 5.057,-10.209 10.043,-13.087 3.272,-1.889 6.989,-2.887 10.752,-2.887 4.321,0 8.473,1.272 11.996,3.63 l 40.312,-23.274 -40.312,-23.272 c -3.523,2.359 -7.675,3.63 -11.996,3.63 -3.762,0 -7.479,-0.998 -10.752,-2.89 -4.986,-2.876 -8.552,-7.525 -10.043,-13.085 -1.49,-5.56 -0.724,-11.369 2.156,-16.353 3.838,-6.65 10.995,-10.781 18.68,-10.781 3.764,0 7.484,1 10.758,2.89 7.126,4.116 11.228,12.025 10.724,20.072 l 40.319,23.278 v -46.552 c -7.222,-3.587 -12.021,-11.096 -12.021,-19.327 0,-11.884 9.669,-21.551 21.553,-21.551 11.884,0 21.553,9.667 21.553,21.551 0,8.231 -4.799,15.74 -12.021,19.327 V 256.6 l 40.32,-23.278 c -0.504,-8.047 3.598,-15.956 10.724,-20.072 3.275,-1.889 6.994,-2.89 10.758,-2.89 7.684,0 14.842,4.132 18.682,10.781 2.878,4.984 3.644,10.792 2.154,16.353 -1.49,5.56 -5.057,10.209 -10.043,13.088 -3.272,1.889 -6.989,2.887 -10.752,2.887 -4.32,0 -8.472,-1.272 -11.998,-3.63 l -40.31,23.272 z"
           id="path4-1-1-7-7-8-9-7"
           style="fill:#2b95f5;fill-opacity:1" />
      </g>
    </g>
    <g
       id="g2469-0-1-3"
       style="display:inline"
       transform="matrix(0.84905663,0,0,0.84905663,1.5523386,3.0973563)">
      <g
         id="g16088-3-9-5"
         transform="matrix(1.0970525,0,0,1.0970525,-112.63298,-9.184748)"
         style="display:inline">
        <g
           id="g16024-2-2-2">
          <path
             fill="#000000"
             d="m 151.83738,51.583012 -4.45472,1.194835 1.55252,2.873166 -2.59636,0.696885 -0.10873,-3.261455 -4.38999,1.17771 -1.18551,4.42577 3.264,0.09266 -0.69816,2.604332 -2.87719,-1.535351 -1.18289,4.411314 3.21496,3.214954 1.72072,-2.779061 1.91813,1.918128 -2.77915,1.722035 3.24408,3.244075 4.39927,-1.178939 -1.54722,-2.883763 2.60823,-0.698157 0.10076,3.270653 4.43764,-1.189621 1.18564,-4.427042 -3.2707,-0.100717 0.6968,-2.601661 2.88377,1.54722 1.18301,-4.417843 -3.264,-3.26527 -1.71551,2.785759 -1.89159,-1.892991 2.77253,-1.727376 z m -2.67436,4.490625 0.48876,0.904764 -0.96962,2.955402 -2.29303,-2.081117 -0.0345,-1.025404 2.80831,-0.753687 z m 2.71557,0.710026 2.04657,2.047968 -0.55107,0.89548 -3.04399,0.638472 0.65563,-3.025557 z m -7.47914,2.012234 1.00676,0.02908 2.07446,2.316845 -2.94875,0.944525 -0.8876,-0.474255 0.75509,-2.816237 z m 9.37209,2.270386 0.89548,0.48091 -0.75369,2.813608 -1.01608,-0.03179 -2.05589,-2.286409 2.93022,-0.976232 z m -5.90275,1.759168 -0.61995,3.025599 -0.82787,0.512659 -2.07179,-2.073105 0.51266,-0.826597 3.00695,-0.638514 z m 1.71415,0.468998 2.31023,2.049282 0.0305,0.997427 -2.82031,0.756399 -0.47154,-0.879583 0.95114,-2.923525 z"
             id="path2-3-53-2-4"
             style="fill:#cc9900;fill-opacity:1;stroke-width:0.0423895" />
          <path
             id="path2-3-5-3-1-4"
             style="display:inline;fill:#b38a10;fill-opacity:1;stroke-width:0.0423894"
             d="m 151.83733,51.583044 -4.45451,1.194761 0.20102,0.371551 0.23358,-0.06253 0.0176,0.528135 1.10019,2.036051 -1.02268,0.274402 0.014,0.422714 2.59622,-0.697116 -1.55236,-2.873208 3.20291,-0.858864 z m -5.60741,1.503783 -4.38991,1.177708 -1.18546,4.425569 3.26388,0.0925 -0.49971,1.863453 0.42427,0.22634 0.55655,-2.076357 1.00666,0.02894 0.0682,0.07597 0.0315,-0.118338 -3.26388,-0.0925 1.18546,-4.425569 2.81636,-0.755509 z m 9.66246,2.551266 -1.11001,1.802993 0.98185,0.982885 1.11053,-1.80299 z m -5.14181,0.435634 -1.38647,0.372071 0.28783,0.532783 -0.60564,1.845366 1.22318,1.110009 0.45372,-1.382345 0.26251,-1.211294 0.1695,-0.105939 0.0842,-0.255797 z m 2.14354,1.066602 -0.32091,0.199988 -0.0248,0.113686 1.37666,1.377693 -0.55087,0.895554 -1.38131,0.289904 -0.0755,0.348816 3.04426,-0.63872 0.55087,-0.895554 -0.98186,-0.982369 -0.35398,0.574644 z m -6.90707,1.655712 -0.14004,0.521414 1.63349,1.824697 -1.95595,0.626316 0.59479,0.317812 2.94866,-0.944128 -2.07429,-2.317174 z m -5.64358,1.055748 -1.18287,4.411102 3.21479,3.215306 0.60719,-0.980302 -2.23448,-2.235004 0.98391,-3.670062 z m 15.01562,1.214398 v 5.16e-4 l -0.97927,0.326078 0.28732,0.154514 -0.61598,2.299599 0.37207,0.41393 0.66611,-2.487186 0.96583,0.518313 0.19947,-0.744656 z m 1.31775,0.707451 -0.19947,0.744656 1.49603,0.803051 0.19947,-0.744657 z m -7.22075,1.052131 -1.65985,0.352433 -0.50539,2.467549 0.71778,0.718302 0.72089,-0.446484 0.25166,-0.773079 z m 1.71462,0.468705 -0.35553,1.092956 1.07797,0.956532 0.0305,0.997355 -1.43195,0.384472 0.19947,0.37207 2.81998,-0.756542 -0.0305,-0.997355 z m -5.8415,1.977141 -0.2527,0.407725 0.93793,0.93793 -2.77916,1.721858 3.24373,3.244246 1.25212,-0.33538 -2.90835,-2.908866 2.77916,-1.721858 -0.60771,-0.607716 -0.5731,0.354499 z m 8.19795,1.55081 -1.57458,0.421161 0.0724,2.338358 0.24132,0.45062 1.34876,-0.361735 z" />
        </g>
        <g
           id="g16024-7-4-1-2"
           style="display:inline"
           transform="translate(13.639481,-4.5465347)">
          <path
             fill="#000000"
             d="m 151.83738,51.583012 -4.45472,1.194835 1.55252,2.873166 -2.59636,0.696885 -0.10873,-3.261455 -4.38999,1.17771 -1.18551,4.42577 3.264,0.09266 -0.69816,2.604332 -2.87719,-1.535351 -1.18289,4.411314 3.21496,3.214954 1.72072,-2.779061 1.91813,1.918128 -2.77915,1.722035 3.24408,3.244075 4.39927,-1.178939 -1.54722,-2.883763 2.60823,-0.698157 0.10076,3.270653 4.43764,-1.189621 1.18564,-4.427042 -3.2707,-0.100717 0.6968,-2.601661 2.88377,1.54722 1.18301,-4.417843 -3.264,-3.26527 -1.71551,2.785759 -1.89159,-1.892991 2.77253,-1.727376 z m -2.67436,4.490625 0.48876,0.904764 -0.96962,2.955402 -2.29303,-2.081117 -0.0345,-1.025404 2.80831,-0.753687 z m 2.71557,0.710026 2.04657,2.047968 -0.55107,0.89548 -3.04399,0.638472 0.65563,-3.025557 z m -7.47914,2.012234 1.00676,0.02908 2.07446,2.316845 -2.94875,0.944525 -0.8876,-0.474255 0.75509,-2.816237 z m 9.37209,2.270386 0.89548,0.48091 -0.75369,2.813608 -1.01608,-0.03179 -2.05589,-2.286409 2.93022,-0.976232 z m -5.90275,1.759168 -0.61995,3.025599 -0.82787,0.512659 -2.07179,-2.073105 0.51266,-0.826597 3.00695,-0.638514 z m 1.71415,0.468998 2.31023,2.049282 0.0305,0.997427 -2.82031,0.756399 -0.47154,-0.879583 0.95114,-2.923525 z"
             id="path2-3-9-9-0-6"
             style="fill:#cc9900;fill-opacity:1;stroke-width:0.0423895" />
          <path
             id="path2-3-5-1-2-2-0"
             style="display:inline;fill:#b38a10;fill-opacity:1;stroke-width:0.0423894"
             d="m 151.83733,51.583044 -4.45451,1.194761 0.20102,0.371551 0.23358,-0.06253 0.0176,0.528135 1.10019,2.036051 -1.02268,0.274402 0.014,0.422714 2.59622,-0.697116 -1.55236,-2.873208 3.20291,-0.858864 z m -5.60741,1.503783 -4.38991,1.177708 -1.18546,4.425569 3.26388,0.0925 -0.49971,1.863453 0.42427,0.22634 0.55655,-2.076357 1.00666,0.02894 0.0682,0.07597 0.0315,-0.118338 -3.26388,-0.0925 1.18546,-4.425569 2.81636,-0.755509 z m 9.66246,2.551266 -1.11001,1.802993 0.98185,0.982885 1.11053,-1.80299 z m -5.14181,0.435634 -1.38647,0.372071 0.28783,0.532783 -0.60564,1.845366 1.22318,1.110009 0.45372,-1.382345 0.26251,-1.211294 0.1695,-0.105939 0.0842,-0.255797 z m 2.14354,1.066602 -0.32091,0.199988 -0.0248,0.113686 1.37666,1.377693 -0.55087,0.895554 -1.38131,0.289904 -0.0755,0.348816 3.04426,-0.63872 0.55087,-0.895554 -0.98186,-0.982369 -0.35398,0.574644 z m -6.90707,1.655712 -0.14004,0.521414 1.63349,1.824697 -1.95595,0.626316 0.59479,0.317812 2.94866,-0.944128 -2.07429,-2.317174 z m -5.64358,1.055748 -1.18287,4.411102 3.21479,3.215306 0.60719,-0.980302 -2.23448,-2.235004 0.98391,-3.670062 z m 15.01562,1.214398 v 5.16e-4 l -0.97927,0.326078 0.28732,0.154514 -0.61598,2.299599 0.37207,0.41393 0.66611,-2.487186 0.96583,0.518313 0.19947,-0.744656 z m 1.31775,0.707451 -0.19947,0.744656 1.49603,0.803051 0.19947,-0.744657 z m -7.22075,1.052131 -1.65985,0.352433 -0.50539,2.467549 0.71778,0.718302 0.72089,-0.446484 0.25166,-0.773079 z m 1.71462,0.468705 -0.35553,1.092956 1.07797,0.956532 0.0305,0.997355 -1.43195,0.384472 0.19947,0.37207 2.81998,-0.756542 -0.0305,-0.997355 z m -5.8415,1.977141 -0.2527,0.407725 0.93793,0.93793 -2.77916,1.721858 3.24373,3.244246 1.25212,-0.33538 -2.90835,-2.908866 2.77916,-1.721858 -0.60771,-0.607716 -0.5731,0.354499 z m 8.19795,1.55081 -1.57458,0.421161 0.0724,2.338358 0.24132,0.45062 1.34876,-0.361735 z" />
        </g>
        <g
           id="g16024-0-49-0-2"
           style="display:inline"
           transform="translate(28.315329,-1.2e-5)">
          <path
             fill="#000000"
             d="m 151.83738,51.583012 -4.45472,1.194835 1.55252,2.873166 -2.59636,0.696885 -0.10873,-3.261455 -4.38999,1.17771 -1.18551,4.42577 3.264,0.09266 -0.69816,2.604332 -2.87719,-1.535351 -1.18289,4.411314 3.21496,3.214954 1.72072,-2.779061 1.91813,1.918128 -2.77915,1.722035 3.24408,3.244075 4.39927,-1.178939 -1.54722,-2.883763 2.60823,-0.698157 0.10076,3.270653 4.43764,-1.189621 1.18564,-4.427042 -3.2707,-0.100717 0.6968,-2.601661 2.88377,1.54722 1.18301,-4.417843 -3.264,-3.26527 -1.71551,2.785759 -1.89159,-1.892991 2.77253,-1.727376 z m -2.67436,4.490625 0.48876,0.904764 -0.96962,2.955402 -2.29303,-2.081117 -0.0345,-1.025404 2.80831,-0.753687 z m 2.71557,0.710026 2.04657,2.047968 -0.55107,0.89548 -3.04399,0.638472 0.65563,-3.025557 z m -7.47914,2.012234 1.00676,0.02908 2.07446,2.316845 -2.94875,0.944525 -0.8876,-0.474255 0.75509,-2.816237 z m 9.37209,2.270386 0.89548,0.48091 -0.75369,2.813608 -1.01608,-0.03179 -2.05589,-2.286409 2.93022,-0.976232 z m -5.90275,1.759168 -0.61995,3.025599 -0.82787,0.512659 -2.07179,-2.073105 0.51266,-0.826597 3.00695,-0.638514 z m 1.71415,0.468998 2.31023,2.049282 0.0305,0.997427 -2.82031,0.756399 -0.47154,-0.879583 0.95114,-2.923525 z"
             id="path2-3-1-3-7-0"
             style="fill:#cc9900;fill-opacity:1;stroke-width:0.0423895" />
          <path
             id="path2-3-5-8-9-6-37"
             style="display:inline;fill:#b38a10;fill-opacity:1;stroke-width:0.0423894"
             d="m 151.83733,51.583044 -4.45451,1.194761 0.20102,0.371551 0.23358,-0.06253 0.0176,0.528135 1.10019,2.036051 -1.02268,0.274402 0.014,0.422714 2.59622,-0.697116 -1.55236,-2.873208 3.20291,-0.858864 z m -5.60741,1.503783 -4.38991,1.177708 -1.18546,4.425569 3.26388,0.0925 -0.49971,1.863453 0.42427,0.22634 0.55655,-2.076357 1.00666,0.02894 0.0682,0.07597 0.0315,-0.118338 -3.26388,-0.0925 1.18546,-4.425569 2.81636,-0.755509 z m 9.66246,2.551266 -1.11001,1.802993 0.98185,0.982885 1.11053,-1.80299 z m -5.14181,0.435634 -1.38647,0.372071 0.28783,0.532783 -0.60564,1.845366 1.22318,1.110009 0.45372,-1.382345 0.26251,-1.211294 0.1695,-0.105939 0.0842,-0.255797 z m 2.14354,1.066602 -0.32091,0.199988 -0.0248,0.113686 1.37666,1.377693 -0.55087,0.895554 -1.38131,0.289904 -0.0755,0.348816 3.04426,-0.63872 0.55087,-0.895554 -0.98186,-0.982369 -0.35398,0.574644 z m -6.90707,1.655712 -0.14004,0.521414 1.63349,1.824697 -1.95595,0.626316 0.59479,0.317812 2.94866,-0.944128 -2.07429,-2.317174 z m -5.64358,1.055748 -1.18287,4.411102 3.21479,3.215306 0.60719,-0.980302 -2.23448,-2.235004 0.98391,-3.670062 z m 15.01562,1.214398 v 5.16e-4 l -0.97927,0.326078 0.28732,0.154514 -0.61598,2.299599 0.37207,0.41393 0.66611,-2.487186 0.96583,0.518313 0.19947,-0.744656 z m 1.31775,0.707451 -0.19947,0.744656 1.49603,0.803051 0.19947,-0.744657 z m -7.22075,1.052131 -1.65985,0.352433 -0.50539,2.467549 0.71778,0.718302 0.72089,-0.446484 0.25166,-0.773079 z m 1.71462,0.468705 -0.35553,1.092956 1.07797,0.956532 0.0305,0.997355 -1.43195,0.384472 0.19947,0.37207 2.81998,-0.756542 -0.0305,-0.997355 z m -5.8415,1.977141 -0.2527,0.407725 0.93793,0.93793 -2.77916,1.721858 3.24373,3.244246 1.25212,-0.33538 -2.90835,-2.908866 2.77916,-1.721858 -0.60771,-0.607716 -0.5731,0.354499 z m 8.19795,1.55081 -1.57458,0.421161 0.0724,2.338358 0.24132,0.45062 1.34876,-0.361735 z" />
        </g>
      </g>
      <g
         id="g6-75-7-6"
         transform="matrix(0.0234375,0,0,0.0234375,80.572134,45.280115)"
         style="display:inline;fill:#2b95f5;fill-opacity:1">
        <path
           class="st0"
           d="m 511.976,213.063 -45.863,-9.749 31.374,-34.845 C 472.114,131.733 417.268,115.015 360.373,127.926 355.071,69.826 322.223,22.83 279.444,10.052 L 256,50.659 232.556,10.053 C 189.777,22.832 156.93,69.828 151.627,127.927 94.733,115.016 39.886,131.734 14.514,168.47 l 31.374,34.844 -45.864,9.749 c -1.066,44.634 33.479,90.396 87.097,113.393 -29.86,50.12 -30.91,107.448 -3.812,142.931 l 42.834,-19.071 -4.901,46.632 c 42.12,14.806 96.318,-3.907 134.758,-47.794 38.44,43.887 92.638,62.6 134.758,47.794 l -4.901,-46.632 42.835,19.072 c 27.097,-35.483 26.048,-92.811 -3.812,-142.932 53.617,-22.996 88.162,-68.759 87.096,-113.393 z m -196.599,83.322 c 3.526,-2.358 7.678,-3.63 11.998,-3.63 3.762,0 7.479,0.998 10.752,2.889 4.986,2.876 8.552,7.525 10.043,13.085 1.49,5.56 0.725,11.369 -2.156,16.353 -3.838,6.65 -10.996,10.781 -18.68,10.781 -3.765,0 -7.484,-1 -10.758,-2.89 -7.126,-4.116 -11.228,-12.025 -10.724,-20.072 l -40.32,-23.278 v 46.552 c 7.222,3.587 12.021,11.096 12.021,19.327 0,11.884 -9.669,21.551 -21.553,21.551 -11.884,0 -21.553,-9.667 -21.553,-21.551 0,-8.231 4.799,-15.74 12.021,-19.327 v -46.552 l -40.319,23.278 c 0.504,8.047 -3.598,15.956 -10.724,20.072 -3.275,1.889 -6.994,2.89 -10.758,2.89 -7.684,0 -14.842,-4.132 -18.682,-10.781 -2.878,-4.984 -3.644,-10.792 -2.154,-16.353 1.49,-5.56 5.057,-10.209 10.043,-13.087 3.272,-1.889 6.989,-2.887 10.752,-2.887 4.321,0 8.473,1.272 11.996,3.63 l 40.312,-23.274 -40.312,-23.272 c -3.523,2.359 -7.675,3.63 -11.996,3.63 -3.762,0 -7.479,-0.998 -10.752,-2.89 -4.986,-2.876 -8.552,-7.525 -10.043,-13.085 -1.49,-5.56 -0.724,-11.369 2.156,-16.353 3.838,-6.65 10.995,-10.781 18.68,-10.781 3.764,0 7.484,1 10.758,2.89 7.126,4.116 11.228,12.025 10.724,20.072 l 40.319,23.278 v -46.552 c -7.222,-3.587 -12.021,-11.096 -12.021,-19.327 0,-11.884 9.669,-21.551 21.553,-21.551 11.884,0 21.553,9.667 21.553,21.551 0,8.231 -4.799,15.74 -12.021,19.327 V 256.6 l 40.32,-23.278 c -0.504,-8.047 3.598,-15.956 10.724,-20.072 3.275,-1.889 6.994,-2.89 10.758,-2.89 7.684,0 14.842,4.132 18.682,10.781 2.878,4.984 3.644,10.792 2.154,16.353 -1.49,5.56 -5.057,10.209 -10.043,13.088 -3.272,1.889 -6.989,2.887 -10.752,2.887 -4.32,0 -8.472,-1.272 -11.998,-3.63 l -40.31,23.272 z"
           id="path4-1-5-9-7"
           style="fill:#2b95f5;fill-opacity:1" />
      </g>
      <g
         id="g6-2-7-0-3"
         transform="matrix(0.0234375,0,0,0.0234375,63.394148,39.213816)"
         style="display:inline;fill:#2b95f5;fill-opacity:1">
        <path
           class="st0"
           d="m 511.976,213.063 -45.863,-9.749 31.374,-34.845 C 472.114,131.733 417.268,115.015 360.373,127.926 355.071,69.826 322.223,22.83 279.444,10.052 L 256,50.659 232.556,10.053 C 189.777,22.832 156.93,69.828 151.627,127.927 94.733,115.016 39.886,131.734 14.514,168.47 l 31.374,34.844 -45.864,9.749 c -1.066,44.634 33.479,90.396 87.097,113.393 -29.86,50.12 -30.91,107.448 -3.812,142.931 l 42.834,-19.071 -4.901,46.632 c 42.12,14.806 96.318,-3.907 134.758,-47.794 38.44,43.887 92.638,62.6 134.758,47.794 l -4.901,-46.632 42.835,19.072 c 27.097,-35.483 26.048,-92.811 -3.812,-142.932 53.617,-22.996 88.162,-68.759 87.096,-113.393 z m -196.599,83.322 c 3.526,-2.358 7.678,-3.63 11.998,-3.63 3.762,0 7.479,0.998 10.752,2.889 4.986,2.876 8.552,7.525 10.043,13.085 1.49,5.56 0.725,11.369 -2.156,16.353 -3.838,6.65 -10.996,10.781 -18.68,10.781 -3.765,0 -7.484,-1 -10.758,-2.89 -7.126,-4.116 -11.228,-12.025 -10.724,-20.072 l -40.32,-23.278 v 46.552 c 7.222,3.587 12.021,11.096 12.021,19.327 0,11.884 -9.669,21.551 -21.553,21.551 -11.884,0 -21.553,-9.667 -21.553,-21.551 0,-8.231 4.799,-15.74 12.021,-19.327 v -46.552 l -40.319,23.278 c 0.504,8.047 -3.598,15.956 -10.724,20.072 -3.275,1.889 -6.994,2.89 -10.758,2.89 -7.684,0 -14.842,-4.132 -18.682,-10.781 -2.878,-4.984 -3.644,-10.792 -2.154,-16.353 1.49,-5.56 5.057,-10.209 10.043,-13.087 3.272,-1.889 6.989,-2.887 10.752,-2.887 4.321,0 8.473,1.272 11.996,3.63 l 40.312,-23.274 -40.312,-23.272 c -3.523,2.359 -7.675,3.63 -11.996,3.63 -3.762,0 -7.479,-0.998 -10.752,-2.89 -4.986,-2.876 -8.552,-7.525 -10.043,-13.085 -1.49,-5.56 -0.724,-11.369 2.156,-16.353 3.838,-6.65 10.995,-10.781 18.68,-10.781 3.764,0 7.484,1 10.758,2.89 7.126,4.116 11.228,12.025 10.724,20.072 l 40.319,23.278 v -46.552 c -7.222,-3.587 -12.021,-11.096 -12.021,-19.327 0,-11.884 9.669,-21.551 21.553,-21.551 11.884,0 21.553,9.667 21.553,21.551 0,8.231 -4.799,15.74 -12.021,19.327 V 256.6 l 40.32,-23.278 c -0.504,-8.047 3.598,-15.956 10.724,-20.072 3.275,-1.889 6.994,-2.89 10.758,-2.89 7.684,0 14.842,4.132 18.682,10.781 2.878,4.984 3.644,10.792 2.154,16.353 -1.49,5.56 -5.057,10.209 -10.043,13.088 -3.272,1.889 -6.989,2.887 -10.752,2.887 -4.32,0 -8.472,-1.272 -11.998,-3.63 l -40.31,23.272 z"
           id="path4-1-1-3-2-9"
           style="fill:#2b95f5;fill-opacity:1" />
      </g>
      <g
         id="g6-2-3-40-2-1"
         transform="matrix(0.0234375,0,0,0.0234375,48.430921,44.201603)"
         style="display:inline;fill:#2b95f5;fill-opacity:1">
        <path
           class="st0"
           d="m 511.976,213.063 -45.863,-9.749 31.374,-34.845 C 472.114,131.733 417.268,115.015 360.373,127.926 355.071,69.826 322.223,22.83 279.444,10.052 L 256,50.659 232.556,10.053 C 189.777,22.832 156.93,69.828 151.627,127.927 94.733,115.016 39.886,131.734 14.514,168.47 l 31.374,34.844 -45.864,9.749 c -1.066,44.634 33.479,90.396 87.097,113.393 -29.86,50.12 -30.91,107.448 -3.812,142.931 l 42.834,-19.071 -4.901,46.632 c 42.12,14.806 96.318,-3.907 134.758,-47.794 38.44,43.887 92.638,62.6 134.758,47.794 l -4.901,-46.632 42.835,19.072 c 27.097,-35.483 26.048,-92.811 -3.812,-142.932 53.617,-22.996 88.162,-68.759 87.096,-113.393 z m -196.599,83.322 c 3.526,-2.358 7.678,-3.63 11.998,-3.63 3.762,0 7.479,0.998 10.752,2.889 4.986,2.876 8.552,7.525 10.043,13.085 1.49,5.56 0.725,11.369 -2.156,16.353 -3.838,6.65 -10.996,10.781 -18.68,10.781 -3.765,0 -7.484,-1 -10.758,-2.89 -7.126,-4.116 -11.228,-12.025 -10.724,-20.072 l -40.32,-23.278 v 46.552 c 7.222,3.587 12.021,11.096 12.021,19.327 0,11.884 -9.669,21.551 -21.553,21.551 -11.884,0 -21.553,-9.667 -21.553,-21.551 0,-8.231 4.799,-15.74 12.021,-19.327 v -46.552 l -40.319,23.278 c 0.504,8.047 -3.598,15.956 -10.724,20.072 -3.275,1.889 -6.994,2.89 -10.758,2.89 -7.684,0 -14.842,-4.132 -18.682,-10.781 -2.878,-4.984 -3.644,-10.792 -2.154,-16.353 1.49,-5.56 5.057,-10.209 10.043,-13.087 3.272,-1.889 6.989,-2.887 10.752,-2.887 4.321,0 8.473,1.272 11.996,3.63 l 40.312,-23.274 -40.312,-23.272 c -3.523,2.359 -7.675,3.63 -11.996,3.63 -3.762,0 -7.479,-0.998 -10.752,-2.89 -4.986,-2.876 -8.552,-7.525 -10.043,-13.085 -1.49,-5.56 -0.724,-11.369 2.156,-16.353 3.838,-6.65 10.995,-10.781 18.68,-10.781 3.764,0 7.484,1 10.758,2.89 7.126,4.116 11.228,12.025 10.724,20.072 l 40.319,23.278 v -46.552 c -7.222,-3.587 -12.021,-11.096 -12.021,-19.327 0,-11.884 9.669,-21.551 21.553,-21.551 11.884,0 21.553,9.667 21.553,21.551 0,8.231 -4.799,15.74 -12.021,19.327 V 256.6 l 40.32,-23.278 c -0.504,-8.047 3.598,-15.956 10.724,-20.072 3.275,-1.889 6.994,-2.89 10.758,-2.89 7.684,0 14.842,4.132 18.682,10.781 2.878,4.984 3.644,10.792 2.154,16.353 -1.49,5.56 -5.057,10.209 -10.043,13.088 -3.272,1.889 -6.989,2.887 -10.752,2.887 -4.32,0 -8.472,-1.272 -11.998,-3.63 l -40.31,23.272 z"
           id="path4-1-1-7-7-8-9"
           style="fill:#2b95f5;fill-opacity:1" />
      </g>
    </g>
    <g
       id="g2469-0-1-3-3"
       style="display:inline"
       transform="matrix(0.754717,0,0,0.754717,16.740629,-26.431821)">
      <g
         id="g16088-3-9-5-6"
         transform="matrix(1.0970525,0,0,1.0970525,-112.63298,-9.184748)"
         style="display:inline">
        <g
           id="g16024-2-2-2-8">
          <path
             fill="#000000"
             d="m 151.83738,51.583012 -4.45472,1.194835 1.55252,2.873166 -2.59636,0.696885 -0.10873,-3.261455 -4.38999,1.17771 -1.18551,4.42577 3.264,0.09266 -0.69816,2.604332 -2.87719,-1.535351 -1.18289,4.411314 3.21496,3.214954 1.72072,-2.779061 1.91813,1.918128 -2.77915,1.722035 3.24408,3.244075 4.39927,-1.178939 -1.54722,-2.883763 2.60823,-0.698157 0.10076,3.270653 4.43764,-1.189621 1.18564,-4.427042 -3.2707,-0.100717 0.6968,-2.601661 2.88377,1.54722 1.18301,-4.417843 -3.264,-3.26527 -1.71551,2.785759 -1.89159,-1.892991 2.77253,-1.727376 z m -2.67436,4.490625 0.48876,0.904764 -0.96962,2.955402 -2.29303,-2.081117 -0.0345,-1.025404 2.80831,-0.753687 z m 2.71557,0.710026 2.04657,2.047968 -0.55107,0.89548 -3.04399,0.638472 0.65563,-3.025557 z m -7.47914,2.012234 1.00676,0.02908 2.07446,2.316845 -2.94875,0.944525 -0.8876,-0.474255 0.75509,-2.816237 z m 9.37209,2.270386 0.89548,0.48091 -0.75369,2.813608 -1.01608,-0.03179 -2.05589,-2.286409 2.93022,-0.976232 z m -5.90275,1.759168 -0.61995,3.025599 -0.82787,0.512659 -2.07179,-2.073105 0.51266,-0.826597 3.00695,-0.638514 z m 1.71415,0.468998 2.31023,2.049282 0.0305,0.997427 -2.82031,0.756399 -0.47154,-0.879583 0.95114,-2.923525 z"
             id="path2-3-53-2-4-9"
             style="fill:#cc9900;fill-opacity:1;stroke-width:0.0423895" />
          <path
             id="path2-3-5-3-1-4-3"
             style="display:inline;fill:#b38a10;fill-opacity:1;stroke-width:0.0423894"
             d="m 151.83733,51.583044 -4.45451,1.194761 0.20102,0.371551 0.23358,-0.06253 0.0176,0.528135 1.10019,2.036051 -1.02268,0.274402 0.014,0.422714 2.59622,-0.697116 -1.55236,-2.873208 3.20291,-0.858864 z m -5.60741,1.503783 -4.38991,1.177708 -1.18546,4.425569 3.26388,0.0925 -0.49971,1.863453 0.42427,0.22634 0.55655,-2.076357 1.00666,0.02894 0.0682,0.07597 0.0315,-0.118338 -3.26388,-0.0925 1.18546,-4.425569 2.81636,-0.755509 z m 9.66246,2.551266 -1.11001,1.802993 0.98185,0.982885 1.11053,-1.80299 z m -5.14181,0.435634 -1.38647,0.372071 0.28783,0.532783 -0.60564,1.845366 1.22318,1.110009 0.45372,-1.382345 0.26251,-1.211294 0.1695,-0.105939 0.0842,-0.255797 z m 2.14354,1.066602 -0.32091,0.199988 -0.0248,0.113686 1.37666,1.377693 -0.55087,0.895554 -1.38131,0.289904 -0.0755,0.348816 3.04426,-0.63872 0.55087,-0.895554 -0.98186,-0.982369 -0.35398,0.574644 z m -6.90707,1.655712 -0.14004,0.521414 1.63349,1.824697 -1.95595,0.626316 0.59479,0.317812 2.94866,-0.944128 -2.07429,-2.317174 z m -5.64358,1.055748 -1.18287,4.411102 3.21479,3.215306 0.60719,-0.980302 -2.23448,-2.235004 0.98391,-3.670062 z m 15.01562,1.214398 v 5.16e-4 l -0.97927,0.326078 0.28732,0.154514 -0.61598,2.299599 0.37207,0.41393 0.66611,-2.487186 0.96583,0.518313 0.19947,-0.744656 z m 1.31775,0.707451 -0.19947,0.744656 1.49603,0.803051 0.19947,-0.744657 z m -7.22075,1.052131 -1.65985,0.352433 -0.50539,2.467549 0.71778,0.718302 0.72089,-0.446484 0.25166,-0.773079 z m 1.71462,0.468705 -0.35553,1.092956 1.07797,0.956532 0.0305,0.997355 -1.43195,0.384472 0.19947,0.37207 2.81998,-0.756542 -0.0305,-0.997355 z m -5.8415,1.977141 -0.2527,0.407725 0.93793,0.93793 -2.77916,1.721858 3.24373,3.244246 1.25212,-0.33538 -2.90835,-2.908866 2.77916,-1.721858 -0.60771,-0.607716 -0.5731,0.354499 z m 8.19795,1.55081 -1.57458,0.421161 0.0724,2.338358 0.24132,0.45062 1.34876,-0.361735 z" />
        </g>
        <g
           id="g16024-7-4-1-2-0"
           style="display:inline"
           transform="translate(13.639481,-4.5465347)">
          <path
             fill="#000000"
             d="m 151.83738,51.583012 -4.45472,1.194835 1.55252,2.873166 -2.59636,0.696885 -0.10873,-3.261455 -4.38999,1.17771 -1.18551,4.42577 3.264,0.09266 -0.69816,2.604332 -2.87719,-1.535351 -1.18289,4.411314 3.21496,3.214954 1.72072,-2.779061 1.91813,1.918128 -2.77915,1.722035 3.24408,3.244075 4.39927,-1.178939 -1.54722,-2.883763 2.60823,-0.698157 0.10076,3.270653 4.43764,-1.189621 1.18564,-4.427042 -3.2707,-0.100717 0.6968,-2.601661 2.88377,1.54722 1.18301,-4.417843 -3.264,-3.26527 -1.71551,2.785759 -1.89159,-1.892991 2.77253,-1.727376 z m -2.67436,4.490625 0.48876,0.904764 -0.96962,2.955402 -2.29303,-2.081117 -0.0345,-1.025404 2.80831,-0.753687 z m 2.71557,0.710026 2.04657,2.047968 -0.55107,0.89548 -3.04399,0.638472 0.65563,-3.025557 z m -7.47914,2.012234 1.00676,0.02908 2.07446,2.316845 -2.94875,0.944525 -0.8876,-0.474255 0.75509,-2.816237 z m 9.37209,2.270386 0.89548,0.48091 -0.75369,2.813608 -1.01608,-0.03179 -2.05589,-2.286409 2.93022,-0.976232 z m -5.90275,1.759168 -0.61995,3.025599 -0.82787,0.512659 -2.07179,-2.073105 0.51266,-0.826597 3.00695,-0.638514 z m 1.71415,0.468998 2.31023,2.049282 0.0305,0.997427 -2.82031,0.756399 -0.47154,-0.879583 0.95114,-2.923525 z"
             id="path2-3-9-9-0-6-5"
             style="fill:#cc9900;fill-opacity:1;stroke-width:0.0423895" />
          <path
             id="path2-3-5-1-2-2-0-3"
             style="display:inline;fill:#b38a10;fill-opacity:1;stroke-width:0.0423894"
             d="m 151.83733,51.583044 -4.45451,1.194761 0.20102,0.371551 0.23358,-0.06253 0.0176,0.528135 1.10019,2.036051 -1.02268,0.274402 0.014,0.422714 2.59622,-0.697116 -1.55236,-2.873208 3.20291,-0.858864 z m -5.60741,1.503783 -4.38991,1.177708 -1.18546,4.425569 3.26388,0.0925 -0.49971,1.863453 0.42427,0.22634 0.55655,-2.076357 1.00666,0.02894 0.0682,0.07597 0.0315,-0.118338 -3.26388,-0.0925 1.18546,-4.425569 2.81636,-0.755509 z m 9.66246,2.551266 -1.11001,1.802993 0.98185,0.982885 1.11053,-1.80299 z m -5.14181,0.435634 -1.38647,0.372071 0.28783,0.532783 -0.60564,1.845366 1.22318,1.110009 0.45372,-1.382345 0.26251,-1.211294 0.1695,-0.105939 0.0842,-0.255797 z m 2.14354,1.066602 -0.32091,0.199988 -0.0248,0.113686 1.37666,1.377693 -0.55087,0.895554 -1.38131,0.289904 -0.0755,0.348816 3.04426,-0.63872 0.55087,-0.895554 -0.98186,-0.982369 -0.35398,0.574644 z m -6.90707,1.655712 -0.14004,0.521414 1.63349,1.824697 -1.95595,0.626316 0.59479,0.317812 2.94866,-0.944128 -2.07429,-2.317174 z m -5.64358,1.055748 -1.18287,4.411102 3.21479,3.215306 0.60719,-0.980302 -2.23448,-2.235004 0.98391,-3.670062 z m 15.01562,1.214398 v 5.16e-4 l -0.97927,0.326078 0.28732,0.154514 -0.61598,2.299599 0.37207,0.41393 0.66611,-2.487186 0.96583,0.518313 0.19947,-0.744656 z m 1.31775,0.707451 -0.19947,0.744656 1.49603,0.803051 0.19947,-0.744657 z m -7.22075,1.052131 -1.65985,0.352433 -0.50539,2.467549 0.71778,0.718302 0.72089,-0.446484 0.25166,-0.773079 z m 1.71462,0.468705 -0.35553,1.092956 1.07797,0.956532 0.0305,0.997355 -1.43195,0.384472 0.19947,0.37207 2.81998,-0.756542 -0.0305,-0.997355 z m -5.8415,1.977141 -0.2527,0.407725 0.93793,0.93793 -2.77916,1.721858 3.24373,3.244246 1.25212,-0.33538 -2.90835,-2.908866 2.77916,-1.721858 -0.60771,-0.607716 -0.5731,0.354499 z m 8.19795,1.55081 -1.57458,0.421161 0.0724,2.338358 0.24132,0.45062 1.34876,-0.361735 z" />
        </g>
        <g
           id="g16024-0-49-0-2-9"
           style="display:inline"
           transform="translate(28.315329,-1.2e-5)">
          <path
             fill="#000000"
             d="m 151.83738,51.583012 -4.45472,1.194835 1.55252,2.873166 -2.59636,0.696885 -0.10873,-3.261455 -4.38999,1.17771 -1.18551,4.42577 3.264,0.09266 -0.69816,2.604332 -2.87719,-1.535351 -1.18289,4.411314 3.21496,3.214954 1.72072,-2.779061 1.91813,1.918128 -2.77915,1.722035 3.24408,3.244075 4.39927,-1.178939 -1.54722,-2.883763 2.60823,-0.698157 0.10076,3.270653 4.43764,-1.189621 1.18564,-4.427042 -3.2707,-0.100717 0.6968,-2.601661 2.88377,1.54722 1.18301,-4.417843 -3.264,-3.26527 -1.71551,2.785759 -1.89159,-1.892991 2.77253,-1.727376 z m -2.67436,4.490625 0.48876,0.904764 -0.96962,2.955402 -2.29303,-2.081117 -0.0345,-1.025404 2.80831,-0.753687 z m 2.71557,0.710026 2.04657,2.047968 -0.55107,0.89548 -3.04399,0.638472 0.65563,-3.025557 z m -7.47914,2.012234 1.00676,0.02908 2.07446,2.316845 -2.94875,0.944525 -0.8876,-0.474255 0.75509,-2.816237 z m 9.37209,2.270386 0.89548,0.48091 -0.75369,2.813608 -1.01608,-0.03179 -2.05589,-2.286409 2.93022,-0.976232 z m -5.90275,1.759168 -0.61995,3.025599 -0.82787,0.512659 -2.07179,-2.073105 0.51266,-0.826597 3.00695,-0.638514 z m 1.71415,0.468998 2.31023,2.049282 0.0305,0.997427 -2.82031,0.756399 -0.47154,-0.879583 0.95114,-2.923525 z"
             id="path2-3-1-3-7-0-2"
             style="fill:#cc9900;fill-opacity:1;stroke-width:0.0423895" />
          <path
             id="path2-3-5-8-9-6-37-1"
             style="display:inline;fill:#b38a10;fill-opacity:1;stroke-width:0.0423894"
             d="m 151.83733,51.583044 -4.45451,1.194761 0.20102,0.371551 0.23358,-0.06253 0.0176,0.528135 1.10019,2.036051 -1.02268,0.274402 0.014,0.422714 2.59622,-0.697116 -1.55236,-2.873208 3.20291,-0.858864 z m -5.60741,1.503783 -4.38991,1.177708 -1.18546,4.425569 3.26388,0.0925 -0.49971,1.863453 0.42427,0.22634 0.55655,-2.076357 1.00666,0.02894 0.0682,0.07597 0.0315,-0.118338 -3.26388,-0.0925 1.18546,-4.425569 2.81636,-0.755509 z m 9.66246,2.551266 -1.11001,1.802993 0.98185,0.982885 1.11053,-1.80299 z m -5.14181,0.435634 -1.38647,0.372071 0.28783,0.532783 -0.60564,1.845366 1.22318,1.110009 0.45372,-1.382345 0.26251,-1.211294 0.1695,-0.105939 0.0842,-0.255797 z m 2.14354,1.066602 -0.32091,0.199988 -0.0248,0.113686 1.37666,1.377693 -0.55087,0.895554 -1.38131,0.289904 -0.0755,0.348816 3.04426,-0.63872 0.55087,-0.895554 -0.98186,-0.982369 -0.35398,0.574644 z m -6.90707,1.655712 -0.14004,0.521414 1.63349,1.824697 -1.95595,0.626316 0.59479,0.317812 2.94866,-0.944128 -2.07429,-2.317174 z m -5.64358,1.055748 -1.18287,4.411102 3.21479,3.215306 0.60719,-0.980302 -2.23448,-2.235004 0.98391,-3.670062 z m 15.01562,1.214398 v 5.16e-4 l -0.97927,0.326078 0.28732,0.154514 -0.61598,2.299599 0.37207,0.41393 0.66611,-2.487186 0.96583,0.518313 0.19947,-0.744656 z m 1.31775,0.707451 -0.19947,0.744656 1.49603,0.803051 0.19947,-0.744657 z m -7.22075,1.052131 -1.65985,0.352433 -0.50539,2.467549 0.71778,0.718302 0.72089,-0.446484 0.25166,-0.773079 z m 1.71462,0.468705 -0.35553,1.092956 1.07797,0.956532 0.0305,0.997355 -1.43195,0.384472 0.19947,0.37207 2.81998,-0.756542 -0.0305,-0.997355 z m -5.8415,1.977141 -0.2527,0.407725 0.93793,0.93793 -2.77916,1.721858 3.24373,3.244246 1.25212,-0.33538 -2.90835,-2.908866 2.77916,-1.721858 -0.60771,-0.607716 -0.5731,0.354499 z m 8.19795,1.55081 -1.57458,0.421161 0.0724,2.338358 0.24132,0.45062 1.34876,-0.361735 z" />
        </g>
      </g>
      <g
         id="g6-75-7-6-2"
         transform="matrix(0.0234375,0,0,0.0234375,80.572134,45.280115)"
         style="display:inline;fill:#2b95f5;fill-opacity:1">
        <path
           class="st0"
           d="m 511.976,213.063 -45.863,-9.749 31.374,-34.845 C 472.114,131.733 417.268,115.015 360.373,127.926 355.071,69.826 322.223,22.83 279.444,10.052 L 256,50.659 232.556,10.053 C 189.777,22.832 156.93,69.828 151.627,127.927 94.733,115.016 39.886,131.734 14.514,168.47 l 31.374,34.844 -45.864,9.749 c -1.066,44.634 33.479,90.396 87.097,113.393 -29.86,50.12 -30.91,107.448 -3.812,142.931 l 42.834,-19.071 -4.901,46.632 c 42.12,14.806 96.318,-3.907 134.758,-47.794 38.44,43.887 92.638,62.6 134.758,47.794 l -4.901,-46.632 42.835,19.072 c 27.097,-35.483 26.048,-92.811 -3.812,-142.932 53.617,-22.996 88.162,-68.759 87.096,-113.393 z m -196.599,83.322 c 3.526,-2.358 7.678,-3.63 11.998,-3.63 3.762,0 7.479,0.998 10.752,2.889 4.986,2.876 8.552,7.525 10.043,13.085 1.49,5.56 0.725,11.369 -2.156,16.353 -3.838,6.65 -10.996,10.781 -18.68,10.781 -3.765,0 -7.484,-1 -10.758,-2.89 -7.126,-4.116 -11.228,-12.025 -10.724,-20.072 l -40.32,-23.278 v 46.552 c 7.222,3.587 12.021,11.096 12.021,19.327 0,11.884 -9.669,21.551 -21.553,21.551 -11.884,0 -21.553,-9.667 -21.553,-21.551 0,-8.231 4.799,-15.74 12.021,-19.327 v -46.552 l -40.319,23.278 c 0.504,8.047 -3.598,15.956 -10.724,20.072 -3.275,1.889 -6.994,2.89 -10.758,2.89 -7.684,0 -14.842,-4.132 -18.682,-10.781 -2.878,-4.984 -3.644,-10.792 -2.154,-16.353 1.49,-5.56 5.057,-10.209 10.043,-13.087 3.272,-1.889 6.989,-2.887 10.752,-2.887 4.321,0 8.473,1.272 11.996,3.63 l 40.312,-23.274 -40.312,-23.272 c -3.523,2.359 -7.675,3.63 -11.996,3.63 -3.762,0 -7.479,-0.998 -10.752,-2.89 -4.986,-2.876 -8.552,-7.525 -10.043,-13.085 -1.49,-5.56 -0.724,-11.369 2.156,-16.353 3.838,-6.65 10.995,-10.781 18.68,-10.781 3.764,0 7.484,1 10.758,2.89 7.126,4.116 11.228,12.025 10.724,20.072 l 40.319,23.278 v -46.552 c -7.222,-3.587 -12.021,-11.096 -12.021,-19.327 0,-11.884 9.669,-21.551 21.553,-21.551 11.884,0 21.553,9.667 21.553,21.551 0,8.231 -4.799,15.74 -12.021,19.327 V 256.6 l 40.32,-23.278 c -0.504,-8.047 3.598,-15.956 10.724,-20.072 3.275,-1.889 6.994,-2.89 10.758,-2.89 7.684,0 14.842,4.132 18.682,10.781 2.878,4.984 3.644,10.792 2.154,16.353 -1.49,5.56 -5.057,10.209 -10.043,13.088 -3.272,1.889 -6.989,2.887 -10.752,2.887 -4.32,0 -8.472,-1.272 -11.998,-3.63 l -40.31,23.272 z"
           id="path4-1-5-9-7-6"
           style="fill:#2b95f5;fill-opacity:1" />
      </g>
      <g
         id="g6-2-7-0-3-5"
         transform="matrix(0.0234375,0,0,0.0234375,63.394148,39.213816)"
         style="display:inline;fill:#2b95f5;fill-opacity:1">
        <path
           class="st0"
           d="m 511.976,213.063 -45.863,-9.749 31.374,-34.845 C 472.114,131.733 417.268,115.015 360.373,127.926 355.071,69.826 322.223,22.83 279.444,10.052 L 256,50.659 232.556,10.053 C 189.777,22.832 156.93,69.828 151.627,127.927 94.733,115.016 39.886,131.734 14.514,168.47 l 31.374,34.844 -45.864,9.749 c -1.066,44.634 33.479,90.396 87.097,113.393 -29.86,50.12 -30.91,107.448 -3.812,142.931 l 42.834,-19.071 -4.901,46.632 c 42.12,14.806 96.318,-3.907 134.758,-47.794 38.44,43.887 92.638,62.6 134.758,47.794 l -4.901,-46.632 42.835,19.072 c 27.097,-35.483 26.048,-92.811 -3.812,-142.932 53.617,-22.996 88.162,-68.759 87.096,-113.393 z m -196.599,83.322 c 3.526,-2.358 7.678,-3.63 11.998,-3.63 3.762,0 7.479,0.998 10.752,2.889 4.986,2.876 8.552,7.525 10.043,13.085 1.49,5.56 0.725,11.369 -2.156,16.353 -3.838,6.65 -10.996,10.781 -18.68,10.781 -3.765,0 -7.484,-1 -10.758,-2.89 -7.126,-4.116 -11.228,-12.025 -10.724,-20.072 l -40.32,-23.278 v 46.552 c 7.222,3.587 12.021,11.096 12.021,19.327 0,11.884 -9.669,21.551 -21.553,21.551 -11.884,0 -21.553,-9.667 -21.553,-21.551 0,-8.231 4.799,-15.74 12.021,-19.327 v -46.552 l -40.319,23.278 c 0.504,8.047 -3.598,15.956 -10.724,20.072 -3.275,1.889 -6.994,2.89 -10.758,2.89 -7.684,0 -14.842,-4.132 -18.682,-10.781 -2.878,-4.984 -3.644,-10.792 -2.154,-16.353 1.49,-5.56 5.057,-10.209 10.043,-13.087 3.272,-1.889 6.989,-2.887 10.752,-2.887 4.321,0 8.473,1.272 11.996,3.63 l 40.312,-23.274 -40.312,-23.272 c -3.523,2.359 -7.675,3.63 -11.996,3.63 -3.762,0 -7.479,-0.998 -10.752,-2.89 -4.986,-2.876 -8.552,-7.525 -10.043,-13.085 -1.49,-5.56 -0.724,-11.369 2.156,-16.353 3.838,-6.65 10.995,-10.781 18.68,-10.781 3.764,0 7.484,1 10.758,2.89 7.126,4.116 11.228,12.025 10.724,20.072 l 40.319,23.278 v -46.552 c -7.222,-3.587 -12.021,-11.096 -12.021,-19.327 0,-11.884 9.669,-21.551 21.553,-21.551 11.884,0 21.553,9.667 21.553,21.551 0,8.231 -4.799,15.74 -12.021,19.327 V 256.6 l 40.32,-23.278 c -0.504,-8.047 3.598,-15.956 10.724,-20.072 3.275,-1.889 6.994,-2.89 10.758,-2.89 7.684,0 14.842,4.132 18.682,10.781 2.878,4.984 3.644,10.792 2.154,16.353 -1.49,5.56 -5.057,10.209 -10.043,13.088 -3.272,1.889 -6.989,2.887 -10.752,2.887 -4.32,0 -8.472,-1.272 -11.998,-3.63 l -40.31,23.272 z"
           id="path4-1-1-3-2-9-5"
           style="fill:#2b95f5;fill-opacity:1" />
      </g>
      <g
         id="g6-2-3-40-2-1-1"
         transform="matrix(0.0234375,0,0,0.0234375,48.430921,44.201603)"
         style="display:inline;fill:#2b95f5;fill-opacity:1">
        <path
           class="st0"
           d="m 511.976,213.063 -45.863,-9.749 31.374,-34.845 C 472.114,131.733 417.268,115.015 360.373,127.926 355.071,69.826 322.223,22.83 279.444,10.052 L 256,50.659 232.556,10.053 C 189.777,22.832 156.93,69.828 151.627,127.927 94.733,115.016 39.886,131.734 14.514,168.47 l 31.374,34.844 -45.864,9.749 c -1.066,44.634 33.479,90.396 87.097,113.393 -29.86,50.12 -30.91,107.448 -3.812,142.931 l 42.834,-19.071 -4.901,46.632 c 42.12,14.806 96.318,-3.907 134.758,-47.794 38.44,43.887 92.638,62.6 134.758,47.794 l -4.901,-46.632 42.835,19.072 c 27.097,-35.483 26.048,-92.811 -3.812,-142.932 53.617,-22.996 88.162,-68.759 87.096,-113.393 z m -196.599,83.322 c 3.526,-2.358 7.678,-3.63 11.998,-3.63 3.762,0 7.479,0.998 10.752,2.889 4.986,2.876 8.552,7.525 10.043,13.085 1.49,5.56 0.725,11.369 -2.156,16.353 -3.838,6.65 -10.996,10.781 -18.68,10.781 -3.765,0 -7.484,-1 -10.758,-2.89 -7.126,-4.116 -11.228,-12.025 -10.724,-20.072 l -40.32,-23.278 v 46.552 c 7.222,3.587 12.021,11.096 12.021,19.327 0,11.884 -9.669,21.551 -21.553,21.551 -11.884,0 -21.553,-9.667 -21.553,-21.551 0,-8.231 4.799,-15.74 12.021,-19.327 v -46.552 l -40.319,23.278 c 0.504,8.047 -3.598,15.956 -10.724,20.072 -3.275,1.889 -6.994,2.89 -10.758,2.89 -7.684,0 -14.842,-4.132 -18.682,-10.781 -2.878,-4.984 -3.644,-10.792 -2.154,-16.353 1.49,-5.56 5.057,-10.209 10.043,-13.087 3.272,-1.889 6.989,-2.887 10.752,-2.887 4.321,0 8.473,1.272 11.996,3.63 l 40.312,-23.274 -40.312,-23.272 c -3.523,2.359 -7.675,3.63 -11.996,3.63 -3.762,0 -7.479,-0.998 -10.752,-2.89 -4.986,-2.876 -8.552,-7.525 -10.043,-13.085 -1.49,-5.56 -0.724,-11.369 2.156,-16.353 3.838,-6.65 10.995,-10.781 18.68,-10.781 3.764,0 7.484,1 10.758,2.89 7.126,4.116 11.228,12.025 10.724,20.072 l 40.319,23.278 v -46.552 c -7.222,-3.587 -12.021,-11.096 -12.021,-19.327 0,-11.884 9.669,-21.551 21.553,-21.551 11.884,0 21.553,9.667 21.553,21.551 0,8.231 -4.799,15.74 -12.021,19.327 V 256.6 l 40.32,-23.278 c -0.504,-8.047 3.598,-15.956 10.724,-20.072 3.275,-1.889 6.994,-2.89 10.758,-2.89 7.684,0 14.842,4.132 18.682,10.781 2.878,4.984 3.644,10.792 2.154,16.353 -1.49,5.56 -5.057,10.209 -10.043,13.088 -3.272,1.889 -6.989,2.887 -10.752,2.887 -4.32,0 -8.472,-1.272 -11.998,-3.63 l -40.31,23.272 z"
           id="path4-1-1-7-7-8-9-9"
           style="fill:#2b95f5;fill-opacity:1" />
      </g>
    </g>
  </g>
</svg>
