<?xml version="1.0" encoding="UTF-8" standalone="no"?>
<!-- Created with Inkscape (http://www.inkscape.org/) -->

<svg
   width="500"
   height="500"
   viewBox="0 0 132.29166 132.29167"
   version="1.1"
   id="svg2515"
   inkscape:version="1.1.2 (b8e25be833, 2022-02-05)"
   sodipodi:docname="bonsai10s06blooming.svg"
   inkscape:export-filename="C:\Users\Lenovo\Desktop\Coding\Media files\Bonsais\bonsai10.png"
   inkscape:export-xdpi="96"
   inkscape:export-ydpi="96"
   xmlns:inkscape="http://www.inkscape.org/namespaces/inkscape"
   xmlns:sodipodi="http://sodipodi.sourceforge.net/DTD/sodipodi-0.dtd"
   xmlns="http://www.w3.org/2000/svg"
   xmlns:svg="http://www.w3.org/2000/svg">
  <sodipodi:namedview
     id="namedview2517"
     pagecolor="#ffffff"
     bordercolor="#666666"
     borderopacity="1.0"
     inkscape:pageshadow="2"
     inkscape:pageopacity="0.0"
     inkscape:pagecheckerboard="0"
     inkscape:document-units="mm"
     showgrid="false"
     units="px"
     inkscape:zoom="1.4142136"
     inkscape:cx="272.58966"
     inkscape:cy="245.7196"
     inkscape:window-width="1920"
     inkscape:window-height="1001"
     inkscape:window-x="-9"
     inkscape:window-y="-9"
     inkscape:window-maximized="1"
     inkscape:current-layer="g17992" />
  <defs
     id="defs2512">
    <marker
       style="overflow:visible"
       id="Arrow1Sstart"
       refX="0.0"
       refY="0.0"
       orient="auto"
       inkscape:stockid="Arrow1Sstart"
       inkscape:isstock="true">
      <path
         transform="scale(0.2) translate(6,0)"
         style="fill-rule:evenodd;fill:context-stroke;stroke:context-stroke;stroke-width:1.0pt"
         d="M 0.0,0.0 L 5.0,-5.0 L -12.5,0.0 L 5.0,5.0 L 0.0,0.0 z "
         id="path24092" />
    </marker>
    <marker
       style="overflow:visible"
       id="Arrow1Mstart"
       refX="0.0"
       refY="0.0"
       orient="auto"
       inkscape:stockid="Arrow1Mstart"
       inkscape:isstock="true">
      <path
         transform="scale(0.4) translate(10,0)"
         style="fill-rule:evenodd;fill:context-stroke;stroke:context-stroke;stroke-width:1.0pt"
         d="M 0.0,0.0 L 5.0,-5.0 L -12.5,0.0 L 5.0,5.0 L 0.0,0.0 z "
         id="path24086" />
    </marker>
    <marker
       style="overflow:visible"
       id="Arrow1Lstart"
       refX="0.0"
       refY="0.0"
       orient="auto"
       inkscape:stockid="Arrow1Lstart"
       inkscape:isstock="true">
      <path
         transform="scale(0.8) translate(12.5,0)"
         style="fill-rule:evenodd;fill:context-stroke;stroke:context-stroke;stroke-width:1.0pt"
         d="M 0.0,0.0 L 5.0,-5.0 L -12.5,0.0 L 5.0,5.0 L 0.0,0.0 z "
         id="path24080" />
    </marker>
    <marker
       style="overflow:visible;"
       id="Arrow1Lend"
       refX="0.0"
       refY="0.0"
       orient="auto"
       inkscape:stockid="Arrow1Lend"
       inkscape:isstock="true">
      <path
         transform="scale(0.8) rotate(180) translate(12.5,0)"
         style="fill-rule:evenodd;fill:context-stroke;stroke:context-stroke;stroke-width:1.0pt;"
         d="M 0.0,0.0 L 5.0,-5.0 L -12.5,0.0 L 5.0,5.0 L 0.0,0.0 z "
         id="path24083" />
    </marker>
  </defs>
  <g
     inkscape:label="Full Cascade Style"
     inkscape:groupmode="layer"
     id="g17992"
     style="display:inline">
    <g
       id="g17906"
       transform="translate(127.33453,24.975281)">
      <path
         style="fill:#bb695d;fill-opacity:1;stroke:#bb695d;stroke-width:1;stroke-linecap:round;stroke-linejoin:round;stroke-miterlimit:4;stroke-dasharray:none;stroke-opacity:1"
         d="m -99.500015,30.838997 c 0,0 3.638799,-12.735798 11.176313,-18.453912 7.537513,-5.7181136 12.496916,-8.4784226 23.142885,-10.0872826 10.645968,-1.60885902 11.594881,-2.51410402 19.483052,-1.089031 7.888169,1.425072 21.667403,2.638059 27.063051,17.1643086 6.81601,18.350201 6.7258,20.263344 4.38657,25.721542 -2.33923,5.458201 -12.829945,17.760783 -15.334937,20.793141 -4.938372,5.978028 -5.458199,8.317257 -3.118973,13.255629 0.330604,2.90298 6.162124,16.3246 -1.302394,6.77885 -6.495032,-13.276708 -1.296749,-18.994823 1.822223,-22.893535 3.118972,-3.898715 15.179241,-16.422587 15.075031,-22.61254 -0.10422,-6.189957 -5.4582,-19.233654 -7.277605,-20.013397 -1.819399,-0.779743 -7.017683,-14.5551986 -26.771164,-12.7357996 -19.753485,1.819402 -19.233657,3.3788866 -25.211683,9.6168266 -5.152861,5.376899 -9.876742,12.21597 -7.277599,14.035371 2.599142,1.8194 -15.85477,0.519829 -15.85477,0.519829 z"
         id="path17902"
         sodipodi:nodetypes="cssssssccssssssc" />
      <path
         id="path17904"
         style="display:inline;fill:#954b45;fill-opacity:1;stroke:#954b45;stroke-width:3.77953;stroke-linecap:round;stroke-linejoin:round;stroke-miterlimit:4;stroke-dasharray:none;stroke-opacity:1"
         d="m -198.50781,1.9003906 c -11.86585,0.2218352 -22.69775,2.9847019 -47.84571,6.7851563 -40.23673,6.0807311 -58.98051,16.5132281 -87.46875,38.1250001 -28.48824,21.611769 -42.24023,69.746093 -42.24023,69.746093 0,0 4.05066,0.25117 7.5293,0.46289 4.26508,-12.64023 17.66416,-47.519947 40.73437,-65.021483 28.48824,-21.611765 47.23397,-32.044269 87.47071,-38.125 40.23672,-6.0807282 43.82315,-9.5013383 73.63671,-4.1152345 20.11821,3.6345445 50.36393,6.9268215 74.181644,25.5390625 C -117.04264,12.062664 -150.85821,8.5173186 -172.7168,4.5683594 -183.89688,2.5485708 -191.3883,1.7672895 -198.50781,1.9003906 Z m 85.4707,47.4980474 c 12.08952,11.359811 17.783837,22.610761 20.875001,23.935546 6.876491,2.947061 27.111957,52.245516 27.505859,75.640626 0.393865,23.3951 -45.18832,70.72954 -56.97656,85.46484 -11.78824,14.73529 -31.43683,36.34766 -6.88867,86.52735 6.32744,8.09164 10.12193,11.80717 12.19531,12.59375 -1.72535,-1.89721 -3.75185,-4.31148 -6.17188,-7.40625 -24.54815,-50.17969 -4.89957,-71.79206 6.88867,-86.52735 11.78825,-14.7353 57.370432,-62.06974 56.976568,-85.46484 C -59.026715,130.767 -79.262181,81.468545 -86.138672,78.521484 -89.703333,76.993771 -96.724636,62.271435 -113.03711,49.398438 Z"
         transform="scale(0.26458333)" />
    </g>
    <g
       id="g2087-2-0-1-1-3-7-0"
       transform="matrix(0.74984437,0,0,-0.22767039,-1991.0075,157.10054)"
       style="display:inline">
      <path
         d="m 2662.48,435.21 h 113.68 l 0.22,0.11 c 0.01,-0.04 0.03,-0.07 0.06,-0.11 4.05,-8.37 6.33,-17.76 6.33,-27.67 0,-16.4 -6.22,-31.35 -16.43,-42.61 -5.13,-5.66 -12.45,-8.83 -20.09,-8.83 h -53.87 c -7.63,0 -14.95,3.17 -20.08,8.83 -10.21,11.26 -16.44,26.21 -16.44,42.61 0,9.91 2.28,19.3 6.34,27.67 0.02,0.04 0.03,0.07 0.05,0.11 l 0.23,-0.11 v 0"
         style="fill:#b0a7c9;fill-opacity:1;fill-rule:nonzero;stroke:none;stroke-width:0.1"
         id="path800-2-7-5-6-0-6" />
      <path
         d="m 2759.74,456.46 h -80.85 c -6.94,-5.76 -12.64,-12.96 -16.64,-21.14 l 0.23,-0.11 h 113.68 l 0.22,0.11 c -3.99,8.18 -9.69,15.38 -16.64,21.14"
         style="fill:#e06475;fill-opacity:1;fill-rule:nonzero;stroke:none;stroke-width:0.1"
         id="path802-7-8-3-2-7-0" />
      <path
         d="m 2686.3,364.93 c -10.21,11.26 -16.43,26.21 -16.43,42.61 0,9.91 2.27,19.3 6.33,27.67 h -13.72 l -0.23,0.11 c -0.02,-0.04 -0.03,-0.07 -0.05,-0.11 -4.06,-8.37 -6.34,-17.76 -6.34,-27.67 0,-16.4 6.23,-31.35 16.44,-42.61 5.13,-5.66 12.45,-8.83 20.08,-8.83 h 14 c -7.63,0 -14.95,3.17 -20.08,8.83"
         style="fill:#807ca8;fill-opacity:1;fill-rule:nonzero;stroke:none;stroke-width:0.1"
         id="path832-0-7-9-8-0-6" />
      <path
         d="m 2692.9,456.46 h -14.01 c -6.94,-5.76 -12.64,-12.96 -16.64,-21.14 l 0.23,-0.11 h 14 l -0.22,0.11 c 3.99,8.18 9.69,15.38 16.64,21.14"
         style="fill:#ba4754;fill-opacity:1;fill-rule:nonzero;stroke:none;stroke-width:0.1"
         id="path834-8-4-6-5-9-9" />
    </g>
    <g
       id="g2402-0-7-3-2-7-6"
       style="display:inline"
       transform="translate(-0.271558,-36.048293)">
      <g
         id="g80849-6-0-8-3-5-0"
         transform="matrix(0.90290827,0,0,0.90290827,-55.445709,-12.289123)"
         style="display:inline">
        <g
           id="g80785-1-1-7-0-6-2"
           transform="translate(-17.025069,46.585079)">
          <path
             d="m 146.85461,18.019882 c -2.52835,0.17383 -20.29122,1.865253 -21.53293,14.043594 -0.15088,1.30177 -0.23633,2.6094 -0.29248,3.918007 l 8.73397,-8.725183 c 0.30518,-0.305179 0.80079,-0.305179 1.10597,0 0.30518,0.305179 0.30518,0.799813 0,1.104991 l -12.67102,12.658327 c -0.45801,0.457524 -0.45801,1.199719 0,1.657243 0.45801,0.457523 1.20069,0.457523 1.65919,0 l 2.78958,-2.786649 c 2.0552,-0.0068 4.10893,-0.123536 6.15045,-0.359378 2.61136,-0.265627 4.73735,-1.292494 6.4737,-2.760769 h -4.92925 l 7.16755,-2.386742 c 0.54932,-0.727058 1.04347,-1.499527 1.48683,-2.300804 h -3.96195 l 5.2022,-2.59817 c 2.0464,-4.977099 2.52981,-10.182228 2.61819,-11.464467 z"
             id="path2-90-53-3-9-6-0-5"
             style="fill:#92d050;fill-opacity:1;stroke-width:0.0488285" />
          <path
             id="path2-90-1-74-3-5-8-7-8"
             style="display:inline;fill:#68923b;fill-opacity:1;stroke-width:0.0488286"
             d="m 146.85474,18.020304 c -2.52835,0.173832 -20.29134,1.865247 -21.53305,14.043589 -0.15088,1.301768 -0.23634,2.608982 -0.29249,3.91759 l 3.41168,-3.408061 c 0.0175,-0.169963 0.0361,-0.339757 0.0558,-0.509529 0.98731,-9.683234 12.41304,-12.73433 18.32705,-13.666351 0.0109,-0.131085 0.0247,-0.285112 0.031,-0.377238 z m -9.36377,9.007203 c -0.2002,0 -0.40034,0.07634 -0.55294,0.228925 l -8.73383,8.725051 c 0.0145,-0.337502 0.0311,-0.674537 0.0501,-1.011825 l -6.05648,6.050277 c -0.45801,0.457523 -0.45801,1.199738 0,1.657263 0.45801,0.457523 1.20083,0.457523 1.65933,0 l 1.2516,-1.250569 c 0.0571,-0.148153 0.14447,-0.287224 0.26407,-0.406694 l 12.67106,-12.658658 c 0.30518,-0.305181 0.30518,-0.799664 0,-1.104845 -0.15259,-0.152588 -0.35274,-0.228925 -0.55294,-0.228925 z" />
        </g>
        <g
           id="g80785-4-7-6-1-6-4-6"
           transform="translate(2.3732625,41.795296)"
           style="display:inline">
          <path
             d="m 146.85461,18.019882 c -2.52835,0.17383 -20.29122,1.865253 -21.53293,14.043594 -0.15088,1.30177 -0.23633,2.6094 -0.29248,3.918007 l 8.73397,-8.725183 c 0.30518,-0.305179 0.80079,-0.305179 1.10597,0 0.30518,0.305179 0.30518,0.799813 0,1.104991 l -12.67102,12.658327 c -0.45801,0.457524 -0.45801,1.199719 0,1.657243 0.45801,0.457523 1.20069,0.457523 1.65919,0 l 2.78958,-2.786649 c 2.0552,-0.0068 4.10893,-0.123536 6.15045,-0.359378 2.61136,-0.265627 4.73735,-1.292494 6.4737,-2.760769 h -4.92925 l 7.16755,-2.386742 c 0.54932,-0.727058 1.04347,-1.499527 1.48683,-2.300804 h -3.96195 l 5.2022,-2.59817 c 2.0464,-4.977099 2.52981,-10.182228 2.61819,-11.464467 z"
             id="path2-90-7-5-7-5-0-6-1"
             style="fill:#92d050;fill-opacity:1;stroke-width:0.0488285" />
          <path
             id="path2-90-1-3-5-5-5-0-9-8"
             style="display:inline;fill:#68923b;fill-opacity:1;stroke-width:0.0488286"
             d="m 146.85474,18.020304 c -2.52835,0.173832 -20.29134,1.865247 -21.53305,14.043589 -0.15088,1.301768 -0.23634,2.608982 -0.29249,3.91759 l 3.41168,-3.408061 c 0.0175,-0.169963 0.0361,-0.339757 0.0558,-0.509529 0.98731,-9.683234 12.41304,-12.73433 18.32705,-13.666351 0.0109,-0.131085 0.0247,-0.285112 0.031,-0.377238 z m -9.36377,9.007203 c -0.2002,0 -0.40034,0.07634 -0.55294,0.228925 l -8.73383,8.725051 c 0.0145,-0.337502 0.0311,-0.674537 0.0501,-1.011825 l -6.05648,6.050277 c -0.45801,0.457523 -0.45801,1.199738 0,1.657263 0.45801,0.457523 1.20083,0.457523 1.65933,0 l 1.2516,-1.250569 c 0.0571,-0.148153 0.14447,-0.287224 0.26407,-0.406694 l 12.67106,-12.658658 c 0.30518,-0.305181 0.30518,-0.799664 0,-1.104845 -0.15259,-0.152588 -0.35274,-0.228925 -0.55294,-0.228925 z" />
        </g>
        <g
           id="g80785-7-1-1-6-5-6-1"
           transform="translate(16.673711,46.585118)"
           style="display:inline">
          <path
             d="m 146.85461,18.019882 c -2.52835,0.17383 -20.29122,1.865253 -21.53293,14.043594 -0.15088,1.30177 -0.23633,2.6094 -0.29248,3.918007 l 8.73397,-8.725183 c 0.30518,-0.305179 0.80079,-0.305179 1.10597,0 0.30518,0.305179 0.30518,0.799813 0,1.104991 l -12.67102,12.658327 c -0.45801,0.457524 -0.45801,1.199719 0,1.657243 0.45801,0.457523 1.20069,0.457523 1.65919,0 l 2.78958,-2.786649 c 2.0552,-0.0068 4.10893,-0.123536 6.15045,-0.359378 2.61136,-0.265627 4.73735,-1.292494 6.4737,-2.760769 h -4.92925 l 7.16755,-2.386742 c 0.54932,-0.727058 1.04347,-1.499527 1.48683,-2.300804 h -3.96195 l 5.2022,-2.59817 c 2.0464,-4.977099 2.52981,-10.182228 2.61819,-11.464467 z"
             id="path2-90-77-5-8-0-9-9-2"
             style="fill:#92d050;fill-opacity:1;stroke-width:0.0488285" />
          <path
             id="path2-90-1-4-40-0-0-3-6-0"
             style="display:inline;fill:#68923b;fill-opacity:1;stroke-width:0.0488286"
             d="m 146.85474,18.020304 c -2.52835,0.173832 -20.29134,1.865247 -21.53305,14.043589 -0.15088,1.301768 -0.23634,2.608982 -0.29249,3.91759 l 3.41168,-3.408061 c 0.0175,-0.169963 0.0361,-0.339757 0.0558,-0.509529 0.98731,-9.683234 12.41304,-12.73433 18.32705,-13.666351 0.0109,-0.131085 0.0247,-0.285112 0.031,-0.377238 z m -9.36377,9.007203 c -0.2002,0 -0.40034,0.07634 -0.55294,0.228925 l -8.73383,8.725051 c 0.0145,-0.337502 0.0311,-0.674537 0.0501,-1.011825 l -6.05648,6.050277 c -0.45801,0.457523 -0.45801,1.199738 0,1.657263 0.45801,0.457523 1.20083,0.457523 1.65933,0 l 1.2516,-1.250569 c 0.0571,-0.148153 0.14447,-0.287224 0.26407,-0.406694 l 12.67106,-12.658658 c 0.30518,-0.305181 0.30518,-0.799664 0,-1.104845 -0.15259,-0.152588 -0.35274,-0.228925 -0.55294,-0.228925 z" />
        </g>
      </g>
      <g
         id="g8733-3-8-8-8-6-7-7-4-9-1-3"
         transform="matrix(0.02343754,0,0,0.02343754,80.402219,40.998242)"
         style="display:inline;fill:#706282;fill-opacity:1">
        <path
           class="st0"
           d="m 330.555,101.873 c 0,-34.164 -13.767,-65.108 -36.047,-87.622 -2.432,-2.465 -9.63,-4.349 -14.212,3.466 -4.589,7.808 -17.205,27.431 -17.205,27.431 -1.534,2.438 -4.219,3.918 -7.089,3.918 -2.883,0 -5.555,-1.48 -7.089,-3.918 0,0 -12.623,-19.623 -17.205,-27.431 -4.582,-7.815 -11.781,-5.931 -14.219,-3.466 -22.274,22.514 -36.04,53.458 -36.04,87.622 0,51.02 30.663,94.847 74.553,114.142 43.89,-19.295 74.553,-63.123 74.553,-114.142 z"
           id="path8723-8-6-51-3-8-8-6-2-8-5-1"
           style="fill:#706282;fill-opacity:1" />
        <path
           class="st0"
           d="m 204.51,253.425 c -4.78,-47.705 -36.998,-90.409 -85.518,-106.176 -32.492,-10.554 -66.177,-7.027 -94.47,7.205 -3.096,1.555 -7.117,7.822 -1.096,14.589 6.007,6.774 20.766,24.842 20.766,24.842 1.849,2.212 2.432,5.22 1.542,7.952 -0.891,2.74 -3.13,4.829 -5.918,5.528 0,0 -22.562,5.945 -31.404,7.89 -8.849,1.945 -9.281,9.37 -7.692,12.445 14.527,28.144 39.698,50.801 72.197,61.362 48.519,15.766 99.683,0.15 131.593,-35.637 z"
           id="path8725-5-6-3-4-9-5-6-9-4-0-6"
           style="fill:#706282;fill-opacity:1" />
        <path
           class="st0"
           d="M 96.772,362.484 C 76.69,390.127 69.636,423.25 74.43,454.558 c 0.527,3.424 5.233,9.178 13.527,5.554 8.308,-3.63 30.054,-12.088 30.054,-12.088 2.672,-1.062 5.698,-0.692 8.041,1 2.329,1.692 3.623,4.466 3.418,7.335 0,0 -1.308,23.294 -2.199,32.315 -0.883,9.006 6.048,11.712 9.466,11.15 31.252,-5.116 60.581,-22.054 80.662,-49.704 29.993,-41.266 30.944,-94.758 6.781,-136.155 -46.848,-10.192 -97.422,7.239 -127.408,48.519 z"
           id="path8727-3-5-0-26-9-8-2-7-8-1-3"
           style="fill:#706282;fill-opacity:1" />
        <path
           class="st0"
           d="m 287.824,313.964 c -24.165,41.397 -23.212,94.888 6.78,136.155 20.082,27.65 49.41,44.588 80.663,49.704 3.418,0.562 10.349,-2.144 9.466,-11.15 -0.89,-9.021 -2.205,-32.315 -2.205,-32.315 -0.198,-2.869 1.102,-5.643 3.431,-7.335 2.322,-1.692 5.363,-2.062 8.034,-1 0,0 21.746,8.458 30.047,12.088 8.294,3.623 13.007,-2.13 13.534,-5.554 4.787,-31.308 -2.254,-64.43 -22.342,-92.074 -29.986,-41.279 -80.56,-58.717 -127.408,-48.519 z"
           id="path8729-3-8-1-7-6-8-2-4-4-1-0"
           style="fill:#706282;fill-opacity:1" />
        <path
           class="st0"
           d="m 503.6,215.254 c -8.849,-1.945 -31.41,-7.89 -31.41,-7.89 -2.795,-0.706 -5.027,-2.788 -5.918,-5.528 -0.89,-2.732 -0.308,-5.74 1.534,-7.952 0,0 14.76,-18.068 20.78,-24.842 6.014,-6.766 1.993,-13.034 -1.096,-14.589 -28.301,-14.232 -61.978,-17.76 -94.485,-7.205 -48.519,15.767 -80.731,58.472 -85.512,106.176 31.91,35.787 83.067,51.403 131.593,35.636 32.492,-10.561 57.67,-33.218 72.191,-61.362 1.59,-3.074 1.172,-10.499 -7.677,-12.444 z"
           id="path8731-7-2-49-14-0-5-5-1-3-0-5"
           style="fill:#706282;fill-opacity:1" />
      </g>
      <g
         id="g8733-3-8-8-8-6-3-0-2-9-9-2-7"
         transform="matrix(0.02343754,0,0,0.02343754,67.490226,36.673472)"
         style="display:inline;fill:#706282;fill-opacity:1">
        <path
           class="st0"
           d="m 330.555,101.873 c 0,-34.164 -13.767,-65.108 -36.047,-87.622 -2.432,-2.465 -9.63,-4.349 -14.212,3.466 -4.589,7.808 -17.205,27.431 -17.205,27.431 -1.534,2.438 -4.219,3.918 -7.089,3.918 -2.883,0 -5.555,-1.48 -7.089,-3.918 0,0 -12.623,-19.623 -17.205,-27.431 -4.582,-7.815 -11.781,-5.931 -14.219,-3.466 -22.274,22.514 -36.04,53.458 -36.04,87.622 0,51.02 30.663,94.847 74.553,114.142 43.89,-19.295 74.553,-63.123 74.553,-114.142 z"
           id="path8723-8-6-51-3-8-5-3-7-7-0-6-7"
           style="fill:#706282;fill-opacity:1" />
        <path
           class="st0"
           d="m 204.51,253.425 c -4.78,-47.705 -36.998,-90.409 -85.518,-106.176 -32.492,-10.554 -66.177,-7.027 -94.47,7.205 -3.096,1.555 -7.117,7.822 -1.096,14.589 6.007,6.774 20.766,24.842 20.766,24.842 1.849,2.212 2.432,5.22 1.542,7.952 -0.891,2.74 -3.13,4.829 -5.918,5.528 0,0 -22.562,5.945 -31.404,7.89 -8.849,1.945 -9.281,9.37 -7.692,12.445 14.527,28.144 39.698,50.801 72.197,61.362 48.519,15.766 99.683,0.15 131.593,-35.637 z"
           id="path8725-5-6-3-4-9-0-27-1-6-6-3-3"
           style="fill:#706282;fill-opacity:1" />
        <path
           class="st0"
           d="M 96.772,362.484 C 76.69,390.127 69.636,423.25 74.43,454.558 c 0.527,3.424 5.233,9.178 13.527,5.554 8.308,-3.63 30.054,-12.088 30.054,-12.088 2.672,-1.062 5.698,-0.692 8.041,1 2.329,1.692 3.623,4.466 3.418,7.335 0,0 -1.308,23.294 -2.199,32.315 -0.883,9.006 6.048,11.712 9.466,11.15 31.252,-5.116 60.581,-22.054 80.662,-49.704 29.993,-41.266 30.944,-94.758 6.781,-136.155 -46.848,-10.192 -97.422,7.239 -127.408,48.519 z"
           id="path8727-3-5-0-26-9-2-2-8-7-3-7-9"
           style="fill:#706282;fill-opacity:1" />
        <path
           class="st0"
           d="m 287.824,313.964 c -24.165,41.397 -23.212,94.888 6.78,136.155 20.082,27.65 49.41,44.588 80.663,49.704 3.418,0.562 10.349,-2.144 9.466,-11.15 -0.89,-9.021 -2.205,-32.315 -2.205,-32.315 -0.198,-2.869 1.102,-5.643 3.431,-7.335 2.322,-1.692 5.363,-2.062 8.034,-1 0,0 21.746,8.458 30.047,12.088 8.294,3.623 13.007,-2.13 13.534,-5.554 4.787,-31.308 -2.254,-64.43 -22.342,-92.074 -29.986,-41.279 -80.56,-58.717 -127.408,-48.519 z"
           id="path8729-3-8-1-7-6-4-5-6-7-3-4-3"
           style="fill:#706282;fill-opacity:1" />
        <path
           class="st0"
           d="m 503.6,215.254 c -8.849,-1.945 -31.41,-7.89 -31.41,-7.89 -2.795,-0.706 -5.027,-2.788 -5.918,-5.528 -0.89,-2.732 -0.308,-5.74 1.534,-7.952 0,0 14.76,-18.068 20.78,-24.842 6.014,-6.766 1.993,-13.034 -1.096,-14.589 -28.301,-14.232 -61.978,-17.76 -94.485,-7.205 -48.519,15.767 -80.731,58.472 -85.512,106.176 31.91,35.787 83.067,51.403 131.593,35.636 32.492,-10.561 57.67,-33.218 72.191,-61.362 1.59,-3.074 1.172,-10.499 -7.677,-12.444 z"
           id="path8731-7-2-49-14-0-2-58-2-3-6-9-4"
           style="fill:#706282;fill-opacity:1" />
      </g>
      <g
         id="g8733-3-8-8-8-6-3-1-75-5-0-2-6-0"
         transform="matrix(0.02343754,0,0,0.02343754,49.975312,40.998206)"
         style="display:inline;fill:#706282;fill-opacity:1">
        <path
           class="st0"
           d="m 330.555,101.873 c 0,-34.164 -13.767,-65.108 -36.047,-87.622 -2.432,-2.465 -9.63,-4.349 -14.212,3.466 -4.589,7.808 -17.205,27.431 -17.205,27.431 -1.534,2.438 -4.219,3.918 -7.089,3.918 -2.883,0 -5.555,-1.48 -7.089,-3.918 0,0 -12.623,-19.623 -17.205,-27.431 -4.582,-7.815 -11.781,-5.931 -14.219,-3.466 -22.274,22.514 -36.04,53.458 -36.04,87.622 0,51.02 30.663,94.847 74.553,114.142 43.89,-19.295 74.553,-63.123 74.553,-114.142 z"
           id="path8723-8-6-51-3-8-5-2-8-3-5-2-9-9"
           style="fill:#706282;fill-opacity:1" />
        <path
           class="st0"
           d="m 204.51,253.425 c -4.78,-47.705 -36.998,-90.409 -85.518,-106.176 -32.492,-10.554 -66.177,-7.027 -94.47,7.205 -3.096,1.555 -7.117,7.822 -1.096,14.589 6.007,6.774 20.766,24.842 20.766,24.842 1.849,2.212 2.432,5.22 1.542,7.952 -0.891,2.74 -3.13,4.829 -5.918,5.528 0,0 -22.562,5.945 -31.404,7.89 -8.849,1.945 -9.281,9.37 -7.692,12.445 14.527,28.144 39.698,50.801 72.197,61.362 48.519,15.766 99.683,0.15 131.593,-35.637 z"
           id="path8725-5-6-3-4-9-0-3-4-9-6-6-3-8"
           style="fill:#706282;fill-opacity:1" />
        <path
           class="st0"
           d="M 96.772,362.484 C 76.69,390.127 69.636,423.25 74.43,454.558 c 0.527,3.424 5.233,9.178 13.527,5.554 8.308,-3.63 30.054,-12.088 30.054,-12.088 2.672,-1.062 5.698,-0.692 8.041,1 2.329,1.692 3.623,4.466 3.418,7.335 0,0 -1.308,23.294 -2.199,32.315 -0.883,9.006 6.048,11.712 9.466,11.15 31.252,-5.116 60.581,-22.054 80.662,-49.704 29.993,-41.266 30.944,-94.758 6.781,-136.155 -46.848,-10.192 -97.422,7.239 -127.408,48.519 z"
           id="path8727-3-5-0-26-9-2-8-9-5-6-5-7-2"
           style="fill:#706282;fill-opacity:1" />
        <path
           class="st0"
           d="m 287.824,313.964 c -24.165,41.397 -23.212,94.888 6.78,136.155 20.082,27.65 49.41,44.588 80.663,49.704 3.418,0.562 10.349,-2.144 9.466,-11.15 -0.89,-9.021 -2.205,-32.315 -2.205,-32.315 -0.198,-2.869 1.102,-5.643 3.431,-7.335 2.322,-1.692 5.363,-2.062 8.034,-1 0,0 21.746,8.458 30.047,12.088 8.294,3.623 13.007,-2.13 13.534,-5.554 4.787,-31.308 -2.254,-64.43 -22.342,-92.074 -29.986,-41.279 -80.56,-58.717 -127.408,-48.519 z"
           id="path8729-3-8-1-7-6-4-3-5-6-0-7-3-3"
           style="fill:#706282;fill-opacity:1" />
        <path
           class="st0"
           d="m 503.6,215.254 c -8.849,-1.945 -31.41,-7.89 -31.41,-7.89 -2.795,-0.706 -5.027,-2.788 -5.918,-5.528 -0.89,-2.732 -0.308,-5.74 1.534,-7.952 0,0 14.76,-18.068 20.78,-24.842 6.014,-6.766 1.993,-13.034 -1.096,-14.589 -28.301,-14.232 -61.978,-17.76 -94.485,-7.205 -48.519,15.767 -80.731,58.472 -85.512,106.176 31.91,35.787 83.067,51.403 131.593,35.636 32.492,-10.561 57.67,-33.218 72.191,-61.362 1.59,-3.074 1.172,-10.499 -7.677,-12.444 z"
           id="path8731-7-2-49-14-0-2-8-78-0-0-3-5-4"
           style="fill:#706282;fill-opacity:1" />
      </g>
    </g>
    <g
       id="g2402-0-7-3-2-7-5"
       style="display:inline"
       transform="translate(39.869495,-17.189339)">
      <g
         id="g80849-6-0-8-3-5-3"
         transform="matrix(0.90290827,0,0,0.90290827,-55.445709,-12.289123)"
         style="display:inline">
        <g
           id="g80785-1-1-7-0-6-3"
           transform="translate(-17.025069,46.585079)">
          <path
             d="m 146.85461,18.019882 c -2.52835,0.17383 -20.29122,1.865253 -21.53293,14.043594 -0.15088,1.30177 -0.23633,2.6094 -0.29248,3.918007 l 8.73397,-8.725183 c 0.30518,-0.305179 0.80079,-0.305179 1.10597,0 0.30518,0.305179 0.30518,0.799813 0,1.104991 l -12.67102,12.658327 c -0.45801,0.457524 -0.45801,1.199719 0,1.657243 0.45801,0.457523 1.20069,0.457523 1.65919,0 l 2.78958,-2.786649 c 2.0552,-0.0068 4.10893,-0.123536 6.15045,-0.359378 2.61136,-0.265627 4.73735,-1.292494 6.4737,-2.760769 h -4.92925 l 7.16755,-2.386742 c 0.54932,-0.727058 1.04347,-1.499527 1.48683,-2.300804 h -3.96195 l 5.2022,-2.59817 c 2.0464,-4.977099 2.52981,-10.182228 2.61819,-11.464467 z"
             id="path2-90-53-3-9-6-0-2"
             style="fill:#92d050;fill-opacity:1;stroke-width:0.0488285" />
          <path
             id="path2-90-1-74-3-5-8-7-84"
             style="display:inline;fill:#68923b;fill-opacity:1;stroke-width:0.0488286"
             d="m 146.85474,18.020304 c -2.52835,0.173832 -20.29134,1.865247 -21.53305,14.043589 -0.15088,1.301768 -0.23634,2.608982 -0.29249,3.91759 l 3.41168,-3.408061 c 0.0175,-0.169963 0.0361,-0.339757 0.0558,-0.509529 0.98731,-9.683234 12.41304,-12.73433 18.32705,-13.666351 0.0109,-0.131085 0.0247,-0.285112 0.031,-0.377238 z m -9.36377,9.007203 c -0.2002,0 -0.40034,0.07634 -0.55294,0.228925 l -8.73383,8.725051 c 0.0145,-0.337502 0.0311,-0.674537 0.0501,-1.011825 l -6.05648,6.050277 c -0.45801,0.457523 -0.45801,1.199738 0,1.657263 0.45801,0.457523 1.20083,0.457523 1.65933,0 l 1.2516,-1.250569 c 0.0571,-0.148153 0.14447,-0.287224 0.26407,-0.406694 l 12.67106,-12.658658 c 0.30518,-0.305181 0.30518,-0.799664 0,-1.104845 -0.15259,-0.152588 -0.35274,-0.228925 -0.55294,-0.228925 z" />
        </g>
        <g
           id="g80785-4-7-6-1-6-4-8"
           transform="translate(2.3732625,41.795296)"
           style="display:inline">
          <path
             d="m 146.85461,18.019882 c -2.52835,0.17383 -20.29122,1.865253 -21.53293,14.043594 -0.15088,1.30177 -0.23633,2.6094 -0.29248,3.918007 l 8.73397,-8.725183 c 0.30518,-0.305179 0.80079,-0.305179 1.10597,0 0.30518,0.305179 0.30518,0.799813 0,1.104991 l -12.67102,12.658327 c -0.45801,0.457524 -0.45801,1.199719 0,1.657243 0.45801,0.457523 1.20069,0.457523 1.65919,0 l 2.78958,-2.786649 c 2.0552,-0.0068 4.10893,-0.123536 6.15045,-0.359378 2.61136,-0.265627 4.73735,-1.292494 6.4737,-2.760769 h -4.92925 l 7.16755,-2.386742 c 0.54932,-0.727058 1.04347,-1.499527 1.48683,-2.300804 h -3.96195 l 5.2022,-2.59817 c 2.0464,-4.977099 2.52981,-10.182228 2.61819,-11.464467 z"
             id="path2-90-7-5-7-5-0-6-7"
             style="fill:#92d050;fill-opacity:1;stroke-width:0.0488285" />
          <path
             id="path2-90-1-3-5-5-5-0-9-6"
             style="display:inline;fill:#68923b;fill-opacity:1;stroke-width:0.0488286"
             d="m 146.85474,18.020304 c -2.52835,0.173832 -20.29134,1.865247 -21.53305,14.043589 -0.15088,1.301768 -0.23634,2.608982 -0.29249,3.91759 l 3.41168,-3.408061 c 0.0175,-0.169963 0.0361,-0.339757 0.0558,-0.509529 0.98731,-9.683234 12.41304,-12.73433 18.32705,-13.666351 0.0109,-0.131085 0.0247,-0.285112 0.031,-0.377238 z m -9.36377,9.007203 c -0.2002,0 -0.40034,0.07634 -0.55294,0.228925 l -8.73383,8.725051 c 0.0145,-0.337502 0.0311,-0.674537 0.0501,-1.011825 l -6.05648,6.050277 c -0.45801,0.457523 -0.45801,1.199738 0,1.657263 0.45801,0.457523 1.20083,0.457523 1.65933,0 l 1.2516,-1.250569 c 0.0571,-0.148153 0.14447,-0.287224 0.26407,-0.406694 l 12.67106,-12.658658 c 0.30518,-0.305181 0.30518,-0.799664 0,-1.104845 -0.15259,-0.152588 -0.35274,-0.228925 -0.55294,-0.228925 z" />
        </g>
        <g
           id="g80785-7-1-1-6-5-6-5"
           transform="translate(16.673711,46.585118)"
           style="display:inline">
          <path
             d="m 146.85461,18.019882 c -2.52835,0.17383 -20.29122,1.865253 -21.53293,14.043594 -0.15088,1.30177 -0.23633,2.6094 -0.29248,3.918007 l 8.73397,-8.725183 c 0.30518,-0.305179 0.80079,-0.305179 1.10597,0 0.30518,0.305179 0.30518,0.799813 0,1.104991 l -12.67102,12.658327 c -0.45801,0.457524 -0.45801,1.199719 0,1.657243 0.45801,0.457523 1.20069,0.457523 1.65919,0 l 2.78958,-2.786649 c 2.0552,-0.0068 4.10893,-0.123536 6.15045,-0.359378 2.61136,-0.265627 4.73735,-1.292494 6.4737,-2.760769 h -4.92925 l 7.16755,-2.386742 c 0.54932,-0.727058 1.04347,-1.499527 1.48683,-2.300804 h -3.96195 l 5.2022,-2.59817 c 2.0464,-4.977099 2.52981,-10.182228 2.61819,-11.464467 z"
             id="path2-90-77-5-8-0-9-9-6"
             style="fill:#92d050;fill-opacity:1;stroke-width:0.0488285" />
          <path
             id="path2-90-1-4-40-0-0-3-6-5"
             style="display:inline;fill:#68923b;fill-opacity:1;stroke-width:0.0488286"
             d="m 146.85474,18.020304 c -2.52835,0.173832 -20.29134,1.865247 -21.53305,14.043589 -0.15088,1.301768 -0.23634,2.608982 -0.29249,3.91759 l 3.41168,-3.408061 c 0.0175,-0.169963 0.0361,-0.339757 0.0558,-0.509529 0.98731,-9.683234 12.41304,-12.73433 18.32705,-13.666351 0.0109,-0.131085 0.0247,-0.285112 0.031,-0.377238 z m -9.36377,9.007203 c -0.2002,0 -0.40034,0.07634 -0.55294,0.228925 l -8.73383,8.725051 c 0.0145,-0.337502 0.0311,-0.674537 0.0501,-1.011825 l -6.05648,6.050277 c -0.45801,0.457523 -0.45801,1.199738 0,1.657263 0.45801,0.457523 1.20083,0.457523 1.65933,0 l 1.2516,-1.250569 c 0.0571,-0.148153 0.14447,-0.287224 0.26407,-0.406694 l 12.67106,-12.658658 c 0.30518,-0.305181 0.30518,-0.799664 0,-1.104845 -0.15259,-0.152588 -0.35274,-0.228925 -0.55294,-0.228925 z" />
        </g>
      </g>
      <g
         id="g8733-3-8-8-8-6-7-7-4-9-1-8"
         transform="matrix(0.02343754,0,0,0.02343754,80.402219,40.998242)"
         style="display:inline;fill:#706282;fill-opacity:1">
        <path
           class="st0"
           d="m 330.555,101.873 c 0,-34.164 -13.767,-65.108 -36.047,-87.622 -2.432,-2.465 -9.63,-4.349 -14.212,3.466 -4.589,7.808 -17.205,27.431 -17.205,27.431 -1.534,2.438 -4.219,3.918 -7.089,3.918 -2.883,0 -5.555,-1.48 -7.089,-3.918 0,0 -12.623,-19.623 -17.205,-27.431 -4.582,-7.815 -11.781,-5.931 -14.219,-3.466 -22.274,22.514 -36.04,53.458 -36.04,87.622 0,51.02 30.663,94.847 74.553,114.142 43.89,-19.295 74.553,-63.123 74.553,-114.142 z"
           id="path8723-8-6-51-3-8-8-6-2-8-5-3"
           style="fill:#706282;fill-opacity:1" />
        <path
           class="st0"
           d="m 204.51,253.425 c -4.78,-47.705 -36.998,-90.409 -85.518,-106.176 -32.492,-10.554 -66.177,-7.027 -94.47,7.205 -3.096,1.555 -7.117,7.822 -1.096,14.589 6.007,6.774 20.766,24.842 20.766,24.842 1.849,2.212 2.432,5.22 1.542,7.952 -0.891,2.74 -3.13,4.829 -5.918,5.528 0,0 -22.562,5.945 -31.404,7.89 -8.849,1.945 -9.281,9.37 -7.692,12.445 14.527,28.144 39.698,50.801 72.197,61.362 48.519,15.766 99.683,0.15 131.593,-35.637 z"
           id="path8725-5-6-3-4-9-5-6-9-4-0-3"
           style="fill:#706282;fill-opacity:1" />
        <path
           class="st0"
           d="M 96.772,362.484 C 76.69,390.127 69.636,423.25 74.43,454.558 c 0.527,3.424 5.233,9.178 13.527,5.554 8.308,-3.63 30.054,-12.088 30.054,-12.088 2.672,-1.062 5.698,-0.692 8.041,1 2.329,1.692 3.623,4.466 3.418,7.335 0,0 -1.308,23.294 -2.199,32.315 -0.883,9.006 6.048,11.712 9.466,11.15 31.252,-5.116 60.581,-22.054 80.662,-49.704 29.993,-41.266 30.944,-94.758 6.781,-136.155 -46.848,-10.192 -97.422,7.239 -127.408,48.519 z"
           id="path8727-3-5-0-26-9-8-2-7-8-1-8"
           style="fill:#706282;fill-opacity:1" />
        <path
           class="st0"
           d="m 287.824,313.964 c -24.165,41.397 -23.212,94.888 6.78,136.155 20.082,27.65 49.41,44.588 80.663,49.704 3.418,0.562 10.349,-2.144 9.466,-11.15 -0.89,-9.021 -2.205,-32.315 -2.205,-32.315 -0.198,-2.869 1.102,-5.643 3.431,-7.335 2.322,-1.692 5.363,-2.062 8.034,-1 0,0 21.746,8.458 30.047,12.088 8.294,3.623 13.007,-2.13 13.534,-5.554 4.787,-31.308 -2.254,-64.43 -22.342,-92.074 -29.986,-41.279 -80.56,-58.717 -127.408,-48.519 z"
           id="path8729-3-8-1-7-6-8-2-4-4-1-5"
           style="fill:#706282;fill-opacity:1" />
        <path
           class="st0"
           d="m 503.6,215.254 c -8.849,-1.945 -31.41,-7.89 -31.41,-7.89 -2.795,-0.706 -5.027,-2.788 -5.918,-5.528 -0.89,-2.732 -0.308,-5.74 1.534,-7.952 0,0 14.76,-18.068 20.78,-24.842 6.014,-6.766 1.993,-13.034 -1.096,-14.589 -28.301,-14.232 -61.978,-17.76 -94.485,-7.205 -48.519,15.767 -80.731,58.472 -85.512,106.176 31.91,35.787 83.067,51.403 131.593,35.636 32.492,-10.561 57.67,-33.218 72.191,-61.362 1.59,-3.074 1.172,-10.499 -7.677,-12.444 z"
           id="path8731-7-2-49-14-0-5-5-1-3-0-2"
           style="fill:#706282;fill-opacity:1" />
      </g>
      <g
         id="g8733-3-8-8-8-6-3-0-2-9-9-2-2"
         transform="matrix(0.02343754,0,0,0.02343754,67.490226,36.673472)"
         style="display:inline;fill:#706282;fill-opacity:1">
        <path
           class="st0"
           d="m 330.555,101.873 c 0,-34.164 -13.767,-65.108 -36.047,-87.622 -2.432,-2.465 -9.63,-4.349 -14.212,3.466 -4.589,7.808 -17.205,27.431 -17.205,27.431 -1.534,2.438 -4.219,3.918 -7.089,3.918 -2.883,0 -5.555,-1.48 -7.089,-3.918 0,0 -12.623,-19.623 -17.205,-27.431 -4.582,-7.815 -11.781,-5.931 -14.219,-3.466 -22.274,22.514 -36.04,53.458 -36.04,87.622 0,51.02 30.663,94.847 74.553,114.142 43.89,-19.295 74.553,-63.123 74.553,-114.142 z"
           id="path8723-8-6-51-3-8-5-3-7-7-0-6-0"
           style="fill:#706282;fill-opacity:1" />
        <path
           class="st0"
           d="m 204.51,253.425 c -4.78,-47.705 -36.998,-90.409 -85.518,-106.176 -32.492,-10.554 -66.177,-7.027 -94.47,7.205 -3.096,1.555 -7.117,7.822 -1.096,14.589 6.007,6.774 20.766,24.842 20.766,24.842 1.849,2.212 2.432,5.22 1.542,7.952 -0.891,2.74 -3.13,4.829 -5.918,5.528 0,0 -22.562,5.945 -31.404,7.89 -8.849,1.945 -9.281,9.37 -7.692,12.445 14.527,28.144 39.698,50.801 72.197,61.362 48.519,15.766 99.683,0.15 131.593,-35.637 z"
           id="path8725-5-6-3-4-9-0-27-1-6-6-3-0"
           style="fill:#706282;fill-opacity:1" />
        <path
           class="st0"
           d="M 96.772,362.484 C 76.69,390.127 69.636,423.25 74.43,454.558 c 0.527,3.424 5.233,9.178 13.527,5.554 8.308,-3.63 30.054,-12.088 30.054,-12.088 2.672,-1.062 5.698,-0.692 8.041,1 2.329,1.692 3.623,4.466 3.418,7.335 0,0 -1.308,23.294 -2.199,32.315 -0.883,9.006 6.048,11.712 9.466,11.15 31.252,-5.116 60.581,-22.054 80.662,-49.704 29.993,-41.266 30.944,-94.758 6.781,-136.155 -46.848,-10.192 -97.422,7.239 -127.408,48.519 z"
           id="path8727-3-5-0-26-9-2-2-8-7-3-7-7"
           style="fill:#706282;fill-opacity:1" />
        <path
           class="st0"
           d="m 287.824,313.964 c -24.165,41.397 -23.212,94.888 6.78,136.155 20.082,27.65 49.41,44.588 80.663,49.704 3.418,0.562 10.349,-2.144 9.466,-11.15 -0.89,-9.021 -2.205,-32.315 -2.205,-32.315 -0.198,-2.869 1.102,-5.643 3.431,-7.335 2.322,-1.692 5.363,-2.062 8.034,-1 0,0 21.746,8.458 30.047,12.088 8.294,3.623 13.007,-2.13 13.534,-5.554 4.787,-31.308 -2.254,-64.43 -22.342,-92.074 -29.986,-41.279 -80.56,-58.717 -127.408,-48.519 z"
           id="path8729-3-8-1-7-6-4-5-6-7-3-4-8"
           style="fill:#706282;fill-opacity:1" />
        <path
           class="st0"
           d="m 503.6,215.254 c -8.849,-1.945 -31.41,-7.89 -31.41,-7.89 -2.795,-0.706 -5.027,-2.788 -5.918,-5.528 -0.89,-2.732 -0.308,-5.74 1.534,-7.952 0,0 14.76,-18.068 20.78,-24.842 6.014,-6.766 1.993,-13.034 -1.096,-14.589 -28.301,-14.232 -61.978,-17.76 -94.485,-7.205 -48.519,15.767 -80.731,58.472 -85.512,106.176 31.91,35.787 83.067,51.403 131.593,35.636 32.492,-10.561 57.67,-33.218 72.191,-61.362 1.59,-3.074 1.172,-10.499 -7.677,-12.444 z"
           id="path8731-7-2-49-14-0-2-58-2-3-6-9-42"
           style="fill:#706282;fill-opacity:1" />
      </g>
      <g
         id="g8733-3-8-8-8-6-3-1-75-5-0-2-6-6"
         transform="matrix(0.02343754,0,0,0.02343754,49.975312,40.998206)"
         style="display:inline;fill:#706282;fill-opacity:1">
        <path
           class="st0"
           d="m 330.555,101.873 c 0,-34.164 -13.767,-65.108 -36.047,-87.622 -2.432,-2.465 -9.63,-4.349 -14.212,3.466 -4.589,7.808 -17.205,27.431 -17.205,27.431 -1.534,2.438 -4.219,3.918 -7.089,3.918 -2.883,0 -5.555,-1.48 -7.089,-3.918 0,0 -12.623,-19.623 -17.205,-27.431 -4.582,-7.815 -11.781,-5.931 -14.219,-3.466 -22.274,22.514 -36.04,53.458 -36.04,87.622 0,51.02 30.663,94.847 74.553,114.142 43.89,-19.295 74.553,-63.123 74.553,-114.142 z"
           id="path8723-8-6-51-3-8-5-2-8-3-5-2-9-8"
           style="fill:#706282;fill-opacity:1" />
        <path
           class="st0"
           d="m 204.51,253.425 c -4.78,-47.705 -36.998,-90.409 -85.518,-106.176 -32.492,-10.554 -66.177,-7.027 -94.47,7.205 -3.096,1.555 -7.117,7.822 -1.096,14.589 6.007,6.774 20.766,24.842 20.766,24.842 1.849,2.212 2.432,5.22 1.542,7.952 -0.891,2.74 -3.13,4.829 -5.918,5.528 0,0 -22.562,5.945 -31.404,7.89 -8.849,1.945 -9.281,9.37 -7.692,12.445 14.527,28.144 39.698,50.801 72.197,61.362 48.519,15.766 99.683,0.15 131.593,-35.637 z"
           id="path8725-5-6-3-4-9-0-3-4-9-6-6-3-9"
           style="fill:#706282;fill-opacity:1" />
        <path
           class="st0"
           d="M 96.772,362.484 C 76.69,390.127 69.636,423.25 74.43,454.558 c 0.527,3.424 5.233,9.178 13.527,5.554 8.308,-3.63 30.054,-12.088 30.054,-12.088 2.672,-1.062 5.698,-0.692 8.041,1 2.329,1.692 3.623,4.466 3.418,7.335 0,0 -1.308,23.294 -2.199,32.315 -0.883,9.006 6.048,11.712 9.466,11.15 31.252,-5.116 60.581,-22.054 80.662,-49.704 29.993,-41.266 30.944,-94.758 6.781,-136.155 -46.848,-10.192 -97.422,7.239 -127.408,48.519 z"
           id="path8727-3-5-0-26-9-2-8-9-5-6-5-7-3"
           style="fill:#706282;fill-opacity:1" />
        <path
           class="st0"
           d="m 287.824,313.964 c -24.165,41.397 -23.212,94.888 6.78,136.155 20.082,27.65 49.41,44.588 80.663,49.704 3.418,0.562 10.349,-2.144 9.466,-11.15 -0.89,-9.021 -2.205,-32.315 -2.205,-32.315 -0.198,-2.869 1.102,-5.643 3.431,-7.335 2.322,-1.692 5.363,-2.062 8.034,-1 0,0 21.746,8.458 30.047,12.088 8.294,3.623 13.007,-2.13 13.534,-5.554 4.787,-31.308 -2.254,-64.43 -22.342,-92.074 -29.986,-41.279 -80.56,-58.717 -127.408,-48.519 z"
           id="path8729-3-8-1-7-6-4-3-5-6-0-7-3-4"
           style="fill:#706282;fill-opacity:1" />
        <path
           class="st0"
           d="m 503.6,215.254 c -8.849,-1.945 -31.41,-7.89 -31.41,-7.89 -2.795,-0.706 -5.027,-2.788 -5.918,-5.528 -0.89,-2.732 -0.308,-5.74 1.534,-7.952 0,0 14.76,-18.068 20.78,-24.842 6.014,-6.766 1.993,-13.034 -1.096,-14.589 -28.301,-14.232 -61.978,-17.76 -94.485,-7.205 -48.519,15.767 -80.731,58.472 -85.512,106.176 31.91,35.787 83.067,51.403 131.593,35.636 32.492,-10.561 57.67,-33.218 72.191,-61.362 1.59,-3.074 1.172,-10.499 -7.677,-12.444 z"
           id="path8731-7-2-49-14-0-2-8-78-0-0-3-5-7"
           style="fill:#706282;fill-opacity:1" />
      </g>
    </g>
    <g
       id="g2402-0-7-3-2-7-54"
       style="display:inline"
       transform="matrix(0.84591636,0,0,0.84591636,36.55149,17.890482)">
      <g
         id="g80849-6-0-8-3-5-1"
         transform="matrix(0.90290827,0,0,0.90290827,-55.445709,-12.289123)"
         style="display:inline">
        <g
           id="g80785-1-1-7-0-6-6"
           transform="translate(-17.025069,46.585079)">
          <path
             d="m 146.85461,18.019882 c -2.52835,0.17383 -20.29122,1.865253 -21.53293,14.043594 -0.15088,1.30177 -0.23633,2.6094 -0.29248,3.918007 l 8.73397,-8.725183 c 0.30518,-0.305179 0.80079,-0.305179 1.10597,0 0.30518,0.305179 0.30518,0.799813 0,1.104991 l -12.67102,12.658327 c -0.45801,0.457524 -0.45801,1.199719 0,1.657243 0.45801,0.457523 1.20069,0.457523 1.65919,0 l 2.78958,-2.786649 c 2.0552,-0.0068 4.10893,-0.123536 6.15045,-0.359378 2.61136,-0.265627 4.73735,-1.292494 6.4737,-2.760769 h -4.92925 l 7.16755,-2.386742 c 0.54932,-0.727058 1.04347,-1.499527 1.48683,-2.300804 h -3.96195 l 5.2022,-2.59817 c 2.0464,-4.977099 2.52981,-10.182228 2.61819,-11.464467 z"
             id="path2-90-53-3-9-6-0-4"
             style="fill:#92d050;fill-opacity:1;stroke-width:0.0488285" />
          <path
             id="path2-90-1-74-3-5-8-7-3"
             style="display:inline;fill:#68923b;fill-opacity:1;stroke-width:0.0488286"
             d="m 146.85474,18.020304 c -2.52835,0.173832 -20.29134,1.865247 -21.53305,14.043589 -0.15088,1.301768 -0.23634,2.608982 -0.29249,3.91759 l 3.41168,-3.408061 c 0.0175,-0.169963 0.0361,-0.339757 0.0558,-0.509529 0.98731,-9.683234 12.41304,-12.73433 18.32705,-13.666351 0.0109,-0.131085 0.0247,-0.285112 0.031,-0.377238 z m -9.36377,9.007203 c -0.2002,0 -0.40034,0.07634 -0.55294,0.228925 l -8.73383,8.725051 c 0.0145,-0.337502 0.0311,-0.674537 0.0501,-1.011825 l -6.05648,6.050277 c -0.45801,0.457523 -0.45801,1.199738 0,1.657263 0.45801,0.457523 1.20083,0.457523 1.65933,0 l 1.2516,-1.250569 c 0.0571,-0.148153 0.14447,-0.287224 0.26407,-0.406694 l 12.67106,-12.658658 c 0.30518,-0.305181 0.30518,-0.799664 0,-1.104845 -0.15259,-0.152588 -0.35274,-0.228925 -0.55294,-0.228925 z" />
        </g>
        <g
           id="g80785-4-7-6-1-6-4-0"
           transform="translate(2.3732625,41.795296)"
           style="display:inline">
          <path
             d="m 146.85461,18.019882 c -2.52835,0.17383 -20.29122,1.865253 -21.53293,14.043594 -0.15088,1.30177 -0.23633,2.6094 -0.29248,3.918007 l 8.73397,-8.725183 c 0.30518,-0.305179 0.80079,-0.305179 1.10597,0 0.30518,0.305179 0.30518,0.799813 0,1.104991 l -12.67102,12.658327 c -0.45801,0.457524 -0.45801,1.199719 0,1.657243 0.45801,0.457523 1.20069,0.457523 1.65919,0 l 2.78958,-2.786649 c 2.0552,-0.0068 4.10893,-0.123536 6.15045,-0.359378 2.61136,-0.265627 4.73735,-1.292494 6.4737,-2.760769 h -4.92925 l 7.16755,-2.386742 c 0.54932,-0.727058 1.04347,-1.499527 1.48683,-2.300804 h -3.96195 l 5.2022,-2.59817 c 2.0464,-4.977099 2.52981,-10.182228 2.61819,-11.464467 z"
             id="path2-90-7-5-7-5-0-6-9"
             style="fill:#92d050;fill-opacity:1;stroke-width:0.0488285" />
          <path
             id="path2-90-1-3-5-5-5-0-9-3"
             style="display:inline;fill:#68923b;fill-opacity:1;stroke-width:0.0488286"
             d="m 146.85474,18.020304 c -2.52835,0.173832 -20.29134,1.865247 -21.53305,14.043589 -0.15088,1.301768 -0.23634,2.608982 -0.29249,3.91759 l 3.41168,-3.408061 c 0.0175,-0.169963 0.0361,-0.339757 0.0558,-0.509529 0.98731,-9.683234 12.41304,-12.73433 18.32705,-13.666351 0.0109,-0.131085 0.0247,-0.285112 0.031,-0.377238 z m -9.36377,9.007203 c -0.2002,0 -0.40034,0.07634 -0.55294,0.228925 l -8.73383,8.725051 c 0.0145,-0.337502 0.0311,-0.674537 0.0501,-1.011825 l -6.05648,6.050277 c -0.45801,0.457523 -0.45801,1.199738 0,1.657263 0.45801,0.457523 1.20083,0.457523 1.65933,0 l 1.2516,-1.250569 c 0.0571,-0.148153 0.14447,-0.287224 0.26407,-0.406694 l 12.67106,-12.658658 c 0.30518,-0.305181 0.30518,-0.799664 0,-1.104845 -0.15259,-0.152588 -0.35274,-0.228925 -0.55294,-0.228925 z" />
        </g>
        <g
           id="g80785-7-1-1-6-5-6-4"
           transform="translate(16.673711,46.585118)"
           style="display:inline">
          <path
             d="m 146.85461,18.019882 c -2.52835,0.17383 -20.29122,1.865253 -21.53293,14.043594 -0.15088,1.30177 -0.23633,2.6094 -0.29248,3.918007 l 8.73397,-8.725183 c 0.30518,-0.305179 0.80079,-0.305179 1.10597,0 0.30518,0.305179 0.30518,0.799813 0,1.104991 l -12.67102,12.658327 c -0.45801,0.457524 -0.45801,1.199719 0,1.657243 0.45801,0.457523 1.20069,0.457523 1.65919,0 l 2.78958,-2.786649 c 2.0552,-0.0068 4.10893,-0.123536 6.15045,-0.359378 2.61136,-0.265627 4.73735,-1.292494 6.4737,-2.760769 h -4.92925 l 7.16755,-2.386742 c 0.54932,-0.727058 1.04347,-1.499527 1.48683,-2.300804 h -3.96195 l 5.2022,-2.59817 c 2.0464,-4.977099 2.52981,-10.182228 2.61819,-11.464467 z"
             id="path2-90-77-5-8-0-9-9-1"
             style="fill:#92d050;fill-opacity:1;stroke-width:0.0488285" />
          <path
             id="path2-90-1-4-40-0-0-3-6-8"
             style="display:inline;fill:#68923b;fill-opacity:1;stroke-width:0.0488286"
             d="m 146.85474,18.020304 c -2.52835,0.173832 -20.29134,1.865247 -21.53305,14.043589 -0.15088,1.301768 -0.23634,2.608982 -0.29249,3.91759 l 3.41168,-3.408061 c 0.0175,-0.169963 0.0361,-0.339757 0.0558,-0.509529 0.98731,-9.683234 12.41304,-12.73433 18.32705,-13.666351 0.0109,-0.131085 0.0247,-0.285112 0.031,-0.377238 z m -9.36377,9.007203 c -0.2002,0 -0.40034,0.07634 -0.55294,0.228925 l -8.73383,8.725051 c 0.0145,-0.337502 0.0311,-0.674537 0.0501,-1.011825 l -6.05648,6.050277 c -0.45801,0.457523 -0.45801,1.199738 0,1.657263 0.45801,0.457523 1.20083,0.457523 1.65933,0 l 1.2516,-1.250569 c 0.0571,-0.148153 0.14447,-0.287224 0.26407,-0.406694 l 12.67106,-12.658658 c 0.30518,-0.305181 0.30518,-0.799664 0,-1.104845 -0.15259,-0.152588 -0.35274,-0.228925 -0.55294,-0.228925 z" />
        </g>
      </g>
      <g
         id="g8733-3-8-8-8-6-7-7-4-9-1-89"
         transform="matrix(0.02343754,0,0,0.02343754,80.402219,40.998242)"
         style="display:inline;fill:#706282;fill-opacity:1">
        <path
           class="st0"
           d="m 330.555,101.873 c 0,-34.164 -13.767,-65.108 -36.047,-87.622 -2.432,-2.465 -9.63,-4.349 -14.212,3.466 -4.589,7.808 -17.205,27.431 -17.205,27.431 -1.534,2.438 -4.219,3.918 -7.089,3.918 -2.883,0 -5.555,-1.48 -7.089,-3.918 0,0 -12.623,-19.623 -17.205,-27.431 -4.582,-7.815 -11.781,-5.931 -14.219,-3.466 -22.274,22.514 -36.04,53.458 -36.04,87.622 0,51.02 30.663,94.847 74.553,114.142 43.89,-19.295 74.553,-63.123 74.553,-114.142 z"
           id="path8723-8-6-51-3-8-8-6-2-8-5-11"
           style="fill:#706282;fill-opacity:1" />
        <path
           class="st0"
           d="m 204.51,253.425 c -4.78,-47.705 -36.998,-90.409 -85.518,-106.176 -32.492,-10.554 -66.177,-7.027 -94.47,7.205 -3.096,1.555 -7.117,7.822 -1.096,14.589 6.007,6.774 20.766,24.842 20.766,24.842 1.849,2.212 2.432,5.22 1.542,7.952 -0.891,2.74 -3.13,4.829 -5.918,5.528 0,0 -22.562,5.945 -31.404,7.89 -8.849,1.945 -9.281,9.37 -7.692,12.445 14.527,28.144 39.698,50.801 72.197,61.362 48.519,15.766 99.683,0.15 131.593,-35.637 z"
           id="path8725-5-6-3-4-9-5-6-9-4-0-5"
           style="fill:#706282;fill-opacity:1" />
        <path
           class="st0"
           d="M 96.772,362.484 C 76.69,390.127 69.636,423.25 74.43,454.558 c 0.527,3.424 5.233,9.178 13.527,5.554 8.308,-3.63 30.054,-12.088 30.054,-12.088 2.672,-1.062 5.698,-0.692 8.041,1 2.329,1.692 3.623,4.466 3.418,7.335 0,0 -1.308,23.294 -2.199,32.315 -0.883,9.006 6.048,11.712 9.466,11.15 31.252,-5.116 60.581,-22.054 80.662,-49.704 29.993,-41.266 30.944,-94.758 6.781,-136.155 -46.848,-10.192 -97.422,7.239 -127.408,48.519 z"
           id="path8727-3-5-0-26-9-8-2-7-8-1-6"
           style="fill:#706282;fill-opacity:1" />
        <path
           class="st0"
           d="m 287.824,313.964 c -24.165,41.397 -23.212,94.888 6.78,136.155 20.082,27.65 49.41,44.588 80.663,49.704 3.418,0.562 10.349,-2.144 9.466,-11.15 -0.89,-9.021 -2.205,-32.315 -2.205,-32.315 -0.198,-2.869 1.102,-5.643 3.431,-7.335 2.322,-1.692 5.363,-2.062 8.034,-1 0,0 21.746,8.458 30.047,12.088 8.294,3.623 13.007,-2.13 13.534,-5.554 4.787,-31.308 -2.254,-64.43 -22.342,-92.074 -29.986,-41.279 -80.56,-58.717 -127.408,-48.519 z"
           id="path8729-3-8-1-7-6-8-2-4-4-1-2"
           style="fill:#706282;fill-opacity:1" />
        <path
           class="st0"
           d="m 503.6,215.254 c -8.849,-1.945 -31.41,-7.89 -31.41,-7.89 -2.795,-0.706 -5.027,-2.788 -5.918,-5.528 -0.89,-2.732 -0.308,-5.74 1.534,-7.952 0,0 14.76,-18.068 20.78,-24.842 6.014,-6.766 1.993,-13.034 -1.096,-14.589 -28.301,-14.232 -61.978,-17.76 -94.485,-7.205 -48.519,15.767 -80.731,58.472 -85.512,106.176 31.91,35.787 83.067,51.403 131.593,35.636 32.492,-10.561 57.67,-33.218 72.191,-61.362 1.59,-3.074 1.172,-10.499 -7.677,-12.444 z"
           id="path8731-7-2-49-14-0-5-5-1-3-0-4"
           style="fill:#706282;fill-opacity:1" />
      </g>
      <g
         id="g8733-3-8-8-8-6-3-0-2-9-9-2-1"
         transform="matrix(0.02343754,0,0,0.02343754,67.490226,36.673472)"
         style="display:inline;fill:#706282;fill-opacity:1">
        <path
           class="st0"
           d="m 330.555,101.873 c 0,-34.164 -13.767,-65.108 -36.047,-87.622 -2.432,-2.465 -9.63,-4.349 -14.212,3.466 -4.589,7.808 -17.205,27.431 -17.205,27.431 -1.534,2.438 -4.219,3.918 -7.089,3.918 -2.883,0 -5.555,-1.48 -7.089,-3.918 0,0 -12.623,-19.623 -17.205,-27.431 -4.582,-7.815 -11.781,-5.931 -14.219,-3.466 -22.274,22.514 -36.04,53.458 -36.04,87.622 0,51.02 30.663,94.847 74.553,114.142 43.89,-19.295 74.553,-63.123 74.553,-114.142 z"
           id="path8723-8-6-51-3-8-5-3-7-7-0-6-73"
           style="fill:#706282;fill-opacity:1" />
        <path
           class="st0"
           d="m 204.51,253.425 c -4.78,-47.705 -36.998,-90.409 -85.518,-106.176 -32.492,-10.554 -66.177,-7.027 -94.47,7.205 -3.096,1.555 -7.117,7.822 -1.096,14.589 6.007,6.774 20.766,24.842 20.766,24.842 1.849,2.212 2.432,5.22 1.542,7.952 -0.891,2.74 -3.13,4.829 -5.918,5.528 0,0 -22.562,5.945 -31.404,7.89 -8.849,1.945 -9.281,9.37 -7.692,12.445 14.527,28.144 39.698,50.801 72.197,61.362 48.519,15.766 99.683,0.15 131.593,-35.637 z"
           id="path8725-5-6-3-4-9-0-27-1-6-6-3-6"
           style="fill:#706282;fill-opacity:1" />
        <path
           class="st0"
           d="M 96.772,362.484 C 76.69,390.127 69.636,423.25 74.43,454.558 c 0.527,3.424 5.233,9.178 13.527,5.554 8.308,-3.63 30.054,-12.088 30.054,-12.088 2.672,-1.062 5.698,-0.692 8.041,1 2.329,1.692 3.623,4.466 3.418,7.335 0,0 -1.308,23.294 -2.199,32.315 -0.883,9.006 6.048,11.712 9.466,11.15 31.252,-5.116 60.581,-22.054 80.662,-49.704 29.993,-41.266 30.944,-94.758 6.781,-136.155 -46.848,-10.192 -97.422,7.239 -127.408,48.519 z"
           id="path8727-3-5-0-26-9-2-2-8-7-3-7-74"
           style="fill:#706282;fill-opacity:1" />
        <path
           class="st0"
           d="m 287.824,313.964 c -24.165,41.397 -23.212,94.888 6.78,136.155 20.082,27.65 49.41,44.588 80.663,49.704 3.418,0.562 10.349,-2.144 9.466,-11.15 -0.89,-9.021 -2.205,-32.315 -2.205,-32.315 -0.198,-2.869 1.102,-5.643 3.431,-7.335 2.322,-1.692 5.363,-2.062 8.034,-1 0,0 21.746,8.458 30.047,12.088 8.294,3.623 13.007,-2.13 13.534,-5.554 4.787,-31.308 -2.254,-64.43 -22.342,-92.074 -29.986,-41.279 -80.56,-58.717 -127.408,-48.519 z"
           id="path8729-3-8-1-7-6-4-5-6-7-3-4-2"
           style="fill:#706282;fill-opacity:1" />
        <path
           class="st0"
           d="m 503.6,215.254 c -8.849,-1.945 -31.41,-7.89 -31.41,-7.89 -2.795,-0.706 -5.027,-2.788 -5.918,-5.528 -0.89,-2.732 -0.308,-5.74 1.534,-7.952 0,0 14.76,-18.068 20.78,-24.842 6.014,-6.766 1.993,-13.034 -1.096,-14.589 -28.301,-14.232 -61.978,-17.76 -94.485,-7.205 -48.519,15.767 -80.731,58.472 -85.512,106.176 31.91,35.787 83.067,51.403 131.593,35.636 32.492,-10.561 57.67,-33.218 72.191,-61.362 1.59,-3.074 1.172,-10.499 -7.677,-12.444 z"
           id="path8731-7-2-49-14-0-2-58-2-3-6-9-5"
           style="fill:#706282;fill-opacity:1" />
      </g>
      <g
         id="g8733-3-8-8-8-6-3-1-75-5-0-2-6-7"
         transform="matrix(0.02343754,0,0,0.02343754,49.975312,40.998206)"
         style="display:inline;fill:#706282;fill-opacity:1">
        <path
           class="st0"
           d="m 330.555,101.873 c 0,-34.164 -13.767,-65.108 -36.047,-87.622 -2.432,-2.465 -9.63,-4.349 -14.212,3.466 -4.589,7.808 -17.205,27.431 -17.205,27.431 -1.534,2.438 -4.219,3.918 -7.089,3.918 -2.883,0 -5.555,-1.48 -7.089,-3.918 0,0 -12.623,-19.623 -17.205,-27.431 -4.582,-7.815 -11.781,-5.931 -14.219,-3.466 -22.274,22.514 -36.04,53.458 -36.04,87.622 0,51.02 30.663,94.847 74.553,114.142 43.89,-19.295 74.553,-63.123 74.553,-114.142 z"
           id="path8723-8-6-51-3-8-5-2-8-3-5-2-9-7"
           style="fill:#706282;fill-opacity:1" />
        <path
           class="st0"
           d="m 204.51,253.425 c -4.78,-47.705 -36.998,-90.409 -85.518,-106.176 -32.492,-10.554 -66.177,-7.027 -94.47,7.205 -3.096,1.555 -7.117,7.822 -1.096,14.589 6.007,6.774 20.766,24.842 20.766,24.842 1.849,2.212 2.432,5.22 1.542,7.952 -0.891,2.74 -3.13,4.829 -5.918,5.528 0,0 -22.562,5.945 -31.404,7.89 -8.849,1.945 -9.281,9.37 -7.692,12.445 14.527,28.144 39.698,50.801 72.197,61.362 48.519,15.766 99.683,0.15 131.593,-35.637 z"
           id="path8725-5-6-3-4-9-0-3-4-9-6-6-3-7"
           style="fill:#706282;fill-opacity:1" />
        <path
           class="st0"
           d="M 96.772,362.484 C 76.69,390.127 69.636,423.25 74.43,454.558 c 0.527,3.424 5.233,9.178 13.527,5.554 8.308,-3.63 30.054,-12.088 30.054,-12.088 2.672,-1.062 5.698,-0.692 8.041,1 2.329,1.692 3.623,4.466 3.418,7.335 0,0 -1.308,23.294 -2.199,32.315 -0.883,9.006 6.048,11.712 9.466,11.15 31.252,-5.116 60.581,-22.054 80.662,-49.704 29.993,-41.266 30.944,-94.758 6.781,-136.155 -46.848,-10.192 -97.422,7.239 -127.408,48.519 z"
           id="path8727-3-5-0-26-9-2-8-9-5-6-5-7-6"
           style="fill:#706282;fill-opacity:1" />
        <path
           class="st0"
           d="m 287.824,313.964 c -24.165,41.397 -23.212,94.888 6.78,136.155 20.082,27.65 49.41,44.588 80.663,49.704 3.418,0.562 10.349,-2.144 9.466,-11.15 -0.89,-9.021 -2.205,-32.315 -2.205,-32.315 -0.198,-2.869 1.102,-5.643 3.431,-7.335 2.322,-1.692 5.363,-2.062 8.034,-1 0,0 21.746,8.458 30.047,12.088 8.294,3.623 13.007,-2.13 13.534,-5.554 4.787,-31.308 -2.254,-64.43 -22.342,-92.074 -29.986,-41.279 -80.56,-58.717 -127.408,-48.519 z"
           id="path8729-3-8-1-7-6-4-3-5-6-0-7-3-1"
           style="fill:#706282;fill-opacity:1" />
        <path
           class="st0"
           d="m 503.6,215.254 c -8.849,-1.945 -31.41,-7.89 -31.41,-7.89 -2.795,-0.706 -5.027,-2.788 -5.918,-5.528 -0.89,-2.732 -0.308,-5.74 1.534,-7.952 0,0 14.76,-18.068 20.78,-24.842 6.014,-6.766 1.993,-13.034 -1.096,-14.589 -28.301,-14.232 -61.978,-17.76 -94.485,-7.205 -48.519,15.767 -80.731,58.472 -85.512,106.176 31.91,35.787 83.067,51.403 131.593,35.636 32.492,-10.561 57.67,-33.218 72.191,-61.362 1.59,-3.074 1.172,-10.499 -7.677,-12.444 z"
           id="path8731-7-2-49-14-0-2-8-78-0-0-3-5-6"
           style="fill:#706282;fill-opacity:1" />
      </g>
    </g>
    <g
       id="g2402-0-7-3-2-7-54-2"
       style="display:inline"
       transform="matrix(0.84591636,0,0,0.84591636,52.074092,43.799504)">
      <g
         id="g80849-6-0-8-3-5-1-7"
         transform="matrix(0.90290827,0,0,0.90290827,-55.445709,-12.289123)"
         style="display:inline">
        <g
           id="g80785-1-1-7-0-6-6-1"
           transform="translate(-17.025069,46.585079)">
          <path
             d="m 146.85461,18.019882 c -2.52835,0.17383 -20.29122,1.865253 -21.53293,14.043594 -0.15088,1.30177 -0.23633,2.6094 -0.29248,3.918007 l 8.73397,-8.725183 c 0.30518,-0.305179 0.80079,-0.305179 1.10597,0 0.30518,0.305179 0.30518,0.799813 0,1.104991 l -12.67102,12.658327 c -0.45801,0.457524 -0.45801,1.199719 0,1.657243 0.45801,0.457523 1.20069,0.457523 1.65919,0 l 2.78958,-2.786649 c 2.0552,-0.0068 4.10893,-0.123536 6.15045,-0.359378 2.61136,-0.265627 4.73735,-1.292494 6.4737,-2.760769 h -4.92925 l 7.16755,-2.386742 c 0.54932,-0.727058 1.04347,-1.499527 1.48683,-2.300804 h -3.96195 l 5.2022,-2.59817 c 2.0464,-4.977099 2.52981,-10.182228 2.61819,-11.464467 z"
             id="path2-90-53-3-9-6-0-4-2"
             style="fill:#92d050;fill-opacity:1;stroke-width:0.0488285" />
          <path
             id="path2-90-1-74-3-5-8-7-3-3"
             style="display:inline;fill:#68923b;fill-opacity:1;stroke-width:0.0488286"
             d="m 146.85474,18.020304 c -2.52835,0.173832 -20.29134,1.865247 -21.53305,14.043589 -0.15088,1.301768 -0.23634,2.608982 -0.29249,3.91759 l 3.41168,-3.408061 c 0.0175,-0.169963 0.0361,-0.339757 0.0558,-0.509529 0.98731,-9.683234 12.41304,-12.73433 18.32705,-13.666351 0.0109,-0.131085 0.0247,-0.285112 0.031,-0.377238 z m -9.36377,9.007203 c -0.2002,0 -0.40034,0.07634 -0.55294,0.228925 l -8.73383,8.725051 c 0.0145,-0.337502 0.0311,-0.674537 0.0501,-1.011825 l -6.05648,6.050277 c -0.45801,0.457523 -0.45801,1.199738 0,1.657263 0.45801,0.457523 1.20083,0.457523 1.65933,0 l 1.2516,-1.250569 c 0.0571,-0.148153 0.14447,-0.287224 0.26407,-0.406694 l 12.67106,-12.658658 c 0.30518,-0.305181 0.30518,-0.799664 0,-1.104845 -0.15259,-0.152588 -0.35274,-0.228925 -0.55294,-0.228925 z" />
        </g>
        <g
           id="g80785-4-7-6-1-6-4-0-3"
           transform="translate(2.3732625,41.795296)"
           style="display:inline">
          <path
             d="m 146.85461,18.019882 c -2.52835,0.17383 -20.29122,1.865253 -21.53293,14.043594 -0.15088,1.30177 -0.23633,2.6094 -0.29248,3.918007 l 8.73397,-8.725183 c 0.30518,-0.305179 0.80079,-0.305179 1.10597,0 0.30518,0.305179 0.30518,0.799813 0,1.104991 l -12.67102,12.658327 c -0.45801,0.457524 -0.45801,1.199719 0,1.657243 0.45801,0.457523 1.20069,0.457523 1.65919,0 l 2.78958,-2.786649 c 2.0552,-0.0068 4.10893,-0.123536 6.15045,-0.359378 2.61136,-0.265627 4.73735,-1.292494 6.4737,-2.760769 h -4.92925 l 7.16755,-2.386742 c 0.54932,-0.727058 1.04347,-1.499527 1.48683,-2.300804 h -3.96195 l 5.2022,-2.59817 c 2.0464,-4.977099 2.52981,-10.182228 2.61819,-11.464467 z"
             id="path2-90-7-5-7-5-0-6-9-8"
             style="fill:#92d050;fill-opacity:1;stroke-width:0.0488285" />
          <path
             id="path2-90-1-3-5-5-5-0-9-3-1"
             style="display:inline;fill:#68923b;fill-opacity:1;stroke-width:0.0488286"
             d="m 146.85474,18.020304 c -2.52835,0.173832 -20.29134,1.865247 -21.53305,14.043589 -0.15088,1.301768 -0.23634,2.608982 -0.29249,3.91759 l 3.41168,-3.408061 c 0.0175,-0.169963 0.0361,-0.339757 0.0558,-0.509529 0.98731,-9.683234 12.41304,-12.73433 18.32705,-13.666351 0.0109,-0.131085 0.0247,-0.285112 0.031,-0.377238 z m -9.36377,9.007203 c -0.2002,0 -0.40034,0.07634 -0.55294,0.228925 l -8.73383,8.725051 c 0.0145,-0.337502 0.0311,-0.674537 0.0501,-1.011825 l -6.05648,6.050277 c -0.45801,0.457523 -0.45801,1.199738 0,1.657263 0.45801,0.457523 1.20083,0.457523 1.65933,0 l 1.2516,-1.250569 c 0.0571,-0.148153 0.14447,-0.287224 0.26407,-0.406694 l 12.67106,-12.658658 c 0.30518,-0.305181 0.30518,-0.799664 0,-1.104845 -0.15259,-0.152588 -0.35274,-0.228925 -0.55294,-0.228925 z" />
        </g>
        <g
           id="g80785-7-1-1-6-5-6-4-7"
           transform="translate(16.673711,46.585118)"
           style="display:inline">
          <path
             d="m 146.85461,18.019882 c -2.52835,0.17383 -20.29122,1.865253 -21.53293,14.043594 -0.15088,1.30177 -0.23633,2.6094 -0.29248,3.918007 l 8.73397,-8.725183 c 0.30518,-0.305179 0.80079,-0.305179 1.10597,0 0.30518,0.305179 0.30518,0.799813 0,1.104991 l -12.67102,12.658327 c -0.45801,0.457524 -0.45801,1.199719 0,1.657243 0.45801,0.457523 1.20069,0.457523 1.65919,0 l 2.78958,-2.786649 c 2.0552,-0.0068 4.10893,-0.123536 6.15045,-0.359378 2.61136,-0.265627 4.73735,-1.292494 6.4737,-2.760769 h -4.92925 l 7.16755,-2.386742 c 0.54932,-0.727058 1.04347,-1.499527 1.48683,-2.300804 h -3.96195 l 5.2022,-2.59817 c 2.0464,-4.977099 2.52981,-10.182228 2.61819,-11.464467 z"
             id="path2-90-77-5-8-0-9-9-1-9"
             style="fill:#92d050;fill-opacity:1;stroke-width:0.0488285" />
          <path
             id="path2-90-1-4-40-0-0-3-6-8-9"
             style="display:inline;fill:#68923b;fill-opacity:1;stroke-width:0.0488286"
             d="m 146.85474,18.020304 c -2.52835,0.173832 -20.29134,1.865247 -21.53305,14.043589 -0.15088,1.301768 -0.23634,2.608982 -0.29249,3.91759 l 3.41168,-3.408061 c 0.0175,-0.169963 0.0361,-0.339757 0.0558,-0.509529 0.98731,-9.683234 12.41304,-12.73433 18.32705,-13.666351 0.0109,-0.131085 0.0247,-0.285112 0.031,-0.377238 z m -9.36377,9.007203 c -0.2002,0 -0.40034,0.07634 -0.55294,0.228925 l -8.73383,8.725051 c 0.0145,-0.337502 0.0311,-0.674537 0.0501,-1.011825 l -6.05648,6.050277 c -0.45801,0.457523 -0.45801,1.199738 0,1.657263 0.45801,0.457523 1.20083,0.457523 1.65933,0 l 1.2516,-1.250569 c 0.0571,-0.148153 0.14447,-0.287224 0.26407,-0.406694 l 12.67106,-12.658658 c 0.30518,-0.305181 0.30518,-0.799664 0,-1.104845 -0.15259,-0.152588 -0.35274,-0.228925 -0.55294,-0.228925 z" />
        </g>
      </g>
      <g
         id="g8733-3-8-8-8-6-7-7-4-9-1-89-6"
         transform="matrix(0.02343754,0,0,0.02343754,80.402219,40.998242)"
         style="display:inline;fill:#706282;fill-opacity:1">
        <path
           class="st0"
           d="m 330.555,101.873 c 0,-34.164 -13.767,-65.108 -36.047,-87.622 -2.432,-2.465 -9.63,-4.349 -14.212,3.466 -4.589,7.808 -17.205,27.431 -17.205,27.431 -1.534,2.438 -4.219,3.918 -7.089,3.918 -2.883,0 -5.555,-1.48 -7.089,-3.918 0,0 -12.623,-19.623 -17.205,-27.431 -4.582,-7.815 -11.781,-5.931 -14.219,-3.466 -22.274,22.514 -36.04,53.458 -36.04,87.622 0,51.02 30.663,94.847 74.553,114.142 43.89,-19.295 74.553,-63.123 74.553,-114.142 z"
           id="path8723-8-6-51-3-8-8-6-2-8-5-11-6"
           style="fill:#706282;fill-opacity:1" />
        <path
           class="st0"
           d="m 204.51,253.425 c -4.78,-47.705 -36.998,-90.409 -85.518,-106.176 -32.492,-10.554 -66.177,-7.027 -94.47,7.205 -3.096,1.555 -7.117,7.822 -1.096,14.589 6.007,6.774 20.766,24.842 20.766,24.842 1.849,2.212 2.432,5.22 1.542,7.952 -0.891,2.74 -3.13,4.829 -5.918,5.528 0,0 -22.562,5.945 -31.404,7.89 -8.849,1.945 -9.281,9.37 -7.692,12.445 14.527,28.144 39.698,50.801 72.197,61.362 48.519,15.766 99.683,0.15 131.593,-35.637 z"
           id="path8725-5-6-3-4-9-5-6-9-4-0-5-2"
           style="fill:#706282;fill-opacity:1" />
        <path
           class="st0"
           d="M 96.772,362.484 C 76.69,390.127 69.636,423.25 74.43,454.558 c 0.527,3.424 5.233,9.178 13.527,5.554 8.308,-3.63 30.054,-12.088 30.054,-12.088 2.672,-1.062 5.698,-0.692 8.041,1 2.329,1.692 3.623,4.466 3.418,7.335 0,0 -1.308,23.294 -2.199,32.315 -0.883,9.006 6.048,11.712 9.466,11.15 31.252,-5.116 60.581,-22.054 80.662,-49.704 29.993,-41.266 30.944,-94.758 6.781,-136.155 -46.848,-10.192 -97.422,7.239 -127.408,48.519 z"
           id="path8727-3-5-0-26-9-8-2-7-8-1-6-5"
           style="fill:#706282;fill-opacity:1" />
        <path
           class="st0"
           d="m 287.824,313.964 c -24.165,41.397 -23.212,94.888 6.78,136.155 20.082,27.65 49.41,44.588 80.663,49.704 3.418,0.562 10.349,-2.144 9.466,-11.15 -0.89,-9.021 -2.205,-32.315 -2.205,-32.315 -0.198,-2.869 1.102,-5.643 3.431,-7.335 2.322,-1.692 5.363,-2.062 8.034,-1 0,0 21.746,8.458 30.047,12.088 8.294,3.623 13.007,-2.13 13.534,-5.554 4.787,-31.308 -2.254,-64.43 -22.342,-92.074 -29.986,-41.279 -80.56,-58.717 -127.408,-48.519 z"
           id="path8729-3-8-1-7-6-8-2-4-4-1-2-0"
           style="fill:#706282;fill-opacity:1" />
        <path
           class="st0"
           d="m 503.6,215.254 c -8.849,-1.945 -31.41,-7.89 -31.41,-7.89 -2.795,-0.706 -5.027,-2.788 -5.918,-5.528 -0.89,-2.732 -0.308,-5.74 1.534,-7.952 0,0 14.76,-18.068 20.78,-24.842 6.014,-6.766 1.993,-13.034 -1.096,-14.589 -28.301,-14.232 -61.978,-17.76 -94.485,-7.205 -48.519,15.767 -80.731,58.472 -85.512,106.176 31.91,35.787 83.067,51.403 131.593,35.636 32.492,-10.561 57.67,-33.218 72.191,-61.362 1.59,-3.074 1.172,-10.499 -7.677,-12.444 z"
           id="path8731-7-2-49-14-0-5-5-1-3-0-4-5"
           style="fill:#706282;fill-opacity:1" />
      </g>
      <g
         id="g8733-3-8-8-8-6-3-0-2-9-9-2-1-2"
         transform="matrix(0.02343754,0,0,0.02343754,67.490226,36.673472)"
         style="display:inline;fill:#706282;fill-opacity:1">
        <path
           class="st0"
           d="m 330.555,101.873 c 0,-34.164 -13.767,-65.108 -36.047,-87.622 -2.432,-2.465 -9.63,-4.349 -14.212,3.466 -4.589,7.808 -17.205,27.431 -17.205,27.431 -1.534,2.438 -4.219,3.918 -7.089,3.918 -2.883,0 -5.555,-1.48 -7.089,-3.918 0,0 -12.623,-19.623 -17.205,-27.431 -4.582,-7.815 -11.781,-5.931 -14.219,-3.466 -22.274,22.514 -36.04,53.458 -36.04,87.622 0,51.02 30.663,94.847 74.553,114.142 43.89,-19.295 74.553,-63.123 74.553,-114.142 z"
           id="path8723-8-6-51-3-8-5-3-7-7-0-6-73-6"
           style="fill:#706282;fill-opacity:1" />
        <path
           class="st0"
           d="m 204.51,253.425 c -4.78,-47.705 -36.998,-90.409 -85.518,-106.176 -32.492,-10.554 -66.177,-7.027 -94.47,7.205 -3.096,1.555 -7.117,7.822 -1.096,14.589 6.007,6.774 20.766,24.842 20.766,24.842 1.849,2.212 2.432,5.22 1.542,7.952 -0.891,2.74 -3.13,4.829 -5.918,5.528 0,0 -22.562,5.945 -31.404,7.89 -8.849,1.945 -9.281,9.37 -7.692,12.445 14.527,28.144 39.698,50.801 72.197,61.362 48.519,15.766 99.683,0.15 131.593,-35.637 z"
           id="path8725-5-6-3-4-9-0-27-1-6-6-3-6-3"
           style="fill:#706282;fill-opacity:1" />
        <path
           class="st0"
           d="M 96.772,362.484 C 76.69,390.127 69.636,423.25 74.43,454.558 c 0.527,3.424 5.233,9.178 13.527,5.554 8.308,-3.63 30.054,-12.088 30.054,-12.088 2.672,-1.062 5.698,-0.692 8.041,1 2.329,1.692 3.623,4.466 3.418,7.335 0,0 -1.308,23.294 -2.199,32.315 -0.883,9.006 6.048,11.712 9.466,11.15 31.252,-5.116 60.581,-22.054 80.662,-49.704 29.993,-41.266 30.944,-94.758 6.781,-136.155 -46.848,-10.192 -97.422,7.239 -127.408,48.519 z"
           id="path8727-3-5-0-26-9-2-2-8-7-3-7-74-1"
           style="fill:#706282;fill-opacity:1" />
        <path
           class="st0"
           d="m 287.824,313.964 c -24.165,41.397 -23.212,94.888 6.78,136.155 20.082,27.65 49.41,44.588 80.663,49.704 3.418,0.562 10.349,-2.144 9.466,-11.15 -0.89,-9.021 -2.205,-32.315 -2.205,-32.315 -0.198,-2.869 1.102,-5.643 3.431,-7.335 2.322,-1.692 5.363,-2.062 8.034,-1 0,0 21.746,8.458 30.047,12.088 8.294,3.623 13.007,-2.13 13.534,-5.554 4.787,-31.308 -2.254,-64.43 -22.342,-92.074 -29.986,-41.279 -80.56,-58.717 -127.408,-48.519 z"
           id="path8729-3-8-1-7-6-4-5-6-7-3-4-2-6"
           style="fill:#706282;fill-opacity:1" />
        <path
           class="st0"
           d="m 503.6,215.254 c -8.849,-1.945 -31.41,-7.89 -31.41,-7.89 -2.795,-0.706 -5.027,-2.788 -5.918,-5.528 -0.89,-2.732 -0.308,-5.74 1.534,-7.952 0,0 14.76,-18.068 20.78,-24.842 6.014,-6.766 1.993,-13.034 -1.096,-14.589 -28.301,-14.232 -61.978,-17.76 -94.485,-7.205 -48.519,15.767 -80.731,58.472 -85.512,106.176 31.91,35.787 83.067,51.403 131.593,35.636 32.492,-10.561 57.67,-33.218 72.191,-61.362 1.59,-3.074 1.172,-10.499 -7.677,-12.444 z"
           id="path8731-7-2-49-14-0-2-58-2-3-6-9-5-0"
           style="fill:#706282;fill-opacity:1" />
      </g>
      <g
         id="g8733-3-8-8-8-6-3-1-75-5-0-2-6-7-0"
         transform="matrix(0.02343754,0,0,0.02343754,49.975312,40.998206)"
         style="display:inline;fill:#706282;fill-opacity:1">
        <path
           class="st0"
           d="m 330.555,101.873 c 0,-34.164 -13.767,-65.108 -36.047,-87.622 -2.432,-2.465 -9.63,-4.349 -14.212,3.466 -4.589,7.808 -17.205,27.431 -17.205,27.431 -1.534,2.438 -4.219,3.918 -7.089,3.918 -2.883,0 -5.555,-1.48 -7.089,-3.918 0,0 -12.623,-19.623 -17.205,-27.431 -4.582,-7.815 -11.781,-5.931 -14.219,-3.466 -22.274,22.514 -36.04,53.458 -36.04,87.622 0,51.02 30.663,94.847 74.553,114.142 43.89,-19.295 74.553,-63.123 74.553,-114.142 z"
           id="path8723-8-6-51-3-8-5-2-8-3-5-2-9-7-3"
           style="fill:#706282;fill-opacity:1" />
        <path
           class="st0"
           d="m 204.51,253.425 c -4.78,-47.705 -36.998,-90.409 -85.518,-106.176 -32.492,-10.554 -66.177,-7.027 -94.47,7.205 -3.096,1.555 -7.117,7.822 -1.096,14.589 6.007,6.774 20.766,24.842 20.766,24.842 1.849,2.212 2.432,5.22 1.542,7.952 -0.891,2.74 -3.13,4.829 -5.918,5.528 0,0 -22.562,5.945 -31.404,7.89 -8.849,1.945 -9.281,9.37 -7.692,12.445 14.527,28.144 39.698,50.801 72.197,61.362 48.519,15.766 99.683,0.15 131.593,-35.637 z"
           id="path8725-5-6-3-4-9-0-3-4-9-6-6-3-7-2"
           style="fill:#706282;fill-opacity:1" />
        <path
           class="st0"
           d="M 96.772,362.484 C 76.69,390.127 69.636,423.25 74.43,454.558 c 0.527,3.424 5.233,9.178 13.527,5.554 8.308,-3.63 30.054,-12.088 30.054,-12.088 2.672,-1.062 5.698,-0.692 8.041,1 2.329,1.692 3.623,4.466 3.418,7.335 0,0 -1.308,23.294 -2.199,32.315 -0.883,9.006 6.048,11.712 9.466,11.15 31.252,-5.116 60.581,-22.054 80.662,-49.704 29.993,-41.266 30.944,-94.758 6.781,-136.155 -46.848,-10.192 -97.422,7.239 -127.408,48.519 z"
           id="path8727-3-5-0-26-9-2-8-9-5-6-5-7-6-2"
           style="fill:#706282;fill-opacity:1" />
        <path
           class="st0"
           d="m 287.824,313.964 c -24.165,41.397 -23.212,94.888 6.78,136.155 20.082,27.65 49.41,44.588 80.663,49.704 3.418,0.562 10.349,-2.144 9.466,-11.15 -0.89,-9.021 -2.205,-32.315 -2.205,-32.315 -0.198,-2.869 1.102,-5.643 3.431,-7.335 2.322,-1.692 5.363,-2.062 8.034,-1 0,0 21.746,8.458 30.047,12.088 8.294,3.623 13.007,-2.13 13.534,-5.554 4.787,-31.308 -2.254,-64.43 -22.342,-92.074 -29.986,-41.279 -80.56,-58.717 -127.408,-48.519 z"
           id="path8729-3-8-1-7-6-4-3-5-6-0-7-3-1-9"
           style="fill:#706282;fill-opacity:1" />
        <path
           class="st0"
           d="m 503.6,215.254 c -8.849,-1.945 -31.41,-7.89 -31.41,-7.89 -2.795,-0.706 -5.027,-2.788 -5.918,-5.528 -0.89,-2.732 -0.308,-5.74 1.534,-7.952 0,0 14.76,-18.068 20.78,-24.842 6.014,-6.766 1.993,-13.034 -1.096,-14.589 -28.301,-14.232 -61.978,-17.76 -94.485,-7.205 -48.519,15.767 -80.731,58.472 -85.512,106.176 31.91,35.787 83.067,51.403 131.593,35.636 32.492,-10.561 57.67,-33.218 72.191,-61.362 1.59,-3.074 1.172,-10.499 -7.677,-12.444 z"
           id="path8731-7-2-49-14-0-2-8-78-0-0-3-5-6-4"
           style="fill:#706282;fill-opacity:1" />
      </g>
    </g>
    <g
       id="g2402-0-7-3-2-7-54-0"
       style="display:inline"
       transform="matrix(0.75192566,0,0,0.75192566,46.56809,75.222012)">
      <g
         id="g80849-6-0-8-3-5-1-8"
         transform="matrix(0.90290827,0,0,0.90290827,-55.445709,-12.289123)"
         style="display:inline">
        <g
           id="g80785-1-1-7-0-6-6-7"
           transform="translate(-17.025069,46.585079)">
          <path
             d="m 146.85461,18.019882 c -2.52835,0.17383 -20.29122,1.865253 -21.53293,14.043594 -0.15088,1.30177 -0.23633,2.6094 -0.29248,3.918007 l 8.73397,-8.725183 c 0.30518,-0.305179 0.80079,-0.305179 1.10597,0 0.30518,0.305179 0.30518,0.799813 0,1.104991 l -12.67102,12.658327 c -0.45801,0.457524 -0.45801,1.199719 0,1.657243 0.45801,0.457523 1.20069,0.457523 1.65919,0 l 2.78958,-2.786649 c 2.0552,-0.0068 4.10893,-0.123536 6.15045,-0.359378 2.61136,-0.265627 4.73735,-1.292494 6.4737,-2.760769 h -4.92925 l 7.16755,-2.386742 c 0.54932,-0.727058 1.04347,-1.499527 1.48683,-2.300804 h -3.96195 l 5.2022,-2.59817 c 2.0464,-4.977099 2.52981,-10.182228 2.61819,-11.464467 z"
             id="path2-90-53-3-9-6-0-4-1"
             style="fill:#92d050;fill-opacity:1;stroke-width:0.0488285" />
          <path
             id="path2-90-1-74-3-5-8-7-3-0"
             style="display:inline;fill:#68923b;fill-opacity:1;stroke-width:0.0488286"
             d="m 146.85474,18.020304 c -2.52835,0.173832 -20.29134,1.865247 -21.53305,14.043589 -0.15088,1.301768 -0.23634,2.608982 -0.29249,3.91759 l 3.41168,-3.408061 c 0.0175,-0.169963 0.0361,-0.339757 0.0558,-0.509529 0.98731,-9.683234 12.41304,-12.73433 18.32705,-13.666351 0.0109,-0.131085 0.0247,-0.285112 0.031,-0.377238 z m -9.36377,9.007203 c -0.2002,0 -0.40034,0.07634 -0.55294,0.228925 l -8.73383,8.725051 c 0.0145,-0.337502 0.0311,-0.674537 0.0501,-1.011825 l -6.05648,6.050277 c -0.45801,0.457523 -0.45801,1.199738 0,1.657263 0.45801,0.457523 1.20083,0.457523 1.65933,0 l 1.2516,-1.250569 c 0.0571,-0.148153 0.14447,-0.287224 0.26407,-0.406694 l 12.67106,-12.658658 c 0.30518,-0.305181 0.30518,-0.799664 0,-1.104845 -0.15259,-0.152588 -0.35274,-0.228925 -0.55294,-0.228925 z" />
        </g>
        <g
           id="g80785-4-7-6-1-6-4-0-0"
           transform="translate(2.3732625,41.795296)"
           style="display:inline">
          <path
             d="m 146.85461,18.019882 c -2.52835,0.17383 -20.29122,1.865253 -21.53293,14.043594 -0.15088,1.30177 -0.23633,2.6094 -0.29248,3.918007 l 8.73397,-8.725183 c 0.30518,-0.305179 0.80079,-0.305179 1.10597,0 0.30518,0.305179 0.30518,0.799813 0,1.104991 l -12.67102,12.658327 c -0.45801,0.457524 -0.45801,1.199719 0,1.657243 0.45801,0.457523 1.20069,0.457523 1.65919,0 l 2.78958,-2.786649 c 2.0552,-0.0068 4.10893,-0.123536 6.15045,-0.359378 2.61136,-0.265627 4.73735,-1.292494 6.4737,-2.760769 h -4.92925 l 7.16755,-2.386742 c 0.54932,-0.727058 1.04347,-1.499527 1.48683,-2.300804 h -3.96195 l 5.2022,-2.59817 c 2.0464,-4.977099 2.52981,-10.182228 2.61819,-11.464467 z"
             id="path2-90-7-5-7-5-0-6-9-3"
             style="fill:#92d050;fill-opacity:1;stroke-width:0.0488285" />
          <path
             id="path2-90-1-3-5-5-5-0-9-3-9"
             style="display:inline;fill:#68923b;fill-opacity:1;stroke-width:0.0488286"
             d="m 146.85474,18.020304 c -2.52835,0.173832 -20.29134,1.865247 -21.53305,14.043589 -0.15088,1.301768 -0.23634,2.608982 -0.29249,3.91759 l 3.41168,-3.408061 c 0.0175,-0.169963 0.0361,-0.339757 0.0558,-0.509529 0.98731,-9.683234 12.41304,-12.73433 18.32705,-13.666351 0.0109,-0.131085 0.0247,-0.285112 0.031,-0.377238 z m -9.36377,9.007203 c -0.2002,0 -0.40034,0.07634 -0.55294,0.228925 l -8.73383,8.725051 c 0.0145,-0.337502 0.0311,-0.674537 0.0501,-1.011825 l -6.05648,6.050277 c -0.45801,0.457523 -0.45801,1.199738 0,1.657263 0.45801,0.457523 1.20083,0.457523 1.65933,0 l 1.2516,-1.250569 c 0.0571,-0.148153 0.14447,-0.287224 0.26407,-0.406694 l 12.67106,-12.658658 c 0.30518,-0.305181 0.30518,-0.799664 0,-1.104845 -0.15259,-0.152588 -0.35274,-0.228925 -0.55294,-0.228925 z" />
        </g>
        <g
           id="g80785-7-1-1-6-5-6-4-8"
           transform="translate(16.673711,46.585118)"
           style="display:inline">
          <path
             d="m 146.85461,18.019882 c -2.52835,0.17383 -20.29122,1.865253 -21.53293,14.043594 -0.15088,1.30177 -0.23633,2.6094 -0.29248,3.918007 l 8.73397,-8.725183 c 0.30518,-0.305179 0.80079,-0.305179 1.10597,0 0.30518,0.305179 0.30518,0.799813 0,1.104991 l -12.67102,12.658327 c -0.45801,0.457524 -0.45801,1.199719 0,1.657243 0.45801,0.457523 1.20069,0.457523 1.65919,0 l 2.78958,-2.786649 c 2.0552,-0.0068 4.10893,-0.123536 6.15045,-0.359378 2.61136,-0.265627 4.73735,-1.292494 6.4737,-2.760769 h -4.92925 l 7.16755,-2.386742 c 0.54932,-0.727058 1.04347,-1.499527 1.48683,-2.300804 h -3.96195 l 5.2022,-2.59817 c 2.0464,-4.977099 2.52981,-10.182228 2.61819,-11.464467 z"
             id="path2-90-77-5-8-0-9-9-1-0"
             style="fill:#92d050;fill-opacity:1;stroke-width:0.0488285" />
          <path
             id="path2-90-1-4-40-0-0-3-6-8-5"
             style="display:inline;fill:#68923b;fill-opacity:1;stroke-width:0.0488286"
             d="m 146.85474,18.020304 c -2.52835,0.173832 -20.29134,1.865247 -21.53305,14.043589 -0.15088,1.301768 -0.23634,2.608982 -0.29249,3.91759 l 3.41168,-3.408061 c 0.0175,-0.169963 0.0361,-0.339757 0.0558,-0.509529 0.98731,-9.683234 12.41304,-12.73433 18.32705,-13.666351 0.0109,-0.131085 0.0247,-0.285112 0.031,-0.377238 z m -9.36377,9.007203 c -0.2002,0 -0.40034,0.07634 -0.55294,0.228925 l -8.73383,8.725051 c 0.0145,-0.337502 0.0311,-0.674537 0.0501,-1.011825 l -6.05648,6.050277 c -0.45801,0.457523 -0.45801,1.199738 0,1.657263 0.45801,0.457523 1.20083,0.457523 1.65933,0 l 1.2516,-1.250569 c 0.0571,-0.148153 0.14447,-0.287224 0.26407,-0.406694 l 12.67106,-12.658658 c 0.30518,-0.305181 0.30518,-0.799664 0,-1.104845 -0.15259,-0.152588 -0.35274,-0.228925 -0.55294,-0.228925 z" />
        </g>
      </g>
      <g
         id="g8733-3-8-8-8-6-7-7-4-9-1-89-2"
         transform="matrix(0.02343754,0,0,0.02343754,80.402219,40.998242)"
         style="display:inline;fill:#706282;fill-opacity:1">
        <path
           class="st0"
           d="m 330.555,101.873 c 0,-34.164 -13.767,-65.108 -36.047,-87.622 -2.432,-2.465 -9.63,-4.349 -14.212,3.466 -4.589,7.808 -17.205,27.431 -17.205,27.431 -1.534,2.438 -4.219,3.918 -7.089,3.918 -2.883,0 -5.555,-1.48 -7.089,-3.918 0,0 -12.623,-19.623 -17.205,-27.431 -4.582,-7.815 -11.781,-5.931 -14.219,-3.466 -22.274,22.514 -36.04,53.458 -36.04,87.622 0,51.02 30.663,94.847 74.553,114.142 43.89,-19.295 74.553,-63.123 74.553,-114.142 z"
           id="path8723-8-6-51-3-8-8-6-2-8-5-11-0"
           style="fill:#706282;fill-opacity:1" />
        <path
           class="st0"
           d="m 204.51,253.425 c -4.78,-47.705 -36.998,-90.409 -85.518,-106.176 -32.492,-10.554 -66.177,-7.027 -94.47,7.205 -3.096,1.555 -7.117,7.822 -1.096,14.589 6.007,6.774 20.766,24.842 20.766,24.842 1.849,2.212 2.432,5.22 1.542,7.952 -0.891,2.74 -3.13,4.829 -5.918,5.528 0,0 -22.562,5.945 -31.404,7.89 -8.849,1.945 -9.281,9.37 -7.692,12.445 14.527,28.144 39.698,50.801 72.197,61.362 48.519,15.766 99.683,0.15 131.593,-35.637 z"
           id="path8725-5-6-3-4-9-5-6-9-4-0-5-0"
           style="fill:#706282;fill-opacity:1" />
        <path
           class="st0"
           d="M 96.772,362.484 C 76.69,390.127 69.636,423.25 74.43,454.558 c 0.527,3.424 5.233,9.178 13.527,5.554 8.308,-3.63 30.054,-12.088 30.054,-12.088 2.672,-1.062 5.698,-0.692 8.041,1 2.329,1.692 3.623,4.466 3.418,7.335 0,0 -1.308,23.294 -2.199,32.315 -0.883,9.006 6.048,11.712 9.466,11.15 31.252,-5.116 60.581,-22.054 80.662,-49.704 29.993,-41.266 30.944,-94.758 6.781,-136.155 -46.848,-10.192 -97.422,7.239 -127.408,48.519 z"
           id="path8727-3-5-0-26-9-8-2-7-8-1-6-52"
           style="fill:#706282;fill-opacity:1" />
        <path
           class="st0"
           d="m 287.824,313.964 c -24.165,41.397 -23.212,94.888 6.78,136.155 20.082,27.65 49.41,44.588 80.663,49.704 3.418,0.562 10.349,-2.144 9.466,-11.15 -0.89,-9.021 -2.205,-32.315 -2.205,-32.315 -0.198,-2.869 1.102,-5.643 3.431,-7.335 2.322,-1.692 5.363,-2.062 8.034,-1 0,0 21.746,8.458 30.047,12.088 8.294,3.623 13.007,-2.13 13.534,-5.554 4.787,-31.308 -2.254,-64.43 -22.342,-92.074 -29.986,-41.279 -80.56,-58.717 -127.408,-48.519 z"
           id="path8729-3-8-1-7-6-8-2-4-4-1-2-8"
           style="fill:#706282;fill-opacity:1" />
        <path
           class="st0"
           d="m 503.6,215.254 c -8.849,-1.945 -31.41,-7.89 -31.41,-7.89 -2.795,-0.706 -5.027,-2.788 -5.918,-5.528 -0.89,-2.732 -0.308,-5.74 1.534,-7.952 0,0 14.76,-18.068 20.78,-24.842 6.014,-6.766 1.993,-13.034 -1.096,-14.589 -28.301,-14.232 -61.978,-17.76 -94.485,-7.205 -48.519,15.767 -80.731,58.472 -85.512,106.176 31.91,35.787 83.067,51.403 131.593,35.636 32.492,-10.561 57.67,-33.218 72.191,-61.362 1.59,-3.074 1.172,-10.499 -7.677,-12.444 z"
           id="path8731-7-2-49-14-0-5-5-1-3-0-4-8"
           style="fill:#706282;fill-opacity:1" />
      </g>
      <g
         id="g8733-3-8-8-8-6-3-0-2-9-9-2-1-6"
         transform="matrix(0.02343754,0,0,0.02343754,67.490226,36.673472)"
         style="display:inline;fill:#706282;fill-opacity:1">
        <path
           class="st0"
           d="m 330.555,101.873 c 0,-34.164 -13.767,-65.108 -36.047,-87.622 -2.432,-2.465 -9.63,-4.349 -14.212,3.466 -4.589,7.808 -17.205,27.431 -17.205,27.431 -1.534,2.438 -4.219,3.918 -7.089,3.918 -2.883,0 -5.555,-1.48 -7.089,-3.918 0,0 -12.623,-19.623 -17.205,-27.431 -4.582,-7.815 -11.781,-5.931 -14.219,-3.466 -22.274,22.514 -36.04,53.458 -36.04,87.622 0,51.02 30.663,94.847 74.553,114.142 43.89,-19.295 74.553,-63.123 74.553,-114.142 z"
           id="path8723-8-6-51-3-8-5-3-7-7-0-6-73-4"
           style="fill:#706282;fill-opacity:1" />
        <path
           class="st0"
           d="m 204.51,253.425 c -4.78,-47.705 -36.998,-90.409 -85.518,-106.176 -32.492,-10.554 -66.177,-7.027 -94.47,7.205 -3.096,1.555 -7.117,7.822 -1.096,14.589 6.007,6.774 20.766,24.842 20.766,24.842 1.849,2.212 2.432,5.22 1.542,7.952 -0.891,2.74 -3.13,4.829 -5.918,5.528 0,0 -22.562,5.945 -31.404,7.89 -8.849,1.945 -9.281,9.37 -7.692,12.445 14.527,28.144 39.698,50.801 72.197,61.362 48.519,15.766 99.683,0.15 131.593,-35.637 z"
           id="path8725-5-6-3-4-9-0-27-1-6-6-3-6-1"
           style="fill:#706282;fill-opacity:1" />
        <path
           class="st0"
           d="M 96.772,362.484 C 76.69,390.127 69.636,423.25 74.43,454.558 c 0.527,3.424 5.233,9.178 13.527,5.554 8.308,-3.63 30.054,-12.088 30.054,-12.088 2.672,-1.062 5.698,-0.692 8.041,1 2.329,1.692 3.623,4.466 3.418,7.335 0,0 -1.308,23.294 -2.199,32.315 -0.883,9.006 6.048,11.712 9.466,11.15 31.252,-5.116 60.581,-22.054 80.662,-49.704 29.993,-41.266 30.944,-94.758 6.781,-136.155 -46.848,-10.192 -97.422,7.239 -127.408,48.519 z"
           id="path8727-3-5-0-26-9-2-2-8-7-3-7-74-2"
           style="fill:#706282;fill-opacity:1" />
        <path
           class="st0"
           d="m 287.824,313.964 c -24.165,41.397 -23.212,94.888 6.78,136.155 20.082,27.65 49.41,44.588 80.663,49.704 3.418,0.562 10.349,-2.144 9.466,-11.15 -0.89,-9.021 -2.205,-32.315 -2.205,-32.315 -0.198,-2.869 1.102,-5.643 3.431,-7.335 2.322,-1.692 5.363,-2.062 8.034,-1 0,0 21.746,8.458 30.047,12.088 8.294,3.623 13.007,-2.13 13.534,-5.554 4.787,-31.308 -2.254,-64.43 -22.342,-92.074 -29.986,-41.279 -80.56,-58.717 -127.408,-48.519 z"
           id="path8729-3-8-1-7-6-4-5-6-7-3-4-2-68"
           style="fill:#706282;fill-opacity:1" />
        <path
           class="st0"
           d="m 503.6,215.254 c -8.849,-1.945 -31.41,-7.89 -31.41,-7.89 -2.795,-0.706 -5.027,-2.788 -5.918,-5.528 -0.89,-2.732 -0.308,-5.74 1.534,-7.952 0,0 14.76,-18.068 20.78,-24.842 6.014,-6.766 1.993,-13.034 -1.096,-14.589 -28.301,-14.232 -61.978,-17.76 -94.485,-7.205 -48.519,15.767 -80.731,58.472 -85.512,106.176 31.91,35.787 83.067,51.403 131.593,35.636 32.492,-10.561 57.67,-33.218 72.191,-61.362 1.59,-3.074 1.172,-10.499 -7.677,-12.444 z"
           id="path8731-7-2-49-14-0-2-58-2-3-6-9-5-1"
           style="fill:#706282;fill-opacity:1" />
      </g>
      <g
         id="g8733-3-8-8-8-6-3-1-75-5-0-2-6-7-1"
         transform="matrix(0.02343754,0,0,0.02343754,49.975312,40.998206)"
         style="display:inline;fill:#706282;fill-opacity:1">
        <path
           class="st0"
           d="m 330.555,101.873 c 0,-34.164 -13.767,-65.108 -36.047,-87.622 -2.432,-2.465 -9.63,-4.349 -14.212,3.466 -4.589,7.808 -17.205,27.431 -17.205,27.431 -1.534,2.438 -4.219,3.918 -7.089,3.918 -2.883,0 -5.555,-1.48 -7.089,-3.918 0,0 -12.623,-19.623 -17.205,-27.431 -4.582,-7.815 -11.781,-5.931 -14.219,-3.466 -22.274,22.514 -36.04,53.458 -36.04,87.622 0,51.02 30.663,94.847 74.553,114.142 43.89,-19.295 74.553,-63.123 74.553,-114.142 z"
           id="path8723-8-6-51-3-8-5-2-8-3-5-2-9-7-4"
           style="fill:#706282;fill-opacity:1" />
        <path
           class="st0"
           d="m 204.51,253.425 c -4.78,-47.705 -36.998,-90.409 -85.518,-106.176 -32.492,-10.554 -66.177,-7.027 -94.47,7.205 -3.096,1.555 -7.117,7.822 -1.096,14.589 6.007,6.774 20.766,24.842 20.766,24.842 1.849,2.212 2.432,5.22 1.542,7.952 -0.891,2.74 -3.13,4.829 -5.918,5.528 0,0 -22.562,5.945 -31.404,7.89 -8.849,1.945 -9.281,9.37 -7.692,12.445 14.527,28.144 39.698,50.801 72.197,61.362 48.519,15.766 99.683,0.15 131.593,-35.637 z"
           id="path8725-5-6-3-4-9-0-3-4-9-6-6-3-7-9"
           style="fill:#706282;fill-opacity:1" />
        <path
           class="st0"
           d="M 96.772,362.484 C 76.69,390.127 69.636,423.25 74.43,454.558 c 0.527,3.424 5.233,9.178 13.527,5.554 8.308,-3.63 30.054,-12.088 30.054,-12.088 2.672,-1.062 5.698,-0.692 8.041,1 2.329,1.692 3.623,4.466 3.418,7.335 0,0 -1.308,23.294 -2.199,32.315 -0.883,9.006 6.048,11.712 9.466,11.15 31.252,-5.116 60.581,-22.054 80.662,-49.704 29.993,-41.266 30.944,-94.758 6.781,-136.155 -46.848,-10.192 -97.422,7.239 -127.408,48.519 z"
           id="path8727-3-5-0-26-9-2-8-9-5-6-5-7-6-1"
           style="fill:#706282;fill-opacity:1" />
        <path
           class="st0"
           d="m 287.824,313.964 c -24.165,41.397 -23.212,94.888 6.78,136.155 20.082,27.65 49.41,44.588 80.663,49.704 3.418,0.562 10.349,-2.144 9.466,-11.15 -0.89,-9.021 -2.205,-32.315 -2.205,-32.315 -0.198,-2.869 1.102,-5.643 3.431,-7.335 2.322,-1.692 5.363,-2.062 8.034,-1 0,0 21.746,8.458 30.047,12.088 8.294,3.623 13.007,-2.13 13.534,-5.554 4.787,-31.308 -2.254,-64.43 -22.342,-92.074 -29.986,-41.279 -80.56,-58.717 -127.408,-48.519 z"
           id="path8729-3-8-1-7-6-4-3-5-6-0-7-3-1-2"
           style="fill:#706282;fill-opacity:1" />
        <path
           class="st0"
           d="m 503.6,215.254 c -8.849,-1.945 -31.41,-7.89 -31.41,-7.89 -2.795,-0.706 -5.027,-2.788 -5.918,-5.528 -0.89,-2.732 -0.308,-5.74 1.534,-7.952 0,0 14.76,-18.068 20.78,-24.842 6.014,-6.766 1.993,-13.034 -1.096,-14.589 -28.301,-14.232 -61.978,-17.76 -94.485,-7.205 -48.519,15.767 -80.731,58.472 -85.512,106.176 31.91,35.787 83.067,51.403 131.593,35.636 32.492,-10.561 57.67,-33.218 72.191,-61.362 1.59,-3.074 1.172,-10.499 -7.677,-12.444 z"
           id="path8731-7-2-49-14-0-2-8-78-0-0-3-5-6-42"
           style="fill:#706282;fill-opacity:1" />
      </g>
    </g>
  </g>
</svg>
