<?xml version="1.0" encoding="UTF-8" standalone="no"?>
<!-- Created with Inkscape (http://www.inkscape.org/) -->

<svg
   width="500"
   height="500"
   viewBox="0 0 132.29166 132.29167"
   version="1.1"
   id="svg2515"
   inkscape:version="1.1.2 (b8e25be833, 2022-02-05)"
   sodipodi:docname="bonsai02s02normal.svg"
   inkscape:export-filename="C:\Users\Lenovo\Desktop\Coding\Media files\Bonsais\bonsai02.png"
   inkscape:export-xdpi="96"
   inkscape:export-ydpi="96"
   xmlns:inkscape="http://www.inkscape.org/namespaces/inkscape"
   xmlns:sodipodi="http://sodipodi.sourceforge.net/DTD/sodipodi-0.dtd"
   xmlns="http://www.w3.org/2000/svg"
   xmlns:svg="http://www.w3.org/2000/svg">
  <sodipodi:namedview
     id="namedview2517"
     pagecolor="#ffffff"
     bordercolor="#666666"
     borderopacity="1.0"
     inkscape:pageshadow="2"
     inkscape:pageopacity="0.0"
     inkscape:pagecheckerboard="0"
     inkscape:document-units="mm"
     showgrid="false"
     units="px"
     inkscape:zoom="1.4142136"
     inkscape:cx="202.58609"
     inkscape:cy="239.35564"
     inkscape:window-width="1920"
     inkscape:window-height="1001"
     inkscape:window-x="-9"
     inkscape:window-y="-9"
     inkscape:window-maximized="1"
     inkscape:current-layer="g17385" />
  <defs
     id="defs2512">
    <marker
       style="overflow:visible"
       id="Arrow1Sstart"
       refX="0.0"
       refY="0.0"
       orient="auto"
       inkscape:stockid="Arrow1Sstart"
       inkscape:isstock="true">
      <path
         transform="scale(0.2) translate(6,0)"
         style="fill-rule:evenodd;fill:context-stroke;stroke:context-stroke;stroke-width:1.0pt"
         d="M 0.0,0.0 L 5.0,-5.0 L -12.5,0.0 L 5.0,5.0 L 0.0,0.0 z "
         id="path24092" />
    </marker>
    <marker
       style="overflow:visible"
       id="Arrow1Mstart"
       refX="0.0"
       refY="0.0"
       orient="auto"
       inkscape:stockid="Arrow1Mstart"
       inkscape:isstock="true">
      <path
         transform="scale(0.4) translate(10,0)"
         style="fill-rule:evenodd;fill:context-stroke;stroke:context-stroke;stroke-width:1.0pt"
         d="M 0.0,0.0 L 5.0,-5.0 L -12.5,0.0 L 5.0,5.0 L 0.0,0.0 z "
         id="path24086" />
    </marker>
    <marker
       style="overflow:visible"
       id="Arrow1Lstart"
       refX="0.0"
       refY="0.0"
       orient="auto"
       inkscape:stockid="Arrow1Lstart"
       inkscape:isstock="true">
      <path
         transform="scale(0.8) translate(12.5,0)"
         style="fill-rule:evenodd;fill:context-stroke;stroke:context-stroke;stroke-width:1.0pt"
         d="M 0.0,0.0 L 5.0,-5.0 L -12.5,0.0 L 5.0,5.0 L 0.0,0.0 z "
         id="path24080" />
    </marker>
    <marker
       style="overflow:visible;"
       id="Arrow1Lend"
       refX="0.0"
       refY="0.0"
       orient="auto"
       inkscape:stockid="Arrow1Lend"
       inkscape:isstock="true">
      <path
         transform="scale(0.8) rotate(180) translate(12.5,0)"
         style="fill-rule:evenodd;fill:context-stroke;stroke:context-stroke;stroke-width:1.0pt;"
         d="M 0.0,0.0 L 5.0,-5.0 L -12.5,0.0 L 5.0,5.0 L 0.0,0.0 z "
         id="path24083" />
    </marker>
  </defs>
  <g
     inkscape:label="Informal Upright Style"
     inkscape:groupmode="layer"
     id="g17385"
     style="display:inline">
    <g
       id="g17299"
       transform="translate(157.36058,-8.4372489)"
       style="display:inline">
      <g
         id="g17297"
         transform="translate(-99.28418,15.207661)">
        <path
           style="display:inline;fill:#b64a11;fill-opacity:1;stroke:#b64a11;stroke-width:1;stroke-linecap:round;stroke-linejoin:round;stroke-miterlimit:4;stroke-dasharray:none;stroke-opacity:1"
           d="m 1.3438111,105.02403 c 0,0 1.67276,-4.3889 -5.29634,-12.902323 -5.77031,-7.049 -13.8088901,-10.89145 -10.0810001,-22.220767 2.98845,-9.082106 31.71641,-16.843433 36.92376,-22.50005 9.82115,-10.668487 4.67956,-12.619651 -1.58353,-22.120096 C 16.120271,17.413522 8.0705011,20.957555 7.7574611,9.5870616 14.803541,20.119696 25.572371,18.866153 27.251611,28.55162 c 3.25423,4.596313 8.98302,11.718683 5.98525,14.797826 -2.2954,2.357716 -9.08519,15.422411 -20.03503,17.643247 -9.5903099,1.945097 -16.1629199,12.6144 -16.1629199,12.6144 -0.83876,8.885304 16.1910099,9.784984 21.9744099,18.254694 5.64474,8.266633 8.35928,5.77528 10.95842,12.103913 1.20531,2.9348 -28.6279299,1.05833 -28.6279299,1.05833 z"
           id="path17293"
           sodipodi:nodetypes="cssssccsssssc" />
        <path
           id="path17295"
           style="display:inline;fill:#9b3d0c;fill-opacity:1;stroke:#9b3d0c;stroke-width:3.77953;stroke-linecap:round;stroke-linejoin:round;stroke-miterlimit:4;stroke-dasharray:none;stroke-opacity:1"
           d="m 616.93555,1.8886719 c 0.55432,20.1347921 7.52722,27.8974661 16.79883,33.5175781 -5.45695,-5.012127 -9.35289,-12.21383 -10.31641,-24.990234 -2.22889,-2.6069221 -4.40217,-5.4177306 -6.48242,-8.5273441 z m 41.48828,48.2539061 c 3.39981,2.902953 6.69017,6.465507 9.7207,11.0625 23.67153,35.907194 43.10565,43.281672 5.98633,83.603512 -19.68132,21.37934 -128.25976,50.713 -139.55469,85.03907 -14.08966,42.81948 16.29251,57.34248 38.10156,83.98437 26.33989,32.17671 20.01758,48.76367 20.01758,48.76367 0,0 2.85378,0.16826 6.91797,0.39063 0.26375,-6.79288 -1.99109,-21.72151 -20.65039,-44.51563 -21.80905,-26.64189 -52.19123,-41.16294 -38.10156,-83.98242 11.29493,-34.32607 119.87336,-63.66167 139.55469,-85.04101 37.11932,-40.32185 17.68519,-47.69633 -5.98633,-83.60352 -4.87199,-7.390285 -10.41195,-12.111719 -16.00586,-15.701172 z"
           transform="matrix(0.26458333,0,0,0.26458333,-155.47346,9.0871833)"
           sodipodi:nodetypes="cccccssssccssssc" />
      </g>
    </g>
    <g
       id="g41434-1-2-0"
       transform="matrix(1.221846,0,0,1.221846,-40.923727,39.755257)"
       style="display:inline">
      <ellipse
         class="cls-1"
         cx="61.260708"
         cy="25.501854"
         rx="10"
         ry="6.4311991"
         id="ellipse41422-8-6-48"
         style="display:inline;fill:#00b050;fill-opacity:1;stroke-width:0.735836" />
      <path
         id="path41424-5-1-0"
         style="display:inline;fill:#0c8242;fill-opacity:1;stroke-width:0.735837"
         class="cls-1"
         d="m 61.26058,19.070655 a 10,6.4311992 0 0 0 -9.99987,6.431042 10,6.4311992 0 0 0 9.99987,6.431462 10,6.4311992 0 0 0 8.027523,-2.59677 8.8747265,5.7075134 0 0 1 -6.605473,1.898596 8.8747265,5.7075134 0 0 1 -8.87444,-5.707586 8.8747265,5.7075134 0 0 1 8.87444,-5.707586 8.8747265,5.7075134 0 0 1 6.909683,2.126124 10,6.4311992 0 0 0 -8.331733,-2.875282 z" />
      <ellipse
         class="cls-1"
         cx="73.139175"
         cy="34.505405"
         rx="9.9996233"
         ry="6.4311991"
         id="ellipse41426-9-7-58"
         style="display:inline;fill:#00b050;fill-opacity:1;stroke-width:0.735836" />
      <path
         id="path41428-6-9-0"
         style="display:inline;fill:#0b8241;fill-opacity:1;stroke-width:0.735837"
         class="cls-1"
         d="m 73.139046,28.074209 a 10,6.4311992 0 0 0 -9.99987,6.431042 10,6.4311992 0 0 0 9.99987,6.431462 10,6.4311992 0 0 0 8.027523,-2.59677 8.8747265,5.7075134 0 0 1 -6.605473,1.898596 8.8747265,5.7075134 0 0 1 -8.87444,-5.707586 8.8747265,5.7075134 0 0 1 8.87444,-5.707586 8.8747265,5.7075134 0 0 1 6.909683,2.126124 10,6.4311992 0 0 0 -8.331733,-2.875282 z" />
      <ellipse
         class="cls-1"
         cx="49.762188"
         cy="34.655258"
         rx="10"
         ry="6.4311991"
         id="ellipse41430-3-6-6"
         style="display:inline;fill:#00b050;fill-opacity:1;stroke-width:0.735836" />
      <path
         id="path41432-6-93-7"
         style="display:inline;fill:#0c8242;fill-opacity:1;stroke-width:0.735837"
         class="cls-1"
         d="m 49.762057,28.224061 a 10,6.4311992 0 0 0 -9.99987,6.431042 10,6.4311992 0 0 0 9.99987,6.431462 10,6.4311992 0 0 0 8.027523,-2.59677 8.8747265,5.7075134 0 0 1 -6.605473,1.898596 8.8747265,5.7075134 0 0 1 -8.87444,-5.707586 8.8747265,5.7075134 0 0 1 8.87444,-5.707586 8.8747265,5.7075134 0 0 1 6.909683,2.126124 10,6.4311992 0 0 0 -8.331733,-2.875282 z" />
    </g>
    <g
       id="g41434-1-2-0-7-8-8"
       transform="matrix(1.0374254,0,0,1.0374254,31.838042,5.3992356)"
       style="display:inline">
      <ellipse
         class="cls-1"
         cx="61.260708"
         cy="25.501854"
         rx="10"
         ry="6.4311991"
         id="ellipse41422-8-6-48-5-2-1"
         style="display:inline;fill:#00b050;fill-opacity:1;stroke-width:0.735836" />
      <path
         id="path41424-5-1-0-3-6-4"
         style="display:inline;fill:#0c8242;fill-opacity:1;stroke-width:0.735837"
         class="cls-1"
         d="m 61.26058,19.070655 a 10,6.4311992 0 0 0 -9.99987,6.431042 10,6.4311992 0 0 0 9.99987,6.431462 10,6.4311992 0 0 0 8.027523,-2.59677 8.8747265,5.7075134 0 0 1 -6.605473,1.898596 8.8747265,5.7075134 0 0 1 -8.87444,-5.707586 8.8747265,5.7075134 0 0 1 8.87444,-5.707586 8.8747265,5.7075134 0 0 1 6.909683,2.126124 10,6.4311992 0 0 0 -8.331733,-2.875282 z" />
      <ellipse
         class="cls-1"
         cx="73.139175"
         cy="34.505405"
         rx="9.9996233"
         ry="6.4311991"
         id="ellipse41426-9-7-58-8-6-1"
         style="display:inline;fill:#00b050;fill-opacity:1;stroke-width:0.735836" />
      <path
         id="path41428-6-9-0-1-2-2"
         style="display:inline;fill:#0b8241;fill-opacity:1;stroke-width:0.735837"
         class="cls-1"
         d="m 73.139046,28.074209 a 10,6.4311992 0 0 0 -9.99987,6.431042 10,6.4311992 0 0 0 9.99987,6.431462 10,6.4311992 0 0 0 8.027523,-2.59677 8.8747265,5.7075134 0 0 1 -6.605473,1.898596 8.8747265,5.7075134 0 0 1 -8.87444,-5.707586 8.8747265,5.7075134 0 0 1 8.87444,-5.707586 8.8747265,5.7075134 0 0 1 6.909683,2.126124 10,6.4311992 0 0 0 -8.331733,-2.875282 z" />
      <ellipse
         class="cls-1"
         cx="49.762188"
         cy="34.655258"
         rx="10"
         ry="6.4311991"
         id="ellipse41430-3-6-6-8-2-2"
         style="display:inline;fill:#00b050;fill-opacity:1;stroke-width:0.735836" />
      <path
         id="path41432-6-93-7-8-1-2"
         style="display:inline;fill:#0c8242;fill-opacity:1;stroke-width:0.735837"
         class="cls-1"
         d="m 49.762057,28.224061 a 10,6.4311992 0 0 0 -9.99987,6.431042 10,6.4311992 0 0 0 9.99987,6.431462 10,6.4311992 0 0 0 8.027523,-2.59677 8.8747265,5.7075134 0 0 1 -6.605473,1.898596 8.8747265,5.7075134 0 0 1 -8.87444,-5.707586 8.8747265,5.7075134 0 0 1 8.87444,-5.707586 8.8747265,5.7075134 0 0 1 6.909683,2.126124 10,6.4311992 0 0 0 -8.331733,-2.875282 z" />
    </g>
    <g
       id="g41434-1-2-0-7"
       transform="matrix(1.221846,0,0,1.221846,22.374823,27.866972)"
       style="display:inline">
      <ellipse
         class="cls-1"
         cx="61.260708"
         cy="25.501854"
         rx="10"
         ry="6.4311991"
         id="ellipse41422-8-6-48-5"
         style="display:inline;fill:#00b050;fill-opacity:1;stroke-width:0.735836" />
      <path
         id="path41424-5-1-0-3"
         style="display:inline;fill:#0c8242;fill-opacity:1;stroke-width:0.735837"
         class="cls-1"
         d="m 61.26058,19.070655 a 10,6.4311992 0 0 0 -9.99987,6.431042 10,6.4311992 0 0 0 9.99987,6.431462 10,6.4311992 0 0 0 8.027523,-2.59677 8.8747265,5.7075134 0 0 1 -6.605473,1.898596 8.8747265,5.7075134 0 0 1 -8.87444,-5.707586 8.8747265,5.7075134 0 0 1 8.87444,-5.707586 8.8747265,5.7075134 0 0 1 6.909683,2.126124 10,6.4311992 0 0 0 -8.331733,-2.875282 z" />
      <ellipse
         class="cls-1"
         cx="73.139175"
         cy="34.505405"
         rx="9.9996233"
         ry="6.4311991"
         id="ellipse41426-9-7-58-8"
         style="display:inline;fill:#00b050;fill-opacity:1;stroke-width:0.735836" />
      <path
         id="path41428-6-9-0-1"
         style="display:inline;fill:#0b8241;fill-opacity:1;stroke-width:0.735837"
         class="cls-1"
         d="m 73.139046,28.074209 a 10,6.4311992 0 0 0 -9.99987,6.431042 10,6.4311992 0 0 0 9.99987,6.431462 10,6.4311992 0 0 0 8.027523,-2.59677 8.8747265,5.7075134 0 0 1 -6.605473,1.898596 8.8747265,5.7075134 0 0 1 -8.87444,-5.707586 8.8747265,5.7075134 0 0 1 8.87444,-5.707586 8.8747265,5.7075134 0 0 1 6.909683,2.126124 10,6.4311992 0 0 0 -8.331733,-2.875282 z" />
      <ellipse
         class="cls-1"
         cx="49.762188"
         cy="34.655258"
         rx="10"
         ry="6.4311991"
         id="ellipse41430-3-6-6-8"
         style="display:inline;fill:#00b050;fill-opacity:1;stroke-width:0.735836" />
      <path
         id="path41432-6-93-7-8"
         style="display:inline;fill:#0c8242;fill-opacity:1;stroke-width:0.735837"
         class="cls-1"
         d="m 49.762057,28.224061 a 10,6.4311992 0 0 0 -9.99987,6.431042 10,6.4311992 0 0 0 9.99987,6.431462 10,6.4311992 0 0 0 8.027523,-2.59677 8.8747265,5.7075134 0 0 1 -6.605473,1.898596 8.8747265,5.7075134 0 0 1 -8.87444,-5.707586 8.8747265,5.7075134 0 0 1 8.87444,-5.707586 8.8747265,5.7075134 0 0 1 6.909683,2.126124 10,6.4311992 0 0 0 -8.331733,-2.875282 z" />
    </g>
    <g
       id="g41434-1-2-0-7-8"
       transform="matrix(1.0374254,0,0,1.0374254,-5.622629,18.300252)"
       style="display:inline">
      <ellipse
         class="cls-1"
         cx="61.260708"
         cy="25.501854"
         rx="10"
         ry="6.4311991"
         id="ellipse41422-8-6-48-5-2"
         style="display:inline;fill:#00b050;fill-opacity:1;stroke-width:0.735836" />
      <path
         id="path41424-5-1-0-3-6"
         style="display:inline;fill:#0c8242;fill-opacity:1;stroke-width:0.735837"
         class="cls-1"
         d="m 61.26058,19.070655 a 10,6.4311992 0 0 0 -9.99987,6.431042 10,6.4311992 0 0 0 9.99987,6.431462 10,6.4311992 0 0 0 8.027523,-2.59677 8.8747265,5.7075134 0 0 1 -6.605473,1.898596 8.8747265,5.7075134 0 0 1 -8.87444,-5.707586 8.8747265,5.7075134 0 0 1 8.87444,-5.707586 8.8747265,5.7075134 0 0 1 6.909683,2.126124 10,6.4311992 0 0 0 -8.331733,-2.875282 z" />
      <ellipse
         class="cls-1"
         cx="73.139175"
         cy="34.505405"
         rx="9.9996233"
         ry="6.4311991"
         id="ellipse41426-9-7-58-8-6"
         style="display:inline;fill:#00b050;fill-opacity:1;stroke-width:0.735836" />
      <path
         id="path41428-6-9-0-1-2"
         style="display:inline;fill:#0b8241;fill-opacity:1;stroke-width:0.735837"
         class="cls-1"
         d="m 73.139046,28.074209 a 10,6.4311992 0 0 0 -9.99987,6.431042 10,6.4311992 0 0 0 9.99987,6.431462 10,6.4311992 0 0 0 8.027523,-2.59677 8.8747265,5.7075134 0 0 1 -6.605473,1.898596 8.8747265,5.7075134 0 0 1 -8.87444,-5.707586 8.8747265,5.7075134 0 0 1 8.87444,-5.707586 8.8747265,5.7075134 0 0 1 6.909683,2.126124 10,6.4311992 0 0 0 -8.331733,-2.875282 z" />
      <ellipse
         class="cls-1"
         cx="49.762188"
         cy="34.655258"
         rx="10"
         ry="6.4311991"
         id="ellipse41430-3-6-6-8-2"
         style="display:inline;fill:#00b050;fill-opacity:1;stroke-width:0.735836" />
      <path
         id="path41432-6-93-7-8-1"
         style="display:inline;fill:#0c8242;fill-opacity:1;stroke-width:0.735837"
         class="cls-1"
         d="m 49.762057,28.224061 a 10,6.4311992 0 0 0 -9.99987,6.431042 10,6.4311992 0 0 0 9.99987,6.431462 10,6.4311992 0 0 0 8.027523,-2.59677 8.8747265,5.7075134 0 0 1 -6.605473,1.898596 8.8747265,5.7075134 0 0 1 -8.87444,-5.707586 8.8747265,5.7075134 0 0 1 8.87444,-5.707586 8.8747265,5.7075134 0 0 1 6.909683,2.126124 10,6.4311992 0 0 0 -8.331733,-2.875282 z" />
    </g>
    <g
       id="g41434-1-2-0-7-8-8-9"
       transform="matrix(0.92215594,0,0,0.92215594,10.19702,-11.926176)"
       style="display:inline">
      <ellipse
         class="cls-1"
         cx="61.260708"
         cy="25.501854"
         rx="10"
         ry="6.4311991"
         id="ellipse41422-8-6-48-5-2-1-4"
         style="display:inline;fill:#00b050;fill-opacity:1;stroke-width:0.735836" />
      <path
         id="path41424-5-1-0-3-6-4-1"
         style="display:inline;fill:#0c8242;fill-opacity:1;stroke-width:0.735837"
         class="cls-1"
         d="m 61.26058,19.070655 a 10,6.4311992 0 0 0 -9.99987,6.431042 10,6.4311992 0 0 0 9.99987,6.431462 10,6.4311992 0 0 0 8.027523,-2.59677 8.8747265,5.7075134 0 0 1 -6.605473,1.898596 8.8747265,5.7075134 0 0 1 -8.87444,-5.707586 8.8747265,5.7075134 0 0 1 8.87444,-5.707586 8.8747265,5.7075134 0 0 1 6.909683,2.126124 10,6.4311992 0 0 0 -8.331733,-2.875282 z" />
      <ellipse
         class="cls-1"
         cx="73.139175"
         cy="34.505405"
         rx="9.9996233"
         ry="6.4311991"
         id="ellipse41426-9-7-58-8-6-1-0"
         style="display:inline;fill:#00b050;fill-opacity:1;stroke-width:0.735836" />
      <path
         id="path41428-6-9-0-1-2-2-6"
         style="display:inline;fill:#0b8241;fill-opacity:1;stroke-width:0.735837"
         class="cls-1"
         d="m 73.139046,28.074209 a 10,6.4311992 0 0 0 -9.99987,6.431042 10,6.4311992 0 0 0 9.99987,6.431462 10,6.4311992 0 0 0 8.027523,-2.59677 8.8747265,5.7075134 0 0 1 -6.605473,1.898596 8.8747265,5.7075134 0 0 1 -8.87444,-5.707586 8.8747265,5.7075134 0 0 1 8.87444,-5.707586 8.8747265,5.7075134 0 0 1 6.909683,2.126124 10,6.4311992 0 0 0 -8.331733,-2.875282 z" />
      <ellipse
         class="cls-1"
         cx="49.762188"
         cy="34.655258"
         rx="10"
         ry="6.4311991"
         id="ellipse41430-3-6-6-8-2-2-3"
         style="display:inline;fill:#00b050;fill-opacity:1;stroke-width:0.735836" />
      <path
         id="path41432-6-93-7-8-1-2-4"
         style="display:inline;fill:#0c8242;fill-opacity:1;stroke-width:0.735837"
         class="cls-1"
         d="m 49.762057,28.224061 a 10,6.4311992 0 0 0 -9.99987,6.431042 10,6.4311992 0 0 0 9.99987,6.431462 10,6.4311992 0 0 0 8.027523,-2.59677 8.8747265,5.7075134 0 0 1 -6.605473,1.898596 8.8747265,5.7075134 0 0 1 -8.87444,-5.707586 8.8747265,5.7075134 0 0 1 8.87444,-5.707586 8.8747265,5.7075134 0 0 1 6.909683,2.126124 10,6.4311992 0 0 0 -8.331733,-2.875282 z" />
    </g>
    <path
       d="m 35.694229,112.25978 v 4.9283 c 0,3.54189 2.873022,6.4135 6.415264,6.4135 h 50.68076 c 3.542594,0 6.415264,-2.87161 6.415264,-6.4135 v -4.9283 H 35.694229"
       style="fill:#f68213;fill-opacity:1;fill-rule:nonzero;stroke:none;stroke-width:0.0352778"
       id="path17373" />
    <path
       d="m 35.694229,106.19905 h 63.511288 v 6.06073 H 35.694229 v -6.06073"
       style="fill:#ef8927;fill-opacity:1;fill-rule:nonzero;stroke:none;stroke-width:0.0352778"
       id="path17375" />
    <path
       d="m 44.135143,123.60158 h 46.62699 v 5.44689 h -46.62699 v -5.44689"
       style="fill:#e17825;fill-opacity:1;fill-rule:nonzero;stroke:none;stroke-width:0.0352778"
       id="path17377" />
    <path
       d="m 40.634882,117.18808 v -4.9283 h -4.940653 v 4.9283 c 0,3.54189 2.873022,6.4135 6.415264,6.4135 h 4.940652 c -3.542241,0 -6.415263,-2.87161 -6.415263,-6.4135"
       style="fill:#d2651c;fill-opacity:1;fill-rule:nonzero;stroke:none;stroke-width:0.0352778"
       id="path17379" />
    <path
       d="m 35.694229,106.19905 h 4.940653 v 6.06073 h -4.940653 v -6.06073"
       style="fill:#cd6c1c;fill-opacity:1;fill-rule:nonzero;stroke:none;stroke-width:0.0352778"
       id="path17381" />
    <path
       d="m 44.135143,123.60158 h 4.940652 v 5.44689 h -4.940652 v -5.44689"
       style="fill:#bd5b1e;fill-opacity:1;fill-rule:nonzero;stroke:none;stroke-width:0.0352778"
       id="path17383" />
  </g>
</svg>
