<?xml version="1.0" encoding="UTF-8" standalone="no"?>
<!-- Created with Inkscape (http://www.inkscape.org/) -->

<svg
   width="500"
   height="500"
   viewBox="0 0 132.29166 132.29167"
   version="1.1"
   id="svg2515"
   inkscape:version="1.1.2 (b8e25be833, 2022-02-05)"
   sodipodi:docname="bonsai10s05blooming.svg"
   inkscape:export-filename="C:\Users\Lenovo\Desktop\Coding\Media files\Bonsais\bonsai10.png"
   inkscape:export-xdpi="96"
   inkscape:export-ydpi="96"
   xmlns:inkscape="http://www.inkscape.org/namespaces/inkscape"
   xmlns:sodipodi="http://sodipodi.sourceforge.net/DTD/sodipodi-0.dtd"
   xmlns="http://www.w3.org/2000/svg"
   xmlns:svg="http://www.w3.org/2000/svg">
  <sodipodi:namedview
     id="namedview2517"
     pagecolor="#ffffff"
     bordercolor="#666666"
     borderopacity="1.0"
     inkscape:pageshadow="2"
     inkscape:pageopacity="0.0"
     inkscape:pagecheckerboard="0"
     inkscape:document-units="mm"
     showgrid="false"
     units="px"
     inkscape:zoom="1.4142136"
     inkscape:cx="272.58966"
     inkscape:cy="245.7196"
     inkscape:window-width="1920"
     inkscape:window-height="1001"
     inkscape:window-x="-9"
     inkscape:window-y="-9"
     inkscape:window-maximized="1"
     inkscape:current-layer="g51917" />
  <defs
     id="defs2512">
    <marker
       style="overflow:visible"
       id="Arrow1Sstart"
       refX="0.0"
       refY="0.0"
       orient="auto"
       inkscape:stockid="Arrow1Sstart"
       inkscape:isstock="true">
      <path
         transform="scale(0.2) translate(6,0)"
         style="fill-rule:evenodd;fill:context-stroke;stroke:context-stroke;stroke-width:1.0pt"
         d="M 0.0,0.0 L 5.0,-5.0 L -12.5,0.0 L 5.0,5.0 L 0.0,0.0 z "
         id="path24092" />
    </marker>
    <marker
       style="overflow:visible"
       id="Arrow1Mstart"
       refX="0.0"
       refY="0.0"
       orient="auto"
       inkscape:stockid="Arrow1Mstart"
       inkscape:isstock="true">
      <path
         transform="scale(0.4) translate(10,0)"
         style="fill-rule:evenodd;fill:context-stroke;stroke:context-stroke;stroke-width:1.0pt"
         d="M 0.0,0.0 L 5.0,-5.0 L -12.5,0.0 L 5.0,5.0 L 0.0,0.0 z "
         id="path24086" />
    </marker>
    <marker
       style="overflow:visible"
       id="Arrow1Lstart"
       refX="0.0"
       refY="0.0"
       orient="auto"
       inkscape:stockid="Arrow1Lstart"
       inkscape:isstock="true">
      <path
         transform="scale(0.8) translate(12.5,0)"
         style="fill-rule:evenodd;fill:context-stroke;stroke:context-stroke;stroke-width:1.0pt"
         d="M 0.0,0.0 L 5.0,-5.0 L -12.5,0.0 L 5.0,5.0 L 0.0,0.0 z "
         id="path24080" />
    </marker>
    <marker
       style="overflow:visible;"
       id="Arrow1Lend"
       refX="0.0"
       refY="0.0"
       orient="auto"
       inkscape:stockid="Arrow1Lend"
       inkscape:isstock="true">
      <path
         transform="scale(0.8) rotate(180) translate(12.5,0)"
         style="fill-rule:evenodd;fill:context-stroke;stroke:context-stroke;stroke-width:1.0pt;"
         d="M 0.0,0.0 L 5.0,-5.0 L -12.5,0.0 L 5.0,5.0 L 0.0,0.0 z "
         id="path24083" />
    </marker>
  </defs>
  <g
     inkscape:label="Double Trunk"
     inkscape:groupmode="layer"
     id="g51917"
     style="display:inline">
    <g
       id="g51833"
       transform="translate(157.39097,31.976453)"
       style="display:inline">
      <g
         id="g51831"
         transform="translate(-5.2916669)">
        <g
           id="g51823"
           transform="rotate(-13.017437,48.811012,639.29985)">
          <path
             style="display:inline;fill:#bb695d;fill-opacity:1;stroke:#bb695d;stroke-width:1;stroke-linecap:round;stroke-linejoin:round;stroke-miterlimit:4;stroke-dasharray:none;stroke-opacity:1"
             d="m 35.870136,79.809188 c 0,0 -5.93462,-10.285377 -0.36765,-17.935201 6.813833,-9.363182 12.17001,-5.093403 20.635714,-13.494745 6.786493,-6.734912 3.856953,-4.941474 9.61376,-12.344267 8.901728,-11.446877 8.659273,-1.55111 18.063763,-7.957382 7.913798,-5.390822 6.163238,-9.447209 15.526264,-17.43746 -2.405674,12.080364 -8.000423,9.916592 -10.90212,19.308518 -10.998001,6.255711 -2.636099,3.404697 -10.733417,5.461961 -9.484259,2.409639 -8.368428,8.046906 -13.315573,14.129643 -7.813845,9.607437 -15.695209,6.410437 -18.541148,16.263577 -2.153488,7.455755 1.038976,14.510776 2.528597,17.311986 1.489631,2.80121 -12.50819,-3.30663 -12.50819,-3.30663 z"
             id="path51819"
             sodipodi:nodetypes="cssssccssssc" />
          <path
             id="path51821"
             style="display:inline;fill:#954b45;fill-opacity:1;stroke:#954b45;stroke-width:3.77953;stroke-linecap:round;stroke-linejoin:round;stroke-miterlimit:4;stroke-dasharray:none;stroke-opacity:1"
             d="m 970.33008,153.07031 c -35.38782,30.19938 -28.77318,45.53149 -58.6836,65.90625 -35.54452,24.21268 -34.62715,-13.18957 -68.27148,30.07422 -21.75801,27.97906 -10.6862,21.20147 -36.33594,46.65625 -31.99636,31.7531 -52.23911,15.6155 -77.99218,51.00391 -21.04052,28.91272 1.38867,67.78515 1.38867,67.78515 0,0 0.53969,0.23173 0.68554,0.29493 -5.05604,-10.82763 -16.10396,-40.35023 0.75977,-63.52344 25.75307,-35.38841 45.99778,-19.2508 77.99414,-51.00391 25.64974,-25.45478 14.57793,-18.67719 36.33594,-46.65625 33.64432,-43.26379 32.72695,-5.86154 68.27148,-30.07422 28.41915,-19.35891 23.88953,-34.17576 53.71875,-61.50781 0.76306,-2.74415 1.48041,-5.69857 2.12891,-8.95508 z"
             transform="matrix(0.26458333,0,0,0.26458333,-157.39097,-29.859785)" />
        </g>
        <g
           id="g51829"
           transform="translate(-103.45205,-31.75)">
          <path
             style="display:inline;fill:#bb695d;fill-opacity:1;stroke:#bb695d;stroke-width:1;stroke-linecap:round;stroke-linejoin:round;stroke-miterlimit:4;stroke-dasharray:none;stroke-opacity:1"
             d="m 1.5429645,115.20461 c 0,0 -0.44391,-8.09307 -7.413009,-16.606491 -5.7703105,-7.049 -13.8088905,-10.89145 -10.0809905,-22.220768 2.98845,-9.082106 6.5809805,-11.287183 11.7883305,-16.9438 C 5.6584545,48.765064 7.3043845,49.408168 12.774609,39.430122 17.377757,31.033683 4.9076645,22.010606 9.6217105,10.640113 12.96362,22.495664 18.44838,26.548244 20.12762,36.233711 15.444354,48.50294 18.442121,45.423796 15.444354,48.50294 c -2.295407,2.357716 -5.14072,4.406037 -7.8642035,6.795331 -7.35602602,6.453392 -10.606666,25.3144 -10.606666,25.3144 10.538324,6.504058 13.6860715,7.919038 15.6244115,17.990108 1.46672,7.620671 12.857197,14.782431 15.456337,16.601831 2.59915,1.8194 -26.5112685,0 -26.5112685,0 z"
             id="path51825"
             sodipodi:nodetypes="cssssccsssssc" />
          <path
             id="path51827"
             style="display:inline;fill:#954b45;fill-opacity:1;stroke:#954b45;stroke-width:3.77953;stroke-linecap:round;stroke-linejoin:round;stroke-miterlimit:4;stroke-dasharray:none;stroke-opacity:1"
             d="m 631.22852,153.07031 c -17.81689,42.97509 29.31375,77.07793 11.91601,108.8125 -20.67485,37.7123 -26.89433,35.28168 -64.01367,75.60352 -19.68132,21.37934 -33.25976,29.71299 -44.55469,64.03906 -14.0897,42.81947 16.29252,57.3425 38.10156,83.98438 26.33991,32.17672 28.01758,62.76562 28.01758,62.76562 0,0 3.6319,0.21449 8.51367,0.49219 -0.94557,-7.59992 -5.65489,-33.43191 -27.77929,-60.45899 -21.80905,-26.64183 -52.19127,-41.16491 -38.10157,-83.98437 11.29494,-34.32607 24.87337,-42.65972 44.55469,-64.03906 37.11934,-40.32184 43.34078,-37.89122 64.01563,-75.60352 15.60524,-28.46494 -20.69795,-58.8372 -15.48828,-95.80664 -1.82765,-4.8605 -3.57081,-10.09019 -5.18164,-15.80469 z"
             transform="matrix(0.26458333,0,0,0.26458333,-157.39097,-29.859785)" />
        </g>
      </g>
    </g>
    <g
       id="g2087-2-0-1-1-3-7"
       transform="matrix(0.74984437,0,0,-0.22767039,-1977.5784,212.23816)"
       style="display:inline">
      <path
         d="m 2662.48,435.21 h 113.68 l 0.22,0.11 c 0.01,-0.04 0.03,-0.07 0.06,-0.11 4.05,-8.37 6.33,-17.76 6.33,-27.67 0,-16.4 -6.22,-31.35 -16.43,-42.61 -5.13,-5.66 -12.45,-8.83 -20.09,-8.83 h -53.87 c -7.63,0 -14.95,3.17 -20.08,8.83 -10.21,11.26 -16.44,26.21 -16.44,42.61 0,9.91 2.28,19.3 6.34,27.67 0.02,0.04 0.03,0.07 0.05,0.11 l 0.23,-0.11 v 0"
         style="fill:#b0a7c9;fill-opacity:1;fill-rule:nonzero;stroke:none;stroke-width:0.1"
         id="path800-2-7-5-6-0" />
      <path
         d="m 2759.74,456.46 h -80.85 c -6.94,-5.76 -12.64,-12.96 -16.64,-21.14 l 0.23,-0.11 h 113.68 l 0.22,0.11 c -3.99,8.18 -9.69,15.38 -16.64,21.14"
         style="fill:#e06475;fill-opacity:1;fill-rule:nonzero;stroke:none;stroke-width:0.1"
         id="path802-7-8-3-2-7" />
      <path
         d="m 2686.3,364.93 c -10.21,11.26 -16.43,26.21 -16.43,42.61 0,9.91 2.27,19.3 6.33,27.67 h -13.72 l -0.23,0.11 c -0.02,-0.04 -0.03,-0.07 -0.05,-0.11 -4.06,-8.37 -6.34,-17.76 -6.34,-27.67 0,-16.4 6.23,-31.35 16.44,-42.61 5.13,-5.66 12.45,-8.83 20.08,-8.83 h 14 c -7.63,0 -14.95,3.17 -20.08,8.83"
         style="fill:#807ca8;fill-opacity:1;fill-rule:nonzero;stroke:none;stroke-width:0.1"
         id="path832-0-7-9-8-0" />
      <path
         d="m 2692.9,456.46 h -14.01 c -6.94,-5.76 -12.64,-12.96 -16.64,-21.14 l 0.23,-0.11 h 14 l -0.22,0.11 c 3.99,8.18 9.69,15.38 16.64,21.14"
         style="fill:#ba4754;fill-opacity:1;fill-rule:nonzero;stroke:none;stroke-width:0.1"
         id="path834-8-4-6-5-9" />
    </g>
    <g
       id="g2402-0-7-3-2-7"
       style="display:inline"
       transform="translate(-24.095332,11.02727)">
      <g
         id="g80849-6-0-8-3-5"
         transform="matrix(0.90290827,0,0,0.90290827,-55.445709,-12.289123)"
         style="display:inline">
        <g
           id="g80785-1-1-7-0-6"
           transform="translate(-17.025069,46.585079)">
          <path
             d="m 146.85461,18.019882 c -2.52835,0.17383 -20.29122,1.865253 -21.53293,14.043594 -0.15088,1.30177 -0.23633,2.6094 -0.29248,3.918007 l 8.73397,-8.725183 c 0.30518,-0.305179 0.80079,-0.305179 1.10597,0 0.30518,0.305179 0.30518,0.799813 0,1.104991 l -12.67102,12.658327 c -0.45801,0.457524 -0.45801,1.199719 0,1.657243 0.45801,0.457523 1.20069,0.457523 1.65919,0 l 2.78958,-2.786649 c 2.0552,-0.0068 4.10893,-0.123536 6.15045,-0.359378 2.61136,-0.265627 4.73735,-1.292494 6.4737,-2.760769 h -4.92925 l 7.16755,-2.386742 c 0.54932,-0.727058 1.04347,-1.499527 1.48683,-2.300804 h -3.96195 l 5.2022,-2.59817 c 2.0464,-4.977099 2.52981,-10.182228 2.61819,-11.464467 z"
             id="path2-90-53-3-9-6-0"
             style="fill:#92d050;fill-opacity:1;stroke-width:0.0488285" />
          <path
             id="path2-90-1-74-3-5-8-7"
             style="display:inline;fill:#68923b;fill-opacity:1;stroke-width:0.0488286"
             d="m 146.85474,18.020304 c -2.52835,0.173832 -20.29134,1.865247 -21.53305,14.043589 -0.15088,1.301768 -0.23634,2.608982 -0.29249,3.91759 l 3.41168,-3.408061 c 0.0175,-0.169963 0.0361,-0.339757 0.0558,-0.509529 0.98731,-9.683234 12.41304,-12.73433 18.32705,-13.666351 0.0109,-0.131085 0.0247,-0.285112 0.031,-0.377238 z m -9.36377,9.007203 c -0.2002,0 -0.40034,0.07634 -0.55294,0.228925 l -8.73383,8.725051 c 0.0145,-0.337502 0.0311,-0.674537 0.0501,-1.011825 l -6.05648,6.050277 c -0.45801,0.457523 -0.45801,1.199738 0,1.657263 0.45801,0.457523 1.20083,0.457523 1.65933,0 l 1.2516,-1.250569 c 0.0571,-0.148153 0.14447,-0.287224 0.26407,-0.406694 l 12.67106,-12.658658 c 0.30518,-0.305181 0.30518,-0.799664 0,-1.104845 -0.15259,-0.152588 -0.35274,-0.228925 -0.55294,-0.228925 z" />
        </g>
        <g
           id="g80785-4-7-6-1-6-4"
           transform="translate(2.3732625,41.795296)"
           style="display:inline">
          <path
             d="m 146.85461,18.019882 c -2.52835,0.17383 -20.29122,1.865253 -21.53293,14.043594 -0.15088,1.30177 -0.23633,2.6094 -0.29248,3.918007 l 8.73397,-8.725183 c 0.30518,-0.305179 0.80079,-0.305179 1.10597,0 0.30518,0.305179 0.30518,0.799813 0,1.104991 l -12.67102,12.658327 c -0.45801,0.457524 -0.45801,1.199719 0,1.657243 0.45801,0.457523 1.20069,0.457523 1.65919,0 l 2.78958,-2.786649 c 2.0552,-0.0068 4.10893,-0.123536 6.15045,-0.359378 2.61136,-0.265627 4.73735,-1.292494 6.4737,-2.760769 h -4.92925 l 7.16755,-2.386742 c 0.54932,-0.727058 1.04347,-1.499527 1.48683,-2.300804 h -3.96195 l 5.2022,-2.59817 c 2.0464,-4.977099 2.52981,-10.182228 2.61819,-11.464467 z"
             id="path2-90-7-5-7-5-0-6"
             style="fill:#92d050;fill-opacity:1;stroke-width:0.0488285" />
          <path
             id="path2-90-1-3-5-5-5-0-9"
             style="display:inline;fill:#68923b;fill-opacity:1;stroke-width:0.0488286"
             d="m 146.85474,18.020304 c -2.52835,0.173832 -20.29134,1.865247 -21.53305,14.043589 -0.15088,1.301768 -0.23634,2.608982 -0.29249,3.91759 l 3.41168,-3.408061 c 0.0175,-0.169963 0.0361,-0.339757 0.0558,-0.509529 0.98731,-9.683234 12.41304,-12.73433 18.32705,-13.666351 0.0109,-0.131085 0.0247,-0.285112 0.031,-0.377238 z m -9.36377,9.007203 c -0.2002,0 -0.40034,0.07634 -0.55294,0.228925 l -8.73383,8.725051 c 0.0145,-0.337502 0.0311,-0.674537 0.0501,-1.011825 l -6.05648,6.050277 c -0.45801,0.457523 -0.45801,1.199738 0,1.657263 0.45801,0.457523 1.20083,0.457523 1.65933,0 l 1.2516,-1.250569 c 0.0571,-0.148153 0.14447,-0.287224 0.26407,-0.406694 l 12.67106,-12.658658 c 0.30518,-0.305181 0.30518,-0.799664 0,-1.104845 -0.15259,-0.152588 -0.35274,-0.228925 -0.55294,-0.228925 z" />
        </g>
        <g
           id="g80785-7-1-1-6-5-6"
           transform="translate(16.673711,46.585118)"
           style="display:inline">
          <path
             d="m 146.85461,18.019882 c -2.52835,0.17383 -20.29122,1.865253 -21.53293,14.043594 -0.15088,1.30177 -0.23633,2.6094 -0.29248,3.918007 l 8.73397,-8.725183 c 0.30518,-0.305179 0.80079,-0.305179 1.10597,0 0.30518,0.305179 0.30518,0.799813 0,1.104991 l -12.67102,12.658327 c -0.45801,0.457524 -0.45801,1.199719 0,1.657243 0.45801,0.457523 1.20069,0.457523 1.65919,0 l 2.78958,-2.786649 c 2.0552,-0.0068 4.10893,-0.123536 6.15045,-0.359378 2.61136,-0.265627 4.73735,-1.292494 6.4737,-2.760769 h -4.92925 l 7.16755,-2.386742 c 0.54932,-0.727058 1.04347,-1.499527 1.48683,-2.300804 h -3.96195 l 5.2022,-2.59817 c 2.0464,-4.977099 2.52981,-10.182228 2.61819,-11.464467 z"
             id="path2-90-77-5-8-0-9-9"
             style="fill:#92d050;fill-opacity:1;stroke-width:0.0488285" />
          <path
             id="path2-90-1-4-40-0-0-3-6"
             style="display:inline;fill:#68923b;fill-opacity:1;stroke-width:0.0488286"
             d="m 146.85474,18.020304 c -2.52835,0.173832 -20.29134,1.865247 -21.53305,14.043589 -0.15088,1.301768 -0.23634,2.608982 -0.29249,3.91759 l 3.41168,-3.408061 c 0.0175,-0.169963 0.0361,-0.339757 0.0558,-0.509529 0.98731,-9.683234 12.41304,-12.73433 18.32705,-13.666351 0.0109,-0.131085 0.0247,-0.285112 0.031,-0.377238 z m -9.36377,9.007203 c -0.2002,0 -0.40034,0.07634 -0.55294,0.228925 l -8.73383,8.725051 c 0.0145,-0.337502 0.0311,-0.674537 0.0501,-1.011825 l -6.05648,6.050277 c -0.45801,0.457523 -0.45801,1.199738 0,1.657263 0.45801,0.457523 1.20083,0.457523 1.65933,0 l 1.2516,-1.250569 c 0.0571,-0.148153 0.14447,-0.287224 0.26407,-0.406694 l 12.67106,-12.658658 c 0.30518,-0.305181 0.30518,-0.799664 0,-1.104845 -0.15259,-0.152588 -0.35274,-0.228925 -0.55294,-0.228925 z" />
        </g>
      </g>
      <g
         id="g8733-3-8-8-8-6-7-7-4-9-1"
         transform="matrix(0.02343754,0,0,0.02343754,80.402219,40.998242)"
         style="display:inline;fill:#706282;fill-opacity:1">
        <path
           class="st0"
           d="m 330.555,101.873 c 0,-34.164 -13.767,-65.108 -36.047,-87.622 -2.432,-2.465 -9.63,-4.349 -14.212,3.466 -4.589,7.808 -17.205,27.431 -17.205,27.431 -1.534,2.438 -4.219,3.918 -7.089,3.918 -2.883,0 -5.555,-1.48 -7.089,-3.918 0,0 -12.623,-19.623 -17.205,-27.431 -4.582,-7.815 -11.781,-5.931 -14.219,-3.466 -22.274,22.514 -36.04,53.458 -36.04,87.622 0,51.02 30.663,94.847 74.553,114.142 43.89,-19.295 74.553,-63.123 74.553,-114.142 z"
           id="path8723-8-6-51-3-8-8-6-2-8-5"
           style="fill:#706282;fill-opacity:1" />
        <path
           class="st0"
           d="m 204.51,253.425 c -4.78,-47.705 -36.998,-90.409 -85.518,-106.176 -32.492,-10.554 -66.177,-7.027 -94.47,7.205 -3.096,1.555 -7.117,7.822 -1.096,14.589 6.007,6.774 20.766,24.842 20.766,24.842 1.849,2.212 2.432,5.22 1.542,7.952 -0.891,2.74 -3.13,4.829 -5.918,5.528 0,0 -22.562,5.945 -31.404,7.89 -8.849,1.945 -9.281,9.37 -7.692,12.445 14.527,28.144 39.698,50.801 72.197,61.362 48.519,15.766 99.683,0.15 131.593,-35.637 z"
           id="path8725-5-6-3-4-9-5-6-9-4-0"
           style="fill:#706282;fill-opacity:1" />
        <path
           class="st0"
           d="M 96.772,362.484 C 76.69,390.127 69.636,423.25 74.43,454.558 c 0.527,3.424 5.233,9.178 13.527,5.554 8.308,-3.63 30.054,-12.088 30.054,-12.088 2.672,-1.062 5.698,-0.692 8.041,1 2.329,1.692 3.623,4.466 3.418,7.335 0,0 -1.308,23.294 -2.199,32.315 -0.883,9.006 6.048,11.712 9.466,11.15 31.252,-5.116 60.581,-22.054 80.662,-49.704 29.993,-41.266 30.944,-94.758 6.781,-136.155 -46.848,-10.192 -97.422,7.239 -127.408,48.519 z"
           id="path8727-3-5-0-26-9-8-2-7-8-1"
           style="fill:#706282;fill-opacity:1" />
        <path
           class="st0"
           d="m 287.824,313.964 c -24.165,41.397 -23.212,94.888 6.78,136.155 20.082,27.65 49.41,44.588 80.663,49.704 3.418,0.562 10.349,-2.144 9.466,-11.15 -0.89,-9.021 -2.205,-32.315 -2.205,-32.315 -0.198,-2.869 1.102,-5.643 3.431,-7.335 2.322,-1.692 5.363,-2.062 8.034,-1 0,0 21.746,8.458 30.047,12.088 8.294,3.623 13.007,-2.13 13.534,-5.554 4.787,-31.308 -2.254,-64.43 -22.342,-92.074 -29.986,-41.279 -80.56,-58.717 -127.408,-48.519 z"
           id="path8729-3-8-1-7-6-8-2-4-4-1"
           style="fill:#706282;fill-opacity:1" />
        <path
           class="st0"
           d="m 503.6,215.254 c -8.849,-1.945 -31.41,-7.89 -31.41,-7.89 -2.795,-0.706 -5.027,-2.788 -5.918,-5.528 -0.89,-2.732 -0.308,-5.74 1.534,-7.952 0,0 14.76,-18.068 20.78,-24.842 6.014,-6.766 1.993,-13.034 -1.096,-14.589 -28.301,-14.232 -61.978,-17.76 -94.485,-7.205 -48.519,15.767 -80.731,58.472 -85.512,106.176 31.91,35.787 83.067,51.403 131.593,35.636 32.492,-10.561 57.67,-33.218 72.191,-61.362 1.59,-3.074 1.172,-10.499 -7.677,-12.444 z"
           id="path8731-7-2-49-14-0-5-5-1-3-0"
           style="fill:#706282;fill-opacity:1" />
      </g>
      <g
         id="g8733-3-8-8-8-6-3-0-2-9-9-2"
         transform="matrix(0.02343754,0,0,0.02343754,67.490226,36.673472)"
         style="display:inline;fill:#706282;fill-opacity:1">
        <path
           class="st0"
           d="m 330.555,101.873 c 0,-34.164 -13.767,-65.108 -36.047,-87.622 -2.432,-2.465 -9.63,-4.349 -14.212,3.466 -4.589,7.808 -17.205,27.431 -17.205,27.431 -1.534,2.438 -4.219,3.918 -7.089,3.918 -2.883,0 -5.555,-1.48 -7.089,-3.918 0,0 -12.623,-19.623 -17.205,-27.431 -4.582,-7.815 -11.781,-5.931 -14.219,-3.466 -22.274,22.514 -36.04,53.458 -36.04,87.622 0,51.02 30.663,94.847 74.553,114.142 43.89,-19.295 74.553,-63.123 74.553,-114.142 z"
           id="path8723-8-6-51-3-8-5-3-7-7-0-6"
           style="fill:#706282;fill-opacity:1" />
        <path
           class="st0"
           d="m 204.51,253.425 c -4.78,-47.705 -36.998,-90.409 -85.518,-106.176 -32.492,-10.554 -66.177,-7.027 -94.47,7.205 -3.096,1.555 -7.117,7.822 -1.096,14.589 6.007,6.774 20.766,24.842 20.766,24.842 1.849,2.212 2.432,5.22 1.542,7.952 -0.891,2.74 -3.13,4.829 -5.918,5.528 0,0 -22.562,5.945 -31.404,7.89 -8.849,1.945 -9.281,9.37 -7.692,12.445 14.527,28.144 39.698,50.801 72.197,61.362 48.519,15.766 99.683,0.15 131.593,-35.637 z"
           id="path8725-5-6-3-4-9-0-27-1-6-6-3"
           style="fill:#706282;fill-opacity:1" />
        <path
           class="st0"
           d="M 96.772,362.484 C 76.69,390.127 69.636,423.25 74.43,454.558 c 0.527,3.424 5.233,9.178 13.527,5.554 8.308,-3.63 30.054,-12.088 30.054,-12.088 2.672,-1.062 5.698,-0.692 8.041,1 2.329,1.692 3.623,4.466 3.418,7.335 0,0 -1.308,23.294 -2.199,32.315 -0.883,9.006 6.048,11.712 9.466,11.15 31.252,-5.116 60.581,-22.054 80.662,-49.704 29.993,-41.266 30.944,-94.758 6.781,-136.155 -46.848,-10.192 -97.422,7.239 -127.408,48.519 z"
           id="path8727-3-5-0-26-9-2-2-8-7-3-7"
           style="fill:#706282;fill-opacity:1" />
        <path
           class="st0"
           d="m 287.824,313.964 c -24.165,41.397 -23.212,94.888 6.78,136.155 20.082,27.65 49.41,44.588 80.663,49.704 3.418,0.562 10.349,-2.144 9.466,-11.15 -0.89,-9.021 -2.205,-32.315 -2.205,-32.315 -0.198,-2.869 1.102,-5.643 3.431,-7.335 2.322,-1.692 5.363,-2.062 8.034,-1 0,0 21.746,8.458 30.047,12.088 8.294,3.623 13.007,-2.13 13.534,-5.554 4.787,-31.308 -2.254,-64.43 -22.342,-92.074 -29.986,-41.279 -80.56,-58.717 -127.408,-48.519 z"
           id="path8729-3-8-1-7-6-4-5-6-7-3-4"
           style="fill:#706282;fill-opacity:1" />
        <path
           class="st0"
           d="m 503.6,215.254 c -8.849,-1.945 -31.41,-7.89 -31.41,-7.89 -2.795,-0.706 -5.027,-2.788 -5.918,-5.528 -0.89,-2.732 -0.308,-5.74 1.534,-7.952 0,0 14.76,-18.068 20.78,-24.842 6.014,-6.766 1.993,-13.034 -1.096,-14.589 -28.301,-14.232 -61.978,-17.76 -94.485,-7.205 -48.519,15.767 -80.731,58.472 -85.512,106.176 31.91,35.787 83.067,51.403 131.593,35.636 32.492,-10.561 57.67,-33.218 72.191,-61.362 1.59,-3.074 1.172,-10.499 -7.677,-12.444 z"
           id="path8731-7-2-49-14-0-2-58-2-3-6-9"
           style="fill:#706282;fill-opacity:1" />
      </g>
      <g
         id="g8733-3-8-8-8-6-3-1-75-5-0-2-6"
         transform="matrix(0.02343754,0,0,0.02343754,49.975312,40.998206)"
         style="display:inline;fill:#706282;fill-opacity:1">
        <path
           class="st0"
           d="m 330.555,101.873 c 0,-34.164 -13.767,-65.108 -36.047,-87.622 -2.432,-2.465 -9.63,-4.349 -14.212,3.466 -4.589,7.808 -17.205,27.431 -17.205,27.431 -1.534,2.438 -4.219,3.918 -7.089,3.918 -2.883,0 -5.555,-1.48 -7.089,-3.918 0,0 -12.623,-19.623 -17.205,-27.431 -4.582,-7.815 -11.781,-5.931 -14.219,-3.466 -22.274,22.514 -36.04,53.458 -36.04,87.622 0,51.02 30.663,94.847 74.553,114.142 43.89,-19.295 74.553,-63.123 74.553,-114.142 z"
           id="path8723-8-6-51-3-8-5-2-8-3-5-2-9"
           style="fill:#706282;fill-opacity:1" />
        <path
           class="st0"
           d="m 204.51,253.425 c -4.78,-47.705 -36.998,-90.409 -85.518,-106.176 -32.492,-10.554 -66.177,-7.027 -94.47,7.205 -3.096,1.555 -7.117,7.822 -1.096,14.589 6.007,6.774 20.766,24.842 20.766,24.842 1.849,2.212 2.432,5.22 1.542,7.952 -0.891,2.74 -3.13,4.829 -5.918,5.528 0,0 -22.562,5.945 -31.404,7.89 -8.849,1.945 -9.281,9.37 -7.692,12.445 14.527,28.144 39.698,50.801 72.197,61.362 48.519,15.766 99.683,0.15 131.593,-35.637 z"
           id="path8725-5-6-3-4-9-0-3-4-9-6-6-3"
           style="fill:#706282;fill-opacity:1" />
        <path
           class="st0"
           d="M 96.772,362.484 C 76.69,390.127 69.636,423.25 74.43,454.558 c 0.527,3.424 5.233,9.178 13.527,5.554 8.308,-3.63 30.054,-12.088 30.054,-12.088 2.672,-1.062 5.698,-0.692 8.041,1 2.329,1.692 3.623,4.466 3.418,7.335 0,0 -1.308,23.294 -2.199,32.315 -0.883,9.006 6.048,11.712 9.466,11.15 31.252,-5.116 60.581,-22.054 80.662,-49.704 29.993,-41.266 30.944,-94.758 6.781,-136.155 -46.848,-10.192 -97.422,7.239 -127.408,48.519 z"
           id="path8727-3-5-0-26-9-2-8-9-5-6-5-7"
           style="fill:#706282;fill-opacity:1" />
        <path
           class="st0"
           d="m 287.824,313.964 c -24.165,41.397 -23.212,94.888 6.78,136.155 20.082,27.65 49.41,44.588 80.663,49.704 3.418,0.562 10.349,-2.144 9.466,-11.15 -0.89,-9.021 -2.205,-32.315 -2.205,-32.315 -0.198,-2.869 1.102,-5.643 3.431,-7.335 2.322,-1.692 5.363,-2.062 8.034,-1 0,0 21.746,8.458 30.047,12.088 8.294,3.623 13.007,-2.13 13.534,-5.554 4.787,-31.308 -2.254,-64.43 -22.342,-92.074 -29.986,-41.279 -80.56,-58.717 -127.408,-48.519 z"
           id="path8729-3-8-1-7-6-4-3-5-6-0-7-3"
           style="fill:#706282;fill-opacity:1" />
        <path
           class="st0"
           d="m 503.6,215.254 c -8.849,-1.945 -31.41,-7.89 -31.41,-7.89 -2.795,-0.706 -5.027,-2.788 -5.918,-5.528 -0.89,-2.732 -0.308,-5.74 1.534,-7.952 0,0 14.76,-18.068 20.78,-24.842 6.014,-6.766 1.993,-13.034 -1.096,-14.589 -28.301,-14.232 -61.978,-17.76 -94.485,-7.205 -48.519,15.767 -80.731,58.472 -85.512,106.176 31.91,35.787 83.067,51.403 131.593,35.636 32.492,-10.561 57.67,-33.218 72.191,-61.362 1.59,-3.074 1.172,-10.499 -7.677,-12.444 z"
           id="path8731-7-2-49-14-0-2-8-78-0-0-3-5"
           style="fill:#706282;fill-opacity:1" />
      </g>
    </g>
    <g
       id="g2402-0-7-3-2-5"
       style="display:inline"
       transform="matrix(0.84591636,0,0,0.84591636,36.100006,25.52719)">
      <g
         id="g80849-6-0-8-3-9"
         transform="matrix(0.90290827,0,0,0.90290827,-55.445709,-12.289123)"
         style="display:inline">
        <g
           id="g80785-1-1-7-0-0"
           transform="translate(-17.025069,46.585079)">
          <path
             d="m 146.85461,18.019882 c -2.52835,0.17383 -20.29122,1.865253 -21.53293,14.043594 -0.15088,1.30177 -0.23633,2.6094 -0.29248,3.918007 l 8.73397,-8.725183 c 0.30518,-0.305179 0.80079,-0.305179 1.10597,0 0.30518,0.305179 0.30518,0.799813 0,1.104991 l -12.67102,12.658327 c -0.45801,0.457524 -0.45801,1.199719 0,1.657243 0.45801,0.457523 1.20069,0.457523 1.65919,0 l 2.78958,-2.786649 c 2.0552,-0.0068 4.10893,-0.123536 6.15045,-0.359378 2.61136,-0.265627 4.73735,-1.292494 6.4737,-2.760769 h -4.92925 l 7.16755,-2.386742 c 0.54932,-0.727058 1.04347,-1.499527 1.48683,-2.300804 h -3.96195 l 5.2022,-2.59817 c 2.0464,-4.977099 2.52981,-10.182228 2.61819,-11.464467 z"
             id="path2-90-53-3-9-6-1"
             style="fill:#92d050;fill-opacity:1;stroke-width:0.0488285" />
          <path
             id="path2-90-1-74-3-5-8-4"
             style="display:inline;fill:#68923b;fill-opacity:1;stroke-width:0.0488286"
             d="m 146.85474,18.020304 c -2.52835,0.173832 -20.29134,1.865247 -21.53305,14.043589 -0.15088,1.301768 -0.23634,2.608982 -0.29249,3.91759 l 3.41168,-3.408061 c 0.0175,-0.169963 0.0361,-0.339757 0.0558,-0.509529 0.98731,-9.683234 12.41304,-12.73433 18.32705,-13.666351 0.0109,-0.131085 0.0247,-0.285112 0.031,-0.377238 z m -9.36377,9.007203 c -0.2002,0 -0.40034,0.07634 -0.55294,0.228925 l -8.73383,8.725051 c 0.0145,-0.337502 0.0311,-0.674537 0.0501,-1.011825 l -6.05648,6.050277 c -0.45801,0.457523 -0.45801,1.199738 0,1.657263 0.45801,0.457523 1.20083,0.457523 1.65933,0 l 1.2516,-1.250569 c 0.0571,-0.148153 0.14447,-0.287224 0.26407,-0.406694 l 12.67106,-12.658658 c 0.30518,-0.305181 0.30518,-0.799664 0,-1.104845 -0.15259,-0.152588 -0.35274,-0.228925 -0.55294,-0.228925 z" />
        </g>
        <g
           id="g80785-4-7-6-1-6-48"
           transform="translate(2.3732625,41.795296)"
           style="display:inline">
          <path
             d="m 146.85461,18.019882 c -2.52835,0.17383 -20.29122,1.865253 -21.53293,14.043594 -0.15088,1.30177 -0.23633,2.6094 -0.29248,3.918007 l 8.73397,-8.725183 c 0.30518,-0.305179 0.80079,-0.305179 1.10597,0 0.30518,0.305179 0.30518,0.799813 0,1.104991 l -12.67102,12.658327 c -0.45801,0.457524 -0.45801,1.199719 0,1.657243 0.45801,0.457523 1.20069,0.457523 1.65919,0 l 2.78958,-2.786649 c 2.0552,-0.0068 4.10893,-0.123536 6.15045,-0.359378 2.61136,-0.265627 4.73735,-1.292494 6.4737,-2.760769 h -4.92925 l 7.16755,-2.386742 c 0.54932,-0.727058 1.04347,-1.499527 1.48683,-2.300804 h -3.96195 l 5.2022,-2.59817 c 2.0464,-4.977099 2.52981,-10.182228 2.61819,-11.464467 z"
             id="path2-90-7-5-7-5-0-1"
             style="fill:#92d050;fill-opacity:1;stroke-width:0.0488285" />
          <path
             id="path2-90-1-3-5-5-5-0-4"
             style="display:inline;fill:#68923b;fill-opacity:1;stroke-width:0.0488286"
             d="m 146.85474,18.020304 c -2.52835,0.173832 -20.29134,1.865247 -21.53305,14.043589 -0.15088,1.301768 -0.23634,2.608982 -0.29249,3.91759 l 3.41168,-3.408061 c 0.0175,-0.169963 0.0361,-0.339757 0.0558,-0.509529 0.98731,-9.683234 12.41304,-12.73433 18.32705,-13.666351 0.0109,-0.131085 0.0247,-0.285112 0.031,-0.377238 z m -9.36377,9.007203 c -0.2002,0 -0.40034,0.07634 -0.55294,0.228925 l -8.73383,8.725051 c 0.0145,-0.337502 0.0311,-0.674537 0.0501,-1.011825 l -6.05648,6.050277 c -0.45801,0.457523 -0.45801,1.199738 0,1.657263 0.45801,0.457523 1.20083,0.457523 1.65933,0 l 1.2516,-1.250569 c 0.0571,-0.148153 0.14447,-0.287224 0.26407,-0.406694 l 12.67106,-12.658658 c 0.30518,-0.305181 0.30518,-0.799664 0,-1.104845 -0.15259,-0.152588 -0.35274,-0.228925 -0.55294,-0.228925 z" />
        </g>
        <g
           id="g80785-7-1-1-6-5-3"
           transform="translate(16.673711,46.585118)"
           style="display:inline">
          <path
             d="m 146.85461,18.019882 c -2.52835,0.17383 -20.29122,1.865253 -21.53293,14.043594 -0.15088,1.30177 -0.23633,2.6094 -0.29248,3.918007 l 8.73397,-8.725183 c 0.30518,-0.305179 0.80079,-0.305179 1.10597,0 0.30518,0.305179 0.30518,0.799813 0,1.104991 l -12.67102,12.658327 c -0.45801,0.457524 -0.45801,1.199719 0,1.657243 0.45801,0.457523 1.20069,0.457523 1.65919,0 l 2.78958,-2.786649 c 2.0552,-0.0068 4.10893,-0.123536 6.15045,-0.359378 2.61136,-0.265627 4.73735,-1.292494 6.4737,-2.760769 h -4.92925 l 7.16755,-2.386742 c 0.54932,-0.727058 1.04347,-1.499527 1.48683,-2.300804 h -3.96195 l 5.2022,-2.59817 c 2.0464,-4.977099 2.52981,-10.182228 2.61819,-11.464467 z"
             id="path2-90-77-5-8-0-9-3"
             style="fill:#92d050;fill-opacity:1;stroke-width:0.0488285" />
          <path
             id="path2-90-1-4-40-0-0-3-66"
             style="display:inline;fill:#68923b;fill-opacity:1;stroke-width:0.0488286"
             d="m 146.85474,18.020304 c -2.52835,0.173832 -20.29134,1.865247 -21.53305,14.043589 -0.15088,1.301768 -0.23634,2.608982 -0.29249,3.91759 l 3.41168,-3.408061 c 0.0175,-0.169963 0.0361,-0.339757 0.0558,-0.509529 0.98731,-9.683234 12.41304,-12.73433 18.32705,-13.666351 0.0109,-0.131085 0.0247,-0.285112 0.031,-0.377238 z m -9.36377,9.007203 c -0.2002,0 -0.40034,0.07634 -0.55294,0.228925 l -8.73383,8.725051 c 0.0145,-0.337502 0.0311,-0.674537 0.0501,-1.011825 l -6.05648,6.050277 c -0.45801,0.457523 -0.45801,1.199738 0,1.657263 0.45801,0.457523 1.20083,0.457523 1.65933,0 l 1.2516,-1.250569 c 0.0571,-0.148153 0.14447,-0.287224 0.26407,-0.406694 l 12.67106,-12.658658 c 0.30518,-0.305181 0.30518,-0.799664 0,-1.104845 -0.15259,-0.152588 -0.35274,-0.228925 -0.55294,-0.228925 z" />
        </g>
      </g>
      <g
         id="g8733-3-8-8-8-6-7-7-4-9-4"
         transform="matrix(0.02343754,0,0,0.02343754,80.402219,40.998242)"
         style="display:inline;fill:#706282;fill-opacity:1">
        <path
           class="st0"
           d="m 330.555,101.873 c 0,-34.164 -13.767,-65.108 -36.047,-87.622 -2.432,-2.465 -9.63,-4.349 -14.212,3.466 -4.589,7.808 -17.205,27.431 -17.205,27.431 -1.534,2.438 -4.219,3.918 -7.089,3.918 -2.883,0 -5.555,-1.48 -7.089,-3.918 0,0 -12.623,-19.623 -17.205,-27.431 -4.582,-7.815 -11.781,-5.931 -14.219,-3.466 -22.274,22.514 -36.04,53.458 -36.04,87.622 0,51.02 30.663,94.847 74.553,114.142 43.89,-19.295 74.553,-63.123 74.553,-114.142 z"
           id="path8723-8-6-51-3-8-8-6-2-8-4"
           style="fill:#706282;fill-opacity:1" />
        <path
           class="st0"
           d="m 204.51,253.425 c -4.78,-47.705 -36.998,-90.409 -85.518,-106.176 -32.492,-10.554 -66.177,-7.027 -94.47,7.205 -3.096,1.555 -7.117,7.822 -1.096,14.589 6.007,6.774 20.766,24.842 20.766,24.842 1.849,2.212 2.432,5.22 1.542,7.952 -0.891,2.74 -3.13,4.829 -5.918,5.528 0,0 -22.562,5.945 -31.404,7.89 -8.849,1.945 -9.281,9.37 -7.692,12.445 14.527,28.144 39.698,50.801 72.197,61.362 48.519,15.766 99.683,0.15 131.593,-35.637 z"
           id="path8725-5-6-3-4-9-5-6-9-4-1"
           style="fill:#706282;fill-opacity:1" />
        <path
           class="st0"
           d="M 96.772,362.484 C 76.69,390.127 69.636,423.25 74.43,454.558 c 0.527,3.424 5.233,9.178 13.527,5.554 8.308,-3.63 30.054,-12.088 30.054,-12.088 2.672,-1.062 5.698,-0.692 8.041,1 2.329,1.692 3.623,4.466 3.418,7.335 0,0 -1.308,23.294 -2.199,32.315 -0.883,9.006 6.048,11.712 9.466,11.15 31.252,-5.116 60.581,-22.054 80.662,-49.704 29.993,-41.266 30.944,-94.758 6.781,-136.155 -46.848,-10.192 -97.422,7.239 -127.408,48.519 z"
           id="path8727-3-5-0-26-9-8-2-7-8-10"
           style="fill:#706282;fill-opacity:1" />
        <path
           class="st0"
           d="m 287.824,313.964 c -24.165,41.397 -23.212,94.888 6.78,136.155 20.082,27.65 49.41,44.588 80.663,49.704 3.418,0.562 10.349,-2.144 9.466,-11.15 -0.89,-9.021 -2.205,-32.315 -2.205,-32.315 -0.198,-2.869 1.102,-5.643 3.431,-7.335 2.322,-1.692 5.363,-2.062 8.034,-1 0,0 21.746,8.458 30.047,12.088 8.294,3.623 13.007,-2.13 13.534,-5.554 4.787,-31.308 -2.254,-64.43 -22.342,-92.074 -29.986,-41.279 -80.56,-58.717 -127.408,-48.519 z"
           id="path8729-3-8-1-7-6-8-2-4-4-6"
           style="fill:#706282;fill-opacity:1" />
        <path
           class="st0"
           d="m 503.6,215.254 c -8.849,-1.945 -31.41,-7.89 -31.41,-7.89 -2.795,-0.706 -5.027,-2.788 -5.918,-5.528 -0.89,-2.732 -0.308,-5.74 1.534,-7.952 0,0 14.76,-18.068 20.78,-24.842 6.014,-6.766 1.993,-13.034 -1.096,-14.589 -28.301,-14.232 -61.978,-17.76 -94.485,-7.205 -48.519,15.767 -80.731,58.472 -85.512,106.176 31.91,35.787 83.067,51.403 131.593,35.636 32.492,-10.561 57.67,-33.218 72.191,-61.362 1.59,-3.074 1.172,-10.499 -7.677,-12.444 z"
           id="path8731-7-2-49-14-0-5-5-1-3-02"
           style="fill:#706282;fill-opacity:1" />
      </g>
      <g
         id="g8733-3-8-8-8-6-3-0-2-9-9-1"
         transform="matrix(0.02343754,0,0,0.02343754,67.490226,36.673472)"
         style="display:inline;fill:#706282;fill-opacity:1">
        <path
           class="st0"
           d="m 330.555,101.873 c 0,-34.164 -13.767,-65.108 -36.047,-87.622 -2.432,-2.465 -9.63,-4.349 -14.212,3.466 -4.589,7.808 -17.205,27.431 -17.205,27.431 -1.534,2.438 -4.219,3.918 -7.089,3.918 -2.883,0 -5.555,-1.48 -7.089,-3.918 0,0 -12.623,-19.623 -17.205,-27.431 -4.582,-7.815 -11.781,-5.931 -14.219,-3.466 -22.274,22.514 -36.04,53.458 -36.04,87.622 0,51.02 30.663,94.847 74.553,114.142 43.89,-19.295 74.553,-63.123 74.553,-114.142 z"
           id="path8723-8-6-51-3-8-5-3-7-7-0-4"
           style="fill:#706282;fill-opacity:1" />
        <path
           class="st0"
           d="m 204.51,253.425 c -4.78,-47.705 -36.998,-90.409 -85.518,-106.176 -32.492,-10.554 -66.177,-7.027 -94.47,7.205 -3.096,1.555 -7.117,7.822 -1.096,14.589 6.007,6.774 20.766,24.842 20.766,24.842 1.849,2.212 2.432,5.22 1.542,7.952 -0.891,2.74 -3.13,4.829 -5.918,5.528 0,0 -22.562,5.945 -31.404,7.89 -8.849,1.945 -9.281,9.37 -7.692,12.445 14.527,28.144 39.698,50.801 72.197,61.362 48.519,15.766 99.683,0.15 131.593,-35.637 z"
           id="path8725-5-6-3-4-9-0-27-1-6-6-8"
           style="fill:#706282;fill-opacity:1" />
        <path
           class="st0"
           d="M 96.772,362.484 C 76.69,390.127 69.636,423.25 74.43,454.558 c 0.527,3.424 5.233,9.178 13.527,5.554 8.308,-3.63 30.054,-12.088 30.054,-12.088 2.672,-1.062 5.698,-0.692 8.041,1 2.329,1.692 3.623,4.466 3.418,7.335 0,0 -1.308,23.294 -2.199,32.315 -0.883,9.006 6.048,11.712 9.466,11.15 31.252,-5.116 60.581,-22.054 80.662,-49.704 29.993,-41.266 30.944,-94.758 6.781,-136.155 -46.848,-10.192 -97.422,7.239 -127.408,48.519 z"
           id="path8727-3-5-0-26-9-2-2-8-7-3-3"
           style="fill:#706282;fill-opacity:1" />
        <path
           class="st0"
           d="m 287.824,313.964 c -24.165,41.397 -23.212,94.888 6.78,136.155 20.082,27.65 49.41,44.588 80.663,49.704 3.418,0.562 10.349,-2.144 9.466,-11.15 -0.89,-9.021 -2.205,-32.315 -2.205,-32.315 -0.198,-2.869 1.102,-5.643 3.431,-7.335 2.322,-1.692 5.363,-2.062 8.034,-1 0,0 21.746,8.458 30.047,12.088 8.294,3.623 13.007,-2.13 13.534,-5.554 4.787,-31.308 -2.254,-64.43 -22.342,-92.074 -29.986,-41.279 -80.56,-58.717 -127.408,-48.519 z"
           id="path8729-3-8-1-7-6-4-5-6-7-3-3"
           style="fill:#706282;fill-opacity:1" />
        <path
           class="st0"
           d="m 503.6,215.254 c -8.849,-1.945 -31.41,-7.89 -31.41,-7.89 -2.795,-0.706 -5.027,-2.788 -5.918,-5.528 -0.89,-2.732 -0.308,-5.74 1.534,-7.952 0,0 14.76,-18.068 20.78,-24.842 6.014,-6.766 1.993,-13.034 -1.096,-14.589 -28.301,-14.232 -61.978,-17.76 -94.485,-7.205 -48.519,15.767 -80.731,58.472 -85.512,106.176 31.91,35.787 83.067,51.403 131.593,35.636 32.492,-10.561 57.67,-33.218 72.191,-61.362 1.59,-3.074 1.172,-10.499 -7.677,-12.444 z"
           id="path8731-7-2-49-14-0-2-58-2-3-6-1"
           style="fill:#706282;fill-opacity:1" />
      </g>
      <g
         id="g8733-3-8-8-8-6-3-1-75-5-0-2-9"
         transform="matrix(0.02343754,0,0,0.02343754,49.975312,40.998206)"
         style="display:inline;fill:#706282;fill-opacity:1">
        <path
           class="st0"
           d="m 330.555,101.873 c 0,-34.164 -13.767,-65.108 -36.047,-87.622 -2.432,-2.465 -9.63,-4.349 -14.212,3.466 -4.589,7.808 -17.205,27.431 -17.205,27.431 -1.534,2.438 -4.219,3.918 -7.089,3.918 -2.883,0 -5.555,-1.48 -7.089,-3.918 0,0 -12.623,-19.623 -17.205,-27.431 -4.582,-7.815 -11.781,-5.931 -14.219,-3.466 -22.274,22.514 -36.04,53.458 -36.04,87.622 0,51.02 30.663,94.847 74.553,114.142 43.89,-19.295 74.553,-63.123 74.553,-114.142 z"
           id="path8723-8-6-51-3-8-5-2-8-3-5-2-3"
           style="fill:#706282;fill-opacity:1" />
        <path
           class="st0"
           d="m 204.51,253.425 c -4.78,-47.705 -36.998,-90.409 -85.518,-106.176 -32.492,-10.554 -66.177,-7.027 -94.47,7.205 -3.096,1.555 -7.117,7.822 -1.096,14.589 6.007,6.774 20.766,24.842 20.766,24.842 1.849,2.212 2.432,5.22 1.542,7.952 -0.891,2.74 -3.13,4.829 -5.918,5.528 0,0 -22.562,5.945 -31.404,7.89 -8.849,1.945 -9.281,9.37 -7.692,12.445 14.527,28.144 39.698,50.801 72.197,61.362 48.519,15.766 99.683,0.15 131.593,-35.637 z"
           id="path8725-5-6-3-4-9-0-3-4-9-6-6-4"
           style="fill:#706282;fill-opacity:1" />
        <path
           class="st0"
           d="M 96.772,362.484 C 76.69,390.127 69.636,423.25 74.43,454.558 c 0.527,3.424 5.233,9.178 13.527,5.554 8.308,-3.63 30.054,-12.088 30.054,-12.088 2.672,-1.062 5.698,-0.692 8.041,1 2.329,1.692 3.623,4.466 3.418,7.335 0,0 -1.308,23.294 -2.199,32.315 -0.883,9.006 6.048,11.712 9.466,11.15 31.252,-5.116 60.581,-22.054 80.662,-49.704 29.993,-41.266 30.944,-94.758 6.781,-136.155 -46.848,-10.192 -97.422,7.239 -127.408,48.519 z"
           id="path8727-3-5-0-26-9-2-8-9-5-6-5-2"
           style="fill:#706282;fill-opacity:1" />
        <path
           class="st0"
           d="m 287.824,313.964 c -24.165,41.397 -23.212,94.888 6.78,136.155 20.082,27.65 49.41,44.588 80.663,49.704 3.418,0.562 10.349,-2.144 9.466,-11.15 -0.89,-9.021 -2.205,-32.315 -2.205,-32.315 -0.198,-2.869 1.102,-5.643 3.431,-7.335 2.322,-1.692 5.363,-2.062 8.034,-1 0,0 21.746,8.458 30.047,12.088 8.294,3.623 13.007,-2.13 13.534,-5.554 4.787,-31.308 -2.254,-64.43 -22.342,-92.074 -29.986,-41.279 -80.56,-58.717 -127.408,-48.519 z"
           id="path8729-3-8-1-7-6-4-3-5-6-0-7-34"
           style="fill:#706282;fill-opacity:1" />
        <path
           class="st0"
           d="m 503.6,215.254 c -8.849,-1.945 -31.41,-7.89 -31.41,-7.89 -2.795,-0.706 -5.027,-2.788 -5.918,-5.528 -0.89,-2.732 -0.308,-5.74 1.534,-7.952 0,0 14.76,-18.068 20.78,-24.842 6.014,-6.766 1.993,-13.034 -1.096,-14.589 -28.301,-14.232 -61.978,-17.76 -94.485,-7.205 -48.519,15.767 -80.731,58.472 -85.512,106.176 31.91,35.787 83.067,51.403 131.593,35.636 32.492,-10.561 57.67,-33.218 72.191,-61.362 1.59,-3.074 1.172,-10.499 -7.677,-12.444 z"
           id="path8731-7-2-49-14-0-2-8-78-0-0-3-2"
           style="fill:#706282;fill-opacity:1" />
      </g>
    </g>
    <g
       id="g2402-0-7-3-2-5-3"
       style="display:inline"
       transform="matrix(0.84591636,0,0,0.84591636,6.9130244,-8.8884729)">
      <g
         id="g80849-6-0-8-3-9-2"
         transform="matrix(0.90290827,0,0,0.90290827,-55.445709,-12.289123)"
         style="display:inline">
        <g
           id="g80785-1-1-7-0-0-3"
           transform="translate(-17.025069,46.585079)">
          <path
             d="m 146.85461,18.019882 c -2.52835,0.17383 -20.29122,1.865253 -21.53293,14.043594 -0.15088,1.30177 -0.23633,2.6094 -0.29248,3.918007 l 8.73397,-8.725183 c 0.30518,-0.305179 0.80079,-0.305179 1.10597,0 0.30518,0.305179 0.30518,0.799813 0,1.104991 l -12.67102,12.658327 c -0.45801,0.457524 -0.45801,1.199719 0,1.657243 0.45801,0.457523 1.20069,0.457523 1.65919,0 l 2.78958,-2.786649 c 2.0552,-0.0068 4.10893,-0.123536 6.15045,-0.359378 2.61136,-0.265627 4.73735,-1.292494 6.4737,-2.760769 h -4.92925 l 7.16755,-2.386742 c 0.54932,-0.727058 1.04347,-1.499527 1.48683,-2.300804 h -3.96195 l 5.2022,-2.59817 c 2.0464,-4.977099 2.52981,-10.182228 2.61819,-11.464467 z"
             id="path2-90-53-3-9-6-1-1"
             style="fill:#92d050;fill-opacity:1;stroke-width:0.0488285" />
          <path
             id="path2-90-1-74-3-5-8-4-7"
             style="display:inline;fill:#68923b;fill-opacity:1;stroke-width:0.0488286"
             d="m 146.85474,18.020304 c -2.52835,0.173832 -20.29134,1.865247 -21.53305,14.043589 -0.15088,1.301768 -0.23634,2.608982 -0.29249,3.91759 l 3.41168,-3.408061 c 0.0175,-0.169963 0.0361,-0.339757 0.0558,-0.509529 0.98731,-9.683234 12.41304,-12.73433 18.32705,-13.666351 0.0109,-0.131085 0.0247,-0.285112 0.031,-0.377238 z m -9.36377,9.007203 c -0.2002,0 -0.40034,0.07634 -0.55294,0.228925 l -8.73383,8.725051 c 0.0145,-0.337502 0.0311,-0.674537 0.0501,-1.011825 l -6.05648,6.050277 c -0.45801,0.457523 -0.45801,1.199738 0,1.657263 0.45801,0.457523 1.20083,0.457523 1.65933,0 l 1.2516,-1.250569 c 0.0571,-0.148153 0.14447,-0.287224 0.26407,-0.406694 l 12.67106,-12.658658 c 0.30518,-0.305181 0.30518,-0.799664 0,-1.104845 -0.15259,-0.152588 -0.35274,-0.228925 -0.55294,-0.228925 z" />
        </g>
        <g
           id="g80785-4-7-6-1-6-48-3"
           transform="translate(2.3732625,41.795296)"
           style="display:inline">
          <path
             d="m 146.85461,18.019882 c -2.52835,0.17383 -20.29122,1.865253 -21.53293,14.043594 -0.15088,1.30177 -0.23633,2.6094 -0.29248,3.918007 l 8.73397,-8.725183 c 0.30518,-0.305179 0.80079,-0.305179 1.10597,0 0.30518,0.305179 0.30518,0.799813 0,1.104991 l -12.67102,12.658327 c -0.45801,0.457524 -0.45801,1.199719 0,1.657243 0.45801,0.457523 1.20069,0.457523 1.65919,0 l 2.78958,-2.786649 c 2.0552,-0.0068 4.10893,-0.123536 6.15045,-0.359378 2.61136,-0.265627 4.73735,-1.292494 6.4737,-2.760769 h -4.92925 l 7.16755,-2.386742 c 0.54932,-0.727058 1.04347,-1.499527 1.48683,-2.300804 h -3.96195 l 5.2022,-2.59817 c 2.0464,-4.977099 2.52981,-10.182228 2.61819,-11.464467 z"
             id="path2-90-7-5-7-5-0-1-1"
             style="fill:#92d050;fill-opacity:1;stroke-width:0.0488285" />
          <path
             id="path2-90-1-3-5-5-5-0-4-3"
             style="display:inline;fill:#68923b;fill-opacity:1;stroke-width:0.0488286"
             d="m 146.85474,18.020304 c -2.52835,0.173832 -20.29134,1.865247 -21.53305,14.043589 -0.15088,1.301768 -0.23634,2.608982 -0.29249,3.91759 l 3.41168,-3.408061 c 0.0175,-0.169963 0.0361,-0.339757 0.0558,-0.509529 0.98731,-9.683234 12.41304,-12.73433 18.32705,-13.666351 0.0109,-0.131085 0.0247,-0.285112 0.031,-0.377238 z m -9.36377,9.007203 c -0.2002,0 -0.40034,0.07634 -0.55294,0.228925 l -8.73383,8.725051 c 0.0145,-0.337502 0.0311,-0.674537 0.0501,-1.011825 l -6.05648,6.050277 c -0.45801,0.457523 -0.45801,1.199738 0,1.657263 0.45801,0.457523 1.20083,0.457523 1.65933,0 l 1.2516,-1.250569 c 0.0571,-0.148153 0.14447,-0.287224 0.26407,-0.406694 l 12.67106,-12.658658 c 0.30518,-0.305181 0.30518,-0.799664 0,-1.104845 -0.15259,-0.152588 -0.35274,-0.228925 -0.55294,-0.228925 z" />
        </g>
        <g
           id="g80785-7-1-1-6-5-3-6"
           transform="translate(16.673711,46.585118)"
           style="display:inline">
          <path
             d="m 146.85461,18.019882 c -2.52835,0.17383 -20.29122,1.865253 -21.53293,14.043594 -0.15088,1.30177 -0.23633,2.6094 -0.29248,3.918007 l 8.73397,-8.725183 c 0.30518,-0.305179 0.80079,-0.305179 1.10597,0 0.30518,0.305179 0.30518,0.799813 0,1.104991 l -12.67102,12.658327 c -0.45801,0.457524 -0.45801,1.199719 0,1.657243 0.45801,0.457523 1.20069,0.457523 1.65919,0 l 2.78958,-2.786649 c 2.0552,-0.0068 4.10893,-0.123536 6.15045,-0.359378 2.61136,-0.265627 4.73735,-1.292494 6.4737,-2.760769 h -4.92925 l 7.16755,-2.386742 c 0.54932,-0.727058 1.04347,-1.499527 1.48683,-2.300804 h -3.96195 l 5.2022,-2.59817 c 2.0464,-4.977099 2.52981,-10.182228 2.61819,-11.464467 z"
             id="path2-90-77-5-8-0-9-3-5"
             style="fill:#92d050;fill-opacity:1;stroke-width:0.0488285" />
          <path
             id="path2-90-1-4-40-0-0-3-66-0"
             style="display:inline;fill:#68923b;fill-opacity:1;stroke-width:0.0488286"
             d="m 146.85474,18.020304 c -2.52835,0.173832 -20.29134,1.865247 -21.53305,14.043589 -0.15088,1.301768 -0.23634,2.608982 -0.29249,3.91759 l 3.41168,-3.408061 c 0.0175,-0.169963 0.0361,-0.339757 0.0558,-0.509529 0.98731,-9.683234 12.41304,-12.73433 18.32705,-13.666351 0.0109,-0.131085 0.0247,-0.285112 0.031,-0.377238 z m -9.36377,9.007203 c -0.2002,0 -0.40034,0.07634 -0.55294,0.228925 l -8.73383,8.725051 c 0.0145,-0.337502 0.0311,-0.674537 0.0501,-1.011825 l -6.05648,6.050277 c -0.45801,0.457523 -0.45801,1.199738 0,1.657263 0.45801,0.457523 1.20083,0.457523 1.65933,0 l 1.2516,-1.250569 c 0.0571,-0.148153 0.14447,-0.287224 0.26407,-0.406694 l 12.67106,-12.658658 c 0.30518,-0.305181 0.30518,-0.799664 0,-1.104845 -0.15259,-0.152588 -0.35274,-0.228925 -0.55294,-0.228925 z" />
        </g>
      </g>
      <g
         id="g8733-3-8-8-8-6-7-7-4-9-4-2"
         transform="matrix(0.02343754,0,0,0.02343754,80.402219,40.998242)"
         style="display:inline;fill:#706282;fill-opacity:1">
        <path
           class="st0"
           d="m 330.555,101.873 c 0,-34.164 -13.767,-65.108 -36.047,-87.622 -2.432,-2.465 -9.63,-4.349 -14.212,3.466 -4.589,7.808 -17.205,27.431 -17.205,27.431 -1.534,2.438 -4.219,3.918 -7.089,3.918 -2.883,0 -5.555,-1.48 -7.089,-3.918 0,0 -12.623,-19.623 -17.205,-27.431 -4.582,-7.815 -11.781,-5.931 -14.219,-3.466 -22.274,22.514 -36.04,53.458 -36.04,87.622 0,51.02 30.663,94.847 74.553,114.142 43.89,-19.295 74.553,-63.123 74.553,-114.142 z"
           id="path8723-8-6-51-3-8-8-6-2-8-4-3"
           style="fill:#706282;fill-opacity:1" />
        <path
           class="st0"
           d="m 204.51,253.425 c -4.78,-47.705 -36.998,-90.409 -85.518,-106.176 -32.492,-10.554 -66.177,-7.027 -94.47,7.205 -3.096,1.555 -7.117,7.822 -1.096,14.589 6.007,6.774 20.766,24.842 20.766,24.842 1.849,2.212 2.432,5.22 1.542,7.952 -0.891,2.74 -3.13,4.829 -5.918,5.528 0,0 -22.562,5.945 -31.404,7.89 -8.849,1.945 -9.281,9.37 -7.692,12.445 14.527,28.144 39.698,50.801 72.197,61.362 48.519,15.766 99.683,0.15 131.593,-35.637 z"
           id="path8725-5-6-3-4-9-5-6-9-4-1-7"
           style="fill:#706282;fill-opacity:1" />
        <path
           class="st0"
           d="M 96.772,362.484 C 76.69,390.127 69.636,423.25 74.43,454.558 c 0.527,3.424 5.233,9.178 13.527,5.554 8.308,-3.63 30.054,-12.088 30.054,-12.088 2.672,-1.062 5.698,-0.692 8.041,1 2.329,1.692 3.623,4.466 3.418,7.335 0,0 -1.308,23.294 -2.199,32.315 -0.883,9.006 6.048,11.712 9.466,11.15 31.252,-5.116 60.581,-22.054 80.662,-49.704 29.993,-41.266 30.944,-94.758 6.781,-136.155 -46.848,-10.192 -97.422,7.239 -127.408,48.519 z"
           id="path8727-3-5-0-26-9-8-2-7-8-10-0"
           style="fill:#706282;fill-opacity:1" />
        <path
           class="st0"
           d="m 287.824,313.964 c -24.165,41.397 -23.212,94.888 6.78,136.155 20.082,27.65 49.41,44.588 80.663,49.704 3.418,0.562 10.349,-2.144 9.466,-11.15 -0.89,-9.021 -2.205,-32.315 -2.205,-32.315 -0.198,-2.869 1.102,-5.643 3.431,-7.335 2.322,-1.692 5.363,-2.062 8.034,-1 0,0 21.746,8.458 30.047,12.088 8.294,3.623 13.007,-2.13 13.534,-5.554 4.787,-31.308 -2.254,-64.43 -22.342,-92.074 -29.986,-41.279 -80.56,-58.717 -127.408,-48.519 z"
           id="path8729-3-8-1-7-6-8-2-4-4-6-9"
           style="fill:#706282;fill-opacity:1" />
        <path
           class="st0"
           d="m 503.6,215.254 c -8.849,-1.945 -31.41,-7.89 -31.41,-7.89 -2.795,-0.706 -5.027,-2.788 -5.918,-5.528 -0.89,-2.732 -0.308,-5.74 1.534,-7.952 0,0 14.76,-18.068 20.78,-24.842 6.014,-6.766 1.993,-13.034 -1.096,-14.589 -28.301,-14.232 -61.978,-17.76 -94.485,-7.205 -48.519,15.767 -80.731,58.472 -85.512,106.176 31.91,35.787 83.067,51.403 131.593,35.636 32.492,-10.561 57.67,-33.218 72.191,-61.362 1.59,-3.074 1.172,-10.499 -7.677,-12.444 z"
           id="path8731-7-2-49-14-0-5-5-1-3-02-9"
           style="fill:#706282;fill-opacity:1" />
      </g>
      <g
         id="g8733-3-8-8-8-6-3-0-2-9-9-1-0"
         transform="matrix(0.02343754,0,0,0.02343754,67.490226,36.673472)"
         style="display:inline;fill:#706282;fill-opacity:1">
        <path
           class="st0"
           d="m 330.555,101.873 c 0,-34.164 -13.767,-65.108 -36.047,-87.622 -2.432,-2.465 -9.63,-4.349 -14.212,3.466 -4.589,7.808 -17.205,27.431 -17.205,27.431 -1.534,2.438 -4.219,3.918 -7.089,3.918 -2.883,0 -5.555,-1.48 -7.089,-3.918 0,0 -12.623,-19.623 -17.205,-27.431 -4.582,-7.815 -11.781,-5.931 -14.219,-3.466 -22.274,22.514 -36.04,53.458 -36.04,87.622 0,51.02 30.663,94.847 74.553,114.142 43.89,-19.295 74.553,-63.123 74.553,-114.142 z"
           id="path8723-8-6-51-3-8-5-3-7-7-0-4-0"
           style="fill:#706282;fill-opacity:1" />
        <path
           class="st0"
           d="m 204.51,253.425 c -4.78,-47.705 -36.998,-90.409 -85.518,-106.176 -32.492,-10.554 -66.177,-7.027 -94.47,7.205 -3.096,1.555 -7.117,7.822 -1.096,14.589 6.007,6.774 20.766,24.842 20.766,24.842 1.849,2.212 2.432,5.22 1.542,7.952 -0.891,2.74 -3.13,4.829 -5.918,5.528 0,0 -22.562,5.945 -31.404,7.89 -8.849,1.945 -9.281,9.37 -7.692,12.445 14.527,28.144 39.698,50.801 72.197,61.362 48.519,15.766 99.683,0.15 131.593,-35.637 z"
           id="path8725-5-6-3-4-9-0-27-1-6-6-8-3"
           style="fill:#706282;fill-opacity:1" />
        <path
           class="st0"
           d="M 96.772,362.484 C 76.69,390.127 69.636,423.25 74.43,454.558 c 0.527,3.424 5.233,9.178 13.527,5.554 8.308,-3.63 30.054,-12.088 30.054,-12.088 2.672,-1.062 5.698,-0.692 8.041,1 2.329,1.692 3.623,4.466 3.418,7.335 0,0 -1.308,23.294 -2.199,32.315 -0.883,9.006 6.048,11.712 9.466,11.15 31.252,-5.116 60.581,-22.054 80.662,-49.704 29.993,-41.266 30.944,-94.758 6.781,-136.155 -46.848,-10.192 -97.422,7.239 -127.408,48.519 z"
           id="path8727-3-5-0-26-9-2-2-8-7-3-3-7"
           style="fill:#706282;fill-opacity:1" />
        <path
           class="st0"
           d="m 287.824,313.964 c -24.165,41.397 -23.212,94.888 6.78,136.155 20.082,27.65 49.41,44.588 80.663,49.704 3.418,0.562 10.349,-2.144 9.466,-11.15 -0.89,-9.021 -2.205,-32.315 -2.205,-32.315 -0.198,-2.869 1.102,-5.643 3.431,-7.335 2.322,-1.692 5.363,-2.062 8.034,-1 0,0 21.746,8.458 30.047,12.088 8.294,3.623 13.007,-2.13 13.534,-5.554 4.787,-31.308 -2.254,-64.43 -22.342,-92.074 -29.986,-41.279 -80.56,-58.717 -127.408,-48.519 z"
           id="path8729-3-8-1-7-6-4-5-6-7-3-3-8"
           style="fill:#706282;fill-opacity:1" />
        <path
           class="st0"
           d="m 503.6,215.254 c -8.849,-1.945 -31.41,-7.89 -31.41,-7.89 -2.795,-0.706 -5.027,-2.788 -5.918,-5.528 -0.89,-2.732 -0.308,-5.74 1.534,-7.952 0,0 14.76,-18.068 20.78,-24.842 6.014,-6.766 1.993,-13.034 -1.096,-14.589 -28.301,-14.232 -61.978,-17.76 -94.485,-7.205 -48.519,15.767 -80.731,58.472 -85.512,106.176 31.91,35.787 83.067,51.403 131.593,35.636 32.492,-10.561 57.67,-33.218 72.191,-61.362 1.59,-3.074 1.172,-10.499 -7.677,-12.444 z"
           id="path8731-7-2-49-14-0-2-58-2-3-6-1-2"
           style="fill:#706282;fill-opacity:1" />
      </g>
      <g
         id="g8733-3-8-8-8-6-3-1-75-5-0-2-9-5"
         transform="matrix(0.02343754,0,0,0.02343754,49.975312,40.998206)"
         style="display:inline;fill:#706282;fill-opacity:1">
        <path
           class="st0"
           d="m 330.555,101.873 c 0,-34.164 -13.767,-65.108 -36.047,-87.622 -2.432,-2.465 -9.63,-4.349 -14.212,3.466 -4.589,7.808 -17.205,27.431 -17.205,27.431 -1.534,2.438 -4.219,3.918 -7.089,3.918 -2.883,0 -5.555,-1.48 -7.089,-3.918 0,0 -12.623,-19.623 -17.205,-27.431 -4.582,-7.815 -11.781,-5.931 -14.219,-3.466 -22.274,22.514 -36.04,53.458 -36.04,87.622 0,51.02 30.663,94.847 74.553,114.142 43.89,-19.295 74.553,-63.123 74.553,-114.142 z"
           id="path8723-8-6-51-3-8-5-2-8-3-5-2-3-4"
           style="fill:#706282;fill-opacity:1" />
        <path
           class="st0"
           d="m 204.51,253.425 c -4.78,-47.705 -36.998,-90.409 -85.518,-106.176 -32.492,-10.554 -66.177,-7.027 -94.47,7.205 -3.096,1.555 -7.117,7.822 -1.096,14.589 6.007,6.774 20.766,24.842 20.766,24.842 1.849,2.212 2.432,5.22 1.542,7.952 -0.891,2.74 -3.13,4.829 -5.918,5.528 0,0 -22.562,5.945 -31.404,7.89 -8.849,1.945 -9.281,9.37 -7.692,12.445 14.527,28.144 39.698,50.801 72.197,61.362 48.519,15.766 99.683,0.15 131.593,-35.637 z"
           id="path8725-5-6-3-4-9-0-3-4-9-6-6-4-3"
           style="fill:#706282;fill-opacity:1" />
        <path
           class="st0"
           d="M 96.772,362.484 C 76.69,390.127 69.636,423.25 74.43,454.558 c 0.527,3.424 5.233,9.178 13.527,5.554 8.308,-3.63 30.054,-12.088 30.054,-12.088 2.672,-1.062 5.698,-0.692 8.041,1 2.329,1.692 3.623,4.466 3.418,7.335 0,0 -1.308,23.294 -2.199,32.315 -0.883,9.006 6.048,11.712 9.466,11.15 31.252,-5.116 60.581,-22.054 80.662,-49.704 29.993,-41.266 30.944,-94.758 6.781,-136.155 -46.848,-10.192 -97.422,7.239 -127.408,48.519 z"
           id="path8727-3-5-0-26-9-2-8-9-5-6-5-2-1"
           style="fill:#706282;fill-opacity:1" />
        <path
           class="st0"
           d="m 287.824,313.964 c -24.165,41.397 -23.212,94.888 6.78,136.155 20.082,27.65 49.41,44.588 80.663,49.704 3.418,0.562 10.349,-2.144 9.466,-11.15 -0.89,-9.021 -2.205,-32.315 -2.205,-32.315 -0.198,-2.869 1.102,-5.643 3.431,-7.335 2.322,-1.692 5.363,-2.062 8.034,-1 0,0 21.746,8.458 30.047,12.088 8.294,3.623 13.007,-2.13 13.534,-5.554 4.787,-31.308 -2.254,-64.43 -22.342,-92.074 -29.986,-41.279 -80.56,-58.717 -127.408,-48.519 z"
           id="path8729-3-8-1-7-6-4-3-5-6-0-7-34-5"
           style="fill:#706282;fill-opacity:1" />
        <path
           class="st0"
           d="m 503.6,215.254 c -8.849,-1.945 -31.41,-7.89 -31.41,-7.89 -2.795,-0.706 -5.027,-2.788 -5.918,-5.528 -0.89,-2.732 -0.308,-5.74 1.534,-7.952 0,0 14.76,-18.068 20.78,-24.842 6.014,-6.766 1.993,-13.034 -1.096,-14.589 -28.301,-14.232 -61.978,-17.76 -94.485,-7.205 -48.519,15.767 -80.731,58.472 -85.512,106.176 31.91,35.787 83.067,51.403 131.593,35.636 32.492,-10.561 57.67,-33.218 72.191,-61.362 1.59,-3.074 1.172,-10.499 -7.677,-12.444 z"
           id="path8731-7-2-49-14-0-2-8-78-0-0-3-2-8"
           style="fill:#706282;fill-opacity:1" />
      </g>
    </g>
    <g
       id="g2402-0-7-3-2-5-7"
       style="display:inline"
       transform="matrix(0.56394424,0,0,0.56394424,71.355495,15.062215)">
      <g
         id="g80849-6-0-8-3-9-4"
         transform="matrix(0.90290827,0,0,0.90290827,-55.445709,-12.289123)"
         style="display:inline">
        <g
           id="g80785-1-1-7-0-0-8"
           transform="translate(-17.025069,46.585079)">
          <path
             d="m 146.85461,18.019882 c -2.52835,0.17383 -20.29122,1.865253 -21.53293,14.043594 -0.15088,1.30177 -0.23633,2.6094 -0.29248,3.918007 l 8.73397,-8.725183 c 0.30518,-0.305179 0.80079,-0.305179 1.10597,0 0.30518,0.305179 0.30518,0.799813 0,1.104991 l -12.67102,12.658327 c -0.45801,0.457524 -0.45801,1.199719 0,1.657243 0.45801,0.457523 1.20069,0.457523 1.65919,0 l 2.78958,-2.786649 c 2.0552,-0.0068 4.10893,-0.123536 6.15045,-0.359378 2.61136,-0.265627 4.73735,-1.292494 6.4737,-2.760769 h -4.92925 l 7.16755,-2.386742 c 0.54932,-0.727058 1.04347,-1.499527 1.48683,-2.300804 h -3.96195 l 5.2022,-2.59817 c 2.0464,-4.977099 2.52981,-10.182228 2.61819,-11.464467 z"
             id="path2-90-53-3-9-6-1-2"
             style="fill:#92d050;fill-opacity:1;stroke-width:0.0488285" />
          <path
             id="path2-90-1-74-3-5-8-4-2"
             style="display:inline;fill:#68923b;fill-opacity:1;stroke-width:0.0488286"
             d="m 146.85474,18.020304 c -2.52835,0.173832 -20.29134,1.865247 -21.53305,14.043589 -0.15088,1.301768 -0.23634,2.608982 -0.29249,3.91759 l 3.41168,-3.408061 c 0.0175,-0.169963 0.0361,-0.339757 0.0558,-0.509529 0.98731,-9.683234 12.41304,-12.73433 18.32705,-13.666351 0.0109,-0.131085 0.0247,-0.285112 0.031,-0.377238 z m -9.36377,9.007203 c -0.2002,0 -0.40034,0.07634 -0.55294,0.228925 l -8.73383,8.725051 c 0.0145,-0.337502 0.0311,-0.674537 0.0501,-1.011825 l -6.05648,6.050277 c -0.45801,0.457523 -0.45801,1.199738 0,1.657263 0.45801,0.457523 1.20083,0.457523 1.65933,0 l 1.2516,-1.250569 c 0.0571,-0.148153 0.14447,-0.287224 0.26407,-0.406694 l 12.67106,-12.658658 c 0.30518,-0.305181 0.30518,-0.799664 0,-1.104845 -0.15259,-0.152588 -0.35274,-0.228925 -0.55294,-0.228925 z" />
        </g>
        <g
           id="g80785-4-7-6-1-6-48-5"
           transform="translate(2.3732625,41.795296)"
           style="display:inline">
          <path
             d="m 146.85461,18.019882 c -2.52835,0.17383 -20.29122,1.865253 -21.53293,14.043594 -0.15088,1.30177 -0.23633,2.6094 -0.29248,3.918007 l 8.73397,-8.725183 c 0.30518,-0.305179 0.80079,-0.305179 1.10597,0 0.30518,0.305179 0.30518,0.799813 0,1.104991 l -12.67102,12.658327 c -0.45801,0.457524 -0.45801,1.199719 0,1.657243 0.45801,0.457523 1.20069,0.457523 1.65919,0 l 2.78958,-2.786649 c 2.0552,-0.0068 4.10893,-0.123536 6.15045,-0.359378 2.61136,-0.265627 4.73735,-1.292494 6.4737,-2.760769 h -4.92925 l 7.16755,-2.386742 c 0.54932,-0.727058 1.04347,-1.499527 1.48683,-2.300804 h -3.96195 l 5.2022,-2.59817 c 2.0464,-4.977099 2.52981,-10.182228 2.61819,-11.464467 z"
             id="path2-90-7-5-7-5-0-1-13"
             style="fill:#92d050;fill-opacity:1;stroke-width:0.0488285" />
          <path
             id="path2-90-1-3-5-5-5-0-4-7"
             style="display:inline;fill:#68923b;fill-opacity:1;stroke-width:0.0488286"
             d="m 146.85474,18.020304 c -2.52835,0.173832 -20.29134,1.865247 -21.53305,14.043589 -0.15088,1.301768 -0.23634,2.608982 -0.29249,3.91759 l 3.41168,-3.408061 c 0.0175,-0.169963 0.0361,-0.339757 0.0558,-0.509529 0.98731,-9.683234 12.41304,-12.73433 18.32705,-13.666351 0.0109,-0.131085 0.0247,-0.285112 0.031,-0.377238 z m -9.36377,9.007203 c -0.2002,0 -0.40034,0.07634 -0.55294,0.228925 l -8.73383,8.725051 c 0.0145,-0.337502 0.0311,-0.674537 0.0501,-1.011825 l -6.05648,6.050277 c -0.45801,0.457523 -0.45801,1.199738 0,1.657263 0.45801,0.457523 1.20083,0.457523 1.65933,0 l 1.2516,-1.250569 c 0.0571,-0.148153 0.14447,-0.287224 0.26407,-0.406694 l 12.67106,-12.658658 c 0.30518,-0.305181 0.30518,-0.799664 0,-1.104845 -0.15259,-0.152588 -0.35274,-0.228925 -0.55294,-0.228925 z" />
        </g>
        <g
           id="g80785-7-1-1-6-5-3-1"
           transform="translate(16.673711,46.585118)"
           style="display:inline">
          <path
             d="m 146.85461,18.019882 c -2.52835,0.17383 -20.29122,1.865253 -21.53293,14.043594 -0.15088,1.30177 -0.23633,2.6094 -0.29248,3.918007 l 8.73397,-8.725183 c 0.30518,-0.305179 0.80079,-0.305179 1.10597,0 0.30518,0.305179 0.30518,0.799813 0,1.104991 l -12.67102,12.658327 c -0.45801,0.457524 -0.45801,1.199719 0,1.657243 0.45801,0.457523 1.20069,0.457523 1.65919,0 l 2.78958,-2.786649 c 2.0552,-0.0068 4.10893,-0.123536 6.15045,-0.359378 2.61136,-0.265627 4.73735,-1.292494 6.4737,-2.760769 h -4.92925 l 7.16755,-2.386742 c 0.54932,-0.727058 1.04347,-1.499527 1.48683,-2.300804 h -3.96195 l 5.2022,-2.59817 c 2.0464,-4.977099 2.52981,-10.182228 2.61819,-11.464467 z"
             id="path2-90-77-5-8-0-9-3-1"
             style="fill:#92d050;fill-opacity:1;stroke-width:0.0488285" />
          <path
             id="path2-90-1-4-40-0-0-3-66-9"
             style="display:inline;fill:#68923b;fill-opacity:1;stroke-width:0.0488286"
             d="m 146.85474,18.020304 c -2.52835,0.173832 -20.29134,1.865247 -21.53305,14.043589 -0.15088,1.301768 -0.23634,2.608982 -0.29249,3.91759 l 3.41168,-3.408061 c 0.0175,-0.169963 0.0361,-0.339757 0.0558,-0.509529 0.98731,-9.683234 12.41304,-12.73433 18.32705,-13.666351 0.0109,-0.131085 0.0247,-0.285112 0.031,-0.377238 z m -9.36377,9.007203 c -0.2002,0 -0.40034,0.07634 -0.55294,0.228925 l -8.73383,8.725051 c 0.0145,-0.337502 0.0311,-0.674537 0.0501,-1.011825 l -6.05648,6.050277 c -0.45801,0.457523 -0.45801,1.199738 0,1.657263 0.45801,0.457523 1.20083,0.457523 1.65933,0 l 1.2516,-1.250569 c 0.0571,-0.148153 0.14447,-0.287224 0.26407,-0.406694 l 12.67106,-12.658658 c 0.30518,-0.305181 0.30518,-0.799664 0,-1.104845 -0.15259,-0.152588 -0.35274,-0.228925 -0.55294,-0.228925 z" />
        </g>
      </g>
      <g
         id="g8733-3-8-8-8-6-7-7-4-9-4-5"
         transform="matrix(0.02343754,0,0,0.02343754,80.402219,40.998242)"
         style="display:inline;fill:#706282;fill-opacity:1">
        <path
           class="st0"
           d="m 330.555,101.873 c 0,-34.164 -13.767,-65.108 -36.047,-87.622 -2.432,-2.465 -9.63,-4.349 -14.212,3.466 -4.589,7.808 -17.205,27.431 -17.205,27.431 -1.534,2.438 -4.219,3.918 -7.089,3.918 -2.883,0 -5.555,-1.48 -7.089,-3.918 0,0 -12.623,-19.623 -17.205,-27.431 -4.582,-7.815 -11.781,-5.931 -14.219,-3.466 -22.274,22.514 -36.04,53.458 -36.04,87.622 0,51.02 30.663,94.847 74.553,114.142 43.89,-19.295 74.553,-63.123 74.553,-114.142 z"
           id="path8723-8-6-51-3-8-8-6-2-8-4-2"
           style="fill:#706282;fill-opacity:1" />
        <path
           class="st0"
           d="m 204.51,253.425 c -4.78,-47.705 -36.998,-90.409 -85.518,-106.176 -32.492,-10.554 -66.177,-7.027 -94.47,7.205 -3.096,1.555 -7.117,7.822 -1.096,14.589 6.007,6.774 20.766,24.842 20.766,24.842 1.849,2.212 2.432,5.22 1.542,7.952 -0.891,2.74 -3.13,4.829 -5.918,5.528 0,0 -22.562,5.945 -31.404,7.89 -8.849,1.945 -9.281,9.37 -7.692,12.445 14.527,28.144 39.698,50.801 72.197,61.362 48.519,15.766 99.683,0.15 131.593,-35.637 z"
           id="path8725-5-6-3-4-9-5-6-9-4-1-9"
           style="fill:#706282;fill-opacity:1" />
        <path
           class="st0"
           d="M 96.772,362.484 C 76.69,390.127 69.636,423.25 74.43,454.558 c 0.527,3.424 5.233,9.178 13.527,5.554 8.308,-3.63 30.054,-12.088 30.054,-12.088 2.672,-1.062 5.698,-0.692 8.041,1 2.329,1.692 3.623,4.466 3.418,7.335 0,0 -1.308,23.294 -2.199,32.315 -0.883,9.006 6.048,11.712 9.466,11.15 31.252,-5.116 60.581,-22.054 80.662,-49.704 29.993,-41.266 30.944,-94.758 6.781,-136.155 -46.848,-10.192 -97.422,7.239 -127.408,48.519 z"
           id="path8727-3-5-0-26-9-8-2-7-8-10-5"
           style="fill:#706282;fill-opacity:1" />
        <path
           class="st0"
           d="m 287.824,313.964 c -24.165,41.397 -23.212,94.888 6.78,136.155 20.082,27.65 49.41,44.588 80.663,49.704 3.418,0.562 10.349,-2.144 9.466,-11.15 -0.89,-9.021 -2.205,-32.315 -2.205,-32.315 -0.198,-2.869 1.102,-5.643 3.431,-7.335 2.322,-1.692 5.363,-2.062 8.034,-1 0,0 21.746,8.458 30.047,12.088 8.294,3.623 13.007,-2.13 13.534,-5.554 4.787,-31.308 -2.254,-64.43 -22.342,-92.074 -29.986,-41.279 -80.56,-58.717 -127.408,-48.519 z"
           id="path8729-3-8-1-7-6-8-2-4-4-6-8"
           style="fill:#706282;fill-opacity:1" />
        <path
           class="st0"
           d="m 503.6,215.254 c -8.849,-1.945 -31.41,-7.89 -31.41,-7.89 -2.795,-0.706 -5.027,-2.788 -5.918,-5.528 -0.89,-2.732 -0.308,-5.74 1.534,-7.952 0,0 14.76,-18.068 20.78,-24.842 6.014,-6.766 1.993,-13.034 -1.096,-14.589 -28.301,-14.232 -61.978,-17.76 -94.485,-7.205 -48.519,15.767 -80.731,58.472 -85.512,106.176 31.91,35.787 83.067,51.403 131.593,35.636 32.492,-10.561 57.67,-33.218 72.191,-61.362 1.59,-3.074 1.172,-10.499 -7.677,-12.444 z"
           id="path8731-7-2-49-14-0-5-5-1-3-02-95"
           style="fill:#706282;fill-opacity:1" />
      </g>
      <g
         id="g8733-3-8-8-8-6-3-0-2-9-9-1-03"
         transform="matrix(0.02343754,0,0,0.02343754,67.490226,36.673472)"
         style="display:inline;fill:#706282;fill-opacity:1">
        <path
           class="st0"
           d="m 330.555,101.873 c 0,-34.164 -13.767,-65.108 -36.047,-87.622 -2.432,-2.465 -9.63,-4.349 -14.212,3.466 -4.589,7.808 -17.205,27.431 -17.205,27.431 -1.534,2.438 -4.219,3.918 -7.089,3.918 -2.883,0 -5.555,-1.48 -7.089,-3.918 0,0 -12.623,-19.623 -17.205,-27.431 -4.582,-7.815 -11.781,-5.931 -14.219,-3.466 -22.274,22.514 -36.04,53.458 -36.04,87.622 0,51.02 30.663,94.847 74.553,114.142 43.89,-19.295 74.553,-63.123 74.553,-114.142 z"
           id="path8723-8-6-51-3-8-5-3-7-7-0-4-7"
           style="fill:#706282;fill-opacity:1" />
        <path
           class="st0"
           d="m 204.51,253.425 c -4.78,-47.705 -36.998,-90.409 -85.518,-106.176 -32.492,-10.554 -66.177,-7.027 -94.47,7.205 -3.096,1.555 -7.117,7.822 -1.096,14.589 6.007,6.774 20.766,24.842 20.766,24.842 1.849,2.212 2.432,5.22 1.542,7.952 -0.891,2.74 -3.13,4.829 -5.918,5.528 0,0 -22.562,5.945 -31.404,7.89 -8.849,1.945 -9.281,9.37 -7.692,12.445 14.527,28.144 39.698,50.801 72.197,61.362 48.519,15.766 99.683,0.15 131.593,-35.637 z"
           id="path8725-5-6-3-4-9-0-27-1-6-6-8-1"
           style="fill:#706282;fill-opacity:1" />
        <path
           class="st0"
           d="M 96.772,362.484 C 76.69,390.127 69.636,423.25 74.43,454.558 c 0.527,3.424 5.233,9.178 13.527,5.554 8.308,-3.63 30.054,-12.088 30.054,-12.088 2.672,-1.062 5.698,-0.692 8.041,1 2.329,1.692 3.623,4.466 3.418,7.335 0,0 -1.308,23.294 -2.199,32.315 -0.883,9.006 6.048,11.712 9.466,11.15 31.252,-5.116 60.581,-22.054 80.662,-49.704 29.993,-41.266 30.944,-94.758 6.781,-136.155 -46.848,-10.192 -97.422,7.239 -127.408,48.519 z"
           id="path8727-3-5-0-26-9-2-2-8-7-3-3-5"
           style="fill:#706282;fill-opacity:1" />
        <path
           class="st0"
           d="m 287.824,313.964 c -24.165,41.397 -23.212,94.888 6.78,136.155 20.082,27.65 49.41,44.588 80.663,49.704 3.418,0.562 10.349,-2.144 9.466,-11.15 -0.89,-9.021 -2.205,-32.315 -2.205,-32.315 -0.198,-2.869 1.102,-5.643 3.431,-7.335 2.322,-1.692 5.363,-2.062 8.034,-1 0,0 21.746,8.458 30.047,12.088 8.294,3.623 13.007,-2.13 13.534,-5.554 4.787,-31.308 -2.254,-64.43 -22.342,-92.074 -29.986,-41.279 -80.56,-58.717 -127.408,-48.519 z"
           id="path8729-3-8-1-7-6-4-5-6-7-3-3-3"
           style="fill:#706282;fill-opacity:1" />
        <path
           class="st0"
           d="m 503.6,215.254 c -8.849,-1.945 -31.41,-7.89 -31.41,-7.89 -2.795,-0.706 -5.027,-2.788 -5.918,-5.528 -0.89,-2.732 -0.308,-5.74 1.534,-7.952 0,0 14.76,-18.068 20.78,-24.842 6.014,-6.766 1.993,-13.034 -1.096,-14.589 -28.301,-14.232 -61.978,-17.76 -94.485,-7.205 -48.519,15.767 -80.731,58.472 -85.512,106.176 31.91,35.787 83.067,51.403 131.593,35.636 32.492,-10.561 57.67,-33.218 72.191,-61.362 1.59,-3.074 1.172,-10.499 -7.677,-12.444 z"
           id="path8731-7-2-49-14-0-2-58-2-3-6-1-8"
           style="fill:#706282;fill-opacity:1" />
      </g>
      <g
         id="g8733-3-8-8-8-6-3-1-75-5-0-2-9-51"
         transform="matrix(0.02343754,0,0,0.02343754,49.975312,40.998206)"
         style="display:inline;fill:#706282;fill-opacity:1">
        <path
           class="st0"
           d="m 330.555,101.873 c 0,-34.164 -13.767,-65.108 -36.047,-87.622 -2.432,-2.465 -9.63,-4.349 -14.212,3.466 -4.589,7.808 -17.205,27.431 -17.205,27.431 -1.534,2.438 -4.219,3.918 -7.089,3.918 -2.883,0 -5.555,-1.48 -7.089,-3.918 0,0 -12.623,-19.623 -17.205,-27.431 -4.582,-7.815 -11.781,-5.931 -14.219,-3.466 -22.274,22.514 -36.04,53.458 -36.04,87.622 0,51.02 30.663,94.847 74.553,114.142 43.89,-19.295 74.553,-63.123 74.553,-114.142 z"
           id="path8723-8-6-51-3-8-5-2-8-3-5-2-3-1"
           style="fill:#706282;fill-opacity:1" />
        <path
           class="st0"
           d="m 204.51,253.425 c -4.78,-47.705 -36.998,-90.409 -85.518,-106.176 -32.492,-10.554 -66.177,-7.027 -94.47,7.205 -3.096,1.555 -7.117,7.822 -1.096,14.589 6.007,6.774 20.766,24.842 20.766,24.842 1.849,2.212 2.432,5.22 1.542,7.952 -0.891,2.74 -3.13,4.829 -5.918,5.528 0,0 -22.562,5.945 -31.404,7.89 -8.849,1.945 -9.281,9.37 -7.692,12.445 14.527,28.144 39.698,50.801 72.197,61.362 48.519,15.766 99.683,0.15 131.593,-35.637 z"
           id="path8725-5-6-3-4-9-0-3-4-9-6-6-4-0"
           style="fill:#706282;fill-opacity:1" />
        <path
           class="st0"
           d="M 96.772,362.484 C 76.69,390.127 69.636,423.25 74.43,454.558 c 0.527,3.424 5.233,9.178 13.527,5.554 8.308,-3.63 30.054,-12.088 30.054,-12.088 2.672,-1.062 5.698,-0.692 8.041,1 2.329,1.692 3.623,4.466 3.418,7.335 0,0 -1.308,23.294 -2.199,32.315 -0.883,9.006 6.048,11.712 9.466,11.15 31.252,-5.116 60.581,-22.054 80.662,-49.704 29.993,-41.266 30.944,-94.758 6.781,-136.155 -46.848,-10.192 -97.422,7.239 -127.408,48.519 z"
           id="path8727-3-5-0-26-9-2-8-9-5-6-5-2-3"
           style="fill:#706282;fill-opacity:1" />
        <path
           class="st0"
           d="m 287.824,313.964 c -24.165,41.397 -23.212,94.888 6.78,136.155 20.082,27.65 49.41,44.588 80.663,49.704 3.418,0.562 10.349,-2.144 9.466,-11.15 -0.89,-9.021 -2.205,-32.315 -2.205,-32.315 -0.198,-2.869 1.102,-5.643 3.431,-7.335 2.322,-1.692 5.363,-2.062 8.034,-1 0,0 21.746,8.458 30.047,12.088 8.294,3.623 13.007,-2.13 13.534,-5.554 4.787,-31.308 -2.254,-64.43 -22.342,-92.074 -29.986,-41.279 -80.56,-58.717 -127.408,-48.519 z"
           id="path8729-3-8-1-7-6-4-3-5-6-0-7-34-3"
           style="fill:#706282;fill-opacity:1" />
        <path
           class="st0"
           d="m 503.6,215.254 c -8.849,-1.945 -31.41,-7.89 -31.41,-7.89 -2.795,-0.706 -5.027,-2.788 -5.918,-5.528 -0.89,-2.732 -0.308,-5.74 1.534,-7.952 0,0 14.76,-18.068 20.78,-24.842 6.014,-6.766 1.993,-13.034 -1.096,-14.589 -28.301,-14.232 -61.978,-17.76 -94.485,-7.205 -48.519,15.767 -80.731,58.472 -85.512,106.176 31.91,35.787 83.067,51.403 131.593,35.636 32.492,-10.561 57.67,-33.218 72.191,-61.362 1.59,-3.074 1.172,-10.499 -7.677,-12.444 z"
           id="path8731-7-2-49-14-0-2-8-78-0-0-3-2-6"
           style="fill:#706282;fill-opacity:1" />
      </g>
    </g>
    <g
       id="g2402-0-7-3-2-5-7-6"
       style="display:inline"
       transform="matrix(0.56394424,0,0,0.56394424,21.340509,-20.070856)">
      <g
         id="g80849-6-0-8-3-9-4-3"
         transform="matrix(0.90290827,0,0,0.90290827,-55.445709,-12.289123)"
         style="display:inline">
        <g
           id="g80785-1-1-7-0-0-8-2"
           transform="translate(-17.025069,46.585079)">
          <path
             d="m 146.85461,18.019882 c -2.52835,0.17383 -20.29122,1.865253 -21.53293,14.043594 -0.15088,1.30177 -0.23633,2.6094 -0.29248,3.918007 l 8.73397,-8.725183 c 0.30518,-0.305179 0.80079,-0.305179 1.10597,0 0.30518,0.305179 0.30518,0.799813 0,1.104991 l -12.67102,12.658327 c -0.45801,0.457524 -0.45801,1.199719 0,1.657243 0.45801,0.457523 1.20069,0.457523 1.65919,0 l 2.78958,-2.786649 c 2.0552,-0.0068 4.10893,-0.123536 6.15045,-0.359378 2.61136,-0.265627 4.73735,-1.292494 6.4737,-2.760769 h -4.92925 l 7.16755,-2.386742 c 0.54932,-0.727058 1.04347,-1.499527 1.48683,-2.300804 h -3.96195 l 5.2022,-2.59817 c 2.0464,-4.977099 2.52981,-10.182228 2.61819,-11.464467 z"
             id="path2-90-53-3-9-6-1-2-1"
             style="fill:#92d050;fill-opacity:1;stroke-width:0.0488285" />
          <path
             id="path2-90-1-74-3-5-8-4-2-5"
             style="display:inline;fill:#68923b;fill-opacity:1;stroke-width:0.0488286"
             d="m 146.85474,18.020304 c -2.52835,0.173832 -20.29134,1.865247 -21.53305,14.043589 -0.15088,1.301768 -0.23634,2.608982 -0.29249,3.91759 l 3.41168,-3.408061 c 0.0175,-0.169963 0.0361,-0.339757 0.0558,-0.509529 0.98731,-9.683234 12.41304,-12.73433 18.32705,-13.666351 0.0109,-0.131085 0.0247,-0.285112 0.031,-0.377238 z m -9.36377,9.007203 c -0.2002,0 -0.40034,0.07634 -0.55294,0.228925 l -8.73383,8.725051 c 0.0145,-0.337502 0.0311,-0.674537 0.0501,-1.011825 l -6.05648,6.050277 c -0.45801,0.457523 -0.45801,1.199738 0,1.657263 0.45801,0.457523 1.20083,0.457523 1.65933,0 l 1.2516,-1.250569 c 0.0571,-0.148153 0.14447,-0.287224 0.26407,-0.406694 l 12.67106,-12.658658 c 0.30518,-0.305181 0.30518,-0.799664 0,-1.104845 -0.15259,-0.152588 -0.35274,-0.228925 -0.55294,-0.228925 z" />
        </g>
        <g
           id="g80785-4-7-6-1-6-48-5-5"
           transform="translate(2.3732625,41.795296)"
           style="display:inline">
          <path
             d="m 146.85461,18.019882 c -2.52835,0.17383 -20.29122,1.865253 -21.53293,14.043594 -0.15088,1.30177 -0.23633,2.6094 -0.29248,3.918007 l 8.73397,-8.725183 c 0.30518,-0.305179 0.80079,-0.305179 1.10597,0 0.30518,0.305179 0.30518,0.799813 0,1.104991 l -12.67102,12.658327 c -0.45801,0.457524 -0.45801,1.199719 0,1.657243 0.45801,0.457523 1.20069,0.457523 1.65919,0 l 2.78958,-2.786649 c 2.0552,-0.0068 4.10893,-0.123536 6.15045,-0.359378 2.61136,-0.265627 4.73735,-1.292494 6.4737,-2.760769 h -4.92925 l 7.16755,-2.386742 c 0.54932,-0.727058 1.04347,-1.499527 1.48683,-2.300804 h -3.96195 l 5.2022,-2.59817 c 2.0464,-4.977099 2.52981,-10.182228 2.61819,-11.464467 z"
             id="path2-90-7-5-7-5-0-1-13-8"
             style="fill:#92d050;fill-opacity:1;stroke-width:0.0488285" />
          <path
             id="path2-90-1-3-5-5-5-0-4-7-3"
             style="display:inline;fill:#68923b;fill-opacity:1;stroke-width:0.0488286"
             d="m 146.85474,18.020304 c -2.52835,0.173832 -20.29134,1.865247 -21.53305,14.043589 -0.15088,1.301768 -0.23634,2.608982 -0.29249,3.91759 l 3.41168,-3.408061 c 0.0175,-0.169963 0.0361,-0.339757 0.0558,-0.509529 0.98731,-9.683234 12.41304,-12.73433 18.32705,-13.666351 0.0109,-0.131085 0.0247,-0.285112 0.031,-0.377238 z m -9.36377,9.007203 c -0.2002,0 -0.40034,0.07634 -0.55294,0.228925 l -8.73383,8.725051 c 0.0145,-0.337502 0.0311,-0.674537 0.0501,-1.011825 l -6.05648,6.050277 c -0.45801,0.457523 -0.45801,1.199738 0,1.657263 0.45801,0.457523 1.20083,0.457523 1.65933,0 l 1.2516,-1.250569 c 0.0571,-0.148153 0.14447,-0.287224 0.26407,-0.406694 l 12.67106,-12.658658 c 0.30518,-0.305181 0.30518,-0.799664 0,-1.104845 -0.15259,-0.152588 -0.35274,-0.228925 -0.55294,-0.228925 z" />
        </g>
        <g
           id="g80785-7-1-1-6-5-3-1-8"
           transform="translate(16.673711,46.585118)"
           style="display:inline">
          <path
             d="m 146.85461,18.019882 c -2.52835,0.17383 -20.29122,1.865253 -21.53293,14.043594 -0.15088,1.30177 -0.23633,2.6094 -0.29248,3.918007 l 8.73397,-8.725183 c 0.30518,-0.305179 0.80079,-0.305179 1.10597,0 0.30518,0.305179 0.30518,0.799813 0,1.104991 l -12.67102,12.658327 c -0.45801,0.457524 -0.45801,1.199719 0,1.657243 0.45801,0.457523 1.20069,0.457523 1.65919,0 l 2.78958,-2.786649 c 2.0552,-0.0068 4.10893,-0.123536 6.15045,-0.359378 2.61136,-0.265627 4.73735,-1.292494 6.4737,-2.760769 h -4.92925 l 7.16755,-2.386742 c 0.54932,-0.727058 1.04347,-1.499527 1.48683,-2.300804 h -3.96195 l 5.2022,-2.59817 c 2.0464,-4.977099 2.52981,-10.182228 2.61819,-11.464467 z"
             id="path2-90-77-5-8-0-9-3-1-3"
             style="fill:#92d050;fill-opacity:1;stroke-width:0.0488285" />
          <path
             id="path2-90-1-4-40-0-0-3-66-9-0"
             style="display:inline;fill:#68923b;fill-opacity:1;stroke-width:0.0488286"
             d="m 146.85474,18.020304 c -2.52835,0.173832 -20.29134,1.865247 -21.53305,14.043589 -0.15088,1.301768 -0.23634,2.608982 -0.29249,3.91759 l 3.41168,-3.408061 c 0.0175,-0.169963 0.0361,-0.339757 0.0558,-0.509529 0.98731,-9.683234 12.41304,-12.73433 18.32705,-13.666351 0.0109,-0.131085 0.0247,-0.285112 0.031,-0.377238 z m -9.36377,9.007203 c -0.2002,0 -0.40034,0.07634 -0.55294,0.228925 l -8.73383,8.725051 c 0.0145,-0.337502 0.0311,-0.674537 0.0501,-1.011825 l -6.05648,6.050277 c -0.45801,0.457523 -0.45801,1.199738 0,1.657263 0.45801,0.457523 1.20083,0.457523 1.65933,0 l 1.2516,-1.250569 c 0.0571,-0.148153 0.14447,-0.287224 0.26407,-0.406694 l 12.67106,-12.658658 c 0.30518,-0.305181 0.30518,-0.799664 0,-1.104845 -0.15259,-0.152588 -0.35274,-0.228925 -0.55294,-0.228925 z" />
        </g>
      </g>
      <g
         id="g8733-3-8-8-8-6-7-7-4-9-4-5-7"
         transform="matrix(0.02343754,0,0,0.02343754,80.402219,40.998242)"
         style="display:inline;fill:#706282;fill-opacity:1">
        <path
           class="st0"
           d="m 330.555,101.873 c 0,-34.164 -13.767,-65.108 -36.047,-87.622 -2.432,-2.465 -9.63,-4.349 -14.212,3.466 -4.589,7.808 -17.205,27.431 -17.205,27.431 -1.534,2.438 -4.219,3.918 -7.089,3.918 -2.883,0 -5.555,-1.48 -7.089,-3.918 0,0 -12.623,-19.623 -17.205,-27.431 -4.582,-7.815 -11.781,-5.931 -14.219,-3.466 -22.274,22.514 -36.04,53.458 -36.04,87.622 0,51.02 30.663,94.847 74.553,114.142 43.89,-19.295 74.553,-63.123 74.553,-114.142 z"
           id="path8723-8-6-51-3-8-8-6-2-8-4-2-9"
           style="fill:#706282;fill-opacity:1" />
        <path
           class="st0"
           d="m 204.51,253.425 c -4.78,-47.705 -36.998,-90.409 -85.518,-106.176 -32.492,-10.554 -66.177,-7.027 -94.47,7.205 -3.096,1.555 -7.117,7.822 -1.096,14.589 6.007,6.774 20.766,24.842 20.766,24.842 1.849,2.212 2.432,5.22 1.542,7.952 -0.891,2.74 -3.13,4.829 -5.918,5.528 0,0 -22.562,5.945 -31.404,7.89 -8.849,1.945 -9.281,9.37 -7.692,12.445 14.527,28.144 39.698,50.801 72.197,61.362 48.519,15.766 99.683,0.15 131.593,-35.637 z"
           id="path8725-5-6-3-4-9-5-6-9-4-1-9-1"
           style="fill:#706282;fill-opacity:1" />
        <path
           class="st0"
           d="M 96.772,362.484 C 76.69,390.127 69.636,423.25 74.43,454.558 c 0.527,3.424 5.233,9.178 13.527,5.554 8.308,-3.63 30.054,-12.088 30.054,-12.088 2.672,-1.062 5.698,-0.692 8.041,1 2.329,1.692 3.623,4.466 3.418,7.335 0,0 -1.308,23.294 -2.199,32.315 -0.883,9.006 6.048,11.712 9.466,11.15 31.252,-5.116 60.581,-22.054 80.662,-49.704 29.993,-41.266 30.944,-94.758 6.781,-136.155 -46.848,-10.192 -97.422,7.239 -127.408,48.519 z"
           id="path8727-3-5-0-26-9-8-2-7-8-10-5-3"
           style="fill:#706282;fill-opacity:1" />
        <path
           class="st0"
           d="m 287.824,313.964 c -24.165,41.397 -23.212,94.888 6.78,136.155 20.082,27.65 49.41,44.588 80.663,49.704 3.418,0.562 10.349,-2.144 9.466,-11.15 -0.89,-9.021 -2.205,-32.315 -2.205,-32.315 -0.198,-2.869 1.102,-5.643 3.431,-7.335 2.322,-1.692 5.363,-2.062 8.034,-1 0,0 21.746,8.458 30.047,12.088 8.294,3.623 13.007,-2.13 13.534,-5.554 4.787,-31.308 -2.254,-64.43 -22.342,-92.074 -29.986,-41.279 -80.56,-58.717 -127.408,-48.519 z"
           id="path8729-3-8-1-7-6-8-2-4-4-6-8-9"
           style="fill:#706282;fill-opacity:1" />
        <path
           class="st0"
           d="m 503.6,215.254 c -8.849,-1.945 -31.41,-7.89 -31.41,-7.89 -2.795,-0.706 -5.027,-2.788 -5.918,-5.528 -0.89,-2.732 -0.308,-5.74 1.534,-7.952 0,0 14.76,-18.068 20.78,-24.842 6.014,-6.766 1.993,-13.034 -1.096,-14.589 -28.301,-14.232 -61.978,-17.76 -94.485,-7.205 -48.519,15.767 -80.731,58.472 -85.512,106.176 31.91,35.787 83.067,51.403 131.593,35.636 32.492,-10.561 57.67,-33.218 72.191,-61.362 1.59,-3.074 1.172,-10.499 -7.677,-12.444 z"
           id="path8731-7-2-49-14-0-5-5-1-3-02-95-8"
           style="fill:#706282;fill-opacity:1" />
      </g>
      <g
         id="g8733-3-8-8-8-6-3-0-2-9-9-1-03-2"
         transform="matrix(0.02343754,0,0,0.02343754,67.490226,36.673472)"
         style="display:inline;fill:#706282;fill-opacity:1">
        <path
           class="st0"
           d="m 330.555,101.873 c 0,-34.164 -13.767,-65.108 -36.047,-87.622 -2.432,-2.465 -9.63,-4.349 -14.212,3.466 -4.589,7.808 -17.205,27.431 -17.205,27.431 -1.534,2.438 -4.219,3.918 -7.089,3.918 -2.883,0 -5.555,-1.48 -7.089,-3.918 0,0 -12.623,-19.623 -17.205,-27.431 -4.582,-7.815 -11.781,-5.931 -14.219,-3.466 -22.274,22.514 -36.04,53.458 -36.04,87.622 0,51.02 30.663,94.847 74.553,114.142 43.89,-19.295 74.553,-63.123 74.553,-114.142 z"
           id="path8723-8-6-51-3-8-5-3-7-7-0-4-7-4"
           style="fill:#706282;fill-opacity:1" />
        <path
           class="st0"
           d="m 204.51,253.425 c -4.78,-47.705 -36.998,-90.409 -85.518,-106.176 -32.492,-10.554 -66.177,-7.027 -94.47,7.205 -3.096,1.555 -7.117,7.822 -1.096,14.589 6.007,6.774 20.766,24.842 20.766,24.842 1.849,2.212 2.432,5.22 1.542,7.952 -0.891,2.74 -3.13,4.829 -5.918,5.528 0,0 -22.562,5.945 -31.404,7.89 -8.849,1.945 -9.281,9.37 -7.692,12.445 14.527,28.144 39.698,50.801 72.197,61.362 48.519,15.766 99.683,0.15 131.593,-35.637 z"
           id="path8725-5-6-3-4-9-0-27-1-6-6-8-1-5"
           style="fill:#706282;fill-opacity:1" />
        <path
           class="st0"
           d="M 96.772,362.484 C 76.69,390.127 69.636,423.25 74.43,454.558 c 0.527,3.424 5.233,9.178 13.527,5.554 8.308,-3.63 30.054,-12.088 30.054,-12.088 2.672,-1.062 5.698,-0.692 8.041,1 2.329,1.692 3.623,4.466 3.418,7.335 0,0 -1.308,23.294 -2.199,32.315 -0.883,9.006 6.048,11.712 9.466,11.15 31.252,-5.116 60.581,-22.054 80.662,-49.704 29.993,-41.266 30.944,-94.758 6.781,-136.155 -46.848,-10.192 -97.422,7.239 -127.408,48.519 z"
           id="path8727-3-5-0-26-9-2-2-8-7-3-3-5-9"
           style="fill:#706282;fill-opacity:1" />
        <path
           class="st0"
           d="m 287.824,313.964 c -24.165,41.397 -23.212,94.888 6.78,136.155 20.082,27.65 49.41,44.588 80.663,49.704 3.418,0.562 10.349,-2.144 9.466,-11.15 -0.89,-9.021 -2.205,-32.315 -2.205,-32.315 -0.198,-2.869 1.102,-5.643 3.431,-7.335 2.322,-1.692 5.363,-2.062 8.034,-1 0,0 21.746,8.458 30.047,12.088 8.294,3.623 13.007,-2.13 13.534,-5.554 4.787,-31.308 -2.254,-64.43 -22.342,-92.074 -29.986,-41.279 -80.56,-58.717 -127.408,-48.519 z"
           id="path8729-3-8-1-7-6-4-5-6-7-3-3-3-1"
           style="fill:#706282;fill-opacity:1" />
        <path
           class="st0"
           d="m 503.6,215.254 c -8.849,-1.945 -31.41,-7.89 -31.41,-7.89 -2.795,-0.706 -5.027,-2.788 -5.918,-5.528 -0.89,-2.732 -0.308,-5.74 1.534,-7.952 0,0 14.76,-18.068 20.78,-24.842 6.014,-6.766 1.993,-13.034 -1.096,-14.589 -28.301,-14.232 -61.978,-17.76 -94.485,-7.205 -48.519,15.767 -80.731,58.472 -85.512,106.176 31.91,35.787 83.067,51.403 131.593,35.636 32.492,-10.561 57.67,-33.218 72.191,-61.362 1.59,-3.074 1.172,-10.499 -7.677,-12.444 z"
           id="path8731-7-2-49-14-0-2-58-2-3-6-1-8-5"
           style="fill:#706282;fill-opacity:1" />
      </g>
      <g
         id="g8733-3-8-8-8-6-3-1-75-5-0-2-9-51-3"
         transform="matrix(0.02343754,0,0,0.02343754,49.975312,40.998206)"
         style="display:inline;fill:#706282;fill-opacity:1">
        <path
           class="st0"
           d="m 330.555,101.873 c 0,-34.164 -13.767,-65.108 -36.047,-87.622 -2.432,-2.465 -9.63,-4.349 -14.212,3.466 -4.589,7.808 -17.205,27.431 -17.205,27.431 -1.534,2.438 -4.219,3.918 -7.089,3.918 -2.883,0 -5.555,-1.48 -7.089,-3.918 0,0 -12.623,-19.623 -17.205,-27.431 -4.582,-7.815 -11.781,-5.931 -14.219,-3.466 -22.274,22.514 -36.04,53.458 -36.04,87.622 0,51.02 30.663,94.847 74.553,114.142 43.89,-19.295 74.553,-63.123 74.553,-114.142 z"
           id="path8723-8-6-51-3-8-5-2-8-3-5-2-3-1-9"
           style="fill:#706282;fill-opacity:1" />
        <path
           class="st0"
           d="m 204.51,253.425 c -4.78,-47.705 -36.998,-90.409 -85.518,-106.176 -32.492,-10.554 -66.177,-7.027 -94.47,7.205 -3.096,1.555 -7.117,7.822 -1.096,14.589 6.007,6.774 20.766,24.842 20.766,24.842 1.849,2.212 2.432,5.22 1.542,7.952 -0.891,2.74 -3.13,4.829 -5.918,5.528 0,0 -22.562,5.945 -31.404,7.89 -8.849,1.945 -9.281,9.37 -7.692,12.445 14.527,28.144 39.698,50.801 72.197,61.362 48.519,15.766 99.683,0.15 131.593,-35.637 z"
           id="path8725-5-6-3-4-9-0-3-4-9-6-6-4-0-0"
           style="fill:#706282;fill-opacity:1" />
        <path
           class="st0"
           d="M 96.772,362.484 C 76.69,390.127 69.636,423.25 74.43,454.558 c 0.527,3.424 5.233,9.178 13.527,5.554 8.308,-3.63 30.054,-12.088 30.054,-12.088 2.672,-1.062 5.698,-0.692 8.041,1 2.329,1.692 3.623,4.466 3.418,7.335 0,0 -1.308,23.294 -2.199,32.315 -0.883,9.006 6.048,11.712 9.466,11.15 31.252,-5.116 60.581,-22.054 80.662,-49.704 29.993,-41.266 30.944,-94.758 6.781,-136.155 -46.848,-10.192 -97.422,7.239 -127.408,48.519 z"
           id="path8727-3-5-0-26-9-2-8-9-5-6-5-2-3-9"
           style="fill:#706282;fill-opacity:1" />
        <path
           class="st0"
           d="m 287.824,313.964 c -24.165,41.397 -23.212,94.888 6.78,136.155 20.082,27.65 49.41,44.588 80.663,49.704 3.418,0.562 10.349,-2.144 9.466,-11.15 -0.89,-9.021 -2.205,-32.315 -2.205,-32.315 -0.198,-2.869 1.102,-5.643 3.431,-7.335 2.322,-1.692 5.363,-2.062 8.034,-1 0,0 21.746,8.458 30.047,12.088 8.294,3.623 13.007,-2.13 13.534,-5.554 4.787,-31.308 -2.254,-64.43 -22.342,-92.074 -29.986,-41.279 -80.56,-58.717 -127.408,-48.519 z"
           id="path8729-3-8-1-7-6-4-3-5-6-0-7-34-3-2"
           style="fill:#706282;fill-opacity:1" />
        <path
           class="st0"
           d="m 503.6,215.254 c -8.849,-1.945 -31.41,-7.89 -31.41,-7.89 -2.795,-0.706 -5.027,-2.788 -5.918,-5.528 -0.89,-2.732 -0.308,-5.74 1.534,-7.952 0,0 14.76,-18.068 20.78,-24.842 6.014,-6.766 1.993,-13.034 -1.096,-14.589 -28.301,-14.232 -61.978,-17.76 -94.485,-7.205 -48.519,15.767 -80.731,58.472 -85.512,106.176 31.91,35.787 83.067,51.403 131.593,35.636 32.492,-10.561 57.67,-33.218 72.191,-61.362 1.59,-3.074 1.172,-10.499 -7.677,-12.444 z"
           id="path8731-7-2-49-14-0-2-8-78-0-0-3-2-6-2"
           style="fill:#706282;fill-opacity:1" />
      </g>
    </g>
  </g>
</svg>
