<?xml version="1.0" encoding="UTF-8" standalone="no"?>
<!-- Created with Inkscape (http://www.inkscape.org/) -->

<svg
   width="500"
   height="500"
   viewBox="0 0 132.29166 132.29167"
   version="1.1"
   id="svg2515"
   inkscape:version="1.1.2 (b8e25be833, 2022-02-05)"
   sodipodi:docname="bonsai02s05normal.svg"
   inkscape:export-filename="C:\Users\Lenovo\Desktop\Coding\Media files\Bonsais\bonsai02.png"
   inkscape:export-xdpi="96"
   inkscape:export-ydpi="96"
   xmlns:inkscape="http://www.inkscape.org/namespaces/inkscape"
   xmlns:sodipodi="http://sodipodi.sourceforge.net/DTD/sodipodi-0.dtd"
   xmlns="http://www.w3.org/2000/svg"
   xmlns:svg="http://www.w3.org/2000/svg">
  <sodipodi:namedview
     id="namedview2517"
     pagecolor="#ffffff"
     bordercolor="#666666"
     borderopacity="1.0"
     inkscape:pageshadow="2"
     inkscape:pageopacity="0.0"
     inkscape:pagecheckerboard="0"
     inkscape:document-units="mm"
     showgrid="false"
     units="px"
     inkscape:zoom="1.4142136"
     inkscape:cx="202.58609"
     inkscape:cy="239.35564"
     inkscape:window-width="1920"
     inkscape:window-height="1001"
     inkscape:window-x="-9"
     inkscape:window-y="-9"
     inkscape:window-maximized="1"
     inkscape:current-layer="g51917" />
  <defs
     id="defs2512">
    <marker
       style="overflow:visible"
       id="Arrow1Sstart"
       refX="0.0"
       refY="0.0"
       orient="auto"
       inkscape:stockid="Arrow1Sstart"
       inkscape:isstock="true">
      <path
         transform="scale(0.2) translate(6,0)"
         style="fill-rule:evenodd;fill:context-stroke;stroke:context-stroke;stroke-width:1.0pt"
         d="M 0.0,0.0 L 5.0,-5.0 L -12.5,0.0 L 5.0,5.0 L 0.0,0.0 z "
         id="path24092" />
    </marker>
    <marker
       style="overflow:visible"
       id="Arrow1Mstart"
       refX="0.0"
       refY="0.0"
       orient="auto"
       inkscape:stockid="Arrow1Mstart"
       inkscape:isstock="true">
      <path
         transform="scale(0.4) translate(10,0)"
         style="fill-rule:evenodd;fill:context-stroke;stroke:context-stroke;stroke-width:1.0pt"
         d="M 0.0,0.0 L 5.0,-5.0 L -12.5,0.0 L 5.0,5.0 L 0.0,0.0 z "
         id="path24086" />
    </marker>
    <marker
       style="overflow:visible"
       id="Arrow1Lstart"
       refX="0.0"
       refY="0.0"
       orient="auto"
       inkscape:stockid="Arrow1Lstart"
       inkscape:isstock="true">
      <path
         transform="scale(0.8) translate(12.5,0)"
         style="fill-rule:evenodd;fill:context-stroke;stroke:context-stroke;stroke-width:1.0pt"
         d="M 0.0,0.0 L 5.0,-5.0 L -12.5,0.0 L 5.0,5.0 L 0.0,0.0 z "
         id="path24080" />
    </marker>
    <marker
       style="overflow:visible;"
       id="Arrow1Lend"
       refX="0.0"
       refY="0.0"
       orient="auto"
       inkscape:stockid="Arrow1Lend"
       inkscape:isstock="true">
      <path
         transform="scale(0.8) rotate(180) translate(12.5,0)"
         style="fill-rule:evenodd;fill:context-stroke;stroke:context-stroke;stroke-width:1.0pt;"
         d="M 0.0,0.0 L 5.0,-5.0 L -12.5,0.0 L 5.0,5.0 L 0.0,0.0 z "
         id="path24083" />
    </marker>
  </defs>
  <g
     inkscape:label="Double Trunk"
     inkscape:groupmode="layer"
     id="g51917"
     style="display:inline">
    <g
       id="g51833"
       transform="translate(157.39097,29.859785)"
       style="display:inline">
      <g
         id="g51831"
         transform="translate(-5.2916669)">
        <g
           id="g51823"
           transform="rotate(-13.017437,48.811012,639.29985)">
          <path
             style="display:inline;fill:#b64a11;fill-opacity:1;stroke:#b64a11;stroke-width:1;stroke-linecap:round;stroke-linejoin:round;stroke-miterlimit:4;stroke-dasharray:none;stroke-opacity:1"
             d="m 35.870136,79.809188 c 0,0 -5.93462,-10.285377 -0.36765,-17.935201 6.813833,-9.363182 12.17001,-5.093403 20.635714,-13.494745 6.786493,-6.734912 3.856953,-4.941474 9.61376,-12.344267 8.901728,-11.446877 8.659273,-1.55111 18.063763,-7.957382 7.913798,-5.390822 6.163238,-9.447209 15.526264,-17.43746 -2.405674,12.080364 -8.000423,9.916592 -10.90212,19.308518 -10.998001,6.255711 -2.636099,3.404697 -10.733417,5.461961 -9.484259,2.409639 -8.368428,8.046906 -13.315573,14.129643 -7.813845,9.607437 -15.695209,6.410437 -18.541148,16.263577 -2.153488,7.455755 1.038976,14.510776 2.528597,17.311986 1.489631,2.80121 -12.50819,-3.30663 -12.50819,-3.30663 z"
             id="path51819"
             sodipodi:nodetypes="cssssccssssc" />
          <path
             id="path51821"
             style="display:inline;fill:#9b3d0c;fill-opacity:1;stroke:#9b3d0c;stroke-width:3.77953;stroke-linecap:round;stroke-linejoin:round;stroke-miterlimit:4;stroke-dasharray:none;stroke-opacity:1"
             d="m 970.33008,153.07031 c -35.38782,30.19938 -28.77318,45.53149 -58.6836,65.90625 -35.54452,24.21268 -34.62715,-13.18957 -68.27148,30.07422 -21.75801,27.97906 -10.6862,21.20147 -36.33594,46.65625 -31.99636,31.7531 -52.23911,15.6155 -77.99218,51.00391 -21.04052,28.91272 1.38867,67.78515 1.38867,67.78515 0,0 0.53969,0.23173 0.68554,0.29493 -5.05604,-10.82763 -16.10396,-40.35023 0.75977,-63.52344 25.75307,-35.38841 45.99778,-19.2508 77.99414,-51.00391 25.64974,-25.45478 14.57793,-18.67719 36.33594,-46.65625 33.64432,-43.26379 32.72695,-5.86154 68.27148,-30.07422 28.41915,-19.35891 23.88953,-34.17576 53.71875,-61.50781 0.76306,-2.74415 1.48041,-5.69857 2.12891,-8.95508 z"
             transform="matrix(0.26458333,0,0,0.26458333,-157.39097,-29.859785)" />
        </g>
        <g
           id="g51829"
           transform="translate(-103.45205,-31.75)">
          <path
             style="display:inline;fill:#b64a11;fill-opacity:1;stroke:#b64a11;stroke-width:1;stroke-linecap:round;stroke-linejoin:round;stroke-miterlimit:4;stroke-dasharray:none;stroke-opacity:1"
             d="m 1.5429645,115.20461 c 0,0 -0.44391,-8.09307 -7.413009,-16.606491 -5.7703105,-7.049 -13.8088905,-10.89145 -10.0809905,-22.220768 2.98845,-9.082106 6.5809805,-11.287183 11.7883305,-16.9438 C 5.6584545,48.765064 7.3043845,49.408168 12.774609,39.430122 17.377757,31.033683 4.9076645,22.010606 9.6217105,10.640113 12.96362,22.495664 18.44838,26.548244 20.12762,36.233711 15.444354,48.50294 18.442121,45.423796 15.444354,48.50294 c -2.295407,2.357716 -5.14072,4.406037 -7.8642035,6.795331 -7.35602602,6.453392 -10.606666,25.3144 -10.606666,25.3144 10.538324,6.504058 13.6860715,7.919038 15.6244115,17.990108 1.46672,7.620671 12.857197,14.782431 15.456337,16.601831 2.59915,1.8194 -26.5112685,0 -26.5112685,0 z"
             id="path51825"
             sodipodi:nodetypes="cssssccsssssc" />
          <path
             id="path51827"
             style="display:inline;fill:#9b3d0c;fill-opacity:1;stroke:#9b3d0c;stroke-width:3.77953;stroke-linecap:round;stroke-linejoin:round;stroke-miterlimit:4;stroke-dasharray:none;stroke-opacity:1"
             d="m 631.22852,153.07031 c -17.81689,42.97509 29.31375,77.07793 11.91601,108.8125 -20.67485,37.7123 -26.89433,35.28168 -64.01367,75.60352 -19.68132,21.37934 -33.25976,29.71299 -44.55469,64.03906 -14.0897,42.81947 16.29252,57.3425 38.10156,83.98438 26.33991,32.17672 28.01758,62.76562 28.01758,62.76562 0,0 3.6319,0.21449 8.51367,0.49219 -0.94557,-7.59992 -5.65489,-33.43191 -27.77929,-60.45899 -21.80905,-26.64183 -52.19127,-41.16491 -38.10157,-83.98437 11.29494,-34.32607 24.87337,-42.65972 44.55469,-64.03906 37.11934,-40.32184 43.34078,-37.89122 64.01563,-75.60352 15.60524,-28.46494 -20.69795,-58.8372 -15.48828,-95.80664 -1.82765,-4.8605 -3.57081,-10.09019 -5.18164,-15.80469 z"
             transform="matrix(0.26458333,0,0,0.26458333,-157.39097,-29.859785)" />
        </g>
      </g>
    </g>
    <path
       d="m 28.815058,112.25978 v 4.9283 c 0,3.54189 2.873022,6.4135 6.415264,6.4135 h 50.68076 c 3.542594,0 6.415264,-2.87161 6.415264,-6.4135 v -4.9283 H 28.815058"
       style="fill:#f68213;fill-opacity:1;fill-rule:nonzero;stroke:none;stroke-width:0.0352778"
       id="path51835" />
    <path
       d="m 28.815058,106.19905 h 63.511288 v 6.06073 H 28.815058 v -6.06073"
       style="fill:#ef8927;fill-opacity:1;fill-rule:nonzero;stroke:none;stroke-width:0.0352778"
       id="path51837" />
    <path
       d="m 37.255972,123.60158 h 46.62699 v 5.44689 h -46.62699 v -5.44689"
       style="fill:#e17825;fill-opacity:1;fill-rule:nonzero;stroke:none;stroke-width:0.0352778"
       id="path51839" />
    <path
       d="m 33.755711,117.18808 v -4.9283 h -4.940653 v 4.9283 c 0,3.54189 2.873022,6.4135 6.415264,6.4135 h 4.940652 c -3.542241,0 -6.415263,-2.87161 -6.415263,-6.4135"
       style="fill:#d2651c;fill-opacity:1;fill-rule:nonzero;stroke:none;stroke-width:0.0352778"
       id="path51841" />
    <path
       d="m 28.815058,106.19905 h 4.940653 v 6.06073 h -4.940653 v -6.06073"
       style="fill:#cd6c1c;fill-opacity:1;fill-rule:nonzero;stroke:none;stroke-width:0.0352778"
       id="path51843" />
    <path
       d="m 37.255972,123.60158 h 4.940652 v 5.44689 h -4.940652 v -5.44689"
       style="fill:#bd5b1e;fill-opacity:1;fill-rule:nonzero;stroke:none;stroke-width:0.0352778"
       id="path51845" />
    <g
       id="g41434-1-2-0-78-2-9-9-21"
       transform="matrix(0.69161695,0,0,0.69161695,15.756883,-11.752313)"
       style="display:inline">
      <ellipse
         class="cls-1"
         cx="61.260708"
         cy="25.501854"
         rx="10"
         ry="6.4311991"
         id="ellipse41422-8-6-48-7-6-9-4-2"
         style="display:inline;fill:#00b050;fill-opacity:1;stroke-width:0.735836" />
      <path
         id="path41424-5-1-0-0-8-59-8-5"
         style="display:inline;fill:#0c8242;fill-opacity:1;stroke-width:0.735837"
         class="cls-1"
         d="m 61.26058,19.070655 a 10,6.4311992 0 0 0 -9.99987,6.431042 10,6.4311992 0 0 0 9.99987,6.431462 10,6.4311992 0 0 0 8.027523,-2.59677 8.8747265,5.7075134 0 0 1 -6.605473,1.898596 8.8747265,5.7075134 0 0 1 -8.87444,-5.707586 8.8747265,5.7075134 0 0 1 8.87444,-5.707586 8.8747265,5.7075134 0 0 1 6.909683,2.126124 10,6.4311992 0 0 0 -8.331733,-2.875282 z" />
      <ellipse
         class="cls-1"
         cx="73.139175"
         cy="34.505405"
         rx="9.9996233"
         ry="6.4311991"
         id="ellipse41426-9-7-58-5-6-1-1-3"
         style="display:inline;fill:#00b050;fill-opacity:1;stroke-width:0.735836" />
      <path
         id="path41428-6-9-0-9-5-4-3-3"
         style="display:inline;fill:#0b8241;fill-opacity:1;stroke-width:0.735837"
         class="cls-1"
         d="m 73.139046,28.074209 a 10,6.4311992 0 0 0 -9.99987,6.431042 10,6.4311992 0 0 0 9.99987,6.431462 10,6.4311992 0 0 0 8.027523,-2.59677 8.8747265,5.7075134 0 0 1 -6.605473,1.898596 8.8747265,5.7075134 0 0 1 -8.87444,-5.707586 8.8747265,5.7075134 0 0 1 8.87444,-5.707586 8.8747265,5.7075134 0 0 1 6.909683,2.126124 10,6.4311992 0 0 0 -8.331733,-2.875282 z" />
      <ellipse
         class="cls-1"
         cx="49.762188"
         cy="34.655258"
         rx="10"
         ry="6.4311991"
         id="ellipse41430-3-6-6-4-9-3-4-5"
         style="display:inline;fill:#00b050;fill-opacity:1;stroke-width:0.735836" />
      <path
         id="path41432-6-93-7-7-7-5-5-6"
         style="display:inline;fill:#0c8242;fill-opacity:1;stroke-width:0.735837"
         class="cls-1"
         d="m 49.762057,28.224061 a 10,6.4311992 0 0 0 -9.99987,6.431042 10,6.4311992 0 0 0 9.99987,6.431462 10,6.4311992 0 0 0 8.027523,-2.59677 8.8747265,5.7075134 0 0 1 -6.605473,1.898596 8.8747265,5.7075134 0 0 1 -8.87444,-5.707586 8.8747265,5.7075134 0 0 1 8.87444,-5.707586 8.8747265,5.7075134 0 0 1 6.909683,2.126124 10,6.4311992 0 0 0 -8.331733,-2.875282 z" />
    </g>
    <g
       id="g41434-1-2-0-78-2-9-9-21-2"
       transform="matrix(0.69161695,0,0,0.69161695,65.714279,23.235413)"
       style="display:inline">
      <ellipse
         class="cls-1"
         cx="61.260708"
         cy="25.501854"
         rx="10"
         ry="6.4311991"
         id="ellipse41422-8-6-48-7-6-9-4-2-5"
         style="display:inline;fill:#00b050;fill-opacity:1;stroke-width:0.735836" />
      <path
         id="path41424-5-1-0-0-8-59-8-5-8"
         style="display:inline;fill:#0c8242;fill-opacity:1;stroke-width:0.735837"
         class="cls-1"
         d="m 61.26058,19.070655 a 10,6.4311992 0 0 0 -9.99987,6.431042 10,6.4311992 0 0 0 9.99987,6.431462 10,6.4311992 0 0 0 8.027523,-2.59677 8.8747265,5.7075134 0 0 1 -6.605473,1.898596 8.8747265,5.7075134 0 0 1 -8.87444,-5.707586 8.8747265,5.7075134 0 0 1 8.87444,-5.707586 8.8747265,5.7075134 0 0 1 6.909683,2.126124 10,6.4311992 0 0 0 -8.331733,-2.875282 z" />
      <ellipse
         class="cls-1"
         cx="73.139175"
         cy="34.505405"
         rx="9.9996233"
         ry="6.4311991"
         id="ellipse41426-9-7-58-5-6-1-1-3-1"
         style="display:inline;fill:#00b050;fill-opacity:1;stroke-width:0.735836" />
      <path
         id="path41428-6-9-0-9-5-4-3-3-1"
         style="display:inline;fill:#0b8241;fill-opacity:1;stroke-width:0.735837"
         class="cls-1"
         d="m 73.139046,28.074209 a 10,6.4311992 0 0 0 -9.99987,6.431042 10,6.4311992 0 0 0 9.99987,6.431462 10,6.4311992 0 0 0 8.027523,-2.59677 8.8747265,5.7075134 0 0 1 -6.605473,1.898596 8.8747265,5.7075134 0 0 1 -8.87444,-5.707586 8.8747265,5.7075134 0 0 1 8.87444,-5.707586 8.8747265,5.7075134 0 0 1 6.909683,2.126124 10,6.4311992 0 0 0 -8.331733,-2.875282 z" />
      <ellipse
         class="cls-1"
         cx="49.762188"
         cy="34.655258"
         rx="10"
         ry="6.4311991"
         id="ellipse41430-3-6-6-4-9-3-4-5-0"
         style="display:inline;fill:#00b050;fill-opacity:1;stroke-width:0.735836" />
      <path
         id="path41432-6-93-7-7-7-5-5-6-4"
         style="display:inline;fill:#0c8242;fill-opacity:1;stroke-width:0.735837"
         class="cls-1"
         d="m 49.762057,28.224061 a 10,6.4311992 0 0 0 -9.99987,6.431042 10,6.4311992 0 0 0 9.99987,6.431462 10,6.4311992 0 0 0 8.027523,-2.59677 8.8747265,5.7075134 0 0 1 -6.605473,1.898596 8.8747265,5.7075134 0 0 1 -8.87444,-5.707586 8.8747265,5.7075134 0 0 1 8.87444,-5.707586 8.8747265,5.7075134 0 0 1 6.909683,2.126124 10,6.4311992 0 0 0 -8.331733,-2.875282 z" />
    </g>
    <g
       id="g41434-1-2-0-78-2-9"
       transform="matrix(1.221846,0,0,1.221846,-36.700918,27.489943)"
       style="display:inline">
      <ellipse
         class="cls-1"
         cx="61.260708"
         cy="25.501854"
         rx="10"
         ry="6.4311991"
         id="ellipse41422-8-6-48-7-6-9"
         style="display:inline;fill:#00b050;fill-opacity:1;stroke-width:0.735836" />
      <path
         id="path41424-5-1-0-0-8-59"
         style="display:inline;fill:#0c8242;fill-opacity:1;stroke-width:0.735837"
         class="cls-1"
         d="m 61.26058,19.070655 a 10,6.4311992 0 0 0 -9.99987,6.431042 10,6.4311992 0 0 0 9.99987,6.431462 10,6.4311992 0 0 0 8.027523,-2.59677 8.8747265,5.7075134 0 0 1 -6.605473,1.898596 8.8747265,5.7075134 0 0 1 -8.87444,-5.707586 8.8747265,5.7075134 0 0 1 8.87444,-5.707586 8.8747265,5.7075134 0 0 1 6.909683,2.126124 10,6.4311992 0 0 0 -8.331733,-2.875282 z" />
      <ellipse
         class="cls-1"
         cx="73.139175"
         cy="34.505405"
         rx="9.9996233"
         ry="6.4311991"
         id="ellipse41426-9-7-58-5-6-1"
         style="display:inline;fill:#00b050;fill-opacity:1;stroke-width:0.735836" />
      <path
         id="path41428-6-9-0-9-5-4"
         style="display:inline;fill:#0b8241;fill-opacity:1;stroke-width:0.735837"
         class="cls-1"
         d="m 73.139046,28.074209 a 10,6.4311992 0 0 0 -9.99987,6.431042 10,6.4311992 0 0 0 9.99987,6.431462 10,6.4311992 0 0 0 8.027523,-2.59677 8.8747265,5.7075134 0 0 1 -6.605473,1.898596 8.8747265,5.7075134 0 0 1 -8.87444,-5.707586 8.8747265,5.7075134 0 0 1 8.87444,-5.707586 8.8747265,5.7075134 0 0 1 6.909683,2.126124 10,6.4311992 0 0 0 -8.331733,-2.875282 z" />
      <ellipse
         class="cls-1"
         cx="49.762188"
         cy="34.655258"
         rx="10"
         ry="6.4311991"
         id="ellipse41430-3-6-6-4-9-3"
         style="display:inline;fill:#00b050;fill-opacity:1;stroke-width:0.735836" />
      <path
         id="path41432-6-93-7-7-7-5"
         style="display:inline;fill:#0c8242;fill-opacity:1;stroke-width:0.735837"
         class="cls-1"
         d="m 49.762057,28.224061 a 10,6.4311992 0 0 0 -9.99987,6.431042 10,6.4311992 0 0 0 9.99987,6.431462 10,6.4311992 0 0 0 8.027523,-2.59677 8.8747265,5.7075134 0 0 1 -6.605473,1.898596 8.8747265,5.7075134 0 0 1 -8.87444,-5.707586 8.8747265,5.7075134 0 0 1 8.87444,-5.707586 8.8747265,5.7075134 0 0 1 6.909683,2.126124 10,6.4311992 0 0 0 -8.331733,-2.875282 z" />
    </g>
    <g
       id="g41434-1-2-0-78-2-9-9-2"
       transform="matrix(1.0374254,0,0,1.0374254,26.379668,37.419878)"
       style="display:inline">
      <ellipse
         class="cls-1"
         cx="61.260708"
         cy="25.501854"
         rx="10"
         ry="6.4311991"
         id="ellipse41422-8-6-48-7-6-9-4-5"
         style="display:inline;fill:#00b050;fill-opacity:1;stroke-width:0.735836" />
      <path
         id="path41424-5-1-0-0-8-59-8-4"
         style="display:inline;fill:#0c8242;fill-opacity:1;stroke-width:0.735837"
         class="cls-1"
         d="m 61.26058,19.070655 a 10,6.4311992 0 0 0 -9.99987,6.431042 10,6.4311992 0 0 0 9.99987,6.431462 10,6.4311992 0 0 0 8.027523,-2.59677 8.8747265,5.7075134 0 0 1 -6.605473,1.898596 8.8747265,5.7075134 0 0 1 -8.87444,-5.707586 8.8747265,5.7075134 0 0 1 8.87444,-5.707586 8.8747265,5.7075134 0 0 1 6.909683,2.126124 10,6.4311992 0 0 0 -8.331733,-2.875282 z" />
      <ellipse
         class="cls-1"
         cx="73.139175"
         cy="34.505405"
         rx="9.9996233"
         ry="6.4311991"
         id="ellipse41426-9-7-58-5-6-1-1-7"
         style="display:inline;fill:#00b050;fill-opacity:1;stroke-width:0.735836" />
      <path
         id="path41428-6-9-0-9-5-4-3-2"
         style="display:inline;fill:#0b8241;fill-opacity:1;stroke-width:0.735837"
         class="cls-1"
         d="m 73.139046,28.074209 a 10,6.4311992 0 0 0 -9.99987,6.431042 10,6.4311992 0 0 0 9.99987,6.431462 10,6.4311992 0 0 0 8.027523,-2.59677 8.8747265,5.7075134 0 0 1 -6.605473,1.898596 8.8747265,5.7075134 0 0 1 -8.87444,-5.707586 8.8747265,5.7075134 0 0 1 8.87444,-5.707586 8.8747265,5.7075134 0 0 1 6.909683,2.126124 10,6.4311992 0 0 0 -8.331733,-2.875282 z" />
      <ellipse
         class="cls-1"
         cx="49.762188"
         cy="34.655258"
         rx="10"
         ry="6.4311991"
         id="ellipse41430-3-6-6-4-9-3-4-8"
         style="display:inline;fill:#00b050;fill-opacity:1;stroke-width:0.735836" />
      <path
         id="path41432-6-93-7-7-7-5-5-2"
         style="display:inline;fill:#0c8242;fill-opacity:1;stroke-width:0.735837"
         class="cls-1"
         d="m 49.762057,28.224061 a 10,6.4311992 0 0 0 -9.99987,6.431042 10,6.4311992 0 0 0 9.99987,6.431462 10,6.4311992 0 0 0 8.027523,-2.59677 8.8747265,5.7075134 0 0 1 -6.605473,1.898596 8.8747265,5.7075134 0 0 1 -8.87444,-5.707586 8.8747265,5.7075134 0 0 1 8.87444,-5.707586 8.8747265,5.7075134 0 0 1 6.909683,2.126124 10,6.4311992 0 0 0 -8.331733,-2.875282 z" />
    </g>
    <g
       id="g41434-1-2-0-78-2-9-9"
       transform="matrix(1.0374254,0,0,1.0374254,-1.5189043,4.4383476)"
       style="display:inline">
      <ellipse
         class="cls-1"
         cx="61.260708"
         cy="25.501854"
         rx="10"
         ry="6.4311991"
         id="ellipse41422-8-6-48-7-6-9-4"
         style="display:inline;fill:#00b050;fill-opacity:1;stroke-width:0.735836" />
      <path
         id="path41424-5-1-0-0-8-59-8"
         style="display:inline;fill:#0c8242;fill-opacity:1;stroke-width:0.735837"
         class="cls-1"
         d="m 61.26058,19.070655 a 10,6.4311992 0 0 0 -9.99987,6.431042 10,6.4311992 0 0 0 9.99987,6.431462 10,6.4311992 0 0 0 8.027523,-2.59677 8.8747265,5.7075134 0 0 1 -6.605473,1.898596 8.8747265,5.7075134 0 0 1 -8.87444,-5.707586 8.8747265,5.7075134 0 0 1 8.87444,-5.707586 8.8747265,5.7075134 0 0 1 6.909683,2.126124 10,6.4311992 0 0 0 -8.331733,-2.875282 z" />
      <ellipse
         class="cls-1"
         cx="73.139175"
         cy="34.505405"
         rx="9.9996233"
         ry="6.4311991"
         id="ellipse41426-9-7-58-5-6-1-1"
         style="display:inline;fill:#00b050;fill-opacity:1;stroke-width:0.735836" />
      <path
         id="path41428-6-9-0-9-5-4-3"
         style="display:inline;fill:#0b8241;fill-opacity:1;stroke-width:0.735837"
         class="cls-1"
         d="m 73.139046,28.074209 a 10,6.4311992 0 0 0 -9.99987,6.431042 10,6.4311992 0 0 0 9.99987,6.431462 10,6.4311992 0 0 0 8.027523,-2.59677 8.8747265,5.7075134 0 0 1 -6.605473,1.898596 8.8747265,5.7075134 0 0 1 -8.87444,-5.707586 8.8747265,5.7075134 0 0 1 8.87444,-5.707586 8.8747265,5.7075134 0 0 1 6.909683,2.126124 10,6.4311992 0 0 0 -8.331733,-2.875282 z" />
      <ellipse
         class="cls-1"
         cx="49.762188"
         cy="34.655258"
         rx="10"
         ry="6.4311991"
         id="ellipse41430-3-6-6-4-9-3-4"
         style="display:inline;fill:#00b050;fill-opacity:1;stroke-width:0.735836" />
      <path
         id="path41432-6-93-7-7-7-5-5"
         style="display:inline;fill:#0c8242;fill-opacity:1;stroke-width:0.735837"
         class="cls-1"
         d="m 49.762057,28.224061 a 10,6.4311992 0 0 0 -9.99987,6.431042 10,6.4311992 0 0 0 9.99987,6.431462 10,6.4311992 0 0 0 8.027523,-2.59677 8.8747265,5.7075134 0 0 1 -6.605473,1.898596 8.8747265,5.7075134 0 0 1 -8.87444,-5.707586 8.8747265,5.7075134 0 0 1 8.87444,-5.707586 8.8747265,5.7075134 0 0 1 6.909683,2.126124 10,6.4311992 0 0 0 -8.331733,-2.875282 z" />
    </g>
  </g>
</svg>
