<?xml version="1.0" encoding="UTF-8" standalone="no"?>
<!-- Created with Inkscape (http://www.inkscape.org/) -->

<svg
   width="500"
   height="500"
   viewBox="0 0 132.29166 132.29167"
   version="1.1"
   id="svg2515"
   inkscape:version="1.1.2 (b8e25be833, 2022-02-05)"
   sodipodi:docname="bonsai08s06blooming.svg"
   inkscape:export-filename="C:\Users\Lenovo\Desktop\Coding\Media files\Bonsais\bonsai08.png"
   inkscape:export-xdpi="96"
   inkscape:export-ydpi="96"
   xmlns:inkscape="http://www.inkscape.org/namespaces/inkscape"
   xmlns:sodipodi="http://sodipodi.sourceforge.net/DTD/sodipodi-0.dtd"
   xmlns="http://www.w3.org/2000/svg"
   xmlns:svg="http://www.w3.org/2000/svg">
  <sodipodi:namedview
     id="namedview2517"
     pagecolor="#ffffff"
     bordercolor="#666666"
     borderopacity="1.0"
     inkscape:pageshadow="2"
     inkscape:pageopacity="0.0"
     inkscape:pagecheckerboard="0"
     inkscape:document-units="mm"
     showgrid="false"
     units="px"
     inkscape:zoom="1.4142136"
     inkscape:cx="272.58966"
     inkscape:cy="249.25513"
     inkscape:window-width="1920"
     inkscape:window-height="1001"
     inkscape:window-x="-9"
     inkscape:window-y="-9"
     inkscape:window-maximized="1"
     inkscape:current-layer="g17992" />
  <defs
     id="defs2512">
    <marker
       style="overflow:visible"
       id="Arrow1Sstart"
       refX="0.0"
       refY="0.0"
       orient="auto"
       inkscape:stockid="Arrow1Sstart"
       inkscape:isstock="true">
      <path
         transform="scale(0.2) translate(6,0)"
         style="fill-rule:evenodd;fill:context-stroke;stroke:context-stroke;stroke-width:1.0pt"
         d="M 0.0,0.0 L 5.0,-5.0 L -12.5,0.0 L 5.0,5.0 L 0.0,0.0 z "
         id="path24092" />
    </marker>
    <marker
       style="overflow:visible"
       id="Arrow1Mstart"
       refX="0.0"
       refY="0.0"
       orient="auto"
       inkscape:stockid="Arrow1Mstart"
       inkscape:isstock="true">
      <path
         transform="scale(0.4) translate(10,0)"
         style="fill-rule:evenodd;fill:context-stroke;stroke:context-stroke;stroke-width:1.0pt"
         d="M 0.0,0.0 L 5.0,-5.0 L -12.5,0.0 L 5.0,5.0 L 0.0,0.0 z "
         id="path24086" />
    </marker>
    <marker
       style="overflow:visible"
       id="Arrow1Lstart"
       refX="0.0"
       refY="0.0"
       orient="auto"
       inkscape:stockid="Arrow1Lstart"
       inkscape:isstock="true">
      <path
         transform="scale(0.8) translate(12.5,0)"
         style="fill-rule:evenodd;fill:context-stroke;stroke:context-stroke;stroke-width:1.0pt"
         d="M 0.0,0.0 L 5.0,-5.0 L -12.5,0.0 L 5.0,5.0 L 0.0,0.0 z "
         id="path24080" />
    </marker>
    <marker
       style="overflow:visible;"
       id="Arrow1Lend"
       refX="0.0"
       refY="0.0"
       orient="auto"
       inkscape:stockid="Arrow1Lend"
       inkscape:isstock="true">
      <path
         transform="scale(0.8) rotate(180) translate(12.5,0)"
         style="fill-rule:evenodd;fill:context-stroke;stroke:context-stroke;stroke-width:1.0pt;"
         d="M 0.0,0.0 L 5.0,-5.0 L -12.5,0.0 L 5.0,5.0 L 0.0,0.0 z "
         id="path24083" />
    </marker>
  </defs>
  <g
     inkscape:label="Full Cascade Style"
     inkscape:groupmode="layer"
     id="g17992"
     style="display:inline">
    <g
       id="g17906"
       transform="translate(124.68868,23.38778)">
      <path
         style="fill:#c25745;fill-opacity:1;stroke:#c25745;stroke-width:1;stroke-linecap:round;stroke-linejoin:round;stroke-miterlimit:4;stroke-dasharray:none;stroke-opacity:1"
         d="m -99.500015,30.838997 c 0,0 3.638799,-12.735798 11.176313,-18.453912 7.537513,-5.7181136 12.496916,-8.4784226 23.142885,-10.0872826 10.645968,-1.60885902 11.594881,-2.51410402 19.483052,-1.089031 7.888169,1.425072 21.667403,2.638059 27.063051,17.1643086 6.81601,18.350201 6.7258,20.263344 4.38657,25.721542 -2.33923,5.458201 -12.829945,17.760783 -15.334937,20.793141 -4.938372,5.978028 -5.458199,8.317257 -3.118973,13.255629 0.330604,2.90298 6.162124,16.3246 -1.302394,6.77885 -6.495032,-13.276708 -1.296749,-18.994823 1.822223,-22.893535 3.118972,-3.898715 15.179241,-16.422587 15.075031,-22.61254 -0.10422,-6.189957 -5.4582,-19.233654 -7.277605,-20.013397 -1.819399,-0.779743 -7.017683,-14.5551986 -26.771164,-12.7357996 -19.753485,1.819402 -19.233657,3.3788866 -25.211683,9.6168266 -5.152861,5.376899 -9.876742,12.21597 -7.277599,14.035371 2.599142,1.8194 -15.85477,0.519829 -15.85477,0.519829 z"
         id="path17902"
         sodipodi:nodetypes="cssssssccssssssc" />
      <path
         id="path17904"
         style="display:inline;fill:#c63c25;fill-opacity:1;stroke:#c63c25;stroke-width:3.77953;stroke-linecap:round;stroke-linejoin:round;stroke-miterlimit:4;stroke-dasharray:none;stroke-opacity:1"
         d="m -198.50781,1.9003906 c -11.86585,0.2218352 -22.69775,2.9847019 -47.84571,6.7851563 -40.23673,6.0807311 -58.98051,16.5132281 -87.46875,38.1250001 -28.48824,21.611769 -42.24023,69.746093 -42.24023,69.746093 0,0 4.05066,0.25117 7.5293,0.46289 4.26508,-12.64023 17.66416,-47.519947 40.73437,-65.021483 28.48824,-21.611765 47.23397,-32.044269 87.47071,-38.125 40.23672,-6.0807282 43.82315,-9.5013383 73.63671,-4.1152345 20.11821,3.6345445 50.36393,6.9268215 74.181644,25.5390625 C -117.04264,12.062664 -150.85821,8.5173186 -172.7168,4.5683594 -183.89688,2.5485708 -191.3883,1.7672895 -198.50781,1.9003906 Z m 85.4707,47.4980474 c 12.08952,11.359811 17.783837,22.610761 20.875001,23.935546 6.876491,2.947061 27.111957,52.245516 27.505859,75.640626 0.393865,23.3951 -45.18832,70.72954 -56.97656,85.46484 -11.78824,14.73529 -31.43683,36.34766 -6.88867,86.52735 6.32744,8.09164 10.12193,11.80717 12.19531,12.59375 -1.72535,-1.89721 -3.75185,-4.31148 -6.17188,-7.40625 -24.54815,-50.17969 -4.89957,-71.79206 6.88867,-86.52735 11.78825,-14.7353 57.370432,-62.06974 56.976568,-85.46484 C -59.026715,130.767 -79.262181,81.468545 -86.138672,78.521484 -89.703333,76.993771 -96.724636,62.271435 -113.03711,49.398438 Z"
         transform="scale(0.26458333)" />
    </g>
    <g
       id="g1698-3-5-8-5-0-3"
       transform="matrix(0.45577979,0,0,-0.25932357,-958.74099,411.07983)"
       style="display:inline">
      <path
         d="m 2139.93,1319.15 v -21.93 h 79.02 v 21.93 h -79.02"
         style="fill:#5884cc;fill-opacity:1;fill-rule:nonzero;stroke:none;stroke-width:0.1"
         id="path370-2-9-7-7-8-4" />
      <path
         d="m 2248.25,1380.72 c -0.18,2.6 -2.35,4.61 -4.94,4.61 h -127.74 c -2.6,0 -4.76,-2.01 -4.95,-4.61 l -0.11,-7.96 h 137.85 l -0.11,7.96 v 0"
         style="fill:#5884cc;fill-opacity:1;fill-rule:nonzero;stroke:none;stroke-width:0.1"
         id="path374-7-3-7-3-9-2" />
      <path
         d="m 2139.93,1319.15 c -17.07,11.94 -28.49,31.42 -29.42,53.61 h 137.85 c -0.92,-22.19 -12.34,-41.67 -29.41,-53.61 -11.19,-7.84 -24.82,-12.43 -39.51,-12.43 -14.7,0 -28.32,4.59 -39.51,12.43 v 0"
         style="fill:#70bdeb;fill-opacity:1;fill-rule:nonzero;stroke:none;stroke-width:0.1"
         id="path376-5-7-2-1-3-2" />
      <path
         d="m 2115.57,1385.33 c -2.6,0 -4.76,-2.01 -4.95,-4.61 l -0.11,-7.96 h 14.01 l 0.11,7.96 c 0.19,2.6 2.34,4.61 4.95,4.61 h -14.01"
         style="fill:#467ac6;fill-opacity:1;fill-rule:nonzero;stroke:none;stroke-width:0.1"
         id="path402-1-6-0-4-1-4-7" />
      <path
         d="m 2153.93,1319.15 c -17.07,11.94 -28.49,31.42 -29.41,53.61 h -14.01 c 0.93,-22.19 12.35,-41.67 29.42,-53.61 11.19,-7.84 24.81,-12.43 39.51,-12.43 2.36,0 4.7,0.13 7,0.36 -12.01,1.21 -23.12,5.49 -32.51,12.07 v 0"
         style="fill:#52a8dc;fill-opacity:1;fill-rule:nonzero;stroke:none;stroke-width:0.1"
         id="path404-4-2-7-0-8-8" />
    </g>
    <g
       id="g3139-9-8-3-8-5-4"
       style="display:inline"
       transform="translate(-3.440083,-39.628601)">
      <g
         id="g2290-3-1-0-1-4-7">
        <g
           id="g28241-4-2-8-5-5-0"
           transform="matrix(0.65272443,0,0,0.65272443,-39.473483,-6.814027)"
           style="display:inline">
          <g
             id="g28177-2-0-3-3-5-7"
             transform="translate(6.0854167,55.827083)">
            <path
               d="m 147.71798,47.981196 -9.09029,-4.991828 9.09029,-4.991827 c 0.75396,-0.414021 1.02025,-1.3669 0.59012,-2.111777 l -1.24519,-2.156779 c -0.43006,-0.744878 -1.38837,-0.99072 -2.12392,-0.544804 l -8.86816,5.376573 0.22213,-10.368336 c 0.0184,-0.859937 -0.67361,-1.566974 -1.5338,-1.566974 h -2.49039 c -0.86012,0 -1.55221,0.707037 -1.53373,1.566974 l 0.22206,10.368336 -8.86816,-5.376509 c -0.73548,-0.445916 -1.69386,-0.200074 -2.12392,0.544804 l -1.24519,2.156778 c -0.43006,0.744879 -0.16377,1.697757 0.59019,2.111777 l 9.09022,4.991764 -9.09028,4.991828 c -0.75396,0.41402 -1.02026,1.3669 -0.59013,2.111777 l 1.24519,2.156779 c 0.43006,0.744877 1.38844,0.990719 2.12392,0.544803 l 8.86816,-5.376572 -0.22212,10.368336 c -0.0184,0.859938 0.67367,1.566974 1.53379,1.566974 h 2.49045 c 0.86013,0 1.55221,-0.707036 1.5338,-1.566974 l -0.22219,-10.368336 8.86816,5.376508 c 0.73548,0.445918 1.69386,0.200075 2.12392,-0.544804 l 1.24519,-2.156777 c 0.43006,-0.744879 0.16384,-1.697694 -0.59012,-2.111714 z"
               id="path2-07-0-0-7-4-0-9"
               style="fill:#00ff99;fill-opacity:1;stroke-width:0.0639215" />
            <path
               id="path2-07-3-8-5-5-3-7-2"
               style="display:inline;fill:#265d47;fill-opacity:1;stroke:none;stroke-width:0.0639215;stroke-opacity:1"
               d="m 128.56448,26.625567 c -0.86012,0 -1.55224,0.706892 -1.53375,1.566828 l 0.17363,8.093046 3.75274,2.275313 -0.22221,-10.368359 c -0.0139,-0.644292 0.37135,-1.202201 0.92708,-1.441773 -0.18612,-0.0803 -0.39133,-0.125055 -0.6072,-0.125055 z M 117.653,32.963163 c -0.55098,-0.02227 -1.09649,0.254259 -1.39216,0.766363 l -1.2454,2.156457 c -0.43006,0.744879 -0.16382,1.697995 0.59014,2.112015 l 9.0904,4.991426 -9.0904,4.991944 c -0.75396,0.41402 -1.02027,1.367136 -0.59014,2.112015 l 1.2454,2.156457 c 0.43006,0.744882 1.38842,0.991108 2.1239,0.545188 l 1.40353,-0.851112 -1.06866,-1.850533 c -0.43014,-0.744879 -0.16382,-1.697995 0.59014,-2.112015 l 9.0904,-4.991944 -9.0904,-4.991426 c -0.75396,-0.41402 -1.02021,-1.367136 -0.59014,-2.112015 l 1.06866,-1.850533 -1.40353,-0.851111 c -0.22984,-0.139348 -0.48129,-0.211053 -0.73174,-0.221176 z m 24.31376,0 c -0.25045,0.01012 -0.50239,0.08183 -0.73225,0.221176 l -5.11493,3.101102 -0.0486,2.275313 7.46414,-4.525304 -0.17673,-0.306443 c -0.29567,-0.512103 -0.84066,-0.788109 -1.39165,-0.765844 z m -11.00966,14.454933 -3.75274,2.275314 -0.17363,8.093046 c -0.0184,0.859927 0.67363,1.566828 1.53375,1.566828 h 2.49029 c 0.21585,0 0.42108,-0.04424 0.6072,-0.12454 -0.55573,-0.239572 -0.94087,-0.797994 -0.92708,-1.442288 z m 5.1139,0 0.0486,2.275314 5.11493,3.101102 c 0.73548,0.44592 1.69384,0.20021 2.1239,-0.544672 l 0.17673,-0.30644 z" />
          </g>
          <g
             id="g28177-5-21-2-4-2-0-6"
             transform="translate(29.832267,47.29614)"
             style="display:inline">
            <path
               d="m 147.71798,47.981196 -9.09029,-4.991828 9.09029,-4.991827 c 0.75396,-0.414021 1.02025,-1.3669 0.59012,-2.111777 l -1.24519,-2.156779 c -0.43006,-0.744878 -1.38837,-0.99072 -2.12392,-0.544804 l -8.86816,5.376573 0.22213,-10.368336 c 0.0184,-0.859937 -0.67361,-1.566974 -1.5338,-1.566974 h -2.49039 c -0.86012,0 -1.55221,0.707037 -1.53373,1.566974 l 0.22206,10.368336 -8.86816,-5.376509 c -0.73548,-0.445916 -1.69386,-0.200074 -2.12392,0.544804 l -1.24519,2.156778 c -0.43006,0.744879 -0.16377,1.697757 0.59019,2.111777 l 9.09022,4.991764 -9.09028,4.991828 c -0.75396,0.41402 -1.02026,1.3669 -0.59013,2.111777 l 1.24519,2.156779 c 0.43006,0.744877 1.38844,0.990719 2.12392,0.544803 l 8.86816,-5.376572 -0.22212,10.368336 c -0.0184,0.859938 0.67367,1.566974 1.53379,1.566974 h 2.49045 c 0.86013,0 1.55221,-0.707036 1.5338,-1.566974 l -0.22219,-10.368336 8.86816,5.376508 c 0.73548,0.445918 1.69386,0.200075 2.12392,-0.544804 l 1.24519,-2.156777 c 0.43006,-0.744879 0.16384,-1.697694 -0.59012,-2.111714 z"
               id="path2-07-6-1-2-0-8-4-7"
               style="fill:#00ff99;fill-opacity:1;stroke-width:0.0639215" />
            <path
               id="path2-07-3-7-6-9-7-3-2-4"
               style="display:inline;fill:#265d47;fill-opacity:1;stroke:none;stroke-width:0.0639215;stroke-opacity:1"
               d="m 128.56448,26.625567 c -0.86012,0 -1.55224,0.706892 -1.53375,1.566828 l 0.17363,8.093046 3.75274,2.275313 -0.22221,-10.368359 c -0.0139,-0.644292 0.37135,-1.202201 0.92708,-1.441773 -0.18612,-0.0803 -0.39133,-0.125055 -0.6072,-0.125055 z M 117.653,32.963163 c -0.55098,-0.02227 -1.09649,0.254259 -1.39216,0.766363 l -1.2454,2.156457 c -0.43006,0.744879 -0.16382,1.697995 0.59014,2.112015 l 9.0904,4.991426 -9.0904,4.991944 c -0.75396,0.41402 -1.02027,1.367136 -0.59014,2.112015 l 1.2454,2.156457 c 0.43006,0.744882 1.38842,0.991108 2.1239,0.545188 l 1.40353,-0.851112 -1.06866,-1.850533 c -0.43014,-0.744879 -0.16382,-1.697995 0.59014,-2.112015 l 9.0904,-4.991944 -9.0904,-4.991426 c -0.75396,-0.41402 -1.02021,-1.367136 -0.59014,-2.112015 l 1.06866,-1.850533 -1.40353,-0.851111 c -0.22984,-0.139348 -0.48129,-0.211053 -0.73174,-0.221176 z m 24.31376,0 c -0.25045,0.01012 -0.50239,0.08183 -0.73225,0.221176 l -5.11493,3.101102 -0.0486,2.275313 7.46414,-4.525304 -0.17673,-0.306443 c -0.29567,-0.512103 -0.84066,-0.788109 -1.39165,-0.765844 z m -11.00966,14.454933 -3.75274,2.275314 -0.17363,8.093046 c -0.0184,0.859927 0.67363,1.566828 1.53375,1.566828 h 2.49029 c 0.21585,0 0.42108,-0.04424 0.6072,-0.12454 -0.55573,-0.239572 -0.94087,-0.797994 -0.92708,-1.442288 z m 5.1139,0 0.0486,2.275314 5.11493,3.101102 c 0.73548,0.44592 1.69384,0.20021 2.1239,-0.544672 l 0.17673,-0.30644 z" />
          </g>
          <g
             id="g28177-7-5-5-6-8-7-4"
             transform="translate(53.579157,55.826567)"
             style="display:inline">
            <path
               d="m 147.71798,47.981196 -9.09029,-4.991828 9.09029,-4.991827 c 0.75396,-0.414021 1.02025,-1.3669 0.59012,-2.111777 l -1.24519,-2.156779 c -0.43006,-0.744878 -1.38837,-0.99072 -2.12392,-0.544804 l -8.86816,5.376573 0.22213,-10.368336 c 0.0184,-0.859937 -0.67361,-1.566974 -1.5338,-1.566974 h -2.49039 c -0.86012,0 -1.55221,0.707037 -1.53373,1.566974 l 0.22206,10.368336 -8.86816,-5.376509 c -0.73548,-0.445916 -1.69386,-0.200074 -2.12392,0.544804 l -1.24519,2.156778 c -0.43006,0.744879 -0.16377,1.697757 0.59019,2.111777 l 9.09022,4.991764 -9.09028,4.991828 c -0.75396,0.41402 -1.02026,1.3669 -0.59013,2.111777 l 1.24519,2.156779 c 0.43006,0.744877 1.38844,0.990719 2.12392,0.544803 l 8.86816,-5.376572 -0.22212,10.368336 c -0.0184,0.859938 0.67367,1.566974 1.53379,1.566974 h 2.49045 c 0.86013,0 1.55221,-0.707036 1.5338,-1.566974 l -0.22219,-10.368336 8.86816,5.376508 c 0.73548,0.445918 1.69386,0.200075 2.12392,-0.544804 l 1.24519,-2.156777 c 0.43006,-0.744879 0.16384,-1.697694 -0.59012,-2.111714 z"
               id="path2-07-8-3-2-8-6-5-2"
               style="fill:#00ff99;fill-opacity:1;stroke-width:0.0639215" />
            <path
               id="path2-07-3-2-1-9-5-6-0-5"
               style="display:inline;fill:#265d47;fill-opacity:1;stroke:none;stroke-width:0.0639215;stroke-opacity:1"
               d="m 128.56448,26.625567 c -0.86012,0 -1.55224,0.706892 -1.53375,1.566828 l 0.17363,8.093046 3.75274,2.275313 -0.22221,-10.368359 c -0.0139,-0.644292 0.37135,-1.202201 0.92708,-1.441773 -0.18612,-0.0803 -0.39133,-0.125055 -0.6072,-0.125055 z M 117.653,32.963163 c -0.55098,-0.02227 -1.09649,0.254259 -1.39216,0.766363 l -1.2454,2.156457 c -0.43006,0.744879 -0.16382,1.697995 0.59014,2.112015 l 9.0904,4.991426 -9.0904,4.991944 c -0.75396,0.41402 -1.02027,1.367136 -0.59014,2.112015 l 1.2454,2.156457 c 0.43006,0.744882 1.38842,0.991108 2.1239,0.545188 l 1.40353,-0.851112 -1.06866,-1.850533 c -0.43014,-0.744879 -0.16382,-1.697995 0.59014,-2.112015 l 9.0904,-4.991944 -9.0904,-4.991426 c -0.75396,-0.41402 -1.02021,-1.367136 -0.59014,-2.112015 l 1.06866,-1.850533 -1.40353,-0.851111 c -0.22984,-0.139348 -0.48129,-0.211053 -0.73174,-0.221176 z m 24.31376,0 c -0.25045,0.01012 -0.50239,0.08183 -0.73225,0.221176 l -5.11493,3.101102 -0.0486,2.275313 7.46414,-4.525304 -0.17673,-0.306443 c -0.29567,-0.512103 -0.84066,-0.788109 -1.39165,-0.765844 z m -11.00966,14.454933 -3.75274,2.275314 -0.17363,8.093046 c -0.0184,0.859927 0.67363,1.566828 1.53375,1.566828 h 2.49029 c 0.21585,0 0.42108,-0.04424 0.6072,-0.12454 -0.55573,-0.239572 -0.94087,-0.797994 -0.92708,-1.442288 z m 5.1139,0 0.0486,2.275314 5.11493,3.101102 c 0.73548,0.44592 1.69384,0.20021 2.1239,-0.544672 l 0.17673,-0.30644 z" />
          </g>
        </g>
      </g>
      <g
         id="g6-5-9-8-3-5-7"
         transform="matrix(0.0234375,0,0,0.0234375,72.751741,57.13844)"
         style="display:inline;fill:#f5b42b;fill-opacity:1">
        <path
           class="st0"
           d="m 511.976,213.063 -45.863,-9.749 31.374,-34.845 C 472.114,131.733 417.268,115.015 360.373,127.926 355.071,69.826 322.223,22.83 279.444,10.052 L 256,50.659 232.556,10.053 C 189.777,22.832 156.93,69.828 151.627,127.927 94.733,115.016 39.886,131.734 14.514,168.47 l 31.374,34.844 -45.864,9.749 c -1.066,44.634 33.479,90.396 87.097,113.393 -29.86,50.12 -30.91,107.448 -3.812,142.931 l 42.834,-19.071 -4.901,46.632 c 42.12,14.806 96.318,-3.907 134.758,-47.794 38.44,43.887 92.638,62.6 134.758,47.794 l -4.901,-46.632 42.835,19.072 c 27.097,-35.483 26.048,-92.811 -3.812,-142.932 53.617,-22.996 88.162,-68.759 87.096,-113.393 z m -196.599,83.322 c 3.526,-2.358 7.678,-3.63 11.998,-3.63 3.762,0 7.479,0.998 10.752,2.889 4.986,2.876 8.552,7.525 10.043,13.085 1.49,5.56 0.725,11.369 -2.156,16.353 -3.838,6.65 -10.996,10.781 -18.68,10.781 -3.765,0 -7.484,-1 -10.758,-2.89 -7.126,-4.116 -11.228,-12.025 -10.724,-20.072 l -40.32,-23.278 v 46.552 c 7.222,3.587 12.021,11.096 12.021,19.327 0,11.884 -9.669,21.551 -21.553,21.551 -11.884,0 -21.553,-9.667 -21.553,-21.551 0,-8.231 4.799,-15.74 12.021,-19.327 v -46.552 l -40.319,23.278 c 0.504,8.047 -3.598,15.956 -10.724,20.072 -3.275,1.889 -6.994,2.89 -10.758,2.89 -7.684,0 -14.842,-4.132 -18.682,-10.781 -2.878,-4.984 -3.644,-10.792 -2.154,-16.353 1.49,-5.56 5.057,-10.209 10.043,-13.087 3.272,-1.889 6.989,-2.887 10.752,-2.887 4.321,0 8.473,1.272 11.996,3.63 l 40.312,-23.274 -40.312,-23.272 c -3.523,2.359 -7.675,3.63 -11.996,3.63 -3.762,0 -7.479,-0.998 -10.752,-2.89 -4.986,-2.876 -8.552,-7.525 -10.043,-13.085 -1.49,-5.56 -0.724,-11.369 2.156,-16.353 3.838,-6.65 10.995,-10.781 18.68,-10.781 3.764,0 7.484,1 10.758,2.89 7.126,4.116 11.228,12.025 10.724,20.072 l 40.319,23.278 v -46.552 c -7.222,-3.587 -12.021,-11.096 -12.021,-19.327 0,-11.884 9.669,-21.551 21.553,-21.551 11.884,0 21.553,9.667 21.553,21.551 0,8.231 -4.799,15.74 -12.021,19.327 V 256.6 l 40.32,-23.278 c -0.504,-8.047 3.598,-15.956 10.724,-20.072 3.275,-1.889 6.994,-2.89 10.758,-2.89 7.684,0 14.842,4.132 18.682,10.781 2.878,4.984 3.644,10.792 2.154,16.353 -1.49,5.56 -5.057,10.209 -10.043,13.088 -3.272,1.889 -6.989,2.887 -10.752,2.887 -4.32,0 -8.472,-1.272 -11.998,-3.63 l -40.31,23.272 z"
           id="path4-1-77-2-8-9-3-2"
           style="fill:#f5b42b;fill-opacity:1" />
      </g>
      <g
         id="g6-4-2-6-7-2-3-4"
         transform="matrix(0.0234375,0,0,0.0234375,56.044743,50.693647)"
         style="display:inline;fill:#f5b42b;fill-opacity:1">
        <path
           class="st0"
           d="m 511.976,213.063 -45.863,-9.749 31.374,-34.845 C 472.114,131.733 417.268,115.015 360.373,127.926 355.071,69.826 322.223,22.83 279.444,10.052 L 256,50.659 232.556,10.053 C 189.777,22.832 156.93,69.828 151.627,127.927 94.733,115.016 39.886,131.734 14.514,168.47 l 31.374,34.844 -45.864,9.749 c -1.066,44.634 33.479,90.396 87.097,113.393 -29.86,50.12 -30.91,107.448 -3.812,142.931 l 42.834,-19.071 -4.901,46.632 c 42.12,14.806 96.318,-3.907 134.758,-47.794 38.44,43.887 92.638,62.6 134.758,47.794 l -4.901,-46.632 42.835,19.072 c 27.097,-35.483 26.048,-92.811 -3.812,-142.932 53.617,-22.996 88.162,-68.759 87.096,-113.393 z m -196.599,83.322 c 3.526,-2.358 7.678,-3.63 11.998,-3.63 3.762,0 7.479,0.998 10.752,2.889 4.986,2.876 8.552,7.525 10.043,13.085 1.49,5.56 0.725,11.369 -2.156,16.353 -3.838,6.65 -10.996,10.781 -18.68,10.781 -3.765,0 -7.484,-1 -10.758,-2.89 -7.126,-4.116 -11.228,-12.025 -10.724,-20.072 l -40.32,-23.278 v 46.552 c 7.222,3.587 12.021,11.096 12.021,19.327 0,11.884 -9.669,21.551 -21.553,21.551 -11.884,0 -21.553,-9.667 -21.553,-21.551 0,-8.231 4.799,-15.74 12.021,-19.327 v -46.552 l -40.319,23.278 c 0.504,8.047 -3.598,15.956 -10.724,20.072 -3.275,1.889 -6.994,2.89 -10.758,2.89 -7.684,0 -14.842,-4.132 -18.682,-10.781 -2.878,-4.984 -3.644,-10.792 -2.154,-16.353 1.49,-5.56 5.057,-10.209 10.043,-13.087 3.272,-1.889 6.989,-2.887 10.752,-2.887 4.321,0 8.473,1.272 11.996,3.63 l 40.312,-23.274 -40.312,-23.272 c -3.523,2.359 -7.675,3.63 -11.996,3.63 -3.762,0 -7.479,-0.998 -10.752,-2.89 -4.986,-2.876 -8.552,-7.525 -10.043,-13.085 -1.49,-5.56 -0.724,-11.369 2.156,-16.353 3.838,-6.65 10.995,-10.781 18.68,-10.781 3.764,0 7.484,1 10.758,2.89 7.126,4.116 11.228,12.025 10.724,20.072 l 40.319,23.278 v -46.552 c -7.222,-3.587 -12.021,-11.096 -12.021,-19.327 0,-11.884 9.669,-21.551 21.553,-21.551 11.884,0 21.553,9.667 21.553,21.551 0,8.231 -4.799,15.74 -12.021,19.327 V 256.6 l 40.32,-23.278 c -0.504,-8.047 3.598,-15.956 10.724,-20.072 3.275,-1.889 6.994,-2.89 10.758,-2.89 7.684,0 14.842,4.132 18.682,10.781 2.878,4.984 3.644,10.792 2.154,16.353 -1.49,5.56 -5.057,10.209 -10.043,13.088 -3.272,1.889 -6.989,2.887 -10.752,2.887 -4.32,0 -8.472,-1.272 -11.998,-3.63 l -40.31,23.272 z"
           id="path4-1-6-2-5-8-3-9-5"
           style="fill:#f5b42b;fill-opacity:1" />
      </g>
      <g
         id="g6-4-4-2-1-8-4-9-7"
         transform="matrix(0.0234375,0,0,0.0234375,40.544594,56.262002)"
         style="display:inline;fill:#f5b42b;fill-opacity:1">
        <path
           class="st0"
           d="m 511.976,213.063 -45.863,-9.749 31.374,-34.845 C 472.114,131.733 417.268,115.015 360.373,127.926 355.071,69.826 322.223,22.83 279.444,10.052 L 256,50.659 232.556,10.053 C 189.777,22.832 156.93,69.828 151.627,127.927 94.733,115.016 39.886,131.734 14.514,168.47 l 31.374,34.844 -45.864,9.749 c -1.066,44.634 33.479,90.396 87.097,113.393 -29.86,50.12 -30.91,107.448 -3.812,142.931 l 42.834,-19.071 -4.901,46.632 c 42.12,14.806 96.318,-3.907 134.758,-47.794 38.44,43.887 92.638,62.6 134.758,47.794 l -4.901,-46.632 42.835,19.072 c 27.097,-35.483 26.048,-92.811 -3.812,-142.932 53.617,-22.996 88.162,-68.759 87.096,-113.393 z m -196.599,83.322 c 3.526,-2.358 7.678,-3.63 11.998,-3.63 3.762,0 7.479,0.998 10.752,2.889 4.986,2.876 8.552,7.525 10.043,13.085 1.49,5.56 0.725,11.369 -2.156,16.353 -3.838,6.65 -10.996,10.781 -18.68,10.781 -3.765,0 -7.484,-1 -10.758,-2.89 -7.126,-4.116 -11.228,-12.025 -10.724,-20.072 l -40.32,-23.278 v 46.552 c 7.222,3.587 12.021,11.096 12.021,19.327 0,11.884 -9.669,21.551 -21.553,21.551 -11.884,0 -21.553,-9.667 -21.553,-21.551 0,-8.231 4.799,-15.74 12.021,-19.327 v -46.552 l -40.319,23.278 c 0.504,8.047 -3.598,15.956 -10.724,20.072 -3.275,1.889 -6.994,2.89 -10.758,2.89 -7.684,0 -14.842,-4.132 -18.682,-10.781 -2.878,-4.984 -3.644,-10.792 -2.154,-16.353 1.49,-5.56 5.057,-10.209 10.043,-13.087 3.272,-1.889 6.989,-2.887 10.752,-2.887 4.321,0 8.473,1.272 11.996,3.63 l 40.312,-23.274 -40.312,-23.272 c -3.523,2.359 -7.675,3.63 -11.996,3.63 -3.762,0 -7.479,-0.998 -10.752,-2.89 -4.986,-2.876 -8.552,-7.525 -10.043,-13.085 -1.49,-5.56 -0.724,-11.369 2.156,-16.353 3.838,-6.65 10.995,-10.781 18.68,-10.781 3.764,0 7.484,1 10.758,2.89 7.126,4.116 11.228,12.025 10.724,20.072 l 40.319,23.278 v -46.552 c -7.222,-3.587 -12.021,-11.096 -12.021,-19.327 0,-11.884 9.669,-21.551 21.553,-21.551 11.884,0 21.553,9.667 21.553,21.551 0,8.231 -4.799,15.74 -12.021,19.327 V 256.6 l 40.32,-23.278 c -0.504,-8.047 3.598,-15.956 10.724,-20.072 3.275,-1.889 6.994,-2.89 10.758,-2.89 7.684,0 14.842,4.132 18.682,10.781 2.878,4.984 3.644,10.792 2.154,16.353 -1.49,5.56 -5.057,10.209 -10.043,13.088 -3.272,1.889 -6.989,2.887 -10.752,2.887 -4.32,0 -8.472,-1.272 -11.998,-3.63 l -40.31,23.272 z"
           id="path4-1-6-9-5-0-8-6-0-2"
           style="fill:#f5b42b;fill-opacity:1" />
      </g>
    </g>
    <g
       id="g3139-9-8-3-8-5-4-7"
       style="display:inline"
       transform="translate(38.158407,-19.310651)">
      <g
         id="g2290-3-1-0-1-4-7-3">
        <g
           id="g28241-4-2-8-5-5-0-8"
           transform="matrix(0.65272443,0,0,0.65272443,-39.473483,-6.814027)"
           style="display:inline">
          <g
             id="g28177-2-0-3-3-5-7-8"
             transform="translate(6.0854167,55.827083)">
            <path
               d="m 147.71798,47.981196 -9.09029,-4.991828 9.09029,-4.991827 c 0.75396,-0.414021 1.02025,-1.3669 0.59012,-2.111777 l -1.24519,-2.156779 c -0.43006,-0.744878 -1.38837,-0.99072 -2.12392,-0.544804 l -8.86816,5.376573 0.22213,-10.368336 c 0.0184,-0.859937 -0.67361,-1.566974 -1.5338,-1.566974 h -2.49039 c -0.86012,0 -1.55221,0.707037 -1.53373,1.566974 l 0.22206,10.368336 -8.86816,-5.376509 c -0.73548,-0.445916 -1.69386,-0.200074 -2.12392,0.544804 l -1.24519,2.156778 c -0.43006,0.744879 -0.16377,1.697757 0.59019,2.111777 l 9.09022,4.991764 -9.09028,4.991828 c -0.75396,0.41402 -1.02026,1.3669 -0.59013,2.111777 l 1.24519,2.156779 c 0.43006,0.744877 1.38844,0.990719 2.12392,0.544803 l 8.86816,-5.376572 -0.22212,10.368336 c -0.0184,0.859938 0.67367,1.566974 1.53379,1.566974 h 2.49045 c 0.86013,0 1.55221,-0.707036 1.5338,-1.566974 l -0.22219,-10.368336 8.86816,5.376508 c 0.73548,0.445918 1.69386,0.200075 2.12392,-0.544804 l 1.24519,-2.156777 c 0.43006,-0.744879 0.16384,-1.697694 -0.59012,-2.111714 z"
               id="path2-07-0-0-7-4-0-9-3"
               style="fill:#00ff99;fill-opacity:1;stroke-width:0.0639215" />
            <path
               id="path2-07-3-8-5-5-3-7-2-8"
               style="display:inline;fill:#265d47;fill-opacity:1;stroke:none;stroke-width:0.0639215;stroke-opacity:1"
               d="m 128.56448,26.625567 c -0.86012,0 -1.55224,0.706892 -1.53375,1.566828 l 0.17363,8.093046 3.75274,2.275313 -0.22221,-10.368359 c -0.0139,-0.644292 0.37135,-1.202201 0.92708,-1.441773 -0.18612,-0.0803 -0.39133,-0.125055 -0.6072,-0.125055 z M 117.653,32.963163 c -0.55098,-0.02227 -1.09649,0.254259 -1.39216,0.766363 l -1.2454,2.156457 c -0.43006,0.744879 -0.16382,1.697995 0.59014,2.112015 l 9.0904,4.991426 -9.0904,4.991944 c -0.75396,0.41402 -1.02027,1.367136 -0.59014,2.112015 l 1.2454,2.156457 c 0.43006,0.744882 1.38842,0.991108 2.1239,0.545188 l 1.40353,-0.851112 -1.06866,-1.850533 c -0.43014,-0.744879 -0.16382,-1.697995 0.59014,-2.112015 l 9.0904,-4.991944 -9.0904,-4.991426 c -0.75396,-0.41402 -1.02021,-1.367136 -0.59014,-2.112015 l 1.06866,-1.850533 -1.40353,-0.851111 c -0.22984,-0.139348 -0.48129,-0.211053 -0.73174,-0.221176 z m 24.31376,0 c -0.25045,0.01012 -0.50239,0.08183 -0.73225,0.221176 l -5.11493,3.101102 -0.0486,2.275313 7.46414,-4.525304 -0.17673,-0.306443 c -0.29567,-0.512103 -0.84066,-0.788109 -1.39165,-0.765844 z m -11.00966,14.454933 -3.75274,2.275314 -0.17363,8.093046 c -0.0184,0.859927 0.67363,1.566828 1.53375,1.566828 h 2.49029 c 0.21585,0 0.42108,-0.04424 0.6072,-0.12454 -0.55573,-0.239572 -0.94087,-0.797994 -0.92708,-1.442288 z m 5.1139,0 0.0486,2.275314 5.11493,3.101102 c 0.73548,0.44592 1.69384,0.20021 2.1239,-0.544672 l 0.17673,-0.30644 z" />
          </g>
          <g
             id="g28177-5-21-2-4-2-0-6-3"
             transform="translate(29.832267,47.29614)"
             style="display:inline">
            <path
               d="m 147.71798,47.981196 -9.09029,-4.991828 9.09029,-4.991827 c 0.75396,-0.414021 1.02025,-1.3669 0.59012,-2.111777 l -1.24519,-2.156779 c -0.43006,-0.744878 -1.38837,-0.99072 -2.12392,-0.544804 l -8.86816,5.376573 0.22213,-10.368336 c 0.0184,-0.859937 -0.67361,-1.566974 -1.5338,-1.566974 h -2.49039 c -0.86012,0 -1.55221,0.707037 -1.53373,1.566974 l 0.22206,10.368336 -8.86816,-5.376509 c -0.73548,-0.445916 -1.69386,-0.200074 -2.12392,0.544804 l -1.24519,2.156778 c -0.43006,0.744879 -0.16377,1.697757 0.59019,2.111777 l 9.09022,4.991764 -9.09028,4.991828 c -0.75396,0.41402 -1.02026,1.3669 -0.59013,2.111777 l 1.24519,2.156779 c 0.43006,0.744877 1.38844,0.990719 2.12392,0.544803 l 8.86816,-5.376572 -0.22212,10.368336 c -0.0184,0.859938 0.67367,1.566974 1.53379,1.566974 h 2.49045 c 0.86013,0 1.55221,-0.707036 1.5338,-1.566974 l -0.22219,-10.368336 8.86816,5.376508 c 0.73548,0.445918 1.69386,0.200075 2.12392,-0.544804 l 1.24519,-2.156777 c 0.43006,-0.744879 0.16384,-1.697694 -0.59012,-2.111714 z"
               id="path2-07-6-1-2-0-8-4-7-6"
               style="fill:#00ff99;fill-opacity:1;stroke-width:0.0639215" />
            <path
               id="path2-07-3-7-6-9-7-3-2-4-2"
               style="display:inline;fill:#265d47;fill-opacity:1;stroke:none;stroke-width:0.0639215;stroke-opacity:1"
               d="m 128.56448,26.625567 c -0.86012,0 -1.55224,0.706892 -1.53375,1.566828 l 0.17363,8.093046 3.75274,2.275313 -0.22221,-10.368359 c -0.0139,-0.644292 0.37135,-1.202201 0.92708,-1.441773 -0.18612,-0.0803 -0.39133,-0.125055 -0.6072,-0.125055 z M 117.653,32.963163 c -0.55098,-0.02227 -1.09649,0.254259 -1.39216,0.766363 l -1.2454,2.156457 c -0.43006,0.744879 -0.16382,1.697995 0.59014,2.112015 l 9.0904,4.991426 -9.0904,4.991944 c -0.75396,0.41402 -1.02027,1.367136 -0.59014,2.112015 l 1.2454,2.156457 c 0.43006,0.744882 1.38842,0.991108 2.1239,0.545188 l 1.40353,-0.851112 -1.06866,-1.850533 c -0.43014,-0.744879 -0.16382,-1.697995 0.59014,-2.112015 l 9.0904,-4.991944 -9.0904,-4.991426 c -0.75396,-0.41402 -1.02021,-1.367136 -0.59014,-2.112015 l 1.06866,-1.850533 -1.40353,-0.851111 c -0.22984,-0.139348 -0.48129,-0.211053 -0.73174,-0.221176 z m 24.31376,0 c -0.25045,0.01012 -0.50239,0.08183 -0.73225,0.221176 l -5.11493,3.101102 -0.0486,2.275313 7.46414,-4.525304 -0.17673,-0.306443 c -0.29567,-0.512103 -0.84066,-0.788109 -1.39165,-0.765844 z m -11.00966,14.454933 -3.75274,2.275314 -0.17363,8.093046 c -0.0184,0.859927 0.67363,1.566828 1.53375,1.566828 h 2.49029 c 0.21585,0 0.42108,-0.04424 0.6072,-0.12454 -0.55573,-0.239572 -0.94087,-0.797994 -0.92708,-1.442288 z m 5.1139,0 0.0486,2.275314 5.11493,3.101102 c 0.73548,0.44592 1.69384,0.20021 2.1239,-0.544672 l 0.17673,-0.30644 z" />
          </g>
          <g
             id="g28177-7-5-5-6-8-7-4-3"
             transform="translate(53.579157,55.826567)"
             style="display:inline">
            <path
               d="m 147.71798,47.981196 -9.09029,-4.991828 9.09029,-4.991827 c 0.75396,-0.414021 1.02025,-1.3669 0.59012,-2.111777 l -1.24519,-2.156779 c -0.43006,-0.744878 -1.38837,-0.99072 -2.12392,-0.544804 l -8.86816,5.376573 0.22213,-10.368336 c 0.0184,-0.859937 -0.67361,-1.566974 -1.5338,-1.566974 h -2.49039 c -0.86012,0 -1.55221,0.707037 -1.53373,1.566974 l 0.22206,10.368336 -8.86816,-5.376509 c -0.73548,-0.445916 -1.69386,-0.200074 -2.12392,0.544804 l -1.24519,2.156778 c -0.43006,0.744879 -0.16377,1.697757 0.59019,2.111777 l 9.09022,4.991764 -9.09028,4.991828 c -0.75396,0.41402 -1.02026,1.3669 -0.59013,2.111777 l 1.24519,2.156779 c 0.43006,0.744877 1.38844,0.990719 2.12392,0.544803 l 8.86816,-5.376572 -0.22212,10.368336 c -0.0184,0.859938 0.67367,1.566974 1.53379,1.566974 h 2.49045 c 0.86013,0 1.55221,-0.707036 1.5338,-1.566974 l -0.22219,-10.368336 8.86816,5.376508 c 0.73548,0.445918 1.69386,0.200075 2.12392,-0.544804 l 1.24519,-2.156777 c 0.43006,-0.744879 0.16384,-1.697694 -0.59012,-2.111714 z"
               id="path2-07-8-3-2-8-6-5-2-6"
               style="fill:#00ff99;fill-opacity:1;stroke-width:0.0639215" />
            <path
               id="path2-07-3-2-1-9-5-6-0-5-4"
               style="display:inline;fill:#265d47;fill-opacity:1;stroke:none;stroke-width:0.0639215;stroke-opacity:1"
               d="m 128.56448,26.625567 c -0.86012,0 -1.55224,0.706892 -1.53375,1.566828 l 0.17363,8.093046 3.75274,2.275313 -0.22221,-10.368359 c -0.0139,-0.644292 0.37135,-1.202201 0.92708,-1.441773 -0.18612,-0.0803 -0.39133,-0.125055 -0.6072,-0.125055 z M 117.653,32.963163 c -0.55098,-0.02227 -1.09649,0.254259 -1.39216,0.766363 l -1.2454,2.156457 c -0.43006,0.744879 -0.16382,1.697995 0.59014,2.112015 l 9.0904,4.991426 -9.0904,4.991944 c -0.75396,0.41402 -1.02027,1.367136 -0.59014,2.112015 l 1.2454,2.156457 c 0.43006,0.744882 1.38842,0.991108 2.1239,0.545188 l 1.40353,-0.851112 -1.06866,-1.850533 c -0.43014,-0.744879 -0.16382,-1.697995 0.59014,-2.112015 l 9.0904,-4.991944 -9.0904,-4.991426 c -0.75396,-0.41402 -1.02021,-1.367136 -0.59014,-2.112015 l 1.06866,-1.850533 -1.40353,-0.851111 c -0.22984,-0.139348 -0.48129,-0.211053 -0.73174,-0.221176 z m 24.31376,0 c -0.25045,0.01012 -0.50239,0.08183 -0.73225,0.221176 l -5.11493,3.101102 -0.0486,2.275313 7.46414,-4.525304 -0.17673,-0.306443 c -0.29567,-0.512103 -0.84066,-0.788109 -1.39165,-0.765844 z m -11.00966,14.454933 -3.75274,2.275314 -0.17363,8.093046 c -0.0184,0.859927 0.67363,1.566828 1.53375,1.566828 h 2.49029 c 0.21585,0 0.42108,-0.04424 0.6072,-0.12454 -0.55573,-0.239572 -0.94087,-0.797994 -0.92708,-1.442288 z m 5.1139,0 0.0486,2.275314 5.11493,3.101102 c 0.73548,0.44592 1.69384,0.20021 2.1239,-0.544672 l 0.17673,-0.30644 z" />
          </g>
        </g>
      </g>
      <g
         id="g6-5-9-8-3-5-7-8"
         transform="matrix(0.0234375,0,0,0.0234375,72.751741,57.13844)"
         style="display:inline;fill:#f5b42b;fill-opacity:1">
        <path
           class="st0"
           d="m 511.976,213.063 -45.863,-9.749 31.374,-34.845 C 472.114,131.733 417.268,115.015 360.373,127.926 355.071,69.826 322.223,22.83 279.444,10.052 L 256,50.659 232.556,10.053 C 189.777,22.832 156.93,69.828 151.627,127.927 94.733,115.016 39.886,131.734 14.514,168.47 l 31.374,34.844 -45.864,9.749 c -1.066,44.634 33.479,90.396 87.097,113.393 -29.86,50.12 -30.91,107.448 -3.812,142.931 l 42.834,-19.071 -4.901,46.632 c 42.12,14.806 96.318,-3.907 134.758,-47.794 38.44,43.887 92.638,62.6 134.758,47.794 l -4.901,-46.632 42.835,19.072 c 27.097,-35.483 26.048,-92.811 -3.812,-142.932 53.617,-22.996 88.162,-68.759 87.096,-113.393 z m -196.599,83.322 c 3.526,-2.358 7.678,-3.63 11.998,-3.63 3.762,0 7.479,0.998 10.752,2.889 4.986,2.876 8.552,7.525 10.043,13.085 1.49,5.56 0.725,11.369 -2.156,16.353 -3.838,6.65 -10.996,10.781 -18.68,10.781 -3.765,0 -7.484,-1 -10.758,-2.89 -7.126,-4.116 -11.228,-12.025 -10.724,-20.072 l -40.32,-23.278 v 46.552 c 7.222,3.587 12.021,11.096 12.021,19.327 0,11.884 -9.669,21.551 -21.553,21.551 -11.884,0 -21.553,-9.667 -21.553,-21.551 0,-8.231 4.799,-15.74 12.021,-19.327 v -46.552 l -40.319,23.278 c 0.504,8.047 -3.598,15.956 -10.724,20.072 -3.275,1.889 -6.994,2.89 -10.758,2.89 -7.684,0 -14.842,-4.132 -18.682,-10.781 -2.878,-4.984 -3.644,-10.792 -2.154,-16.353 1.49,-5.56 5.057,-10.209 10.043,-13.087 3.272,-1.889 6.989,-2.887 10.752,-2.887 4.321,0 8.473,1.272 11.996,3.63 l 40.312,-23.274 -40.312,-23.272 c -3.523,2.359 -7.675,3.63 -11.996,3.63 -3.762,0 -7.479,-0.998 -10.752,-2.89 -4.986,-2.876 -8.552,-7.525 -10.043,-13.085 -1.49,-5.56 -0.724,-11.369 2.156,-16.353 3.838,-6.65 10.995,-10.781 18.68,-10.781 3.764,0 7.484,1 10.758,2.89 7.126,4.116 11.228,12.025 10.724,20.072 l 40.319,23.278 v -46.552 c -7.222,-3.587 -12.021,-11.096 -12.021,-19.327 0,-11.884 9.669,-21.551 21.553,-21.551 11.884,0 21.553,9.667 21.553,21.551 0,8.231 -4.799,15.74 -12.021,19.327 V 256.6 l 40.32,-23.278 c -0.504,-8.047 3.598,-15.956 10.724,-20.072 3.275,-1.889 6.994,-2.89 10.758,-2.89 7.684,0 14.842,4.132 18.682,10.781 2.878,4.984 3.644,10.792 2.154,16.353 -1.49,5.56 -5.057,10.209 -10.043,13.088 -3.272,1.889 -6.989,2.887 -10.752,2.887 -4.32,0 -8.472,-1.272 -11.998,-3.63 l -40.31,23.272 z"
           id="path4-1-77-2-8-9-3-2-8"
           style="fill:#f5b42b;fill-opacity:1" />
      </g>
      <g
         id="g6-4-2-6-7-2-3-4-5"
         transform="matrix(0.0234375,0,0,0.0234375,56.044743,50.693647)"
         style="display:inline;fill:#f5b42b;fill-opacity:1">
        <path
           class="st0"
           d="m 511.976,213.063 -45.863,-9.749 31.374,-34.845 C 472.114,131.733 417.268,115.015 360.373,127.926 355.071,69.826 322.223,22.83 279.444,10.052 L 256,50.659 232.556,10.053 C 189.777,22.832 156.93,69.828 151.627,127.927 94.733,115.016 39.886,131.734 14.514,168.47 l 31.374,34.844 -45.864,9.749 c -1.066,44.634 33.479,90.396 87.097,113.393 -29.86,50.12 -30.91,107.448 -3.812,142.931 l 42.834,-19.071 -4.901,46.632 c 42.12,14.806 96.318,-3.907 134.758,-47.794 38.44,43.887 92.638,62.6 134.758,47.794 l -4.901,-46.632 42.835,19.072 c 27.097,-35.483 26.048,-92.811 -3.812,-142.932 53.617,-22.996 88.162,-68.759 87.096,-113.393 z m -196.599,83.322 c 3.526,-2.358 7.678,-3.63 11.998,-3.63 3.762,0 7.479,0.998 10.752,2.889 4.986,2.876 8.552,7.525 10.043,13.085 1.49,5.56 0.725,11.369 -2.156,16.353 -3.838,6.65 -10.996,10.781 -18.68,10.781 -3.765,0 -7.484,-1 -10.758,-2.89 -7.126,-4.116 -11.228,-12.025 -10.724,-20.072 l -40.32,-23.278 v 46.552 c 7.222,3.587 12.021,11.096 12.021,19.327 0,11.884 -9.669,21.551 -21.553,21.551 -11.884,0 -21.553,-9.667 -21.553,-21.551 0,-8.231 4.799,-15.74 12.021,-19.327 v -46.552 l -40.319,23.278 c 0.504,8.047 -3.598,15.956 -10.724,20.072 -3.275,1.889 -6.994,2.89 -10.758,2.89 -7.684,0 -14.842,-4.132 -18.682,-10.781 -2.878,-4.984 -3.644,-10.792 -2.154,-16.353 1.49,-5.56 5.057,-10.209 10.043,-13.087 3.272,-1.889 6.989,-2.887 10.752,-2.887 4.321,0 8.473,1.272 11.996,3.63 l 40.312,-23.274 -40.312,-23.272 c -3.523,2.359 -7.675,3.63 -11.996,3.63 -3.762,0 -7.479,-0.998 -10.752,-2.89 -4.986,-2.876 -8.552,-7.525 -10.043,-13.085 -1.49,-5.56 -0.724,-11.369 2.156,-16.353 3.838,-6.65 10.995,-10.781 18.68,-10.781 3.764,0 7.484,1 10.758,2.89 7.126,4.116 11.228,12.025 10.724,20.072 l 40.319,23.278 v -46.552 c -7.222,-3.587 -12.021,-11.096 -12.021,-19.327 0,-11.884 9.669,-21.551 21.553,-21.551 11.884,0 21.553,9.667 21.553,21.551 0,8.231 -4.799,15.74 -12.021,19.327 V 256.6 l 40.32,-23.278 c -0.504,-8.047 3.598,-15.956 10.724,-20.072 3.275,-1.889 6.994,-2.89 10.758,-2.89 7.684,0 14.842,4.132 18.682,10.781 2.878,4.984 3.644,10.792 2.154,16.353 -1.49,5.56 -5.057,10.209 -10.043,13.088 -3.272,1.889 -6.989,2.887 -10.752,2.887 -4.32,0 -8.472,-1.272 -11.998,-3.63 l -40.31,23.272 z"
           id="path4-1-6-2-5-8-3-9-5-9"
           style="fill:#f5b42b;fill-opacity:1" />
      </g>
      <g
         id="g6-4-4-2-1-8-4-9-7-5"
         transform="matrix(0.0234375,0,0,0.0234375,40.544594,56.262002)"
         style="display:inline;fill:#f5b42b;fill-opacity:1">
        <path
           class="st0"
           d="m 511.976,213.063 -45.863,-9.749 31.374,-34.845 C 472.114,131.733 417.268,115.015 360.373,127.926 355.071,69.826 322.223,22.83 279.444,10.052 L 256,50.659 232.556,10.053 C 189.777,22.832 156.93,69.828 151.627,127.927 94.733,115.016 39.886,131.734 14.514,168.47 l 31.374,34.844 -45.864,9.749 c -1.066,44.634 33.479,90.396 87.097,113.393 -29.86,50.12 -30.91,107.448 -3.812,142.931 l 42.834,-19.071 -4.901,46.632 c 42.12,14.806 96.318,-3.907 134.758,-47.794 38.44,43.887 92.638,62.6 134.758,47.794 l -4.901,-46.632 42.835,19.072 c 27.097,-35.483 26.048,-92.811 -3.812,-142.932 53.617,-22.996 88.162,-68.759 87.096,-113.393 z m -196.599,83.322 c 3.526,-2.358 7.678,-3.63 11.998,-3.63 3.762,0 7.479,0.998 10.752,2.889 4.986,2.876 8.552,7.525 10.043,13.085 1.49,5.56 0.725,11.369 -2.156,16.353 -3.838,6.65 -10.996,10.781 -18.68,10.781 -3.765,0 -7.484,-1 -10.758,-2.89 -7.126,-4.116 -11.228,-12.025 -10.724,-20.072 l -40.32,-23.278 v 46.552 c 7.222,3.587 12.021,11.096 12.021,19.327 0,11.884 -9.669,21.551 -21.553,21.551 -11.884,0 -21.553,-9.667 -21.553,-21.551 0,-8.231 4.799,-15.74 12.021,-19.327 v -46.552 l -40.319,23.278 c 0.504,8.047 -3.598,15.956 -10.724,20.072 -3.275,1.889 -6.994,2.89 -10.758,2.89 -7.684,0 -14.842,-4.132 -18.682,-10.781 -2.878,-4.984 -3.644,-10.792 -2.154,-16.353 1.49,-5.56 5.057,-10.209 10.043,-13.087 3.272,-1.889 6.989,-2.887 10.752,-2.887 4.321,0 8.473,1.272 11.996,3.63 l 40.312,-23.274 -40.312,-23.272 c -3.523,2.359 -7.675,3.63 -11.996,3.63 -3.762,0 -7.479,-0.998 -10.752,-2.89 -4.986,-2.876 -8.552,-7.525 -10.043,-13.085 -1.49,-5.56 -0.724,-11.369 2.156,-16.353 3.838,-6.65 10.995,-10.781 18.68,-10.781 3.764,0 7.484,1 10.758,2.89 7.126,4.116 11.228,12.025 10.724,20.072 l 40.319,23.278 v -46.552 c -7.222,-3.587 -12.021,-11.096 -12.021,-19.327 0,-11.884 9.669,-21.551 21.553,-21.551 11.884,0 21.553,9.667 21.553,21.551 0,8.231 -4.799,15.74 -12.021,19.327 V 256.6 l 40.32,-23.278 c -0.504,-8.047 3.598,-15.956 10.724,-20.072 3.275,-1.889 6.994,-2.89 10.758,-2.89 7.684,0 14.842,4.132 18.682,10.781 2.878,4.984 3.644,10.792 2.154,16.353 -1.49,5.56 -5.057,10.209 -10.043,13.088 -3.272,1.889 -6.989,2.887 -10.752,2.887 -4.32,0 -8.472,-1.272 -11.998,-3.63 l -40.31,23.272 z"
           id="path4-1-6-9-5-0-8-6-0-2-6"
           style="fill:#f5b42b;fill-opacity:1" />
      </g>
    </g>
    <g
       id="g3139-9-8-3-8-5-4-7-5"
       style="display:inline"
       transform="matrix(0.8490566,0,0,0.8490566,33.549738,16.239635)">
      <g
         id="g2290-3-1-0-1-4-7-3-4">
        <g
           id="g28241-4-2-8-5-5-0-8-5"
           transform="matrix(0.65272443,0,0,0.65272443,-39.473483,-6.814027)"
           style="display:inline">
          <g
             id="g28177-2-0-3-3-5-7-8-7"
             transform="translate(6.0854167,55.827083)">
            <path
               d="m 147.71798,47.981196 -9.09029,-4.991828 9.09029,-4.991827 c 0.75396,-0.414021 1.02025,-1.3669 0.59012,-2.111777 l -1.24519,-2.156779 c -0.43006,-0.744878 -1.38837,-0.99072 -2.12392,-0.544804 l -8.86816,5.376573 0.22213,-10.368336 c 0.0184,-0.859937 -0.67361,-1.566974 -1.5338,-1.566974 h -2.49039 c -0.86012,0 -1.55221,0.707037 -1.53373,1.566974 l 0.22206,10.368336 -8.86816,-5.376509 c -0.73548,-0.445916 -1.69386,-0.200074 -2.12392,0.544804 l -1.24519,2.156778 c -0.43006,0.744879 -0.16377,1.697757 0.59019,2.111777 l 9.09022,4.991764 -9.09028,4.991828 c -0.75396,0.41402 -1.02026,1.3669 -0.59013,2.111777 l 1.24519,2.156779 c 0.43006,0.744877 1.38844,0.990719 2.12392,0.544803 l 8.86816,-5.376572 -0.22212,10.368336 c -0.0184,0.859938 0.67367,1.566974 1.53379,1.566974 h 2.49045 c 0.86013,0 1.55221,-0.707036 1.5338,-1.566974 l -0.22219,-10.368336 8.86816,5.376508 c 0.73548,0.445918 1.69386,0.200075 2.12392,-0.544804 l 1.24519,-2.156777 c 0.43006,-0.744879 0.16384,-1.697694 -0.59012,-2.111714 z"
               id="path2-07-0-0-7-4-0-9-3-0"
               style="fill:#00ff99;fill-opacity:1;stroke-width:0.0639215" />
            <path
               id="path2-07-3-8-5-5-3-7-2-8-1"
               style="display:inline;fill:#265d47;fill-opacity:1;stroke:none;stroke-width:0.0639215;stroke-opacity:1"
               d="m 128.56448,26.625567 c -0.86012,0 -1.55224,0.706892 -1.53375,1.566828 l 0.17363,8.093046 3.75274,2.275313 -0.22221,-10.368359 c -0.0139,-0.644292 0.37135,-1.202201 0.92708,-1.441773 -0.18612,-0.0803 -0.39133,-0.125055 -0.6072,-0.125055 z M 117.653,32.963163 c -0.55098,-0.02227 -1.09649,0.254259 -1.39216,0.766363 l -1.2454,2.156457 c -0.43006,0.744879 -0.16382,1.697995 0.59014,2.112015 l 9.0904,4.991426 -9.0904,4.991944 c -0.75396,0.41402 -1.02027,1.367136 -0.59014,2.112015 l 1.2454,2.156457 c 0.43006,0.744882 1.38842,0.991108 2.1239,0.545188 l 1.40353,-0.851112 -1.06866,-1.850533 c -0.43014,-0.744879 -0.16382,-1.697995 0.59014,-2.112015 l 9.0904,-4.991944 -9.0904,-4.991426 c -0.75396,-0.41402 -1.02021,-1.367136 -0.59014,-2.112015 l 1.06866,-1.850533 -1.40353,-0.851111 c -0.22984,-0.139348 -0.48129,-0.211053 -0.73174,-0.221176 z m 24.31376,0 c -0.25045,0.01012 -0.50239,0.08183 -0.73225,0.221176 l -5.11493,3.101102 -0.0486,2.275313 7.46414,-4.525304 -0.17673,-0.306443 c -0.29567,-0.512103 -0.84066,-0.788109 -1.39165,-0.765844 z m -11.00966,14.454933 -3.75274,2.275314 -0.17363,8.093046 c -0.0184,0.859927 0.67363,1.566828 1.53375,1.566828 h 2.49029 c 0.21585,0 0.42108,-0.04424 0.6072,-0.12454 -0.55573,-0.239572 -0.94087,-0.797994 -0.92708,-1.442288 z m 5.1139,0 0.0486,2.275314 5.11493,3.101102 c 0.73548,0.44592 1.69384,0.20021 2.1239,-0.544672 l 0.17673,-0.30644 z" />
          </g>
          <g
             id="g28177-5-21-2-4-2-0-6-3-0"
             transform="translate(29.832267,47.29614)"
             style="display:inline">
            <path
               d="m 147.71798,47.981196 -9.09029,-4.991828 9.09029,-4.991827 c 0.75396,-0.414021 1.02025,-1.3669 0.59012,-2.111777 l -1.24519,-2.156779 c -0.43006,-0.744878 -1.38837,-0.99072 -2.12392,-0.544804 l -8.86816,5.376573 0.22213,-10.368336 c 0.0184,-0.859937 -0.67361,-1.566974 -1.5338,-1.566974 h -2.49039 c -0.86012,0 -1.55221,0.707037 -1.53373,1.566974 l 0.22206,10.368336 -8.86816,-5.376509 c -0.73548,-0.445916 -1.69386,-0.200074 -2.12392,0.544804 l -1.24519,2.156778 c -0.43006,0.744879 -0.16377,1.697757 0.59019,2.111777 l 9.09022,4.991764 -9.09028,4.991828 c -0.75396,0.41402 -1.02026,1.3669 -0.59013,2.111777 l 1.24519,2.156779 c 0.43006,0.744877 1.38844,0.990719 2.12392,0.544803 l 8.86816,-5.376572 -0.22212,10.368336 c -0.0184,0.859938 0.67367,1.566974 1.53379,1.566974 h 2.49045 c 0.86013,0 1.55221,-0.707036 1.5338,-1.566974 l -0.22219,-10.368336 8.86816,5.376508 c 0.73548,0.445918 1.69386,0.200075 2.12392,-0.544804 l 1.24519,-2.156777 c 0.43006,-0.744879 0.16384,-1.697694 -0.59012,-2.111714 z"
               id="path2-07-6-1-2-0-8-4-7-6-0"
               style="fill:#00ff99;fill-opacity:1;stroke-width:0.0639215" />
            <path
               id="path2-07-3-7-6-9-7-3-2-4-2-9"
               style="display:inline;fill:#265d47;fill-opacity:1;stroke:none;stroke-width:0.0639215;stroke-opacity:1"
               d="m 128.56448,26.625567 c -0.86012,0 -1.55224,0.706892 -1.53375,1.566828 l 0.17363,8.093046 3.75274,2.275313 -0.22221,-10.368359 c -0.0139,-0.644292 0.37135,-1.202201 0.92708,-1.441773 -0.18612,-0.0803 -0.39133,-0.125055 -0.6072,-0.125055 z M 117.653,32.963163 c -0.55098,-0.02227 -1.09649,0.254259 -1.39216,0.766363 l -1.2454,2.156457 c -0.43006,0.744879 -0.16382,1.697995 0.59014,2.112015 l 9.0904,4.991426 -9.0904,4.991944 c -0.75396,0.41402 -1.02027,1.367136 -0.59014,2.112015 l 1.2454,2.156457 c 0.43006,0.744882 1.38842,0.991108 2.1239,0.545188 l 1.40353,-0.851112 -1.06866,-1.850533 c -0.43014,-0.744879 -0.16382,-1.697995 0.59014,-2.112015 l 9.0904,-4.991944 -9.0904,-4.991426 c -0.75396,-0.41402 -1.02021,-1.367136 -0.59014,-2.112015 l 1.06866,-1.850533 -1.40353,-0.851111 c -0.22984,-0.139348 -0.48129,-0.211053 -0.73174,-0.221176 z m 24.31376,0 c -0.25045,0.01012 -0.50239,0.08183 -0.73225,0.221176 l -5.11493,3.101102 -0.0486,2.275313 7.46414,-4.525304 -0.17673,-0.306443 c -0.29567,-0.512103 -0.84066,-0.788109 -1.39165,-0.765844 z m -11.00966,14.454933 -3.75274,2.275314 -0.17363,8.093046 c -0.0184,0.859927 0.67363,1.566828 1.53375,1.566828 h 2.49029 c 0.21585,0 0.42108,-0.04424 0.6072,-0.12454 -0.55573,-0.239572 -0.94087,-0.797994 -0.92708,-1.442288 z m 5.1139,0 0.0486,2.275314 5.11493,3.101102 c 0.73548,0.44592 1.69384,0.20021 2.1239,-0.544672 l 0.17673,-0.30644 z" />
          </g>
          <g
             id="g28177-7-5-5-6-8-7-4-3-5"
             transform="translate(53.579157,55.826567)"
             style="display:inline">
            <path
               d="m 147.71798,47.981196 -9.09029,-4.991828 9.09029,-4.991827 c 0.75396,-0.414021 1.02025,-1.3669 0.59012,-2.111777 l -1.24519,-2.156779 c -0.43006,-0.744878 -1.38837,-0.99072 -2.12392,-0.544804 l -8.86816,5.376573 0.22213,-10.368336 c 0.0184,-0.859937 -0.67361,-1.566974 -1.5338,-1.566974 h -2.49039 c -0.86012,0 -1.55221,0.707037 -1.53373,1.566974 l 0.22206,10.368336 -8.86816,-5.376509 c -0.73548,-0.445916 -1.69386,-0.200074 -2.12392,0.544804 l -1.24519,2.156778 c -0.43006,0.744879 -0.16377,1.697757 0.59019,2.111777 l 9.09022,4.991764 -9.09028,4.991828 c -0.75396,0.41402 -1.02026,1.3669 -0.59013,2.111777 l 1.24519,2.156779 c 0.43006,0.744877 1.38844,0.990719 2.12392,0.544803 l 8.86816,-5.376572 -0.22212,10.368336 c -0.0184,0.859938 0.67367,1.566974 1.53379,1.566974 h 2.49045 c 0.86013,0 1.55221,-0.707036 1.5338,-1.566974 l -0.22219,-10.368336 8.86816,5.376508 c 0.73548,0.445918 1.69386,0.200075 2.12392,-0.544804 l 1.24519,-2.156777 c 0.43006,-0.744879 0.16384,-1.697694 -0.59012,-2.111714 z"
               id="path2-07-8-3-2-8-6-5-2-6-5"
               style="fill:#00ff99;fill-opacity:1;stroke-width:0.0639215" />
            <path
               id="path2-07-3-2-1-9-5-6-0-5-4-1"
               style="display:inline;fill:#265d47;fill-opacity:1;stroke:none;stroke-width:0.0639215;stroke-opacity:1"
               d="m 128.56448,26.625567 c -0.86012,0 -1.55224,0.706892 -1.53375,1.566828 l 0.17363,8.093046 3.75274,2.275313 -0.22221,-10.368359 c -0.0139,-0.644292 0.37135,-1.202201 0.92708,-1.441773 -0.18612,-0.0803 -0.39133,-0.125055 -0.6072,-0.125055 z M 117.653,32.963163 c -0.55098,-0.02227 -1.09649,0.254259 -1.39216,0.766363 l -1.2454,2.156457 c -0.43006,0.744879 -0.16382,1.697995 0.59014,2.112015 l 9.0904,4.991426 -9.0904,4.991944 c -0.75396,0.41402 -1.02027,1.367136 -0.59014,2.112015 l 1.2454,2.156457 c 0.43006,0.744882 1.38842,0.991108 2.1239,0.545188 l 1.40353,-0.851112 -1.06866,-1.850533 c -0.43014,-0.744879 -0.16382,-1.697995 0.59014,-2.112015 l 9.0904,-4.991944 -9.0904,-4.991426 c -0.75396,-0.41402 -1.02021,-1.367136 -0.59014,-2.112015 l 1.06866,-1.850533 -1.40353,-0.851111 c -0.22984,-0.139348 -0.48129,-0.211053 -0.73174,-0.221176 z m 24.31376,0 c -0.25045,0.01012 -0.50239,0.08183 -0.73225,0.221176 l -5.11493,3.101102 -0.0486,2.275313 7.46414,-4.525304 -0.17673,-0.306443 c -0.29567,-0.512103 -0.84066,-0.788109 -1.39165,-0.765844 z m -11.00966,14.454933 -3.75274,2.275314 -0.17363,8.093046 c -0.0184,0.859927 0.67363,1.566828 1.53375,1.566828 h 2.49029 c 0.21585,0 0.42108,-0.04424 0.6072,-0.12454 -0.55573,-0.239572 -0.94087,-0.797994 -0.92708,-1.442288 z m 5.1139,0 0.0486,2.275314 5.11493,3.101102 c 0.73548,0.44592 1.69384,0.20021 2.1239,-0.544672 l 0.17673,-0.30644 z" />
          </g>
        </g>
      </g>
      <g
         id="g6-5-9-8-3-5-7-8-5"
         transform="matrix(0.0234375,0,0,0.0234375,72.751741,57.13844)"
         style="display:inline;fill:#f5b42b;fill-opacity:1">
        <path
           class="st0"
           d="m 511.976,213.063 -45.863,-9.749 31.374,-34.845 C 472.114,131.733 417.268,115.015 360.373,127.926 355.071,69.826 322.223,22.83 279.444,10.052 L 256,50.659 232.556,10.053 C 189.777,22.832 156.93,69.828 151.627,127.927 94.733,115.016 39.886,131.734 14.514,168.47 l 31.374,34.844 -45.864,9.749 c -1.066,44.634 33.479,90.396 87.097,113.393 -29.86,50.12 -30.91,107.448 -3.812,142.931 l 42.834,-19.071 -4.901,46.632 c 42.12,14.806 96.318,-3.907 134.758,-47.794 38.44,43.887 92.638,62.6 134.758,47.794 l -4.901,-46.632 42.835,19.072 c 27.097,-35.483 26.048,-92.811 -3.812,-142.932 53.617,-22.996 88.162,-68.759 87.096,-113.393 z m -196.599,83.322 c 3.526,-2.358 7.678,-3.63 11.998,-3.63 3.762,0 7.479,0.998 10.752,2.889 4.986,2.876 8.552,7.525 10.043,13.085 1.49,5.56 0.725,11.369 -2.156,16.353 -3.838,6.65 -10.996,10.781 -18.68,10.781 -3.765,0 -7.484,-1 -10.758,-2.89 -7.126,-4.116 -11.228,-12.025 -10.724,-20.072 l -40.32,-23.278 v 46.552 c 7.222,3.587 12.021,11.096 12.021,19.327 0,11.884 -9.669,21.551 -21.553,21.551 -11.884,0 -21.553,-9.667 -21.553,-21.551 0,-8.231 4.799,-15.74 12.021,-19.327 v -46.552 l -40.319,23.278 c 0.504,8.047 -3.598,15.956 -10.724,20.072 -3.275,1.889 -6.994,2.89 -10.758,2.89 -7.684,0 -14.842,-4.132 -18.682,-10.781 -2.878,-4.984 -3.644,-10.792 -2.154,-16.353 1.49,-5.56 5.057,-10.209 10.043,-13.087 3.272,-1.889 6.989,-2.887 10.752,-2.887 4.321,0 8.473,1.272 11.996,3.63 l 40.312,-23.274 -40.312,-23.272 c -3.523,2.359 -7.675,3.63 -11.996,3.63 -3.762,0 -7.479,-0.998 -10.752,-2.89 -4.986,-2.876 -8.552,-7.525 -10.043,-13.085 -1.49,-5.56 -0.724,-11.369 2.156,-16.353 3.838,-6.65 10.995,-10.781 18.68,-10.781 3.764,0 7.484,1 10.758,2.89 7.126,4.116 11.228,12.025 10.724,20.072 l 40.319,23.278 v -46.552 c -7.222,-3.587 -12.021,-11.096 -12.021,-19.327 0,-11.884 9.669,-21.551 21.553,-21.551 11.884,0 21.553,9.667 21.553,21.551 0,8.231 -4.799,15.74 -12.021,19.327 V 256.6 l 40.32,-23.278 c -0.504,-8.047 3.598,-15.956 10.724,-20.072 3.275,-1.889 6.994,-2.89 10.758,-2.89 7.684,0 14.842,4.132 18.682,10.781 2.878,4.984 3.644,10.792 2.154,16.353 -1.49,5.56 -5.057,10.209 -10.043,13.088 -3.272,1.889 -6.989,2.887 -10.752,2.887 -4.32,0 -8.472,-1.272 -11.998,-3.63 l -40.31,23.272 z"
           id="path4-1-77-2-8-9-3-2-8-3"
           style="fill:#f5b42b;fill-opacity:1" />
      </g>
      <g
         id="g6-4-2-6-7-2-3-4-5-1"
         transform="matrix(0.0234375,0,0,0.0234375,56.044743,50.693647)"
         style="display:inline;fill:#f5b42b;fill-opacity:1">
        <path
           class="st0"
           d="m 511.976,213.063 -45.863,-9.749 31.374,-34.845 C 472.114,131.733 417.268,115.015 360.373,127.926 355.071,69.826 322.223,22.83 279.444,10.052 L 256,50.659 232.556,10.053 C 189.777,22.832 156.93,69.828 151.627,127.927 94.733,115.016 39.886,131.734 14.514,168.47 l 31.374,34.844 -45.864,9.749 c -1.066,44.634 33.479,90.396 87.097,113.393 -29.86,50.12 -30.91,107.448 -3.812,142.931 l 42.834,-19.071 -4.901,46.632 c 42.12,14.806 96.318,-3.907 134.758,-47.794 38.44,43.887 92.638,62.6 134.758,47.794 l -4.901,-46.632 42.835,19.072 c 27.097,-35.483 26.048,-92.811 -3.812,-142.932 53.617,-22.996 88.162,-68.759 87.096,-113.393 z m -196.599,83.322 c 3.526,-2.358 7.678,-3.63 11.998,-3.63 3.762,0 7.479,0.998 10.752,2.889 4.986,2.876 8.552,7.525 10.043,13.085 1.49,5.56 0.725,11.369 -2.156,16.353 -3.838,6.65 -10.996,10.781 -18.68,10.781 -3.765,0 -7.484,-1 -10.758,-2.89 -7.126,-4.116 -11.228,-12.025 -10.724,-20.072 l -40.32,-23.278 v 46.552 c 7.222,3.587 12.021,11.096 12.021,19.327 0,11.884 -9.669,21.551 -21.553,21.551 -11.884,0 -21.553,-9.667 -21.553,-21.551 0,-8.231 4.799,-15.74 12.021,-19.327 v -46.552 l -40.319,23.278 c 0.504,8.047 -3.598,15.956 -10.724,20.072 -3.275,1.889 -6.994,2.89 -10.758,2.89 -7.684,0 -14.842,-4.132 -18.682,-10.781 -2.878,-4.984 -3.644,-10.792 -2.154,-16.353 1.49,-5.56 5.057,-10.209 10.043,-13.087 3.272,-1.889 6.989,-2.887 10.752,-2.887 4.321,0 8.473,1.272 11.996,3.63 l 40.312,-23.274 -40.312,-23.272 c -3.523,2.359 -7.675,3.63 -11.996,3.63 -3.762,0 -7.479,-0.998 -10.752,-2.89 -4.986,-2.876 -8.552,-7.525 -10.043,-13.085 -1.49,-5.56 -0.724,-11.369 2.156,-16.353 3.838,-6.65 10.995,-10.781 18.68,-10.781 3.764,0 7.484,1 10.758,2.89 7.126,4.116 11.228,12.025 10.724,20.072 l 40.319,23.278 v -46.552 c -7.222,-3.587 -12.021,-11.096 -12.021,-19.327 0,-11.884 9.669,-21.551 21.553,-21.551 11.884,0 21.553,9.667 21.553,21.551 0,8.231 -4.799,15.74 -12.021,19.327 V 256.6 l 40.32,-23.278 c -0.504,-8.047 3.598,-15.956 10.724,-20.072 3.275,-1.889 6.994,-2.89 10.758,-2.89 7.684,0 14.842,4.132 18.682,10.781 2.878,4.984 3.644,10.792 2.154,16.353 -1.49,5.56 -5.057,10.209 -10.043,13.088 -3.272,1.889 -6.989,2.887 -10.752,2.887 -4.32,0 -8.472,-1.272 -11.998,-3.63 l -40.31,23.272 z"
           id="path4-1-6-2-5-8-3-9-5-9-5"
           style="fill:#f5b42b;fill-opacity:1" />
      </g>
      <g
         id="g6-4-4-2-1-8-4-9-7-5-3"
         transform="matrix(0.0234375,0,0,0.0234375,40.544594,56.262002)"
         style="display:inline;fill:#f5b42b;fill-opacity:1">
        <path
           class="st0"
           d="m 511.976,213.063 -45.863,-9.749 31.374,-34.845 C 472.114,131.733 417.268,115.015 360.373,127.926 355.071,69.826 322.223,22.83 279.444,10.052 L 256,50.659 232.556,10.053 C 189.777,22.832 156.93,69.828 151.627,127.927 94.733,115.016 39.886,131.734 14.514,168.47 l 31.374,34.844 -45.864,9.749 c -1.066,44.634 33.479,90.396 87.097,113.393 -29.86,50.12 -30.91,107.448 -3.812,142.931 l 42.834,-19.071 -4.901,46.632 c 42.12,14.806 96.318,-3.907 134.758,-47.794 38.44,43.887 92.638,62.6 134.758,47.794 l -4.901,-46.632 42.835,19.072 c 27.097,-35.483 26.048,-92.811 -3.812,-142.932 53.617,-22.996 88.162,-68.759 87.096,-113.393 z m -196.599,83.322 c 3.526,-2.358 7.678,-3.63 11.998,-3.63 3.762,0 7.479,0.998 10.752,2.889 4.986,2.876 8.552,7.525 10.043,13.085 1.49,5.56 0.725,11.369 -2.156,16.353 -3.838,6.65 -10.996,10.781 -18.68,10.781 -3.765,0 -7.484,-1 -10.758,-2.89 -7.126,-4.116 -11.228,-12.025 -10.724,-20.072 l -40.32,-23.278 v 46.552 c 7.222,3.587 12.021,11.096 12.021,19.327 0,11.884 -9.669,21.551 -21.553,21.551 -11.884,0 -21.553,-9.667 -21.553,-21.551 0,-8.231 4.799,-15.74 12.021,-19.327 v -46.552 l -40.319,23.278 c 0.504,8.047 -3.598,15.956 -10.724,20.072 -3.275,1.889 -6.994,2.89 -10.758,2.89 -7.684,0 -14.842,-4.132 -18.682,-10.781 -2.878,-4.984 -3.644,-10.792 -2.154,-16.353 1.49,-5.56 5.057,-10.209 10.043,-13.087 3.272,-1.889 6.989,-2.887 10.752,-2.887 4.321,0 8.473,1.272 11.996,3.63 l 40.312,-23.274 -40.312,-23.272 c -3.523,2.359 -7.675,3.63 -11.996,3.63 -3.762,0 -7.479,-0.998 -10.752,-2.89 -4.986,-2.876 -8.552,-7.525 -10.043,-13.085 -1.49,-5.56 -0.724,-11.369 2.156,-16.353 3.838,-6.65 10.995,-10.781 18.68,-10.781 3.764,0 7.484,1 10.758,2.89 7.126,4.116 11.228,12.025 10.724,20.072 l 40.319,23.278 v -46.552 c -7.222,-3.587 -12.021,-11.096 -12.021,-19.327 0,-11.884 9.669,-21.551 21.553,-21.551 11.884,0 21.553,9.667 21.553,21.551 0,8.231 -4.799,15.74 -12.021,19.327 V 256.6 l 40.32,-23.278 c -0.504,-8.047 3.598,-15.956 10.724,-20.072 3.275,-1.889 6.994,-2.89 10.758,-2.89 7.684,0 14.842,4.132 18.682,10.781 2.878,4.984 3.644,10.792 2.154,16.353 -1.49,5.56 -5.057,10.209 -10.043,13.088 -3.272,1.889 -6.989,2.887 -10.752,2.887 -4.32,0 -8.472,-1.272 -11.998,-3.63 l -40.31,23.272 z"
           id="path4-1-6-9-5-0-8-6-0-2-6-8"
           style="fill:#f5b42b;fill-opacity:1" />
      </g>
    </g>
    <g
       id="g3139-9-8-3-8-5-4-7-5-4"
       style="display:inline"
       transform="matrix(0.8490566,0,0,0.8490566,50.660512,42.691115)">
      <g
         id="g2290-3-1-0-1-4-7-3-4-9">
        <g
           id="g28241-4-2-8-5-5-0-8-5-2"
           transform="matrix(0.65272443,0,0,0.65272443,-39.473483,-6.814027)"
           style="display:inline">
          <g
             id="g28177-2-0-3-3-5-7-8-7-5"
             transform="translate(6.0854167,55.827083)">
            <path
               d="m 147.71798,47.981196 -9.09029,-4.991828 9.09029,-4.991827 c 0.75396,-0.414021 1.02025,-1.3669 0.59012,-2.111777 l -1.24519,-2.156779 c -0.43006,-0.744878 -1.38837,-0.99072 -2.12392,-0.544804 l -8.86816,5.376573 0.22213,-10.368336 c 0.0184,-0.859937 -0.67361,-1.566974 -1.5338,-1.566974 h -2.49039 c -0.86012,0 -1.55221,0.707037 -1.53373,1.566974 l 0.22206,10.368336 -8.86816,-5.376509 c -0.73548,-0.445916 -1.69386,-0.200074 -2.12392,0.544804 l -1.24519,2.156778 c -0.43006,0.744879 -0.16377,1.697757 0.59019,2.111777 l 9.09022,4.991764 -9.09028,4.991828 c -0.75396,0.41402 -1.02026,1.3669 -0.59013,2.111777 l 1.24519,2.156779 c 0.43006,0.744877 1.38844,0.990719 2.12392,0.544803 l 8.86816,-5.376572 -0.22212,10.368336 c -0.0184,0.859938 0.67367,1.566974 1.53379,1.566974 h 2.49045 c 0.86013,0 1.55221,-0.707036 1.5338,-1.566974 l -0.22219,-10.368336 8.86816,5.376508 c 0.73548,0.445918 1.69386,0.200075 2.12392,-0.544804 l 1.24519,-2.156777 c 0.43006,-0.744879 0.16384,-1.697694 -0.59012,-2.111714 z"
               id="path2-07-0-0-7-4-0-9-3-0-0"
               style="fill:#00ff99;fill-opacity:1;stroke-width:0.0639215" />
            <path
               id="path2-07-3-8-5-5-3-7-2-8-1-0"
               style="display:inline;fill:#265d47;fill-opacity:1;stroke:none;stroke-width:0.0639215;stroke-opacity:1"
               d="m 128.56448,26.625567 c -0.86012,0 -1.55224,0.706892 -1.53375,1.566828 l 0.17363,8.093046 3.75274,2.275313 -0.22221,-10.368359 c -0.0139,-0.644292 0.37135,-1.202201 0.92708,-1.441773 -0.18612,-0.0803 -0.39133,-0.125055 -0.6072,-0.125055 z M 117.653,32.963163 c -0.55098,-0.02227 -1.09649,0.254259 -1.39216,0.766363 l -1.2454,2.156457 c -0.43006,0.744879 -0.16382,1.697995 0.59014,2.112015 l 9.0904,4.991426 -9.0904,4.991944 c -0.75396,0.41402 -1.02027,1.367136 -0.59014,2.112015 l 1.2454,2.156457 c 0.43006,0.744882 1.38842,0.991108 2.1239,0.545188 l 1.40353,-0.851112 -1.06866,-1.850533 c -0.43014,-0.744879 -0.16382,-1.697995 0.59014,-2.112015 l 9.0904,-4.991944 -9.0904,-4.991426 c -0.75396,-0.41402 -1.02021,-1.367136 -0.59014,-2.112015 l 1.06866,-1.850533 -1.40353,-0.851111 c -0.22984,-0.139348 -0.48129,-0.211053 -0.73174,-0.221176 z m 24.31376,0 c -0.25045,0.01012 -0.50239,0.08183 -0.73225,0.221176 l -5.11493,3.101102 -0.0486,2.275313 7.46414,-4.525304 -0.17673,-0.306443 c -0.29567,-0.512103 -0.84066,-0.788109 -1.39165,-0.765844 z m -11.00966,14.454933 -3.75274,2.275314 -0.17363,8.093046 c -0.0184,0.859927 0.67363,1.566828 1.53375,1.566828 h 2.49029 c 0.21585,0 0.42108,-0.04424 0.6072,-0.12454 -0.55573,-0.239572 -0.94087,-0.797994 -0.92708,-1.442288 z m 5.1139,0 0.0486,2.275314 5.11493,3.101102 c 0.73548,0.44592 1.69384,0.20021 2.1239,-0.544672 l 0.17673,-0.30644 z" />
          </g>
          <g
             id="g28177-5-21-2-4-2-0-6-3-0-0"
             transform="translate(29.832267,47.29614)"
             style="display:inline">
            <path
               d="m 147.71798,47.981196 -9.09029,-4.991828 9.09029,-4.991827 c 0.75396,-0.414021 1.02025,-1.3669 0.59012,-2.111777 l -1.24519,-2.156779 c -0.43006,-0.744878 -1.38837,-0.99072 -2.12392,-0.544804 l -8.86816,5.376573 0.22213,-10.368336 c 0.0184,-0.859937 -0.67361,-1.566974 -1.5338,-1.566974 h -2.49039 c -0.86012,0 -1.55221,0.707037 -1.53373,1.566974 l 0.22206,10.368336 -8.86816,-5.376509 c -0.73548,-0.445916 -1.69386,-0.200074 -2.12392,0.544804 l -1.24519,2.156778 c -0.43006,0.744879 -0.16377,1.697757 0.59019,2.111777 l 9.09022,4.991764 -9.09028,4.991828 c -0.75396,0.41402 -1.02026,1.3669 -0.59013,2.111777 l 1.24519,2.156779 c 0.43006,0.744877 1.38844,0.990719 2.12392,0.544803 l 8.86816,-5.376572 -0.22212,10.368336 c -0.0184,0.859938 0.67367,1.566974 1.53379,1.566974 h 2.49045 c 0.86013,0 1.55221,-0.707036 1.5338,-1.566974 l -0.22219,-10.368336 8.86816,5.376508 c 0.73548,0.445918 1.69386,0.200075 2.12392,-0.544804 l 1.24519,-2.156777 c 0.43006,-0.744879 0.16384,-1.697694 -0.59012,-2.111714 z"
               id="path2-07-6-1-2-0-8-4-7-6-0-6"
               style="fill:#00ff99;fill-opacity:1;stroke-width:0.0639215" />
            <path
               id="path2-07-3-7-6-9-7-3-2-4-2-9-3"
               style="display:inline;fill:#265d47;fill-opacity:1;stroke:none;stroke-width:0.0639215;stroke-opacity:1"
               d="m 128.56448,26.625567 c -0.86012,0 -1.55224,0.706892 -1.53375,1.566828 l 0.17363,8.093046 3.75274,2.275313 -0.22221,-10.368359 c -0.0139,-0.644292 0.37135,-1.202201 0.92708,-1.441773 -0.18612,-0.0803 -0.39133,-0.125055 -0.6072,-0.125055 z M 117.653,32.963163 c -0.55098,-0.02227 -1.09649,0.254259 -1.39216,0.766363 l -1.2454,2.156457 c -0.43006,0.744879 -0.16382,1.697995 0.59014,2.112015 l 9.0904,4.991426 -9.0904,4.991944 c -0.75396,0.41402 -1.02027,1.367136 -0.59014,2.112015 l 1.2454,2.156457 c 0.43006,0.744882 1.38842,0.991108 2.1239,0.545188 l 1.40353,-0.851112 -1.06866,-1.850533 c -0.43014,-0.744879 -0.16382,-1.697995 0.59014,-2.112015 l 9.0904,-4.991944 -9.0904,-4.991426 c -0.75396,-0.41402 -1.02021,-1.367136 -0.59014,-2.112015 l 1.06866,-1.850533 -1.40353,-0.851111 c -0.22984,-0.139348 -0.48129,-0.211053 -0.73174,-0.221176 z m 24.31376,0 c -0.25045,0.01012 -0.50239,0.08183 -0.73225,0.221176 l -5.11493,3.101102 -0.0486,2.275313 7.46414,-4.525304 -0.17673,-0.306443 c -0.29567,-0.512103 -0.84066,-0.788109 -1.39165,-0.765844 z m -11.00966,14.454933 -3.75274,2.275314 -0.17363,8.093046 c -0.0184,0.859927 0.67363,1.566828 1.53375,1.566828 h 2.49029 c 0.21585,0 0.42108,-0.04424 0.6072,-0.12454 -0.55573,-0.239572 -0.94087,-0.797994 -0.92708,-1.442288 z m 5.1139,0 0.0486,2.275314 5.11493,3.101102 c 0.73548,0.44592 1.69384,0.20021 2.1239,-0.544672 l 0.17673,-0.30644 z" />
          </g>
          <g
             id="g28177-7-5-5-6-8-7-4-3-5-4"
             transform="translate(53.579157,55.826567)"
             style="display:inline">
            <path
               d="m 147.71798,47.981196 -9.09029,-4.991828 9.09029,-4.991827 c 0.75396,-0.414021 1.02025,-1.3669 0.59012,-2.111777 l -1.24519,-2.156779 c -0.43006,-0.744878 -1.38837,-0.99072 -2.12392,-0.544804 l -8.86816,5.376573 0.22213,-10.368336 c 0.0184,-0.859937 -0.67361,-1.566974 -1.5338,-1.566974 h -2.49039 c -0.86012,0 -1.55221,0.707037 -1.53373,1.566974 l 0.22206,10.368336 -8.86816,-5.376509 c -0.73548,-0.445916 -1.69386,-0.200074 -2.12392,0.544804 l -1.24519,2.156778 c -0.43006,0.744879 -0.16377,1.697757 0.59019,2.111777 l 9.09022,4.991764 -9.09028,4.991828 c -0.75396,0.41402 -1.02026,1.3669 -0.59013,2.111777 l 1.24519,2.156779 c 0.43006,0.744877 1.38844,0.990719 2.12392,0.544803 l 8.86816,-5.376572 -0.22212,10.368336 c -0.0184,0.859938 0.67367,1.566974 1.53379,1.566974 h 2.49045 c 0.86013,0 1.55221,-0.707036 1.5338,-1.566974 l -0.22219,-10.368336 8.86816,5.376508 c 0.73548,0.445918 1.69386,0.200075 2.12392,-0.544804 l 1.24519,-2.156777 c 0.43006,-0.744879 0.16384,-1.697694 -0.59012,-2.111714 z"
               id="path2-07-8-3-2-8-6-5-2-6-5-6"
               style="fill:#00ff99;fill-opacity:1;stroke-width:0.0639215" />
            <path
               id="path2-07-3-2-1-9-5-6-0-5-4-1-3"
               style="display:inline;fill:#265d47;fill-opacity:1;stroke:none;stroke-width:0.0639215;stroke-opacity:1"
               d="m 128.56448,26.625567 c -0.86012,0 -1.55224,0.706892 -1.53375,1.566828 l 0.17363,8.093046 3.75274,2.275313 -0.22221,-10.368359 c -0.0139,-0.644292 0.37135,-1.202201 0.92708,-1.441773 -0.18612,-0.0803 -0.39133,-0.125055 -0.6072,-0.125055 z M 117.653,32.963163 c -0.55098,-0.02227 -1.09649,0.254259 -1.39216,0.766363 l -1.2454,2.156457 c -0.43006,0.744879 -0.16382,1.697995 0.59014,2.112015 l 9.0904,4.991426 -9.0904,4.991944 c -0.75396,0.41402 -1.02027,1.367136 -0.59014,2.112015 l 1.2454,2.156457 c 0.43006,0.744882 1.38842,0.991108 2.1239,0.545188 l 1.40353,-0.851112 -1.06866,-1.850533 c -0.43014,-0.744879 -0.16382,-1.697995 0.59014,-2.112015 l 9.0904,-4.991944 -9.0904,-4.991426 c -0.75396,-0.41402 -1.02021,-1.367136 -0.59014,-2.112015 l 1.06866,-1.850533 -1.40353,-0.851111 c -0.22984,-0.139348 -0.48129,-0.211053 -0.73174,-0.221176 z m 24.31376,0 c -0.25045,0.01012 -0.50239,0.08183 -0.73225,0.221176 l -5.11493,3.101102 -0.0486,2.275313 7.46414,-4.525304 -0.17673,-0.306443 c -0.29567,-0.512103 -0.84066,-0.788109 -1.39165,-0.765844 z m -11.00966,14.454933 -3.75274,2.275314 -0.17363,8.093046 c -0.0184,0.859927 0.67363,1.566828 1.53375,1.566828 h 2.49029 c 0.21585,0 0.42108,-0.04424 0.6072,-0.12454 -0.55573,-0.239572 -0.94087,-0.797994 -0.92708,-1.442288 z m 5.1139,0 0.0486,2.275314 5.11493,3.101102 c 0.73548,0.44592 1.69384,0.20021 2.1239,-0.544672 l 0.17673,-0.30644 z" />
          </g>
        </g>
      </g>
      <g
         id="g6-5-9-8-3-5-7-8-5-2"
         transform="matrix(0.0234375,0,0,0.0234375,72.751741,57.13844)"
         style="display:inline;fill:#f5b42b;fill-opacity:1">
        <path
           class="st0"
           d="m 511.976,213.063 -45.863,-9.749 31.374,-34.845 C 472.114,131.733 417.268,115.015 360.373,127.926 355.071,69.826 322.223,22.83 279.444,10.052 L 256,50.659 232.556,10.053 C 189.777,22.832 156.93,69.828 151.627,127.927 94.733,115.016 39.886,131.734 14.514,168.47 l 31.374,34.844 -45.864,9.749 c -1.066,44.634 33.479,90.396 87.097,113.393 -29.86,50.12 -30.91,107.448 -3.812,142.931 l 42.834,-19.071 -4.901,46.632 c 42.12,14.806 96.318,-3.907 134.758,-47.794 38.44,43.887 92.638,62.6 134.758,47.794 l -4.901,-46.632 42.835,19.072 c 27.097,-35.483 26.048,-92.811 -3.812,-142.932 53.617,-22.996 88.162,-68.759 87.096,-113.393 z m -196.599,83.322 c 3.526,-2.358 7.678,-3.63 11.998,-3.63 3.762,0 7.479,0.998 10.752,2.889 4.986,2.876 8.552,7.525 10.043,13.085 1.49,5.56 0.725,11.369 -2.156,16.353 -3.838,6.65 -10.996,10.781 -18.68,10.781 -3.765,0 -7.484,-1 -10.758,-2.89 -7.126,-4.116 -11.228,-12.025 -10.724,-20.072 l -40.32,-23.278 v 46.552 c 7.222,3.587 12.021,11.096 12.021,19.327 0,11.884 -9.669,21.551 -21.553,21.551 -11.884,0 -21.553,-9.667 -21.553,-21.551 0,-8.231 4.799,-15.74 12.021,-19.327 v -46.552 l -40.319,23.278 c 0.504,8.047 -3.598,15.956 -10.724,20.072 -3.275,1.889 -6.994,2.89 -10.758,2.89 -7.684,0 -14.842,-4.132 -18.682,-10.781 -2.878,-4.984 -3.644,-10.792 -2.154,-16.353 1.49,-5.56 5.057,-10.209 10.043,-13.087 3.272,-1.889 6.989,-2.887 10.752,-2.887 4.321,0 8.473,1.272 11.996,3.63 l 40.312,-23.274 -40.312,-23.272 c -3.523,2.359 -7.675,3.63 -11.996,3.63 -3.762,0 -7.479,-0.998 -10.752,-2.89 -4.986,-2.876 -8.552,-7.525 -10.043,-13.085 -1.49,-5.56 -0.724,-11.369 2.156,-16.353 3.838,-6.65 10.995,-10.781 18.68,-10.781 3.764,0 7.484,1 10.758,2.89 7.126,4.116 11.228,12.025 10.724,20.072 l 40.319,23.278 v -46.552 c -7.222,-3.587 -12.021,-11.096 -12.021,-19.327 0,-11.884 9.669,-21.551 21.553,-21.551 11.884,0 21.553,9.667 21.553,21.551 0,8.231 -4.799,15.74 -12.021,19.327 V 256.6 l 40.32,-23.278 c -0.504,-8.047 3.598,-15.956 10.724,-20.072 3.275,-1.889 6.994,-2.89 10.758,-2.89 7.684,0 14.842,4.132 18.682,10.781 2.878,4.984 3.644,10.792 2.154,16.353 -1.49,5.56 -5.057,10.209 -10.043,13.088 -3.272,1.889 -6.989,2.887 -10.752,2.887 -4.32,0 -8.472,-1.272 -11.998,-3.63 l -40.31,23.272 z"
           id="path4-1-77-2-8-9-3-2-8-3-0"
           style="fill:#f5b42b;fill-opacity:1" />
      </g>
      <g
         id="g6-4-2-6-7-2-3-4-5-1-6"
         transform="matrix(0.0234375,0,0,0.0234375,56.044743,50.693647)"
         style="display:inline;fill:#f5b42b;fill-opacity:1">
        <path
           class="st0"
           d="m 511.976,213.063 -45.863,-9.749 31.374,-34.845 C 472.114,131.733 417.268,115.015 360.373,127.926 355.071,69.826 322.223,22.83 279.444,10.052 L 256,50.659 232.556,10.053 C 189.777,22.832 156.93,69.828 151.627,127.927 94.733,115.016 39.886,131.734 14.514,168.47 l 31.374,34.844 -45.864,9.749 c -1.066,44.634 33.479,90.396 87.097,113.393 -29.86,50.12 -30.91,107.448 -3.812,142.931 l 42.834,-19.071 -4.901,46.632 c 42.12,14.806 96.318,-3.907 134.758,-47.794 38.44,43.887 92.638,62.6 134.758,47.794 l -4.901,-46.632 42.835,19.072 c 27.097,-35.483 26.048,-92.811 -3.812,-142.932 53.617,-22.996 88.162,-68.759 87.096,-113.393 z m -196.599,83.322 c 3.526,-2.358 7.678,-3.63 11.998,-3.63 3.762,0 7.479,0.998 10.752,2.889 4.986,2.876 8.552,7.525 10.043,13.085 1.49,5.56 0.725,11.369 -2.156,16.353 -3.838,6.65 -10.996,10.781 -18.68,10.781 -3.765,0 -7.484,-1 -10.758,-2.89 -7.126,-4.116 -11.228,-12.025 -10.724,-20.072 l -40.32,-23.278 v 46.552 c 7.222,3.587 12.021,11.096 12.021,19.327 0,11.884 -9.669,21.551 -21.553,21.551 -11.884,0 -21.553,-9.667 -21.553,-21.551 0,-8.231 4.799,-15.74 12.021,-19.327 v -46.552 l -40.319,23.278 c 0.504,8.047 -3.598,15.956 -10.724,20.072 -3.275,1.889 -6.994,2.89 -10.758,2.89 -7.684,0 -14.842,-4.132 -18.682,-10.781 -2.878,-4.984 -3.644,-10.792 -2.154,-16.353 1.49,-5.56 5.057,-10.209 10.043,-13.087 3.272,-1.889 6.989,-2.887 10.752,-2.887 4.321,0 8.473,1.272 11.996,3.63 l 40.312,-23.274 -40.312,-23.272 c -3.523,2.359 -7.675,3.63 -11.996,3.63 -3.762,0 -7.479,-0.998 -10.752,-2.89 -4.986,-2.876 -8.552,-7.525 -10.043,-13.085 -1.49,-5.56 -0.724,-11.369 2.156,-16.353 3.838,-6.65 10.995,-10.781 18.68,-10.781 3.764,0 7.484,1 10.758,2.89 7.126,4.116 11.228,12.025 10.724,20.072 l 40.319,23.278 v -46.552 c -7.222,-3.587 -12.021,-11.096 -12.021,-19.327 0,-11.884 9.669,-21.551 21.553,-21.551 11.884,0 21.553,9.667 21.553,21.551 0,8.231 -4.799,15.74 -12.021,19.327 V 256.6 l 40.32,-23.278 c -0.504,-8.047 3.598,-15.956 10.724,-20.072 3.275,-1.889 6.994,-2.89 10.758,-2.89 7.684,0 14.842,4.132 18.682,10.781 2.878,4.984 3.644,10.792 2.154,16.353 -1.49,5.56 -5.057,10.209 -10.043,13.088 -3.272,1.889 -6.989,2.887 -10.752,2.887 -4.32,0 -8.472,-1.272 -11.998,-3.63 l -40.31,23.272 z"
           id="path4-1-6-2-5-8-3-9-5-9-5-5"
           style="fill:#f5b42b;fill-opacity:1" />
      </g>
      <g
         id="g6-4-4-2-1-8-4-9-7-5-3-0"
         transform="matrix(0.0234375,0,0,0.0234375,40.544594,56.262002)"
         style="display:inline;fill:#f5b42b;fill-opacity:1">
        <path
           class="st0"
           d="m 511.976,213.063 -45.863,-9.749 31.374,-34.845 C 472.114,131.733 417.268,115.015 360.373,127.926 355.071,69.826 322.223,22.83 279.444,10.052 L 256,50.659 232.556,10.053 C 189.777,22.832 156.93,69.828 151.627,127.927 94.733,115.016 39.886,131.734 14.514,168.47 l 31.374,34.844 -45.864,9.749 c -1.066,44.634 33.479,90.396 87.097,113.393 -29.86,50.12 -30.91,107.448 -3.812,142.931 l 42.834,-19.071 -4.901,46.632 c 42.12,14.806 96.318,-3.907 134.758,-47.794 38.44,43.887 92.638,62.6 134.758,47.794 l -4.901,-46.632 42.835,19.072 c 27.097,-35.483 26.048,-92.811 -3.812,-142.932 53.617,-22.996 88.162,-68.759 87.096,-113.393 z m -196.599,83.322 c 3.526,-2.358 7.678,-3.63 11.998,-3.63 3.762,0 7.479,0.998 10.752,2.889 4.986,2.876 8.552,7.525 10.043,13.085 1.49,5.56 0.725,11.369 -2.156,16.353 -3.838,6.65 -10.996,10.781 -18.68,10.781 -3.765,0 -7.484,-1 -10.758,-2.89 -7.126,-4.116 -11.228,-12.025 -10.724,-20.072 l -40.32,-23.278 v 46.552 c 7.222,3.587 12.021,11.096 12.021,19.327 0,11.884 -9.669,21.551 -21.553,21.551 -11.884,0 -21.553,-9.667 -21.553,-21.551 0,-8.231 4.799,-15.74 12.021,-19.327 v -46.552 l -40.319,23.278 c 0.504,8.047 -3.598,15.956 -10.724,20.072 -3.275,1.889 -6.994,2.89 -10.758,2.89 -7.684,0 -14.842,-4.132 -18.682,-10.781 -2.878,-4.984 -3.644,-10.792 -2.154,-16.353 1.49,-5.56 5.057,-10.209 10.043,-13.087 3.272,-1.889 6.989,-2.887 10.752,-2.887 4.321,0 8.473,1.272 11.996,3.63 l 40.312,-23.274 -40.312,-23.272 c -3.523,2.359 -7.675,3.63 -11.996,3.63 -3.762,0 -7.479,-0.998 -10.752,-2.89 -4.986,-2.876 -8.552,-7.525 -10.043,-13.085 -1.49,-5.56 -0.724,-11.369 2.156,-16.353 3.838,-6.65 10.995,-10.781 18.68,-10.781 3.764,0 7.484,1 10.758,2.89 7.126,4.116 11.228,12.025 10.724,20.072 l 40.319,23.278 v -46.552 c -7.222,-3.587 -12.021,-11.096 -12.021,-19.327 0,-11.884 9.669,-21.551 21.553,-21.551 11.884,0 21.553,9.667 21.553,21.551 0,8.231 -4.799,15.74 -12.021,19.327 V 256.6 l 40.32,-23.278 c -0.504,-8.047 3.598,-15.956 10.724,-20.072 3.275,-1.889 6.994,-2.89 10.758,-2.89 7.684,0 14.842,4.132 18.682,10.781 2.878,4.984 3.644,10.792 2.154,16.353 -1.49,5.56 -5.057,10.209 -10.043,13.088 -3.272,1.889 -6.989,2.887 -10.752,2.887 -4.32,0 -8.472,-1.272 -11.998,-3.63 l -40.31,23.272 z"
           id="path4-1-6-9-5-0-8-6-0-2-6-8-7"
           style="fill:#f5b42b;fill-opacity:1" />
      </g>
    </g>
    <g
       id="g3139-9-8-3-8-5-4-7-5-4-7"
       style="display:inline"
       transform="matrix(0.75471698,0,0,0.75471698,43.341419,73.513283)">
      <g
         id="g2290-3-1-0-1-4-7-3-4-9-3">
        <g
           id="g28241-4-2-8-5-5-0-8-5-2-9"
           transform="matrix(0.65272443,0,0,0.65272443,-39.473483,-6.814027)"
           style="display:inline">
          <g
             id="g28177-2-0-3-3-5-7-8-7-5-5"
             transform="translate(6.0854167,55.827083)">
            <path
               d="m 147.71798,47.981196 -9.09029,-4.991828 9.09029,-4.991827 c 0.75396,-0.414021 1.02025,-1.3669 0.59012,-2.111777 l -1.24519,-2.156779 c -0.43006,-0.744878 -1.38837,-0.99072 -2.12392,-0.544804 l -8.86816,5.376573 0.22213,-10.368336 c 0.0184,-0.859937 -0.67361,-1.566974 -1.5338,-1.566974 h -2.49039 c -0.86012,0 -1.55221,0.707037 -1.53373,1.566974 l 0.22206,10.368336 -8.86816,-5.376509 c -0.73548,-0.445916 -1.69386,-0.200074 -2.12392,0.544804 l -1.24519,2.156778 c -0.43006,0.744879 -0.16377,1.697757 0.59019,2.111777 l 9.09022,4.991764 -9.09028,4.991828 c -0.75396,0.41402 -1.02026,1.3669 -0.59013,2.111777 l 1.24519,2.156779 c 0.43006,0.744877 1.38844,0.990719 2.12392,0.544803 l 8.86816,-5.376572 -0.22212,10.368336 c -0.0184,0.859938 0.67367,1.566974 1.53379,1.566974 h 2.49045 c 0.86013,0 1.55221,-0.707036 1.5338,-1.566974 l -0.22219,-10.368336 8.86816,5.376508 c 0.73548,0.445918 1.69386,0.200075 2.12392,-0.544804 l 1.24519,-2.156777 c 0.43006,-0.744879 0.16384,-1.697694 -0.59012,-2.111714 z"
               id="path2-07-0-0-7-4-0-9-3-0-0-9"
               style="fill:#00ff99;fill-opacity:1;stroke-width:0.0639215" />
            <path
               id="path2-07-3-8-5-5-3-7-2-8-1-0-9"
               style="display:inline;fill:#265d47;fill-opacity:1;stroke:none;stroke-width:0.0639215;stroke-opacity:1"
               d="m 128.56448,26.625567 c -0.86012,0 -1.55224,0.706892 -1.53375,1.566828 l 0.17363,8.093046 3.75274,2.275313 -0.22221,-10.368359 c -0.0139,-0.644292 0.37135,-1.202201 0.92708,-1.441773 -0.18612,-0.0803 -0.39133,-0.125055 -0.6072,-0.125055 z M 117.653,32.963163 c -0.55098,-0.02227 -1.09649,0.254259 -1.39216,0.766363 l -1.2454,2.156457 c -0.43006,0.744879 -0.16382,1.697995 0.59014,2.112015 l 9.0904,4.991426 -9.0904,4.991944 c -0.75396,0.41402 -1.02027,1.367136 -0.59014,2.112015 l 1.2454,2.156457 c 0.43006,0.744882 1.38842,0.991108 2.1239,0.545188 l 1.40353,-0.851112 -1.06866,-1.850533 c -0.43014,-0.744879 -0.16382,-1.697995 0.59014,-2.112015 l 9.0904,-4.991944 -9.0904,-4.991426 c -0.75396,-0.41402 -1.02021,-1.367136 -0.59014,-2.112015 l 1.06866,-1.850533 -1.40353,-0.851111 c -0.22984,-0.139348 -0.48129,-0.211053 -0.73174,-0.221176 z m 24.31376,0 c -0.25045,0.01012 -0.50239,0.08183 -0.73225,0.221176 l -5.11493,3.101102 -0.0486,2.275313 7.46414,-4.525304 -0.17673,-0.306443 c -0.29567,-0.512103 -0.84066,-0.788109 -1.39165,-0.765844 z m -11.00966,14.454933 -3.75274,2.275314 -0.17363,8.093046 c -0.0184,0.859927 0.67363,1.566828 1.53375,1.566828 h 2.49029 c 0.21585,0 0.42108,-0.04424 0.6072,-0.12454 -0.55573,-0.239572 -0.94087,-0.797994 -0.92708,-1.442288 z m 5.1139,0 0.0486,2.275314 5.11493,3.101102 c 0.73548,0.44592 1.69384,0.20021 2.1239,-0.544672 l 0.17673,-0.30644 z" />
          </g>
          <g
             id="g28177-5-21-2-4-2-0-6-3-0-0-1"
             transform="translate(29.832267,47.29614)"
             style="display:inline">
            <path
               d="m 147.71798,47.981196 -9.09029,-4.991828 9.09029,-4.991827 c 0.75396,-0.414021 1.02025,-1.3669 0.59012,-2.111777 l -1.24519,-2.156779 c -0.43006,-0.744878 -1.38837,-0.99072 -2.12392,-0.544804 l -8.86816,5.376573 0.22213,-10.368336 c 0.0184,-0.859937 -0.67361,-1.566974 -1.5338,-1.566974 h -2.49039 c -0.86012,0 -1.55221,0.707037 -1.53373,1.566974 l 0.22206,10.368336 -8.86816,-5.376509 c -0.73548,-0.445916 -1.69386,-0.200074 -2.12392,0.544804 l -1.24519,2.156778 c -0.43006,0.744879 -0.16377,1.697757 0.59019,2.111777 l 9.09022,4.991764 -9.09028,4.991828 c -0.75396,0.41402 -1.02026,1.3669 -0.59013,2.111777 l 1.24519,2.156779 c 0.43006,0.744877 1.38844,0.990719 2.12392,0.544803 l 8.86816,-5.376572 -0.22212,10.368336 c -0.0184,0.859938 0.67367,1.566974 1.53379,1.566974 h 2.49045 c 0.86013,0 1.55221,-0.707036 1.5338,-1.566974 l -0.22219,-10.368336 8.86816,5.376508 c 0.73548,0.445918 1.69386,0.200075 2.12392,-0.544804 l 1.24519,-2.156777 c 0.43006,-0.744879 0.16384,-1.697694 -0.59012,-2.111714 z"
               id="path2-07-6-1-2-0-8-4-7-6-0-6-2"
               style="fill:#00ff99;fill-opacity:1;stroke-width:0.0639215" />
            <path
               id="path2-07-3-7-6-9-7-3-2-4-2-9-3-2"
               style="display:inline;fill:#265d47;fill-opacity:1;stroke:none;stroke-width:0.0639215;stroke-opacity:1"
               d="m 128.56448,26.625567 c -0.86012,0 -1.55224,0.706892 -1.53375,1.566828 l 0.17363,8.093046 3.75274,2.275313 -0.22221,-10.368359 c -0.0139,-0.644292 0.37135,-1.202201 0.92708,-1.441773 -0.18612,-0.0803 -0.39133,-0.125055 -0.6072,-0.125055 z M 117.653,32.963163 c -0.55098,-0.02227 -1.09649,0.254259 -1.39216,0.766363 l -1.2454,2.156457 c -0.43006,0.744879 -0.16382,1.697995 0.59014,2.112015 l 9.0904,4.991426 -9.0904,4.991944 c -0.75396,0.41402 -1.02027,1.367136 -0.59014,2.112015 l 1.2454,2.156457 c 0.43006,0.744882 1.38842,0.991108 2.1239,0.545188 l 1.40353,-0.851112 -1.06866,-1.850533 c -0.43014,-0.744879 -0.16382,-1.697995 0.59014,-2.112015 l 9.0904,-4.991944 -9.0904,-4.991426 c -0.75396,-0.41402 -1.02021,-1.367136 -0.59014,-2.112015 l 1.06866,-1.850533 -1.40353,-0.851111 c -0.22984,-0.139348 -0.48129,-0.211053 -0.73174,-0.221176 z m 24.31376,0 c -0.25045,0.01012 -0.50239,0.08183 -0.73225,0.221176 l -5.11493,3.101102 -0.0486,2.275313 7.46414,-4.525304 -0.17673,-0.306443 c -0.29567,-0.512103 -0.84066,-0.788109 -1.39165,-0.765844 z m -11.00966,14.454933 -3.75274,2.275314 -0.17363,8.093046 c -0.0184,0.859927 0.67363,1.566828 1.53375,1.566828 h 2.49029 c 0.21585,0 0.42108,-0.04424 0.6072,-0.12454 -0.55573,-0.239572 -0.94087,-0.797994 -0.92708,-1.442288 z m 5.1139,0 0.0486,2.275314 5.11493,3.101102 c 0.73548,0.44592 1.69384,0.20021 2.1239,-0.544672 l 0.17673,-0.30644 z" />
          </g>
          <g
             id="g28177-7-5-5-6-8-7-4-3-5-4-3"
             transform="translate(53.579157,55.826567)"
             style="display:inline">
            <path
               d="m 147.71798,47.981196 -9.09029,-4.991828 9.09029,-4.991827 c 0.75396,-0.414021 1.02025,-1.3669 0.59012,-2.111777 l -1.24519,-2.156779 c -0.43006,-0.744878 -1.38837,-0.99072 -2.12392,-0.544804 l -8.86816,5.376573 0.22213,-10.368336 c 0.0184,-0.859937 -0.67361,-1.566974 -1.5338,-1.566974 h -2.49039 c -0.86012,0 -1.55221,0.707037 -1.53373,1.566974 l 0.22206,10.368336 -8.86816,-5.376509 c -0.73548,-0.445916 -1.69386,-0.200074 -2.12392,0.544804 l -1.24519,2.156778 c -0.43006,0.744879 -0.16377,1.697757 0.59019,2.111777 l 9.09022,4.991764 -9.09028,4.991828 c -0.75396,0.41402 -1.02026,1.3669 -0.59013,2.111777 l 1.24519,2.156779 c 0.43006,0.744877 1.38844,0.990719 2.12392,0.544803 l 8.86816,-5.376572 -0.22212,10.368336 c -0.0184,0.859938 0.67367,1.566974 1.53379,1.566974 h 2.49045 c 0.86013,0 1.55221,-0.707036 1.5338,-1.566974 l -0.22219,-10.368336 8.86816,5.376508 c 0.73548,0.445918 1.69386,0.200075 2.12392,-0.544804 l 1.24519,-2.156777 c 0.43006,-0.744879 0.16384,-1.697694 -0.59012,-2.111714 z"
               id="path2-07-8-3-2-8-6-5-2-6-5-6-7"
               style="fill:#00ff99;fill-opacity:1;stroke-width:0.0639215" />
            <path
               id="path2-07-3-2-1-9-5-6-0-5-4-1-3-9"
               style="display:inline;fill:#265d47;fill-opacity:1;stroke:none;stroke-width:0.0639215;stroke-opacity:1"
               d="m 128.56448,26.625567 c -0.86012,0 -1.55224,0.706892 -1.53375,1.566828 l 0.17363,8.093046 3.75274,2.275313 -0.22221,-10.368359 c -0.0139,-0.644292 0.37135,-1.202201 0.92708,-1.441773 -0.18612,-0.0803 -0.39133,-0.125055 -0.6072,-0.125055 z M 117.653,32.963163 c -0.55098,-0.02227 -1.09649,0.254259 -1.39216,0.766363 l -1.2454,2.156457 c -0.43006,0.744879 -0.16382,1.697995 0.59014,2.112015 l 9.0904,4.991426 -9.0904,4.991944 c -0.75396,0.41402 -1.02027,1.367136 -0.59014,2.112015 l 1.2454,2.156457 c 0.43006,0.744882 1.38842,0.991108 2.1239,0.545188 l 1.40353,-0.851112 -1.06866,-1.850533 c -0.43014,-0.744879 -0.16382,-1.697995 0.59014,-2.112015 l 9.0904,-4.991944 -9.0904,-4.991426 c -0.75396,-0.41402 -1.02021,-1.367136 -0.59014,-2.112015 l 1.06866,-1.850533 -1.40353,-0.851111 c -0.22984,-0.139348 -0.48129,-0.211053 -0.73174,-0.221176 z m 24.31376,0 c -0.25045,0.01012 -0.50239,0.08183 -0.73225,0.221176 l -5.11493,3.101102 -0.0486,2.275313 7.46414,-4.525304 -0.17673,-0.306443 c -0.29567,-0.512103 -0.84066,-0.788109 -1.39165,-0.765844 z m -11.00966,14.454933 -3.75274,2.275314 -0.17363,8.093046 c -0.0184,0.859927 0.67363,1.566828 1.53375,1.566828 h 2.49029 c 0.21585,0 0.42108,-0.04424 0.6072,-0.12454 -0.55573,-0.239572 -0.94087,-0.797994 -0.92708,-1.442288 z m 5.1139,0 0.0486,2.275314 5.11493,3.101102 c 0.73548,0.44592 1.69384,0.20021 2.1239,-0.544672 l 0.17673,-0.30644 z" />
          </g>
        </g>
      </g>
      <g
         id="g6-5-9-8-3-5-7-8-5-2-7"
         transform="matrix(0.0234375,0,0,0.0234375,72.751741,57.13844)"
         style="display:inline;fill:#f5b42b;fill-opacity:1">
        <path
           class="st0"
           d="m 511.976,213.063 -45.863,-9.749 31.374,-34.845 C 472.114,131.733 417.268,115.015 360.373,127.926 355.071,69.826 322.223,22.83 279.444,10.052 L 256,50.659 232.556,10.053 C 189.777,22.832 156.93,69.828 151.627,127.927 94.733,115.016 39.886,131.734 14.514,168.47 l 31.374,34.844 -45.864,9.749 c -1.066,44.634 33.479,90.396 87.097,113.393 -29.86,50.12 -30.91,107.448 -3.812,142.931 l 42.834,-19.071 -4.901,46.632 c 42.12,14.806 96.318,-3.907 134.758,-47.794 38.44,43.887 92.638,62.6 134.758,47.794 l -4.901,-46.632 42.835,19.072 c 27.097,-35.483 26.048,-92.811 -3.812,-142.932 53.617,-22.996 88.162,-68.759 87.096,-113.393 z m -196.599,83.322 c 3.526,-2.358 7.678,-3.63 11.998,-3.63 3.762,0 7.479,0.998 10.752,2.889 4.986,2.876 8.552,7.525 10.043,13.085 1.49,5.56 0.725,11.369 -2.156,16.353 -3.838,6.65 -10.996,10.781 -18.68,10.781 -3.765,0 -7.484,-1 -10.758,-2.89 -7.126,-4.116 -11.228,-12.025 -10.724,-20.072 l -40.32,-23.278 v 46.552 c 7.222,3.587 12.021,11.096 12.021,19.327 0,11.884 -9.669,21.551 -21.553,21.551 -11.884,0 -21.553,-9.667 -21.553,-21.551 0,-8.231 4.799,-15.74 12.021,-19.327 v -46.552 l -40.319,23.278 c 0.504,8.047 -3.598,15.956 -10.724,20.072 -3.275,1.889 -6.994,2.89 -10.758,2.89 -7.684,0 -14.842,-4.132 -18.682,-10.781 -2.878,-4.984 -3.644,-10.792 -2.154,-16.353 1.49,-5.56 5.057,-10.209 10.043,-13.087 3.272,-1.889 6.989,-2.887 10.752,-2.887 4.321,0 8.473,1.272 11.996,3.63 l 40.312,-23.274 -40.312,-23.272 c -3.523,2.359 -7.675,3.63 -11.996,3.63 -3.762,0 -7.479,-0.998 -10.752,-2.89 -4.986,-2.876 -8.552,-7.525 -10.043,-13.085 -1.49,-5.56 -0.724,-11.369 2.156,-16.353 3.838,-6.65 10.995,-10.781 18.68,-10.781 3.764,0 7.484,1 10.758,2.89 7.126,4.116 11.228,12.025 10.724,20.072 l 40.319,23.278 v -46.552 c -7.222,-3.587 -12.021,-11.096 -12.021,-19.327 0,-11.884 9.669,-21.551 21.553,-21.551 11.884,0 21.553,9.667 21.553,21.551 0,8.231 -4.799,15.74 -12.021,19.327 V 256.6 l 40.32,-23.278 c -0.504,-8.047 3.598,-15.956 10.724,-20.072 3.275,-1.889 6.994,-2.89 10.758,-2.89 7.684,0 14.842,4.132 18.682,10.781 2.878,4.984 3.644,10.792 2.154,16.353 -1.49,5.56 -5.057,10.209 -10.043,13.088 -3.272,1.889 -6.989,2.887 -10.752,2.887 -4.32,0 -8.472,-1.272 -11.998,-3.63 l -40.31,23.272 z"
           id="path4-1-77-2-8-9-3-2-8-3-0-8"
           style="fill:#f5b42b;fill-opacity:1" />
      </g>
      <g
         id="g6-4-2-6-7-2-3-4-5-1-6-8"
         transform="matrix(0.0234375,0,0,0.0234375,56.044743,50.693647)"
         style="display:inline;fill:#f5b42b;fill-opacity:1">
        <path
           class="st0"
           d="m 511.976,213.063 -45.863,-9.749 31.374,-34.845 C 472.114,131.733 417.268,115.015 360.373,127.926 355.071,69.826 322.223,22.83 279.444,10.052 L 256,50.659 232.556,10.053 C 189.777,22.832 156.93,69.828 151.627,127.927 94.733,115.016 39.886,131.734 14.514,168.47 l 31.374,34.844 -45.864,9.749 c -1.066,44.634 33.479,90.396 87.097,113.393 -29.86,50.12 -30.91,107.448 -3.812,142.931 l 42.834,-19.071 -4.901,46.632 c 42.12,14.806 96.318,-3.907 134.758,-47.794 38.44,43.887 92.638,62.6 134.758,47.794 l -4.901,-46.632 42.835,19.072 c 27.097,-35.483 26.048,-92.811 -3.812,-142.932 53.617,-22.996 88.162,-68.759 87.096,-113.393 z m -196.599,83.322 c 3.526,-2.358 7.678,-3.63 11.998,-3.63 3.762,0 7.479,0.998 10.752,2.889 4.986,2.876 8.552,7.525 10.043,13.085 1.49,5.56 0.725,11.369 -2.156,16.353 -3.838,6.65 -10.996,10.781 -18.68,10.781 -3.765,0 -7.484,-1 -10.758,-2.89 -7.126,-4.116 -11.228,-12.025 -10.724,-20.072 l -40.32,-23.278 v 46.552 c 7.222,3.587 12.021,11.096 12.021,19.327 0,11.884 -9.669,21.551 -21.553,21.551 -11.884,0 -21.553,-9.667 -21.553,-21.551 0,-8.231 4.799,-15.74 12.021,-19.327 v -46.552 l -40.319,23.278 c 0.504,8.047 -3.598,15.956 -10.724,20.072 -3.275,1.889 -6.994,2.89 -10.758,2.89 -7.684,0 -14.842,-4.132 -18.682,-10.781 -2.878,-4.984 -3.644,-10.792 -2.154,-16.353 1.49,-5.56 5.057,-10.209 10.043,-13.087 3.272,-1.889 6.989,-2.887 10.752,-2.887 4.321,0 8.473,1.272 11.996,3.63 l 40.312,-23.274 -40.312,-23.272 c -3.523,2.359 -7.675,3.63 -11.996,3.63 -3.762,0 -7.479,-0.998 -10.752,-2.89 -4.986,-2.876 -8.552,-7.525 -10.043,-13.085 -1.49,-5.56 -0.724,-11.369 2.156,-16.353 3.838,-6.65 10.995,-10.781 18.68,-10.781 3.764,0 7.484,1 10.758,2.89 7.126,4.116 11.228,12.025 10.724,20.072 l 40.319,23.278 v -46.552 c -7.222,-3.587 -12.021,-11.096 -12.021,-19.327 0,-11.884 9.669,-21.551 21.553,-21.551 11.884,0 21.553,9.667 21.553,21.551 0,8.231 -4.799,15.74 -12.021,19.327 V 256.6 l 40.32,-23.278 c -0.504,-8.047 3.598,-15.956 10.724,-20.072 3.275,-1.889 6.994,-2.89 10.758,-2.89 7.684,0 14.842,4.132 18.682,10.781 2.878,4.984 3.644,10.792 2.154,16.353 -1.49,5.56 -5.057,10.209 -10.043,13.088 -3.272,1.889 -6.989,2.887 -10.752,2.887 -4.32,0 -8.472,-1.272 -11.998,-3.63 l -40.31,23.272 z"
           id="path4-1-6-2-5-8-3-9-5-9-5-5-2"
           style="fill:#f5b42b;fill-opacity:1" />
      </g>
      <g
         id="g6-4-4-2-1-8-4-9-7-5-3-0-9"
         transform="matrix(0.0234375,0,0,0.0234375,40.544594,56.262002)"
         style="display:inline;fill:#f5b42b;fill-opacity:1">
        <path
           class="st0"
           d="m 511.976,213.063 -45.863,-9.749 31.374,-34.845 C 472.114,131.733 417.268,115.015 360.373,127.926 355.071,69.826 322.223,22.83 279.444,10.052 L 256,50.659 232.556,10.053 C 189.777,22.832 156.93,69.828 151.627,127.927 94.733,115.016 39.886,131.734 14.514,168.47 l 31.374,34.844 -45.864,9.749 c -1.066,44.634 33.479,90.396 87.097,113.393 -29.86,50.12 -30.91,107.448 -3.812,142.931 l 42.834,-19.071 -4.901,46.632 c 42.12,14.806 96.318,-3.907 134.758,-47.794 38.44,43.887 92.638,62.6 134.758,47.794 l -4.901,-46.632 42.835,19.072 c 27.097,-35.483 26.048,-92.811 -3.812,-142.932 53.617,-22.996 88.162,-68.759 87.096,-113.393 z m -196.599,83.322 c 3.526,-2.358 7.678,-3.63 11.998,-3.63 3.762,0 7.479,0.998 10.752,2.889 4.986,2.876 8.552,7.525 10.043,13.085 1.49,5.56 0.725,11.369 -2.156,16.353 -3.838,6.65 -10.996,10.781 -18.68,10.781 -3.765,0 -7.484,-1 -10.758,-2.89 -7.126,-4.116 -11.228,-12.025 -10.724,-20.072 l -40.32,-23.278 v 46.552 c 7.222,3.587 12.021,11.096 12.021,19.327 0,11.884 -9.669,21.551 -21.553,21.551 -11.884,0 -21.553,-9.667 -21.553,-21.551 0,-8.231 4.799,-15.74 12.021,-19.327 v -46.552 l -40.319,23.278 c 0.504,8.047 -3.598,15.956 -10.724,20.072 -3.275,1.889 -6.994,2.89 -10.758,2.89 -7.684,0 -14.842,-4.132 -18.682,-10.781 -2.878,-4.984 -3.644,-10.792 -2.154,-16.353 1.49,-5.56 5.057,-10.209 10.043,-13.087 3.272,-1.889 6.989,-2.887 10.752,-2.887 4.321,0 8.473,1.272 11.996,3.63 l 40.312,-23.274 -40.312,-23.272 c -3.523,2.359 -7.675,3.63 -11.996,3.63 -3.762,0 -7.479,-0.998 -10.752,-2.89 -4.986,-2.876 -8.552,-7.525 -10.043,-13.085 -1.49,-5.56 -0.724,-11.369 2.156,-16.353 3.838,-6.65 10.995,-10.781 18.68,-10.781 3.764,0 7.484,1 10.758,2.89 7.126,4.116 11.228,12.025 10.724,20.072 l 40.319,23.278 v -46.552 c -7.222,-3.587 -12.021,-11.096 -12.021,-19.327 0,-11.884 9.669,-21.551 21.553,-21.551 11.884,0 21.553,9.667 21.553,21.551 0,8.231 -4.799,15.74 -12.021,19.327 V 256.6 l 40.32,-23.278 c -0.504,-8.047 3.598,-15.956 10.724,-20.072 3.275,-1.889 6.994,-2.89 10.758,-2.89 7.684,0 14.842,4.132 18.682,10.781 2.878,4.984 3.644,10.792 2.154,16.353 -1.49,5.56 -5.057,10.209 -10.043,13.088 -3.272,1.889 -6.989,2.887 -10.752,2.887 -4.32,0 -8.472,-1.272 -11.998,-3.63 l -40.31,23.272 z"
           id="path4-1-6-9-5-0-8-6-0-2-6-8-7-1"
           style="fill:#f5b42b;fill-opacity:1" />
      </g>
    </g>
  </g>
</svg>
