<?xml version="1.0" encoding="UTF-8" standalone="no"?>
<!-- Created with Inkscape (http://www.inkscape.org/) -->

<svg
   width="500"
   height="500"
   viewBox="0 0 132.29166 132.29167"
   version="1.1"
   id="svg2515"
   inkscape:version="1.1.2 (b8e25be833, 2022-02-05)"
   sodipodi:docname="bonsai14s06blooming.svg"
   inkscape:export-filename="C:\Users\Lenovo\Desktop\Coding\Media files\Bonsais\bonsai14.png"
   inkscape:export-xdpi="96"
   inkscape:export-ydpi="96"
   xmlns:inkscape="http://www.inkscape.org/namespaces/inkscape"
   xmlns:sodipodi="http://sodipodi.sourceforge.net/DTD/sodipodi-0.dtd"
   xmlns="http://www.w3.org/2000/svg"
   xmlns:svg="http://www.w3.org/2000/svg">
  <sodipodi:namedview
     id="namedview2517"
     pagecolor="#ffffff"
     bordercolor="#666666"
     borderopacity="1.0"
     inkscape:pageshadow="2"
     inkscape:pageopacity="0.0"
     inkscape:pagecheckerboard="0"
     inkscape:document-units="mm"
     showgrid="false"
     units="px"
     inkscape:zoom="1.4142136"
     inkscape:cx="345.42165"
     inkscape:cy="242.18407"
     inkscape:window-width="1920"
     inkscape:window-height="1001"
     inkscape:window-x="-9"
     inkscape:window-y="-9"
     inkscape:window-maximized="1"
     inkscape:current-layer="g17992" />
  <defs
     id="defs2512">
    <marker
       style="overflow:visible"
       id="Arrow1Sstart"
       refX="0.0"
       refY="0.0"
       orient="auto"
       inkscape:stockid="Arrow1Sstart"
       inkscape:isstock="true">
      <path
         transform="scale(0.2) translate(6,0)"
         style="fill-rule:evenodd;fill:context-stroke;stroke:context-stroke;stroke-width:1.0pt"
         d="M 0.0,0.0 L 5.0,-5.0 L -12.5,0.0 L 5.0,5.0 L 0.0,0.0 z "
         id="path24092" />
    </marker>
    <marker
       style="overflow:visible"
       id="Arrow1Mstart"
       refX="0.0"
       refY="0.0"
       orient="auto"
       inkscape:stockid="Arrow1Mstart"
       inkscape:isstock="true">
      <path
         transform="scale(0.4) translate(10,0)"
         style="fill-rule:evenodd;fill:context-stroke;stroke:context-stroke;stroke-width:1.0pt"
         d="M 0.0,0.0 L 5.0,-5.0 L -12.5,0.0 L 5.0,5.0 L 0.0,0.0 z "
         id="path24086" />
    </marker>
    <marker
       style="overflow:visible"
       id="Arrow1Lstart"
       refX="0.0"
       refY="0.0"
       orient="auto"
       inkscape:stockid="Arrow1Lstart"
       inkscape:isstock="true">
      <path
         transform="scale(0.8) translate(12.5,0)"
         style="fill-rule:evenodd;fill:context-stroke;stroke:context-stroke;stroke-width:1.0pt"
         d="M 0.0,0.0 L 5.0,-5.0 L -12.5,0.0 L 5.0,5.0 L 0.0,0.0 z "
         id="path24080" />
    </marker>
    <marker
       style="overflow:visible;"
       id="Arrow1Lend"
       refX="0.0"
       refY="0.0"
       orient="auto"
       inkscape:stockid="Arrow1Lend"
       inkscape:isstock="true">
      <path
         transform="scale(0.8) rotate(180) translate(12.5,0)"
         style="fill-rule:evenodd;fill:context-stroke;stroke:context-stroke;stroke-width:1.0pt;"
         d="M 0.0,0.0 L 5.0,-5.0 L -12.5,0.0 L 5.0,5.0 L 0.0,0.0 z "
         id="path24083" />
    </marker>
  </defs>
  <g
     inkscape:label="Full Cascade Style"
     inkscape:groupmode="layer"
     id="g17992"
     style="display:inline">
    <g
       id="g17906"
       transform="translate(124.68868,23.38778)">
      <path
         style="fill:#e0af9a;fill-opacity:1;stroke:#e0af9a;stroke-width:1;stroke-linecap:round;stroke-linejoin:round;stroke-miterlimit:4;stroke-dasharray:none;stroke-opacity:1"
         d="m -99.500015,30.838997 c 0,0 3.638799,-12.735798 11.176313,-18.453912 7.537513,-5.7181136 12.496916,-8.4784226 23.142885,-10.0872826 10.645968,-1.60885902 11.594881,-2.51410402 19.483052,-1.089031 7.888169,1.425072 21.667403,2.638059 27.063051,17.1643086 6.81601,18.350201 6.7258,20.263344 4.38657,25.721542 -2.33923,5.458201 -12.829945,17.760783 -15.334937,20.793141 -4.938372,5.978028 -5.458199,8.317257 -3.118973,13.255629 0.330604,2.90298 6.162124,16.3246 -1.302394,6.77885 -6.495032,-13.276708 -1.296749,-18.994823 1.822223,-22.893535 3.118972,-3.898715 15.179241,-16.422587 15.075031,-22.61254 -0.10422,-6.189957 -5.4582,-19.233654 -7.277605,-20.013397 -1.819399,-0.779743 -7.017683,-14.5551986 -26.771164,-12.7357996 -19.753485,1.819402 -19.233657,3.3788866 -25.211683,9.6168266 -5.152861,5.376899 -9.876742,12.21597 -7.277599,14.035371 2.599142,1.8194 -15.85477,0.519829 -15.85477,0.519829 z"
         id="path17902"
         sodipodi:nodetypes="cssssssccssssssc" />
      <path
         id="path17904"
         style="display:inline;fill:#c49078;fill-opacity:1;stroke:#c49078;stroke-width:3.77953;stroke-linecap:round;stroke-linejoin:round;stroke-miterlimit:4;stroke-dasharray:none;stroke-opacity:1"
         d="m -198.50781,1.9003906 c -11.86585,0.2218352 -22.69775,2.9847019 -47.84571,6.7851563 -40.23673,6.0807311 -58.98051,16.5132281 -87.46875,38.1250001 -28.48824,21.611769 -42.24023,69.746093 -42.24023,69.746093 0,0 4.05066,0.25117 7.5293,0.46289 4.26508,-12.64023 17.66416,-47.519947 40.73437,-65.021483 28.48824,-21.611765 47.23397,-32.044269 87.47071,-38.125 40.23672,-6.0807282 43.82315,-9.5013383 73.63671,-4.1152345 20.11821,3.6345445 50.36393,6.9268215 74.181644,25.5390625 C -117.04264,12.062664 -150.85821,8.5173186 -172.7168,4.5683594 -183.89688,2.5485708 -191.3883,1.7672895 -198.50781,1.9003906 Z m 85.4707,47.4980474 c 12.08952,11.359811 17.783837,22.610761 20.875001,23.935546 6.876491,2.947061 27.111957,52.245516 27.505859,75.640626 0.393865,23.3951 -45.18832,70.72954 -56.97656,85.46484 -11.78824,14.73529 -31.43683,36.34766 -6.88867,86.52735 6.32744,8.09164 10.12193,11.80717 12.19531,12.59375 -1.72535,-1.89721 -3.75185,-4.31148 -6.17188,-7.40625 -24.54815,-50.17969 -4.89957,-71.79206 6.88867,-86.52735 11.78825,-14.7353 57.370432,-62.06974 56.976568,-85.46484 C -59.026715,130.767 -79.262181,81.468545 -86.138672,78.521484 -89.703333,76.993771 -96.724636,62.271435 -113.03711,49.398438 Z"
         transform="scale(0.26458333)" />
    </g>
    <g
       id="g61999-7-9"
       transform="matrix(0.74146994,0,0,0.92845214,-13.665014,0.74262065)"
       style="display:inline">
      <path
         d="m 107.70689,62.552204 v 10.470444 c 0,3.510139 -2.84304,6.353528 -6.35106,6.353528 H 28.296968 c -3.508022,0 -6.351411,-2.843389 -6.351411,-6.353528 V 62.552204 h 85.761333 v 0"
         style="fill:#7d8dd2;fill-opacity:1;fill-rule:nonzero;stroke:none;stroke-width:0.0352778"
         id="path176-0-95" />
      <path
         d="M 26.886209,73.022648 V 62.552204 h -4.940652 v 10.470444 c 0,3.510139 2.843389,6.353528 6.351411,6.353528 h 4.9403 c -3.50767,0 -6.351059,-2.843389 -6.351059,-6.353528 v 0"
         style="fill:#5b6fbd;fill-opacity:1;fill-rule:nonzero;stroke:none;stroke-width:0.0352778"
         id="path190-0-9" />
      <path
         d="m 21.945557,54.766399 h 85.761333 v 7.785805 H 21.945557 v -7.785805"
         style="fill:#b6bfe6;fill-opacity:1;fill-rule:nonzero;stroke:none;stroke-width:0.0352778"
         id="path196-8-56" />
      <path
         d="m 21.945557,54.766399 h 4.940652 v 7.785805 h -4.940652 v -7.785805"
         style="fill:#8f9ed8;fill-opacity:1;fill-rule:nonzero;stroke:none;stroke-width:0.0352778"
         id="path198-6-7" />
    </g>
    <g
       id="g6644-4-8-5-0-9-1"
       style="display:inline"
       transform="translate(-4.193492,-39.077807)">
      <g
         id="g59683-14-9-3-1-4-3"
         transform="matrix(0.54799605,0,0,0.54799605,-35.105575,18.775417)"
         style="display:inline">
        <g
           id="g59619-4-4-8-6-5-47-1"
           style="display:inline"
           transform="translate(-19.048131,34.631778)">
          <path
             d="M 195.22866,34.197195 161.34222,22.724717 c -3.92302,-1.309458 -6.79892,3.538799 -3.89811,6.28956 l 9.97227,9.456448 -9.45645,9.972268 c -2.75076,2.900808 0.37781,7.590209 4.22636,6.073864 L 195.41623,41.26248 c 2.97021,-1.316737 2.84828,-5.90912 -0.18757,-7.065285 z"
             id="path2-8-3-72-9-5-9-10-1"
             style="fill:#33cc33;fill-opacity:1;stroke-width:0.0781252" />
          <path
             id="path2-8-6-7-3-7-3-4-6-7"
             style="display:inline;fill:#139513;fill-opacity:1;stroke-width:0.0781251"
             d="m 160.099,22.504775 c -3.23955,-0.05452 -5.23815,4.059266 -2.65462,6.509162 l 9.972,9.456788 -9.45627,9.972 c -2.75076,2.90081 0.37755,7.590399 4.2261,6.074048 l 1.4397,-0.574125 c -1.53734,-1.28284 -2.05727,-3.724973 -0.37413,-5.499923 l 9.45627,-9.972 -9.972,-9.456788 c -1.86538,-1.768887 -1.34032,-4.402867 0.31419,-5.71128 L 161.34233,22.7244 c -0.42908,-0.143222 -0.84549,-0.212931 -1.24333,-0.219625 z" />
        </g>
        <g
           id="g59619-8-2-6-3-47-1"
           transform="translate(6.3500003,17.991672)">
          <path
             d="M 195.22866,34.197195 161.34222,22.724717 c -3.92302,-1.309458 -6.79892,3.538799 -3.89811,6.28956 l 9.97227,9.456448 -9.45645,9.972268 c -2.75076,2.900808 0.37781,7.590209 4.22636,6.073864 L 195.41623,41.26248 c 2.97021,-1.316737 2.84828,-5.90912 -0.18757,-7.065285 z"
             id="path2-8-8-3-3-1-5-1"
             style="fill:#33cc33;fill-opacity:1;stroke-width:0.0781252" />
          <path
             id="path2-8-6-6-5-1-5-9-3"
             style="display:inline;fill:#139513;fill-opacity:1;stroke-width:0.0781251"
             d="m 160.099,22.504775 c -3.23955,-0.05452 -5.23815,4.059266 -2.65462,6.509162 l 9.972,9.456788 -9.45627,9.972 c -2.75076,2.90081 0.37755,7.590399 4.2261,6.074048 l 1.4397,-0.574125 c -1.53734,-1.28284 -2.05727,-3.724973 -0.37413,-5.499923 l 9.45627,-9.972 -9.972,-9.456788 c -1.86538,-1.768887 -1.34032,-4.402867 0.31419,-5.71128 L 161.34233,22.7244 c -0.42908,-0.143222 -0.84549,-0.212931 -1.24333,-0.219625 z" />
        </g>
        <g
           id="g59619-7-82-71-3-9-1-2"
           style="display:inline"
           transform="translate(36.353744,34.631761)">
          <path
             d="M 195.22866,34.197195 161.34222,22.724717 c -3.92302,-1.309458 -6.79892,3.538799 -3.89811,6.28956 l 9.97227,9.456448 -9.45645,9.972268 c -2.75076,2.900808 0.37781,7.590209 4.22636,6.073864 L 195.41623,41.26248 c 2.97021,-1.316737 2.84828,-5.90912 -0.18757,-7.065285 z"
             id="path2-8-0-41-6-7-5-7-8"
             style="fill:#33cc33;fill-opacity:1;stroke-width:0.0781252" />
          <path
             id="path2-8-6-2-8-7-0-1-29-1"
             style="display:inline;fill:#139513;fill-opacity:1;stroke-width:0.0781251"
             d="m 160.099,22.504775 c -3.23955,-0.05452 -5.23815,4.059266 -2.65462,6.509162 l 9.972,9.456788 -9.45627,9.972 c -2.75076,2.90081 0.37755,7.590399 4.2261,6.074048 l 1.4397,-0.574125 c -1.53734,-1.28284 -2.05727,-3.724973 -0.37413,-5.499923 l 9.45627,-9.972 -9.972,-9.456788 c -1.86538,-1.768887 -1.34032,-4.402867 0.31419,-5.71128 L 161.34233,22.7244 c -0.42908,-0.143222 -0.84549,-0.212931 -1.24333,-0.219625 z" />
        </g>
      </g>
      <g
         id="g12-6-7-8-0-0-3"
         transform="matrix(0.02343752,0,0,0.02343752,70.55894,48.996759)"
         style="display:inline;fill:#ff8566;fill-opacity:1">
        <g
           id="g10-0-9-4-1-9-4"
           style="fill:#ff8566;fill-opacity:1">
          <path
             d="m 511.109,220.854 c -1.777,-5.181 -5.984,-9.165 -11.263,-10.651 l -30.105,-8.456 19.384,-24.538 c 3.404,-4.298 4.466,-9.99 2.851,-15.226 -1.615,-5.236 -5.703,-9.339 -10.928,-10.982 -35.862,-11.259 -78.652,-20.739 -124.314,-5.908 -4.185,1.361 -8.337,2.922 -12.457,4.684 0.412,-4.462 0.618,-8.89 0.618,-13.28 0,-47.972 -22.289,-85.736 -44.102,-116.352 -3.176,-4.462 -8.586,-7.171 -13.822,-6.993 -5.475,0.087 -10.559,2.856 -13.595,7.416 L 256.085,46.516 238.783,20.568 c -3.035,-4.558 -8.119,-7.329 -13.595,-7.416 -5.377,-0.179 -10.657,2.531 -13.822,6.993 -21.802,30.598 -44.091,68.358 -44.091,116.352 0,4.347 0.207,8.732 0.607,13.145 -4.131,-1.74 -8.315,-3.285 -12.575,-4.646 -46.27,-14.847 -90.609,-4.558 -124.076,6.071 -5.214,1.653 -9.279,5.762 -10.874,10.987 -1.604,5.231 -0.542,10.911 2.841,15.199 l 19.308,24.463 -30.355,8.51 c -5.291,1.485 -9.507,5.481 -11.274,10.684 -1.756,5.204 -0.846,10.944 2.45,15.34 22.625,30.165 51.875,63.003 97.493,77.936 3.676,1.166 7.404,2.196 11.188,3.089 -2.2,2.618 -4.293,5.285 -6.267,8.006 -28.392,39.082 -32.448,84.696 -32.805,120.064 -0.054,5.481 2.591,10.635 7.068,13.784 4.477,3.161 10.234,3.898 15.362,2 l 29.336,-10.857 -1.258,31.265 c -0.216,5.475 2.266,10.706 6.656,13.991 4.369,3.279 10.093,4.19 15.296,2.461 33.531,-11.286 75.659,-29.244 104.042,-68.309 2.309,-3.182 4.51,-6.489 6.592,-9.903 2.07,3.42 4.272,6.727 6.581,9.909 28.381,39.065 70.52,57.024 104.052,68.304 1.735,0.579 3.535,0.867 5.312,0.867 3.556,0 7.068,-1.138 9.995,-3.328 4.379,-3.29 6.863,-8.521 6.645,-13.995 l -1.269,-31.26 29.336,10.857 c 5.128,1.897 10.885,1.16 15.362,-2 4.477,-3.149 7.123,-8.304 7.068,-13.784 -0.357,-35.363 -4.402,-80.971 -32.805,-120.054 -1.984,-2.732 -4.076,-5.415 -6.277,-8.038 3.935,-0.927 7.794,-2.006 11.579,-3.23 45.89,-14.907 75.996,-49.44 97.103,-77.855 3.264,-4.405 4.165,-10.128 2.397,-15.316 z M 255.197,325.216 c -30.604,0 -55.506,-24.902 -55.506,-55.506 0,-30.604 24.902,-55.506 55.506,-55.506 30.604,0 55.506,24.902 55.506,55.506 0,30.604 -24.902,55.506 -55.506,55.506 z"
             id="path8-8-10-4-8-4-2-8"
             style="fill:#ff8566;fill-opacity:1" />
        </g>
      </g>
      <g
         id="g12-2-07-8-3-2-1-4"
         transform="matrix(0.02343752,0,0,0.02343752,54.117007,39.878056)"
         style="display:inline;fill:#ff8566;fill-opacity:1">
        <g
           id="g10-9-7-9-86-3-4-7"
           style="fill:#ff8566;fill-opacity:1">
          <path
             d="m 511.109,220.854 c -1.777,-5.181 -5.984,-9.165 -11.263,-10.651 l -30.105,-8.456 19.384,-24.538 c 3.404,-4.298 4.466,-9.99 2.851,-15.226 -1.615,-5.236 -5.703,-9.339 -10.928,-10.982 -35.862,-11.259 -78.652,-20.739 -124.314,-5.908 -4.185,1.361 -8.337,2.922 -12.457,4.684 0.412,-4.462 0.618,-8.89 0.618,-13.28 0,-47.972 -22.289,-85.736 -44.102,-116.352 -3.176,-4.462 -8.586,-7.171 -13.822,-6.993 -5.475,0.087 -10.559,2.856 -13.595,7.416 L 256.085,46.516 238.783,20.568 c -3.035,-4.558 -8.119,-7.329 -13.595,-7.416 -5.377,-0.179 -10.657,2.531 -13.822,6.993 -21.802,30.598 -44.091,68.358 -44.091,116.352 0,4.347 0.207,8.732 0.607,13.145 -4.131,-1.74 -8.315,-3.285 -12.575,-4.646 -46.27,-14.847 -90.609,-4.558 -124.076,6.071 -5.214,1.653 -9.279,5.762 -10.874,10.987 -1.604,5.231 -0.542,10.911 2.841,15.199 l 19.308,24.463 -30.355,8.51 c -5.291,1.485 -9.507,5.481 -11.274,10.684 -1.756,5.204 -0.846,10.944 2.45,15.34 22.625,30.165 51.875,63.003 97.493,77.936 3.676,1.166 7.404,2.196 11.188,3.089 -2.2,2.618 -4.293,5.285 -6.267,8.006 -28.392,39.082 -32.448,84.696 -32.805,120.064 -0.054,5.481 2.591,10.635 7.068,13.784 4.477,3.161 10.234,3.898 15.362,2 l 29.336,-10.857 -1.258,31.265 c -0.216,5.475 2.266,10.706 6.656,13.991 4.369,3.279 10.093,4.19 15.296,2.461 33.531,-11.286 75.659,-29.244 104.042,-68.309 2.309,-3.182 4.51,-6.489 6.592,-9.903 2.07,3.42 4.272,6.727 6.581,9.909 28.381,39.065 70.52,57.024 104.052,68.304 1.735,0.579 3.535,0.867 5.312,0.867 3.556,0 7.068,-1.138 9.995,-3.328 4.379,-3.29 6.863,-8.521 6.645,-13.995 l -1.269,-31.26 29.336,10.857 c 5.128,1.897 10.885,1.16 15.362,-2 4.477,-3.149 7.123,-8.304 7.068,-13.784 -0.357,-35.363 -4.402,-80.971 -32.805,-120.054 -1.984,-2.732 -4.076,-5.415 -6.277,-8.038 3.935,-0.927 7.794,-2.006 11.579,-3.23 45.89,-14.907 75.996,-49.44 97.103,-77.855 3.264,-4.405 4.165,-10.128 2.397,-15.316 z M 255.197,325.216 c -30.604,0 -55.506,-24.902 -55.506,-55.506 0,-30.604 24.902,-55.506 55.506,-55.506 30.604,0 55.506,24.902 55.506,55.506 0,30.604 -24.902,55.506 -55.506,55.506 z"
             id="path8-8-1-39-5-2-6-2-7"
             style="fill:#ff8566;fill-opacity:1" />
        </g>
      </g>
      <g
         id="g12-2-0-7-6-9-8-13-4"
         transform="matrix(0.02343752,0,0,0.02343752,40.198931,48.996768)"
         style="display:inline;fill:#ff8566;fill-opacity:1">
        <g
           id="g10-9-5-91-9-7-5-0-6"
           style="fill:#ff8566;fill-opacity:1">
          <path
             d="m 511.109,220.854 c -1.777,-5.181 -5.984,-9.165 -11.263,-10.651 l -30.105,-8.456 19.384,-24.538 c 3.404,-4.298 4.466,-9.99 2.851,-15.226 -1.615,-5.236 -5.703,-9.339 -10.928,-10.982 -35.862,-11.259 -78.652,-20.739 -124.314,-5.908 -4.185,1.361 -8.337,2.922 -12.457,4.684 0.412,-4.462 0.618,-8.89 0.618,-13.28 0,-47.972 -22.289,-85.736 -44.102,-116.352 -3.176,-4.462 -8.586,-7.171 -13.822,-6.993 -5.475,0.087 -10.559,2.856 -13.595,7.416 L 256.085,46.516 238.783,20.568 c -3.035,-4.558 -8.119,-7.329 -13.595,-7.416 -5.377,-0.179 -10.657,2.531 -13.822,6.993 -21.802,30.598 -44.091,68.358 -44.091,116.352 0,4.347 0.207,8.732 0.607,13.145 -4.131,-1.74 -8.315,-3.285 -12.575,-4.646 -46.27,-14.847 -90.609,-4.558 -124.076,6.071 -5.214,1.653 -9.279,5.762 -10.874,10.987 -1.604,5.231 -0.542,10.911 2.841,15.199 l 19.308,24.463 -30.355,8.51 c -5.291,1.485 -9.507,5.481 -11.274,10.684 -1.756,5.204 -0.846,10.944 2.45,15.34 22.625,30.165 51.875,63.003 97.493,77.936 3.676,1.166 7.404,2.196 11.188,3.089 -2.2,2.618 -4.293,5.285 -6.267,8.006 -28.392,39.082 -32.448,84.696 -32.805,120.064 -0.054,5.481 2.591,10.635 7.068,13.784 4.477,3.161 10.234,3.898 15.362,2 l 29.336,-10.857 -1.258,31.265 c -0.216,5.475 2.266,10.706 6.656,13.991 4.369,3.279 10.093,4.19 15.296,2.461 33.531,-11.286 75.659,-29.244 104.042,-68.309 2.309,-3.182 4.51,-6.489 6.592,-9.903 2.07,3.42 4.272,6.727 6.581,9.909 28.381,39.065 70.52,57.024 104.052,68.304 1.735,0.579 3.535,0.867 5.312,0.867 3.556,0 7.068,-1.138 9.995,-3.328 4.379,-3.29 6.863,-8.521 6.645,-13.995 l -1.269,-31.26 29.336,10.857 c 5.128,1.897 10.885,1.16 15.362,-2 4.477,-3.149 7.123,-8.304 7.068,-13.784 -0.357,-35.363 -4.402,-80.971 -32.805,-120.054 -1.984,-2.732 -4.076,-5.415 -6.277,-8.038 3.935,-0.927 7.794,-2.006 11.579,-3.23 45.89,-14.907 75.996,-49.44 97.103,-77.855 3.264,-4.405 4.165,-10.128 2.397,-15.316 z M 255.197,325.216 c -30.604,0 -55.506,-24.902 -55.506,-55.506 0,-30.604 24.902,-55.506 55.506,-55.506 30.604,0 55.506,24.902 55.506,55.506 0,30.604 -24.902,55.506 -55.506,55.506 z"
             id="path8-8-1-8-69-6-3-0-55-7"
             style="fill:#ff8566;fill-opacity:1" />
        </g>
      </g>
    </g>
    <g
       id="g6644-4-8-5-0-9-2"
       style="display:inline"
       transform="translate(37.404905,-17.172356)">
      <g
         id="g59683-14-9-3-1-4-9"
         transform="matrix(0.54799605,0,0,0.54799605,-35.105575,18.775417)"
         style="display:inline">
        <g
           id="g59619-4-4-8-6-5-47-5"
           style="display:inline"
           transform="translate(-19.048131,34.631778)">
          <path
             d="M 195.22866,34.197195 161.34222,22.724717 c -3.92302,-1.309458 -6.79892,3.538799 -3.89811,6.28956 l 9.97227,9.456448 -9.45645,9.972268 c -2.75076,2.900808 0.37781,7.590209 4.22636,6.073864 L 195.41623,41.26248 c 2.97021,-1.316737 2.84828,-5.90912 -0.18757,-7.065285 z"
             id="path2-8-3-72-9-5-9-10-4"
             style="fill:#33cc33;fill-opacity:1;stroke-width:0.0781252" />
          <path
             id="path2-8-6-7-3-7-3-4-6-6"
             style="display:inline;fill:#139513;fill-opacity:1;stroke-width:0.0781251"
             d="m 160.099,22.504775 c -3.23955,-0.05452 -5.23815,4.059266 -2.65462,6.509162 l 9.972,9.456788 -9.45627,9.972 c -2.75076,2.90081 0.37755,7.590399 4.2261,6.074048 l 1.4397,-0.574125 c -1.53734,-1.28284 -2.05727,-3.724973 -0.37413,-5.499923 l 9.45627,-9.972 -9.972,-9.456788 c -1.86538,-1.768887 -1.34032,-4.402867 0.31419,-5.71128 L 161.34233,22.7244 c -0.42908,-0.143222 -0.84549,-0.212931 -1.24333,-0.219625 z" />
        </g>
        <g
           id="g59619-8-2-6-3-47-0"
           transform="translate(6.3500003,17.991672)">
          <path
             d="M 195.22866,34.197195 161.34222,22.724717 c -3.92302,-1.309458 -6.79892,3.538799 -3.89811,6.28956 l 9.97227,9.456448 -9.45645,9.972268 c -2.75076,2.900808 0.37781,7.590209 4.22636,6.073864 L 195.41623,41.26248 c 2.97021,-1.316737 2.84828,-5.90912 -0.18757,-7.065285 z"
             id="path2-8-8-3-3-1-5-3"
             style="fill:#33cc33;fill-opacity:1;stroke-width:0.0781252" />
          <path
             id="path2-8-6-6-5-1-5-9-0"
             style="display:inline;fill:#139513;fill-opacity:1;stroke-width:0.0781251"
             d="m 160.099,22.504775 c -3.23955,-0.05452 -5.23815,4.059266 -2.65462,6.509162 l 9.972,9.456788 -9.45627,9.972 c -2.75076,2.90081 0.37755,7.590399 4.2261,6.074048 l 1.4397,-0.574125 c -1.53734,-1.28284 -2.05727,-3.724973 -0.37413,-5.499923 l 9.45627,-9.972 -9.972,-9.456788 c -1.86538,-1.768887 -1.34032,-4.402867 0.31419,-5.71128 L 161.34233,22.7244 c -0.42908,-0.143222 -0.84549,-0.212931 -1.24333,-0.219625 z" />
        </g>
        <g
           id="g59619-7-82-71-3-9-1-9"
           style="display:inline"
           transform="translate(36.353744,34.631761)">
          <path
             d="M 195.22866,34.197195 161.34222,22.724717 c -3.92302,-1.309458 -6.79892,3.538799 -3.89811,6.28956 l 9.97227,9.456448 -9.45645,9.972268 c -2.75076,2.900808 0.37781,7.590209 4.22636,6.073864 L 195.41623,41.26248 c 2.97021,-1.316737 2.84828,-5.90912 -0.18757,-7.065285 z"
             id="path2-8-0-41-6-7-5-7-1"
             style="fill:#33cc33;fill-opacity:1;stroke-width:0.0781252" />
          <path
             id="path2-8-6-2-8-7-0-1-29-3"
             style="display:inline;fill:#139513;fill-opacity:1;stroke-width:0.0781251"
             d="m 160.099,22.504775 c -3.23955,-0.05452 -5.23815,4.059266 -2.65462,6.509162 l 9.972,9.456788 -9.45627,9.972 c -2.75076,2.90081 0.37755,7.590399 4.2261,6.074048 l 1.4397,-0.574125 c -1.53734,-1.28284 -2.05727,-3.724973 -0.37413,-5.499923 l 9.45627,-9.972 -9.972,-9.456788 c -1.86538,-1.768887 -1.34032,-4.402867 0.31419,-5.71128 L 161.34233,22.7244 c -0.42908,-0.143222 -0.84549,-0.212931 -1.24333,-0.219625 z" />
        </g>
      </g>
      <g
         id="g12-6-7-8-0-0-4"
         transform="matrix(0.02343752,0,0,0.02343752,70.55894,48.996759)"
         style="display:inline;fill:#ff8566;fill-opacity:1">
        <g
           id="g10-0-9-4-1-9-7"
           style="fill:#ff8566;fill-opacity:1">
          <path
             d="m 511.109,220.854 c -1.777,-5.181 -5.984,-9.165 -11.263,-10.651 l -30.105,-8.456 19.384,-24.538 c 3.404,-4.298 4.466,-9.99 2.851,-15.226 -1.615,-5.236 -5.703,-9.339 -10.928,-10.982 -35.862,-11.259 -78.652,-20.739 -124.314,-5.908 -4.185,1.361 -8.337,2.922 -12.457,4.684 0.412,-4.462 0.618,-8.89 0.618,-13.28 0,-47.972 -22.289,-85.736 -44.102,-116.352 -3.176,-4.462 -8.586,-7.171 -13.822,-6.993 -5.475,0.087 -10.559,2.856 -13.595,7.416 L 256.085,46.516 238.783,20.568 c -3.035,-4.558 -8.119,-7.329 -13.595,-7.416 -5.377,-0.179 -10.657,2.531 -13.822,6.993 -21.802,30.598 -44.091,68.358 -44.091,116.352 0,4.347 0.207,8.732 0.607,13.145 -4.131,-1.74 -8.315,-3.285 -12.575,-4.646 -46.27,-14.847 -90.609,-4.558 -124.076,6.071 -5.214,1.653 -9.279,5.762 -10.874,10.987 -1.604,5.231 -0.542,10.911 2.841,15.199 l 19.308,24.463 -30.355,8.51 c -5.291,1.485 -9.507,5.481 -11.274,10.684 -1.756,5.204 -0.846,10.944 2.45,15.34 22.625,30.165 51.875,63.003 97.493,77.936 3.676,1.166 7.404,2.196 11.188,3.089 -2.2,2.618 -4.293,5.285 -6.267,8.006 -28.392,39.082 -32.448,84.696 -32.805,120.064 -0.054,5.481 2.591,10.635 7.068,13.784 4.477,3.161 10.234,3.898 15.362,2 l 29.336,-10.857 -1.258,31.265 c -0.216,5.475 2.266,10.706 6.656,13.991 4.369,3.279 10.093,4.19 15.296,2.461 33.531,-11.286 75.659,-29.244 104.042,-68.309 2.309,-3.182 4.51,-6.489 6.592,-9.903 2.07,3.42 4.272,6.727 6.581,9.909 28.381,39.065 70.52,57.024 104.052,68.304 1.735,0.579 3.535,0.867 5.312,0.867 3.556,0 7.068,-1.138 9.995,-3.328 4.379,-3.29 6.863,-8.521 6.645,-13.995 l -1.269,-31.26 29.336,10.857 c 5.128,1.897 10.885,1.16 15.362,-2 4.477,-3.149 7.123,-8.304 7.068,-13.784 -0.357,-35.363 -4.402,-80.971 -32.805,-120.054 -1.984,-2.732 -4.076,-5.415 -6.277,-8.038 3.935,-0.927 7.794,-2.006 11.579,-3.23 45.89,-14.907 75.996,-49.44 97.103,-77.855 3.264,-4.405 4.165,-10.128 2.397,-15.316 z M 255.197,325.216 c -30.604,0 -55.506,-24.902 -55.506,-55.506 0,-30.604 24.902,-55.506 55.506,-55.506 30.604,0 55.506,24.902 55.506,55.506 0,30.604 -24.902,55.506 -55.506,55.506 z"
             id="path8-8-10-4-8-4-2-3"
             style="fill:#ff8566;fill-opacity:1" />
        </g>
      </g>
      <g
         id="g12-2-07-8-3-2-1-3"
         transform="matrix(0.02343752,0,0,0.02343752,54.117007,39.878056)"
         style="display:inline;fill:#ff8566;fill-opacity:1">
        <g
           id="g10-9-7-9-86-3-4-0"
           style="fill:#ff8566;fill-opacity:1">
          <path
             d="m 511.109,220.854 c -1.777,-5.181 -5.984,-9.165 -11.263,-10.651 l -30.105,-8.456 19.384,-24.538 c 3.404,-4.298 4.466,-9.99 2.851,-15.226 -1.615,-5.236 -5.703,-9.339 -10.928,-10.982 -35.862,-11.259 -78.652,-20.739 -124.314,-5.908 -4.185,1.361 -8.337,2.922 -12.457,4.684 0.412,-4.462 0.618,-8.89 0.618,-13.28 0,-47.972 -22.289,-85.736 -44.102,-116.352 -3.176,-4.462 -8.586,-7.171 -13.822,-6.993 -5.475,0.087 -10.559,2.856 -13.595,7.416 L 256.085,46.516 238.783,20.568 c -3.035,-4.558 -8.119,-7.329 -13.595,-7.416 -5.377,-0.179 -10.657,2.531 -13.822,6.993 -21.802,30.598 -44.091,68.358 -44.091,116.352 0,4.347 0.207,8.732 0.607,13.145 -4.131,-1.74 -8.315,-3.285 -12.575,-4.646 -46.27,-14.847 -90.609,-4.558 -124.076,6.071 -5.214,1.653 -9.279,5.762 -10.874,10.987 -1.604,5.231 -0.542,10.911 2.841,15.199 l 19.308,24.463 -30.355,8.51 c -5.291,1.485 -9.507,5.481 -11.274,10.684 -1.756,5.204 -0.846,10.944 2.45,15.34 22.625,30.165 51.875,63.003 97.493,77.936 3.676,1.166 7.404,2.196 11.188,3.089 -2.2,2.618 -4.293,5.285 -6.267,8.006 -28.392,39.082 -32.448,84.696 -32.805,120.064 -0.054,5.481 2.591,10.635 7.068,13.784 4.477,3.161 10.234,3.898 15.362,2 l 29.336,-10.857 -1.258,31.265 c -0.216,5.475 2.266,10.706 6.656,13.991 4.369,3.279 10.093,4.19 15.296,2.461 33.531,-11.286 75.659,-29.244 104.042,-68.309 2.309,-3.182 4.51,-6.489 6.592,-9.903 2.07,3.42 4.272,6.727 6.581,9.909 28.381,39.065 70.52,57.024 104.052,68.304 1.735,0.579 3.535,0.867 5.312,0.867 3.556,0 7.068,-1.138 9.995,-3.328 4.379,-3.29 6.863,-8.521 6.645,-13.995 l -1.269,-31.26 29.336,10.857 c 5.128,1.897 10.885,1.16 15.362,-2 4.477,-3.149 7.123,-8.304 7.068,-13.784 -0.357,-35.363 -4.402,-80.971 -32.805,-120.054 -1.984,-2.732 -4.076,-5.415 -6.277,-8.038 3.935,-0.927 7.794,-2.006 11.579,-3.23 45.89,-14.907 75.996,-49.44 97.103,-77.855 3.264,-4.405 4.165,-10.128 2.397,-15.316 z M 255.197,325.216 c -30.604,0 -55.506,-24.902 -55.506,-55.506 0,-30.604 24.902,-55.506 55.506,-55.506 30.604,0 55.506,24.902 55.506,55.506 0,30.604 -24.902,55.506 -55.506,55.506 z"
             id="path8-8-1-39-5-2-6-2-0"
             style="fill:#ff8566;fill-opacity:1" />
        </g>
      </g>
      <g
         id="g12-2-0-7-6-9-8-13-9"
         transform="matrix(0.02343752,0,0,0.02343752,40.198931,48.996768)"
         style="display:inline;fill:#ff8566;fill-opacity:1">
        <g
           id="g10-9-5-91-9-7-5-0-5"
           style="fill:#ff8566;fill-opacity:1">
          <path
             d="m 511.109,220.854 c -1.777,-5.181 -5.984,-9.165 -11.263,-10.651 l -30.105,-8.456 19.384,-24.538 c 3.404,-4.298 4.466,-9.99 2.851,-15.226 -1.615,-5.236 -5.703,-9.339 -10.928,-10.982 -35.862,-11.259 -78.652,-20.739 -124.314,-5.908 -4.185,1.361 -8.337,2.922 -12.457,4.684 0.412,-4.462 0.618,-8.89 0.618,-13.28 0,-47.972 -22.289,-85.736 -44.102,-116.352 -3.176,-4.462 -8.586,-7.171 -13.822,-6.993 -5.475,0.087 -10.559,2.856 -13.595,7.416 L 256.085,46.516 238.783,20.568 c -3.035,-4.558 -8.119,-7.329 -13.595,-7.416 -5.377,-0.179 -10.657,2.531 -13.822,6.993 -21.802,30.598 -44.091,68.358 -44.091,116.352 0,4.347 0.207,8.732 0.607,13.145 -4.131,-1.74 -8.315,-3.285 -12.575,-4.646 -46.27,-14.847 -90.609,-4.558 -124.076,6.071 -5.214,1.653 -9.279,5.762 -10.874,10.987 -1.604,5.231 -0.542,10.911 2.841,15.199 l 19.308,24.463 -30.355,8.51 c -5.291,1.485 -9.507,5.481 -11.274,10.684 -1.756,5.204 -0.846,10.944 2.45,15.34 22.625,30.165 51.875,63.003 97.493,77.936 3.676,1.166 7.404,2.196 11.188,3.089 -2.2,2.618 -4.293,5.285 -6.267,8.006 -28.392,39.082 -32.448,84.696 -32.805,120.064 -0.054,5.481 2.591,10.635 7.068,13.784 4.477,3.161 10.234,3.898 15.362,2 l 29.336,-10.857 -1.258,31.265 c -0.216,5.475 2.266,10.706 6.656,13.991 4.369,3.279 10.093,4.19 15.296,2.461 33.531,-11.286 75.659,-29.244 104.042,-68.309 2.309,-3.182 4.51,-6.489 6.592,-9.903 2.07,3.42 4.272,6.727 6.581,9.909 28.381,39.065 70.52,57.024 104.052,68.304 1.735,0.579 3.535,0.867 5.312,0.867 3.556,0 7.068,-1.138 9.995,-3.328 4.379,-3.29 6.863,-8.521 6.645,-13.995 l -1.269,-31.26 29.336,10.857 c 5.128,1.897 10.885,1.16 15.362,-2 4.477,-3.149 7.123,-8.304 7.068,-13.784 -0.357,-35.363 -4.402,-80.971 -32.805,-120.054 -1.984,-2.732 -4.076,-5.415 -6.277,-8.038 3.935,-0.927 7.794,-2.006 11.579,-3.23 45.89,-14.907 75.996,-49.44 97.103,-77.855 3.264,-4.405 4.165,-10.128 2.397,-15.316 z M 255.197,325.216 c -30.604,0 -55.506,-24.902 -55.506,-55.506 0,-30.604 24.902,-55.506 55.506,-55.506 30.604,0 55.506,24.902 55.506,55.506 0,30.604 -24.902,55.506 -55.506,55.506 z"
             id="path8-8-1-8-69-6-3-0-55-2"
             style="fill:#ff8566;fill-opacity:1" />
        </g>
      </g>
    </g>
    <g
       id="g6644-4-8-5-0-9-7"
       style="display:inline"
       transform="matrix(0.8490566,0,0,0.8490566,33.429238,16.707289)">
      <g
         id="g59683-14-9-3-1-4-5"
         transform="matrix(0.54799605,0,0,0.54799605,-35.105575,18.775417)"
         style="display:inline">
        <g
           id="g59619-4-4-8-6-5-47-2"
           style="display:inline"
           transform="translate(-19.048131,34.631778)">
          <path
             d="M 195.22866,34.197195 161.34222,22.724717 c -3.92302,-1.309458 -6.79892,3.538799 -3.89811,6.28956 l 9.97227,9.456448 -9.45645,9.972268 c -2.75076,2.900808 0.37781,7.590209 4.22636,6.073864 L 195.41623,41.26248 c 2.97021,-1.316737 2.84828,-5.90912 -0.18757,-7.065285 z"
             id="path2-8-3-72-9-5-9-10-0"
             style="fill:#33cc33;fill-opacity:1;stroke-width:0.0781252" />
          <path
             id="path2-8-6-7-3-7-3-4-6-1"
             style="display:inline;fill:#139513;fill-opacity:1;stroke-width:0.0781251"
             d="m 160.099,22.504775 c -3.23955,-0.05452 -5.23815,4.059266 -2.65462,6.509162 l 9.972,9.456788 -9.45627,9.972 c -2.75076,2.90081 0.37755,7.590399 4.2261,6.074048 l 1.4397,-0.574125 c -1.53734,-1.28284 -2.05727,-3.724973 -0.37413,-5.499923 l 9.45627,-9.972 -9.972,-9.456788 c -1.86538,-1.768887 -1.34032,-4.402867 0.31419,-5.71128 L 161.34233,22.7244 c -0.42908,-0.143222 -0.84549,-0.212931 -1.24333,-0.219625 z" />
        </g>
        <g
           id="g59619-8-2-6-3-47-6"
           transform="translate(6.3500003,17.991672)">
          <path
             d="M 195.22866,34.197195 161.34222,22.724717 c -3.92302,-1.309458 -6.79892,3.538799 -3.89811,6.28956 l 9.97227,9.456448 -9.45645,9.972268 c -2.75076,2.900808 0.37781,7.590209 4.22636,6.073864 L 195.41623,41.26248 c 2.97021,-1.316737 2.84828,-5.90912 -0.18757,-7.065285 z"
             id="path2-8-8-3-3-1-5-5"
             style="fill:#33cc33;fill-opacity:1;stroke-width:0.0781252" />
          <path
             id="path2-8-6-6-5-1-5-9-7"
             style="display:inline;fill:#139513;fill-opacity:1;stroke-width:0.0781251"
             d="m 160.099,22.504775 c -3.23955,-0.05452 -5.23815,4.059266 -2.65462,6.509162 l 9.972,9.456788 -9.45627,9.972 c -2.75076,2.90081 0.37755,7.590399 4.2261,6.074048 l 1.4397,-0.574125 c -1.53734,-1.28284 -2.05727,-3.724973 -0.37413,-5.499923 l 9.45627,-9.972 -9.972,-9.456788 c -1.86538,-1.768887 -1.34032,-4.402867 0.31419,-5.71128 L 161.34233,22.7244 c -0.42908,-0.143222 -0.84549,-0.212931 -1.24333,-0.219625 z" />
        </g>
        <g
           id="g59619-7-82-71-3-9-1-5"
           style="display:inline"
           transform="translate(36.353744,34.631761)">
          <path
             d="M 195.22866,34.197195 161.34222,22.724717 c -3.92302,-1.309458 -6.79892,3.538799 -3.89811,6.28956 l 9.97227,9.456448 -9.45645,9.972268 c -2.75076,2.900808 0.37781,7.590209 4.22636,6.073864 L 195.41623,41.26248 c 2.97021,-1.316737 2.84828,-5.90912 -0.18757,-7.065285 z"
             id="path2-8-0-41-6-7-5-7-0"
             style="fill:#33cc33;fill-opacity:1;stroke-width:0.0781252" />
          <path
             id="path2-8-6-2-8-7-0-1-29-4"
             style="display:inline;fill:#139513;fill-opacity:1;stroke-width:0.0781251"
             d="m 160.099,22.504775 c -3.23955,-0.05452 -5.23815,4.059266 -2.65462,6.509162 l 9.972,9.456788 -9.45627,9.972 c -2.75076,2.90081 0.37755,7.590399 4.2261,6.074048 l 1.4397,-0.574125 c -1.53734,-1.28284 -2.05727,-3.724973 -0.37413,-5.499923 l 9.45627,-9.972 -9.972,-9.456788 c -1.86538,-1.768887 -1.34032,-4.402867 0.31419,-5.71128 L 161.34233,22.7244 c -0.42908,-0.143222 -0.84549,-0.212931 -1.24333,-0.219625 z" />
        </g>
      </g>
      <g
         id="g12-6-7-8-0-0-2"
         transform="matrix(0.02343752,0,0,0.02343752,70.55894,48.996759)"
         style="display:inline;fill:#ff8566;fill-opacity:1">
        <g
           id="g10-0-9-4-1-9-3"
           style="fill:#ff8566;fill-opacity:1">
          <path
             d="m 511.109,220.854 c -1.777,-5.181 -5.984,-9.165 -11.263,-10.651 l -30.105,-8.456 19.384,-24.538 c 3.404,-4.298 4.466,-9.99 2.851,-15.226 -1.615,-5.236 -5.703,-9.339 -10.928,-10.982 -35.862,-11.259 -78.652,-20.739 -124.314,-5.908 -4.185,1.361 -8.337,2.922 -12.457,4.684 0.412,-4.462 0.618,-8.89 0.618,-13.28 0,-47.972 -22.289,-85.736 -44.102,-116.352 -3.176,-4.462 -8.586,-7.171 -13.822,-6.993 -5.475,0.087 -10.559,2.856 -13.595,7.416 L 256.085,46.516 238.783,20.568 c -3.035,-4.558 -8.119,-7.329 -13.595,-7.416 -5.377,-0.179 -10.657,2.531 -13.822,6.993 -21.802,30.598 -44.091,68.358 -44.091,116.352 0,4.347 0.207,8.732 0.607,13.145 -4.131,-1.74 -8.315,-3.285 -12.575,-4.646 -46.27,-14.847 -90.609,-4.558 -124.076,6.071 -5.214,1.653 -9.279,5.762 -10.874,10.987 -1.604,5.231 -0.542,10.911 2.841,15.199 l 19.308,24.463 -30.355,8.51 c -5.291,1.485 -9.507,5.481 -11.274,10.684 -1.756,5.204 -0.846,10.944 2.45,15.34 22.625,30.165 51.875,63.003 97.493,77.936 3.676,1.166 7.404,2.196 11.188,3.089 -2.2,2.618 -4.293,5.285 -6.267,8.006 -28.392,39.082 -32.448,84.696 -32.805,120.064 -0.054,5.481 2.591,10.635 7.068,13.784 4.477,3.161 10.234,3.898 15.362,2 l 29.336,-10.857 -1.258,31.265 c -0.216,5.475 2.266,10.706 6.656,13.991 4.369,3.279 10.093,4.19 15.296,2.461 33.531,-11.286 75.659,-29.244 104.042,-68.309 2.309,-3.182 4.51,-6.489 6.592,-9.903 2.07,3.42 4.272,6.727 6.581,9.909 28.381,39.065 70.52,57.024 104.052,68.304 1.735,0.579 3.535,0.867 5.312,0.867 3.556,0 7.068,-1.138 9.995,-3.328 4.379,-3.29 6.863,-8.521 6.645,-13.995 l -1.269,-31.26 29.336,10.857 c 5.128,1.897 10.885,1.16 15.362,-2 4.477,-3.149 7.123,-8.304 7.068,-13.784 -0.357,-35.363 -4.402,-80.971 -32.805,-120.054 -1.984,-2.732 -4.076,-5.415 -6.277,-8.038 3.935,-0.927 7.794,-2.006 11.579,-3.23 45.89,-14.907 75.996,-49.44 97.103,-77.855 3.264,-4.405 4.165,-10.128 2.397,-15.316 z M 255.197,325.216 c -30.604,0 -55.506,-24.902 -55.506,-55.506 0,-30.604 24.902,-55.506 55.506,-55.506 30.604,0 55.506,24.902 55.506,55.506 0,30.604 -24.902,55.506 -55.506,55.506 z"
             id="path8-8-10-4-8-4-2-5"
             style="fill:#ff8566;fill-opacity:1" />
        </g>
      </g>
      <g
         id="g12-2-07-8-3-2-1-30"
         transform="matrix(0.02343752,0,0,0.02343752,54.117007,39.878056)"
         style="display:inline;fill:#ff8566;fill-opacity:1">
        <g
           id="g10-9-7-9-86-3-4-9"
           style="fill:#ff8566;fill-opacity:1">
          <path
             d="m 511.109,220.854 c -1.777,-5.181 -5.984,-9.165 -11.263,-10.651 l -30.105,-8.456 19.384,-24.538 c 3.404,-4.298 4.466,-9.99 2.851,-15.226 -1.615,-5.236 -5.703,-9.339 -10.928,-10.982 -35.862,-11.259 -78.652,-20.739 -124.314,-5.908 -4.185,1.361 -8.337,2.922 -12.457,4.684 0.412,-4.462 0.618,-8.89 0.618,-13.28 0,-47.972 -22.289,-85.736 -44.102,-116.352 -3.176,-4.462 -8.586,-7.171 -13.822,-6.993 -5.475,0.087 -10.559,2.856 -13.595,7.416 L 256.085,46.516 238.783,20.568 c -3.035,-4.558 -8.119,-7.329 -13.595,-7.416 -5.377,-0.179 -10.657,2.531 -13.822,6.993 -21.802,30.598 -44.091,68.358 -44.091,116.352 0,4.347 0.207,8.732 0.607,13.145 -4.131,-1.74 -8.315,-3.285 -12.575,-4.646 -46.27,-14.847 -90.609,-4.558 -124.076,6.071 -5.214,1.653 -9.279,5.762 -10.874,10.987 -1.604,5.231 -0.542,10.911 2.841,15.199 l 19.308,24.463 -30.355,8.51 c -5.291,1.485 -9.507,5.481 -11.274,10.684 -1.756,5.204 -0.846,10.944 2.45,15.34 22.625,30.165 51.875,63.003 97.493,77.936 3.676,1.166 7.404,2.196 11.188,3.089 -2.2,2.618 -4.293,5.285 -6.267,8.006 -28.392,39.082 -32.448,84.696 -32.805,120.064 -0.054,5.481 2.591,10.635 7.068,13.784 4.477,3.161 10.234,3.898 15.362,2 l 29.336,-10.857 -1.258,31.265 c -0.216,5.475 2.266,10.706 6.656,13.991 4.369,3.279 10.093,4.19 15.296,2.461 33.531,-11.286 75.659,-29.244 104.042,-68.309 2.309,-3.182 4.51,-6.489 6.592,-9.903 2.07,3.42 4.272,6.727 6.581,9.909 28.381,39.065 70.52,57.024 104.052,68.304 1.735,0.579 3.535,0.867 5.312,0.867 3.556,0 7.068,-1.138 9.995,-3.328 4.379,-3.29 6.863,-8.521 6.645,-13.995 l -1.269,-31.26 29.336,10.857 c 5.128,1.897 10.885,1.16 15.362,-2 4.477,-3.149 7.123,-8.304 7.068,-13.784 -0.357,-35.363 -4.402,-80.971 -32.805,-120.054 -1.984,-2.732 -4.076,-5.415 -6.277,-8.038 3.935,-0.927 7.794,-2.006 11.579,-3.23 45.89,-14.907 75.996,-49.44 97.103,-77.855 3.264,-4.405 4.165,-10.128 2.397,-15.316 z M 255.197,325.216 c -30.604,0 -55.506,-24.902 -55.506,-55.506 0,-30.604 24.902,-55.506 55.506,-55.506 30.604,0 55.506,24.902 55.506,55.506 0,30.604 -24.902,55.506 -55.506,55.506 z"
             id="path8-8-1-39-5-2-6-2-3"
             style="fill:#ff8566;fill-opacity:1" />
        </g>
      </g>
      <g
         id="g12-2-0-7-6-9-8-13-5"
         transform="matrix(0.02343752,0,0,0.02343752,40.198931,48.996768)"
         style="display:inline;fill:#ff8566;fill-opacity:1">
        <g
           id="g10-9-5-91-9-7-5-0-66"
           style="fill:#ff8566;fill-opacity:1">
          <path
             d="m 511.109,220.854 c -1.777,-5.181 -5.984,-9.165 -11.263,-10.651 l -30.105,-8.456 19.384,-24.538 c 3.404,-4.298 4.466,-9.99 2.851,-15.226 -1.615,-5.236 -5.703,-9.339 -10.928,-10.982 -35.862,-11.259 -78.652,-20.739 -124.314,-5.908 -4.185,1.361 -8.337,2.922 -12.457,4.684 0.412,-4.462 0.618,-8.89 0.618,-13.28 0,-47.972 -22.289,-85.736 -44.102,-116.352 -3.176,-4.462 -8.586,-7.171 -13.822,-6.993 -5.475,0.087 -10.559,2.856 -13.595,7.416 L 256.085,46.516 238.783,20.568 c -3.035,-4.558 -8.119,-7.329 -13.595,-7.416 -5.377,-0.179 -10.657,2.531 -13.822,6.993 -21.802,30.598 -44.091,68.358 -44.091,116.352 0,4.347 0.207,8.732 0.607,13.145 -4.131,-1.74 -8.315,-3.285 -12.575,-4.646 -46.27,-14.847 -90.609,-4.558 -124.076,6.071 -5.214,1.653 -9.279,5.762 -10.874,10.987 -1.604,5.231 -0.542,10.911 2.841,15.199 l 19.308,24.463 -30.355,8.51 c -5.291,1.485 -9.507,5.481 -11.274,10.684 -1.756,5.204 -0.846,10.944 2.45,15.34 22.625,30.165 51.875,63.003 97.493,77.936 3.676,1.166 7.404,2.196 11.188,3.089 -2.2,2.618 -4.293,5.285 -6.267,8.006 -28.392,39.082 -32.448,84.696 -32.805,120.064 -0.054,5.481 2.591,10.635 7.068,13.784 4.477,3.161 10.234,3.898 15.362,2 l 29.336,-10.857 -1.258,31.265 c -0.216,5.475 2.266,10.706 6.656,13.991 4.369,3.279 10.093,4.19 15.296,2.461 33.531,-11.286 75.659,-29.244 104.042,-68.309 2.309,-3.182 4.51,-6.489 6.592,-9.903 2.07,3.42 4.272,6.727 6.581,9.909 28.381,39.065 70.52,57.024 104.052,68.304 1.735,0.579 3.535,0.867 5.312,0.867 3.556,0 7.068,-1.138 9.995,-3.328 4.379,-3.29 6.863,-8.521 6.645,-13.995 l -1.269,-31.26 29.336,10.857 c 5.128,1.897 10.885,1.16 15.362,-2 4.477,-3.149 7.123,-8.304 7.068,-13.784 -0.357,-35.363 -4.402,-80.971 -32.805,-120.054 -1.984,-2.732 -4.076,-5.415 -6.277,-8.038 3.935,-0.927 7.794,-2.006 11.579,-3.23 45.89,-14.907 75.996,-49.44 97.103,-77.855 3.264,-4.405 4.165,-10.128 2.397,-15.316 z M 255.197,325.216 c -30.604,0 -55.506,-24.902 -55.506,-55.506 0,-30.604 24.902,-55.506 55.506,-55.506 30.604,0 55.506,24.902 55.506,55.506 0,30.604 -24.902,55.506 -55.506,55.506 z"
             id="path8-8-1-8-69-6-3-0-55-21"
             style="fill:#ff8566;fill-opacity:1" />
        </g>
      </g>
    </g>
    <g
       id="g6644-4-8-5-0-9-7-4"
       style="display:inline"
       transform="matrix(0.8490566,0,0,0.8490566,50.540008,43.15877)">
      <g
         id="g59683-14-9-3-1-4-5-0"
         transform="matrix(0.54799605,0,0,0.54799605,-35.105575,18.775417)"
         style="display:inline">
        <g
           id="g59619-4-4-8-6-5-47-2-6"
           style="display:inline"
           transform="translate(-19.048131,34.631778)">
          <path
             d="M 195.22866,34.197195 161.34222,22.724717 c -3.92302,-1.309458 -6.79892,3.538799 -3.89811,6.28956 l 9.97227,9.456448 -9.45645,9.972268 c -2.75076,2.900808 0.37781,7.590209 4.22636,6.073864 L 195.41623,41.26248 c 2.97021,-1.316737 2.84828,-5.90912 -0.18757,-7.065285 z"
             id="path2-8-3-72-9-5-9-10-0-9"
             style="fill:#33cc33;fill-opacity:1;stroke-width:0.0781252" />
          <path
             id="path2-8-6-7-3-7-3-4-6-1-2"
             style="display:inline;fill:#139513;fill-opacity:1;stroke-width:0.0781251"
             d="m 160.099,22.504775 c -3.23955,-0.05452 -5.23815,4.059266 -2.65462,6.509162 l 9.972,9.456788 -9.45627,9.972 c -2.75076,2.90081 0.37755,7.590399 4.2261,6.074048 l 1.4397,-0.574125 c -1.53734,-1.28284 -2.05727,-3.724973 -0.37413,-5.499923 l 9.45627,-9.972 -9.972,-9.456788 c -1.86538,-1.768887 -1.34032,-4.402867 0.31419,-5.71128 L 161.34233,22.7244 c -0.42908,-0.143222 -0.84549,-0.212931 -1.24333,-0.219625 z" />
        </g>
        <g
           id="g59619-8-2-6-3-47-6-3"
           transform="translate(6.3500003,17.991672)">
          <path
             d="M 195.22866,34.197195 161.34222,22.724717 c -3.92302,-1.309458 -6.79892,3.538799 -3.89811,6.28956 l 9.97227,9.456448 -9.45645,9.972268 c -2.75076,2.900808 0.37781,7.590209 4.22636,6.073864 L 195.41623,41.26248 c 2.97021,-1.316737 2.84828,-5.90912 -0.18757,-7.065285 z"
             id="path2-8-8-3-3-1-5-5-5"
             style="fill:#33cc33;fill-opacity:1;stroke-width:0.0781252" />
          <path
             id="path2-8-6-6-5-1-5-9-7-6"
             style="display:inline;fill:#139513;fill-opacity:1;stroke-width:0.0781251"
             d="m 160.099,22.504775 c -3.23955,-0.05452 -5.23815,4.059266 -2.65462,6.509162 l 9.972,9.456788 -9.45627,9.972 c -2.75076,2.90081 0.37755,7.590399 4.2261,6.074048 l 1.4397,-0.574125 c -1.53734,-1.28284 -2.05727,-3.724973 -0.37413,-5.499923 l 9.45627,-9.972 -9.972,-9.456788 c -1.86538,-1.768887 -1.34032,-4.402867 0.31419,-5.71128 L 161.34233,22.7244 c -0.42908,-0.143222 -0.84549,-0.212931 -1.24333,-0.219625 z" />
        </g>
        <g
           id="g59619-7-82-71-3-9-1-5-9"
           style="display:inline"
           transform="translate(36.353744,34.631761)">
          <path
             d="M 195.22866,34.197195 161.34222,22.724717 c -3.92302,-1.309458 -6.79892,3.538799 -3.89811,6.28956 l 9.97227,9.456448 -9.45645,9.972268 c -2.75076,2.900808 0.37781,7.590209 4.22636,6.073864 L 195.41623,41.26248 c 2.97021,-1.316737 2.84828,-5.90912 -0.18757,-7.065285 z"
             id="path2-8-0-41-6-7-5-7-0-5"
             style="fill:#33cc33;fill-opacity:1;stroke-width:0.0781252" />
          <path
             id="path2-8-6-2-8-7-0-1-29-4-0"
             style="display:inline;fill:#139513;fill-opacity:1;stroke-width:0.0781251"
             d="m 160.099,22.504775 c -3.23955,-0.05452 -5.23815,4.059266 -2.65462,6.509162 l 9.972,9.456788 -9.45627,9.972 c -2.75076,2.90081 0.37755,7.590399 4.2261,6.074048 l 1.4397,-0.574125 c -1.53734,-1.28284 -2.05727,-3.724973 -0.37413,-5.499923 l 9.45627,-9.972 -9.972,-9.456788 c -1.86538,-1.768887 -1.34032,-4.402867 0.31419,-5.71128 L 161.34233,22.7244 c -0.42908,-0.143222 -0.84549,-0.212931 -1.24333,-0.219625 z" />
        </g>
      </g>
      <g
         id="g12-6-7-8-0-0-2-9"
         transform="matrix(0.02343752,0,0,0.02343752,70.55894,48.996759)"
         style="display:inline;fill:#ff8566;fill-opacity:1">
        <g
           id="g10-0-9-4-1-9-3-4"
           style="fill:#ff8566;fill-opacity:1">
          <path
             d="m 511.109,220.854 c -1.777,-5.181 -5.984,-9.165 -11.263,-10.651 l -30.105,-8.456 19.384,-24.538 c 3.404,-4.298 4.466,-9.99 2.851,-15.226 -1.615,-5.236 -5.703,-9.339 -10.928,-10.982 -35.862,-11.259 -78.652,-20.739 -124.314,-5.908 -4.185,1.361 -8.337,2.922 -12.457,4.684 0.412,-4.462 0.618,-8.89 0.618,-13.28 0,-47.972 -22.289,-85.736 -44.102,-116.352 -3.176,-4.462 -8.586,-7.171 -13.822,-6.993 -5.475,0.087 -10.559,2.856 -13.595,7.416 L 256.085,46.516 238.783,20.568 c -3.035,-4.558 -8.119,-7.329 -13.595,-7.416 -5.377,-0.179 -10.657,2.531 -13.822,6.993 -21.802,30.598 -44.091,68.358 -44.091,116.352 0,4.347 0.207,8.732 0.607,13.145 -4.131,-1.74 -8.315,-3.285 -12.575,-4.646 -46.27,-14.847 -90.609,-4.558 -124.076,6.071 -5.214,1.653 -9.279,5.762 -10.874,10.987 -1.604,5.231 -0.542,10.911 2.841,15.199 l 19.308,24.463 -30.355,8.51 c -5.291,1.485 -9.507,5.481 -11.274,10.684 -1.756,5.204 -0.846,10.944 2.45,15.34 22.625,30.165 51.875,63.003 97.493,77.936 3.676,1.166 7.404,2.196 11.188,3.089 -2.2,2.618 -4.293,5.285 -6.267,8.006 -28.392,39.082 -32.448,84.696 -32.805,120.064 -0.054,5.481 2.591,10.635 7.068,13.784 4.477,3.161 10.234,3.898 15.362,2 l 29.336,-10.857 -1.258,31.265 c -0.216,5.475 2.266,10.706 6.656,13.991 4.369,3.279 10.093,4.19 15.296,2.461 33.531,-11.286 75.659,-29.244 104.042,-68.309 2.309,-3.182 4.51,-6.489 6.592,-9.903 2.07,3.42 4.272,6.727 6.581,9.909 28.381,39.065 70.52,57.024 104.052,68.304 1.735,0.579 3.535,0.867 5.312,0.867 3.556,0 7.068,-1.138 9.995,-3.328 4.379,-3.29 6.863,-8.521 6.645,-13.995 l -1.269,-31.26 29.336,10.857 c 5.128,1.897 10.885,1.16 15.362,-2 4.477,-3.149 7.123,-8.304 7.068,-13.784 -0.357,-35.363 -4.402,-80.971 -32.805,-120.054 -1.984,-2.732 -4.076,-5.415 -6.277,-8.038 3.935,-0.927 7.794,-2.006 11.579,-3.23 45.89,-14.907 75.996,-49.44 97.103,-77.855 3.264,-4.405 4.165,-10.128 2.397,-15.316 z M 255.197,325.216 c -30.604,0 -55.506,-24.902 -55.506,-55.506 0,-30.604 24.902,-55.506 55.506,-55.506 30.604,0 55.506,24.902 55.506,55.506 0,30.604 -24.902,55.506 -55.506,55.506 z"
             id="path8-8-10-4-8-4-2-5-0"
             style="fill:#ff8566;fill-opacity:1" />
        </g>
      </g>
      <g
         id="g12-2-07-8-3-2-1-30-3"
         transform="matrix(0.02343752,0,0,0.02343752,54.117007,39.878056)"
         style="display:inline;fill:#ff8566;fill-opacity:1">
        <g
           id="g10-9-7-9-86-3-4-9-0"
           style="fill:#ff8566;fill-opacity:1">
          <path
             d="m 511.109,220.854 c -1.777,-5.181 -5.984,-9.165 -11.263,-10.651 l -30.105,-8.456 19.384,-24.538 c 3.404,-4.298 4.466,-9.99 2.851,-15.226 -1.615,-5.236 -5.703,-9.339 -10.928,-10.982 -35.862,-11.259 -78.652,-20.739 -124.314,-5.908 -4.185,1.361 -8.337,2.922 -12.457,4.684 0.412,-4.462 0.618,-8.89 0.618,-13.28 0,-47.972 -22.289,-85.736 -44.102,-116.352 -3.176,-4.462 -8.586,-7.171 -13.822,-6.993 -5.475,0.087 -10.559,2.856 -13.595,7.416 L 256.085,46.516 238.783,20.568 c -3.035,-4.558 -8.119,-7.329 -13.595,-7.416 -5.377,-0.179 -10.657,2.531 -13.822,6.993 -21.802,30.598 -44.091,68.358 -44.091,116.352 0,4.347 0.207,8.732 0.607,13.145 -4.131,-1.74 -8.315,-3.285 -12.575,-4.646 -46.27,-14.847 -90.609,-4.558 -124.076,6.071 -5.214,1.653 -9.279,5.762 -10.874,10.987 -1.604,5.231 -0.542,10.911 2.841,15.199 l 19.308,24.463 -30.355,8.51 c -5.291,1.485 -9.507,5.481 -11.274,10.684 -1.756,5.204 -0.846,10.944 2.45,15.34 22.625,30.165 51.875,63.003 97.493,77.936 3.676,1.166 7.404,2.196 11.188,3.089 -2.2,2.618 -4.293,5.285 -6.267,8.006 -28.392,39.082 -32.448,84.696 -32.805,120.064 -0.054,5.481 2.591,10.635 7.068,13.784 4.477,3.161 10.234,3.898 15.362,2 l 29.336,-10.857 -1.258,31.265 c -0.216,5.475 2.266,10.706 6.656,13.991 4.369,3.279 10.093,4.19 15.296,2.461 33.531,-11.286 75.659,-29.244 104.042,-68.309 2.309,-3.182 4.51,-6.489 6.592,-9.903 2.07,3.42 4.272,6.727 6.581,9.909 28.381,39.065 70.52,57.024 104.052,68.304 1.735,0.579 3.535,0.867 5.312,0.867 3.556,0 7.068,-1.138 9.995,-3.328 4.379,-3.29 6.863,-8.521 6.645,-13.995 l -1.269,-31.26 29.336,10.857 c 5.128,1.897 10.885,1.16 15.362,-2 4.477,-3.149 7.123,-8.304 7.068,-13.784 -0.357,-35.363 -4.402,-80.971 -32.805,-120.054 -1.984,-2.732 -4.076,-5.415 -6.277,-8.038 3.935,-0.927 7.794,-2.006 11.579,-3.23 45.89,-14.907 75.996,-49.44 97.103,-77.855 3.264,-4.405 4.165,-10.128 2.397,-15.316 z M 255.197,325.216 c -30.604,0 -55.506,-24.902 -55.506,-55.506 0,-30.604 24.902,-55.506 55.506,-55.506 30.604,0 55.506,24.902 55.506,55.506 0,30.604 -24.902,55.506 -55.506,55.506 z"
             id="path8-8-1-39-5-2-6-2-3-4"
             style="fill:#ff8566;fill-opacity:1" />
        </g>
      </g>
      <g
         id="g12-2-0-7-6-9-8-13-5-7"
         transform="matrix(0.02343752,0,0,0.02343752,40.198931,48.996768)"
         style="display:inline;fill:#ff8566;fill-opacity:1">
        <g
           id="g10-9-5-91-9-7-5-0-66-0"
           style="fill:#ff8566;fill-opacity:1">
          <path
             d="m 511.109,220.854 c -1.777,-5.181 -5.984,-9.165 -11.263,-10.651 l -30.105,-8.456 19.384,-24.538 c 3.404,-4.298 4.466,-9.99 2.851,-15.226 -1.615,-5.236 -5.703,-9.339 -10.928,-10.982 -35.862,-11.259 -78.652,-20.739 -124.314,-5.908 -4.185,1.361 -8.337,2.922 -12.457,4.684 0.412,-4.462 0.618,-8.89 0.618,-13.28 0,-47.972 -22.289,-85.736 -44.102,-116.352 -3.176,-4.462 -8.586,-7.171 -13.822,-6.993 -5.475,0.087 -10.559,2.856 -13.595,7.416 L 256.085,46.516 238.783,20.568 c -3.035,-4.558 -8.119,-7.329 -13.595,-7.416 -5.377,-0.179 -10.657,2.531 -13.822,6.993 -21.802,30.598 -44.091,68.358 -44.091,116.352 0,4.347 0.207,8.732 0.607,13.145 -4.131,-1.74 -8.315,-3.285 -12.575,-4.646 -46.27,-14.847 -90.609,-4.558 -124.076,6.071 -5.214,1.653 -9.279,5.762 -10.874,10.987 -1.604,5.231 -0.542,10.911 2.841,15.199 l 19.308,24.463 -30.355,8.51 c -5.291,1.485 -9.507,5.481 -11.274,10.684 -1.756,5.204 -0.846,10.944 2.45,15.34 22.625,30.165 51.875,63.003 97.493,77.936 3.676,1.166 7.404,2.196 11.188,3.089 -2.2,2.618 -4.293,5.285 -6.267,8.006 -28.392,39.082 -32.448,84.696 -32.805,120.064 -0.054,5.481 2.591,10.635 7.068,13.784 4.477,3.161 10.234,3.898 15.362,2 l 29.336,-10.857 -1.258,31.265 c -0.216,5.475 2.266,10.706 6.656,13.991 4.369,3.279 10.093,4.19 15.296,2.461 33.531,-11.286 75.659,-29.244 104.042,-68.309 2.309,-3.182 4.51,-6.489 6.592,-9.903 2.07,3.42 4.272,6.727 6.581,9.909 28.381,39.065 70.52,57.024 104.052,68.304 1.735,0.579 3.535,0.867 5.312,0.867 3.556,0 7.068,-1.138 9.995,-3.328 4.379,-3.29 6.863,-8.521 6.645,-13.995 l -1.269,-31.26 29.336,10.857 c 5.128,1.897 10.885,1.16 15.362,-2 4.477,-3.149 7.123,-8.304 7.068,-13.784 -0.357,-35.363 -4.402,-80.971 -32.805,-120.054 -1.984,-2.732 -4.076,-5.415 -6.277,-8.038 3.935,-0.927 7.794,-2.006 11.579,-3.23 45.89,-14.907 75.996,-49.44 97.103,-77.855 3.264,-4.405 4.165,-10.128 2.397,-15.316 z M 255.197,325.216 c -30.604,0 -55.506,-24.902 -55.506,-55.506 0,-30.604 24.902,-55.506 55.506,-55.506 30.604,0 55.506,24.902 55.506,55.506 0,30.604 -24.902,55.506 -55.506,55.506 z"
             id="path8-8-1-8-69-6-3-0-55-21-4"
             style="fill:#ff8566;fill-opacity:1" />
        </g>
      </g>
    </g>
    <g
       id="g6644-4-8-5-0-9-7-3"
       style="display:inline"
       transform="matrix(0.75471698,0,0,0.75471698,42.82273,73.928976)">
      <g
         id="g59683-14-9-3-1-4-5-4"
         transform="matrix(0.54799605,0,0,0.54799605,-35.105575,18.775417)"
         style="display:inline">
        <g
           id="g59619-4-4-8-6-5-47-2-3"
           style="display:inline"
           transform="translate(-19.048131,34.631778)">
          <path
             d="M 195.22866,34.197195 161.34222,22.724717 c -3.92302,-1.309458 -6.79892,3.538799 -3.89811,6.28956 l 9.97227,9.456448 -9.45645,9.972268 c -2.75076,2.900808 0.37781,7.590209 4.22636,6.073864 L 195.41623,41.26248 c 2.97021,-1.316737 2.84828,-5.90912 -0.18757,-7.065285 z"
             id="path2-8-3-72-9-5-9-10-0-92"
             style="fill:#33cc33;fill-opacity:1;stroke-width:0.0781252" />
          <path
             id="path2-8-6-7-3-7-3-4-6-1-6"
             style="display:inline;fill:#139513;fill-opacity:1;stroke-width:0.0781251"
             d="m 160.099,22.504775 c -3.23955,-0.05452 -5.23815,4.059266 -2.65462,6.509162 l 9.972,9.456788 -9.45627,9.972 c -2.75076,2.90081 0.37755,7.590399 4.2261,6.074048 l 1.4397,-0.574125 c -1.53734,-1.28284 -2.05727,-3.724973 -0.37413,-5.499923 l 9.45627,-9.972 -9.972,-9.456788 c -1.86538,-1.768887 -1.34032,-4.402867 0.31419,-5.71128 L 161.34233,22.7244 c -0.42908,-0.143222 -0.84549,-0.212931 -1.24333,-0.219625 z" />
        </g>
        <g
           id="g59619-8-2-6-3-47-6-5"
           transform="translate(6.3500003,17.991672)">
          <path
             d="M 195.22866,34.197195 161.34222,22.724717 c -3.92302,-1.309458 -6.79892,3.538799 -3.89811,6.28956 l 9.97227,9.456448 -9.45645,9.972268 c -2.75076,2.900808 0.37781,7.590209 4.22636,6.073864 L 195.41623,41.26248 c 2.97021,-1.316737 2.84828,-5.90912 -0.18757,-7.065285 z"
             id="path2-8-8-3-3-1-5-5-3"
             style="fill:#33cc33;fill-opacity:1;stroke-width:0.0781252" />
          <path
             id="path2-8-6-6-5-1-5-9-7-5"
             style="display:inline;fill:#139513;fill-opacity:1;stroke-width:0.0781251"
             d="m 160.099,22.504775 c -3.23955,-0.05452 -5.23815,4.059266 -2.65462,6.509162 l 9.972,9.456788 -9.45627,9.972 c -2.75076,2.90081 0.37755,7.590399 4.2261,6.074048 l 1.4397,-0.574125 c -1.53734,-1.28284 -2.05727,-3.724973 -0.37413,-5.499923 l 9.45627,-9.972 -9.972,-9.456788 c -1.86538,-1.768887 -1.34032,-4.402867 0.31419,-5.71128 L 161.34233,22.7244 c -0.42908,-0.143222 -0.84549,-0.212931 -1.24333,-0.219625 z" />
        </g>
        <g
           id="g59619-7-82-71-3-9-1-5-8"
           style="display:inline"
           transform="translate(36.353744,34.631761)">
          <path
             d="M 195.22866,34.197195 161.34222,22.724717 c -3.92302,-1.309458 -6.79892,3.538799 -3.89811,6.28956 l 9.97227,9.456448 -9.45645,9.972268 c -2.75076,2.900808 0.37781,7.590209 4.22636,6.073864 L 195.41623,41.26248 c 2.97021,-1.316737 2.84828,-5.90912 -0.18757,-7.065285 z"
             id="path2-8-0-41-6-7-5-7-0-8"
             style="fill:#33cc33;fill-opacity:1;stroke-width:0.0781252" />
          <path
             id="path2-8-6-2-8-7-0-1-29-4-8"
             style="display:inline;fill:#139513;fill-opacity:1;stroke-width:0.0781251"
             d="m 160.099,22.504775 c -3.23955,-0.05452 -5.23815,4.059266 -2.65462,6.509162 l 9.972,9.456788 -9.45627,9.972 c -2.75076,2.90081 0.37755,7.590399 4.2261,6.074048 l 1.4397,-0.574125 c -1.53734,-1.28284 -2.05727,-3.724973 -0.37413,-5.499923 l 9.45627,-9.972 -9.972,-9.456788 c -1.86538,-1.768887 -1.34032,-4.402867 0.31419,-5.71128 L 161.34233,22.7244 c -0.42908,-0.143222 -0.84549,-0.212931 -1.24333,-0.219625 z" />
        </g>
      </g>
      <g
         id="g12-6-7-8-0-0-2-2"
         transform="matrix(0.02343752,0,0,0.02343752,70.55894,48.996759)"
         style="display:inline;fill:#ff8566;fill-opacity:1">
        <g
           id="g10-0-9-4-1-9-3-6"
           style="fill:#ff8566;fill-opacity:1">
          <path
             d="m 511.109,220.854 c -1.777,-5.181 -5.984,-9.165 -11.263,-10.651 l -30.105,-8.456 19.384,-24.538 c 3.404,-4.298 4.466,-9.99 2.851,-15.226 -1.615,-5.236 -5.703,-9.339 -10.928,-10.982 -35.862,-11.259 -78.652,-20.739 -124.314,-5.908 -4.185,1.361 -8.337,2.922 -12.457,4.684 0.412,-4.462 0.618,-8.89 0.618,-13.28 0,-47.972 -22.289,-85.736 -44.102,-116.352 -3.176,-4.462 -8.586,-7.171 -13.822,-6.993 -5.475,0.087 -10.559,2.856 -13.595,7.416 L 256.085,46.516 238.783,20.568 c -3.035,-4.558 -8.119,-7.329 -13.595,-7.416 -5.377,-0.179 -10.657,2.531 -13.822,6.993 -21.802,30.598 -44.091,68.358 -44.091,116.352 0,4.347 0.207,8.732 0.607,13.145 -4.131,-1.74 -8.315,-3.285 -12.575,-4.646 -46.27,-14.847 -90.609,-4.558 -124.076,6.071 -5.214,1.653 -9.279,5.762 -10.874,10.987 -1.604,5.231 -0.542,10.911 2.841,15.199 l 19.308,24.463 -30.355,8.51 c -5.291,1.485 -9.507,5.481 -11.274,10.684 -1.756,5.204 -0.846,10.944 2.45,15.34 22.625,30.165 51.875,63.003 97.493,77.936 3.676,1.166 7.404,2.196 11.188,3.089 -2.2,2.618 -4.293,5.285 -6.267,8.006 -28.392,39.082 -32.448,84.696 -32.805,120.064 -0.054,5.481 2.591,10.635 7.068,13.784 4.477,3.161 10.234,3.898 15.362,2 l 29.336,-10.857 -1.258,31.265 c -0.216,5.475 2.266,10.706 6.656,13.991 4.369,3.279 10.093,4.19 15.296,2.461 33.531,-11.286 75.659,-29.244 104.042,-68.309 2.309,-3.182 4.51,-6.489 6.592,-9.903 2.07,3.42 4.272,6.727 6.581,9.909 28.381,39.065 70.52,57.024 104.052,68.304 1.735,0.579 3.535,0.867 5.312,0.867 3.556,0 7.068,-1.138 9.995,-3.328 4.379,-3.29 6.863,-8.521 6.645,-13.995 l -1.269,-31.26 29.336,10.857 c 5.128,1.897 10.885,1.16 15.362,-2 4.477,-3.149 7.123,-8.304 7.068,-13.784 -0.357,-35.363 -4.402,-80.971 -32.805,-120.054 -1.984,-2.732 -4.076,-5.415 -6.277,-8.038 3.935,-0.927 7.794,-2.006 11.579,-3.23 45.89,-14.907 75.996,-49.44 97.103,-77.855 3.264,-4.405 4.165,-10.128 2.397,-15.316 z M 255.197,325.216 c -30.604,0 -55.506,-24.902 -55.506,-55.506 0,-30.604 24.902,-55.506 55.506,-55.506 30.604,0 55.506,24.902 55.506,55.506 0,30.604 -24.902,55.506 -55.506,55.506 z"
             id="path8-8-10-4-8-4-2-5-4"
             style="fill:#ff8566;fill-opacity:1" />
        </g>
      </g>
      <g
         id="g12-2-07-8-3-2-1-30-1"
         transform="matrix(0.02343752,0,0,0.02343752,54.117007,39.878056)"
         style="display:inline;fill:#ff8566;fill-opacity:1">
        <g
           id="g10-9-7-9-86-3-4-9-7"
           style="fill:#ff8566;fill-opacity:1">
          <path
             d="m 511.109,220.854 c -1.777,-5.181 -5.984,-9.165 -11.263,-10.651 l -30.105,-8.456 19.384,-24.538 c 3.404,-4.298 4.466,-9.99 2.851,-15.226 -1.615,-5.236 -5.703,-9.339 -10.928,-10.982 -35.862,-11.259 -78.652,-20.739 -124.314,-5.908 -4.185,1.361 -8.337,2.922 -12.457,4.684 0.412,-4.462 0.618,-8.89 0.618,-13.28 0,-47.972 -22.289,-85.736 -44.102,-116.352 -3.176,-4.462 -8.586,-7.171 -13.822,-6.993 -5.475,0.087 -10.559,2.856 -13.595,7.416 L 256.085,46.516 238.783,20.568 c -3.035,-4.558 -8.119,-7.329 -13.595,-7.416 -5.377,-0.179 -10.657,2.531 -13.822,6.993 -21.802,30.598 -44.091,68.358 -44.091,116.352 0,4.347 0.207,8.732 0.607,13.145 -4.131,-1.74 -8.315,-3.285 -12.575,-4.646 -46.27,-14.847 -90.609,-4.558 -124.076,6.071 -5.214,1.653 -9.279,5.762 -10.874,10.987 -1.604,5.231 -0.542,10.911 2.841,15.199 l 19.308,24.463 -30.355,8.51 c -5.291,1.485 -9.507,5.481 -11.274,10.684 -1.756,5.204 -0.846,10.944 2.45,15.34 22.625,30.165 51.875,63.003 97.493,77.936 3.676,1.166 7.404,2.196 11.188,3.089 -2.2,2.618 -4.293,5.285 -6.267,8.006 -28.392,39.082 -32.448,84.696 -32.805,120.064 -0.054,5.481 2.591,10.635 7.068,13.784 4.477,3.161 10.234,3.898 15.362,2 l 29.336,-10.857 -1.258,31.265 c -0.216,5.475 2.266,10.706 6.656,13.991 4.369,3.279 10.093,4.19 15.296,2.461 33.531,-11.286 75.659,-29.244 104.042,-68.309 2.309,-3.182 4.51,-6.489 6.592,-9.903 2.07,3.42 4.272,6.727 6.581,9.909 28.381,39.065 70.52,57.024 104.052,68.304 1.735,0.579 3.535,0.867 5.312,0.867 3.556,0 7.068,-1.138 9.995,-3.328 4.379,-3.29 6.863,-8.521 6.645,-13.995 l -1.269,-31.26 29.336,10.857 c 5.128,1.897 10.885,1.16 15.362,-2 4.477,-3.149 7.123,-8.304 7.068,-13.784 -0.357,-35.363 -4.402,-80.971 -32.805,-120.054 -1.984,-2.732 -4.076,-5.415 -6.277,-8.038 3.935,-0.927 7.794,-2.006 11.579,-3.23 45.89,-14.907 75.996,-49.44 97.103,-77.855 3.264,-4.405 4.165,-10.128 2.397,-15.316 z M 255.197,325.216 c -30.604,0 -55.506,-24.902 -55.506,-55.506 0,-30.604 24.902,-55.506 55.506,-55.506 30.604,0 55.506,24.902 55.506,55.506 0,30.604 -24.902,55.506 -55.506,55.506 z"
             id="path8-8-1-39-5-2-6-2-3-3"
             style="fill:#ff8566;fill-opacity:1" />
        </g>
      </g>
      <g
         id="g12-2-0-7-6-9-8-13-5-1"
         transform="matrix(0.02343752,0,0,0.02343752,40.198931,48.996768)"
         style="display:inline;fill:#ff8566;fill-opacity:1">
        <g
           id="g10-9-5-91-9-7-5-0-66-5"
           style="fill:#ff8566;fill-opacity:1">
          <path
             d="m 511.109,220.854 c -1.777,-5.181 -5.984,-9.165 -11.263,-10.651 l -30.105,-8.456 19.384,-24.538 c 3.404,-4.298 4.466,-9.99 2.851,-15.226 -1.615,-5.236 -5.703,-9.339 -10.928,-10.982 -35.862,-11.259 -78.652,-20.739 -124.314,-5.908 -4.185,1.361 -8.337,2.922 -12.457,4.684 0.412,-4.462 0.618,-8.89 0.618,-13.28 0,-47.972 -22.289,-85.736 -44.102,-116.352 -3.176,-4.462 -8.586,-7.171 -13.822,-6.993 -5.475,0.087 -10.559,2.856 -13.595,7.416 L 256.085,46.516 238.783,20.568 c -3.035,-4.558 -8.119,-7.329 -13.595,-7.416 -5.377,-0.179 -10.657,2.531 -13.822,6.993 -21.802,30.598 -44.091,68.358 -44.091,116.352 0,4.347 0.207,8.732 0.607,13.145 -4.131,-1.74 -8.315,-3.285 -12.575,-4.646 -46.27,-14.847 -90.609,-4.558 -124.076,6.071 -5.214,1.653 -9.279,5.762 -10.874,10.987 -1.604,5.231 -0.542,10.911 2.841,15.199 l 19.308,24.463 -30.355,8.51 c -5.291,1.485 -9.507,5.481 -11.274,10.684 -1.756,5.204 -0.846,10.944 2.45,15.34 22.625,30.165 51.875,63.003 97.493,77.936 3.676,1.166 7.404,2.196 11.188,3.089 -2.2,2.618 -4.293,5.285 -6.267,8.006 -28.392,39.082 -32.448,84.696 -32.805,120.064 -0.054,5.481 2.591,10.635 7.068,13.784 4.477,3.161 10.234,3.898 15.362,2 l 29.336,-10.857 -1.258,31.265 c -0.216,5.475 2.266,10.706 6.656,13.991 4.369,3.279 10.093,4.19 15.296,2.461 33.531,-11.286 75.659,-29.244 104.042,-68.309 2.309,-3.182 4.51,-6.489 6.592,-9.903 2.07,3.42 4.272,6.727 6.581,9.909 28.381,39.065 70.52,57.024 104.052,68.304 1.735,0.579 3.535,0.867 5.312,0.867 3.556,0 7.068,-1.138 9.995,-3.328 4.379,-3.29 6.863,-8.521 6.645,-13.995 l -1.269,-31.26 29.336,10.857 c 5.128,1.897 10.885,1.16 15.362,-2 4.477,-3.149 7.123,-8.304 7.068,-13.784 -0.357,-35.363 -4.402,-80.971 -32.805,-120.054 -1.984,-2.732 -4.076,-5.415 -6.277,-8.038 3.935,-0.927 7.794,-2.006 11.579,-3.23 45.89,-14.907 75.996,-49.44 97.103,-77.855 3.264,-4.405 4.165,-10.128 2.397,-15.316 z M 255.197,325.216 c -30.604,0 -55.506,-24.902 -55.506,-55.506 0,-30.604 24.902,-55.506 55.506,-55.506 30.604,0 55.506,24.902 55.506,55.506 0,30.604 -24.902,55.506 -55.506,55.506 z"
             id="path8-8-1-8-69-6-3-0-55-21-5"
             style="fill:#ff8566;fill-opacity:1" />
        </g>
      </g>
    </g>
  </g>
</svg>
