<?xml version="1.0" encoding="UTF-8" standalone="no"?>
<!-- Created with Inkscape (http://www.inkscape.org/) -->

<svg
   width="500"
   height="500"
   viewBox="0 0 132.29166 132.29167"
   version="1.1"
   id="svg2515"
   inkscape:version="1.1.2 (b8e25be833, 2022-02-05)"
   sodipodi:docname="bonsai13s06normal.svg"
   inkscape:export-filename="C:\Users\Lenovo\Desktop\Coding\Media files\Bonsais\bonsai13.png"
   inkscape:export-xdpi="96"
   inkscape:export-ydpi="96"
   xmlns:inkscape="http://www.inkscape.org/namespaces/inkscape"
   xmlns:sodipodi="http://sodipodi.sourceforge.net/DTD/sodipodi-0.dtd"
   xmlns="http://www.w3.org/2000/svg"
   xmlns:svg="http://www.w3.org/2000/svg">
  <sodipodi:namedview
     id="namedview2517"
     pagecolor="#ffffff"
     bordercolor="#666666"
     borderopacity="1.0"
     inkscape:pageshadow="2"
     inkscape:pageopacity="0.0"
     inkscape:pagecheckerboard="0"
     inkscape:document-units="mm"
     showgrid="false"
     units="px"
     inkscape:zoom="1.4142136"
     inkscape:cx="293.80286"
     inkscape:cy="252.08356"
     inkscape:window-width="1920"
     inkscape:window-height="1001"
     inkscape:window-x="-9"
     inkscape:window-y="-9"
     inkscape:window-maximized="1"
     inkscape:current-layer="g17992" />
  <defs
     id="defs2512">
    <marker
       style="overflow:visible"
       id="Arrow1Sstart"
       refX="0.0"
       refY="0.0"
       orient="auto"
       inkscape:stockid="Arrow1Sstart"
       inkscape:isstock="true">
      <path
         transform="scale(0.2) translate(6,0)"
         style="fill-rule:evenodd;fill:context-stroke;stroke:context-stroke;stroke-width:1.0pt"
         d="M 0.0,0.0 L 5.0,-5.0 L -12.5,0.0 L 5.0,5.0 L 0.0,0.0 z "
         id="path24092" />
    </marker>
    <marker
       style="overflow:visible"
       id="Arrow1Mstart"
       refX="0.0"
       refY="0.0"
       orient="auto"
       inkscape:stockid="Arrow1Mstart"
       inkscape:isstock="true">
      <path
         transform="scale(0.4) translate(10,0)"
         style="fill-rule:evenodd;fill:context-stroke;stroke:context-stroke;stroke-width:1.0pt"
         d="M 0.0,0.0 L 5.0,-5.0 L -12.5,0.0 L 5.0,5.0 L 0.0,0.0 z "
         id="path24086" />
    </marker>
    <marker
       style="overflow:visible"
       id="Arrow1Lstart"
       refX="0.0"
       refY="0.0"
       orient="auto"
       inkscape:stockid="Arrow1Lstart"
       inkscape:isstock="true">
      <path
         transform="scale(0.8) translate(12.5,0)"
         style="fill-rule:evenodd;fill:context-stroke;stroke:context-stroke;stroke-width:1.0pt"
         d="M 0.0,0.0 L 5.0,-5.0 L -12.5,0.0 L 5.0,5.0 L 0.0,0.0 z "
         id="path24080" />
    </marker>
    <marker
       style="overflow:visible;"
       id="Arrow1Lend"
       refX="0.0"
       refY="0.0"
       orient="auto"
       inkscape:stockid="Arrow1Lend"
       inkscape:isstock="true">
      <path
         transform="scale(0.8) rotate(180) translate(12.5,0)"
         style="fill-rule:evenodd;fill:context-stroke;stroke:context-stroke;stroke-width:1.0pt;"
         d="M 0.0,0.0 L 5.0,-5.0 L -12.5,0.0 L 5.0,5.0 L 0.0,0.0 z "
         id="path24083" />
    </marker>
  </defs>
  <g
     inkscape:label="Full Cascade Style"
     inkscape:groupmode="layer"
     id="g17992"
     style="display:inline">
    <g
       id="g17906"
       transform="translate(127.33453,23.38778)">
      <path
         style="fill:#c49078;fill-opacity:1;stroke:#c49078;stroke-width:1;stroke-linecap:round;stroke-linejoin:round;stroke-miterlimit:4;stroke-dasharray:none;stroke-opacity:1"
         d="m -99.500015,30.838997 c 0,0 3.638799,-12.735798 11.176313,-18.453912 7.537513,-5.7181136 12.496916,-8.4784226 23.142885,-10.0872826 10.645968,-1.60885902 11.594881,-2.51410402 19.483052,-1.089031 7.888169,1.425072 21.667403,2.638059 27.063051,17.1643086 6.81601,18.350201 6.7258,20.263344 4.38657,25.721542 -2.33923,5.458201 -12.829945,17.760783 -15.334937,20.793141 -4.938372,5.978028 -5.458199,8.317257 -3.118973,13.255629 0.330604,2.90298 6.162124,16.3246 -1.302394,6.77885 -6.495032,-13.276708 -1.296749,-18.994823 1.822223,-22.893535 3.118972,-3.898715 15.179241,-16.422587 15.075031,-22.61254 -0.10422,-6.189957 -5.4582,-19.233654 -7.277605,-20.013397 -1.819399,-0.779743 -7.017683,-14.5551986 -26.771164,-12.7357996 -19.753485,1.819402 -19.233657,3.3788866 -25.211683,9.6168266 -5.152861,5.376899 -9.876742,12.21597 -7.277599,14.035371 2.599142,1.8194 -15.85477,0.519829 -15.85477,0.519829 z"
         id="path17902"
         sodipodi:nodetypes="cssssssccssssssc" />
      <path
         id="path17904"
         style="display:inline;fill:#9f6e5c;fill-opacity:1;stroke:#9f6e5c;stroke-width:3.77953;stroke-linecap:round;stroke-linejoin:round;stroke-miterlimit:4;stroke-dasharray:none;stroke-opacity:1"
         d="m -198.50781,1.9003906 c -11.86585,0.2218352 -22.69775,2.9847019 -47.84571,6.7851563 -40.23673,6.0807311 -58.98051,16.5132281 -87.46875,38.1250001 -28.48824,21.611769 -42.24023,69.746093 -42.24023,69.746093 0,0 4.05066,0.25117 7.5293,0.46289 4.26508,-12.64023 17.66416,-47.519947 40.73437,-65.021483 28.48824,-21.611765 47.23397,-32.044269 87.47071,-38.125 40.23672,-6.0807282 43.82315,-9.5013383 73.63671,-4.1152345 20.11821,3.6345445 50.36393,6.9268215 74.181644,25.5390625 C -117.04264,12.062664 -150.85821,8.5173186 -172.7168,4.5683594 -183.89688,2.5485708 -191.3883,1.7672895 -198.50781,1.9003906 Z m 85.4707,47.4980474 c 12.08952,11.359811 17.783837,22.610761 20.875001,23.935546 6.876491,2.947061 27.111957,52.245516 27.505859,75.640626 0.393865,23.3951 -45.18832,70.72954 -56.97656,85.46484 -11.78824,14.73529 -31.43683,36.34766 -6.88867,86.52735 6.32744,8.09164 10.12193,11.80717 12.19531,12.59375 -1.72535,-1.89721 -3.75185,-4.31148 -6.17188,-7.40625 -24.54815,-50.17969 -4.89957,-71.79206 6.88867,-86.52735 11.78825,-14.7353 57.370432,-62.06974 56.976568,-85.46484 C -59.026715,130.767 -79.262181,81.468545 -86.138672,78.521484 -89.703333,76.993771 -96.724636,62.271435 -113.03711,49.398438 Z"
         transform="scale(0.26458333)" />
    </g>
    <g
       id="g74342-4-2"
       transform="matrix(1.8427433,0,0,0.55206973,-198.1394,19.634987)"
       style="display:inline">
      <path
         d="m 157.51223,66.642765 c 1.67216,3.453694 2.61408,7.327194 2.61408,11.415888 0,6.76275 -2.56469,12.929306 -6.77686,17.571861 -2.11667,2.331861 -5.13292,3.640667 -8.28322,3.640667 h -22.22147 c -3.15031,0 -6.16656,-1.305278 -8.28323,-3.640667 -4.21216,-4.642555 -6.77686,-10.809111 -6.77686,-17.571861 0,-4.088694 0.93839,-7.962194 2.61409,-11.415888 h 47.00058 l 0.0882,-0.04586 c 0.0106,0.01411 0.0176,0.03175 0.0247,0.04586 v 0"
         style="fill:#dadb90;fill-opacity:1;fill-rule:nonzero;stroke:none;stroke-width:0.0352778"
         id="path82-3-6" />
      <path
         d="m 119.50395,95.630514 c -4.21217,-4.642555 -6.78039,-10.809111 -6.78039,-17.571861 0,-4.088694 0.93839,-7.962194 2.61408,-11.415888 h -4.93888 c -1.6757,3.453694 -2.61409,7.327194 -2.61409,11.415888 0,6.76275 2.5647,12.929306 6.77686,17.571861 2.11667,2.335389 5.13292,3.640667 8.28323,3.640667 h 4.94241 c -3.1503,0 -6.17008,-1.305278 -8.28322,-3.640667"
         style="fill:#cecf71;fill-opacity:1;fill-rule:nonzero;stroke:none;stroke-width:0.0352778"
         id="path90-0-79" />
      <path
         d="m 150.626,57.883293 h -33.34455 c -2.86456,2.374194 -5.21758,5.341055 -6.86153,8.713611 -0.007,0.01411 -0.0141,0.03175 -0.0212,0.04586 h 47.00058 l 0.0882,-0.04586 c -1.64394,-3.372556 -3.99697,-6.339417 -6.86153,-8.713611 v 0"
         style="fill:#d2b77d;fill-opacity:1;fill-rule:nonzero;stroke:none;stroke-width:0.0352778"
         id="path94-7-3" />
      <path
         d="m 122.22387,57.883293 h -4.94242 c -2.86456,2.374194 -5.21758,5.341055 -6.86153,8.713611 -0.007,0.01411 -0.0141,0.03175 -0.0212,0.04586 h 4.93888 c 0.007,-0.01411 0.0141,-0.03175 0.0212,-0.04586 1.64747,-3.372556 3.99697,-6.339417 6.86506,-8.713611"
         style="fill:#c4a257;fill-opacity:1;fill-rule:nonzero;stroke:none;stroke-width:0.0352778"
         id="path96-6-8" />
    </g>
    <g
       id="g71859-9-1-2-1-0-7"
       transform="matrix(0.64572611,0,0,0.64572611,-44.646375,-5.1447605)"
       style="display:inline">
      <g
         id="g71795-0-41-5-9-1-2"
         transform="matrix(1,0,0,-1,18.25625,86.474996)">
        <path
           fill="#000000"
           d="m 128.2522,34.742849 a 4.7440164,4.7440164 0 0 0 -4.0305,2.248948 l 1.44511,0.885128 -1.44962,-0.876096 -12.81404,21.164047 -0.0135,0.02258 a 4.6627291,4.6627291 0 0 0 1.69574,6.394602 c 0.70901,0.413209 1.51285,0.634491 2.33475,0.643523 h 25.66421 a 4.7440164,4.7440164 0 0 0 4.04404,-2.359589 4.6604711,4.6604711 0 0 0 -0.0136,-4.678536 l -12.82533,-21.186626 -0.007,-0.009 a 4.7056307,4.7056307 0 0 0 -4.03049,-2.248948 z"
           id="path2-15-6-8-7-4-3-9"
           style="fill:#00cc99;fill-opacity:1;stroke-width:2.25799" />
        <path
           id="path2-15-1-0-4-75-5-1-3"
           style="display:inline;fill:#0e7b5f;fill-opacity:1;stroke-width:2.25799"
           d="m 128.2516,34.743004 a 4.7440164,4.7440164 0 0 0 -4.03024,2.248959 l 1.44539,0.885216 -1.45004,-0.875916 -12.81369,21.164084 -0.0134,0.02222 a 4.662729,4.662729 0 0 0 1.69551,6.394958 c 0.70901,0.413211 1.51284,0.634334 2.33474,0.643372 h 5.61878 c -0.74865,-0.04118 -1.47677,-0.256535 -2.12545,-0.634585 a 4.662729,4.662729 0 0 1 -1.69602,-6.394442 l 0.0134,-0.02274 12.81421,-21.164084 1.44952,0.876432 -1.44487,-0.885216 a 4.7440164,4.7440164 0 0 1 1.12551,-1.244886 4.7056307,4.7056307 0 0 0 -2.92282,-1.013373 z" />
      </g>
      <g
         id="g71795-9-7-2-8-3-3-3"
         transform="matrix(1,0,0,-1,41.611385,76.119468)"
         style="display:inline">
        <path
           fill="#000000"
           d="m 128.2522,34.742849 a 4.7440164,4.7440164 0 0 0 -4.0305,2.248948 l 1.44511,0.885128 -1.44962,-0.876096 -12.81404,21.164047 -0.0135,0.02258 a 4.6627291,4.6627291 0 0 0 1.69574,6.394602 c 0.70901,0.413209 1.51285,0.634491 2.33475,0.643523 h 25.66421 a 4.7440164,4.7440164 0 0 0 4.04404,-2.359589 4.6604711,4.6604711 0 0 0 -0.0136,-4.678536 l -12.82533,-21.186626 -0.007,-0.009 a 4.7056307,4.7056307 0 0 0 -4.03049,-2.248948 z"
           id="path2-15-5-8-15-4-5-2-4"
           style="fill:#00cc99;fill-opacity:1;stroke-width:2.25799" />
        <path
           id="path2-15-1-5-8-87-9-3-6-3"
           style="display:inline;fill:#0e7b5f;fill-opacity:1;stroke-width:2.25799"
           d="m 128.2516,34.743004 a 4.7440164,4.7440164 0 0 0 -4.03024,2.248959 l 1.44539,0.885216 -1.45004,-0.875916 -12.81369,21.164084 -0.0134,0.02222 a 4.662729,4.662729 0 0 0 1.69551,6.394958 c 0.70901,0.413211 1.51284,0.634334 2.33474,0.643372 h 5.61878 c -0.74865,-0.04118 -1.47677,-0.256535 -2.12545,-0.634585 a 4.662729,4.662729 0 0 1 -1.69602,-6.394442 l 0.0134,-0.02274 12.81421,-21.164084 1.44952,0.876432 -1.44487,-0.885216 a 4.7440164,4.7440164 0 0 1 1.12551,-1.244886 4.7056307,4.7056307 0 0 0 -2.92282,-1.013373 z" />
      </g>
      <g
         id="g71795-4-2-80-2-3-3-9"
         transform="matrix(1,0,0,-1,65.953052,86.761456)"
         style="display:inline">
        <path
           fill="#000000"
           d="m 128.2522,34.742849 a 4.7440164,4.7440164 0 0 0 -4.0305,2.248948 l 1.44511,0.885128 -1.44962,-0.876096 -12.81404,21.164047 -0.0135,0.02258 a 4.6627291,4.6627291 0 0 0 1.69574,6.394602 c 0.70901,0.413209 1.51285,0.634491 2.33475,0.643523 h 25.66421 a 4.7440164,4.7440164 0 0 0 4.04404,-2.359589 4.6604711,4.6604711 0 0 0 -0.0136,-4.678536 l -12.82533,-21.186626 -0.007,-0.009 a 4.7056307,4.7056307 0 0 0 -4.03049,-2.248948 z"
           id="path2-15-8-9-3-0-10-8-0"
           style="fill:#00cc99;fill-opacity:1;stroke-width:2.25799" />
        <path
           id="path2-15-1-1-5-56-1-7-6-8"
           style="display:inline;fill:#0e7b5f;fill-opacity:1;stroke-width:2.25799"
           d="m 128.2516,34.743004 a 4.7440164,4.7440164 0 0 0 -4.03024,2.248959 l 1.44539,0.885216 -1.45004,-0.875916 -12.81369,21.164084 -0.0134,0.02222 a 4.662729,4.662729 0 0 0 1.69551,6.394958 c 0.70901,0.413211 1.51284,0.634334 2.33474,0.643372 h 5.61878 c -0.74865,-0.04118 -1.47677,-0.256535 -2.12545,-0.634585 a 4.662729,4.662729 0 0 1 -1.69602,-6.394442 l 0.0134,-0.02274 12.81421,-21.164084 1.44952,0.876432 -1.44487,-0.885216 a 4.7440164,4.7440164 0 0 1 1.12551,-1.244886 4.7056307,4.7056307 0 0 0 -2.92282,-1.013373 z" />
      </g>
    </g>
    <g
       id="g71859-9-1-2-1-0-7-2"
       transform="matrix(0.64572611,0,0,0.64572611,-4.6354814,16.760691)"
       style="display:inline">
      <g
         id="g71795-0-41-5-9-1-2-0"
         transform="matrix(1,0,0,-1,18.25625,86.474996)">
        <path
           fill="#000000"
           d="m 128.2522,34.742849 a 4.7440164,4.7440164 0 0 0 -4.0305,2.248948 l 1.44511,0.885128 -1.44962,-0.876096 -12.81404,21.164047 -0.0135,0.02258 a 4.6627291,4.6627291 0 0 0 1.69574,6.394602 c 0.70901,0.413209 1.51285,0.634491 2.33475,0.643523 h 25.66421 a 4.7440164,4.7440164 0 0 0 4.04404,-2.359589 4.6604711,4.6604711 0 0 0 -0.0136,-4.678536 l -12.82533,-21.186626 -0.007,-0.009 a 4.7056307,4.7056307 0 0 0 -4.03049,-2.248948 z"
           id="path2-15-6-8-7-4-3-9-1"
           style="fill:#00cc99;fill-opacity:1;stroke-width:2.25799" />
        <path
           id="path2-15-1-0-4-75-5-1-3-8"
           style="display:inline;fill:#0e7b5f;fill-opacity:1;stroke-width:2.25799"
           d="m 128.2516,34.743004 a 4.7440164,4.7440164 0 0 0 -4.03024,2.248959 l 1.44539,0.885216 -1.45004,-0.875916 -12.81369,21.164084 -0.0134,0.02222 a 4.662729,4.662729 0 0 0 1.69551,6.394958 c 0.70901,0.413211 1.51284,0.634334 2.33474,0.643372 h 5.61878 c -0.74865,-0.04118 -1.47677,-0.256535 -2.12545,-0.634585 a 4.662729,4.662729 0 0 1 -1.69602,-6.394442 l 0.0134,-0.02274 12.81421,-21.164084 1.44952,0.876432 -1.44487,-0.885216 a 4.7440164,4.7440164 0 0 1 1.12551,-1.244886 4.7056307,4.7056307 0 0 0 -2.92282,-1.013373 z" />
      </g>
      <g
         id="g71795-9-7-2-8-3-3-3-0"
         transform="matrix(1,0,0,-1,41.611385,76.119468)"
         style="display:inline">
        <path
           fill="#000000"
           d="m 128.2522,34.742849 a 4.7440164,4.7440164 0 0 0 -4.0305,2.248948 l 1.44511,0.885128 -1.44962,-0.876096 -12.81404,21.164047 -0.0135,0.02258 a 4.6627291,4.6627291 0 0 0 1.69574,6.394602 c 0.70901,0.413209 1.51285,0.634491 2.33475,0.643523 h 25.66421 a 4.7440164,4.7440164 0 0 0 4.04404,-2.359589 4.6604711,4.6604711 0 0 0 -0.0136,-4.678536 l -12.82533,-21.186626 -0.007,-0.009 a 4.7056307,4.7056307 0 0 0 -4.03049,-2.248948 z"
           id="path2-15-5-8-15-4-5-2-4-2"
           style="fill:#00cc99;fill-opacity:1;stroke-width:2.25799" />
        <path
           id="path2-15-1-5-8-87-9-3-6-3-7"
           style="display:inline;fill:#0e7b5f;fill-opacity:1;stroke-width:2.25799"
           d="m 128.2516,34.743004 a 4.7440164,4.7440164 0 0 0 -4.03024,2.248959 l 1.44539,0.885216 -1.45004,-0.875916 -12.81369,21.164084 -0.0134,0.02222 a 4.662729,4.662729 0 0 0 1.69551,6.394958 c 0.70901,0.413211 1.51284,0.634334 2.33474,0.643372 h 5.61878 c -0.74865,-0.04118 -1.47677,-0.256535 -2.12545,-0.634585 a 4.662729,4.662729 0 0 1 -1.69602,-6.394442 l 0.0134,-0.02274 12.81421,-21.164084 1.44952,0.876432 -1.44487,-0.885216 a 4.7440164,4.7440164 0 0 1 1.12551,-1.244886 4.7056307,4.7056307 0 0 0 -2.92282,-1.013373 z" />
      </g>
      <g
         id="g71795-4-2-80-2-3-3-9-4"
         transform="matrix(1,0,0,-1,65.953052,86.761456)"
         style="display:inline">
        <path
           fill="#000000"
           d="m 128.2522,34.742849 a 4.7440164,4.7440164 0 0 0 -4.0305,2.248948 l 1.44511,0.885128 -1.44962,-0.876096 -12.81404,21.164047 -0.0135,0.02258 a 4.6627291,4.6627291 0 0 0 1.69574,6.394602 c 0.70901,0.413209 1.51285,0.634491 2.33475,0.643523 h 25.66421 a 4.7440164,4.7440164 0 0 0 4.04404,-2.359589 4.6604711,4.6604711 0 0 0 -0.0136,-4.678536 l -12.82533,-21.186626 -0.007,-0.009 a 4.7056307,4.7056307 0 0 0 -4.03049,-2.248948 z"
           id="path2-15-8-9-3-0-10-8-0-5"
           style="fill:#00cc99;fill-opacity:1;stroke-width:2.25799" />
        <path
           id="path2-15-1-1-5-56-1-7-6-8-8"
           style="display:inline;fill:#0e7b5f;fill-opacity:1;stroke-width:2.25799"
           d="m 128.2516,34.743004 a 4.7440164,4.7440164 0 0 0 -4.03024,2.248959 l 1.44539,0.885216 -1.45004,-0.875916 -12.81369,21.164084 -0.0134,0.02222 a 4.662729,4.662729 0 0 0 1.69551,6.394958 c 0.70901,0.413211 1.51284,0.634334 2.33474,0.643372 h 5.61878 c -0.74865,-0.04118 -1.47677,-0.256535 -2.12545,-0.634585 a 4.662729,4.662729 0 0 1 -1.69602,-6.394442 l 0.0134,-0.02274 12.81421,-21.164084 1.44952,0.876432 -1.44487,-0.885216 a 4.7440164,4.7440164 0 0 1 1.12551,-1.244886 4.7056307,4.7056307 0 0 0 -2.92282,-1.013373 z" />
      </g>
    </g>
    <g
       id="g71859-9-1-2-1-0-7-2-7"
       transform="matrix(0.54825802,0,0,0.54825802,-1.7562325,45.518367)"
       style="display:inline">
      <g
         id="g71795-0-41-5-9-1-2-0-2"
         transform="matrix(1,0,0,-1,18.25625,86.474996)">
        <path
           fill="#000000"
           d="m 128.2522,34.742849 a 4.7440164,4.7440164 0 0 0 -4.0305,2.248948 l 1.44511,0.885128 -1.44962,-0.876096 -12.81404,21.164047 -0.0135,0.02258 a 4.6627291,4.6627291 0 0 0 1.69574,6.394602 c 0.70901,0.413209 1.51285,0.634491 2.33475,0.643523 h 25.66421 a 4.7440164,4.7440164 0 0 0 4.04404,-2.359589 4.6604711,4.6604711 0 0 0 -0.0136,-4.678536 l -12.82533,-21.186626 -0.007,-0.009 a 4.7056307,4.7056307 0 0 0 -4.03049,-2.248948 z"
           id="path2-15-6-8-7-4-3-9-1-6"
           style="fill:#00cc99;fill-opacity:1;stroke-width:2.25799" />
        <path
           id="path2-15-1-0-4-75-5-1-3-8-0"
           style="display:inline;fill:#0e7b5f;fill-opacity:1;stroke-width:2.25799"
           d="m 128.2516,34.743004 a 4.7440164,4.7440164 0 0 0 -4.03024,2.248959 l 1.44539,0.885216 -1.45004,-0.875916 -12.81369,21.164084 -0.0134,0.02222 a 4.662729,4.662729 0 0 0 1.69551,6.394958 c 0.70901,0.413211 1.51284,0.634334 2.33474,0.643372 h 5.61878 c -0.74865,-0.04118 -1.47677,-0.256535 -2.12545,-0.634585 a 4.662729,4.662729 0 0 1 -1.69602,-6.394442 l 0.0134,-0.02274 12.81421,-21.164084 1.44952,0.876432 -1.44487,-0.885216 a 4.7440164,4.7440164 0 0 1 1.12551,-1.244886 4.7056307,4.7056307 0 0 0 -2.92282,-1.013373 z" />
      </g>
      <g
         id="g71795-9-7-2-8-3-3-3-0-3"
         transform="matrix(1,0,0,-1,41.611385,76.119468)"
         style="display:inline">
        <path
           fill="#000000"
           d="m 128.2522,34.742849 a 4.7440164,4.7440164 0 0 0 -4.0305,2.248948 l 1.44511,0.885128 -1.44962,-0.876096 -12.81404,21.164047 -0.0135,0.02258 a 4.6627291,4.6627291 0 0 0 1.69574,6.394602 c 0.70901,0.413209 1.51285,0.634491 2.33475,0.643523 h 25.66421 a 4.7440164,4.7440164 0 0 0 4.04404,-2.359589 4.6604711,4.6604711 0 0 0 -0.0136,-4.678536 l -12.82533,-21.186626 -0.007,-0.009 a 4.7056307,4.7056307 0 0 0 -4.03049,-2.248948 z"
           id="path2-15-5-8-15-4-5-2-4-2-9"
           style="fill:#00cc99;fill-opacity:1;stroke-width:2.25799" />
        <path
           id="path2-15-1-5-8-87-9-3-6-3-7-5"
           style="display:inline;fill:#0e7b5f;fill-opacity:1;stroke-width:2.25799"
           d="m 128.2516,34.743004 a 4.7440164,4.7440164 0 0 0 -4.03024,2.248959 l 1.44539,0.885216 -1.45004,-0.875916 -12.81369,21.164084 -0.0134,0.02222 a 4.662729,4.662729 0 0 0 1.69551,6.394958 c 0.70901,0.413211 1.51284,0.634334 2.33474,0.643372 h 5.61878 c -0.74865,-0.04118 -1.47677,-0.256535 -2.12545,-0.634585 a 4.662729,4.662729 0 0 1 -1.69602,-6.394442 l 0.0134,-0.02274 12.81421,-21.164084 1.44952,0.876432 -1.44487,-0.885216 a 4.7440164,4.7440164 0 0 1 1.12551,-1.244886 4.7056307,4.7056307 0 0 0 -2.92282,-1.013373 z" />
      </g>
      <g
         id="g71795-4-2-80-2-3-3-9-4-6"
         transform="matrix(1,0,0,-1,65.953052,86.761456)"
         style="display:inline">
        <path
           fill="#000000"
           d="m 128.2522,34.742849 a 4.7440164,4.7440164 0 0 0 -4.0305,2.248948 l 1.44511,0.885128 -1.44962,-0.876096 -12.81404,21.164047 -0.0135,0.02258 a 4.6627291,4.6627291 0 0 0 1.69574,6.394602 c 0.70901,0.413209 1.51285,0.634491 2.33475,0.643523 h 25.66421 a 4.7440164,4.7440164 0 0 0 4.04404,-2.359589 4.6604711,4.6604711 0 0 0 -0.0136,-4.678536 l -12.82533,-21.186626 -0.007,-0.009 a 4.7056307,4.7056307 0 0 0 -4.03049,-2.248948 z"
           id="path2-15-8-9-3-0-10-8-0-5-4"
           style="fill:#00cc99;fill-opacity:1;stroke-width:2.25799" />
        <path
           id="path2-15-1-1-5-56-1-7-6-8-8-3"
           style="display:inline;fill:#0e7b5f;fill-opacity:1;stroke-width:2.25799"
           d="m 128.2516,34.743004 a 4.7440164,4.7440164 0 0 0 -4.03024,2.248959 l 1.44539,0.885216 -1.45004,-0.875916 -12.81369,21.164084 -0.0134,0.02222 a 4.662729,4.662729 0 0 0 1.69551,6.394958 c 0.70901,0.413211 1.51284,0.634334 2.33474,0.643372 h 5.61878 c -0.74865,-0.04118 -1.47677,-0.256535 -2.12545,-0.634585 a 4.662729,4.662729 0 0 1 -1.69602,-6.394442 l 0.0134,-0.02274 12.81421,-21.164084 1.44952,0.876432 -1.44487,-0.885216 a 4.7440164,4.7440164 0 0 1 1.12551,-1.244886 4.7056307,4.7056307 0 0 0 -2.92282,-1.013373 z" />
      </g>
    </g>
    <g
       id="g71859-9-1-2-1-0-7-2-7-9"
       transform="matrix(0.54825802,0,0,0.54825802,14.825373,71.969847)"
       style="display:inline">
      <g
         id="g71795-0-41-5-9-1-2-0-2-9"
         transform="matrix(1,0,0,-1,18.25625,86.474996)">
        <path
           fill="#000000"
           d="m 128.2522,34.742849 a 4.7440164,4.7440164 0 0 0 -4.0305,2.248948 l 1.44511,0.885128 -1.44962,-0.876096 -12.81404,21.164047 -0.0135,0.02258 a 4.6627291,4.6627291 0 0 0 1.69574,6.394602 c 0.70901,0.413209 1.51285,0.634491 2.33475,0.643523 h 25.66421 a 4.7440164,4.7440164 0 0 0 4.04404,-2.359589 4.6604711,4.6604711 0 0 0 -0.0136,-4.678536 l -12.82533,-21.186626 -0.007,-0.009 a 4.7056307,4.7056307 0 0 0 -4.03049,-2.248948 z"
           id="path2-15-6-8-7-4-3-9-1-6-5"
           style="fill:#00cc99;fill-opacity:1;stroke-width:2.25799" />
        <path
           id="path2-15-1-0-4-75-5-1-3-8-0-2"
           style="display:inline;fill:#0e7b5f;fill-opacity:1;stroke-width:2.25799"
           d="m 128.2516,34.743004 a 4.7440164,4.7440164 0 0 0 -4.03024,2.248959 l 1.44539,0.885216 -1.45004,-0.875916 -12.81369,21.164084 -0.0134,0.02222 a 4.662729,4.662729 0 0 0 1.69551,6.394958 c 0.70901,0.413211 1.51284,0.634334 2.33474,0.643372 h 5.61878 c -0.74865,-0.04118 -1.47677,-0.256535 -2.12545,-0.634585 a 4.662729,4.662729 0 0 1 -1.69602,-6.394442 l 0.0134,-0.02274 12.81421,-21.164084 1.44952,0.876432 -1.44487,-0.885216 a 4.7440164,4.7440164 0 0 1 1.12551,-1.244886 4.7056307,4.7056307 0 0 0 -2.92282,-1.013373 z" />
      </g>
      <g
         id="g71795-9-7-2-8-3-3-3-0-3-9"
         transform="matrix(1,0,0,-1,41.611385,76.119468)"
         style="display:inline">
        <path
           fill="#000000"
           d="m 128.2522,34.742849 a 4.7440164,4.7440164 0 0 0 -4.0305,2.248948 l 1.44511,0.885128 -1.44962,-0.876096 -12.81404,21.164047 -0.0135,0.02258 a 4.6627291,4.6627291 0 0 0 1.69574,6.394602 c 0.70901,0.413209 1.51285,0.634491 2.33475,0.643523 h 25.66421 a 4.7440164,4.7440164 0 0 0 4.04404,-2.359589 4.6604711,4.6604711 0 0 0 -0.0136,-4.678536 l -12.82533,-21.186626 -0.007,-0.009 a 4.7056307,4.7056307 0 0 0 -4.03049,-2.248948 z"
           id="path2-15-5-8-15-4-5-2-4-2-9-0"
           style="fill:#00cc99;fill-opacity:1;stroke-width:2.25799" />
        <path
           id="path2-15-1-5-8-87-9-3-6-3-7-5-9"
           style="display:inline;fill:#0e7b5f;fill-opacity:1;stroke-width:2.25799"
           d="m 128.2516,34.743004 a 4.7440164,4.7440164 0 0 0 -4.03024,2.248959 l 1.44539,0.885216 -1.45004,-0.875916 -12.81369,21.164084 -0.0134,0.02222 a 4.662729,4.662729 0 0 0 1.69551,6.394958 c 0.70901,0.413211 1.51284,0.634334 2.33474,0.643372 h 5.61878 c -0.74865,-0.04118 -1.47677,-0.256535 -2.12545,-0.634585 a 4.662729,4.662729 0 0 1 -1.69602,-6.394442 l 0.0134,-0.02274 12.81421,-21.164084 1.44952,0.876432 -1.44487,-0.885216 a 4.7440164,4.7440164 0 0 1 1.12551,-1.244886 4.7056307,4.7056307 0 0 0 -2.92282,-1.013373 z" />
      </g>
      <g
         id="g71795-4-2-80-2-3-3-9-4-6-4"
         transform="matrix(1,0,0,-1,65.953052,86.761456)"
         style="display:inline">
        <path
           fill="#000000"
           d="m 128.2522,34.742849 a 4.7440164,4.7440164 0 0 0 -4.0305,2.248948 l 1.44511,0.885128 -1.44962,-0.876096 -12.81404,21.164047 -0.0135,0.02258 a 4.6627291,4.6627291 0 0 0 1.69574,6.394602 c 0.70901,0.413209 1.51285,0.634491 2.33475,0.643523 h 25.66421 a 4.7440164,4.7440164 0 0 0 4.04404,-2.359589 4.6604711,4.6604711 0 0 0 -0.0136,-4.678536 l -12.82533,-21.186626 -0.007,-0.009 a 4.7056307,4.7056307 0 0 0 -4.03049,-2.248948 z"
           id="path2-15-8-9-3-0-10-8-0-5-4-1"
           style="fill:#00cc99;fill-opacity:1;stroke-width:2.25799" />
        <path
           id="path2-15-1-1-5-56-1-7-6-8-8-3-7"
           style="display:inline;fill:#0e7b5f;fill-opacity:1;stroke-width:2.25799"
           d="m 128.2516,34.743004 a 4.7440164,4.7440164 0 0 0 -4.03024,2.248959 l 1.44539,0.885216 -1.45004,-0.875916 -12.81369,21.164084 -0.0134,0.02222 a 4.662729,4.662729 0 0 0 1.69551,6.394958 c 0.70901,0.413211 1.51284,0.634334 2.33474,0.643372 h 5.61878 c -0.74865,-0.04118 -1.47677,-0.256535 -2.12545,-0.634585 a 4.662729,4.662729 0 0 1 -1.69602,-6.394442 l 0.0134,-0.02274 12.81421,-21.164084 1.44952,0.876432 -1.44487,-0.885216 a 4.7440164,4.7440164 0 0 1 1.12551,-1.244886 4.7056307,4.7056307 0 0 0 -2.92282,-1.013373 z" />
      </g>
    </g>
    <g
       id="g71859-9-1-2-1-0-7-2-7-2"
       transform="matrix(0.48734046,0,0,0.48734046,11.723148,99.538823)"
       style="display:inline">
      <g
         id="g71795-0-41-5-9-1-2-0-2-6"
         transform="matrix(1,0,0,-1,18.25625,86.474996)">
        <path
           fill="#000000"
           d="m 128.2522,34.742849 a 4.7440164,4.7440164 0 0 0 -4.0305,2.248948 l 1.44511,0.885128 -1.44962,-0.876096 -12.81404,21.164047 -0.0135,0.02258 a 4.6627291,4.6627291 0 0 0 1.69574,6.394602 c 0.70901,0.413209 1.51285,0.634491 2.33475,0.643523 h 25.66421 a 4.7440164,4.7440164 0 0 0 4.04404,-2.359589 4.6604711,4.6604711 0 0 0 -0.0136,-4.678536 l -12.82533,-21.186626 -0.007,-0.009 a 4.7056307,4.7056307 0 0 0 -4.03049,-2.248948 z"
           id="path2-15-6-8-7-4-3-9-1-6-59"
           style="fill:#00cc99;fill-opacity:1;stroke-width:2.25799" />
        <path
           id="path2-15-1-0-4-75-5-1-3-8-0-0"
           style="display:inline;fill:#0e7b5f;fill-opacity:1;stroke-width:2.25799"
           d="m 128.2516,34.743004 a 4.7440164,4.7440164 0 0 0 -4.03024,2.248959 l 1.44539,0.885216 -1.45004,-0.875916 -12.81369,21.164084 -0.0134,0.02222 a 4.662729,4.662729 0 0 0 1.69551,6.394958 c 0.70901,0.413211 1.51284,0.634334 2.33474,0.643372 h 5.61878 c -0.74865,-0.04118 -1.47677,-0.256535 -2.12545,-0.634585 a 4.662729,4.662729 0 0 1 -1.69602,-6.394442 l 0.0134,-0.02274 12.81421,-21.164084 1.44952,0.876432 -1.44487,-0.885216 a 4.7440164,4.7440164 0 0 1 1.12551,-1.244886 4.7056307,4.7056307 0 0 0 -2.92282,-1.013373 z" />
      </g>
      <g
         id="g71795-9-7-2-8-3-3-3-0-3-1"
         transform="matrix(1,0,0,-1,41.611385,76.119468)"
         style="display:inline">
        <path
           fill="#000000"
           d="m 128.2522,34.742849 a 4.7440164,4.7440164 0 0 0 -4.0305,2.248948 l 1.44511,0.885128 -1.44962,-0.876096 -12.81404,21.164047 -0.0135,0.02258 a 4.6627291,4.6627291 0 0 0 1.69574,6.394602 c 0.70901,0.413209 1.51285,0.634491 2.33475,0.643523 h 25.66421 a 4.7440164,4.7440164 0 0 0 4.04404,-2.359589 4.6604711,4.6604711 0 0 0 -0.0136,-4.678536 l -12.82533,-21.186626 -0.007,-0.009 a 4.7056307,4.7056307 0 0 0 -4.03049,-2.248948 z"
           id="path2-15-5-8-15-4-5-2-4-2-9-7"
           style="fill:#00cc99;fill-opacity:1;stroke-width:2.25799" />
        <path
           id="path2-15-1-5-8-87-9-3-6-3-7-5-2"
           style="display:inline;fill:#0e7b5f;fill-opacity:1;stroke-width:2.25799"
           d="m 128.2516,34.743004 a 4.7440164,4.7440164 0 0 0 -4.03024,2.248959 l 1.44539,0.885216 -1.45004,-0.875916 -12.81369,21.164084 -0.0134,0.02222 a 4.662729,4.662729 0 0 0 1.69551,6.394958 c 0.70901,0.413211 1.51284,0.634334 2.33474,0.643372 h 5.61878 c -0.74865,-0.04118 -1.47677,-0.256535 -2.12545,-0.634585 a 4.662729,4.662729 0 0 1 -1.69602,-6.394442 l 0.0134,-0.02274 12.81421,-21.164084 1.44952,0.876432 -1.44487,-0.885216 a 4.7440164,4.7440164 0 0 1 1.12551,-1.244886 4.7056307,4.7056307 0 0 0 -2.92282,-1.013373 z" />
      </g>
      <g
         id="g71795-4-2-80-2-3-3-9-4-6-6"
         transform="matrix(1,0,0,-1,65.953052,86.761456)"
         style="display:inline">
        <path
           fill="#000000"
           d="m 128.2522,34.742849 a 4.7440164,4.7440164 0 0 0 -4.0305,2.248948 l 1.44511,0.885128 -1.44962,-0.876096 -12.81404,21.164047 -0.0135,0.02258 a 4.6627291,4.6627291 0 0 0 1.69574,6.394602 c 0.70901,0.413209 1.51285,0.634491 2.33475,0.643523 h 25.66421 a 4.7440164,4.7440164 0 0 0 4.04404,-2.359589 4.6604711,4.6604711 0 0 0 -0.0136,-4.678536 l -12.82533,-21.186626 -0.007,-0.009 a 4.7056307,4.7056307 0 0 0 -4.03049,-2.248948 z"
           id="path2-15-8-9-3-0-10-8-0-5-4-8"
           style="fill:#00cc99;fill-opacity:1;stroke-width:2.25799" />
        <path
           id="path2-15-1-1-5-56-1-7-6-8-8-3-8"
           style="display:inline;fill:#0e7b5f;fill-opacity:1;stroke-width:2.25799"
           d="m 128.2516,34.743004 a 4.7440164,4.7440164 0 0 0 -4.03024,2.248959 l 1.44539,0.885216 -1.45004,-0.875916 -12.81369,21.164084 -0.0134,0.02222 a 4.662729,4.662729 0 0 0 1.69551,6.394958 c 0.70901,0.413211 1.51284,0.634334 2.33474,0.643372 h 5.61878 c -0.74865,-0.04118 -1.47677,-0.256535 -2.12545,-0.634585 a 4.662729,4.662729 0 0 1 -1.69602,-6.394442 l 0.0134,-0.02274 12.81421,-21.164084 1.44952,0.876432 -1.44487,-0.885216 a 4.7440164,4.7440164 0 0 1 1.12551,-1.244886 4.7056307,4.7056307 0 0 0 -2.92282,-1.013373 z" />
      </g>
    </g>
  </g>
</svg>
