<?xml version="1.0" encoding="UTF-8" standalone="no"?>
<!-- Created with Inkscape (http://www.inkscape.org/) -->

<svg
   width="500"
   height="500"
   viewBox="0 0 132.29166 132.29167"
   version="1.1"
   id="svg2515"
   inkscape:version="1.1.2 (b8e25be833, 2022-02-05)"
   sodipodi:docname="bonsai12s05blooming.svg"
   inkscape:export-filename="C:\Users\Lenovo\Desktop\Coding\Media files\Bonsais\bonsai12.png"
   inkscape:export-xdpi="96"
   inkscape:export-ydpi="96"
   xmlns:inkscape="http://www.inkscape.org/namespaces/inkscape"
   xmlns:sodipodi="http://sodipodi.sourceforge.net/DTD/sodipodi-0.dtd"
   xmlns="http://www.w3.org/2000/svg"
   xmlns:svg="http://www.w3.org/2000/svg">
  <sodipodi:namedview
     id="namedview2517"
     pagecolor="#ffffff"
     bordercolor="#666666"
     borderopacity="1.0"
     inkscape:pageshadow="2"
     inkscape:pageopacity="0.0"
     inkscape:pagecheckerboard="0"
     inkscape:document-units="mm"
     showgrid="false"
     units="px"
     inkscape:zoom="1.4142136"
     inkscape:cx="278.24651"
     inkscape:cy="258.44752"
     inkscape:window-width="1920"
     inkscape:window-height="1001"
     inkscape:window-x="-9"
     inkscape:window-y="-9"
     inkscape:window-maximized="1"
     inkscape:current-layer="g51917" />
  <defs
     id="defs2512">
    <marker
       style="overflow:visible"
       id="Arrow1Sstart"
       refX="0.0"
       refY="0.0"
       orient="auto"
       inkscape:stockid="Arrow1Sstart"
       inkscape:isstock="true">
      <path
         transform="scale(0.2) translate(6,0)"
         style="fill-rule:evenodd;fill:context-stroke;stroke:context-stroke;stroke-width:1.0pt"
         d="M 0.0,0.0 L 5.0,-5.0 L -12.5,0.0 L 5.0,5.0 L 0.0,0.0 z "
         id="path24092" />
    </marker>
    <marker
       style="overflow:visible"
       id="Arrow1Mstart"
       refX="0.0"
       refY="0.0"
       orient="auto"
       inkscape:stockid="Arrow1Mstart"
       inkscape:isstock="true">
      <path
         transform="scale(0.4) translate(10,0)"
         style="fill-rule:evenodd;fill:context-stroke;stroke:context-stroke;stroke-width:1.0pt"
         d="M 0.0,0.0 L 5.0,-5.0 L -12.5,0.0 L 5.0,5.0 L 0.0,0.0 z "
         id="path24086" />
    </marker>
    <marker
       style="overflow:visible"
       id="Arrow1Lstart"
       refX="0.0"
       refY="0.0"
       orient="auto"
       inkscape:stockid="Arrow1Lstart"
       inkscape:isstock="true">
      <path
         transform="scale(0.8) translate(12.5,0)"
         style="fill-rule:evenodd;fill:context-stroke;stroke:context-stroke;stroke-width:1.0pt"
         d="M 0.0,0.0 L 5.0,-5.0 L -12.5,0.0 L 5.0,5.0 L 0.0,0.0 z "
         id="path24080" />
    </marker>
    <marker
       style="overflow:visible;"
       id="Arrow1Lend"
       refX="0.0"
       refY="0.0"
       orient="auto"
       inkscape:stockid="Arrow1Lend"
       inkscape:isstock="true">
      <path
         transform="scale(0.8) rotate(180) translate(12.5,0)"
         style="fill-rule:evenodd;fill:context-stroke;stroke:context-stroke;stroke-width:1.0pt;"
         d="M 0.0,0.0 L 5.0,-5.0 L -12.5,0.0 L 5.0,5.0 L 0.0,0.0 z "
         id="path24083" />
    </marker>
  </defs>
  <g
     inkscape:label="Double Trunk"
     inkscape:groupmode="layer"
     id="g51917"
     style="display:inline">
    <g
       id="g51833"
       transform="translate(157.39097,29.859785)"
       style="display:inline">
      <g
         id="g51831"
         transform="translate(-5.2916669)">
        <g
           id="g51823"
           transform="rotate(-13.017437,48.811012,639.29985)">
          <path
             style="display:inline;fill:#e0af9a;fill-opacity:1;stroke:#e0af9a;stroke-width:1;stroke-linecap:round;stroke-linejoin:round;stroke-miterlimit:4;stroke-dasharray:none;stroke-opacity:1"
             d="m 34.921509,71.578796 c 0,0 -4.985993,-2.054985 0.580977,-9.704809 6.813833,-9.363182 12.17001,-5.093403 20.635714,-13.494745 6.786493,-6.734912 3.856953,-4.941474 9.61376,-12.344267 8.901728,-11.446877 8.659273,-1.55111 18.063763,-7.957382 7.913798,-5.390822 6.163238,-9.447209 15.526264,-17.43746 -2.405674,12.080364 -8.000423,9.916592 -10.90212,19.308518 -10.998001,6.255711 -2.636099,3.404697 -10.733417,5.461961 -9.484259,2.409639 -8.368428,8.046906 -13.315573,14.129643 -7.813845,9.607437 -15.695209,6.410437 -18.541148,16.263577 -2.153488,7.455755 -1.95112,3.364361 -0.461499,6.165571 1.489631,2.80121 -10.466721,-0.390607 -10.466721,-0.390607 z"
             id="path51819"
             sodipodi:nodetypes="cssssccssssc" />
          <path
             id="path51821"
             style="display:inline;fill:#a6705c;fill-opacity:1;stroke:#a6705c;stroke-width:3.77953;stroke-linecap:round;stroke-linejoin:round;stroke-miterlimit:4;stroke-dasharray:none;stroke-opacity:1"
             d="m 970.33008,153.07031 c -35.38782,30.19938 -28.77318,45.53149 -58.6836,65.90625 -35.54452,24.21268 -34.62715,-13.18957 -68.27148,30.07422 -21.75801,27.97906 -10.6862,21.20147 -36.33594,46.65625 -31.99636,31.7531 -52.23911,15.6155 -77.99218,51.00391 -21.04052,28.91272 -7.81991,41.0232 -7.81991,41.0232 0,0 7.07824,3.02634 7.22409,3.08954 -5.05604,-10.82763 -13.43393,-16.38289 3.4298,-39.5561 25.75307,-35.38841 45.99778,-19.2508 77.99414,-51.00391 25.64974,-25.45478 14.57793,-18.67719 36.33594,-46.65625 33.64432,-43.26379 32.72695,-5.86154 68.27148,-30.07422 28.41915,-19.35891 23.88953,-34.17576 53.71875,-61.50781 0.76306,-2.74415 1.48041,-5.69857 2.12891,-8.95508 z"
             transform="matrix(0.26458333,0,0,0.26458333,-157.39097,-29.859785)"
             sodipodi:nodetypes="cssssccsssscc" />
        </g>
        <g
           id="g51829"
           transform="translate(-103.45205,-31.75)">
          <path
             style="display:inline;fill:#e0af9a;fill-opacity:1;stroke:#e0af9a;stroke-width:1;stroke-linecap:round;stroke-linejoin:round;stroke-miterlimit:4;stroke-dasharray:none;stroke-opacity:1"
             d="m 1.5429645,115.20461 c 0,0 -0.44391,-8.09307 -7.413009,-16.606491 -5.7703105,-7.049 -13.8088905,-10.89145 -10.0809905,-22.220768 2.98845,-9.082106 6.5809805,-11.287183 11.7883305,-16.9438 C 5.6584545,48.765064 7.3043845,49.408168 12.774609,39.430122 17.377757,31.033683 4.9076645,22.010606 9.6217105,10.640113 12.96362,22.495664 18.44838,26.548244 20.12762,36.233711 15.444354,48.50294 18.442121,45.423796 15.444354,48.50294 c -2.295407,2.357716 -5.14072,4.406037 -7.8642035,6.795331 -7.35602602,6.453392 -10.606666,25.3144 -10.606666,25.3144 10.538324,6.504058 13.6860715,7.919038 15.6244115,17.990108 1.46672,7.620671 12.857197,14.782431 15.456337,16.601831 2.59915,1.8194 -26.5112685,0 -26.5112685,0 z"
             id="path51825"
             sodipodi:nodetypes="cssssccsssssc" />
          <path
             id="path51827"
             style="display:inline;fill:#a6705c;fill-opacity:1;stroke:#a6705c;stroke-width:3.77953;stroke-linecap:round;stroke-linejoin:round;stroke-miterlimit:4;stroke-dasharray:none;stroke-opacity:1"
             d="m 631.22852,153.07031 c -17.81689,42.97509 29.31375,77.07793 11.91601,108.8125 -20.67485,37.7123 -26.89433,35.28168 -64.01367,75.60352 -19.68132,21.37934 -33.25976,29.71299 -44.55469,64.03906 -14.0897,42.81947 16.29252,57.3425 38.10156,83.98438 26.33991,32.17672 28.01758,62.76562 28.01758,62.76562 0,0 3.6319,0.21449 8.51367,0.49219 -0.94557,-7.59992 -5.65489,-33.43191 -27.77929,-60.45899 -21.80905,-26.64183 -52.19127,-41.16491 -38.10157,-83.98437 11.29494,-34.32607 24.87337,-42.65972 44.55469,-64.03906 37.11934,-40.32184 43.34078,-37.89122 64.01563,-75.60352 15.60524,-28.46494 -20.69795,-58.8372 -15.48828,-95.80664 -1.82765,-4.8605 -3.57081,-10.09019 -5.18164,-15.80469 z"
             transform="matrix(0.26458333,0,0,0.26458333,-157.39097,-29.859785)" />
        </g>
      </g>
    </g>
    <g
       id="g54773-4-2-9-6-4"
       transform="matrix(0.85856851,0,0,1.0007543,-37.81449,62.952448)"
       style="display:inline">
      <path
         d="m 145.34527,60.22495 v 5.820833 h -16.14664 l -4.79425,-5.820833 h 20.94089"
         style="fill:#64a4bd;fill-opacity:1;fill-rule:nonzero;stroke:none;stroke-width:0.0352778"
         id="path594-9-2-7-6-4" />
      <path
         d="m 104.96986,60.22495 -4.79425,5.820833 H 84.134802 V 60.22495 h 20.835058"
         style="fill:#64a4bd;fill-opacity:1;fill-rule:nonzero;stroke:none;stroke-width:0.0352778"
         id="path600-2-5-8-5-2" />
      <path
         d="m 84.134802,60.22495 h 4.938888 v 5.820833 H 84.134802 V 60.22495"
         style="fill:#538ea1;fill-opacity:1;fill-rule:nonzero;stroke:none;stroke-width:0.0352778"
         id="path622-2-2-6-8-3" />
      <path
         d="m 77.791857,43.214006 c 0,6.057194 2.204861,12.463639 6.198306,17.010944 h 61.393917 c 1.99672,-2.271889 3.54541,-5.012972 4.59316,-7.9375 1.05128,-2.928055 1.60162,-6.043083 1.60162,-9.073444 H 77.791857"
         style="fill:#71cfca;fill-opacity:1;fill-rule:nonzero;stroke:none;stroke-width:0.0352778"
         id="path624-9-4-9-7-5" />
      <path
         d="m 77.791857,43.214006 c 0,6.057194 2.204861,12.463639 6.198306,17.010944 h 4.942416 C 84.935607,55.677645 82.734274,49.2712 82.734274,43.214006 h -4.942417 v 0"
         style="fill:#51bbae;fill-opacity:1;fill-rule:nonzero;stroke:none;stroke-width:0.0352778"
         id="path626-3-5-5-0-9" />
    </g>
    <g
       id="g2900-6-19-3-7-7"
       style="display:inline"
       transform="translate(-27.487411,8.246263)">
      <g
         id="g52262-2-9-0-0-1"
         transform="matrix(0.98398321,0,0,0.98398321,-77.330939,28.78169)"
         style="display:inline">
        <g
           id="g52161-6-7-2-5-2"
           transform="translate(2.80633,13.657473)">
          <circle
             cx="128.43347"
             cy="19.267973"
             r="3.3333101"
             id="circle4-8-5-2-2-4"
             style="fill:#cccc00;fill-opacity:1;stroke-width:0.0520829" />
          <path
             d="m 140.66464,18.36173 c -1.37811,-2.131235 -3.16612,-3.941639 -5.17027,-5.235901 -2.21718,-1.433324 -4.66508,-2.191131 -7.0786,-2.191131 -2.21457,0 -4.39216,0.632808 -6.47235,1.880716 -2.12134,1.272387 -4.0432,3.131229 -5.71246,5.524441 a 1.6624884,1.6624884 0 0 0 -0.0333,1.851029 c 1.37551,2.152589 3.14581,3.965597 5.11871,5.24215 2.22134,1.439053 4.61195,2.168214 7.09943,2.168214 2.4328,0 4.8859,-0.751556 7.0937,-2.1729 2.00311,-1.290096 3.78748,-3.107271 5.16038,-5.256214 a 1.6770716,1.6770716 0 0 0 -0.005,-1.810404 z m -12.23116,5.906209 a 4.9999651,4.9999651 0 1 1 4.99996,-4.999965 5.0056942,5.0056942 0 0 1 -4.99996,4.999965 z"
             id="path6-2-3-1-2-0"
             style="fill:#cccc00;fill-opacity:1;stroke-width:0.0520829" />
          <path
             id="circle4-7-3-7-76-3-7"
             style="display:inline;fill:#929208;fill-opacity:1;stroke-width:0.052083"
             d="m 128.43364,15.935 a 3.33331,3.33331 0 0 0 -3.33364,3.333128 3.33331,3.33331 0 0 0 3.33364,3.333131 3.33331,3.33331 0 0 0 1.32292,-0.276469 3.33331,3.33331 0 0 1 -2.01022,-3.056662 3.33331,3.33331 0 0 1 2.0128,-3.058726 3.33331,3.33331 0 0 0 -1.3255,-0.274402 z" />
          <path
             id="path6-9-0-8-0-8-5"
             style="display:inline;fill:#929208;fill-opacity:1;stroke-width:0.052083"
             d="m 128.4161,10.935 c -2.21457,0 -4.39176,0.633113 -6.47195,1.881021 -2.12134,1.272389 -4.04357,3.130999 -5.71283,5.524211 a 1.6624884,1.6624884 0 0 0 -0.0331,1.851049 c 1.37551,2.152589 3.14566,3.965506 5.11856,5.242057 2.22134,1.439056 4.61234,2.168345 7.09982,2.168345 0.4346,0 0.86941,-0.02433 1.3038,-0.07183 -2.00611,-0.215829 -3.9384,-0.918187 -5.75727,-2.096514 -1.9729,-1.276551 -3.74356,-3.089468 -5.11907,-5.242057 a 1.6624884,1.6624884 0 0 1 0.0336,-1.851049 c 1.66926,-2.393212 3.59097,-4.251822 5.71231,-5.524211 1.66601,-0.999435 3.39481,-1.60328 5.15472,-1.804541 -0.44288,-0.05037 -0.88638,-0.07648 -1.3286,-0.07648 z m 2.10427,3.365169 a 4.9999651,4.9999651 0 0 0 -0.70745,0.203605 4.9999651,4.9999651 0 0 1 3.62097,4.764566 5.0056941,5.0056941 0 0 1 -3.59565,4.789374 4.9999651,4.9999651 0 0 0 1.24178,0.210839 5.0056941,5.0056941 0 0 0 5.00022,-5.000213 4.9999651,4.9999651 0 0 0 -5.55987,-4.968171 z" />
        </g>
        <g
           id="g52161-2-8-6-4-6-6"
           transform="translate(17.432111,2.9961017)"
           style="display:inline">
          <circle
             cx="128.43347"
             cy="19.267973"
             r="3.3333101"
             id="circle4-9-5-8-6-9-2"
             style="fill:#cccc00;fill-opacity:1;stroke-width:0.0520829" />
          <path
             d="m 140.66464,18.36173 c -1.37811,-2.131235 -3.16612,-3.941639 -5.17027,-5.235901 -2.21718,-1.433324 -4.66508,-2.191131 -7.0786,-2.191131 -2.21457,0 -4.39216,0.632808 -6.47235,1.880716 -2.12134,1.272387 -4.0432,3.131229 -5.71246,5.524441 a 1.6624884,1.6624884 0 0 0 -0.0333,1.851029 c 1.37551,2.152589 3.14581,3.965597 5.11871,5.24215 2.22134,1.439053 4.61195,2.168214 7.09943,2.168214 2.4328,0 4.8859,-0.751556 7.0937,-2.1729 2.00311,-1.290096 3.78748,-3.107271 5.16038,-5.256214 a 1.6770716,1.6770716 0 0 0 -0.005,-1.810404 z m -12.23116,5.906209 a 4.9999651,4.9999651 0 1 1 4.99996,-4.999965 5.0056942,5.0056942 0 0 1 -4.99996,4.999965 z"
             id="path6-5-8-3-6-7-0"
             style="fill:#cccc00;fill-opacity:1;stroke-width:0.0520829" />
          <path
             id="circle4-7-8-2-3-31-1-7"
             style="display:inline;fill:#929208;fill-opacity:1;stroke-width:0.052083"
             d="m 128.43364,15.935 a 3.33331,3.33331 0 0 0 -3.33364,3.333128 3.33331,3.33331 0 0 0 3.33364,3.333131 3.33331,3.33331 0 0 0 1.32292,-0.276469 3.33331,3.33331 0 0 1 -2.01022,-3.056662 3.33331,3.33331 0 0 1 2.0128,-3.058726 3.33331,3.33331 0 0 0 -1.3255,-0.274402 z" />
          <path
             id="path6-9-2-73-5-6-0-9"
             style="display:inline;fill:#929208;fill-opacity:1;stroke-width:0.052083"
             d="m 128.4161,10.935 c -2.21457,0 -4.39176,0.633113 -6.47195,1.881021 -2.12134,1.272389 -4.04357,3.130999 -5.71283,5.524211 a 1.6624884,1.6624884 0 0 0 -0.0331,1.851049 c 1.37551,2.152589 3.14566,3.965506 5.11856,5.242057 2.22134,1.439056 4.61234,2.168345 7.09982,2.168345 0.4346,0 0.86941,-0.02433 1.3038,-0.07183 -2.00611,-0.215829 -3.9384,-0.918187 -5.75727,-2.096514 -1.9729,-1.276551 -3.74356,-3.089468 -5.11907,-5.242057 a 1.6624884,1.6624884 0 0 1 0.0336,-1.851049 c 1.66926,-2.393212 3.59097,-4.251822 5.71231,-5.524211 1.66601,-0.999435 3.39481,-1.60328 5.15472,-1.804541 -0.44288,-0.05037 -0.88638,-0.07648 -1.3286,-0.07648 z m 2.10427,3.365169 a 4.9999651,4.9999651 0 0 0 -0.70745,0.203605 4.9999651,4.9999651 0 0 1 3.62097,4.764566 5.0056941,5.0056941 0 0 1 -3.59565,4.789374 4.9999651,4.9999651 0 0 0 1.24178,0.210839 5.0056941,5.0056941 0 0 0 5.00022,-5.000213 4.9999651,4.9999651 0 0 0 -5.55987,-4.968171 z" />
        </g>
        <g
           id="g52161-2-2-3-6-17-7-2"
           transform="translate(31.668923,13.657602)"
           style="display:inline">
          <circle
             cx="128.43347"
             cy="19.267973"
             r="3.3333101"
             id="circle4-9-4-2-93-86-1-2"
             style="fill:#cccc00;fill-opacity:1;stroke-width:0.0520829" />
          <path
             d="m 140.66464,18.36173 c -1.37811,-2.131235 -3.16612,-3.941639 -5.17027,-5.235901 -2.21718,-1.433324 -4.66508,-2.191131 -7.0786,-2.191131 -2.21457,0 -4.39216,0.632808 -6.47235,1.880716 -2.12134,1.272387 -4.0432,3.131229 -5.71246,5.524441 a 1.6624884,1.6624884 0 0 0 -0.0333,1.851029 c 1.37551,2.152589 3.14581,3.965597 5.11871,5.24215 2.22134,1.439053 4.61195,2.168214 7.09943,2.168214 2.4328,0 4.8859,-0.751556 7.0937,-2.1729 2.00311,-1.290096 3.78748,-3.107271 5.16038,-5.256214 a 1.6770716,1.6770716 0 0 0 -0.005,-1.810404 z m -12.23116,5.906209 a 4.9999651,4.9999651 0 1 1 4.99996,-4.999965 5.0056942,5.0056942 0 0 1 -4.99996,4.999965 z"
             id="path6-5-6-6-6-4-3-8"
             style="fill:#cccc00;fill-opacity:1;stroke-width:0.0520829" />
          <path
             id="circle4-7-8-1-4-6-8-9-8"
             style="display:inline;fill:#929208;fill-opacity:1;stroke-width:0.052083"
             d="m 128.43364,15.935 a 3.33331,3.33331 0 0 0 -3.33364,3.333128 3.33331,3.33331 0 0 0 3.33364,3.333131 3.33331,3.33331 0 0 0 1.32292,-0.276469 3.33331,3.33331 0 0 1 -2.01022,-3.056662 3.33331,3.33331 0 0 1 2.0128,-3.058726 3.33331,3.33331 0 0 0 -1.3255,-0.274402 z" />
          <path
             id="path6-9-2-9-9-8-6-5-2"
             style="display:inline;fill:#929208;fill-opacity:1;stroke-width:0.052083"
             d="m 128.4161,10.935 c -2.21457,0 -4.39176,0.633113 -6.47195,1.881021 -2.12134,1.272389 -4.04357,3.130999 -5.71283,5.524211 a 1.6624884,1.6624884 0 0 0 -0.0331,1.851049 c 1.37551,2.152589 3.14566,3.965506 5.11856,5.242057 2.22134,1.439056 4.61234,2.168345 7.09982,2.168345 0.4346,0 0.86941,-0.02433 1.3038,-0.07183 -2.00611,-0.215829 -3.9384,-0.918187 -5.75727,-2.096514 -1.9729,-1.276551 -3.74356,-3.089468 -5.11907,-5.242057 a 1.6624884,1.6624884 0 0 1 0.0336,-1.851049 c 1.66926,-2.393212 3.59097,-4.251822 5.71231,-5.524211 1.66601,-0.999435 3.39481,-1.60328 5.15472,-1.804541 -0.44288,-0.05037 -0.88638,-0.07648 -1.3286,-0.07648 z m 2.10427,3.365169 a 4.9999651,4.9999651 0 0 0 -0.70745,0.203605 4.9999651,4.9999651 0 0 1 3.62097,4.764566 5.0056941,5.0056941 0 0 1 -3.59565,4.789374 4.9999651,4.9999651 0 0 0 1.24178,0.210839 5.0056941,5.0056941 0 0 0 5.00022,-5.000213 4.9999651,4.9999651 0 0 0 -5.55987,-4.968171 z" />
        </g>
      </g>
      <g
         id="g8733-3-8-8-8-6-3-1-09-6-63-2-3"
         transform="matrix(0.02343754,0,0,0.02343754,69.705881,59.142735)"
         style="display:inline;fill:#2a49ec;fill-opacity:1">
        <path
           class="st0"
           d="m 330.555,101.873 c 0,-34.164 -13.767,-65.108 -36.047,-87.622 -2.432,-2.465 -9.63,-4.349 -14.212,3.466 -4.589,7.808 -17.205,27.431 -17.205,27.431 -1.534,2.438 -4.219,3.918 -7.089,3.918 -2.883,0 -5.555,-1.48 -7.089,-3.918 0,0 -12.623,-19.623 -17.205,-27.431 -4.582,-7.815 -11.781,-5.931 -14.219,-3.466 -22.274,22.514 -36.04,53.458 -36.04,87.622 0,51.02 30.663,94.847 74.553,114.142 43.89,-19.295 74.553,-63.123 74.553,-114.142 z"
           id="path8723-8-6-51-3-8-5-2-691-2-09-5-6"
           style="fill:#2a49ec;fill-opacity:1" />
        <path
           class="st0"
           d="m 204.51,253.425 c -4.78,-47.705 -36.998,-90.409 -85.518,-106.176 -32.492,-10.554 -66.177,-7.027 -94.47,7.205 -3.096,1.555 -7.117,7.822 -1.096,14.589 6.007,6.774 20.766,24.842 20.766,24.842 1.849,2.212 2.432,5.22 1.542,7.952 -0.891,2.74 -3.13,4.829 -5.918,5.528 0,0 -22.562,5.945 -31.404,7.89 -8.849,1.945 -9.281,9.37 -7.692,12.445 14.527,28.144 39.698,50.801 72.197,61.362 48.519,15.766 99.683,0.15 131.593,-35.637 z"
           id="path8725-5-6-3-4-9-0-3-5-8-6-6-3"
           style="fill:#2a49ec;fill-opacity:1" />
        <path
           class="st0"
           d="M 96.772,362.484 C 76.69,390.127 69.636,423.25 74.43,454.558 c 0.527,3.424 5.233,9.178 13.527,5.554 8.308,-3.63 30.054,-12.088 30.054,-12.088 2.672,-1.062 5.698,-0.692 8.041,1 2.329,1.692 3.623,4.466 3.418,7.335 0,0 -1.308,23.294 -2.199,32.315 -0.883,9.006 6.048,11.712 9.466,11.15 31.252,-5.116 60.581,-22.054 80.662,-49.704 29.993,-41.266 30.944,-94.758 6.781,-136.155 -46.848,-10.192 -97.422,7.239 -127.408,48.519 z"
           id="path8727-3-5-0-26-9-2-8-47-15-88-4-3"
           style="fill:#2a49ec;fill-opacity:1" />
        <path
           class="st0"
           d="m 287.824,313.964 c -24.165,41.397 -23.212,94.888 6.78,136.155 20.082,27.65 49.41,44.588 80.663,49.704 3.418,0.562 10.349,-2.144 9.466,-11.15 -0.89,-9.021 -2.205,-32.315 -2.205,-32.315 -0.198,-2.869 1.102,-5.643 3.431,-7.335 2.322,-1.692 5.363,-2.062 8.034,-1 0,0 21.746,8.458 30.047,12.088 8.294,3.623 13.007,-2.13 13.534,-5.554 4.787,-31.308 -2.254,-64.43 -22.342,-92.074 -29.986,-41.279 -80.56,-58.717 -127.408,-48.519 z"
           id="path8729-3-8-1-7-6-4-3-0-6-7-0-5"
           style="fill:#2a49ec;fill-opacity:1" />
        <path
           class="st0"
           d="m 503.6,215.254 c -8.849,-1.945 -31.41,-7.89 -31.41,-7.89 -2.795,-0.706 -5.027,-2.788 -5.918,-5.528 -0.89,-2.732 -0.308,-5.74 1.534,-7.952 0,0 14.76,-18.068 20.78,-24.842 6.014,-6.766 1.993,-13.034 -1.096,-14.589 -28.301,-14.232 -61.978,-17.76 -94.485,-7.205 -48.519,15.767 -80.731,58.472 -85.512,106.176 31.91,35.787 83.067,51.403 131.593,35.636 32.492,-10.561 57.67,-33.218 72.191,-61.362 1.59,-3.074 1.172,-10.499 -7.677,-12.444 z"
           id="path8731-7-2-49-14-0-2-8-7-3-24-9-1"
           style="fill:#2a49ec;fill-opacity:1" />
      </g>
      <g
         id="g8733-3-8-8-8-6-3-1-1-34-29-7-6-2"
         transform="matrix(0.02343754,0,0,0.02343754,55.697097,48.651998)"
         style="display:inline;fill:#2a49ec;fill-opacity:1">
        <path
           class="st0"
           d="m 330.555,101.873 c 0,-34.164 -13.767,-65.108 -36.047,-87.622 -2.432,-2.465 -9.63,-4.349 -14.212,3.466 -4.589,7.808 -17.205,27.431 -17.205,27.431 -1.534,2.438 -4.219,3.918 -7.089,3.918 -2.883,0 -5.555,-1.48 -7.089,-3.918 0,0 -12.623,-19.623 -17.205,-27.431 -4.582,-7.815 -11.781,-5.931 -14.219,-3.466 -22.274,22.514 -36.04,53.458 -36.04,87.622 0,51.02 30.663,94.847 74.553,114.142 43.89,-19.295 74.553,-63.123 74.553,-114.142 z"
           id="path8723-8-6-51-3-8-5-2-6-7-9-9-4-2"
           style="fill:#2a49ec;fill-opacity:1" />
        <path
           class="st0"
           d="m 204.51,253.425 c -4.78,-47.705 -36.998,-90.409 -85.518,-106.176 -32.492,-10.554 -66.177,-7.027 -94.47,7.205 -3.096,1.555 -7.117,7.822 -1.096,14.589 6.007,6.774 20.766,24.842 20.766,24.842 1.849,2.212 2.432,5.22 1.542,7.952 -0.891,2.74 -3.13,4.829 -5.918,5.528 0,0 -22.562,5.945 -31.404,7.89 -8.849,1.945 -9.281,9.37 -7.692,12.445 14.527,28.144 39.698,50.801 72.197,61.362 48.519,15.766 99.683,0.15 131.593,-35.637 z"
           id="path8725-5-6-3-4-9-0-3-1-0-8-7-2-3"
           style="fill:#2a49ec;fill-opacity:1" />
        <path
           class="st0"
           d="M 96.772,362.484 C 76.69,390.127 69.636,423.25 74.43,454.558 c 0.527,3.424 5.233,9.178 13.527,5.554 8.308,-3.63 30.054,-12.088 30.054,-12.088 2.672,-1.062 5.698,-0.692 8.041,1 2.329,1.692 3.623,4.466 3.418,7.335 0,0 -1.308,23.294 -2.199,32.315 -0.883,9.006 6.048,11.712 9.466,11.15 31.252,-5.116 60.581,-22.054 80.662,-49.704 29.993,-41.266 30.944,-94.758 6.781,-136.155 -46.848,-10.192 -97.422,7.239 -127.408,48.519 z"
           id="path8727-3-5-0-26-9-2-8-2-3-6-94-1-8"
           style="fill:#2a49ec;fill-opacity:1" />
        <path
           class="st0"
           d="m 287.824,313.964 c -24.165,41.397 -23.212,94.888 6.78,136.155 20.082,27.65 49.41,44.588 80.663,49.704 3.418,0.562 10.349,-2.144 9.466,-11.15 -0.89,-9.021 -2.205,-32.315 -2.205,-32.315 -0.198,-2.869 1.102,-5.643 3.431,-7.335 2.322,-1.692 5.363,-2.062 8.034,-1 0,0 21.746,8.458 30.047,12.088 8.294,3.623 13.007,-2.13 13.534,-5.554 4.787,-31.308 -2.254,-64.43 -22.342,-92.074 -29.986,-41.279 -80.56,-58.717 -127.408,-48.519 z"
           id="path8729-3-8-1-7-6-4-3-8-3-4-1-2-0"
           style="fill:#2a49ec;fill-opacity:1" />
        <path
           class="st0"
           d="m 503.6,215.254 c -8.849,-1.945 -31.41,-7.89 -31.41,-7.89 -2.795,-0.706 -5.027,-2.788 -5.918,-5.528 -0.89,-2.732 -0.308,-5.74 1.534,-7.952 0,0 14.76,-18.068 20.78,-24.842 6.014,-6.766 1.993,-13.034 -1.096,-14.589 -28.301,-14.232 -61.978,-17.76 -94.485,-7.205 -48.519,15.767 -80.731,58.472 -85.512,106.176 31.91,35.787 83.067,51.403 131.593,35.636 32.492,-10.561 57.67,-33.218 72.191,-61.362 1.59,-3.074 1.172,-10.499 -7.677,-12.444 z"
           id="path8731-7-2-49-14-0-2-8-3-1-7-4-1-0"
           style="fill:#2a49ec;fill-opacity:1" />
      </g>
      <g
         id="g8733-3-8-8-8-6-3-1-9-8-9-0-4-7"
         transform="matrix(0.02343754,0,0,0.02343754,41.305574,59.142608)"
         style="display:inline;fill:#2a49ec;fill-opacity:1">
        <path
           class="st0"
           d="m 330.555,101.873 c 0,-34.164 -13.767,-65.108 -36.047,-87.622 -2.432,-2.465 -9.63,-4.349 -14.212,3.466 -4.589,7.808 -17.205,27.431 -17.205,27.431 -1.534,2.438 -4.219,3.918 -7.089,3.918 -2.883,0 -5.555,-1.48 -7.089,-3.918 0,0 -12.623,-19.623 -17.205,-27.431 -4.582,-7.815 -11.781,-5.931 -14.219,-3.466 -22.274,22.514 -36.04,53.458 -36.04,87.622 0,51.02 30.663,94.847 74.553,114.142 43.89,-19.295 74.553,-63.123 74.553,-114.142 z"
           id="path8723-8-6-51-3-8-5-2-69-3-6-4-7-7"
           style="fill:#2a49ec;fill-opacity:1" />
        <path
           class="st0"
           d="m 204.51,253.425 c -4.78,-47.705 -36.998,-90.409 -85.518,-106.176 -32.492,-10.554 -66.177,-7.027 -94.47,7.205 -3.096,1.555 -7.117,7.822 -1.096,14.589 6.007,6.774 20.766,24.842 20.766,24.842 1.849,2.212 2.432,5.22 1.542,7.952 -0.891,2.74 -3.13,4.829 -5.918,5.528 0,0 -22.562,5.945 -31.404,7.89 -8.849,1.945 -9.281,9.37 -7.692,12.445 14.527,28.144 39.698,50.801 72.197,61.362 48.519,15.766 99.683,0.15 131.593,-35.637 z"
           id="path8725-5-6-3-4-9-0-3-7-5-0-0-8-3"
           style="fill:#2a49ec;fill-opacity:1" />
        <path
           class="st0"
           d="M 96.772,362.484 C 76.69,390.127 69.636,423.25 74.43,454.558 c 0.527,3.424 5.233,9.178 13.527,5.554 8.308,-3.63 30.054,-12.088 30.054,-12.088 2.672,-1.062 5.698,-0.692 8.041,1 2.329,1.692 3.623,4.466 3.418,7.335 0,0 -1.308,23.294 -2.199,32.315 -0.883,9.006 6.048,11.712 9.466,11.15 31.252,-5.116 60.581,-22.054 80.662,-49.704 29.993,-41.266 30.944,-94.758 6.781,-136.155 -46.848,-10.192 -97.422,7.239 -127.408,48.519 z"
           id="path8727-3-5-0-26-9-2-8-4-2-4-1-5-9"
           style="fill:#2a49ec;fill-opacity:1" />
        <path
           class="st0"
           d="m 287.824,313.964 c -24.165,41.397 -23.212,94.888 6.78,136.155 20.082,27.65 49.41,44.588 80.663,49.704 3.418,0.562 10.349,-2.144 9.466,-11.15 -0.89,-9.021 -2.205,-32.315 -2.205,-32.315 -0.198,-2.869 1.102,-5.643 3.431,-7.335 2.322,-1.692 5.363,-2.062 8.034,-1 0,0 21.746,8.458 30.047,12.088 8.294,3.623 13.007,-2.13 13.534,-5.554 4.787,-31.308 -2.254,-64.43 -22.342,-92.074 -29.986,-41.279 -80.56,-58.717 -127.408,-48.519 z"
           id="path8729-3-8-1-7-6-4-3-2-6-8-4-2-0"
           style="fill:#2a49ec;fill-opacity:1" />
        <path
           class="st0"
           d="m 503.6,215.254 c -8.849,-1.945 -31.41,-7.89 -31.41,-7.89 -2.795,-0.706 -5.027,-2.788 -5.918,-5.528 -0.89,-2.732 -0.308,-5.74 1.534,-7.952 0,0 14.76,-18.068 20.78,-24.842 6.014,-6.766 1.993,-13.034 -1.096,-14.589 -28.301,-14.232 -61.978,-17.76 -94.485,-7.205 -48.519,15.767 -80.731,58.472 -85.512,106.176 31.91,35.787 83.067,51.403 131.593,35.636 32.492,-10.561 57.67,-33.218 72.191,-61.362 1.59,-3.074 1.172,-10.499 -7.677,-12.444 z"
           id="path8731-7-2-49-14-0-2-8-2-3-7-8-0-6"
           style="fill:#2a49ec;fill-opacity:1" />
      </g>
    </g>
    <g
       id="g2900-6-19-3-7-8"
       style="display:inline"
       transform="matrix(0.8490566,0,0,0.8490566,6.3510413,-11.880103)">
      <g
         id="g52262-2-9-0-0-5"
         transform="matrix(0.98398321,0,0,0.98398321,-77.330939,28.78169)"
         style="display:inline">
        <g
           id="g52161-6-7-2-5-3"
           transform="translate(2.80633,13.657473)">
          <circle
             cx="128.43347"
             cy="19.267973"
             r="3.3333101"
             id="circle4-8-5-2-2-9"
             style="fill:#cccc00;fill-opacity:1;stroke-width:0.0520829" />
          <path
             d="m 140.66464,18.36173 c -1.37811,-2.131235 -3.16612,-3.941639 -5.17027,-5.235901 -2.21718,-1.433324 -4.66508,-2.191131 -7.0786,-2.191131 -2.21457,0 -4.39216,0.632808 -6.47235,1.880716 -2.12134,1.272387 -4.0432,3.131229 -5.71246,5.524441 a 1.6624884,1.6624884 0 0 0 -0.0333,1.851029 c 1.37551,2.152589 3.14581,3.965597 5.11871,5.24215 2.22134,1.439053 4.61195,2.168214 7.09943,2.168214 2.4328,0 4.8859,-0.751556 7.0937,-2.1729 2.00311,-1.290096 3.78748,-3.107271 5.16038,-5.256214 a 1.6770716,1.6770716 0 0 0 -0.005,-1.810404 z m -12.23116,5.906209 a 4.9999651,4.9999651 0 1 1 4.99996,-4.999965 5.0056942,5.0056942 0 0 1 -4.99996,4.999965 z"
             id="path6-2-3-1-2-2"
             style="fill:#cccc00;fill-opacity:1;stroke-width:0.0520829" />
          <path
             id="circle4-7-3-7-76-3-3"
             style="display:inline;fill:#929208;fill-opacity:1;stroke-width:0.052083"
             d="m 128.43364,15.935 a 3.33331,3.33331 0 0 0 -3.33364,3.333128 3.33331,3.33331 0 0 0 3.33364,3.333131 3.33331,3.33331 0 0 0 1.32292,-0.276469 3.33331,3.33331 0 0 1 -2.01022,-3.056662 3.33331,3.33331 0 0 1 2.0128,-3.058726 3.33331,3.33331 0 0 0 -1.3255,-0.274402 z" />
          <path
             id="path6-9-0-8-0-8-8"
             style="display:inline;fill:#929208;fill-opacity:1;stroke-width:0.052083"
             d="m 128.4161,10.935 c -2.21457,0 -4.39176,0.633113 -6.47195,1.881021 -2.12134,1.272389 -4.04357,3.130999 -5.71283,5.524211 a 1.6624884,1.6624884 0 0 0 -0.0331,1.851049 c 1.37551,2.152589 3.14566,3.965506 5.11856,5.242057 2.22134,1.439056 4.61234,2.168345 7.09982,2.168345 0.4346,0 0.86941,-0.02433 1.3038,-0.07183 -2.00611,-0.215829 -3.9384,-0.918187 -5.75727,-2.096514 -1.9729,-1.276551 -3.74356,-3.089468 -5.11907,-5.242057 a 1.6624884,1.6624884 0 0 1 0.0336,-1.851049 c 1.66926,-2.393212 3.59097,-4.251822 5.71231,-5.524211 1.66601,-0.999435 3.39481,-1.60328 5.15472,-1.804541 -0.44288,-0.05037 -0.88638,-0.07648 -1.3286,-0.07648 z m 2.10427,3.365169 a 4.9999651,4.9999651 0 0 0 -0.70745,0.203605 4.9999651,4.9999651 0 0 1 3.62097,4.764566 5.0056941,5.0056941 0 0 1 -3.59565,4.789374 4.9999651,4.9999651 0 0 0 1.24178,0.210839 5.0056941,5.0056941 0 0 0 5.00022,-5.000213 4.9999651,4.9999651 0 0 0 -5.55987,-4.968171 z" />
        </g>
        <g
           id="g52161-2-8-6-4-6-1"
           transform="translate(17.432111,2.9961017)"
           style="display:inline">
          <circle
             cx="128.43347"
             cy="19.267973"
             r="3.3333101"
             id="circle4-9-5-8-6-9-6"
             style="fill:#cccc00;fill-opacity:1;stroke-width:0.0520829" />
          <path
             d="m 140.66464,18.36173 c -1.37811,-2.131235 -3.16612,-3.941639 -5.17027,-5.235901 -2.21718,-1.433324 -4.66508,-2.191131 -7.0786,-2.191131 -2.21457,0 -4.39216,0.632808 -6.47235,1.880716 -2.12134,1.272387 -4.0432,3.131229 -5.71246,5.524441 a 1.6624884,1.6624884 0 0 0 -0.0333,1.851029 c 1.37551,2.152589 3.14581,3.965597 5.11871,5.24215 2.22134,1.439053 4.61195,2.168214 7.09943,2.168214 2.4328,0 4.8859,-0.751556 7.0937,-2.1729 2.00311,-1.290096 3.78748,-3.107271 5.16038,-5.256214 a 1.6770716,1.6770716 0 0 0 -0.005,-1.810404 z m -12.23116,5.906209 a 4.9999651,4.9999651 0 1 1 4.99996,-4.999965 5.0056942,5.0056942 0 0 1 -4.99996,4.999965 z"
             id="path6-5-8-3-6-7-4"
             style="fill:#cccc00;fill-opacity:1;stroke-width:0.0520829" />
          <path
             id="circle4-7-8-2-3-31-1-2"
             style="display:inline;fill:#929208;fill-opacity:1;stroke-width:0.052083"
             d="m 128.43364,15.935 a 3.33331,3.33331 0 0 0 -3.33364,3.333128 3.33331,3.33331 0 0 0 3.33364,3.333131 3.33331,3.33331 0 0 0 1.32292,-0.276469 3.33331,3.33331 0 0 1 -2.01022,-3.056662 3.33331,3.33331 0 0 1 2.0128,-3.058726 3.33331,3.33331 0 0 0 -1.3255,-0.274402 z" />
          <path
             id="path6-9-2-73-5-6-0-0"
             style="display:inline;fill:#929208;fill-opacity:1;stroke-width:0.052083"
             d="m 128.4161,10.935 c -2.21457,0 -4.39176,0.633113 -6.47195,1.881021 -2.12134,1.272389 -4.04357,3.130999 -5.71283,5.524211 a 1.6624884,1.6624884 0 0 0 -0.0331,1.851049 c 1.37551,2.152589 3.14566,3.965506 5.11856,5.242057 2.22134,1.439056 4.61234,2.168345 7.09982,2.168345 0.4346,0 0.86941,-0.02433 1.3038,-0.07183 -2.00611,-0.215829 -3.9384,-0.918187 -5.75727,-2.096514 -1.9729,-1.276551 -3.74356,-3.089468 -5.11907,-5.242057 a 1.6624884,1.6624884 0 0 1 0.0336,-1.851049 c 1.66926,-2.393212 3.59097,-4.251822 5.71231,-5.524211 1.66601,-0.999435 3.39481,-1.60328 5.15472,-1.804541 -0.44288,-0.05037 -0.88638,-0.07648 -1.3286,-0.07648 z m 2.10427,3.365169 a 4.9999651,4.9999651 0 0 0 -0.70745,0.203605 4.9999651,4.9999651 0 0 1 3.62097,4.764566 5.0056941,5.0056941 0 0 1 -3.59565,4.789374 4.9999651,4.9999651 0 0 0 1.24178,0.210839 5.0056941,5.0056941 0 0 0 5.00022,-5.000213 4.9999651,4.9999651 0 0 0 -5.55987,-4.968171 z" />
        </g>
        <g
           id="g52161-2-2-3-6-17-7-0"
           transform="translate(31.668923,13.657602)"
           style="display:inline">
          <circle
             cx="128.43347"
             cy="19.267973"
             r="3.3333101"
             id="circle4-9-4-2-93-86-1-3"
             style="fill:#cccc00;fill-opacity:1;stroke-width:0.0520829" />
          <path
             d="m 140.66464,18.36173 c -1.37811,-2.131235 -3.16612,-3.941639 -5.17027,-5.235901 -2.21718,-1.433324 -4.66508,-2.191131 -7.0786,-2.191131 -2.21457,0 -4.39216,0.632808 -6.47235,1.880716 -2.12134,1.272387 -4.0432,3.131229 -5.71246,5.524441 a 1.6624884,1.6624884 0 0 0 -0.0333,1.851029 c 1.37551,2.152589 3.14581,3.965597 5.11871,5.24215 2.22134,1.439053 4.61195,2.168214 7.09943,2.168214 2.4328,0 4.8859,-0.751556 7.0937,-2.1729 2.00311,-1.290096 3.78748,-3.107271 5.16038,-5.256214 a 1.6770716,1.6770716 0 0 0 -0.005,-1.810404 z m -12.23116,5.906209 a 4.9999651,4.9999651 0 1 1 4.99996,-4.999965 5.0056942,5.0056942 0 0 1 -4.99996,4.999965 z"
             id="path6-5-6-6-6-4-3-2"
             style="fill:#cccc00;fill-opacity:1;stroke-width:0.0520829" />
          <path
             id="circle4-7-8-1-4-6-8-9-87"
             style="display:inline;fill:#929208;fill-opacity:1;stroke-width:0.052083"
             d="m 128.43364,15.935 a 3.33331,3.33331 0 0 0 -3.33364,3.333128 3.33331,3.33331 0 0 0 3.33364,3.333131 3.33331,3.33331 0 0 0 1.32292,-0.276469 3.33331,3.33331 0 0 1 -2.01022,-3.056662 3.33331,3.33331 0 0 1 2.0128,-3.058726 3.33331,3.33331 0 0 0 -1.3255,-0.274402 z" />
          <path
             id="path6-9-2-9-9-8-6-5-6"
             style="display:inline;fill:#929208;fill-opacity:1;stroke-width:0.052083"
             d="m 128.4161,10.935 c -2.21457,0 -4.39176,0.633113 -6.47195,1.881021 -2.12134,1.272389 -4.04357,3.130999 -5.71283,5.524211 a 1.6624884,1.6624884 0 0 0 -0.0331,1.851049 c 1.37551,2.152589 3.14566,3.965506 5.11856,5.242057 2.22134,1.439056 4.61234,2.168345 7.09982,2.168345 0.4346,0 0.86941,-0.02433 1.3038,-0.07183 -2.00611,-0.215829 -3.9384,-0.918187 -5.75727,-2.096514 -1.9729,-1.276551 -3.74356,-3.089468 -5.11907,-5.242057 a 1.6624884,1.6624884 0 0 1 0.0336,-1.851049 c 1.66926,-2.393212 3.59097,-4.251822 5.71231,-5.524211 1.66601,-0.999435 3.39481,-1.60328 5.15472,-1.804541 -0.44288,-0.05037 -0.88638,-0.07648 -1.3286,-0.07648 z m 2.10427,3.365169 a 4.9999651,4.9999651 0 0 0 -0.70745,0.203605 4.9999651,4.9999651 0 0 1 3.62097,4.764566 5.0056941,5.0056941 0 0 1 -3.59565,4.789374 4.9999651,4.9999651 0 0 0 1.24178,0.210839 5.0056941,5.0056941 0 0 0 5.00022,-5.000213 4.9999651,4.9999651 0 0 0 -5.55987,-4.968171 z" />
        </g>
      </g>
      <g
         id="g8733-3-8-8-8-6-3-1-09-6-63-2-5"
         transform="matrix(0.02343754,0,0,0.02343754,69.705881,59.142735)"
         style="display:inline;fill:#2a49ec;fill-opacity:1">
        <path
           class="st0"
           d="m 330.555,101.873 c 0,-34.164 -13.767,-65.108 -36.047,-87.622 -2.432,-2.465 -9.63,-4.349 -14.212,3.466 -4.589,7.808 -17.205,27.431 -17.205,27.431 -1.534,2.438 -4.219,3.918 -7.089,3.918 -2.883,0 -5.555,-1.48 -7.089,-3.918 0,0 -12.623,-19.623 -17.205,-27.431 -4.582,-7.815 -11.781,-5.931 -14.219,-3.466 -22.274,22.514 -36.04,53.458 -36.04,87.622 0,51.02 30.663,94.847 74.553,114.142 43.89,-19.295 74.553,-63.123 74.553,-114.142 z"
           id="path8723-8-6-51-3-8-5-2-691-2-09-5-3"
           style="fill:#2a49ec;fill-opacity:1" />
        <path
           class="st0"
           d="m 204.51,253.425 c -4.78,-47.705 -36.998,-90.409 -85.518,-106.176 -32.492,-10.554 -66.177,-7.027 -94.47,7.205 -3.096,1.555 -7.117,7.822 -1.096,14.589 6.007,6.774 20.766,24.842 20.766,24.842 1.849,2.212 2.432,5.22 1.542,7.952 -0.891,2.74 -3.13,4.829 -5.918,5.528 0,0 -22.562,5.945 -31.404,7.89 -8.849,1.945 -9.281,9.37 -7.692,12.445 14.527,28.144 39.698,50.801 72.197,61.362 48.519,15.766 99.683,0.15 131.593,-35.637 z"
           id="path8725-5-6-3-4-9-0-3-5-8-6-6-7"
           style="fill:#2a49ec;fill-opacity:1" />
        <path
           class="st0"
           d="M 96.772,362.484 C 76.69,390.127 69.636,423.25 74.43,454.558 c 0.527,3.424 5.233,9.178 13.527,5.554 8.308,-3.63 30.054,-12.088 30.054,-12.088 2.672,-1.062 5.698,-0.692 8.041,1 2.329,1.692 3.623,4.466 3.418,7.335 0,0 -1.308,23.294 -2.199,32.315 -0.883,9.006 6.048,11.712 9.466,11.15 31.252,-5.116 60.581,-22.054 80.662,-49.704 29.993,-41.266 30.944,-94.758 6.781,-136.155 -46.848,-10.192 -97.422,7.239 -127.408,48.519 z"
           id="path8727-3-5-0-26-9-2-8-47-15-88-4-9"
           style="fill:#2a49ec;fill-opacity:1" />
        <path
           class="st0"
           d="m 287.824,313.964 c -24.165,41.397 -23.212,94.888 6.78,136.155 20.082,27.65 49.41,44.588 80.663,49.704 3.418,0.562 10.349,-2.144 9.466,-11.15 -0.89,-9.021 -2.205,-32.315 -2.205,-32.315 -0.198,-2.869 1.102,-5.643 3.431,-7.335 2.322,-1.692 5.363,-2.062 8.034,-1 0,0 21.746,8.458 30.047,12.088 8.294,3.623 13.007,-2.13 13.534,-5.554 4.787,-31.308 -2.254,-64.43 -22.342,-92.074 -29.986,-41.279 -80.56,-58.717 -127.408,-48.519 z"
           id="path8729-3-8-1-7-6-4-3-0-6-7-0-3"
           style="fill:#2a49ec;fill-opacity:1" />
        <path
           class="st0"
           d="m 503.6,215.254 c -8.849,-1.945 -31.41,-7.89 -31.41,-7.89 -2.795,-0.706 -5.027,-2.788 -5.918,-5.528 -0.89,-2.732 -0.308,-5.74 1.534,-7.952 0,0 14.76,-18.068 20.78,-24.842 6.014,-6.766 1.993,-13.034 -1.096,-14.589 -28.301,-14.232 -61.978,-17.76 -94.485,-7.205 -48.519,15.767 -80.731,58.472 -85.512,106.176 31.91,35.787 83.067,51.403 131.593,35.636 32.492,-10.561 57.67,-33.218 72.191,-61.362 1.59,-3.074 1.172,-10.499 -7.677,-12.444 z"
           id="path8731-7-2-49-14-0-2-8-7-3-24-9-2"
           style="fill:#2a49ec;fill-opacity:1" />
      </g>
      <g
         id="g8733-3-8-8-8-6-3-1-1-34-29-7-6-23"
         transform="matrix(0.02343754,0,0,0.02343754,55.697097,48.651998)"
         style="display:inline;fill:#2a49ec;fill-opacity:1">
        <path
           class="st0"
           d="m 330.555,101.873 c 0,-34.164 -13.767,-65.108 -36.047,-87.622 -2.432,-2.465 -9.63,-4.349 -14.212,3.466 -4.589,7.808 -17.205,27.431 -17.205,27.431 -1.534,2.438 -4.219,3.918 -7.089,3.918 -2.883,0 -5.555,-1.48 -7.089,-3.918 0,0 -12.623,-19.623 -17.205,-27.431 -4.582,-7.815 -11.781,-5.931 -14.219,-3.466 -22.274,22.514 -36.04,53.458 -36.04,87.622 0,51.02 30.663,94.847 74.553,114.142 43.89,-19.295 74.553,-63.123 74.553,-114.142 z"
           id="path8723-8-6-51-3-8-5-2-6-7-9-9-4-4"
           style="fill:#2a49ec;fill-opacity:1" />
        <path
           class="st0"
           d="m 204.51,253.425 c -4.78,-47.705 -36.998,-90.409 -85.518,-106.176 -32.492,-10.554 -66.177,-7.027 -94.47,7.205 -3.096,1.555 -7.117,7.822 -1.096,14.589 6.007,6.774 20.766,24.842 20.766,24.842 1.849,2.212 2.432,5.22 1.542,7.952 -0.891,2.74 -3.13,4.829 -5.918,5.528 0,0 -22.562,5.945 -31.404,7.89 -8.849,1.945 -9.281,9.37 -7.692,12.445 14.527,28.144 39.698,50.801 72.197,61.362 48.519,15.766 99.683,0.15 131.593,-35.637 z"
           id="path8725-5-6-3-4-9-0-3-1-0-8-7-2-9"
           style="fill:#2a49ec;fill-opacity:1" />
        <path
           class="st0"
           d="M 96.772,362.484 C 76.69,390.127 69.636,423.25 74.43,454.558 c 0.527,3.424 5.233,9.178 13.527,5.554 8.308,-3.63 30.054,-12.088 30.054,-12.088 2.672,-1.062 5.698,-0.692 8.041,1 2.329,1.692 3.623,4.466 3.418,7.335 0,0 -1.308,23.294 -2.199,32.315 -0.883,9.006 6.048,11.712 9.466,11.15 31.252,-5.116 60.581,-22.054 80.662,-49.704 29.993,-41.266 30.944,-94.758 6.781,-136.155 -46.848,-10.192 -97.422,7.239 -127.408,48.519 z"
           id="path8727-3-5-0-26-9-2-8-2-3-6-94-1-0"
           style="fill:#2a49ec;fill-opacity:1" />
        <path
           class="st0"
           d="m 287.824,313.964 c -24.165,41.397 -23.212,94.888 6.78,136.155 20.082,27.65 49.41,44.588 80.663,49.704 3.418,0.562 10.349,-2.144 9.466,-11.15 -0.89,-9.021 -2.205,-32.315 -2.205,-32.315 -0.198,-2.869 1.102,-5.643 3.431,-7.335 2.322,-1.692 5.363,-2.062 8.034,-1 0,0 21.746,8.458 30.047,12.088 8.294,3.623 13.007,-2.13 13.534,-5.554 4.787,-31.308 -2.254,-64.43 -22.342,-92.074 -29.986,-41.279 -80.56,-58.717 -127.408,-48.519 z"
           id="path8729-3-8-1-7-6-4-3-8-3-4-1-2-7"
           style="fill:#2a49ec;fill-opacity:1" />
        <path
           class="st0"
           d="m 503.6,215.254 c -8.849,-1.945 -31.41,-7.89 -31.41,-7.89 -2.795,-0.706 -5.027,-2.788 -5.918,-5.528 -0.89,-2.732 -0.308,-5.74 1.534,-7.952 0,0 14.76,-18.068 20.78,-24.842 6.014,-6.766 1.993,-13.034 -1.096,-14.589 -28.301,-14.232 -61.978,-17.76 -94.485,-7.205 -48.519,15.767 -80.731,58.472 -85.512,106.176 31.91,35.787 83.067,51.403 131.593,35.636 32.492,-10.561 57.67,-33.218 72.191,-61.362 1.59,-3.074 1.172,-10.499 -7.677,-12.444 z"
           id="path8731-7-2-49-14-0-2-8-3-1-7-4-1-03"
           style="fill:#2a49ec;fill-opacity:1" />
      </g>
      <g
         id="g8733-3-8-8-8-6-3-1-9-8-9-0-4-5"
         transform="matrix(0.02343754,0,0,0.02343754,41.305574,59.142608)"
         style="display:inline;fill:#2a49ec;fill-opacity:1">
        <path
           class="st0"
           d="m 330.555,101.873 c 0,-34.164 -13.767,-65.108 -36.047,-87.622 -2.432,-2.465 -9.63,-4.349 -14.212,3.466 -4.589,7.808 -17.205,27.431 -17.205,27.431 -1.534,2.438 -4.219,3.918 -7.089,3.918 -2.883,0 -5.555,-1.48 -7.089,-3.918 0,0 -12.623,-19.623 -17.205,-27.431 -4.582,-7.815 -11.781,-5.931 -14.219,-3.466 -22.274,22.514 -36.04,53.458 -36.04,87.622 0,51.02 30.663,94.847 74.553,114.142 43.89,-19.295 74.553,-63.123 74.553,-114.142 z"
           id="path8723-8-6-51-3-8-5-2-69-3-6-4-7-8"
           style="fill:#2a49ec;fill-opacity:1" />
        <path
           class="st0"
           d="m 204.51,253.425 c -4.78,-47.705 -36.998,-90.409 -85.518,-106.176 -32.492,-10.554 -66.177,-7.027 -94.47,7.205 -3.096,1.555 -7.117,7.822 -1.096,14.589 6.007,6.774 20.766,24.842 20.766,24.842 1.849,2.212 2.432,5.22 1.542,7.952 -0.891,2.74 -3.13,4.829 -5.918,5.528 0,0 -22.562,5.945 -31.404,7.89 -8.849,1.945 -9.281,9.37 -7.692,12.445 14.527,28.144 39.698,50.801 72.197,61.362 48.519,15.766 99.683,0.15 131.593,-35.637 z"
           id="path8725-5-6-3-4-9-0-3-7-5-0-0-8-0"
           style="fill:#2a49ec;fill-opacity:1" />
        <path
           class="st0"
           d="M 96.772,362.484 C 76.69,390.127 69.636,423.25 74.43,454.558 c 0.527,3.424 5.233,9.178 13.527,5.554 8.308,-3.63 30.054,-12.088 30.054,-12.088 2.672,-1.062 5.698,-0.692 8.041,1 2.329,1.692 3.623,4.466 3.418,7.335 0,0 -1.308,23.294 -2.199,32.315 -0.883,9.006 6.048,11.712 9.466,11.15 31.252,-5.116 60.581,-22.054 80.662,-49.704 29.993,-41.266 30.944,-94.758 6.781,-136.155 -46.848,-10.192 -97.422,7.239 -127.408,48.519 z"
           id="path8727-3-5-0-26-9-2-8-4-2-4-1-5-6"
           style="fill:#2a49ec;fill-opacity:1" />
        <path
           class="st0"
           d="m 287.824,313.964 c -24.165,41.397 -23.212,94.888 6.78,136.155 20.082,27.65 49.41,44.588 80.663,49.704 3.418,0.562 10.349,-2.144 9.466,-11.15 -0.89,-9.021 -2.205,-32.315 -2.205,-32.315 -0.198,-2.869 1.102,-5.643 3.431,-7.335 2.322,-1.692 5.363,-2.062 8.034,-1 0,0 21.746,8.458 30.047,12.088 8.294,3.623 13.007,-2.13 13.534,-5.554 4.787,-31.308 -2.254,-64.43 -22.342,-92.074 -29.986,-41.279 -80.56,-58.717 -127.408,-48.519 z"
           id="path8729-3-8-1-7-6-4-3-2-6-8-4-2-4"
           style="fill:#2a49ec;fill-opacity:1" />
        <path
           class="st0"
           d="m 503.6,215.254 c -8.849,-1.945 -31.41,-7.89 -31.41,-7.89 -2.795,-0.706 -5.027,-2.788 -5.918,-5.528 -0.89,-2.732 -0.308,-5.74 1.534,-7.952 0,0 14.76,-18.068 20.78,-24.842 6.014,-6.766 1.993,-13.034 -1.096,-14.589 -28.301,-14.232 -61.978,-17.76 -94.485,-7.205 -48.519,15.767 -80.731,58.472 -85.512,106.176 31.91,35.787 83.067,51.403 131.593,35.636 32.492,-10.561 57.67,-33.218 72.191,-61.362 1.59,-3.074 1.172,-10.499 -7.677,-12.444 z"
           id="path8731-7-2-49-14-0-2-8-2-3-7-8-0-9"
           style="fill:#2a49ec;fill-opacity:1" />
      </g>
    </g>
    <g
       id="g2900-6-19-3-7-8-1"
       style="display:inline"
       transform="matrix(0.8490566,0,0,0.8490566,34.197858,21.037547)">
      <g
         id="g52262-2-9-0-0-5-5"
         transform="matrix(0.98398321,0,0,0.98398321,-77.330939,28.78169)"
         style="display:inline">
        <g
           id="g52161-6-7-2-5-3-2"
           transform="translate(2.80633,13.657473)">
          <circle
             cx="128.43347"
             cy="19.267973"
             r="3.3333101"
             id="circle4-8-5-2-2-9-7"
             style="fill:#cccc00;fill-opacity:1;stroke-width:0.0520829" />
          <path
             d="m 140.66464,18.36173 c -1.37811,-2.131235 -3.16612,-3.941639 -5.17027,-5.235901 -2.21718,-1.433324 -4.66508,-2.191131 -7.0786,-2.191131 -2.21457,0 -4.39216,0.632808 -6.47235,1.880716 -2.12134,1.272387 -4.0432,3.131229 -5.71246,5.524441 a 1.6624884,1.6624884 0 0 0 -0.0333,1.851029 c 1.37551,2.152589 3.14581,3.965597 5.11871,5.24215 2.22134,1.439053 4.61195,2.168214 7.09943,2.168214 2.4328,0 4.8859,-0.751556 7.0937,-2.1729 2.00311,-1.290096 3.78748,-3.107271 5.16038,-5.256214 a 1.6770716,1.6770716 0 0 0 -0.005,-1.810404 z m -12.23116,5.906209 a 4.9999651,4.9999651 0 1 1 4.99996,-4.999965 5.0056942,5.0056942 0 0 1 -4.99996,4.999965 z"
             id="path6-2-3-1-2-2-2"
             style="fill:#cccc00;fill-opacity:1;stroke-width:0.0520829" />
          <path
             id="circle4-7-3-7-76-3-3-4"
             style="display:inline;fill:#929208;fill-opacity:1;stroke-width:0.052083"
             d="m 128.43364,15.935 a 3.33331,3.33331 0 0 0 -3.33364,3.333128 3.33331,3.33331 0 0 0 3.33364,3.333131 3.33331,3.33331 0 0 0 1.32292,-0.276469 3.33331,3.33331 0 0 1 -2.01022,-3.056662 3.33331,3.33331 0 0 1 2.0128,-3.058726 3.33331,3.33331 0 0 0 -1.3255,-0.274402 z" />
          <path
             id="path6-9-0-8-0-8-8-0"
             style="display:inline;fill:#929208;fill-opacity:1;stroke-width:0.052083"
             d="m 128.4161,10.935 c -2.21457,0 -4.39176,0.633113 -6.47195,1.881021 -2.12134,1.272389 -4.04357,3.130999 -5.71283,5.524211 a 1.6624884,1.6624884 0 0 0 -0.0331,1.851049 c 1.37551,2.152589 3.14566,3.965506 5.11856,5.242057 2.22134,1.439056 4.61234,2.168345 7.09982,2.168345 0.4346,0 0.86941,-0.02433 1.3038,-0.07183 -2.00611,-0.215829 -3.9384,-0.918187 -5.75727,-2.096514 -1.9729,-1.276551 -3.74356,-3.089468 -5.11907,-5.242057 a 1.6624884,1.6624884 0 0 1 0.0336,-1.851049 c 1.66926,-2.393212 3.59097,-4.251822 5.71231,-5.524211 1.66601,-0.999435 3.39481,-1.60328 5.15472,-1.804541 -0.44288,-0.05037 -0.88638,-0.07648 -1.3286,-0.07648 z m 2.10427,3.365169 a 4.9999651,4.9999651 0 0 0 -0.70745,0.203605 4.9999651,4.9999651 0 0 1 3.62097,4.764566 5.0056941,5.0056941 0 0 1 -3.59565,4.789374 4.9999651,4.9999651 0 0 0 1.24178,0.210839 5.0056941,5.0056941 0 0 0 5.00022,-5.000213 4.9999651,4.9999651 0 0 0 -5.55987,-4.968171 z" />
        </g>
        <g
           id="g52161-2-8-6-4-6-1-0"
           transform="translate(17.432111,2.9961017)"
           style="display:inline">
          <circle
             cx="128.43347"
             cy="19.267973"
             r="3.3333101"
             id="circle4-9-5-8-6-9-6-4"
             style="fill:#cccc00;fill-opacity:1;stroke-width:0.0520829" />
          <path
             d="m 140.66464,18.36173 c -1.37811,-2.131235 -3.16612,-3.941639 -5.17027,-5.235901 -2.21718,-1.433324 -4.66508,-2.191131 -7.0786,-2.191131 -2.21457,0 -4.39216,0.632808 -6.47235,1.880716 -2.12134,1.272387 -4.0432,3.131229 -5.71246,5.524441 a 1.6624884,1.6624884 0 0 0 -0.0333,1.851029 c 1.37551,2.152589 3.14581,3.965597 5.11871,5.24215 2.22134,1.439053 4.61195,2.168214 7.09943,2.168214 2.4328,0 4.8859,-0.751556 7.0937,-2.1729 2.00311,-1.290096 3.78748,-3.107271 5.16038,-5.256214 a 1.6770716,1.6770716 0 0 0 -0.005,-1.810404 z m -12.23116,5.906209 a 4.9999651,4.9999651 0 1 1 4.99996,-4.999965 5.0056942,5.0056942 0 0 1 -4.99996,4.999965 z"
             id="path6-5-8-3-6-7-4-3"
             style="fill:#cccc00;fill-opacity:1;stroke-width:0.0520829" />
          <path
             id="circle4-7-8-2-3-31-1-2-5"
             style="display:inline;fill:#929208;fill-opacity:1;stroke-width:0.052083"
             d="m 128.43364,15.935 a 3.33331,3.33331 0 0 0 -3.33364,3.333128 3.33331,3.33331 0 0 0 3.33364,3.333131 3.33331,3.33331 0 0 0 1.32292,-0.276469 3.33331,3.33331 0 0 1 -2.01022,-3.056662 3.33331,3.33331 0 0 1 2.0128,-3.058726 3.33331,3.33331 0 0 0 -1.3255,-0.274402 z" />
          <path
             id="path6-9-2-73-5-6-0-0-4"
             style="display:inline;fill:#929208;fill-opacity:1;stroke-width:0.052083"
             d="m 128.4161,10.935 c -2.21457,0 -4.39176,0.633113 -6.47195,1.881021 -2.12134,1.272389 -4.04357,3.130999 -5.71283,5.524211 a 1.6624884,1.6624884 0 0 0 -0.0331,1.851049 c 1.37551,2.152589 3.14566,3.965506 5.11856,5.242057 2.22134,1.439056 4.61234,2.168345 7.09982,2.168345 0.4346,0 0.86941,-0.02433 1.3038,-0.07183 -2.00611,-0.215829 -3.9384,-0.918187 -5.75727,-2.096514 -1.9729,-1.276551 -3.74356,-3.089468 -5.11907,-5.242057 a 1.6624884,1.6624884 0 0 1 0.0336,-1.851049 c 1.66926,-2.393212 3.59097,-4.251822 5.71231,-5.524211 1.66601,-0.999435 3.39481,-1.60328 5.15472,-1.804541 -0.44288,-0.05037 -0.88638,-0.07648 -1.3286,-0.07648 z m 2.10427,3.365169 a 4.9999651,4.9999651 0 0 0 -0.70745,0.203605 4.9999651,4.9999651 0 0 1 3.62097,4.764566 5.0056941,5.0056941 0 0 1 -3.59565,4.789374 4.9999651,4.9999651 0 0 0 1.24178,0.210839 5.0056941,5.0056941 0 0 0 5.00022,-5.000213 4.9999651,4.9999651 0 0 0 -5.55987,-4.968171 z" />
        </g>
        <g
           id="g52161-2-2-3-6-17-7-0-9"
           transform="translate(31.668923,13.657602)"
           style="display:inline">
          <circle
             cx="128.43347"
             cy="19.267973"
             r="3.3333101"
             id="circle4-9-4-2-93-86-1-3-8"
             style="fill:#cccc00;fill-opacity:1;stroke-width:0.0520829" />
          <path
             d="m 140.66464,18.36173 c -1.37811,-2.131235 -3.16612,-3.941639 -5.17027,-5.235901 -2.21718,-1.433324 -4.66508,-2.191131 -7.0786,-2.191131 -2.21457,0 -4.39216,0.632808 -6.47235,1.880716 -2.12134,1.272387 -4.0432,3.131229 -5.71246,5.524441 a 1.6624884,1.6624884 0 0 0 -0.0333,1.851029 c 1.37551,2.152589 3.14581,3.965597 5.11871,5.24215 2.22134,1.439053 4.61195,2.168214 7.09943,2.168214 2.4328,0 4.8859,-0.751556 7.0937,-2.1729 2.00311,-1.290096 3.78748,-3.107271 5.16038,-5.256214 a 1.6770716,1.6770716 0 0 0 -0.005,-1.810404 z m -12.23116,5.906209 a 4.9999651,4.9999651 0 1 1 4.99996,-4.999965 5.0056942,5.0056942 0 0 1 -4.99996,4.999965 z"
             id="path6-5-6-6-6-4-3-2-4"
             style="fill:#cccc00;fill-opacity:1;stroke-width:0.0520829" />
          <path
             id="circle4-7-8-1-4-6-8-9-87-1"
             style="display:inline;fill:#929208;fill-opacity:1;stroke-width:0.052083"
             d="m 128.43364,15.935 a 3.33331,3.33331 0 0 0 -3.33364,3.333128 3.33331,3.33331 0 0 0 3.33364,3.333131 3.33331,3.33331 0 0 0 1.32292,-0.276469 3.33331,3.33331 0 0 1 -2.01022,-3.056662 3.33331,3.33331 0 0 1 2.0128,-3.058726 3.33331,3.33331 0 0 0 -1.3255,-0.274402 z" />
          <path
             id="path6-9-2-9-9-8-6-5-6-9"
             style="display:inline;fill:#929208;fill-opacity:1;stroke-width:0.052083"
             d="m 128.4161,10.935 c -2.21457,0 -4.39176,0.633113 -6.47195,1.881021 -2.12134,1.272389 -4.04357,3.130999 -5.71283,5.524211 a 1.6624884,1.6624884 0 0 0 -0.0331,1.851049 c 1.37551,2.152589 3.14566,3.965506 5.11856,5.242057 2.22134,1.439056 4.61234,2.168345 7.09982,2.168345 0.4346,0 0.86941,-0.02433 1.3038,-0.07183 -2.00611,-0.215829 -3.9384,-0.918187 -5.75727,-2.096514 -1.9729,-1.276551 -3.74356,-3.089468 -5.11907,-5.242057 a 1.6624884,1.6624884 0 0 1 0.0336,-1.851049 c 1.66926,-2.393212 3.59097,-4.251822 5.71231,-5.524211 1.66601,-0.999435 3.39481,-1.60328 5.15472,-1.804541 -0.44288,-0.05037 -0.88638,-0.07648 -1.3286,-0.07648 z m 2.10427,3.365169 a 4.9999651,4.9999651 0 0 0 -0.70745,0.203605 4.9999651,4.9999651 0 0 1 3.62097,4.764566 5.0056941,5.0056941 0 0 1 -3.59565,4.789374 4.9999651,4.9999651 0 0 0 1.24178,0.210839 5.0056941,5.0056941 0 0 0 5.00022,-5.000213 4.9999651,4.9999651 0 0 0 -5.55987,-4.968171 z" />
        </g>
      </g>
      <g
         id="g8733-3-8-8-8-6-3-1-09-6-63-2-5-3"
         transform="matrix(0.02343754,0,0,0.02343754,69.705881,59.142735)"
         style="display:inline;fill:#2a49ec;fill-opacity:1">
        <path
           class="st0"
           d="m 330.555,101.873 c 0,-34.164 -13.767,-65.108 -36.047,-87.622 -2.432,-2.465 -9.63,-4.349 -14.212,3.466 -4.589,7.808 -17.205,27.431 -17.205,27.431 -1.534,2.438 -4.219,3.918 -7.089,3.918 -2.883,0 -5.555,-1.48 -7.089,-3.918 0,0 -12.623,-19.623 -17.205,-27.431 -4.582,-7.815 -11.781,-5.931 -14.219,-3.466 -22.274,22.514 -36.04,53.458 -36.04,87.622 0,51.02 30.663,94.847 74.553,114.142 43.89,-19.295 74.553,-63.123 74.553,-114.142 z"
           id="path8723-8-6-51-3-8-5-2-691-2-09-5-3-7"
           style="fill:#2a49ec;fill-opacity:1" />
        <path
           class="st0"
           d="m 204.51,253.425 c -4.78,-47.705 -36.998,-90.409 -85.518,-106.176 -32.492,-10.554 -66.177,-7.027 -94.47,7.205 -3.096,1.555 -7.117,7.822 -1.096,14.589 6.007,6.774 20.766,24.842 20.766,24.842 1.849,2.212 2.432,5.22 1.542,7.952 -0.891,2.74 -3.13,4.829 -5.918,5.528 0,0 -22.562,5.945 -31.404,7.89 -8.849,1.945 -9.281,9.37 -7.692,12.445 14.527,28.144 39.698,50.801 72.197,61.362 48.519,15.766 99.683,0.15 131.593,-35.637 z"
           id="path8725-5-6-3-4-9-0-3-5-8-6-6-7-0"
           style="fill:#2a49ec;fill-opacity:1" />
        <path
           class="st0"
           d="M 96.772,362.484 C 76.69,390.127 69.636,423.25 74.43,454.558 c 0.527,3.424 5.233,9.178 13.527,5.554 8.308,-3.63 30.054,-12.088 30.054,-12.088 2.672,-1.062 5.698,-0.692 8.041,1 2.329,1.692 3.623,4.466 3.418,7.335 0,0 -1.308,23.294 -2.199,32.315 -0.883,9.006 6.048,11.712 9.466,11.15 31.252,-5.116 60.581,-22.054 80.662,-49.704 29.993,-41.266 30.944,-94.758 6.781,-136.155 -46.848,-10.192 -97.422,7.239 -127.408,48.519 z"
           id="path8727-3-5-0-26-9-2-8-47-15-88-4-9-6"
           style="fill:#2a49ec;fill-opacity:1" />
        <path
           class="st0"
           d="m 287.824,313.964 c -24.165,41.397 -23.212,94.888 6.78,136.155 20.082,27.65 49.41,44.588 80.663,49.704 3.418,0.562 10.349,-2.144 9.466,-11.15 -0.89,-9.021 -2.205,-32.315 -2.205,-32.315 -0.198,-2.869 1.102,-5.643 3.431,-7.335 2.322,-1.692 5.363,-2.062 8.034,-1 0,0 21.746,8.458 30.047,12.088 8.294,3.623 13.007,-2.13 13.534,-5.554 4.787,-31.308 -2.254,-64.43 -22.342,-92.074 -29.986,-41.279 -80.56,-58.717 -127.408,-48.519 z"
           id="path8729-3-8-1-7-6-4-3-0-6-7-0-3-0"
           style="fill:#2a49ec;fill-opacity:1" />
        <path
           class="st0"
           d="m 503.6,215.254 c -8.849,-1.945 -31.41,-7.89 -31.41,-7.89 -2.795,-0.706 -5.027,-2.788 -5.918,-5.528 -0.89,-2.732 -0.308,-5.74 1.534,-7.952 0,0 14.76,-18.068 20.78,-24.842 6.014,-6.766 1.993,-13.034 -1.096,-14.589 -28.301,-14.232 -61.978,-17.76 -94.485,-7.205 -48.519,15.767 -80.731,58.472 -85.512,106.176 31.91,35.787 83.067,51.403 131.593,35.636 32.492,-10.561 57.67,-33.218 72.191,-61.362 1.59,-3.074 1.172,-10.499 -7.677,-12.444 z"
           id="path8731-7-2-49-14-0-2-8-7-3-24-9-2-6"
           style="fill:#2a49ec;fill-opacity:1" />
      </g>
      <g
         id="g8733-3-8-8-8-6-3-1-1-34-29-7-6-23-2"
         transform="matrix(0.02343754,0,0,0.02343754,55.697097,48.651998)"
         style="display:inline;fill:#2a49ec;fill-opacity:1">
        <path
           class="st0"
           d="m 330.555,101.873 c 0,-34.164 -13.767,-65.108 -36.047,-87.622 -2.432,-2.465 -9.63,-4.349 -14.212,3.466 -4.589,7.808 -17.205,27.431 -17.205,27.431 -1.534,2.438 -4.219,3.918 -7.089,3.918 -2.883,0 -5.555,-1.48 -7.089,-3.918 0,0 -12.623,-19.623 -17.205,-27.431 -4.582,-7.815 -11.781,-5.931 -14.219,-3.466 -22.274,22.514 -36.04,53.458 -36.04,87.622 0,51.02 30.663,94.847 74.553,114.142 43.89,-19.295 74.553,-63.123 74.553,-114.142 z"
           id="path8723-8-6-51-3-8-5-2-6-7-9-9-4-4-7"
           style="fill:#2a49ec;fill-opacity:1" />
        <path
           class="st0"
           d="m 204.51,253.425 c -4.78,-47.705 -36.998,-90.409 -85.518,-106.176 -32.492,-10.554 -66.177,-7.027 -94.47,7.205 -3.096,1.555 -7.117,7.822 -1.096,14.589 6.007,6.774 20.766,24.842 20.766,24.842 1.849,2.212 2.432,5.22 1.542,7.952 -0.891,2.74 -3.13,4.829 -5.918,5.528 0,0 -22.562,5.945 -31.404,7.89 -8.849,1.945 -9.281,9.37 -7.692,12.445 14.527,28.144 39.698,50.801 72.197,61.362 48.519,15.766 99.683,0.15 131.593,-35.637 z"
           id="path8725-5-6-3-4-9-0-3-1-0-8-7-2-9-8"
           style="fill:#2a49ec;fill-opacity:1" />
        <path
           class="st0"
           d="M 96.772,362.484 C 76.69,390.127 69.636,423.25 74.43,454.558 c 0.527,3.424 5.233,9.178 13.527,5.554 8.308,-3.63 30.054,-12.088 30.054,-12.088 2.672,-1.062 5.698,-0.692 8.041,1 2.329,1.692 3.623,4.466 3.418,7.335 0,0 -1.308,23.294 -2.199,32.315 -0.883,9.006 6.048,11.712 9.466,11.15 31.252,-5.116 60.581,-22.054 80.662,-49.704 29.993,-41.266 30.944,-94.758 6.781,-136.155 -46.848,-10.192 -97.422,7.239 -127.408,48.519 z"
           id="path8727-3-5-0-26-9-2-8-2-3-6-94-1-0-3"
           style="fill:#2a49ec;fill-opacity:1" />
        <path
           class="st0"
           d="m 287.824,313.964 c -24.165,41.397 -23.212,94.888 6.78,136.155 20.082,27.65 49.41,44.588 80.663,49.704 3.418,0.562 10.349,-2.144 9.466,-11.15 -0.89,-9.021 -2.205,-32.315 -2.205,-32.315 -0.198,-2.869 1.102,-5.643 3.431,-7.335 2.322,-1.692 5.363,-2.062 8.034,-1 0,0 21.746,8.458 30.047,12.088 8.294,3.623 13.007,-2.13 13.534,-5.554 4.787,-31.308 -2.254,-64.43 -22.342,-92.074 -29.986,-41.279 -80.56,-58.717 -127.408,-48.519 z"
           id="path8729-3-8-1-7-6-4-3-8-3-4-1-2-7-9"
           style="fill:#2a49ec;fill-opacity:1" />
        <path
           class="st0"
           d="m 503.6,215.254 c -8.849,-1.945 -31.41,-7.89 -31.41,-7.89 -2.795,-0.706 -5.027,-2.788 -5.918,-5.528 -0.89,-2.732 -0.308,-5.74 1.534,-7.952 0,0 14.76,-18.068 20.78,-24.842 6.014,-6.766 1.993,-13.034 -1.096,-14.589 -28.301,-14.232 -61.978,-17.76 -94.485,-7.205 -48.519,15.767 -80.731,58.472 -85.512,106.176 31.91,35.787 83.067,51.403 131.593,35.636 32.492,-10.561 57.67,-33.218 72.191,-61.362 1.59,-3.074 1.172,-10.499 -7.677,-12.444 z"
           id="path8731-7-2-49-14-0-2-8-3-1-7-4-1-03-2"
           style="fill:#2a49ec;fill-opacity:1" />
      </g>
      <g
         id="g8733-3-8-8-8-6-3-1-9-8-9-0-4-5-1"
         transform="matrix(0.02343754,0,0,0.02343754,41.305574,59.142608)"
         style="display:inline;fill:#2a49ec;fill-opacity:1">
        <path
           class="st0"
           d="m 330.555,101.873 c 0,-34.164 -13.767,-65.108 -36.047,-87.622 -2.432,-2.465 -9.63,-4.349 -14.212,3.466 -4.589,7.808 -17.205,27.431 -17.205,27.431 -1.534,2.438 -4.219,3.918 -7.089,3.918 -2.883,0 -5.555,-1.48 -7.089,-3.918 0,0 -12.623,-19.623 -17.205,-27.431 -4.582,-7.815 -11.781,-5.931 -14.219,-3.466 -22.274,22.514 -36.04,53.458 -36.04,87.622 0,51.02 30.663,94.847 74.553,114.142 43.89,-19.295 74.553,-63.123 74.553,-114.142 z"
           id="path8723-8-6-51-3-8-5-2-69-3-6-4-7-8-8"
           style="fill:#2a49ec;fill-opacity:1" />
        <path
           class="st0"
           d="m 204.51,253.425 c -4.78,-47.705 -36.998,-90.409 -85.518,-106.176 -32.492,-10.554 -66.177,-7.027 -94.47,7.205 -3.096,1.555 -7.117,7.822 -1.096,14.589 6.007,6.774 20.766,24.842 20.766,24.842 1.849,2.212 2.432,5.22 1.542,7.952 -0.891,2.74 -3.13,4.829 -5.918,5.528 0,0 -22.562,5.945 -31.404,7.89 -8.849,1.945 -9.281,9.37 -7.692,12.445 14.527,28.144 39.698,50.801 72.197,61.362 48.519,15.766 99.683,0.15 131.593,-35.637 z"
           id="path8725-5-6-3-4-9-0-3-7-5-0-0-8-0-0"
           style="fill:#2a49ec;fill-opacity:1" />
        <path
           class="st0"
           d="M 96.772,362.484 C 76.69,390.127 69.636,423.25 74.43,454.558 c 0.527,3.424 5.233,9.178 13.527,5.554 8.308,-3.63 30.054,-12.088 30.054,-12.088 2.672,-1.062 5.698,-0.692 8.041,1 2.329,1.692 3.623,4.466 3.418,7.335 0,0 -1.308,23.294 -2.199,32.315 -0.883,9.006 6.048,11.712 9.466,11.15 31.252,-5.116 60.581,-22.054 80.662,-49.704 29.993,-41.266 30.944,-94.758 6.781,-136.155 -46.848,-10.192 -97.422,7.239 -127.408,48.519 z"
           id="path8727-3-5-0-26-9-2-8-4-2-4-1-5-6-0"
           style="fill:#2a49ec;fill-opacity:1" />
        <path
           class="st0"
           d="m 287.824,313.964 c -24.165,41.397 -23.212,94.888 6.78,136.155 20.082,27.65 49.41,44.588 80.663,49.704 3.418,0.562 10.349,-2.144 9.466,-11.15 -0.89,-9.021 -2.205,-32.315 -2.205,-32.315 -0.198,-2.869 1.102,-5.643 3.431,-7.335 2.322,-1.692 5.363,-2.062 8.034,-1 0,0 21.746,8.458 30.047,12.088 8.294,3.623 13.007,-2.13 13.534,-5.554 4.787,-31.308 -2.254,-64.43 -22.342,-92.074 -29.986,-41.279 -80.56,-58.717 -127.408,-48.519 z"
           id="path8729-3-8-1-7-6-4-3-2-6-8-4-2-4-7"
           style="fill:#2a49ec;fill-opacity:1" />
        <path
           class="st0"
           d="m 503.6,215.254 c -8.849,-1.945 -31.41,-7.89 -31.41,-7.89 -2.795,-0.706 -5.027,-2.788 -5.918,-5.528 -0.89,-2.732 -0.308,-5.74 1.534,-7.952 0,0 14.76,-18.068 20.78,-24.842 6.014,-6.766 1.993,-13.034 -1.096,-14.589 -28.301,-14.232 -61.978,-17.76 -94.485,-7.205 -48.519,15.767 -80.731,58.472 -85.512,106.176 31.91,35.787 83.067,51.403 131.593,35.636 32.492,-10.561 57.67,-33.218 72.191,-61.362 1.59,-3.074 1.172,-10.499 -7.677,-12.444 z"
           id="path8731-7-2-49-14-0-2-8-2-3-7-8-0-9-9"
           style="fill:#2a49ec;fill-opacity:1" />
      </g>
    </g>
    <g
       id="g2900-6-19-3-7-8-6"
       style="display:inline"
       transform="matrix(0.56603774,0,0,0.56603774,70.622097,12.374311)">
      <g
         id="g52262-2-9-0-0-5-1"
         transform="matrix(0.98398321,0,0,0.98398321,-77.330939,28.78169)"
         style="display:inline">
        <g
           id="g52161-6-7-2-5-3-1"
           transform="translate(2.80633,13.657473)">
          <circle
             cx="128.43347"
             cy="19.267973"
             r="3.3333101"
             id="circle4-8-5-2-2-9-9"
             style="fill:#cccc00;fill-opacity:1;stroke-width:0.0520829" />
          <path
             d="m 140.66464,18.36173 c -1.37811,-2.131235 -3.16612,-3.941639 -5.17027,-5.235901 -2.21718,-1.433324 -4.66508,-2.191131 -7.0786,-2.191131 -2.21457,0 -4.39216,0.632808 -6.47235,1.880716 -2.12134,1.272387 -4.0432,3.131229 -5.71246,5.524441 a 1.6624884,1.6624884 0 0 0 -0.0333,1.851029 c 1.37551,2.152589 3.14581,3.965597 5.11871,5.24215 2.22134,1.439053 4.61195,2.168214 7.09943,2.168214 2.4328,0 4.8859,-0.751556 7.0937,-2.1729 2.00311,-1.290096 3.78748,-3.107271 5.16038,-5.256214 a 1.6770716,1.6770716 0 0 0 -0.005,-1.810404 z m -12.23116,5.906209 a 4.9999651,4.9999651 0 1 1 4.99996,-4.999965 5.0056942,5.0056942 0 0 1 -4.99996,4.999965 z"
             id="path6-2-3-1-2-2-0"
             style="fill:#cccc00;fill-opacity:1;stroke-width:0.0520829" />
          <path
             id="circle4-7-3-7-76-3-3-6"
             style="display:inline;fill:#929208;fill-opacity:1;stroke-width:0.052083"
             d="m 128.43364,15.935 a 3.33331,3.33331 0 0 0 -3.33364,3.333128 3.33331,3.33331 0 0 0 3.33364,3.333131 3.33331,3.33331 0 0 0 1.32292,-0.276469 3.33331,3.33331 0 0 1 -2.01022,-3.056662 3.33331,3.33331 0 0 1 2.0128,-3.058726 3.33331,3.33331 0 0 0 -1.3255,-0.274402 z" />
          <path
             id="path6-9-0-8-0-8-8-5"
             style="display:inline;fill:#929208;fill-opacity:1;stroke-width:0.052083"
             d="m 128.4161,10.935 c -2.21457,0 -4.39176,0.633113 -6.47195,1.881021 -2.12134,1.272389 -4.04357,3.130999 -5.71283,5.524211 a 1.6624884,1.6624884 0 0 0 -0.0331,1.851049 c 1.37551,2.152589 3.14566,3.965506 5.11856,5.242057 2.22134,1.439056 4.61234,2.168345 7.09982,2.168345 0.4346,0 0.86941,-0.02433 1.3038,-0.07183 -2.00611,-0.215829 -3.9384,-0.918187 -5.75727,-2.096514 -1.9729,-1.276551 -3.74356,-3.089468 -5.11907,-5.242057 a 1.6624884,1.6624884 0 0 1 0.0336,-1.851049 c 1.66926,-2.393212 3.59097,-4.251822 5.71231,-5.524211 1.66601,-0.999435 3.39481,-1.60328 5.15472,-1.804541 -0.44288,-0.05037 -0.88638,-0.07648 -1.3286,-0.07648 z m 2.10427,3.365169 a 4.9999651,4.9999651 0 0 0 -0.70745,0.203605 4.9999651,4.9999651 0 0 1 3.62097,4.764566 5.0056941,5.0056941 0 0 1 -3.59565,4.789374 4.9999651,4.9999651 0 0 0 1.24178,0.210839 5.0056941,5.0056941 0 0 0 5.00022,-5.000213 4.9999651,4.9999651 0 0 0 -5.55987,-4.968171 z" />
        </g>
        <g
           id="g52161-2-8-6-4-6-1-6"
           transform="translate(17.432111,2.9961017)"
           style="display:inline">
          <circle
             cx="128.43347"
             cy="19.267973"
             r="3.3333101"
             id="circle4-9-5-8-6-9-6-2"
             style="fill:#cccc00;fill-opacity:1;stroke-width:0.0520829" />
          <path
             d="m 140.66464,18.36173 c -1.37811,-2.131235 -3.16612,-3.941639 -5.17027,-5.235901 -2.21718,-1.433324 -4.66508,-2.191131 -7.0786,-2.191131 -2.21457,0 -4.39216,0.632808 -6.47235,1.880716 -2.12134,1.272387 -4.0432,3.131229 -5.71246,5.524441 a 1.6624884,1.6624884 0 0 0 -0.0333,1.851029 c 1.37551,2.152589 3.14581,3.965597 5.11871,5.24215 2.22134,1.439053 4.61195,2.168214 7.09943,2.168214 2.4328,0 4.8859,-0.751556 7.0937,-2.1729 2.00311,-1.290096 3.78748,-3.107271 5.16038,-5.256214 a 1.6770716,1.6770716 0 0 0 -0.005,-1.810404 z m -12.23116,5.906209 a 4.9999651,4.9999651 0 1 1 4.99996,-4.999965 5.0056942,5.0056942 0 0 1 -4.99996,4.999965 z"
             id="path6-5-8-3-6-7-4-1"
             style="fill:#cccc00;fill-opacity:1;stroke-width:0.0520829" />
          <path
             id="circle4-7-8-2-3-31-1-2-2"
             style="display:inline;fill:#929208;fill-opacity:1;stroke-width:0.052083"
             d="m 128.43364,15.935 a 3.33331,3.33331 0 0 0 -3.33364,3.333128 3.33331,3.33331 0 0 0 3.33364,3.333131 3.33331,3.33331 0 0 0 1.32292,-0.276469 3.33331,3.33331 0 0 1 -2.01022,-3.056662 3.33331,3.33331 0 0 1 2.0128,-3.058726 3.33331,3.33331 0 0 0 -1.3255,-0.274402 z" />
          <path
             id="path6-9-2-73-5-6-0-0-5"
             style="display:inline;fill:#929208;fill-opacity:1;stroke-width:0.052083"
             d="m 128.4161,10.935 c -2.21457,0 -4.39176,0.633113 -6.47195,1.881021 -2.12134,1.272389 -4.04357,3.130999 -5.71283,5.524211 a 1.6624884,1.6624884 0 0 0 -0.0331,1.851049 c 1.37551,2.152589 3.14566,3.965506 5.11856,5.242057 2.22134,1.439056 4.61234,2.168345 7.09982,2.168345 0.4346,0 0.86941,-0.02433 1.3038,-0.07183 -2.00611,-0.215829 -3.9384,-0.918187 -5.75727,-2.096514 -1.9729,-1.276551 -3.74356,-3.089468 -5.11907,-5.242057 a 1.6624884,1.6624884 0 0 1 0.0336,-1.851049 c 1.66926,-2.393212 3.59097,-4.251822 5.71231,-5.524211 1.66601,-0.999435 3.39481,-1.60328 5.15472,-1.804541 -0.44288,-0.05037 -0.88638,-0.07648 -1.3286,-0.07648 z m 2.10427,3.365169 a 4.9999651,4.9999651 0 0 0 -0.70745,0.203605 4.9999651,4.9999651 0 0 1 3.62097,4.764566 5.0056941,5.0056941 0 0 1 -3.59565,4.789374 4.9999651,4.9999651 0 0 0 1.24178,0.210839 5.0056941,5.0056941 0 0 0 5.00022,-5.000213 4.9999651,4.9999651 0 0 0 -5.55987,-4.968171 z" />
        </g>
        <g
           id="g52161-2-2-3-6-17-7-0-5"
           transform="translate(31.668923,13.657602)"
           style="display:inline">
          <circle
             cx="128.43347"
             cy="19.267973"
             r="3.3333101"
             id="circle4-9-4-2-93-86-1-3-1"
             style="fill:#cccc00;fill-opacity:1;stroke-width:0.0520829" />
          <path
             d="m 140.66464,18.36173 c -1.37811,-2.131235 -3.16612,-3.941639 -5.17027,-5.235901 -2.21718,-1.433324 -4.66508,-2.191131 -7.0786,-2.191131 -2.21457,0 -4.39216,0.632808 -6.47235,1.880716 -2.12134,1.272387 -4.0432,3.131229 -5.71246,5.524441 a 1.6624884,1.6624884 0 0 0 -0.0333,1.851029 c 1.37551,2.152589 3.14581,3.965597 5.11871,5.24215 2.22134,1.439053 4.61195,2.168214 7.09943,2.168214 2.4328,0 4.8859,-0.751556 7.0937,-2.1729 2.00311,-1.290096 3.78748,-3.107271 5.16038,-5.256214 a 1.6770716,1.6770716 0 0 0 -0.005,-1.810404 z m -12.23116,5.906209 a 4.9999651,4.9999651 0 1 1 4.99996,-4.999965 5.0056942,5.0056942 0 0 1 -4.99996,4.999965 z"
             id="path6-5-6-6-6-4-3-2-1"
             style="fill:#cccc00;fill-opacity:1;stroke-width:0.0520829" />
          <path
             id="circle4-7-8-1-4-6-8-9-87-4"
             style="display:inline;fill:#929208;fill-opacity:1;stroke-width:0.052083"
             d="m 128.43364,15.935 a 3.33331,3.33331 0 0 0 -3.33364,3.333128 3.33331,3.33331 0 0 0 3.33364,3.333131 3.33331,3.33331 0 0 0 1.32292,-0.276469 3.33331,3.33331 0 0 1 -2.01022,-3.056662 3.33331,3.33331 0 0 1 2.0128,-3.058726 3.33331,3.33331 0 0 0 -1.3255,-0.274402 z" />
          <path
             id="path6-9-2-9-9-8-6-5-6-8"
             style="display:inline;fill:#929208;fill-opacity:1;stroke-width:0.052083"
             d="m 128.4161,10.935 c -2.21457,0 -4.39176,0.633113 -6.47195,1.881021 -2.12134,1.272389 -4.04357,3.130999 -5.71283,5.524211 a 1.6624884,1.6624884 0 0 0 -0.0331,1.851049 c 1.37551,2.152589 3.14566,3.965506 5.11856,5.242057 2.22134,1.439056 4.61234,2.168345 7.09982,2.168345 0.4346,0 0.86941,-0.02433 1.3038,-0.07183 -2.00611,-0.215829 -3.9384,-0.918187 -5.75727,-2.096514 -1.9729,-1.276551 -3.74356,-3.089468 -5.11907,-5.242057 a 1.6624884,1.6624884 0 0 1 0.0336,-1.851049 c 1.66926,-2.393212 3.59097,-4.251822 5.71231,-5.524211 1.66601,-0.999435 3.39481,-1.60328 5.15472,-1.804541 -0.44288,-0.05037 -0.88638,-0.07648 -1.3286,-0.07648 z m 2.10427,3.365169 a 4.9999651,4.9999651 0 0 0 -0.70745,0.203605 4.9999651,4.9999651 0 0 1 3.62097,4.764566 5.0056941,5.0056941 0 0 1 -3.59565,4.789374 4.9999651,4.9999651 0 0 0 1.24178,0.210839 5.0056941,5.0056941 0 0 0 5.00022,-5.000213 4.9999651,4.9999651 0 0 0 -5.55987,-4.968171 z" />
        </g>
      </g>
      <g
         id="g8733-3-8-8-8-6-3-1-09-6-63-2-5-0"
         transform="matrix(0.02343754,0,0,0.02343754,69.705881,59.142735)"
         style="display:inline;fill:#2a49ec;fill-opacity:1">
        <path
           class="st0"
           d="m 330.555,101.873 c 0,-34.164 -13.767,-65.108 -36.047,-87.622 -2.432,-2.465 -9.63,-4.349 -14.212,3.466 -4.589,7.808 -17.205,27.431 -17.205,27.431 -1.534,2.438 -4.219,3.918 -7.089,3.918 -2.883,0 -5.555,-1.48 -7.089,-3.918 0,0 -12.623,-19.623 -17.205,-27.431 -4.582,-7.815 -11.781,-5.931 -14.219,-3.466 -22.274,22.514 -36.04,53.458 -36.04,87.622 0,51.02 30.663,94.847 74.553,114.142 43.89,-19.295 74.553,-63.123 74.553,-114.142 z"
           id="path8723-8-6-51-3-8-5-2-691-2-09-5-3-1"
           style="fill:#2a49ec;fill-opacity:1" />
        <path
           class="st0"
           d="m 204.51,253.425 c -4.78,-47.705 -36.998,-90.409 -85.518,-106.176 -32.492,-10.554 -66.177,-7.027 -94.47,7.205 -3.096,1.555 -7.117,7.822 -1.096,14.589 6.007,6.774 20.766,24.842 20.766,24.842 1.849,2.212 2.432,5.22 1.542,7.952 -0.891,2.74 -3.13,4.829 -5.918,5.528 0,0 -22.562,5.945 -31.404,7.89 -8.849,1.945 -9.281,9.37 -7.692,12.445 14.527,28.144 39.698,50.801 72.197,61.362 48.519,15.766 99.683,0.15 131.593,-35.637 z"
           id="path8725-5-6-3-4-9-0-3-5-8-6-6-7-7"
           style="fill:#2a49ec;fill-opacity:1" />
        <path
           class="st0"
           d="M 96.772,362.484 C 76.69,390.127 69.636,423.25 74.43,454.558 c 0.527,3.424 5.233,9.178 13.527,5.554 8.308,-3.63 30.054,-12.088 30.054,-12.088 2.672,-1.062 5.698,-0.692 8.041,1 2.329,1.692 3.623,4.466 3.418,7.335 0,0 -1.308,23.294 -2.199,32.315 -0.883,9.006 6.048,11.712 9.466,11.15 31.252,-5.116 60.581,-22.054 80.662,-49.704 29.993,-41.266 30.944,-94.758 6.781,-136.155 -46.848,-10.192 -97.422,7.239 -127.408,48.519 z"
           id="path8727-3-5-0-26-9-2-8-47-15-88-4-9-0"
           style="fill:#2a49ec;fill-opacity:1" />
        <path
           class="st0"
           d="m 287.824,313.964 c -24.165,41.397 -23.212,94.888 6.78,136.155 20.082,27.65 49.41,44.588 80.663,49.704 3.418,0.562 10.349,-2.144 9.466,-11.15 -0.89,-9.021 -2.205,-32.315 -2.205,-32.315 -0.198,-2.869 1.102,-5.643 3.431,-7.335 2.322,-1.692 5.363,-2.062 8.034,-1 0,0 21.746,8.458 30.047,12.088 8.294,3.623 13.007,-2.13 13.534,-5.554 4.787,-31.308 -2.254,-64.43 -22.342,-92.074 -29.986,-41.279 -80.56,-58.717 -127.408,-48.519 z"
           id="path8729-3-8-1-7-6-4-3-0-6-7-0-3-1"
           style="fill:#2a49ec;fill-opacity:1" />
        <path
           class="st0"
           d="m 503.6,215.254 c -8.849,-1.945 -31.41,-7.89 -31.41,-7.89 -2.795,-0.706 -5.027,-2.788 -5.918,-5.528 -0.89,-2.732 -0.308,-5.74 1.534,-7.952 0,0 14.76,-18.068 20.78,-24.842 6.014,-6.766 1.993,-13.034 -1.096,-14.589 -28.301,-14.232 -61.978,-17.76 -94.485,-7.205 -48.519,15.767 -80.731,58.472 -85.512,106.176 31.91,35.787 83.067,51.403 131.593,35.636 32.492,-10.561 57.67,-33.218 72.191,-61.362 1.59,-3.074 1.172,-10.499 -7.677,-12.444 z"
           id="path8731-7-2-49-14-0-2-8-7-3-24-9-2-9"
           style="fill:#2a49ec;fill-opacity:1" />
      </g>
      <g
         id="g8733-3-8-8-8-6-3-1-1-34-29-7-6-23-26"
         transform="matrix(0.02343754,0,0,0.02343754,55.697097,48.651998)"
         style="display:inline;fill:#2a49ec;fill-opacity:1">
        <path
           class="st0"
           d="m 330.555,101.873 c 0,-34.164 -13.767,-65.108 -36.047,-87.622 -2.432,-2.465 -9.63,-4.349 -14.212,3.466 -4.589,7.808 -17.205,27.431 -17.205,27.431 -1.534,2.438 -4.219,3.918 -7.089,3.918 -2.883,0 -5.555,-1.48 -7.089,-3.918 0,0 -12.623,-19.623 -17.205,-27.431 -4.582,-7.815 -11.781,-5.931 -14.219,-3.466 -22.274,22.514 -36.04,53.458 -36.04,87.622 0,51.02 30.663,94.847 74.553,114.142 43.89,-19.295 74.553,-63.123 74.553,-114.142 z"
           id="path8723-8-6-51-3-8-5-2-6-7-9-9-4-4-4"
           style="fill:#2a49ec;fill-opacity:1" />
        <path
           class="st0"
           d="m 204.51,253.425 c -4.78,-47.705 -36.998,-90.409 -85.518,-106.176 -32.492,-10.554 -66.177,-7.027 -94.47,7.205 -3.096,1.555 -7.117,7.822 -1.096,14.589 6.007,6.774 20.766,24.842 20.766,24.842 1.849,2.212 2.432,5.22 1.542,7.952 -0.891,2.74 -3.13,4.829 -5.918,5.528 0,0 -22.562,5.945 -31.404,7.89 -8.849,1.945 -9.281,9.37 -7.692,12.445 14.527,28.144 39.698,50.801 72.197,61.362 48.519,15.766 99.683,0.15 131.593,-35.637 z"
           id="path8725-5-6-3-4-9-0-3-1-0-8-7-2-9-4"
           style="fill:#2a49ec;fill-opacity:1" />
        <path
           class="st0"
           d="M 96.772,362.484 C 76.69,390.127 69.636,423.25 74.43,454.558 c 0.527,3.424 5.233,9.178 13.527,5.554 8.308,-3.63 30.054,-12.088 30.054,-12.088 2.672,-1.062 5.698,-0.692 8.041,1 2.329,1.692 3.623,4.466 3.418,7.335 0,0 -1.308,23.294 -2.199,32.315 -0.883,9.006 6.048,11.712 9.466,11.15 31.252,-5.116 60.581,-22.054 80.662,-49.704 29.993,-41.266 30.944,-94.758 6.781,-136.155 -46.848,-10.192 -97.422,7.239 -127.408,48.519 z"
           id="path8727-3-5-0-26-9-2-8-2-3-6-94-1-0-6"
           style="fill:#2a49ec;fill-opacity:1" />
        <path
           class="st0"
           d="m 287.824,313.964 c -24.165,41.397 -23.212,94.888 6.78,136.155 20.082,27.65 49.41,44.588 80.663,49.704 3.418,0.562 10.349,-2.144 9.466,-11.15 -0.89,-9.021 -2.205,-32.315 -2.205,-32.315 -0.198,-2.869 1.102,-5.643 3.431,-7.335 2.322,-1.692 5.363,-2.062 8.034,-1 0,0 21.746,8.458 30.047,12.088 8.294,3.623 13.007,-2.13 13.534,-5.554 4.787,-31.308 -2.254,-64.43 -22.342,-92.074 -29.986,-41.279 -80.56,-58.717 -127.408,-48.519 z"
           id="path8729-3-8-1-7-6-4-3-8-3-4-1-2-7-2"
           style="fill:#2a49ec;fill-opacity:1" />
        <path
           class="st0"
           d="m 503.6,215.254 c -8.849,-1.945 -31.41,-7.89 -31.41,-7.89 -2.795,-0.706 -5.027,-2.788 -5.918,-5.528 -0.89,-2.732 -0.308,-5.74 1.534,-7.952 0,0 14.76,-18.068 20.78,-24.842 6.014,-6.766 1.993,-13.034 -1.096,-14.589 -28.301,-14.232 -61.978,-17.76 -94.485,-7.205 -48.519,15.767 -80.731,58.472 -85.512,106.176 31.91,35.787 83.067,51.403 131.593,35.636 32.492,-10.561 57.67,-33.218 72.191,-61.362 1.59,-3.074 1.172,-10.499 -7.677,-12.444 z"
           id="path8731-7-2-49-14-0-2-8-3-1-7-4-1-03-1"
           style="fill:#2a49ec;fill-opacity:1" />
      </g>
      <g
         id="g8733-3-8-8-8-6-3-1-9-8-9-0-4-5-5"
         transform="matrix(0.02343754,0,0,0.02343754,41.305574,59.142608)"
         style="display:inline;fill:#2a49ec;fill-opacity:1">
        <path
           class="st0"
           d="m 330.555,101.873 c 0,-34.164 -13.767,-65.108 -36.047,-87.622 -2.432,-2.465 -9.63,-4.349 -14.212,3.466 -4.589,7.808 -17.205,27.431 -17.205,27.431 -1.534,2.438 -4.219,3.918 -7.089,3.918 -2.883,0 -5.555,-1.48 -7.089,-3.918 0,0 -12.623,-19.623 -17.205,-27.431 -4.582,-7.815 -11.781,-5.931 -14.219,-3.466 -22.274,22.514 -36.04,53.458 -36.04,87.622 0,51.02 30.663,94.847 74.553,114.142 43.89,-19.295 74.553,-63.123 74.553,-114.142 z"
           id="path8723-8-6-51-3-8-5-2-69-3-6-4-7-8-2"
           style="fill:#2a49ec;fill-opacity:1" />
        <path
           class="st0"
           d="m 204.51,253.425 c -4.78,-47.705 -36.998,-90.409 -85.518,-106.176 -32.492,-10.554 -66.177,-7.027 -94.47,7.205 -3.096,1.555 -7.117,7.822 -1.096,14.589 6.007,6.774 20.766,24.842 20.766,24.842 1.849,2.212 2.432,5.22 1.542,7.952 -0.891,2.74 -3.13,4.829 -5.918,5.528 0,0 -22.562,5.945 -31.404,7.89 -8.849,1.945 -9.281,9.37 -7.692,12.445 14.527,28.144 39.698,50.801 72.197,61.362 48.519,15.766 99.683,0.15 131.593,-35.637 z"
           id="path8725-5-6-3-4-9-0-3-7-5-0-0-8-0-5"
           style="fill:#2a49ec;fill-opacity:1" />
        <path
           class="st0"
           d="M 96.772,362.484 C 76.69,390.127 69.636,423.25 74.43,454.558 c 0.527,3.424 5.233,9.178 13.527,5.554 8.308,-3.63 30.054,-12.088 30.054,-12.088 2.672,-1.062 5.698,-0.692 8.041,1 2.329,1.692 3.623,4.466 3.418,7.335 0,0 -1.308,23.294 -2.199,32.315 -0.883,9.006 6.048,11.712 9.466,11.15 31.252,-5.116 60.581,-22.054 80.662,-49.704 29.993,-41.266 30.944,-94.758 6.781,-136.155 -46.848,-10.192 -97.422,7.239 -127.408,48.519 z"
           id="path8727-3-5-0-26-9-2-8-4-2-4-1-5-6-8"
           style="fill:#2a49ec;fill-opacity:1" />
        <path
           class="st0"
           d="m 287.824,313.964 c -24.165,41.397 -23.212,94.888 6.78,136.155 20.082,27.65 49.41,44.588 80.663,49.704 3.418,0.562 10.349,-2.144 9.466,-11.15 -0.89,-9.021 -2.205,-32.315 -2.205,-32.315 -0.198,-2.869 1.102,-5.643 3.431,-7.335 2.322,-1.692 5.363,-2.062 8.034,-1 0,0 21.746,8.458 30.047,12.088 8.294,3.623 13.007,-2.13 13.534,-5.554 4.787,-31.308 -2.254,-64.43 -22.342,-92.074 -29.986,-41.279 -80.56,-58.717 -127.408,-48.519 z"
           id="path8729-3-8-1-7-6-4-3-2-6-8-4-2-4-5"
           style="fill:#2a49ec;fill-opacity:1" />
        <path
           class="st0"
           d="m 503.6,215.254 c -8.849,-1.945 -31.41,-7.89 -31.41,-7.89 -2.795,-0.706 -5.027,-2.788 -5.918,-5.528 -0.89,-2.732 -0.308,-5.74 1.534,-7.952 0,0 14.76,-18.068 20.78,-24.842 6.014,-6.766 1.993,-13.034 -1.096,-14.589 -28.301,-14.232 -61.978,-17.76 -94.485,-7.205 -48.519,15.767 -80.731,58.472 -85.512,106.176 31.91,35.787 83.067,51.403 131.593,35.636 32.492,-10.561 57.67,-33.218 72.191,-61.362 1.59,-3.074 1.172,-10.499 -7.677,-12.444 z"
           id="path8731-7-2-49-14-0-2-8-2-3-7-8-0-9-5"
           style="fill:#2a49ec;fill-opacity:1" />
      </g>
    </g>
    <g
       id="g2900-6-19-3-7-8-6-9"
       style="display:inline"
       transform="matrix(0.56603774,0,0,0.56603774,20.664707,-23.142582)">
      <g
         id="g52262-2-9-0-0-5-1-6"
         transform="matrix(0.98398321,0,0,0.98398321,-77.330939,28.78169)"
         style="display:inline">
        <g
           id="g52161-6-7-2-5-3-1-4"
           transform="translate(2.80633,13.657473)">
          <circle
             cx="128.43347"
             cy="19.267973"
             r="3.3333101"
             id="circle4-8-5-2-2-9-9-6"
             style="fill:#cccc00;fill-opacity:1;stroke-width:0.0520829" />
          <path
             d="m 140.66464,18.36173 c -1.37811,-2.131235 -3.16612,-3.941639 -5.17027,-5.235901 -2.21718,-1.433324 -4.66508,-2.191131 -7.0786,-2.191131 -2.21457,0 -4.39216,0.632808 -6.47235,1.880716 -2.12134,1.272387 -4.0432,3.131229 -5.71246,5.524441 a 1.6624884,1.6624884 0 0 0 -0.0333,1.851029 c 1.37551,2.152589 3.14581,3.965597 5.11871,5.24215 2.22134,1.439053 4.61195,2.168214 7.09943,2.168214 2.4328,0 4.8859,-0.751556 7.0937,-2.1729 2.00311,-1.290096 3.78748,-3.107271 5.16038,-5.256214 a 1.6770716,1.6770716 0 0 0 -0.005,-1.810404 z m -12.23116,5.906209 a 4.9999651,4.9999651 0 1 1 4.99996,-4.999965 5.0056942,5.0056942 0 0 1 -4.99996,4.999965 z"
             id="path6-2-3-1-2-2-0-1"
             style="fill:#cccc00;fill-opacity:1;stroke-width:0.0520829" />
          <path
             id="circle4-7-3-7-76-3-3-6-8"
             style="display:inline;fill:#929208;fill-opacity:1;stroke-width:0.052083"
             d="m 128.43364,15.935 a 3.33331,3.33331 0 0 0 -3.33364,3.333128 3.33331,3.33331 0 0 0 3.33364,3.333131 3.33331,3.33331 0 0 0 1.32292,-0.276469 3.33331,3.33331 0 0 1 -2.01022,-3.056662 3.33331,3.33331 0 0 1 2.0128,-3.058726 3.33331,3.33331 0 0 0 -1.3255,-0.274402 z" />
          <path
             id="path6-9-0-8-0-8-8-5-1"
             style="display:inline;fill:#929208;fill-opacity:1;stroke-width:0.052083"
             d="m 128.4161,10.935 c -2.21457,0 -4.39176,0.633113 -6.47195,1.881021 -2.12134,1.272389 -4.04357,3.130999 -5.71283,5.524211 a 1.6624884,1.6624884 0 0 0 -0.0331,1.851049 c 1.37551,2.152589 3.14566,3.965506 5.11856,5.242057 2.22134,1.439056 4.61234,2.168345 7.09982,2.168345 0.4346,0 0.86941,-0.02433 1.3038,-0.07183 -2.00611,-0.215829 -3.9384,-0.918187 -5.75727,-2.096514 -1.9729,-1.276551 -3.74356,-3.089468 -5.11907,-5.242057 a 1.6624884,1.6624884 0 0 1 0.0336,-1.851049 c 1.66926,-2.393212 3.59097,-4.251822 5.71231,-5.524211 1.66601,-0.999435 3.39481,-1.60328 5.15472,-1.804541 -0.44288,-0.05037 -0.88638,-0.07648 -1.3286,-0.07648 z m 2.10427,3.365169 a 4.9999651,4.9999651 0 0 0 -0.70745,0.203605 4.9999651,4.9999651 0 0 1 3.62097,4.764566 5.0056941,5.0056941 0 0 1 -3.59565,4.789374 4.9999651,4.9999651 0 0 0 1.24178,0.210839 5.0056941,5.0056941 0 0 0 5.00022,-5.000213 4.9999651,4.9999651 0 0 0 -5.55987,-4.968171 z" />
        </g>
        <g
           id="g52161-2-8-6-4-6-1-6-8"
           transform="translate(17.432111,2.9961017)"
           style="display:inline">
          <circle
             cx="128.43347"
             cy="19.267973"
             r="3.3333101"
             id="circle4-9-5-8-6-9-6-2-8"
             style="fill:#cccc00;fill-opacity:1;stroke-width:0.0520829" />
          <path
             d="m 140.66464,18.36173 c -1.37811,-2.131235 -3.16612,-3.941639 -5.17027,-5.235901 -2.21718,-1.433324 -4.66508,-2.191131 -7.0786,-2.191131 -2.21457,0 -4.39216,0.632808 -6.47235,1.880716 -2.12134,1.272387 -4.0432,3.131229 -5.71246,5.524441 a 1.6624884,1.6624884 0 0 0 -0.0333,1.851029 c 1.37551,2.152589 3.14581,3.965597 5.11871,5.24215 2.22134,1.439053 4.61195,2.168214 7.09943,2.168214 2.4328,0 4.8859,-0.751556 7.0937,-2.1729 2.00311,-1.290096 3.78748,-3.107271 5.16038,-5.256214 a 1.6770716,1.6770716 0 0 0 -0.005,-1.810404 z m -12.23116,5.906209 a 4.9999651,4.9999651 0 1 1 4.99996,-4.999965 5.0056942,5.0056942 0 0 1 -4.99996,4.999965 z"
             id="path6-5-8-3-6-7-4-1-4"
             style="fill:#cccc00;fill-opacity:1;stroke-width:0.0520829" />
          <path
             id="circle4-7-8-2-3-31-1-2-2-4"
             style="display:inline;fill:#929208;fill-opacity:1;stroke-width:0.052083"
             d="m 128.43364,15.935 a 3.33331,3.33331 0 0 0 -3.33364,3.333128 3.33331,3.33331 0 0 0 3.33364,3.333131 3.33331,3.33331 0 0 0 1.32292,-0.276469 3.33331,3.33331 0 0 1 -2.01022,-3.056662 3.33331,3.33331 0 0 1 2.0128,-3.058726 3.33331,3.33331 0 0 0 -1.3255,-0.274402 z" />
          <path
             id="path6-9-2-73-5-6-0-0-5-8"
             style="display:inline;fill:#929208;fill-opacity:1;stroke-width:0.052083"
             d="m 128.4161,10.935 c -2.21457,0 -4.39176,0.633113 -6.47195,1.881021 -2.12134,1.272389 -4.04357,3.130999 -5.71283,5.524211 a 1.6624884,1.6624884 0 0 0 -0.0331,1.851049 c 1.37551,2.152589 3.14566,3.965506 5.11856,5.242057 2.22134,1.439056 4.61234,2.168345 7.09982,2.168345 0.4346,0 0.86941,-0.02433 1.3038,-0.07183 -2.00611,-0.215829 -3.9384,-0.918187 -5.75727,-2.096514 -1.9729,-1.276551 -3.74356,-3.089468 -5.11907,-5.242057 a 1.6624884,1.6624884 0 0 1 0.0336,-1.851049 c 1.66926,-2.393212 3.59097,-4.251822 5.71231,-5.524211 1.66601,-0.999435 3.39481,-1.60328 5.15472,-1.804541 -0.44288,-0.05037 -0.88638,-0.07648 -1.3286,-0.07648 z m 2.10427,3.365169 a 4.9999651,4.9999651 0 0 0 -0.70745,0.203605 4.9999651,4.9999651 0 0 1 3.62097,4.764566 5.0056941,5.0056941 0 0 1 -3.59565,4.789374 4.9999651,4.9999651 0 0 0 1.24178,0.210839 5.0056941,5.0056941 0 0 0 5.00022,-5.000213 4.9999651,4.9999651 0 0 0 -5.55987,-4.968171 z" />
        </g>
        <g
           id="g52161-2-2-3-6-17-7-0-5-6"
           transform="translate(31.668923,13.657602)"
           style="display:inline">
          <circle
             cx="128.43347"
             cy="19.267973"
             r="3.3333101"
             id="circle4-9-4-2-93-86-1-3-1-5"
             style="fill:#cccc00;fill-opacity:1;stroke-width:0.0520829" />
          <path
             d="m 140.66464,18.36173 c -1.37811,-2.131235 -3.16612,-3.941639 -5.17027,-5.235901 -2.21718,-1.433324 -4.66508,-2.191131 -7.0786,-2.191131 -2.21457,0 -4.39216,0.632808 -6.47235,1.880716 -2.12134,1.272387 -4.0432,3.131229 -5.71246,5.524441 a 1.6624884,1.6624884 0 0 0 -0.0333,1.851029 c 1.37551,2.152589 3.14581,3.965597 5.11871,5.24215 2.22134,1.439053 4.61195,2.168214 7.09943,2.168214 2.4328,0 4.8859,-0.751556 7.0937,-2.1729 2.00311,-1.290096 3.78748,-3.107271 5.16038,-5.256214 a 1.6770716,1.6770716 0 0 0 -0.005,-1.810404 z m -12.23116,5.906209 a 4.9999651,4.9999651 0 1 1 4.99996,-4.999965 5.0056942,5.0056942 0 0 1 -4.99996,4.999965 z"
             id="path6-5-6-6-6-4-3-2-1-9"
             style="fill:#cccc00;fill-opacity:1;stroke-width:0.0520829" />
          <path
             id="circle4-7-8-1-4-6-8-9-87-4-3"
             style="display:inline;fill:#929208;fill-opacity:1;stroke-width:0.052083"
             d="m 128.43364,15.935 a 3.33331,3.33331 0 0 0 -3.33364,3.333128 3.33331,3.33331 0 0 0 3.33364,3.333131 3.33331,3.33331 0 0 0 1.32292,-0.276469 3.33331,3.33331 0 0 1 -2.01022,-3.056662 3.33331,3.33331 0 0 1 2.0128,-3.058726 3.33331,3.33331 0 0 0 -1.3255,-0.274402 z" />
          <path
             id="path6-9-2-9-9-8-6-5-6-8-6"
             style="display:inline;fill:#929208;fill-opacity:1;stroke-width:0.052083"
             d="m 128.4161,10.935 c -2.21457,0 -4.39176,0.633113 -6.47195,1.881021 -2.12134,1.272389 -4.04357,3.130999 -5.71283,5.524211 a 1.6624884,1.6624884 0 0 0 -0.0331,1.851049 c 1.37551,2.152589 3.14566,3.965506 5.11856,5.242057 2.22134,1.439056 4.61234,2.168345 7.09982,2.168345 0.4346,0 0.86941,-0.02433 1.3038,-0.07183 -2.00611,-0.215829 -3.9384,-0.918187 -5.75727,-2.096514 -1.9729,-1.276551 -3.74356,-3.089468 -5.11907,-5.242057 a 1.6624884,1.6624884 0 0 1 0.0336,-1.851049 c 1.66926,-2.393212 3.59097,-4.251822 5.71231,-5.524211 1.66601,-0.999435 3.39481,-1.60328 5.15472,-1.804541 -0.44288,-0.05037 -0.88638,-0.07648 -1.3286,-0.07648 z m 2.10427,3.365169 a 4.9999651,4.9999651 0 0 0 -0.70745,0.203605 4.9999651,4.9999651 0 0 1 3.62097,4.764566 5.0056941,5.0056941 0 0 1 -3.59565,4.789374 4.9999651,4.9999651 0 0 0 1.24178,0.210839 5.0056941,5.0056941 0 0 0 5.00022,-5.000213 4.9999651,4.9999651 0 0 0 -5.55987,-4.968171 z" />
        </g>
      </g>
      <g
         id="g8733-3-8-8-8-6-3-1-09-6-63-2-5-0-4"
         transform="matrix(0.02343754,0,0,0.02343754,69.705881,59.142735)"
         style="display:inline;fill:#2a49ec;fill-opacity:1">
        <path
           class="st0"
           d="m 330.555,101.873 c 0,-34.164 -13.767,-65.108 -36.047,-87.622 -2.432,-2.465 -9.63,-4.349 -14.212,3.466 -4.589,7.808 -17.205,27.431 -17.205,27.431 -1.534,2.438 -4.219,3.918 -7.089,3.918 -2.883,0 -5.555,-1.48 -7.089,-3.918 0,0 -12.623,-19.623 -17.205,-27.431 -4.582,-7.815 -11.781,-5.931 -14.219,-3.466 -22.274,22.514 -36.04,53.458 -36.04,87.622 0,51.02 30.663,94.847 74.553,114.142 43.89,-19.295 74.553,-63.123 74.553,-114.142 z"
           id="path8723-8-6-51-3-8-5-2-691-2-09-5-3-1-2"
           style="fill:#2a49ec;fill-opacity:1" />
        <path
           class="st0"
           d="m 204.51,253.425 c -4.78,-47.705 -36.998,-90.409 -85.518,-106.176 -32.492,-10.554 -66.177,-7.027 -94.47,7.205 -3.096,1.555 -7.117,7.822 -1.096,14.589 6.007,6.774 20.766,24.842 20.766,24.842 1.849,2.212 2.432,5.22 1.542,7.952 -0.891,2.74 -3.13,4.829 -5.918,5.528 0,0 -22.562,5.945 -31.404,7.89 -8.849,1.945 -9.281,9.37 -7.692,12.445 14.527,28.144 39.698,50.801 72.197,61.362 48.519,15.766 99.683,0.15 131.593,-35.637 z"
           id="path8725-5-6-3-4-9-0-3-5-8-6-6-7-7-1"
           style="fill:#2a49ec;fill-opacity:1" />
        <path
           class="st0"
           d="M 96.772,362.484 C 76.69,390.127 69.636,423.25 74.43,454.558 c 0.527,3.424 5.233,9.178 13.527,5.554 8.308,-3.63 30.054,-12.088 30.054,-12.088 2.672,-1.062 5.698,-0.692 8.041,1 2.329,1.692 3.623,4.466 3.418,7.335 0,0 -1.308,23.294 -2.199,32.315 -0.883,9.006 6.048,11.712 9.466,11.15 31.252,-5.116 60.581,-22.054 80.662,-49.704 29.993,-41.266 30.944,-94.758 6.781,-136.155 -46.848,-10.192 -97.422,7.239 -127.408,48.519 z"
           id="path8727-3-5-0-26-9-2-8-47-15-88-4-9-0-3"
           style="fill:#2a49ec;fill-opacity:1" />
        <path
           class="st0"
           d="m 287.824,313.964 c -24.165,41.397 -23.212,94.888 6.78,136.155 20.082,27.65 49.41,44.588 80.663,49.704 3.418,0.562 10.349,-2.144 9.466,-11.15 -0.89,-9.021 -2.205,-32.315 -2.205,-32.315 -0.198,-2.869 1.102,-5.643 3.431,-7.335 2.322,-1.692 5.363,-2.062 8.034,-1 0,0 21.746,8.458 30.047,12.088 8.294,3.623 13.007,-2.13 13.534,-5.554 4.787,-31.308 -2.254,-64.43 -22.342,-92.074 -29.986,-41.279 -80.56,-58.717 -127.408,-48.519 z"
           id="path8729-3-8-1-7-6-4-3-0-6-7-0-3-1-8"
           style="fill:#2a49ec;fill-opacity:1" />
        <path
           class="st0"
           d="m 503.6,215.254 c -8.849,-1.945 -31.41,-7.89 -31.41,-7.89 -2.795,-0.706 -5.027,-2.788 -5.918,-5.528 -0.89,-2.732 -0.308,-5.74 1.534,-7.952 0,0 14.76,-18.068 20.78,-24.842 6.014,-6.766 1.993,-13.034 -1.096,-14.589 -28.301,-14.232 -61.978,-17.76 -94.485,-7.205 -48.519,15.767 -80.731,58.472 -85.512,106.176 31.91,35.787 83.067,51.403 131.593,35.636 32.492,-10.561 57.67,-33.218 72.191,-61.362 1.59,-3.074 1.172,-10.499 -7.677,-12.444 z"
           id="path8731-7-2-49-14-0-2-8-7-3-24-9-2-9-7"
           style="fill:#2a49ec;fill-opacity:1" />
      </g>
      <g
         id="g8733-3-8-8-8-6-3-1-1-34-29-7-6-23-26-0"
         transform="matrix(0.02343754,0,0,0.02343754,55.697097,48.651998)"
         style="display:inline;fill:#2a49ec;fill-opacity:1">
        <path
           class="st0"
           d="m 330.555,101.873 c 0,-34.164 -13.767,-65.108 -36.047,-87.622 -2.432,-2.465 -9.63,-4.349 -14.212,3.466 -4.589,7.808 -17.205,27.431 -17.205,27.431 -1.534,2.438 -4.219,3.918 -7.089,3.918 -2.883,0 -5.555,-1.48 -7.089,-3.918 0,0 -12.623,-19.623 -17.205,-27.431 -4.582,-7.815 -11.781,-5.931 -14.219,-3.466 -22.274,22.514 -36.04,53.458 -36.04,87.622 0,51.02 30.663,94.847 74.553,114.142 43.89,-19.295 74.553,-63.123 74.553,-114.142 z"
           id="path8723-8-6-51-3-8-5-2-6-7-9-9-4-4-4-0"
           style="fill:#2a49ec;fill-opacity:1" />
        <path
           class="st0"
           d="m 204.51,253.425 c -4.78,-47.705 -36.998,-90.409 -85.518,-106.176 -32.492,-10.554 -66.177,-7.027 -94.47,7.205 -3.096,1.555 -7.117,7.822 -1.096,14.589 6.007,6.774 20.766,24.842 20.766,24.842 1.849,2.212 2.432,5.22 1.542,7.952 -0.891,2.74 -3.13,4.829 -5.918,5.528 0,0 -22.562,5.945 -31.404,7.89 -8.849,1.945 -9.281,9.37 -7.692,12.445 14.527,28.144 39.698,50.801 72.197,61.362 48.519,15.766 99.683,0.15 131.593,-35.637 z"
           id="path8725-5-6-3-4-9-0-3-1-0-8-7-2-9-4-2"
           style="fill:#2a49ec;fill-opacity:1" />
        <path
           class="st0"
           d="M 96.772,362.484 C 76.69,390.127 69.636,423.25 74.43,454.558 c 0.527,3.424 5.233,9.178 13.527,5.554 8.308,-3.63 30.054,-12.088 30.054,-12.088 2.672,-1.062 5.698,-0.692 8.041,1 2.329,1.692 3.623,4.466 3.418,7.335 0,0 -1.308,23.294 -2.199,32.315 -0.883,9.006 6.048,11.712 9.466,11.15 31.252,-5.116 60.581,-22.054 80.662,-49.704 29.993,-41.266 30.944,-94.758 6.781,-136.155 -46.848,-10.192 -97.422,7.239 -127.408,48.519 z"
           id="path8727-3-5-0-26-9-2-8-2-3-6-94-1-0-6-0"
           style="fill:#2a49ec;fill-opacity:1" />
        <path
           class="st0"
           d="m 287.824,313.964 c -24.165,41.397 -23.212,94.888 6.78,136.155 20.082,27.65 49.41,44.588 80.663,49.704 3.418,0.562 10.349,-2.144 9.466,-11.15 -0.89,-9.021 -2.205,-32.315 -2.205,-32.315 -0.198,-2.869 1.102,-5.643 3.431,-7.335 2.322,-1.692 5.363,-2.062 8.034,-1 0,0 21.746,8.458 30.047,12.088 8.294,3.623 13.007,-2.13 13.534,-5.554 4.787,-31.308 -2.254,-64.43 -22.342,-92.074 -29.986,-41.279 -80.56,-58.717 -127.408,-48.519 z"
           id="path8729-3-8-1-7-6-4-3-8-3-4-1-2-7-2-6"
           style="fill:#2a49ec;fill-opacity:1" />
        <path
           class="st0"
           d="m 503.6,215.254 c -8.849,-1.945 -31.41,-7.89 -31.41,-7.89 -2.795,-0.706 -5.027,-2.788 -5.918,-5.528 -0.89,-2.732 -0.308,-5.74 1.534,-7.952 0,0 14.76,-18.068 20.78,-24.842 6.014,-6.766 1.993,-13.034 -1.096,-14.589 -28.301,-14.232 -61.978,-17.76 -94.485,-7.205 -48.519,15.767 -80.731,58.472 -85.512,106.176 31.91,35.787 83.067,51.403 131.593,35.636 32.492,-10.561 57.67,-33.218 72.191,-61.362 1.59,-3.074 1.172,-10.499 -7.677,-12.444 z"
           id="path8731-7-2-49-14-0-2-8-3-1-7-4-1-03-1-2"
           style="fill:#2a49ec;fill-opacity:1" />
      </g>
      <g
         id="g8733-3-8-8-8-6-3-1-9-8-9-0-4-5-5-5"
         transform="matrix(0.02343754,0,0,0.02343754,41.305574,59.142608)"
         style="display:inline;fill:#2a49ec;fill-opacity:1">
        <path
           class="st0"
           d="m 330.555,101.873 c 0,-34.164 -13.767,-65.108 -36.047,-87.622 -2.432,-2.465 -9.63,-4.349 -14.212,3.466 -4.589,7.808 -17.205,27.431 -17.205,27.431 -1.534,2.438 -4.219,3.918 -7.089,3.918 -2.883,0 -5.555,-1.48 -7.089,-3.918 0,0 -12.623,-19.623 -17.205,-27.431 -4.582,-7.815 -11.781,-5.931 -14.219,-3.466 -22.274,22.514 -36.04,53.458 -36.04,87.622 0,51.02 30.663,94.847 74.553,114.142 43.89,-19.295 74.553,-63.123 74.553,-114.142 z"
           id="path8723-8-6-51-3-8-5-2-69-3-6-4-7-8-2-8"
           style="fill:#2a49ec;fill-opacity:1" />
        <path
           class="st0"
           d="m 204.51,253.425 c -4.78,-47.705 -36.998,-90.409 -85.518,-106.176 -32.492,-10.554 -66.177,-7.027 -94.47,7.205 -3.096,1.555 -7.117,7.822 -1.096,14.589 6.007,6.774 20.766,24.842 20.766,24.842 1.849,2.212 2.432,5.22 1.542,7.952 -0.891,2.74 -3.13,4.829 -5.918,5.528 0,0 -22.562,5.945 -31.404,7.89 -8.849,1.945 -9.281,9.37 -7.692,12.445 14.527,28.144 39.698,50.801 72.197,61.362 48.519,15.766 99.683,0.15 131.593,-35.637 z"
           id="path8725-5-6-3-4-9-0-3-7-5-0-0-8-0-5-1"
           style="fill:#2a49ec;fill-opacity:1" />
        <path
           class="st0"
           d="M 96.772,362.484 C 76.69,390.127 69.636,423.25 74.43,454.558 c 0.527,3.424 5.233,9.178 13.527,5.554 8.308,-3.63 30.054,-12.088 30.054,-12.088 2.672,-1.062 5.698,-0.692 8.041,1 2.329,1.692 3.623,4.466 3.418,7.335 0,0 -1.308,23.294 -2.199,32.315 -0.883,9.006 6.048,11.712 9.466,11.15 31.252,-5.116 60.581,-22.054 80.662,-49.704 29.993,-41.266 30.944,-94.758 6.781,-136.155 -46.848,-10.192 -97.422,7.239 -127.408,48.519 z"
           id="path8727-3-5-0-26-9-2-8-4-2-4-1-5-6-8-8"
           style="fill:#2a49ec;fill-opacity:1" />
        <path
           class="st0"
           d="m 287.824,313.964 c -24.165,41.397 -23.212,94.888 6.78,136.155 20.082,27.65 49.41,44.588 80.663,49.704 3.418,0.562 10.349,-2.144 9.466,-11.15 -0.89,-9.021 -2.205,-32.315 -2.205,-32.315 -0.198,-2.869 1.102,-5.643 3.431,-7.335 2.322,-1.692 5.363,-2.062 8.034,-1 0,0 21.746,8.458 30.047,12.088 8.294,3.623 13.007,-2.13 13.534,-5.554 4.787,-31.308 -2.254,-64.43 -22.342,-92.074 -29.986,-41.279 -80.56,-58.717 -127.408,-48.519 z"
           id="path8729-3-8-1-7-6-4-3-2-6-8-4-2-4-5-2"
           style="fill:#2a49ec;fill-opacity:1" />
        <path
           class="st0"
           d="m 503.6,215.254 c -8.849,-1.945 -31.41,-7.89 -31.41,-7.89 -2.795,-0.706 -5.027,-2.788 -5.918,-5.528 -0.89,-2.732 -0.308,-5.74 1.534,-7.952 0,0 14.76,-18.068 20.78,-24.842 6.014,-6.766 1.993,-13.034 -1.096,-14.589 -28.301,-14.232 -61.978,-17.76 -94.485,-7.205 -48.519,15.767 -80.731,58.472 -85.512,106.176 31.91,35.787 83.067,51.403 131.593,35.636 32.492,-10.561 57.67,-33.218 72.191,-61.362 1.59,-3.074 1.172,-10.499 -7.677,-12.444 z"
           id="path8731-7-2-49-14-0-2-8-2-3-7-8-0-9-5-7"
           style="fill:#2a49ec;fill-opacity:1" />
      </g>
    </g>
  </g>
</svg>
