<?xml version="1.0" encoding="UTF-8" standalone="no"?>
<!-- Created with Inkscape (http://www.inkscape.org/) -->

<svg
   width="500"
   height="500"
   viewBox="0 0 132.29166 132.29167"
   version="1.1"
   id="svg2515"
   inkscape:version="1.1.2 (b8e25be833, 2022-02-05)"
   sodipodi:docname="bonsai08s02normal.svg"
   inkscape:export-filename="C:\Users\Lenovo\Desktop\Coding\Media files\Bonsais\bonsai08.png"
   inkscape:export-xdpi="96"
   inkscape:export-ydpi="96"
   xmlns:inkscape="http://www.inkscape.org/namespaces/inkscape"
   xmlns:sodipodi="http://sodipodi.sourceforge.net/DTD/sodipodi-0.dtd"
   xmlns="http://www.w3.org/2000/svg"
   xmlns:svg="http://www.w3.org/2000/svg">
  <sodipodi:namedview
     id="namedview2517"
     pagecolor="#ffffff"
     bordercolor="#666666"
     borderopacity="1.0"
     inkscape:pageshadow="2"
     inkscape:pageopacity="0.0"
     inkscape:pagecheckerboard="0"
     inkscape:document-units="mm"
     showgrid="false"
     units="px"
     inkscape:zoom="1.4142136"
     inkscape:cx="272.58966"
     inkscape:cy="249.25513"
     inkscape:window-width="1920"
     inkscape:window-height="1001"
     inkscape:window-x="-9"
     inkscape:window-y="-9"
     inkscape:window-maximized="1"
     inkscape:current-layer="g17385" />
  <defs
     id="defs2512">
    <marker
       style="overflow:visible"
       id="Arrow1Sstart"
       refX="0.0"
       refY="0.0"
       orient="auto"
       inkscape:stockid="Arrow1Sstart"
       inkscape:isstock="true">
      <path
         transform="scale(0.2) translate(6,0)"
         style="fill-rule:evenodd;fill:context-stroke;stroke:context-stroke;stroke-width:1.0pt"
         d="M 0.0,0.0 L 5.0,-5.0 L -12.5,0.0 L 5.0,5.0 L 0.0,0.0 z "
         id="path24092" />
    </marker>
    <marker
       style="overflow:visible"
       id="Arrow1Mstart"
       refX="0.0"
       refY="0.0"
       orient="auto"
       inkscape:stockid="Arrow1Mstart"
       inkscape:isstock="true">
      <path
         transform="scale(0.4) translate(10,0)"
         style="fill-rule:evenodd;fill:context-stroke;stroke:context-stroke;stroke-width:1.0pt"
         d="M 0.0,0.0 L 5.0,-5.0 L -12.5,0.0 L 5.0,5.0 L 0.0,0.0 z "
         id="path24086" />
    </marker>
    <marker
       style="overflow:visible"
       id="Arrow1Lstart"
       refX="0.0"
       refY="0.0"
       orient="auto"
       inkscape:stockid="Arrow1Lstart"
       inkscape:isstock="true">
      <path
         transform="scale(0.8) translate(12.5,0)"
         style="fill-rule:evenodd;fill:context-stroke;stroke:context-stroke;stroke-width:1.0pt"
         d="M 0.0,0.0 L 5.0,-5.0 L -12.5,0.0 L 5.0,5.0 L 0.0,0.0 z "
         id="path24080" />
    </marker>
    <marker
       style="overflow:visible;"
       id="Arrow1Lend"
       refX="0.0"
       refY="0.0"
       orient="auto"
       inkscape:stockid="Arrow1Lend"
       inkscape:isstock="true">
      <path
         transform="scale(0.8) rotate(180) translate(12.5,0)"
         style="fill-rule:evenodd;fill:context-stroke;stroke:context-stroke;stroke-width:1.0pt;"
         d="M 0.0,0.0 L 5.0,-5.0 L -12.5,0.0 L 5.0,5.0 L 0.0,0.0 z "
         id="path24083" />
    </marker>
  </defs>
  <g
     inkscape:label="Informal Upright Style"
     inkscape:groupmode="layer"
     id="g17385"
     style="display:inline">
    <g
       id="g17299"
       transform="translate(157.36058,-8.4372489)"
       style="display:inline">
      <g
         id="g17297"
         transform="translate(-99.28418,15.207661)">
        <path
           style="display:inline;fill:#c25745;fill-opacity:1;stroke:#c25745;stroke-width:1;stroke-linecap:round;stroke-linejoin:round;stroke-miterlimit:4;stroke-dasharray:none;stroke-opacity:1"
           d="m 1.3438111,105.02403 c 0,0 1.67276,-4.3889 -5.29634,-12.902323 -5.77031,-7.049 -13.8088901,-10.89145 -10.0810001,-22.220767 2.98845,-9.082106 31.71641,-16.843433 36.92376,-22.50005 9.82115,-10.668487 4.67956,-12.619651 -1.58353,-22.120096 C 16.120271,17.413522 8.0705011,20.957555 7.7574611,9.5870616 14.803541,20.119696 25.572371,18.866153 27.251611,28.55162 c 3.25423,4.596313 8.98302,11.718683 5.98525,14.797826 -2.2954,2.357716 -9.08519,15.422411 -20.03503,17.643247 -9.5903099,1.945097 -16.1629199,12.6144 -16.1629199,12.6144 -0.83876,8.885304 16.1910099,9.784984 21.9744099,18.254694 5.64474,8.266633 8.35928,5.77528 10.95842,12.103913 1.20531,2.9348 -28.6279299,1.05833 -28.6279299,1.05833 z"
           id="path17293"
           sodipodi:nodetypes="cssssccsssssc" />
        <path
           id="path17295"
           style="display:inline;fill:#c63c25;fill-opacity:1;stroke:#c63c25;stroke-width:3.77953;stroke-linecap:round;stroke-linejoin:round;stroke-miterlimit:4;stroke-dasharray:none;stroke-opacity:1"
           d="m 616.93555,1.8886719 c 0.55432,20.1347921 7.52722,27.8974661 16.79883,33.5175781 -5.45695,-5.012127 -9.35289,-12.21383 -10.31641,-24.990234 -2.22889,-2.6069221 -4.40217,-5.4177306 -6.48242,-8.5273441 z m 41.48828,48.2539061 c 3.39981,2.902953 6.69017,6.465507 9.7207,11.0625 23.67153,35.907194 43.10565,43.281672 5.98633,83.603512 -19.68132,21.37934 -128.25976,50.713 -139.55469,85.03907 -14.08966,42.81948 16.29251,57.34248 38.10156,83.98437 26.33989,32.17671 20.01758,48.76367 20.01758,48.76367 0,0 2.85378,0.16826 6.91797,0.39063 0.26375,-6.79288 -1.99109,-21.72151 -20.65039,-44.51563 -21.80905,-26.64189 -52.19123,-41.16294 -38.10156,-83.98242 11.29493,-34.32607 119.87336,-63.66167 139.55469,-85.04101 37.11932,-40.32185 17.68519,-47.69633 -5.98633,-83.60352 -4.87199,-7.390285 -10.41195,-12.111719 -16.00586,-15.701172 z"
           transform="matrix(0.26458333,0,0,0.26458333,-155.47346,9.0871833)"
           sodipodi:nodetypes="cccccssssccssssc" />
      </g>
    </g>
    <g
       id="g1698-3-2"
       transform="matrix(0.45577979,0,0,-0.25932357,-1001.1286,398.71052)"
       style="display:inline">
      <path
         d="m 2305.3536,1060.8713 v -21.93 h 79.02 v 21.93 h -79.02"
         style="fill:#ccad58;fill-opacity:1;fill-rule:nonzero;stroke:none;stroke-width:0.1"
         id="path370-2-0" />
      <path
         d="m 2413.6736,1122.4413 c -0.18,2.6 -2.35,4.61 -4.94,4.61 h -127.74 c -2.6,0 -4.76,-2.01 -4.95,-4.61 l -0.11,-7.96 h 137.85 l -0.11,7.96 v 0"
         style="fill:#ccac58;fill-opacity:1;fill-rule:nonzero;stroke:none;stroke-width:0.1"
         id="path374-7-2" />
      <path
         d="m 2305.3536,1060.8713 c -17.07,11.94 -28.49,31.42 -29.42,53.61 h 137.85 c -0.92,-22.19 -12.34,-41.67 -29.41,-53.61 -11.19,-7.84 -24.82,-12.43 -39.51,-12.43 -14.7,0 -28.32,4.59 -39.51,12.43 v 0"
         style="fill:#ebca70;fill-opacity:1;fill-rule:nonzero;stroke:none;stroke-width:0.1"
         id="path376-5-6" />
      <path
         d="m 2280.9936,1127.0513 c -2.6,0 -4.76,-2.01 -4.95,-4.61 l -0.11,-7.96 h 14.01 l 0.11,7.96 c 0.19,2.6 2.34,4.61 4.95,4.61 h -14.01"
         style="fill:#c6a546;fill-opacity:1;fill-rule:nonzero;stroke:none;stroke-width:0.1"
         id="path402-1-6-2" />
      <path
         d="m 2319.3536,1060.8713 c -17.07,11.94 -28.49,31.42 -29.41,53.61 h -14.01 c 0.93,-22.19 12.35,-41.67 29.42,-53.61 11.19,-7.84 24.81,-12.43 39.51,-12.43 2.36,0 4.7,0.13 7,0.36 -12.01,1.21 -23.12,5.49 -32.51,12.07 v 0"
         style="fill:#dcb452;fill-opacity:1;fill-rule:nonzero;stroke:none;stroke-width:0.1"
         id="path404-4-8" />
    </g>
    <g
       id="g28241-1-6-1"
       transform="matrix(0.65272443,0,0,0.65272443,-71.430985,14.682355)"
       style="display:inline">
      <g
         id="g28177-0-9-3"
         transform="translate(6.0854167,55.827083)">
        <path
           d="m 147.71798,47.981196 -9.09029,-4.991828 9.09029,-4.991827 c 0.75396,-0.414021 1.02025,-1.3669 0.59012,-2.111777 l -1.24519,-2.156779 c -0.43006,-0.744878 -1.38837,-0.99072 -2.12392,-0.544804 l -8.86816,5.376573 0.22213,-10.368336 c 0.0184,-0.859937 -0.67361,-1.566974 -1.5338,-1.566974 h -2.49039 c -0.86012,0 -1.55221,0.707037 -1.53373,1.566974 l 0.22206,10.368336 -8.86816,-5.376509 c -0.73548,-0.445916 -1.69386,-0.200074 -2.12392,0.544804 l -1.24519,2.156778 c -0.43006,0.744879 -0.16377,1.697757 0.59019,2.111777 l 9.09022,4.991764 -9.09028,4.991828 c -0.75396,0.41402 -1.02026,1.3669 -0.59013,2.111777 l 1.24519,2.156779 c 0.43006,0.744877 1.38844,0.990719 2.12392,0.544803 l 8.86816,-5.376572 -0.22212,10.368336 c -0.0184,0.859938 0.67367,1.566974 1.53379,1.566974 h 2.49045 c 0.86013,0 1.55221,-0.707036 1.5338,-1.566974 l -0.22219,-10.368336 8.86816,5.376508 c 0.73548,0.445918 1.69386,0.200075 2.12392,-0.544804 l 1.24519,-2.156777 c 0.43006,-0.744879 0.16384,-1.697694 -0.59012,-2.111714 z"
           id="path2-07-4-5-5"
           style="fill:#00ff99;fill-opacity:1;stroke-width:0.0639215" />
        <path
           id="path2-07-3-1-1-7"
           style="display:inline;fill:#265d47;fill-opacity:1;stroke:none;stroke-width:0.0639215;stroke-opacity:1"
           d="m 128.56448,26.625567 c -0.86012,0 -1.55224,0.706892 -1.53375,1.566828 l 0.17363,8.093046 3.75274,2.275313 -0.22221,-10.368359 c -0.0139,-0.644292 0.37135,-1.202201 0.92708,-1.441773 -0.18612,-0.0803 -0.39133,-0.125055 -0.6072,-0.125055 z M 117.653,32.963163 c -0.55098,-0.02227 -1.09649,0.254259 -1.39216,0.766363 l -1.2454,2.156457 c -0.43006,0.744879 -0.16382,1.697995 0.59014,2.112015 l 9.0904,4.991426 -9.0904,4.991944 c -0.75396,0.41402 -1.02027,1.367136 -0.59014,2.112015 l 1.2454,2.156457 c 0.43006,0.744882 1.38842,0.991108 2.1239,0.545188 l 1.40353,-0.851112 -1.06866,-1.850533 c -0.43014,-0.744879 -0.16382,-1.697995 0.59014,-2.112015 l 9.0904,-4.991944 -9.0904,-4.991426 c -0.75396,-0.41402 -1.02021,-1.367136 -0.59014,-2.112015 l 1.06866,-1.850533 -1.40353,-0.851111 c -0.22984,-0.139348 -0.48129,-0.211053 -0.73174,-0.221176 z m 24.31376,0 c -0.25045,0.01012 -0.50239,0.08183 -0.73225,0.221176 l -5.11493,3.101102 -0.0486,2.275313 7.46414,-4.525304 -0.17673,-0.306443 c -0.29567,-0.512103 -0.84066,-0.788109 -1.39165,-0.765844 z m -11.00966,14.454933 -3.75274,2.275314 -0.17363,8.093046 c -0.0184,0.859927 0.67363,1.566828 1.53375,1.566828 h 2.49029 c 0.21585,0 0.42108,-0.04424 0.6072,-0.12454 -0.55573,-0.239572 -0.94087,-0.797994 -0.92708,-1.442288 z m 5.1139,0 0.0486,2.275314 5.11493,3.101102 c 0.73548,0.44592 1.69384,0.20021 2.1239,-0.544672 l 0.17673,-0.30644 z" />
      </g>
      <g
         id="g28177-5-6-2-8"
         transform="translate(29.832267,47.29614)"
         style="display:inline">
        <path
           d="m 147.71798,47.981196 -9.09029,-4.991828 9.09029,-4.991827 c 0.75396,-0.414021 1.02025,-1.3669 0.59012,-2.111777 l -1.24519,-2.156779 c -0.43006,-0.744878 -1.38837,-0.99072 -2.12392,-0.544804 l -8.86816,5.376573 0.22213,-10.368336 c 0.0184,-0.859937 -0.67361,-1.566974 -1.5338,-1.566974 h -2.49039 c -0.86012,0 -1.55221,0.707037 -1.53373,1.566974 l 0.22206,10.368336 -8.86816,-5.376509 c -0.73548,-0.445916 -1.69386,-0.200074 -2.12392,0.544804 l -1.24519,2.156778 c -0.43006,0.744879 -0.16377,1.697757 0.59019,2.111777 l 9.09022,4.991764 -9.09028,4.991828 c -0.75396,0.41402 -1.02026,1.3669 -0.59013,2.111777 l 1.24519,2.156779 c 0.43006,0.744877 1.38844,0.990719 2.12392,0.544803 l 8.86816,-5.376572 -0.22212,10.368336 c -0.0184,0.859938 0.67367,1.566974 1.53379,1.566974 h 2.49045 c 0.86013,0 1.55221,-0.707036 1.5338,-1.566974 l -0.22219,-10.368336 8.86816,5.376508 c 0.73548,0.445918 1.69386,0.200075 2.12392,-0.544804 l 1.24519,-2.156777 c 0.43006,-0.744879 0.16384,-1.697694 -0.59012,-2.111714 z"
           id="path2-07-6-4-7-1"
           style="fill:#00ff99;fill-opacity:1;stroke-width:0.0639215" />
        <path
           id="path2-07-3-7-3-9-5"
           style="display:inline;fill:#265d47;fill-opacity:1;stroke:none;stroke-width:0.0639215;stroke-opacity:1"
           d="m 128.56448,26.625567 c -0.86012,0 -1.55224,0.706892 -1.53375,1.566828 l 0.17363,8.093046 3.75274,2.275313 -0.22221,-10.368359 c -0.0139,-0.644292 0.37135,-1.202201 0.92708,-1.441773 -0.18612,-0.0803 -0.39133,-0.125055 -0.6072,-0.125055 z M 117.653,32.963163 c -0.55098,-0.02227 -1.09649,0.254259 -1.39216,0.766363 l -1.2454,2.156457 c -0.43006,0.744879 -0.16382,1.697995 0.59014,2.112015 l 9.0904,4.991426 -9.0904,4.991944 c -0.75396,0.41402 -1.02027,1.367136 -0.59014,2.112015 l 1.2454,2.156457 c 0.43006,0.744882 1.38842,0.991108 2.1239,0.545188 l 1.40353,-0.851112 -1.06866,-1.850533 c -0.43014,-0.744879 -0.16382,-1.697995 0.59014,-2.112015 l 9.0904,-4.991944 -9.0904,-4.991426 c -0.75396,-0.41402 -1.02021,-1.367136 -0.59014,-2.112015 l 1.06866,-1.850533 -1.40353,-0.851111 c -0.22984,-0.139348 -0.48129,-0.211053 -0.73174,-0.221176 z m 24.31376,0 c -0.25045,0.01012 -0.50239,0.08183 -0.73225,0.221176 l -5.11493,3.101102 -0.0486,2.275313 7.46414,-4.525304 -0.17673,-0.306443 c -0.29567,-0.512103 -0.84066,-0.788109 -1.39165,-0.765844 z m -11.00966,14.454933 -3.75274,2.275314 -0.17363,8.093046 c -0.0184,0.859927 0.67363,1.566828 1.53375,1.566828 h 2.49029 c 0.21585,0 0.42108,-0.04424 0.6072,-0.12454 -0.55573,-0.239572 -0.94087,-0.797994 -0.92708,-1.442288 z m 5.1139,0 0.0486,2.275314 5.11493,3.101102 c 0.73548,0.44592 1.69384,0.20021 2.1239,-0.544672 l 0.17673,-0.30644 z" />
      </g>
      <g
         id="g28177-7-3-1-1"
         transform="translate(53.579157,55.826567)"
         style="display:inline">
        <path
           d="m 147.71798,47.981196 -9.09029,-4.991828 9.09029,-4.991827 c 0.75396,-0.414021 1.02025,-1.3669 0.59012,-2.111777 l -1.24519,-2.156779 c -0.43006,-0.744878 -1.38837,-0.99072 -2.12392,-0.544804 l -8.86816,5.376573 0.22213,-10.368336 c 0.0184,-0.859937 -0.67361,-1.566974 -1.5338,-1.566974 h -2.49039 c -0.86012,0 -1.55221,0.707037 -1.53373,1.566974 l 0.22206,10.368336 -8.86816,-5.376509 c -0.73548,-0.445916 -1.69386,-0.200074 -2.12392,0.544804 l -1.24519,2.156778 c -0.43006,0.744879 -0.16377,1.697757 0.59019,2.111777 l 9.09022,4.991764 -9.09028,4.991828 c -0.75396,0.41402 -1.02026,1.3669 -0.59013,2.111777 l 1.24519,2.156779 c 0.43006,0.744877 1.38844,0.990719 2.12392,0.544803 l 8.86816,-5.376572 -0.22212,10.368336 c -0.0184,0.859938 0.67367,1.566974 1.53379,1.566974 h 2.49045 c 0.86013,0 1.55221,-0.707036 1.5338,-1.566974 l -0.22219,-10.368336 8.86816,5.376508 c 0.73548,0.445918 1.69386,0.200075 2.12392,-0.544804 l 1.24519,-2.156777 c 0.43006,-0.744879 0.16384,-1.697694 -0.59012,-2.111714 z"
           id="path2-07-8-9-9-3"
           style="fill:#00ff99;fill-opacity:1;stroke-width:0.0639215" />
        <path
           id="path2-07-3-2-6-4-4"
           style="display:inline;fill:#265d47;fill-opacity:1;stroke:none;stroke-width:0.0639215;stroke-opacity:1"
           d="m 128.56448,26.625567 c -0.86012,0 -1.55224,0.706892 -1.53375,1.566828 l 0.17363,8.093046 3.75274,2.275313 -0.22221,-10.368359 c -0.0139,-0.644292 0.37135,-1.202201 0.92708,-1.441773 -0.18612,-0.0803 -0.39133,-0.125055 -0.6072,-0.125055 z M 117.653,32.963163 c -0.55098,-0.02227 -1.09649,0.254259 -1.39216,0.766363 l -1.2454,2.156457 c -0.43006,0.744879 -0.16382,1.697995 0.59014,2.112015 l 9.0904,4.991426 -9.0904,4.991944 c -0.75396,0.41402 -1.02027,1.367136 -0.59014,2.112015 l 1.2454,2.156457 c 0.43006,0.744882 1.38842,0.991108 2.1239,0.545188 l 1.40353,-0.851112 -1.06866,-1.850533 c -0.43014,-0.744879 -0.16382,-1.697995 0.59014,-2.112015 l 9.0904,-4.991944 -9.0904,-4.991426 c -0.75396,-0.41402 -1.02021,-1.367136 -0.59014,-2.112015 l 1.06866,-1.850533 -1.40353,-0.851111 c -0.22984,-0.139348 -0.48129,-0.211053 -0.73174,-0.221176 z m 24.31376,0 c -0.25045,0.01012 -0.50239,0.08183 -0.73225,0.221176 l -5.11493,3.101102 -0.0486,2.275313 7.46414,-4.525304 -0.17673,-0.306443 c -0.29567,-0.512103 -0.84066,-0.788109 -1.39165,-0.765844 z m -11.00966,14.454933 -3.75274,2.275314 -0.17363,8.093046 c -0.0184,0.859927 0.67363,1.566828 1.53375,1.566828 h 2.49029 c 0.21585,0 0.42108,-0.04424 0.6072,-0.12454 -0.55573,-0.239572 -0.94087,-0.797994 -0.92708,-1.442288 z m 5.1139,0 0.0486,2.275314 5.11493,3.101102 c 0.73548,0.44592 1.69384,0.20021 2.1239,-0.544672 l 0.17673,-0.30644 z" />
      </g>
    </g>
    <g
       id="g28241-1-6-1-3"
       transform="matrix(0.65272443,0,0,0.65272443,-2.9307364,2.7889448)"
       style="display:inline">
      <g
         id="g28177-0-9-3-4"
         transform="translate(6.0854167,55.827083)">
        <path
           d="m 147.71798,47.981196 -9.09029,-4.991828 9.09029,-4.991827 c 0.75396,-0.414021 1.02025,-1.3669 0.59012,-2.111777 l -1.24519,-2.156779 c -0.43006,-0.744878 -1.38837,-0.99072 -2.12392,-0.544804 l -8.86816,5.376573 0.22213,-10.368336 c 0.0184,-0.859937 -0.67361,-1.566974 -1.5338,-1.566974 h -2.49039 c -0.86012,0 -1.55221,0.707037 -1.53373,1.566974 l 0.22206,10.368336 -8.86816,-5.376509 c -0.73548,-0.445916 -1.69386,-0.200074 -2.12392,0.544804 l -1.24519,2.156778 c -0.43006,0.744879 -0.16377,1.697757 0.59019,2.111777 l 9.09022,4.991764 -9.09028,4.991828 c -0.75396,0.41402 -1.02026,1.3669 -0.59013,2.111777 l 1.24519,2.156779 c 0.43006,0.744877 1.38844,0.990719 2.12392,0.544803 l 8.86816,-5.376572 -0.22212,10.368336 c -0.0184,0.859938 0.67367,1.566974 1.53379,1.566974 h 2.49045 c 0.86013,0 1.55221,-0.707036 1.5338,-1.566974 l -0.22219,-10.368336 8.86816,5.376508 c 0.73548,0.445918 1.69386,0.200075 2.12392,-0.544804 l 1.24519,-2.156777 c 0.43006,-0.744879 0.16384,-1.697694 -0.59012,-2.111714 z"
           id="path2-07-4-5-5-4"
           style="fill:#00ff99;fill-opacity:1;stroke-width:0.0639215" />
        <path
           id="path2-07-3-1-1-7-1"
           style="display:inline;fill:#265d47;fill-opacity:1;stroke:none;stroke-width:0.0639215;stroke-opacity:1"
           d="m 128.56448,26.625567 c -0.86012,0 -1.55224,0.706892 -1.53375,1.566828 l 0.17363,8.093046 3.75274,2.275313 -0.22221,-10.368359 c -0.0139,-0.644292 0.37135,-1.202201 0.92708,-1.441773 -0.18612,-0.0803 -0.39133,-0.125055 -0.6072,-0.125055 z M 117.653,32.963163 c -0.55098,-0.02227 -1.09649,0.254259 -1.39216,0.766363 l -1.2454,2.156457 c -0.43006,0.744879 -0.16382,1.697995 0.59014,2.112015 l 9.0904,4.991426 -9.0904,4.991944 c -0.75396,0.41402 -1.02027,1.367136 -0.59014,2.112015 l 1.2454,2.156457 c 0.43006,0.744882 1.38842,0.991108 2.1239,0.545188 l 1.40353,-0.851112 -1.06866,-1.850533 c -0.43014,-0.744879 -0.16382,-1.697995 0.59014,-2.112015 l 9.0904,-4.991944 -9.0904,-4.991426 c -0.75396,-0.41402 -1.02021,-1.367136 -0.59014,-2.112015 l 1.06866,-1.850533 -1.40353,-0.851111 c -0.22984,-0.139348 -0.48129,-0.211053 -0.73174,-0.221176 z m 24.31376,0 c -0.25045,0.01012 -0.50239,0.08183 -0.73225,0.221176 l -5.11493,3.101102 -0.0486,2.275313 7.46414,-4.525304 -0.17673,-0.306443 c -0.29567,-0.512103 -0.84066,-0.788109 -1.39165,-0.765844 z m -11.00966,14.454933 -3.75274,2.275314 -0.17363,8.093046 c -0.0184,0.859927 0.67363,1.566828 1.53375,1.566828 h 2.49029 c 0.21585,0 0.42108,-0.04424 0.6072,-0.12454 -0.55573,-0.239572 -0.94087,-0.797994 -0.92708,-1.442288 z m 5.1139,0 0.0486,2.275314 5.11493,3.101102 c 0.73548,0.44592 1.69384,0.20021 2.1239,-0.544672 l 0.17673,-0.30644 z" />
      </g>
      <g
         id="g28177-5-6-2-8-0"
         transform="translate(29.832267,47.29614)"
         style="display:inline">
        <path
           d="m 147.71798,47.981196 -9.09029,-4.991828 9.09029,-4.991827 c 0.75396,-0.414021 1.02025,-1.3669 0.59012,-2.111777 l -1.24519,-2.156779 c -0.43006,-0.744878 -1.38837,-0.99072 -2.12392,-0.544804 l -8.86816,5.376573 0.22213,-10.368336 c 0.0184,-0.859937 -0.67361,-1.566974 -1.5338,-1.566974 h -2.49039 c -0.86012,0 -1.55221,0.707037 -1.53373,1.566974 l 0.22206,10.368336 -8.86816,-5.376509 c -0.73548,-0.445916 -1.69386,-0.200074 -2.12392,0.544804 l -1.24519,2.156778 c -0.43006,0.744879 -0.16377,1.697757 0.59019,2.111777 l 9.09022,4.991764 -9.09028,4.991828 c -0.75396,0.41402 -1.02026,1.3669 -0.59013,2.111777 l 1.24519,2.156779 c 0.43006,0.744877 1.38844,0.990719 2.12392,0.544803 l 8.86816,-5.376572 -0.22212,10.368336 c -0.0184,0.859938 0.67367,1.566974 1.53379,1.566974 h 2.49045 c 0.86013,0 1.55221,-0.707036 1.5338,-1.566974 l -0.22219,-10.368336 8.86816,5.376508 c 0.73548,0.445918 1.69386,0.200075 2.12392,-0.544804 l 1.24519,-2.156777 c 0.43006,-0.744879 0.16384,-1.697694 -0.59012,-2.111714 z"
           id="path2-07-6-4-7-1-7"
           style="fill:#00ff99;fill-opacity:1;stroke-width:0.0639215" />
        <path
           id="path2-07-3-7-3-9-5-4"
           style="display:inline;fill:#265d47;fill-opacity:1;stroke:none;stroke-width:0.0639215;stroke-opacity:1"
           d="m 128.56448,26.625567 c -0.86012,0 -1.55224,0.706892 -1.53375,1.566828 l 0.17363,8.093046 3.75274,2.275313 -0.22221,-10.368359 c -0.0139,-0.644292 0.37135,-1.202201 0.92708,-1.441773 -0.18612,-0.0803 -0.39133,-0.125055 -0.6072,-0.125055 z M 117.653,32.963163 c -0.55098,-0.02227 -1.09649,0.254259 -1.39216,0.766363 l -1.2454,2.156457 c -0.43006,0.744879 -0.16382,1.697995 0.59014,2.112015 l 9.0904,4.991426 -9.0904,4.991944 c -0.75396,0.41402 -1.02027,1.367136 -0.59014,2.112015 l 1.2454,2.156457 c 0.43006,0.744882 1.38842,0.991108 2.1239,0.545188 l 1.40353,-0.851112 -1.06866,-1.850533 c -0.43014,-0.744879 -0.16382,-1.697995 0.59014,-2.112015 l 9.0904,-4.991944 -9.0904,-4.991426 c -0.75396,-0.41402 -1.02021,-1.367136 -0.59014,-2.112015 l 1.06866,-1.850533 -1.40353,-0.851111 c -0.22984,-0.139348 -0.48129,-0.211053 -0.73174,-0.221176 z m 24.31376,0 c -0.25045,0.01012 -0.50239,0.08183 -0.73225,0.221176 l -5.11493,3.101102 -0.0486,2.275313 7.46414,-4.525304 -0.17673,-0.306443 c -0.29567,-0.512103 -0.84066,-0.788109 -1.39165,-0.765844 z m -11.00966,14.454933 -3.75274,2.275314 -0.17363,8.093046 c -0.0184,0.859927 0.67363,1.566828 1.53375,1.566828 h 2.49029 c 0.21585,0 0.42108,-0.04424 0.6072,-0.12454 -0.55573,-0.239572 -0.94087,-0.797994 -0.92708,-1.442288 z m 5.1139,0 0.0486,2.275314 5.11493,3.101102 c 0.73548,0.44592 1.69384,0.20021 2.1239,-0.544672 l 0.17673,-0.30644 z" />
      </g>
      <g
         id="g28177-7-3-1-1-0"
         transform="translate(53.579157,55.826567)"
         style="display:inline">
        <path
           d="m 147.71798,47.981196 -9.09029,-4.991828 9.09029,-4.991827 c 0.75396,-0.414021 1.02025,-1.3669 0.59012,-2.111777 l -1.24519,-2.156779 c -0.43006,-0.744878 -1.38837,-0.99072 -2.12392,-0.544804 l -8.86816,5.376573 0.22213,-10.368336 c 0.0184,-0.859937 -0.67361,-1.566974 -1.5338,-1.566974 h -2.49039 c -0.86012,0 -1.55221,0.707037 -1.53373,1.566974 l 0.22206,10.368336 -8.86816,-5.376509 c -0.73548,-0.445916 -1.69386,-0.200074 -2.12392,0.544804 l -1.24519,2.156778 c -0.43006,0.744879 -0.16377,1.697757 0.59019,2.111777 l 9.09022,4.991764 -9.09028,4.991828 c -0.75396,0.41402 -1.02026,1.3669 -0.59013,2.111777 l 1.24519,2.156779 c 0.43006,0.744877 1.38844,0.990719 2.12392,0.544803 l 8.86816,-5.376572 -0.22212,10.368336 c -0.0184,0.859938 0.67367,1.566974 1.53379,1.566974 h 2.49045 c 0.86013,0 1.55221,-0.707036 1.5338,-1.566974 l -0.22219,-10.368336 8.86816,5.376508 c 0.73548,0.445918 1.69386,0.200075 2.12392,-0.544804 l 1.24519,-2.156777 c 0.43006,-0.744879 0.16384,-1.697694 -0.59012,-2.111714 z"
           id="path2-07-8-9-9-3-0"
           style="fill:#00ff99;fill-opacity:1;stroke-width:0.0639215" />
        <path
           id="path2-07-3-2-6-4-4-7"
           style="display:inline;fill:#265d47;fill-opacity:1;stroke:none;stroke-width:0.0639215;stroke-opacity:1"
           d="m 128.56448,26.625567 c -0.86012,0 -1.55224,0.706892 -1.53375,1.566828 l 0.17363,8.093046 3.75274,2.275313 -0.22221,-10.368359 c -0.0139,-0.644292 0.37135,-1.202201 0.92708,-1.441773 -0.18612,-0.0803 -0.39133,-0.125055 -0.6072,-0.125055 z M 117.653,32.963163 c -0.55098,-0.02227 -1.09649,0.254259 -1.39216,0.766363 l -1.2454,2.156457 c -0.43006,0.744879 -0.16382,1.697995 0.59014,2.112015 l 9.0904,4.991426 -9.0904,4.991944 c -0.75396,0.41402 -1.02027,1.367136 -0.59014,2.112015 l 1.2454,2.156457 c 0.43006,0.744882 1.38842,0.991108 2.1239,0.545188 l 1.40353,-0.851112 -1.06866,-1.850533 c -0.43014,-0.744879 -0.16382,-1.697995 0.59014,-2.112015 l 9.0904,-4.991944 -9.0904,-4.991426 c -0.75396,-0.41402 -1.02021,-1.367136 -0.59014,-2.112015 l 1.06866,-1.850533 -1.40353,-0.851111 c -0.22984,-0.139348 -0.48129,-0.211053 -0.73174,-0.221176 z m 24.31376,0 c -0.25045,0.01012 -0.50239,0.08183 -0.73225,0.221176 l -5.11493,3.101102 -0.0486,2.275313 7.46414,-4.525304 -0.17673,-0.306443 c -0.29567,-0.512103 -0.84066,-0.788109 -1.39165,-0.765844 z m -11.00966,14.454933 -3.75274,2.275314 -0.17363,8.093046 c -0.0184,0.859927 0.67363,1.566828 1.53375,1.566828 h 2.49029 c 0.21585,0 0.42108,-0.04424 0.6072,-0.12454 -0.55573,-0.239572 -0.94087,-0.797994 -0.92708,-1.442288 z m 5.1139,0 0.0486,2.275314 5.11493,3.101102 c 0.73548,0.44592 1.69384,0.20021 2.1239,-0.544672 l 0.17673,-0.30644 z" />
      </g>
    </g>
    <g
       id="g28241-1-6-1-0"
       transform="matrix(0.55419999,0,0,0.55419999,-31.561185,-1.9251467)"
       style="display:inline">
      <g
         id="g28177-0-9-3-1"
         transform="translate(6.0854167,55.827083)">
        <path
           d="m 147.71798,47.981196 -9.09029,-4.991828 9.09029,-4.991827 c 0.75396,-0.414021 1.02025,-1.3669 0.59012,-2.111777 l -1.24519,-2.156779 c -0.43006,-0.744878 -1.38837,-0.99072 -2.12392,-0.544804 l -8.86816,5.376573 0.22213,-10.368336 c 0.0184,-0.859937 -0.67361,-1.566974 -1.5338,-1.566974 h -2.49039 c -0.86012,0 -1.55221,0.707037 -1.53373,1.566974 l 0.22206,10.368336 -8.86816,-5.376509 c -0.73548,-0.445916 -1.69386,-0.200074 -2.12392,0.544804 l -1.24519,2.156778 c -0.43006,0.744879 -0.16377,1.697757 0.59019,2.111777 l 9.09022,4.991764 -9.09028,4.991828 c -0.75396,0.41402 -1.02026,1.3669 -0.59013,2.111777 l 1.24519,2.156779 c 0.43006,0.744877 1.38844,0.990719 2.12392,0.544803 l 8.86816,-5.376572 -0.22212,10.368336 c -0.0184,0.859938 0.67367,1.566974 1.53379,1.566974 h 2.49045 c 0.86013,0 1.55221,-0.707036 1.5338,-1.566974 l -0.22219,-10.368336 8.86816,5.376508 c 0.73548,0.445918 1.69386,0.200075 2.12392,-0.544804 l 1.24519,-2.156777 c 0.43006,-0.744879 0.16384,-1.697694 -0.59012,-2.111714 z"
           id="path2-07-4-5-5-5"
           style="fill:#00ff99;fill-opacity:1;stroke-width:0.0639215" />
        <path
           id="path2-07-3-1-1-7-2"
           style="display:inline;fill:#265d47;fill-opacity:1;stroke:none;stroke-width:0.0639215;stroke-opacity:1"
           d="m 128.56448,26.625567 c -0.86012,0 -1.55224,0.706892 -1.53375,1.566828 l 0.17363,8.093046 3.75274,2.275313 -0.22221,-10.368359 c -0.0139,-0.644292 0.37135,-1.202201 0.92708,-1.441773 -0.18612,-0.0803 -0.39133,-0.125055 -0.6072,-0.125055 z M 117.653,32.963163 c -0.55098,-0.02227 -1.09649,0.254259 -1.39216,0.766363 l -1.2454,2.156457 c -0.43006,0.744879 -0.16382,1.697995 0.59014,2.112015 l 9.0904,4.991426 -9.0904,4.991944 c -0.75396,0.41402 -1.02027,1.367136 -0.59014,2.112015 l 1.2454,2.156457 c 0.43006,0.744882 1.38842,0.991108 2.1239,0.545188 l 1.40353,-0.851112 -1.06866,-1.850533 c -0.43014,-0.744879 -0.16382,-1.697995 0.59014,-2.112015 l 9.0904,-4.991944 -9.0904,-4.991426 c -0.75396,-0.41402 -1.02021,-1.367136 -0.59014,-2.112015 l 1.06866,-1.850533 -1.40353,-0.851111 c -0.22984,-0.139348 -0.48129,-0.211053 -0.73174,-0.221176 z m 24.31376,0 c -0.25045,0.01012 -0.50239,0.08183 -0.73225,0.221176 l -5.11493,3.101102 -0.0486,2.275313 7.46414,-4.525304 -0.17673,-0.306443 c -0.29567,-0.512103 -0.84066,-0.788109 -1.39165,-0.765844 z m -11.00966,14.454933 -3.75274,2.275314 -0.17363,8.093046 c -0.0184,0.859927 0.67363,1.566828 1.53375,1.566828 h 2.49029 c 0.21585,0 0.42108,-0.04424 0.6072,-0.12454 -0.55573,-0.239572 -0.94087,-0.797994 -0.92708,-1.442288 z m 5.1139,0 0.0486,2.275314 5.11493,3.101102 c 0.73548,0.44592 1.69384,0.20021 2.1239,-0.544672 l 0.17673,-0.30644 z" />
      </g>
      <g
         id="g28177-5-6-2-8-8"
         transform="translate(29.832267,47.29614)"
         style="display:inline">
        <path
           d="m 147.71798,47.981196 -9.09029,-4.991828 9.09029,-4.991827 c 0.75396,-0.414021 1.02025,-1.3669 0.59012,-2.111777 l -1.24519,-2.156779 c -0.43006,-0.744878 -1.38837,-0.99072 -2.12392,-0.544804 l -8.86816,5.376573 0.22213,-10.368336 c 0.0184,-0.859937 -0.67361,-1.566974 -1.5338,-1.566974 h -2.49039 c -0.86012,0 -1.55221,0.707037 -1.53373,1.566974 l 0.22206,10.368336 -8.86816,-5.376509 c -0.73548,-0.445916 -1.69386,-0.200074 -2.12392,0.544804 l -1.24519,2.156778 c -0.43006,0.744879 -0.16377,1.697757 0.59019,2.111777 l 9.09022,4.991764 -9.09028,4.991828 c -0.75396,0.41402 -1.02026,1.3669 -0.59013,2.111777 l 1.24519,2.156779 c 0.43006,0.744877 1.38844,0.990719 2.12392,0.544803 l 8.86816,-5.376572 -0.22212,10.368336 c -0.0184,0.859938 0.67367,1.566974 1.53379,1.566974 h 2.49045 c 0.86013,0 1.55221,-0.707036 1.5338,-1.566974 l -0.22219,-10.368336 8.86816,5.376508 c 0.73548,0.445918 1.69386,0.200075 2.12392,-0.544804 l 1.24519,-2.156777 c 0.43006,-0.744879 0.16384,-1.697694 -0.59012,-2.111714 z"
           id="path2-07-6-4-7-1-5"
           style="fill:#00ff99;fill-opacity:1;stroke-width:0.0639215" />
        <path
           id="path2-07-3-7-3-9-5-3"
           style="display:inline;fill:#265d47;fill-opacity:1;stroke:none;stroke-width:0.0639215;stroke-opacity:1"
           d="m 128.56448,26.625567 c -0.86012,0 -1.55224,0.706892 -1.53375,1.566828 l 0.17363,8.093046 3.75274,2.275313 -0.22221,-10.368359 c -0.0139,-0.644292 0.37135,-1.202201 0.92708,-1.441773 -0.18612,-0.0803 -0.39133,-0.125055 -0.6072,-0.125055 z M 117.653,32.963163 c -0.55098,-0.02227 -1.09649,0.254259 -1.39216,0.766363 l -1.2454,2.156457 c -0.43006,0.744879 -0.16382,1.697995 0.59014,2.112015 l 9.0904,4.991426 -9.0904,4.991944 c -0.75396,0.41402 -1.02027,1.367136 -0.59014,2.112015 l 1.2454,2.156457 c 0.43006,0.744882 1.38842,0.991108 2.1239,0.545188 l 1.40353,-0.851112 -1.06866,-1.850533 c -0.43014,-0.744879 -0.16382,-1.697995 0.59014,-2.112015 l 9.0904,-4.991944 -9.0904,-4.991426 c -0.75396,-0.41402 -1.02021,-1.367136 -0.59014,-2.112015 l 1.06866,-1.850533 -1.40353,-0.851111 c -0.22984,-0.139348 -0.48129,-0.211053 -0.73174,-0.221176 z m 24.31376,0 c -0.25045,0.01012 -0.50239,0.08183 -0.73225,0.221176 l -5.11493,3.101102 -0.0486,2.275313 7.46414,-4.525304 -0.17673,-0.306443 c -0.29567,-0.512103 -0.84066,-0.788109 -1.39165,-0.765844 z m -11.00966,14.454933 -3.75274,2.275314 -0.17363,8.093046 c -0.0184,0.859927 0.67363,1.566828 1.53375,1.566828 h 2.49029 c 0.21585,0 0.42108,-0.04424 0.6072,-0.12454 -0.55573,-0.239572 -0.94087,-0.797994 -0.92708,-1.442288 z m 5.1139,0 0.0486,2.275314 5.11493,3.101102 c 0.73548,0.44592 1.69384,0.20021 2.1239,-0.544672 l 0.17673,-0.30644 z" />
      </g>
      <g
         id="g28177-7-3-1-1-3"
         transform="translate(53.579157,55.826567)"
         style="display:inline">
        <path
           d="m 147.71798,47.981196 -9.09029,-4.991828 9.09029,-4.991827 c 0.75396,-0.414021 1.02025,-1.3669 0.59012,-2.111777 l -1.24519,-2.156779 c -0.43006,-0.744878 -1.38837,-0.99072 -2.12392,-0.544804 l -8.86816,5.376573 0.22213,-10.368336 c 0.0184,-0.859937 -0.67361,-1.566974 -1.5338,-1.566974 h -2.49039 c -0.86012,0 -1.55221,0.707037 -1.53373,1.566974 l 0.22206,10.368336 -8.86816,-5.376509 c -0.73548,-0.445916 -1.69386,-0.200074 -2.12392,0.544804 l -1.24519,2.156778 c -0.43006,0.744879 -0.16377,1.697757 0.59019,2.111777 l 9.09022,4.991764 -9.09028,4.991828 c -0.75396,0.41402 -1.02026,1.3669 -0.59013,2.111777 l 1.24519,2.156779 c 0.43006,0.744877 1.38844,0.990719 2.12392,0.544803 l 8.86816,-5.376572 -0.22212,10.368336 c -0.0184,0.859938 0.67367,1.566974 1.53379,1.566974 h 2.49045 c 0.86013,0 1.55221,-0.707036 1.5338,-1.566974 l -0.22219,-10.368336 8.86816,5.376508 c 0.73548,0.445918 1.69386,0.200075 2.12392,-0.544804 l 1.24519,-2.156777 c 0.43006,-0.744879 0.16384,-1.697694 -0.59012,-2.111714 z"
           id="path2-07-8-9-9-3-9"
           style="fill:#00ff99;fill-opacity:1;stroke-width:0.0639215" />
        <path
           id="path2-07-3-2-6-4-4-4"
           style="display:inline;fill:#265d47;fill-opacity:1;stroke:none;stroke-width:0.0639215;stroke-opacity:1"
           d="m 128.56448,26.625567 c -0.86012,0 -1.55224,0.706892 -1.53375,1.566828 l 0.17363,8.093046 3.75274,2.275313 -0.22221,-10.368359 c -0.0139,-0.644292 0.37135,-1.202201 0.92708,-1.441773 -0.18612,-0.0803 -0.39133,-0.125055 -0.6072,-0.125055 z M 117.653,32.963163 c -0.55098,-0.02227 -1.09649,0.254259 -1.39216,0.766363 l -1.2454,2.156457 c -0.43006,0.744879 -0.16382,1.697995 0.59014,2.112015 l 9.0904,4.991426 -9.0904,4.991944 c -0.75396,0.41402 -1.02027,1.367136 -0.59014,2.112015 l 1.2454,2.156457 c 0.43006,0.744882 1.38842,0.991108 2.1239,0.545188 l 1.40353,-0.851112 -1.06866,-1.850533 c -0.43014,-0.744879 -0.16382,-1.697995 0.59014,-2.112015 l 9.0904,-4.991944 -9.0904,-4.991426 c -0.75396,-0.41402 -1.02021,-1.367136 -0.59014,-2.112015 l 1.06866,-1.850533 -1.40353,-0.851111 c -0.22984,-0.139348 -0.48129,-0.211053 -0.73174,-0.221176 z m 24.31376,0 c -0.25045,0.01012 -0.50239,0.08183 -0.73225,0.221176 l -5.11493,3.101102 -0.0486,2.275313 7.46414,-4.525304 -0.17673,-0.306443 c -0.29567,-0.512103 -0.84066,-0.788109 -1.39165,-0.765844 z m -11.00966,14.454933 -3.75274,2.275314 -0.17363,8.093046 c -0.0184,0.859927 0.67363,1.566828 1.53375,1.566828 h 2.49029 c 0.21585,0 0.42108,-0.04424 0.6072,-0.12454 -0.55573,-0.239572 -0.94087,-0.797994 -0.92708,-1.442288 z m 5.1139,0 0.0486,2.275314 5.11493,3.101102 c 0.73548,0.44592 1.69384,0.20021 2.1239,-0.544672 l 0.17673,-0.30644 z" />
      </g>
    </g>
    <g
       id="g28241-1-6-1-0-0"
       transform="matrix(0.55419999,0,0,0.55419999,9.6037253,-17.471905)"
       style="display:inline">
      <g
         id="g28177-0-9-3-1-0"
         transform="translate(6.0854167,55.827083)">
        <path
           d="m 147.71798,47.981196 -9.09029,-4.991828 9.09029,-4.991827 c 0.75396,-0.414021 1.02025,-1.3669 0.59012,-2.111777 l -1.24519,-2.156779 c -0.43006,-0.744878 -1.38837,-0.99072 -2.12392,-0.544804 l -8.86816,5.376573 0.22213,-10.368336 c 0.0184,-0.859937 -0.67361,-1.566974 -1.5338,-1.566974 h -2.49039 c -0.86012,0 -1.55221,0.707037 -1.53373,1.566974 l 0.22206,10.368336 -8.86816,-5.376509 c -0.73548,-0.445916 -1.69386,-0.200074 -2.12392,0.544804 l -1.24519,2.156778 c -0.43006,0.744879 -0.16377,1.697757 0.59019,2.111777 l 9.09022,4.991764 -9.09028,4.991828 c -0.75396,0.41402 -1.02026,1.3669 -0.59013,2.111777 l 1.24519,2.156779 c 0.43006,0.744877 1.38844,0.990719 2.12392,0.544803 l 8.86816,-5.376572 -0.22212,10.368336 c -0.0184,0.859938 0.67367,1.566974 1.53379,1.566974 h 2.49045 c 0.86013,0 1.55221,-0.707036 1.5338,-1.566974 l -0.22219,-10.368336 8.86816,5.376508 c 0.73548,0.445918 1.69386,0.200075 2.12392,-0.544804 l 1.24519,-2.156777 c 0.43006,-0.744879 0.16384,-1.697694 -0.59012,-2.111714 z"
           id="path2-07-4-5-5-5-9"
           style="fill:#00ff99;fill-opacity:1;stroke-width:0.0639215" />
        <path
           id="path2-07-3-1-1-7-2-8"
           style="display:inline;fill:#265d47;fill-opacity:1;stroke:none;stroke-width:0.0639215;stroke-opacity:1"
           d="m 128.56448,26.625567 c -0.86012,0 -1.55224,0.706892 -1.53375,1.566828 l 0.17363,8.093046 3.75274,2.275313 -0.22221,-10.368359 c -0.0139,-0.644292 0.37135,-1.202201 0.92708,-1.441773 -0.18612,-0.0803 -0.39133,-0.125055 -0.6072,-0.125055 z M 117.653,32.963163 c -0.55098,-0.02227 -1.09649,0.254259 -1.39216,0.766363 l -1.2454,2.156457 c -0.43006,0.744879 -0.16382,1.697995 0.59014,2.112015 l 9.0904,4.991426 -9.0904,4.991944 c -0.75396,0.41402 -1.02027,1.367136 -0.59014,2.112015 l 1.2454,2.156457 c 0.43006,0.744882 1.38842,0.991108 2.1239,0.545188 l 1.40353,-0.851112 -1.06866,-1.850533 c -0.43014,-0.744879 -0.16382,-1.697995 0.59014,-2.112015 l 9.0904,-4.991944 -9.0904,-4.991426 c -0.75396,-0.41402 -1.02021,-1.367136 -0.59014,-2.112015 l 1.06866,-1.850533 -1.40353,-0.851111 c -0.22984,-0.139348 -0.48129,-0.211053 -0.73174,-0.221176 z m 24.31376,0 c -0.25045,0.01012 -0.50239,0.08183 -0.73225,0.221176 l -5.11493,3.101102 -0.0486,2.275313 7.46414,-4.525304 -0.17673,-0.306443 c -0.29567,-0.512103 -0.84066,-0.788109 -1.39165,-0.765844 z m -11.00966,14.454933 -3.75274,2.275314 -0.17363,8.093046 c -0.0184,0.859927 0.67363,1.566828 1.53375,1.566828 h 2.49029 c 0.21585,0 0.42108,-0.04424 0.6072,-0.12454 -0.55573,-0.239572 -0.94087,-0.797994 -0.92708,-1.442288 z m 5.1139,0 0.0486,2.275314 5.11493,3.101102 c 0.73548,0.44592 1.69384,0.20021 2.1239,-0.544672 l 0.17673,-0.30644 z" />
      </g>
      <g
         id="g28177-5-6-2-8-8-7"
         transform="translate(29.832267,47.29614)"
         style="display:inline">
        <path
           d="m 147.71798,47.981196 -9.09029,-4.991828 9.09029,-4.991827 c 0.75396,-0.414021 1.02025,-1.3669 0.59012,-2.111777 l -1.24519,-2.156779 c -0.43006,-0.744878 -1.38837,-0.99072 -2.12392,-0.544804 l -8.86816,5.376573 0.22213,-10.368336 c 0.0184,-0.859937 -0.67361,-1.566974 -1.5338,-1.566974 h -2.49039 c -0.86012,0 -1.55221,0.707037 -1.53373,1.566974 l 0.22206,10.368336 -8.86816,-5.376509 c -0.73548,-0.445916 -1.69386,-0.200074 -2.12392,0.544804 l -1.24519,2.156778 c -0.43006,0.744879 -0.16377,1.697757 0.59019,2.111777 l 9.09022,4.991764 -9.09028,4.991828 c -0.75396,0.41402 -1.02026,1.3669 -0.59013,2.111777 l 1.24519,2.156779 c 0.43006,0.744877 1.38844,0.990719 2.12392,0.544803 l 8.86816,-5.376572 -0.22212,10.368336 c -0.0184,0.859938 0.67367,1.566974 1.53379,1.566974 h 2.49045 c 0.86013,0 1.55221,-0.707036 1.5338,-1.566974 l -0.22219,-10.368336 8.86816,5.376508 c 0.73548,0.445918 1.69386,0.200075 2.12392,-0.544804 l 1.24519,-2.156777 c 0.43006,-0.744879 0.16384,-1.697694 -0.59012,-2.111714 z"
           id="path2-07-6-4-7-1-5-0"
           style="fill:#00ff99;fill-opacity:1;stroke-width:0.0639215" />
        <path
           id="path2-07-3-7-3-9-5-3-2"
           style="display:inline;fill:#265d47;fill-opacity:1;stroke:none;stroke-width:0.0639215;stroke-opacity:1"
           d="m 128.56448,26.625567 c -0.86012,0 -1.55224,0.706892 -1.53375,1.566828 l 0.17363,8.093046 3.75274,2.275313 -0.22221,-10.368359 c -0.0139,-0.644292 0.37135,-1.202201 0.92708,-1.441773 -0.18612,-0.0803 -0.39133,-0.125055 -0.6072,-0.125055 z M 117.653,32.963163 c -0.55098,-0.02227 -1.09649,0.254259 -1.39216,0.766363 l -1.2454,2.156457 c -0.43006,0.744879 -0.16382,1.697995 0.59014,2.112015 l 9.0904,4.991426 -9.0904,4.991944 c -0.75396,0.41402 -1.02027,1.367136 -0.59014,2.112015 l 1.2454,2.156457 c 0.43006,0.744882 1.38842,0.991108 2.1239,0.545188 l 1.40353,-0.851112 -1.06866,-1.850533 c -0.43014,-0.744879 -0.16382,-1.697995 0.59014,-2.112015 l 9.0904,-4.991944 -9.0904,-4.991426 c -0.75396,-0.41402 -1.02021,-1.367136 -0.59014,-2.112015 l 1.06866,-1.850533 -1.40353,-0.851111 c -0.22984,-0.139348 -0.48129,-0.211053 -0.73174,-0.221176 z m 24.31376,0 c -0.25045,0.01012 -0.50239,0.08183 -0.73225,0.221176 l -5.11493,3.101102 -0.0486,2.275313 7.46414,-4.525304 -0.17673,-0.306443 c -0.29567,-0.512103 -0.84066,-0.788109 -1.39165,-0.765844 z m -11.00966,14.454933 -3.75274,2.275314 -0.17363,8.093046 c -0.0184,0.859927 0.67363,1.566828 1.53375,1.566828 h 2.49029 c 0.21585,0 0.42108,-0.04424 0.6072,-0.12454 -0.55573,-0.239572 -0.94087,-0.797994 -0.92708,-1.442288 z m 5.1139,0 0.0486,2.275314 5.11493,3.101102 c 0.73548,0.44592 1.69384,0.20021 2.1239,-0.544672 l 0.17673,-0.30644 z" />
      </g>
      <g
         id="g28177-7-3-1-1-3-7"
         transform="translate(53.579157,55.826567)"
         style="display:inline">
        <path
           d="m 147.71798,47.981196 -9.09029,-4.991828 9.09029,-4.991827 c 0.75396,-0.414021 1.02025,-1.3669 0.59012,-2.111777 l -1.24519,-2.156779 c -0.43006,-0.744878 -1.38837,-0.99072 -2.12392,-0.544804 l -8.86816,5.376573 0.22213,-10.368336 c 0.0184,-0.859937 -0.67361,-1.566974 -1.5338,-1.566974 h -2.49039 c -0.86012,0 -1.55221,0.707037 -1.53373,1.566974 l 0.22206,10.368336 -8.86816,-5.376509 c -0.73548,-0.445916 -1.69386,-0.200074 -2.12392,0.544804 l -1.24519,2.156778 c -0.43006,0.744879 -0.16377,1.697757 0.59019,2.111777 l 9.09022,4.991764 -9.09028,4.991828 c -0.75396,0.41402 -1.02026,1.3669 -0.59013,2.111777 l 1.24519,2.156779 c 0.43006,0.744877 1.38844,0.990719 2.12392,0.544803 l 8.86816,-5.376572 -0.22212,10.368336 c -0.0184,0.859938 0.67367,1.566974 1.53379,1.566974 h 2.49045 c 0.86013,0 1.55221,-0.707036 1.5338,-1.566974 l -0.22219,-10.368336 8.86816,5.376508 c 0.73548,0.445918 1.69386,0.200075 2.12392,-0.544804 l 1.24519,-2.156777 c 0.43006,-0.744879 0.16384,-1.697694 -0.59012,-2.111714 z"
           id="path2-07-8-9-9-3-9-5"
           style="fill:#00ff99;fill-opacity:1;stroke-width:0.0639215" />
        <path
           id="path2-07-3-2-6-4-4-4-0"
           style="display:inline;fill:#265d47;fill-opacity:1;stroke:none;stroke-width:0.0639215;stroke-opacity:1"
           d="m 128.56448,26.625567 c -0.86012,0 -1.55224,0.706892 -1.53375,1.566828 l 0.17363,8.093046 3.75274,2.275313 -0.22221,-10.368359 c -0.0139,-0.644292 0.37135,-1.202201 0.92708,-1.441773 -0.18612,-0.0803 -0.39133,-0.125055 -0.6072,-0.125055 z M 117.653,32.963163 c -0.55098,-0.02227 -1.09649,0.254259 -1.39216,0.766363 l -1.2454,2.156457 c -0.43006,0.744879 -0.16382,1.697995 0.59014,2.112015 l 9.0904,4.991426 -9.0904,4.991944 c -0.75396,0.41402 -1.02027,1.367136 -0.59014,2.112015 l 1.2454,2.156457 c 0.43006,0.744882 1.38842,0.991108 2.1239,0.545188 l 1.40353,-0.851112 -1.06866,-1.850533 c -0.43014,-0.744879 -0.16382,-1.697995 0.59014,-2.112015 l 9.0904,-4.991944 -9.0904,-4.991426 c -0.75396,-0.41402 -1.02021,-1.367136 -0.59014,-2.112015 l 1.06866,-1.850533 -1.40353,-0.851111 c -0.22984,-0.139348 -0.48129,-0.211053 -0.73174,-0.221176 z m 24.31376,0 c -0.25045,0.01012 -0.50239,0.08183 -0.73225,0.221176 l -5.11493,3.101102 -0.0486,2.275313 7.46414,-4.525304 -0.17673,-0.306443 c -0.29567,-0.512103 -0.84066,-0.788109 -1.39165,-0.765844 z m -11.00966,14.454933 -3.75274,2.275314 -0.17363,8.093046 c -0.0184,0.859927 0.67363,1.566828 1.53375,1.566828 h 2.49029 c 0.21585,0 0.42108,-0.04424 0.6072,-0.12454 -0.55573,-0.239572 -0.94087,-0.797994 -0.92708,-1.442288 z m 5.1139,0 0.0486,2.275314 5.11493,3.101102 c 0.73548,0.44592 1.69384,0.20021 2.1239,-0.544672 l 0.17673,-0.30644 z" />
      </g>
    </g>
    <g
       id="g28241-1-6-1-0-08"
       transform="matrix(0.49262221,0,0,0.49262221,-12.928799,-30.896268)"
       style="display:inline">
      <g
         id="g28177-0-9-3-1-4"
         transform="translate(6.0854167,55.827083)">
        <path
           d="m 147.71798,47.981196 -9.09029,-4.991828 9.09029,-4.991827 c 0.75396,-0.414021 1.02025,-1.3669 0.59012,-2.111777 l -1.24519,-2.156779 c -0.43006,-0.744878 -1.38837,-0.99072 -2.12392,-0.544804 l -8.86816,5.376573 0.22213,-10.368336 c 0.0184,-0.859937 -0.67361,-1.566974 -1.5338,-1.566974 h -2.49039 c -0.86012,0 -1.55221,0.707037 -1.53373,1.566974 l 0.22206,10.368336 -8.86816,-5.376509 c -0.73548,-0.445916 -1.69386,-0.200074 -2.12392,0.544804 l -1.24519,2.156778 c -0.43006,0.744879 -0.16377,1.697757 0.59019,2.111777 l 9.09022,4.991764 -9.09028,4.991828 c -0.75396,0.41402 -1.02026,1.3669 -0.59013,2.111777 l 1.24519,2.156779 c 0.43006,0.744877 1.38844,0.990719 2.12392,0.544803 l 8.86816,-5.376572 -0.22212,10.368336 c -0.0184,0.859938 0.67367,1.566974 1.53379,1.566974 h 2.49045 c 0.86013,0 1.55221,-0.707036 1.5338,-1.566974 l -0.22219,-10.368336 8.86816,5.376508 c 0.73548,0.445918 1.69386,0.200075 2.12392,-0.544804 l 1.24519,-2.156777 c 0.43006,-0.744879 0.16384,-1.697694 -0.59012,-2.111714 z"
           id="path2-07-4-5-5-5-8"
           style="fill:#00ff99;fill-opacity:1;stroke-width:0.0639215" />
        <path
           id="path2-07-3-1-1-7-2-3"
           style="display:inline;fill:#265d47;fill-opacity:1;stroke:none;stroke-width:0.0639215;stroke-opacity:1"
           d="m 128.56448,26.625567 c -0.86012,0 -1.55224,0.706892 -1.53375,1.566828 l 0.17363,8.093046 3.75274,2.275313 -0.22221,-10.368359 c -0.0139,-0.644292 0.37135,-1.202201 0.92708,-1.441773 -0.18612,-0.0803 -0.39133,-0.125055 -0.6072,-0.125055 z M 117.653,32.963163 c -0.55098,-0.02227 -1.09649,0.254259 -1.39216,0.766363 l -1.2454,2.156457 c -0.43006,0.744879 -0.16382,1.697995 0.59014,2.112015 l 9.0904,4.991426 -9.0904,4.991944 c -0.75396,0.41402 -1.02027,1.367136 -0.59014,2.112015 l 1.2454,2.156457 c 0.43006,0.744882 1.38842,0.991108 2.1239,0.545188 l 1.40353,-0.851112 -1.06866,-1.850533 c -0.43014,-0.744879 -0.16382,-1.697995 0.59014,-2.112015 l 9.0904,-4.991944 -9.0904,-4.991426 c -0.75396,-0.41402 -1.02021,-1.367136 -0.59014,-2.112015 l 1.06866,-1.850533 -1.40353,-0.851111 c -0.22984,-0.139348 -0.48129,-0.211053 -0.73174,-0.221176 z m 24.31376,0 c -0.25045,0.01012 -0.50239,0.08183 -0.73225,0.221176 l -5.11493,3.101102 -0.0486,2.275313 7.46414,-4.525304 -0.17673,-0.306443 c -0.29567,-0.512103 -0.84066,-0.788109 -1.39165,-0.765844 z m -11.00966,14.454933 -3.75274,2.275314 -0.17363,8.093046 c -0.0184,0.859927 0.67363,1.566828 1.53375,1.566828 h 2.49029 c 0.21585,0 0.42108,-0.04424 0.6072,-0.12454 -0.55573,-0.239572 -0.94087,-0.797994 -0.92708,-1.442288 z m 5.1139,0 0.0486,2.275314 5.11493,3.101102 c 0.73548,0.44592 1.69384,0.20021 2.1239,-0.544672 l 0.17673,-0.30644 z" />
      </g>
      <g
         id="g28177-5-6-2-8-8-8"
         transform="translate(29.832267,47.29614)"
         style="display:inline">
        <path
           d="m 147.71798,47.981196 -9.09029,-4.991828 9.09029,-4.991827 c 0.75396,-0.414021 1.02025,-1.3669 0.59012,-2.111777 l -1.24519,-2.156779 c -0.43006,-0.744878 -1.38837,-0.99072 -2.12392,-0.544804 l -8.86816,5.376573 0.22213,-10.368336 c 0.0184,-0.859937 -0.67361,-1.566974 -1.5338,-1.566974 h -2.49039 c -0.86012,0 -1.55221,0.707037 -1.53373,1.566974 l 0.22206,10.368336 -8.86816,-5.376509 c -0.73548,-0.445916 -1.69386,-0.200074 -2.12392,0.544804 l -1.24519,2.156778 c -0.43006,0.744879 -0.16377,1.697757 0.59019,2.111777 l 9.09022,4.991764 -9.09028,4.991828 c -0.75396,0.41402 -1.02026,1.3669 -0.59013,2.111777 l 1.24519,2.156779 c 0.43006,0.744877 1.38844,0.990719 2.12392,0.544803 l 8.86816,-5.376572 -0.22212,10.368336 c -0.0184,0.859938 0.67367,1.566974 1.53379,1.566974 h 2.49045 c 0.86013,0 1.55221,-0.707036 1.5338,-1.566974 l -0.22219,-10.368336 8.86816,5.376508 c 0.73548,0.445918 1.69386,0.200075 2.12392,-0.544804 l 1.24519,-2.156777 c 0.43006,-0.744879 0.16384,-1.697694 -0.59012,-2.111714 z"
           id="path2-07-6-4-7-1-5-8"
           style="fill:#00ff99;fill-opacity:1;stroke-width:0.0639215" />
        <path
           id="path2-07-3-7-3-9-5-3-9"
           style="display:inline;fill:#265d47;fill-opacity:1;stroke:none;stroke-width:0.0639215;stroke-opacity:1"
           d="m 128.56448,26.625567 c -0.86012,0 -1.55224,0.706892 -1.53375,1.566828 l 0.17363,8.093046 3.75274,2.275313 -0.22221,-10.368359 c -0.0139,-0.644292 0.37135,-1.202201 0.92708,-1.441773 -0.18612,-0.0803 -0.39133,-0.125055 -0.6072,-0.125055 z M 117.653,32.963163 c -0.55098,-0.02227 -1.09649,0.254259 -1.39216,0.766363 l -1.2454,2.156457 c -0.43006,0.744879 -0.16382,1.697995 0.59014,2.112015 l 9.0904,4.991426 -9.0904,4.991944 c -0.75396,0.41402 -1.02027,1.367136 -0.59014,2.112015 l 1.2454,2.156457 c 0.43006,0.744882 1.38842,0.991108 2.1239,0.545188 l 1.40353,-0.851112 -1.06866,-1.850533 c -0.43014,-0.744879 -0.16382,-1.697995 0.59014,-2.112015 l 9.0904,-4.991944 -9.0904,-4.991426 c -0.75396,-0.41402 -1.02021,-1.367136 -0.59014,-2.112015 l 1.06866,-1.850533 -1.40353,-0.851111 c -0.22984,-0.139348 -0.48129,-0.211053 -0.73174,-0.221176 z m 24.31376,0 c -0.25045,0.01012 -0.50239,0.08183 -0.73225,0.221176 l -5.11493,3.101102 -0.0486,2.275313 7.46414,-4.525304 -0.17673,-0.306443 c -0.29567,-0.512103 -0.84066,-0.788109 -1.39165,-0.765844 z m -11.00966,14.454933 -3.75274,2.275314 -0.17363,8.093046 c -0.0184,0.859927 0.67363,1.566828 1.53375,1.566828 h 2.49029 c 0.21585,0 0.42108,-0.04424 0.6072,-0.12454 -0.55573,-0.239572 -0.94087,-0.797994 -0.92708,-1.442288 z m 5.1139,0 0.0486,2.275314 5.11493,3.101102 c 0.73548,0.44592 1.69384,0.20021 2.1239,-0.544672 l 0.17673,-0.30644 z" />
      </g>
      <g
         id="g28177-7-3-1-1-3-75"
         transform="translate(53.579157,55.826567)"
         style="display:inline">
        <path
           d="m 147.71798,47.981196 -9.09029,-4.991828 9.09029,-4.991827 c 0.75396,-0.414021 1.02025,-1.3669 0.59012,-2.111777 l -1.24519,-2.156779 c -0.43006,-0.744878 -1.38837,-0.99072 -2.12392,-0.544804 l -8.86816,5.376573 0.22213,-10.368336 c 0.0184,-0.859937 -0.67361,-1.566974 -1.5338,-1.566974 h -2.49039 c -0.86012,0 -1.55221,0.707037 -1.53373,1.566974 l 0.22206,10.368336 -8.86816,-5.376509 c -0.73548,-0.445916 -1.69386,-0.200074 -2.12392,0.544804 l -1.24519,2.156778 c -0.43006,0.744879 -0.16377,1.697757 0.59019,2.111777 l 9.09022,4.991764 -9.09028,4.991828 c -0.75396,0.41402 -1.02026,1.3669 -0.59013,2.111777 l 1.24519,2.156779 c 0.43006,0.744877 1.38844,0.990719 2.12392,0.544803 l 8.86816,-5.376572 -0.22212,10.368336 c -0.0184,0.859938 0.67367,1.566974 1.53379,1.566974 h 2.49045 c 0.86013,0 1.55221,-0.707036 1.5338,-1.566974 l -0.22219,-10.368336 8.86816,5.376508 c 0.73548,0.445918 1.69386,0.200075 2.12392,-0.544804 l 1.24519,-2.156777 c 0.43006,-0.744879 0.16384,-1.697694 -0.59012,-2.111714 z"
           id="path2-07-8-9-9-3-9-1"
           style="fill:#00ff99;fill-opacity:1;stroke-width:0.0639215" />
        <path
           id="path2-07-3-2-6-4-4-4-4"
           style="display:inline;fill:#265d47;fill-opacity:1;stroke:none;stroke-width:0.0639215;stroke-opacity:1"
           d="m 128.56448,26.625567 c -0.86012,0 -1.55224,0.706892 -1.53375,1.566828 l 0.17363,8.093046 3.75274,2.275313 -0.22221,-10.368359 c -0.0139,-0.644292 0.37135,-1.202201 0.92708,-1.441773 -0.18612,-0.0803 -0.39133,-0.125055 -0.6072,-0.125055 z M 117.653,32.963163 c -0.55098,-0.02227 -1.09649,0.254259 -1.39216,0.766363 l -1.2454,2.156457 c -0.43006,0.744879 -0.16382,1.697995 0.59014,2.112015 l 9.0904,4.991426 -9.0904,4.991944 c -0.75396,0.41402 -1.02027,1.367136 -0.59014,2.112015 l 1.2454,2.156457 c 0.43006,0.744882 1.38842,0.991108 2.1239,0.545188 l 1.40353,-0.851112 -1.06866,-1.850533 c -0.43014,-0.744879 -0.16382,-1.697995 0.59014,-2.112015 l 9.0904,-4.991944 -9.0904,-4.991426 c -0.75396,-0.41402 -1.02021,-1.367136 -0.59014,-2.112015 l 1.06866,-1.850533 -1.40353,-0.851111 c -0.22984,-0.139348 -0.48129,-0.211053 -0.73174,-0.221176 z m 24.31376,0 c -0.25045,0.01012 -0.50239,0.08183 -0.73225,0.221176 l -5.11493,3.101102 -0.0486,2.275313 7.46414,-4.525304 -0.17673,-0.306443 c -0.29567,-0.512103 -0.84066,-0.788109 -1.39165,-0.765844 z m -11.00966,14.454933 -3.75274,2.275314 -0.17363,8.093046 c -0.0184,0.859927 0.67363,1.566828 1.53375,1.566828 h 2.49029 c 0.21585,0 0.42108,-0.04424 0.6072,-0.12454 -0.55573,-0.239572 -0.94087,-0.797994 -0.92708,-1.442288 z m 5.1139,0 0.0486,2.275314 5.11493,3.101102 c 0.73548,0.44592 1.69384,0.20021 2.1239,-0.544672 l 0.17673,-0.30644 z" />
      </g>
    </g>
  </g>
</svg>
