<?xml version="1.0" encoding="UTF-8" standalone="no"?>
<!-- Created with Inkscape (http://www.inkscape.org/) -->

<svg
   width="500"
   height="500"
   viewBox="0 0 132.29166 132.29167"
   version="1.1"
   id="svg2515"
   inkscape:version="1.1.2 (b8e25be833, 2022-02-05)"
   sodipodi:docname="bonsai12s06blooming.svg"
   inkscape:export-filename="C:\Users\Lenovo\Desktop\Coding\Media files\Bonsais\bonsai12.png"
   inkscape:export-xdpi="96"
   inkscape:export-ydpi="96"
   xmlns:inkscape="http://www.inkscape.org/namespaces/inkscape"
   xmlns:sodipodi="http://sodipodi.sourceforge.net/DTD/sodipodi-0.dtd"
   xmlns="http://www.w3.org/2000/svg"
   xmlns:svg="http://www.w3.org/2000/svg">
  <sodipodi:namedview
     id="namedview2517"
     pagecolor="#ffffff"
     bordercolor="#666666"
     borderopacity="1.0"
     inkscape:pageshadow="2"
     inkscape:pageopacity="0.0"
     inkscape:pagecheckerboard="0"
     inkscape:document-units="mm"
     showgrid="false"
     units="px"
     inkscape:zoom="1.4142136"
     inkscape:cx="278.24651"
     inkscape:cy="258.44752"
     inkscape:window-width="1920"
     inkscape:window-height="1001"
     inkscape:window-x="-9"
     inkscape:window-y="-9"
     inkscape:window-maximized="1"
     inkscape:current-layer="g17992" />
  <defs
     id="defs2512">
    <marker
       style="overflow:visible"
       id="Arrow1Sstart"
       refX="0.0"
       refY="0.0"
       orient="auto"
       inkscape:stockid="Arrow1Sstart"
       inkscape:isstock="true">
      <path
         transform="scale(0.2) translate(6,0)"
         style="fill-rule:evenodd;fill:context-stroke;stroke:context-stroke;stroke-width:1.0pt"
         d="M 0.0,0.0 L 5.0,-5.0 L -12.5,0.0 L 5.0,5.0 L 0.0,0.0 z "
         id="path24092" />
    </marker>
    <marker
       style="overflow:visible"
       id="Arrow1Mstart"
       refX="0.0"
       refY="0.0"
       orient="auto"
       inkscape:stockid="Arrow1Mstart"
       inkscape:isstock="true">
      <path
         transform="scale(0.4) translate(10,0)"
         style="fill-rule:evenodd;fill:context-stroke;stroke:context-stroke;stroke-width:1.0pt"
         d="M 0.0,0.0 L 5.0,-5.0 L -12.5,0.0 L 5.0,5.0 L 0.0,0.0 z "
         id="path24086" />
    </marker>
    <marker
       style="overflow:visible"
       id="Arrow1Lstart"
       refX="0.0"
       refY="0.0"
       orient="auto"
       inkscape:stockid="Arrow1Lstart"
       inkscape:isstock="true">
      <path
         transform="scale(0.8) translate(12.5,0)"
         style="fill-rule:evenodd;fill:context-stroke;stroke:context-stroke;stroke-width:1.0pt"
         d="M 0.0,0.0 L 5.0,-5.0 L -12.5,0.0 L 5.0,5.0 L 0.0,0.0 z "
         id="path24080" />
    </marker>
    <marker
       style="overflow:visible;"
       id="Arrow1Lend"
       refX="0.0"
       refY="0.0"
       orient="auto"
       inkscape:stockid="Arrow1Lend"
       inkscape:isstock="true">
      <path
         transform="scale(0.8) rotate(180) translate(12.5,0)"
         style="fill-rule:evenodd;fill:context-stroke;stroke:context-stroke;stroke-width:1.0pt;"
         d="M 0.0,0.0 L 5.0,-5.0 L -12.5,0.0 L 5.0,5.0 L 0.0,0.0 z "
         id="path24083" />
    </marker>
  </defs>
  <g
     inkscape:label="Full Cascade Style"
     inkscape:groupmode="layer"
     id="g17992"
     style="display:inline">
    <g
       id="g17906"
       transform="translate(124.68868,25.504448)">
      <path
         style="fill:#e0af9a;fill-opacity:1;stroke:#e0af9a;stroke-width:1;stroke-linecap:round;stroke-linejoin:round;stroke-miterlimit:4;stroke-dasharray:none;stroke-opacity:1"
         d="m -99.500015,30.838997 c 0,0 3.638799,-12.735798 11.176313,-18.453912 7.537513,-5.7181136 12.496916,-8.4784226 23.142885,-10.0872826 10.645968,-1.60885902 11.594881,-2.51410402 19.483052,-1.089031 7.888169,1.425072 21.667403,2.638059 27.063051,17.1643086 6.81601,18.350201 6.7258,20.263344 4.38657,25.721542 -2.33923,5.458201 -12.829945,17.760783 -15.334937,20.793141 -4.938372,5.978028 -5.458199,8.317257 -3.118973,13.255629 0.330604,2.90298 6.162124,16.3246 -1.302394,6.77885 -6.495032,-13.276708 -1.296749,-18.994823 1.822223,-22.893535 3.118972,-3.898715 15.179241,-16.422587 15.075031,-22.61254 -0.10422,-6.189957 -5.4582,-19.233654 -7.277605,-20.013397 -1.819399,-0.779743 -7.017683,-14.5551986 -26.771164,-12.7357996 -19.753485,1.819402 -19.233657,3.3788866 -25.211683,9.6168266 -5.152861,5.376899 -9.876742,12.21597 -7.277599,14.035371 2.599142,1.8194 -15.85477,0.519829 -15.85477,0.519829 z"
         id="path17902"
         sodipodi:nodetypes="cssssssccssssssc" />
      <path
         id="path17904"
         style="display:inline;fill:#a6705c;fill-opacity:1;stroke:#a6705c;stroke-width:3.77953;stroke-linecap:round;stroke-linejoin:round;stroke-miterlimit:4;stroke-dasharray:none;stroke-opacity:1"
         d="m -198.50781,1.9003906 c -11.86585,0.2218352 -22.69775,2.9847019 -47.84571,6.7851563 -40.23673,6.0807311 -58.98051,16.5132281 -87.46875,38.1250001 -28.48824,21.611769 -42.24023,69.746093 -42.24023,69.746093 0,0 4.05066,0.25117 7.5293,0.46289 4.26508,-12.64023 17.66416,-47.519947 40.73437,-65.021483 28.48824,-21.611765 47.23397,-32.044269 87.47071,-38.125 40.23672,-6.0807282 43.82315,-9.5013383 73.63671,-4.1152345 20.11821,3.6345445 50.36393,6.9268215 74.181644,25.5390625 C -117.04264,12.062664 -150.85821,8.5173186 -172.7168,4.5683594 -183.89688,2.5485708 -191.3883,1.7672895 -198.50781,1.9003906 Z m 85.4707,47.4980474 c 12.08952,11.359811 17.783837,22.610761 20.875001,23.935546 6.876491,2.947061 27.111957,52.245516 27.505859,75.640626 0.393865,23.3951 -45.18832,70.72954 -56.97656,85.46484 -11.78824,14.73529 -31.43683,36.34766 -6.88867,86.52735 6.32744,8.09164 10.12193,11.80717 12.19531,12.59375 -1.72535,-1.89721 -3.75185,-4.31148 -6.17188,-7.40625 -24.54815,-50.17969 -4.89957,-71.79206 6.88867,-86.52735 11.78825,-14.7353 57.370432,-62.06974 56.976568,-85.46484 C -59.026715,130.767 -79.262181,81.468545 -86.138672,78.521484 -89.703333,76.993771 -96.724636,62.271435 -113.03711,49.398438 Z"
         transform="scale(0.26458333)" />
    </g>
    <g
       id="g54773-4-2-9-6-4-2"
       transform="matrix(0.85856851,0,0,1.0007543,-63.944429,10.460665)"
       style="display:inline">
      <path
         d="m 145.34527,60.22495 v 5.820833 h -16.14664 l -4.79425,-5.820833 h 20.94089"
         style="fill:#64a4bd;fill-opacity:1;fill-rule:nonzero;stroke:none;stroke-width:0.0352778"
         id="path594-9-2-7-6-4-8" />
      <path
         d="m 104.96986,60.22495 -4.79425,5.820833 H 84.134802 V 60.22495 h 20.835058"
         style="fill:#64a4bd;fill-opacity:1;fill-rule:nonzero;stroke:none;stroke-width:0.0352778"
         id="path600-2-5-8-5-2-7" />
      <path
         d="m 84.134802,60.22495 h 4.938888 v 5.820833 H 84.134802 V 60.22495"
         style="fill:#538ea1;fill-opacity:1;fill-rule:nonzero;stroke:none;stroke-width:0.0352778"
         id="path622-2-2-6-8-3-4" />
      <path
         d="m 77.791857,43.214006 c 0,6.057194 2.204861,12.463639 6.198306,17.010944 h 61.393917 c 1.99672,-2.271889 3.54541,-5.012972 4.59316,-7.9375 1.05128,-2.928055 1.60162,-6.043083 1.60162,-9.073444 H 77.791857"
         style="fill:#71cfca;fill-opacity:1;fill-rule:nonzero;stroke:none;stroke-width:0.0352778"
         id="path624-9-4-9-7-5-1" />
      <path
         d="m 77.791857,43.214006 c 0,6.057194 2.204861,12.463639 6.198306,17.010944 h 4.942416 C 84.935607,55.677645 82.734274,49.2712 82.734274,43.214006 h -4.942417 v 0"
         style="fill:#51bbae;fill-opacity:1;fill-rule:nonzero;stroke:none;stroke-width:0.0352778"
         id="path626-3-5-5-0-9-1" />
    </g>
    <g
       id="g2900-6-19-3-7-7-6"
       style="display:inline"
       transform="translate(-3.154408,-40.070991)">
      <g
         id="g52262-2-9-0-0-1-0"
         transform="matrix(0.98398321,0,0,0.98398321,-77.330939,28.78169)"
         style="display:inline">
        <g
           id="g52161-6-7-2-5-2-9"
           transform="translate(2.80633,13.657473)">
          <circle
             cx="128.43347"
             cy="19.267973"
             r="3.3333101"
             id="circle4-8-5-2-2-4-3"
             style="fill:#cccc00;fill-opacity:1;stroke-width:0.0520829" />
          <path
             d="m 140.66464,18.36173 c -1.37811,-2.131235 -3.16612,-3.941639 -5.17027,-5.235901 -2.21718,-1.433324 -4.66508,-2.191131 -7.0786,-2.191131 -2.21457,0 -4.39216,0.632808 -6.47235,1.880716 -2.12134,1.272387 -4.0432,3.131229 -5.71246,5.524441 a 1.6624884,1.6624884 0 0 0 -0.0333,1.851029 c 1.37551,2.152589 3.14581,3.965597 5.11871,5.24215 2.22134,1.439053 4.61195,2.168214 7.09943,2.168214 2.4328,0 4.8859,-0.751556 7.0937,-2.1729 2.00311,-1.290096 3.78748,-3.107271 5.16038,-5.256214 a 1.6770716,1.6770716 0 0 0 -0.005,-1.810404 z m -12.23116,5.906209 a 4.9999651,4.9999651 0 1 1 4.99996,-4.999965 5.0056942,5.0056942 0 0 1 -4.99996,4.999965 z"
             id="path6-2-3-1-2-0-9"
             style="fill:#cccc00;fill-opacity:1;stroke-width:0.0520829" />
          <path
             id="circle4-7-3-7-76-3-7-7"
             style="display:inline;fill:#929208;fill-opacity:1;stroke-width:0.052083"
             d="m 128.43364,15.935 a 3.33331,3.33331 0 0 0 -3.33364,3.333128 3.33331,3.33331 0 0 0 3.33364,3.333131 3.33331,3.33331 0 0 0 1.32292,-0.276469 3.33331,3.33331 0 0 1 -2.01022,-3.056662 3.33331,3.33331 0 0 1 2.0128,-3.058726 3.33331,3.33331 0 0 0 -1.3255,-0.274402 z" />
          <path
             id="path6-9-0-8-0-8-5-4"
             style="display:inline;fill:#929208;fill-opacity:1;stroke-width:0.052083"
             d="m 128.4161,10.935 c -2.21457,0 -4.39176,0.633113 -6.47195,1.881021 -2.12134,1.272389 -4.04357,3.130999 -5.71283,5.524211 a 1.6624884,1.6624884 0 0 0 -0.0331,1.851049 c 1.37551,2.152589 3.14566,3.965506 5.11856,5.242057 2.22134,1.439056 4.61234,2.168345 7.09982,2.168345 0.4346,0 0.86941,-0.02433 1.3038,-0.07183 -2.00611,-0.215829 -3.9384,-0.918187 -5.75727,-2.096514 -1.9729,-1.276551 -3.74356,-3.089468 -5.11907,-5.242057 a 1.6624884,1.6624884 0 0 1 0.0336,-1.851049 c 1.66926,-2.393212 3.59097,-4.251822 5.71231,-5.524211 1.66601,-0.999435 3.39481,-1.60328 5.15472,-1.804541 -0.44288,-0.05037 -0.88638,-0.07648 -1.3286,-0.07648 z m 2.10427,3.365169 a 4.9999651,4.9999651 0 0 0 -0.70745,0.203605 4.9999651,4.9999651 0 0 1 3.62097,4.764566 5.0056941,5.0056941 0 0 1 -3.59565,4.789374 4.9999651,4.9999651 0 0 0 1.24178,0.210839 5.0056941,5.0056941 0 0 0 5.00022,-5.000213 4.9999651,4.9999651 0 0 0 -5.55987,-4.968171 z" />
        </g>
        <g
           id="g52161-2-8-6-4-6-6-0"
           transform="translate(17.432111,2.9961017)"
           style="display:inline">
          <circle
             cx="128.43347"
             cy="19.267973"
             r="3.3333101"
             id="circle4-9-5-8-6-9-2-8"
             style="fill:#cccc00;fill-opacity:1;stroke-width:0.0520829" />
          <path
             d="m 140.66464,18.36173 c -1.37811,-2.131235 -3.16612,-3.941639 -5.17027,-5.235901 -2.21718,-1.433324 -4.66508,-2.191131 -7.0786,-2.191131 -2.21457,0 -4.39216,0.632808 -6.47235,1.880716 -2.12134,1.272387 -4.0432,3.131229 -5.71246,5.524441 a 1.6624884,1.6624884 0 0 0 -0.0333,1.851029 c 1.37551,2.152589 3.14581,3.965597 5.11871,5.24215 2.22134,1.439053 4.61195,2.168214 7.09943,2.168214 2.4328,0 4.8859,-0.751556 7.0937,-2.1729 2.00311,-1.290096 3.78748,-3.107271 5.16038,-5.256214 a 1.6770716,1.6770716 0 0 0 -0.005,-1.810404 z m -12.23116,5.906209 a 4.9999651,4.9999651 0 1 1 4.99996,-4.999965 5.0056942,5.0056942 0 0 1 -4.99996,4.999965 z"
             id="path6-5-8-3-6-7-0-3"
             style="fill:#cccc00;fill-opacity:1;stroke-width:0.0520829" />
          <path
             id="circle4-7-8-2-3-31-1-7-2"
             style="display:inline;fill:#929208;fill-opacity:1;stroke-width:0.052083"
             d="m 128.43364,15.935 a 3.33331,3.33331 0 0 0 -3.33364,3.333128 3.33331,3.33331 0 0 0 3.33364,3.333131 3.33331,3.33331 0 0 0 1.32292,-0.276469 3.33331,3.33331 0 0 1 -2.01022,-3.056662 3.33331,3.33331 0 0 1 2.0128,-3.058726 3.33331,3.33331 0 0 0 -1.3255,-0.274402 z" />
          <path
             id="path6-9-2-73-5-6-0-9-5"
             style="display:inline;fill:#929208;fill-opacity:1;stroke-width:0.052083"
             d="m 128.4161,10.935 c -2.21457,0 -4.39176,0.633113 -6.47195,1.881021 -2.12134,1.272389 -4.04357,3.130999 -5.71283,5.524211 a 1.6624884,1.6624884 0 0 0 -0.0331,1.851049 c 1.37551,2.152589 3.14566,3.965506 5.11856,5.242057 2.22134,1.439056 4.61234,2.168345 7.09982,2.168345 0.4346,0 0.86941,-0.02433 1.3038,-0.07183 -2.00611,-0.215829 -3.9384,-0.918187 -5.75727,-2.096514 -1.9729,-1.276551 -3.74356,-3.089468 -5.11907,-5.242057 a 1.6624884,1.6624884 0 0 1 0.0336,-1.851049 c 1.66926,-2.393212 3.59097,-4.251822 5.71231,-5.524211 1.66601,-0.999435 3.39481,-1.60328 5.15472,-1.804541 -0.44288,-0.05037 -0.88638,-0.07648 -1.3286,-0.07648 z m 2.10427,3.365169 a 4.9999651,4.9999651 0 0 0 -0.70745,0.203605 4.9999651,4.9999651 0 0 1 3.62097,4.764566 5.0056941,5.0056941 0 0 1 -3.59565,4.789374 4.9999651,4.9999651 0 0 0 1.24178,0.210839 5.0056941,5.0056941 0 0 0 5.00022,-5.000213 4.9999651,4.9999651 0 0 0 -5.55987,-4.968171 z" />
        </g>
        <g
           id="g52161-2-2-3-6-17-7-2-5"
           transform="translate(31.668923,13.657602)"
           style="display:inline">
          <circle
             cx="128.43347"
             cy="19.267973"
             r="3.3333101"
             id="circle4-9-4-2-93-86-1-2-4"
             style="fill:#cccc00;fill-opacity:1;stroke-width:0.0520829" />
          <path
             d="m 140.66464,18.36173 c -1.37811,-2.131235 -3.16612,-3.941639 -5.17027,-5.235901 -2.21718,-1.433324 -4.66508,-2.191131 -7.0786,-2.191131 -2.21457,0 -4.39216,0.632808 -6.47235,1.880716 -2.12134,1.272387 -4.0432,3.131229 -5.71246,5.524441 a 1.6624884,1.6624884 0 0 0 -0.0333,1.851029 c 1.37551,2.152589 3.14581,3.965597 5.11871,5.24215 2.22134,1.439053 4.61195,2.168214 7.09943,2.168214 2.4328,0 4.8859,-0.751556 7.0937,-2.1729 2.00311,-1.290096 3.78748,-3.107271 5.16038,-5.256214 a 1.6770716,1.6770716 0 0 0 -0.005,-1.810404 z m -12.23116,5.906209 a 4.9999651,4.9999651 0 1 1 4.99996,-4.999965 5.0056942,5.0056942 0 0 1 -4.99996,4.999965 z"
             id="path6-5-6-6-6-4-3-8-1"
             style="fill:#cccc00;fill-opacity:1;stroke-width:0.0520829" />
          <path
             id="circle4-7-8-1-4-6-8-9-8-1"
             style="display:inline;fill:#929208;fill-opacity:1;stroke-width:0.052083"
             d="m 128.43364,15.935 a 3.33331,3.33331 0 0 0 -3.33364,3.333128 3.33331,3.33331 0 0 0 3.33364,3.333131 3.33331,3.33331 0 0 0 1.32292,-0.276469 3.33331,3.33331 0 0 1 -2.01022,-3.056662 3.33331,3.33331 0 0 1 2.0128,-3.058726 3.33331,3.33331 0 0 0 -1.3255,-0.274402 z" />
          <path
             id="path6-9-2-9-9-8-6-5-2-3"
             style="display:inline;fill:#929208;fill-opacity:1;stroke-width:0.052083"
             d="m 128.4161,10.935 c -2.21457,0 -4.39176,0.633113 -6.47195,1.881021 -2.12134,1.272389 -4.04357,3.130999 -5.71283,5.524211 a 1.6624884,1.6624884 0 0 0 -0.0331,1.851049 c 1.37551,2.152589 3.14566,3.965506 5.11856,5.242057 2.22134,1.439056 4.61234,2.168345 7.09982,2.168345 0.4346,0 0.86941,-0.02433 1.3038,-0.07183 -2.00611,-0.215829 -3.9384,-0.918187 -5.75727,-2.096514 -1.9729,-1.276551 -3.74356,-3.089468 -5.11907,-5.242057 a 1.6624884,1.6624884 0 0 1 0.0336,-1.851049 c 1.66926,-2.393212 3.59097,-4.251822 5.71231,-5.524211 1.66601,-0.999435 3.39481,-1.60328 5.15472,-1.804541 -0.44288,-0.05037 -0.88638,-0.07648 -1.3286,-0.07648 z m 2.10427,3.365169 a 4.9999651,4.9999651 0 0 0 -0.70745,0.203605 4.9999651,4.9999651 0 0 1 3.62097,4.764566 5.0056941,5.0056941 0 0 1 -3.59565,4.789374 4.9999651,4.9999651 0 0 0 1.24178,0.210839 5.0056941,5.0056941 0 0 0 5.00022,-5.000213 4.9999651,4.9999651 0 0 0 -5.55987,-4.968171 z" />
        </g>
      </g>
      <g
         id="g8733-3-8-8-8-6-3-1-09-6-63-2-3-4"
         transform="matrix(0.02343754,0,0,0.02343754,69.705881,59.142735)"
         style="display:inline;fill:#2a49ec;fill-opacity:1">
        <path
           class="st0"
           d="m 330.555,101.873 c 0,-34.164 -13.767,-65.108 -36.047,-87.622 -2.432,-2.465 -9.63,-4.349 -14.212,3.466 -4.589,7.808 -17.205,27.431 -17.205,27.431 -1.534,2.438 -4.219,3.918 -7.089,3.918 -2.883,0 -5.555,-1.48 -7.089,-3.918 0,0 -12.623,-19.623 -17.205,-27.431 -4.582,-7.815 -11.781,-5.931 -14.219,-3.466 -22.274,22.514 -36.04,53.458 -36.04,87.622 0,51.02 30.663,94.847 74.553,114.142 43.89,-19.295 74.553,-63.123 74.553,-114.142 z"
           id="path8723-8-6-51-3-8-5-2-691-2-09-5-6-9"
           style="fill:#2a49ec;fill-opacity:1" />
        <path
           class="st0"
           d="m 204.51,253.425 c -4.78,-47.705 -36.998,-90.409 -85.518,-106.176 -32.492,-10.554 -66.177,-7.027 -94.47,7.205 -3.096,1.555 -7.117,7.822 -1.096,14.589 6.007,6.774 20.766,24.842 20.766,24.842 1.849,2.212 2.432,5.22 1.542,7.952 -0.891,2.74 -3.13,4.829 -5.918,5.528 0,0 -22.562,5.945 -31.404,7.89 -8.849,1.945 -9.281,9.37 -7.692,12.445 14.527,28.144 39.698,50.801 72.197,61.362 48.519,15.766 99.683,0.15 131.593,-35.637 z"
           id="path8725-5-6-3-4-9-0-3-5-8-6-6-3-2"
           style="fill:#2a49ec;fill-opacity:1" />
        <path
           class="st0"
           d="M 96.772,362.484 C 76.69,390.127 69.636,423.25 74.43,454.558 c 0.527,3.424 5.233,9.178 13.527,5.554 8.308,-3.63 30.054,-12.088 30.054,-12.088 2.672,-1.062 5.698,-0.692 8.041,1 2.329,1.692 3.623,4.466 3.418,7.335 0,0 -1.308,23.294 -2.199,32.315 -0.883,9.006 6.048,11.712 9.466,11.15 31.252,-5.116 60.581,-22.054 80.662,-49.704 29.993,-41.266 30.944,-94.758 6.781,-136.155 -46.848,-10.192 -97.422,7.239 -127.408,48.519 z"
           id="path8727-3-5-0-26-9-2-8-47-15-88-4-3-5"
           style="fill:#2a49ec;fill-opacity:1" />
        <path
           class="st0"
           d="m 287.824,313.964 c -24.165,41.397 -23.212,94.888 6.78,136.155 20.082,27.65 49.41,44.588 80.663,49.704 3.418,0.562 10.349,-2.144 9.466,-11.15 -0.89,-9.021 -2.205,-32.315 -2.205,-32.315 -0.198,-2.869 1.102,-5.643 3.431,-7.335 2.322,-1.692 5.363,-2.062 8.034,-1 0,0 21.746,8.458 30.047,12.088 8.294,3.623 13.007,-2.13 13.534,-5.554 4.787,-31.308 -2.254,-64.43 -22.342,-92.074 -29.986,-41.279 -80.56,-58.717 -127.408,-48.519 z"
           id="path8729-3-8-1-7-6-4-3-0-6-7-0-5-7"
           style="fill:#2a49ec;fill-opacity:1" />
        <path
           class="st0"
           d="m 503.6,215.254 c -8.849,-1.945 -31.41,-7.89 -31.41,-7.89 -2.795,-0.706 -5.027,-2.788 -5.918,-5.528 -0.89,-2.732 -0.308,-5.74 1.534,-7.952 0,0 14.76,-18.068 20.78,-24.842 6.014,-6.766 1.993,-13.034 -1.096,-14.589 -28.301,-14.232 -61.978,-17.76 -94.485,-7.205 -48.519,15.767 -80.731,58.472 -85.512,106.176 31.91,35.787 83.067,51.403 131.593,35.636 32.492,-10.561 57.67,-33.218 72.191,-61.362 1.59,-3.074 1.172,-10.499 -7.677,-12.444 z"
           id="path8731-7-2-49-14-0-2-8-7-3-24-9-1-4"
           style="fill:#2a49ec;fill-opacity:1" />
      </g>
      <g
         id="g8733-3-8-8-8-6-3-1-1-34-29-7-6-2-7"
         transform="matrix(0.02343754,0,0,0.02343754,55.697097,48.651998)"
         style="display:inline;fill:#2a49ec;fill-opacity:1">
        <path
           class="st0"
           d="m 330.555,101.873 c 0,-34.164 -13.767,-65.108 -36.047,-87.622 -2.432,-2.465 -9.63,-4.349 -14.212,3.466 -4.589,7.808 -17.205,27.431 -17.205,27.431 -1.534,2.438 -4.219,3.918 -7.089,3.918 -2.883,0 -5.555,-1.48 -7.089,-3.918 0,0 -12.623,-19.623 -17.205,-27.431 -4.582,-7.815 -11.781,-5.931 -14.219,-3.466 -22.274,22.514 -36.04,53.458 -36.04,87.622 0,51.02 30.663,94.847 74.553,114.142 43.89,-19.295 74.553,-63.123 74.553,-114.142 z"
           id="path8723-8-6-51-3-8-5-2-6-7-9-9-4-2-2"
           style="fill:#2a49ec;fill-opacity:1" />
        <path
           class="st0"
           d="m 204.51,253.425 c -4.78,-47.705 -36.998,-90.409 -85.518,-106.176 -32.492,-10.554 -66.177,-7.027 -94.47,7.205 -3.096,1.555 -7.117,7.822 -1.096,14.589 6.007,6.774 20.766,24.842 20.766,24.842 1.849,2.212 2.432,5.22 1.542,7.952 -0.891,2.74 -3.13,4.829 -5.918,5.528 0,0 -22.562,5.945 -31.404,7.89 -8.849,1.945 -9.281,9.37 -7.692,12.445 14.527,28.144 39.698,50.801 72.197,61.362 48.519,15.766 99.683,0.15 131.593,-35.637 z"
           id="path8725-5-6-3-4-9-0-3-1-0-8-7-2-3-9"
           style="fill:#2a49ec;fill-opacity:1" />
        <path
           class="st0"
           d="M 96.772,362.484 C 76.69,390.127 69.636,423.25 74.43,454.558 c 0.527,3.424 5.233,9.178 13.527,5.554 8.308,-3.63 30.054,-12.088 30.054,-12.088 2.672,-1.062 5.698,-0.692 8.041,1 2.329,1.692 3.623,4.466 3.418,7.335 0,0 -1.308,23.294 -2.199,32.315 -0.883,9.006 6.048,11.712 9.466,11.15 31.252,-5.116 60.581,-22.054 80.662,-49.704 29.993,-41.266 30.944,-94.758 6.781,-136.155 -46.848,-10.192 -97.422,7.239 -127.408,48.519 z"
           id="path8727-3-5-0-26-9-2-8-2-3-6-94-1-8-2"
           style="fill:#2a49ec;fill-opacity:1" />
        <path
           class="st0"
           d="m 287.824,313.964 c -24.165,41.397 -23.212,94.888 6.78,136.155 20.082,27.65 49.41,44.588 80.663,49.704 3.418,0.562 10.349,-2.144 9.466,-11.15 -0.89,-9.021 -2.205,-32.315 -2.205,-32.315 -0.198,-2.869 1.102,-5.643 3.431,-7.335 2.322,-1.692 5.363,-2.062 8.034,-1 0,0 21.746,8.458 30.047,12.088 8.294,3.623 13.007,-2.13 13.534,-5.554 4.787,-31.308 -2.254,-64.43 -22.342,-92.074 -29.986,-41.279 -80.56,-58.717 -127.408,-48.519 z"
           id="path8729-3-8-1-7-6-4-3-8-3-4-1-2-0-0"
           style="fill:#2a49ec;fill-opacity:1" />
        <path
           class="st0"
           d="m 503.6,215.254 c -8.849,-1.945 -31.41,-7.89 -31.41,-7.89 -2.795,-0.706 -5.027,-2.788 -5.918,-5.528 -0.89,-2.732 -0.308,-5.74 1.534,-7.952 0,0 14.76,-18.068 20.78,-24.842 6.014,-6.766 1.993,-13.034 -1.096,-14.589 -28.301,-14.232 -61.978,-17.76 -94.485,-7.205 -48.519,15.767 -80.731,58.472 -85.512,106.176 31.91,35.787 83.067,51.403 131.593,35.636 32.492,-10.561 57.67,-33.218 72.191,-61.362 1.59,-3.074 1.172,-10.499 -7.677,-12.444 z"
           id="path8731-7-2-49-14-0-2-8-3-1-7-4-1-0-6"
           style="fill:#2a49ec;fill-opacity:1" />
      </g>
      <g
         id="g8733-3-8-8-8-6-3-1-9-8-9-0-4-7-6"
         transform="matrix(0.02343754,0,0,0.02343754,41.305574,59.142608)"
         style="display:inline;fill:#2a49ec;fill-opacity:1">
        <path
           class="st0"
           d="m 330.555,101.873 c 0,-34.164 -13.767,-65.108 -36.047,-87.622 -2.432,-2.465 -9.63,-4.349 -14.212,3.466 -4.589,7.808 -17.205,27.431 -17.205,27.431 -1.534,2.438 -4.219,3.918 -7.089,3.918 -2.883,0 -5.555,-1.48 -7.089,-3.918 0,0 -12.623,-19.623 -17.205,-27.431 -4.582,-7.815 -11.781,-5.931 -14.219,-3.466 -22.274,22.514 -36.04,53.458 -36.04,87.622 0,51.02 30.663,94.847 74.553,114.142 43.89,-19.295 74.553,-63.123 74.553,-114.142 z"
           id="path8723-8-6-51-3-8-5-2-69-3-6-4-7-7-8"
           style="fill:#2a49ec;fill-opacity:1" />
        <path
           class="st0"
           d="m 204.51,253.425 c -4.78,-47.705 -36.998,-90.409 -85.518,-106.176 -32.492,-10.554 -66.177,-7.027 -94.47,7.205 -3.096,1.555 -7.117,7.822 -1.096,14.589 6.007,6.774 20.766,24.842 20.766,24.842 1.849,2.212 2.432,5.22 1.542,7.952 -0.891,2.74 -3.13,4.829 -5.918,5.528 0,0 -22.562,5.945 -31.404,7.89 -8.849,1.945 -9.281,9.37 -7.692,12.445 14.527,28.144 39.698,50.801 72.197,61.362 48.519,15.766 99.683,0.15 131.593,-35.637 z"
           id="path8725-5-6-3-4-9-0-3-7-5-0-0-8-3-5"
           style="fill:#2a49ec;fill-opacity:1" />
        <path
           class="st0"
           d="M 96.772,362.484 C 76.69,390.127 69.636,423.25 74.43,454.558 c 0.527,3.424 5.233,9.178 13.527,5.554 8.308,-3.63 30.054,-12.088 30.054,-12.088 2.672,-1.062 5.698,-0.692 8.041,1 2.329,1.692 3.623,4.466 3.418,7.335 0,0 -1.308,23.294 -2.199,32.315 -0.883,9.006 6.048,11.712 9.466,11.15 31.252,-5.116 60.581,-22.054 80.662,-49.704 29.993,-41.266 30.944,-94.758 6.781,-136.155 -46.848,-10.192 -97.422,7.239 -127.408,48.519 z"
           id="path8727-3-5-0-26-9-2-8-4-2-4-1-5-9-9"
           style="fill:#2a49ec;fill-opacity:1" />
        <path
           class="st0"
           d="m 287.824,313.964 c -24.165,41.397 -23.212,94.888 6.78,136.155 20.082,27.65 49.41,44.588 80.663,49.704 3.418,0.562 10.349,-2.144 9.466,-11.15 -0.89,-9.021 -2.205,-32.315 -2.205,-32.315 -0.198,-2.869 1.102,-5.643 3.431,-7.335 2.322,-1.692 5.363,-2.062 8.034,-1 0,0 21.746,8.458 30.047,12.088 8.294,3.623 13.007,-2.13 13.534,-5.554 4.787,-31.308 -2.254,-64.43 -22.342,-92.074 -29.986,-41.279 -80.56,-58.717 -127.408,-48.519 z"
           id="path8729-3-8-1-7-6-4-3-2-6-8-4-2-0-1"
           style="fill:#2a49ec;fill-opacity:1" />
        <path
           class="st0"
           d="m 503.6,215.254 c -8.849,-1.945 -31.41,-7.89 -31.41,-7.89 -2.795,-0.706 -5.027,-2.788 -5.918,-5.528 -0.89,-2.732 -0.308,-5.74 1.534,-7.952 0,0 14.76,-18.068 20.78,-24.842 6.014,-6.766 1.993,-13.034 -1.096,-14.589 -28.301,-14.232 -61.978,-17.76 -94.485,-7.205 -48.519,15.767 -80.731,58.472 -85.512,106.176 31.91,35.787 83.067,51.403 131.593,35.636 32.492,-10.561 57.67,-33.218 72.191,-61.362 1.59,-3.074 1.172,-10.499 -7.677,-12.444 z"
           id="path8731-7-2-49-14-0-2-8-2-3-7-8-0-6-8"
           style="fill:#2a49ec;fill-opacity:1" />
      </g>
    </g>
    <g
       id="g2900-6-19-3-7-7-2"
       style="display:inline"
       transform="matrix(0.8490566,0,0,0.8490566,33.343,17.531395)">
      <g
         id="g52262-2-9-0-0-1-1"
         transform="matrix(0.98398321,0,0,0.98398321,-77.330939,28.78169)"
         style="display:inline">
        <g
           id="g52161-6-7-2-5-2-76"
           transform="translate(2.80633,13.657473)">
          <circle
             cx="128.43347"
             cy="19.267973"
             r="3.3333101"
             id="circle4-8-5-2-2-4-2"
             style="fill:#cccc00;fill-opacity:1;stroke-width:0.0520829" />
          <path
             d="m 140.66464,18.36173 c -1.37811,-2.131235 -3.16612,-3.941639 -5.17027,-5.235901 -2.21718,-1.433324 -4.66508,-2.191131 -7.0786,-2.191131 -2.21457,0 -4.39216,0.632808 -6.47235,1.880716 -2.12134,1.272387 -4.0432,3.131229 -5.71246,5.524441 a 1.6624884,1.6624884 0 0 0 -0.0333,1.851029 c 1.37551,2.152589 3.14581,3.965597 5.11871,5.24215 2.22134,1.439053 4.61195,2.168214 7.09943,2.168214 2.4328,0 4.8859,-0.751556 7.0937,-2.1729 2.00311,-1.290096 3.78748,-3.107271 5.16038,-5.256214 a 1.6770716,1.6770716 0 0 0 -0.005,-1.810404 z m -12.23116,5.906209 a 4.9999651,4.9999651 0 1 1 4.99996,-4.999965 5.0056942,5.0056942 0 0 1 -4.99996,4.999965 z"
             id="path6-2-3-1-2-0-6"
             style="fill:#cccc00;fill-opacity:1;stroke-width:0.0520829" />
          <path
             id="circle4-7-3-7-76-3-7-1"
             style="display:inline;fill:#929208;fill-opacity:1;stroke-width:0.052083"
             d="m 128.43364,15.935 a 3.33331,3.33331 0 0 0 -3.33364,3.333128 3.33331,3.33331 0 0 0 3.33364,3.333131 3.33331,3.33331 0 0 0 1.32292,-0.276469 3.33331,3.33331 0 0 1 -2.01022,-3.056662 3.33331,3.33331 0 0 1 2.0128,-3.058726 3.33331,3.33331 0 0 0 -1.3255,-0.274402 z" />
          <path
             id="path6-9-0-8-0-8-5-2"
             style="display:inline;fill:#929208;fill-opacity:1;stroke-width:0.052083"
             d="m 128.4161,10.935 c -2.21457,0 -4.39176,0.633113 -6.47195,1.881021 -2.12134,1.272389 -4.04357,3.130999 -5.71283,5.524211 a 1.6624884,1.6624884 0 0 0 -0.0331,1.851049 c 1.37551,2.152589 3.14566,3.965506 5.11856,5.242057 2.22134,1.439056 4.61234,2.168345 7.09982,2.168345 0.4346,0 0.86941,-0.02433 1.3038,-0.07183 -2.00611,-0.215829 -3.9384,-0.918187 -5.75727,-2.096514 -1.9729,-1.276551 -3.74356,-3.089468 -5.11907,-5.242057 a 1.6624884,1.6624884 0 0 1 0.0336,-1.851049 c 1.66926,-2.393212 3.59097,-4.251822 5.71231,-5.524211 1.66601,-0.999435 3.39481,-1.60328 5.15472,-1.804541 -0.44288,-0.05037 -0.88638,-0.07648 -1.3286,-0.07648 z m 2.10427,3.365169 a 4.9999651,4.9999651 0 0 0 -0.70745,0.203605 4.9999651,4.9999651 0 0 1 3.62097,4.764566 5.0056941,5.0056941 0 0 1 -3.59565,4.789374 4.9999651,4.9999651 0 0 0 1.24178,0.210839 5.0056941,5.0056941 0 0 0 5.00022,-5.000213 4.9999651,4.9999651 0 0 0 -5.55987,-4.968171 z" />
        </g>
        <g
           id="g52161-2-8-6-4-6-6-032"
           transform="translate(17.432111,2.9961017)"
           style="display:inline">
          <circle
             cx="128.43347"
             cy="19.267973"
             r="3.3333101"
             id="circle4-9-5-8-6-9-2-9"
             style="fill:#cccc00;fill-opacity:1;stroke-width:0.0520829" />
          <path
             d="m 140.66464,18.36173 c -1.37811,-2.131235 -3.16612,-3.941639 -5.17027,-5.235901 -2.21718,-1.433324 -4.66508,-2.191131 -7.0786,-2.191131 -2.21457,0 -4.39216,0.632808 -6.47235,1.880716 -2.12134,1.272387 -4.0432,3.131229 -5.71246,5.524441 a 1.6624884,1.6624884 0 0 0 -0.0333,1.851029 c 1.37551,2.152589 3.14581,3.965597 5.11871,5.24215 2.22134,1.439053 4.61195,2.168214 7.09943,2.168214 2.4328,0 4.8859,-0.751556 7.0937,-2.1729 2.00311,-1.290096 3.78748,-3.107271 5.16038,-5.256214 a 1.6770716,1.6770716 0 0 0 -0.005,-1.810404 z m -12.23116,5.906209 a 4.9999651,4.9999651 0 1 1 4.99996,-4.999965 5.0056942,5.0056942 0 0 1 -4.99996,4.999965 z"
             id="path6-5-8-3-6-7-0-9"
             style="fill:#cccc00;fill-opacity:1;stroke-width:0.0520829" />
          <path
             id="circle4-7-8-2-3-31-1-7-6"
             style="display:inline;fill:#929208;fill-opacity:1;stroke-width:0.052083"
             d="m 128.43364,15.935 a 3.33331,3.33331 0 0 0 -3.33364,3.333128 3.33331,3.33331 0 0 0 3.33364,3.333131 3.33331,3.33331 0 0 0 1.32292,-0.276469 3.33331,3.33331 0 0 1 -2.01022,-3.056662 3.33331,3.33331 0 0 1 2.0128,-3.058726 3.33331,3.33331 0 0 0 -1.3255,-0.274402 z" />
          <path
             id="path6-9-2-73-5-6-0-9-0"
             style="display:inline;fill:#929208;fill-opacity:1;stroke-width:0.052083"
             d="m 128.4161,10.935 c -2.21457,0 -4.39176,0.633113 -6.47195,1.881021 -2.12134,1.272389 -4.04357,3.130999 -5.71283,5.524211 a 1.6624884,1.6624884 0 0 0 -0.0331,1.851049 c 1.37551,2.152589 3.14566,3.965506 5.11856,5.242057 2.22134,1.439056 4.61234,2.168345 7.09982,2.168345 0.4346,0 0.86941,-0.02433 1.3038,-0.07183 -2.00611,-0.215829 -3.9384,-0.918187 -5.75727,-2.096514 -1.9729,-1.276551 -3.74356,-3.089468 -5.11907,-5.242057 a 1.6624884,1.6624884 0 0 1 0.0336,-1.851049 c 1.66926,-2.393212 3.59097,-4.251822 5.71231,-5.524211 1.66601,-0.999435 3.39481,-1.60328 5.15472,-1.804541 -0.44288,-0.05037 -0.88638,-0.07648 -1.3286,-0.07648 z m 2.10427,3.365169 a 4.9999651,4.9999651 0 0 0 -0.70745,0.203605 4.9999651,4.9999651 0 0 1 3.62097,4.764566 5.0056941,5.0056941 0 0 1 -3.59565,4.789374 4.9999651,4.9999651 0 0 0 1.24178,0.210839 5.0056941,5.0056941 0 0 0 5.00022,-5.000213 4.9999651,4.9999651 0 0 0 -5.55987,-4.968171 z" />
        </g>
        <g
           id="g52161-2-2-3-6-17-7-2-56"
           transform="translate(31.668923,13.657602)"
           style="display:inline">
          <circle
             cx="128.43347"
             cy="19.267973"
             r="3.3333101"
             id="circle4-9-4-2-93-86-1-2-8"
             style="fill:#cccc00;fill-opacity:1;stroke-width:0.0520829" />
          <path
             d="m 140.66464,18.36173 c -1.37811,-2.131235 -3.16612,-3.941639 -5.17027,-5.235901 -2.21718,-1.433324 -4.66508,-2.191131 -7.0786,-2.191131 -2.21457,0 -4.39216,0.632808 -6.47235,1.880716 -2.12134,1.272387 -4.0432,3.131229 -5.71246,5.524441 a 1.6624884,1.6624884 0 0 0 -0.0333,1.851029 c 1.37551,2.152589 3.14581,3.965597 5.11871,5.24215 2.22134,1.439053 4.61195,2.168214 7.09943,2.168214 2.4328,0 4.8859,-0.751556 7.0937,-2.1729 2.00311,-1.290096 3.78748,-3.107271 5.16038,-5.256214 a 1.6770716,1.6770716 0 0 0 -0.005,-1.810404 z m -12.23116,5.906209 a 4.9999651,4.9999651 0 1 1 4.99996,-4.999965 5.0056942,5.0056942 0 0 1 -4.99996,4.999965 z"
             id="path6-5-6-6-6-4-3-8-7"
             style="fill:#cccc00;fill-opacity:1;stroke-width:0.0520829" />
          <path
             id="circle4-7-8-1-4-6-8-9-8-2"
             style="display:inline;fill:#929208;fill-opacity:1;stroke-width:0.052083"
             d="m 128.43364,15.935 a 3.33331,3.33331 0 0 0 -3.33364,3.333128 3.33331,3.33331 0 0 0 3.33364,3.333131 3.33331,3.33331 0 0 0 1.32292,-0.276469 3.33331,3.33331 0 0 1 -2.01022,-3.056662 3.33331,3.33331 0 0 1 2.0128,-3.058726 3.33331,3.33331 0 0 0 -1.3255,-0.274402 z" />
          <path
             id="path6-9-2-9-9-8-6-5-2-4"
             style="display:inline;fill:#929208;fill-opacity:1;stroke-width:0.052083"
             d="m 128.4161,10.935 c -2.21457,0 -4.39176,0.633113 -6.47195,1.881021 -2.12134,1.272389 -4.04357,3.130999 -5.71283,5.524211 a 1.6624884,1.6624884 0 0 0 -0.0331,1.851049 c 1.37551,2.152589 3.14566,3.965506 5.11856,5.242057 2.22134,1.439056 4.61234,2.168345 7.09982,2.168345 0.4346,0 0.86941,-0.02433 1.3038,-0.07183 -2.00611,-0.215829 -3.9384,-0.918187 -5.75727,-2.096514 -1.9729,-1.276551 -3.74356,-3.089468 -5.11907,-5.242057 a 1.6624884,1.6624884 0 0 1 0.0336,-1.851049 c 1.66926,-2.393212 3.59097,-4.251822 5.71231,-5.524211 1.66601,-0.999435 3.39481,-1.60328 5.15472,-1.804541 -0.44288,-0.05037 -0.88638,-0.07648 -1.3286,-0.07648 z m 2.10427,3.365169 a 4.9999651,4.9999651 0 0 0 -0.70745,0.203605 4.9999651,4.9999651 0 0 1 3.62097,4.764566 5.0056941,5.0056941 0 0 1 -3.59565,4.789374 4.9999651,4.9999651 0 0 0 1.24178,0.210839 5.0056941,5.0056941 0 0 0 5.00022,-5.000213 4.9999651,4.9999651 0 0 0 -5.55987,-4.968171 z" />
        </g>
      </g>
      <g
         id="g8733-3-8-8-8-6-3-1-09-6-63-2-3-3"
         transform="matrix(0.02343754,0,0,0.02343754,69.705881,59.142735)"
         style="display:inline;fill:#2a49ec;fill-opacity:1">
        <path
           class="st0"
           d="m 330.555,101.873 c 0,-34.164 -13.767,-65.108 -36.047,-87.622 -2.432,-2.465 -9.63,-4.349 -14.212,3.466 -4.589,7.808 -17.205,27.431 -17.205,27.431 -1.534,2.438 -4.219,3.918 -7.089,3.918 -2.883,0 -5.555,-1.48 -7.089,-3.918 0,0 -12.623,-19.623 -17.205,-27.431 -4.582,-7.815 -11.781,-5.931 -14.219,-3.466 -22.274,22.514 -36.04,53.458 -36.04,87.622 0,51.02 30.663,94.847 74.553,114.142 43.89,-19.295 74.553,-63.123 74.553,-114.142 z"
           id="path8723-8-6-51-3-8-5-2-691-2-09-5-6-8"
           style="fill:#2a49ec;fill-opacity:1" />
        <path
           class="st0"
           d="m 204.51,253.425 c -4.78,-47.705 -36.998,-90.409 -85.518,-106.176 -32.492,-10.554 -66.177,-7.027 -94.47,7.205 -3.096,1.555 -7.117,7.822 -1.096,14.589 6.007,6.774 20.766,24.842 20.766,24.842 1.849,2.212 2.432,5.22 1.542,7.952 -0.891,2.74 -3.13,4.829 -5.918,5.528 0,0 -22.562,5.945 -31.404,7.89 -8.849,1.945 -9.281,9.37 -7.692,12.445 14.527,28.144 39.698,50.801 72.197,61.362 48.519,15.766 99.683,0.15 131.593,-35.637 z"
           id="path8725-5-6-3-4-9-0-3-5-8-6-6-3-8"
           style="fill:#2a49ec;fill-opacity:1" />
        <path
           class="st0"
           d="M 96.772,362.484 C 76.69,390.127 69.636,423.25 74.43,454.558 c 0.527,3.424 5.233,9.178 13.527,5.554 8.308,-3.63 30.054,-12.088 30.054,-12.088 2.672,-1.062 5.698,-0.692 8.041,1 2.329,1.692 3.623,4.466 3.418,7.335 0,0 -1.308,23.294 -2.199,32.315 -0.883,9.006 6.048,11.712 9.466,11.15 31.252,-5.116 60.581,-22.054 80.662,-49.704 29.993,-41.266 30.944,-94.758 6.781,-136.155 -46.848,-10.192 -97.422,7.239 -127.408,48.519 z"
           id="path8727-3-5-0-26-9-2-8-47-15-88-4-3-6"
           style="fill:#2a49ec;fill-opacity:1" />
        <path
           class="st0"
           d="m 287.824,313.964 c -24.165,41.397 -23.212,94.888 6.78,136.155 20.082,27.65 49.41,44.588 80.663,49.704 3.418,0.562 10.349,-2.144 9.466,-11.15 -0.89,-9.021 -2.205,-32.315 -2.205,-32.315 -0.198,-2.869 1.102,-5.643 3.431,-7.335 2.322,-1.692 5.363,-2.062 8.034,-1 0,0 21.746,8.458 30.047,12.088 8.294,3.623 13.007,-2.13 13.534,-5.554 4.787,-31.308 -2.254,-64.43 -22.342,-92.074 -29.986,-41.279 -80.56,-58.717 -127.408,-48.519 z"
           id="path8729-3-8-1-7-6-4-3-0-6-7-0-5-5"
           style="fill:#2a49ec;fill-opacity:1" />
        <path
           class="st0"
           d="m 503.6,215.254 c -8.849,-1.945 -31.41,-7.89 -31.41,-7.89 -2.795,-0.706 -5.027,-2.788 -5.918,-5.528 -0.89,-2.732 -0.308,-5.74 1.534,-7.952 0,0 14.76,-18.068 20.78,-24.842 6.014,-6.766 1.993,-13.034 -1.096,-14.589 -28.301,-14.232 -61.978,-17.76 -94.485,-7.205 -48.519,15.767 -80.731,58.472 -85.512,106.176 31.91,35.787 83.067,51.403 131.593,35.636 32.492,-10.561 57.67,-33.218 72.191,-61.362 1.59,-3.074 1.172,-10.499 -7.677,-12.444 z"
           id="path8731-7-2-49-14-0-2-8-7-3-24-9-1-0"
           style="fill:#2a49ec;fill-opacity:1" />
      </g>
      <g
         id="g8733-3-8-8-8-6-3-1-1-34-29-7-6-2-8"
         transform="matrix(0.02343754,0,0,0.02343754,55.697097,48.651998)"
         style="display:inline;fill:#2a49ec;fill-opacity:1">
        <path
           class="st0"
           d="m 330.555,101.873 c 0,-34.164 -13.767,-65.108 -36.047,-87.622 -2.432,-2.465 -9.63,-4.349 -14.212,3.466 -4.589,7.808 -17.205,27.431 -17.205,27.431 -1.534,2.438 -4.219,3.918 -7.089,3.918 -2.883,0 -5.555,-1.48 -7.089,-3.918 0,0 -12.623,-19.623 -17.205,-27.431 -4.582,-7.815 -11.781,-5.931 -14.219,-3.466 -22.274,22.514 -36.04,53.458 -36.04,87.622 0,51.02 30.663,94.847 74.553,114.142 43.89,-19.295 74.553,-63.123 74.553,-114.142 z"
           id="path8723-8-6-51-3-8-5-2-6-7-9-9-4-2-6"
           style="fill:#2a49ec;fill-opacity:1" />
        <path
           class="st0"
           d="m 204.51,253.425 c -4.78,-47.705 -36.998,-90.409 -85.518,-106.176 -32.492,-10.554 -66.177,-7.027 -94.47,7.205 -3.096,1.555 -7.117,7.822 -1.096,14.589 6.007,6.774 20.766,24.842 20.766,24.842 1.849,2.212 2.432,5.22 1.542,7.952 -0.891,2.74 -3.13,4.829 -5.918,5.528 0,0 -22.562,5.945 -31.404,7.89 -8.849,1.945 -9.281,9.37 -7.692,12.445 14.527,28.144 39.698,50.801 72.197,61.362 48.519,15.766 99.683,0.15 131.593,-35.637 z"
           id="path8725-5-6-3-4-9-0-3-1-0-8-7-2-3-6"
           style="fill:#2a49ec;fill-opacity:1" />
        <path
           class="st0"
           d="M 96.772,362.484 C 76.69,390.127 69.636,423.25 74.43,454.558 c 0.527,3.424 5.233,9.178 13.527,5.554 8.308,-3.63 30.054,-12.088 30.054,-12.088 2.672,-1.062 5.698,-0.692 8.041,1 2.329,1.692 3.623,4.466 3.418,7.335 0,0 -1.308,23.294 -2.199,32.315 -0.883,9.006 6.048,11.712 9.466,11.15 31.252,-5.116 60.581,-22.054 80.662,-49.704 29.993,-41.266 30.944,-94.758 6.781,-136.155 -46.848,-10.192 -97.422,7.239 -127.408,48.519 z"
           id="path8727-3-5-0-26-9-2-8-2-3-6-94-1-8-23"
           style="fill:#2a49ec;fill-opacity:1" />
        <path
           class="st0"
           d="m 287.824,313.964 c -24.165,41.397 -23.212,94.888 6.78,136.155 20.082,27.65 49.41,44.588 80.663,49.704 3.418,0.562 10.349,-2.144 9.466,-11.15 -0.89,-9.021 -2.205,-32.315 -2.205,-32.315 -0.198,-2.869 1.102,-5.643 3.431,-7.335 2.322,-1.692 5.363,-2.062 8.034,-1 0,0 21.746,8.458 30.047,12.088 8.294,3.623 13.007,-2.13 13.534,-5.554 4.787,-31.308 -2.254,-64.43 -22.342,-92.074 -29.986,-41.279 -80.56,-58.717 -127.408,-48.519 z"
           id="path8729-3-8-1-7-6-4-3-8-3-4-1-2-0-2"
           style="fill:#2a49ec;fill-opacity:1" />
        <path
           class="st0"
           d="m 503.6,215.254 c -8.849,-1.945 -31.41,-7.89 -31.41,-7.89 -2.795,-0.706 -5.027,-2.788 -5.918,-5.528 -0.89,-2.732 -0.308,-5.74 1.534,-7.952 0,0 14.76,-18.068 20.78,-24.842 6.014,-6.766 1.993,-13.034 -1.096,-14.589 -28.301,-14.232 -61.978,-17.76 -94.485,-7.205 -48.519,15.767 -80.731,58.472 -85.512,106.176 31.91,35.787 83.067,51.403 131.593,35.636 32.492,-10.561 57.67,-33.218 72.191,-61.362 1.59,-3.074 1.172,-10.499 -7.677,-12.444 z"
           id="path8731-7-2-49-14-0-2-8-3-1-7-4-1-0-1"
           style="fill:#2a49ec;fill-opacity:1" />
      </g>
      <g
         id="g8733-3-8-8-8-6-3-1-9-8-9-0-4-7-4"
         transform="matrix(0.02343754,0,0,0.02343754,41.305574,59.142608)"
         style="display:inline;fill:#2a49ec;fill-opacity:1">
        <path
           class="st0"
           d="m 330.555,101.873 c 0,-34.164 -13.767,-65.108 -36.047,-87.622 -2.432,-2.465 -9.63,-4.349 -14.212,3.466 -4.589,7.808 -17.205,27.431 -17.205,27.431 -1.534,2.438 -4.219,3.918 -7.089,3.918 -2.883,0 -5.555,-1.48 -7.089,-3.918 0,0 -12.623,-19.623 -17.205,-27.431 -4.582,-7.815 -11.781,-5.931 -14.219,-3.466 -22.274,22.514 -36.04,53.458 -36.04,87.622 0,51.02 30.663,94.847 74.553,114.142 43.89,-19.295 74.553,-63.123 74.553,-114.142 z"
           id="path8723-8-6-51-3-8-5-2-69-3-6-4-7-7-06"
           style="fill:#2a49ec;fill-opacity:1" />
        <path
           class="st0"
           d="m 204.51,253.425 c -4.78,-47.705 -36.998,-90.409 -85.518,-106.176 -32.492,-10.554 -66.177,-7.027 -94.47,7.205 -3.096,1.555 -7.117,7.822 -1.096,14.589 6.007,6.774 20.766,24.842 20.766,24.842 1.849,2.212 2.432,5.22 1.542,7.952 -0.891,2.74 -3.13,4.829 -5.918,5.528 0,0 -22.562,5.945 -31.404,7.89 -8.849,1.945 -9.281,9.37 -7.692,12.445 14.527,28.144 39.698,50.801 72.197,61.362 48.519,15.766 99.683,0.15 131.593,-35.637 z"
           id="path8725-5-6-3-4-9-0-3-7-5-0-0-8-3-7"
           style="fill:#2a49ec;fill-opacity:1" />
        <path
           class="st0"
           d="M 96.772,362.484 C 76.69,390.127 69.636,423.25 74.43,454.558 c 0.527,3.424 5.233,9.178 13.527,5.554 8.308,-3.63 30.054,-12.088 30.054,-12.088 2.672,-1.062 5.698,-0.692 8.041,1 2.329,1.692 3.623,4.466 3.418,7.335 0,0 -1.308,23.294 -2.199,32.315 -0.883,9.006 6.048,11.712 9.466,11.15 31.252,-5.116 60.581,-22.054 80.662,-49.704 29.993,-41.266 30.944,-94.758 6.781,-136.155 -46.848,-10.192 -97.422,7.239 -127.408,48.519 z"
           id="path8727-3-5-0-26-9-2-8-4-2-4-1-5-9-4"
           style="fill:#2a49ec;fill-opacity:1" />
        <path
           class="st0"
           d="m 287.824,313.964 c -24.165,41.397 -23.212,94.888 6.78,136.155 20.082,27.65 49.41,44.588 80.663,49.704 3.418,0.562 10.349,-2.144 9.466,-11.15 -0.89,-9.021 -2.205,-32.315 -2.205,-32.315 -0.198,-2.869 1.102,-5.643 3.431,-7.335 2.322,-1.692 5.363,-2.062 8.034,-1 0,0 21.746,8.458 30.047,12.088 8.294,3.623 13.007,-2.13 13.534,-5.554 4.787,-31.308 -2.254,-64.43 -22.342,-92.074 -29.986,-41.279 -80.56,-58.717 -127.408,-48.519 z"
           id="path8729-3-8-1-7-6-4-3-2-6-8-4-2-0-00"
           style="fill:#2a49ec;fill-opacity:1" />
        <path
           class="st0"
           d="m 503.6,215.254 c -8.849,-1.945 -31.41,-7.89 -31.41,-7.89 -2.795,-0.706 -5.027,-2.788 -5.918,-5.528 -0.89,-2.732 -0.308,-5.74 1.534,-7.952 0,0 14.76,-18.068 20.78,-24.842 6.014,-6.766 1.993,-13.034 -1.096,-14.589 -28.301,-14.232 -61.978,-17.76 -94.485,-7.205 -48.519,15.767 -80.731,58.472 -85.512,106.176 31.91,35.787 83.067,51.403 131.593,35.636 32.492,-10.561 57.67,-33.218 72.191,-61.362 1.59,-3.074 1.172,-10.499 -7.677,-12.444 z"
           id="path8731-7-2-49-14-0-2-8-2-3-7-8-0-6-6"
           style="fill:#2a49ec;fill-opacity:1" />
      </g>
    </g>
    <g
       id="g2900-6-19-3-7-7-7"
       style="display:inline"
       transform="translate(39.502309,-16.578038)">
      <g
         id="g52262-2-9-0-0-1-03"
         transform="matrix(0.98398321,0,0,0.98398321,-77.330939,28.78169)"
         style="display:inline">
        <g
           id="g52161-6-7-2-5-2-7"
           transform="translate(2.80633,13.657473)">
          <circle
             cx="128.43347"
             cy="19.267973"
             r="3.3333101"
             id="circle4-8-5-2-2-4-8"
             style="fill:#cccc00;fill-opacity:1;stroke-width:0.0520829" />
          <path
             d="m 140.66464,18.36173 c -1.37811,-2.131235 -3.16612,-3.941639 -5.17027,-5.235901 -2.21718,-1.433324 -4.66508,-2.191131 -7.0786,-2.191131 -2.21457,0 -4.39216,0.632808 -6.47235,1.880716 -2.12134,1.272387 -4.0432,3.131229 -5.71246,5.524441 a 1.6624884,1.6624884 0 0 0 -0.0333,1.851029 c 1.37551,2.152589 3.14581,3.965597 5.11871,5.24215 2.22134,1.439053 4.61195,2.168214 7.09943,2.168214 2.4328,0 4.8859,-0.751556 7.0937,-2.1729 2.00311,-1.290096 3.78748,-3.107271 5.16038,-5.256214 a 1.6770716,1.6770716 0 0 0 -0.005,-1.810404 z m -12.23116,5.906209 a 4.9999651,4.9999651 0 1 1 4.99996,-4.999965 5.0056942,5.0056942 0 0 1 -4.99996,4.999965 z"
             id="path6-2-3-1-2-0-8"
             style="fill:#cccc00;fill-opacity:1;stroke-width:0.0520829" />
          <path
             id="circle4-7-3-7-76-3-7-4"
             style="display:inline;fill:#929208;fill-opacity:1;stroke-width:0.052083"
             d="m 128.43364,15.935 a 3.33331,3.33331 0 0 0 -3.33364,3.333128 3.33331,3.33331 0 0 0 3.33364,3.333131 3.33331,3.33331 0 0 0 1.32292,-0.276469 3.33331,3.33331 0 0 1 -2.01022,-3.056662 3.33331,3.33331 0 0 1 2.0128,-3.058726 3.33331,3.33331 0 0 0 -1.3255,-0.274402 z" />
          <path
             id="path6-9-0-8-0-8-5-1"
             style="display:inline;fill:#929208;fill-opacity:1;stroke-width:0.052083"
             d="m 128.4161,10.935 c -2.21457,0 -4.39176,0.633113 -6.47195,1.881021 -2.12134,1.272389 -4.04357,3.130999 -5.71283,5.524211 a 1.6624884,1.6624884 0 0 0 -0.0331,1.851049 c 1.37551,2.152589 3.14566,3.965506 5.11856,5.242057 2.22134,1.439056 4.61234,2.168345 7.09982,2.168345 0.4346,0 0.86941,-0.02433 1.3038,-0.07183 -2.00611,-0.215829 -3.9384,-0.918187 -5.75727,-2.096514 -1.9729,-1.276551 -3.74356,-3.089468 -5.11907,-5.242057 a 1.6624884,1.6624884 0 0 1 0.0336,-1.851049 c 1.66926,-2.393212 3.59097,-4.251822 5.71231,-5.524211 1.66601,-0.999435 3.39481,-1.60328 5.15472,-1.804541 -0.44288,-0.05037 -0.88638,-0.07648 -1.3286,-0.07648 z m 2.10427,3.365169 a 4.9999651,4.9999651 0 0 0 -0.70745,0.203605 4.9999651,4.9999651 0 0 1 3.62097,4.764566 5.0056941,5.0056941 0 0 1 -3.59565,4.789374 4.9999651,4.9999651 0 0 0 1.24178,0.210839 5.0056941,5.0056941 0 0 0 5.00022,-5.000213 4.9999651,4.9999651 0 0 0 -5.55987,-4.968171 z" />
        </g>
        <g
           id="g52161-2-8-6-4-6-6-03"
           transform="translate(17.432111,2.9961017)"
           style="display:inline">
          <circle
             cx="128.43347"
             cy="19.267973"
             r="3.3333101"
             id="circle4-9-5-8-6-9-2-5"
             style="fill:#cccc00;fill-opacity:1;stroke-width:0.0520829" />
          <path
             d="m 140.66464,18.36173 c -1.37811,-2.131235 -3.16612,-3.941639 -5.17027,-5.235901 -2.21718,-1.433324 -4.66508,-2.191131 -7.0786,-2.191131 -2.21457,0 -4.39216,0.632808 -6.47235,1.880716 -2.12134,1.272387 -4.0432,3.131229 -5.71246,5.524441 a 1.6624884,1.6624884 0 0 0 -0.0333,1.851029 c 1.37551,2.152589 3.14581,3.965597 5.11871,5.24215 2.22134,1.439053 4.61195,2.168214 7.09943,2.168214 2.4328,0 4.8859,-0.751556 7.0937,-2.1729 2.00311,-1.290096 3.78748,-3.107271 5.16038,-5.256214 a 1.6770716,1.6770716 0 0 0 -0.005,-1.810404 z m -12.23116,5.906209 a 4.9999651,4.9999651 0 1 1 4.99996,-4.999965 5.0056942,5.0056942 0 0 1 -4.99996,4.999965 z"
             id="path6-5-8-3-6-7-0-8"
             style="fill:#cccc00;fill-opacity:1;stroke-width:0.0520829" />
          <path
             id="circle4-7-8-2-3-31-1-7-5"
             style="display:inline;fill:#929208;fill-opacity:1;stroke-width:0.052083"
             d="m 128.43364,15.935 a 3.33331,3.33331 0 0 0 -3.33364,3.333128 3.33331,3.33331 0 0 0 3.33364,3.333131 3.33331,3.33331 0 0 0 1.32292,-0.276469 3.33331,3.33331 0 0 1 -2.01022,-3.056662 3.33331,3.33331 0 0 1 2.0128,-3.058726 3.33331,3.33331 0 0 0 -1.3255,-0.274402 z" />
          <path
             id="path6-9-2-73-5-6-0-9-9"
             style="display:inline;fill:#929208;fill-opacity:1;stroke-width:0.052083"
             d="m 128.4161,10.935 c -2.21457,0 -4.39176,0.633113 -6.47195,1.881021 -2.12134,1.272389 -4.04357,3.130999 -5.71283,5.524211 a 1.6624884,1.6624884 0 0 0 -0.0331,1.851049 c 1.37551,2.152589 3.14566,3.965506 5.11856,5.242057 2.22134,1.439056 4.61234,2.168345 7.09982,2.168345 0.4346,0 0.86941,-0.02433 1.3038,-0.07183 -2.00611,-0.215829 -3.9384,-0.918187 -5.75727,-2.096514 -1.9729,-1.276551 -3.74356,-3.089468 -5.11907,-5.242057 a 1.6624884,1.6624884 0 0 1 0.0336,-1.851049 c 1.66926,-2.393212 3.59097,-4.251822 5.71231,-5.524211 1.66601,-0.999435 3.39481,-1.60328 5.15472,-1.804541 -0.44288,-0.05037 -0.88638,-0.07648 -1.3286,-0.07648 z m 2.10427,3.365169 a 4.9999651,4.9999651 0 0 0 -0.70745,0.203605 4.9999651,4.9999651 0 0 1 3.62097,4.764566 5.0056941,5.0056941 0 0 1 -3.59565,4.789374 4.9999651,4.9999651 0 0 0 1.24178,0.210839 5.0056941,5.0056941 0 0 0 5.00022,-5.000213 4.9999651,4.9999651 0 0 0 -5.55987,-4.968171 z" />
        </g>
        <g
           id="g52161-2-2-3-6-17-7-2-6"
           transform="translate(31.668923,13.657602)"
           style="display:inline">
          <circle
             cx="128.43347"
             cy="19.267973"
             r="3.3333101"
             id="circle4-9-4-2-93-86-1-2-45"
             style="fill:#cccc00;fill-opacity:1;stroke-width:0.0520829" />
          <path
             d="m 140.66464,18.36173 c -1.37811,-2.131235 -3.16612,-3.941639 -5.17027,-5.235901 -2.21718,-1.433324 -4.66508,-2.191131 -7.0786,-2.191131 -2.21457,0 -4.39216,0.632808 -6.47235,1.880716 -2.12134,1.272387 -4.0432,3.131229 -5.71246,5.524441 a 1.6624884,1.6624884 0 0 0 -0.0333,1.851029 c 1.37551,2.152589 3.14581,3.965597 5.11871,5.24215 2.22134,1.439053 4.61195,2.168214 7.09943,2.168214 2.4328,0 4.8859,-0.751556 7.0937,-2.1729 2.00311,-1.290096 3.78748,-3.107271 5.16038,-5.256214 a 1.6770716,1.6770716 0 0 0 -0.005,-1.810404 z m -12.23116,5.906209 a 4.9999651,4.9999651 0 1 1 4.99996,-4.999965 5.0056942,5.0056942 0 0 1 -4.99996,4.999965 z"
             id="path6-5-6-6-6-4-3-8-8"
             style="fill:#cccc00;fill-opacity:1;stroke-width:0.0520829" />
          <path
             id="circle4-7-8-1-4-6-8-9-8-17"
             style="display:inline;fill:#929208;fill-opacity:1;stroke-width:0.052083"
             d="m 128.43364,15.935 a 3.33331,3.33331 0 0 0 -3.33364,3.333128 3.33331,3.33331 0 0 0 3.33364,3.333131 3.33331,3.33331 0 0 0 1.32292,-0.276469 3.33331,3.33331 0 0 1 -2.01022,-3.056662 3.33331,3.33331 0 0 1 2.0128,-3.058726 3.33331,3.33331 0 0 0 -1.3255,-0.274402 z" />
          <path
             id="path6-9-2-9-9-8-6-5-2-0"
             style="display:inline;fill:#929208;fill-opacity:1;stroke-width:0.052083"
             d="m 128.4161,10.935 c -2.21457,0 -4.39176,0.633113 -6.47195,1.881021 -2.12134,1.272389 -4.04357,3.130999 -5.71283,5.524211 a 1.6624884,1.6624884 0 0 0 -0.0331,1.851049 c 1.37551,2.152589 3.14566,3.965506 5.11856,5.242057 2.22134,1.439056 4.61234,2.168345 7.09982,2.168345 0.4346,0 0.86941,-0.02433 1.3038,-0.07183 -2.00611,-0.215829 -3.9384,-0.918187 -5.75727,-2.096514 -1.9729,-1.276551 -3.74356,-3.089468 -5.11907,-5.242057 a 1.6624884,1.6624884 0 0 1 0.0336,-1.851049 c 1.66926,-2.393212 3.59097,-4.251822 5.71231,-5.524211 1.66601,-0.999435 3.39481,-1.60328 5.15472,-1.804541 -0.44288,-0.05037 -0.88638,-0.07648 -1.3286,-0.07648 z m 2.10427,3.365169 a 4.9999651,4.9999651 0 0 0 -0.70745,0.203605 4.9999651,4.9999651 0 0 1 3.62097,4.764566 5.0056941,5.0056941 0 0 1 -3.59565,4.789374 4.9999651,4.9999651 0 0 0 1.24178,0.210839 5.0056941,5.0056941 0 0 0 5.00022,-5.000213 4.9999651,4.9999651 0 0 0 -5.55987,-4.968171 z" />
        </g>
      </g>
      <g
         id="g8733-3-8-8-8-6-3-1-09-6-63-2-3-2"
         transform="matrix(0.02343754,0,0,0.02343754,69.705881,59.142735)"
         style="display:inline;fill:#2a49ec;fill-opacity:1">
        <path
           class="st0"
           d="m 330.555,101.873 c 0,-34.164 -13.767,-65.108 -36.047,-87.622 -2.432,-2.465 -9.63,-4.349 -14.212,3.466 -4.589,7.808 -17.205,27.431 -17.205,27.431 -1.534,2.438 -4.219,3.918 -7.089,3.918 -2.883,0 -5.555,-1.48 -7.089,-3.918 0,0 -12.623,-19.623 -17.205,-27.431 -4.582,-7.815 -11.781,-5.931 -14.219,-3.466 -22.274,22.514 -36.04,53.458 -36.04,87.622 0,51.02 30.663,94.847 74.553,114.142 43.89,-19.295 74.553,-63.123 74.553,-114.142 z"
           id="path8723-8-6-51-3-8-5-2-691-2-09-5-6-95"
           style="fill:#2a49ec;fill-opacity:1" />
        <path
           class="st0"
           d="m 204.51,253.425 c -4.78,-47.705 -36.998,-90.409 -85.518,-106.176 -32.492,-10.554 -66.177,-7.027 -94.47,7.205 -3.096,1.555 -7.117,7.822 -1.096,14.589 6.007,6.774 20.766,24.842 20.766,24.842 1.849,2.212 2.432,5.22 1.542,7.952 -0.891,2.74 -3.13,4.829 -5.918,5.528 0,0 -22.562,5.945 -31.404,7.89 -8.849,1.945 -9.281,9.37 -7.692,12.445 14.527,28.144 39.698,50.801 72.197,61.362 48.519,15.766 99.683,0.15 131.593,-35.637 z"
           id="path8725-5-6-3-4-9-0-3-5-8-6-6-3-5"
           style="fill:#2a49ec;fill-opacity:1" />
        <path
           class="st0"
           d="M 96.772,362.484 C 76.69,390.127 69.636,423.25 74.43,454.558 c 0.527,3.424 5.233,9.178 13.527,5.554 8.308,-3.63 30.054,-12.088 30.054,-12.088 2.672,-1.062 5.698,-0.692 8.041,1 2.329,1.692 3.623,4.466 3.418,7.335 0,0 -1.308,23.294 -2.199,32.315 -0.883,9.006 6.048,11.712 9.466,11.15 31.252,-5.116 60.581,-22.054 80.662,-49.704 29.993,-41.266 30.944,-94.758 6.781,-136.155 -46.848,-10.192 -97.422,7.239 -127.408,48.519 z"
           id="path8727-3-5-0-26-9-2-8-47-15-88-4-3-1"
           style="fill:#2a49ec;fill-opacity:1" />
        <path
           class="st0"
           d="m 287.824,313.964 c -24.165,41.397 -23.212,94.888 6.78,136.155 20.082,27.65 49.41,44.588 80.663,49.704 3.418,0.562 10.349,-2.144 9.466,-11.15 -0.89,-9.021 -2.205,-32.315 -2.205,-32.315 -0.198,-2.869 1.102,-5.643 3.431,-7.335 2.322,-1.692 5.363,-2.062 8.034,-1 0,0 21.746,8.458 30.047,12.088 8.294,3.623 13.007,-2.13 13.534,-5.554 4.787,-31.308 -2.254,-64.43 -22.342,-92.074 -29.986,-41.279 -80.56,-58.717 -127.408,-48.519 z"
           id="path8729-3-8-1-7-6-4-3-0-6-7-0-5-77"
           style="fill:#2a49ec;fill-opacity:1" />
        <path
           class="st0"
           d="m 503.6,215.254 c -8.849,-1.945 -31.41,-7.89 -31.41,-7.89 -2.795,-0.706 -5.027,-2.788 -5.918,-5.528 -0.89,-2.732 -0.308,-5.74 1.534,-7.952 0,0 14.76,-18.068 20.78,-24.842 6.014,-6.766 1.993,-13.034 -1.096,-14.589 -28.301,-14.232 -61.978,-17.76 -94.485,-7.205 -48.519,15.767 -80.731,58.472 -85.512,106.176 31.91,35.787 83.067,51.403 131.593,35.636 32.492,-10.561 57.67,-33.218 72.191,-61.362 1.59,-3.074 1.172,-10.499 -7.677,-12.444 z"
           id="path8731-7-2-49-14-0-2-8-7-3-24-9-1-5"
           style="fill:#2a49ec;fill-opacity:1" />
      </g>
      <g
         id="g8733-3-8-8-8-6-3-1-1-34-29-7-6-2-3"
         transform="matrix(0.02343754,0,0,0.02343754,55.697097,48.651998)"
         style="display:inline;fill:#2a49ec;fill-opacity:1">
        <path
           class="st0"
           d="m 330.555,101.873 c 0,-34.164 -13.767,-65.108 -36.047,-87.622 -2.432,-2.465 -9.63,-4.349 -14.212,3.466 -4.589,7.808 -17.205,27.431 -17.205,27.431 -1.534,2.438 -4.219,3.918 -7.089,3.918 -2.883,0 -5.555,-1.48 -7.089,-3.918 0,0 -12.623,-19.623 -17.205,-27.431 -4.582,-7.815 -11.781,-5.931 -14.219,-3.466 -22.274,22.514 -36.04,53.458 -36.04,87.622 0,51.02 30.663,94.847 74.553,114.142 43.89,-19.295 74.553,-63.123 74.553,-114.142 z"
           id="path8723-8-6-51-3-8-5-2-6-7-9-9-4-2-8"
           style="fill:#2a49ec;fill-opacity:1" />
        <path
           class="st0"
           d="m 204.51,253.425 c -4.78,-47.705 -36.998,-90.409 -85.518,-106.176 -32.492,-10.554 -66.177,-7.027 -94.47,7.205 -3.096,1.555 -7.117,7.822 -1.096,14.589 6.007,6.774 20.766,24.842 20.766,24.842 1.849,2.212 2.432,5.22 1.542,7.952 -0.891,2.74 -3.13,4.829 -5.918,5.528 0,0 -22.562,5.945 -31.404,7.89 -8.849,1.945 -9.281,9.37 -7.692,12.445 14.527,28.144 39.698,50.801 72.197,61.362 48.519,15.766 99.683,0.15 131.593,-35.637 z"
           id="path8725-5-6-3-4-9-0-3-1-0-8-7-2-3-1"
           style="fill:#2a49ec;fill-opacity:1" />
        <path
           class="st0"
           d="M 96.772,362.484 C 76.69,390.127 69.636,423.25 74.43,454.558 c 0.527,3.424 5.233,9.178 13.527,5.554 8.308,-3.63 30.054,-12.088 30.054,-12.088 2.672,-1.062 5.698,-0.692 8.041,1 2.329,1.692 3.623,4.466 3.418,7.335 0,0 -1.308,23.294 -2.199,32.315 -0.883,9.006 6.048,11.712 9.466,11.15 31.252,-5.116 60.581,-22.054 80.662,-49.704 29.993,-41.266 30.944,-94.758 6.781,-136.155 -46.848,-10.192 -97.422,7.239 -127.408,48.519 z"
           id="path8727-3-5-0-26-9-2-8-2-3-6-94-1-8-3"
           style="fill:#2a49ec;fill-opacity:1" />
        <path
           class="st0"
           d="m 287.824,313.964 c -24.165,41.397 -23.212,94.888 6.78,136.155 20.082,27.65 49.41,44.588 80.663,49.704 3.418,0.562 10.349,-2.144 9.466,-11.15 -0.89,-9.021 -2.205,-32.315 -2.205,-32.315 -0.198,-2.869 1.102,-5.643 3.431,-7.335 2.322,-1.692 5.363,-2.062 8.034,-1 0,0 21.746,8.458 30.047,12.088 8.294,3.623 13.007,-2.13 13.534,-5.554 4.787,-31.308 -2.254,-64.43 -22.342,-92.074 -29.986,-41.279 -80.56,-58.717 -127.408,-48.519 z"
           id="path8729-3-8-1-7-6-4-3-8-3-4-1-2-0-1"
           style="fill:#2a49ec;fill-opacity:1" />
        <path
           class="st0"
           d="m 503.6,215.254 c -8.849,-1.945 -31.41,-7.89 -31.41,-7.89 -2.795,-0.706 -5.027,-2.788 -5.918,-5.528 -0.89,-2.732 -0.308,-5.74 1.534,-7.952 0,0 14.76,-18.068 20.78,-24.842 6.014,-6.766 1.993,-13.034 -1.096,-14.589 -28.301,-14.232 -61.978,-17.76 -94.485,-7.205 -48.519,15.767 -80.731,58.472 -85.512,106.176 31.91,35.787 83.067,51.403 131.593,35.636 32.492,-10.561 57.67,-33.218 72.191,-61.362 1.59,-3.074 1.172,-10.499 -7.677,-12.444 z"
           id="path8731-7-2-49-14-0-2-8-3-1-7-4-1-0-7"
           style="fill:#2a49ec;fill-opacity:1" />
      </g>
      <g
         id="g8733-3-8-8-8-6-3-1-9-8-9-0-4-7-9"
         transform="matrix(0.02343754,0,0,0.02343754,41.305574,59.142608)"
         style="display:inline;fill:#2a49ec;fill-opacity:1">
        <path
           class="st0"
           d="m 330.555,101.873 c 0,-34.164 -13.767,-65.108 -36.047,-87.622 -2.432,-2.465 -9.63,-4.349 -14.212,3.466 -4.589,7.808 -17.205,27.431 -17.205,27.431 -1.534,2.438 -4.219,3.918 -7.089,3.918 -2.883,0 -5.555,-1.48 -7.089,-3.918 0,0 -12.623,-19.623 -17.205,-27.431 -4.582,-7.815 -11.781,-5.931 -14.219,-3.466 -22.274,22.514 -36.04,53.458 -36.04,87.622 0,51.02 30.663,94.847 74.553,114.142 43.89,-19.295 74.553,-63.123 74.553,-114.142 z"
           id="path8723-8-6-51-3-8-5-2-69-3-6-4-7-7-0"
           style="fill:#2a49ec;fill-opacity:1" />
        <path
           class="st0"
           d="m 204.51,253.425 c -4.78,-47.705 -36.998,-90.409 -85.518,-106.176 -32.492,-10.554 -66.177,-7.027 -94.47,7.205 -3.096,1.555 -7.117,7.822 -1.096,14.589 6.007,6.774 20.766,24.842 20.766,24.842 1.849,2.212 2.432,5.22 1.542,7.952 -0.891,2.74 -3.13,4.829 -5.918,5.528 0,0 -22.562,5.945 -31.404,7.89 -8.849,1.945 -9.281,9.37 -7.692,12.445 14.527,28.144 39.698,50.801 72.197,61.362 48.519,15.766 99.683,0.15 131.593,-35.637 z"
           id="path8725-5-6-3-4-9-0-3-7-5-0-0-8-3-4"
           style="fill:#2a49ec;fill-opacity:1" />
        <path
           class="st0"
           d="M 96.772,362.484 C 76.69,390.127 69.636,423.25 74.43,454.558 c 0.527,3.424 5.233,9.178 13.527,5.554 8.308,-3.63 30.054,-12.088 30.054,-12.088 2.672,-1.062 5.698,-0.692 8.041,1 2.329,1.692 3.623,4.466 3.418,7.335 0,0 -1.308,23.294 -2.199,32.315 -0.883,9.006 6.048,11.712 9.466,11.15 31.252,-5.116 60.581,-22.054 80.662,-49.704 29.993,-41.266 30.944,-94.758 6.781,-136.155 -46.848,-10.192 -97.422,7.239 -127.408,48.519 z"
           id="path8727-3-5-0-26-9-2-8-4-2-4-1-5-9-3"
           style="fill:#2a49ec;fill-opacity:1" />
        <path
           class="st0"
           d="m 287.824,313.964 c -24.165,41.397 -23.212,94.888 6.78,136.155 20.082,27.65 49.41,44.588 80.663,49.704 3.418,0.562 10.349,-2.144 9.466,-11.15 -0.89,-9.021 -2.205,-32.315 -2.205,-32.315 -0.198,-2.869 1.102,-5.643 3.431,-7.335 2.322,-1.692 5.363,-2.062 8.034,-1 0,0 21.746,8.458 30.047,12.088 8.294,3.623 13.007,-2.13 13.534,-5.554 4.787,-31.308 -2.254,-64.43 -22.342,-92.074 -29.986,-41.279 -80.56,-58.717 -127.408,-48.519 z"
           id="path8729-3-8-1-7-6-4-3-2-6-8-4-2-0-0"
           style="fill:#2a49ec;fill-opacity:1" />
        <path
           class="st0"
           d="m 503.6,215.254 c -8.849,-1.945 -31.41,-7.89 -31.41,-7.89 -2.795,-0.706 -5.027,-2.788 -5.918,-5.528 -0.89,-2.732 -0.308,-5.74 1.534,-7.952 0,0 14.76,-18.068 20.78,-24.842 6.014,-6.766 1.993,-13.034 -1.096,-14.589 -28.301,-14.232 -61.978,-17.76 -94.485,-7.205 -48.519,15.767 -80.731,58.472 -85.512,106.176 31.91,35.787 83.067,51.403 131.593,35.636 32.492,-10.561 57.67,-33.218 72.191,-61.362 1.59,-3.074 1.172,-10.499 -7.677,-12.444 z"
           id="path8731-7-2-49-14-0-2-8-2-3-7-8-0-6-3"
           style="fill:#2a49ec;fill-opacity:1" />
      </g>
    </g>
    <g
       id="g2900-6-19-3-7-7-2-6"
       style="display:inline"
       transform="matrix(0.8490566,0,0,0.8490566,52.041267,43.982876)">
      <g
         id="g52262-2-9-0-0-1-1-1"
         transform="matrix(0.98398321,0,0,0.98398321,-77.330939,28.78169)"
         style="display:inline">
        <g
           id="g52161-6-7-2-5-2-76-8"
           transform="translate(2.80633,13.657473)">
          <circle
             cx="128.43347"
             cy="19.267973"
             r="3.3333101"
             id="circle4-8-5-2-2-4-2-7"
             style="fill:#cccc00;fill-opacity:1;stroke-width:0.0520829" />
          <path
             d="m 140.66464,18.36173 c -1.37811,-2.131235 -3.16612,-3.941639 -5.17027,-5.235901 -2.21718,-1.433324 -4.66508,-2.191131 -7.0786,-2.191131 -2.21457,0 -4.39216,0.632808 -6.47235,1.880716 -2.12134,1.272387 -4.0432,3.131229 -5.71246,5.524441 a 1.6624884,1.6624884 0 0 0 -0.0333,1.851029 c 1.37551,2.152589 3.14581,3.965597 5.11871,5.24215 2.22134,1.439053 4.61195,2.168214 7.09943,2.168214 2.4328,0 4.8859,-0.751556 7.0937,-2.1729 2.00311,-1.290096 3.78748,-3.107271 5.16038,-5.256214 a 1.6770716,1.6770716 0 0 0 -0.005,-1.810404 z m -12.23116,5.906209 a 4.9999651,4.9999651 0 1 1 4.99996,-4.999965 5.0056942,5.0056942 0 0 1 -4.99996,4.999965 z"
             id="path6-2-3-1-2-0-6-2"
             style="fill:#cccc00;fill-opacity:1;stroke-width:0.0520829" />
          <path
             id="circle4-7-3-7-76-3-7-1-6"
             style="display:inline;fill:#929208;fill-opacity:1;stroke-width:0.052083"
             d="m 128.43364,15.935 a 3.33331,3.33331 0 0 0 -3.33364,3.333128 3.33331,3.33331 0 0 0 3.33364,3.333131 3.33331,3.33331 0 0 0 1.32292,-0.276469 3.33331,3.33331 0 0 1 -2.01022,-3.056662 3.33331,3.33331 0 0 1 2.0128,-3.058726 3.33331,3.33331 0 0 0 -1.3255,-0.274402 z" />
          <path
             id="path6-9-0-8-0-8-5-2-1"
             style="display:inline;fill:#929208;fill-opacity:1;stroke-width:0.052083"
             d="m 128.4161,10.935 c -2.21457,0 -4.39176,0.633113 -6.47195,1.881021 -2.12134,1.272389 -4.04357,3.130999 -5.71283,5.524211 a 1.6624884,1.6624884 0 0 0 -0.0331,1.851049 c 1.37551,2.152589 3.14566,3.965506 5.11856,5.242057 2.22134,1.439056 4.61234,2.168345 7.09982,2.168345 0.4346,0 0.86941,-0.02433 1.3038,-0.07183 -2.00611,-0.215829 -3.9384,-0.918187 -5.75727,-2.096514 -1.9729,-1.276551 -3.74356,-3.089468 -5.11907,-5.242057 a 1.6624884,1.6624884 0 0 1 0.0336,-1.851049 c 1.66926,-2.393212 3.59097,-4.251822 5.71231,-5.524211 1.66601,-0.999435 3.39481,-1.60328 5.15472,-1.804541 -0.44288,-0.05037 -0.88638,-0.07648 -1.3286,-0.07648 z m 2.10427,3.365169 a 4.9999651,4.9999651 0 0 0 -0.70745,0.203605 4.9999651,4.9999651 0 0 1 3.62097,4.764566 5.0056941,5.0056941 0 0 1 -3.59565,4.789374 4.9999651,4.9999651 0 0 0 1.24178,0.210839 5.0056941,5.0056941 0 0 0 5.00022,-5.000213 4.9999651,4.9999651 0 0 0 -5.55987,-4.968171 z" />
        </g>
        <g
           id="g52161-2-8-6-4-6-6-032-7"
           transform="translate(17.432111,2.9961017)"
           style="display:inline">
          <circle
             cx="128.43347"
             cy="19.267973"
             r="3.3333101"
             id="circle4-9-5-8-6-9-2-9-5"
             style="fill:#cccc00;fill-opacity:1;stroke-width:0.0520829" />
          <path
             d="m 140.66464,18.36173 c -1.37811,-2.131235 -3.16612,-3.941639 -5.17027,-5.235901 -2.21718,-1.433324 -4.66508,-2.191131 -7.0786,-2.191131 -2.21457,0 -4.39216,0.632808 -6.47235,1.880716 -2.12134,1.272387 -4.0432,3.131229 -5.71246,5.524441 a 1.6624884,1.6624884 0 0 0 -0.0333,1.851029 c 1.37551,2.152589 3.14581,3.965597 5.11871,5.24215 2.22134,1.439053 4.61195,2.168214 7.09943,2.168214 2.4328,0 4.8859,-0.751556 7.0937,-2.1729 2.00311,-1.290096 3.78748,-3.107271 5.16038,-5.256214 a 1.6770716,1.6770716 0 0 0 -0.005,-1.810404 z m -12.23116,5.906209 a 4.9999651,4.9999651 0 1 1 4.99996,-4.999965 5.0056942,5.0056942 0 0 1 -4.99996,4.999965 z"
             id="path6-5-8-3-6-7-0-9-9"
             style="fill:#cccc00;fill-opacity:1;stroke-width:0.0520829" />
          <path
             id="circle4-7-8-2-3-31-1-7-6-0"
             style="display:inline;fill:#929208;fill-opacity:1;stroke-width:0.052083"
             d="m 128.43364,15.935 a 3.33331,3.33331 0 0 0 -3.33364,3.333128 3.33331,3.33331 0 0 0 3.33364,3.333131 3.33331,3.33331 0 0 0 1.32292,-0.276469 3.33331,3.33331 0 0 1 -2.01022,-3.056662 3.33331,3.33331 0 0 1 2.0128,-3.058726 3.33331,3.33331 0 0 0 -1.3255,-0.274402 z" />
          <path
             id="path6-9-2-73-5-6-0-9-0-9"
             style="display:inline;fill:#929208;fill-opacity:1;stroke-width:0.052083"
             d="m 128.4161,10.935 c -2.21457,0 -4.39176,0.633113 -6.47195,1.881021 -2.12134,1.272389 -4.04357,3.130999 -5.71283,5.524211 a 1.6624884,1.6624884 0 0 0 -0.0331,1.851049 c 1.37551,2.152589 3.14566,3.965506 5.11856,5.242057 2.22134,1.439056 4.61234,2.168345 7.09982,2.168345 0.4346,0 0.86941,-0.02433 1.3038,-0.07183 -2.00611,-0.215829 -3.9384,-0.918187 -5.75727,-2.096514 -1.9729,-1.276551 -3.74356,-3.089468 -5.11907,-5.242057 a 1.6624884,1.6624884 0 0 1 0.0336,-1.851049 c 1.66926,-2.393212 3.59097,-4.251822 5.71231,-5.524211 1.66601,-0.999435 3.39481,-1.60328 5.15472,-1.804541 -0.44288,-0.05037 -0.88638,-0.07648 -1.3286,-0.07648 z m 2.10427,3.365169 a 4.9999651,4.9999651 0 0 0 -0.70745,0.203605 4.9999651,4.9999651 0 0 1 3.62097,4.764566 5.0056941,5.0056941 0 0 1 -3.59565,4.789374 4.9999651,4.9999651 0 0 0 1.24178,0.210839 5.0056941,5.0056941 0 0 0 5.00022,-5.000213 4.9999651,4.9999651 0 0 0 -5.55987,-4.968171 z" />
        </g>
        <g
           id="g52161-2-2-3-6-17-7-2-56-8"
           transform="translate(31.668923,13.657602)"
           style="display:inline">
          <circle
             cx="128.43347"
             cy="19.267973"
             r="3.3333101"
             id="circle4-9-4-2-93-86-1-2-8-2"
             style="fill:#cccc00;fill-opacity:1;stroke-width:0.0520829" />
          <path
             d="m 140.66464,18.36173 c -1.37811,-2.131235 -3.16612,-3.941639 -5.17027,-5.235901 -2.21718,-1.433324 -4.66508,-2.191131 -7.0786,-2.191131 -2.21457,0 -4.39216,0.632808 -6.47235,1.880716 -2.12134,1.272387 -4.0432,3.131229 -5.71246,5.524441 a 1.6624884,1.6624884 0 0 0 -0.0333,1.851029 c 1.37551,2.152589 3.14581,3.965597 5.11871,5.24215 2.22134,1.439053 4.61195,2.168214 7.09943,2.168214 2.4328,0 4.8859,-0.751556 7.0937,-2.1729 2.00311,-1.290096 3.78748,-3.107271 5.16038,-5.256214 a 1.6770716,1.6770716 0 0 0 -0.005,-1.810404 z m -12.23116,5.906209 a 4.9999651,4.9999651 0 1 1 4.99996,-4.999965 5.0056942,5.0056942 0 0 1 -4.99996,4.999965 z"
             id="path6-5-6-6-6-4-3-8-7-1"
             style="fill:#cccc00;fill-opacity:1;stroke-width:0.0520829" />
          <path
             id="circle4-7-8-1-4-6-8-9-8-2-2"
             style="display:inline;fill:#929208;fill-opacity:1;stroke-width:0.052083"
             d="m 128.43364,15.935 a 3.33331,3.33331 0 0 0 -3.33364,3.333128 3.33331,3.33331 0 0 0 3.33364,3.333131 3.33331,3.33331 0 0 0 1.32292,-0.276469 3.33331,3.33331 0 0 1 -2.01022,-3.056662 3.33331,3.33331 0 0 1 2.0128,-3.058726 3.33331,3.33331 0 0 0 -1.3255,-0.274402 z" />
          <path
             id="path6-9-2-9-9-8-6-5-2-4-1"
             style="display:inline;fill:#929208;fill-opacity:1;stroke-width:0.052083"
             d="m 128.4161,10.935 c -2.21457,0 -4.39176,0.633113 -6.47195,1.881021 -2.12134,1.272389 -4.04357,3.130999 -5.71283,5.524211 a 1.6624884,1.6624884 0 0 0 -0.0331,1.851049 c 1.37551,2.152589 3.14566,3.965506 5.11856,5.242057 2.22134,1.439056 4.61234,2.168345 7.09982,2.168345 0.4346,0 0.86941,-0.02433 1.3038,-0.07183 -2.00611,-0.215829 -3.9384,-0.918187 -5.75727,-2.096514 -1.9729,-1.276551 -3.74356,-3.089468 -5.11907,-5.242057 a 1.6624884,1.6624884 0 0 1 0.0336,-1.851049 c 1.66926,-2.393212 3.59097,-4.251822 5.71231,-5.524211 1.66601,-0.999435 3.39481,-1.60328 5.15472,-1.804541 -0.44288,-0.05037 -0.88638,-0.07648 -1.3286,-0.07648 z m 2.10427,3.365169 a 4.9999651,4.9999651 0 0 0 -0.70745,0.203605 4.9999651,4.9999651 0 0 1 3.62097,4.764566 5.0056941,5.0056941 0 0 1 -3.59565,4.789374 4.9999651,4.9999651 0 0 0 1.24178,0.210839 5.0056941,5.0056941 0 0 0 5.00022,-5.000213 4.9999651,4.9999651 0 0 0 -5.55987,-4.968171 z" />
        </g>
      </g>
      <g
         id="g8733-3-8-8-8-6-3-1-09-6-63-2-3-3-8"
         transform="matrix(0.02343754,0,0,0.02343754,69.705881,59.142735)"
         style="display:inline;fill:#2a49ec;fill-opacity:1">
        <path
           class="st0"
           d="m 330.555,101.873 c 0,-34.164 -13.767,-65.108 -36.047,-87.622 -2.432,-2.465 -9.63,-4.349 -14.212,3.466 -4.589,7.808 -17.205,27.431 -17.205,27.431 -1.534,2.438 -4.219,3.918 -7.089,3.918 -2.883,0 -5.555,-1.48 -7.089,-3.918 0,0 -12.623,-19.623 -17.205,-27.431 -4.582,-7.815 -11.781,-5.931 -14.219,-3.466 -22.274,22.514 -36.04,53.458 -36.04,87.622 0,51.02 30.663,94.847 74.553,114.142 43.89,-19.295 74.553,-63.123 74.553,-114.142 z"
           id="path8723-8-6-51-3-8-5-2-691-2-09-5-6-8-3"
           style="fill:#2a49ec;fill-opacity:1" />
        <path
           class="st0"
           d="m 204.51,253.425 c -4.78,-47.705 -36.998,-90.409 -85.518,-106.176 -32.492,-10.554 -66.177,-7.027 -94.47,7.205 -3.096,1.555 -7.117,7.822 -1.096,14.589 6.007,6.774 20.766,24.842 20.766,24.842 1.849,2.212 2.432,5.22 1.542,7.952 -0.891,2.74 -3.13,4.829 -5.918,5.528 0,0 -22.562,5.945 -31.404,7.89 -8.849,1.945 -9.281,9.37 -7.692,12.445 14.527,28.144 39.698,50.801 72.197,61.362 48.519,15.766 99.683,0.15 131.593,-35.637 z"
           id="path8725-5-6-3-4-9-0-3-5-8-6-6-3-8-3"
           style="fill:#2a49ec;fill-opacity:1" />
        <path
           class="st0"
           d="M 96.772,362.484 C 76.69,390.127 69.636,423.25 74.43,454.558 c 0.527,3.424 5.233,9.178 13.527,5.554 8.308,-3.63 30.054,-12.088 30.054,-12.088 2.672,-1.062 5.698,-0.692 8.041,1 2.329,1.692 3.623,4.466 3.418,7.335 0,0 -1.308,23.294 -2.199,32.315 -0.883,9.006 6.048,11.712 9.466,11.15 31.252,-5.116 60.581,-22.054 80.662,-49.704 29.993,-41.266 30.944,-94.758 6.781,-136.155 -46.848,-10.192 -97.422,7.239 -127.408,48.519 z"
           id="path8727-3-5-0-26-9-2-8-47-15-88-4-3-6-5"
           style="fill:#2a49ec;fill-opacity:1" />
        <path
           class="st0"
           d="m 287.824,313.964 c -24.165,41.397 -23.212,94.888 6.78,136.155 20.082,27.65 49.41,44.588 80.663,49.704 3.418,0.562 10.349,-2.144 9.466,-11.15 -0.89,-9.021 -2.205,-32.315 -2.205,-32.315 -0.198,-2.869 1.102,-5.643 3.431,-7.335 2.322,-1.692 5.363,-2.062 8.034,-1 0,0 21.746,8.458 30.047,12.088 8.294,3.623 13.007,-2.13 13.534,-5.554 4.787,-31.308 -2.254,-64.43 -22.342,-92.074 -29.986,-41.279 -80.56,-58.717 -127.408,-48.519 z"
           id="path8729-3-8-1-7-6-4-3-0-6-7-0-5-5-1"
           style="fill:#2a49ec;fill-opacity:1" />
        <path
           class="st0"
           d="m 503.6,215.254 c -8.849,-1.945 -31.41,-7.89 -31.41,-7.89 -2.795,-0.706 -5.027,-2.788 -5.918,-5.528 -0.89,-2.732 -0.308,-5.74 1.534,-7.952 0,0 14.76,-18.068 20.78,-24.842 6.014,-6.766 1.993,-13.034 -1.096,-14.589 -28.301,-14.232 -61.978,-17.76 -94.485,-7.205 -48.519,15.767 -80.731,58.472 -85.512,106.176 31.91,35.787 83.067,51.403 131.593,35.636 32.492,-10.561 57.67,-33.218 72.191,-61.362 1.59,-3.074 1.172,-10.499 -7.677,-12.444 z"
           id="path8731-7-2-49-14-0-2-8-7-3-24-9-1-0-1"
           style="fill:#2a49ec;fill-opacity:1" />
      </g>
      <g
         id="g8733-3-8-8-8-6-3-1-1-34-29-7-6-2-8-7"
         transform="matrix(0.02343754,0,0,0.02343754,55.697097,48.651998)"
         style="display:inline;fill:#2a49ec;fill-opacity:1">
        <path
           class="st0"
           d="m 330.555,101.873 c 0,-34.164 -13.767,-65.108 -36.047,-87.622 -2.432,-2.465 -9.63,-4.349 -14.212,3.466 -4.589,7.808 -17.205,27.431 -17.205,27.431 -1.534,2.438 -4.219,3.918 -7.089,3.918 -2.883,0 -5.555,-1.48 -7.089,-3.918 0,0 -12.623,-19.623 -17.205,-27.431 -4.582,-7.815 -11.781,-5.931 -14.219,-3.466 -22.274,22.514 -36.04,53.458 -36.04,87.622 0,51.02 30.663,94.847 74.553,114.142 43.89,-19.295 74.553,-63.123 74.553,-114.142 z"
           id="path8723-8-6-51-3-8-5-2-6-7-9-9-4-2-6-3"
           style="fill:#2a49ec;fill-opacity:1" />
        <path
           class="st0"
           d="m 204.51,253.425 c -4.78,-47.705 -36.998,-90.409 -85.518,-106.176 -32.492,-10.554 -66.177,-7.027 -94.47,7.205 -3.096,1.555 -7.117,7.822 -1.096,14.589 6.007,6.774 20.766,24.842 20.766,24.842 1.849,2.212 2.432,5.22 1.542,7.952 -0.891,2.74 -3.13,4.829 -5.918,5.528 0,0 -22.562,5.945 -31.404,7.89 -8.849,1.945 -9.281,9.37 -7.692,12.445 14.527,28.144 39.698,50.801 72.197,61.362 48.519,15.766 99.683,0.15 131.593,-35.637 z"
           id="path8725-5-6-3-4-9-0-3-1-0-8-7-2-3-6-4"
           style="fill:#2a49ec;fill-opacity:1" />
        <path
           class="st0"
           d="M 96.772,362.484 C 76.69,390.127 69.636,423.25 74.43,454.558 c 0.527,3.424 5.233,9.178 13.527,5.554 8.308,-3.63 30.054,-12.088 30.054,-12.088 2.672,-1.062 5.698,-0.692 8.041,1 2.329,1.692 3.623,4.466 3.418,7.335 0,0 -1.308,23.294 -2.199,32.315 -0.883,9.006 6.048,11.712 9.466,11.15 31.252,-5.116 60.581,-22.054 80.662,-49.704 29.993,-41.266 30.944,-94.758 6.781,-136.155 -46.848,-10.192 -97.422,7.239 -127.408,48.519 z"
           id="path8727-3-5-0-26-9-2-8-2-3-6-94-1-8-23-7"
           style="fill:#2a49ec;fill-opacity:1" />
        <path
           class="st0"
           d="m 287.824,313.964 c -24.165,41.397 -23.212,94.888 6.78,136.155 20.082,27.65 49.41,44.588 80.663,49.704 3.418,0.562 10.349,-2.144 9.466,-11.15 -0.89,-9.021 -2.205,-32.315 -2.205,-32.315 -0.198,-2.869 1.102,-5.643 3.431,-7.335 2.322,-1.692 5.363,-2.062 8.034,-1 0,0 21.746,8.458 30.047,12.088 8.294,3.623 13.007,-2.13 13.534,-5.554 4.787,-31.308 -2.254,-64.43 -22.342,-92.074 -29.986,-41.279 -80.56,-58.717 -127.408,-48.519 z"
           id="path8729-3-8-1-7-6-4-3-8-3-4-1-2-0-2-0"
           style="fill:#2a49ec;fill-opacity:1" />
        <path
           class="st0"
           d="m 503.6,215.254 c -8.849,-1.945 -31.41,-7.89 -31.41,-7.89 -2.795,-0.706 -5.027,-2.788 -5.918,-5.528 -0.89,-2.732 -0.308,-5.74 1.534,-7.952 0,0 14.76,-18.068 20.78,-24.842 6.014,-6.766 1.993,-13.034 -1.096,-14.589 -28.301,-14.232 -61.978,-17.76 -94.485,-7.205 -48.519,15.767 -80.731,58.472 -85.512,106.176 31.91,35.787 83.067,51.403 131.593,35.636 32.492,-10.561 57.67,-33.218 72.191,-61.362 1.59,-3.074 1.172,-10.499 -7.677,-12.444 z"
           id="path8731-7-2-49-14-0-2-8-3-1-7-4-1-0-1-9"
           style="fill:#2a49ec;fill-opacity:1" />
      </g>
      <g
         id="g8733-3-8-8-8-6-3-1-9-8-9-0-4-7-4-8"
         transform="matrix(0.02343754,0,0,0.02343754,41.305574,59.142608)"
         style="display:inline;fill:#2a49ec;fill-opacity:1">
        <path
           class="st0"
           d="m 330.555,101.873 c 0,-34.164 -13.767,-65.108 -36.047,-87.622 -2.432,-2.465 -9.63,-4.349 -14.212,3.466 -4.589,7.808 -17.205,27.431 -17.205,27.431 -1.534,2.438 -4.219,3.918 -7.089,3.918 -2.883,0 -5.555,-1.48 -7.089,-3.918 0,0 -12.623,-19.623 -17.205,-27.431 -4.582,-7.815 -11.781,-5.931 -14.219,-3.466 -22.274,22.514 -36.04,53.458 -36.04,87.622 0,51.02 30.663,94.847 74.553,114.142 43.89,-19.295 74.553,-63.123 74.553,-114.142 z"
           id="path8723-8-6-51-3-8-5-2-69-3-6-4-7-7-06-6"
           style="fill:#2a49ec;fill-opacity:1" />
        <path
           class="st0"
           d="m 204.51,253.425 c -4.78,-47.705 -36.998,-90.409 -85.518,-106.176 -32.492,-10.554 -66.177,-7.027 -94.47,7.205 -3.096,1.555 -7.117,7.822 -1.096,14.589 6.007,6.774 20.766,24.842 20.766,24.842 1.849,2.212 2.432,5.22 1.542,7.952 -0.891,2.74 -3.13,4.829 -5.918,5.528 0,0 -22.562,5.945 -31.404,7.89 -8.849,1.945 -9.281,9.37 -7.692,12.445 14.527,28.144 39.698,50.801 72.197,61.362 48.519,15.766 99.683,0.15 131.593,-35.637 z"
           id="path8725-5-6-3-4-9-0-3-7-5-0-0-8-3-7-7"
           style="fill:#2a49ec;fill-opacity:1" />
        <path
           class="st0"
           d="M 96.772,362.484 C 76.69,390.127 69.636,423.25 74.43,454.558 c 0.527,3.424 5.233,9.178 13.527,5.554 8.308,-3.63 30.054,-12.088 30.054,-12.088 2.672,-1.062 5.698,-0.692 8.041,1 2.329,1.692 3.623,4.466 3.418,7.335 0,0 -1.308,23.294 -2.199,32.315 -0.883,9.006 6.048,11.712 9.466,11.15 31.252,-5.116 60.581,-22.054 80.662,-49.704 29.993,-41.266 30.944,-94.758 6.781,-136.155 -46.848,-10.192 -97.422,7.239 -127.408,48.519 z"
           id="path8727-3-5-0-26-9-2-8-4-2-4-1-5-9-4-7"
           style="fill:#2a49ec;fill-opacity:1" />
        <path
           class="st0"
           d="m 287.824,313.964 c -24.165,41.397 -23.212,94.888 6.78,136.155 20.082,27.65 49.41,44.588 80.663,49.704 3.418,0.562 10.349,-2.144 9.466,-11.15 -0.89,-9.021 -2.205,-32.315 -2.205,-32.315 -0.198,-2.869 1.102,-5.643 3.431,-7.335 2.322,-1.692 5.363,-2.062 8.034,-1 0,0 21.746,8.458 30.047,12.088 8.294,3.623 13.007,-2.13 13.534,-5.554 4.787,-31.308 -2.254,-64.43 -22.342,-92.074 -29.986,-41.279 -80.56,-58.717 -127.408,-48.519 z"
           id="path8729-3-8-1-7-6-4-3-2-6-8-4-2-0-00-6"
           style="fill:#2a49ec;fill-opacity:1" />
        <path
           class="st0"
           d="m 503.6,215.254 c -8.849,-1.945 -31.41,-7.89 -31.41,-7.89 -2.795,-0.706 -5.027,-2.788 -5.918,-5.528 -0.89,-2.732 -0.308,-5.74 1.534,-7.952 0,0 14.76,-18.068 20.78,-24.842 6.014,-6.766 1.993,-13.034 -1.096,-14.589 -28.301,-14.232 -61.978,-17.76 -94.485,-7.205 -48.519,15.767 -80.731,58.472 -85.512,106.176 31.91,35.787 83.067,51.403 131.593,35.636 32.492,-10.561 57.67,-33.218 72.191,-61.362 1.59,-3.074 1.172,-10.499 -7.677,-12.444 z"
           id="path8731-7-2-49-14-0-2-8-2-3-7-8-0-6-6-6"
           style="fill:#2a49ec;fill-opacity:1" />
      </g>
    </g>
    <g
       id="g2900-6-19-3-7-7-2-8"
       style="display:inline"
       transform="matrix(0.75471698,0,0,0.75471698,43.686811,74.896701)">
      <g
         id="g52262-2-9-0-0-1-1-2"
         transform="matrix(0.98398321,0,0,0.98398321,-77.330939,28.78169)"
         style="display:inline">
        <g
           id="g52161-6-7-2-5-2-76-2"
           transform="translate(2.80633,13.657473)">
          <circle
             cx="128.43347"
             cy="19.267973"
             r="3.3333101"
             id="circle4-8-5-2-2-4-2-71"
             style="fill:#cccc00;fill-opacity:1;stroke-width:0.0520829" />
          <path
             d="m 140.66464,18.36173 c -1.37811,-2.131235 -3.16612,-3.941639 -5.17027,-5.235901 -2.21718,-1.433324 -4.66508,-2.191131 -7.0786,-2.191131 -2.21457,0 -4.39216,0.632808 -6.47235,1.880716 -2.12134,1.272387 -4.0432,3.131229 -5.71246,5.524441 a 1.6624884,1.6624884 0 0 0 -0.0333,1.851029 c 1.37551,2.152589 3.14581,3.965597 5.11871,5.24215 2.22134,1.439053 4.61195,2.168214 7.09943,2.168214 2.4328,0 4.8859,-0.751556 7.0937,-2.1729 2.00311,-1.290096 3.78748,-3.107271 5.16038,-5.256214 a 1.6770716,1.6770716 0 0 0 -0.005,-1.810404 z m -12.23116,5.906209 a 4.9999651,4.9999651 0 1 1 4.99996,-4.999965 5.0056942,5.0056942 0 0 1 -4.99996,4.999965 z"
             id="path6-2-3-1-2-0-6-6"
             style="fill:#cccc00;fill-opacity:1;stroke-width:0.0520829" />
          <path
             id="circle4-7-3-7-76-3-7-1-9"
             style="display:inline;fill:#929208;fill-opacity:1;stroke-width:0.052083"
             d="m 128.43364,15.935 a 3.33331,3.33331 0 0 0 -3.33364,3.333128 3.33331,3.33331 0 0 0 3.33364,3.333131 3.33331,3.33331 0 0 0 1.32292,-0.276469 3.33331,3.33331 0 0 1 -2.01022,-3.056662 3.33331,3.33331 0 0 1 2.0128,-3.058726 3.33331,3.33331 0 0 0 -1.3255,-0.274402 z" />
          <path
             id="path6-9-0-8-0-8-5-2-7"
             style="display:inline;fill:#929208;fill-opacity:1;stroke-width:0.052083"
             d="m 128.4161,10.935 c -2.21457,0 -4.39176,0.633113 -6.47195,1.881021 -2.12134,1.272389 -4.04357,3.130999 -5.71283,5.524211 a 1.6624884,1.6624884 0 0 0 -0.0331,1.851049 c 1.37551,2.152589 3.14566,3.965506 5.11856,5.242057 2.22134,1.439056 4.61234,2.168345 7.09982,2.168345 0.4346,0 0.86941,-0.02433 1.3038,-0.07183 -2.00611,-0.215829 -3.9384,-0.918187 -5.75727,-2.096514 -1.9729,-1.276551 -3.74356,-3.089468 -5.11907,-5.242057 a 1.6624884,1.6624884 0 0 1 0.0336,-1.851049 c 1.66926,-2.393212 3.59097,-4.251822 5.71231,-5.524211 1.66601,-0.999435 3.39481,-1.60328 5.15472,-1.804541 -0.44288,-0.05037 -0.88638,-0.07648 -1.3286,-0.07648 z m 2.10427,3.365169 a 4.9999651,4.9999651 0 0 0 -0.70745,0.203605 4.9999651,4.9999651 0 0 1 3.62097,4.764566 5.0056941,5.0056941 0 0 1 -3.59565,4.789374 4.9999651,4.9999651 0 0 0 1.24178,0.210839 5.0056941,5.0056941 0 0 0 5.00022,-5.000213 4.9999651,4.9999651 0 0 0 -5.55987,-4.968171 z" />
        </g>
        <g
           id="g52161-2-8-6-4-6-6-032-3"
           transform="translate(17.432111,2.9961017)"
           style="display:inline">
          <circle
             cx="128.43347"
             cy="19.267973"
             r="3.3333101"
             id="circle4-9-5-8-6-9-2-9-2"
             style="fill:#cccc00;fill-opacity:1;stroke-width:0.0520829" />
          <path
             d="m 140.66464,18.36173 c -1.37811,-2.131235 -3.16612,-3.941639 -5.17027,-5.235901 -2.21718,-1.433324 -4.66508,-2.191131 -7.0786,-2.191131 -2.21457,0 -4.39216,0.632808 -6.47235,1.880716 -2.12134,1.272387 -4.0432,3.131229 -5.71246,5.524441 a 1.6624884,1.6624884 0 0 0 -0.0333,1.851029 c 1.37551,2.152589 3.14581,3.965597 5.11871,5.24215 2.22134,1.439053 4.61195,2.168214 7.09943,2.168214 2.4328,0 4.8859,-0.751556 7.0937,-2.1729 2.00311,-1.290096 3.78748,-3.107271 5.16038,-5.256214 a 1.6770716,1.6770716 0 0 0 -0.005,-1.810404 z m -12.23116,5.906209 a 4.9999651,4.9999651 0 1 1 4.99996,-4.999965 5.0056942,5.0056942 0 0 1 -4.99996,4.999965 z"
             id="path6-5-8-3-6-7-0-9-3"
             style="fill:#cccc00;fill-opacity:1;stroke-width:0.0520829" />
          <path
             id="circle4-7-8-2-3-31-1-7-6-7"
             style="display:inline;fill:#929208;fill-opacity:1;stroke-width:0.052083"
             d="m 128.43364,15.935 a 3.33331,3.33331 0 0 0 -3.33364,3.333128 3.33331,3.33331 0 0 0 3.33364,3.333131 3.33331,3.33331 0 0 0 1.32292,-0.276469 3.33331,3.33331 0 0 1 -2.01022,-3.056662 3.33331,3.33331 0 0 1 2.0128,-3.058726 3.33331,3.33331 0 0 0 -1.3255,-0.274402 z" />
          <path
             id="path6-9-2-73-5-6-0-9-0-6"
             style="display:inline;fill:#929208;fill-opacity:1;stroke-width:0.052083"
             d="m 128.4161,10.935 c -2.21457,0 -4.39176,0.633113 -6.47195,1.881021 -2.12134,1.272389 -4.04357,3.130999 -5.71283,5.524211 a 1.6624884,1.6624884 0 0 0 -0.0331,1.851049 c 1.37551,2.152589 3.14566,3.965506 5.11856,5.242057 2.22134,1.439056 4.61234,2.168345 7.09982,2.168345 0.4346,0 0.86941,-0.02433 1.3038,-0.07183 -2.00611,-0.215829 -3.9384,-0.918187 -5.75727,-2.096514 -1.9729,-1.276551 -3.74356,-3.089468 -5.11907,-5.242057 a 1.6624884,1.6624884 0 0 1 0.0336,-1.851049 c 1.66926,-2.393212 3.59097,-4.251822 5.71231,-5.524211 1.66601,-0.999435 3.39481,-1.60328 5.15472,-1.804541 -0.44288,-0.05037 -0.88638,-0.07648 -1.3286,-0.07648 z m 2.10427,3.365169 a 4.9999651,4.9999651 0 0 0 -0.70745,0.203605 4.9999651,4.9999651 0 0 1 3.62097,4.764566 5.0056941,5.0056941 0 0 1 -3.59565,4.789374 4.9999651,4.9999651 0 0 0 1.24178,0.210839 5.0056941,5.0056941 0 0 0 5.00022,-5.000213 4.9999651,4.9999651 0 0 0 -5.55987,-4.968171 z" />
        </g>
        <g
           id="g52161-2-2-3-6-17-7-2-56-9"
           transform="translate(31.668923,13.657602)"
           style="display:inline">
          <circle
             cx="128.43347"
             cy="19.267973"
             r="3.3333101"
             id="circle4-9-4-2-93-86-1-2-8-0"
             style="fill:#cccc00;fill-opacity:1;stroke-width:0.0520829" />
          <path
             d="m 140.66464,18.36173 c -1.37811,-2.131235 -3.16612,-3.941639 -5.17027,-5.235901 -2.21718,-1.433324 -4.66508,-2.191131 -7.0786,-2.191131 -2.21457,0 -4.39216,0.632808 -6.47235,1.880716 -2.12134,1.272387 -4.0432,3.131229 -5.71246,5.524441 a 1.6624884,1.6624884 0 0 0 -0.0333,1.851029 c 1.37551,2.152589 3.14581,3.965597 5.11871,5.24215 2.22134,1.439053 4.61195,2.168214 7.09943,2.168214 2.4328,0 4.8859,-0.751556 7.0937,-2.1729 2.00311,-1.290096 3.78748,-3.107271 5.16038,-5.256214 a 1.6770716,1.6770716 0 0 0 -0.005,-1.810404 z m -12.23116,5.906209 a 4.9999651,4.9999651 0 1 1 4.99996,-4.999965 5.0056942,5.0056942 0 0 1 -4.99996,4.999965 z"
             id="path6-5-6-6-6-4-3-8-7-2"
             style="fill:#cccc00;fill-opacity:1;stroke-width:0.0520829" />
          <path
             id="circle4-7-8-1-4-6-8-9-8-2-3"
             style="display:inline;fill:#929208;fill-opacity:1;stroke-width:0.052083"
             d="m 128.43364,15.935 a 3.33331,3.33331 0 0 0 -3.33364,3.333128 3.33331,3.33331 0 0 0 3.33364,3.333131 3.33331,3.33331 0 0 0 1.32292,-0.276469 3.33331,3.33331 0 0 1 -2.01022,-3.056662 3.33331,3.33331 0 0 1 2.0128,-3.058726 3.33331,3.33331 0 0 0 -1.3255,-0.274402 z" />
          <path
             id="path6-9-2-9-9-8-6-5-2-4-9"
             style="display:inline;fill:#929208;fill-opacity:1;stroke-width:0.052083"
             d="m 128.4161,10.935 c -2.21457,0 -4.39176,0.633113 -6.47195,1.881021 -2.12134,1.272389 -4.04357,3.130999 -5.71283,5.524211 a 1.6624884,1.6624884 0 0 0 -0.0331,1.851049 c 1.37551,2.152589 3.14566,3.965506 5.11856,5.242057 2.22134,1.439056 4.61234,2.168345 7.09982,2.168345 0.4346,0 0.86941,-0.02433 1.3038,-0.07183 -2.00611,-0.215829 -3.9384,-0.918187 -5.75727,-2.096514 -1.9729,-1.276551 -3.74356,-3.089468 -5.11907,-5.242057 a 1.6624884,1.6624884 0 0 1 0.0336,-1.851049 c 1.66926,-2.393212 3.59097,-4.251822 5.71231,-5.524211 1.66601,-0.999435 3.39481,-1.60328 5.15472,-1.804541 -0.44288,-0.05037 -0.88638,-0.07648 -1.3286,-0.07648 z m 2.10427,3.365169 a 4.9999651,4.9999651 0 0 0 -0.70745,0.203605 4.9999651,4.9999651 0 0 1 3.62097,4.764566 5.0056941,5.0056941 0 0 1 -3.59565,4.789374 4.9999651,4.9999651 0 0 0 1.24178,0.210839 5.0056941,5.0056941 0 0 0 5.00022,-5.000213 4.9999651,4.9999651 0 0 0 -5.55987,-4.968171 z" />
        </g>
      </g>
      <g
         id="g8733-3-8-8-8-6-3-1-09-6-63-2-3-3-6"
         transform="matrix(0.02343754,0,0,0.02343754,69.705881,59.142735)"
         style="display:inline;fill:#2a49ec;fill-opacity:1">
        <path
           class="st0"
           d="m 330.555,101.873 c 0,-34.164 -13.767,-65.108 -36.047,-87.622 -2.432,-2.465 -9.63,-4.349 -14.212,3.466 -4.589,7.808 -17.205,27.431 -17.205,27.431 -1.534,2.438 -4.219,3.918 -7.089,3.918 -2.883,0 -5.555,-1.48 -7.089,-3.918 0,0 -12.623,-19.623 -17.205,-27.431 -4.582,-7.815 -11.781,-5.931 -14.219,-3.466 -22.274,22.514 -36.04,53.458 -36.04,87.622 0,51.02 30.663,94.847 74.553,114.142 43.89,-19.295 74.553,-63.123 74.553,-114.142 z"
           id="path8723-8-6-51-3-8-5-2-691-2-09-5-6-8-34"
           style="fill:#2a49ec;fill-opacity:1" />
        <path
           class="st0"
           d="m 204.51,253.425 c -4.78,-47.705 -36.998,-90.409 -85.518,-106.176 -32.492,-10.554 -66.177,-7.027 -94.47,7.205 -3.096,1.555 -7.117,7.822 -1.096,14.589 6.007,6.774 20.766,24.842 20.766,24.842 1.849,2.212 2.432,5.22 1.542,7.952 -0.891,2.74 -3.13,4.829 -5.918,5.528 0,0 -22.562,5.945 -31.404,7.89 -8.849,1.945 -9.281,9.37 -7.692,12.445 14.527,28.144 39.698,50.801 72.197,61.362 48.519,15.766 99.683,0.15 131.593,-35.637 z"
           id="path8725-5-6-3-4-9-0-3-5-8-6-6-3-8-2"
           style="fill:#2a49ec;fill-opacity:1" />
        <path
           class="st0"
           d="M 96.772,362.484 C 76.69,390.127 69.636,423.25 74.43,454.558 c 0.527,3.424 5.233,9.178 13.527,5.554 8.308,-3.63 30.054,-12.088 30.054,-12.088 2.672,-1.062 5.698,-0.692 8.041,1 2.329,1.692 3.623,4.466 3.418,7.335 0,0 -1.308,23.294 -2.199,32.315 -0.883,9.006 6.048,11.712 9.466,11.15 31.252,-5.116 60.581,-22.054 80.662,-49.704 29.993,-41.266 30.944,-94.758 6.781,-136.155 -46.848,-10.192 -97.422,7.239 -127.408,48.519 z"
           id="path8727-3-5-0-26-9-2-8-47-15-88-4-3-6-0"
           style="fill:#2a49ec;fill-opacity:1" />
        <path
           class="st0"
           d="m 287.824,313.964 c -24.165,41.397 -23.212,94.888 6.78,136.155 20.082,27.65 49.41,44.588 80.663,49.704 3.418,0.562 10.349,-2.144 9.466,-11.15 -0.89,-9.021 -2.205,-32.315 -2.205,-32.315 -0.198,-2.869 1.102,-5.643 3.431,-7.335 2.322,-1.692 5.363,-2.062 8.034,-1 0,0 21.746,8.458 30.047,12.088 8.294,3.623 13.007,-2.13 13.534,-5.554 4.787,-31.308 -2.254,-64.43 -22.342,-92.074 -29.986,-41.279 -80.56,-58.717 -127.408,-48.519 z"
           id="path8729-3-8-1-7-6-4-3-0-6-7-0-5-5-11"
           style="fill:#2a49ec;fill-opacity:1" />
        <path
           class="st0"
           d="m 503.6,215.254 c -8.849,-1.945 -31.41,-7.89 -31.41,-7.89 -2.795,-0.706 -5.027,-2.788 -5.918,-5.528 -0.89,-2.732 -0.308,-5.74 1.534,-7.952 0,0 14.76,-18.068 20.78,-24.842 6.014,-6.766 1.993,-13.034 -1.096,-14.589 -28.301,-14.232 -61.978,-17.76 -94.485,-7.205 -48.519,15.767 -80.731,58.472 -85.512,106.176 31.91,35.787 83.067,51.403 131.593,35.636 32.492,-10.561 57.67,-33.218 72.191,-61.362 1.59,-3.074 1.172,-10.499 -7.677,-12.444 z"
           id="path8731-7-2-49-14-0-2-8-7-3-24-9-1-0-3"
           style="fill:#2a49ec;fill-opacity:1" />
      </g>
      <g
         id="g8733-3-8-8-8-6-3-1-1-34-29-7-6-2-8-9"
         transform="matrix(0.02343754,0,0,0.02343754,55.697097,48.651998)"
         style="display:inline;fill:#2a49ec;fill-opacity:1">
        <path
           class="st0"
           d="m 330.555,101.873 c 0,-34.164 -13.767,-65.108 -36.047,-87.622 -2.432,-2.465 -9.63,-4.349 -14.212,3.466 -4.589,7.808 -17.205,27.431 -17.205,27.431 -1.534,2.438 -4.219,3.918 -7.089,3.918 -2.883,0 -5.555,-1.48 -7.089,-3.918 0,0 -12.623,-19.623 -17.205,-27.431 -4.582,-7.815 -11.781,-5.931 -14.219,-3.466 -22.274,22.514 -36.04,53.458 -36.04,87.622 0,51.02 30.663,94.847 74.553,114.142 43.89,-19.295 74.553,-63.123 74.553,-114.142 z"
           id="path8723-8-6-51-3-8-5-2-6-7-9-9-4-2-6-9"
           style="fill:#2a49ec;fill-opacity:1" />
        <path
           class="st0"
           d="m 204.51,253.425 c -4.78,-47.705 -36.998,-90.409 -85.518,-106.176 -32.492,-10.554 -66.177,-7.027 -94.47,7.205 -3.096,1.555 -7.117,7.822 -1.096,14.589 6.007,6.774 20.766,24.842 20.766,24.842 1.849,2.212 2.432,5.22 1.542,7.952 -0.891,2.74 -3.13,4.829 -5.918,5.528 0,0 -22.562,5.945 -31.404,7.89 -8.849,1.945 -9.281,9.37 -7.692,12.445 14.527,28.144 39.698,50.801 72.197,61.362 48.519,15.766 99.683,0.15 131.593,-35.637 z"
           id="path8725-5-6-3-4-9-0-3-1-0-8-7-2-3-6-5"
           style="fill:#2a49ec;fill-opacity:1" />
        <path
           class="st0"
           d="M 96.772,362.484 C 76.69,390.127 69.636,423.25 74.43,454.558 c 0.527,3.424 5.233,9.178 13.527,5.554 8.308,-3.63 30.054,-12.088 30.054,-12.088 2.672,-1.062 5.698,-0.692 8.041,1 2.329,1.692 3.623,4.466 3.418,7.335 0,0 -1.308,23.294 -2.199,32.315 -0.883,9.006 6.048,11.712 9.466,11.15 31.252,-5.116 60.581,-22.054 80.662,-49.704 29.993,-41.266 30.944,-94.758 6.781,-136.155 -46.848,-10.192 -97.422,7.239 -127.408,48.519 z"
           id="path8727-3-5-0-26-9-2-8-2-3-6-94-1-8-23-8"
           style="fill:#2a49ec;fill-opacity:1" />
        <path
           class="st0"
           d="m 287.824,313.964 c -24.165,41.397 -23.212,94.888 6.78,136.155 20.082,27.65 49.41,44.588 80.663,49.704 3.418,0.562 10.349,-2.144 9.466,-11.15 -0.89,-9.021 -2.205,-32.315 -2.205,-32.315 -0.198,-2.869 1.102,-5.643 3.431,-7.335 2.322,-1.692 5.363,-2.062 8.034,-1 0,0 21.746,8.458 30.047,12.088 8.294,3.623 13.007,-2.13 13.534,-5.554 4.787,-31.308 -2.254,-64.43 -22.342,-92.074 -29.986,-41.279 -80.56,-58.717 -127.408,-48.519 z"
           id="path8729-3-8-1-7-6-4-3-8-3-4-1-2-0-2-9"
           style="fill:#2a49ec;fill-opacity:1" />
        <path
           class="st0"
           d="m 503.6,215.254 c -8.849,-1.945 -31.41,-7.89 -31.41,-7.89 -2.795,-0.706 -5.027,-2.788 -5.918,-5.528 -0.89,-2.732 -0.308,-5.74 1.534,-7.952 0,0 14.76,-18.068 20.78,-24.842 6.014,-6.766 1.993,-13.034 -1.096,-14.589 -28.301,-14.232 -61.978,-17.76 -94.485,-7.205 -48.519,15.767 -80.731,58.472 -85.512,106.176 31.91,35.787 83.067,51.403 131.593,35.636 32.492,-10.561 57.67,-33.218 72.191,-61.362 1.59,-3.074 1.172,-10.499 -7.677,-12.444 z"
           id="path8731-7-2-49-14-0-2-8-3-1-7-4-1-0-1-4"
           style="fill:#2a49ec;fill-opacity:1" />
      </g>
      <g
         id="g8733-3-8-8-8-6-3-1-9-8-9-0-4-7-4-0"
         transform="matrix(0.02343754,0,0,0.02343754,41.305574,59.142608)"
         style="display:inline;fill:#2a49ec;fill-opacity:1">
        <path
           class="st0"
           d="m 330.555,101.873 c 0,-34.164 -13.767,-65.108 -36.047,-87.622 -2.432,-2.465 -9.63,-4.349 -14.212,3.466 -4.589,7.808 -17.205,27.431 -17.205,27.431 -1.534,2.438 -4.219,3.918 -7.089,3.918 -2.883,0 -5.555,-1.48 -7.089,-3.918 0,0 -12.623,-19.623 -17.205,-27.431 -4.582,-7.815 -11.781,-5.931 -14.219,-3.466 -22.274,22.514 -36.04,53.458 -36.04,87.622 0,51.02 30.663,94.847 74.553,114.142 43.89,-19.295 74.553,-63.123 74.553,-114.142 z"
           id="path8723-8-6-51-3-8-5-2-69-3-6-4-7-7-06-7"
           style="fill:#2a49ec;fill-opacity:1" />
        <path
           class="st0"
           d="m 204.51,253.425 c -4.78,-47.705 -36.998,-90.409 -85.518,-106.176 -32.492,-10.554 -66.177,-7.027 -94.47,7.205 -3.096,1.555 -7.117,7.822 -1.096,14.589 6.007,6.774 20.766,24.842 20.766,24.842 1.849,2.212 2.432,5.22 1.542,7.952 -0.891,2.74 -3.13,4.829 -5.918,5.528 0,0 -22.562,5.945 -31.404,7.89 -8.849,1.945 -9.281,9.37 -7.692,12.445 14.527,28.144 39.698,50.801 72.197,61.362 48.519,15.766 99.683,0.15 131.593,-35.637 z"
           id="path8725-5-6-3-4-9-0-3-7-5-0-0-8-3-7-6"
           style="fill:#2a49ec;fill-opacity:1" />
        <path
           class="st0"
           d="M 96.772,362.484 C 76.69,390.127 69.636,423.25 74.43,454.558 c 0.527,3.424 5.233,9.178 13.527,5.554 8.308,-3.63 30.054,-12.088 30.054,-12.088 2.672,-1.062 5.698,-0.692 8.041,1 2.329,1.692 3.623,4.466 3.418,7.335 0,0 -1.308,23.294 -2.199,32.315 -0.883,9.006 6.048,11.712 9.466,11.15 31.252,-5.116 60.581,-22.054 80.662,-49.704 29.993,-41.266 30.944,-94.758 6.781,-136.155 -46.848,-10.192 -97.422,7.239 -127.408,48.519 z"
           id="path8727-3-5-0-26-9-2-8-4-2-4-1-5-9-4-9"
           style="fill:#2a49ec;fill-opacity:1" />
        <path
           class="st0"
           d="m 287.824,313.964 c -24.165,41.397 -23.212,94.888 6.78,136.155 20.082,27.65 49.41,44.588 80.663,49.704 3.418,0.562 10.349,-2.144 9.466,-11.15 -0.89,-9.021 -2.205,-32.315 -2.205,-32.315 -0.198,-2.869 1.102,-5.643 3.431,-7.335 2.322,-1.692 5.363,-2.062 8.034,-1 0,0 21.746,8.458 30.047,12.088 8.294,3.623 13.007,-2.13 13.534,-5.554 4.787,-31.308 -2.254,-64.43 -22.342,-92.074 -29.986,-41.279 -80.56,-58.717 -127.408,-48.519 z"
           id="path8729-3-8-1-7-6-4-3-2-6-8-4-2-0-00-7"
           style="fill:#2a49ec;fill-opacity:1" />
        <path
           class="st0"
           d="m 503.6,215.254 c -8.849,-1.945 -31.41,-7.89 -31.41,-7.89 -2.795,-0.706 -5.027,-2.788 -5.918,-5.528 -0.89,-2.732 -0.308,-5.74 1.534,-7.952 0,0 14.76,-18.068 20.78,-24.842 6.014,-6.766 1.993,-13.034 -1.096,-14.589 -28.301,-14.232 -61.978,-17.76 -94.485,-7.205 -48.519,15.767 -80.731,58.472 -85.512,106.176 31.91,35.787 83.067,51.403 131.593,35.636 32.492,-10.561 57.67,-33.218 72.191,-61.362 1.59,-3.074 1.172,-10.499 -7.677,-12.444 z"
           id="path8731-7-2-49-14-0-2-8-2-3-7-8-0-6-6-7"
           style="fill:#2a49ec;fill-opacity:1" />
      </g>
    </g>
  </g>
</svg>
