<?xml version="1.0" encoding="UTF-8" standalone="no"?>
<!-- Created with Inkscape (http://www.inkscape.org/) -->

<svg
   width="500"
   height="500"
   viewBox="0 0 132.29166 132.29167"
   version="1.1"
   id="svg2515"
   inkscape:version="1.1.2 (b8e25be833, 2022-02-05)"
   sodipodi:docname="bonsai06s06blooming.svg"
   inkscape:export-filename="C:\Users\Lenovo\Desktop\Coding\Media files\Bonsais\bonsai06.png"
   inkscape:export-xdpi="96"
   inkscape:export-ydpi="96"
   xmlns:inkscape="http://www.inkscape.org/namespaces/inkscape"
   xmlns:sodipodi="http://sodipodi.sourceforge.net/DTD/sodipodi-0.dtd"
   xmlns="http://www.w3.org/2000/svg"
   xmlns:svg="http://www.w3.org/2000/svg"
   xmlns:sketch="http://www.bohemiancoding.com/sketch/ns">
  <sodipodi:namedview
     id="namedview2517"
     pagecolor="#ffffff"
     bordercolor="#666666"
     borderopacity="1.0"
     inkscape:pageshadow="2"
     inkscape:pageopacity="0.0"
     inkscape:pagecheckerboard="0"
     inkscape:document-units="mm"
     showgrid="false"
     units="px"
     inkscape:zoom="1.4142136"
     inkscape:cx="272.58966"
     inkscape:cy="245.01249"
     inkscape:window-width="1920"
     inkscape:window-height="1001"
     inkscape:window-x="-9"
     inkscape:window-y="-9"
     inkscape:window-maximized="1"
     inkscape:current-layer="g17992"
     showguides="false" />
  <defs
     id="defs2512">
    <marker
       style="overflow:visible"
       id="Arrow1Sstart"
       refX="0.0"
       refY="0.0"
       orient="auto"
       inkscape:stockid="Arrow1Sstart"
       inkscape:isstock="true">
      <path
         transform="scale(0.2) translate(6,0)"
         style="fill-rule:evenodd;fill:context-stroke;stroke:context-stroke;stroke-width:1.0pt"
         d="M 0.0,0.0 L 5.0,-5.0 L -12.5,0.0 L 5.0,5.0 L 0.0,0.0 z "
         id="path24092" />
    </marker>
    <marker
       style="overflow:visible"
       id="Arrow1Mstart"
       refX="0.0"
       refY="0.0"
       orient="auto"
       inkscape:stockid="Arrow1Mstart"
       inkscape:isstock="true">
      <path
         transform="scale(0.4) translate(10,0)"
         style="fill-rule:evenodd;fill:context-stroke;stroke:context-stroke;stroke-width:1.0pt"
         d="M 0.0,0.0 L 5.0,-5.0 L -12.5,0.0 L 5.0,5.0 L 0.0,0.0 z "
         id="path24086" />
    </marker>
    <marker
       style="overflow:visible"
       id="Arrow1Lstart"
       refX="0.0"
       refY="0.0"
       orient="auto"
       inkscape:stockid="Arrow1Lstart"
       inkscape:isstock="true">
      <path
         transform="scale(0.8) translate(12.5,0)"
         style="fill-rule:evenodd;fill:context-stroke;stroke:context-stroke;stroke-width:1.0pt"
         d="M 0.0,0.0 L 5.0,-5.0 L -12.5,0.0 L 5.0,5.0 L 0.0,0.0 z "
         id="path24080" />
    </marker>
    <marker
       style="overflow:visible;"
       id="Arrow1Lend"
       refX="0.0"
       refY="0.0"
       orient="auto"
       inkscape:stockid="Arrow1Lend"
       inkscape:isstock="true">
      <path
         transform="scale(0.8) rotate(180) translate(12.5,0)"
         style="fill-rule:evenodd;fill:context-stroke;stroke:context-stroke;stroke-width:1.0pt;"
         d="M 0.0,0.0 L 5.0,-5.0 L -12.5,0.0 L 5.0,5.0 L 0.0,0.0 z "
         id="path24083" />
    </marker>
  </defs>
  <g
     inkscape:label="Full Cascade Style"
     inkscape:groupmode="layer"
     id="g17992"
     style="display:inline">
    <g
       id="g17906"
       transform="translate(124.68868,23.38778)">
      <path
         style="fill:#c49078;fill-opacity:1;stroke:#c49078;stroke-width:1;stroke-linecap:round;stroke-linejoin:round;stroke-miterlimit:4;stroke-dasharray:none;stroke-opacity:1"
         d="m -99.500015,30.838997 c 0,0 3.638799,-12.735798 11.176313,-18.453912 7.537513,-5.7181136 12.496916,-8.4784226 23.142885,-10.0872826 10.645968,-1.60885902 11.594881,-2.51410402 19.483052,-1.089031 7.888169,1.425072 21.667403,2.638059 27.063051,17.1643086 6.81601,18.350201 6.7258,20.263344 4.38657,25.721542 -2.33923,5.458201 -12.829945,17.760783 -15.334937,20.793141 -4.938372,5.978028 -5.458199,8.317257 -3.118973,13.255629 0.330604,2.90298 6.162124,16.3246 -1.302394,6.77885 -6.495032,-13.276708 -1.296749,-18.994823 1.822223,-22.893535 3.118972,-3.898715 15.179241,-16.422587 15.075031,-22.61254 -0.10422,-6.189957 -5.4582,-19.233654 -7.277605,-20.013397 -1.819399,-0.779743 -7.017683,-14.5551986 -26.771164,-12.7357996 -19.753485,1.819402 -19.233657,3.3788866 -25.211683,9.6168266 -5.152861,5.376899 -9.876742,12.21597 -7.277599,14.035371 2.599142,1.8194 -15.85477,0.519829 -15.85477,0.519829 z"
         id="path17902"
         sodipodi:nodetypes="cssssssccssssssc" />
      <path
         id="path17904"
         style="display:inline;fill:#9f6a57;fill-opacity:1;stroke:#9f6a57;stroke-width:3.77953;stroke-linecap:round;stroke-linejoin:round;stroke-miterlimit:4;stroke-dasharray:none;stroke-opacity:1"
         d="m -198.50781,1.9003906 c -11.86585,0.2218352 -22.69775,2.9847019 -47.84571,6.7851563 -40.23673,6.0807311 -58.98051,16.5132281 -87.46875,38.1250001 -28.48824,21.611769 -42.24023,69.746093 -42.24023,69.746093 0,0 4.05066,0.25117 7.5293,0.46289 4.26508,-12.64023 17.66416,-47.519947 40.73437,-65.021483 28.48824,-21.611765 47.23397,-32.044269 87.47071,-38.125 40.23672,-6.0807282 43.82315,-9.5013383 73.63671,-4.1152345 20.11821,3.6345445 50.36393,6.9268215 74.181644,25.5390625 C -117.04264,12.062664 -150.85821,8.5173186 -172.7168,4.5683594 -183.89688,2.5485708 -191.3883,1.7672895 -198.50781,1.9003906 Z m 85.4707,47.4980474 c 12.08952,11.359811 17.783837,22.610761 20.875001,23.935546 6.876491,2.947061 27.111957,52.245516 27.505859,75.640626 0.393865,23.3951 -45.18832,70.72954 -56.97656,85.46484 -11.78824,14.73529 -31.43683,36.34766 -6.88867,86.52735 6.32744,8.09164 10.12193,11.80717 12.19531,12.59375 -1.72535,-1.89721 -3.75185,-4.31148 -6.17188,-7.40625 -24.54815,-50.17969 -4.89957,-71.79206 6.88867,-86.52735 11.78825,-14.7353 57.370432,-62.06974 56.976568,-85.46484 C -59.026715,130.767 -79.262181,81.468545 -86.138672,78.521484 -89.703333,76.993771 -96.724636,62.271435 -113.03711,49.398438 Z"
         transform="scale(0.26458333)" />
    </g>
    <g
       id="g1638-6-6-3-4-6-4"
       transform="matrix(0.46471746,0,0,-0.25891218,-410.09013,410.30566)"
       style="display:inline">
      <path
         d="m 1063.22,1363.63 -3.97,5.96 H 896.482 l -3.956,-5.96 c -12.178,-18.31 -12.178,-42.14 0,-60.45 l 3.956,-5.96 h 162.768 l 3.97,5.96 c 12.17,18.31 12.17,42.14 0,60.45"
         style="fill:#9fbde1;fill-opacity:1;fill-rule:nonzero;stroke:none;stroke-width:0.1"
         id="path314-0-6-3-2-4-8-7" />
      <path
         d="m 909.212,1385.47 h 137.318 v -15.88 H 909.212 v 15.88"
         style="fill:#bfd9f3;fill-opacity:1;fill-rule:nonzero;stroke:none;stroke-width:0.1"
         id="path316-2-3-7-7-5-4" />
      <path
         d="m 906.53,1363.63 3.957,5.96 h -14.005 l -3.956,-5.96 c -12.178,-18.31 -12.178,-42.14 0,-60.45 l 3.956,-5.96 h 14.005 l -3.957,5.96 c -12.177,18.31 -12.177,42.14 0,60.45"
         style="fill:#799dbe;fill-opacity:1;fill-rule:nonzero;stroke:none;stroke-width:0.1"
         id="path326-2-6-9-2-8-2" />
      <path
         d="m 909.212,1385.47 h 14.005 v -15.88 h -14.005 v 15.88"
         style="fill:#96b9e4;fill-opacity:1;fill-rule:nonzero;stroke:none;stroke-width:0.1"
         id="path328-0-1-8-2-8-9" />
    </g>
    <g
       id="g3441-8-2-5-4-3-4"
       style="display:inline"
       transform="translate(-3.108371,-39.850583)">
      <g
         id="g4022-16-9-0-5-3-7">
        <g
           id="g22226-7-5-3-3-4-2"
           transform="matrix(0.54835514,0,0,0.54835514,-13.965797,15.325438)"
           style="display:inline">
          <g
             id="g22138-63-0-1-9-3-1"
             transform="translate(-26.833461,54.442803)">
            <g
               id="Page-1-8-2-9-7-3-6-9"
               stroke="none"
               stroke-width="1"
               fill="none"
               fill-rule="evenodd"
               sketch:type="MSPage"
               style="fill:#81cc29;fill-opacity:1"
               transform="matrix(1.25,0,0,1.25,123.91155,12.485537)">
              <g
                 id="Icon-Set-Filled-05-1-35-9-0-9"
                 sketch:type="MSLayerGroup"
                 transform="translate(-519,-781)"
                 fill="#000000"
                 style="fill:#81cc29;fill-opacity:1">
                <path
                   d="M 542.067,786.028 C 540.599,783.053 537.543,781 534,781 c -4.749,0 -8.63,3.682 -8.967,8.345 C 521.542,790.34 519,793.39 519,797 c 0,4.26 3.54,7.755 8,8 h 15 c 4.966,0 9,-4.253 9,-9.5 0,-5.056 -3.951,-9.177 -8.933,-9.472"
                   id="cloud-9-9-4-4-0-4"
                   sketch:type="MSShapeGroup"
                   style="fill:#99ffcc;fill-opacity:1" />
              </g>
            </g>
            <path
               id="cloud-7-1-2-6-7-6-8"
               style="fill:#5de7a2;fill-opacity:1;fill-rule:evenodd;stroke:none;stroke-width:1.25"
               d="m 142.66142,12.485383 c -5.93625,0 -10.78737,4.602654 -11.20862,10.431404 -4.36375,1.243751 -7.54166,5.056426 -7.54166,9.568923 0,5.325002 4.42491,9.693659 9.99991,9.999909 h 4.23385 c -5.575,-0.30625 -10.00043,-4.674907 -10.00043,-9.999909 0,-4.512497 3.17791,-8.325172 7.54166,-9.568923 0.36984,-5.117375 4.15439,-9.28873 9.08989,-10.2309 -0.68475,-0.130707 -1.3914,-0.200504 -2.1146,-0.200504 z" />
          </g>
          <g
             id="g22138-4-9-1-4-7-5-0"
             transform="translate(0.33401899,35.484808)"
             style="display:inline">
            <g
               id="Page-1-8-0-6-9-8-0-6-1"
               stroke="none"
               stroke-width="1"
               fill="none"
               fill-rule="evenodd"
               sketch:type="MSPage"
               style="fill:#81cc29;fill-opacity:1"
               transform="matrix(1.25,0,0,1.25,123.91155,12.485537)">
              <g
                 id="Icon-Set-Filled-2-9-7-9-9-3-8"
                 sketch:type="MSLayerGroup"
                 transform="translate(-519,-781)"
                 fill="#000000"
                 style="fill:#81cc29;fill-opacity:1">
                <path
                   d="M 542.067,786.028 C 540.599,783.053 537.543,781 534,781 c -4.749,0 -8.63,3.682 -8.967,8.345 C 521.542,790.34 519,793.39 519,797 c 0,4.26 3.54,7.755 8,8 h 15 c 4.966,0 9,-4.253 9,-9.5 0,-5.056 -3.951,-9.177 -8.933,-9.472"
                   id="cloud-1-3-1-9-7-7-5"
                   sketch:type="MSShapeGroup"
                   style="fill:#99ffcc;fill-opacity:1" />
              </g>
            </g>
            <path
               id="cloud-7-8-0-5-2-3-9-3"
               style="fill:#5de7a2;fill-opacity:1;fill-rule:evenodd;stroke:none;stroke-width:1.25"
               d="m 142.66142,12.485383 c -5.93625,0 -10.78737,4.602654 -11.20862,10.431404 -4.36375,1.243751 -7.54166,5.056426 -7.54166,9.568923 0,5.325002 4.42491,9.693659 9.99991,9.999909 h 4.23385 c -5.575,-0.30625 -10.00043,-4.674907 -10.00043,-9.999909 0,-4.512497 3.17791,-8.325172 7.54166,-9.568923 0.36984,-5.117375 4.15439,-9.28873 9.08989,-10.2309 -0.68475,-0.130707 -1.3914,-0.200504 -2.1146,-0.200504 z" />
          </g>
          <g
             id="g22138-5-5-5-2-8-7-8"
             transform="translate(29.81882,54.442617)"
             style="display:inline">
            <g
               id="Page-1-8-4-0-7-7-1-4-1"
               stroke="none"
               stroke-width="1"
               fill="none"
               fill-rule="evenodd"
               sketch:type="MSPage"
               style="fill:#81cc29;fill-opacity:1"
               transform="matrix(1.25,0,0,1.25,123.91155,12.485537)">
              <g
                 id="Icon-Set-Filled-8-6-8-0-3-8-7"
                 sketch:type="MSLayerGroup"
                 transform="translate(-519,-781)"
                 fill="#000000"
                 style="fill:#81cc29;fill-opacity:1">
                <path
                   d="M 542.067,786.028 C 540.599,783.053 537.543,781 534,781 c -4.749,0 -8.63,3.682 -8.967,8.345 C 521.542,790.34 519,793.39 519,797 c 0,4.26 3.54,7.755 8,8 h 15 c 4.966,0 9,-4.253 9,-9.5 0,-5.056 -3.951,-9.177 -8.933,-9.472"
                   id="cloud-3-2-1-5-6-9-4"
                   sketch:type="MSShapeGroup"
                   style="fill:#99ffcc;fill-opacity:1" />
              </g>
            </g>
            <path
               id="cloud-7-4-7-3-4-3-9-1"
               style="fill:#5de7a2;fill-opacity:1;fill-rule:evenodd;stroke:none;stroke-width:1.25"
               d="m 142.66142,12.485383 c -5.93625,0 -10.78737,4.602654 -11.20862,10.431404 -4.36375,1.243751 -7.54166,5.056426 -7.54166,9.568923 0,5.325002 4.42491,9.693659 9.99991,9.999909 h 4.23385 c -5.575,-0.30625 -10.00043,-4.674907 -10.00043,-9.999909 0,-4.512497 3.17791,-8.325172 7.54166,-9.568923 0.36984,-5.117375 4.15439,-9.28873 9.08989,-10.2309 -0.68475,-0.130707 -1.3914,-0.200504 -2.1146,-0.200504 z" />
          </g>
        </g>
      </g>
      <g
         id="g12-2-2-1-8-6-6-6-6-6-6"
         transform="matrix(0.02343752,0,0,0.02343752,48.902568,50.278243)"
         style="display:inline;fill:#f71e31;fill-opacity:1">
        <g
           id="g10-8-6-3-7-1-5-7-9-0-5"
           style="fill:#f71e31;fill-opacity:1">
          <path
             d="m 511.109,220.854 c -1.777,-5.181 -5.984,-9.165 -11.263,-10.651 l -30.105,-8.456 19.384,-24.538 c 3.404,-4.298 4.466,-9.99 2.851,-15.226 -1.615,-5.236 -5.703,-9.339 -10.928,-10.982 -35.862,-11.259 -78.652,-20.739 -124.314,-5.908 -4.185,1.361 -8.337,2.922 -12.457,4.684 0.412,-4.462 0.618,-8.89 0.618,-13.28 0,-47.972 -22.289,-85.736 -44.102,-116.352 -3.176,-4.462 -8.586,-7.171 -13.822,-6.993 -5.475,0.087 -10.559,2.856 -13.595,7.416 L 256.085,46.516 238.783,20.568 c -3.035,-4.558 -8.119,-7.329 -13.595,-7.416 -5.377,-0.179 -10.657,2.531 -13.822,6.993 -21.802,30.598 -44.091,68.358 -44.091,116.352 0,4.347 0.207,8.732 0.607,13.145 -4.131,-1.74 -8.315,-3.285 -12.575,-4.646 -46.27,-14.847 -90.609,-4.558 -124.076,6.071 -5.214,1.653 -9.279,5.762 -10.874,10.987 -1.604,5.231 -0.542,10.911 2.841,15.199 l 19.308,24.463 -30.355,8.51 c -5.291,1.485 -9.507,5.481 -11.274,10.684 -1.756,5.204 -0.846,10.944 2.45,15.34 22.625,30.165 51.875,63.003 97.493,77.936 3.676,1.166 7.404,2.196 11.188,3.089 -2.2,2.618 -4.293,5.285 -6.267,8.006 -28.392,39.082 -32.448,84.696 -32.805,120.064 -0.054,5.481 2.591,10.635 7.068,13.784 4.477,3.161 10.234,3.898 15.362,2 l 29.336,-10.857 -1.258,31.265 c -0.216,5.475 2.266,10.706 6.656,13.991 4.369,3.279 10.093,4.19 15.296,2.461 33.531,-11.286 75.659,-29.244 104.042,-68.309 2.309,-3.182 4.51,-6.489 6.592,-9.903 2.07,3.42 4.272,6.727 6.581,9.909 28.381,39.065 70.52,57.024 104.052,68.304 1.735,0.579 3.535,0.867 5.312,0.867 3.556,0 7.068,-1.138 9.995,-3.328 4.379,-3.29 6.863,-8.521 6.645,-13.995 l -1.269,-31.26 29.336,10.857 c 5.128,1.897 10.885,1.16 15.362,-2 4.477,-3.149 7.123,-8.304 7.068,-13.784 -0.357,-35.363 -4.402,-80.971 -32.805,-120.054 -1.984,-2.732 -4.076,-5.415 -6.277,-8.038 3.935,-0.927 7.794,-2.006 11.579,-3.23 45.89,-14.907 75.996,-49.44 97.103,-77.855 3.264,-4.405 4.165,-10.128 2.397,-15.316 z M 255.197,325.216 c -30.604,0 -55.506,-24.902 -55.506,-55.506 0,-30.604 24.902,-55.506 55.506,-55.506 30.604,0 55.506,24.902 55.506,55.506 0,30.604 -24.902,55.506 -55.506,55.506 z"
             id="path8-8-6-2-9-0-84-4-3-2-2-1"
             style="fill:#f71e31;fill-opacity:1" />
        </g>
      </g>
      <g
         id="g12-2-2-1-5-2-0-8-4-6"
         transform="matrix(0.02343752,0,0,0.02343752,63.799995,39.882529)"
         style="display:inline;fill:#f71e31;fill-opacity:1">
        <g
           id="g10-8-6-3-9-5-5-2-5-1"
           style="fill:#f71e31;fill-opacity:1">
          <path
             d="m 511.109,220.854 c -1.777,-5.181 -5.984,-9.165 -11.263,-10.651 l -30.105,-8.456 19.384,-24.538 c 3.404,-4.298 4.466,-9.99 2.851,-15.226 -1.615,-5.236 -5.703,-9.339 -10.928,-10.982 -35.862,-11.259 -78.652,-20.739 -124.314,-5.908 -4.185,1.361 -8.337,2.922 -12.457,4.684 0.412,-4.462 0.618,-8.89 0.618,-13.28 0,-47.972 -22.289,-85.736 -44.102,-116.352 -3.176,-4.462 -8.586,-7.171 -13.822,-6.993 -5.475,0.087 -10.559,2.856 -13.595,7.416 L 256.085,46.516 238.783,20.568 c -3.035,-4.558 -8.119,-7.329 -13.595,-7.416 -5.377,-0.179 -10.657,2.531 -13.822,6.993 -21.802,30.598 -44.091,68.358 -44.091,116.352 0,4.347 0.207,8.732 0.607,13.145 -4.131,-1.74 -8.315,-3.285 -12.575,-4.646 -46.27,-14.847 -90.609,-4.558 -124.076,6.071 -5.214,1.653 -9.279,5.762 -10.874,10.987 -1.604,5.231 -0.542,10.911 2.841,15.199 l 19.308,24.463 -30.355,8.51 c -5.291,1.485 -9.507,5.481 -11.274,10.684 -1.756,5.204 -0.846,10.944 2.45,15.34 22.625,30.165 51.875,63.003 97.493,77.936 3.676,1.166 7.404,2.196 11.188,3.089 -2.2,2.618 -4.293,5.285 -6.267,8.006 -28.392,39.082 -32.448,84.696 -32.805,120.064 -0.054,5.481 2.591,10.635 7.068,13.784 4.477,3.161 10.234,3.898 15.362,2 l 29.336,-10.857 -1.258,31.265 c -0.216,5.475 2.266,10.706 6.656,13.991 4.369,3.279 10.093,4.19 15.296,2.461 33.531,-11.286 75.659,-29.244 104.042,-68.309 2.309,-3.182 4.51,-6.489 6.592,-9.903 2.07,3.42 4.272,6.727 6.581,9.909 28.381,39.065 70.52,57.024 104.052,68.304 1.735,0.579 3.535,0.867 5.312,0.867 3.556,0 7.068,-1.138 9.995,-3.328 4.379,-3.29 6.863,-8.521 6.645,-13.995 l -1.269,-31.26 29.336,10.857 c 5.128,1.897 10.885,1.16 15.362,-2 4.477,-3.149 7.123,-8.304 7.068,-13.784 -0.357,-35.363 -4.402,-80.971 -32.805,-120.054 -1.984,-2.732 -4.076,-5.415 -6.277,-8.038 3.935,-0.927 7.794,-2.006 11.579,-3.23 45.89,-14.907 75.996,-49.44 97.103,-77.855 3.264,-4.405 4.165,-10.128 2.397,-15.316 z M 255.197,325.216 c -30.604,0 -55.506,-24.902 -55.506,-55.506 0,-30.604 24.902,-55.506 55.506,-55.506 30.604,0 55.506,24.902 55.506,55.506 0,30.604 -24.902,55.506 -55.506,55.506 z"
             id="path8-8-6-2-9-63-0-1-5-4-8"
             style="fill:#f71e31;fill-opacity:1" />
        </g>
      </g>
      <g
         id="g12-2-2-14-2-8-3-2-2"
         transform="matrix(0.02343752,0,0,0.02343752,79.968137,50.278141)"
         style="display:inline;fill:#f71e31;fill-opacity:1">
        <g
           id="g10-8-6-5-7-8-9-0-3"
           style="fill:#f71e31;fill-opacity:1">
          <path
             d="m 511.109,220.854 c -1.777,-5.181 -5.984,-9.165 -11.263,-10.651 l -30.105,-8.456 19.384,-24.538 c 3.404,-4.298 4.466,-9.99 2.851,-15.226 -1.615,-5.236 -5.703,-9.339 -10.928,-10.982 -35.862,-11.259 -78.652,-20.739 -124.314,-5.908 -4.185,1.361 -8.337,2.922 -12.457,4.684 0.412,-4.462 0.618,-8.89 0.618,-13.28 0,-47.972 -22.289,-85.736 -44.102,-116.352 -3.176,-4.462 -8.586,-7.171 -13.822,-6.993 -5.475,0.087 -10.559,2.856 -13.595,7.416 L 256.085,46.516 238.783,20.568 c -3.035,-4.558 -8.119,-7.329 -13.595,-7.416 -5.377,-0.179 -10.657,2.531 -13.822,6.993 -21.802,30.598 -44.091,68.358 -44.091,116.352 0,4.347 0.207,8.732 0.607,13.145 -4.131,-1.74 -8.315,-3.285 -12.575,-4.646 -46.27,-14.847 -90.609,-4.558 -124.076,6.071 -5.214,1.653 -9.279,5.762 -10.874,10.987 -1.604,5.231 -0.542,10.911 2.841,15.199 l 19.308,24.463 -30.355,8.51 c -5.291,1.485 -9.507,5.481 -11.274,10.684 -1.756,5.204 -0.846,10.944 2.45,15.34 22.625,30.165 51.875,63.003 97.493,77.936 3.676,1.166 7.404,2.196 11.188,3.089 -2.2,2.618 -4.293,5.285 -6.267,8.006 -28.392,39.082 -32.448,84.696 -32.805,120.064 -0.054,5.481 2.591,10.635 7.068,13.784 4.477,3.161 10.234,3.898 15.362,2 l 29.336,-10.857 -1.258,31.265 c -0.216,5.475 2.266,10.706 6.656,13.991 4.369,3.279 10.093,4.19 15.296,2.461 33.531,-11.286 75.659,-29.244 104.042,-68.309 2.309,-3.182 4.51,-6.489 6.592,-9.903 2.07,3.42 4.272,6.727 6.581,9.909 28.381,39.065 70.52,57.024 104.052,68.304 1.735,0.579 3.535,0.867 5.312,0.867 3.556,0 7.068,-1.138 9.995,-3.328 4.379,-3.29 6.863,-8.521 6.645,-13.995 l -1.269,-31.26 29.336,10.857 c 5.128,1.897 10.885,1.16 15.362,-2 4.477,-3.149 7.123,-8.304 7.068,-13.784 -0.357,-35.363 -4.402,-80.971 -32.805,-120.054 -1.984,-2.732 -4.076,-5.415 -6.277,-8.038 3.935,-0.927 7.794,-2.006 11.579,-3.23 45.89,-14.907 75.996,-49.44 97.103,-77.855 3.264,-4.405 4.165,-10.128 2.397,-15.316 z M 255.197,325.216 c -30.604,0 -55.506,-24.902 -55.506,-55.506 0,-30.604 24.902,-55.506 55.506,-55.506 30.604,0 55.506,24.902 55.506,55.506 0,30.604 -24.902,55.506 -55.506,55.506 z"
             id="path8-8-6-2-2-7-7-1-1-9"
             style="fill:#f71e31;fill-opacity:1" />
        </g>
      </g>
    </g>
    <g
       id="g3441-8-2-5-4-3-5"
       style="display:inline"
       transform="translate(38.490021,-17.945132)">
      <g
         id="g4022-16-9-0-5-3-2">
        <g
           id="g22226-7-5-3-3-4-8"
           transform="matrix(0.54835514,0,0,0.54835514,-13.965797,15.325438)"
           style="display:inline">
          <g
             id="g22138-63-0-1-9-3-8"
             transform="translate(-26.833461,54.442803)">
            <g
               id="Page-1-8-2-9-7-3-6-5"
               stroke="none"
               stroke-width="1"
               fill="none"
               fill-rule="evenodd"
               sketch:type="MSPage"
               style="fill:#81cc29;fill-opacity:1"
               transform="matrix(1.25,0,0,1.25,123.91155,12.485537)">
              <g
                 id="Icon-Set-Filled-05-1-35-9-0-6"
                 sketch:type="MSLayerGroup"
                 transform="translate(-519,-781)"
                 fill="#000000"
                 style="fill:#81cc29;fill-opacity:1">
                <path
                   d="M 542.067,786.028 C 540.599,783.053 537.543,781 534,781 c -4.749,0 -8.63,3.682 -8.967,8.345 C 521.542,790.34 519,793.39 519,797 c 0,4.26 3.54,7.755 8,8 h 15 c 4.966,0 9,-4.253 9,-9.5 0,-5.056 -3.951,-9.177 -8.933,-9.472"
                   id="cloud-9-9-4-4-0-7"
                   sketch:type="MSShapeGroup"
                   style="fill:#99ffcc;fill-opacity:1" />
              </g>
            </g>
            <path
               id="cloud-7-1-2-6-7-6-9"
               style="fill:#5de7a2;fill-opacity:1;fill-rule:evenodd;stroke:none;stroke-width:1.25"
               d="m 142.66142,12.485383 c -5.93625,0 -10.78737,4.602654 -11.20862,10.431404 -4.36375,1.243751 -7.54166,5.056426 -7.54166,9.568923 0,5.325002 4.42491,9.693659 9.99991,9.999909 h 4.23385 c -5.575,-0.30625 -10.00043,-4.674907 -10.00043,-9.999909 0,-4.512497 3.17791,-8.325172 7.54166,-9.568923 0.36984,-5.117375 4.15439,-9.28873 9.08989,-10.2309 -0.68475,-0.130707 -1.3914,-0.200504 -2.1146,-0.200504 z" />
          </g>
          <g
             id="g22138-4-9-1-4-7-5-6"
             transform="translate(0.33401899,35.484808)"
             style="display:inline">
            <g
               id="Page-1-8-0-6-9-8-0-6-2"
               stroke="none"
               stroke-width="1"
               fill="none"
               fill-rule="evenodd"
               sketch:type="MSPage"
               style="fill:#81cc29;fill-opacity:1"
               transform="matrix(1.25,0,0,1.25,123.91155,12.485537)">
              <g
                 id="Icon-Set-Filled-2-9-7-9-9-3-1"
                 sketch:type="MSLayerGroup"
                 transform="translate(-519,-781)"
                 fill="#000000"
                 style="fill:#81cc29;fill-opacity:1">
                <path
                   d="M 542.067,786.028 C 540.599,783.053 537.543,781 534,781 c -4.749,0 -8.63,3.682 -8.967,8.345 C 521.542,790.34 519,793.39 519,797 c 0,4.26 3.54,7.755 8,8 h 15 c 4.966,0 9,-4.253 9,-9.5 0,-5.056 -3.951,-9.177 -8.933,-9.472"
                   id="cloud-1-3-1-9-7-7-9"
                   sketch:type="MSShapeGroup"
                   style="fill:#99ffcc;fill-opacity:1" />
              </g>
            </g>
            <path
               id="cloud-7-8-0-5-2-3-9-0"
               style="fill:#5de7a2;fill-opacity:1;fill-rule:evenodd;stroke:none;stroke-width:1.25"
               d="m 142.66142,12.485383 c -5.93625,0 -10.78737,4.602654 -11.20862,10.431404 -4.36375,1.243751 -7.54166,5.056426 -7.54166,9.568923 0,5.325002 4.42491,9.693659 9.99991,9.999909 h 4.23385 c -5.575,-0.30625 -10.00043,-4.674907 -10.00043,-9.999909 0,-4.512497 3.17791,-8.325172 7.54166,-9.568923 0.36984,-5.117375 4.15439,-9.28873 9.08989,-10.2309 -0.68475,-0.130707 -1.3914,-0.200504 -2.1146,-0.200504 z" />
          </g>
          <g
             id="g22138-5-5-5-2-8-7-5"
             transform="translate(29.81882,54.442617)"
             style="display:inline">
            <g
               id="Page-1-8-4-0-7-7-1-4-15"
               stroke="none"
               stroke-width="1"
               fill="none"
               fill-rule="evenodd"
               sketch:type="MSPage"
               style="fill:#81cc29;fill-opacity:1"
               transform="matrix(1.25,0,0,1.25,123.91155,12.485537)">
              <g
                 id="Icon-Set-Filled-8-6-8-0-3-8-4"
                 sketch:type="MSLayerGroup"
                 transform="translate(-519,-781)"
                 fill="#000000"
                 style="fill:#81cc29;fill-opacity:1">
                <path
                   d="M 542.067,786.028 C 540.599,783.053 537.543,781 534,781 c -4.749,0 -8.63,3.682 -8.967,8.345 C 521.542,790.34 519,793.39 519,797 c 0,4.26 3.54,7.755 8,8 h 15 c 4.966,0 9,-4.253 9,-9.5 0,-5.056 -3.951,-9.177 -8.933,-9.472"
                   id="cloud-3-2-1-5-6-9-5"
                   sketch:type="MSShapeGroup"
                   style="fill:#99ffcc;fill-opacity:1" />
              </g>
            </g>
            <path
               id="cloud-7-4-7-3-4-3-9-0"
               style="fill:#5de7a2;fill-opacity:1;fill-rule:evenodd;stroke:none;stroke-width:1.25"
               d="m 142.66142,12.485383 c -5.93625,0 -10.78737,4.602654 -11.20862,10.431404 -4.36375,1.243751 -7.54166,5.056426 -7.54166,9.568923 0,5.325002 4.42491,9.693659 9.99991,9.999909 h 4.23385 c -5.575,-0.30625 -10.00043,-4.674907 -10.00043,-9.999909 0,-4.512497 3.17791,-8.325172 7.54166,-9.568923 0.36984,-5.117375 4.15439,-9.28873 9.08989,-10.2309 -0.68475,-0.130707 -1.3914,-0.200504 -2.1146,-0.200504 z" />
          </g>
        </g>
      </g>
      <g
         id="g12-2-2-1-8-6-6-6-6-6-1"
         transform="matrix(0.02343752,0,0,0.02343752,48.902568,50.278243)"
         style="display:inline;fill:#f71e31;fill-opacity:1">
        <g
           id="g10-8-6-3-7-1-5-7-9-0-9"
           style="fill:#f71e31;fill-opacity:1">
          <path
             d="m 511.109,220.854 c -1.777,-5.181 -5.984,-9.165 -11.263,-10.651 l -30.105,-8.456 19.384,-24.538 c 3.404,-4.298 4.466,-9.99 2.851,-15.226 -1.615,-5.236 -5.703,-9.339 -10.928,-10.982 -35.862,-11.259 -78.652,-20.739 -124.314,-5.908 -4.185,1.361 -8.337,2.922 -12.457,4.684 0.412,-4.462 0.618,-8.89 0.618,-13.28 0,-47.972 -22.289,-85.736 -44.102,-116.352 -3.176,-4.462 -8.586,-7.171 -13.822,-6.993 -5.475,0.087 -10.559,2.856 -13.595,7.416 L 256.085,46.516 238.783,20.568 c -3.035,-4.558 -8.119,-7.329 -13.595,-7.416 -5.377,-0.179 -10.657,2.531 -13.822,6.993 -21.802,30.598 -44.091,68.358 -44.091,116.352 0,4.347 0.207,8.732 0.607,13.145 -4.131,-1.74 -8.315,-3.285 -12.575,-4.646 -46.27,-14.847 -90.609,-4.558 -124.076,6.071 -5.214,1.653 -9.279,5.762 -10.874,10.987 -1.604,5.231 -0.542,10.911 2.841,15.199 l 19.308,24.463 -30.355,8.51 c -5.291,1.485 -9.507,5.481 -11.274,10.684 -1.756,5.204 -0.846,10.944 2.45,15.34 22.625,30.165 51.875,63.003 97.493,77.936 3.676,1.166 7.404,2.196 11.188,3.089 -2.2,2.618 -4.293,5.285 -6.267,8.006 -28.392,39.082 -32.448,84.696 -32.805,120.064 -0.054,5.481 2.591,10.635 7.068,13.784 4.477,3.161 10.234,3.898 15.362,2 l 29.336,-10.857 -1.258,31.265 c -0.216,5.475 2.266,10.706 6.656,13.991 4.369,3.279 10.093,4.19 15.296,2.461 33.531,-11.286 75.659,-29.244 104.042,-68.309 2.309,-3.182 4.51,-6.489 6.592,-9.903 2.07,3.42 4.272,6.727 6.581,9.909 28.381,39.065 70.52,57.024 104.052,68.304 1.735,0.579 3.535,0.867 5.312,0.867 3.556,0 7.068,-1.138 9.995,-3.328 4.379,-3.29 6.863,-8.521 6.645,-13.995 l -1.269,-31.26 29.336,10.857 c 5.128,1.897 10.885,1.16 15.362,-2 4.477,-3.149 7.123,-8.304 7.068,-13.784 -0.357,-35.363 -4.402,-80.971 -32.805,-120.054 -1.984,-2.732 -4.076,-5.415 -6.277,-8.038 3.935,-0.927 7.794,-2.006 11.579,-3.23 45.89,-14.907 75.996,-49.44 97.103,-77.855 3.264,-4.405 4.165,-10.128 2.397,-15.316 z M 255.197,325.216 c -30.604,0 -55.506,-24.902 -55.506,-55.506 0,-30.604 24.902,-55.506 55.506,-55.506 30.604,0 55.506,24.902 55.506,55.506 0,30.604 -24.902,55.506 -55.506,55.506 z"
             id="path8-8-6-2-9-0-84-4-3-2-2-3"
             style="fill:#f71e31;fill-opacity:1" />
        </g>
      </g>
      <g
         id="g12-2-2-1-5-2-0-8-4-0"
         transform="matrix(0.02343752,0,0,0.02343752,63.799995,39.882529)"
         style="display:inline;fill:#f71e31;fill-opacity:1">
        <g
           id="g10-8-6-3-9-5-5-2-5-8"
           style="fill:#f71e31;fill-opacity:1">
          <path
             d="m 511.109,220.854 c -1.777,-5.181 -5.984,-9.165 -11.263,-10.651 l -30.105,-8.456 19.384,-24.538 c 3.404,-4.298 4.466,-9.99 2.851,-15.226 -1.615,-5.236 -5.703,-9.339 -10.928,-10.982 -35.862,-11.259 -78.652,-20.739 -124.314,-5.908 -4.185,1.361 -8.337,2.922 -12.457,4.684 0.412,-4.462 0.618,-8.89 0.618,-13.28 0,-47.972 -22.289,-85.736 -44.102,-116.352 -3.176,-4.462 -8.586,-7.171 -13.822,-6.993 -5.475,0.087 -10.559,2.856 -13.595,7.416 L 256.085,46.516 238.783,20.568 c -3.035,-4.558 -8.119,-7.329 -13.595,-7.416 -5.377,-0.179 -10.657,2.531 -13.822,6.993 -21.802,30.598 -44.091,68.358 -44.091,116.352 0,4.347 0.207,8.732 0.607,13.145 -4.131,-1.74 -8.315,-3.285 -12.575,-4.646 -46.27,-14.847 -90.609,-4.558 -124.076,6.071 -5.214,1.653 -9.279,5.762 -10.874,10.987 -1.604,5.231 -0.542,10.911 2.841,15.199 l 19.308,24.463 -30.355,8.51 c -5.291,1.485 -9.507,5.481 -11.274,10.684 -1.756,5.204 -0.846,10.944 2.45,15.34 22.625,30.165 51.875,63.003 97.493,77.936 3.676,1.166 7.404,2.196 11.188,3.089 -2.2,2.618 -4.293,5.285 -6.267,8.006 -28.392,39.082 -32.448,84.696 -32.805,120.064 -0.054,5.481 2.591,10.635 7.068,13.784 4.477,3.161 10.234,3.898 15.362,2 l 29.336,-10.857 -1.258,31.265 c -0.216,5.475 2.266,10.706 6.656,13.991 4.369,3.279 10.093,4.19 15.296,2.461 33.531,-11.286 75.659,-29.244 104.042,-68.309 2.309,-3.182 4.51,-6.489 6.592,-9.903 2.07,3.42 4.272,6.727 6.581,9.909 28.381,39.065 70.52,57.024 104.052,68.304 1.735,0.579 3.535,0.867 5.312,0.867 3.556,0 7.068,-1.138 9.995,-3.328 4.379,-3.29 6.863,-8.521 6.645,-13.995 l -1.269,-31.26 29.336,10.857 c 5.128,1.897 10.885,1.16 15.362,-2 4.477,-3.149 7.123,-8.304 7.068,-13.784 -0.357,-35.363 -4.402,-80.971 -32.805,-120.054 -1.984,-2.732 -4.076,-5.415 -6.277,-8.038 3.935,-0.927 7.794,-2.006 11.579,-3.23 45.89,-14.907 75.996,-49.44 97.103,-77.855 3.264,-4.405 4.165,-10.128 2.397,-15.316 z M 255.197,325.216 c -30.604,0 -55.506,-24.902 -55.506,-55.506 0,-30.604 24.902,-55.506 55.506,-55.506 30.604,0 55.506,24.902 55.506,55.506 0,30.604 -24.902,55.506 -55.506,55.506 z"
             id="path8-8-6-2-9-63-0-1-5-4-0"
             style="fill:#f71e31;fill-opacity:1" />
        </g>
      </g>
      <g
         id="g12-2-2-14-2-8-3-2-7"
         transform="matrix(0.02343752,0,0,0.02343752,79.968137,50.278141)"
         style="display:inline;fill:#f71e31;fill-opacity:1">
        <g
           id="g10-8-6-5-7-8-9-0-9"
           style="fill:#f71e31;fill-opacity:1">
          <path
             d="m 511.109,220.854 c -1.777,-5.181 -5.984,-9.165 -11.263,-10.651 l -30.105,-8.456 19.384,-24.538 c 3.404,-4.298 4.466,-9.99 2.851,-15.226 -1.615,-5.236 -5.703,-9.339 -10.928,-10.982 -35.862,-11.259 -78.652,-20.739 -124.314,-5.908 -4.185,1.361 -8.337,2.922 -12.457,4.684 0.412,-4.462 0.618,-8.89 0.618,-13.28 0,-47.972 -22.289,-85.736 -44.102,-116.352 -3.176,-4.462 -8.586,-7.171 -13.822,-6.993 -5.475,0.087 -10.559,2.856 -13.595,7.416 L 256.085,46.516 238.783,20.568 c -3.035,-4.558 -8.119,-7.329 -13.595,-7.416 -5.377,-0.179 -10.657,2.531 -13.822,6.993 -21.802,30.598 -44.091,68.358 -44.091,116.352 0,4.347 0.207,8.732 0.607,13.145 -4.131,-1.74 -8.315,-3.285 -12.575,-4.646 -46.27,-14.847 -90.609,-4.558 -124.076,6.071 -5.214,1.653 -9.279,5.762 -10.874,10.987 -1.604,5.231 -0.542,10.911 2.841,15.199 l 19.308,24.463 -30.355,8.51 c -5.291,1.485 -9.507,5.481 -11.274,10.684 -1.756,5.204 -0.846,10.944 2.45,15.34 22.625,30.165 51.875,63.003 97.493,77.936 3.676,1.166 7.404,2.196 11.188,3.089 -2.2,2.618 -4.293,5.285 -6.267,8.006 -28.392,39.082 -32.448,84.696 -32.805,120.064 -0.054,5.481 2.591,10.635 7.068,13.784 4.477,3.161 10.234,3.898 15.362,2 l 29.336,-10.857 -1.258,31.265 c -0.216,5.475 2.266,10.706 6.656,13.991 4.369,3.279 10.093,4.19 15.296,2.461 33.531,-11.286 75.659,-29.244 104.042,-68.309 2.309,-3.182 4.51,-6.489 6.592,-9.903 2.07,3.42 4.272,6.727 6.581,9.909 28.381,39.065 70.52,57.024 104.052,68.304 1.735,0.579 3.535,0.867 5.312,0.867 3.556,0 7.068,-1.138 9.995,-3.328 4.379,-3.29 6.863,-8.521 6.645,-13.995 l -1.269,-31.26 29.336,10.857 c 5.128,1.897 10.885,1.16 15.362,-2 4.477,-3.149 7.123,-8.304 7.068,-13.784 -0.357,-35.363 -4.402,-80.971 -32.805,-120.054 -1.984,-2.732 -4.076,-5.415 -6.277,-8.038 3.935,-0.927 7.794,-2.006 11.579,-3.23 45.89,-14.907 75.996,-49.44 97.103,-77.855 3.264,-4.405 4.165,-10.128 2.397,-15.316 z M 255.197,325.216 c -30.604,0 -55.506,-24.902 -55.506,-55.506 0,-30.604 24.902,-55.506 55.506,-55.506 30.604,0 55.506,24.902 55.506,55.506 0,30.604 -24.902,55.506 -55.506,55.506 z"
             id="path8-8-6-2-2-7-7-1-1-2"
             style="fill:#f71e31;fill-opacity:1" />
        </g>
      </g>
    </g>
    <g
       id="g3441-8-2-5-4-3-59"
       style="display:inline"
       transform="matrix(0.84905661,0,0,0.84905661,34.889713,17.638659)">
      <g
         id="g4022-16-9-0-5-3-71">
        <g
           id="g22226-7-5-3-3-4-0"
           transform="matrix(0.54835514,0,0,0.54835514,-13.965797,15.325438)"
           style="display:inline">
          <g
             id="g22138-63-0-1-9-3-4"
             transform="translate(-26.833461,54.442803)">
            <g
               id="Page-1-8-2-9-7-3-6-6"
               stroke="none"
               stroke-width="1"
               fill="none"
               fill-rule="evenodd"
               sketch:type="MSPage"
               style="fill:#81cc29;fill-opacity:1"
               transform="matrix(1.25,0,0,1.25,123.91155,12.485537)">
              <g
                 id="Icon-Set-Filled-05-1-35-9-0-66"
                 sketch:type="MSLayerGroup"
                 transform="translate(-519,-781)"
                 fill="#000000"
                 style="fill:#81cc29;fill-opacity:1">
                <path
                   d="M 542.067,786.028 C 540.599,783.053 537.543,781 534,781 c -4.749,0 -8.63,3.682 -8.967,8.345 C 521.542,790.34 519,793.39 519,797 c 0,4.26 3.54,7.755 8,8 h 15 c 4.966,0 9,-4.253 9,-9.5 0,-5.056 -3.951,-9.177 -8.933,-9.472"
                   id="cloud-9-9-4-4-0-8"
                   sketch:type="MSShapeGroup"
                   style="fill:#99ffcc;fill-opacity:1" />
              </g>
            </g>
            <path
               id="cloud-7-1-2-6-7-6-95"
               style="fill:#5de7a2;fill-opacity:1;fill-rule:evenodd;stroke:none;stroke-width:1.25"
               d="m 142.66142,12.485383 c -5.93625,0 -10.78737,4.602654 -11.20862,10.431404 -4.36375,1.243751 -7.54166,5.056426 -7.54166,9.568923 0,5.325002 4.42491,9.693659 9.99991,9.999909 h 4.23385 c -5.575,-0.30625 -10.00043,-4.674907 -10.00043,-9.999909 0,-4.512497 3.17791,-8.325172 7.54166,-9.568923 0.36984,-5.117375 4.15439,-9.28873 9.08989,-10.2309 -0.68475,-0.130707 -1.3914,-0.200504 -2.1146,-0.200504 z" />
          </g>
          <g
             id="g22138-4-9-1-4-7-5-7"
             transform="translate(0.33401899,35.484808)"
             style="display:inline">
            <g
               id="Page-1-8-0-6-9-8-0-6-7"
               stroke="none"
               stroke-width="1"
               fill="none"
               fill-rule="evenodd"
               sketch:type="MSPage"
               style="fill:#81cc29;fill-opacity:1"
               transform="matrix(1.25,0,0,1.25,123.91155,12.485537)">
              <g
                 id="Icon-Set-Filled-2-9-7-9-9-3-6"
                 sketch:type="MSLayerGroup"
                 transform="translate(-519,-781)"
                 fill="#000000"
                 style="fill:#81cc29;fill-opacity:1">
                <path
                   d="M 542.067,786.028 C 540.599,783.053 537.543,781 534,781 c -4.749,0 -8.63,3.682 -8.967,8.345 C 521.542,790.34 519,793.39 519,797 c 0,4.26 3.54,7.755 8,8 h 15 c 4.966,0 9,-4.253 9,-9.5 0,-5.056 -3.951,-9.177 -8.933,-9.472"
                   id="cloud-1-3-1-9-7-7-0"
                   sketch:type="MSShapeGroup"
                   style="fill:#99ffcc;fill-opacity:1" />
              </g>
            </g>
            <path
               id="cloud-7-8-0-5-2-3-9-6"
               style="fill:#5de7a2;fill-opacity:1;fill-rule:evenodd;stroke:none;stroke-width:1.25"
               d="m 142.66142,12.485383 c -5.93625,0 -10.78737,4.602654 -11.20862,10.431404 -4.36375,1.243751 -7.54166,5.056426 -7.54166,9.568923 0,5.325002 4.42491,9.693659 9.99991,9.999909 h 4.23385 c -5.575,-0.30625 -10.00043,-4.674907 -10.00043,-9.999909 0,-4.512497 3.17791,-8.325172 7.54166,-9.568923 0.36984,-5.117375 4.15439,-9.28873 9.08989,-10.2309 -0.68475,-0.130707 -1.3914,-0.200504 -2.1146,-0.200504 z" />
          </g>
          <g
             id="g22138-5-5-5-2-8-7-9"
             transform="translate(29.81882,54.442617)"
             style="display:inline">
            <g
               id="Page-1-8-4-0-7-7-1-4-5"
               stroke="none"
               stroke-width="1"
               fill="none"
               fill-rule="evenodd"
               sketch:type="MSPage"
               style="fill:#81cc29;fill-opacity:1"
               transform="matrix(1.25,0,0,1.25,123.91155,12.485537)">
              <g
                 id="Icon-Set-Filled-8-6-8-0-3-8-3"
                 sketch:type="MSLayerGroup"
                 transform="translate(-519,-781)"
                 fill="#000000"
                 style="fill:#81cc29;fill-opacity:1">
                <path
                   d="M 542.067,786.028 C 540.599,783.053 537.543,781 534,781 c -4.749,0 -8.63,3.682 -8.967,8.345 C 521.542,790.34 519,793.39 519,797 c 0,4.26 3.54,7.755 8,8 h 15 c 4.966,0 9,-4.253 9,-9.5 0,-5.056 -3.951,-9.177 -8.933,-9.472"
                   id="cloud-3-2-1-5-6-9-2"
                   sketch:type="MSShapeGroup"
                   style="fill:#99ffcc;fill-opacity:1" />
              </g>
            </g>
            <path
               id="cloud-7-4-7-3-4-3-9-2"
               style="fill:#5de7a2;fill-opacity:1;fill-rule:evenodd;stroke:none;stroke-width:1.25"
               d="m 142.66142,12.485383 c -5.93625,0 -10.78737,4.602654 -11.20862,10.431404 -4.36375,1.243751 -7.54166,5.056426 -7.54166,9.568923 0,5.325002 4.42491,9.693659 9.99991,9.999909 h 4.23385 c -5.575,-0.30625 -10.00043,-4.674907 -10.00043,-9.999909 0,-4.512497 3.17791,-8.325172 7.54166,-9.568923 0.36984,-5.117375 4.15439,-9.28873 9.08989,-10.2309 -0.68475,-0.130707 -1.3914,-0.200504 -2.1146,-0.200504 z" />
          </g>
        </g>
      </g>
      <g
         id="g12-2-2-1-8-6-6-6-6-6-7"
         transform="matrix(0.02343752,0,0,0.02343752,48.902568,50.278243)"
         style="display:inline;fill:#f71e31;fill-opacity:1">
        <g
           id="g10-8-6-3-7-1-5-7-9-0-6"
           style="fill:#f71e31;fill-opacity:1">
          <path
             d="m 511.109,220.854 c -1.777,-5.181 -5.984,-9.165 -11.263,-10.651 l -30.105,-8.456 19.384,-24.538 c 3.404,-4.298 4.466,-9.99 2.851,-15.226 -1.615,-5.236 -5.703,-9.339 -10.928,-10.982 -35.862,-11.259 -78.652,-20.739 -124.314,-5.908 -4.185,1.361 -8.337,2.922 -12.457,4.684 0.412,-4.462 0.618,-8.89 0.618,-13.28 0,-47.972 -22.289,-85.736 -44.102,-116.352 -3.176,-4.462 -8.586,-7.171 -13.822,-6.993 -5.475,0.087 -10.559,2.856 -13.595,7.416 L 256.085,46.516 238.783,20.568 c -3.035,-4.558 -8.119,-7.329 -13.595,-7.416 -5.377,-0.179 -10.657,2.531 -13.822,6.993 -21.802,30.598 -44.091,68.358 -44.091,116.352 0,4.347 0.207,8.732 0.607,13.145 -4.131,-1.74 -8.315,-3.285 -12.575,-4.646 -46.27,-14.847 -90.609,-4.558 -124.076,6.071 -5.214,1.653 -9.279,5.762 -10.874,10.987 -1.604,5.231 -0.542,10.911 2.841,15.199 l 19.308,24.463 -30.355,8.51 c -5.291,1.485 -9.507,5.481 -11.274,10.684 -1.756,5.204 -0.846,10.944 2.45,15.34 22.625,30.165 51.875,63.003 97.493,77.936 3.676,1.166 7.404,2.196 11.188,3.089 -2.2,2.618 -4.293,5.285 -6.267,8.006 -28.392,39.082 -32.448,84.696 -32.805,120.064 -0.054,5.481 2.591,10.635 7.068,13.784 4.477,3.161 10.234,3.898 15.362,2 l 29.336,-10.857 -1.258,31.265 c -0.216,5.475 2.266,10.706 6.656,13.991 4.369,3.279 10.093,4.19 15.296,2.461 33.531,-11.286 75.659,-29.244 104.042,-68.309 2.309,-3.182 4.51,-6.489 6.592,-9.903 2.07,3.42 4.272,6.727 6.581,9.909 28.381,39.065 70.52,57.024 104.052,68.304 1.735,0.579 3.535,0.867 5.312,0.867 3.556,0 7.068,-1.138 9.995,-3.328 4.379,-3.29 6.863,-8.521 6.645,-13.995 l -1.269,-31.26 29.336,10.857 c 5.128,1.897 10.885,1.16 15.362,-2 4.477,-3.149 7.123,-8.304 7.068,-13.784 -0.357,-35.363 -4.402,-80.971 -32.805,-120.054 -1.984,-2.732 -4.076,-5.415 -6.277,-8.038 3.935,-0.927 7.794,-2.006 11.579,-3.23 45.89,-14.907 75.996,-49.44 97.103,-77.855 3.264,-4.405 4.165,-10.128 2.397,-15.316 z M 255.197,325.216 c -30.604,0 -55.506,-24.902 -55.506,-55.506 0,-30.604 24.902,-55.506 55.506,-55.506 30.604,0 55.506,24.902 55.506,55.506 0,30.604 -24.902,55.506 -55.506,55.506 z"
             id="path8-8-6-2-9-0-84-4-3-2-2-7"
             style="fill:#f71e31;fill-opacity:1" />
        </g>
      </g>
      <g
         id="g12-2-2-1-5-2-0-8-4-5"
         transform="matrix(0.02343752,0,0,0.02343752,63.799995,39.882529)"
         style="display:inline;fill:#f71e31;fill-opacity:1">
        <g
           id="g10-8-6-3-9-5-5-2-5-7"
           style="fill:#f71e31;fill-opacity:1">
          <path
             d="m 511.109,220.854 c -1.777,-5.181 -5.984,-9.165 -11.263,-10.651 l -30.105,-8.456 19.384,-24.538 c 3.404,-4.298 4.466,-9.99 2.851,-15.226 -1.615,-5.236 -5.703,-9.339 -10.928,-10.982 -35.862,-11.259 -78.652,-20.739 -124.314,-5.908 -4.185,1.361 -8.337,2.922 -12.457,4.684 0.412,-4.462 0.618,-8.89 0.618,-13.28 0,-47.972 -22.289,-85.736 -44.102,-116.352 -3.176,-4.462 -8.586,-7.171 -13.822,-6.993 -5.475,0.087 -10.559,2.856 -13.595,7.416 L 256.085,46.516 238.783,20.568 c -3.035,-4.558 -8.119,-7.329 -13.595,-7.416 -5.377,-0.179 -10.657,2.531 -13.822,6.993 -21.802,30.598 -44.091,68.358 -44.091,116.352 0,4.347 0.207,8.732 0.607,13.145 -4.131,-1.74 -8.315,-3.285 -12.575,-4.646 -46.27,-14.847 -90.609,-4.558 -124.076,6.071 -5.214,1.653 -9.279,5.762 -10.874,10.987 -1.604,5.231 -0.542,10.911 2.841,15.199 l 19.308,24.463 -30.355,8.51 c -5.291,1.485 -9.507,5.481 -11.274,10.684 -1.756,5.204 -0.846,10.944 2.45,15.34 22.625,30.165 51.875,63.003 97.493,77.936 3.676,1.166 7.404,2.196 11.188,3.089 -2.2,2.618 -4.293,5.285 -6.267,8.006 -28.392,39.082 -32.448,84.696 -32.805,120.064 -0.054,5.481 2.591,10.635 7.068,13.784 4.477,3.161 10.234,3.898 15.362,2 l 29.336,-10.857 -1.258,31.265 c -0.216,5.475 2.266,10.706 6.656,13.991 4.369,3.279 10.093,4.19 15.296,2.461 33.531,-11.286 75.659,-29.244 104.042,-68.309 2.309,-3.182 4.51,-6.489 6.592,-9.903 2.07,3.42 4.272,6.727 6.581,9.909 28.381,39.065 70.52,57.024 104.052,68.304 1.735,0.579 3.535,0.867 5.312,0.867 3.556,0 7.068,-1.138 9.995,-3.328 4.379,-3.29 6.863,-8.521 6.645,-13.995 l -1.269,-31.26 29.336,10.857 c 5.128,1.897 10.885,1.16 15.362,-2 4.477,-3.149 7.123,-8.304 7.068,-13.784 -0.357,-35.363 -4.402,-80.971 -32.805,-120.054 -1.984,-2.732 -4.076,-5.415 -6.277,-8.038 3.935,-0.927 7.794,-2.006 11.579,-3.23 45.89,-14.907 75.996,-49.44 97.103,-77.855 3.264,-4.405 4.165,-10.128 2.397,-15.316 z M 255.197,325.216 c -30.604,0 -55.506,-24.902 -55.506,-55.506 0,-30.604 24.902,-55.506 55.506,-55.506 30.604,0 55.506,24.902 55.506,55.506 0,30.604 -24.902,55.506 -55.506,55.506 z"
             id="path8-8-6-2-9-63-0-1-5-4-1"
             style="fill:#f71e31;fill-opacity:1" />
        </g>
      </g>
      <g
         id="g12-2-2-14-2-8-3-2-5"
         transform="matrix(0.02343752,0,0,0.02343752,79.968137,50.278141)"
         style="display:inline;fill:#f71e31;fill-opacity:1">
        <g
           id="g10-8-6-5-7-8-9-0-7"
           style="fill:#f71e31;fill-opacity:1">
          <path
             d="m 511.109,220.854 c -1.777,-5.181 -5.984,-9.165 -11.263,-10.651 l -30.105,-8.456 19.384,-24.538 c 3.404,-4.298 4.466,-9.99 2.851,-15.226 -1.615,-5.236 -5.703,-9.339 -10.928,-10.982 -35.862,-11.259 -78.652,-20.739 -124.314,-5.908 -4.185,1.361 -8.337,2.922 -12.457,4.684 0.412,-4.462 0.618,-8.89 0.618,-13.28 0,-47.972 -22.289,-85.736 -44.102,-116.352 -3.176,-4.462 -8.586,-7.171 -13.822,-6.993 -5.475,0.087 -10.559,2.856 -13.595,7.416 L 256.085,46.516 238.783,20.568 c -3.035,-4.558 -8.119,-7.329 -13.595,-7.416 -5.377,-0.179 -10.657,2.531 -13.822,6.993 -21.802,30.598 -44.091,68.358 -44.091,116.352 0,4.347 0.207,8.732 0.607,13.145 -4.131,-1.74 -8.315,-3.285 -12.575,-4.646 -46.27,-14.847 -90.609,-4.558 -124.076,6.071 -5.214,1.653 -9.279,5.762 -10.874,10.987 -1.604,5.231 -0.542,10.911 2.841,15.199 l 19.308,24.463 -30.355,8.51 c -5.291,1.485 -9.507,5.481 -11.274,10.684 -1.756,5.204 -0.846,10.944 2.45,15.34 22.625,30.165 51.875,63.003 97.493,77.936 3.676,1.166 7.404,2.196 11.188,3.089 -2.2,2.618 -4.293,5.285 -6.267,8.006 -28.392,39.082 -32.448,84.696 -32.805,120.064 -0.054,5.481 2.591,10.635 7.068,13.784 4.477,3.161 10.234,3.898 15.362,2 l 29.336,-10.857 -1.258,31.265 c -0.216,5.475 2.266,10.706 6.656,13.991 4.369,3.279 10.093,4.19 15.296,2.461 33.531,-11.286 75.659,-29.244 104.042,-68.309 2.309,-3.182 4.51,-6.489 6.592,-9.903 2.07,3.42 4.272,6.727 6.581,9.909 28.381,39.065 70.52,57.024 104.052,68.304 1.735,0.579 3.535,0.867 5.312,0.867 3.556,0 7.068,-1.138 9.995,-3.328 4.379,-3.29 6.863,-8.521 6.645,-13.995 l -1.269,-31.26 29.336,10.857 c 5.128,1.897 10.885,1.16 15.362,-2 4.477,-3.149 7.123,-8.304 7.068,-13.784 -0.357,-35.363 -4.402,-80.971 -32.805,-120.054 -1.984,-2.732 -4.076,-5.415 -6.277,-8.038 3.935,-0.927 7.794,-2.006 11.579,-3.23 45.89,-14.907 75.996,-49.44 97.103,-77.855 3.264,-4.405 4.165,-10.128 2.397,-15.316 z M 255.197,325.216 c -30.604,0 -55.506,-24.902 -55.506,-55.506 0,-30.604 24.902,-55.506 55.506,-55.506 30.604,0 55.506,24.902 55.506,55.506 0,30.604 -24.902,55.506 -55.506,55.506 z"
             id="path8-8-6-2-2-7-7-1-1-5"
             style="fill:#f71e31;fill-opacity:1" />
        </g>
      </g>
    </g>
    <g
       id="g3441-8-2-5-4-3-59-3"
       style="display:inline"
       transform="matrix(0.84905661,0,0,0.84905661,49.883819,43.031805)">
      <g
         id="g4022-16-9-0-5-3-71-5">
        <g
           id="g22226-7-5-3-3-4-0-6"
           transform="matrix(0.54835514,0,0,0.54835514,-13.965797,15.325438)"
           style="display:inline">
          <g
             id="g22138-63-0-1-9-3-4-8"
             transform="translate(-26.833461,54.442803)">
            <g
               id="Page-1-8-2-9-7-3-6-6-2"
               stroke="none"
               stroke-width="1"
               fill="none"
               fill-rule="evenodd"
               sketch:type="MSPage"
               style="fill:#81cc29;fill-opacity:1"
               transform="matrix(1.25,0,0,1.25,123.91155,12.485537)">
              <g
                 id="Icon-Set-Filled-05-1-35-9-0-66-3"
                 sketch:type="MSLayerGroup"
                 transform="translate(-519,-781)"
                 fill="#000000"
                 style="fill:#81cc29;fill-opacity:1">
                <path
                   d="M 542.067,786.028 C 540.599,783.053 537.543,781 534,781 c -4.749,0 -8.63,3.682 -8.967,8.345 C 521.542,790.34 519,793.39 519,797 c 0,4.26 3.54,7.755 8,8 h 15 c 4.966,0 9,-4.253 9,-9.5 0,-5.056 -3.951,-9.177 -8.933,-9.472"
                   id="cloud-9-9-4-4-0-8-5"
                   sketch:type="MSShapeGroup"
                   style="fill:#99ffcc;fill-opacity:1" />
              </g>
            </g>
            <path
               id="cloud-7-1-2-6-7-6-95-5"
               style="fill:#5de7a2;fill-opacity:1;fill-rule:evenodd;stroke:none;stroke-width:1.25"
               d="m 142.66142,12.485383 c -5.93625,0 -10.78737,4.602654 -11.20862,10.431404 -4.36375,1.243751 -7.54166,5.056426 -7.54166,9.568923 0,5.325002 4.42491,9.693659 9.99991,9.999909 h 4.23385 c -5.575,-0.30625 -10.00043,-4.674907 -10.00043,-9.999909 0,-4.512497 3.17791,-8.325172 7.54166,-9.568923 0.36984,-5.117375 4.15439,-9.28873 9.08989,-10.2309 -0.68475,-0.130707 -1.3914,-0.200504 -2.1146,-0.200504 z" />
          </g>
          <g
             id="g22138-4-9-1-4-7-5-7-6"
             transform="translate(0.33401899,35.484808)"
             style="display:inline">
            <g
               id="Page-1-8-0-6-9-8-0-6-7-1"
               stroke="none"
               stroke-width="1"
               fill="none"
               fill-rule="evenodd"
               sketch:type="MSPage"
               style="fill:#81cc29;fill-opacity:1"
               transform="matrix(1.25,0,0,1.25,123.91155,12.485537)">
              <g
                 id="Icon-Set-Filled-2-9-7-9-9-3-6-9"
                 sketch:type="MSLayerGroup"
                 transform="translate(-519,-781)"
                 fill="#000000"
                 style="fill:#81cc29;fill-opacity:1">
                <path
                   d="M 542.067,786.028 C 540.599,783.053 537.543,781 534,781 c -4.749,0 -8.63,3.682 -8.967,8.345 C 521.542,790.34 519,793.39 519,797 c 0,4.26 3.54,7.755 8,8 h 15 c 4.966,0 9,-4.253 9,-9.5 0,-5.056 -3.951,-9.177 -8.933,-9.472"
                   id="cloud-1-3-1-9-7-7-0-2"
                   sketch:type="MSShapeGroup"
                   style="fill:#99ffcc;fill-opacity:1" />
              </g>
            </g>
            <path
               id="cloud-7-8-0-5-2-3-9-6-5"
               style="fill:#5de7a2;fill-opacity:1;fill-rule:evenodd;stroke:none;stroke-width:1.25"
               d="m 142.66142,12.485383 c -5.93625,0 -10.78737,4.602654 -11.20862,10.431404 -4.36375,1.243751 -7.54166,5.056426 -7.54166,9.568923 0,5.325002 4.42491,9.693659 9.99991,9.999909 h 4.23385 c -5.575,-0.30625 -10.00043,-4.674907 -10.00043,-9.999909 0,-4.512497 3.17791,-8.325172 7.54166,-9.568923 0.36984,-5.117375 4.15439,-9.28873 9.08989,-10.2309 -0.68475,-0.130707 -1.3914,-0.200504 -2.1146,-0.200504 z" />
          </g>
          <g
             id="g22138-5-5-5-2-8-7-9-8"
             transform="translate(29.81882,54.442617)"
             style="display:inline">
            <g
               id="Page-1-8-4-0-7-7-1-4-5-6"
               stroke="none"
               stroke-width="1"
               fill="none"
               fill-rule="evenodd"
               sketch:type="MSPage"
               style="fill:#81cc29;fill-opacity:1"
               transform="matrix(1.25,0,0,1.25,123.91155,12.485537)">
              <g
                 id="Icon-Set-Filled-8-6-8-0-3-8-3-6"
                 sketch:type="MSLayerGroup"
                 transform="translate(-519,-781)"
                 fill="#000000"
                 style="fill:#81cc29;fill-opacity:1">
                <path
                   d="M 542.067,786.028 C 540.599,783.053 537.543,781 534,781 c -4.749,0 -8.63,3.682 -8.967,8.345 C 521.542,790.34 519,793.39 519,797 c 0,4.26 3.54,7.755 8,8 h 15 c 4.966,0 9,-4.253 9,-9.5 0,-5.056 -3.951,-9.177 -8.933,-9.472"
                   id="cloud-3-2-1-5-6-9-2-8"
                   sketch:type="MSShapeGroup"
                   style="fill:#99ffcc;fill-opacity:1" />
              </g>
            </g>
            <path
               id="cloud-7-4-7-3-4-3-9-2-3"
               style="fill:#5de7a2;fill-opacity:1;fill-rule:evenodd;stroke:none;stroke-width:1.25"
               d="m 142.66142,12.485383 c -5.93625,0 -10.78737,4.602654 -11.20862,10.431404 -4.36375,1.243751 -7.54166,5.056426 -7.54166,9.568923 0,5.325002 4.42491,9.693659 9.99991,9.999909 h 4.23385 c -5.575,-0.30625 -10.00043,-4.674907 -10.00043,-9.999909 0,-4.512497 3.17791,-8.325172 7.54166,-9.568923 0.36984,-5.117375 4.15439,-9.28873 9.08989,-10.2309 -0.68475,-0.130707 -1.3914,-0.200504 -2.1146,-0.200504 z" />
          </g>
        </g>
      </g>
      <g
         id="g12-2-2-1-8-6-6-6-6-6-7-8"
         transform="matrix(0.02343752,0,0,0.02343752,48.902568,50.278243)"
         style="display:inline;fill:#f71e31;fill-opacity:1">
        <g
           id="g10-8-6-3-7-1-5-7-9-0-6-3"
           style="fill:#f71e31;fill-opacity:1">
          <path
             d="m 511.109,220.854 c -1.777,-5.181 -5.984,-9.165 -11.263,-10.651 l -30.105,-8.456 19.384,-24.538 c 3.404,-4.298 4.466,-9.99 2.851,-15.226 -1.615,-5.236 -5.703,-9.339 -10.928,-10.982 -35.862,-11.259 -78.652,-20.739 -124.314,-5.908 -4.185,1.361 -8.337,2.922 -12.457,4.684 0.412,-4.462 0.618,-8.89 0.618,-13.28 0,-47.972 -22.289,-85.736 -44.102,-116.352 -3.176,-4.462 -8.586,-7.171 -13.822,-6.993 -5.475,0.087 -10.559,2.856 -13.595,7.416 L 256.085,46.516 238.783,20.568 c -3.035,-4.558 -8.119,-7.329 -13.595,-7.416 -5.377,-0.179 -10.657,2.531 -13.822,6.993 -21.802,30.598 -44.091,68.358 -44.091,116.352 0,4.347 0.207,8.732 0.607,13.145 -4.131,-1.74 -8.315,-3.285 -12.575,-4.646 -46.27,-14.847 -90.609,-4.558 -124.076,6.071 -5.214,1.653 -9.279,5.762 -10.874,10.987 -1.604,5.231 -0.542,10.911 2.841,15.199 l 19.308,24.463 -30.355,8.51 c -5.291,1.485 -9.507,5.481 -11.274,10.684 -1.756,5.204 -0.846,10.944 2.45,15.34 22.625,30.165 51.875,63.003 97.493,77.936 3.676,1.166 7.404,2.196 11.188,3.089 -2.2,2.618 -4.293,5.285 -6.267,8.006 -28.392,39.082 -32.448,84.696 -32.805,120.064 -0.054,5.481 2.591,10.635 7.068,13.784 4.477,3.161 10.234,3.898 15.362,2 l 29.336,-10.857 -1.258,31.265 c -0.216,5.475 2.266,10.706 6.656,13.991 4.369,3.279 10.093,4.19 15.296,2.461 33.531,-11.286 75.659,-29.244 104.042,-68.309 2.309,-3.182 4.51,-6.489 6.592,-9.903 2.07,3.42 4.272,6.727 6.581,9.909 28.381,39.065 70.52,57.024 104.052,68.304 1.735,0.579 3.535,0.867 5.312,0.867 3.556,0 7.068,-1.138 9.995,-3.328 4.379,-3.29 6.863,-8.521 6.645,-13.995 l -1.269,-31.26 29.336,10.857 c 5.128,1.897 10.885,1.16 15.362,-2 4.477,-3.149 7.123,-8.304 7.068,-13.784 -0.357,-35.363 -4.402,-80.971 -32.805,-120.054 -1.984,-2.732 -4.076,-5.415 -6.277,-8.038 3.935,-0.927 7.794,-2.006 11.579,-3.23 45.89,-14.907 75.996,-49.44 97.103,-77.855 3.264,-4.405 4.165,-10.128 2.397,-15.316 z M 255.197,325.216 c -30.604,0 -55.506,-24.902 -55.506,-55.506 0,-30.604 24.902,-55.506 55.506,-55.506 30.604,0 55.506,24.902 55.506,55.506 0,30.604 -24.902,55.506 -55.506,55.506 z"
             id="path8-8-6-2-9-0-84-4-3-2-2-7-6"
             style="fill:#f71e31;fill-opacity:1" />
        </g>
      </g>
      <g
         id="g12-2-2-1-5-2-0-8-4-5-2"
         transform="matrix(0.02343752,0,0,0.02343752,63.799995,39.882529)"
         style="display:inline;fill:#f71e31;fill-opacity:1">
        <g
           id="g10-8-6-3-9-5-5-2-5-7-6"
           style="fill:#f71e31;fill-opacity:1">
          <path
             d="m 511.109,220.854 c -1.777,-5.181 -5.984,-9.165 -11.263,-10.651 l -30.105,-8.456 19.384,-24.538 c 3.404,-4.298 4.466,-9.99 2.851,-15.226 -1.615,-5.236 -5.703,-9.339 -10.928,-10.982 -35.862,-11.259 -78.652,-20.739 -124.314,-5.908 -4.185,1.361 -8.337,2.922 -12.457,4.684 0.412,-4.462 0.618,-8.89 0.618,-13.28 0,-47.972 -22.289,-85.736 -44.102,-116.352 -3.176,-4.462 -8.586,-7.171 -13.822,-6.993 -5.475,0.087 -10.559,2.856 -13.595,7.416 L 256.085,46.516 238.783,20.568 c -3.035,-4.558 -8.119,-7.329 -13.595,-7.416 -5.377,-0.179 -10.657,2.531 -13.822,6.993 -21.802,30.598 -44.091,68.358 -44.091,116.352 0,4.347 0.207,8.732 0.607,13.145 -4.131,-1.74 -8.315,-3.285 -12.575,-4.646 -46.27,-14.847 -90.609,-4.558 -124.076,6.071 -5.214,1.653 -9.279,5.762 -10.874,10.987 -1.604,5.231 -0.542,10.911 2.841,15.199 l 19.308,24.463 -30.355,8.51 c -5.291,1.485 -9.507,5.481 -11.274,10.684 -1.756,5.204 -0.846,10.944 2.45,15.34 22.625,30.165 51.875,63.003 97.493,77.936 3.676,1.166 7.404,2.196 11.188,3.089 -2.2,2.618 -4.293,5.285 -6.267,8.006 -28.392,39.082 -32.448,84.696 -32.805,120.064 -0.054,5.481 2.591,10.635 7.068,13.784 4.477,3.161 10.234,3.898 15.362,2 l 29.336,-10.857 -1.258,31.265 c -0.216,5.475 2.266,10.706 6.656,13.991 4.369,3.279 10.093,4.19 15.296,2.461 33.531,-11.286 75.659,-29.244 104.042,-68.309 2.309,-3.182 4.51,-6.489 6.592,-9.903 2.07,3.42 4.272,6.727 6.581,9.909 28.381,39.065 70.52,57.024 104.052,68.304 1.735,0.579 3.535,0.867 5.312,0.867 3.556,0 7.068,-1.138 9.995,-3.328 4.379,-3.29 6.863,-8.521 6.645,-13.995 l -1.269,-31.26 29.336,10.857 c 5.128,1.897 10.885,1.16 15.362,-2 4.477,-3.149 7.123,-8.304 7.068,-13.784 -0.357,-35.363 -4.402,-80.971 -32.805,-120.054 -1.984,-2.732 -4.076,-5.415 -6.277,-8.038 3.935,-0.927 7.794,-2.006 11.579,-3.23 45.89,-14.907 75.996,-49.44 97.103,-77.855 3.264,-4.405 4.165,-10.128 2.397,-15.316 z M 255.197,325.216 c -30.604,0 -55.506,-24.902 -55.506,-55.506 0,-30.604 24.902,-55.506 55.506,-55.506 30.604,0 55.506,24.902 55.506,55.506 0,30.604 -24.902,55.506 -55.506,55.506 z"
             id="path8-8-6-2-9-63-0-1-5-4-1-7"
             style="fill:#f71e31;fill-opacity:1" />
        </g>
      </g>
      <g
         id="g12-2-2-14-2-8-3-2-5-6"
         transform="matrix(0.02343752,0,0,0.02343752,79.968137,50.278141)"
         style="display:inline;fill:#f71e31;fill-opacity:1">
        <g
           id="g10-8-6-5-7-8-9-0-7-6"
           style="fill:#f71e31;fill-opacity:1">
          <path
             d="m 511.109,220.854 c -1.777,-5.181 -5.984,-9.165 -11.263,-10.651 l -30.105,-8.456 19.384,-24.538 c 3.404,-4.298 4.466,-9.99 2.851,-15.226 -1.615,-5.236 -5.703,-9.339 -10.928,-10.982 -35.862,-11.259 -78.652,-20.739 -124.314,-5.908 -4.185,1.361 -8.337,2.922 -12.457,4.684 0.412,-4.462 0.618,-8.89 0.618,-13.28 0,-47.972 -22.289,-85.736 -44.102,-116.352 -3.176,-4.462 -8.586,-7.171 -13.822,-6.993 -5.475,0.087 -10.559,2.856 -13.595,7.416 L 256.085,46.516 238.783,20.568 c -3.035,-4.558 -8.119,-7.329 -13.595,-7.416 -5.377,-0.179 -10.657,2.531 -13.822,6.993 -21.802,30.598 -44.091,68.358 -44.091,116.352 0,4.347 0.207,8.732 0.607,13.145 -4.131,-1.74 -8.315,-3.285 -12.575,-4.646 -46.27,-14.847 -90.609,-4.558 -124.076,6.071 -5.214,1.653 -9.279,5.762 -10.874,10.987 -1.604,5.231 -0.542,10.911 2.841,15.199 l 19.308,24.463 -30.355,8.51 c -5.291,1.485 -9.507,5.481 -11.274,10.684 -1.756,5.204 -0.846,10.944 2.45,15.34 22.625,30.165 51.875,63.003 97.493,77.936 3.676,1.166 7.404,2.196 11.188,3.089 -2.2,2.618 -4.293,5.285 -6.267,8.006 -28.392,39.082 -32.448,84.696 -32.805,120.064 -0.054,5.481 2.591,10.635 7.068,13.784 4.477,3.161 10.234,3.898 15.362,2 l 29.336,-10.857 -1.258,31.265 c -0.216,5.475 2.266,10.706 6.656,13.991 4.369,3.279 10.093,4.19 15.296,2.461 33.531,-11.286 75.659,-29.244 104.042,-68.309 2.309,-3.182 4.51,-6.489 6.592,-9.903 2.07,3.42 4.272,6.727 6.581,9.909 28.381,39.065 70.52,57.024 104.052,68.304 1.735,0.579 3.535,0.867 5.312,0.867 3.556,0 7.068,-1.138 9.995,-3.328 4.379,-3.29 6.863,-8.521 6.645,-13.995 l -1.269,-31.26 29.336,10.857 c 5.128,1.897 10.885,1.16 15.362,-2 4.477,-3.149 7.123,-8.304 7.068,-13.784 -0.357,-35.363 -4.402,-80.971 -32.805,-120.054 -1.984,-2.732 -4.076,-5.415 -6.277,-8.038 3.935,-0.927 7.794,-2.006 11.579,-3.23 45.89,-14.907 75.996,-49.44 97.103,-77.855 3.264,-4.405 4.165,-10.128 2.397,-15.316 z M 255.197,325.216 c -30.604,0 -55.506,-24.902 -55.506,-55.506 0,-30.604 24.902,-55.506 55.506,-55.506 30.604,0 55.506,24.902 55.506,55.506 0,30.604 -24.902,55.506 -55.506,55.506 z"
             id="path8-8-6-2-2-7-7-1-1-5-6"
             style="fill:#f71e31;fill-opacity:1" />
        </g>
      </g>
    </g>
    <g
       id="g3441-8-2-5-4-3-59-2"
       style="display:inline"
       transform="matrix(0.75471698,0,0,0.75471698,43.591767,73.345749)">
      <g
         id="g4022-16-9-0-5-3-71-2">
        <g
           id="g22226-7-5-3-3-4-0-9"
           transform="matrix(0.54835514,0,0,0.54835514,-13.965797,15.325438)"
           style="display:inline">
          <g
             id="g22138-63-0-1-9-3-4-4"
             transform="translate(-26.833461,54.442803)">
            <g
               id="Page-1-8-2-9-7-3-6-6-6"
               stroke="none"
               stroke-width="1"
               fill="none"
               fill-rule="evenodd"
               sketch:type="MSPage"
               style="fill:#81cc29;fill-opacity:1"
               transform="matrix(1.25,0,0,1.25,123.91155,12.485537)">
              <g
                 id="Icon-Set-Filled-05-1-35-9-0-66-6"
                 sketch:type="MSLayerGroup"
                 transform="translate(-519,-781)"
                 fill="#000000"
                 style="fill:#81cc29;fill-opacity:1">
                <path
                   d="M 542.067,786.028 C 540.599,783.053 537.543,781 534,781 c -4.749,0 -8.63,3.682 -8.967,8.345 C 521.542,790.34 519,793.39 519,797 c 0,4.26 3.54,7.755 8,8 h 15 c 4.966,0 9,-4.253 9,-9.5 0,-5.056 -3.951,-9.177 -8.933,-9.472"
                   id="cloud-9-9-4-4-0-8-8"
                   sketch:type="MSShapeGroup"
                   style="fill:#99ffcc;fill-opacity:1" />
              </g>
            </g>
            <path
               id="cloud-7-1-2-6-7-6-95-8"
               style="fill:#5de7a2;fill-opacity:1;fill-rule:evenodd;stroke:none;stroke-width:1.25"
               d="m 142.66142,12.485383 c -5.93625,0 -10.78737,4.602654 -11.20862,10.431404 -4.36375,1.243751 -7.54166,5.056426 -7.54166,9.568923 0,5.325002 4.42491,9.693659 9.99991,9.999909 h 4.23385 c -5.575,-0.30625 -10.00043,-4.674907 -10.00043,-9.999909 0,-4.512497 3.17791,-8.325172 7.54166,-9.568923 0.36984,-5.117375 4.15439,-9.28873 9.08989,-10.2309 -0.68475,-0.130707 -1.3914,-0.200504 -2.1146,-0.200504 z" />
          </g>
          <g
             id="g22138-4-9-1-4-7-5-7-4"
             transform="translate(0.33401899,35.484808)"
             style="display:inline">
            <g
               id="Page-1-8-0-6-9-8-0-6-7-2"
               stroke="none"
               stroke-width="1"
               fill="none"
               fill-rule="evenodd"
               sketch:type="MSPage"
               style="fill:#81cc29;fill-opacity:1"
               transform="matrix(1.25,0,0,1.25,123.91155,12.485537)">
              <g
                 id="Icon-Set-Filled-2-9-7-9-9-3-6-92"
                 sketch:type="MSLayerGroup"
                 transform="translate(-519,-781)"
                 fill="#000000"
                 style="fill:#81cc29;fill-opacity:1">
                <path
                   d="M 542.067,786.028 C 540.599,783.053 537.543,781 534,781 c -4.749,0 -8.63,3.682 -8.967,8.345 C 521.542,790.34 519,793.39 519,797 c 0,4.26 3.54,7.755 8,8 h 15 c 4.966,0 9,-4.253 9,-9.5 0,-5.056 -3.951,-9.177 -8.933,-9.472"
                   id="cloud-1-3-1-9-7-7-0-8"
                   sketch:type="MSShapeGroup"
                   style="fill:#99ffcc;fill-opacity:1" />
              </g>
            </g>
            <path
               id="cloud-7-8-0-5-2-3-9-6-3"
               style="fill:#5de7a2;fill-opacity:1;fill-rule:evenodd;stroke:none;stroke-width:1.25"
               d="m 142.66142,12.485383 c -5.93625,0 -10.78737,4.602654 -11.20862,10.431404 -4.36375,1.243751 -7.54166,5.056426 -7.54166,9.568923 0,5.325002 4.42491,9.693659 9.99991,9.999909 h 4.23385 c -5.575,-0.30625 -10.00043,-4.674907 -10.00043,-9.999909 0,-4.512497 3.17791,-8.325172 7.54166,-9.568923 0.36984,-5.117375 4.15439,-9.28873 9.08989,-10.2309 -0.68475,-0.130707 -1.3914,-0.200504 -2.1146,-0.200504 z" />
          </g>
          <g
             id="g22138-5-5-5-2-8-7-9-0"
             transform="translate(29.81882,54.442617)"
             style="display:inline">
            <g
               id="Page-1-8-4-0-7-7-1-4-5-3"
               stroke="none"
               stroke-width="1"
               fill="none"
               fill-rule="evenodd"
               sketch:type="MSPage"
               style="fill:#81cc29;fill-opacity:1"
               transform="matrix(1.25,0,0,1.25,123.91155,12.485537)">
              <g
                 id="Icon-Set-Filled-8-6-8-0-3-8-3-7"
                 sketch:type="MSLayerGroup"
                 transform="translate(-519,-781)"
                 fill="#000000"
                 style="fill:#81cc29;fill-opacity:1">
                <path
                   d="M 542.067,786.028 C 540.599,783.053 537.543,781 534,781 c -4.749,0 -8.63,3.682 -8.967,8.345 C 521.542,790.34 519,793.39 519,797 c 0,4.26 3.54,7.755 8,8 h 15 c 4.966,0 9,-4.253 9,-9.5 0,-5.056 -3.951,-9.177 -8.933,-9.472"
                   id="cloud-3-2-1-5-6-9-2-86"
                   sketch:type="MSShapeGroup"
                   style="fill:#99ffcc;fill-opacity:1" />
              </g>
            </g>
            <path
               id="cloud-7-4-7-3-4-3-9-2-4"
               style="fill:#5de7a2;fill-opacity:1;fill-rule:evenodd;stroke:none;stroke-width:1.25"
               d="m 142.66142,12.485383 c -5.93625,0 -10.78737,4.602654 -11.20862,10.431404 -4.36375,1.243751 -7.54166,5.056426 -7.54166,9.568923 0,5.325002 4.42491,9.693659 9.99991,9.999909 h 4.23385 c -5.575,-0.30625 -10.00043,-4.674907 -10.00043,-9.999909 0,-4.512497 3.17791,-8.325172 7.54166,-9.568923 0.36984,-5.117375 4.15439,-9.28873 9.08989,-10.2309 -0.68475,-0.130707 -1.3914,-0.200504 -2.1146,-0.200504 z" />
          </g>
        </g>
      </g>
      <g
         id="g12-2-2-1-8-6-6-6-6-6-7-9"
         transform="matrix(0.02343752,0,0,0.02343752,48.902568,50.278243)"
         style="display:inline;fill:#f71e31;fill-opacity:1">
        <g
           id="g10-8-6-3-7-1-5-7-9-0-6-6"
           style="fill:#f71e31;fill-opacity:1">
          <path
             d="m 511.109,220.854 c -1.777,-5.181 -5.984,-9.165 -11.263,-10.651 l -30.105,-8.456 19.384,-24.538 c 3.404,-4.298 4.466,-9.99 2.851,-15.226 -1.615,-5.236 -5.703,-9.339 -10.928,-10.982 -35.862,-11.259 -78.652,-20.739 -124.314,-5.908 -4.185,1.361 -8.337,2.922 -12.457,4.684 0.412,-4.462 0.618,-8.89 0.618,-13.28 0,-47.972 -22.289,-85.736 -44.102,-116.352 -3.176,-4.462 -8.586,-7.171 -13.822,-6.993 -5.475,0.087 -10.559,2.856 -13.595,7.416 L 256.085,46.516 238.783,20.568 c -3.035,-4.558 -8.119,-7.329 -13.595,-7.416 -5.377,-0.179 -10.657,2.531 -13.822,6.993 -21.802,30.598 -44.091,68.358 -44.091,116.352 0,4.347 0.207,8.732 0.607,13.145 -4.131,-1.74 -8.315,-3.285 -12.575,-4.646 -46.27,-14.847 -90.609,-4.558 -124.076,6.071 -5.214,1.653 -9.279,5.762 -10.874,10.987 -1.604,5.231 -0.542,10.911 2.841,15.199 l 19.308,24.463 -30.355,8.51 c -5.291,1.485 -9.507,5.481 -11.274,10.684 -1.756,5.204 -0.846,10.944 2.45,15.34 22.625,30.165 51.875,63.003 97.493,77.936 3.676,1.166 7.404,2.196 11.188,3.089 -2.2,2.618 -4.293,5.285 -6.267,8.006 -28.392,39.082 -32.448,84.696 -32.805,120.064 -0.054,5.481 2.591,10.635 7.068,13.784 4.477,3.161 10.234,3.898 15.362,2 l 29.336,-10.857 -1.258,31.265 c -0.216,5.475 2.266,10.706 6.656,13.991 4.369,3.279 10.093,4.19 15.296,2.461 33.531,-11.286 75.659,-29.244 104.042,-68.309 2.309,-3.182 4.51,-6.489 6.592,-9.903 2.07,3.42 4.272,6.727 6.581,9.909 28.381,39.065 70.52,57.024 104.052,68.304 1.735,0.579 3.535,0.867 5.312,0.867 3.556,0 7.068,-1.138 9.995,-3.328 4.379,-3.29 6.863,-8.521 6.645,-13.995 l -1.269,-31.26 29.336,10.857 c 5.128,1.897 10.885,1.16 15.362,-2 4.477,-3.149 7.123,-8.304 7.068,-13.784 -0.357,-35.363 -4.402,-80.971 -32.805,-120.054 -1.984,-2.732 -4.076,-5.415 -6.277,-8.038 3.935,-0.927 7.794,-2.006 11.579,-3.23 45.89,-14.907 75.996,-49.44 97.103,-77.855 3.264,-4.405 4.165,-10.128 2.397,-15.316 z M 255.197,325.216 c -30.604,0 -55.506,-24.902 -55.506,-55.506 0,-30.604 24.902,-55.506 55.506,-55.506 30.604,0 55.506,24.902 55.506,55.506 0,30.604 -24.902,55.506 -55.506,55.506 z"
             id="path8-8-6-2-9-0-84-4-3-2-2-7-7"
             style="fill:#f71e31;fill-opacity:1" />
        </g>
      </g>
      <g
         id="g12-2-2-1-5-2-0-8-4-5-20"
         transform="matrix(0.02343752,0,0,0.02343752,63.799995,39.882529)"
         style="display:inline;fill:#f71e31;fill-opacity:1">
        <g
           id="g10-8-6-3-9-5-5-2-5-7-2"
           style="fill:#f71e31;fill-opacity:1">
          <path
             d="m 511.109,220.854 c -1.777,-5.181 -5.984,-9.165 -11.263,-10.651 l -30.105,-8.456 19.384,-24.538 c 3.404,-4.298 4.466,-9.99 2.851,-15.226 -1.615,-5.236 -5.703,-9.339 -10.928,-10.982 -35.862,-11.259 -78.652,-20.739 -124.314,-5.908 -4.185,1.361 -8.337,2.922 -12.457,4.684 0.412,-4.462 0.618,-8.89 0.618,-13.28 0,-47.972 -22.289,-85.736 -44.102,-116.352 -3.176,-4.462 -8.586,-7.171 -13.822,-6.993 -5.475,0.087 -10.559,2.856 -13.595,7.416 L 256.085,46.516 238.783,20.568 c -3.035,-4.558 -8.119,-7.329 -13.595,-7.416 -5.377,-0.179 -10.657,2.531 -13.822,6.993 -21.802,30.598 -44.091,68.358 -44.091,116.352 0,4.347 0.207,8.732 0.607,13.145 -4.131,-1.74 -8.315,-3.285 -12.575,-4.646 -46.27,-14.847 -90.609,-4.558 -124.076,6.071 -5.214,1.653 -9.279,5.762 -10.874,10.987 -1.604,5.231 -0.542,10.911 2.841,15.199 l 19.308,24.463 -30.355,8.51 c -5.291,1.485 -9.507,5.481 -11.274,10.684 -1.756,5.204 -0.846,10.944 2.45,15.34 22.625,30.165 51.875,63.003 97.493,77.936 3.676,1.166 7.404,2.196 11.188,3.089 -2.2,2.618 -4.293,5.285 -6.267,8.006 -28.392,39.082 -32.448,84.696 -32.805,120.064 -0.054,5.481 2.591,10.635 7.068,13.784 4.477,3.161 10.234,3.898 15.362,2 l 29.336,-10.857 -1.258,31.265 c -0.216,5.475 2.266,10.706 6.656,13.991 4.369,3.279 10.093,4.19 15.296,2.461 33.531,-11.286 75.659,-29.244 104.042,-68.309 2.309,-3.182 4.51,-6.489 6.592,-9.903 2.07,3.42 4.272,6.727 6.581,9.909 28.381,39.065 70.52,57.024 104.052,68.304 1.735,0.579 3.535,0.867 5.312,0.867 3.556,0 7.068,-1.138 9.995,-3.328 4.379,-3.29 6.863,-8.521 6.645,-13.995 l -1.269,-31.26 29.336,10.857 c 5.128,1.897 10.885,1.16 15.362,-2 4.477,-3.149 7.123,-8.304 7.068,-13.784 -0.357,-35.363 -4.402,-80.971 -32.805,-120.054 -1.984,-2.732 -4.076,-5.415 -6.277,-8.038 3.935,-0.927 7.794,-2.006 11.579,-3.23 45.89,-14.907 75.996,-49.44 97.103,-77.855 3.264,-4.405 4.165,-10.128 2.397,-15.316 z M 255.197,325.216 c -30.604,0 -55.506,-24.902 -55.506,-55.506 0,-30.604 24.902,-55.506 55.506,-55.506 30.604,0 55.506,24.902 55.506,55.506 0,30.604 -24.902,55.506 -55.506,55.506 z"
             id="path8-8-6-2-9-63-0-1-5-4-1-72"
             style="fill:#f71e31;fill-opacity:1" />
        </g>
      </g>
      <g
         id="g12-2-2-14-2-8-3-2-5-3"
         transform="matrix(0.02343752,0,0,0.02343752,79.968137,50.278141)"
         style="display:inline;fill:#f71e31;fill-opacity:1">
        <g
           id="g10-8-6-5-7-8-9-0-7-8"
           style="fill:#f71e31;fill-opacity:1">
          <path
             d="m 511.109,220.854 c -1.777,-5.181 -5.984,-9.165 -11.263,-10.651 l -30.105,-8.456 19.384,-24.538 c 3.404,-4.298 4.466,-9.99 2.851,-15.226 -1.615,-5.236 -5.703,-9.339 -10.928,-10.982 -35.862,-11.259 -78.652,-20.739 -124.314,-5.908 -4.185,1.361 -8.337,2.922 -12.457,4.684 0.412,-4.462 0.618,-8.89 0.618,-13.28 0,-47.972 -22.289,-85.736 -44.102,-116.352 -3.176,-4.462 -8.586,-7.171 -13.822,-6.993 -5.475,0.087 -10.559,2.856 -13.595,7.416 L 256.085,46.516 238.783,20.568 c -3.035,-4.558 -8.119,-7.329 -13.595,-7.416 -5.377,-0.179 -10.657,2.531 -13.822,6.993 -21.802,30.598 -44.091,68.358 -44.091,116.352 0,4.347 0.207,8.732 0.607,13.145 -4.131,-1.74 -8.315,-3.285 -12.575,-4.646 -46.27,-14.847 -90.609,-4.558 -124.076,6.071 -5.214,1.653 -9.279,5.762 -10.874,10.987 -1.604,5.231 -0.542,10.911 2.841,15.199 l 19.308,24.463 -30.355,8.51 c -5.291,1.485 -9.507,5.481 -11.274,10.684 -1.756,5.204 -0.846,10.944 2.45,15.34 22.625,30.165 51.875,63.003 97.493,77.936 3.676,1.166 7.404,2.196 11.188,3.089 -2.2,2.618 -4.293,5.285 -6.267,8.006 -28.392,39.082 -32.448,84.696 -32.805,120.064 -0.054,5.481 2.591,10.635 7.068,13.784 4.477,3.161 10.234,3.898 15.362,2 l 29.336,-10.857 -1.258,31.265 c -0.216,5.475 2.266,10.706 6.656,13.991 4.369,3.279 10.093,4.19 15.296,2.461 33.531,-11.286 75.659,-29.244 104.042,-68.309 2.309,-3.182 4.51,-6.489 6.592,-9.903 2.07,3.42 4.272,6.727 6.581,9.909 28.381,39.065 70.52,57.024 104.052,68.304 1.735,0.579 3.535,0.867 5.312,0.867 3.556,0 7.068,-1.138 9.995,-3.328 4.379,-3.29 6.863,-8.521 6.645,-13.995 l -1.269,-31.26 29.336,10.857 c 5.128,1.897 10.885,1.16 15.362,-2 4.477,-3.149 7.123,-8.304 7.068,-13.784 -0.357,-35.363 -4.402,-80.971 -32.805,-120.054 -1.984,-2.732 -4.076,-5.415 -6.277,-8.038 3.935,-0.927 7.794,-2.006 11.579,-3.23 45.89,-14.907 75.996,-49.44 97.103,-77.855 3.264,-4.405 4.165,-10.128 2.397,-15.316 z M 255.197,325.216 c -30.604,0 -55.506,-24.902 -55.506,-55.506 0,-30.604 24.902,-55.506 55.506,-55.506 30.604,0 55.506,24.902 55.506,55.506 0,30.604 -24.902,55.506 -55.506,55.506 z"
             id="path8-8-6-2-2-7-7-1-1-5-8"
             style="fill:#f71e31;fill-opacity:1" />
        </g>
      </g>
    </g>
  </g>
</svg>
