<?xml version="1.0" encoding="UTF-8" standalone="no"?>
<!-- Created with Inkscape (http://www.inkscape.org/) -->

<svg
   width="500"
   height="500"
   viewBox="0 0 132.29166 132.29167"
   version="1.1"
   id="svg2515"
   inkscape:version="1.1.2 (b8e25be833, 2022-02-05)"
   sodipodi:docname="bonsai03s05normal.svg"
   inkscape:export-filename="C:\Users\Lenovo\Desktop\Coding\Media files\Bonsais\bonsai03.png"
   inkscape:export-xdpi="96"
   inkscape:export-ydpi="96"
   xmlns:inkscape="http://www.inkscape.org/namespaces/inkscape"
   xmlns:sodipodi="http://sodipodi.sourceforge.net/DTD/sodipodi-0.dtd"
   xmlns="http://www.w3.org/2000/svg"
   xmlns:svg="http://www.w3.org/2000/svg">
  <sodipodi:namedview
     id="namedview2517"
     pagecolor="#ffffff"
     bordercolor="#666666"
     borderopacity="1.0"
     inkscape:pageshadow="2"
     inkscape:pageopacity="0.0"
     inkscape:pagecheckerboard="0"
     inkscape:document-units="mm"
     showgrid="false"
     units="px"
     inkscape:zoom="1.4142136"
     inkscape:cx="200.46477"
     inkscape:cy="236.52721"
     inkscape:window-width="1920"
     inkscape:window-height="1001"
     inkscape:window-x="-9"
     inkscape:window-y="-9"
     inkscape:window-maximized="1"
     inkscape:current-layer="g51917" />
  <defs
     id="defs2512">
    <marker
       style="overflow:visible"
       id="Arrow1Sstart"
       refX="0.0"
       refY="0.0"
       orient="auto"
       inkscape:stockid="Arrow1Sstart"
       inkscape:isstock="true">
      <path
         transform="scale(0.2) translate(6,0)"
         style="fill-rule:evenodd;fill:context-stroke;stroke:context-stroke;stroke-width:1.0pt"
         d="M 0.0,0.0 L 5.0,-5.0 L -12.5,0.0 L 5.0,5.0 L 0.0,0.0 z "
         id="path24092" />
    </marker>
    <marker
       style="overflow:visible"
       id="Arrow1Mstart"
       refX="0.0"
       refY="0.0"
       orient="auto"
       inkscape:stockid="Arrow1Mstart"
       inkscape:isstock="true">
      <path
         transform="scale(0.4) translate(10,0)"
         style="fill-rule:evenodd;fill:context-stroke;stroke:context-stroke;stroke-width:1.0pt"
         d="M 0.0,0.0 L 5.0,-5.0 L -12.5,0.0 L 5.0,5.0 L 0.0,0.0 z "
         id="path24086" />
    </marker>
    <marker
       style="overflow:visible"
       id="Arrow1Lstart"
       refX="0.0"
       refY="0.0"
       orient="auto"
       inkscape:stockid="Arrow1Lstart"
       inkscape:isstock="true">
      <path
         transform="scale(0.8) translate(12.5,0)"
         style="fill-rule:evenodd;fill:context-stroke;stroke:context-stroke;stroke-width:1.0pt"
         d="M 0.0,0.0 L 5.0,-5.0 L -12.5,0.0 L 5.0,5.0 L 0.0,0.0 z "
         id="path24080" />
    </marker>
    <marker
       style="overflow:visible;"
       id="Arrow1Lend"
       refX="0.0"
       refY="0.0"
       orient="auto"
       inkscape:stockid="Arrow1Lend"
       inkscape:isstock="true">
      <path
         transform="scale(0.8) rotate(180) translate(12.5,0)"
         style="fill-rule:evenodd;fill:context-stroke;stroke:context-stroke;stroke-width:1.0pt;"
         d="M 0.0,0.0 L 5.0,-5.0 L -12.5,0.0 L 5.0,5.0 L 0.0,0.0 z "
         id="path24083" />
    </marker>
  </defs>
  <g
     inkscape:label="Double Trunk"
     inkscape:groupmode="layer"
     id="g51917"
     style="display:inline">
    <g
       id="g51833"
       transform="translate(157.39097,29.859785)"
       style="display:inline">
      <g
         id="g51831"
         transform="translate(-5.2916669)">
        <g
           id="g51823"
           transform="rotate(-13.017437,48.811012,639.29985)">
          <path
             style="display:inline;fill:#c18b56;fill-opacity:1;stroke:#c18b56;stroke-width:1;stroke-linecap:round;stroke-linejoin:round;stroke-miterlimit:4;stroke-dasharray:none;stroke-opacity:1"
             d="m 35.870136,79.809188 c 0,0 -5.93462,-10.285377 -0.36765,-17.935201 6.813833,-9.363182 12.17001,-5.093403 20.635714,-13.494745 6.786493,-6.734912 3.856953,-4.941474 9.61376,-12.344267 8.901728,-11.446877 8.659273,-1.55111 18.063763,-7.957382 7.913798,-5.390822 6.163238,-9.447209 15.526264,-17.43746 -2.405674,12.080364 -8.000423,9.916592 -10.90212,19.308518 -10.998001,6.255711 -2.636099,3.404697 -10.733417,5.461961 -9.484259,2.409639 -8.368428,8.046906 -13.315573,14.129643 -7.813845,9.607437 -15.695209,6.410437 -18.541148,16.263577 -2.153488,7.455755 1.038976,14.510776 2.528597,17.311986 1.489631,2.80121 -12.50819,-3.30663 -12.50819,-3.30663 z"
             id="path51819"
             sodipodi:nodetypes="cssssccssssc" />
          <path
             id="path51821"
             style="display:inline;fill:#9b6b45;fill-opacity:1;stroke:#9b6b45;stroke-width:3.77953;stroke-linecap:round;stroke-linejoin:round;stroke-miterlimit:4;stroke-dasharray:none;stroke-opacity:1"
             d="m 970.33008,153.07031 c -35.38782,30.19938 -28.77318,45.53149 -58.6836,65.90625 -35.54452,24.21268 -34.62715,-13.18957 -68.27148,30.07422 -21.75801,27.97906 -10.6862,21.20147 -36.33594,46.65625 -31.99636,31.7531 -52.23911,15.6155 -77.99218,51.00391 -21.04052,28.91272 1.38867,67.78515 1.38867,67.78515 0,0 0.53969,0.23173 0.68554,0.29493 -5.05604,-10.82763 -16.10396,-40.35023 0.75977,-63.52344 25.75307,-35.38841 45.99778,-19.2508 77.99414,-51.00391 25.64974,-25.45478 14.57793,-18.67719 36.33594,-46.65625 33.64432,-43.26379 32.72695,-5.86154 68.27148,-30.07422 28.41915,-19.35891 23.88953,-34.17576 53.71875,-61.50781 0.76306,-2.74415 1.48041,-5.69857 2.12891,-8.95508 z"
             transform="matrix(0.26458333,0,0,0.26458333,-157.39097,-29.859785)" />
        </g>
        <g
           id="g51829"
           transform="translate(-103.45205,-31.75)">
          <path
             style="display:inline;fill:#c18b56;fill-opacity:1;stroke:#c18b56;stroke-width:1;stroke-linecap:round;stroke-linejoin:round;stroke-miterlimit:4;stroke-dasharray:none;stroke-opacity:1"
             d="m 1.5429645,115.20461 c 0,0 -0.44391,-8.09307 -7.413009,-16.606491 -5.7703105,-7.049 -13.8088905,-10.89145 -10.0809905,-22.220768 2.98845,-9.082106 6.5809805,-11.287183 11.7883305,-16.9438 C 5.6584545,48.765064 7.3043845,49.408168 12.774609,39.430122 17.377757,31.033683 6.1247504,23.993411 10.838796,12.622918 c 3.34191,11.855551 7.609584,13.925326 9.288824,23.610793 -4.683266,12.269229 -1.685499,9.190085 -4.683266,12.269229 -2.295407,2.357716 -5.14072,4.406037 -7.8642035,6.795331 -7.35602602,6.453392 -10.606666,25.3144 -10.606666,25.3144 10.538324,6.504058 13.6860715,7.919038 15.6244115,17.990108 1.46672,7.620671 12.857197,14.782431 15.456337,16.601831 2.59915,1.8194 -26.5112685,0 -26.5112685,0 z"
             id="path51825"
             sodipodi:nodetypes="cssssccsssssc" />
          <path
             id="path51827"
             style="display:inline;fill:#9b6b45;fill-opacity:1;stroke:#9b6b45;stroke-width:3.77953;stroke-linecap:round;stroke-linejoin:round;stroke-miterlimit:4;stroke-dasharray:none;stroke-opacity:1"
             d="m 629.1072,165.09113 c -7.56384,32.01493 31.43507,65.05711 14.03733,96.79168 -20.67485,37.7123 -26.89433,35.28168 -64.01367,75.60352 -19.68132,21.37934 -33.25976,29.71299 -44.55469,64.03906 -14.0897,42.81947 16.29252,57.3425 38.10156,83.98438 26.33991,32.17672 28.01758,62.76562 28.01758,62.76562 0,0 3.6319,0.21449 8.51367,0.49219 -0.94557,-7.59992 -5.65489,-33.43191 -27.77929,-60.45899 -21.80905,-26.64183 -52.19127,-41.16491 -38.10157,-83.98437 11.29494,-34.32607 24.87337,-42.65972 44.55469,-64.03906 37.11934,-40.32184 43.34078,-37.89122 64.01563,-75.60352 15.60524,-28.46494 -20.69795,-58.8372 -15.48828,-95.80664 -1.82765,-4.8605 -5.69213,1.93063 -7.30296,-3.78387 z"
             transform="matrix(0.26458333,0,0,0.26458333,-157.39097,-29.859785)"
             sodipodi:nodetypes="cssssccsssscc" />
        </g>
      </g>
    </g>
    <g
       id="g3660"
       transform="translate(-7.3485423,-58.24854)"
       style="display:inline">
      <path
         d="m 106.81169,177.83187 -5.12623,-8.15143 -0.0333,0.004 H 33.425814 l -0.03328,-0.004 -5.126235,8.15143 c -3.062426,4.63498 4.909868,9.54 15.4536,9.46531 h 47.638199 c 10.543742,0.0747 18.516032,-4.83225 15.453612,-9.46531"
         style="display:inline;fill:#dac095;fill-opacity:1;fill-rule:nonzero;stroke:#dac095;stroke-width:0.800219;stroke-linecap:round;stroke-linejoin:round;stroke-miterlimit:4;stroke-dasharray:none;stroke-opacity:1"
         id="path566-1-1-4-9-8-0-1-2-8" />
      <path
         d="M 98.702091,164.9899 H 36.301002 l -2.945921,4.69052 0.03328,0.004 h 68.226349 l 0.0333,-0.004 -2.945914,-4.69052"
         style="display:inline;fill:#e3d1ae;fill-opacity:1;fill-rule:nonzero;stroke:#e3d1ae;stroke-width:0.800219;stroke-linecap:round;stroke-linejoin:round;stroke-miterlimit:4;stroke-dasharray:none;stroke-opacity:1"
         id="path568-6-3-1-0-7-7-0-8-40" />
      <path
         d="m 34.091559,177.83187 5.122074,-8.1476 h -5.787819 l -0.03328,-0.004 -5.126235,8.15143 c -3.062426,4.63498 4.909868,9.54001 15.4536,9.46531 h 5.825267 c -10.539574,0.0747 -18.516029,-4.83031 -15.453602,-9.46528 v 0"
         style="display:inline;fill:#ad9a6b;fill-opacity:1;fill-rule:nonzero;stroke:#ad9a6b;stroke-width:0.800219;stroke-linecap:round;stroke-linejoin:round;stroke-miterlimit:4;stroke-dasharray:none;stroke-opacity:1"
         id="path580-2-7-5-6-4-43-5-7-00" />
      <path
         d="m 42.130429,164.9899 h -5.829427 l -2.945921,4.69052 0.03328,0.004 h 5.825267 l -0.03328,-0.004 2.950081,-4.69052"
         style="display:inline;fill:#ceb27d;fill-opacity:1;fill-rule:nonzero;stroke:#ceb27d;stroke-width:0.800219;stroke-linecap:round;stroke-linejoin:round;stroke-miterlimit:4;stroke-dasharray:none;stroke-opacity:1"
         id="path582-2-9-1-5-2-4-2-4-2" />
    </g>
    <g
       id="g5519-5-9-74"
       transform="matrix(0.31656974,0,0,0.31656974,55.484142,51.057291)"
       style="display:inline">
      <g
         id="g5395-44-6-1"
         transform="translate(-85.460416,22.382686)">
        <g
           id="g2523-0-9-1-78"
           transform="matrix(4.2577182,0,0,4.2577182,200.10696,-35.748312)"
           style="display:inline">
          <g
             id="g3373-7-6-1-14"
             transform="matrix(-0.20953371,-0.00371336,0.00371336,-0.20953371,-91.221922,31.90476)">
            <g
               id="g2459-5-6-2-3-86"
               transform="matrix(0.4417475,0,0,0.4417475,-21.883357,22.162069)"
               style="display:inline">
              <path
                 id="path14-1-6-56"
                 style="fill:#a4a42a;fill-opacity:1;stroke-width:5.37006"
                 class="cls-2"
                 d="m -393.27782,217.70077 a 85.921004,85.921004 0 1 0 -16.37634,-170.402578 85.921004,85.921004 0 0 1 7.41181,169.988428 86.243208,86.243208 0 0 0 8.96453,0.41415 z m -12.77061,-38.71275 a 46.988049,46.988049 0 0 0 5.92824,-0.58891 46.988049,46.988049 0 0 1 -41.66076,-45.77326 46.988049,46.988049 0 0 1 42.47865,-46.881497 46.988049,46.988049 0 0 0 -54.55939,47.095587 46.988049,46.988049 0 0 0 47.81326,46.14808 z" />
              <path
                 id="path14-8-4-16-9-54"
                 style="display:inline;fill:#cccc00;fill-opacity:1;stroke-width:5.37006"
                 class="cls-2"
                 d="m -405.35857,217.91486 a 85.921004,85.921004 0 1 0 -87.42996,-84.38506 86.243208,86.243208 0 0 0 87.42996,84.38506 z m -0.68986,-38.92684 a 46.988049,46.988049 0 0 1 -47.81326,-46.14808 46.988049,46.988049 0 1 1 47.81326,46.14808 z" />
            </g>
          </g>
        </g>
      </g>
      <g
         id="g2523-0-6-3-1-67"
         transform="matrix(4.2577182,0,0,4.2577182,161.75656,-46.486242)"
         style="display:inline">
        <g
           id="g3373-7-9-9-5-0"
           transform="matrix(-0.20953371,-0.00371336,0.00371336,-0.20953371,-91.221922,31.90476)">
          <g
             id="g2459-5-6-1-4-5-45"
             transform="matrix(0.4417475,0,0,0.4417475,-21.883357,22.162069)"
             style="display:inline">
            <path
               id="path14-7-8-9-6"
               style="fill:#a4a42a;fill-opacity:1;stroke-width:5.37006"
               class="cls-2"
               d="m -393.27782,217.70077 a 85.921004,85.921004 0 1 0 -16.37634,-170.402578 85.921004,85.921004 0 0 1 7.41181,169.988428 86.243208,86.243208 0 0 0 8.96453,0.41415 z m -12.77061,-38.71275 a 46.988049,46.988049 0 0 0 5.92824,-0.58891 46.988049,46.988049 0 0 1 -41.66076,-45.77326 46.988049,46.988049 0 0 1 42.47865,-46.881497 46.988049,46.988049 0 0 0 -54.55939,47.095587 46.988049,46.988049 0 0 0 47.81326,46.14808 z" />
            <path
               id="path14-8-4-0-4-7-4"
               style="display:inline;fill:#cccc00;fill-opacity:1;stroke-width:5.37006"
               class="cls-2"
               d="m -405.35857,217.91486 a 85.921004,85.921004 0 1 0 -87.42996,-84.38506 86.243208,86.243208 0 0 0 87.42996,84.38506 z m -0.68986,-38.92684 a 46.988049,46.988049 0 0 1 -47.81326,-46.14808 46.988049,46.988049 0 1 1 47.81326,46.14808 z" />
          </g>
        </g>
      </g>
      <g
         id="g5395-9-2-2-5"
         style="display:inline"
         transform="translate(9.151695,22.382686)">
        <g
           id="g2523-0-1-8-7-76"
           transform="matrix(4.2577182,0,0,4.2577182,200.10696,-35.748312)"
           style="display:inline">
          <g
             id="g3373-7-90-9-7-89"
             transform="matrix(-0.20953371,-0.00371336,0.00371336,-0.20953371,-91.221922,31.90476)">
            <g
               id="g2459-5-6-4-0-3-7"
               transform="matrix(0.4417475,0,0,0.4417475,-21.883357,22.162069)"
               style="display:inline">
              <path
                 id="path14-73-8-8-1"
                 style="fill:#a4a42a;fill-opacity:1;stroke-width:5.37006"
                 class="cls-2"
                 d="m -393.27782,217.70077 a 85.921004,85.921004 0 1 0 -16.37634,-170.402578 85.921004,85.921004 0 0 1 7.41181,169.988428 86.243208,86.243208 0 0 0 8.96453,0.41415 z m -12.77061,-38.71275 a 46.988049,46.988049 0 0 0 5.92824,-0.58891 46.988049,46.988049 0 0 1 -41.66076,-45.77326 46.988049,46.988049 0 0 1 42.47865,-46.881497 46.988049,46.988049 0 0 0 -54.55939,47.095587 46.988049,46.988049 0 0 0 47.81326,46.14808 z" />
              <path
                 id="path14-8-4-1-9-2-1"
                 style="display:inline;fill:#cccc00;fill-opacity:1;stroke-width:5.37006"
                 class="cls-2"
                 d="m -405.35857,217.91486 a 85.921004,85.921004 0 1 0 -87.42996,-84.38506 86.243208,86.243208 0 0 0 87.42996,84.38506 z m -0.68986,-38.92684 a 46.988049,46.988049 0 0 1 -47.81326,-46.14808 46.988049,46.988049 0 1 1 47.81326,46.14808 z" />
            </g>
          </g>
        </g>
      </g>
    </g>
    <g
       id="g5519-5-9-74-1"
       transform="matrix(0.26878562,0,0,0.26878562,76.57345,24.007871)"
       style="display:inline">
      <g
         id="g5395-44-6-1-9"
         transform="translate(-85.460416,22.382686)">
        <g
           id="g2523-0-9-1-78-3"
           transform="matrix(4.2577182,0,0,4.2577182,200.10696,-35.748312)"
           style="display:inline">
          <g
             id="g3373-7-6-1-14-7"
             transform="matrix(-0.20953371,-0.00371336,0.00371336,-0.20953371,-91.221922,31.90476)">
            <g
               id="g2459-5-6-2-3-86-1"
               transform="matrix(0.4417475,0,0,0.4417475,-21.883357,22.162069)"
               style="display:inline">
              <path
                 id="path14-1-6-56-2"
                 style="fill:#a4a42a;fill-opacity:1;stroke-width:5.37006"
                 class="cls-2"
                 d="m -393.27782,217.70077 a 85.921004,85.921004 0 1 0 -16.37634,-170.402578 85.921004,85.921004 0 0 1 7.41181,169.988428 86.243208,86.243208 0 0 0 8.96453,0.41415 z m -12.77061,-38.71275 a 46.988049,46.988049 0 0 0 5.92824,-0.58891 46.988049,46.988049 0 0 1 -41.66076,-45.77326 46.988049,46.988049 0 0 1 42.47865,-46.881497 46.988049,46.988049 0 0 0 -54.55939,47.095587 46.988049,46.988049 0 0 0 47.81326,46.14808 z" />
              <path
                 id="path14-8-4-16-9-54-5"
                 style="display:inline;fill:#cccc00;fill-opacity:1;stroke-width:5.37006"
                 class="cls-2"
                 d="m -405.35857,217.91486 a 85.921004,85.921004 0 1 0 -87.42996,-84.38506 86.243208,86.243208 0 0 0 87.42996,84.38506 z m -0.68986,-38.92684 a 46.988049,46.988049 0 0 1 -47.81326,-46.14808 46.988049,46.988049 0 1 1 47.81326,46.14808 z" />
            </g>
          </g>
        </g>
      </g>
      <g
         id="g2523-0-6-3-1-67-1"
         transform="matrix(4.2577182,0,0,4.2577182,161.75656,-46.486242)"
         style="display:inline">
        <g
           id="g3373-7-9-9-5-0-0"
           transform="matrix(-0.20953371,-0.00371336,0.00371336,-0.20953371,-91.221922,31.90476)">
          <g
             id="g2459-5-6-1-4-5-45-0"
             transform="matrix(0.4417475,0,0,0.4417475,-21.883357,22.162069)"
             style="display:inline">
            <path
               id="path14-7-8-9-6-3"
               style="fill:#a4a42a;fill-opacity:1;stroke-width:5.37006"
               class="cls-2"
               d="m -393.27782,217.70077 a 85.921004,85.921004 0 1 0 -16.37634,-170.402578 85.921004,85.921004 0 0 1 7.41181,169.988428 86.243208,86.243208 0 0 0 8.96453,0.41415 z m -12.77061,-38.71275 a 46.988049,46.988049 0 0 0 5.92824,-0.58891 46.988049,46.988049 0 0 1 -41.66076,-45.77326 46.988049,46.988049 0 0 1 42.47865,-46.881497 46.988049,46.988049 0 0 0 -54.55939,47.095587 46.988049,46.988049 0 0 0 47.81326,46.14808 z" />
            <path
               id="path14-8-4-0-4-7-4-9"
               style="display:inline;fill:#cccc00;fill-opacity:1;stroke-width:5.37006"
               class="cls-2"
               d="m -405.35857,217.91486 a 85.921004,85.921004 0 1 0 -87.42996,-84.38506 86.243208,86.243208 0 0 0 87.42996,84.38506 z m -0.68986,-38.92684 a 46.988049,46.988049 0 0 1 -47.81326,-46.14808 46.988049,46.988049 0 1 1 47.81326,46.14808 z" />
          </g>
        </g>
      </g>
      <g
         id="g5395-9-2-2-5-0"
         style="display:inline"
         transform="translate(9.151695,22.382686)">
        <g
           id="g2523-0-1-8-7-76-3"
           transform="matrix(4.2577182,0,0,4.2577182,200.10696,-35.748312)"
           style="display:inline">
          <g
             id="g3373-7-90-9-7-89-2"
             transform="matrix(-0.20953371,-0.00371336,0.00371336,-0.20953371,-91.221922,31.90476)">
            <g
               id="g2459-5-6-4-0-3-7-4"
               transform="matrix(0.4417475,0,0,0.4417475,-21.883357,22.162069)"
               style="display:inline">
              <path
                 id="path14-73-8-8-1-0"
                 style="fill:#a4a42a;fill-opacity:1;stroke-width:5.37006"
                 class="cls-2"
                 d="m -393.27782,217.70077 a 85.921004,85.921004 0 1 0 -16.37634,-170.402578 85.921004,85.921004 0 0 1 7.41181,169.988428 86.243208,86.243208 0 0 0 8.96453,0.41415 z m -12.77061,-38.71275 a 46.988049,46.988049 0 0 0 5.92824,-0.58891 46.988049,46.988049 0 0 1 -41.66076,-45.77326 46.988049,46.988049 0 0 1 42.47865,-46.881497 46.988049,46.988049 0 0 0 -54.55939,47.095587 46.988049,46.988049 0 0 0 47.81326,46.14808 z" />
              <path
                 id="path14-8-4-1-9-2-1-2"
                 style="display:inline;fill:#cccc00;fill-opacity:1;stroke-width:5.37006"
                 class="cls-2"
                 d="m -405.35857,217.91486 a 85.921004,85.921004 0 1 0 -87.42996,-84.38506 86.243208,86.243208 0 0 0 87.42996,84.38506 z m -0.68986,-38.92684 a 46.988049,46.988049 0 0 1 -47.81326,-46.14808 46.988049,46.988049 0 1 1 47.81326,46.14808 z" />
            </g>
          </g>
        </g>
      </g>
    </g>
    <g
       id="g5519-5-9-74-1-4"
       transform="matrix(0.26878562,0,0,0.26878562,104.47193,56.989417)"
       style="display:inline">
      <g
         id="g5395-44-6-1-9-1"
         transform="translate(-85.460416,22.382686)">
        <g
           id="g2523-0-9-1-78-3-8"
           transform="matrix(4.2577182,0,0,4.2577182,200.10696,-35.748312)"
           style="display:inline">
          <g
             id="g3373-7-6-1-14-7-1"
             transform="matrix(-0.20953371,-0.00371336,0.00371336,-0.20953371,-91.221922,31.90476)">
            <g
               id="g2459-5-6-2-3-86-1-8"
               transform="matrix(0.4417475,0,0,0.4417475,-21.883357,22.162069)"
               style="display:inline">
              <path
                 id="path14-1-6-56-2-8"
                 style="fill:#a4a42a;fill-opacity:1;stroke-width:5.37006"
                 class="cls-2"
                 d="m -393.27782,217.70077 a 85.921004,85.921004 0 1 0 -16.37634,-170.402578 85.921004,85.921004 0 0 1 7.41181,169.988428 86.243208,86.243208 0 0 0 8.96453,0.41415 z m -12.77061,-38.71275 a 46.988049,46.988049 0 0 0 5.92824,-0.58891 46.988049,46.988049 0 0 1 -41.66076,-45.77326 46.988049,46.988049 0 0 1 42.47865,-46.881497 46.988049,46.988049 0 0 0 -54.55939,47.095587 46.988049,46.988049 0 0 0 47.81326,46.14808 z" />
              <path
                 id="path14-8-4-16-9-54-5-9"
                 style="display:inline;fill:#cccc00;fill-opacity:1;stroke-width:5.37006"
                 class="cls-2"
                 d="m -405.35857,217.91486 a 85.921004,85.921004 0 1 0 -87.42996,-84.38506 86.243208,86.243208 0 0 0 87.42996,84.38506 z m -0.68986,-38.92684 a 46.988049,46.988049 0 0 1 -47.81326,-46.14808 46.988049,46.988049 0 1 1 47.81326,46.14808 z" />
            </g>
          </g>
        </g>
      </g>
      <g
         id="g2523-0-6-3-1-67-1-3"
         transform="matrix(4.2577182,0,0,4.2577182,161.75656,-46.486242)"
         style="display:inline">
        <g
           id="g3373-7-9-9-5-0-0-9"
           transform="matrix(-0.20953371,-0.00371336,0.00371336,-0.20953371,-91.221922,31.90476)">
          <g
             id="g2459-5-6-1-4-5-45-0-6"
             transform="matrix(0.4417475,0,0,0.4417475,-21.883357,22.162069)"
             style="display:inline">
            <path
               id="path14-7-8-9-6-3-0"
               style="fill:#a4a42a;fill-opacity:1;stroke-width:5.37006"
               class="cls-2"
               d="m -393.27782,217.70077 a 85.921004,85.921004 0 1 0 -16.37634,-170.402578 85.921004,85.921004 0 0 1 7.41181,169.988428 86.243208,86.243208 0 0 0 8.96453,0.41415 z m -12.77061,-38.71275 a 46.988049,46.988049 0 0 0 5.92824,-0.58891 46.988049,46.988049 0 0 1 -41.66076,-45.77326 46.988049,46.988049 0 0 1 42.47865,-46.881497 46.988049,46.988049 0 0 0 -54.55939,47.095587 46.988049,46.988049 0 0 0 47.81326,46.14808 z" />
            <path
               id="path14-8-4-0-4-7-4-9-8"
               style="display:inline;fill:#cccc00;fill-opacity:1;stroke-width:5.37006"
               class="cls-2"
               d="m -405.35857,217.91486 a 85.921004,85.921004 0 1 0 -87.42996,-84.38506 86.243208,86.243208 0 0 0 87.42996,84.38506 z m -0.68986,-38.92684 a 46.988049,46.988049 0 0 1 -47.81326,-46.14808 46.988049,46.988049 0 1 1 47.81326,46.14808 z" />
          </g>
        </g>
      </g>
      <g
         id="g5395-9-2-2-5-0-9"
         style="display:inline"
         transform="translate(9.151695,22.382686)">
        <g
           id="g2523-0-1-8-7-76-3-9"
           transform="matrix(4.2577182,0,0,4.2577182,200.10696,-35.748312)"
           style="display:inline">
          <g
             id="g3373-7-90-9-7-89-2-4"
             transform="matrix(-0.20953371,-0.00371336,0.00371336,-0.20953371,-91.221922,31.90476)">
            <g
               id="g2459-5-6-4-0-3-7-4-3"
               transform="matrix(0.4417475,0,0,0.4417475,-21.883357,22.162069)"
               style="display:inline">
              <path
                 id="path14-73-8-8-1-0-6"
                 style="fill:#a4a42a;fill-opacity:1;stroke-width:5.37006"
                 class="cls-2"
                 d="m -393.27782,217.70077 a 85.921004,85.921004 0 1 0 -16.37634,-170.402578 85.921004,85.921004 0 0 1 7.41181,169.988428 86.243208,86.243208 0 0 0 8.96453,0.41415 z m -12.77061,-38.71275 a 46.988049,46.988049 0 0 0 5.92824,-0.58891 46.988049,46.988049 0 0 1 -41.66076,-45.77326 46.988049,46.988049 0 0 1 42.47865,-46.881497 46.988049,46.988049 0 0 0 -54.55939,47.095587 46.988049,46.988049 0 0 0 47.81326,46.14808 z" />
              <path
                 id="path14-8-4-1-9-2-1-2-3"
                 style="display:inline;fill:#cccc00;fill-opacity:1;stroke-width:5.37006"
                 class="cls-2"
                 d="m -405.35857,217.91486 a 85.921004,85.921004 0 1 0 -87.42996,-84.38506 86.243208,86.243208 0 0 0 87.42996,84.38506 z m -0.68986,-38.92684 a 46.988049,46.988049 0 0 1 -47.81326,-46.14808 46.988049,46.988049 0 1 1 47.81326,46.14808 z" />
            </g>
          </g>
        </g>
      </g>
    </g>
    <g
       id="g5519-5-9-74-1-5"
       transform="matrix(0.17919042,0,0,0.17919042,116.88721,36.283959)"
       style="display:inline">
      <g
         id="g5395-44-6-1-9-2"
         transform="translate(-85.460416,22.382686)">
        <g
           id="g2523-0-9-1-78-3-2"
           transform="matrix(4.2577182,0,0,4.2577182,200.10696,-35.748312)"
           style="display:inline">
          <g
             id="g3373-7-6-1-14-7-4"
             transform="matrix(-0.20953371,-0.00371336,0.00371336,-0.20953371,-91.221922,31.90476)">
            <g
               id="g2459-5-6-2-3-86-1-89"
               transform="matrix(0.4417475,0,0,0.4417475,-21.883357,22.162069)"
               style="display:inline">
              <path
                 id="path14-1-6-56-2-3"
                 style="fill:#a4a42a;fill-opacity:1;stroke-width:5.37006"
                 class="cls-2"
                 d="m -393.27782,217.70077 a 85.921004,85.921004 0 1 0 -16.37634,-170.402578 85.921004,85.921004 0 0 1 7.41181,169.988428 86.243208,86.243208 0 0 0 8.96453,0.41415 z m -12.77061,-38.71275 a 46.988049,46.988049 0 0 0 5.92824,-0.58891 46.988049,46.988049 0 0 1 -41.66076,-45.77326 46.988049,46.988049 0 0 1 42.47865,-46.881497 46.988049,46.988049 0 0 0 -54.55939,47.095587 46.988049,46.988049 0 0 0 47.81326,46.14808 z" />
              <path
                 id="path14-8-4-16-9-54-5-99"
                 style="display:inline;fill:#cccc00;fill-opacity:1;stroke-width:5.37006"
                 class="cls-2"
                 d="m -405.35857,217.91486 a 85.921004,85.921004 0 1 0 -87.42996,-84.38506 86.243208,86.243208 0 0 0 87.42996,84.38506 z m -0.68986,-38.92684 a 46.988049,46.988049 0 0 1 -47.81326,-46.14808 46.988049,46.988049 0 1 1 47.81326,46.14808 z" />
            </g>
          </g>
        </g>
      </g>
      <g
         id="g2523-0-6-3-1-67-1-6"
         transform="matrix(4.2577182,0,0,4.2577182,161.75656,-46.486242)"
         style="display:inline">
        <g
           id="g3373-7-9-9-5-0-0-6"
           transform="matrix(-0.20953371,-0.00371336,0.00371336,-0.20953371,-91.221922,31.90476)">
          <g
             id="g2459-5-6-1-4-5-45-0-2"
             transform="matrix(0.4417475,0,0,0.4417475,-21.883357,22.162069)"
             style="display:inline">
            <path
               id="path14-7-8-9-6-3-9"
               style="fill:#a4a42a;fill-opacity:1;stroke-width:5.37006"
               class="cls-2"
               d="m -393.27782,217.70077 a 85.921004,85.921004 0 1 0 -16.37634,-170.402578 85.921004,85.921004 0 0 1 7.41181,169.988428 86.243208,86.243208 0 0 0 8.96453,0.41415 z m -12.77061,-38.71275 a 46.988049,46.988049 0 0 0 5.92824,-0.58891 46.988049,46.988049 0 0 1 -41.66076,-45.77326 46.988049,46.988049 0 0 1 42.47865,-46.881497 46.988049,46.988049 0 0 0 -54.55939,47.095587 46.988049,46.988049 0 0 0 47.81326,46.14808 z" />
            <path
               id="path14-8-4-0-4-7-4-9-1"
               style="display:inline;fill:#cccc00;fill-opacity:1;stroke-width:5.37006"
               class="cls-2"
               d="m -405.35857,217.91486 a 85.921004,85.921004 0 1 0 -87.42996,-84.38506 86.243208,86.243208 0 0 0 87.42996,84.38506 z m -0.68986,-38.92684 a 46.988049,46.988049 0 0 1 -47.81326,-46.14808 46.988049,46.988049 0 1 1 47.81326,46.14808 z" />
          </g>
        </g>
      </g>
      <g
         id="g5395-9-2-2-5-0-3"
         style="display:inline"
         transform="translate(9.151695,22.382686)">
        <g
           id="g2523-0-1-8-7-76-3-1"
           transform="matrix(4.2577182,0,0,4.2577182,200.10696,-35.748312)"
           style="display:inline">
          <g
             id="g3373-7-90-9-7-89-2-3"
             transform="matrix(-0.20953371,-0.00371336,0.00371336,-0.20953371,-91.221922,31.90476)">
            <g
               id="g2459-5-6-4-0-3-7-4-9"
               transform="matrix(0.4417475,0,0,0.4417475,-21.883357,22.162069)"
               style="display:inline">
              <path
                 id="path14-73-8-8-1-0-7"
                 style="fill:#a4a42a;fill-opacity:1;stroke-width:5.37006"
                 class="cls-2"
                 d="m -393.27782,217.70077 a 85.921004,85.921004 0 1 0 -16.37634,-170.402578 85.921004,85.921004 0 0 1 7.41181,169.988428 86.243208,86.243208 0 0 0 8.96453,0.41415 z m -12.77061,-38.71275 a 46.988049,46.988049 0 0 0 5.92824,-0.58891 46.988049,46.988049 0 0 1 -41.66076,-45.77326 46.988049,46.988049 0 0 1 42.47865,-46.881497 46.988049,46.988049 0 0 0 -54.55939,47.095587 46.988049,46.988049 0 0 0 47.81326,46.14808 z" />
              <path
                 id="path14-8-4-1-9-2-1-2-8"
                 style="display:inline;fill:#cccc00;fill-opacity:1;stroke-width:5.37006"
                 class="cls-2"
                 d="m -405.35857,217.91486 a 85.921004,85.921004 0 1 0 -87.42996,-84.38506 86.243208,86.243208 0 0 0 87.42996,84.38506 z m -0.68986,-38.92684 a 46.988049,46.988049 0 0 1 -47.81326,-46.14808 46.988049,46.988049 0 1 1 47.81326,46.14808 z" />
            </g>
          </g>
        </g>
      </g>
    </g>
    <g
       id="g5519-5-9-74-1-5-5"
       transform="matrix(0.17919042,0,0,0.17919042,67.702096,3.2282382)"
       style="display:inline">
      <g
         id="g5395-44-6-1-9-2-2"
         transform="translate(-85.460416,22.382686)">
        <g
           id="g2523-0-9-1-78-3-2-7"
           transform="matrix(4.2577182,0,0,4.2577182,200.10696,-35.748312)"
           style="display:inline">
          <g
             id="g3373-7-6-1-14-7-4-6"
             transform="matrix(-0.20953371,-0.00371336,0.00371336,-0.20953371,-91.221922,31.90476)">
            <g
               id="g2459-5-6-2-3-86-1-89-0"
               transform="matrix(0.4417475,0,0,0.4417475,-21.883357,22.162069)"
               style="display:inline">
              <path
                 id="path14-1-6-56-2-3-3"
                 style="fill:#a4a42a;fill-opacity:1;stroke-width:5.37006"
                 class="cls-2"
                 d="m -393.27782,217.70077 a 85.921004,85.921004 0 1 0 -16.37634,-170.402578 85.921004,85.921004 0 0 1 7.41181,169.988428 86.243208,86.243208 0 0 0 8.96453,0.41415 z m -12.77061,-38.71275 a 46.988049,46.988049 0 0 0 5.92824,-0.58891 46.988049,46.988049 0 0 1 -41.66076,-45.77326 46.988049,46.988049 0 0 1 42.47865,-46.881497 46.988049,46.988049 0 0 0 -54.55939,47.095587 46.988049,46.988049 0 0 0 47.81326,46.14808 z" />
              <path
                 id="path14-8-4-16-9-54-5-99-7"
                 style="display:inline;fill:#cccc00;fill-opacity:1;stroke-width:5.37006"
                 class="cls-2"
                 d="m -405.35857,217.91486 a 85.921004,85.921004 0 1 0 -87.42996,-84.38506 86.243208,86.243208 0 0 0 87.42996,84.38506 z m -0.68986,-38.92684 a 46.988049,46.988049 0 0 1 -47.81326,-46.14808 46.988049,46.988049 0 1 1 47.81326,46.14808 z" />
            </g>
          </g>
        </g>
      </g>
      <g
         id="g2523-0-6-3-1-67-1-6-5"
         transform="matrix(4.2577182,0,0,4.2577182,161.75656,-46.486242)"
         style="display:inline">
        <g
           id="g3373-7-9-9-5-0-0-6-3"
           transform="matrix(-0.20953371,-0.00371336,0.00371336,-0.20953371,-91.221922,31.90476)">
          <g
             id="g2459-5-6-1-4-5-45-0-2-9"
             transform="matrix(0.4417475,0,0,0.4417475,-21.883357,22.162069)"
             style="display:inline">
            <path
               id="path14-7-8-9-6-3-9-4"
               style="fill:#a4a42a;fill-opacity:1;stroke-width:5.37006"
               class="cls-2"
               d="m -393.27782,217.70077 a 85.921004,85.921004 0 1 0 -16.37634,-170.402578 85.921004,85.921004 0 0 1 7.41181,169.988428 86.243208,86.243208 0 0 0 8.96453,0.41415 z m -12.77061,-38.71275 a 46.988049,46.988049 0 0 0 5.92824,-0.58891 46.988049,46.988049 0 0 1 -41.66076,-45.77326 46.988049,46.988049 0 0 1 42.47865,-46.881497 46.988049,46.988049 0 0 0 -54.55939,47.095587 46.988049,46.988049 0 0 0 47.81326,46.14808 z" />
            <path
               id="path14-8-4-0-4-7-4-9-1-0"
               style="display:inline;fill:#cccc00;fill-opacity:1;stroke-width:5.37006"
               class="cls-2"
               d="m -405.35857,217.91486 a 85.921004,85.921004 0 1 0 -87.42996,-84.38506 86.243208,86.243208 0 0 0 87.42996,84.38506 z m -0.68986,-38.92684 a 46.988049,46.988049 0 0 1 -47.81326,-46.14808 46.988049,46.988049 0 1 1 47.81326,46.14808 z" />
          </g>
        </g>
      </g>
      <g
         id="g5395-9-2-2-5-0-3-0"
         style="display:inline"
         transform="translate(9.151695,22.382686)">
        <g
           id="g2523-0-1-8-7-76-3-1-9"
           transform="matrix(4.2577182,0,0,4.2577182,200.10696,-35.748312)"
           style="display:inline">
          <g
             id="g3373-7-90-9-7-89-2-3-5"
             transform="matrix(-0.20953371,-0.00371336,0.00371336,-0.20953371,-91.221922,31.90476)">
            <g
               id="g2459-5-6-4-0-3-7-4-9-4"
               transform="matrix(0.4417475,0,0,0.4417475,-21.883357,22.162069)"
               style="display:inline">
              <path
                 id="path14-73-8-8-1-0-7-4"
                 style="fill:#a4a42a;fill-opacity:1;stroke-width:5.37006"
                 class="cls-2"
                 d="m -393.27782,217.70077 a 85.921004,85.921004 0 1 0 -16.37634,-170.402578 85.921004,85.921004 0 0 1 7.41181,169.988428 86.243208,86.243208 0 0 0 8.96453,0.41415 z m -12.77061,-38.71275 a 46.988049,46.988049 0 0 0 5.92824,-0.58891 46.988049,46.988049 0 0 1 -41.66076,-45.77326 46.988049,46.988049 0 0 1 42.47865,-46.881497 46.988049,46.988049 0 0 0 -54.55939,47.095587 46.988049,46.988049 0 0 0 47.81326,46.14808 z" />
              <path
                 id="path14-8-4-1-9-2-1-2-8-5"
                 style="display:inline;fill:#cccc00;fill-opacity:1;stroke-width:5.37006"
                 class="cls-2"
                 d="m -405.35857,217.91486 a 85.921004,85.921004 0 1 0 -87.42996,-84.38506 86.243208,86.243208 0 0 0 87.42996,84.38506 z m -0.68986,-38.92684 a 46.988049,46.988049 0 0 1 -47.81326,-46.14808 46.988049,46.988049 0 1 1 47.81326,46.14808 z" />
            </g>
          </g>
        </g>
      </g>
    </g>
  </g>
</svg>
