<?xml version="1.0" encoding="UTF-8" standalone="no"?>
<!-- Created with Inkscape (http://www.inkscape.org/) -->

<svg
   width="500"
   height="500"
   viewBox="0 0 132.29166 132.29167"
   version="1.1"
   id="svg2515"
   inkscape:version="1.1.2 (b8e25be833, 2022-02-05)"
   sodipodi:docname="bonsai06s05normal.svg"
   inkscape:export-filename="C:\Users\Lenovo\Desktop\Coding\Media files\Bonsais\bonsai06.png"
   inkscape:export-xdpi="96"
   inkscape:export-ydpi="96"
   xmlns:inkscape="http://www.inkscape.org/namespaces/inkscape"
   xmlns:sodipodi="http://sodipodi.sourceforge.net/DTD/sodipodi-0.dtd"
   xmlns="http://www.w3.org/2000/svg"
   xmlns:svg="http://www.w3.org/2000/svg"
   xmlns:sketch="http://www.bohemiancoding.com/sketch/ns">
  <sodipodi:namedview
     id="namedview2517"
     pagecolor="#ffffff"
     bordercolor="#666666"
     borderopacity="1.0"
     inkscape:pageshadow="2"
     inkscape:pageopacity="0.0"
     inkscape:pagecheckerboard="0"
     inkscape:document-units="mm"
     showgrid="false"
     units="px"
     inkscape:zoom="1.4142136"
     inkscape:cx="272.58966"
     inkscape:cy="248.54803"
     inkscape:window-width="1920"
     inkscape:window-height="1001"
     inkscape:window-x="-9"
     inkscape:window-y="-9"
     inkscape:window-maximized="1"
     inkscape:current-layer="g51917"
     showguides="false" />
  <defs
     id="defs2512">
    <marker
       style="overflow:visible"
       id="Arrow1Sstart"
       refX="0.0"
       refY="0.0"
       orient="auto"
       inkscape:stockid="Arrow1Sstart"
       inkscape:isstock="true">
      <path
         transform="scale(0.2) translate(6,0)"
         style="fill-rule:evenodd;fill:context-stroke;stroke:context-stroke;stroke-width:1.0pt"
         d="M 0.0,0.0 L 5.0,-5.0 L -12.5,0.0 L 5.0,5.0 L 0.0,0.0 z "
         id="path24092" />
    </marker>
    <marker
       style="overflow:visible"
       id="Arrow1Mstart"
       refX="0.0"
       refY="0.0"
       orient="auto"
       inkscape:stockid="Arrow1Mstart"
       inkscape:isstock="true">
      <path
         transform="scale(0.4) translate(10,0)"
         style="fill-rule:evenodd;fill:context-stroke;stroke:context-stroke;stroke-width:1.0pt"
         d="M 0.0,0.0 L 5.0,-5.0 L -12.5,0.0 L 5.0,5.0 L 0.0,0.0 z "
         id="path24086" />
    </marker>
    <marker
       style="overflow:visible"
       id="Arrow1Lstart"
       refX="0.0"
       refY="0.0"
       orient="auto"
       inkscape:stockid="Arrow1Lstart"
       inkscape:isstock="true">
      <path
         transform="scale(0.8) translate(12.5,0)"
         style="fill-rule:evenodd;fill:context-stroke;stroke:context-stroke;stroke-width:1.0pt"
         d="M 0.0,0.0 L 5.0,-5.0 L -12.5,0.0 L 5.0,5.0 L 0.0,0.0 z "
         id="path24080" />
    </marker>
    <marker
       style="overflow:visible;"
       id="Arrow1Lend"
       refX="0.0"
       refY="0.0"
       orient="auto"
       inkscape:stockid="Arrow1Lend"
       inkscape:isstock="true">
      <path
         transform="scale(0.8) rotate(180) translate(12.5,0)"
         style="fill-rule:evenodd;fill:context-stroke;stroke:context-stroke;stroke-width:1.0pt;"
         d="M 0.0,0.0 L 5.0,-5.0 L -12.5,0.0 L 5.0,5.0 L 0.0,0.0 z "
         id="path24083" />
    </marker>
  </defs>
  <g
     inkscape:label="Double Trunk"
     inkscape:groupmode="layer"
     id="g51917"
     style="display:inline">
    <g
       id="g51833"
       transform="translate(157.39097,29.859785)"
       style="display:inline">
      <g
         id="g51831"
         transform="translate(-5.2916669)">
        <g
           id="g51823"
           transform="rotate(-13.017437,48.811012,639.29985)">
          <path
             style="display:inline;fill:#c49078;fill-opacity:1;stroke:#c49078;stroke-width:1;stroke-linecap:round;stroke-linejoin:round;stroke-miterlimit:4;stroke-dasharray:none;stroke-opacity:1"
             d="m 35.870136,79.809188 c 0,0 -5.93462,-10.285377 -0.36765,-17.935201 6.813833,-9.363182 12.17001,-5.093403 20.635714,-13.494745 6.786493,-6.734912 3.856953,-4.941474 9.61376,-12.344267 8.901728,-11.446877 8.659273,-1.55111 18.063763,-7.957382 7.913798,-5.390822 6.163238,-9.447209 15.526264,-17.43746 -2.405674,12.080364 -8.000423,9.916592 -10.90212,19.308518 -10.998001,6.255711 -2.636099,3.404697 -10.733417,5.461961 -9.484259,2.409639 -8.368428,8.046906 -13.315573,14.129643 -7.813845,9.607437 -15.695209,6.410437 -18.541148,16.263577 -2.153488,7.455755 1.038976,14.510776 2.528597,17.311986 1.489631,2.80121 -12.50819,-3.30663 -12.50819,-3.30663 z"
             id="path51819"
             sodipodi:nodetypes="cssssccssssc" />
          <path
             id="path51821"
             style="display:inline;fill:#9f6a57;fill-opacity:1;stroke:#9f6a57;stroke-width:3.77953;stroke-linecap:round;stroke-linejoin:round;stroke-miterlimit:4;stroke-dasharray:none;stroke-opacity:1"
             d="m 970.33008,153.07031 c -35.38782,30.19938 -28.77318,45.53149 -58.6836,65.90625 -35.54452,24.21268 -34.62715,-13.18957 -68.27148,30.07422 -21.75801,27.97906 -10.6862,21.20147 -36.33594,46.65625 -31.99636,31.7531 -52.23911,15.6155 -77.99218,51.00391 -21.04052,28.91272 1.38867,67.78515 1.38867,67.78515 0,0 0.53969,0.23173 0.68554,0.29493 -5.05604,-10.82763 -16.10396,-40.35023 0.75977,-63.52344 25.75307,-35.38841 45.99778,-19.2508 77.99414,-51.00391 25.64974,-25.45478 14.57793,-18.67719 36.33594,-46.65625 33.64432,-43.26379 32.72695,-5.86154 68.27148,-30.07422 28.41915,-19.35891 23.88953,-34.17576 53.71875,-61.50781 0.76306,-2.74415 1.48041,-5.69857 2.12891,-8.95508 z"
             transform="matrix(0.26458333,0,0,0.26458333,-157.39097,-29.859785)" />
        </g>
        <g
           id="g51829"
           transform="translate(-103.45205,-31.75)">
          <path
             style="display:inline;fill:#c49078;fill-opacity:1;stroke:#c49078;stroke-width:1;stroke-linecap:round;stroke-linejoin:round;stroke-miterlimit:4;stroke-dasharray:none;stroke-opacity:1"
             d="m 1.5429645,115.20461 c 0,0 -0.44391,-8.09307 -7.413009,-16.606491 -5.7703105,-7.049 -13.8088905,-10.89145 -10.0809905,-22.220768 2.98845,-9.082106 6.5809805,-11.287183 11.7883305,-16.9438 C 5.6584545,48.765064 7.3043845,49.408168 12.774609,39.430122 17.377757,31.033683 4.9076645,22.010606 9.6217105,10.640113 12.96362,22.495664 18.44838,26.548244 20.12762,36.233711 15.444354,48.50294 18.442121,45.423796 15.444354,48.50294 c -2.295407,2.357716 -5.14072,4.406037 -7.8642035,6.795331 -7.35602602,6.453392 -10.606666,25.3144 -10.606666,25.3144 10.538324,6.504058 13.6860715,7.919038 15.6244115,17.990108 1.46672,7.620671 12.857197,14.782431 15.456337,16.601831 2.59915,1.8194 -26.5112685,0 -26.5112685,0 z"
             id="path51825"
             sodipodi:nodetypes="cssssccsssssc" />
          <path
             id="path51827"
             style="display:inline;fill:#9f6a57;fill-opacity:1;stroke:#9f6a57;stroke-width:3.77953;stroke-linecap:round;stroke-linejoin:round;stroke-miterlimit:4;stroke-dasharray:none;stroke-opacity:1"
             d="m 631.22852,153.07031 c -17.81689,42.97509 29.31375,77.07793 11.91601,108.8125 -20.67485,37.7123 -26.89433,35.28168 -64.01367,75.60352 -19.68132,21.37934 -33.25976,29.71299 -44.55469,64.03906 -14.0897,42.81947 16.29252,57.3425 38.10156,83.98438 26.33991,32.17672 28.01758,62.76562 28.01758,62.76562 0,0 3.6319,0.21449 8.51367,0.49219 -0.94557,-7.59992 -5.65489,-33.43191 -27.77929,-60.45899 -21.80905,-26.64183 -52.19127,-41.16491 -38.10157,-83.98437 11.29494,-34.32607 24.87337,-42.65972 44.55469,-64.03906 37.11934,-40.32184 43.34078,-37.89122 64.01563,-75.60352 15.60524,-28.46494 -20.69795,-58.8372 -15.48828,-95.80664 -1.82765,-4.8605 -3.57081,-10.09019 -5.18164,-15.80469 z"
             transform="matrix(0.26458333,0,0,0.26458333,-157.39097,-29.859785)" />
        </g>
      </g>
    </g>
    <g
       id="g1638-6-9"
       transform="matrix(0.46471746,0,0,-0.25891218,-394.01442,464.91411)"
       style="display:inline">
      <path
         d="m 1063.22,1363.63 -3.97,5.96 H 896.482 l -3.956,-5.96 c -12.178,-18.31 -12.178,-42.14 0,-60.45 l 3.956,-5.96 h 162.768 l 3.97,5.96 c 12.17,18.31 12.17,42.14 0,60.45"
         style="fill:#e1c39f;fill-opacity:1;fill-rule:nonzero;stroke:none;stroke-width:0.1"
         id="path314-0-6-2" />
      <path
         d="m 909.212,1385.47 h 137.318 v -15.88 H 909.212 v 15.88"
         style="fill:#f3d9bf;fill-opacity:1;fill-rule:nonzero;stroke:none;stroke-width:0.1"
         id="path316-2-8" />
      <path
         d="m 906.53,1363.63 3.957,5.96 h -14.005 l -3.956,-5.96 c -12.178,-18.31 -12.178,-42.14 0,-60.45 l 3.956,-5.96 h 14.005 l -3.957,5.96 c -12.177,18.31 -12.177,42.14 0,60.45"
         style="fill:#be9a79;fill-opacity:1;fill-rule:nonzero;stroke:none;stroke-width:0.1"
         id="path326-2-5" />
      <path
         d="m 909.212,1385.47 h 14.005 v -15.88 h -14.005 v 15.88"
         style="fill:#e4c196;fill-opacity:1;fill-rule:nonzero;stroke:none;stroke-width:0.1"
         id="path328-0-85" />
    </g>
    <g
       id="g22226-7-9-2-1-7-1-9"
       transform="matrix(0.54835514,0,0,0.54835514,-41.407168,24.321275)"
       style="display:inline">
      <g
         id="g22138-0-2-3-3-8-5-6"
         transform="translate(-26.833461,54.442803)">
        <g
           id="Page-1-8-2-4-6-9-2-5-2"
           stroke="none"
           stroke-width="1"
           fill="none"
           fill-rule="evenodd"
           sketch:type="MSPage"
           style="fill:#81cc29;fill-opacity:1"
           transform="matrix(1.25,0,0,1.25,123.91155,12.485537)">
          <g
             id="Icon-Set-Filled-29-3-8-1-3-1-6"
             sketch:type="MSLayerGroup"
             transform="translate(-519,-781)"
             fill="#000000"
             style="fill:#81cc29;fill-opacity:1">
            <path
               d="M 542.067,786.028 C 540.599,783.053 537.543,781 534,781 c -4.749,0 -8.63,3.682 -8.967,8.345 C 521.542,790.34 519,793.39 519,797 c 0,4.26 3.54,7.755 8,8 h 15 c 4.966,0 9,-4.253 9,-9.5 0,-5.056 -3.951,-9.177 -8.933,-9.472"
               id="cloud-6-3-9-3-3-5-0"
               sketch:type="MSShapeGroup"
               style="fill:#99ffcc;fill-opacity:1" />
          </g>
        </g>
        <path
           id="cloud-7-3-9-3-2-2-1-5"
           style="fill:#5de7a2;fill-opacity:1;fill-rule:evenodd;stroke:none;stroke-width:1.25"
           d="m 142.66142,12.485383 c -5.93625,0 -10.78737,4.602654 -11.20862,10.431404 -4.36375,1.243751 -7.54166,5.056426 -7.54166,9.568923 0,5.325002 4.42491,9.693659 9.99991,9.999909 h 4.23385 c -5.575,-0.30625 -10.00043,-4.674907 -10.00043,-9.999909 0,-4.512497 3.17791,-8.325172 7.54166,-9.568923 0.36984,-5.117375 4.15439,-9.28873 9.08989,-10.2309 -0.68475,-0.130707 -1.3914,-0.200504 -2.1146,-0.200504 z" />
      </g>
      <g
         id="g22138-4-6-3-7-9-4-4-0"
         transform="translate(0.33401899,35.484808)"
         style="display:inline">
        <g
           id="Page-1-8-0-8-6-2-5-8-5-9"
           stroke="none"
           stroke-width="1"
           fill="none"
           fill-rule="evenodd"
           sketch:type="MSPage"
           style="fill:#81cc29;fill-opacity:1"
           transform="matrix(1.25,0,0,1.25,123.91155,12.485537)">
          <g
             id="Icon-Set-Filled-2-7-9-1-2-5-8-4"
             sketch:type="MSLayerGroup"
             transform="translate(-519,-781)"
             fill="#000000"
             style="fill:#81cc29;fill-opacity:1">
            <path
               d="M 542.067,786.028 C 540.599,783.053 537.543,781 534,781 c -4.749,0 -8.63,3.682 -8.967,8.345 C 521.542,790.34 519,793.39 519,797 c 0,4.26 3.54,7.755 8,8 h 15 c 4.966,0 9,-4.253 9,-9.5 0,-5.056 -3.951,-9.177 -8.933,-9.472"
               id="cloud-1-4-0-9-8-7-3-6"
               sketch:type="MSShapeGroup"
               style="fill:#99ffcc;fill-opacity:1" />
          </g>
        </g>
        <path
           id="cloud-7-8-8-3-7-8-5-1-6"
           style="fill:#5de7a2;fill-opacity:1;fill-rule:evenodd;stroke:none;stroke-width:1.25"
           d="m 142.66142,12.485383 c -5.93625,0 -10.78737,4.602654 -11.20862,10.431404 -4.36375,1.243751 -7.54166,5.056426 -7.54166,9.568923 0,5.325002 4.42491,9.693659 9.99991,9.999909 h 4.23385 c -5.575,-0.30625 -10.00043,-4.674907 -10.00043,-9.999909 0,-4.512497 3.17791,-8.325172 7.54166,-9.568923 0.36984,-5.117375 4.15439,-9.28873 9.08989,-10.2309 -0.68475,-0.130707 -1.3914,-0.200504 -2.1146,-0.200504 z" />
      </g>
      <g
         id="g22138-5-3-3-7-3-8-2-5"
         transform="translate(29.81882,54.442617)"
         style="display:inline">
        <g
           id="Page-1-8-4-1-3-5-1-2-5-5"
           stroke="none"
           stroke-width="1"
           fill="none"
           fill-rule="evenodd"
           sketch:type="MSPage"
           style="fill:#81cc29;fill-opacity:1"
           transform="matrix(1.25,0,0,1.25,123.91155,12.485537)">
          <g
             id="Icon-Set-Filled-8-8-5-8-2-7-4-6"
             sketch:type="MSLayerGroup"
             transform="translate(-519,-781)"
             fill="#000000"
             style="fill:#81cc29;fill-opacity:1">
            <path
               d="M 542.067,786.028 C 540.599,783.053 537.543,781 534,781 c -4.749,0 -8.63,3.682 -8.967,8.345 C 521.542,790.34 519,793.39 519,797 c 0,4.26 3.54,7.755 8,8 h 15 c 4.966,0 9,-4.253 9,-9.5 0,-5.056 -3.951,-9.177 -8.933,-9.472"
               id="cloud-3-11-3-0-3-6-8-6"
               sketch:type="MSShapeGroup"
               style="fill:#99ffcc;fill-opacity:1" />
          </g>
        </g>
        <path
           id="cloud-7-4-4-6-2-0-5-8-0"
           style="fill:#5de7a2;fill-opacity:1;fill-rule:evenodd;stroke:none;stroke-width:1.25"
           d="m 142.66142,12.485383 c -5.93625,0 -10.78737,4.602654 -11.20862,10.431404 -4.36375,1.243751 -7.54166,5.056426 -7.54166,9.568923 0,5.325002 4.42491,9.693659 9.99991,9.999909 h 4.23385 c -5.575,-0.30625 -10.00043,-4.674907 -10.00043,-9.999909 0,-4.512497 3.17791,-8.325172 7.54166,-9.568923 0.36984,-5.117375 4.15439,-9.28873 9.08989,-10.2309 -0.68475,-0.130707 -1.3914,-0.200504 -2.1146,-0.200504 z" />
      </g>
    </g>
    <g
       id="g22226-7-9-2-1-7-1-9-3"
       transform="matrix(0.46558455,0,0,0.46558455,22.350974,34.750039)"
       style="display:inline">
      <g
         id="g22138-0-2-3-3-8-5-6-8"
         transform="translate(-26.833461,54.442803)">
        <g
           id="Page-1-8-2-4-6-9-2-5-2-8"
           stroke="none"
           stroke-width="1"
           fill="none"
           fill-rule="evenodd"
           sketch:type="MSPage"
           style="fill:#81cc29;fill-opacity:1"
           transform="matrix(1.25,0,0,1.25,123.91155,12.485537)">
          <g
             id="Icon-Set-Filled-29-3-8-1-3-1-6-2"
             sketch:type="MSLayerGroup"
             transform="translate(-519,-781)"
             fill="#000000"
             style="fill:#81cc29;fill-opacity:1">
            <path
               d="M 542.067,786.028 C 540.599,783.053 537.543,781 534,781 c -4.749,0 -8.63,3.682 -8.967,8.345 C 521.542,790.34 519,793.39 519,797 c 0,4.26 3.54,7.755 8,8 h 15 c 4.966,0 9,-4.253 9,-9.5 0,-5.056 -3.951,-9.177 -8.933,-9.472"
               id="cloud-6-3-9-3-3-5-0-6"
               sketch:type="MSShapeGroup"
               style="fill:#99ffcc;fill-opacity:1" />
          </g>
        </g>
        <path
           id="cloud-7-3-9-3-2-2-1-5-3"
           style="fill:#5de7a2;fill-opacity:1;fill-rule:evenodd;stroke:none;stroke-width:1.25"
           d="m 142.66142,12.485383 c -5.93625,0 -10.78737,4.602654 -11.20862,10.431404 -4.36375,1.243751 -7.54166,5.056426 -7.54166,9.568923 0,5.325002 4.42491,9.693659 9.99991,9.999909 h 4.23385 c -5.575,-0.30625 -10.00043,-4.674907 -10.00043,-9.999909 0,-4.512497 3.17791,-8.325172 7.54166,-9.568923 0.36984,-5.117375 4.15439,-9.28873 9.08989,-10.2309 -0.68475,-0.130707 -1.3914,-0.200504 -2.1146,-0.200504 z" />
      </g>
      <g
         id="g22138-4-6-3-7-9-4-4-0-4"
         transform="translate(0.33401899,35.484808)"
         style="display:inline">
        <g
           id="Page-1-8-0-8-6-2-5-8-5-9-9"
           stroke="none"
           stroke-width="1"
           fill="none"
           fill-rule="evenodd"
           sketch:type="MSPage"
           style="fill:#81cc29;fill-opacity:1"
           transform="matrix(1.25,0,0,1.25,123.91155,12.485537)">
          <g
             id="Icon-Set-Filled-2-7-9-1-2-5-8-4-5"
             sketch:type="MSLayerGroup"
             transform="translate(-519,-781)"
             fill="#000000"
             style="fill:#81cc29;fill-opacity:1">
            <path
               d="M 542.067,786.028 C 540.599,783.053 537.543,781 534,781 c -4.749,0 -8.63,3.682 -8.967,8.345 C 521.542,790.34 519,793.39 519,797 c 0,4.26 3.54,7.755 8,8 h 15 c 4.966,0 9,-4.253 9,-9.5 0,-5.056 -3.951,-9.177 -8.933,-9.472"
               id="cloud-1-4-0-9-8-7-3-6-9"
               sketch:type="MSShapeGroup"
               style="fill:#99ffcc;fill-opacity:1" />
          </g>
        </g>
        <path
           id="cloud-7-8-8-3-7-8-5-1-6-9"
           style="fill:#5de7a2;fill-opacity:1;fill-rule:evenodd;stroke:none;stroke-width:1.25"
           d="m 142.66142,12.485383 c -5.93625,0 -10.78737,4.602654 -11.20862,10.431404 -4.36375,1.243751 -7.54166,5.056426 -7.54166,9.568923 0,5.325002 4.42491,9.693659 9.99991,9.999909 h 4.23385 c -5.575,-0.30625 -10.00043,-4.674907 -10.00043,-9.999909 0,-4.512497 3.17791,-8.325172 7.54166,-9.568923 0.36984,-5.117375 4.15439,-9.28873 9.08989,-10.2309 -0.68475,-0.130707 -1.3914,-0.200504 -2.1146,-0.200504 z" />
      </g>
      <g
         id="g22138-5-3-3-7-3-8-2-5-3"
         transform="translate(29.81882,54.442617)"
         style="display:inline">
        <g
           id="Page-1-8-4-1-3-5-1-2-5-5-2"
           stroke="none"
           stroke-width="1"
           fill="none"
           fill-rule="evenodd"
           sketch:type="MSPage"
           style="fill:#81cc29;fill-opacity:1"
           transform="matrix(1.25,0,0,1.25,123.91155,12.485537)">
          <g
             id="Icon-Set-Filled-8-8-5-8-2-7-4-6-2"
             sketch:type="MSLayerGroup"
             transform="translate(-519,-781)"
             fill="#000000"
             style="fill:#81cc29;fill-opacity:1">
            <path
               d="M 542.067,786.028 C 540.599,783.053 537.543,781 534,781 c -4.749,0 -8.63,3.682 -8.967,8.345 C 521.542,790.34 519,793.39 519,797 c 0,4.26 3.54,7.755 8,8 h 15 c 4.966,0 9,-4.253 9,-9.5 0,-5.056 -3.951,-9.177 -8.933,-9.472"
               id="cloud-3-11-3-0-3-6-8-6-3"
               sketch:type="MSShapeGroup"
               style="fill:#99ffcc;fill-opacity:1" />
          </g>
        </g>
        <path
           id="cloud-7-4-4-6-2-0-5-8-0-7"
           style="fill:#5de7a2;fill-opacity:1;fill-rule:evenodd;stroke:none;stroke-width:1.25"
           d="m 142.66142,12.485383 c -5.93625,0 -10.78737,4.602654 -11.20862,10.431404 -4.36375,1.243751 -7.54166,5.056426 -7.54166,9.568923 0,5.325002 4.42491,9.693659 9.99991,9.999909 h 4.23385 c -5.575,-0.30625 -10.00043,-4.674907 -10.00043,-9.999909 0,-4.512497 3.17791,-8.325172 7.54166,-9.568923 0.36984,-5.117375 4.15439,-9.28873 9.08989,-10.2309 -0.68475,-0.130707 -1.3914,-0.200504 -2.1146,-0.200504 z" />
      </g>
    </g>
    <g
       id="g22226-7-9-2-1-7-1-9-3-0"
       transform="matrix(0.46558455,0,0,0.46558455,-5.5474976,1.7684928)"
       style="display:inline">
      <g
         id="g22138-0-2-3-3-8-5-6-8-7"
         transform="translate(-26.833461,54.442803)">
        <g
           id="Page-1-8-2-4-6-9-2-5-2-8-8"
           stroke="none"
           stroke-width="1"
           fill="none"
           fill-rule="evenodd"
           sketch:type="MSPage"
           style="fill:#81cc29;fill-opacity:1"
           transform="matrix(1.25,0,0,1.25,123.91155,12.485537)">
          <g
             id="Icon-Set-Filled-29-3-8-1-3-1-6-2-2"
             sketch:type="MSLayerGroup"
             transform="translate(-519,-781)"
             fill="#000000"
             style="fill:#81cc29;fill-opacity:1">
            <path
               d="M 542.067,786.028 C 540.599,783.053 537.543,781 534,781 c -4.749,0 -8.63,3.682 -8.967,8.345 C 521.542,790.34 519,793.39 519,797 c 0,4.26 3.54,7.755 8,8 h 15 c 4.966,0 9,-4.253 9,-9.5 0,-5.056 -3.951,-9.177 -8.933,-9.472"
               id="cloud-6-3-9-3-3-5-0-6-3"
               sketch:type="MSShapeGroup"
               style="fill:#99ffcc;fill-opacity:1" />
          </g>
        </g>
        <path
           id="cloud-7-3-9-3-2-2-1-5-3-7"
           style="fill:#5de7a2;fill-opacity:1;fill-rule:evenodd;stroke:none;stroke-width:1.25"
           d="m 142.66142,12.485383 c -5.93625,0 -10.78737,4.602654 -11.20862,10.431404 -4.36375,1.243751 -7.54166,5.056426 -7.54166,9.568923 0,5.325002 4.42491,9.693659 9.99991,9.999909 h 4.23385 c -5.575,-0.30625 -10.00043,-4.674907 -10.00043,-9.999909 0,-4.512497 3.17791,-8.325172 7.54166,-9.568923 0.36984,-5.117375 4.15439,-9.28873 9.08989,-10.2309 -0.68475,-0.130707 -1.3914,-0.200504 -2.1146,-0.200504 z" />
      </g>
      <g
         id="g22138-4-6-3-7-9-4-4-0-4-6"
         transform="translate(0.33401899,35.484808)"
         style="display:inline">
        <g
           id="Page-1-8-0-8-6-2-5-8-5-9-9-5"
           stroke="none"
           stroke-width="1"
           fill="none"
           fill-rule="evenodd"
           sketch:type="MSPage"
           style="fill:#81cc29;fill-opacity:1"
           transform="matrix(1.25,0,0,1.25,123.91155,12.485537)">
          <g
             id="Icon-Set-Filled-2-7-9-1-2-5-8-4-5-9"
             sketch:type="MSLayerGroup"
             transform="translate(-519,-781)"
             fill="#000000"
             style="fill:#81cc29;fill-opacity:1">
            <path
               d="M 542.067,786.028 C 540.599,783.053 537.543,781 534,781 c -4.749,0 -8.63,3.682 -8.967,8.345 C 521.542,790.34 519,793.39 519,797 c 0,4.26 3.54,7.755 8,8 h 15 c 4.966,0 9,-4.253 9,-9.5 0,-5.056 -3.951,-9.177 -8.933,-9.472"
               id="cloud-1-4-0-9-8-7-3-6-9-7"
               sketch:type="MSShapeGroup"
               style="fill:#99ffcc;fill-opacity:1" />
          </g>
        </g>
        <path
           id="cloud-7-8-8-3-7-8-5-1-6-9-5"
           style="fill:#5de7a2;fill-opacity:1;fill-rule:evenodd;stroke:none;stroke-width:1.25"
           d="m 142.66142,12.485383 c -5.93625,0 -10.78737,4.602654 -11.20862,10.431404 -4.36375,1.243751 -7.54166,5.056426 -7.54166,9.568923 0,5.325002 4.42491,9.693659 9.99991,9.999909 h 4.23385 c -5.575,-0.30625 -10.00043,-4.674907 -10.00043,-9.999909 0,-4.512497 3.17791,-8.325172 7.54166,-9.568923 0.36984,-5.117375 4.15439,-9.28873 9.08989,-10.2309 -0.68475,-0.130707 -1.3914,-0.200504 -2.1146,-0.200504 z" />
      </g>
      <g
         id="g22138-5-3-3-7-3-8-2-5-3-8"
         transform="translate(29.81882,54.442617)"
         style="display:inline">
        <g
           id="Page-1-8-4-1-3-5-1-2-5-5-2-3"
           stroke="none"
           stroke-width="1"
           fill="none"
           fill-rule="evenodd"
           sketch:type="MSPage"
           style="fill:#81cc29;fill-opacity:1"
           transform="matrix(1.25,0,0,1.25,123.91155,12.485537)">
          <g
             id="Icon-Set-Filled-8-8-5-8-2-7-4-6-2-3"
             sketch:type="MSLayerGroup"
             transform="translate(-519,-781)"
             fill="#000000"
             style="fill:#81cc29;fill-opacity:1">
            <path
               d="M 542.067,786.028 C 540.599,783.053 537.543,781 534,781 c -4.749,0 -8.63,3.682 -8.967,8.345 C 521.542,790.34 519,793.39 519,797 c 0,4.26 3.54,7.755 8,8 h 15 c 4.966,0 9,-4.253 9,-9.5 0,-5.056 -3.951,-9.177 -8.933,-9.472"
               id="cloud-3-11-3-0-3-6-8-6-3-8"
               sketch:type="MSShapeGroup"
               style="fill:#99ffcc;fill-opacity:1" />
          </g>
        </g>
        <path
           id="cloud-7-4-4-6-2-0-5-8-0-7-3"
           style="fill:#5de7a2;fill-opacity:1;fill-rule:evenodd;stroke:none;stroke-width:1.25"
           d="m 142.66142,12.485383 c -5.93625,0 -10.78737,4.602654 -11.20862,10.431404 -4.36375,1.243751 -7.54166,5.056426 -7.54166,9.568923 0,5.325002 4.42491,9.693659 9.99991,9.999909 h 4.23385 c -5.575,-0.30625 -10.00043,-4.674907 -10.00043,-9.999909 0,-4.512497 3.17791,-8.325172 7.54166,-9.568923 0.36984,-5.117375 4.15439,-9.28873 9.08989,-10.2309 -0.68475,-0.130707 -1.3914,-0.200504 -2.1146,-0.200504 z" />
      </g>
    </g>
    <g
       id="g22226-7-9-2-1-7-1-9-3-4"
       transform="matrix(0.3103897,0,0,0.3103897,63.042521,21.473375)"
       style="display:inline">
      <g
         id="g22138-0-2-3-3-8-5-6-8-74"
         transform="translate(-26.833461,54.442803)">
        <g
           id="Page-1-8-2-4-6-9-2-5-2-8-9"
           stroke="none"
           stroke-width="1"
           fill="none"
           fill-rule="evenodd"
           sketch:type="MSPage"
           style="fill:#81cc29;fill-opacity:1"
           transform="matrix(1.25,0,0,1.25,123.91155,12.485537)">
          <g
             id="Icon-Set-Filled-29-3-8-1-3-1-6-2-4"
             sketch:type="MSLayerGroup"
             transform="translate(-519,-781)"
             fill="#000000"
             style="fill:#81cc29;fill-opacity:1">
            <path
               d="M 542.067,786.028 C 540.599,783.053 537.543,781 534,781 c -4.749,0 -8.63,3.682 -8.967,8.345 C 521.542,790.34 519,793.39 519,797 c 0,4.26 3.54,7.755 8,8 h 15 c 4.966,0 9,-4.253 9,-9.5 0,-5.056 -3.951,-9.177 -8.933,-9.472"
               id="cloud-6-3-9-3-3-5-0-6-4"
               sketch:type="MSShapeGroup"
               style="fill:#99ffcc;fill-opacity:1" />
          </g>
        </g>
        <path
           id="cloud-7-3-9-3-2-2-1-5-3-5"
           style="fill:#5de7a2;fill-opacity:1;fill-rule:evenodd;stroke:none;stroke-width:1.25"
           d="m 142.66142,12.485383 c -5.93625,0 -10.78737,4.602654 -11.20862,10.431404 -4.36375,1.243751 -7.54166,5.056426 -7.54166,9.568923 0,5.325002 4.42491,9.693659 9.99991,9.999909 h 4.23385 c -5.575,-0.30625 -10.00043,-4.674907 -10.00043,-9.999909 0,-4.512497 3.17791,-8.325172 7.54166,-9.568923 0.36984,-5.117375 4.15439,-9.28873 9.08989,-10.2309 -0.68475,-0.130707 -1.3914,-0.200504 -2.1146,-0.200504 z" />
      </g>
      <g
         id="g22138-4-6-3-7-9-4-4-0-4-7"
         transform="translate(0.33401899,35.484808)"
         style="display:inline">
        <g
           id="Page-1-8-0-8-6-2-5-8-5-9-9-8"
           stroke="none"
           stroke-width="1"
           fill="none"
           fill-rule="evenodd"
           sketch:type="MSPage"
           style="fill:#81cc29;fill-opacity:1"
           transform="matrix(1.25,0,0,1.25,123.91155,12.485537)">
          <g
             id="Icon-Set-Filled-2-7-9-1-2-5-8-4-5-7"
             sketch:type="MSLayerGroup"
             transform="translate(-519,-781)"
             fill="#000000"
             style="fill:#81cc29;fill-opacity:1">
            <path
               d="M 542.067,786.028 C 540.599,783.053 537.543,781 534,781 c -4.749,0 -8.63,3.682 -8.967,8.345 C 521.542,790.34 519,793.39 519,797 c 0,4.26 3.54,7.755 8,8 h 15 c 4.966,0 9,-4.253 9,-9.5 0,-5.056 -3.951,-9.177 -8.933,-9.472"
               id="cloud-1-4-0-9-8-7-3-6-9-1"
               sketch:type="MSShapeGroup"
               style="fill:#99ffcc;fill-opacity:1" />
          </g>
        </g>
        <path
           id="cloud-7-8-8-3-7-8-5-1-6-9-54"
           style="fill:#5de7a2;fill-opacity:1;fill-rule:evenodd;stroke:none;stroke-width:1.25"
           d="m 142.66142,12.485383 c -5.93625,0 -10.78737,4.602654 -11.20862,10.431404 -4.36375,1.243751 -7.54166,5.056426 -7.54166,9.568923 0,5.325002 4.42491,9.693659 9.99991,9.999909 h 4.23385 c -5.575,-0.30625 -10.00043,-4.674907 -10.00043,-9.999909 0,-4.512497 3.17791,-8.325172 7.54166,-9.568923 0.36984,-5.117375 4.15439,-9.28873 9.08989,-10.2309 -0.68475,-0.130707 -1.3914,-0.200504 -2.1146,-0.200504 z" />
      </g>
      <g
         id="g22138-5-3-3-7-3-8-2-5-3-9"
         transform="translate(29.81882,54.442617)"
         style="display:inline">
        <g
           id="Page-1-8-4-1-3-5-1-2-5-5-2-7"
           stroke="none"
           stroke-width="1"
           fill="none"
           fill-rule="evenodd"
           sketch:type="MSPage"
           style="fill:#81cc29;fill-opacity:1"
           transform="matrix(1.25,0,0,1.25,123.91155,12.485537)">
          <g
             id="Icon-Set-Filled-8-8-5-8-2-7-4-6-2-1"
             sketch:type="MSLayerGroup"
             transform="translate(-519,-781)"
             fill="#000000"
             style="fill:#81cc29;fill-opacity:1">
            <path
               d="M 542.067,786.028 C 540.599,783.053 537.543,781 534,781 c -4.749,0 -8.63,3.682 -8.967,8.345 C 521.542,790.34 519,793.39 519,797 c 0,4.26 3.54,7.755 8,8 h 15 c 4.966,0 9,-4.253 9,-9.5 0,-5.056 -3.951,-9.177 -8.933,-9.472"
               id="cloud-3-11-3-0-3-6-8-6-3-2"
               sketch:type="MSShapeGroup"
               style="fill:#99ffcc;fill-opacity:1" />
          </g>
        </g>
        <path
           id="cloud-7-4-4-6-2-0-5-8-0-7-7"
           style="fill:#5de7a2;fill-opacity:1;fill-rule:evenodd;stroke:none;stroke-width:1.25"
           d="m 142.66142,12.485383 c -5.93625,0 -10.78737,4.602654 -11.20862,10.431404 -4.36375,1.243751 -7.54166,5.056426 -7.54166,9.568923 0,5.325002 4.42491,9.693659 9.99991,9.999909 h 4.23385 c -5.575,-0.30625 -10.00043,-4.674907 -10.00043,-9.999909 0,-4.512497 3.17791,-8.325172 7.54166,-9.568923 0.36984,-5.117375 4.15439,-9.28873 9.08989,-10.2309 -0.68475,-0.130707 -1.3914,-0.200504 -2.1146,-0.200504 z" />
      </g>
    </g>
    <g
       id="g22226-7-9-2-1-7-1-9-3-4-9"
       transform="matrix(0.3103897,0,0,0.3103897,13.085125,-13.514351)"
       style="display:inline">
      <g
         id="g22138-0-2-3-3-8-5-6-8-74-3"
         transform="translate(-26.833461,54.442803)">
        <g
           id="Page-1-8-2-4-6-9-2-5-2-8-9-1"
           stroke="none"
           stroke-width="1"
           fill="none"
           fill-rule="evenodd"
           sketch:type="MSPage"
           style="fill:#81cc29;fill-opacity:1"
           transform="matrix(1.25,0,0,1.25,123.91155,12.485537)">
          <g
             id="Icon-Set-Filled-29-3-8-1-3-1-6-2-4-4"
             sketch:type="MSLayerGroup"
             transform="translate(-519,-781)"
             fill="#000000"
             style="fill:#81cc29;fill-opacity:1">
            <path
               d="M 542.067,786.028 C 540.599,783.053 537.543,781 534,781 c -4.749,0 -8.63,3.682 -8.967,8.345 C 521.542,790.34 519,793.39 519,797 c 0,4.26 3.54,7.755 8,8 h 15 c 4.966,0 9,-4.253 9,-9.5 0,-5.056 -3.951,-9.177 -8.933,-9.472"
               id="cloud-6-3-9-3-3-5-0-6-4-0"
               sketch:type="MSShapeGroup"
               style="fill:#99ffcc;fill-opacity:1" />
          </g>
        </g>
        <path
           id="cloud-7-3-9-3-2-2-1-5-3-5-5"
           style="fill:#5de7a2;fill-opacity:1;fill-rule:evenodd;stroke:none;stroke-width:1.25"
           d="m 142.66142,12.485383 c -5.93625,0 -10.78737,4.602654 -11.20862,10.431404 -4.36375,1.243751 -7.54166,5.056426 -7.54166,9.568923 0,5.325002 4.42491,9.693659 9.99991,9.999909 h 4.23385 c -5.575,-0.30625 -10.00043,-4.674907 -10.00043,-9.999909 0,-4.512497 3.17791,-8.325172 7.54166,-9.568923 0.36984,-5.117375 4.15439,-9.28873 9.08989,-10.2309 -0.68475,-0.130707 -1.3914,-0.200504 -2.1146,-0.200504 z" />
      </g>
      <g
         id="g22138-4-6-3-7-9-4-4-0-4-7-9"
         transform="translate(0.33401899,35.484808)"
         style="display:inline">
        <g
           id="Page-1-8-0-8-6-2-5-8-5-9-9-8-4"
           stroke="none"
           stroke-width="1"
           fill="none"
           fill-rule="evenodd"
           sketch:type="MSPage"
           style="fill:#81cc29;fill-opacity:1"
           transform="matrix(1.25,0,0,1.25,123.91155,12.485537)">
          <g
             id="Icon-Set-Filled-2-7-9-1-2-5-8-4-5-7-4"
             sketch:type="MSLayerGroup"
             transform="translate(-519,-781)"
             fill="#000000"
             style="fill:#81cc29;fill-opacity:1">
            <path
               d="M 542.067,786.028 C 540.599,783.053 537.543,781 534,781 c -4.749,0 -8.63,3.682 -8.967,8.345 C 521.542,790.34 519,793.39 519,797 c 0,4.26 3.54,7.755 8,8 h 15 c 4.966,0 9,-4.253 9,-9.5 0,-5.056 -3.951,-9.177 -8.933,-9.472"
               id="cloud-1-4-0-9-8-7-3-6-9-1-9"
               sketch:type="MSShapeGroup"
               style="fill:#99ffcc;fill-opacity:1" />
          </g>
        </g>
        <path
           id="cloud-7-8-8-3-7-8-5-1-6-9-54-4"
           style="fill:#5de7a2;fill-opacity:1;fill-rule:evenodd;stroke:none;stroke-width:1.25"
           d="m 142.66142,12.485383 c -5.93625,0 -10.78737,4.602654 -11.20862,10.431404 -4.36375,1.243751 -7.54166,5.056426 -7.54166,9.568923 0,5.325002 4.42491,9.693659 9.99991,9.999909 h 4.23385 c -5.575,-0.30625 -10.00043,-4.674907 -10.00043,-9.999909 0,-4.512497 3.17791,-8.325172 7.54166,-9.568923 0.36984,-5.117375 4.15439,-9.28873 9.08989,-10.2309 -0.68475,-0.130707 -1.3914,-0.200504 -2.1146,-0.200504 z" />
      </g>
      <g
         id="g22138-5-3-3-7-3-8-2-5-3-9-5"
         transform="translate(29.81882,54.442617)"
         style="display:inline">
        <g
           id="Page-1-8-4-1-3-5-1-2-5-5-2-7-6"
           stroke="none"
           stroke-width="1"
           fill="none"
           fill-rule="evenodd"
           sketch:type="MSPage"
           style="fill:#81cc29;fill-opacity:1"
           transform="matrix(1.25,0,0,1.25,123.91155,12.485537)">
          <g
             id="Icon-Set-Filled-8-8-5-8-2-7-4-6-2-1-3"
             sketch:type="MSLayerGroup"
             transform="translate(-519,-781)"
             fill="#000000"
             style="fill:#81cc29;fill-opacity:1">
            <path
               d="M 542.067,786.028 C 540.599,783.053 537.543,781 534,781 c -4.749,0 -8.63,3.682 -8.967,8.345 C 521.542,790.34 519,793.39 519,797 c 0,4.26 3.54,7.755 8,8 h 15 c 4.966,0 9,-4.253 9,-9.5 0,-5.056 -3.951,-9.177 -8.933,-9.472"
               id="cloud-3-11-3-0-3-6-8-6-3-2-6"
               sketch:type="MSShapeGroup"
               style="fill:#99ffcc;fill-opacity:1" />
          </g>
        </g>
        <path
           id="cloud-7-4-4-6-2-0-5-8-0-7-7-6"
           style="fill:#5de7a2;fill-opacity:1;fill-rule:evenodd;stroke:none;stroke-width:1.25"
           d="m 142.66142,12.485383 c -5.93625,0 -10.78737,4.602654 -11.20862,10.431404 -4.36375,1.243751 -7.54166,5.056426 -7.54166,9.568923 0,5.325002 4.42491,9.693659 9.99991,9.999909 h 4.23385 c -5.575,-0.30625 -10.00043,-4.674907 -10.00043,-9.999909 0,-4.512497 3.17791,-8.325172 7.54166,-9.568923 0.36984,-5.117375 4.15439,-9.28873 9.08989,-10.2309 -0.68475,-0.130707 -1.3914,-0.200504 -2.1146,-0.200504 z" />
      </g>
    </g>
  </g>
</svg>
