<?xml version="1.0" encoding="UTF-8" standalone="no"?>
<!-- Created with Inkscape (http://www.inkscape.org/) -->

<svg
   width="500"
   height="500"
   viewBox="0 0 132.29166 132.29167"
   version="1.1"
   id="svg2515"
   inkscape:version="1.1.2 (b8e25be833, 2022-02-05)"
   sodipodi:docname="bonsai01s06blooming.svg"
   inkscape:export-filename="C:\Users\Lenovo\Desktop\Coding\Media files\Bonsais\bonsai01.png"
   inkscape:export-xdpi="96"
   inkscape:export-ydpi="96"
   xmlns:inkscape="http://www.inkscape.org/namespaces/inkscape"
   xmlns:sodipodi="http://sodipodi.sourceforge.net/DTD/sodipodi-0.dtd"
   xmlns="http://www.w3.org/2000/svg"
   xmlns:svg="http://www.w3.org/2000/svg">
  <sodipodi:namedview
     id="namedview2517"
     pagecolor="#ffffff"
     bordercolor="#666666"
     borderopacity="1.0"
     inkscape:pageshadow="2"
     inkscape:pageopacity="0.0"
     inkscape:pagecheckerboard="0"
     inkscape:document-units="mm"
     showgrid="false"
     units="px"
     inkscape:zoom="1.4142136"
     inkscape:cx="235.82011"
     inkscape:cy="247.84092"
     inkscape:window-width="1920"
     inkscape:window-height="1001"
     inkscape:window-x="-9"
     inkscape:window-y="-9"
     inkscape:window-maximized="1"
     inkscape:current-layer="g17992" />
  <defs
     id="defs2512">
    <marker
       style="overflow:visible"
       id="Arrow1Sstart"
       refX="0.0"
       refY="0.0"
       orient="auto"
       inkscape:stockid="Arrow1Sstart"
       inkscape:isstock="true">
      <path
         transform="scale(0.2) translate(6,0)"
         style="fill-rule:evenodd;fill:context-stroke;stroke:context-stroke;stroke-width:1.0pt"
         d="M 0.0,0.0 L 5.0,-5.0 L -12.5,0.0 L 5.0,5.0 L 0.0,0.0 z "
         id="path24092" />
    </marker>
    <marker
       style="overflow:visible"
       id="Arrow1Mstart"
       refX="0.0"
       refY="0.0"
       orient="auto"
       inkscape:stockid="Arrow1Mstart"
       inkscape:isstock="true">
      <path
         transform="scale(0.4) translate(10,0)"
         style="fill-rule:evenodd;fill:context-stroke;stroke:context-stroke;stroke-width:1.0pt"
         d="M 0.0,0.0 L 5.0,-5.0 L -12.5,0.0 L 5.0,5.0 L 0.0,0.0 z "
         id="path24086" />
    </marker>
    <marker
       style="overflow:visible"
       id="Arrow1Lstart"
       refX="0.0"
       refY="0.0"
       orient="auto"
       inkscape:stockid="Arrow1Lstart"
       inkscape:isstock="true">
      <path
         transform="scale(0.8) translate(12.5,0)"
         style="fill-rule:evenodd;fill:context-stroke;stroke:context-stroke;stroke-width:1.0pt"
         d="M 0.0,0.0 L 5.0,-5.0 L -12.5,0.0 L 5.0,5.0 L 0.0,0.0 z "
         id="path24080" />
    </marker>
    <marker
       style="overflow:visible;"
       id="Arrow1Lend"
       refX="0.0"
       refY="0.0"
       orient="auto"
       inkscape:stockid="Arrow1Lend"
       inkscape:isstock="true">
      <path
         transform="scale(0.8) rotate(180) translate(12.5,0)"
         style="fill-rule:evenodd;fill:context-stroke;stroke:context-stroke;stroke-width:1.0pt;"
         d="M 0.0,0.0 L 5.0,-5.0 L -12.5,0.0 L 5.0,5.0 L 0.0,0.0 z "
         id="path24083" />
    </marker>
  </defs>
  <g
     inkscape:label="Full Cascade Style"
     inkscape:groupmode="layer"
     id="g17992"
     style="display:inline">
    <g
       id="g17906"
       transform="translate(124.68868,23.38778)">
      <path
         style="fill:#d25c4f;fill-opacity:1;stroke:#d25c4f;stroke-width:1;stroke-linecap:round;stroke-linejoin:round;stroke-miterlimit:4;stroke-dasharray:none;stroke-opacity:1"
         d="m -99.500015,30.838997 c 0,0 3.638799,-12.735798 11.176313,-18.453912 7.537513,-5.7181136 12.496916,-8.4784226 23.142885,-10.0872826 10.645968,-1.60885902 11.594881,-2.51410402 19.483052,-1.089031 7.888169,1.425072 21.667403,2.638059 27.063051,17.1643086 6.81601,18.350201 6.7258,20.263344 4.38657,25.721542 -2.33923,5.458201 -12.829945,17.760783 -15.334937,20.793141 -4.938372,5.978028 -5.458199,8.317257 -3.118973,13.255629 0.330604,2.90298 6.162124,16.3246 -1.302394,6.77885 -6.495032,-13.276708 -1.296749,-18.994823 1.822223,-22.893535 3.118972,-3.898715 15.179241,-16.422587 15.075031,-22.61254 -0.10422,-6.189957 -5.4582,-19.233654 -7.277605,-20.013397 -1.819399,-0.779743 -7.017683,-14.5551986 -26.771164,-12.7357996 -19.753485,1.819402 -19.233657,3.3788866 -25.211683,9.6168266 -5.152861,5.376899 -9.876742,12.21597 -7.277599,14.035371 2.599142,1.8194 -15.85477,0.519829 -15.85477,0.519829 z"
         id="path17902"
         sodipodi:nodetypes="cssssssccssssssc" />
      <path
         id="path17904"
         style="display:inline;fill:#ae4942;fill-opacity:1;stroke:#ae4942;stroke-width:3.77953;stroke-linecap:round;stroke-linejoin:round;stroke-miterlimit:4;stroke-dasharray:none;stroke-opacity:1"
         d="m -198.50781,1.9003906 c -11.86585,0.2218352 -22.69775,2.9847019 -47.84571,6.7851563 -40.23673,6.0807311 -58.98051,16.5132281 -87.46875,38.1250001 -28.48824,21.611769 -42.24023,69.746093 -42.24023,69.746093 0,0 4.05066,0.25117 7.5293,0.46289 4.26508,-12.64023 17.66416,-47.519947 40.73437,-65.021483 28.48824,-21.611765 47.23397,-32.044269 87.47071,-38.125 40.23672,-6.0807282 43.82315,-9.5013383 73.63671,-4.1152345 20.11821,3.6345445 50.36393,6.9268215 74.181644,25.5390625 C -117.04264,12.062664 -150.85821,8.5173186 -172.7168,4.5683594 -183.89688,2.5485708 -191.3883,1.7672895 -198.50781,1.9003906 Z m 85.4707,47.4980474 c 12.08952,11.359811 17.783837,22.610761 20.875001,23.935546 6.876491,2.947061 27.111957,52.245516 27.505859,75.640626 0.393865,23.3951 -45.18832,70.72954 -56.97656,85.46484 -11.78824,14.73529 -31.43683,36.34766 -6.88867,86.52735 6.32744,8.09164 10.12193,11.80717 12.19531,12.59375 -1.72535,-1.89721 -3.75185,-4.31148 -6.17188,-7.40625 -24.54815,-50.17969 -4.89957,-71.79206 6.88867,-86.52735 11.78825,-14.7353 57.370432,-62.06974 56.976568,-85.46484 C -59.026715,130.767 -79.262181,81.468545 -86.138672,78.521484 -89.703333,76.993771 -96.724636,62.271435 -113.03711,49.398438 Z"
         transform="scale(0.26458333)" />
    </g>
    <g
       id="g12660-3-0-7-5-2-3"
       transform="matrix(1.4229856,0,0,0.65562122,-159.28615,15.138365)"
       style="display:inline">
      <path
         d="m 168.27731,59.952815 h -51.86892 c -6.1983,10.167055 -5.11175,20.330583 1.09009,30.497638 h 49.68875 c 5.49627,-10.167055 6.58636,-20.330583 1.09008,-30.497638"
         style="fill:#d49f28;fill-opacity:1;fill-rule:nonzero;stroke:none;stroke-width:0.0352778"
         id="path428-9-2-2-3-0-0" />
      <path
         d="m 161.81903,71.418093 c 1.00444,0 1.81871,1.767416 1.81871,3.947583 0,2.180166 -0.81427,3.947583 -1.81871,3.947583 -1.00443,0 -1.81871,-1.767417 -1.81871,-3.947583 0,-2.180167 0.81428,-3.947583 1.81871,-3.947583"
         style="fill:#e9b22a;fill-opacity:1;fill-rule:nonzero;stroke:none;stroke-width:0.0239452"
         id="path430-3-7-4-0-2-3" />
      <path
         d="m 143.20502,71.418093 c 1.00444,0 1.81871,1.767335 1.81871,3.947401 0,2.180066 -0.81427,3.947401 -1.81871,3.947401 -1.00443,0 -1.81871,-1.767335 -1.81871,-3.947401 0,-2.180066 0.81428,-3.947401 1.81871,-3.947401"
         style="fill:#e9b22a;fill-opacity:1;fill-rule:nonzero;stroke:none;stroke-width:0.0239446"
         id="path432-8-9-2-5-5-2" />
      <path
         d="m 126.63982,71.418093 c 1.00444,0 1.81871,1.767416 1.81871,3.947583 0,2.180166 -0.81427,3.947583 -1.81871,3.947583 -1.00443,0 -1.81871,-1.767417 -1.81871,-3.947583 0,-2.180167 0.81428,-3.947583 1.81871,-3.947583"
         style="fill:#e9b22a;fill-opacity:1;fill-rule:nonzero;stroke:none;stroke-width:0.0239452"
         id="path434-6-0-7-6-1-7" />
      <path
         d="m 121.35081,59.952815 h -4.94242 c -6.1983,10.167055 -5.11175,20.330583 1.09009,30.497638 h 4.93889 C 116.23553,80.283398 115.14898,70.11987 121.35081,59.952815"
         style="fill:#ac7a1d;fill-opacity:1;fill-rule:nonzero;stroke:none;stroke-width:0.0352778"
         id="path442-4-6-2-2-7-3" />
      <path
         d="m 119.75273,55.599537 h 44.65461 v 4.353278 h -44.65461 v -4.353278"
         style="fill:#e9b22a;fill-opacity:1;fill-rule:nonzero;stroke:none;stroke-width:0.0352778"
         id="path446-0-5-5-9-0-8" />
      <path
         d="m 119.75273,55.599537 h 4.94241 v 4.353278 h -4.94241 v -4.353278"
         style="fill:#c9941c;fill-opacity:1;fill-rule:nonzero;stroke:none;stroke-width:0.0352778"
         id="path448-8-3-2-8-4-7" />
    </g>
    <g
       id="g9919-7-4-4-4"
       style="display:inline"
       transform="matrix(0.75471698,0,0,0.75471698,43.335697,73.47764)">
      <g
         id="g2059-1-1-5-6-4"
         transform="matrix(0.6528399,0,0,0.6528399,28.524238,38.464072)"
         style="display:inline">
        <path
           class="cls-2"
           d="m 33.56,14 a 16,16 0 1 0 16,16 16.06,16.06 0 0 0 -16,-16 z"
           id="path2055-45-7-4-0-9"
           style="fill:#33cc33;fill-opacity:1" />
        <path
           id="path2057-69-2-9-76-7"
           style="fill:#369936;fill-opacity:1;stroke-width:1"
           class="cls-2"
           d="M 33.56,14 A 16,16 0 1 0 34.987246,45.935791 16,16 0 0 1 35.966739,14.192871 16.06,16.06 0 0 0 33.56,14 Z" />
      </g>
      <g
         id="g2059-1-9-3-1-2-4"
         transform="matrix(0.6528399,0,0,0.6528399,43.416966,32.530547)"
         style="display:inline">
        <path
           class="cls-2"
           d="m 33.56,14 a 16,16 0 1 0 16,16 16.06,16.06 0 0 0 -16,-16 z"
           id="path2055-45-3-6-9-5-2"
           style="fill:#33cc33;fill-opacity:1" />
        <path
           id="path2057-69-3-3-0-4-2"
           style="fill:#369936;fill-opacity:1;stroke-width:1"
           class="cls-2"
           d="M 33.56,14 A 16,16 0 1 0 34.987246,45.935791 16,16 0 0 1 35.966739,14.192871 16.06,16.06 0 0 0 33.56,14 Z" />
      </g>
      <g
         id="g2059-11-1-9-3"
         transform="matrix(0.6528399,0,0,0.6528399,60.630276,38.462622)"
         style="display:inline">
        <path
           class="cls-2"
           d="m 33.56,14 a 16,16 0 1 0 16,16 16.06,16.06 0 0 0 -16,-16 z"
           id="path2055-5-6-1-6"
           style="fill:#33cc33;fill-opacity:1" />
        <path
           id="path2057-6-9-2-1"
           style="fill:#369936;fill-opacity:1;stroke-width:1"
           class="cls-2"
           d="M 33.56,14 A 16,16 0 1 0 34.987246,45.935791 16,16 0 0 1 35.966739,14.192871 16.06,16.06 0 0 0 33.56,14 Z" />
      </g>
      <g
         id="g8733-3-8-8-0-9-9"
         transform="matrix(0.02343754,0,0,0.02343754,80.641983,55.839657)"
         style="display:inline;fill:#f4f522;fill-opacity:1">
        <path
           class="st0"
           d="m 330.555,101.873 c 0,-34.164 -13.767,-65.108 -36.047,-87.622 -2.432,-2.465 -9.63,-4.349 -14.212,3.466 -4.589,7.808 -17.205,27.431 -17.205,27.431 -1.534,2.438 -4.219,3.918 -7.089,3.918 -2.883,0 -5.555,-1.48 -7.089,-3.918 0,0 -12.623,-19.623 -17.205,-27.431 -4.582,-7.815 -11.781,-5.931 -14.219,-3.466 -22.274,22.514 -36.04,53.458 -36.04,87.622 0,51.02 30.663,94.847 74.553,114.142 43.89,-19.295 74.553,-63.123 74.553,-114.142 z"
           id="path8723-8-6-51-0-9-9"
           style="fill:#f4f522;fill-opacity:1" />
        <path
           class="st0"
           d="m 204.51,253.425 c -4.78,-47.705 -36.998,-90.409 -85.518,-106.176 -32.492,-10.554 -66.177,-7.027 -94.47,7.205 -3.096,1.555 -7.117,7.822 -1.096,14.589 6.007,6.774 20.766,24.842 20.766,24.842 1.849,2.212 2.432,5.22 1.542,7.952 -0.891,2.74 -3.13,4.829 -5.918,5.528 0,0 -22.562,5.945 -31.404,7.89 -8.849,1.945 -9.281,9.37 -7.692,12.445 14.527,28.144 39.698,50.801 72.197,61.362 48.519,15.766 99.683,0.15 131.593,-35.637 z"
           id="path8725-5-6-3-7-25-5"
           style="fill:#f4f522;fill-opacity:1" />
        <path
           class="st0"
           d="M 96.772,362.484 C 76.69,390.127 69.636,423.25 74.43,454.558 c 0.527,3.424 5.233,9.178 13.527,5.554 8.308,-3.63 30.054,-12.088 30.054,-12.088 2.672,-1.062 5.698,-0.692 8.041,1 2.329,1.692 3.623,4.466 3.418,7.335 0,0 -1.308,23.294 -2.199,32.315 -0.883,9.006 6.048,11.712 9.466,11.15 31.252,-5.116 60.581,-22.054 80.662,-49.704 29.993,-41.266 30.944,-94.758 6.781,-136.155 -46.848,-10.192 -97.422,7.239 -127.408,48.519 z"
           id="path8727-3-5-0-5-6-8"
           style="fill:#f4f522;fill-opacity:1" />
        <path
           class="st0"
           d="m 287.824,313.964 c -24.165,41.397 -23.212,94.888 6.78,136.155 20.082,27.65 49.41,44.588 80.663,49.704 3.418,0.562 10.349,-2.144 9.466,-11.15 -0.89,-9.021 -2.205,-32.315 -2.205,-32.315 -0.198,-2.869 1.102,-5.643 3.431,-7.335 2.322,-1.692 5.363,-2.062 8.034,-1 0,0 21.746,8.458 30.047,12.088 8.294,3.623 13.007,-2.13 13.534,-5.554 4.787,-31.308 -2.254,-64.43 -22.342,-92.074 -29.986,-41.279 -80.56,-58.717 -127.408,-48.519 z"
           id="path8729-3-8-1-9-44-9"
           style="fill:#f4f522;fill-opacity:1" />
        <path
           class="st0"
           d="m 503.6,215.254 c -8.849,-1.945 -31.41,-7.89 -31.41,-7.89 -2.795,-0.706 -5.027,-2.788 -5.918,-5.528 -0.89,-2.732 -0.308,-5.74 1.534,-7.952 0,0 14.76,-18.068 20.78,-24.842 6.014,-6.766 1.993,-13.034 -1.096,-14.589 -28.301,-14.232 -61.978,-17.76 -94.485,-7.205 -48.519,15.767 -80.731,58.472 -85.512,106.176 31.91,35.787 83.067,51.403 131.593,35.636 32.492,-10.561 57.67,-33.218 72.191,-61.362 1.59,-3.074 1.172,-10.499 -7.677,-12.444 z"
           id="path8731-7-2-49-3-2-8"
           style="fill:#f4f522;fill-opacity:1" />
      </g>
      <g
         id="g8733-3-8-3-1-5-8-8"
         transform="matrix(0.02343754,0,0,0.02343754,48.535945,55.841107)"
         style="display:inline;fill:#f4f522;fill-opacity:1">
        <path
           class="st0"
           d="m 330.555,101.873 c 0,-34.164 -13.767,-65.108 -36.047,-87.622 -2.432,-2.465 -9.63,-4.349 -14.212,3.466 -4.589,7.808 -17.205,27.431 -17.205,27.431 -1.534,2.438 -4.219,3.918 -7.089,3.918 -2.883,0 -5.555,-1.48 -7.089,-3.918 0,0 -12.623,-19.623 -17.205,-27.431 -4.582,-7.815 -11.781,-5.931 -14.219,-3.466 -22.274,22.514 -36.04,53.458 -36.04,87.622 0,51.02 30.663,94.847 74.553,114.142 43.89,-19.295 74.553,-63.123 74.553,-114.142 z"
           id="path8723-8-6-60-9-2-2-78"
           style="fill:#f4f522;fill-opacity:1" />
        <path
           class="st0"
           d="m 204.51,253.425 c -4.78,-47.705 -36.998,-90.409 -85.518,-106.176 -32.492,-10.554 -66.177,-7.027 -94.47,7.205 -3.096,1.555 -7.117,7.822 -1.096,14.589 6.007,6.774 20.766,24.842 20.766,24.842 1.849,2.212 2.432,5.22 1.542,7.952 -0.891,2.74 -3.13,4.829 -5.918,5.528 0,0 -22.562,5.945 -31.404,7.89 -8.849,1.945 -9.281,9.37 -7.692,12.445 14.527,28.144 39.698,50.801 72.197,61.362 48.519,15.766 99.683,0.15 131.593,-35.637 z"
           id="path8725-5-6-20-4-8-4-7"
           style="fill:#f4f522;fill-opacity:1" />
        <path
           class="st0"
           d="M 96.772,362.484 C 76.69,390.127 69.636,423.25 74.43,454.558 c 0.527,3.424 5.233,9.178 13.527,5.554 8.308,-3.63 30.054,-12.088 30.054,-12.088 2.672,-1.062 5.698,-0.692 8.041,1 2.329,1.692 3.623,4.466 3.418,7.335 0,0 -1.308,23.294 -2.199,32.315 -0.883,9.006 6.048,11.712 9.466,11.15 31.252,-5.116 60.581,-22.054 80.662,-49.704 29.993,-41.266 30.944,-94.758 6.781,-136.155 -46.848,-10.192 -97.422,7.239 -127.408,48.519 z"
           id="path8727-3-5-442-1-3-9-3"
           style="fill:#f4f522;fill-opacity:1" />
        <path
           class="st0"
           d="m 287.824,313.964 c -24.165,41.397 -23.212,94.888 6.78,136.155 20.082,27.65 49.41,44.588 80.663,49.704 3.418,0.562 10.349,-2.144 9.466,-11.15 -0.89,-9.021 -2.205,-32.315 -2.205,-32.315 -0.198,-2.869 1.102,-5.643 3.431,-7.335 2.322,-1.692 5.363,-2.062 8.034,-1 0,0 21.746,8.458 30.047,12.088 8.294,3.623 13.007,-2.13 13.534,-5.554 4.787,-31.308 -2.254,-64.43 -22.342,-92.074 -29.986,-41.279 -80.56,-58.717 -127.408,-48.519 z"
           id="path8729-3-8-5-7-2-4-2"
           style="fill:#f4f522;fill-opacity:1" />
        <path
           class="st0"
           d="m 503.6,215.254 c -8.849,-1.945 -31.41,-7.89 -31.41,-7.89 -2.795,-0.706 -5.027,-2.788 -5.918,-5.528 -0.89,-2.732 -0.308,-5.74 1.534,-7.952 0,0 14.76,-18.068 20.78,-24.842 6.014,-6.766 1.993,-13.034 -1.096,-14.589 -28.301,-14.232 -61.978,-17.76 -94.485,-7.205 -48.519,15.767 -80.731,58.472 -85.512,106.176 31.91,35.787 83.067,51.403 131.593,35.636 32.492,-10.561 57.67,-33.218 72.191,-61.362 1.59,-3.074 1.172,-10.499 -7.677,-12.444 z"
           id="path8731-7-2-4-4-4-1-1"
           style="fill:#f4f522;fill-opacity:1" />
      </g>
      <g
         id="g8733-3-8-3-5-5-2-61-4"
         transform="matrix(0.02343754,0,0,0.02343754,63.428673,49.907582)"
         style="display:inline;fill:#f4f522;fill-opacity:1">
        <path
           class="st0"
           d="m 330.555,101.873 c 0,-34.164 -13.767,-65.108 -36.047,-87.622 -2.432,-2.465 -9.63,-4.349 -14.212,3.466 -4.589,7.808 -17.205,27.431 -17.205,27.431 -1.534,2.438 -4.219,3.918 -7.089,3.918 -2.883,0 -5.555,-1.48 -7.089,-3.918 0,0 -12.623,-19.623 -17.205,-27.431 -4.582,-7.815 -11.781,-5.931 -14.219,-3.466 -22.274,22.514 -36.04,53.458 -36.04,87.622 0,51.02 30.663,94.847 74.553,114.142 43.89,-19.295 74.553,-63.123 74.553,-114.142 z"
           id="path8723-8-6-60-1-4-0-7-0"
           style="fill:#f4f522;fill-opacity:1" />
        <path
           class="st0"
           d="m 204.51,253.425 c -4.78,-47.705 -36.998,-90.409 -85.518,-106.176 -32.492,-10.554 -66.177,-7.027 -94.47,7.205 -3.096,1.555 -7.117,7.822 -1.096,14.589 6.007,6.774 20.766,24.842 20.766,24.842 1.849,2.212 2.432,5.22 1.542,7.952 -0.891,2.74 -3.13,4.829 -5.918,5.528 0,0 -22.562,5.945 -31.404,7.89 -8.849,1.945 -9.281,9.37 -7.692,12.445 14.527,28.144 39.698,50.801 72.197,61.362 48.519,15.766 99.683,0.15 131.593,-35.637 z"
           id="path8725-5-6-20-3-3-7-5-7"
           style="fill:#f4f522;fill-opacity:1" />
        <path
           class="st0"
           d="M 96.772,362.484 C 76.69,390.127 69.636,423.25 74.43,454.558 c 0.527,3.424 5.233,9.178 13.527,5.554 8.308,-3.63 30.054,-12.088 30.054,-12.088 2.672,-1.062 5.698,-0.692 8.041,1 2.329,1.692 3.623,4.466 3.418,7.335 0,0 -1.308,23.294 -2.199,32.315 -0.883,9.006 6.048,11.712 9.466,11.15 31.252,-5.116 60.581,-22.054 80.662,-49.704 29.993,-41.266 30.944,-94.758 6.781,-136.155 -46.848,-10.192 -97.422,7.239 -127.408,48.519 z"
           id="path8727-3-5-442-5-7-4-6-97"
           style="fill:#f4f522;fill-opacity:1" />
        <path
           class="st0"
           d="m 287.824,313.964 c -24.165,41.397 -23.212,94.888 6.78,136.155 20.082,27.65 49.41,44.588 80.663,49.704 3.418,0.562 10.349,-2.144 9.466,-11.15 -0.89,-9.021 -2.205,-32.315 -2.205,-32.315 -0.198,-2.869 1.102,-5.643 3.431,-7.335 2.322,-1.692 5.363,-2.062 8.034,-1 0,0 21.746,8.458 30.047,12.088 8.294,3.623 13.007,-2.13 13.534,-5.554 4.787,-31.308 -2.254,-64.43 -22.342,-92.074 -29.986,-41.279 -80.56,-58.717 -127.408,-48.519 z"
           id="path8729-3-8-5-8-5-3-0-9"
           style="fill:#f4f522;fill-opacity:1" />
        <path
           class="st0"
           d="m 503.6,215.254 c -8.849,-1.945 -31.41,-7.89 -31.41,-7.89 -2.795,-0.706 -5.027,-2.788 -5.918,-5.528 -0.89,-2.732 -0.308,-5.74 1.534,-7.952 0,0 14.76,-18.068 20.78,-24.842 6.014,-6.766 1.993,-13.034 -1.096,-14.589 -28.301,-14.232 -61.978,-17.76 -94.485,-7.205 -48.519,15.767 -80.731,58.472 -85.512,106.176 31.91,35.787 83.067,51.403 131.593,35.636 32.492,-10.561 57.67,-33.218 72.191,-61.362 1.59,-3.074 1.172,-10.499 -7.677,-12.444 z"
           id="path8731-7-2-4-8-1-6-1-2"
           style="fill:#f4f522;fill-opacity:1" />
      </g>
    </g>
    <g
       id="g9919-7-4-4-9"
       style="display:inline"
       transform="matrix(0.8490566,0,0,0.8490566,50.142312,42.588685)">
      <g
         id="g2059-1-1-5-6-5"
         transform="matrix(0.6528399,0,0,0.6528399,28.524238,38.464072)"
         style="display:inline">
        <path
           class="cls-2"
           d="m 33.56,14 a 16,16 0 1 0 16,16 16.06,16.06 0 0 0 -16,-16 z"
           id="path2055-45-7-4-0-7"
           style="fill:#33cc33;fill-opacity:1" />
        <path
           id="path2057-69-2-9-76-2"
           style="fill:#369936;fill-opacity:1;stroke-width:1"
           class="cls-2"
           d="M 33.56,14 A 16,16 0 1 0 34.987246,45.935791 16,16 0 0 1 35.966739,14.192871 16.06,16.06 0 0 0 33.56,14 Z" />
      </g>
      <g
         id="g2059-1-9-3-1-2-0"
         transform="matrix(0.6528399,0,0,0.6528399,43.416966,32.530547)"
         style="display:inline">
        <path
           class="cls-2"
           d="m 33.56,14 a 16,16 0 1 0 16,16 16.06,16.06 0 0 0 -16,-16 z"
           id="path2055-45-3-6-9-5-1"
           style="fill:#33cc33;fill-opacity:1" />
        <path
           id="path2057-69-3-3-0-4-7"
           style="fill:#369936;fill-opacity:1;stroke-width:1"
           class="cls-2"
           d="M 33.56,14 A 16,16 0 1 0 34.987246,45.935791 16,16 0 0 1 35.966739,14.192871 16.06,16.06 0 0 0 33.56,14 Z" />
      </g>
      <g
         id="g2059-11-1-9-5"
         transform="matrix(0.6528399,0,0,0.6528399,60.630276,38.462622)"
         style="display:inline">
        <path
           class="cls-2"
           d="m 33.56,14 a 16,16 0 1 0 16,16 16.06,16.06 0 0 0 -16,-16 z"
           id="path2055-5-6-1-8"
           style="fill:#33cc33;fill-opacity:1" />
        <path
           id="path2057-6-9-2-3"
           style="fill:#369936;fill-opacity:1;stroke-width:1"
           class="cls-2"
           d="M 33.56,14 A 16,16 0 1 0 34.987246,45.935791 16,16 0 0 1 35.966739,14.192871 16.06,16.06 0 0 0 33.56,14 Z" />
      </g>
      <g
         id="g8733-3-8-8-0-9-4"
         transform="matrix(0.02343754,0,0,0.02343754,80.641983,55.839657)"
         style="display:inline;fill:#f4f522;fill-opacity:1">
        <path
           class="st0"
           d="m 330.555,101.873 c 0,-34.164 -13.767,-65.108 -36.047,-87.622 -2.432,-2.465 -9.63,-4.349 -14.212,3.466 -4.589,7.808 -17.205,27.431 -17.205,27.431 -1.534,2.438 -4.219,3.918 -7.089,3.918 -2.883,0 -5.555,-1.48 -7.089,-3.918 0,0 -12.623,-19.623 -17.205,-27.431 -4.582,-7.815 -11.781,-5.931 -14.219,-3.466 -22.274,22.514 -36.04,53.458 -36.04,87.622 0,51.02 30.663,94.847 74.553,114.142 43.89,-19.295 74.553,-63.123 74.553,-114.142 z"
           id="path8723-8-6-51-0-9-7"
           style="fill:#f4f522;fill-opacity:1" />
        <path
           class="st0"
           d="m 204.51,253.425 c -4.78,-47.705 -36.998,-90.409 -85.518,-106.176 -32.492,-10.554 -66.177,-7.027 -94.47,7.205 -3.096,1.555 -7.117,7.822 -1.096,14.589 6.007,6.774 20.766,24.842 20.766,24.842 1.849,2.212 2.432,5.22 1.542,7.952 -0.891,2.74 -3.13,4.829 -5.918,5.528 0,0 -22.562,5.945 -31.404,7.89 -8.849,1.945 -9.281,9.37 -7.692,12.445 14.527,28.144 39.698,50.801 72.197,61.362 48.519,15.766 99.683,0.15 131.593,-35.637 z"
           id="path8725-5-6-3-7-25-6"
           style="fill:#f4f522;fill-opacity:1" />
        <path
           class="st0"
           d="M 96.772,362.484 C 76.69,390.127 69.636,423.25 74.43,454.558 c 0.527,3.424 5.233,9.178 13.527,5.554 8.308,-3.63 30.054,-12.088 30.054,-12.088 2.672,-1.062 5.698,-0.692 8.041,1 2.329,1.692 3.623,4.466 3.418,7.335 0,0 -1.308,23.294 -2.199,32.315 -0.883,9.006 6.048,11.712 9.466,11.15 31.252,-5.116 60.581,-22.054 80.662,-49.704 29.993,-41.266 30.944,-94.758 6.781,-136.155 -46.848,-10.192 -97.422,7.239 -127.408,48.519 z"
           id="path8727-3-5-0-5-6-5"
           style="fill:#f4f522;fill-opacity:1" />
        <path
           class="st0"
           d="m 287.824,313.964 c -24.165,41.397 -23.212,94.888 6.78,136.155 20.082,27.65 49.41,44.588 80.663,49.704 3.418,0.562 10.349,-2.144 9.466,-11.15 -0.89,-9.021 -2.205,-32.315 -2.205,-32.315 -0.198,-2.869 1.102,-5.643 3.431,-7.335 2.322,-1.692 5.363,-2.062 8.034,-1 0,0 21.746,8.458 30.047,12.088 8.294,3.623 13.007,-2.13 13.534,-5.554 4.787,-31.308 -2.254,-64.43 -22.342,-92.074 -29.986,-41.279 -80.56,-58.717 -127.408,-48.519 z"
           id="path8729-3-8-1-9-44-8"
           style="fill:#f4f522;fill-opacity:1" />
        <path
           class="st0"
           d="m 503.6,215.254 c -8.849,-1.945 -31.41,-7.89 -31.41,-7.89 -2.795,-0.706 -5.027,-2.788 -5.918,-5.528 -0.89,-2.732 -0.308,-5.74 1.534,-7.952 0,0 14.76,-18.068 20.78,-24.842 6.014,-6.766 1.993,-13.034 -1.096,-14.589 -28.301,-14.232 -61.978,-17.76 -94.485,-7.205 -48.519,15.767 -80.731,58.472 -85.512,106.176 31.91,35.787 83.067,51.403 131.593,35.636 32.492,-10.561 57.67,-33.218 72.191,-61.362 1.59,-3.074 1.172,-10.499 -7.677,-12.444 z"
           id="path8731-7-2-49-3-2-3"
           style="fill:#f4f522;fill-opacity:1" />
      </g>
      <g
         id="g8733-3-8-3-1-5-8-1"
         transform="matrix(0.02343754,0,0,0.02343754,48.535945,55.841107)"
         style="display:inline;fill:#f4f522;fill-opacity:1">
        <path
           class="st0"
           d="m 330.555,101.873 c 0,-34.164 -13.767,-65.108 -36.047,-87.622 -2.432,-2.465 -9.63,-4.349 -14.212,3.466 -4.589,7.808 -17.205,27.431 -17.205,27.431 -1.534,2.438 -4.219,3.918 -7.089,3.918 -2.883,0 -5.555,-1.48 -7.089,-3.918 0,0 -12.623,-19.623 -17.205,-27.431 -4.582,-7.815 -11.781,-5.931 -14.219,-3.466 -22.274,22.514 -36.04,53.458 -36.04,87.622 0,51.02 30.663,94.847 74.553,114.142 43.89,-19.295 74.553,-63.123 74.553,-114.142 z"
           id="path8723-8-6-60-9-2-2-7"
           style="fill:#f4f522;fill-opacity:1" />
        <path
           class="st0"
           d="m 204.51,253.425 c -4.78,-47.705 -36.998,-90.409 -85.518,-106.176 -32.492,-10.554 -66.177,-7.027 -94.47,7.205 -3.096,1.555 -7.117,7.822 -1.096,14.589 6.007,6.774 20.766,24.842 20.766,24.842 1.849,2.212 2.432,5.22 1.542,7.952 -0.891,2.74 -3.13,4.829 -5.918,5.528 0,0 -22.562,5.945 -31.404,7.89 -8.849,1.945 -9.281,9.37 -7.692,12.445 14.527,28.144 39.698,50.801 72.197,61.362 48.519,15.766 99.683,0.15 131.593,-35.637 z"
           id="path8725-5-6-20-4-8-4-0"
           style="fill:#f4f522;fill-opacity:1" />
        <path
           class="st0"
           d="M 96.772,362.484 C 76.69,390.127 69.636,423.25 74.43,454.558 c 0.527,3.424 5.233,9.178 13.527,5.554 8.308,-3.63 30.054,-12.088 30.054,-12.088 2.672,-1.062 5.698,-0.692 8.041,1 2.329,1.692 3.623,4.466 3.418,7.335 0,0 -1.308,23.294 -2.199,32.315 -0.883,9.006 6.048,11.712 9.466,11.15 31.252,-5.116 60.581,-22.054 80.662,-49.704 29.993,-41.266 30.944,-94.758 6.781,-136.155 -46.848,-10.192 -97.422,7.239 -127.408,48.519 z"
           id="path8727-3-5-442-1-3-9-0"
           style="fill:#f4f522;fill-opacity:1" />
        <path
           class="st0"
           d="m 287.824,313.964 c -24.165,41.397 -23.212,94.888 6.78,136.155 20.082,27.65 49.41,44.588 80.663,49.704 3.418,0.562 10.349,-2.144 9.466,-11.15 -0.89,-9.021 -2.205,-32.315 -2.205,-32.315 -0.198,-2.869 1.102,-5.643 3.431,-7.335 2.322,-1.692 5.363,-2.062 8.034,-1 0,0 21.746,8.458 30.047,12.088 8.294,3.623 13.007,-2.13 13.534,-5.554 4.787,-31.308 -2.254,-64.43 -22.342,-92.074 -29.986,-41.279 -80.56,-58.717 -127.408,-48.519 z"
           id="path8729-3-8-5-7-2-4-9"
           style="fill:#f4f522;fill-opacity:1" />
        <path
           class="st0"
           d="m 503.6,215.254 c -8.849,-1.945 -31.41,-7.89 -31.41,-7.89 -2.795,-0.706 -5.027,-2.788 -5.918,-5.528 -0.89,-2.732 -0.308,-5.74 1.534,-7.952 0,0 14.76,-18.068 20.78,-24.842 6.014,-6.766 1.993,-13.034 -1.096,-14.589 -28.301,-14.232 -61.978,-17.76 -94.485,-7.205 -48.519,15.767 -80.731,58.472 -85.512,106.176 31.91,35.787 83.067,51.403 131.593,35.636 32.492,-10.561 57.67,-33.218 72.191,-61.362 1.59,-3.074 1.172,-10.499 -7.677,-12.444 z"
           id="path8731-7-2-4-4-4-1-5"
           style="fill:#f4f522;fill-opacity:1" />
      </g>
      <g
         id="g8733-3-8-3-5-5-2-61-0"
         transform="matrix(0.02343754,0,0,0.02343754,63.428673,49.907582)"
         style="display:inline;fill:#f4f522;fill-opacity:1">
        <path
           class="st0"
           d="m 330.555,101.873 c 0,-34.164 -13.767,-65.108 -36.047,-87.622 -2.432,-2.465 -9.63,-4.349 -14.212,3.466 -4.589,7.808 -17.205,27.431 -17.205,27.431 -1.534,2.438 -4.219,3.918 -7.089,3.918 -2.883,0 -5.555,-1.48 -7.089,-3.918 0,0 -12.623,-19.623 -17.205,-27.431 -4.582,-7.815 -11.781,-5.931 -14.219,-3.466 -22.274,22.514 -36.04,53.458 -36.04,87.622 0,51.02 30.663,94.847 74.553,114.142 43.89,-19.295 74.553,-63.123 74.553,-114.142 z"
           id="path8723-8-6-60-1-4-0-7-1"
           style="fill:#f4f522;fill-opacity:1" />
        <path
           class="st0"
           d="m 204.51,253.425 c -4.78,-47.705 -36.998,-90.409 -85.518,-106.176 -32.492,-10.554 -66.177,-7.027 -94.47,7.205 -3.096,1.555 -7.117,7.822 -1.096,14.589 6.007,6.774 20.766,24.842 20.766,24.842 1.849,2.212 2.432,5.22 1.542,7.952 -0.891,2.74 -3.13,4.829 -5.918,5.528 0,0 -22.562,5.945 -31.404,7.89 -8.849,1.945 -9.281,9.37 -7.692,12.445 14.527,28.144 39.698,50.801 72.197,61.362 48.519,15.766 99.683,0.15 131.593,-35.637 z"
           id="path8725-5-6-20-3-3-7-5-4"
           style="fill:#f4f522;fill-opacity:1" />
        <path
           class="st0"
           d="M 96.772,362.484 C 76.69,390.127 69.636,423.25 74.43,454.558 c 0.527,3.424 5.233,9.178 13.527,5.554 8.308,-3.63 30.054,-12.088 30.054,-12.088 2.672,-1.062 5.698,-0.692 8.041,1 2.329,1.692 3.623,4.466 3.418,7.335 0,0 -1.308,23.294 -2.199,32.315 -0.883,9.006 6.048,11.712 9.466,11.15 31.252,-5.116 60.581,-22.054 80.662,-49.704 29.993,-41.266 30.944,-94.758 6.781,-136.155 -46.848,-10.192 -97.422,7.239 -127.408,48.519 z"
           id="path8727-3-5-442-5-7-4-6-9"
           style="fill:#f4f522;fill-opacity:1" />
        <path
           class="st0"
           d="m 287.824,313.964 c -24.165,41.397 -23.212,94.888 6.78,136.155 20.082,27.65 49.41,44.588 80.663,49.704 3.418,0.562 10.349,-2.144 9.466,-11.15 -0.89,-9.021 -2.205,-32.315 -2.205,-32.315 -0.198,-2.869 1.102,-5.643 3.431,-7.335 2.322,-1.692 5.363,-2.062 8.034,-1 0,0 21.746,8.458 30.047,12.088 8.294,3.623 13.007,-2.13 13.534,-5.554 4.787,-31.308 -2.254,-64.43 -22.342,-92.074 -29.986,-41.279 -80.56,-58.717 -127.408,-48.519 z"
           id="path8729-3-8-5-8-5-3-0-1"
           style="fill:#f4f522;fill-opacity:1" />
        <path
           class="st0"
           d="m 503.6,215.254 c -8.849,-1.945 -31.41,-7.89 -31.41,-7.89 -2.795,-0.706 -5.027,-2.788 -5.918,-5.528 -0.89,-2.732 -0.308,-5.74 1.534,-7.952 0,0 14.76,-18.068 20.78,-24.842 6.014,-6.766 1.993,-13.034 -1.096,-14.589 -28.301,-14.232 -61.978,-17.76 -94.485,-7.205 -48.519,15.767 -80.731,58.472 -85.512,106.176 31.91,35.787 83.067,51.403 131.593,35.636 32.492,-10.561 57.67,-33.218 72.191,-61.362 1.59,-3.074 1.172,-10.499 -7.677,-12.444 z"
           id="path8731-7-2-4-8-1-6-1-3"
           style="fill:#f4f522;fill-opacity:1" />
      </g>
    </g>
    <g
       id="g9919-7-4-4"
       style="display:inline"
       transform="matrix(0.8490566,0,0,0.8490566,33.010583,16.110407)">
      <g
         id="g2059-1-1-5-6"
         transform="matrix(0.6528399,0,0,0.6528399,28.524238,38.464072)"
         style="display:inline">
        <path
           class="cls-2"
           d="m 33.56,14 a 16,16 0 1 0 16,16 16.06,16.06 0 0 0 -16,-16 z"
           id="path2055-45-7-4-0"
           style="fill:#33cc33;fill-opacity:1" />
        <path
           id="path2057-69-2-9-76"
           style="fill:#369936;fill-opacity:1;stroke-width:1"
           class="cls-2"
           d="M 33.56,14 A 16,16 0 1 0 34.987246,45.935791 16,16 0 0 1 35.966739,14.192871 16.06,16.06 0 0 0 33.56,14 Z" />
      </g>
      <g
         id="g2059-1-9-3-1-2"
         transform="matrix(0.6528399,0,0,0.6528399,43.416966,32.530547)"
         style="display:inline">
        <path
           class="cls-2"
           d="m 33.56,14 a 16,16 0 1 0 16,16 16.06,16.06 0 0 0 -16,-16 z"
           id="path2055-45-3-6-9-5"
           style="fill:#33cc33;fill-opacity:1" />
        <path
           id="path2057-69-3-3-0-4"
           style="fill:#369936;fill-opacity:1;stroke-width:1"
           class="cls-2"
           d="M 33.56,14 A 16,16 0 1 0 34.987246,45.935791 16,16 0 0 1 35.966739,14.192871 16.06,16.06 0 0 0 33.56,14 Z" />
      </g>
      <g
         id="g2059-11-1-9"
         transform="matrix(0.6528399,0,0,0.6528399,60.630276,38.462622)"
         style="display:inline">
        <path
           class="cls-2"
           d="m 33.56,14 a 16,16 0 1 0 16,16 16.06,16.06 0 0 0 -16,-16 z"
           id="path2055-5-6-1"
           style="fill:#33cc33;fill-opacity:1" />
        <path
           id="path2057-6-9-2"
           style="fill:#369936;fill-opacity:1;stroke-width:1"
           class="cls-2"
           d="M 33.56,14 A 16,16 0 1 0 34.987246,45.935791 16,16 0 0 1 35.966739,14.192871 16.06,16.06 0 0 0 33.56,14 Z" />
      </g>
      <g
         id="g8733-3-8-8-0-9"
         transform="matrix(0.02343754,0,0,0.02343754,80.641983,55.839657)"
         style="display:inline;fill:#f4f522;fill-opacity:1">
        <path
           class="st0"
           d="m 330.555,101.873 c 0,-34.164 -13.767,-65.108 -36.047,-87.622 -2.432,-2.465 -9.63,-4.349 -14.212,3.466 -4.589,7.808 -17.205,27.431 -17.205,27.431 -1.534,2.438 -4.219,3.918 -7.089,3.918 -2.883,0 -5.555,-1.48 -7.089,-3.918 0,0 -12.623,-19.623 -17.205,-27.431 -4.582,-7.815 -11.781,-5.931 -14.219,-3.466 -22.274,22.514 -36.04,53.458 -36.04,87.622 0,51.02 30.663,94.847 74.553,114.142 43.89,-19.295 74.553,-63.123 74.553,-114.142 z"
           id="path8723-8-6-51-0-9"
           style="fill:#f4f522;fill-opacity:1" />
        <path
           class="st0"
           d="m 204.51,253.425 c -4.78,-47.705 -36.998,-90.409 -85.518,-106.176 -32.492,-10.554 -66.177,-7.027 -94.47,7.205 -3.096,1.555 -7.117,7.822 -1.096,14.589 6.007,6.774 20.766,24.842 20.766,24.842 1.849,2.212 2.432,5.22 1.542,7.952 -0.891,2.74 -3.13,4.829 -5.918,5.528 0,0 -22.562,5.945 -31.404,7.89 -8.849,1.945 -9.281,9.37 -7.692,12.445 14.527,28.144 39.698,50.801 72.197,61.362 48.519,15.766 99.683,0.15 131.593,-35.637 z"
           id="path8725-5-6-3-7-25"
           style="fill:#f4f522;fill-opacity:1" />
        <path
           class="st0"
           d="M 96.772,362.484 C 76.69,390.127 69.636,423.25 74.43,454.558 c 0.527,3.424 5.233,9.178 13.527,5.554 8.308,-3.63 30.054,-12.088 30.054,-12.088 2.672,-1.062 5.698,-0.692 8.041,1 2.329,1.692 3.623,4.466 3.418,7.335 0,0 -1.308,23.294 -2.199,32.315 -0.883,9.006 6.048,11.712 9.466,11.15 31.252,-5.116 60.581,-22.054 80.662,-49.704 29.993,-41.266 30.944,-94.758 6.781,-136.155 -46.848,-10.192 -97.422,7.239 -127.408,48.519 z"
           id="path8727-3-5-0-5-6"
           style="fill:#f4f522;fill-opacity:1" />
        <path
           class="st0"
           d="m 287.824,313.964 c -24.165,41.397 -23.212,94.888 6.78,136.155 20.082,27.65 49.41,44.588 80.663,49.704 3.418,0.562 10.349,-2.144 9.466,-11.15 -0.89,-9.021 -2.205,-32.315 -2.205,-32.315 -0.198,-2.869 1.102,-5.643 3.431,-7.335 2.322,-1.692 5.363,-2.062 8.034,-1 0,0 21.746,8.458 30.047,12.088 8.294,3.623 13.007,-2.13 13.534,-5.554 4.787,-31.308 -2.254,-64.43 -22.342,-92.074 -29.986,-41.279 -80.56,-58.717 -127.408,-48.519 z"
           id="path8729-3-8-1-9-44"
           style="fill:#f4f522;fill-opacity:1" />
        <path
           class="st0"
           d="m 503.6,215.254 c -8.849,-1.945 -31.41,-7.89 -31.41,-7.89 -2.795,-0.706 -5.027,-2.788 -5.918,-5.528 -0.89,-2.732 -0.308,-5.74 1.534,-7.952 0,0 14.76,-18.068 20.78,-24.842 6.014,-6.766 1.993,-13.034 -1.096,-14.589 -28.301,-14.232 -61.978,-17.76 -94.485,-7.205 -48.519,15.767 -80.731,58.472 -85.512,106.176 31.91,35.787 83.067,51.403 131.593,35.636 32.492,-10.561 57.67,-33.218 72.191,-61.362 1.59,-3.074 1.172,-10.499 -7.677,-12.444 z"
           id="path8731-7-2-49-3-2"
           style="fill:#f4f522;fill-opacity:1" />
      </g>
      <g
         id="g8733-3-8-3-1-5-8"
         transform="matrix(0.02343754,0,0,0.02343754,48.535945,55.841107)"
         style="display:inline;fill:#f4f522;fill-opacity:1">
        <path
           class="st0"
           d="m 330.555,101.873 c 0,-34.164 -13.767,-65.108 -36.047,-87.622 -2.432,-2.465 -9.63,-4.349 -14.212,3.466 -4.589,7.808 -17.205,27.431 -17.205,27.431 -1.534,2.438 -4.219,3.918 -7.089,3.918 -2.883,0 -5.555,-1.48 -7.089,-3.918 0,0 -12.623,-19.623 -17.205,-27.431 -4.582,-7.815 -11.781,-5.931 -14.219,-3.466 -22.274,22.514 -36.04,53.458 -36.04,87.622 0,51.02 30.663,94.847 74.553,114.142 43.89,-19.295 74.553,-63.123 74.553,-114.142 z"
           id="path8723-8-6-60-9-2-2"
           style="fill:#f4f522;fill-opacity:1" />
        <path
           class="st0"
           d="m 204.51,253.425 c -4.78,-47.705 -36.998,-90.409 -85.518,-106.176 -32.492,-10.554 -66.177,-7.027 -94.47,7.205 -3.096,1.555 -7.117,7.822 -1.096,14.589 6.007,6.774 20.766,24.842 20.766,24.842 1.849,2.212 2.432,5.22 1.542,7.952 -0.891,2.74 -3.13,4.829 -5.918,5.528 0,0 -22.562,5.945 -31.404,7.89 -8.849,1.945 -9.281,9.37 -7.692,12.445 14.527,28.144 39.698,50.801 72.197,61.362 48.519,15.766 99.683,0.15 131.593,-35.637 z"
           id="path8725-5-6-20-4-8-4"
           style="fill:#f4f522;fill-opacity:1" />
        <path
           class="st0"
           d="M 96.772,362.484 C 76.69,390.127 69.636,423.25 74.43,454.558 c 0.527,3.424 5.233,9.178 13.527,5.554 8.308,-3.63 30.054,-12.088 30.054,-12.088 2.672,-1.062 5.698,-0.692 8.041,1 2.329,1.692 3.623,4.466 3.418,7.335 0,0 -1.308,23.294 -2.199,32.315 -0.883,9.006 6.048,11.712 9.466,11.15 31.252,-5.116 60.581,-22.054 80.662,-49.704 29.993,-41.266 30.944,-94.758 6.781,-136.155 -46.848,-10.192 -97.422,7.239 -127.408,48.519 z"
           id="path8727-3-5-442-1-3-9"
           style="fill:#f4f522;fill-opacity:1" />
        <path
           class="st0"
           d="m 287.824,313.964 c -24.165,41.397 -23.212,94.888 6.78,136.155 20.082,27.65 49.41,44.588 80.663,49.704 3.418,0.562 10.349,-2.144 9.466,-11.15 -0.89,-9.021 -2.205,-32.315 -2.205,-32.315 -0.198,-2.869 1.102,-5.643 3.431,-7.335 2.322,-1.692 5.363,-2.062 8.034,-1 0,0 21.746,8.458 30.047,12.088 8.294,3.623 13.007,-2.13 13.534,-5.554 4.787,-31.308 -2.254,-64.43 -22.342,-92.074 -29.986,-41.279 -80.56,-58.717 -127.408,-48.519 z"
           id="path8729-3-8-5-7-2-4"
           style="fill:#f4f522;fill-opacity:1" />
        <path
           class="st0"
           d="m 503.6,215.254 c -8.849,-1.945 -31.41,-7.89 -31.41,-7.89 -2.795,-0.706 -5.027,-2.788 -5.918,-5.528 -0.89,-2.732 -0.308,-5.74 1.534,-7.952 0,0 14.76,-18.068 20.78,-24.842 6.014,-6.766 1.993,-13.034 -1.096,-14.589 -28.301,-14.232 -61.978,-17.76 -94.485,-7.205 -48.519,15.767 -80.731,58.472 -85.512,106.176 31.91,35.787 83.067,51.403 131.593,35.636 32.492,-10.561 57.67,-33.218 72.191,-61.362 1.59,-3.074 1.172,-10.499 -7.677,-12.444 z"
           id="path8731-7-2-4-4-4-1"
           style="fill:#f4f522;fill-opacity:1" />
      </g>
      <g
         id="g8733-3-8-3-5-5-2-61"
         transform="matrix(0.02343754,0,0,0.02343754,63.428673,49.907582)"
         style="display:inline;fill:#f4f522;fill-opacity:1">
        <path
           class="st0"
           d="m 330.555,101.873 c 0,-34.164 -13.767,-65.108 -36.047,-87.622 -2.432,-2.465 -9.63,-4.349 -14.212,3.466 -4.589,7.808 -17.205,27.431 -17.205,27.431 -1.534,2.438 -4.219,3.918 -7.089,3.918 -2.883,0 -5.555,-1.48 -7.089,-3.918 0,0 -12.623,-19.623 -17.205,-27.431 -4.582,-7.815 -11.781,-5.931 -14.219,-3.466 -22.274,22.514 -36.04,53.458 -36.04,87.622 0,51.02 30.663,94.847 74.553,114.142 43.89,-19.295 74.553,-63.123 74.553,-114.142 z"
           id="path8723-8-6-60-1-4-0-7"
           style="fill:#f4f522;fill-opacity:1" />
        <path
           class="st0"
           d="m 204.51,253.425 c -4.78,-47.705 -36.998,-90.409 -85.518,-106.176 -32.492,-10.554 -66.177,-7.027 -94.47,7.205 -3.096,1.555 -7.117,7.822 -1.096,14.589 6.007,6.774 20.766,24.842 20.766,24.842 1.849,2.212 2.432,5.22 1.542,7.952 -0.891,2.74 -3.13,4.829 -5.918,5.528 0,0 -22.562,5.945 -31.404,7.89 -8.849,1.945 -9.281,9.37 -7.692,12.445 14.527,28.144 39.698,50.801 72.197,61.362 48.519,15.766 99.683,0.15 131.593,-35.637 z"
           id="path8725-5-6-20-3-3-7-5"
           style="fill:#f4f522;fill-opacity:1" />
        <path
           class="st0"
           d="M 96.772,362.484 C 76.69,390.127 69.636,423.25 74.43,454.558 c 0.527,3.424 5.233,9.178 13.527,5.554 8.308,-3.63 30.054,-12.088 30.054,-12.088 2.672,-1.062 5.698,-0.692 8.041,1 2.329,1.692 3.623,4.466 3.418,7.335 0,0 -1.308,23.294 -2.199,32.315 -0.883,9.006 6.048,11.712 9.466,11.15 31.252,-5.116 60.581,-22.054 80.662,-49.704 29.993,-41.266 30.944,-94.758 6.781,-136.155 -46.848,-10.192 -97.422,7.239 -127.408,48.519 z"
           id="path8727-3-5-442-5-7-4-6"
           style="fill:#f4f522;fill-opacity:1" />
        <path
           class="st0"
           d="m 287.824,313.964 c -24.165,41.397 -23.212,94.888 6.78,136.155 20.082,27.65 49.41,44.588 80.663,49.704 3.418,0.562 10.349,-2.144 9.466,-11.15 -0.89,-9.021 -2.205,-32.315 -2.205,-32.315 -0.198,-2.869 1.102,-5.643 3.431,-7.335 2.322,-1.692 5.363,-2.062 8.034,-1 0,0 21.746,8.458 30.047,12.088 8.294,3.623 13.007,-2.13 13.534,-5.554 4.787,-31.308 -2.254,-64.43 -22.342,-92.074 -29.986,-41.279 -80.56,-58.717 -127.408,-48.519 z"
           id="path8729-3-8-5-8-5-3-0"
           style="fill:#f4f522;fill-opacity:1" />
        <path
           class="st0"
           d="m 503.6,215.254 c -8.849,-1.945 -31.41,-7.89 -31.41,-7.89 -2.795,-0.706 -5.027,-2.788 -5.918,-5.528 -0.89,-2.732 -0.308,-5.74 1.534,-7.952 0,0 14.76,-18.068 20.78,-24.842 6.014,-6.766 1.993,-13.034 -1.096,-14.589 -28.301,-14.232 -61.978,-17.76 -94.485,-7.205 -48.519,15.767 -80.731,58.472 -85.512,106.176 31.91,35.787 83.067,51.403 131.593,35.636 32.492,-10.561 57.67,-33.218 72.191,-61.362 1.59,-3.074 1.172,-10.499 -7.677,-12.444 z"
           id="path8731-7-2-4-8-1-6-1"
           style="fill:#f4f522;fill-opacity:1" />
      </g>
    </g>
    <g
       id="g9919-7-4-8"
       style="display:inline"
       transform="translate(37.764726,-17.953965)">
      <g
         id="g2059-1-1-5-7"
         transform="matrix(0.6528399,0,0,0.6528399,28.524238,38.464072)"
         style="display:inline">
        <path
           class="cls-2"
           d="m 33.56,14 a 16,16 0 1 0 16,16 16.06,16.06 0 0 0 -16,-16 z"
           id="path2055-45-7-4-4"
           style="fill:#33cc33;fill-opacity:1" />
        <path
           id="path2057-69-2-9-7"
           style="fill:#369936;fill-opacity:1;stroke-width:1"
           class="cls-2"
           d="M 33.56,14 A 16,16 0 1 0 34.987246,45.935791 16,16 0 0 1 35.966739,14.192871 16.06,16.06 0 0 0 33.56,14 Z" />
      </g>
      <g
         id="g2059-1-9-3-1-0"
         transform="matrix(0.6528399,0,0,0.6528399,43.416966,32.530547)"
         style="display:inline">
        <path
           class="cls-2"
           d="m 33.56,14 a 16,16 0 1 0 16,16 16.06,16.06 0 0 0 -16,-16 z"
           id="path2055-45-3-6-9-2"
           style="fill:#33cc33;fill-opacity:1" />
        <path
           id="path2057-69-3-3-0-3"
           style="fill:#369936;fill-opacity:1;stroke-width:1"
           class="cls-2"
           d="M 33.56,14 A 16,16 0 1 0 34.987246,45.935791 16,16 0 0 1 35.966739,14.192871 16.06,16.06 0 0 0 33.56,14 Z" />
      </g>
      <g
         id="g2059-11-1-7"
         transform="matrix(0.6528399,0,0,0.6528399,60.630276,38.462622)"
         style="display:inline">
        <path
           class="cls-2"
           d="m 33.56,14 a 16,16 0 1 0 16,16 16.06,16.06 0 0 0 -16,-16 z"
           id="path2055-5-6-2"
           style="fill:#33cc33;fill-opacity:1" />
        <path
           id="path2057-6-9-5"
           style="fill:#369936;fill-opacity:1;stroke-width:1"
           class="cls-2"
           d="M 33.56,14 A 16,16 0 1 0 34.987246,45.935791 16,16 0 0 1 35.966739,14.192871 16.06,16.06 0 0 0 33.56,14 Z" />
      </g>
      <g
         id="g8733-3-8-8-0-7"
         transform="matrix(0.02343754,0,0,0.02343754,80.641983,55.839657)"
         style="display:inline;fill:#f4f522;fill-opacity:1">
        <path
           class="st0"
           d="m 330.555,101.873 c 0,-34.164 -13.767,-65.108 -36.047,-87.622 -2.432,-2.465 -9.63,-4.349 -14.212,3.466 -4.589,7.808 -17.205,27.431 -17.205,27.431 -1.534,2.438 -4.219,3.918 -7.089,3.918 -2.883,0 -5.555,-1.48 -7.089,-3.918 0,0 -12.623,-19.623 -17.205,-27.431 -4.582,-7.815 -11.781,-5.931 -14.219,-3.466 -22.274,22.514 -36.04,53.458 -36.04,87.622 0,51.02 30.663,94.847 74.553,114.142 43.89,-19.295 74.553,-63.123 74.553,-114.142 z"
           id="path8723-8-6-51-0-5"
           style="fill:#f4f522;fill-opacity:1" />
        <path
           class="st0"
           d="m 204.51,253.425 c -4.78,-47.705 -36.998,-90.409 -85.518,-106.176 -32.492,-10.554 -66.177,-7.027 -94.47,7.205 -3.096,1.555 -7.117,7.822 -1.096,14.589 6.007,6.774 20.766,24.842 20.766,24.842 1.849,2.212 2.432,5.22 1.542,7.952 -0.891,2.74 -3.13,4.829 -5.918,5.528 0,0 -22.562,5.945 -31.404,7.89 -8.849,1.945 -9.281,9.37 -7.692,12.445 14.527,28.144 39.698,50.801 72.197,61.362 48.519,15.766 99.683,0.15 131.593,-35.637 z"
           id="path8725-5-6-3-7-2"
           style="fill:#f4f522;fill-opacity:1" />
        <path
           class="st0"
           d="M 96.772,362.484 C 76.69,390.127 69.636,423.25 74.43,454.558 c 0.527,3.424 5.233,9.178 13.527,5.554 8.308,-3.63 30.054,-12.088 30.054,-12.088 2.672,-1.062 5.698,-0.692 8.041,1 2.329,1.692 3.623,4.466 3.418,7.335 0,0 -1.308,23.294 -2.199,32.315 -0.883,9.006 6.048,11.712 9.466,11.15 31.252,-5.116 60.581,-22.054 80.662,-49.704 29.993,-41.266 30.944,-94.758 6.781,-136.155 -46.848,-10.192 -97.422,7.239 -127.408,48.519 z"
           id="path8727-3-5-0-5-3"
           style="fill:#f4f522;fill-opacity:1" />
        <path
           class="st0"
           d="m 287.824,313.964 c -24.165,41.397 -23.212,94.888 6.78,136.155 20.082,27.65 49.41,44.588 80.663,49.704 3.418,0.562 10.349,-2.144 9.466,-11.15 -0.89,-9.021 -2.205,-32.315 -2.205,-32.315 -0.198,-2.869 1.102,-5.643 3.431,-7.335 2.322,-1.692 5.363,-2.062 8.034,-1 0,0 21.746,8.458 30.047,12.088 8.294,3.623 13.007,-2.13 13.534,-5.554 4.787,-31.308 -2.254,-64.43 -22.342,-92.074 -29.986,-41.279 -80.56,-58.717 -127.408,-48.519 z"
           id="path8729-3-8-1-9-4"
           style="fill:#f4f522;fill-opacity:1" />
        <path
           class="st0"
           d="m 503.6,215.254 c -8.849,-1.945 -31.41,-7.89 -31.41,-7.89 -2.795,-0.706 -5.027,-2.788 -5.918,-5.528 -0.89,-2.732 -0.308,-5.74 1.534,-7.952 0,0 14.76,-18.068 20.78,-24.842 6.014,-6.766 1.993,-13.034 -1.096,-14.589 -28.301,-14.232 -61.978,-17.76 -94.485,-7.205 -48.519,15.767 -80.731,58.472 -85.512,106.176 31.91,35.787 83.067,51.403 131.593,35.636 32.492,-10.561 57.67,-33.218 72.191,-61.362 1.59,-3.074 1.172,-10.499 -7.677,-12.444 z"
           id="path8731-7-2-49-3-0"
           style="fill:#f4f522;fill-opacity:1" />
      </g>
      <g
         id="g8733-3-8-3-1-5-5"
         transform="matrix(0.02343754,0,0,0.02343754,48.535945,55.841107)"
         style="display:inline;fill:#f4f522;fill-opacity:1">
        <path
           class="st0"
           d="m 330.555,101.873 c 0,-34.164 -13.767,-65.108 -36.047,-87.622 -2.432,-2.465 -9.63,-4.349 -14.212,3.466 -4.589,7.808 -17.205,27.431 -17.205,27.431 -1.534,2.438 -4.219,3.918 -7.089,3.918 -2.883,0 -5.555,-1.48 -7.089,-3.918 0,0 -12.623,-19.623 -17.205,-27.431 -4.582,-7.815 -11.781,-5.931 -14.219,-3.466 -22.274,22.514 -36.04,53.458 -36.04,87.622 0,51.02 30.663,94.847 74.553,114.142 43.89,-19.295 74.553,-63.123 74.553,-114.142 z"
           id="path8723-8-6-60-9-2-9"
           style="fill:#f4f522;fill-opacity:1" />
        <path
           class="st0"
           d="m 204.51,253.425 c -4.78,-47.705 -36.998,-90.409 -85.518,-106.176 -32.492,-10.554 -66.177,-7.027 -94.47,7.205 -3.096,1.555 -7.117,7.822 -1.096,14.589 6.007,6.774 20.766,24.842 20.766,24.842 1.849,2.212 2.432,5.22 1.542,7.952 -0.891,2.74 -3.13,4.829 -5.918,5.528 0,0 -22.562,5.945 -31.404,7.89 -8.849,1.945 -9.281,9.37 -7.692,12.445 14.527,28.144 39.698,50.801 72.197,61.362 48.519,15.766 99.683,0.15 131.593,-35.637 z"
           id="path8725-5-6-20-4-8-0"
           style="fill:#f4f522;fill-opacity:1" />
        <path
           class="st0"
           d="M 96.772,362.484 C 76.69,390.127 69.636,423.25 74.43,454.558 c 0.527,3.424 5.233,9.178 13.527,5.554 8.308,-3.63 30.054,-12.088 30.054,-12.088 2.672,-1.062 5.698,-0.692 8.041,1 2.329,1.692 3.623,4.466 3.418,7.335 0,0 -1.308,23.294 -2.199,32.315 -0.883,9.006 6.048,11.712 9.466,11.15 31.252,-5.116 60.581,-22.054 80.662,-49.704 29.993,-41.266 30.944,-94.758 6.781,-136.155 -46.848,-10.192 -97.422,7.239 -127.408,48.519 z"
           id="path8727-3-5-442-1-3-6"
           style="fill:#f4f522;fill-opacity:1" />
        <path
           class="st0"
           d="m 287.824,313.964 c -24.165,41.397 -23.212,94.888 6.78,136.155 20.082,27.65 49.41,44.588 80.663,49.704 3.418,0.562 10.349,-2.144 9.466,-11.15 -0.89,-9.021 -2.205,-32.315 -2.205,-32.315 -0.198,-2.869 1.102,-5.643 3.431,-7.335 2.322,-1.692 5.363,-2.062 8.034,-1 0,0 21.746,8.458 30.047,12.088 8.294,3.623 13.007,-2.13 13.534,-5.554 4.787,-31.308 -2.254,-64.43 -22.342,-92.074 -29.986,-41.279 -80.56,-58.717 -127.408,-48.519 z"
           id="path8729-3-8-5-7-2-1"
           style="fill:#f4f522;fill-opacity:1" />
        <path
           class="st0"
           d="m 503.6,215.254 c -8.849,-1.945 -31.41,-7.89 -31.41,-7.89 -2.795,-0.706 -5.027,-2.788 -5.918,-5.528 -0.89,-2.732 -0.308,-5.74 1.534,-7.952 0,0 14.76,-18.068 20.78,-24.842 6.014,-6.766 1.993,-13.034 -1.096,-14.589 -28.301,-14.232 -61.978,-17.76 -94.485,-7.205 -48.519,15.767 -80.731,58.472 -85.512,106.176 31.91,35.787 83.067,51.403 131.593,35.636 32.492,-10.561 57.67,-33.218 72.191,-61.362 1.59,-3.074 1.172,-10.499 -7.677,-12.444 z"
           id="path8731-7-2-4-4-4-5"
           style="fill:#f4f522;fill-opacity:1" />
      </g>
      <g
         id="g8733-3-8-3-5-5-2-6"
         transform="matrix(0.02343754,0,0,0.02343754,63.428673,49.907582)"
         style="display:inline;fill:#f4f522;fill-opacity:1">
        <path
           class="st0"
           d="m 330.555,101.873 c 0,-34.164 -13.767,-65.108 -36.047,-87.622 -2.432,-2.465 -9.63,-4.349 -14.212,3.466 -4.589,7.808 -17.205,27.431 -17.205,27.431 -1.534,2.438 -4.219,3.918 -7.089,3.918 -2.883,0 -5.555,-1.48 -7.089,-3.918 0,0 -12.623,-19.623 -17.205,-27.431 -4.582,-7.815 -11.781,-5.931 -14.219,-3.466 -22.274,22.514 -36.04,53.458 -36.04,87.622 0,51.02 30.663,94.847 74.553,114.142 43.89,-19.295 74.553,-63.123 74.553,-114.142 z"
           id="path8723-8-6-60-1-4-0-6"
           style="fill:#f4f522;fill-opacity:1" />
        <path
           class="st0"
           d="m 204.51,253.425 c -4.78,-47.705 -36.998,-90.409 -85.518,-106.176 -32.492,-10.554 -66.177,-7.027 -94.47,7.205 -3.096,1.555 -7.117,7.822 -1.096,14.589 6.007,6.774 20.766,24.842 20.766,24.842 1.849,2.212 2.432,5.22 1.542,7.952 -0.891,2.74 -3.13,4.829 -5.918,5.528 0,0 -22.562,5.945 -31.404,7.89 -8.849,1.945 -9.281,9.37 -7.692,12.445 14.527,28.144 39.698,50.801 72.197,61.362 48.519,15.766 99.683,0.15 131.593,-35.637 z"
           id="path8725-5-6-20-3-3-7-0"
           style="fill:#f4f522;fill-opacity:1" />
        <path
           class="st0"
           d="M 96.772,362.484 C 76.69,390.127 69.636,423.25 74.43,454.558 c 0.527,3.424 5.233,9.178 13.527,5.554 8.308,-3.63 30.054,-12.088 30.054,-12.088 2.672,-1.062 5.698,-0.692 8.041,1 2.329,1.692 3.623,4.466 3.418,7.335 0,0 -1.308,23.294 -2.199,32.315 -0.883,9.006 6.048,11.712 9.466,11.15 31.252,-5.116 60.581,-22.054 80.662,-49.704 29.993,-41.266 30.944,-94.758 6.781,-136.155 -46.848,-10.192 -97.422,7.239 -127.408,48.519 z"
           id="path8727-3-5-442-5-7-4-0"
           style="fill:#f4f522;fill-opacity:1" />
        <path
           class="st0"
           d="m 287.824,313.964 c -24.165,41.397 -23.212,94.888 6.78,136.155 20.082,27.65 49.41,44.588 80.663,49.704 3.418,0.562 10.349,-2.144 9.466,-11.15 -0.89,-9.021 -2.205,-32.315 -2.205,-32.315 -0.198,-2.869 1.102,-5.643 3.431,-7.335 2.322,-1.692 5.363,-2.062 8.034,-1 0,0 21.746,8.458 30.047,12.088 8.294,3.623 13.007,-2.13 13.534,-5.554 4.787,-31.308 -2.254,-64.43 -22.342,-92.074 -29.986,-41.279 -80.56,-58.717 -127.408,-48.519 z"
           id="path8729-3-8-5-8-5-3-9"
           style="fill:#f4f522;fill-opacity:1" />
        <path
           class="st0"
           d="m 503.6,215.254 c -8.849,-1.945 -31.41,-7.89 -31.41,-7.89 -2.795,-0.706 -5.027,-2.788 -5.918,-5.528 -0.89,-2.732 -0.308,-5.74 1.534,-7.952 0,0 14.76,-18.068 20.78,-24.842 6.014,-6.766 1.993,-13.034 -1.096,-14.589 -28.301,-14.232 -61.978,-17.76 -94.485,-7.205 -48.519,15.767 -80.731,58.472 -85.512,106.176 31.91,35.787 83.067,51.403 131.593,35.636 32.492,-10.561 57.67,-33.218 72.191,-61.362 1.59,-3.074 1.172,-10.499 -7.677,-12.444 z"
           id="path8731-7-2-4-8-1-6-6"
           style="fill:#f4f522;fill-opacity:1" />
      </g>
    </g>
    <g
       id="g9919-7-4"
       style="display:inline"
       transform="translate(-3.9015298,-39.725379)">
      <g
         id="g2059-1-1-5"
         transform="matrix(0.6528399,0,0,0.6528399,28.524238,38.464072)"
         style="display:inline">
        <path
           class="cls-2"
           d="m 33.56,14 a 16,16 0 1 0 16,16 16.06,16.06 0 0 0 -16,-16 z"
           id="path2055-45-7-4"
           style="fill:#33cc33;fill-opacity:1" />
        <path
           id="path2057-69-2-9"
           style="fill:#369936;fill-opacity:1;stroke-width:1"
           class="cls-2"
           d="M 33.56,14 A 16,16 0 1 0 34.987246,45.935791 16,16 0 0 1 35.966739,14.192871 16.06,16.06 0 0 0 33.56,14 Z" />
      </g>
      <g
         id="g2059-1-9-3-1"
         transform="matrix(0.6528399,0,0,0.6528399,43.416966,32.530547)"
         style="display:inline">
        <path
           class="cls-2"
           d="m 33.56,14 a 16,16 0 1 0 16,16 16.06,16.06 0 0 0 -16,-16 z"
           id="path2055-45-3-6-9"
           style="fill:#33cc33;fill-opacity:1" />
        <path
           id="path2057-69-3-3-0"
           style="fill:#369936;fill-opacity:1;stroke-width:1"
           class="cls-2"
           d="M 33.56,14 A 16,16 0 1 0 34.987246,45.935791 16,16 0 0 1 35.966739,14.192871 16.06,16.06 0 0 0 33.56,14 Z" />
      </g>
      <g
         id="g2059-11-1"
         transform="matrix(0.6528399,0,0,0.6528399,60.630276,38.462622)"
         style="display:inline">
        <path
           class="cls-2"
           d="m 33.56,14 a 16,16 0 1 0 16,16 16.06,16.06 0 0 0 -16,-16 z"
           id="path2055-5-6"
           style="fill:#33cc33;fill-opacity:1" />
        <path
           id="path2057-6-9"
           style="fill:#369936;fill-opacity:1;stroke-width:1"
           class="cls-2"
           d="M 33.56,14 A 16,16 0 1 0 34.987246,45.935791 16,16 0 0 1 35.966739,14.192871 16.06,16.06 0 0 0 33.56,14 Z" />
      </g>
      <g
         id="g8733-3-8-8-0"
         transform="matrix(0.02343754,0,0,0.02343754,80.641983,55.839657)"
         style="display:inline;fill:#f4f522;fill-opacity:1">
        <path
           class="st0"
           d="m 330.555,101.873 c 0,-34.164 -13.767,-65.108 -36.047,-87.622 -2.432,-2.465 -9.63,-4.349 -14.212,3.466 -4.589,7.808 -17.205,27.431 -17.205,27.431 -1.534,2.438 -4.219,3.918 -7.089,3.918 -2.883,0 -5.555,-1.48 -7.089,-3.918 0,0 -12.623,-19.623 -17.205,-27.431 -4.582,-7.815 -11.781,-5.931 -14.219,-3.466 -22.274,22.514 -36.04,53.458 -36.04,87.622 0,51.02 30.663,94.847 74.553,114.142 43.89,-19.295 74.553,-63.123 74.553,-114.142 z"
           id="path8723-8-6-51-0"
           style="fill:#f4f522;fill-opacity:1" />
        <path
           class="st0"
           d="m 204.51,253.425 c -4.78,-47.705 -36.998,-90.409 -85.518,-106.176 -32.492,-10.554 -66.177,-7.027 -94.47,7.205 -3.096,1.555 -7.117,7.822 -1.096,14.589 6.007,6.774 20.766,24.842 20.766,24.842 1.849,2.212 2.432,5.22 1.542,7.952 -0.891,2.74 -3.13,4.829 -5.918,5.528 0,0 -22.562,5.945 -31.404,7.89 -8.849,1.945 -9.281,9.37 -7.692,12.445 14.527,28.144 39.698,50.801 72.197,61.362 48.519,15.766 99.683,0.15 131.593,-35.637 z"
           id="path8725-5-6-3-7"
           style="fill:#f4f522;fill-opacity:1" />
        <path
           class="st0"
           d="M 96.772,362.484 C 76.69,390.127 69.636,423.25 74.43,454.558 c 0.527,3.424 5.233,9.178 13.527,5.554 8.308,-3.63 30.054,-12.088 30.054,-12.088 2.672,-1.062 5.698,-0.692 8.041,1 2.329,1.692 3.623,4.466 3.418,7.335 0,0 -1.308,23.294 -2.199,32.315 -0.883,9.006 6.048,11.712 9.466,11.15 31.252,-5.116 60.581,-22.054 80.662,-49.704 29.993,-41.266 30.944,-94.758 6.781,-136.155 -46.848,-10.192 -97.422,7.239 -127.408,48.519 z"
           id="path8727-3-5-0-5"
           style="fill:#f4f522;fill-opacity:1" />
        <path
           class="st0"
           d="m 287.824,313.964 c -24.165,41.397 -23.212,94.888 6.78,136.155 20.082,27.65 49.41,44.588 80.663,49.704 3.418,0.562 10.349,-2.144 9.466,-11.15 -0.89,-9.021 -2.205,-32.315 -2.205,-32.315 -0.198,-2.869 1.102,-5.643 3.431,-7.335 2.322,-1.692 5.363,-2.062 8.034,-1 0,0 21.746,8.458 30.047,12.088 8.294,3.623 13.007,-2.13 13.534,-5.554 4.787,-31.308 -2.254,-64.43 -22.342,-92.074 -29.986,-41.279 -80.56,-58.717 -127.408,-48.519 z"
           id="path8729-3-8-1-9"
           style="fill:#f4f522;fill-opacity:1" />
        <path
           class="st0"
           d="m 503.6,215.254 c -8.849,-1.945 -31.41,-7.89 -31.41,-7.89 -2.795,-0.706 -5.027,-2.788 -5.918,-5.528 -0.89,-2.732 -0.308,-5.74 1.534,-7.952 0,0 14.76,-18.068 20.78,-24.842 6.014,-6.766 1.993,-13.034 -1.096,-14.589 -28.301,-14.232 -61.978,-17.76 -94.485,-7.205 -48.519,15.767 -80.731,58.472 -85.512,106.176 31.91,35.787 83.067,51.403 131.593,35.636 32.492,-10.561 57.67,-33.218 72.191,-61.362 1.59,-3.074 1.172,-10.499 -7.677,-12.444 z"
           id="path8731-7-2-49-3"
           style="fill:#f4f522;fill-opacity:1" />
      </g>
      <g
         id="g8733-3-8-3-1-5"
         transform="matrix(0.02343754,0,0,0.02343754,48.535945,55.841107)"
         style="display:inline;fill:#f4f522;fill-opacity:1">
        <path
           class="st0"
           d="m 330.555,101.873 c 0,-34.164 -13.767,-65.108 -36.047,-87.622 -2.432,-2.465 -9.63,-4.349 -14.212,3.466 -4.589,7.808 -17.205,27.431 -17.205,27.431 -1.534,2.438 -4.219,3.918 -7.089,3.918 -2.883,0 -5.555,-1.48 -7.089,-3.918 0,0 -12.623,-19.623 -17.205,-27.431 -4.582,-7.815 -11.781,-5.931 -14.219,-3.466 -22.274,22.514 -36.04,53.458 -36.04,87.622 0,51.02 30.663,94.847 74.553,114.142 43.89,-19.295 74.553,-63.123 74.553,-114.142 z"
           id="path8723-8-6-60-9-2"
           style="fill:#f4f522;fill-opacity:1" />
        <path
           class="st0"
           d="m 204.51,253.425 c -4.78,-47.705 -36.998,-90.409 -85.518,-106.176 -32.492,-10.554 -66.177,-7.027 -94.47,7.205 -3.096,1.555 -7.117,7.822 -1.096,14.589 6.007,6.774 20.766,24.842 20.766,24.842 1.849,2.212 2.432,5.22 1.542,7.952 -0.891,2.74 -3.13,4.829 -5.918,5.528 0,0 -22.562,5.945 -31.404,7.89 -8.849,1.945 -9.281,9.37 -7.692,12.445 14.527,28.144 39.698,50.801 72.197,61.362 48.519,15.766 99.683,0.15 131.593,-35.637 z"
           id="path8725-5-6-20-4-8"
           style="fill:#f4f522;fill-opacity:1" />
        <path
           class="st0"
           d="M 96.772,362.484 C 76.69,390.127 69.636,423.25 74.43,454.558 c 0.527,3.424 5.233,9.178 13.527,5.554 8.308,-3.63 30.054,-12.088 30.054,-12.088 2.672,-1.062 5.698,-0.692 8.041,1 2.329,1.692 3.623,4.466 3.418,7.335 0,0 -1.308,23.294 -2.199,32.315 -0.883,9.006 6.048,11.712 9.466,11.15 31.252,-5.116 60.581,-22.054 80.662,-49.704 29.993,-41.266 30.944,-94.758 6.781,-136.155 -46.848,-10.192 -97.422,7.239 -127.408,48.519 z"
           id="path8727-3-5-442-1-3"
           style="fill:#f4f522;fill-opacity:1" />
        <path
           class="st0"
           d="m 287.824,313.964 c -24.165,41.397 -23.212,94.888 6.78,136.155 20.082,27.65 49.41,44.588 80.663,49.704 3.418,0.562 10.349,-2.144 9.466,-11.15 -0.89,-9.021 -2.205,-32.315 -2.205,-32.315 -0.198,-2.869 1.102,-5.643 3.431,-7.335 2.322,-1.692 5.363,-2.062 8.034,-1 0,0 21.746,8.458 30.047,12.088 8.294,3.623 13.007,-2.13 13.534,-5.554 4.787,-31.308 -2.254,-64.43 -22.342,-92.074 -29.986,-41.279 -80.56,-58.717 -127.408,-48.519 z"
           id="path8729-3-8-5-7-2"
           style="fill:#f4f522;fill-opacity:1" />
        <path
           class="st0"
           d="m 503.6,215.254 c -8.849,-1.945 -31.41,-7.89 -31.41,-7.89 -2.795,-0.706 -5.027,-2.788 -5.918,-5.528 -0.89,-2.732 -0.308,-5.74 1.534,-7.952 0,0 14.76,-18.068 20.78,-24.842 6.014,-6.766 1.993,-13.034 -1.096,-14.589 -28.301,-14.232 -61.978,-17.76 -94.485,-7.205 -48.519,15.767 -80.731,58.472 -85.512,106.176 31.91,35.787 83.067,51.403 131.593,35.636 32.492,-10.561 57.67,-33.218 72.191,-61.362 1.59,-3.074 1.172,-10.499 -7.677,-12.444 z"
           id="path8731-7-2-4-4-4"
           style="fill:#f4f522;fill-opacity:1" />
      </g>
      <g
         id="g8733-3-8-3-5-5-2"
         transform="matrix(0.02343754,0,0,0.02343754,63.428673,49.907582)"
         style="display:inline;fill:#f4f522;fill-opacity:1">
        <path
           class="st0"
           d="m 330.555,101.873 c 0,-34.164 -13.767,-65.108 -36.047,-87.622 -2.432,-2.465 -9.63,-4.349 -14.212,3.466 -4.589,7.808 -17.205,27.431 -17.205,27.431 -1.534,2.438 -4.219,3.918 -7.089,3.918 -2.883,0 -5.555,-1.48 -7.089,-3.918 0,0 -12.623,-19.623 -17.205,-27.431 -4.582,-7.815 -11.781,-5.931 -14.219,-3.466 -22.274,22.514 -36.04,53.458 -36.04,87.622 0,51.02 30.663,94.847 74.553,114.142 43.89,-19.295 74.553,-63.123 74.553,-114.142 z"
           id="path8723-8-6-60-1-4-0"
           style="fill:#f4f522;fill-opacity:1" />
        <path
           class="st0"
           d="m 204.51,253.425 c -4.78,-47.705 -36.998,-90.409 -85.518,-106.176 -32.492,-10.554 -66.177,-7.027 -94.47,7.205 -3.096,1.555 -7.117,7.822 -1.096,14.589 6.007,6.774 20.766,24.842 20.766,24.842 1.849,2.212 2.432,5.22 1.542,7.952 -0.891,2.74 -3.13,4.829 -5.918,5.528 0,0 -22.562,5.945 -31.404,7.89 -8.849,1.945 -9.281,9.37 -7.692,12.445 14.527,28.144 39.698,50.801 72.197,61.362 48.519,15.766 99.683,0.15 131.593,-35.637 z"
           id="path8725-5-6-20-3-3-7"
           style="fill:#f4f522;fill-opacity:1" />
        <path
           class="st0"
           d="M 96.772,362.484 C 76.69,390.127 69.636,423.25 74.43,454.558 c 0.527,3.424 5.233,9.178 13.527,5.554 8.308,-3.63 30.054,-12.088 30.054,-12.088 2.672,-1.062 5.698,-0.692 8.041,1 2.329,1.692 3.623,4.466 3.418,7.335 0,0 -1.308,23.294 -2.199,32.315 -0.883,9.006 6.048,11.712 9.466,11.15 31.252,-5.116 60.581,-22.054 80.662,-49.704 29.993,-41.266 30.944,-94.758 6.781,-136.155 -46.848,-10.192 -97.422,7.239 -127.408,48.519 z"
           id="path8727-3-5-442-5-7-4"
           style="fill:#f4f522;fill-opacity:1" />
        <path
           class="st0"
           d="m 287.824,313.964 c -24.165,41.397 -23.212,94.888 6.78,136.155 20.082,27.65 49.41,44.588 80.663,49.704 3.418,0.562 10.349,-2.144 9.466,-11.15 -0.89,-9.021 -2.205,-32.315 -2.205,-32.315 -0.198,-2.869 1.102,-5.643 3.431,-7.335 2.322,-1.692 5.363,-2.062 8.034,-1 0,0 21.746,8.458 30.047,12.088 8.294,3.623 13.007,-2.13 13.534,-5.554 4.787,-31.308 -2.254,-64.43 -22.342,-92.074 -29.986,-41.279 -80.56,-58.717 -127.408,-48.519 z"
           id="path8729-3-8-5-8-5-3"
           style="fill:#f4f522;fill-opacity:1" />
        <path
           class="st0"
           d="m 503.6,215.254 c -8.849,-1.945 -31.41,-7.89 -31.41,-7.89 -2.795,-0.706 -5.027,-2.788 -5.918,-5.528 -0.89,-2.732 -0.308,-5.74 1.534,-7.952 0,0 14.76,-18.068 20.78,-24.842 6.014,-6.766 1.993,-13.034 -1.096,-14.589 -28.301,-14.232 -61.978,-17.76 -94.485,-7.205 -48.519,15.767 -80.731,58.472 -85.512,106.176 31.91,35.787 83.067,51.403 131.593,35.636 32.492,-10.561 57.67,-33.218 72.191,-61.362 1.59,-3.074 1.172,-10.499 -7.677,-12.444 z"
           id="path8731-7-2-4-8-1-6"
           style="fill:#f4f522;fill-opacity:1" />
      </g>
    </g>
  </g>
</svg>
