<?xml version="1.0" encoding="UTF-8" standalone="no"?>
<!-- Created with Inkscape (http://www.inkscape.org/) -->

<svg
   width="500"
   height="500"
   viewBox="0 0 132.29166 132.29167"
   version="1.1"
   id="svg2515"
   inkscape:version="1.1.2 (b8e25be833, 2022-02-05)"
   sodipodi:docname="bonsai03s06normal.svg"
   inkscape:export-filename="C:\Users\Lenovo\Desktop\Coding\Media files\Bonsais\bonsai03.png"
   inkscape:export-xdpi="96"
   inkscape:export-ydpi="96"
   xmlns:inkscape="http://www.inkscape.org/namespaces/inkscape"
   xmlns:sodipodi="http://sodipodi.sourceforge.net/DTD/sodipodi-0.dtd"
   xmlns="http://www.w3.org/2000/svg"
   xmlns:svg="http://www.w3.org/2000/svg">
  <sodipodi:namedview
     id="namedview2517"
     pagecolor="#ffffff"
     bordercolor="#666666"
     borderopacity="1.0"
     inkscape:pageshadow="2"
     inkscape:pageopacity="0.0"
     inkscape:pagecheckerboard="0"
     inkscape:document-units="mm"
     showgrid="false"
     units="px"
     inkscape:zoom="1.4142136"
     inkscape:cx="200.46477"
     inkscape:cy="236.52721"
     inkscape:window-width="1920"
     inkscape:window-height="1001"
     inkscape:window-x="-9"
     inkscape:window-y="-9"
     inkscape:window-maximized="1"
     inkscape:current-layer="g17992" />
  <defs
     id="defs2512">
    <marker
       style="overflow:visible"
       id="Arrow1Sstart"
       refX="0.0"
       refY="0.0"
       orient="auto"
       inkscape:stockid="Arrow1Sstart"
       inkscape:isstock="true">
      <path
         transform="scale(0.2) translate(6,0)"
         style="fill-rule:evenodd;fill:context-stroke;stroke:context-stroke;stroke-width:1.0pt"
         d="M 0.0,0.0 L 5.0,-5.0 L -12.5,0.0 L 5.0,5.0 L 0.0,0.0 z "
         id="path24092" />
    </marker>
    <marker
       style="overflow:visible"
       id="Arrow1Mstart"
       refX="0.0"
       refY="0.0"
       orient="auto"
       inkscape:stockid="Arrow1Mstart"
       inkscape:isstock="true">
      <path
         transform="scale(0.4) translate(10,0)"
         style="fill-rule:evenodd;fill:context-stroke;stroke:context-stroke;stroke-width:1.0pt"
         d="M 0.0,0.0 L 5.0,-5.0 L -12.5,0.0 L 5.0,5.0 L 0.0,0.0 z "
         id="path24086" />
    </marker>
    <marker
       style="overflow:visible"
       id="Arrow1Lstart"
       refX="0.0"
       refY="0.0"
       orient="auto"
       inkscape:stockid="Arrow1Lstart"
       inkscape:isstock="true">
      <path
         transform="scale(0.8) translate(12.5,0)"
         style="fill-rule:evenodd;fill:context-stroke;stroke:context-stroke;stroke-width:1.0pt"
         d="M 0.0,0.0 L 5.0,-5.0 L -12.5,0.0 L 5.0,5.0 L 0.0,0.0 z "
         id="path24080" />
    </marker>
    <marker
       style="overflow:visible;"
       id="Arrow1Lend"
       refX="0.0"
       refY="0.0"
       orient="auto"
       inkscape:stockid="Arrow1Lend"
       inkscape:isstock="true">
      <path
         transform="scale(0.8) rotate(180) translate(12.5,0)"
         style="fill-rule:evenodd;fill:context-stroke;stroke:context-stroke;stroke-width:1.0pt;"
         d="M 0.0,0.0 L 5.0,-5.0 L -12.5,0.0 L 5.0,5.0 L 0.0,0.0 z "
         id="path24083" />
    </marker>
  </defs>
  <g
     inkscape:label="Full Cascade Style"
     inkscape:groupmode="layer"
     id="g17992"
     style="display:inline">
    <g
       id="g17906"
       transform="translate(132.09706,26.562782)">
      <path
         style="fill:#c18b56;fill-opacity:1;stroke:#c18b56;stroke-width:1;stroke-linecap:round;stroke-linejoin:round;stroke-miterlimit:4;stroke-dasharray:none;stroke-opacity:1"
         d="m -99.500015,30.838997 c 0,0 3.638799,-12.735798 11.176313,-18.453912 7.537513,-5.7181136 12.496916,-8.4784226 23.142885,-10.0872826 10.645968,-1.60885902 11.594881,-2.51410402 19.483052,-1.089031 7.888169,1.425072 21.667403,2.638059 27.063051,17.1643086 6.81601,18.350201 6.7258,20.263344 4.38657,25.721542 -2.33923,5.458201 -12.829945,17.760783 -15.334937,20.793141 -4.938372,5.978028 -5.458199,8.317257 -3.118973,13.255629 0.330604,2.90298 6.162124,16.3246 -1.302394,6.77885 -6.495032,-13.276708 -1.296749,-18.994823 1.822223,-22.893535 3.118972,-3.898715 15.179241,-16.422587 15.075031,-22.61254 -0.10422,-6.189957 -5.4582,-19.233654 -7.277605,-20.013397 -1.819399,-0.779743 -7.017683,-14.5551986 -26.771164,-12.7357996 -19.753485,1.819402 -19.233657,3.3788866 -25.211683,9.6168266 -5.152861,5.376899 -9.876742,12.21597 -7.277599,14.035371 2.599142,1.8194 -15.85477,0.519829 -15.85477,0.519829 z"
         id="path17902"
         sodipodi:nodetypes="cssssssccssssssc" />
      <path
         id="path17904"
         style="display:inline;fill:#9b6b45;fill-opacity:1;stroke:#9b6b45;stroke-width:3.77953;stroke-linecap:round;stroke-linejoin:round;stroke-miterlimit:4;stroke-dasharray:none;stroke-opacity:1"
         d="m -198.50781,1.9003906 c -11.86585,0.2218352 -22.69775,2.9847019 -47.84571,6.7851563 -40.23673,6.0807311 -58.98051,16.5132281 -87.46875,38.1250001 -28.48824,21.611769 -42.24023,69.746093 -42.24023,69.746093 0,0 4.05066,0.25117 7.5293,0.46289 4.26508,-12.64023 17.66416,-47.519947 40.73437,-65.021483 28.48824,-21.611765 47.23397,-32.044269 87.47071,-38.125 40.23672,-6.0807282 43.82315,-9.5013383 73.63671,-4.1152345 20.11821,3.6345445 50.36393,6.9268215 74.181644,25.5390625 C -117.04264,12.062664 -150.85821,8.5173186 -172.7168,4.5683594 -183.89688,2.5485708 -191.3883,1.7672895 -198.50781,1.9003906 Z m 85.4707,47.4980474 c 12.08952,11.359811 17.783837,22.610761 20.875001,23.935546 6.876491,2.947061 27.111957,52.245516 27.505859,75.640626 0.393865,23.3951 -45.18832,70.72954 -56.97656,85.46484 -11.78824,14.73529 -31.43683,36.34766 -6.88867,86.52735 6.32744,8.09164 10.12193,11.80717 12.19531,12.59375 -1.72535,-1.89721 -3.75185,-4.31148 -6.17188,-7.40625 -24.54815,-50.17969 -4.89957,-71.79206 6.88867,-86.52735 11.78825,-14.7353 57.370432,-62.06974 56.976568,-85.46484 C -59.026715,130.767 -79.262181,81.468545 -86.138672,78.521484 -89.703333,76.993771 -96.724636,62.271435 -113.03711,49.398438 Z"
         transform="scale(0.26458333)" />
    </g>
    <g
       id="g7501-0-6-2-1-0-2-8-5-9"
       transform="matrix(1.1794691,0,0,0.54291387,50.957463,20.330293)"
       style="display:inline">
      <path
         d="m 25.252116,88.079316 -4.346223,-15.014222 -0.02822,0.0071 H -36.9673 l -0.02822,-0.0071 -4.346222,15.014222 c -2.596445,8.537222 4.162778,17.571854 13.102166,17.434274 h 40.389527 c 8.939389,0.13758 15.698611,-8.900579 13.102167,-17.434274"
         style="fill:#95dac0;fill-opacity:1;fill-rule:nonzero;stroke:#95dac0;stroke-width:1;stroke-linecap:round;stroke-linejoin:round;stroke-miterlimit:4;stroke-dasharray:none;stroke-opacity:1"
         id="path566-1-1-4-9-8-0-1-2-5" />
      <path
         d="m 18.376479,64.425523 h -52.906082 l -2.497667,8.639527 0.02822,0.0071 h 57.844971 l 0.02822,-0.0071 -2.497666,-8.639527"
         style="fill:#aee3d1;fill-opacity:1;fill-rule:nonzero;stroke:#aee3d1;stroke-width:1;stroke-linecap:round;stroke-linejoin:round;stroke-miterlimit:4;stroke-dasharray:none;stroke-opacity:1"
         id="path568-6-3-1-0-7-7-0-8-4" />
      <path
         d="M -36.402855,88.079316 -32.060161,73.07215 H -36.9673 l -0.02822,-0.0071 -4.346222,15.014222 c -2.596445,8.537222 4.162778,17.571858 13.102166,17.434278 h 4.938889 C -32.23655,105.65117 -38.9993,96.616538 -36.402855,88.079316 v 0"
         style="fill:#6bad9a;fill-opacity:1;fill-rule:nonzero;stroke:#6bad9a;stroke-width:1;stroke-linecap:round;stroke-linejoin:round;stroke-miterlimit:4;stroke-dasharray:none;stroke-opacity:1"
         id="path580-2-7-5-6-4-43-5-7-1" />
      <path
         d="m -29.587187,64.425523 h -4.942416 l -2.497667,8.639527 0.02822,0.0071 h 4.938889 l -0.02822,-0.0071 2.501194,-8.639527"
         style="fill:#7dceb2;fill-opacity:1;fill-rule:nonzero;stroke:#7dceb2;stroke-width:1;stroke-linecap:round;stroke-linejoin:round;stroke-miterlimit:4;stroke-dasharray:none;stroke-opacity:1"
         id="path582-2-9-1-5-2-4-2-4-5" />
    </g>
    <g
       id="g17990"
       transform="matrix(1.2264536,0,0,1.2264536,-20.046394,-58.360256)" />
    <g
       id="g5519-5-9-45"
       transform="matrix(0.31656974,0,0,0.31656974,120.35721,24.116322)"
       style="display:inline">
      <g
         id="g5395-44-6-99"
         transform="translate(-85.460416,22.382686)">
        <g
           id="g2523-0-9-1-6"
           transform="matrix(4.2577182,0,0,4.2577182,200.10696,-35.748312)"
           style="display:inline">
          <g
             id="g3373-7-6-1-5"
             transform="matrix(-0.20953371,-0.00371336,0.00371336,-0.20953371,-91.221922,31.90476)">
            <g
               id="g2459-5-6-2-3-7"
               transform="matrix(0.4417475,0,0,0.4417475,-21.883357,22.162069)"
               style="display:inline">
              <path
                 id="path14-1-6-37"
                 style="fill:#a4a42a;fill-opacity:1;stroke-width:5.37006"
                 class="cls-2"
                 d="m -393.27782,217.70077 a 85.921004,85.921004 0 1 0 -16.37634,-170.402578 85.921004,85.921004 0 0 1 7.41181,169.988428 86.243208,86.243208 0 0 0 8.96453,0.41415 z m -12.77061,-38.71275 a 46.988049,46.988049 0 0 0 5.92824,-0.58891 46.988049,46.988049 0 0 1 -41.66076,-45.77326 46.988049,46.988049 0 0 1 42.47865,-46.881497 46.988049,46.988049 0 0 0 -54.55939,47.095587 46.988049,46.988049 0 0 0 47.81326,46.14808 z" />
              <path
                 id="path14-8-4-16-9-3"
                 style="display:inline;fill:#cccc00;fill-opacity:1;stroke-width:5.37006"
                 class="cls-2"
                 d="m -405.35857,217.91486 a 85.921004,85.921004 0 1 0 -87.42996,-84.38506 86.243208,86.243208 0 0 0 87.42996,84.38506 z m -0.68986,-38.92684 a 46.988049,46.988049 0 0 1 -47.81326,-46.14808 46.988049,46.988049 0 1 1 47.81326,46.14808 z" />
            </g>
          </g>
        </g>
      </g>
      <g
         id="g2523-0-6-3-1-24"
         transform="matrix(4.2577182,0,0,4.2577182,161.75656,-46.486242)"
         style="display:inline">
        <g
           id="g3373-7-9-9-5-59"
           transform="matrix(-0.20953371,-0.00371336,0.00371336,-0.20953371,-91.221922,31.90476)">
          <g
             id="g2459-5-6-1-4-5-65"
             transform="matrix(0.4417475,0,0,0.4417475,-21.883357,22.162069)"
             style="display:inline">
            <path
               id="path14-7-8-9-76"
               style="fill:#a4a42a;fill-opacity:1;stroke-width:5.37006"
               class="cls-2"
               d="m -393.27782,217.70077 a 85.921004,85.921004 0 1 0 -16.37634,-170.402578 85.921004,85.921004 0 0 1 7.41181,169.988428 86.243208,86.243208 0 0 0 8.96453,0.41415 z m -12.77061,-38.71275 a 46.988049,46.988049 0 0 0 5.92824,-0.58891 46.988049,46.988049 0 0 1 -41.66076,-45.77326 46.988049,46.988049 0 0 1 42.47865,-46.881497 46.988049,46.988049 0 0 0 -54.55939,47.095587 46.988049,46.988049 0 0 0 47.81326,46.14808 z" />
            <path
               id="path14-8-4-0-4-7-5"
               style="display:inline;fill:#cccc00;fill-opacity:1;stroke-width:5.37006"
               class="cls-2"
               d="m -405.35857,217.91486 a 85.921004,85.921004 0 1 0 -87.42996,-84.38506 86.243208,86.243208 0 0 0 87.42996,84.38506 z m -0.68986,-38.92684 a 46.988049,46.988049 0 0 1 -47.81326,-46.14808 46.988049,46.988049 0 1 1 47.81326,46.14808 z" />
          </g>
        </g>
      </g>
      <g
         id="g5395-9-2-2-39"
         style="display:inline"
         transform="translate(9.151695,22.382686)">
        <g
           id="g2523-0-1-8-7-05"
           transform="matrix(4.2577182,0,0,4.2577182,200.10696,-35.748312)"
           style="display:inline">
          <g
             id="g3373-7-90-9-7-5"
             transform="matrix(-0.20953371,-0.00371336,0.00371336,-0.20953371,-91.221922,31.90476)">
            <g
               id="g2459-5-6-4-0-3-5"
               transform="matrix(0.4417475,0,0,0.4417475,-21.883357,22.162069)"
               style="display:inline">
              <path
                 id="path14-73-8-8-40"
                 style="fill:#a4a42a;fill-opacity:1;stroke-width:5.37006"
                 class="cls-2"
                 d="m -393.27782,217.70077 a 85.921004,85.921004 0 1 0 -16.37634,-170.402578 85.921004,85.921004 0 0 1 7.41181,169.988428 86.243208,86.243208 0 0 0 8.96453,0.41415 z m -12.77061,-38.71275 a 46.988049,46.988049 0 0 0 5.92824,-0.58891 46.988049,46.988049 0 0 1 -41.66076,-45.77326 46.988049,46.988049 0 0 1 42.47865,-46.881497 46.988049,46.988049 0 0 0 -54.55939,47.095587 46.988049,46.988049 0 0 0 47.81326,46.14808 z" />
              <path
                 id="path14-8-4-1-9-2-580"
                 style="display:inline;fill:#cccc00;fill-opacity:1;stroke-width:5.37006"
                 class="cls-2"
                 d="m -405.35857,217.91486 a 85.921004,85.921004 0 1 0 -87.42996,-84.38506 86.243208,86.243208 0 0 0 87.42996,84.38506 z m -0.68986,-38.92684 a 46.988049,46.988049 0 0 1 -47.81326,-46.14808 46.988049,46.988049 0 1 1 47.81326,46.14808 z" />
            </g>
          </g>
        </g>
      </g>
    </g>
    <g
       id="g5519-5-9-4"
       transform="matrix(0.31656974,0,0,0.31656974,76.123436,5.1008548)"
       style="display:inline">
      <g
         id="g5395-44-6-01"
         transform="translate(-85.460416,22.382686)">
        <g
           id="g2523-0-9-1-8"
           transform="matrix(4.2577182,0,0,4.2577182,200.10696,-35.748312)"
           style="display:inline">
          <g
             id="g3373-7-6-1-60"
             transform="matrix(-0.20953371,-0.00371336,0.00371336,-0.20953371,-91.221922,31.90476)">
            <g
               id="g2459-5-6-2-3-2"
               transform="matrix(0.4417475,0,0,0.4417475,-21.883357,22.162069)"
               style="display:inline">
              <path
                 id="path14-1-6-1"
                 style="fill:#a4a42a;fill-opacity:1;stroke-width:5.37006"
                 class="cls-2"
                 d="m -393.27782,217.70077 a 85.921004,85.921004 0 1 0 -16.37634,-170.402578 85.921004,85.921004 0 0 1 7.41181,169.988428 86.243208,86.243208 0 0 0 8.96453,0.41415 z m -12.77061,-38.71275 a 46.988049,46.988049 0 0 0 5.92824,-0.58891 46.988049,46.988049 0 0 1 -41.66076,-45.77326 46.988049,46.988049 0 0 1 42.47865,-46.881497 46.988049,46.988049 0 0 0 -54.55939,47.095587 46.988049,46.988049 0 0 0 47.81326,46.14808 z" />
              <path
                 id="path14-8-4-16-9-28"
                 style="display:inline;fill:#cccc00;fill-opacity:1;stroke-width:5.37006"
                 class="cls-2"
                 d="m -405.35857,217.91486 a 85.921004,85.921004 0 1 0 -87.42996,-84.38506 86.243208,86.243208 0 0 0 87.42996,84.38506 z m -0.68986,-38.92684 a 46.988049,46.988049 0 0 1 -47.81326,-46.14808 46.988049,46.988049 0 1 1 47.81326,46.14808 z" />
            </g>
          </g>
        </g>
      </g>
      <g
         id="g2523-0-6-3-1-1"
         transform="matrix(4.2577182,0,0,4.2577182,161.75656,-46.486242)"
         style="display:inline">
        <g
           id="g3373-7-9-9-5-5"
           transform="matrix(-0.20953371,-0.00371336,0.00371336,-0.20953371,-91.221922,31.90476)">
          <g
             id="g2459-5-6-1-4-5-40"
             transform="matrix(0.4417475,0,0,0.4417475,-21.883357,22.162069)"
             style="display:inline">
            <path
               id="path14-7-8-9-47"
               style="fill:#a4a42a;fill-opacity:1;stroke-width:5.37006"
               class="cls-2"
               d="m -393.27782,217.70077 a 85.921004,85.921004 0 1 0 -16.37634,-170.402578 85.921004,85.921004 0 0 1 7.41181,169.988428 86.243208,86.243208 0 0 0 8.96453,0.41415 z m -12.77061,-38.71275 a 46.988049,46.988049 0 0 0 5.92824,-0.58891 46.988049,46.988049 0 0 1 -41.66076,-45.77326 46.988049,46.988049 0 0 1 42.47865,-46.881497 46.988049,46.988049 0 0 0 -54.55939,47.095587 46.988049,46.988049 0 0 0 47.81326,46.14808 z" />
            <path
               id="path14-8-4-0-4-7-6"
               style="display:inline;fill:#cccc00;fill-opacity:1;stroke-width:5.37006"
               class="cls-2"
               d="m -405.35857,217.91486 a 85.921004,85.921004 0 1 0 -87.42996,-84.38506 86.243208,86.243208 0 0 0 87.42996,84.38506 z m -0.68986,-38.92684 a 46.988049,46.988049 0 0 1 -47.81326,-46.14808 46.988049,46.988049 0 1 1 47.81326,46.14808 z" />
          </g>
        </g>
      </g>
      <g
         id="g5395-9-2-2-9"
         style="display:inline"
         transform="translate(9.151695,22.382686)">
        <g
           id="g2523-0-1-8-7-9"
           transform="matrix(4.2577182,0,0,4.2577182,200.10696,-35.748312)"
           style="display:inline">
          <g
             id="g3373-7-90-9-7-99"
             transform="matrix(-0.20953371,-0.00371336,0.00371336,-0.20953371,-91.221922,31.90476)">
            <g
               id="g2459-5-6-4-0-3-04"
               transform="matrix(0.4417475,0,0,0.4417475,-21.883357,22.162069)"
               style="display:inline">
              <path
                 id="path14-73-8-8-59"
                 style="fill:#a4a42a;fill-opacity:1;stroke-width:5.37006"
                 class="cls-2"
                 d="m -393.27782,217.70077 a 85.921004,85.921004 0 1 0 -16.37634,-170.402578 85.921004,85.921004 0 0 1 7.41181,169.988428 86.243208,86.243208 0 0 0 8.96453,0.41415 z m -12.77061,-38.71275 a 46.988049,46.988049 0 0 0 5.92824,-0.58891 46.988049,46.988049 0 0 1 -41.66076,-45.77326 46.988049,46.988049 0 0 1 42.47865,-46.881497 46.988049,46.988049 0 0 0 -54.55939,47.095587 46.988049,46.988049 0 0 0 47.81326,46.14808 z" />
              <path
                 id="path14-8-4-1-9-2-58"
                 style="display:inline;fill:#cccc00;fill-opacity:1;stroke-width:5.37006"
                 class="cls-2"
                 d="m -405.35857,217.91486 a 85.921004,85.921004 0 1 0 -87.42996,-84.38506 86.243208,86.243208 0 0 0 87.42996,84.38506 z m -0.68986,-38.92684 a 46.988049,46.988049 0 0 1 -47.81326,-46.14808 46.988049,46.988049 0 1 1 47.81326,46.14808 z" />
            </g>
          </g>
        </g>
      </g>
    </g>
    <g
       id="g5519-5-9-45-5"
       transform="matrix(0.26878562,0,0,0.26878562,120.49886,53.948536)"
       style="display:inline">
      <g
         id="g5395-44-6-99-4"
         transform="translate(-85.460416,22.382686)">
        <g
           id="g2523-0-9-1-6-8"
           transform="matrix(4.2577182,0,0,4.2577182,200.10696,-35.748312)"
           style="display:inline">
          <g
             id="g3373-7-6-1-5-3"
             transform="matrix(-0.20953371,-0.00371336,0.00371336,-0.20953371,-91.221922,31.90476)">
            <g
               id="g2459-5-6-2-3-7-9"
               transform="matrix(0.4417475,0,0,0.4417475,-21.883357,22.162069)"
               style="display:inline">
              <path
                 id="path14-1-6-37-4"
                 style="fill:#a4a42a;fill-opacity:1;stroke-width:5.37006"
                 class="cls-2"
                 d="m -393.27782,217.70077 a 85.921004,85.921004 0 1 0 -16.37634,-170.402578 85.921004,85.921004 0 0 1 7.41181,169.988428 86.243208,86.243208 0 0 0 8.96453,0.41415 z m -12.77061,-38.71275 a 46.988049,46.988049 0 0 0 5.92824,-0.58891 46.988049,46.988049 0 0 1 -41.66076,-45.77326 46.988049,46.988049 0 0 1 42.47865,-46.881497 46.988049,46.988049 0 0 0 -54.55939,47.095587 46.988049,46.988049 0 0 0 47.81326,46.14808 z" />
              <path
                 id="path14-8-4-16-9-3-8"
                 style="display:inline;fill:#cccc00;fill-opacity:1;stroke-width:5.37006"
                 class="cls-2"
                 d="m -405.35857,217.91486 a 85.921004,85.921004 0 1 0 -87.42996,-84.38506 86.243208,86.243208 0 0 0 87.42996,84.38506 z m -0.68986,-38.92684 a 46.988049,46.988049 0 0 1 -47.81326,-46.14808 46.988049,46.988049 0 1 1 47.81326,46.14808 z" />
            </g>
          </g>
        </g>
      </g>
      <g
         id="g2523-0-6-3-1-24-9"
         transform="matrix(4.2577182,0,0,4.2577182,161.75656,-46.486242)"
         style="display:inline">
        <g
           id="g3373-7-9-9-5-59-9"
           transform="matrix(-0.20953371,-0.00371336,0.00371336,-0.20953371,-91.221922,31.90476)">
          <g
             id="g2459-5-6-1-4-5-65-7"
             transform="matrix(0.4417475,0,0,0.4417475,-21.883357,22.162069)"
             style="display:inline">
            <path
               id="path14-7-8-9-76-8"
               style="fill:#a4a42a;fill-opacity:1;stroke-width:5.37006"
               class="cls-2"
               d="m -393.27782,217.70077 a 85.921004,85.921004 0 1 0 -16.37634,-170.402578 85.921004,85.921004 0 0 1 7.41181,169.988428 86.243208,86.243208 0 0 0 8.96453,0.41415 z m -12.77061,-38.71275 a 46.988049,46.988049 0 0 0 5.92824,-0.58891 46.988049,46.988049 0 0 1 -41.66076,-45.77326 46.988049,46.988049 0 0 1 42.47865,-46.881497 46.988049,46.988049 0 0 0 -54.55939,47.095587 46.988049,46.988049 0 0 0 47.81326,46.14808 z" />
            <path
               id="path14-8-4-0-4-7-5-1"
               style="display:inline;fill:#cccc00;fill-opacity:1;stroke-width:5.37006"
               class="cls-2"
               d="m -405.35857,217.91486 a 85.921004,85.921004 0 1 0 -87.42996,-84.38506 86.243208,86.243208 0 0 0 87.42996,84.38506 z m -0.68986,-38.92684 a 46.988049,46.988049 0 0 1 -47.81326,-46.14808 46.988049,46.988049 0 1 1 47.81326,46.14808 z" />
          </g>
        </g>
      </g>
      <g
         id="g5395-9-2-2-39-3"
         style="display:inline"
         transform="translate(9.151695,22.382686)">
        <g
           id="g2523-0-1-8-7-05-5"
           transform="matrix(4.2577182,0,0,4.2577182,200.10696,-35.748312)"
           style="display:inline">
          <g
             id="g3373-7-90-9-7-5-0"
             transform="matrix(-0.20953371,-0.00371336,0.00371336,-0.20953371,-91.221922,31.90476)">
            <g
               id="g2459-5-6-4-0-3-5-0"
               transform="matrix(0.4417475,0,0,0.4417475,-21.883357,22.162069)"
               style="display:inline">
              <path
                 id="path14-73-8-8-40-9"
                 style="fill:#a4a42a;fill-opacity:1;stroke-width:5.37006"
                 class="cls-2"
                 d="m -393.27782,217.70077 a 85.921004,85.921004 0 1 0 -16.37634,-170.402578 85.921004,85.921004 0 0 1 7.41181,169.988428 86.243208,86.243208 0 0 0 8.96453,0.41415 z m -12.77061,-38.71275 a 46.988049,46.988049 0 0 0 5.92824,-0.58891 46.988049,46.988049 0 0 1 -41.66076,-45.77326 46.988049,46.988049 0 0 1 42.47865,-46.881497 46.988049,46.988049 0 0 0 -54.55939,47.095587 46.988049,46.988049 0 0 0 47.81326,46.14808 z" />
              <path
                 id="path14-8-4-1-9-2-580-3"
                 style="display:inline;fill:#cccc00;fill-opacity:1;stroke-width:5.37006"
                 class="cls-2"
                 d="m -405.35857,217.91486 a 85.921004,85.921004 0 1 0 -87.42996,-84.38506 86.243208,86.243208 0 0 0 87.42996,84.38506 z m -0.68986,-38.92684 a 46.988049,46.988049 0 0 1 -47.81326,-46.14808 46.988049,46.988049 0 1 1 47.81326,46.14808 z" />
            </g>
          </g>
        </g>
      </g>
    </g>
    <g
       id="g5519-5-9-45-6"
       transform="matrix(0.26878562,0,0,0.26878562,113.79698,81.45835)"
       style="display:inline">
      <g
         id="g5395-44-6-99-0"
         transform="translate(-85.460416,22.382686)">
        <g
           id="g2523-0-9-1-6-83"
           transform="matrix(4.2577182,0,0,4.2577182,200.10696,-35.748312)"
           style="display:inline">
          <g
             id="g3373-7-6-1-5-33"
             transform="matrix(-0.20953371,-0.00371336,0.00371336,-0.20953371,-91.221922,31.90476)">
            <g
               id="g2459-5-6-2-3-7-7"
               transform="matrix(0.4417475,0,0,0.4417475,-21.883357,22.162069)"
               style="display:inline">
              <path
                 id="path14-1-6-37-1"
                 style="fill:#a4a42a;fill-opacity:1;stroke-width:5.37006"
                 class="cls-2"
                 d="m -393.27782,217.70077 a 85.921004,85.921004 0 1 0 -16.37634,-170.402578 85.921004,85.921004 0 0 1 7.41181,169.988428 86.243208,86.243208 0 0 0 8.96453,0.41415 z m -12.77061,-38.71275 a 46.988049,46.988049 0 0 0 5.92824,-0.58891 46.988049,46.988049 0 0 1 -41.66076,-45.77326 46.988049,46.988049 0 0 1 42.47865,-46.881497 46.988049,46.988049 0 0 0 -54.55939,47.095587 46.988049,46.988049 0 0 0 47.81326,46.14808 z" />
              <path
                 id="path14-8-4-16-9-3-1"
                 style="display:inline;fill:#cccc00;fill-opacity:1;stroke-width:5.37006"
                 class="cls-2"
                 d="m -405.35857,217.91486 a 85.921004,85.921004 0 1 0 -87.42996,-84.38506 86.243208,86.243208 0 0 0 87.42996,84.38506 z m -0.68986,-38.92684 a 46.988049,46.988049 0 0 1 -47.81326,-46.14808 46.988049,46.988049 0 1 1 47.81326,46.14808 z" />
            </g>
          </g>
        </g>
      </g>
      <g
         id="g2523-0-6-3-1-24-0"
         transform="matrix(4.2577182,0,0,4.2577182,161.75656,-46.486242)"
         style="display:inline">
        <g
           id="g3373-7-9-9-5-59-5"
           transform="matrix(-0.20953371,-0.00371336,0.00371336,-0.20953371,-91.221922,31.90476)">
          <g
             id="g2459-5-6-1-4-5-65-6"
             transform="matrix(0.4417475,0,0,0.4417475,-21.883357,22.162069)"
             style="display:inline">
            <path
               id="path14-7-8-9-76-6"
               style="fill:#a4a42a;fill-opacity:1;stroke-width:5.37006"
               class="cls-2"
               d="m -393.27782,217.70077 a 85.921004,85.921004 0 1 0 -16.37634,-170.402578 85.921004,85.921004 0 0 1 7.41181,169.988428 86.243208,86.243208 0 0 0 8.96453,0.41415 z m -12.77061,-38.71275 a 46.988049,46.988049 0 0 0 5.92824,-0.58891 46.988049,46.988049 0 0 1 -41.66076,-45.77326 46.988049,46.988049 0 0 1 42.47865,-46.881497 46.988049,46.988049 0 0 0 -54.55939,47.095587 46.988049,46.988049 0 0 0 47.81326,46.14808 z" />
            <path
               id="path14-8-4-0-4-7-5-3"
               style="display:inline;fill:#cccc00;fill-opacity:1;stroke-width:5.37006"
               class="cls-2"
               d="m -405.35857,217.91486 a 85.921004,85.921004 0 1 0 -87.42996,-84.38506 86.243208,86.243208 0 0 0 87.42996,84.38506 z m -0.68986,-38.92684 a 46.988049,46.988049 0 0 1 -47.81326,-46.14808 46.988049,46.988049 0 1 1 47.81326,46.14808 z" />
          </g>
        </g>
      </g>
      <g
         id="g5395-9-2-2-39-0"
         style="display:inline"
         transform="translate(9.151695,22.382686)">
        <g
           id="g2523-0-1-8-7-05-51"
           transform="matrix(4.2577182,0,0,4.2577182,200.10696,-35.748312)"
           style="display:inline">
          <g
             id="g3373-7-90-9-7-5-5"
             transform="matrix(-0.20953371,-0.00371336,0.00371336,-0.20953371,-91.221922,31.90476)">
            <g
               id="g2459-5-6-4-0-3-5-7"
               transform="matrix(0.4417475,0,0,0.4417475,-21.883357,22.162069)"
               style="display:inline">
              <path
                 id="path14-73-8-8-40-2"
                 style="fill:#a4a42a;fill-opacity:1;stroke-width:5.37006"
                 class="cls-2"
                 d="m -393.27782,217.70077 a 85.921004,85.921004 0 1 0 -16.37634,-170.402578 85.921004,85.921004 0 0 1 7.41181,169.988428 86.243208,86.243208 0 0 0 8.96453,0.41415 z m -12.77061,-38.71275 a 46.988049,46.988049 0 0 0 5.92824,-0.58891 46.988049,46.988049 0 0 1 -41.66076,-45.77326 46.988049,46.988049 0 0 1 42.47865,-46.881497 46.988049,46.988049 0 0 0 -54.55939,47.095587 46.988049,46.988049 0 0 0 47.81326,46.14808 z" />
              <path
                 id="path14-8-4-1-9-2-580-8"
                 style="display:inline;fill:#cccc00;fill-opacity:1;stroke-width:5.37006"
                 class="cls-2"
                 d="m -405.35857,217.91486 a 85.921004,85.921004 0 1 0 -87.42996,-84.38506 86.243208,86.243208 0 0 0 87.42996,84.38506 z m -0.68986,-38.92684 a 46.988049,46.988049 0 0 1 -47.81326,-46.14808 46.988049,46.988049 0 1 1 47.81326,46.14808 z" />
            </g>
          </g>
        </g>
      </g>
    </g>
    <g
       id="g5519-5-9-45-6-2"
       transform="matrix(0.23892055,0,0,0.23892055,111.10978,109.49158)"
       style="display:inline">
      <g
         id="g5395-44-6-99-0-0"
         transform="translate(-85.460416,22.382686)">
        <g
           id="g2523-0-9-1-6-83-4"
           transform="matrix(4.2577182,0,0,4.2577182,200.10696,-35.748312)"
           style="display:inline">
          <g
             id="g3373-7-6-1-5-33-2"
             transform="matrix(-0.20953371,-0.00371336,0.00371336,-0.20953371,-91.221922,31.90476)">
            <g
               id="g2459-5-6-2-3-7-7-1"
               transform="matrix(0.4417475,0,0,0.4417475,-21.883357,22.162069)"
               style="display:inline">
              <path
                 id="path14-1-6-37-1-6"
                 style="fill:#a4a42a;fill-opacity:1;stroke-width:5.37006"
                 class="cls-2"
                 d="m -393.27782,217.70077 a 85.921004,85.921004 0 1 0 -16.37634,-170.402578 85.921004,85.921004 0 0 1 7.41181,169.988428 86.243208,86.243208 0 0 0 8.96453,0.41415 z m -12.77061,-38.71275 a 46.988049,46.988049 0 0 0 5.92824,-0.58891 46.988049,46.988049 0 0 1 -41.66076,-45.77326 46.988049,46.988049 0 0 1 42.47865,-46.881497 46.988049,46.988049 0 0 0 -54.55939,47.095587 46.988049,46.988049 0 0 0 47.81326,46.14808 z" />
              <path
                 id="path14-8-4-16-9-3-1-0"
                 style="display:inline;fill:#cccc00;fill-opacity:1;stroke-width:5.37006"
                 class="cls-2"
                 d="m -405.35857,217.91486 a 85.921004,85.921004 0 1 0 -87.42996,-84.38506 86.243208,86.243208 0 0 0 87.42996,84.38506 z m -0.68986,-38.92684 a 46.988049,46.988049 0 0 1 -47.81326,-46.14808 46.988049,46.988049 0 1 1 47.81326,46.14808 z" />
            </g>
          </g>
        </g>
      </g>
      <g
         id="g2523-0-6-3-1-24-0-9"
         transform="matrix(4.2577182,0,0,4.2577182,161.75656,-46.486242)"
         style="display:inline">
        <g
           id="g3373-7-9-9-5-59-5-9"
           transform="matrix(-0.20953371,-0.00371336,0.00371336,-0.20953371,-91.221922,31.90476)">
          <g
             id="g2459-5-6-1-4-5-65-6-9"
             transform="matrix(0.4417475,0,0,0.4417475,-21.883357,22.162069)"
             style="display:inline">
            <path
               id="path14-7-8-9-76-6-1"
               style="fill:#a4a42a;fill-opacity:1;stroke-width:5.37006"
               class="cls-2"
               d="m -393.27782,217.70077 a 85.921004,85.921004 0 1 0 -16.37634,-170.402578 85.921004,85.921004 0 0 1 7.41181,169.988428 86.243208,86.243208 0 0 0 8.96453,0.41415 z m -12.77061,-38.71275 a 46.988049,46.988049 0 0 0 5.92824,-0.58891 46.988049,46.988049 0 0 1 -41.66076,-45.77326 46.988049,46.988049 0 0 1 42.47865,-46.881497 46.988049,46.988049 0 0 0 -54.55939,47.095587 46.988049,46.988049 0 0 0 47.81326,46.14808 z" />
            <path
               id="path14-8-4-0-4-7-5-3-6"
               style="display:inline;fill:#cccc00;fill-opacity:1;stroke-width:5.37006"
               class="cls-2"
               d="m -405.35857,217.91486 a 85.921004,85.921004 0 1 0 -87.42996,-84.38506 86.243208,86.243208 0 0 0 87.42996,84.38506 z m -0.68986,-38.92684 a 46.988049,46.988049 0 0 1 -47.81326,-46.14808 46.988049,46.988049 0 1 1 47.81326,46.14808 z" />
          </g>
        </g>
      </g>
      <g
         id="g5395-9-2-2-39-0-7"
         style="display:inline"
         transform="translate(9.151695,22.382686)">
        <g
           id="g2523-0-1-8-7-05-51-8"
           transform="matrix(4.2577182,0,0,4.2577182,200.10696,-35.748312)"
           style="display:inline">
          <g
             id="g3373-7-90-9-7-5-5-8"
             transform="matrix(-0.20953371,-0.00371336,0.00371336,-0.20953371,-91.221922,31.90476)">
            <g
               id="g2459-5-6-4-0-3-5-7-4"
               transform="matrix(0.4417475,0,0,0.4417475,-21.883357,22.162069)"
               style="display:inline">
              <path
                 id="path14-73-8-8-40-2-1"
                 style="fill:#a4a42a;fill-opacity:1;stroke-width:5.37006"
                 class="cls-2"
                 d="m -393.27782,217.70077 a 85.921004,85.921004 0 1 0 -16.37634,-170.402578 85.921004,85.921004 0 0 1 7.41181,169.988428 86.243208,86.243208 0 0 0 8.96453,0.41415 z m -12.77061,-38.71275 a 46.988049,46.988049 0 0 0 5.92824,-0.58891 46.988049,46.988049 0 0 1 -41.66076,-45.77326 46.988049,46.988049 0 0 1 42.47865,-46.881497 46.988049,46.988049 0 0 0 -54.55939,47.095587 46.988049,46.988049 0 0 0 47.81326,46.14808 z" />
              <path
                 id="path14-8-4-1-9-2-580-8-1"
                 style="display:inline;fill:#cccc00;fill-opacity:1;stroke-width:5.37006"
                 class="cls-2"
                 d="m -405.35857,217.91486 a 85.921004,85.921004 0 1 0 -87.42996,-84.38506 86.243208,86.243208 0 0 0 87.42996,84.38506 z m -0.68986,-38.92684 a 46.988049,46.988049 0 0 1 -47.81326,-46.14808 46.988049,46.988049 0 1 1 47.81326,46.14808 z" />
            </g>
          </g>
        </g>
      </g>
    </g>
  </g>
</svg>
