<?xml version="1.0" encoding="UTF-8" standalone="no"?>
<!-- Created with Inkscape (http://www.inkscape.org/) -->

<svg
   width="500"
   height="500"
   viewBox="0 0 132.29166 132.29167"
   version="1.1"
   id="svg2515"
   inkscape:version="1.1.2 (b8e25be833, 2022-02-05)"
   sodipodi:docname="bonsai03s02normal.svg"
   inkscape:export-filename="C:\Users\Lenovo\Desktop\Coding\Media files\Bonsais\bonsai03.png"
   inkscape:export-xdpi="96"
   inkscape:export-ydpi="96"
   xmlns:inkscape="http://www.inkscape.org/namespaces/inkscape"
   xmlns:sodipodi="http://sodipodi.sourceforge.net/DTD/sodipodi-0.dtd"
   xmlns="http://www.w3.org/2000/svg"
   xmlns:svg="http://www.w3.org/2000/svg">
  <sodipodi:namedview
     id="namedview2517"
     pagecolor="#ffffff"
     bordercolor="#666666"
     borderopacity="1.0"
     inkscape:pageshadow="2"
     inkscape:pageopacity="0.0"
     inkscape:pagecheckerboard="0"
     inkscape:document-units="mm"
     showgrid="false"
     units="px"
     inkscape:zoom="1.4142136"
     inkscape:cx="200.46477"
     inkscape:cy="236.52721"
     inkscape:window-width="1920"
     inkscape:window-height="1001"
     inkscape:window-x="-9"
     inkscape:window-y="-9"
     inkscape:window-maximized="1"
     inkscape:current-layer="g17385" />
  <defs
     id="defs2512">
    <marker
       style="overflow:visible"
       id="Arrow1Sstart"
       refX="0.0"
       refY="0.0"
       orient="auto"
       inkscape:stockid="Arrow1Sstart"
       inkscape:isstock="true">
      <path
         transform="scale(0.2) translate(6,0)"
         style="fill-rule:evenodd;fill:context-stroke;stroke:context-stroke;stroke-width:1.0pt"
         d="M 0.0,0.0 L 5.0,-5.0 L -12.5,0.0 L 5.0,5.0 L 0.0,0.0 z "
         id="path24092" />
    </marker>
    <marker
       style="overflow:visible"
       id="Arrow1Mstart"
       refX="0.0"
       refY="0.0"
       orient="auto"
       inkscape:stockid="Arrow1Mstart"
       inkscape:isstock="true">
      <path
         transform="scale(0.4) translate(10,0)"
         style="fill-rule:evenodd;fill:context-stroke;stroke:context-stroke;stroke-width:1.0pt"
         d="M 0.0,0.0 L 5.0,-5.0 L -12.5,0.0 L 5.0,5.0 L 0.0,0.0 z "
         id="path24086" />
    </marker>
    <marker
       style="overflow:visible"
       id="Arrow1Lstart"
       refX="0.0"
       refY="0.0"
       orient="auto"
       inkscape:stockid="Arrow1Lstart"
       inkscape:isstock="true">
      <path
         transform="scale(0.8) translate(12.5,0)"
         style="fill-rule:evenodd;fill:context-stroke;stroke:context-stroke;stroke-width:1.0pt"
         d="M 0.0,0.0 L 5.0,-5.0 L -12.5,0.0 L 5.0,5.0 L 0.0,0.0 z "
         id="path24080" />
    </marker>
    <marker
       style="overflow:visible;"
       id="Arrow1Lend"
       refX="0.0"
       refY="0.0"
       orient="auto"
       inkscape:stockid="Arrow1Lend"
       inkscape:isstock="true">
      <path
         transform="scale(0.8) rotate(180) translate(12.5,0)"
         style="fill-rule:evenodd;fill:context-stroke;stroke:context-stroke;stroke-width:1.0pt;"
         d="M 0.0,0.0 L 5.0,-5.0 L -12.5,0.0 L 5.0,5.0 L 0.0,0.0 z "
         id="path24083" />
    </marker>
  </defs>
  <g
     inkscape:label="Informal Upright Style"
     inkscape:groupmode="layer"
     id="g17385"
     style="display:inline">
    <g
       id="g17299"
       transform="translate(157.36058,-8.4372489)"
       style="display:inline">
      <g
         id="g17297"
         transform="translate(-99.28418,15.207661)">
        <path
           style="display:inline;fill:#c18b56;fill-opacity:1;stroke:#c18b56;stroke-width:1;stroke-linecap:round;stroke-linejoin:round;stroke-miterlimit:4;stroke-dasharray:none;stroke-opacity:1"
           d="m 1.3438111,105.02403 c 0,0 1.67276,-4.3889 -5.29634,-12.902323 -5.77031,-7.049 -13.8088901,-10.89145 -10.0810001,-22.220767 2.98845,-9.082106 31.71641,-16.843433 36.92376,-22.50005 9.82115,-10.668487 4.67956,-12.619651 -1.58353,-22.120096 C 16.120271,17.413522 8.0705011,20.957555 7.7574611,9.5870616 14.803541,20.119696 25.572371,18.866153 27.251611,28.55162 c 3.25423,4.596313 8.98302,11.718683 5.98525,14.797826 -2.2954,2.357716 -9.08519,15.422411 -20.03503,17.643247 -9.5903099,1.945097 -16.1629199,12.6144 -16.1629199,12.6144 -0.83876,8.885304 16.1910099,9.784984 21.9744099,18.254694 5.64474,8.266633 8.35928,5.77528 10.95842,12.103913 1.20531,2.9348 -28.6279299,1.05833 -28.6279299,1.05833 z"
           id="path17293"
           sodipodi:nodetypes="cssssccsssssc" />
        <path
           id="path17295"
           style="display:inline;fill:#9b6b45;fill-opacity:1;stroke:#9b6b45;stroke-width:3.77953;stroke-linecap:round;stroke-linejoin:round;stroke-miterlimit:4;stroke-dasharray:none;stroke-opacity:1"
           d="m 616.93555,1.8886719 c 0.55432,20.1347921 7.52722,27.8974661 16.79883,33.5175781 -5.45695,-5.012127 -9.35289,-12.21383 -10.31641,-24.990234 -2.22889,-2.6069221 -4.40217,-5.4177306 -6.48242,-8.5273441 z m 41.48828,48.2539061 c 3.39981,2.902953 6.69017,6.465507 9.7207,11.0625 23.67153,35.907194 43.10565,43.281672 5.98633,83.603512 -19.68132,21.37934 -128.25976,50.713 -139.55469,85.03907 -14.08966,42.81948 16.29251,57.34248 38.10156,83.98437 26.33989,32.17671 20.01758,48.76367 20.01758,48.76367 0,0 2.85378,0.16826 6.91797,0.39063 0.26375,-6.79288 -1.99109,-21.72151 -20.65039,-44.51563 -21.80905,-26.64189 -52.19123,-41.16294 -38.10156,-83.98242 11.29493,-34.32607 119.87336,-63.66167 139.55469,-85.04101 37.11932,-40.32185 17.68519,-47.69633 -5.98633,-83.60352 -4.87199,-7.390285 -10.41195,-12.111719 -16.00586,-15.701172 z"
           transform="matrix(0.26458333,0,0,0.26458333,-155.47346,9.0871833)"
           sodipodi:nodetypes="cccccssssccssssc" />
      </g>
    </g>
    <g
       id="g17371"
       transform="matrix(1.2264536,0,0,1.2264536,-62.412417,-22.232175)" />
    <g
       id="g3660"
       transform="translate(-0.46937133,-58.24854)"
       style="display:inline">
      <path
         d="m 106.81169,177.83187 -5.12623,-8.15143 -0.0333,0.004 H 33.425814 l -0.03328,-0.004 -5.126235,8.15143 c -3.062426,4.63498 4.909868,9.54 15.4536,9.46531 h 47.638199 c 10.543742,0.0747 18.516032,-4.83225 15.453612,-9.46531"
         style="display:inline;fill:#dac095;fill-opacity:1;fill-rule:nonzero;stroke:#dac095;stroke-width:0.800219;stroke-linecap:round;stroke-linejoin:round;stroke-miterlimit:4;stroke-dasharray:none;stroke-opacity:1"
         id="path566-1-1-4-9-8-0-1-2-8" />
      <path
         d="M 98.702091,164.9899 H 36.301002 l -2.945921,4.69052 0.03328,0.004 h 68.226349 l 0.0333,-0.004 -2.945914,-4.69052"
         style="display:inline;fill:#e3d1ae;fill-opacity:1;fill-rule:nonzero;stroke:#e3d1ae;stroke-width:0.800219;stroke-linecap:round;stroke-linejoin:round;stroke-miterlimit:4;stroke-dasharray:none;stroke-opacity:1"
         id="path568-6-3-1-0-7-7-0-8-40" />
      <path
         d="m 34.091559,177.83187 5.122074,-8.1476 h -5.787819 l -0.03328,-0.004 -5.126235,8.15143 c -3.062426,4.63498 4.909868,9.54001 15.4536,9.46531 h 5.825267 c -10.539574,0.0747 -18.516029,-4.83031 -15.453602,-9.46528 v 0"
         style="display:inline;fill:#ad9a6b;fill-opacity:1;fill-rule:nonzero;stroke:#ad9a6b;stroke-width:0.800219;stroke-linecap:round;stroke-linejoin:round;stroke-miterlimit:4;stroke-dasharray:none;stroke-opacity:1"
         id="path580-2-7-5-6-4-43-5-7-00" />
      <path
         d="m 42.130429,164.9899 h -5.829427 l -2.945921,4.69052 0.03328,0.004 h 5.825267 l -0.03328,-0.004 2.950081,-4.69052"
         style="display:inline;fill:#ceb27d;fill-opacity:1;fill-rule:nonzero;stroke:#ceb27d;stroke-width:0.800219;stroke-linecap:round;stroke-linejoin:round;stroke-miterlimit:4;stroke-dasharray:none;stroke-opacity:1"
         id="path582-2-9-1-5-2-4-2-4-2" />
    </g>
    <g
       id="g5519-5-9-6"
       transform="matrix(0.31656974,0,0,0.31656974,113.09856,55.274211)"
       style="display:inline">
      <g
         id="g5395-44-6-7"
         transform="translate(-85.460416,22.382686)">
        <g
           id="g2523-0-9-1-4"
           transform="matrix(4.2577182,0,0,4.2577182,200.10696,-35.748312)"
           style="display:inline">
          <g
             id="g3373-7-6-1-0"
             transform="matrix(-0.20953371,-0.00371336,0.00371336,-0.20953371,-91.221922,31.90476)">
            <g
               id="g2459-5-6-2-3-5"
               transform="matrix(0.4417475,0,0,0.4417475,-21.883357,22.162069)"
               style="display:inline">
              <path
                 id="path14-1-6-3"
                 style="fill:#a4a42a;fill-opacity:1;stroke-width:5.37006"
                 class="cls-2"
                 d="m -393.27782,217.70077 a 85.921004,85.921004 0 1 0 -16.37634,-170.402578 85.921004,85.921004 0 0 1 7.41181,169.988428 86.243208,86.243208 0 0 0 8.96453,0.41415 z m -12.77061,-38.71275 a 46.988049,46.988049 0 0 0 5.92824,-0.58891 46.988049,46.988049 0 0 1 -41.66076,-45.77326 46.988049,46.988049 0 0 1 42.47865,-46.881497 46.988049,46.988049 0 0 0 -54.55939,47.095587 46.988049,46.988049 0 0 0 47.81326,46.14808 z" />
              <path
                 id="path14-8-4-16-9-5"
                 style="display:inline;fill:#cccc00;fill-opacity:1;stroke-width:5.37006"
                 class="cls-2"
                 d="m -405.35857,217.91486 a 85.921004,85.921004 0 1 0 -87.42996,-84.38506 86.243208,86.243208 0 0 0 87.42996,84.38506 z m -0.68986,-38.92684 a 46.988049,46.988049 0 0 1 -47.81326,-46.14808 46.988049,46.988049 0 1 1 47.81326,46.14808 z" />
            </g>
          </g>
        </g>
      </g>
      <g
         id="g2523-0-6-3-1-2"
         transform="matrix(4.2577182,0,0,4.2577182,161.75656,-46.486242)"
         style="display:inline">
        <g
           id="g3373-7-9-9-5-4"
           transform="matrix(-0.20953371,-0.00371336,0.00371336,-0.20953371,-91.221922,31.90476)">
          <g
             id="g2459-5-6-1-4-5-4"
             transform="matrix(0.4417475,0,0,0.4417475,-21.883357,22.162069)"
             style="display:inline">
            <path
               id="path14-7-8-9-37"
               style="fill:#a4a42a;fill-opacity:1;stroke-width:5.37006"
               class="cls-2"
               d="m -393.27782,217.70077 a 85.921004,85.921004 0 1 0 -16.37634,-170.402578 85.921004,85.921004 0 0 1 7.41181,169.988428 86.243208,86.243208 0 0 0 8.96453,0.41415 z m -12.77061,-38.71275 a 46.988049,46.988049 0 0 0 5.92824,-0.58891 46.988049,46.988049 0 0 1 -41.66076,-45.77326 46.988049,46.988049 0 0 1 42.47865,-46.881497 46.988049,46.988049 0 0 0 -54.55939,47.095587 46.988049,46.988049 0 0 0 47.81326,46.14808 z" />
            <path
               id="path14-8-4-0-4-7-8"
               style="display:inline;fill:#cccc00;fill-opacity:1;stroke-width:5.37006"
               class="cls-2"
               d="m -405.35857,217.91486 a 85.921004,85.921004 0 1 0 -87.42996,-84.38506 86.243208,86.243208 0 0 0 87.42996,84.38506 z m -0.68986,-38.92684 a 46.988049,46.988049 0 0 1 -47.81326,-46.14808 46.988049,46.988049 0 1 1 47.81326,46.14808 z" />
          </g>
        </g>
      </g>
      <g
         id="g5395-9-2-2-3"
         style="display:inline"
         transform="translate(9.151695,22.382686)">
        <g
           id="g2523-0-1-8-7-2"
           transform="matrix(4.2577182,0,0,4.2577182,200.10696,-35.748312)"
           style="display:inline">
          <g
             id="g3373-7-90-9-7-6"
             transform="matrix(-0.20953371,-0.00371336,0.00371336,-0.20953371,-91.221922,31.90476)">
            <g
               id="g2459-5-6-4-0-3-2"
               transform="matrix(0.4417475,0,0,0.4417475,-21.883357,22.162069)"
               style="display:inline">
              <path
                 id="path14-73-8-8-6"
                 style="fill:#a4a42a;fill-opacity:1;stroke-width:5.37006"
                 class="cls-2"
                 d="m -393.27782,217.70077 a 85.921004,85.921004 0 1 0 -16.37634,-170.402578 85.921004,85.921004 0 0 1 7.41181,169.988428 86.243208,86.243208 0 0 0 8.96453,0.41415 z m -12.77061,-38.71275 a 46.988049,46.988049 0 0 0 5.92824,-0.58891 46.988049,46.988049 0 0 1 -41.66076,-45.77326 46.988049,46.988049 0 0 1 42.47865,-46.881497 46.988049,46.988049 0 0 0 -54.55939,47.095587 46.988049,46.988049 0 0 0 47.81326,46.14808 z" />
              <path
                 id="path14-8-4-1-9-2-7"
                 style="display:inline;fill:#cccc00;fill-opacity:1;stroke-width:5.37006"
                 class="cls-2"
                 d="m -405.35857,217.91486 a 85.921004,85.921004 0 1 0 -87.42996,-84.38506 86.243208,86.243208 0 0 0 87.42996,84.38506 z m -0.68986,-38.92684 a 46.988049,46.988049 0 0 1 -47.81326,-46.14808 46.988049,46.988049 0 1 1 47.81326,46.14808 z" />
            </g>
          </g>
        </g>
      </g>
    </g>
    <g
       id="g5519-5-9-61"
       transform="matrix(0.31656974,0,0,0.31656974,49.420644,66.666743)"
       style="display:inline">
      <g
         id="g5395-44-6-5"
         transform="translate(-85.460416,22.382686)">
        <g
           id="g2523-0-9-1-0"
           transform="matrix(4.2577182,0,0,4.2577182,200.10696,-35.748312)"
           style="display:inline">
          <g
             id="g3373-7-6-1-1"
             transform="matrix(-0.20953371,-0.00371336,0.00371336,-0.20953371,-91.221922,31.90476)">
            <g
               id="g2459-5-6-2-3-9"
               transform="matrix(0.4417475,0,0,0.4417475,-21.883357,22.162069)"
               style="display:inline">
              <path
                 id="path14-1-6-4"
                 style="fill:#a4a42a;fill-opacity:1;stroke-width:5.37006"
                 class="cls-2"
                 d="m -393.27782,217.70077 a 85.921004,85.921004 0 1 0 -16.37634,-170.402578 85.921004,85.921004 0 0 1 7.41181,169.988428 86.243208,86.243208 0 0 0 8.96453,0.41415 z m -12.77061,-38.71275 a 46.988049,46.988049 0 0 0 5.92824,-0.58891 46.988049,46.988049 0 0 1 -41.66076,-45.77326 46.988049,46.988049 0 0 1 42.47865,-46.881497 46.988049,46.988049 0 0 0 -54.55939,47.095587 46.988049,46.988049 0 0 0 47.81326,46.14808 z" />
              <path
                 id="path14-8-4-16-9-2"
                 style="display:inline;fill:#cccc00;fill-opacity:1;stroke-width:5.37006"
                 class="cls-2"
                 d="m -405.35857,217.91486 a 85.921004,85.921004 0 1 0 -87.42996,-84.38506 86.243208,86.243208 0 0 0 87.42996,84.38506 z m -0.68986,-38.92684 a 46.988049,46.988049 0 0 1 -47.81326,-46.14808 46.988049,46.988049 0 1 1 47.81326,46.14808 z" />
            </g>
          </g>
        </g>
      </g>
      <g
         id="g2523-0-6-3-1-4"
         transform="matrix(4.2577182,0,0,4.2577182,161.75656,-46.486242)"
         style="display:inline">
        <g
           id="g3373-7-9-9-5-3"
           transform="matrix(-0.20953371,-0.00371336,0.00371336,-0.20953371,-91.221922,31.90476)">
          <g
             id="g2459-5-6-1-4-5-5"
             transform="matrix(0.4417475,0,0,0.4417475,-21.883357,22.162069)"
             style="display:inline">
            <path
               id="path14-7-8-9-7"
               style="fill:#a4a42a;fill-opacity:1;stroke-width:5.37006"
               class="cls-2"
               d="m -393.27782,217.70077 a 85.921004,85.921004 0 1 0 -16.37634,-170.402578 85.921004,85.921004 0 0 1 7.41181,169.988428 86.243208,86.243208 0 0 0 8.96453,0.41415 z m -12.77061,-38.71275 a 46.988049,46.988049 0 0 0 5.92824,-0.58891 46.988049,46.988049 0 0 1 -41.66076,-45.77326 46.988049,46.988049 0 0 1 42.47865,-46.881497 46.988049,46.988049 0 0 0 -54.55939,47.095587 46.988049,46.988049 0 0 0 47.81326,46.14808 z" />
            <path
               id="path14-8-4-0-4-7-0"
               style="display:inline;fill:#cccc00;fill-opacity:1;stroke-width:5.37006"
               class="cls-2"
               d="m -405.35857,217.91486 a 85.921004,85.921004 0 1 0 -87.42996,-84.38506 86.243208,86.243208 0 0 0 87.42996,84.38506 z m -0.68986,-38.92684 a 46.988049,46.988049 0 0 1 -47.81326,-46.14808 46.988049,46.988049 0 1 1 47.81326,46.14808 z" />
          </g>
        </g>
      </g>
      <g
         id="g5395-9-2-2-2"
         style="display:inline"
         transform="translate(9.151695,22.382686)">
        <g
           id="g2523-0-1-8-7-4"
           transform="matrix(4.2577182,0,0,4.2577182,200.10696,-35.748312)"
           style="display:inline">
          <g
             id="g3373-7-90-9-7-1"
             transform="matrix(-0.20953371,-0.00371336,0.00371336,-0.20953371,-91.221922,31.90476)">
            <g
               id="g2459-5-6-4-0-3-64"
               transform="matrix(0.4417475,0,0,0.4417475,-21.883357,22.162069)"
               style="display:inline">
              <path
                 id="path14-73-8-8-8"
                 style="fill:#a4a42a;fill-opacity:1;stroke-width:5.37006"
                 class="cls-2"
                 d="m -393.27782,217.70077 a 85.921004,85.921004 0 1 0 -16.37634,-170.402578 85.921004,85.921004 0 0 1 7.41181,169.988428 86.243208,86.243208 0 0 0 8.96453,0.41415 z m -12.77061,-38.71275 a 46.988049,46.988049 0 0 0 5.92824,-0.58891 46.988049,46.988049 0 0 1 -41.66076,-45.77326 46.988049,46.988049 0 0 1 42.47865,-46.881497 46.988049,46.988049 0 0 0 -54.55939,47.095587 46.988049,46.988049 0 0 0 47.81326,46.14808 z" />
              <path
                 id="path14-8-4-1-9-2-0"
                 style="display:inline;fill:#cccc00;fill-opacity:1;stroke-width:5.37006"
                 class="cls-2"
                 d="m -405.35857,217.91486 a 85.921004,85.921004 0 1 0 -87.42996,-84.38506 86.243208,86.243208 0 0 0 87.42996,84.38506 z m -0.68986,-38.92684 a 46.988049,46.988049 0 0 1 -47.81326,-46.14808 46.988049,46.988049 0 1 1 47.81326,46.14808 z" />
            </g>
          </g>
        </g>
      </g>
    </g>
    <g
       id="g5519-5-9-6-0"
       transform="matrix(0.26878562,0,0,0.26878562,70.672922,39.49039)"
       style="display:inline">
      <g
         id="g5395-44-6-7-5"
         transform="translate(-85.460416,22.382686)">
        <g
           id="g2523-0-9-1-4-3"
           transform="matrix(4.2577182,0,0,4.2577182,200.10696,-35.748312)"
           style="display:inline">
          <g
             id="g3373-7-6-1-0-2"
             transform="matrix(-0.20953371,-0.00371336,0.00371336,-0.20953371,-91.221922,31.90476)">
            <g
               id="g2459-5-6-2-3-5-7"
               transform="matrix(0.4417475,0,0,0.4417475,-21.883357,22.162069)"
               style="display:inline">
              <path
                 id="path14-1-6-3-2"
                 style="fill:#a4a42a;fill-opacity:1;stroke-width:5.37006"
                 class="cls-2"
                 d="m -393.27782,217.70077 a 85.921004,85.921004 0 1 0 -16.37634,-170.402578 85.921004,85.921004 0 0 1 7.41181,169.988428 86.243208,86.243208 0 0 0 8.96453,0.41415 z m -12.77061,-38.71275 a 46.988049,46.988049 0 0 0 5.92824,-0.58891 46.988049,46.988049 0 0 1 -41.66076,-45.77326 46.988049,46.988049 0 0 1 42.47865,-46.881497 46.988049,46.988049 0 0 0 -54.55939,47.095587 46.988049,46.988049 0 0 0 47.81326,46.14808 z" />
              <path
                 id="path14-8-4-16-9-5-5"
                 style="display:inline;fill:#cccc00;fill-opacity:1;stroke-width:5.37006"
                 class="cls-2"
                 d="m -405.35857,217.91486 a 85.921004,85.921004 0 1 0 -87.42996,-84.38506 86.243208,86.243208 0 0 0 87.42996,84.38506 z m -0.68986,-38.92684 a 46.988049,46.988049 0 0 1 -47.81326,-46.14808 46.988049,46.988049 0 1 1 47.81326,46.14808 z" />
            </g>
          </g>
        </g>
      </g>
      <g
         id="g2523-0-6-3-1-2-1"
         transform="matrix(4.2577182,0,0,4.2577182,161.75656,-46.486242)"
         style="display:inline">
        <g
           id="g3373-7-9-9-5-4-8"
           transform="matrix(-0.20953371,-0.00371336,0.00371336,-0.20953371,-91.221922,31.90476)">
          <g
             id="g2459-5-6-1-4-5-4-5"
             transform="matrix(0.4417475,0,0,0.4417475,-21.883357,22.162069)"
             style="display:inline">
            <path
               id="path14-7-8-9-37-3"
               style="fill:#a4a42a;fill-opacity:1;stroke-width:5.37006"
               class="cls-2"
               d="m -393.27782,217.70077 a 85.921004,85.921004 0 1 0 -16.37634,-170.402578 85.921004,85.921004 0 0 1 7.41181,169.988428 86.243208,86.243208 0 0 0 8.96453,0.41415 z m -12.77061,-38.71275 a 46.988049,46.988049 0 0 0 5.92824,-0.58891 46.988049,46.988049 0 0 1 -41.66076,-45.77326 46.988049,46.988049 0 0 1 42.47865,-46.881497 46.988049,46.988049 0 0 0 -54.55939,47.095587 46.988049,46.988049 0 0 0 47.81326,46.14808 z" />
            <path
               id="path14-8-4-0-4-7-8-4"
               style="display:inline;fill:#cccc00;fill-opacity:1;stroke-width:5.37006"
               class="cls-2"
               d="m -405.35857,217.91486 a 85.921004,85.921004 0 1 0 -87.42996,-84.38506 86.243208,86.243208 0 0 0 87.42996,84.38506 z m -0.68986,-38.92684 a 46.988049,46.988049 0 0 1 -47.81326,-46.14808 46.988049,46.988049 0 1 1 47.81326,46.14808 z" />
          </g>
        </g>
      </g>
      <g
         id="g5395-9-2-2-3-6"
         style="display:inline"
         transform="translate(9.151695,22.382686)">
        <g
           id="g2523-0-1-8-7-2-8"
           transform="matrix(4.2577182,0,0,4.2577182,200.10696,-35.748312)"
           style="display:inline">
          <g
             id="g3373-7-90-9-7-6-6"
             transform="matrix(-0.20953371,-0.00371336,0.00371336,-0.20953371,-91.221922,31.90476)">
            <g
               id="g2459-5-6-4-0-3-2-8"
               transform="matrix(0.4417475,0,0,0.4417475,-21.883357,22.162069)"
               style="display:inline">
              <path
                 id="path14-73-8-8-6-1"
                 style="fill:#a4a42a;fill-opacity:1;stroke-width:5.37006"
                 class="cls-2"
                 d="m -393.27782,217.70077 a 85.921004,85.921004 0 1 0 -16.37634,-170.402578 85.921004,85.921004 0 0 1 7.41181,169.988428 86.243208,86.243208 0 0 0 8.96453,0.41415 z m -12.77061,-38.71275 a 46.988049,46.988049 0 0 0 5.92824,-0.58891 46.988049,46.988049 0 0 1 -41.66076,-45.77326 46.988049,46.988049 0 0 1 42.47865,-46.881497 46.988049,46.988049 0 0 0 -54.55939,47.095587 46.988049,46.988049 0 0 0 47.81326,46.14808 z" />
              <path
                 id="path14-8-4-1-9-2-7-7"
                 style="display:inline;fill:#cccc00;fill-opacity:1;stroke-width:5.37006"
                 class="cls-2"
                 d="m -405.35857,217.91486 a 85.921004,85.921004 0 1 0 -87.42996,-84.38506 86.243208,86.243208 0 0 0 87.42996,84.38506 z m -0.68986,-38.92684 a 46.988049,46.988049 0 0 1 -47.81326,-46.14808 46.988049,46.988049 0 1 1 47.81326,46.14808 z" />
            </g>
          </g>
        </g>
      </g>
    </g>
    <g
       id="g5519-5-9-6-0-4"
       transform="matrix(0.26878562,0,0,0.26878562,107.54515,23.258614)"
       style="display:inline">
      <g
         id="g5395-44-6-7-5-7"
         transform="translate(-85.460416,22.382686)">
        <g
           id="g2523-0-9-1-4-3-1"
           transform="matrix(4.2577182,0,0,4.2577182,200.10696,-35.748312)"
           style="display:inline">
          <g
             id="g3373-7-6-1-0-2-7"
             transform="matrix(-0.20953371,-0.00371336,0.00371336,-0.20953371,-91.221922,31.90476)">
            <g
               id="g2459-5-6-2-3-5-7-7"
               transform="matrix(0.4417475,0,0,0.4417475,-21.883357,22.162069)"
               style="display:inline">
              <path
                 id="path14-1-6-3-2-9"
                 style="fill:#a4a42a;fill-opacity:1;stroke-width:5.37006"
                 class="cls-2"
                 d="m -393.27782,217.70077 a 85.921004,85.921004 0 1 0 -16.37634,-170.402578 85.921004,85.921004 0 0 1 7.41181,169.988428 86.243208,86.243208 0 0 0 8.96453,0.41415 z m -12.77061,-38.71275 a 46.988049,46.988049 0 0 0 5.92824,-0.58891 46.988049,46.988049 0 0 1 -41.66076,-45.77326 46.988049,46.988049 0 0 1 42.47865,-46.881497 46.988049,46.988049 0 0 0 -54.55939,47.095587 46.988049,46.988049 0 0 0 47.81326,46.14808 z" />
              <path
                 id="path14-8-4-16-9-5-5-0"
                 style="display:inline;fill:#cccc00;fill-opacity:1;stroke-width:5.37006"
                 class="cls-2"
                 d="m -405.35857,217.91486 a 85.921004,85.921004 0 1 0 -87.42996,-84.38506 86.243208,86.243208 0 0 0 87.42996,84.38506 z m -0.68986,-38.92684 a 46.988049,46.988049 0 0 1 -47.81326,-46.14808 46.988049,46.988049 0 1 1 47.81326,46.14808 z" />
            </g>
          </g>
        </g>
      </g>
      <g
         id="g2523-0-6-3-1-2-1-0"
         transform="matrix(4.2577182,0,0,4.2577182,161.75656,-46.486242)"
         style="display:inline">
        <g
           id="g3373-7-9-9-5-4-8-3"
           transform="matrix(-0.20953371,-0.00371336,0.00371336,-0.20953371,-91.221922,31.90476)">
          <g
             id="g2459-5-6-1-4-5-4-5-0"
             transform="matrix(0.4417475,0,0,0.4417475,-21.883357,22.162069)"
             style="display:inline">
            <path
               id="path14-7-8-9-37-3-6"
               style="fill:#a4a42a;fill-opacity:1;stroke-width:5.37006"
               class="cls-2"
               d="m -393.27782,217.70077 a 85.921004,85.921004 0 1 0 -16.37634,-170.402578 85.921004,85.921004 0 0 1 7.41181,169.988428 86.243208,86.243208 0 0 0 8.96453,0.41415 z m -12.77061,-38.71275 a 46.988049,46.988049 0 0 0 5.92824,-0.58891 46.988049,46.988049 0 0 1 -41.66076,-45.77326 46.988049,46.988049 0 0 1 42.47865,-46.881497 46.988049,46.988049 0 0 0 -54.55939,47.095587 46.988049,46.988049 0 0 0 47.81326,46.14808 z" />
            <path
               id="path14-8-4-0-4-7-8-4-1"
               style="display:inline;fill:#cccc00;fill-opacity:1;stroke-width:5.37006"
               class="cls-2"
               d="m -405.35857,217.91486 a 85.921004,85.921004 0 1 0 -87.42996,-84.38506 86.243208,86.243208 0 0 0 87.42996,84.38506 z m -0.68986,-38.92684 a 46.988049,46.988049 0 0 1 -47.81326,-46.14808 46.988049,46.988049 0 1 1 47.81326,46.14808 z" />
          </g>
        </g>
      </g>
      <g
         id="g5395-9-2-2-3-6-6"
         style="display:inline"
         transform="translate(9.151695,22.382686)">
        <g
           id="g2523-0-1-8-7-2-8-4"
           transform="matrix(4.2577182,0,0,4.2577182,200.10696,-35.748312)"
           style="display:inline">
          <g
             id="g3373-7-90-9-7-6-6-6"
             transform="matrix(-0.20953371,-0.00371336,0.00371336,-0.20953371,-91.221922,31.90476)">
            <g
               id="g2459-5-6-4-0-3-2-8-5"
               transform="matrix(0.4417475,0,0,0.4417475,-21.883357,22.162069)"
               style="display:inline">
              <path
                 id="path14-73-8-8-6-1-5"
                 style="fill:#a4a42a;fill-opacity:1;stroke-width:5.37006"
                 class="cls-2"
                 d="m -393.27782,217.70077 a 85.921004,85.921004 0 1 0 -16.37634,-170.402578 85.921004,85.921004 0 0 1 7.41181,169.988428 86.243208,86.243208 0 0 0 8.96453,0.41415 z m -12.77061,-38.71275 a 46.988049,46.988049 0 0 0 5.92824,-0.58891 46.988049,46.988049 0 0 1 -41.66076,-45.77326 46.988049,46.988049 0 0 1 42.47865,-46.881497 46.988049,46.988049 0 0 0 -54.55939,47.095587 46.988049,46.988049 0 0 0 47.81326,46.14808 z" />
              <path
                 id="path14-8-4-1-9-2-7-7-1"
                 style="display:inline;fill:#cccc00;fill-opacity:1;stroke-width:5.37006"
                 class="cls-2"
                 d="m -405.35857,217.91486 a 85.921004,85.921004 0 1 0 -87.42996,-84.38506 86.243208,86.243208 0 0 0 87.42996,84.38506 z m -0.68986,-38.92684 a 46.988049,46.988049 0 0 1 -47.81326,-46.14808 46.988049,46.988049 0 1 1 47.81326,46.14808 z" />
            </g>
          </g>
        </g>
      </g>
    </g>
    <g
       id="g5519-5-9-6-0-5"
       transform="matrix(0.23892055,0,0,0.23892055,77.494086,5.9985756)"
       style="display:inline">
      <g
         id="g5395-44-6-7-5-0"
         transform="translate(-85.460416,22.382686)">
        <g
           id="g2523-0-9-1-4-3-4"
           transform="matrix(4.2577182,0,0,4.2577182,200.10696,-35.748312)"
           style="display:inline">
          <g
             id="g3373-7-6-1-0-2-3"
             transform="matrix(-0.20953371,-0.00371336,0.00371336,-0.20953371,-91.221922,31.90476)">
            <g
               id="g2459-5-6-2-3-5-7-6"
               transform="matrix(0.4417475,0,0,0.4417475,-21.883357,22.162069)"
               style="display:inline">
              <path
                 id="path14-1-6-3-2-4"
                 style="fill:#a4a42a;fill-opacity:1;stroke-width:5.37006"
                 class="cls-2"
                 d="m -393.27782,217.70077 a 85.921004,85.921004 0 1 0 -16.37634,-170.402578 85.921004,85.921004 0 0 1 7.41181,169.988428 86.243208,86.243208 0 0 0 8.96453,0.41415 z m -12.77061,-38.71275 a 46.988049,46.988049 0 0 0 5.92824,-0.58891 46.988049,46.988049 0 0 1 -41.66076,-45.77326 46.988049,46.988049 0 0 1 42.47865,-46.881497 46.988049,46.988049 0 0 0 -54.55939,47.095587 46.988049,46.988049 0 0 0 47.81326,46.14808 z" />
              <path
                 id="path14-8-4-16-9-5-5-8"
                 style="display:inline;fill:#cccc00;fill-opacity:1;stroke-width:5.37006"
                 class="cls-2"
                 d="m -405.35857,217.91486 a 85.921004,85.921004 0 1 0 -87.42996,-84.38506 86.243208,86.243208 0 0 0 87.42996,84.38506 z m -0.68986,-38.92684 a 46.988049,46.988049 0 0 1 -47.81326,-46.14808 46.988049,46.988049 0 1 1 47.81326,46.14808 z" />
            </g>
          </g>
        </g>
      </g>
      <g
         id="g2523-0-6-3-1-2-1-9"
         transform="matrix(4.2577182,0,0,4.2577182,161.75656,-46.486242)"
         style="display:inline">
        <g
           id="g3373-7-9-9-5-4-8-8"
           transform="matrix(-0.20953371,-0.00371336,0.00371336,-0.20953371,-91.221922,31.90476)">
          <g
             id="g2459-5-6-1-4-5-4-5-1"
             transform="matrix(0.4417475,0,0,0.4417475,-21.883357,22.162069)"
             style="display:inline">
            <path
               id="path14-7-8-9-37-3-5"
               style="fill:#a4a42a;fill-opacity:1;stroke-width:5.37006"
               class="cls-2"
               d="m -393.27782,217.70077 a 85.921004,85.921004 0 1 0 -16.37634,-170.402578 85.921004,85.921004 0 0 1 7.41181,169.988428 86.243208,86.243208 0 0 0 8.96453,0.41415 z m -12.77061,-38.71275 a 46.988049,46.988049 0 0 0 5.92824,-0.58891 46.988049,46.988049 0 0 1 -41.66076,-45.77326 46.988049,46.988049 0 0 1 42.47865,-46.881497 46.988049,46.988049 0 0 0 -54.55939,47.095587 46.988049,46.988049 0 0 0 47.81326,46.14808 z" />
            <path
               id="path14-8-4-0-4-7-8-4-9"
               style="display:inline;fill:#cccc00;fill-opacity:1;stroke-width:5.37006"
               class="cls-2"
               d="m -405.35857,217.91486 a 85.921004,85.921004 0 1 0 -87.42996,-84.38506 86.243208,86.243208 0 0 0 87.42996,84.38506 z m -0.68986,-38.92684 a 46.988049,46.988049 0 0 1 -47.81326,-46.14808 46.988049,46.988049 0 1 1 47.81326,46.14808 z" />
          </g>
        </g>
      </g>
      <g
         id="g5395-9-2-2-3-6-9"
         style="display:inline"
         transform="translate(9.151695,22.382686)">
        <g
           id="g2523-0-1-8-7-2-8-0"
           transform="matrix(4.2577182,0,0,4.2577182,200.10696,-35.748312)"
           style="display:inline">
          <g
             id="g3373-7-90-9-7-6-6-2"
             transform="matrix(-0.20953371,-0.00371336,0.00371336,-0.20953371,-91.221922,31.90476)">
            <g
               id="g2459-5-6-4-0-3-2-8-2"
               transform="matrix(0.4417475,0,0,0.4417475,-21.883357,22.162069)"
               style="display:inline">
              <path
                 id="path14-73-8-8-6-1-3"
                 style="fill:#a4a42a;fill-opacity:1;stroke-width:5.37006"
                 class="cls-2"
                 d="m -393.27782,217.70077 a 85.921004,85.921004 0 1 0 -16.37634,-170.402578 85.921004,85.921004 0 0 1 7.41181,169.988428 86.243208,86.243208 0 0 0 8.96453,0.41415 z m -12.77061,-38.71275 a 46.988049,46.988049 0 0 0 5.92824,-0.58891 46.988049,46.988049 0 0 1 -41.66076,-45.77326 46.988049,46.988049 0 0 1 42.47865,-46.881497 46.988049,46.988049 0 0 0 -54.55939,47.095587 46.988049,46.988049 0 0 0 47.81326,46.14808 z" />
              <path
                 id="path14-8-4-1-9-2-7-7-16"
                 style="display:inline;fill:#cccc00;fill-opacity:1;stroke-width:5.37006"
                 class="cls-2"
                 d="m -405.35857,217.91486 a 85.921004,85.921004 0 1 0 -87.42996,-84.38506 86.243208,86.243208 0 0 0 87.42996,84.38506 z m -0.68986,-38.92684 a 46.988049,46.988049 0 0 1 -47.81326,-46.14808 46.988049,46.988049 0 1 1 47.81326,46.14808 z" />
            </g>
          </g>
        </g>
      </g>
    </g>
  </g>
</svg>
