<?xml version="1.0" encoding="UTF-8" standalone="no"?>
<!-- Created with Inkscape (http://www.inkscape.org/) -->

<svg
   width="500"
   height="500"
   viewBox="0 0 132.29166 132.29167"
   version="1.1"
   id="svg2515"
   inkscape:version="1.1.2 (b8e25be833, 2022-02-05)"
   sodipodi:docname="bonsai10s05normal.svg"
   inkscape:export-filename="C:\Users\Lenovo\Desktop\Coding\Media files\Bonsais\bonsai10.png"
   inkscape:export-xdpi="96"
   inkscape:export-ydpi="96"
   xmlns:inkscape="http://www.inkscape.org/namespaces/inkscape"
   xmlns:sodipodi="http://sodipodi.sourceforge.net/DTD/sodipodi-0.dtd"
   xmlns="http://www.w3.org/2000/svg"
   xmlns:svg="http://www.w3.org/2000/svg">
  <sodipodi:namedview
     id="namedview2517"
     pagecolor="#ffffff"
     bordercolor="#666666"
     borderopacity="1.0"
     inkscape:pageshadow="2"
     inkscape:pageopacity="0.0"
     inkscape:pagecheckerboard="0"
     inkscape:document-units="mm"
     showgrid="false"
     units="px"
     inkscape:zoom="1.4142136"
     inkscape:cx="272.58966"
     inkscape:cy="254.20488"
     inkscape:window-width="1920"
     inkscape:window-height="1001"
     inkscape:window-x="-9"
     inkscape:window-y="-9"
     inkscape:window-maximized="1"
     inkscape:current-layer="g51917" />
  <defs
     id="defs2512">
    <marker
       style="overflow:visible"
       id="Arrow1Sstart"
       refX="0.0"
       refY="0.0"
       orient="auto"
       inkscape:stockid="Arrow1Sstart"
       inkscape:isstock="true">
      <path
         transform="scale(0.2) translate(6,0)"
         style="fill-rule:evenodd;fill:context-stroke;stroke:context-stroke;stroke-width:1.0pt"
         d="M 0.0,0.0 L 5.0,-5.0 L -12.5,0.0 L 5.0,5.0 L 0.0,0.0 z "
         id="path24092" />
    </marker>
    <marker
       style="overflow:visible"
       id="Arrow1Mstart"
       refX="0.0"
       refY="0.0"
       orient="auto"
       inkscape:stockid="Arrow1Mstart"
       inkscape:isstock="true">
      <path
         transform="scale(0.4) translate(10,0)"
         style="fill-rule:evenodd;fill:context-stroke;stroke:context-stroke;stroke-width:1.0pt"
         d="M 0.0,0.0 L 5.0,-5.0 L -12.5,0.0 L 5.0,5.0 L 0.0,0.0 z "
         id="path24086" />
    </marker>
    <marker
       style="overflow:visible"
       id="Arrow1Lstart"
       refX="0.0"
       refY="0.0"
       orient="auto"
       inkscape:stockid="Arrow1Lstart"
       inkscape:isstock="true">
      <path
         transform="scale(0.8) translate(12.5,0)"
         style="fill-rule:evenodd;fill:context-stroke;stroke:context-stroke;stroke-width:1.0pt"
         d="M 0.0,0.0 L 5.0,-5.0 L -12.5,0.0 L 5.0,5.0 L 0.0,0.0 z "
         id="path24080" />
    </marker>
    <marker
       style="overflow:visible;"
       id="Arrow1Lend"
       refX="0.0"
       refY="0.0"
       orient="auto"
       inkscape:stockid="Arrow1Lend"
       inkscape:isstock="true">
      <path
         transform="scale(0.8) rotate(180) translate(12.5,0)"
         style="fill-rule:evenodd;fill:context-stroke;stroke:context-stroke;stroke-width:1.0pt;"
         d="M 0.0,0.0 L 5.0,-5.0 L -12.5,0.0 L 5.0,5.0 L 0.0,0.0 z "
         id="path24083" />
    </marker>
  </defs>
  <g
     inkscape:label="Double Trunk"
     inkscape:groupmode="layer"
     id="g51917"
     style="display:inline">
    <g
       id="g51833"
       transform="translate(157.39097,29.859785)"
       style="display:inline">
      <g
         id="g51831"
         transform="translate(-5.2916669)">
        <g
           id="g51823"
           transform="rotate(-13.017437,48.811012,639.29985)">
          <path
             style="display:inline;fill:#bb695d;fill-opacity:1;stroke:#bb695d;stroke-width:1;stroke-linecap:round;stroke-linejoin:round;stroke-miterlimit:4;stroke-dasharray:none;stroke-opacity:1"
             d="m 35.870136,79.809188 c 0,0 -5.93462,-10.285377 -0.36765,-17.935201 6.813833,-9.363182 12.17001,-5.093403 20.635714,-13.494745 6.786493,-6.734912 3.856953,-4.941474 9.61376,-12.344267 8.901728,-11.446877 8.659273,-1.55111 18.063763,-7.957382 7.913798,-5.390822 6.163238,-9.447209 15.526264,-17.43746 -2.405674,12.080364 -8.000423,9.916592 -10.90212,19.308518 -10.998001,6.255711 -2.636099,3.404697 -10.733417,5.461961 -9.484259,2.409639 -8.368428,8.046906 -13.315573,14.129643 -7.813845,9.607437 -15.695209,6.410437 -18.541148,16.263577 -2.153488,7.455755 1.038976,14.510776 2.528597,17.311986 1.489631,2.80121 -12.50819,-3.30663 -12.50819,-3.30663 z"
             id="path51819"
             sodipodi:nodetypes="cssssccssssc" />
          <path
             id="path51821"
             style="display:inline;fill:#954b45;fill-opacity:1;stroke:#954b45;stroke-width:3.77953;stroke-linecap:round;stroke-linejoin:round;stroke-miterlimit:4;stroke-dasharray:none;stroke-opacity:1"
             d="m 970.33008,153.07031 c -35.38782,30.19938 -28.77318,45.53149 -58.6836,65.90625 -35.54452,24.21268 -34.62715,-13.18957 -68.27148,30.07422 -21.75801,27.97906 -10.6862,21.20147 -36.33594,46.65625 -31.99636,31.7531 -52.23911,15.6155 -77.99218,51.00391 -21.04052,28.91272 1.38867,67.78515 1.38867,67.78515 0,0 0.53969,0.23173 0.68554,0.29493 -5.05604,-10.82763 -16.10396,-40.35023 0.75977,-63.52344 25.75307,-35.38841 45.99778,-19.2508 77.99414,-51.00391 25.64974,-25.45478 14.57793,-18.67719 36.33594,-46.65625 33.64432,-43.26379 32.72695,-5.86154 68.27148,-30.07422 28.41915,-19.35891 23.88953,-34.17576 53.71875,-61.50781 0.76306,-2.74415 1.48041,-5.69857 2.12891,-8.95508 z"
             transform="matrix(0.26458333,0,0,0.26458333,-157.39097,-29.859785)" />
        </g>
        <g
           id="g51829"
           transform="translate(-103.45205,-31.75)">
          <path
             style="display:inline;fill:#bb695d;fill-opacity:1;stroke:#bb695d;stroke-width:1;stroke-linecap:round;stroke-linejoin:round;stroke-miterlimit:4;stroke-dasharray:none;stroke-opacity:1"
             d="m 1.5429645,115.20461 c 0,0 -0.44391,-8.09307 -7.413009,-16.606491 -5.7703105,-7.049 -13.8088905,-10.89145 -10.0809905,-22.220768 2.98845,-9.082106 6.5809805,-11.287183 11.7883305,-16.9438 C 5.6584545,48.765064 7.3043845,49.408168 12.774609,39.430122 17.377757,31.033683 4.9076645,22.010606 9.6217105,10.640113 12.96362,22.495664 18.44838,26.548244 20.12762,36.233711 15.444354,48.50294 18.442121,45.423796 15.444354,48.50294 c -2.295407,2.357716 -5.14072,4.406037 -7.8642035,6.795331 -7.35602602,6.453392 -10.606666,25.3144 -10.606666,25.3144 10.538324,6.504058 13.6860715,7.919038 15.6244115,17.990108 1.46672,7.620671 12.857197,14.782431 15.456337,16.601831 2.59915,1.8194 -26.5112685,0 -26.5112685,0 z"
             id="path51825"
             sodipodi:nodetypes="cssssccsssssc" />
          <path
             id="path51827"
             style="display:inline;fill:#954b45;fill-opacity:1;stroke:#954b45;stroke-width:3.77953;stroke-linecap:round;stroke-linejoin:round;stroke-miterlimit:4;stroke-dasharray:none;stroke-opacity:1"
             d="m 631.22852,153.07031 c -17.81689,42.97509 29.31375,77.07793 11.91601,108.8125 -20.67485,37.7123 -26.89433,35.28168 -64.01367,75.60352 -19.68132,21.37934 -33.25976,29.71299 -44.55469,64.03906 -14.0897,42.81947 16.29252,57.3425 38.10156,83.98438 26.33991,32.17672 28.01758,62.76562 28.01758,62.76562 0,0 3.6319,0.21449 8.51367,0.49219 -0.94557,-7.59992 -5.65489,-33.43191 -27.77929,-60.45899 -21.80905,-26.64183 -52.19127,-41.16491 -38.10157,-83.98437 11.29494,-34.32607 24.87337,-42.65972 44.55469,-64.03906 37.11934,-40.32184 43.34078,-37.89122 64.01563,-75.60352 15.60524,-28.46494 -20.69795,-58.8372 -15.48828,-95.80664 -1.82765,-4.8605 -3.57081,-10.09019 -5.18164,-15.80469 z"
             transform="matrix(0.26458333,0,0,0.26458333,-157.39097,-29.859785)" />
        </g>
      </g>
    </g>
    <g
       id="g3686"
       transform="matrix(0.74984438,0,0,-0.22767039,-1980.3083,150.19789)"
       style="display:inline">
      <path
         d="m 2666.1206,172.00674 h 113.68 l 0.22,0.11 c 0.01,-0.04 0.03,-0.07 0.06,-0.11 4.05,-8.37 6.33,-17.76 6.33,-27.67 0,-16.4 -6.22,-31.35 -16.43,-42.61 -5.13,-5.66 -12.45,-8.83 -20.09,-8.83 h -53.87 c -7.63,0 -14.95,3.17 -20.08,8.83 -10.21,11.26 -16.44,26.21 -16.44,42.61 0,9.91 2.28,19.3 6.34,27.67 0.02,0.04 0.03,0.07 0.05,0.11 l 0.23,-0.11 v 0"
         style="display:inline;fill:#d6b467;fill-opacity:1;fill-rule:nonzero;stroke:none;stroke-width:0.1"
         id="path800-2-5" />
      <path
         d="m 2763.3806,193.25674 h -80.85 c -6.94,-5.76 -12.64,-12.96 -16.64,-21.14 l 0.23,-0.11 h 113.68 l 0.22,0.11 c -3.99,8.18 -9.69,15.38 -16.64,21.14"
         style="display:inline;fill:#ce2940;fill-opacity:1;fill-rule:nonzero;stroke:none;stroke-width:0.1"
         id="path802-7-38" />
      <path
         d="m 2689.9406,101.72674 c -10.21,11.26 -16.43,26.21 -16.43,42.61 0,9.91 2.27,19.3 6.33,27.67 h -13.72 l -0.23,0.11 c -0.02,-0.04 -0.03,-0.07 -0.05,-0.11 -4.06,-8.37 -6.34,-17.76 -6.34,-27.67 0,-16.4 6.23,-31.35 16.44,-42.61 5.13,-5.66 12.45,-8.83 20.08,-8.83 h 14 c -7.63,0 -14.95,3.17 -20.08,8.83"
         style="display:inline;fill:#b09250;fill-opacity:1;fill-rule:nonzero;stroke:none;stroke-width:0.1"
         id="path832-0-1" />
      <path
         d="m 2696.5406,193.25674 h -14.01 c -6.94,-5.76 -12.64,-12.96 -16.64,-21.14 l 0.23,-0.11 h 14 l -0.22,0.11 c 3.99,8.18 9.69,15.38 16.64,21.14"
         style="display:inline;fill:#83313b;fill-opacity:1;fill-rule:nonzero;stroke:none;stroke-width:0.1"
         id="path834-8-45" />
    </g>
    <g
       id="g80849-0-4-6-3-5-3"
       transform="matrix(0.90290827,0,0,0.90290827,-79.541041,-3.3785202)"
       style="display:inline">
      <g
         id="g80785-3-8-9-8-59-9"
         transform="translate(-17.025069,46.585079)">
        <path
           d="m 146.85461,18.019882 c -2.52835,0.17383 -20.29122,1.865253 -21.53293,14.043594 -0.15088,1.30177 -0.23633,2.6094 -0.29248,3.918007 l 8.73397,-8.725183 c 0.30518,-0.305179 0.80079,-0.305179 1.10597,0 0.30518,0.305179 0.30518,0.799813 0,1.104991 l -12.67102,12.658327 c -0.45801,0.457524 -0.45801,1.199719 0,1.657243 0.45801,0.457523 1.20069,0.457523 1.65919,0 l 2.78958,-2.786649 c 2.0552,-0.0068 4.10893,-0.123536 6.15045,-0.359378 2.61136,-0.265627 4.73735,-1.292494 6.4737,-2.760769 h -4.92925 l 7.16755,-2.386742 c 0.54932,-0.727058 1.04347,-1.499527 1.48683,-2.300804 h -3.96195 l 5.2022,-2.59817 c 2.0464,-4.977099 2.52981,-10.182228 2.61819,-11.464467 z"
           id="path2-90-32-4-3-6-8-4"
           style="fill:#92d050;fill-opacity:1;stroke-width:0.0488285" />
        <path
           id="path2-90-1-44-8-3-3-9-6"
           style="display:inline;fill:#68923b;fill-opacity:1;stroke-width:0.0488286"
           d="m 146.85474,18.020304 c -2.52835,0.173832 -20.29134,1.865247 -21.53305,14.043589 -0.15088,1.301768 -0.23634,2.608982 -0.29249,3.91759 l 3.41168,-3.408061 c 0.0175,-0.169963 0.0361,-0.339757 0.0558,-0.509529 0.98731,-9.683234 12.41304,-12.73433 18.32705,-13.666351 0.0109,-0.131085 0.0247,-0.285112 0.031,-0.377238 z m -9.36377,9.007203 c -0.2002,0 -0.40034,0.07634 -0.55294,0.228925 l -8.73383,8.725051 c 0.0145,-0.337502 0.0311,-0.674537 0.0501,-1.011825 l -6.05648,6.050277 c -0.45801,0.457523 -0.45801,1.199738 0,1.657263 0.45801,0.457523 1.20083,0.457523 1.65933,0 l 1.2516,-1.250569 c 0.0571,-0.148153 0.14447,-0.287224 0.26407,-0.406694 l 12.67106,-12.658658 c 0.30518,-0.305181 0.30518,-0.799664 0,-1.104845 -0.15259,-0.152588 -0.35274,-0.228925 -0.55294,-0.228925 z" />
      </g>
      <g
         id="g80785-4-1-4-21-4-7-7"
         transform="translate(2.3732625,41.795296)"
         style="display:inline">
        <path
           d="m 146.85461,18.019882 c -2.52835,0.17383 -20.29122,1.865253 -21.53293,14.043594 -0.15088,1.30177 -0.23633,2.6094 -0.29248,3.918007 l 8.73397,-8.725183 c 0.30518,-0.305179 0.80079,-0.305179 1.10597,0 0.30518,0.305179 0.30518,0.799813 0,1.104991 l -12.67102,12.658327 c -0.45801,0.457524 -0.45801,1.199719 0,1.657243 0.45801,0.457523 1.20069,0.457523 1.65919,0 l 2.78958,-2.786649 c 2.0552,-0.0068 4.10893,-0.123536 6.15045,-0.359378 2.61136,-0.265627 4.73735,-1.292494 6.4737,-2.760769 h -4.92925 l 7.16755,-2.386742 c 0.54932,-0.727058 1.04347,-1.499527 1.48683,-2.300804 h -3.96195 l 5.2022,-2.59817 c 2.0464,-4.977099 2.52981,-10.182228 2.61819,-11.464467 z"
           id="path2-90-7-3-6-4-6-90-9"
           style="fill:#92d050;fill-opacity:1;stroke-width:0.0488285" />
        <path
           id="path2-90-1-3-9-6-18-1-4-46"
           style="display:inline;fill:#68923b;fill-opacity:1;stroke-width:0.0488286"
           d="m 146.85474,18.020304 c -2.52835,0.173832 -20.29134,1.865247 -21.53305,14.043589 -0.15088,1.301768 -0.23634,2.608982 -0.29249,3.91759 l 3.41168,-3.408061 c 0.0175,-0.169963 0.0361,-0.339757 0.0558,-0.509529 0.98731,-9.683234 12.41304,-12.73433 18.32705,-13.666351 0.0109,-0.131085 0.0247,-0.285112 0.031,-0.377238 z m -9.36377,9.007203 c -0.2002,0 -0.40034,0.07634 -0.55294,0.228925 l -8.73383,8.725051 c 0.0145,-0.337502 0.0311,-0.674537 0.0501,-1.011825 l -6.05648,6.050277 c -0.45801,0.457523 -0.45801,1.199738 0,1.657263 0.45801,0.457523 1.20083,0.457523 1.65933,0 l 1.2516,-1.250569 c 0.0571,-0.148153 0.14447,-0.287224 0.26407,-0.406694 l 12.67106,-12.658658 c 0.30518,-0.305181 0.30518,-0.799664 0,-1.104845 -0.15259,-0.152588 -0.35274,-0.228925 -0.55294,-0.228925 z" />
      </g>
      <g
         id="g80785-7-0-5-7-0-3-9"
         transform="translate(16.673711,46.585118)"
         style="display:inline">
        <path
           d="m 146.85461,18.019882 c -2.52835,0.17383 -20.29122,1.865253 -21.53293,14.043594 -0.15088,1.30177 -0.23633,2.6094 -0.29248,3.918007 l 8.73397,-8.725183 c 0.30518,-0.305179 0.80079,-0.305179 1.10597,0 0.30518,0.305179 0.30518,0.799813 0,1.104991 l -12.67102,12.658327 c -0.45801,0.457524 -0.45801,1.199719 0,1.657243 0.45801,0.457523 1.20069,0.457523 1.65919,0 l 2.78958,-2.786649 c 2.0552,-0.0068 4.10893,-0.123536 6.15045,-0.359378 2.61136,-0.265627 4.73735,-1.292494 6.4737,-2.760769 h -4.92925 l 7.16755,-2.386742 c 0.54932,-0.727058 1.04347,-1.499527 1.48683,-2.300804 h -3.96195 l 5.2022,-2.59817 c 2.0464,-4.977099 2.52981,-10.182228 2.61819,-11.464467 z"
           id="path2-90-77-7-0-51-2-6-0"
           style="fill:#92d050;fill-opacity:1;stroke-width:0.0488285" />
        <path
           id="path2-90-1-4-2-5-9-7-5-3"
           style="display:inline;fill:#68923b;fill-opacity:1;stroke-width:0.0488286"
           d="m 146.85474,18.020304 c -2.52835,0.173832 -20.29134,1.865247 -21.53305,14.043589 -0.15088,1.301768 -0.23634,2.608982 -0.29249,3.91759 l 3.41168,-3.408061 c 0.0175,-0.169963 0.0361,-0.339757 0.0558,-0.509529 0.98731,-9.683234 12.41304,-12.73433 18.32705,-13.666351 0.0109,-0.131085 0.0247,-0.285112 0.031,-0.377238 z m -9.36377,9.007203 c -0.2002,0 -0.40034,0.07634 -0.55294,0.228925 l -8.73383,8.725051 c 0.0145,-0.337502 0.0311,-0.674537 0.0501,-1.011825 l -6.05648,6.050277 c -0.45801,0.457523 -0.45801,1.199738 0,1.657263 0.45801,0.457523 1.20083,0.457523 1.65933,0 l 1.2516,-1.250569 c 0.0571,-0.148153 0.14447,-0.287224 0.26407,-0.406694 l 12.67106,-12.658658 c 0.30518,-0.305181 0.30518,-0.799664 0,-1.104845 -0.15259,-0.152588 -0.35274,-0.228925 -0.55294,-0.228925 z" />
      </g>
    </g>
    <g
       id="g80849-0-4-6-3-5-3-2"
       transform="matrix(0.76662023,0,0,0.76662023,-11.203366,12.805482)"
       style="display:inline">
      <g
         id="g80785-3-8-9-8-59-9-3"
         transform="translate(-17.025069,46.585079)">
        <path
           d="m 146.85461,18.019882 c -2.52835,0.17383 -20.29122,1.865253 -21.53293,14.043594 -0.15088,1.30177 -0.23633,2.6094 -0.29248,3.918007 l 8.73397,-8.725183 c 0.30518,-0.305179 0.80079,-0.305179 1.10597,0 0.30518,0.305179 0.30518,0.799813 0,1.104991 l -12.67102,12.658327 c -0.45801,0.457524 -0.45801,1.199719 0,1.657243 0.45801,0.457523 1.20069,0.457523 1.65919,0 l 2.78958,-2.786649 c 2.0552,-0.0068 4.10893,-0.123536 6.15045,-0.359378 2.61136,-0.265627 4.73735,-1.292494 6.4737,-2.760769 h -4.92925 l 7.16755,-2.386742 c 0.54932,-0.727058 1.04347,-1.499527 1.48683,-2.300804 h -3.96195 l 5.2022,-2.59817 c 2.0464,-4.977099 2.52981,-10.182228 2.61819,-11.464467 z"
           id="path2-90-32-4-3-6-8-4-2"
           style="fill:#92d050;fill-opacity:1;stroke-width:0.0488285" />
        <path
           id="path2-90-1-44-8-3-3-9-6-8"
           style="display:inline;fill:#68923b;fill-opacity:1;stroke-width:0.0488286"
           d="m 146.85474,18.020304 c -2.52835,0.173832 -20.29134,1.865247 -21.53305,14.043589 -0.15088,1.301768 -0.23634,2.608982 -0.29249,3.91759 l 3.41168,-3.408061 c 0.0175,-0.169963 0.0361,-0.339757 0.0558,-0.509529 0.98731,-9.683234 12.41304,-12.73433 18.32705,-13.666351 0.0109,-0.131085 0.0247,-0.285112 0.031,-0.377238 z m -9.36377,9.007203 c -0.2002,0 -0.40034,0.07634 -0.55294,0.228925 l -8.73383,8.725051 c 0.0145,-0.337502 0.0311,-0.674537 0.0501,-1.011825 l -6.05648,6.050277 c -0.45801,0.457523 -0.45801,1.199738 0,1.657263 0.45801,0.457523 1.20083,0.457523 1.65933,0 l 1.2516,-1.250569 c 0.0571,-0.148153 0.14447,-0.287224 0.26407,-0.406694 l 12.67106,-12.658658 c 0.30518,-0.305181 0.30518,-0.799664 0,-1.104845 -0.15259,-0.152588 -0.35274,-0.228925 -0.55294,-0.228925 z" />
      </g>
      <g
         id="g80785-4-1-4-21-4-7-7-9"
         transform="translate(2.3732625,41.795296)"
         style="display:inline">
        <path
           d="m 146.85461,18.019882 c -2.52835,0.17383 -20.29122,1.865253 -21.53293,14.043594 -0.15088,1.30177 -0.23633,2.6094 -0.29248,3.918007 l 8.73397,-8.725183 c 0.30518,-0.305179 0.80079,-0.305179 1.10597,0 0.30518,0.305179 0.30518,0.799813 0,1.104991 l -12.67102,12.658327 c -0.45801,0.457524 -0.45801,1.199719 0,1.657243 0.45801,0.457523 1.20069,0.457523 1.65919,0 l 2.78958,-2.786649 c 2.0552,-0.0068 4.10893,-0.123536 6.15045,-0.359378 2.61136,-0.265627 4.73735,-1.292494 6.4737,-2.760769 h -4.92925 l 7.16755,-2.386742 c 0.54932,-0.727058 1.04347,-1.499527 1.48683,-2.300804 h -3.96195 l 5.2022,-2.59817 c 2.0464,-4.977099 2.52981,-10.182228 2.61819,-11.464467 z"
           id="path2-90-7-3-6-4-6-90-9-4"
           style="fill:#92d050;fill-opacity:1;stroke-width:0.0488285" />
        <path
           id="path2-90-1-3-9-6-18-1-4-46-2"
           style="display:inline;fill:#68923b;fill-opacity:1;stroke-width:0.0488286"
           d="m 146.85474,18.020304 c -2.52835,0.173832 -20.29134,1.865247 -21.53305,14.043589 -0.15088,1.301768 -0.23634,2.608982 -0.29249,3.91759 l 3.41168,-3.408061 c 0.0175,-0.169963 0.0361,-0.339757 0.0558,-0.509529 0.98731,-9.683234 12.41304,-12.73433 18.32705,-13.666351 0.0109,-0.131085 0.0247,-0.285112 0.031,-0.377238 z m -9.36377,9.007203 c -0.2002,0 -0.40034,0.07634 -0.55294,0.228925 l -8.73383,8.725051 c 0.0145,-0.337502 0.0311,-0.674537 0.0501,-1.011825 l -6.05648,6.050277 c -0.45801,0.457523 -0.45801,1.199738 0,1.657263 0.45801,0.457523 1.20083,0.457523 1.65933,0 l 1.2516,-1.250569 c 0.0571,-0.148153 0.14447,-0.287224 0.26407,-0.406694 l 12.67106,-12.658658 c 0.30518,-0.305181 0.30518,-0.799664 0,-1.104845 -0.15259,-0.152588 -0.35274,-0.228925 -0.55294,-0.228925 z" />
      </g>
      <g
         id="g80785-7-0-5-7-0-3-9-1"
         transform="translate(16.673711,46.585118)"
         style="display:inline">
        <path
           d="m 146.85461,18.019882 c -2.52835,0.17383 -20.29122,1.865253 -21.53293,14.043594 -0.15088,1.30177 -0.23633,2.6094 -0.29248,3.918007 l 8.73397,-8.725183 c 0.30518,-0.305179 0.80079,-0.305179 1.10597,0 0.30518,0.305179 0.30518,0.799813 0,1.104991 l -12.67102,12.658327 c -0.45801,0.457524 -0.45801,1.199719 0,1.657243 0.45801,0.457523 1.20069,0.457523 1.65919,0 l 2.78958,-2.786649 c 2.0552,-0.0068 4.10893,-0.123536 6.15045,-0.359378 2.61136,-0.265627 4.73735,-1.292494 6.4737,-2.760769 h -4.92925 l 7.16755,-2.386742 c 0.54932,-0.727058 1.04347,-1.499527 1.48683,-2.300804 h -3.96195 l 5.2022,-2.59817 c 2.0464,-4.977099 2.52981,-10.182228 2.61819,-11.464467 z"
           id="path2-90-77-7-0-51-2-6-0-8"
           style="fill:#92d050;fill-opacity:1;stroke-width:0.0488285" />
        <path
           id="path2-90-1-4-2-5-9-7-5-3-8"
           style="display:inline;fill:#68923b;fill-opacity:1;stroke-width:0.0488286"
           d="m 146.85474,18.020304 c -2.52835,0.173832 -20.29134,1.865247 -21.53305,14.043589 -0.15088,1.301768 -0.23634,2.608982 -0.29249,3.91759 l 3.41168,-3.408061 c 0.0175,-0.169963 0.0361,-0.339757 0.0558,-0.509529 0.98731,-9.683234 12.41304,-12.73433 18.32705,-13.666351 0.0109,-0.131085 0.0247,-0.285112 0.031,-0.377238 z m -9.36377,9.007203 c -0.2002,0 -0.40034,0.07634 -0.55294,0.228925 l -8.73383,8.725051 c 0.0145,-0.337502 0.0311,-0.674537 0.0501,-1.011825 l -6.05648,6.050277 c -0.45801,0.457523 -0.45801,1.199738 0,1.657263 0.45801,0.457523 1.20083,0.457523 1.65933,0 l 1.2516,-1.250569 c 0.0571,-0.148153 0.14447,-0.287224 0.26407,-0.406694 l 12.67106,-12.658658 c 0.30518,-0.305181 0.30518,-0.799664 0,-1.104845 -0.15259,-0.152588 -0.35274,-0.228925 -0.55294,-0.228925 z" />
      </g>
    </g>
    <g
       id="g80849-0-4-6-3-5-3-2-8"
       transform="matrix(0.76662023,0,0,0.76662023,-40.390348,-21.61018)"
       style="display:inline">
      <g
         id="g80785-3-8-9-8-59-9-3-9"
         transform="translate(-17.025069,46.585079)">
        <path
           d="m 146.85461,18.019882 c -2.52835,0.17383 -20.29122,1.865253 -21.53293,14.043594 -0.15088,1.30177 -0.23633,2.6094 -0.29248,3.918007 l 8.73397,-8.725183 c 0.30518,-0.305179 0.80079,-0.305179 1.10597,0 0.30518,0.305179 0.30518,0.799813 0,1.104991 l -12.67102,12.658327 c -0.45801,0.457524 -0.45801,1.199719 0,1.657243 0.45801,0.457523 1.20069,0.457523 1.65919,0 l 2.78958,-2.786649 c 2.0552,-0.0068 4.10893,-0.123536 6.15045,-0.359378 2.61136,-0.265627 4.73735,-1.292494 6.4737,-2.760769 h -4.92925 l 7.16755,-2.386742 c 0.54932,-0.727058 1.04347,-1.499527 1.48683,-2.300804 h -3.96195 l 5.2022,-2.59817 c 2.0464,-4.977099 2.52981,-10.182228 2.61819,-11.464467 z"
           id="path2-90-32-4-3-6-8-4-2-7"
           style="fill:#92d050;fill-opacity:1;stroke-width:0.0488285" />
        <path
           id="path2-90-1-44-8-3-3-9-6-8-9"
           style="display:inline;fill:#68923b;fill-opacity:1;stroke-width:0.0488286"
           d="m 146.85474,18.020304 c -2.52835,0.173832 -20.29134,1.865247 -21.53305,14.043589 -0.15088,1.301768 -0.23634,2.608982 -0.29249,3.91759 l 3.41168,-3.408061 c 0.0175,-0.169963 0.0361,-0.339757 0.0558,-0.509529 0.98731,-9.683234 12.41304,-12.73433 18.32705,-13.666351 0.0109,-0.131085 0.0247,-0.285112 0.031,-0.377238 z m -9.36377,9.007203 c -0.2002,0 -0.40034,0.07634 -0.55294,0.228925 l -8.73383,8.725051 c 0.0145,-0.337502 0.0311,-0.674537 0.0501,-1.011825 l -6.05648,6.050277 c -0.45801,0.457523 -0.45801,1.199738 0,1.657263 0.45801,0.457523 1.20083,0.457523 1.65933,0 l 1.2516,-1.250569 c 0.0571,-0.148153 0.14447,-0.287224 0.26407,-0.406694 l 12.67106,-12.658658 c 0.30518,-0.305181 0.30518,-0.799664 0,-1.104845 -0.15259,-0.152588 -0.35274,-0.228925 -0.55294,-0.228925 z" />
      </g>
      <g
         id="g80785-4-1-4-21-4-7-7-9-9"
         transform="translate(2.3732625,41.795296)"
         style="display:inline">
        <path
           d="m 146.85461,18.019882 c -2.52835,0.17383 -20.29122,1.865253 -21.53293,14.043594 -0.15088,1.30177 -0.23633,2.6094 -0.29248,3.918007 l 8.73397,-8.725183 c 0.30518,-0.305179 0.80079,-0.305179 1.10597,0 0.30518,0.305179 0.30518,0.799813 0,1.104991 l -12.67102,12.658327 c -0.45801,0.457524 -0.45801,1.199719 0,1.657243 0.45801,0.457523 1.20069,0.457523 1.65919,0 l 2.78958,-2.786649 c 2.0552,-0.0068 4.10893,-0.123536 6.15045,-0.359378 2.61136,-0.265627 4.73735,-1.292494 6.4737,-2.760769 h -4.92925 l 7.16755,-2.386742 c 0.54932,-0.727058 1.04347,-1.499527 1.48683,-2.300804 h -3.96195 l 5.2022,-2.59817 c 2.0464,-4.977099 2.52981,-10.182228 2.61819,-11.464467 z"
           id="path2-90-7-3-6-4-6-90-9-4-8"
           style="fill:#92d050;fill-opacity:1;stroke-width:0.0488285" />
        <path
           id="path2-90-1-3-9-6-18-1-4-46-2-8"
           style="display:inline;fill:#68923b;fill-opacity:1;stroke-width:0.0488286"
           d="m 146.85474,18.020304 c -2.52835,0.173832 -20.29134,1.865247 -21.53305,14.043589 -0.15088,1.301768 -0.23634,2.608982 -0.29249,3.91759 l 3.41168,-3.408061 c 0.0175,-0.169963 0.0361,-0.339757 0.0558,-0.509529 0.98731,-9.683234 12.41304,-12.73433 18.32705,-13.666351 0.0109,-0.131085 0.0247,-0.285112 0.031,-0.377238 z m -9.36377,9.007203 c -0.2002,0 -0.40034,0.07634 -0.55294,0.228925 l -8.73383,8.725051 c 0.0145,-0.337502 0.0311,-0.674537 0.0501,-1.011825 l -6.05648,6.050277 c -0.45801,0.457523 -0.45801,1.199738 0,1.657263 0.45801,0.457523 1.20083,0.457523 1.65933,0 l 1.2516,-1.250569 c 0.0571,-0.148153 0.14447,-0.287224 0.26407,-0.406694 l 12.67106,-12.658658 c 0.30518,-0.305181 0.30518,-0.799664 0,-1.104845 -0.15259,-0.152588 -0.35274,-0.228925 -0.55294,-0.228925 z" />
      </g>
      <g
         id="g80785-7-0-5-7-0-3-9-1-3"
         transform="translate(16.673711,46.585118)"
         style="display:inline">
        <path
           d="m 146.85461,18.019882 c -2.52835,0.17383 -20.29122,1.865253 -21.53293,14.043594 -0.15088,1.30177 -0.23633,2.6094 -0.29248,3.918007 l 8.73397,-8.725183 c 0.30518,-0.305179 0.80079,-0.305179 1.10597,0 0.30518,0.305179 0.30518,0.799813 0,1.104991 l -12.67102,12.658327 c -0.45801,0.457524 -0.45801,1.199719 0,1.657243 0.45801,0.457523 1.20069,0.457523 1.65919,0 l 2.78958,-2.786649 c 2.0552,-0.0068 4.10893,-0.123536 6.15045,-0.359378 2.61136,-0.265627 4.73735,-1.292494 6.4737,-2.760769 h -4.92925 l 7.16755,-2.386742 c 0.54932,-0.727058 1.04347,-1.499527 1.48683,-2.300804 h -3.96195 l 5.2022,-2.59817 c 2.0464,-4.977099 2.52981,-10.182228 2.61819,-11.464467 z"
           id="path2-90-77-7-0-51-2-6-0-8-2"
           style="fill:#92d050;fill-opacity:1;stroke-width:0.0488285" />
        <path
           id="path2-90-1-4-2-5-9-7-5-3-8-9"
           style="display:inline;fill:#68923b;fill-opacity:1;stroke-width:0.0488286"
           d="m 146.85474,18.020304 c -2.52835,0.173832 -20.29134,1.865247 -21.53305,14.043589 -0.15088,1.301768 -0.23634,2.608982 -0.29249,3.91759 l 3.41168,-3.408061 c 0.0175,-0.169963 0.0361,-0.339757 0.0558,-0.509529 0.98731,-9.683234 12.41304,-12.73433 18.32705,-13.666351 0.0109,-0.131085 0.0247,-0.285112 0.031,-0.377238 z m -9.36377,9.007203 c -0.2002,0 -0.40034,0.07634 -0.55294,0.228925 l -8.73383,8.725051 c 0.0145,-0.337502 0.0311,-0.674537 0.0501,-1.011825 l -6.05648,6.050277 c -0.45801,0.457523 -0.45801,1.199738 0,1.657263 0.45801,0.457523 1.20083,0.457523 1.65933,0 l 1.2516,-1.250569 c 0.0571,-0.148153 0.14447,-0.287224 0.26407,-0.406694 l 12.67106,-12.658658 c 0.30518,-0.305181 0.30518,-0.799664 0,-1.104845 -0.15259,-0.152588 -0.35274,-0.228925 -0.55294,-0.228925 z" />
      </g>
    </g>
    <g
       id="g80849-0-4-6-3-5-3-2-8-8"
       transform="matrix(0.51108015,0,0,0.51108015,39.819466,5.8666605)"
       style="display:inline">
      <g
         id="g80785-3-8-9-8-59-9-3-9-1"
         transform="translate(-17.025069,46.585079)">
        <path
           d="m 146.85461,18.019882 c -2.52835,0.17383 -20.29122,1.865253 -21.53293,14.043594 -0.15088,1.30177 -0.23633,2.6094 -0.29248,3.918007 l 8.73397,-8.725183 c 0.30518,-0.305179 0.80079,-0.305179 1.10597,0 0.30518,0.305179 0.30518,0.799813 0,1.104991 l -12.67102,12.658327 c -0.45801,0.457524 -0.45801,1.199719 0,1.657243 0.45801,0.457523 1.20069,0.457523 1.65919,0 l 2.78958,-2.786649 c 2.0552,-0.0068 4.10893,-0.123536 6.15045,-0.359378 2.61136,-0.265627 4.73735,-1.292494 6.4737,-2.760769 h -4.92925 l 7.16755,-2.386742 c 0.54932,-0.727058 1.04347,-1.499527 1.48683,-2.300804 h -3.96195 l 5.2022,-2.59817 c 2.0464,-4.977099 2.52981,-10.182228 2.61819,-11.464467 z"
           id="path2-90-32-4-3-6-8-4-2-7-3"
           style="fill:#92d050;fill-opacity:1;stroke-width:0.0488285" />
        <path
           id="path2-90-1-44-8-3-3-9-6-8-9-2"
           style="display:inline;fill:#68923b;fill-opacity:1;stroke-width:0.0488286"
           d="m 146.85474,18.020304 c -2.52835,0.173832 -20.29134,1.865247 -21.53305,14.043589 -0.15088,1.301768 -0.23634,2.608982 -0.29249,3.91759 l 3.41168,-3.408061 c 0.0175,-0.169963 0.0361,-0.339757 0.0558,-0.509529 0.98731,-9.683234 12.41304,-12.73433 18.32705,-13.666351 0.0109,-0.131085 0.0247,-0.285112 0.031,-0.377238 z m -9.36377,9.007203 c -0.2002,0 -0.40034,0.07634 -0.55294,0.228925 l -8.73383,8.725051 c 0.0145,-0.337502 0.0311,-0.674537 0.0501,-1.011825 l -6.05648,6.050277 c -0.45801,0.457523 -0.45801,1.199738 0,1.657263 0.45801,0.457523 1.20083,0.457523 1.65933,0 l 1.2516,-1.250569 c 0.0571,-0.148153 0.14447,-0.287224 0.26407,-0.406694 l 12.67106,-12.658658 c 0.30518,-0.305181 0.30518,-0.799664 0,-1.104845 -0.15259,-0.152588 -0.35274,-0.228925 -0.55294,-0.228925 z" />
      </g>
      <g
         id="g80785-4-1-4-21-4-7-7-9-9-7"
         transform="translate(2.3732625,41.795296)"
         style="display:inline">
        <path
           d="m 146.85461,18.019882 c -2.52835,0.17383 -20.29122,1.865253 -21.53293,14.043594 -0.15088,1.30177 -0.23633,2.6094 -0.29248,3.918007 l 8.73397,-8.725183 c 0.30518,-0.305179 0.80079,-0.305179 1.10597,0 0.30518,0.305179 0.30518,0.799813 0,1.104991 l -12.67102,12.658327 c -0.45801,0.457524 -0.45801,1.199719 0,1.657243 0.45801,0.457523 1.20069,0.457523 1.65919,0 l 2.78958,-2.786649 c 2.0552,-0.0068 4.10893,-0.123536 6.15045,-0.359378 2.61136,-0.265627 4.73735,-1.292494 6.4737,-2.760769 h -4.92925 l 7.16755,-2.386742 c 0.54932,-0.727058 1.04347,-1.499527 1.48683,-2.300804 h -3.96195 l 5.2022,-2.59817 c 2.0464,-4.977099 2.52981,-10.182228 2.61819,-11.464467 z"
           id="path2-90-7-3-6-4-6-90-9-4-8-6"
           style="fill:#92d050;fill-opacity:1;stroke-width:0.0488285" />
        <path
           id="path2-90-1-3-9-6-18-1-4-46-2-8-3"
           style="display:inline;fill:#68923b;fill-opacity:1;stroke-width:0.0488286"
           d="m 146.85474,18.020304 c -2.52835,0.173832 -20.29134,1.865247 -21.53305,14.043589 -0.15088,1.301768 -0.23634,2.608982 -0.29249,3.91759 l 3.41168,-3.408061 c 0.0175,-0.169963 0.0361,-0.339757 0.0558,-0.509529 0.98731,-9.683234 12.41304,-12.73433 18.32705,-13.666351 0.0109,-0.131085 0.0247,-0.285112 0.031,-0.377238 z m -9.36377,9.007203 c -0.2002,0 -0.40034,0.07634 -0.55294,0.228925 l -8.73383,8.725051 c 0.0145,-0.337502 0.0311,-0.674537 0.0501,-1.011825 l -6.05648,6.050277 c -0.45801,0.457523 -0.45801,1.199738 0,1.657263 0.45801,0.457523 1.20083,0.457523 1.65933,0 l 1.2516,-1.250569 c 0.0571,-0.148153 0.14447,-0.287224 0.26407,-0.406694 l 12.67106,-12.658658 c 0.30518,-0.305181 0.30518,-0.799664 0,-1.104845 -0.15259,-0.152588 -0.35274,-0.228925 -0.55294,-0.228925 z" />
      </g>
      <g
         id="g80785-7-0-5-7-0-3-9-1-3-8"
         transform="translate(16.673711,46.585118)"
         style="display:inline">
        <path
           d="m 146.85461,18.019882 c -2.52835,0.17383 -20.29122,1.865253 -21.53293,14.043594 -0.15088,1.30177 -0.23633,2.6094 -0.29248,3.918007 l 8.73397,-8.725183 c 0.30518,-0.305179 0.80079,-0.305179 1.10597,0 0.30518,0.305179 0.30518,0.799813 0,1.104991 l -12.67102,12.658327 c -0.45801,0.457524 -0.45801,1.199719 0,1.657243 0.45801,0.457523 1.20069,0.457523 1.65919,0 l 2.78958,-2.786649 c 2.0552,-0.0068 4.10893,-0.123536 6.15045,-0.359378 2.61136,-0.265627 4.73735,-1.292494 6.4737,-2.760769 h -4.92925 l 7.16755,-2.386742 c 0.54932,-0.727058 1.04347,-1.499527 1.48683,-2.300804 h -3.96195 l 5.2022,-2.59817 c 2.0464,-4.977099 2.52981,-10.182228 2.61819,-11.464467 z"
           id="path2-90-77-7-0-51-2-6-0-8-2-2"
           style="fill:#92d050;fill-opacity:1;stroke-width:0.0488285" />
        <path
           id="path2-90-1-4-2-5-9-7-5-3-8-9-7"
           style="display:inline;fill:#68923b;fill-opacity:1;stroke-width:0.0488286"
           d="m 146.85474,18.020304 c -2.52835,0.173832 -20.29134,1.865247 -21.53305,14.043589 -0.15088,1.301768 -0.23634,2.608982 -0.29249,3.91759 l 3.41168,-3.408061 c 0.0175,-0.169963 0.0361,-0.339757 0.0558,-0.509529 0.98731,-9.683234 12.41304,-12.73433 18.32705,-13.666351 0.0109,-0.131085 0.0247,-0.285112 0.031,-0.377238 z m -9.36377,9.007203 c -0.2002,0 -0.40034,0.07634 -0.55294,0.228925 l -8.73383,8.725051 c 0.0145,-0.337502 0.0311,-0.674537 0.0501,-1.011825 l -6.05648,6.050277 c -0.45801,0.457523 -0.45801,1.199738 0,1.657263 0.45801,0.457523 1.20083,0.457523 1.65933,0 l 1.2516,-1.250569 c 0.0571,-0.148153 0.14447,-0.287224 0.26407,-0.406694 l 12.67106,-12.658658 c 0.30518,-0.305181 0.30518,-0.799664 0,-1.104845 -0.15259,-0.152588 -0.35274,-0.228925 -0.55294,-0.228925 z" />
      </g>
    </g>
    <g
       id="g80849-0-4-6-3-5-3-2-8-8-9"
       transform="matrix(0.51108015,0,0,0.51108015,-10.175048,-29.258478)"
       style="display:inline">
      <g
         id="g80785-3-8-9-8-59-9-3-9-1-5"
         transform="translate(-17.025069,46.585079)">
        <path
           d="m 146.85461,18.019882 c -2.52835,0.17383 -20.29122,1.865253 -21.53293,14.043594 -0.15088,1.30177 -0.23633,2.6094 -0.29248,3.918007 l 8.73397,-8.725183 c 0.30518,-0.305179 0.80079,-0.305179 1.10597,0 0.30518,0.305179 0.30518,0.799813 0,1.104991 l -12.67102,12.658327 c -0.45801,0.457524 -0.45801,1.199719 0,1.657243 0.45801,0.457523 1.20069,0.457523 1.65919,0 l 2.78958,-2.786649 c 2.0552,-0.0068 4.10893,-0.123536 6.15045,-0.359378 2.61136,-0.265627 4.73735,-1.292494 6.4737,-2.760769 h -4.92925 l 7.16755,-2.386742 c 0.54932,-0.727058 1.04347,-1.499527 1.48683,-2.300804 h -3.96195 l 5.2022,-2.59817 c 2.0464,-4.977099 2.52981,-10.182228 2.61819,-11.464467 z"
           id="path2-90-32-4-3-6-8-4-2-7-3-1"
           style="fill:#92d050;fill-opacity:1;stroke-width:0.0488285" />
        <path
           id="path2-90-1-44-8-3-3-9-6-8-9-2-1"
           style="display:inline;fill:#68923b;fill-opacity:1;stroke-width:0.0488286"
           d="m 146.85474,18.020304 c -2.52835,0.173832 -20.29134,1.865247 -21.53305,14.043589 -0.15088,1.301768 -0.23634,2.608982 -0.29249,3.91759 l 3.41168,-3.408061 c 0.0175,-0.169963 0.0361,-0.339757 0.0558,-0.509529 0.98731,-9.683234 12.41304,-12.73433 18.32705,-13.666351 0.0109,-0.131085 0.0247,-0.285112 0.031,-0.377238 z m -9.36377,9.007203 c -0.2002,0 -0.40034,0.07634 -0.55294,0.228925 l -8.73383,8.725051 c 0.0145,-0.337502 0.0311,-0.674537 0.0501,-1.011825 l -6.05648,6.050277 c -0.45801,0.457523 -0.45801,1.199738 0,1.657263 0.45801,0.457523 1.20083,0.457523 1.65933,0 l 1.2516,-1.250569 c 0.0571,-0.148153 0.14447,-0.287224 0.26407,-0.406694 l 12.67106,-12.658658 c 0.30518,-0.305181 0.30518,-0.799664 0,-1.104845 -0.15259,-0.152588 -0.35274,-0.228925 -0.55294,-0.228925 z" />
      </g>
      <g
         id="g80785-4-1-4-21-4-7-7-9-9-7-8"
         transform="translate(2.3732625,41.795296)"
         style="display:inline">
        <path
           d="m 146.85461,18.019882 c -2.52835,0.17383 -20.29122,1.865253 -21.53293,14.043594 -0.15088,1.30177 -0.23633,2.6094 -0.29248,3.918007 l 8.73397,-8.725183 c 0.30518,-0.305179 0.80079,-0.305179 1.10597,0 0.30518,0.305179 0.30518,0.799813 0,1.104991 l -12.67102,12.658327 c -0.45801,0.457524 -0.45801,1.199719 0,1.657243 0.45801,0.457523 1.20069,0.457523 1.65919,0 l 2.78958,-2.786649 c 2.0552,-0.0068 4.10893,-0.123536 6.15045,-0.359378 2.61136,-0.265627 4.73735,-1.292494 6.4737,-2.760769 h -4.92925 l 7.16755,-2.386742 c 0.54932,-0.727058 1.04347,-1.499527 1.48683,-2.300804 h -3.96195 l 5.2022,-2.59817 c 2.0464,-4.977099 2.52981,-10.182228 2.61819,-11.464467 z"
           id="path2-90-7-3-6-4-6-90-9-4-8-6-5"
           style="fill:#92d050;fill-opacity:1;stroke-width:0.0488285" />
        <path
           id="path2-90-1-3-9-6-18-1-4-46-2-8-3-3"
           style="display:inline;fill:#68923b;fill-opacity:1;stroke-width:0.0488286"
           d="m 146.85474,18.020304 c -2.52835,0.173832 -20.29134,1.865247 -21.53305,14.043589 -0.15088,1.301768 -0.23634,2.608982 -0.29249,3.91759 l 3.41168,-3.408061 c 0.0175,-0.169963 0.0361,-0.339757 0.0558,-0.509529 0.98731,-9.683234 12.41304,-12.73433 18.32705,-13.666351 0.0109,-0.131085 0.0247,-0.285112 0.031,-0.377238 z m -9.36377,9.007203 c -0.2002,0 -0.40034,0.07634 -0.55294,0.228925 l -8.73383,8.725051 c 0.0145,-0.337502 0.0311,-0.674537 0.0501,-1.011825 l -6.05648,6.050277 c -0.45801,0.457523 -0.45801,1.199738 0,1.657263 0.45801,0.457523 1.20083,0.457523 1.65933,0 l 1.2516,-1.250569 c 0.0571,-0.148153 0.14447,-0.287224 0.26407,-0.406694 l 12.67106,-12.658658 c 0.30518,-0.305181 0.30518,-0.799664 0,-1.104845 -0.15259,-0.152588 -0.35274,-0.228925 -0.55294,-0.228925 z" />
      </g>
      <g
         id="g80785-7-0-5-7-0-3-9-1-3-8-1"
         transform="translate(16.673711,46.585118)"
         style="display:inline">
        <path
           d="m 146.85461,18.019882 c -2.52835,0.17383 -20.29122,1.865253 -21.53293,14.043594 -0.15088,1.30177 -0.23633,2.6094 -0.29248,3.918007 l 8.73397,-8.725183 c 0.30518,-0.305179 0.80079,-0.305179 1.10597,0 0.30518,0.305179 0.30518,0.799813 0,1.104991 l -12.67102,12.658327 c -0.45801,0.457524 -0.45801,1.199719 0,1.657243 0.45801,0.457523 1.20069,0.457523 1.65919,0 l 2.78958,-2.786649 c 2.0552,-0.0068 4.10893,-0.123536 6.15045,-0.359378 2.61136,-0.265627 4.73735,-1.292494 6.4737,-2.760769 h -4.92925 l 7.16755,-2.386742 c 0.54932,-0.727058 1.04347,-1.499527 1.48683,-2.300804 h -3.96195 l 5.2022,-2.59817 c 2.0464,-4.977099 2.52981,-10.182228 2.61819,-11.464467 z"
           id="path2-90-77-7-0-51-2-6-0-8-2-2-1"
           style="fill:#92d050;fill-opacity:1;stroke-width:0.0488285" />
        <path
           id="path2-90-1-4-2-5-9-7-5-3-8-9-7-1"
           style="display:inline;fill:#68923b;fill-opacity:1;stroke-width:0.0488286"
           d="m 146.85474,18.020304 c -2.52835,0.173832 -20.29134,1.865247 -21.53305,14.043589 -0.15088,1.301768 -0.23634,2.608982 -0.29249,3.91759 l 3.41168,-3.408061 c 0.0175,-0.169963 0.0361,-0.339757 0.0558,-0.509529 0.98731,-9.683234 12.41304,-12.73433 18.32705,-13.666351 0.0109,-0.131085 0.0247,-0.285112 0.031,-0.377238 z m -9.36377,9.007203 c -0.2002,0 -0.40034,0.07634 -0.55294,0.228925 l -8.73383,8.725051 c 0.0145,-0.337502 0.0311,-0.674537 0.0501,-1.011825 l -6.05648,6.050277 c -0.45801,0.457523 -0.45801,1.199738 0,1.657263 0.45801,0.457523 1.20083,0.457523 1.65933,0 l 1.2516,-1.250569 c 0.0571,-0.148153 0.14447,-0.287224 0.26407,-0.406694 l 12.67106,-12.658658 c 0.30518,-0.305181 0.30518,-0.799664 0,-1.104845 -0.15259,-0.152588 -0.35274,-0.228925 -0.55294,-0.228925 z" />
      </g>
    </g>
  </g>
</svg>
