<?xml version="1.0" encoding="UTF-8" standalone="no"?>
<!-- Created with Inkscape (http://www.inkscape.org/) -->

<svg
   width="500"
   height="500"
   viewBox="0 0 132.29166 132.29167"
   version="1.1"
   id="svg2515"
   inkscape:version="1.1.2 (b8e25be833, 2022-02-05)"
   sodipodi:docname="bonsai12s02normal.svg"
   inkscape:export-filename="C:\Users\Lenovo\Desktop\Coding\Media files\Bonsais\bonsai12.png"
   inkscape:export-xdpi="96"
   inkscape:export-ydpi="96"
   xmlns:inkscape="http://www.inkscape.org/namespaces/inkscape"
   xmlns:sodipodi="http://sodipodi.sourceforge.net/DTD/sodipodi-0.dtd"
   xmlns="http://www.w3.org/2000/svg"
   xmlns:svg="http://www.w3.org/2000/svg">
  <sodipodi:namedview
     id="namedview2517"
     pagecolor="#ffffff"
     bordercolor="#666666"
     borderopacity="1.0"
     inkscape:pageshadow="2"
     inkscape:pageopacity="0.0"
     inkscape:pagecheckerboard="0"
     inkscape:document-units="mm"
     showgrid="false"
     units="px"
     inkscape:zoom="1.4142136"
     inkscape:cx="278.24651"
     inkscape:cy="258.44752"
     inkscape:window-width="1920"
     inkscape:window-height="1001"
     inkscape:window-x="-9"
     inkscape:window-y="-9"
     inkscape:window-maximized="1"
     inkscape:current-layer="g17385" />
  <defs
     id="defs2512">
    <marker
       style="overflow:visible"
       id="Arrow1Sstart"
       refX="0.0"
       refY="0.0"
       orient="auto"
       inkscape:stockid="Arrow1Sstart"
       inkscape:isstock="true">
      <path
         transform="scale(0.2) translate(6,0)"
         style="fill-rule:evenodd;fill:context-stroke;stroke:context-stroke;stroke-width:1.0pt"
         d="M 0.0,0.0 L 5.0,-5.0 L -12.5,0.0 L 5.0,5.0 L 0.0,0.0 z "
         id="path24092" />
    </marker>
    <marker
       style="overflow:visible"
       id="Arrow1Mstart"
       refX="0.0"
       refY="0.0"
       orient="auto"
       inkscape:stockid="Arrow1Mstart"
       inkscape:isstock="true">
      <path
         transform="scale(0.4) translate(10,0)"
         style="fill-rule:evenodd;fill:context-stroke;stroke:context-stroke;stroke-width:1.0pt"
         d="M 0.0,0.0 L 5.0,-5.0 L -12.5,0.0 L 5.0,5.0 L 0.0,0.0 z "
         id="path24086" />
    </marker>
    <marker
       style="overflow:visible"
       id="Arrow1Lstart"
       refX="0.0"
       refY="0.0"
       orient="auto"
       inkscape:stockid="Arrow1Lstart"
       inkscape:isstock="true">
      <path
         transform="scale(0.8) translate(12.5,0)"
         style="fill-rule:evenodd;fill:context-stroke;stroke:context-stroke;stroke-width:1.0pt"
         d="M 0.0,0.0 L 5.0,-5.0 L -12.5,0.0 L 5.0,5.0 L 0.0,0.0 z "
         id="path24080" />
    </marker>
    <marker
       style="overflow:visible;"
       id="Arrow1Lend"
       refX="0.0"
       refY="0.0"
       orient="auto"
       inkscape:stockid="Arrow1Lend"
       inkscape:isstock="true">
      <path
         transform="scale(0.8) rotate(180) translate(12.5,0)"
         style="fill-rule:evenodd;fill:context-stroke;stroke:context-stroke;stroke-width:1.0pt;"
         d="M 0.0,0.0 L 5.0,-5.0 L -12.5,0.0 L 5.0,5.0 L 0.0,0.0 z "
         id="path24083" />
    </marker>
  </defs>
  <g
     inkscape:label="Informal Upright Style"
     inkscape:groupmode="layer"
     id="g17385"
     style="display:inline">
    <g
       id="g17299"
       transform="translate(157.36058,-8.4372489)"
       style="display:inline">
      <g
         id="g17297"
         transform="translate(-99.28418,15.207661)">
        <path
           style="display:inline;fill:#e0af9a;fill-opacity:1;stroke:#e0af9a;stroke-width:1;stroke-linecap:round;stroke-linejoin:round;stroke-miterlimit:4;stroke-dasharray:none;stroke-opacity:1"
           d="m 1.3438111,105.02403 c 0,0 1.67276,-4.3889 -5.29634,-12.902323 -5.77031,-7.049 -13.8088901,-10.89145 -10.0810001,-22.220767 2.98845,-9.082106 31.71641,-16.843433 36.92376,-22.50005 9.82115,-10.668487 4.67956,-12.619651 -1.58353,-22.120096 C 16.120271,17.413522 8.0705011,20.957555 7.7574611,9.5870616 14.803541,20.119696 25.572371,18.866153 27.251611,28.55162 c 3.25423,4.596313 8.98302,11.718683 5.98525,14.797826 -2.2954,2.357716 -9.08519,15.422411 -20.03503,17.643247 -9.5903099,1.945097 -16.1629199,12.6144 -16.1629199,12.6144 -0.83876,8.885304 16.1910099,9.784984 21.9744099,18.254694 5.64474,8.266633 8.35928,5.77528 10.95842,12.103913 1.20531,2.9348 -28.6279299,1.05833 -28.6279299,1.05833 z"
           id="path17293"
           sodipodi:nodetypes="cssssccsssssc" />
        <path
           id="path17295"
           style="display:inline;fill:#a6705c;fill-opacity:1;stroke:#a6705c;stroke-width:3.77953;stroke-linecap:round;stroke-linejoin:round;stroke-miterlimit:4;stroke-dasharray:none;stroke-opacity:1"
           d="m 616.93555,1.8886719 c 0.55432,20.1347921 7.52722,27.8974661 16.79883,33.5175781 -5.45695,-5.012127 -9.35289,-12.21383 -10.31641,-24.990234 -2.22889,-2.6069221 -4.40217,-5.4177306 -6.48242,-8.5273441 z m 41.48828,48.2539061 c 3.39981,2.902953 6.69017,6.465507 9.7207,11.0625 23.67153,35.907194 43.10565,43.281672 5.98633,83.603512 -19.68132,21.37934 -128.25976,50.713 -139.55469,85.03907 -14.08966,42.81948 16.29251,57.34248 38.10156,83.98437 26.33989,32.17671 20.01758,48.76367 20.01758,48.76367 0,0 2.85378,0.16826 6.91797,0.39063 0.26375,-6.79288 -1.99109,-21.72151 -20.65039,-44.51563 -21.80905,-26.64189 -52.19123,-41.16294 -38.10156,-83.98242 11.29493,-34.32607 119.87336,-63.66167 139.55469,-85.04101 37.11932,-40.32185 17.68519,-47.69633 -5.98633,-83.60352 -4.87199,-7.390285 -10.41195,-12.111719 -16.00586,-15.701172 z"
           transform="matrix(0.26458333,0,0,0.26458333,-155.47346,9.0871833)"
           sodipodi:nodetypes="cccccssssccssssc" />
      </g>
    </g>
    <g
       id="g54773-4-0"
       transform="matrix(0.85856851,0,0,1.0007543,-30.935319,62.952448)"
       style="display:inline">
      <path
         d="m 145.34527,60.22495 v 5.820833 h -16.14664 l -4.79425,-5.820833 h 20.94089"
         style="fill:#bdb864;fill-opacity:1;fill-rule:nonzero;stroke:none;stroke-width:0.0352778"
         id="path594-9-4" />
      <path
         d="m 104.96986,60.22495 -4.79425,5.820833 H 84.134802 V 60.22495 h 20.835058"
         style="fill:#bdb764;fill-opacity:1;fill-rule:nonzero;stroke:none;stroke-width:0.0352778"
         id="path600-2-58" />
      <path
         d="m 84.134802,60.22495 h 4.938888 v 5.820833 H 84.134802 V 60.22495"
         style="fill:#a19d53;fill-opacity:1;fill-rule:nonzero;stroke:none;stroke-width:0.0352778"
         id="path622-2-22" />
      <path
         d="m 77.791857,43.214006 c 0,6.057194 2.204861,12.463639 6.198306,17.010944 h 61.393917 c 1.99672,-2.271889 3.54541,-5.012972 4.59316,-7.9375 1.05128,-2.928055 1.60162,-6.043083 1.60162,-9.073444 H 77.791857"
         style="fill:#cfca71;fill-opacity:1;fill-rule:nonzero;stroke:none;stroke-width:0.0352778"
         id="path624-9-5" />
      <path
         d="m 77.791857,43.214006 c 0,6.057194 2.204861,12.463639 6.198306,17.010944 h 4.942416 C 84.935607,55.677645 82.734274,49.2712 82.734274,43.214006 h -4.942417 v 0"
         style="fill:#bbb351;fill-opacity:1;fill-rule:nonzero;stroke:none;stroke-width:0.0352778"
         id="path626-3-59" />
    </g>
    <g
       id="g52262-6-1"
       transform="matrix(0.98398321,0,0,0.98398321,-109.00276,49.306514)"
       style="display:inline">
      <g
         id="g52161-24-5"
         transform="translate(2.80633,13.657473)">
        <circle
           cx="128.43347"
           cy="19.267973"
           r="3.3333101"
           id="circle4-75-9"
           style="fill:#cccc00;fill-opacity:1;stroke-width:0.0520829" />
        <path
           d="m 140.66464,18.36173 c -1.37811,-2.131235 -3.16612,-3.941639 -5.17027,-5.235901 -2.21718,-1.433324 -4.66508,-2.191131 -7.0786,-2.191131 -2.21457,0 -4.39216,0.632808 -6.47235,1.880716 -2.12134,1.272387 -4.0432,3.131229 -5.71246,5.524441 a 1.6624884,1.6624884 0 0 0 -0.0333,1.851029 c 1.37551,2.152589 3.14581,3.965597 5.11871,5.24215 2.22134,1.439053 4.61195,2.168214 7.09943,2.168214 2.4328,0 4.8859,-0.751556 7.0937,-2.1729 2.00311,-1.290096 3.78748,-3.107271 5.16038,-5.256214 a 1.6770716,1.6770716 0 0 0 -0.005,-1.810404 z m -12.23116,5.906209 a 4.9999651,4.9999651 0 1 1 4.99996,-4.999965 5.0056942,5.0056942 0 0 1 -4.99996,4.999965 z"
           id="path6-3-9"
           style="fill:#cccc00;fill-opacity:1;stroke-width:0.0520829" />
        <path
           id="circle4-7-83-5"
           style="display:inline;fill:#929208;fill-opacity:1;stroke-width:0.052083"
           d="m 128.43364,15.935 a 3.33331,3.33331 0 0 0 -3.33364,3.333128 3.33331,3.33331 0 0 0 3.33364,3.333131 3.33331,3.33331 0 0 0 1.32292,-0.276469 3.33331,3.33331 0 0 1 -2.01022,-3.056662 3.33331,3.33331 0 0 1 2.0128,-3.058726 3.33331,3.33331 0 0 0 -1.3255,-0.274402 z" />
        <path
           id="path6-9-8-9"
           style="display:inline;fill:#929208;fill-opacity:1;stroke-width:0.052083"
           d="m 128.4161,10.935 c -2.21457,0 -4.39176,0.633113 -6.47195,1.881021 -2.12134,1.272389 -4.04357,3.130999 -5.71283,5.524211 a 1.6624884,1.6624884 0 0 0 -0.0331,1.851049 c 1.37551,2.152589 3.14566,3.965506 5.11856,5.242057 2.22134,1.439056 4.61234,2.168345 7.09982,2.168345 0.4346,0 0.86941,-0.02433 1.3038,-0.07183 -2.00611,-0.215829 -3.9384,-0.918187 -5.75727,-2.096514 -1.9729,-1.276551 -3.74356,-3.089468 -5.11907,-5.242057 a 1.6624884,1.6624884 0 0 1 0.0336,-1.851049 c 1.66926,-2.393212 3.59097,-4.251822 5.71231,-5.524211 1.66601,-0.999435 3.39481,-1.60328 5.15472,-1.804541 -0.44288,-0.05037 -0.88638,-0.07648 -1.3286,-0.07648 z m 2.10427,3.365169 a 4.9999651,4.9999651 0 0 0 -0.70745,0.203605 4.9999651,4.9999651 0 0 1 3.62097,4.764566 5.0056941,5.0056941 0 0 1 -3.59565,4.789374 4.9999651,4.9999651 0 0 0 1.24178,0.210839 5.0056941,5.0056941 0 0 0 5.00022,-5.000213 4.9999651,4.9999651 0 0 0 -5.55987,-4.968171 z" />
      </g>
      <g
         id="g52161-2-5-7"
         transform="translate(17.432111,2.9961017)"
         style="display:inline">
        <circle
           cx="128.43347"
           cy="19.267973"
           r="3.3333101"
           id="circle4-9-3-2"
           style="fill:#cccc00;fill-opacity:1;stroke-width:0.0520829" />
        <path
           d="m 140.66464,18.36173 c -1.37811,-2.131235 -3.16612,-3.941639 -5.17027,-5.235901 -2.21718,-1.433324 -4.66508,-2.191131 -7.0786,-2.191131 -2.21457,0 -4.39216,0.632808 -6.47235,1.880716 -2.12134,1.272387 -4.0432,3.131229 -5.71246,5.524441 a 1.6624884,1.6624884 0 0 0 -0.0333,1.851029 c 1.37551,2.152589 3.14581,3.965597 5.11871,5.24215 2.22134,1.439053 4.61195,2.168214 7.09943,2.168214 2.4328,0 4.8859,-0.751556 7.0937,-2.1729 2.00311,-1.290096 3.78748,-3.107271 5.16038,-5.256214 a 1.6770716,1.6770716 0 0 0 -0.005,-1.810404 z m -12.23116,5.906209 a 4.9999651,4.9999651 0 1 1 4.99996,-4.999965 5.0056942,5.0056942 0 0 1 -4.99996,4.999965 z"
           id="path6-5-5-4"
           style="fill:#cccc00;fill-opacity:1;stroke-width:0.0520829" />
        <path
           id="circle4-7-8-8-4"
           style="display:inline;fill:#929208;fill-opacity:1;stroke-width:0.052083"
           d="m 128.43364,15.935 a 3.33331,3.33331 0 0 0 -3.33364,3.333128 3.33331,3.33331 0 0 0 3.33364,3.333131 3.33331,3.33331 0 0 0 1.32292,-0.276469 3.33331,3.33331 0 0 1 -2.01022,-3.056662 3.33331,3.33331 0 0 1 2.0128,-3.058726 3.33331,3.33331 0 0 0 -1.3255,-0.274402 z" />
        <path
           id="path6-9-2-7-5"
           style="display:inline;fill:#929208;fill-opacity:1;stroke-width:0.052083"
           d="m 128.4161,10.935 c -2.21457,0 -4.39176,0.633113 -6.47195,1.881021 -2.12134,1.272389 -4.04357,3.130999 -5.71283,5.524211 a 1.6624884,1.6624884 0 0 0 -0.0331,1.851049 c 1.37551,2.152589 3.14566,3.965506 5.11856,5.242057 2.22134,1.439056 4.61234,2.168345 7.09982,2.168345 0.4346,0 0.86941,-0.02433 1.3038,-0.07183 -2.00611,-0.215829 -3.9384,-0.918187 -5.75727,-2.096514 -1.9729,-1.276551 -3.74356,-3.089468 -5.11907,-5.242057 a 1.6624884,1.6624884 0 0 1 0.0336,-1.851049 c 1.66926,-2.393212 3.59097,-4.251822 5.71231,-5.524211 1.66601,-0.999435 3.39481,-1.60328 5.15472,-1.804541 -0.44288,-0.05037 -0.88638,-0.07648 -1.3286,-0.07648 z m 2.10427,3.365169 a 4.9999651,4.9999651 0 0 0 -0.70745,0.203605 4.9999651,4.9999651 0 0 1 3.62097,4.764566 5.0056941,5.0056941 0 0 1 -3.59565,4.789374 4.9999651,4.9999651 0 0 0 1.24178,0.210839 5.0056941,5.0056941 0 0 0 5.00022,-5.000213 4.9999651,4.9999651 0 0 0 -5.55987,-4.968171 z" />
      </g>
      <g
         id="g52161-2-2-9-5"
         transform="translate(31.668923,13.657602)"
         style="display:inline">
        <circle
           cx="128.43347"
           cy="19.267973"
           r="3.3333101"
           id="circle4-9-4-3-5"
           style="fill:#cccc00;fill-opacity:1;stroke-width:0.0520829" />
        <path
           d="m 140.66464,18.36173 c -1.37811,-2.131235 -3.16612,-3.941639 -5.17027,-5.235901 -2.21718,-1.433324 -4.66508,-2.191131 -7.0786,-2.191131 -2.21457,0 -4.39216,0.632808 -6.47235,1.880716 -2.12134,1.272387 -4.0432,3.131229 -5.71246,5.524441 a 1.6624884,1.6624884 0 0 0 -0.0333,1.851029 c 1.37551,2.152589 3.14581,3.965597 5.11871,5.24215 2.22134,1.439053 4.61195,2.168214 7.09943,2.168214 2.4328,0 4.8859,-0.751556 7.0937,-2.1729 2.00311,-1.290096 3.78748,-3.107271 5.16038,-5.256214 a 1.6770716,1.6770716 0 0 0 -0.005,-1.810404 z m -12.23116,5.906209 a 4.9999651,4.9999651 0 1 1 4.99996,-4.999965 5.0056942,5.0056942 0 0 1 -4.99996,4.999965 z"
           id="path6-5-6-9-0"
           style="fill:#cccc00;fill-opacity:1;stroke-width:0.0520829" />
        <path
           id="circle4-7-8-1-7-1"
           style="display:inline;fill:#929208;fill-opacity:1;stroke-width:0.052083"
           d="m 128.43364,15.935 a 3.33331,3.33331 0 0 0 -3.33364,3.333128 3.33331,3.33331 0 0 0 3.33364,3.333131 3.33331,3.33331 0 0 0 1.32292,-0.276469 3.33331,3.33331 0 0 1 -2.01022,-3.056662 3.33331,3.33331 0 0 1 2.0128,-3.058726 3.33331,3.33331 0 0 0 -1.3255,-0.274402 z" />
        <path
           id="path6-9-2-9-0-9"
           style="display:inline;fill:#929208;fill-opacity:1;stroke-width:0.052083"
           d="m 128.4161,10.935 c -2.21457,0 -4.39176,0.633113 -6.47195,1.881021 -2.12134,1.272389 -4.04357,3.130999 -5.71283,5.524211 a 1.6624884,1.6624884 0 0 0 -0.0331,1.851049 c 1.37551,2.152589 3.14566,3.965506 5.11856,5.242057 2.22134,1.439056 4.61234,2.168345 7.09982,2.168345 0.4346,0 0.86941,-0.02433 1.3038,-0.07183 -2.00611,-0.215829 -3.9384,-0.918187 -5.75727,-2.096514 -1.9729,-1.276551 -3.74356,-3.089468 -5.11907,-5.242057 a 1.6624884,1.6624884 0 0 1 0.0336,-1.851049 c 1.66926,-2.393212 3.59097,-4.251822 5.71231,-5.524211 1.66601,-0.999435 3.39481,-1.60328 5.15472,-1.804541 -0.44288,-0.05037 -0.88638,-0.07648 -1.3286,-0.07648 z m 2.10427,3.365169 a 4.9999651,4.9999651 0 0 0 -0.70745,0.203605 4.9999651,4.9999651 0 0 1 3.62097,4.764566 5.0056941,5.0056941 0 0 1 -3.59565,4.789374 4.9999651,4.9999651 0 0 0 1.24178,0.210839 5.0056941,5.0056941 0 0 0 5.00022,-5.000213 4.9999651,4.9999651 0 0 0 -5.55987,-4.968171 z" />
      </g>
    </g>
    <g
       id="g52262-6-1-5"
       transform="matrix(0.98398321,0,0,0.98398321,-46.04317,37.337849)"
       style="display:inline">
      <g
         id="g52161-24-5-0"
         transform="translate(2.80633,13.657473)">
        <circle
           cx="128.43347"
           cy="19.267973"
           r="3.3333101"
           id="circle4-75-9-9"
           style="fill:#cccc00;fill-opacity:1;stroke-width:0.0520829" />
        <path
           d="m 140.66464,18.36173 c -1.37811,-2.131235 -3.16612,-3.941639 -5.17027,-5.235901 -2.21718,-1.433324 -4.66508,-2.191131 -7.0786,-2.191131 -2.21457,0 -4.39216,0.632808 -6.47235,1.880716 -2.12134,1.272387 -4.0432,3.131229 -5.71246,5.524441 a 1.6624884,1.6624884 0 0 0 -0.0333,1.851029 c 1.37551,2.152589 3.14581,3.965597 5.11871,5.24215 2.22134,1.439053 4.61195,2.168214 7.09943,2.168214 2.4328,0 4.8859,-0.751556 7.0937,-2.1729 2.00311,-1.290096 3.78748,-3.107271 5.16038,-5.256214 a 1.6770716,1.6770716 0 0 0 -0.005,-1.810404 z m -12.23116,5.906209 a 4.9999651,4.9999651 0 1 1 4.99996,-4.999965 5.0056942,5.0056942 0 0 1 -4.99996,4.999965 z"
           id="path6-3-9-5"
           style="fill:#cccc00;fill-opacity:1;stroke-width:0.0520829" />
        <path
           id="circle4-7-83-5-3"
           style="display:inline;fill:#929208;fill-opacity:1;stroke-width:0.052083"
           d="m 128.43364,15.935 a 3.33331,3.33331 0 0 0 -3.33364,3.333128 3.33331,3.33331 0 0 0 3.33364,3.333131 3.33331,3.33331 0 0 0 1.32292,-0.276469 3.33331,3.33331 0 0 1 -2.01022,-3.056662 3.33331,3.33331 0 0 1 2.0128,-3.058726 3.33331,3.33331 0 0 0 -1.3255,-0.274402 z" />
        <path
           id="path6-9-8-9-2"
           style="display:inline;fill:#929208;fill-opacity:1;stroke-width:0.052083"
           d="m 128.4161,10.935 c -2.21457,0 -4.39176,0.633113 -6.47195,1.881021 -2.12134,1.272389 -4.04357,3.130999 -5.71283,5.524211 a 1.6624884,1.6624884 0 0 0 -0.0331,1.851049 c 1.37551,2.152589 3.14566,3.965506 5.11856,5.242057 2.22134,1.439056 4.61234,2.168345 7.09982,2.168345 0.4346,0 0.86941,-0.02433 1.3038,-0.07183 -2.00611,-0.215829 -3.9384,-0.918187 -5.75727,-2.096514 -1.9729,-1.276551 -3.74356,-3.089468 -5.11907,-5.242057 a 1.6624884,1.6624884 0 0 1 0.0336,-1.851049 c 1.66926,-2.393212 3.59097,-4.251822 5.71231,-5.524211 1.66601,-0.999435 3.39481,-1.60328 5.15472,-1.804541 -0.44288,-0.05037 -0.88638,-0.07648 -1.3286,-0.07648 z m 2.10427,3.365169 a 4.9999651,4.9999651 0 0 0 -0.70745,0.203605 4.9999651,4.9999651 0 0 1 3.62097,4.764566 5.0056941,5.0056941 0 0 1 -3.59565,4.789374 4.9999651,4.9999651 0 0 0 1.24178,0.210839 5.0056941,5.0056941 0 0 0 5.00022,-5.000213 4.9999651,4.9999651 0 0 0 -5.55987,-4.968171 z" />
      </g>
      <g
         id="g52161-2-5-7-5"
         transform="translate(17.432111,2.9961017)"
         style="display:inline">
        <circle
           cx="128.43347"
           cy="19.267973"
           r="3.3333101"
           id="circle4-9-3-2-0"
           style="fill:#cccc00;fill-opacity:1;stroke-width:0.0520829" />
        <path
           d="m 140.66464,18.36173 c -1.37811,-2.131235 -3.16612,-3.941639 -5.17027,-5.235901 -2.21718,-1.433324 -4.66508,-2.191131 -7.0786,-2.191131 -2.21457,0 -4.39216,0.632808 -6.47235,1.880716 -2.12134,1.272387 -4.0432,3.131229 -5.71246,5.524441 a 1.6624884,1.6624884 0 0 0 -0.0333,1.851029 c 1.37551,2.152589 3.14581,3.965597 5.11871,5.24215 2.22134,1.439053 4.61195,2.168214 7.09943,2.168214 2.4328,0 4.8859,-0.751556 7.0937,-2.1729 2.00311,-1.290096 3.78748,-3.107271 5.16038,-5.256214 a 1.6770716,1.6770716 0 0 0 -0.005,-1.810404 z m -12.23116,5.906209 a 4.9999651,4.9999651 0 1 1 4.99996,-4.999965 5.0056942,5.0056942 0 0 1 -4.99996,4.999965 z"
           id="path6-5-5-4-5"
           style="fill:#cccc00;fill-opacity:1;stroke-width:0.0520829" />
        <path
           id="circle4-7-8-8-4-4"
           style="display:inline;fill:#929208;fill-opacity:1;stroke-width:0.052083"
           d="m 128.43364,15.935 a 3.33331,3.33331 0 0 0 -3.33364,3.333128 3.33331,3.33331 0 0 0 3.33364,3.333131 3.33331,3.33331 0 0 0 1.32292,-0.276469 3.33331,3.33331 0 0 1 -2.01022,-3.056662 3.33331,3.33331 0 0 1 2.0128,-3.058726 3.33331,3.33331 0 0 0 -1.3255,-0.274402 z" />
        <path
           id="path6-9-2-7-5-2"
           style="display:inline;fill:#929208;fill-opacity:1;stroke-width:0.052083"
           d="m 128.4161,10.935 c -2.21457,0 -4.39176,0.633113 -6.47195,1.881021 -2.12134,1.272389 -4.04357,3.130999 -5.71283,5.524211 a 1.6624884,1.6624884 0 0 0 -0.0331,1.851049 c 1.37551,2.152589 3.14566,3.965506 5.11856,5.242057 2.22134,1.439056 4.61234,2.168345 7.09982,2.168345 0.4346,0 0.86941,-0.02433 1.3038,-0.07183 -2.00611,-0.215829 -3.9384,-0.918187 -5.75727,-2.096514 -1.9729,-1.276551 -3.74356,-3.089468 -5.11907,-5.242057 a 1.6624884,1.6624884 0 0 1 0.0336,-1.851049 c 1.66926,-2.393212 3.59097,-4.251822 5.71231,-5.524211 1.66601,-0.999435 3.39481,-1.60328 5.15472,-1.804541 -0.44288,-0.05037 -0.88638,-0.07648 -1.3286,-0.07648 z m 2.10427,3.365169 a 4.9999651,4.9999651 0 0 0 -0.70745,0.203605 4.9999651,4.9999651 0 0 1 3.62097,4.764566 5.0056941,5.0056941 0 0 1 -3.59565,4.789374 4.9999651,4.9999651 0 0 0 1.24178,0.210839 5.0056941,5.0056941 0 0 0 5.00022,-5.000213 4.9999651,4.9999651 0 0 0 -5.55987,-4.968171 z" />
      </g>
      <g
         id="g52161-2-2-9-5-6"
         transform="translate(31.668923,13.657602)"
         style="display:inline">
        <circle
           cx="128.43347"
           cy="19.267973"
           r="3.3333101"
           id="circle4-9-4-3-5-3"
           style="fill:#cccc00;fill-opacity:1;stroke-width:0.0520829" />
        <path
           d="m 140.66464,18.36173 c -1.37811,-2.131235 -3.16612,-3.941639 -5.17027,-5.235901 -2.21718,-1.433324 -4.66508,-2.191131 -7.0786,-2.191131 -2.21457,0 -4.39216,0.632808 -6.47235,1.880716 -2.12134,1.272387 -4.0432,3.131229 -5.71246,5.524441 a 1.6624884,1.6624884 0 0 0 -0.0333,1.851029 c 1.37551,2.152589 3.14581,3.965597 5.11871,5.24215 2.22134,1.439053 4.61195,2.168214 7.09943,2.168214 2.4328,0 4.8859,-0.751556 7.0937,-2.1729 2.00311,-1.290096 3.78748,-3.107271 5.16038,-5.256214 a 1.6770716,1.6770716 0 0 0 -0.005,-1.810404 z m -12.23116,5.906209 a 4.9999651,4.9999651 0 1 1 4.99996,-4.999965 5.0056942,5.0056942 0 0 1 -4.99996,4.999965 z"
           id="path6-5-6-9-0-0"
           style="fill:#cccc00;fill-opacity:1;stroke-width:0.0520829" />
        <path
           id="circle4-7-8-1-7-1-7"
           style="display:inline;fill:#929208;fill-opacity:1;stroke-width:0.052083"
           d="m 128.43364,15.935 a 3.33331,3.33331 0 0 0 -3.33364,3.333128 3.33331,3.33331 0 0 0 3.33364,3.333131 3.33331,3.33331 0 0 0 1.32292,-0.276469 3.33331,3.33331 0 0 1 -2.01022,-3.056662 3.33331,3.33331 0 0 1 2.0128,-3.058726 3.33331,3.33331 0 0 0 -1.3255,-0.274402 z" />
        <path
           id="path6-9-2-9-0-9-1"
           style="display:inline;fill:#929208;fill-opacity:1;stroke-width:0.052083"
           d="m 128.4161,10.935 c -2.21457,0 -4.39176,0.633113 -6.47195,1.881021 -2.12134,1.272389 -4.04357,3.130999 -5.71283,5.524211 a 1.6624884,1.6624884 0 0 0 -0.0331,1.851049 c 1.37551,2.152589 3.14566,3.965506 5.11856,5.242057 2.22134,1.439056 4.61234,2.168345 7.09982,2.168345 0.4346,0 0.86941,-0.02433 1.3038,-0.07183 -2.00611,-0.215829 -3.9384,-0.918187 -5.75727,-2.096514 -1.9729,-1.276551 -3.74356,-3.089468 -5.11907,-5.242057 a 1.6624884,1.6624884 0 0 1 0.0336,-1.851049 c 1.66926,-2.393212 3.59097,-4.251822 5.71231,-5.524211 1.66601,-0.999435 3.39481,-1.60328 5.15472,-1.804541 -0.44288,-0.05037 -0.88638,-0.07648 -1.3286,-0.07648 z m 2.10427,3.365169 a 4.9999651,4.9999651 0 0 0 -0.70745,0.203605 4.9999651,4.9999651 0 0 1 3.62097,4.764566 5.0056941,5.0056941 0 0 1 -3.59565,4.789374 4.9999651,4.9999651 0 0 0 1.24178,0.210839 5.0056941,5.0056941 0 0 0 5.00022,-5.000213 4.9999651,4.9999651 0 0 0 -5.55987,-4.968171 z" />
      </g>
    </g>
    <g
       id="g52262-6-1-5-5"
       transform="matrix(0.83545744,0,0,0.83545744,-63.911045,26.414391)"
       style="display:inline">
      <g
         id="g52161-24-5-0-0"
         transform="translate(2.80633,13.657473)">
        <circle
           cx="128.43347"
           cy="19.267973"
           r="3.3333101"
           id="circle4-75-9-9-1"
           style="fill:#cccc00;fill-opacity:1;stroke-width:0.0520829" />
        <path
           d="m 140.66464,18.36173 c -1.37811,-2.131235 -3.16612,-3.941639 -5.17027,-5.235901 -2.21718,-1.433324 -4.66508,-2.191131 -7.0786,-2.191131 -2.21457,0 -4.39216,0.632808 -6.47235,1.880716 -2.12134,1.272387 -4.0432,3.131229 -5.71246,5.524441 a 1.6624884,1.6624884 0 0 0 -0.0333,1.851029 c 1.37551,2.152589 3.14581,3.965597 5.11871,5.24215 2.22134,1.439053 4.61195,2.168214 7.09943,2.168214 2.4328,0 4.8859,-0.751556 7.0937,-2.1729 2.00311,-1.290096 3.78748,-3.107271 5.16038,-5.256214 a 1.6770716,1.6770716 0 0 0 -0.005,-1.810404 z m -12.23116,5.906209 a 4.9999651,4.9999651 0 1 1 4.99996,-4.999965 5.0056942,5.0056942 0 0 1 -4.99996,4.999965 z"
           id="path6-3-9-5-1"
           style="fill:#cccc00;fill-opacity:1;stroke-width:0.0520829" />
        <path
           id="circle4-7-83-5-3-5"
           style="display:inline;fill:#929208;fill-opacity:1;stroke-width:0.052083"
           d="m 128.43364,15.935 a 3.33331,3.33331 0 0 0 -3.33364,3.333128 3.33331,3.33331 0 0 0 3.33364,3.333131 3.33331,3.33331 0 0 0 1.32292,-0.276469 3.33331,3.33331 0 0 1 -2.01022,-3.056662 3.33331,3.33331 0 0 1 2.0128,-3.058726 3.33331,3.33331 0 0 0 -1.3255,-0.274402 z" />
        <path
           id="path6-9-8-9-2-6"
           style="display:inline;fill:#929208;fill-opacity:1;stroke-width:0.052083"
           d="m 128.4161,10.935 c -2.21457,0 -4.39176,0.633113 -6.47195,1.881021 -2.12134,1.272389 -4.04357,3.130999 -5.71283,5.524211 a 1.6624884,1.6624884 0 0 0 -0.0331,1.851049 c 1.37551,2.152589 3.14566,3.965506 5.11856,5.242057 2.22134,1.439056 4.61234,2.168345 7.09982,2.168345 0.4346,0 0.86941,-0.02433 1.3038,-0.07183 -2.00611,-0.215829 -3.9384,-0.918187 -5.75727,-2.096514 -1.9729,-1.276551 -3.74356,-3.089468 -5.11907,-5.242057 a 1.6624884,1.6624884 0 0 1 0.0336,-1.851049 c 1.66926,-2.393212 3.59097,-4.251822 5.71231,-5.524211 1.66601,-0.999435 3.39481,-1.60328 5.15472,-1.804541 -0.44288,-0.05037 -0.88638,-0.07648 -1.3286,-0.07648 z m 2.10427,3.365169 a 4.9999651,4.9999651 0 0 0 -0.70745,0.203605 4.9999651,4.9999651 0 0 1 3.62097,4.764566 5.0056941,5.0056941 0 0 1 -3.59565,4.789374 4.9999651,4.9999651 0 0 0 1.24178,0.210839 5.0056941,5.0056941 0 0 0 5.00022,-5.000213 4.9999651,4.9999651 0 0 0 -5.55987,-4.968171 z" />
      </g>
      <g
         id="g52161-2-5-7-5-7"
         transform="translate(17.432111,2.9961017)"
         style="display:inline">
        <circle
           cx="128.43347"
           cy="19.267973"
           r="3.3333101"
           id="circle4-9-3-2-0-9"
           style="fill:#cccc00;fill-opacity:1;stroke-width:0.0520829" />
        <path
           d="m 140.66464,18.36173 c -1.37811,-2.131235 -3.16612,-3.941639 -5.17027,-5.235901 -2.21718,-1.433324 -4.66508,-2.191131 -7.0786,-2.191131 -2.21457,0 -4.39216,0.632808 -6.47235,1.880716 -2.12134,1.272387 -4.0432,3.131229 -5.71246,5.524441 a 1.6624884,1.6624884 0 0 0 -0.0333,1.851029 c 1.37551,2.152589 3.14581,3.965597 5.11871,5.24215 2.22134,1.439053 4.61195,2.168214 7.09943,2.168214 2.4328,0 4.8859,-0.751556 7.0937,-2.1729 2.00311,-1.290096 3.78748,-3.107271 5.16038,-5.256214 a 1.6770716,1.6770716 0 0 0 -0.005,-1.810404 z m -12.23116,5.906209 a 4.9999651,4.9999651 0 1 1 4.99996,-4.999965 5.0056942,5.0056942 0 0 1 -4.99996,4.999965 z"
           id="path6-5-5-4-5-4"
           style="fill:#cccc00;fill-opacity:1;stroke-width:0.0520829" />
        <path
           id="circle4-7-8-8-4-4-4"
           style="display:inline;fill:#929208;fill-opacity:1;stroke-width:0.052083"
           d="m 128.43364,15.935 a 3.33331,3.33331 0 0 0 -3.33364,3.333128 3.33331,3.33331 0 0 0 3.33364,3.333131 3.33331,3.33331 0 0 0 1.32292,-0.276469 3.33331,3.33331 0 0 1 -2.01022,-3.056662 3.33331,3.33331 0 0 1 2.0128,-3.058726 3.33331,3.33331 0 0 0 -1.3255,-0.274402 z" />
        <path
           id="path6-9-2-7-5-2-9"
           style="display:inline;fill:#929208;fill-opacity:1;stroke-width:0.052083"
           d="m 128.4161,10.935 c -2.21457,0 -4.39176,0.633113 -6.47195,1.881021 -2.12134,1.272389 -4.04357,3.130999 -5.71283,5.524211 a 1.6624884,1.6624884 0 0 0 -0.0331,1.851049 c 1.37551,2.152589 3.14566,3.965506 5.11856,5.242057 2.22134,1.439056 4.61234,2.168345 7.09982,2.168345 0.4346,0 0.86941,-0.02433 1.3038,-0.07183 -2.00611,-0.215829 -3.9384,-0.918187 -5.75727,-2.096514 -1.9729,-1.276551 -3.74356,-3.089468 -5.11907,-5.242057 a 1.6624884,1.6624884 0 0 1 0.0336,-1.851049 c 1.66926,-2.393212 3.59097,-4.251822 5.71231,-5.524211 1.66601,-0.999435 3.39481,-1.60328 5.15472,-1.804541 -0.44288,-0.05037 -0.88638,-0.07648 -1.3286,-0.07648 z m 2.10427,3.365169 a 4.9999651,4.9999651 0 0 0 -0.70745,0.203605 4.9999651,4.9999651 0 0 1 3.62097,4.764566 5.0056941,5.0056941 0 0 1 -3.59565,4.789374 4.9999651,4.9999651 0 0 0 1.24178,0.210839 5.0056941,5.0056941 0 0 0 5.00022,-5.000213 4.9999651,4.9999651 0 0 0 -5.55987,-4.968171 z" />
      </g>
      <g
         id="g52161-2-2-9-5-6-7"
         transform="translate(31.668923,13.657602)"
         style="display:inline">
        <circle
           cx="128.43347"
           cy="19.267973"
           r="3.3333101"
           id="circle4-9-4-3-5-3-7"
           style="fill:#cccc00;fill-opacity:1;stroke-width:0.0520829" />
        <path
           d="m 140.66464,18.36173 c -1.37811,-2.131235 -3.16612,-3.941639 -5.17027,-5.235901 -2.21718,-1.433324 -4.66508,-2.191131 -7.0786,-2.191131 -2.21457,0 -4.39216,0.632808 -6.47235,1.880716 -2.12134,1.272387 -4.0432,3.131229 -5.71246,5.524441 a 1.6624884,1.6624884 0 0 0 -0.0333,1.851029 c 1.37551,2.152589 3.14581,3.965597 5.11871,5.24215 2.22134,1.439053 4.61195,2.168214 7.09943,2.168214 2.4328,0 4.8859,-0.751556 7.0937,-2.1729 2.00311,-1.290096 3.78748,-3.107271 5.16038,-5.256214 a 1.6770716,1.6770716 0 0 0 -0.005,-1.810404 z m -12.23116,5.906209 a 4.9999651,4.9999651 0 1 1 4.99996,-4.999965 5.0056942,5.0056942 0 0 1 -4.99996,4.999965 z"
           id="path6-5-6-9-0-0-3"
           style="fill:#cccc00;fill-opacity:1;stroke-width:0.0520829" />
        <path
           id="circle4-7-8-1-7-1-7-1"
           style="display:inline;fill:#929208;fill-opacity:1;stroke-width:0.052083"
           d="m 128.43364,15.935 a 3.33331,3.33331 0 0 0 -3.33364,3.333128 3.33331,3.33331 0 0 0 3.33364,3.333131 3.33331,3.33331 0 0 0 1.32292,-0.276469 3.33331,3.33331 0 0 1 -2.01022,-3.056662 3.33331,3.33331 0 0 1 2.0128,-3.058726 3.33331,3.33331 0 0 0 -1.3255,-0.274402 z" />
        <path
           id="path6-9-2-9-0-9-1-1"
           style="display:inline;fill:#929208;fill-opacity:1;stroke-width:0.052083"
           d="m 128.4161,10.935 c -2.21457,0 -4.39176,0.633113 -6.47195,1.881021 -2.12134,1.272389 -4.04357,3.130999 -5.71283,5.524211 a 1.6624884,1.6624884 0 0 0 -0.0331,1.851049 c 1.37551,2.152589 3.14566,3.965506 5.11856,5.242057 2.22134,1.439056 4.61234,2.168345 7.09982,2.168345 0.4346,0 0.86941,-0.02433 1.3038,-0.07183 -2.00611,-0.215829 -3.9384,-0.918187 -5.75727,-2.096514 -1.9729,-1.276551 -3.74356,-3.089468 -5.11907,-5.242057 a 1.6624884,1.6624884 0 0 1 0.0336,-1.851049 c 1.66926,-2.393212 3.59097,-4.251822 5.71231,-5.524211 1.66601,-0.999435 3.39481,-1.60328 5.15472,-1.804541 -0.44288,-0.05037 -0.88638,-0.07648 -1.3286,-0.07648 z m 2.10427,3.365169 a 4.9999651,4.9999651 0 0 0 -0.70745,0.203605 4.9999651,4.9999651 0 0 1 3.62097,4.764566 5.0056941,5.0056941 0 0 1 -3.59565,4.789374 4.9999651,4.9999651 0 0 0 1.24178,0.210839 5.0056941,5.0056941 0 0 0 5.00022,-5.000213 4.9999651,4.9999651 0 0 0 -5.55987,-4.968171 z" />
      </g>
    </g>
    <g
       id="g52262-6-1-5-5-0"
       transform="matrix(0.83545744,0,0,0.83545744,-25.97279,13.449571)"
       style="display:inline">
      <g
         id="g52161-24-5-0-0-3"
         transform="translate(2.80633,13.657473)">
        <circle
           cx="128.43347"
           cy="19.267973"
           r="3.3333101"
           id="circle4-75-9-9-1-5"
           style="fill:#cccc00;fill-opacity:1;stroke-width:0.0520829" />
        <path
           d="m 140.66464,18.36173 c -1.37811,-2.131235 -3.16612,-3.941639 -5.17027,-5.235901 -2.21718,-1.433324 -4.66508,-2.191131 -7.0786,-2.191131 -2.21457,0 -4.39216,0.632808 -6.47235,1.880716 -2.12134,1.272387 -4.0432,3.131229 -5.71246,5.524441 a 1.6624884,1.6624884 0 0 0 -0.0333,1.851029 c 1.37551,2.152589 3.14581,3.965597 5.11871,5.24215 2.22134,1.439053 4.61195,2.168214 7.09943,2.168214 2.4328,0 4.8859,-0.751556 7.0937,-2.1729 2.00311,-1.290096 3.78748,-3.107271 5.16038,-5.256214 a 1.6770716,1.6770716 0 0 0 -0.005,-1.810404 z m -12.23116,5.906209 a 4.9999651,4.9999651 0 1 1 4.99996,-4.999965 5.0056942,5.0056942 0 0 1 -4.99996,4.999965 z"
           id="path6-3-9-5-1-8"
           style="fill:#cccc00;fill-opacity:1;stroke-width:0.0520829" />
        <path
           id="circle4-7-83-5-3-5-2"
           style="display:inline;fill:#929208;fill-opacity:1;stroke-width:0.052083"
           d="m 128.43364,15.935 a 3.33331,3.33331 0 0 0 -3.33364,3.333128 3.33331,3.33331 0 0 0 3.33364,3.333131 3.33331,3.33331 0 0 0 1.32292,-0.276469 3.33331,3.33331 0 0 1 -2.01022,-3.056662 3.33331,3.33331 0 0 1 2.0128,-3.058726 3.33331,3.33331 0 0 0 -1.3255,-0.274402 z" />
        <path
           id="path6-9-8-9-2-6-5"
           style="display:inline;fill:#929208;fill-opacity:1;stroke-width:0.052083"
           d="m 128.4161,10.935 c -2.21457,0 -4.39176,0.633113 -6.47195,1.881021 -2.12134,1.272389 -4.04357,3.130999 -5.71283,5.524211 a 1.6624884,1.6624884 0 0 0 -0.0331,1.851049 c 1.37551,2.152589 3.14566,3.965506 5.11856,5.242057 2.22134,1.439056 4.61234,2.168345 7.09982,2.168345 0.4346,0 0.86941,-0.02433 1.3038,-0.07183 -2.00611,-0.215829 -3.9384,-0.918187 -5.75727,-2.096514 -1.9729,-1.276551 -3.74356,-3.089468 -5.11907,-5.242057 a 1.6624884,1.6624884 0 0 1 0.0336,-1.851049 c 1.66926,-2.393212 3.59097,-4.251822 5.71231,-5.524211 1.66601,-0.999435 3.39481,-1.60328 5.15472,-1.804541 -0.44288,-0.05037 -0.88638,-0.07648 -1.3286,-0.07648 z m 2.10427,3.365169 a 4.9999651,4.9999651 0 0 0 -0.70745,0.203605 4.9999651,4.9999651 0 0 1 3.62097,4.764566 5.0056941,5.0056941 0 0 1 -3.59565,4.789374 4.9999651,4.9999651 0 0 0 1.24178,0.210839 5.0056941,5.0056941 0 0 0 5.00022,-5.000213 4.9999651,4.9999651 0 0 0 -5.55987,-4.968171 z" />
      </g>
      <g
         id="g52161-2-5-7-5-7-4"
         transform="translate(17.432111,2.9961017)"
         style="display:inline">
        <circle
           cx="128.43347"
           cy="19.267973"
           r="3.3333101"
           id="circle4-9-3-2-0-9-7"
           style="fill:#cccc00;fill-opacity:1;stroke-width:0.0520829" />
        <path
           d="m 140.66464,18.36173 c -1.37811,-2.131235 -3.16612,-3.941639 -5.17027,-5.235901 -2.21718,-1.433324 -4.66508,-2.191131 -7.0786,-2.191131 -2.21457,0 -4.39216,0.632808 -6.47235,1.880716 -2.12134,1.272387 -4.0432,3.131229 -5.71246,5.524441 a 1.6624884,1.6624884 0 0 0 -0.0333,1.851029 c 1.37551,2.152589 3.14581,3.965597 5.11871,5.24215 2.22134,1.439053 4.61195,2.168214 7.09943,2.168214 2.4328,0 4.8859,-0.751556 7.0937,-2.1729 2.00311,-1.290096 3.78748,-3.107271 5.16038,-5.256214 a 1.6770716,1.6770716 0 0 0 -0.005,-1.810404 z m -12.23116,5.906209 a 4.9999651,4.9999651 0 1 1 4.99996,-4.999965 5.0056942,5.0056942 0 0 1 -4.99996,4.999965 z"
           id="path6-5-5-4-5-4-4"
           style="fill:#cccc00;fill-opacity:1;stroke-width:0.0520829" />
        <path
           id="circle4-7-8-8-4-4-4-7"
           style="display:inline;fill:#929208;fill-opacity:1;stroke-width:0.052083"
           d="m 128.43364,15.935 a 3.33331,3.33331 0 0 0 -3.33364,3.333128 3.33331,3.33331 0 0 0 3.33364,3.333131 3.33331,3.33331 0 0 0 1.32292,-0.276469 3.33331,3.33331 0 0 1 -2.01022,-3.056662 3.33331,3.33331 0 0 1 2.0128,-3.058726 3.33331,3.33331 0 0 0 -1.3255,-0.274402 z" />
        <path
           id="path6-9-2-7-5-2-9-2"
           style="display:inline;fill:#929208;fill-opacity:1;stroke-width:0.052083"
           d="m 128.4161,10.935 c -2.21457,0 -4.39176,0.633113 -6.47195,1.881021 -2.12134,1.272389 -4.04357,3.130999 -5.71283,5.524211 a 1.6624884,1.6624884 0 0 0 -0.0331,1.851049 c 1.37551,2.152589 3.14566,3.965506 5.11856,5.242057 2.22134,1.439056 4.61234,2.168345 7.09982,2.168345 0.4346,0 0.86941,-0.02433 1.3038,-0.07183 -2.00611,-0.215829 -3.9384,-0.918187 -5.75727,-2.096514 -1.9729,-1.276551 -3.74356,-3.089468 -5.11907,-5.242057 a 1.6624884,1.6624884 0 0 1 0.0336,-1.851049 c 1.66926,-2.393212 3.59097,-4.251822 5.71231,-5.524211 1.66601,-0.999435 3.39481,-1.60328 5.15472,-1.804541 -0.44288,-0.05037 -0.88638,-0.07648 -1.3286,-0.07648 z m 2.10427,3.365169 a 4.9999651,4.9999651 0 0 0 -0.70745,0.203605 4.9999651,4.9999651 0 0 1 3.62097,4.764566 5.0056941,5.0056941 0 0 1 -3.59565,4.789374 4.9999651,4.9999651 0 0 0 1.24178,0.210839 5.0056941,5.0056941 0 0 0 5.00022,-5.000213 4.9999651,4.9999651 0 0 0 -5.55987,-4.968171 z" />
      </g>
      <g
         id="g52161-2-2-9-5-6-7-4"
         transform="translate(31.668923,13.657602)"
         style="display:inline">
        <circle
           cx="128.43347"
           cy="19.267973"
           r="3.3333101"
           id="circle4-9-4-3-5-3-7-9"
           style="fill:#cccc00;fill-opacity:1;stroke-width:0.0520829" />
        <path
           d="m 140.66464,18.36173 c -1.37811,-2.131235 -3.16612,-3.941639 -5.17027,-5.235901 -2.21718,-1.433324 -4.66508,-2.191131 -7.0786,-2.191131 -2.21457,0 -4.39216,0.632808 -6.47235,1.880716 -2.12134,1.272387 -4.0432,3.131229 -5.71246,5.524441 a 1.6624884,1.6624884 0 0 0 -0.0333,1.851029 c 1.37551,2.152589 3.14581,3.965597 5.11871,5.24215 2.22134,1.439053 4.61195,2.168214 7.09943,2.168214 2.4328,0 4.8859,-0.751556 7.0937,-2.1729 2.00311,-1.290096 3.78748,-3.107271 5.16038,-5.256214 a 1.6770716,1.6770716 0 0 0 -0.005,-1.810404 z m -12.23116,5.906209 a 4.9999651,4.9999651 0 1 1 4.99996,-4.999965 5.0056942,5.0056942 0 0 1 -4.99996,4.999965 z"
           id="path6-5-6-9-0-0-3-2"
           style="fill:#cccc00;fill-opacity:1;stroke-width:0.0520829" />
        <path
           id="circle4-7-8-1-7-1-7-1-0"
           style="display:inline;fill:#929208;fill-opacity:1;stroke-width:0.052083"
           d="m 128.43364,15.935 a 3.33331,3.33331 0 0 0 -3.33364,3.333128 3.33331,3.33331 0 0 0 3.33364,3.333131 3.33331,3.33331 0 0 0 1.32292,-0.276469 3.33331,3.33331 0 0 1 -2.01022,-3.056662 3.33331,3.33331 0 0 1 2.0128,-3.058726 3.33331,3.33331 0 0 0 -1.3255,-0.274402 z" />
        <path
           id="path6-9-2-9-0-9-1-1-8"
           style="display:inline;fill:#929208;fill-opacity:1;stroke-width:0.052083"
           d="m 128.4161,10.935 c -2.21457,0 -4.39176,0.633113 -6.47195,1.881021 -2.12134,1.272389 -4.04357,3.130999 -5.71283,5.524211 a 1.6624884,1.6624884 0 0 0 -0.0331,1.851049 c 1.37551,2.152589 3.14566,3.965506 5.11856,5.242057 2.22134,1.439056 4.61234,2.168345 7.09982,2.168345 0.4346,0 0.86941,-0.02433 1.3038,-0.07183 -2.00611,-0.215829 -3.9384,-0.918187 -5.75727,-2.096514 -1.9729,-1.276551 -3.74356,-3.089468 -5.11907,-5.242057 a 1.6624884,1.6624884 0 0 1 0.0336,-1.851049 c 1.66926,-2.393212 3.59097,-4.251822 5.71231,-5.524211 1.66601,-0.999435 3.39481,-1.60328 5.15472,-1.804541 -0.44288,-0.05037 -0.88638,-0.07648 -1.3286,-0.07648 z m 2.10427,3.365169 a 4.9999651,4.9999651 0 0 0 -0.70745,0.203605 4.9999651,4.9999651 0 0 1 3.62097,4.764566 5.0056941,5.0056941 0 0 1 -3.59565,4.789374 4.9999651,4.9999651 0 0 0 1.24178,0.210839 5.0056941,5.0056941 0 0 0 5.00022,-5.000213 4.9999651,4.9999651 0 0 0 -5.55987,-4.968171 z" />
      </g>
    </g>
    <g
       id="g52262-6-1-5-5-0-8"
       transform="matrix(0.74262884,0,0,0.74262884,-41.155064,-4.7648275)"
       style="display:inline">
      <g
         id="g52161-24-5-0-0-3-7"
         transform="translate(2.80633,13.657473)">
        <circle
           cx="128.43347"
           cy="19.267973"
           r="3.3333101"
           id="circle4-75-9-9-1-5-3"
           style="fill:#cccc00;fill-opacity:1;stroke-width:0.0520829" />
        <path
           d="m 140.66464,18.36173 c -1.37811,-2.131235 -3.16612,-3.941639 -5.17027,-5.235901 -2.21718,-1.433324 -4.66508,-2.191131 -7.0786,-2.191131 -2.21457,0 -4.39216,0.632808 -6.47235,1.880716 -2.12134,1.272387 -4.0432,3.131229 -5.71246,5.524441 a 1.6624884,1.6624884 0 0 0 -0.0333,1.851029 c 1.37551,2.152589 3.14581,3.965597 5.11871,5.24215 2.22134,1.439053 4.61195,2.168214 7.09943,2.168214 2.4328,0 4.8859,-0.751556 7.0937,-2.1729 2.00311,-1.290096 3.78748,-3.107271 5.16038,-5.256214 a 1.6770716,1.6770716 0 0 0 -0.005,-1.810404 z m -12.23116,5.906209 a 4.9999651,4.9999651 0 1 1 4.99996,-4.999965 5.0056942,5.0056942 0 0 1 -4.99996,4.999965 z"
           id="path6-3-9-5-1-8-6"
           style="fill:#cccc00;fill-opacity:1;stroke-width:0.0520829" />
        <path
           id="circle4-7-83-5-3-5-2-4"
           style="display:inline;fill:#929208;fill-opacity:1;stroke-width:0.052083"
           d="m 128.43364,15.935 a 3.33331,3.33331 0 0 0 -3.33364,3.333128 3.33331,3.33331 0 0 0 3.33364,3.333131 3.33331,3.33331 0 0 0 1.32292,-0.276469 3.33331,3.33331 0 0 1 -2.01022,-3.056662 3.33331,3.33331 0 0 1 2.0128,-3.058726 3.33331,3.33331 0 0 0 -1.3255,-0.274402 z" />
        <path
           id="path6-9-8-9-2-6-5-3"
           style="display:inline;fill:#929208;fill-opacity:1;stroke-width:0.052083"
           d="m 128.4161,10.935 c -2.21457,0 -4.39176,0.633113 -6.47195,1.881021 -2.12134,1.272389 -4.04357,3.130999 -5.71283,5.524211 a 1.6624884,1.6624884 0 0 0 -0.0331,1.851049 c 1.37551,2.152589 3.14566,3.965506 5.11856,5.242057 2.22134,1.439056 4.61234,2.168345 7.09982,2.168345 0.4346,0 0.86941,-0.02433 1.3038,-0.07183 -2.00611,-0.215829 -3.9384,-0.918187 -5.75727,-2.096514 -1.9729,-1.276551 -3.74356,-3.089468 -5.11907,-5.242057 a 1.6624884,1.6624884 0 0 1 0.0336,-1.851049 c 1.66926,-2.393212 3.59097,-4.251822 5.71231,-5.524211 1.66601,-0.999435 3.39481,-1.60328 5.15472,-1.804541 -0.44288,-0.05037 -0.88638,-0.07648 -1.3286,-0.07648 z m 2.10427,3.365169 a 4.9999651,4.9999651 0 0 0 -0.70745,0.203605 4.9999651,4.9999651 0 0 1 3.62097,4.764566 5.0056941,5.0056941 0 0 1 -3.59565,4.789374 4.9999651,4.9999651 0 0 0 1.24178,0.210839 5.0056941,5.0056941 0 0 0 5.00022,-5.000213 4.9999651,4.9999651 0 0 0 -5.55987,-4.968171 z" />
      </g>
      <g
         id="g52161-2-5-7-5-7-4-0"
         transform="translate(17.432111,2.9961017)"
         style="display:inline">
        <circle
           cx="128.43347"
           cy="19.267973"
           r="3.3333101"
           id="circle4-9-3-2-0-9-7-9"
           style="fill:#cccc00;fill-opacity:1;stroke-width:0.0520829" />
        <path
           d="m 140.66464,18.36173 c -1.37811,-2.131235 -3.16612,-3.941639 -5.17027,-5.235901 -2.21718,-1.433324 -4.66508,-2.191131 -7.0786,-2.191131 -2.21457,0 -4.39216,0.632808 -6.47235,1.880716 -2.12134,1.272387 -4.0432,3.131229 -5.71246,5.524441 a 1.6624884,1.6624884 0 0 0 -0.0333,1.851029 c 1.37551,2.152589 3.14581,3.965597 5.11871,5.24215 2.22134,1.439053 4.61195,2.168214 7.09943,2.168214 2.4328,0 4.8859,-0.751556 7.0937,-2.1729 2.00311,-1.290096 3.78748,-3.107271 5.16038,-5.256214 a 1.6770716,1.6770716 0 0 0 -0.005,-1.810404 z m -12.23116,5.906209 a 4.9999651,4.9999651 0 1 1 4.99996,-4.999965 5.0056942,5.0056942 0 0 1 -4.99996,4.999965 z"
           id="path6-5-5-4-5-4-4-7"
           style="fill:#cccc00;fill-opacity:1;stroke-width:0.0520829" />
        <path
           id="circle4-7-8-8-4-4-4-7-9"
           style="display:inline;fill:#929208;fill-opacity:1;stroke-width:0.052083"
           d="m 128.43364,15.935 a 3.33331,3.33331 0 0 0 -3.33364,3.333128 3.33331,3.33331 0 0 0 3.33364,3.333131 3.33331,3.33331 0 0 0 1.32292,-0.276469 3.33331,3.33331 0 0 1 -2.01022,-3.056662 3.33331,3.33331 0 0 1 2.0128,-3.058726 3.33331,3.33331 0 0 0 -1.3255,-0.274402 z" />
        <path
           id="path6-9-2-7-5-2-9-2-5"
           style="display:inline;fill:#929208;fill-opacity:1;stroke-width:0.052083"
           d="m 128.4161,10.935 c -2.21457,0 -4.39176,0.633113 -6.47195,1.881021 -2.12134,1.272389 -4.04357,3.130999 -5.71283,5.524211 a 1.6624884,1.6624884 0 0 0 -0.0331,1.851049 c 1.37551,2.152589 3.14566,3.965506 5.11856,5.242057 2.22134,1.439056 4.61234,2.168345 7.09982,2.168345 0.4346,0 0.86941,-0.02433 1.3038,-0.07183 -2.00611,-0.215829 -3.9384,-0.918187 -5.75727,-2.096514 -1.9729,-1.276551 -3.74356,-3.089468 -5.11907,-5.242057 a 1.6624884,1.6624884 0 0 1 0.0336,-1.851049 c 1.66926,-2.393212 3.59097,-4.251822 5.71231,-5.524211 1.66601,-0.999435 3.39481,-1.60328 5.15472,-1.804541 -0.44288,-0.05037 -0.88638,-0.07648 -1.3286,-0.07648 z m 2.10427,3.365169 a 4.9999651,4.9999651 0 0 0 -0.70745,0.203605 4.9999651,4.9999651 0 0 1 3.62097,4.764566 5.0056941,5.0056941 0 0 1 -3.59565,4.789374 4.9999651,4.9999651 0 0 0 1.24178,0.210839 5.0056941,5.0056941 0 0 0 5.00022,-5.000213 4.9999651,4.9999651 0 0 0 -5.55987,-4.968171 z" />
      </g>
      <g
         id="g52161-2-2-9-5-6-7-4-1"
         transform="translate(31.668923,13.657602)"
         style="display:inline">
        <circle
           cx="128.43347"
           cy="19.267973"
           r="3.3333101"
           id="circle4-9-4-3-5-3-7-9-4"
           style="fill:#cccc00;fill-opacity:1;stroke-width:0.0520829" />
        <path
           d="m 140.66464,18.36173 c -1.37811,-2.131235 -3.16612,-3.941639 -5.17027,-5.235901 -2.21718,-1.433324 -4.66508,-2.191131 -7.0786,-2.191131 -2.21457,0 -4.39216,0.632808 -6.47235,1.880716 -2.12134,1.272387 -4.0432,3.131229 -5.71246,5.524441 a 1.6624884,1.6624884 0 0 0 -0.0333,1.851029 c 1.37551,2.152589 3.14581,3.965597 5.11871,5.24215 2.22134,1.439053 4.61195,2.168214 7.09943,2.168214 2.4328,0 4.8859,-0.751556 7.0937,-2.1729 2.00311,-1.290096 3.78748,-3.107271 5.16038,-5.256214 a 1.6770716,1.6770716 0 0 0 -0.005,-1.810404 z m -12.23116,5.906209 a 4.9999651,4.9999651 0 1 1 4.99996,-4.999965 5.0056942,5.0056942 0 0 1 -4.99996,4.999965 z"
           id="path6-5-6-9-0-0-3-2-4"
           style="fill:#cccc00;fill-opacity:1;stroke-width:0.0520829" />
        <path
           id="circle4-7-8-1-7-1-7-1-0-9"
           style="display:inline;fill:#929208;fill-opacity:1;stroke-width:0.052083"
           d="m 128.43364,15.935 a 3.33331,3.33331 0 0 0 -3.33364,3.333128 3.33331,3.33331 0 0 0 3.33364,3.333131 3.33331,3.33331 0 0 0 1.32292,-0.276469 3.33331,3.33331 0 0 1 -2.01022,-3.056662 3.33331,3.33331 0 0 1 2.0128,-3.058726 3.33331,3.33331 0 0 0 -1.3255,-0.274402 z" />
        <path
           id="path6-9-2-9-0-9-1-1-8-0"
           style="display:inline;fill:#929208;fill-opacity:1;stroke-width:0.052083"
           d="m 128.4161,10.935 c -2.21457,0 -4.39176,0.633113 -6.47195,1.881021 -2.12134,1.272389 -4.04357,3.130999 -5.71283,5.524211 a 1.6624884,1.6624884 0 0 0 -0.0331,1.851049 c 1.37551,2.152589 3.14566,3.965506 5.11856,5.242057 2.22134,1.439056 4.61234,2.168345 7.09982,2.168345 0.4346,0 0.86941,-0.02433 1.3038,-0.07183 -2.00611,-0.215829 -3.9384,-0.918187 -5.75727,-2.096514 -1.9729,-1.276551 -3.74356,-3.089468 -5.11907,-5.242057 a 1.6624884,1.6624884 0 0 1 0.0336,-1.851049 c 1.66926,-2.393212 3.59097,-4.251822 5.71231,-5.524211 1.66601,-0.999435 3.39481,-1.60328 5.15472,-1.804541 -0.44288,-0.05037 -0.88638,-0.07648 -1.3286,-0.07648 z m 2.10427,3.365169 a 4.9999651,4.9999651 0 0 0 -0.70745,0.203605 4.9999651,4.9999651 0 0 1 3.62097,4.764566 5.0056941,5.0056941 0 0 1 -3.59565,4.789374 4.9999651,4.9999651 0 0 0 1.24178,0.210839 5.0056941,5.0056941 0 0 0 5.00022,-5.000213 4.9999651,4.9999651 0 0 0 -5.55987,-4.968171 z" />
      </g>
    </g>
  </g>
</svg>
