<?xml version="1.0" encoding="UTF-8" standalone="no"?>
<!-- Created with Inkscape (http://www.inkscape.org/) -->

<svg
   width="500"
   height="500"
   viewBox="0 0 132.29166 132.29167"
   version="1.1"
   id="svg2515"
   inkscape:version="1.1.2 (b8e25be833, 2022-02-05)"
   sodipodi:docname="bonsai10s02normal.svg"
   inkscape:export-filename="C:\Users\Lenovo\Desktop\Coding\Media files\Bonsais\bonsai10.png"
   inkscape:export-xdpi="96"
   inkscape:export-ydpi="96"
   xmlns:inkscape="http://www.inkscape.org/namespaces/inkscape"
   xmlns:sodipodi="http://sodipodi.sourceforge.net/DTD/sodipodi-0.dtd"
   xmlns="http://www.w3.org/2000/svg"
   xmlns:svg="http://www.w3.org/2000/svg">
  <sodipodi:namedview
     id="namedview2517"
     pagecolor="#ffffff"
     bordercolor="#666666"
     borderopacity="1.0"
     inkscape:pageshadow="2"
     inkscape:pageopacity="0.0"
     inkscape:pagecheckerboard="0"
     inkscape:document-units="mm"
     showgrid="false"
     units="px"
     inkscape:zoom="1.4142136"
     inkscape:cx="272.58966"
     inkscape:cy="254.20488"
     inkscape:window-width="1920"
     inkscape:window-height="1001"
     inkscape:window-x="-9"
     inkscape:window-y="-9"
     inkscape:window-maximized="1"
     inkscape:current-layer="g17385" />
  <defs
     id="defs2512">
    <marker
       style="overflow:visible"
       id="Arrow1Sstart"
       refX="0.0"
       refY="0.0"
       orient="auto"
       inkscape:stockid="Arrow1Sstart"
       inkscape:isstock="true">
      <path
         transform="scale(0.2) translate(6,0)"
         style="fill-rule:evenodd;fill:context-stroke;stroke:context-stroke;stroke-width:1.0pt"
         d="M 0.0,0.0 L 5.0,-5.0 L -12.5,0.0 L 5.0,5.0 L 0.0,0.0 z "
         id="path24092" />
    </marker>
    <marker
       style="overflow:visible"
       id="Arrow1Mstart"
       refX="0.0"
       refY="0.0"
       orient="auto"
       inkscape:stockid="Arrow1Mstart"
       inkscape:isstock="true">
      <path
         transform="scale(0.4) translate(10,0)"
         style="fill-rule:evenodd;fill:context-stroke;stroke:context-stroke;stroke-width:1.0pt"
         d="M 0.0,0.0 L 5.0,-5.0 L -12.5,0.0 L 5.0,5.0 L 0.0,0.0 z "
         id="path24086" />
    </marker>
    <marker
       style="overflow:visible"
       id="Arrow1Lstart"
       refX="0.0"
       refY="0.0"
       orient="auto"
       inkscape:stockid="Arrow1Lstart"
       inkscape:isstock="true">
      <path
         transform="scale(0.8) translate(12.5,0)"
         style="fill-rule:evenodd;fill:context-stroke;stroke:context-stroke;stroke-width:1.0pt"
         d="M 0.0,0.0 L 5.0,-5.0 L -12.5,0.0 L 5.0,5.0 L 0.0,0.0 z "
         id="path24080" />
    </marker>
    <marker
       style="overflow:visible;"
       id="Arrow1Lend"
       refX="0.0"
       refY="0.0"
       orient="auto"
       inkscape:stockid="Arrow1Lend"
       inkscape:isstock="true">
      <path
         transform="scale(0.8) rotate(180) translate(12.5,0)"
         style="fill-rule:evenodd;fill:context-stroke;stroke:context-stroke;stroke-width:1.0pt;"
         d="M 0.0,0.0 L 5.0,-5.0 L -12.5,0.0 L 5.0,5.0 L 0.0,0.0 z "
         id="path24083" />
    </marker>
  </defs>
  <g
     inkscape:label="Informal Upright Style"
     inkscape:groupmode="layer"
     id="g17385"
     style="display:inline">
    <g
       id="g17299"
       transform="translate(157.36058,-8.4372489)"
       style="display:inline">
      <g
         id="g17297"
         transform="translate(-99.28418,15.207661)">
        <path
           style="display:inline;fill:#bb695d;fill-opacity:1;stroke:#bb695d;stroke-width:1;stroke-linecap:round;stroke-linejoin:round;stroke-miterlimit:4;stroke-dasharray:none;stroke-opacity:1"
           d="m 1.3438111,105.02403 c 0,0 1.67276,-4.3889 -5.29634,-12.902323 -5.77031,-7.049 -13.8088901,-10.89145 -10.0810001,-22.220767 2.98845,-9.082106 31.71641,-16.843433 36.92376,-22.50005 9.82115,-10.668487 4.67956,-12.619651 -1.58353,-22.120096 C 16.120271,17.413522 8.0705011,20.957555 7.7574611,9.5870616 14.803541,20.119696 25.572371,18.866153 27.251611,28.55162 c 3.25423,4.596313 8.98302,11.718683 5.98525,14.797826 -2.2954,2.357716 -9.08519,15.422411 -20.03503,17.643247 -9.5903099,1.945097 -16.1629199,12.6144 -16.1629199,12.6144 -0.83876,8.885304 16.1910099,9.784984 21.9744099,18.254694 5.64474,8.266633 8.35928,5.77528 10.95842,12.103913 1.20531,2.9348 -28.6279299,1.05833 -28.6279299,1.05833 z"
           id="path17293"
           sodipodi:nodetypes="cssssccsssssc" />
        <path
           id="path17295"
           style="display:inline;fill:#954b45;fill-opacity:1;stroke:#954b45;stroke-width:3.77953;stroke-linecap:round;stroke-linejoin:round;stroke-miterlimit:4;stroke-dasharray:none;stroke-opacity:1"
           d="m 616.93555,1.8886719 c 0.55432,20.1347921 7.52722,27.8974661 16.79883,33.5175781 -5.45695,-5.012127 -9.35289,-12.21383 -10.31641,-24.990234 -2.22889,-2.6069221 -4.40217,-5.4177306 -6.48242,-8.5273441 z m 41.48828,48.2539061 c 3.39981,2.902953 6.69017,6.465507 9.7207,11.0625 23.67153,35.907194 43.10565,43.281672 5.98633,83.603512 -19.68132,21.37934 -128.25976,50.713 -139.55469,85.03907 -14.08966,42.81948 16.29251,57.34248 38.10156,83.98437 26.33989,32.17671 20.01758,48.76367 20.01758,48.76367 0,0 2.85378,0.16826 6.91797,0.39063 0.26375,-6.79288 -1.99109,-21.72151 -20.65039,-44.51563 -21.80905,-26.64189 -52.19123,-41.16294 -38.10156,-83.98242 11.29493,-34.32607 119.87336,-63.66167 139.55469,-85.04101 37.11932,-40.32185 17.68519,-47.69633 -5.98633,-83.60352 -4.87199,-7.390285 -10.41195,-12.111719 -16.00586,-15.701172 z"
           transform="matrix(0.26458333,0,0,0.26458333,-155.47346,9.0871833)"
           sodipodi:nodetypes="cccccssssccssssc" />
      </g>
    </g>
    <g
       id="g3686"
       transform="matrix(0.74984438,0,0,-0.22767039,-1973.4291,150.19789)"
       style="display:inline">
      <path
         d="m 2666.1206,172.00674 h 113.68 l 0.22,0.11 c 0.01,-0.04 0.03,-0.07 0.06,-0.11 4.05,-8.37 6.33,-17.76 6.33,-27.67 0,-16.4 -6.22,-31.35 -16.43,-42.61 -5.13,-5.66 -12.45,-8.83 -20.09,-8.83 h -53.87 c -7.63,0 -14.95,3.17 -20.08,8.83 -10.21,11.26 -16.44,26.21 -16.44,42.61 0,9.91 2.28,19.3 6.34,27.67 0.02,0.04 0.03,0.07 0.05,0.11 l 0.23,-0.11 v 0"
         style="display:inline;fill:#d6b467;fill-opacity:1;fill-rule:nonzero;stroke:none;stroke-width:0.1"
         id="path800-2-5" />
      <path
         d="m 2763.3806,193.25674 h -80.85 c -6.94,-5.76 -12.64,-12.96 -16.64,-21.14 l 0.23,-0.11 h 113.68 l 0.22,0.11 c -3.99,8.18 -9.69,15.38 -16.64,21.14"
         style="display:inline;fill:#ce2940;fill-opacity:1;fill-rule:nonzero;stroke:none;stroke-width:0.1"
         id="path802-7-38" />
      <path
         d="m 2689.9406,101.72674 c -10.21,11.26 -16.43,26.21 -16.43,42.61 0,9.91 2.27,19.3 6.33,27.67 h -13.72 l -0.23,0.11 c -0.02,-0.04 -0.03,-0.07 -0.05,-0.11 -4.06,-8.37 -6.34,-17.76 -6.34,-27.67 0,-16.4 6.23,-31.35 16.44,-42.61 5.13,-5.66 12.45,-8.83 20.08,-8.83 h 14 c -7.63,0 -14.95,3.17 -20.08,8.83"
         style="display:inline;fill:#b09250;fill-opacity:1;fill-rule:nonzero;stroke:none;stroke-width:0.1"
         id="path832-0-1" />
      <path
         d="m 2696.5406,193.25674 h -14.01 c -6.94,-5.76 -12.64,-12.96 -16.64,-21.14 l 0.23,-0.11 h 14 l -0.22,0.11 c 3.99,8.18 9.69,15.38 16.64,21.14"
         style="display:inline;fill:#83313b;fill-opacity:1;fill-rule:nonzero;stroke:none;stroke-width:0.1"
         id="path834-8-45" />
    </g>
    <g
       id="g80849-0-4-6"
       transform="matrix(0.90290827,0,0,0.90290827,-90.075465,10.487542)"
       style="display:inline">
      <g
         id="g80785-3-8-9"
         transform="translate(-17.025069,46.585079)">
        <path
           d="m 146.85461,18.019882 c -2.52835,0.17383 -20.29122,1.865253 -21.53293,14.043594 -0.15088,1.30177 -0.23633,2.6094 -0.29248,3.918007 l 8.73397,-8.725183 c 0.30518,-0.305179 0.80079,-0.305179 1.10597,0 0.30518,0.305179 0.30518,0.799813 0,1.104991 l -12.67102,12.658327 c -0.45801,0.457524 -0.45801,1.199719 0,1.657243 0.45801,0.457523 1.20069,0.457523 1.65919,0 l 2.78958,-2.786649 c 2.0552,-0.0068 4.10893,-0.123536 6.15045,-0.359378 2.61136,-0.265627 4.73735,-1.292494 6.4737,-2.760769 h -4.92925 l 7.16755,-2.386742 c 0.54932,-0.727058 1.04347,-1.499527 1.48683,-2.300804 h -3.96195 l 5.2022,-2.59817 c 2.0464,-4.977099 2.52981,-10.182228 2.61819,-11.464467 z"
           id="path2-90-32-4-3"
           style="fill:#92d050;fill-opacity:1;stroke-width:0.0488285" />
        <path
           id="path2-90-1-44-8-3"
           style="display:inline;fill:#68923b;fill-opacity:1;stroke-width:0.0488286"
           d="m 146.85474,18.020304 c -2.52835,0.173832 -20.29134,1.865247 -21.53305,14.043589 -0.15088,1.301768 -0.23634,2.608982 -0.29249,3.91759 l 3.41168,-3.408061 c 0.0175,-0.169963 0.0361,-0.339757 0.0558,-0.509529 0.98731,-9.683234 12.41304,-12.73433 18.32705,-13.666351 0.0109,-0.131085 0.0247,-0.285112 0.031,-0.377238 z m -9.36377,9.007203 c -0.2002,0 -0.40034,0.07634 -0.55294,0.228925 l -8.73383,8.725051 c 0.0145,-0.337502 0.0311,-0.674537 0.0501,-1.011825 l -6.05648,6.050277 c -0.45801,0.457523 -0.45801,1.199738 0,1.657263 0.45801,0.457523 1.20083,0.457523 1.65933,0 l 1.2516,-1.250569 c 0.0571,-0.148153 0.14447,-0.287224 0.26407,-0.406694 l 12.67106,-12.658658 c 0.30518,-0.305181 0.30518,-0.799664 0,-1.104845 -0.15259,-0.152588 -0.35274,-0.228925 -0.55294,-0.228925 z" />
      </g>
      <g
         id="g80785-4-1-4-21"
         transform="translate(2.3732625,41.795296)"
         style="display:inline">
        <path
           d="m 146.85461,18.019882 c -2.52835,0.17383 -20.29122,1.865253 -21.53293,14.043594 -0.15088,1.30177 -0.23633,2.6094 -0.29248,3.918007 l 8.73397,-8.725183 c 0.30518,-0.305179 0.80079,-0.305179 1.10597,0 0.30518,0.305179 0.30518,0.799813 0,1.104991 l -12.67102,12.658327 c -0.45801,0.457524 -0.45801,1.199719 0,1.657243 0.45801,0.457523 1.20069,0.457523 1.65919,0 l 2.78958,-2.786649 c 2.0552,-0.0068 4.10893,-0.123536 6.15045,-0.359378 2.61136,-0.265627 4.73735,-1.292494 6.4737,-2.760769 h -4.92925 l 7.16755,-2.386742 c 0.54932,-0.727058 1.04347,-1.499527 1.48683,-2.300804 h -3.96195 l 5.2022,-2.59817 c 2.0464,-4.977099 2.52981,-10.182228 2.61819,-11.464467 z"
           id="path2-90-7-3-6-4"
           style="fill:#92d050;fill-opacity:1;stroke-width:0.0488285" />
        <path
           id="path2-90-1-3-9-6-18"
           style="display:inline;fill:#68923b;fill-opacity:1;stroke-width:0.0488286"
           d="m 146.85474,18.020304 c -2.52835,0.173832 -20.29134,1.865247 -21.53305,14.043589 -0.15088,1.301768 -0.23634,2.608982 -0.29249,3.91759 l 3.41168,-3.408061 c 0.0175,-0.169963 0.0361,-0.339757 0.0558,-0.509529 0.98731,-9.683234 12.41304,-12.73433 18.32705,-13.666351 0.0109,-0.131085 0.0247,-0.285112 0.031,-0.377238 z m -9.36377,9.007203 c -0.2002,0 -0.40034,0.07634 -0.55294,0.228925 l -8.73383,8.725051 c 0.0145,-0.337502 0.0311,-0.674537 0.0501,-1.011825 l -6.05648,6.050277 c -0.45801,0.457523 -0.45801,1.199738 0,1.657263 0.45801,0.457523 1.20083,0.457523 1.65933,0 l 1.2516,-1.250569 c 0.0571,-0.148153 0.14447,-0.287224 0.26407,-0.406694 l 12.67106,-12.658658 c 0.30518,-0.305181 0.30518,-0.799664 0,-1.104845 -0.15259,-0.152588 -0.35274,-0.228925 -0.55294,-0.228925 z" />
      </g>
      <g
         id="g80785-7-0-5-7"
         transform="translate(16.673711,46.585118)"
         style="display:inline">
        <path
           d="m 146.85461,18.019882 c -2.52835,0.17383 -20.29122,1.865253 -21.53293,14.043594 -0.15088,1.30177 -0.23633,2.6094 -0.29248,3.918007 l 8.73397,-8.725183 c 0.30518,-0.305179 0.80079,-0.305179 1.10597,0 0.30518,0.305179 0.30518,0.799813 0,1.104991 l -12.67102,12.658327 c -0.45801,0.457524 -0.45801,1.199719 0,1.657243 0.45801,0.457523 1.20069,0.457523 1.65919,0 l 2.78958,-2.786649 c 2.0552,-0.0068 4.10893,-0.123536 6.15045,-0.359378 2.61136,-0.265627 4.73735,-1.292494 6.4737,-2.760769 h -4.92925 l 7.16755,-2.386742 c 0.54932,-0.727058 1.04347,-1.499527 1.48683,-2.300804 h -3.96195 l 5.2022,-2.59817 c 2.0464,-4.977099 2.52981,-10.182228 2.61819,-11.464467 z"
           id="path2-90-77-7-0-51"
           style="fill:#92d050;fill-opacity:1;stroke-width:0.0488285" />
        <path
           id="path2-90-1-4-2-5-9"
           style="display:inline;fill:#68923b;fill-opacity:1;stroke-width:0.0488286"
           d="m 146.85474,18.020304 c -2.52835,0.173832 -20.29134,1.865247 -21.53305,14.043589 -0.15088,1.301768 -0.23634,2.608982 -0.29249,3.91759 l 3.41168,-3.408061 c 0.0175,-0.169963 0.0361,-0.339757 0.0558,-0.509529 0.98731,-9.683234 12.41304,-12.73433 18.32705,-13.666351 0.0109,-0.131085 0.0247,-0.285112 0.031,-0.377238 z m -9.36377,9.007203 c -0.2002,0 -0.40034,0.07634 -0.55294,0.228925 l -8.73383,8.725051 c 0.0145,-0.337502 0.0311,-0.674537 0.0501,-1.011825 l -6.05648,6.050277 c -0.45801,0.457523 -0.45801,1.199738 0,1.657263 0.45801,0.457523 1.20083,0.457523 1.65933,0 l 1.2516,-1.250569 c 0.0571,-0.148153 0.14447,-0.287224 0.26407,-0.406694 l 12.67106,-12.658658 c 0.30518,-0.305181 0.30518,-0.799664 0,-1.104845 -0.15259,-0.152588 -0.35274,-0.228925 -0.55294,-0.228925 z" />
      </g>
    </g>
    <g
       id="g80849-0-4-8"
       transform="matrix(0.90290827,0,0,0.90290827,-23.691881,-2.9933684)"
       style="display:inline">
      <g
         id="g80785-3-8-0"
         transform="translate(-17.025069,46.585079)">
        <path
           d="m 146.85461,18.019882 c -2.52835,0.17383 -20.29122,1.865253 -21.53293,14.043594 -0.15088,1.30177 -0.23633,2.6094 -0.29248,3.918007 l 8.73397,-8.725183 c 0.30518,-0.305179 0.80079,-0.305179 1.10597,0 0.30518,0.305179 0.30518,0.799813 0,1.104991 l -12.67102,12.658327 c -0.45801,0.457524 -0.45801,1.199719 0,1.657243 0.45801,0.457523 1.20069,0.457523 1.65919,0 l 2.78958,-2.786649 c 2.0552,-0.0068 4.10893,-0.123536 6.15045,-0.359378 2.61136,-0.265627 4.73735,-1.292494 6.4737,-2.760769 h -4.92925 l 7.16755,-2.386742 c 0.54932,-0.727058 1.04347,-1.499527 1.48683,-2.300804 h -3.96195 l 5.2022,-2.59817 c 2.0464,-4.977099 2.52981,-10.182228 2.61819,-11.464467 z"
           id="path2-90-32-4-5"
           style="fill:#92d050;fill-opacity:1;stroke-width:0.0488285" />
        <path
           id="path2-90-1-44-8-6"
           style="display:inline;fill:#68923b;fill-opacity:1;stroke-width:0.0488286"
           d="m 146.85474,18.020304 c -2.52835,0.173832 -20.29134,1.865247 -21.53305,14.043589 -0.15088,1.301768 -0.23634,2.608982 -0.29249,3.91759 l 3.41168,-3.408061 c 0.0175,-0.169963 0.0361,-0.339757 0.0558,-0.509529 0.98731,-9.683234 12.41304,-12.73433 18.32705,-13.666351 0.0109,-0.131085 0.0247,-0.285112 0.031,-0.377238 z m -9.36377,9.007203 c -0.2002,0 -0.40034,0.07634 -0.55294,0.228925 l -8.73383,8.725051 c 0.0145,-0.337502 0.0311,-0.674537 0.0501,-1.011825 l -6.05648,6.050277 c -0.45801,0.457523 -0.45801,1.199738 0,1.657263 0.45801,0.457523 1.20083,0.457523 1.65933,0 l 1.2516,-1.250569 c 0.0571,-0.148153 0.14447,-0.287224 0.26407,-0.406694 l 12.67106,-12.658658 c 0.30518,-0.305181 0.30518,-0.799664 0,-1.104845 -0.15259,-0.152588 -0.35274,-0.228925 -0.55294,-0.228925 z" />
      </g>
      <g
         id="g80785-4-1-4-0"
         transform="translate(2.3732625,41.795296)"
         style="display:inline">
        <path
           d="m 146.85461,18.019882 c -2.52835,0.17383 -20.29122,1.865253 -21.53293,14.043594 -0.15088,1.30177 -0.23633,2.6094 -0.29248,3.918007 l 8.73397,-8.725183 c 0.30518,-0.305179 0.80079,-0.305179 1.10597,0 0.30518,0.305179 0.30518,0.799813 0,1.104991 l -12.67102,12.658327 c -0.45801,0.457524 -0.45801,1.199719 0,1.657243 0.45801,0.457523 1.20069,0.457523 1.65919,0 l 2.78958,-2.786649 c 2.0552,-0.0068 4.10893,-0.123536 6.15045,-0.359378 2.61136,-0.265627 4.73735,-1.292494 6.4737,-2.760769 h -4.92925 l 7.16755,-2.386742 c 0.54932,-0.727058 1.04347,-1.499527 1.48683,-2.300804 h -3.96195 l 5.2022,-2.59817 c 2.0464,-4.977099 2.52981,-10.182228 2.61819,-11.464467 z"
           id="path2-90-7-3-6-9"
           style="fill:#92d050;fill-opacity:1;stroke-width:0.0488285" />
        <path
           id="path2-90-1-3-9-6-8"
           style="display:inline;fill:#68923b;fill-opacity:1;stroke-width:0.0488286"
           d="m 146.85474,18.020304 c -2.52835,0.173832 -20.29134,1.865247 -21.53305,14.043589 -0.15088,1.301768 -0.23634,2.608982 -0.29249,3.91759 l 3.41168,-3.408061 c 0.0175,-0.169963 0.0361,-0.339757 0.0558,-0.509529 0.98731,-9.683234 12.41304,-12.73433 18.32705,-13.666351 0.0109,-0.131085 0.0247,-0.285112 0.031,-0.377238 z m -9.36377,9.007203 c -0.2002,0 -0.40034,0.07634 -0.55294,0.228925 l -8.73383,8.725051 c 0.0145,-0.337502 0.0311,-0.674537 0.0501,-1.011825 l -6.05648,6.050277 c -0.45801,0.457523 -0.45801,1.199738 0,1.657263 0.45801,0.457523 1.20083,0.457523 1.65933,0 l 1.2516,-1.250569 c 0.0571,-0.148153 0.14447,-0.287224 0.26407,-0.406694 l 12.67106,-12.658658 c 0.30518,-0.305181 0.30518,-0.799664 0,-1.104845 -0.15259,-0.152588 -0.35274,-0.228925 -0.55294,-0.228925 z" />
      </g>
      <g
         id="g80785-7-0-5-4"
         transform="translate(16.673711,46.585118)"
         style="display:inline">
        <path
           d="m 146.85461,18.019882 c -2.52835,0.17383 -20.29122,1.865253 -21.53293,14.043594 -0.15088,1.30177 -0.23633,2.6094 -0.29248,3.918007 l 8.73397,-8.725183 c 0.30518,-0.305179 0.80079,-0.305179 1.10597,0 0.30518,0.305179 0.30518,0.799813 0,1.104991 l -12.67102,12.658327 c -0.45801,0.457524 -0.45801,1.199719 0,1.657243 0.45801,0.457523 1.20069,0.457523 1.65919,0 l 2.78958,-2.786649 c 2.0552,-0.0068 4.10893,-0.123536 6.15045,-0.359378 2.61136,-0.265627 4.73735,-1.292494 6.4737,-2.760769 h -4.92925 l 7.16755,-2.386742 c 0.54932,-0.727058 1.04347,-1.499527 1.48683,-2.300804 h -3.96195 l 5.2022,-2.59817 c 2.0464,-4.977099 2.52981,-10.182228 2.61819,-11.464467 z"
           id="path2-90-77-7-0-1"
           style="fill:#92d050;fill-opacity:1;stroke-width:0.0488285" />
        <path
           id="path2-90-1-4-2-5-94"
           style="display:inline;fill:#68923b;fill-opacity:1;stroke-width:0.0488286"
           d="m 146.85474,18.020304 c -2.52835,0.173832 -20.29134,1.865247 -21.53305,14.043589 -0.15088,1.301768 -0.23634,2.608982 -0.29249,3.91759 l 3.41168,-3.408061 c 0.0175,-0.169963 0.0361,-0.339757 0.0558,-0.509529 0.98731,-9.683234 12.41304,-12.73433 18.32705,-13.666351 0.0109,-0.131085 0.0247,-0.285112 0.031,-0.377238 z m -9.36377,9.007203 c -0.2002,0 -0.40034,0.07634 -0.55294,0.228925 l -8.73383,8.725051 c 0.0145,-0.337502 0.0311,-0.674537 0.0501,-1.011825 l -6.05648,6.050277 c -0.45801,0.457523 -0.45801,1.199738 0,1.657263 0.45801,0.457523 1.20083,0.457523 1.65933,0 l 1.2516,-1.250569 c 0.0571,-0.148153 0.14447,-0.287224 0.26407,-0.406694 l 12.67106,-12.658658 c 0.30518,-0.305181 0.30518,-0.799664 0,-1.104845 -0.15259,-0.152588 -0.35274,-0.228925 -0.55294,-0.228925 z" />
      </g>
    </g>
    <g
       id="g80849-0-4-8-1"
       transform="matrix(0.76662023,0,0,0.76662023,-45.684557,-3.6730209)"
       style="display:inline">
      <g
         id="g80785-3-8-0-3"
         transform="translate(-17.025069,46.585079)">
        <path
           d="m 146.85461,18.019882 c -2.52835,0.17383 -20.29122,1.865253 -21.53293,14.043594 -0.15088,1.30177 -0.23633,2.6094 -0.29248,3.918007 l 8.73397,-8.725183 c 0.30518,-0.305179 0.80079,-0.305179 1.10597,0 0.30518,0.305179 0.30518,0.799813 0,1.104991 l -12.67102,12.658327 c -0.45801,0.457524 -0.45801,1.199719 0,1.657243 0.45801,0.457523 1.20069,0.457523 1.65919,0 l 2.78958,-2.786649 c 2.0552,-0.0068 4.10893,-0.123536 6.15045,-0.359378 2.61136,-0.265627 4.73735,-1.292494 6.4737,-2.760769 h -4.92925 l 7.16755,-2.386742 c 0.54932,-0.727058 1.04347,-1.499527 1.48683,-2.300804 h -3.96195 l 5.2022,-2.59817 c 2.0464,-4.977099 2.52981,-10.182228 2.61819,-11.464467 z"
           id="path2-90-32-4-5-8"
           style="fill:#92d050;fill-opacity:1;stroke-width:0.0488285" />
        <path
           id="path2-90-1-44-8-6-0"
           style="display:inline;fill:#68923b;fill-opacity:1;stroke-width:0.0488286"
           d="m 146.85474,18.020304 c -2.52835,0.173832 -20.29134,1.865247 -21.53305,14.043589 -0.15088,1.301768 -0.23634,2.608982 -0.29249,3.91759 l 3.41168,-3.408061 c 0.0175,-0.169963 0.0361,-0.339757 0.0558,-0.509529 0.98731,-9.683234 12.41304,-12.73433 18.32705,-13.666351 0.0109,-0.131085 0.0247,-0.285112 0.031,-0.377238 z m -9.36377,9.007203 c -0.2002,0 -0.40034,0.07634 -0.55294,0.228925 l -8.73383,8.725051 c 0.0145,-0.337502 0.0311,-0.674537 0.0501,-1.011825 l -6.05648,6.050277 c -0.45801,0.457523 -0.45801,1.199738 0,1.657263 0.45801,0.457523 1.20083,0.457523 1.65933,0 l 1.2516,-1.250569 c 0.0571,-0.148153 0.14447,-0.287224 0.26407,-0.406694 l 12.67106,-12.658658 c 0.30518,-0.305181 0.30518,-0.799664 0,-1.104845 -0.15259,-0.152588 -0.35274,-0.228925 -0.55294,-0.228925 z" />
      </g>
      <g
         id="g80785-4-1-4-0-3"
         transform="translate(2.3732625,41.795296)"
         style="display:inline">
        <path
           d="m 146.85461,18.019882 c -2.52835,0.17383 -20.29122,1.865253 -21.53293,14.043594 -0.15088,1.30177 -0.23633,2.6094 -0.29248,3.918007 l 8.73397,-8.725183 c 0.30518,-0.305179 0.80079,-0.305179 1.10597,0 0.30518,0.305179 0.30518,0.799813 0,1.104991 l -12.67102,12.658327 c -0.45801,0.457524 -0.45801,1.199719 0,1.657243 0.45801,0.457523 1.20069,0.457523 1.65919,0 l 2.78958,-2.786649 c 2.0552,-0.0068 4.10893,-0.123536 6.15045,-0.359378 2.61136,-0.265627 4.73735,-1.292494 6.4737,-2.760769 h -4.92925 l 7.16755,-2.386742 c 0.54932,-0.727058 1.04347,-1.499527 1.48683,-2.300804 h -3.96195 l 5.2022,-2.59817 c 2.0464,-4.977099 2.52981,-10.182228 2.61819,-11.464467 z"
           id="path2-90-7-3-6-9-1"
           style="fill:#92d050;fill-opacity:1;stroke-width:0.0488285" />
        <path
           id="path2-90-1-3-9-6-8-9"
           style="display:inline;fill:#68923b;fill-opacity:1;stroke-width:0.0488286"
           d="m 146.85474,18.020304 c -2.52835,0.173832 -20.29134,1.865247 -21.53305,14.043589 -0.15088,1.301768 -0.23634,2.608982 -0.29249,3.91759 l 3.41168,-3.408061 c 0.0175,-0.169963 0.0361,-0.339757 0.0558,-0.509529 0.98731,-9.683234 12.41304,-12.73433 18.32705,-13.666351 0.0109,-0.131085 0.0247,-0.285112 0.031,-0.377238 z m -9.36377,9.007203 c -0.2002,0 -0.40034,0.07634 -0.55294,0.228925 l -8.73383,8.725051 c 0.0145,-0.337502 0.0311,-0.674537 0.0501,-1.011825 l -6.05648,6.050277 c -0.45801,0.457523 -0.45801,1.199738 0,1.657263 0.45801,0.457523 1.20083,0.457523 1.65933,0 l 1.2516,-1.250569 c 0.0571,-0.148153 0.14447,-0.287224 0.26407,-0.406694 l 12.67106,-12.658658 c 0.30518,-0.305181 0.30518,-0.799664 0,-1.104845 -0.15259,-0.152588 -0.35274,-0.228925 -0.55294,-0.228925 z" />
      </g>
      <g
         id="g80785-7-0-5-4-1"
         transform="translate(16.673711,46.585118)"
         style="display:inline">
        <path
           d="m 146.85461,18.019882 c -2.52835,0.17383 -20.29122,1.865253 -21.53293,14.043594 -0.15088,1.30177 -0.23633,2.6094 -0.29248,3.918007 l 8.73397,-8.725183 c 0.30518,-0.305179 0.80079,-0.305179 1.10597,0 0.30518,0.305179 0.30518,0.799813 0,1.104991 l -12.67102,12.658327 c -0.45801,0.457524 -0.45801,1.199719 0,1.657243 0.45801,0.457523 1.20069,0.457523 1.65919,0 l 2.78958,-2.786649 c 2.0552,-0.0068 4.10893,-0.123536 6.15045,-0.359378 2.61136,-0.265627 4.73735,-1.292494 6.4737,-2.760769 h -4.92925 l 7.16755,-2.386742 c 0.54932,-0.727058 1.04347,-1.499527 1.48683,-2.300804 h -3.96195 l 5.2022,-2.59817 c 2.0464,-4.977099 2.52981,-10.182228 2.61819,-11.464467 z"
           id="path2-90-77-7-0-1-3"
           style="fill:#92d050;fill-opacity:1;stroke-width:0.0488285" />
        <path
           id="path2-90-1-4-2-5-94-1"
           style="display:inline;fill:#68923b;fill-opacity:1;stroke-width:0.0488286"
           d="m 146.85474,18.020304 c -2.52835,0.173832 -20.29134,1.865247 -21.53305,14.043589 -0.15088,1.301768 -0.23634,2.608982 -0.29249,3.91759 l 3.41168,-3.408061 c 0.0175,-0.169963 0.0361,-0.339757 0.0558,-0.509529 0.98731,-9.683234 12.41304,-12.73433 18.32705,-13.666351 0.0109,-0.131085 0.0247,-0.285112 0.031,-0.377238 z m -9.36377,9.007203 c -0.2002,0 -0.40034,0.07634 -0.55294,0.228925 l -8.73383,8.725051 c 0.0145,-0.337502 0.0311,-0.674537 0.0501,-1.011825 l -6.05648,6.050277 c -0.45801,0.457523 -0.45801,1.199738 0,1.657263 0.45801,0.457523 1.20083,0.457523 1.65933,0 l 1.2516,-1.250569 c 0.0571,-0.148153 0.14447,-0.287224 0.26407,-0.406694 l 12.67106,-12.658658 c 0.30518,-0.305181 0.30518,-0.799664 0,-1.104845 -0.15259,-0.152588 -0.35274,-0.228925 -0.55294,-0.228925 z" />
      </g>
    </g>
    <g
       id="g80849-0-4-8-1-2"
       transform="matrix(0.76662023,0,0,0.76662023,-6.1071459,-22.923947)"
       style="display:inline">
      <g
         id="g80785-3-8-0-3-9"
         transform="translate(-17.025069,46.585079)">
        <path
           d="m 146.85461,18.019882 c -2.52835,0.17383 -20.29122,1.865253 -21.53293,14.043594 -0.15088,1.30177 -0.23633,2.6094 -0.29248,3.918007 l 8.73397,-8.725183 c 0.30518,-0.305179 0.80079,-0.305179 1.10597,0 0.30518,0.305179 0.30518,0.799813 0,1.104991 l -12.67102,12.658327 c -0.45801,0.457524 -0.45801,1.199719 0,1.657243 0.45801,0.457523 1.20069,0.457523 1.65919,0 l 2.78958,-2.786649 c 2.0552,-0.0068 4.10893,-0.123536 6.15045,-0.359378 2.61136,-0.265627 4.73735,-1.292494 6.4737,-2.760769 h -4.92925 l 7.16755,-2.386742 c 0.54932,-0.727058 1.04347,-1.499527 1.48683,-2.300804 h -3.96195 l 5.2022,-2.59817 c 2.0464,-4.977099 2.52981,-10.182228 2.61819,-11.464467 z"
           id="path2-90-32-4-5-8-1"
           style="fill:#92d050;fill-opacity:1;stroke-width:0.0488285" />
        <path
           id="path2-90-1-44-8-6-0-5"
           style="display:inline;fill:#68923b;fill-opacity:1;stroke-width:0.0488286"
           d="m 146.85474,18.020304 c -2.52835,0.173832 -20.29134,1.865247 -21.53305,14.043589 -0.15088,1.301768 -0.23634,2.608982 -0.29249,3.91759 l 3.41168,-3.408061 c 0.0175,-0.169963 0.0361,-0.339757 0.0558,-0.509529 0.98731,-9.683234 12.41304,-12.73433 18.32705,-13.666351 0.0109,-0.131085 0.0247,-0.285112 0.031,-0.377238 z m -9.36377,9.007203 c -0.2002,0 -0.40034,0.07634 -0.55294,0.228925 l -8.73383,8.725051 c 0.0145,-0.337502 0.0311,-0.674537 0.0501,-1.011825 l -6.05648,6.050277 c -0.45801,0.457523 -0.45801,1.199738 0,1.657263 0.45801,0.457523 1.20083,0.457523 1.65933,0 l 1.2516,-1.250569 c 0.0571,-0.148153 0.14447,-0.287224 0.26407,-0.406694 l 12.67106,-12.658658 c 0.30518,-0.305181 0.30518,-0.799664 0,-1.104845 -0.15259,-0.152588 -0.35274,-0.228925 -0.55294,-0.228925 z" />
      </g>
      <g
         id="g80785-4-1-4-0-3-2"
         transform="translate(2.3732625,41.795296)"
         style="display:inline">
        <path
           d="m 146.85461,18.019882 c -2.52835,0.17383 -20.29122,1.865253 -21.53293,14.043594 -0.15088,1.30177 -0.23633,2.6094 -0.29248,3.918007 l 8.73397,-8.725183 c 0.30518,-0.305179 0.80079,-0.305179 1.10597,0 0.30518,0.305179 0.30518,0.799813 0,1.104991 l -12.67102,12.658327 c -0.45801,0.457524 -0.45801,1.199719 0,1.657243 0.45801,0.457523 1.20069,0.457523 1.65919,0 l 2.78958,-2.786649 c 2.0552,-0.0068 4.10893,-0.123536 6.15045,-0.359378 2.61136,-0.265627 4.73735,-1.292494 6.4737,-2.760769 h -4.92925 l 7.16755,-2.386742 c 0.54932,-0.727058 1.04347,-1.499527 1.48683,-2.300804 h -3.96195 l 5.2022,-2.59817 c 2.0464,-4.977099 2.52981,-10.182228 2.61819,-11.464467 z"
           id="path2-90-7-3-6-9-1-5"
           style="fill:#92d050;fill-opacity:1;stroke-width:0.0488285" />
        <path
           id="path2-90-1-3-9-6-8-9-1"
           style="display:inline;fill:#68923b;fill-opacity:1;stroke-width:0.0488286"
           d="m 146.85474,18.020304 c -2.52835,0.173832 -20.29134,1.865247 -21.53305,14.043589 -0.15088,1.301768 -0.23634,2.608982 -0.29249,3.91759 l 3.41168,-3.408061 c 0.0175,-0.169963 0.0361,-0.339757 0.0558,-0.509529 0.98731,-9.683234 12.41304,-12.73433 18.32705,-13.666351 0.0109,-0.131085 0.0247,-0.285112 0.031,-0.377238 z m -9.36377,9.007203 c -0.2002,0 -0.40034,0.07634 -0.55294,0.228925 l -8.73383,8.725051 c 0.0145,-0.337502 0.0311,-0.674537 0.0501,-1.011825 l -6.05648,6.050277 c -0.45801,0.457523 -0.45801,1.199738 0,1.657263 0.45801,0.457523 1.20083,0.457523 1.65933,0 l 1.2516,-1.250569 c 0.0571,-0.148153 0.14447,-0.287224 0.26407,-0.406694 l 12.67106,-12.658658 c 0.30518,-0.305181 0.30518,-0.799664 0,-1.104845 -0.15259,-0.152588 -0.35274,-0.228925 -0.55294,-0.228925 z" />
      </g>
      <g
         id="g80785-7-0-5-4-1-6"
         transform="translate(16.673711,46.585118)"
         style="display:inline">
        <path
           d="m 146.85461,18.019882 c -2.52835,0.17383 -20.29122,1.865253 -21.53293,14.043594 -0.15088,1.30177 -0.23633,2.6094 -0.29248,3.918007 l 8.73397,-8.725183 c 0.30518,-0.305179 0.80079,-0.305179 1.10597,0 0.30518,0.305179 0.30518,0.799813 0,1.104991 l -12.67102,12.658327 c -0.45801,0.457524 -0.45801,1.199719 0,1.657243 0.45801,0.457523 1.20069,0.457523 1.65919,0 l 2.78958,-2.786649 c 2.0552,-0.0068 4.10893,-0.123536 6.15045,-0.359378 2.61136,-0.265627 4.73735,-1.292494 6.4737,-2.760769 h -4.92925 l 7.16755,-2.386742 c 0.54932,-0.727058 1.04347,-1.499527 1.48683,-2.300804 h -3.96195 l 5.2022,-2.59817 c 2.0464,-4.977099 2.52981,-10.182228 2.61819,-11.464467 z"
           id="path2-90-77-7-0-1-3-4"
           style="fill:#92d050;fill-opacity:1;stroke-width:0.0488285" />
        <path
           id="path2-90-1-4-2-5-94-1-0"
           style="display:inline;fill:#68923b;fill-opacity:1;stroke-width:0.0488286"
           d="m 146.85474,18.020304 c -2.52835,0.173832 -20.29134,1.865247 -21.53305,14.043589 -0.15088,1.301768 -0.23634,2.608982 -0.29249,3.91759 l 3.41168,-3.408061 c 0.0175,-0.169963 0.0361,-0.339757 0.0558,-0.509529 0.98731,-9.683234 12.41304,-12.73433 18.32705,-13.666351 0.0109,-0.131085 0.0247,-0.285112 0.031,-0.377238 z m -9.36377,9.007203 c -0.2002,0 -0.40034,0.07634 -0.55294,0.228925 l -8.73383,8.725051 c 0.0145,-0.337502 0.0311,-0.674537 0.0501,-1.011825 l -6.05648,6.050277 c -0.45801,0.457523 -0.45801,1.199738 0,1.657263 0.45801,0.457523 1.20083,0.457523 1.65933,0 l 1.2516,-1.250569 c 0.0571,-0.148153 0.14447,-0.287224 0.26407,-0.406694 l 12.67106,-12.658658 c 0.30518,-0.305181 0.30518,-0.799664 0,-1.104845 -0.15259,-0.152588 -0.35274,-0.228925 -0.55294,-0.228925 z" />
      </g>
    </g>
    <g
       id="g80849-0-4-8-1-2-9"
       transform="matrix(0.68144021,0,0,0.68144021,-24.440044,-35.216751)"
       style="display:inline">
      <g
         id="g80785-3-8-0-3-9-8"
         transform="translate(-17.025069,46.585079)">
        <path
           d="m 146.85461,18.019882 c -2.52835,0.17383 -20.29122,1.865253 -21.53293,14.043594 -0.15088,1.30177 -0.23633,2.6094 -0.29248,3.918007 l 8.73397,-8.725183 c 0.30518,-0.305179 0.80079,-0.305179 1.10597,0 0.30518,0.305179 0.30518,0.799813 0,1.104991 l -12.67102,12.658327 c -0.45801,0.457524 -0.45801,1.199719 0,1.657243 0.45801,0.457523 1.20069,0.457523 1.65919,0 l 2.78958,-2.786649 c 2.0552,-0.0068 4.10893,-0.123536 6.15045,-0.359378 2.61136,-0.265627 4.73735,-1.292494 6.4737,-2.760769 h -4.92925 l 7.16755,-2.386742 c 0.54932,-0.727058 1.04347,-1.499527 1.48683,-2.300804 h -3.96195 l 5.2022,-2.59817 c 2.0464,-4.977099 2.52981,-10.182228 2.61819,-11.464467 z"
           id="path2-90-32-4-5-8-1-3"
           style="fill:#92d050;fill-opacity:1;stroke-width:0.0488285" />
        <path
           id="path2-90-1-44-8-6-0-5-9"
           style="display:inline;fill:#68923b;fill-opacity:1;stroke-width:0.0488286"
           d="m 146.85474,18.020304 c -2.52835,0.173832 -20.29134,1.865247 -21.53305,14.043589 -0.15088,1.301768 -0.23634,2.608982 -0.29249,3.91759 l 3.41168,-3.408061 c 0.0175,-0.169963 0.0361,-0.339757 0.0558,-0.509529 0.98731,-9.683234 12.41304,-12.73433 18.32705,-13.666351 0.0109,-0.131085 0.0247,-0.285112 0.031,-0.377238 z m -9.36377,9.007203 c -0.2002,0 -0.40034,0.07634 -0.55294,0.228925 l -8.73383,8.725051 c 0.0145,-0.337502 0.0311,-0.674537 0.0501,-1.011825 l -6.05648,6.050277 c -0.45801,0.457523 -0.45801,1.199738 0,1.657263 0.45801,0.457523 1.20083,0.457523 1.65933,0 l 1.2516,-1.250569 c 0.0571,-0.148153 0.14447,-0.287224 0.26407,-0.406694 l 12.67106,-12.658658 c 0.30518,-0.305181 0.30518,-0.799664 0,-1.104845 -0.15259,-0.152588 -0.35274,-0.228925 -0.55294,-0.228925 z" />
      </g>
      <g
         id="g80785-4-1-4-0-3-2-2"
         transform="translate(2.3732625,41.795296)"
         style="display:inline">
        <path
           d="m 146.85461,18.019882 c -2.52835,0.17383 -20.29122,1.865253 -21.53293,14.043594 -0.15088,1.30177 -0.23633,2.6094 -0.29248,3.918007 l 8.73397,-8.725183 c 0.30518,-0.305179 0.80079,-0.305179 1.10597,0 0.30518,0.305179 0.30518,0.799813 0,1.104991 l -12.67102,12.658327 c -0.45801,0.457524 -0.45801,1.199719 0,1.657243 0.45801,0.457523 1.20069,0.457523 1.65919,0 l 2.78958,-2.786649 c 2.0552,-0.0068 4.10893,-0.123536 6.15045,-0.359378 2.61136,-0.265627 4.73735,-1.292494 6.4737,-2.760769 h -4.92925 l 7.16755,-2.386742 c 0.54932,-0.727058 1.04347,-1.499527 1.48683,-2.300804 h -3.96195 l 5.2022,-2.59817 c 2.0464,-4.977099 2.52981,-10.182228 2.61819,-11.464467 z"
           id="path2-90-7-3-6-9-1-5-8"
           style="fill:#92d050;fill-opacity:1;stroke-width:0.0488285" />
        <path
           id="path2-90-1-3-9-6-8-9-1-7"
           style="display:inline;fill:#68923b;fill-opacity:1;stroke-width:0.0488286"
           d="m 146.85474,18.020304 c -2.52835,0.173832 -20.29134,1.865247 -21.53305,14.043589 -0.15088,1.301768 -0.23634,2.608982 -0.29249,3.91759 l 3.41168,-3.408061 c 0.0175,-0.169963 0.0361,-0.339757 0.0558,-0.509529 0.98731,-9.683234 12.41304,-12.73433 18.32705,-13.666351 0.0109,-0.131085 0.0247,-0.285112 0.031,-0.377238 z m -9.36377,9.007203 c -0.2002,0 -0.40034,0.07634 -0.55294,0.228925 l -8.73383,8.725051 c 0.0145,-0.337502 0.0311,-0.674537 0.0501,-1.011825 l -6.05648,6.050277 c -0.45801,0.457523 -0.45801,1.199738 0,1.657263 0.45801,0.457523 1.20083,0.457523 1.65933,0 l 1.2516,-1.250569 c 0.0571,-0.148153 0.14447,-0.287224 0.26407,-0.406694 l 12.67106,-12.658658 c 0.30518,-0.305181 0.30518,-0.799664 0,-1.104845 -0.15259,-0.152588 -0.35274,-0.228925 -0.55294,-0.228925 z" />
      </g>
      <g
         id="g80785-7-0-5-4-1-6-2"
         transform="translate(16.673711,46.585118)"
         style="display:inline">
        <path
           d="m 146.85461,18.019882 c -2.52835,0.17383 -20.29122,1.865253 -21.53293,14.043594 -0.15088,1.30177 -0.23633,2.6094 -0.29248,3.918007 l 8.73397,-8.725183 c 0.30518,-0.305179 0.80079,-0.305179 1.10597,0 0.30518,0.305179 0.30518,0.799813 0,1.104991 l -12.67102,12.658327 c -0.45801,0.457524 -0.45801,1.199719 0,1.657243 0.45801,0.457523 1.20069,0.457523 1.65919,0 l 2.78958,-2.786649 c 2.0552,-0.0068 4.10893,-0.123536 6.15045,-0.359378 2.61136,-0.265627 4.73735,-1.292494 6.4737,-2.760769 h -4.92925 l 7.16755,-2.386742 c 0.54932,-0.727058 1.04347,-1.499527 1.48683,-2.300804 h -3.96195 l 5.2022,-2.59817 c 2.0464,-4.977099 2.52981,-10.182228 2.61819,-11.464467 z"
           id="path2-90-77-7-0-1-3-4-3"
           style="fill:#92d050;fill-opacity:1;stroke-width:0.0488285" />
        <path
           id="path2-90-1-4-2-5-94-1-0-7"
           style="display:inline;fill:#68923b;fill-opacity:1;stroke-width:0.0488286"
           d="m 146.85474,18.020304 c -2.52835,0.173832 -20.29134,1.865247 -21.53305,14.043589 -0.15088,1.301768 -0.23634,2.608982 -0.29249,3.91759 l 3.41168,-3.408061 c 0.0175,-0.169963 0.0361,-0.339757 0.0558,-0.509529 0.98731,-9.683234 12.41304,-12.73433 18.32705,-13.666351 0.0109,-0.131085 0.0247,-0.285112 0.031,-0.377238 z m -9.36377,9.007203 c -0.2002,0 -0.40034,0.07634 -0.55294,0.228925 l -8.73383,8.725051 c 0.0145,-0.337502 0.0311,-0.674537 0.0501,-1.011825 l -6.05648,6.050277 c -0.45801,0.457523 -0.45801,1.199738 0,1.657263 0.45801,0.457523 1.20083,0.457523 1.65933,0 l 1.2516,-1.250569 c 0.0571,-0.148153 0.14447,-0.287224 0.26407,-0.406694 l 12.67106,-12.658658 c 0.30518,-0.305181 0.30518,-0.799664 0,-1.104845 -0.15259,-0.152588 -0.35274,-0.228925 -0.55294,-0.228925 z" />
      </g>
    </g>
  </g>
</svg>
