<?xml version="1.0" encoding="UTF-8" standalone="no"?>
<!-- Created with Inkscape (http://www.inkscape.org/) -->

<svg
   width="500"
   height="500"
   viewBox="0 0 132.29166 132.29167"
   version="1.1"
   id="svg2515"
   inkscape:version="1.1.2 (b8e25be833, 2022-02-05)"
   sodipodi:docname="bonsai07s06normal.svg"
   inkscape:export-filename="C:\Users\Lenovo\Desktop\Coding\Media files\Bonsais\bonsai07.png"
   inkscape:export-xdpi="96"
   inkscape:export-ydpi="96"
   xmlns:inkscape="http://www.inkscape.org/namespaces/inkscape"
   xmlns:sodipodi="http://sodipodi.sourceforge.net/DTD/sodipodi-0.dtd"
   xmlns="http://www.w3.org/2000/svg"
   xmlns:svg="http://www.w3.org/2000/svg">
  <sodipodi:namedview
     id="namedview2517"
     pagecolor="#ffffff"
     bordercolor="#666666"
     borderopacity="1.0"
     inkscape:pageshadow="2"
     inkscape:pageopacity="0.0"
     inkscape:pagecheckerboard="0"
     inkscape:document-units="mm"
     showgrid="false"
     units="px"
     inkscape:zoom="1.4142136"
     inkscape:cx="272.58966"
     inkscape:cy="252.08356"
     inkscape:window-width="1920"
     inkscape:window-height="1001"
     inkscape:window-x="-9"
     inkscape:window-y="-9"
     inkscape:window-maximized="1"
     inkscape:current-layer="g17992" />
  <defs
     id="defs2512">
    <marker
       style="overflow:visible"
       id="Arrow1Sstart"
       refX="0.0"
       refY="0.0"
       orient="auto"
       inkscape:stockid="Arrow1Sstart"
       inkscape:isstock="true">
      <path
         transform="scale(0.2) translate(6,0)"
         style="fill-rule:evenodd;fill:context-stroke;stroke:context-stroke;stroke-width:1.0pt"
         d="M 0.0,0.0 L 5.0,-5.0 L -12.5,0.0 L 5.0,5.0 L 0.0,0.0 z "
         id="path24092" />
    </marker>
    <marker
       style="overflow:visible"
       id="Arrow1Mstart"
       refX="0.0"
       refY="0.0"
       orient="auto"
       inkscape:stockid="Arrow1Mstart"
       inkscape:isstock="true">
      <path
         transform="scale(0.4) translate(10,0)"
         style="fill-rule:evenodd;fill:context-stroke;stroke:context-stroke;stroke-width:1.0pt"
         d="M 0.0,0.0 L 5.0,-5.0 L -12.5,0.0 L 5.0,5.0 L 0.0,0.0 z "
         id="path24086" />
    </marker>
    <marker
       style="overflow:visible"
       id="Arrow1Lstart"
       refX="0.0"
       refY="0.0"
       orient="auto"
       inkscape:stockid="Arrow1Lstart"
       inkscape:isstock="true">
      <path
         transform="scale(0.8) translate(12.5,0)"
         style="fill-rule:evenodd;fill:context-stroke;stroke:context-stroke;stroke-width:1.0pt"
         d="M 0.0,0.0 L 5.0,-5.0 L -12.5,0.0 L 5.0,5.0 L 0.0,0.0 z "
         id="path24080" />
    </marker>
    <marker
       style="overflow:visible;"
       id="Arrow1Lend"
       refX="0.0"
       refY="0.0"
       orient="auto"
       inkscape:stockid="Arrow1Lend"
       inkscape:isstock="true">
      <path
         transform="scale(0.8) rotate(180) translate(12.5,0)"
         style="fill-rule:evenodd;fill:context-stroke;stroke:context-stroke;stroke-width:1.0pt;"
         d="M 0.0,0.0 L 5.0,-5.0 L -12.5,0.0 L 5.0,5.0 L 0.0,0.0 z "
         id="path24083" />
    </marker>
  </defs>
  <g
     inkscape:label="Full Cascade Style"
     inkscape:groupmode="layer"
     id="g17992"
     style="display:inline">
    <g
       id="g17906"
       transform="translate(124.68868,23.38778)">
      <path
         style="fill:#c49078;fill-opacity:1;stroke:#c49078;stroke-width:1;stroke-linecap:round;stroke-linejoin:round;stroke-miterlimit:4;stroke-dasharray:none;stroke-opacity:1"
         d="m -99.500015,30.838997 c 0,0 3.638799,-12.735798 11.176313,-18.453912 7.537513,-5.7181136 12.496916,-8.4784226 23.142885,-10.0872826 10.645968,-1.60885902 11.594881,-2.51410402 19.483052,-1.089031 7.888169,1.425072 21.667403,2.638059 27.063051,17.1643086 6.81601,18.350201 6.7258,20.263344 4.38657,25.721542 -2.33923,5.458201 -12.829945,17.760783 -15.334937,20.793141 -4.938372,5.978028 -5.458199,8.317257 -3.118973,13.255629 0.330604,2.90298 6.162124,16.3246 -1.302394,6.77885 -6.495032,-13.276708 -1.296749,-18.994823 1.822223,-22.893535 3.118972,-3.898715 15.179241,-16.422587 15.075031,-22.61254 -0.10422,-6.189957 -5.4582,-19.233654 -7.277605,-20.013397 -1.819399,-0.779743 -7.017683,-14.5551986 -26.771164,-12.7357996 -19.753485,1.819402 -19.233657,3.3788866 -25.211683,9.6168266 -5.152861,5.376899 -9.876742,12.21597 -7.277599,14.035371 2.599142,1.8194 -15.85477,0.519829 -15.85477,0.519829 z"
         id="path17902"
         sodipodi:nodetypes="cssssssccssssssc" />
      <path
         id="path17904"
         style="display:inline;fill:#996a5a;fill-opacity:1;stroke:#996a5a;stroke-width:3.77953;stroke-linecap:round;stroke-linejoin:round;stroke-miterlimit:4;stroke-dasharray:none;stroke-opacity:1"
         d="m -198.50781,1.9003906 c -11.86585,0.2218352 -22.69775,2.9847019 -47.84571,6.7851563 -40.23673,6.0807311 -58.98051,16.5132281 -87.46875,38.1250001 -28.48824,21.611769 -42.24023,69.746093 -42.24023,69.746093 0,0 4.05066,0.25117 7.5293,0.46289 4.26508,-12.64023 17.66416,-47.519947 40.73437,-65.021483 28.48824,-21.611765 47.23397,-32.044269 87.47071,-38.125 40.23672,-6.0807282 43.82315,-9.5013383 73.63671,-4.1152345 20.11821,3.6345445 50.36393,6.9268215 74.181644,25.5390625 C -117.04264,12.062664 -150.85821,8.5173186 -172.7168,4.5683594 -183.89688,2.5485708 -191.3883,1.7672895 -198.50781,1.9003906 Z m 85.4707,47.4980474 c 12.08952,11.359811 17.783837,22.610761 20.875001,23.935546 6.876491,2.947061 27.111957,52.245516 27.505859,75.640626 0.393865,23.3951 -45.18832,70.72954 -56.97656,85.46484 -11.78824,14.73529 -31.43683,36.34766 -6.88867,86.52735 6.32744,8.09164 10.12193,11.80717 12.19531,12.59375 -1.72535,-1.89721 -3.75185,-4.31148 -6.17188,-7.40625 -24.54815,-50.17969 -4.89957,-71.79206 6.88867,-86.52735 11.78825,-14.7353 57.370432,-62.06974 56.976568,-85.46484 C -59.026715,130.767 -79.262181,81.468545 -86.138672,78.521484 -89.703333,76.993771 -96.724636,62.271435 -113.03711,49.398438 Z"
         transform="scale(0.26458333)" />
    </g>
    <g
       id="g14957-5-8-8-6-2-0"
       transform="matrix(0.93685654,0,0,1.0593526,-112.04882,10.779395)"
       style="display:inline">
      <path
         d="m 190.04491,46.908858 h -66.294 l -0.007,0.02822 c 0,0 0.52564,4.205111 2.794,8.015111 1.87325,3.150306 5.31989,5.044722 8.99583,5.044722 h 39.38764 c 7.47536,0 13.87828,-5.383389 15.08125,-12.738805 0.0318,-0.204611 0.0494,-0.321028 0.0494,-0.321028 l -0.007,-0.02822 v 0"
         style="fill:#5884cc;fill-opacity:1;fill-rule:nonzero;stroke:none;stroke-width:0.0352778"
         id="path410-5-2-5-0-5-5" />
      <path
         d="m 131.47675,54.952191 c -2.26484,-3.81 -2.79048,-8.015111 -2.79048,-8.015111 l 0.004,-0.02822 h -4.93889 l -0.007,0.02822 c 0,0 0.52564,4.205111 2.794,8.015111 1.87325,3.150306 5.31989,5.044722 8.99583,5.044722 h 4.93889 c -3.67594,0 -7.11906,-1.894416 -8.99583,-5.044722"
         style="fill:#4477c5;fill-opacity:1;fill-rule:nonzero;stroke:none;stroke-width:0.0352778"
         id="path416-2-6-3-9-8-0" />
      <path
         d="m 189.5475,38.42808 h -65.3027 c -1.17122,0 -2.23661,0.47625 -3.00566,1.245306 -0.76906,0.769055 -1.24531,1.834444 -1.24531,3.009194 0,2.183695 1.64042,3.982861 3.75708,4.226278 h 66.294 c 2.13078,-0.250472 3.75709,-2.053167 3.75709,-4.226278 0,-2.3495 -1.905,-4.2545 -4.2545,-4.2545 v 0"
         style="fill:#6799d7;fill-opacity:1;fill-rule:nonzero;stroke:none;stroke-width:0.0352778"
         id="path422-0-0-4-4-0-4" />
      <path
         d="m 124.93272,42.68258 c 0,-1.17475 0.47625,-2.240139 1.2453,-3.009194 0.77259,-0.769056 1.83445,-1.245306 3.0092,-1.245306 h -4.94242 c -1.17122,0 -2.23661,0.47625 -3.00566,1.245306 -0.76906,0.769055 -1.24531,1.834444 -1.24531,3.009194 0,2.183695 1.64042,3.982861 3.75708,4.226278 h 4.93889 c -2.11314,-0.243417 -3.75708,-2.042583 -3.75708,-4.226278 v 0"
         style="fill:#4f8cd1;fill-opacity:1;fill-rule:nonzero;stroke:none;stroke-width:0.0352778"
         id="path424-7-6-6-8-5-9" />
    </g>
    <g
       id="g13172-1-7-8-6-1-5-4-7"
       transform="matrix(0.42308982,0,0,0.42308982,-6.6929705,16.187795)"
       style="display:inline">
      <g
         id="g1026-5-3-4-9-4-9-3-0"
         transform="matrix(1.7323514,0,0,1.7323514,88.015267,-80.552475)">
        <polygon
           class="cls-1"
           points="37.93,50.37 30.37,37.27 15.24,37.27 7.67,50.37 15.24,63.47 30.37,63.47 "
           id="polygon14-4-2-88-8-40-3-0-8"
           style="fill:#99cc00;fill-opacity:1" />
        <path
           id="polygon16-3-6-8-4-2-9-1-6"
           style="fill:#6d9003;fill-opacity:1;stroke-width:1"
           class="cls-1"
           d="M 15.240068,37.269902 7.67,50.37 15.240068,63.480107 h 5.759521 L 13.479081,50.448613 21.03914,37.348516 h 9.376221 l -0.04541,-0.07861 z" />
      </g>
      <g
         id="g1026-9-48-4-02-1-7-6-9-63"
         transform="matrix(1.7323514,0,0,1.7323514,124.5879,-98.495687)">
        <polygon
           class="cls-1"
           points="15.24,37.27 7.67,50.37 15.24,63.47 30.37,63.47 37.93,50.37 30.37,37.27 "
           id="polygon14-3-3-3-9-6-7-4-3-9"
           style="fill:#99cc00;fill-opacity:1" />
        <path
           id="polygon16-8-8-5-2-4-9-9-7-4"
           style="fill:#6d9003;fill-opacity:1;stroke-width:1"
           class="cls-1"
           d="M 15.240068,37.269902 7.67,50.37 15.240068,63.480107 h 5.759521 L 13.479081,50.448613 21.03914,37.348516 h 9.376221 l -0.04541,-0.07861 z" />
      </g>
      <g
         id="g1026-9-4-4-7-5-2-7-5-2-4"
         transform="matrix(1.7323514,0,0,1.7323514,160.86322,-80.773313)">
        <polygon
           class="cls-1"
           points="15.24,37.27 7.67,50.37 15.24,63.47 30.37,63.47 37.93,50.37 30.37,37.27 "
           id="polygon14-3-9-4-8-8-8-85-0-0-7"
           style="fill:#99cc00;fill-opacity:1" />
        <path
           id="polygon16-8-1-0-7-7-6-9-3-2-6"
           style="fill:#6d9003;fill-opacity:1;stroke-width:1"
           class="cls-1"
           d="M 15.240068,37.269902 7.67,50.37 15.240068,63.480107 h 5.759521 L 13.479081,50.448613 21.03914,37.348516 h 9.376221 l -0.04541,-0.07861 z" />
      </g>
    </g>
    <g
       id="g13172-1-7-8-6-1-5-4-7-9"
       transform="matrix(0.42308982,0,0,0.42308982,34.905421,38.093246)"
       style="display:inline">
      <g
         id="g1026-5-3-4-9-4-9-3-0-1"
         transform="matrix(1.7323514,0,0,1.7323514,88.015267,-80.552475)">
        <polygon
           class="cls-1"
           points="30.37,37.27 15.24,37.27 7.67,50.37 15.24,63.47 30.37,63.47 37.93,50.37 "
           id="polygon14-4-2-88-8-40-3-0-8-2"
           style="fill:#99cc00;fill-opacity:1" />
        <path
           id="polygon16-3-6-8-4-2-9-1-6-4"
           style="fill:#6d9003;fill-opacity:1;stroke-width:1"
           class="cls-1"
           d="M 15.240068,37.269902 7.67,50.37 15.240068,63.480107 h 5.759521 L 13.479081,50.448613 21.03914,37.348516 h 9.376221 l -0.04541,-0.07861 z" />
      </g>
      <g
         id="g1026-9-48-4-02-1-7-6-9-63-4"
         transform="matrix(1.7323514,0,0,1.7323514,124.5879,-98.495687)">
        <polygon
           class="cls-1"
           points="7.67,50.37 15.24,63.47 30.37,63.47 37.93,50.37 30.37,37.27 15.24,37.27 "
           id="polygon14-3-3-3-9-6-7-4-3-9-2"
           style="fill:#99cc00;fill-opacity:1" />
        <path
           id="polygon16-8-8-5-2-4-9-9-7-4-9"
           style="fill:#6d9003;fill-opacity:1;stroke-width:1"
           class="cls-1"
           d="M 15.240068,37.269902 7.67,50.37 15.240068,63.480107 h 5.759521 L 13.479081,50.448613 21.03914,37.348516 h 9.376221 l -0.04541,-0.07861 z" />
      </g>
      <g
         id="g1026-9-4-4-7-5-2-7-5-2-4-7"
         transform="matrix(1.7323514,0,0,1.7323514,160.86322,-80.773313)">
        <polygon
           class="cls-1"
           points="7.67,50.37 15.24,63.47 30.37,63.47 37.93,50.37 30.37,37.27 15.24,37.27 "
           id="polygon14-3-9-4-8-8-8-85-0-0-7-4"
           style="fill:#99cc00;fill-opacity:1" />
        <path
           id="polygon16-8-1-0-7-7-6-9-3-2-6-8"
           style="fill:#6d9003;fill-opacity:1;stroke-width:1"
           class="cls-1"
           d="M 15.240068,37.269902 7.67,50.37 15.240068,63.480107 h 5.759521 L 13.479081,50.448613 21.03914,37.348516 h 9.376221 l -0.04541,-0.07861 z" />
      </g>
    </g>
    <g
       id="g13172-1-7-8-6-1-5-4-7-9-2"
       transform="matrix(0.35922721,0,0,0.35922721,30.628103,64.689248)"
       style="display:inline">
      <g
         id="g1026-5-3-4-9-4-9-3-0-1-2"
         transform="matrix(1.7323514,0,0,1.7323514,88.015267,-80.552475)">
        <polygon
           class="cls-1"
           points="15.24,37.27 7.67,50.37 15.24,63.47 30.37,63.47 37.93,50.37 30.37,37.27 "
           id="polygon14-4-2-88-8-40-3-0-8-2-2"
           style="fill:#99cc00;fill-opacity:1" />
        <path
           id="polygon16-3-6-8-4-2-9-1-6-4-8"
           style="fill:#6d9003;fill-opacity:1;stroke-width:1"
           class="cls-1"
           d="M 15.240068,37.269902 7.67,50.37 15.240068,63.480107 h 5.759521 L 13.479081,50.448613 21.03914,37.348516 h 9.376221 l -0.04541,-0.07861 z" />
      </g>
      <g
         id="g1026-9-48-4-02-1-7-6-9-63-4-2"
         transform="matrix(1.7323514,0,0,1.7323514,124.5879,-98.495687)">
        <polygon
           class="cls-1"
           points="15.24,63.47 30.37,63.47 37.93,50.37 30.37,37.27 15.24,37.27 7.67,50.37 "
           id="polygon14-3-3-3-9-6-7-4-3-9-2-8"
           style="fill:#99cc00;fill-opacity:1" />
        <path
           id="polygon16-8-8-5-2-4-9-9-7-4-9-3"
           style="fill:#6d9003;fill-opacity:1;stroke-width:1"
           class="cls-1"
           d="M 15.240068,37.269902 7.67,50.37 15.240068,63.480107 h 5.759521 L 13.479081,50.448613 21.03914,37.348516 h 9.376221 l -0.04541,-0.07861 z" />
      </g>
      <g
         id="g1026-9-4-4-7-5-2-7-5-2-4-7-8"
         transform="matrix(1.7323514,0,0,1.7323514,160.86322,-80.773313)">
        <polygon
           class="cls-1"
           points="15.24,63.47 30.37,63.47 37.93,50.37 30.37,37.27 15.24,37.27 7.67,50.37 "
           id="polygon14-3-9-4-8-8-8-85-0-0-7-4-4"
           style="fill:#99cc00;fill-opacity:1" />
        <path
           id="polygon16-8-1-0-7-7-6-9-3-2-6-8-7"
           style="fill:#6d9003;fill-opacity:1;stroke-width:1"
           class="cls-1"
           d="M 15.240068,37.269902 7.67,50.37 15.240068,63.480107 h 5.759521 L 13.479081,50.448613 21.03914,37.348516 h 9.376221 l -0.04541,-0.07861 z" />
      </g>
    </g>
    <g
       id="g13172-1-7-8-6-1-5-4-7-9-2-4"
       transform="matrix(0.35922721,0,0,0.35922721,47.738877,90.082394)"
       style="display:inline">
      <g
         id="g1026-5-3-4-9-4-9-3-0-1-2-1"
         transform="matrix(1.7323514,0,0,1.7323514,88.015267,-80.552475)">
        <polygon
           class="cls-1"
           points="30.37,37.27 15.24,37.27 7.67,50.37 15.24,63.47 30.37,63.47 37.93,50.37 "
           id="polygon14-4-2-88-8-40-3-0-8-2-2-6"
           style="fill:#99cc00;fill-opacity:1" />
        <path
           id="polygon16-3-6-8-4-2-9-1-6-4-8-7"
           style="fill:#6d9003;fill-opacity:1;stroke-width:1"
           class="cls-1"
           d="M 15.240068,37.269902 7.67,50.37 15.240068,63.480107 h 5.759521 L 13.479081,50.448613 21.03914,37.348516 h 9.376221 l -0.04541,-0.07861 z" />
      </g>
      <g
         id="g1026-9-48-4-02-1-7-6-9-63-4-2-6"
         transform="matrix(1.7323514,0,0,1.7323514,124.5879,-98.495687)">
        <polygon
           class="cls-1"
           points="7.67,50.37 15.24,63.47 30.37,63.47 37.93,50.37 30.37,37.27 15.24,37.27 "
           id="polygon14-3-3-3-9-6-7-4-3-9-2-8-6"
           style="fill:#99cc00;fill-opacity:1" />
        <path
           id="polygon16-8-8-5-2-4-9-9-7-4-9-3-0"
           style="fill:#6d9003;fill-opacity:1;stroke-width:1"
           class="cls-1"
           d="M 15.240068,37.269902 7.67,50.37 15.240068,63.480107 h 5.759521 L 13.479081,50.448613 21.03914,37.348516 h 9.376221 l -0.04541,-0.07861 z" />
      </g>
      <g
         id="g1026-9-4-4-7-5-2-7-5-2-4-7-8-8"
         transform="matrix(1.7323514,0,0,1.7323514,160.86322,-80.773313)">
        <polygon
           class="cls-1"
           points="7.67,50.37 15.24,63.47 30.37,63.47 37.93,50.37 30.37,37.27 15.24,37.27 "
           id="polygon14-3-9-4-8-8-8-85-0-0-7-4-4-9"
           style="fill:#99cc00;fill-opacity:1" />
        <path
           id="polygon16-8-1-0-7-7-6-9-3-2-6-8-7-9"
           style="fill:#6d9003;fill-opacity:1;stroke-width:1"
           class="cls-1"
           d="M 15.240068,37.269902 7.67,50.37 15.240068,63.480107 h 5.759521 L 13.479081,50.448613 21.03914,37.348516 h 9.376221 l -0.04541,-0.07861 z" />
      </g>
    </g>
    <g
       id="g13172-1-7-8-6-1-5-4-7-9-2-4-4"
       transform="matrix(0.31931308,0,0,0.31931308,41.155983,115.63886)"
       style="display:inline">
      <g
         id="g1026-5-3-4-9-4-9-3-0-1-2-1-3"
         transform="matrix(1.7323514,0,0,1.7323514,88.015267,-80.552475)">
        <polygon
           class="cls-1"
           points="15.24,63.47 30.37,63.47 37.93,50.37 30.37,37.27 15.24,37.27 7.67,50.37 "
           id="polygon14-4-2-88-8-40-3-0-8-2-2-6-5"
           style="fill:#99cc00;fill-opacity:1" />
        <path
           id="polygon16-3-6-8-4-2-9-1-6-4-8-7-4"
           style="fill:#6d9003;fill-opacity:1;stroke-width:1"
           class="cls-1"
           d="M 15.240068,37.269902 7.67,50.37 15.240068,63.480107 h 5.759521 L 13.479081,50.448613 21.03914,37.348516 h 9.376221 l -0.04541,-0.07861 z" />
      </g>
      <g
         id="g1026-9-48-4-02-1-7-6-9-63-4-2-6-0"
         transform="matrix(1.7323514,0,0,1.7323514,124.5879,-98.495687)">
        <polygon
           class="cls-1"
           points="37.93,50.37 30.37,37.27 15.24,37.27 7.67,50.37 15.24,63.47 30.37,63.47 "
           id="polygon14-3-3-3-9-6-7-4-3-9-2-8-6-3"
           style="fill:#99cc00;fill-opacity:1" />
        <path
           id="polygon16-8-8-5-2-4-9-9-7-4-9-3-0-0"
           style="fill:#6d9003;fill-opacity:1;stroke-width:1"
           class="cls-1"
           d="M 15.240068,37.269902 7.67,50.37 15.240068,63.480107 h 5.759521 L 13.479081,50.448613 21.03914,37.348516 h 9.376221 l -0.04541,-0.07861 z" />
      </g>
      <g
         id="g1026-9-4-4-7-5-2-7-5-2-4-7-8-8-1"
         transform="matrix(1.7323514,0,0,1.7323514,160.86322,-80.773313)">
        <polygon
           class="cls-1"
           points="37.93,50.37 30.37,37.27 15.24,37.27 7.67,50.37 15.24,63.47 30.37,63.47 "
           id="polygon14-3-9-4-8-8-8-85-0-0-7-4-4-9-3"
           style="fill:#99cc00;fill-opacity:1" />
        <path
           id="polygon16-8-1-0-7-7-6-9-3-2-6-8-7-9-8"
           style="fill:#6d9003;fill-opacity:1;stroke-width:1"
           class="cls-1"
           d="M 15.240068,37.269902 7.67,50.37 15.240068,63.480107 h 5.759521 L 13.479081,50.448613 21.03914,37.348516 h 9.376221 l -0.04541,-0.07861 z" />
      </g>
    </g>
  </g>
</svg>
