<?xml version="1.0" encoding="UTF-8" standalone="no"?>
<!-- Created with Inkscape (http://www.inkscape.org/) -->

<svg
   width="500"
   height="500"
   viewBox="0 0 132.29166 132.29167"
   version="1.1"
   id="svg2515"
   inkscape:version="1.1.2 (b8e25be833, 2022-02-05)"
   sodipodi:docname="bonsai06s02normal.svg"
   inkscape:export-filename="C:\Users\Lenovo\Desktop\Coding\Media files\Bonsais\bonsai06.png"
   inkscape:export-xdpi="96"
   inkscape:export-ydpi="96"
   xmlns:inkscape="http://www.inkscape.org/namespaces/inkscape"
   xmlns:sodipodi="http://sodipodi.sourceforge.net/DTD/sodipodi-0.dtd"
   xmlns="http://www.w3.org/2000/svg"
   xmlns:svg="http://www.w3.org/2000/svg"
   xmlns:sketch="http://www.bohemiancoding.com/sketch/ns">
  <sodipodi:namedview
     id="namedview2517"
     pagecolor="#ffffff"
     bordercolor="#666666"
     borderopacity="1.0"
     inkscape:pageshadow="2"
     inkscape:pageopacity="0.0"
     inkscape:pagecheckerboard="0"
     inkscape:document-units="mm"
     showgrid="false"
     units="px"
     inkscape:zoom="1.4142136"
     inkscape:cx="272.58966"
     inkscape:cy="248.54803"
     inkscape:window-width="1920"
     inkscape:window-height="1001"
     inkscape:window-x="-9"
     inkscape:window-y="-9"
     inkscape:window-maximized="1"
     inkscape:current-layer="g17385"
     showguides="false" />
  <defs
     id="defs2512">
    <marker
       style="overflow:visible"
       id="Arrow1Sstart"
       refX="0.0"
       refY="0.0"
       orient="auto"
       inkscape:stockid="Arrow1Sstart"
       inkscape:isstock="true">
      <path
         transform="scale(0.2) translate(6,0)"
         style="fill-rule:evenodd;fill:context-stroke;stroke:context-stroke;stroke-width:1.0pt"
         d="M 0.0,0.0 L 5.0,-5.0 L -12.5,0.0 L 5.0,5.0 L 0.0,0.0 z "
         id="path24092" />
    </marker>
    <marker
       style="overflow:visible"
       id="Arrow1Mstart"
       refX="0.0"
       refY="0.0"
       orient="auto"
       inkscape:stockid="Arrow1Mstart"
       inkscape:isstock="true">
      <path
         transform="scale(0.4) translate(10,0)"
         style="fill-rule:evenodd;fill:context-stroke;stroke:context-stroke;stroke-width:1.0pt"
         d="M 0.0,0.0 L 5.0,-5.0 L -12.5,0.0 L 5.0,5.0 L 0.0,0.0 z "
         id="path24086" />
    </marker>
    <marker
       style="overflow:visible"
       id="Arrow1Lstart"
       refX="0.0"
       refY="0.0"
       orient="auto"
       inkscape:stockid="Arrow1Lstart"
       inkscape:isstock="true">
      <path
         transform="scale(0.8) translate(12.5,0)"
         style="fill-rule:evenodd;fill:context-stroke;stroke:context-stroke;stroke-width:1.0pt"
         d="M 0.0,0.0 L 5.0,-5.0 L -12.5,0.0 L 5.0,5.0 L 0.0,0.0 z "
         id="path24080" />
    </marker>
    <marker
       style="overflow:visible;"
       id="Arrow1Lend"
       refX="0.0"
       refY="0.0"
       orient="auto"
       inkscape:stockid="Arrow1Lend"
       inkscape:isstock="true">
      <path
         transform="scale(0.8) rotate(180) translate(12.5,0)"
         style="fill-rule:evenodd;fill:context-stroke;stroke:context-stroke;stroke-width:1.0pt;"
         d="M 0.0,0.0 L 5.0,-5.0 L -12.5,0.0 L 5.0,5.0 L 0.0,0.0 z "
         id="path24083" />
    </marker>
  </defs>
  <g
     inkscape:label="Informal Upright Style"
     inkscape:groupmode="layer"
     id="g17385"
     style="display:inline">
    <g
       id="g17299"
       transform="translate(157.36058,-8.4372489)"
       style="display:inline">
      <g
         id="g17297"
         transform="translate(-99.28418,15.207661)">
        <path
           style="display:inline;fill:#c49078;fill-opacity:1;stroke:#c49078;stroke-width:1;stroke-linecap:round;stroke-linejoin:round;stroke-miterlimit:4;stroke-dasharray:none;stroke-opacity:1"
           d="m 1.3438111,105.02403 c 0,0 1.67276,-4.3889 -5.29634,-12.902323 -5.77031,-7.049 -13.8088901,-10.89145 -10.0810001,-22.220767 2.98845,-9.082106 31.71641,-16.843433 36.92376,-22.50005 9.82115,-10.668487 4.67956,-12.619651 -1.58353,-22.120096 C 16.120271,17.413522 8.0705011,20.957555 7.7574611,9.5870616 14.803541,20.119696 25.572371,18.866153 27.251611,28.55162 c 3.25423,4.596313 8.98302,11.718683 5.98525,14.797826 -2.2954,2.357716 -9.08519,15.422411 -20.03503,17.643247 -9.5903099,1.945097 -16.1629199,12.6144 -16.1629199,12.6144 -0.83876,8.885304 16.1910099,9.784984 21.9744099,18.254694 5.64474,8.266633 8.35928,5.77528 10.95842,12.103913 1.20531,2.9348 -28.6279299,1.05833 -28.6279299,1.05833 z"
           id="path17293"
           sodipodi:nodetypes="cssssccsssssc" />
        <path
           id="path17295"
           style="display:inline;fill:#9f6a57;fill-opacity:1;stroke:#9f6a57;stroke-width:3.77953;stroke-linecap:round;stroke-linejoin:round;stroke-miterlimit:4;stroke-dasharray:none;stroke-opacity:1"
           d="m 616.93555,1.8886719 c 0.55432,20.1347921 7.52722,27.8974661 16.79883,33.5175781 -5.45695,-5.012127 -9.35289,-12.21383 -10.31641,-24.990234 -2.22889,-2.6069221 -4.40217,-5.4177306 -6.48242,-8.5273441 z m 41.48828,48.2539061 c 3.39981,2.902953 6.69017,6.465507 9.7207,11.0625 23.67153,35.907194 43.10565,43.281672 5.98633,83.603512 -19.68132,21.37934 -128.25976,50.713 -139.55469,85.03907 -14.08966,42.81948 16.29251,57.34248 38.10156,83.98437 26.33989,32.17671 20.01758,48.76367 20.01758,48.76367 0,0 2.85378,0.16826 6.91797,0.39063 0.26375,-6.79288 -1.99109,-21.72151 -20.65039,-44.51563 -21.80905,-26.64189 -52.19123,-41.16294 -38.10156,-83.98242 11.29493,-34.32607 119.87336,-63.66167 139.55469,-85.04101 37.11932,-40.32185 17.68519,-47.69633 -5.98633,-83.60352 -4.87199,-7.390285 -10.41195,-12.111719 -16.00586,-15.701172 z"
           transform="matrix(0.26458333,0,0,0.26458333,-155.47346,9.0871833)"
           sodipodi:nodetypes="cccccssssccssssc" />
      </g>
    </g>
    <g
       id="g1638-6-6"
       transform="matrix(0.46471746,0,0,-0.25891218,-387.13525,464.91411)"
       style="display:inline">
      <path
         d="m 1063.22,1363.63 -3.97,5.96 H 896.482 l -3.956,-5.96 c -12.178,-18.31 -12.178,-42.14 0,-60.45 l 3.956,-5.96 h 162.768 l 3.97,5.96 c 12.17,18.31 12.17,42.14 0,60.45"
         style="fill:#9fbde1;fill-opacity:1;fill-rule:nonzero;stroke:none;stroke-width:0.1"
         id="path314-0-6-3" />
      <path
         d="m 909.212,1385.47 h 137.318 v -15.88 H 909.212 v 15.88"
         style="fill:#bfd9f3;fill-opacity:1;fill-rule:nonzero;stroke:none;stroke-width:0.1"
         id="path316-2-3" />
      <path
         d="m 906.53,1363.63 3.957,5.96 h -14.005 l -3.956,-5.96 c -12.178,-18.31 -12.178,-42.14 0,-60.45 l 3.956,-5.96 h 14.005 l -3.957,5.96 c -12.177,18.31 -12.177,42.14 0,60.45"
         style="fill:#799dbe;fill-opacity:1;fill-rule:nonzero;stroke:none;stroke-width:0.1"
         id="path326-2-6" />
      <path
         d="m 909.212,1385.47 h 14.005 v -15.88 h -14.005 v 15.88"
         style="fill:#96b9e4;fill-opacity:1;fill-rule:nonzero;stroke:none;stroke-width:0.1"
         id="path328-0-1" />
    </g>
    <g
       id="g22226-7-9-2"
       transform="matrix(0.54835514,0,0,0.54835514,-45.591587,36.599837)"
       style="display:inline">
      <g
         id="g22138-0-2-3"
         transform="translate(-26.833461,54.442803)">
        <g
           id="Page-1-8-2-4-6"
           stroke="none"
           stroke-width="1"
           fill="none"
           fill-rule="evenodd"
           sketch:type="MSPage"
           style="fill:#81cc29;fill-opacity:1"
           transform="matrix(1.25,0,0,1.25,123.91155,12.485537)">
          <g
             id="Icon-Set-Filled-29-3-8"
             sketch:type="MSLayerGroup"
             transform="translate(-519,-781)"
             fill="#000000"
             style="fill:#81cc29;fill-opacity:1">
            <path
               d="M 542.067,786.028 C 540.599,783.053 537.543,781 534,781 c -4.749,0 -8.63,3.682 -8.967,8.345 C 521.542,790.34 519,793.39 519,797 c 0,4.26 3.54,7.755 8,8 h 15 c 4.966,0 9,-4.253 9,-9.5 0,-5.056 -3.951,-9.177 -8.933,-9.472"
               id="cloud-6-3-9"
               sketch:type="MSShapeGroup"
               style="fill:#99ffcc;fill-opacity:1" />
          </g>
        </g>
        <path
           id="cloud-7-3-9-3"
           style="fill:#5de7a2;fill-opacity:1;fill-rule:evenodd;stroke:none;stroke-width:1.25"
           d="m 142.66142,12.485383 c -5.93625,0 -10.78737,4.602654 -11.20862,10.431404 -4.36375,1.243751 -7.54166,5.056426 -7.54166,9.568923 0,5.325002 4.42491,9.693659 9.99991,9.999909 h 4.23385 c -5.575,-0.30625 -10.00043,-4.674907 -10.00043,-9.999909 0,-4.512497 3.17791,-8.325172 7.54166,-9.568923 0.36984,-5.117375 4.15439,-9.28873 9.08989,-10.2309 -0.68475,-0.130707 -1.3914,-0.200504 -2.1146,-0.200504 z" />
      </g>
      <g
         id="g22138-4-6-3-7"
         transform="translate(0.33401899,35.484808)"
         style="display:inline">
        <g
           id="Page-1-8-0-8-6-2"
           stroke="none"
           stroke-width="1"
           fill="none"
           fill-rule="evenodd"
           sketch:type="MSPage"
           style="fill:#81cc29;fill-opacity:1"
           transform="matrix(1.25,0,0,1.25,123.91155,12.485537)">
          <g
             id="Icon-Set-Filled-2-7-9-1"
             sketch:type="MSLayerGroup"
             transform="translate(-519,-781)"
             fill="#000000"
             style="fill:#81cc29;fill-opacity:1">
            <path
               d="M 542.067,786.028 C 540.599,783.053 537.543,781 534,781 c -4.749,0 -8.63,3.682 -8.967,8.345 C 521.542,790.34 519,793.39 519,797 c 0,4.26 3.54,7.755 8,8 h 15 c 4.966,0 9,-4.253 9,-9.5 0,-5.056 -3.951,-9.177 -8.933,-9.472"
               id="cloud-1-4-0-9"
               sketch:type="MSShapeGroup"
               style="fill:#99ffcc;fill-opacity:1" />
          </g>
        </g>
        <path
           id="cloud-7-8-8-3-7"
           style="fill:#5de7a2;fill-opacity:1;fill-rule:evenodd;stroke:none;stroke-width:1.25"
           d="m 142.66142,12.485383 c -5.93625,0 -10.78737,4.602654 -11.20862,10.431404 -4.36375,1.243751 -7.54166,5.056426 -7.54166,9.568923 0,5.325002 4.42491,9.693659 9.99991,9.999909 h 4.23385 c -5.575,-0.30625 -10.00043,-4.674907 -10.00043,-9.999909 0,-4.512497 3.17791,-8.325172 7.54166,-9.568923 0.36984,-5.117375 4.15439,-9.28873 9.08989,-10.2309 -0.68475,-0.130707 -1.3914,-0.200504 -2.1146,-0.200504 z" />
      </g>
      <g
         id="g22138-5-3-3-7"
         transform="translate(29.81882,54.442617)"
         style="display:inline">
        <g
           id="Page-1-8-4-1-3-5"
           stroke="none"
           stroke-width="1"
           fill="none"
           fill-rule="evenodd"
           sketch:type="MSPage"
           style="fill:#81cc29;fill-opacity:1"
           transform="matrix(1.25,0,0,1.25,123.91155,12.485537)">
          <g
             id="Icon-Set-Filled-8-8-5-8"
             sketch:type="MSLayerGroup"
             transform="translate(-519,-781)"
             fill="#000000"
             style="fill:#81cc29;fill-opacity:1">
            <path
               d="M 542.067,786.028 C 540.599,783.053 537.543,781 534,781 c -4.749,0 -8.63,3.682 -8.967,8.345 C 521.542,790.34 519,793.39 519,797 c 0,4.26 3.54,7.755 8,8 h 15 c 4.966,0 9,-4.253 9,-9.5 0,-5.056 -3.951,-9.177 -8.933,-9.472"
               id="cloud-3-11-3-0"
               sketch:type="MSShapeGroup"
               style="fill:#99ffcc;fill-opacity:1" />
          </g>
        </g>
        <path
           id="cloud-7-4-4-6-2"
           style="fill:#5de7a2;fill-opacity:1;fill-rule:evenodd;stroke:none;stroke-width:1.25"
           d="m 142.66142,12.485383 c -5.93625,0 -10.78737,4.602654 -11.20862,10.431404 -4.36375,1.243751 -7.54166,5.056426 -7.54166,9.568923 0,5.325002 4.42491,9.693659 9.99991,9.999909 h 4.23385 c -5.575,-0.30625 -10.00043,-4.674907 -10.00043,-9.999909 0,-4.512497 3.17791,-8.325172 7.54166,-9.568923 0.36984,-5.117375 4.15439,-9.28873 9.08989,-10.2309 -0.68475,-0.130707 -1.3914,-0.200504 -2.1146,-0.200504 z" />
      </g>
    </g>
    <g
       id="g22226-7-9-2-1"
       transform="matrix(0.54835514,0,0,0.54835514,17.616995,24.706427)"
       style="display:inline">
      <g
         id="g22138-0-2-3-3"
         transform="translate(-26.833461,54.442803)">
        <g
           id="Page-1-8-2-4-6-9"
           stroke="none"
           stroke-width="1"
           fill="none"
           fill-rule="evenodd"
           sketch:type="MSPage"
           style="fill:#81cc29;fill-opacity:1"
           transform="matrix(1.25,0,0,1.25,123.91155,12.485537)">
          <g
             id="Icon-Set-Filled-29-3-8-1"
             sketch:type="MSLayerGroup"
             transform="translate(-519,-781)"
             fill="#000000"
             style="fill:#81cc29;fill-opacity:1">
            <path
               d="M 542.067,786.028 C 540.599,783.053 537.543,781 534,781 c -4.749,0 -8.63,3.682 -8.967,8.345 C 521.542,790.34 519,793.39 519,797 c 0,4.26 3.54,7.755 8,8 h 15 c 4.966,0 9,-4.253 9,-9.5 0,-5.056 -3.951,-9.177 -8.933,-9.472"
               id="cloud-6-3-9-3"
               sketch:type="MSShapeGroup"
               style="fill:#99ffcc;fill-opacity:1" />
          </g>
        </g>
        <path
           id="cloud-7-3-9-3-2"
           style="fill:#5de7a2;fill-opacity:1;fill-rule:evenodd;stroke:none;stroke-width:1.25"
           d="m 142.66142,12.485383 c -5.93625,0 -10.78737,4.602654 -11.20862,10.431404 -4.36375,1.243751 -7.54166,5.056426 -7.54166,9.568923 0,5.325002 4.42491,9.693659 9.99991,9.999909 h 4.23385 c -5.575,-0.30625 -10.00043,-4.674907 -10.00043,-9.999909 0,-4.512497 3.17791,-8.325172 7.54166,-9.568923 0.36984,-5.117375 4.15439,-9.28873 9.08989,-10.2309 -0.68475,-0.130707 -1.3914,-0.200504 -2.1146,-0.200504 z" />
      </g>
      <g
         id="g22138-4-6-3-7-9"
         transform="translate(0.33401899,35.484808)"
         style="display:inline">
        <g
           id="Page-1-8-0-8-6-2-5"
           stroke="none"
           stroke-width="1"
           fill="none"
           fill-rule="evenodd"
           sketch:type="MSPage"
           style="fill:#81cc29;fill-opacity:1"
           transform="matrix(1.25,0,0,1.25,123.91155,12.485537)">
          <g
             id="Icon-Set-Filled-2-7-9-1-2"
             sketch:type="MSLayerGroup"
             transform="translate(-519,-781)"
             fill="#000000"
             style="fill:#81cc29;fill-opacity:1">
            <path
               d="M 542.067,786.028 C 540.599,783.053 537.543,781 534,781 c -4.749,0 -8.63,3.682 -8.967,8.345 C 521.542,790.34 519,793.39 519,797 c 0,4.26 3.54,7.755 8,8 h 15 c 4.966,0 9,-4.253 9,-9.5 0,-5.056 -3.951,-9.177 -8.933,-9.472"
               id="cloud-1-4-0-9-8"
               sketch:type="MSShapeGroup"
               style="fill:#99ffcc;fill-opacity:1" />
          </g>
        </g>
        <path
           id="cloud-7-8-8-3-7-8"
           style="fill:#5de7a2;fill-opacity:1;fill-rule:evenodd;stroke:none;stroke-width:1.25"
           d="m 142.66142,12.485383 c -5.93625,0 -10.78737,4.602654 -11.20862,10.431404 -4.36375,1.243751 -7.54166,5.056426 -7.54166,9.568923 0,5.325002 4.42491,9.693659 9.99991,9.999909 h 4.23385 c -5.575,-0.30625 -10.00043,-4.674907 -10.00043,-9.999909 0,-4.512497 3.17791,-8.325172 7.54166,-9.568923 0.36984,-5.117375 4.15439,-9.28873 9.08989,-10.2309 -0.68475,-0.130707 -1.3914,-0.200504 -2.1146,-0.200504 z" />
      </g>
      <g
         id="g22138-5-3-3-7-3"
         transform="translate(29.81882,54.442617)"
         style="display:inline">
        <g
           id="Page-1-8-4-1-3-5-1"
           stroke="none"
           stroke-width="1"
           fill="none"
           fill-rule="evenodd"
           sketch:type="MSPage"
           style="fill:#81cc29;fill-opacity:1"
           transform="matrix(1.25,0,0,1.25,123.91155,12.485537)">
          <g
             id="Icon-Set-Filled-8-8-5-8-2"
             sketch:type="MSLayerGroup"
             transform="translate(-519,-781)"
             fill="#000000"
             style="fill:#81cc29;fill-opacity:1">
            <path
               d="M 542.067,786.028 C 540.599,783.053 537.543,781 534,781 c -4.749,0 -8.63,3.682 -8.967,8.345 C 521.542,790.34 519,793.39 519,797 c 0,4.26 3.54,7.755 8,8 h 15 c 4.966,0 9,-4.253 9,-9.5 0,-5.056 -3.951,-9.177 -8.933,-9.472"
               id="cloud-3-11-3-0-3"
               sketch:type="MSShapeGroup"
               style="fill:#99ffcc;fill-opacity:1" />
          </g>
        </g>
        <path
           id="cloud-7-4-4-6-2-0"
           style="fill:#5de7a2;fill-opacity:1;fill-rule:evenodd;stroke:none;stroke-width:1.25"
           d="m 142.66142,12.485383 c -5.93625,0 -10.78737,4.602654 -11.20862,10.431404 -4.36375,1.243751 -7.54166,5.056426 -7.54166,9.568923 0,5.325002 4.42491,9.693659 9.99991,9.999909 h 4.23385 c -5.575,-0.30625 -10.00043,-4.674907 -10.00043,-9.999909 0,-4.512497 3.17791,-8.325172 7.54166,-9.568923 0.36984,-5.117375 4.15439,-9.28873 9.08989,-10.2309 -0.68475,-0.130707 -1.3914,-0.200504 -2.1146,-0.200504 z" />
      </g>
    </g>
    <g
       id="g22226-7-9-2-4"
       transform="matrix(0.46558455,0,0,0.46558455,-9.622073,15.625703)"
       style="display:inline">
      <g
         id="g22138-0-2-3-4"
         transform="translate(-26.833461,54.442803)">
        <g
           id="Page-1-8-2-4-6-2"
           stroke="none"
           stroke-width="1"
           fill="none"
           fill-rule="evenodd"
           sketch:type="MSPage"
           style="fill:#81cc29;fill-opacity:1"
           transform="matrix(1.25,0,0,1.25,123.91155,12.485537)">
          <g
             id="Icon-Set-Filled-29-3-8-0"
             sketch:type="MSLayerGroup"
             transform="translate(-519,-781)"
             fill="#000000"
             style="fill:#81cc29;fill-opacity:1">
            <path
               d="M 542.067,786.028 C 540.599,783.053 537.543,781 534,781 c -4.749,0 -8.63,3.682 -8.967,8.345 C 521.542,790.34 519,793.39 519,797 c 0,4.26 3.54,7.755 8,8 h 15 c 4.966,0 9,-4.253 9,-9.5 0,-5.056 -3.951,-9.177 -8.933,-9.472"
               id="cloud-6-3-9-8"
               sketch:type="MSShapeGroup"
               style="fill:#99ffcc;fill-opacity:1" />
          </g>
        </g>
        <path
           id="cloud-7-3-9-3-7"
           style="fill:#5de7a2;fill-opacity:1;fill-rule:evenodd;stroke:none;stroke-width:1.25"
           d="m 142.66142,12.485383 c -5.93625,0 -10.78737,4.602654 -11.20862,10.431404 -4.36375,1.243751 -7.54166,5.056426 -7.54166,9.568923 0,5.325002 4.42491,9.693659 9.99991,9.999909 h 4.23385 c -5.575,-0.30625 -10.00043,-4.674907 -10.00043,-9.999909 0,-4.512497 3.17791,-8.325172 7.54166,-9.568923 0.36984,-5.117375 4.15439,-9.28873 9.08989,-10.2309 -0.68475,-0.130707 -1.3914,-0.200504 -2.1146,-0.200504 z" />
      </g>
      <g
         id="g22138-4-6-3-7-7"
         transform="translate(0.33401899,35.484808)"
         style="display:inline">
        <g
           id="Page-1-8-0-8-6-2-9"
           stroke="none"
           stroke-width="1"
           fill="none"
           fill-rule="evenodd"
           sketch:type="MSPage"
           style="fill:#81cc29;fill-opacity:1"
           transform="matrix(1.25,0,0,1.25,123.91155,12.485537)">
          <g
             id="Icon-Set-Filled-2-7-9-1-9"
             sketch:type="MSLayerGroup"
             transform="translate(-519,-781)"
             fill="#000000"
             style="fill:#81cc29;fill-opacity:1">
            <path
               d="M 542.067,786.028 C 540.599,783.053 537.543,781 534,781 c -4.749,0 -8.63,3.682 -8.967,8.345 C 521.542,790.34 519,793.39 519,797 c 0,4.26 3.54,7.755 8,8 h 15 c 4.966,0 9,-4.253 9,-9.5 0,-5.056 -3.951,-9.177 -8.933,-9.472"
               id="cloud-1-4-0-9-3"
               sketch:type="MSShapeGroup"
               style="fill:#99ffcc;fill-opacity:1" />
          </g>
        </g>
        <path
           id="cloud-7-8-8-3-7-1"
           style="fill:#5de7a2;fill-opacity:1;fill-rule:evenodd;stroke:none;stroke-width:1.25"
           d="m 142.66142,12.485383 c -5.93625,0 -10.78737,4.602654 -11.20862,10.431404 -4.36375,1.243751 -7.54166,5.056426 -7.54166,9.568923 0,5.325002 4.42491,9.693659 9.99991,9.999909 h 4.23385 c -5.575,-0.30625 -10.00043,-4.674907 -10.00043,-9.999909 0,-4.512497 3.17791,-8.325172 7.54166,-9.568923 0.36984,-5.117375 4.15439,-9.28873 9.08989,-10.2309 -0.68475,-0.130707 -1.3914,-0.200504 -2.1146,-0.200504 z" />
      </g>
      <g
         id="g22138-5-3-3-7-1"
         transform="translate(29.81882,54.442617)"
         style="display:inline">
        <g
           id="Page-1-8-4-1-3-5-9"
           stroke="none"
           stroke-width="1"
           fill="none"
           fill-rule="evenodd"
           sketch:type="MSPage"
           style="fill:#81cc29;fill-opacity:1"
           transform="matrix(1.25,0,0,1.25,123.91155,12.485537)">
          <g
             id="Icon-Set-Filled-8-8-5-8-0"
             sketch:type="MSLayerGroup"
             transform="translate(-519,-781)"
             fill="#000000"
             style="fill:#81cc29;fill-opacity:1">
            <path
               d="M 542.067,786.028 C 540.599,783.053 537.543,781 534,781 c -4.749,0 -8.63,3.682 -8.967,8.345 C 521.542,790.34 519,793.39 519,797 c 0,4.26 3.54,7.755 8,8 h 15 c 4.966,0 9,-4.253 9,-9.5 0,-5.056 -3.951,-9.177 -8.933,-9.472"
               id="cloud-3-11-3-0-5"
               sketch:type="MSShapeGroup"
               style="fill:#99ffcc;fill-opacity:1" />
          </g>
        </g>
        <path
           id="cloud-7-4-4-6-2-6"
           style="fill:#5de7a2;fill-opacity:1;fill-rule:evenodd;stroke:none;stroke-width:1.25"
           d="m 142.66142,12.485383 c -5.93625,0 -10.78737,4.602654 -11.20862,10.431404 -4.36375,1.243751 -7.54166,5.056426 -7.54166,9.568923 0,5.325002 4.42491,9.693659 9.99991,9.999909 h 4.23385 c -5.575,-0.30625 -10.00043,-4.674907 -10.00043,-9.999909 0,-4.512497 3.17791,-8.325172 7.54166,-9.568923 0.36984,-5.117375 4.15439,-9.28873 9.08989,-10.2309 -0.68475,-0.130707 -1.3914,-0.200504 -2.1146,-0.200504 z" />
      </g>
    </g>
    <g
       id="g22226-7-9-2-4-5"
       transform="matrix(0.46558455,0,0,0.46558455,27.838671,2.7247789)"
       style="display:inline">
      <g
         id="g22138-0-2-3-4-0"
         transform="translate(-26.833461,54.442803)">
        <g
           id="Page-1-8-2-4-6-2-4"
           stroke="none"
           stroke-width="1"
           fill="none"
           fill-rule="evenodd"
           sketch:type="MSPage"
           style="fill:#81cc29;fill-opacity:1"
           transform="matrix(1.25,0,0,1.25,123.91155,12.485537)">
          <g
             id="Icon-Set-Filled-29-3-8-0-1"
             sketch:type="MSLayerGroup"
             transform="translate(-519,-781)"
             fill="#000000"
             style="fill:#81cc29;fill-opacity:1">
            <path
               d="M 542.067,786.028 C 540.599,783.053 537.543,781 534,781 c -4.749,0 -8.63,3.682 -8.967,8.345 C 521.542,790.34 519,793.39 519,797 c 0,4.26 3.54,7.755 8,8 h 15 c 4.966,0 9,-4.253 9,-9.5 0,-5.056 -3.951,-9.177 -8.933,-9.472"
               id="cloud-6-3-9-8-6"
               sketch:type="MSShapeGroup"
               style="fill:#99ffcc;fill-opacity:1" />
          </g>
        </g>
        <path
           id="cloud-7-3-9-3-7-0"
           style="fill:#5de7a2;fill-opacity:1;fill-rule:evenodd;stroke:none;stroke-width:1.25"
           d="m 142.66142,12.485383 c -5.93625,0 -10.78737,4.602654 -11.20862,10.431404 -4.36375,1.243751 -7.54166,5.056426 -7.54166,9.568923 0,5.325002 4.42491,9.693659 9.99991,9.999909 h 4.23385 c -5.575,-0.30625 -10.00043,-4.674907 -10.00043,-9.999909 0,-4.512497 3.17791,-8.325172 7.54166,-9.568923 0.36984,-5.117375 4.15439,-9.28873 9.08989,-10.2309 -0.68475,-0.130707 -1.3914,-0.200504 -2.1146,-0.200504 z" />
      </g>
      <g
         id="g22138-4-6-3-7-7-7"
         transform="translate(0.33401899,35.484808)"
         style="display:inline">
        <g
           id="Page-1-8-0-8-6-2-9-6"
           stroke="none"
           stroke-width="1"
           fill="none"
           fill-rule="evenodd"
           sketch:type="MSPage"
           style="fill:#81cc29;fill-opacity:1"
           transform="matrix(1.25,0,0,1.25,123.91155,12.485537)">
          <g
             id="Icon-Set-Filled-2-7-9-1-9-2"
             sketch:type="MSLayerGroup"
             transform="translate(-519,-781)"
             fill="#000000"
             style="fill:#81cc29;fill-opacity:1">
            <path
               d="M 542.067,786.028 C 540.599,783.053 537.543,781 534,781 c -4.749,0 -8.63,3.682 -8.967,8.345 C 521.542,790.34 519,793.39 519,797 c 0,4.26 3.54,7.755 8,8 h 15 c 4.966,0 9,-4.253 9,-9.5 0,-5.056 -3.951,-9.177 -8.933,-9.472"
               id="cloud-1-4-0-9-3-2"
               sketch:type="MSShapeGroup"
               style="fill:#99ffcc;fill-opacity:1" />
          </g>
        </g>
        <path
           id="cloud-7-8-8-3-7-1-5"
           style="fill:#5de7a2;fill-opacity:1;fill-rule:evenodd;stroke:none;stroke-width:1.25"
           d="m 142.66142,12.485383 c -5.93625,0 -10.78737,4.602654 -11.20862,10.431404 -4.36375,1.243751 -7.54166,5.056426 -7.54166,9.568923 0,5.325002 4.42491,9.693659 9.99991,9.999909 h 4.23385 c -5.575,-0.30625 -10.00043,-4.674907 -10.00043,-9.999909 0,-4.512497 3.17791,-8.325172 7.54166,-9.568923 0.36984,-5.117375 4.15439,-9.28873 9.08989,-10.2309 -0.68475,-0.130707 -1.3914,-0.200504 -2.1146,-0.200504 z" />
      </g>
      <g
         id="g22138-5-3-3-7-1-3"
         transform="translate(29.81882,54.442617)"
         style="display:inline">
        <g
           id="Page-1-8-4-1-3-5-9-0"
           stroke="none"
           stroke-width="1"
           fill="none"
           fill-rule="evenodd"
           sketch:type="MSPage"
           style="fill:#81cc29;fill-opacity:1"
           transform="matrix(1.25,0,0,1.25,123.91155,12.485537)">
          <g
             id="Icon-Set-Filled-8-8-5-8-0-9"
             sketch:type="MSLayerGroup"
             transform="translate(-519,-781)"
             fill="#000000"
             style="fill:#81cc29;fill-opacity:1">
            <path
               d="M 542.067,786.028 C 540.599,783.053 537.543,781 534,781 c -4.749,0 -8.63,3.682 -8.967,8.345 C 521.542,790.34 519,793.39 519,797 c 0,4.26 3.54,7.755 8,8 h 15 c 4.966,0 9,-4.253 9,-9.5 0,-5.056 -3.951,-9.177 -8.933,-9.472"
               id="cloud-3-11-3-0-5-8"
               sketch:type="MSShapeGroup"
               style="fill:#99ffcc;fill-opacity:1" />
          </g>
        </g>
        <path
           id="cloud-7-4-4-6-2-6-9"
           style="fill:#5de7a2;fill-opacity:1;fill-rule:evenodd;stroke:none;stroke-width:1.25"
           d="m 142.66142,12.485383 c -5.93625,0 -10.78737,4.602654 -11.20862,10.431404 -4.36375,1.243751 -7.54166,5.056426 -7.54166,9.568923 0,5.325002 4.42491,9.693659 9.99991,9.999909 h 4.23385 c -5.575,-0.30625 -10.00043,-4.674907 -10.00043,-9.999909 0,-4.512497 3.17791,-8.325172 7.54166,-9.568923 0.36984,-5.117375 4.15439,-9.28873 9.08989,-10.2309 -0.68475,-0.130707 -1.3914,-0.200504 -2.1146,-0.200504 z" />
      </g>
    </g>
    <g
       id="g22226-7-9-2-4-0"
       transform="matrix(0.41385294,0,0,0.41385294,6.3894327,-14.271793)"
       style="display:inline">
      <g
         id="g22138-0-2-3-4-5"
         transform="translate(-26.833461,54.442803)">
        <g
           id="Page-1-8-2-4-6-2-5"
           stroke="none"
           stroke-width="1"
           fill="none"
           fill-rule="evenodd"
           sketch:type="MSPage"
           style="fill:#81cc29;fill-opacity:1"
           transform="matrix(1.25,0,0,1.25,123.91155,12.485537)">
          <g
             id="Icon-Set-Filled-29-3-8-0-2"
             sketch:type="MSLayerGroup"
             transform="translate(-519,-781)"
             fill="#000000"
             style="fill:#81cc29;fill-opacity:1">
            <path
               d="M 542.067,786.028 C 540.599,783.053 537.543,781 534,781 c -4.749,0 -8.63,3.682 -8.967,8.345 C 521.542,790.34 519,793.39 519,797 c 0,4.26 3.54,7.755 8,8 h 15 c 4.966,0 9,-4.253 9,-9.5 0,-5.056 -3.951,-9.177 -8.933,-9.472"
               id="cloud-6-3-9-8-4"
               sketch:type="MSShapeGroup"
               style="fill:#99ffcc;fill-opacity:1" />
          </g>
        </g>
        <path
           id="cloud-7-3-9-3-7-4"
           style="fill:#5de7a2;fill-opacity:1;fill-rule:evenodd;stroke:none;stroke-width:1.25"
           d="m 142.66142,12.485383 c -5.93625,0 -10.78737,4.602654 -11.20862,10.431404 -4.36375,1.243751 -7.54166,5.056426 -7.54166,9.568923 0,5.325002 4.42491,9.693659 9.99991,9.999909 h 4.23385 c -5.575,-0.30625 -10.00043,-4.674907 -10.00043,-9.999909 0,-4.512497 3.17791,-8.325172 7.54166,-9.568923 0.36984,-5.117375 4.15439,-9.28873 9.08989,-10.2309 -0.68475,-0.130707 -1.3914,-0.200504 -2.1146,-0.200504 z" />
      </g>
      <g
         id="g22138-4-6-3-7-7-3"
         transform="translate(0.33401899,35.484808)"
         style="display:inline">
        <g
           id="Page-1-8-0-8-6-2-9-8"
           stroke="none"
           stroke-width="1"
           fill="none"
           fill-rule="evenodd"
           sketch:type="MSPage"
           style="fill:#81cc29;fill-opacity:1"
           transform="matrix(1.25,0,0,1.25,123.91155,12.485537)">
          <g
             id="Icon-Set-Filled-2-7-9-1-9-1"
             sketch:type="MSLayerGroup"
             transform="translate(-519,-781)"
             fill="#000000"
             style="fill:#81cc29;fill-opacity:1">
            <path
               d="M 542.067,786.028 C 540.599,783.053 537.543,781 534,781 c -4.749,0 -8.63,3.682 -8.967,8.345 C 521.542,790.34 519,793.39 519,797 c 0,4.26 3.54,7.755 8,8 h 15 c 4.966,0 9,-4.253 9,-9.5 0,-5.056 -3.951,-9.177 -8.933,-9.472"
               id="cloud-1-4-0-9-3-3"
               sketch:type="MSShapeGroup"
               style="fill:#99ffcc;fill-opacity:1" />
          </g>
        </g>
        <path
           id="cloud-7-8-8-3-7-1-7"
           style="fill:#5de7a2;fill-opacity:1;fill-rule:evenodd;stroke:none;stroke-width:1.25"
           d="m 142.66142,12.485383 c -5.93625,0 -10.78737,4.602654 -11.20862,10.431404 -4.36375,1.243751 -7.54166,5.056426 -7.54166,9.568923 0,5.325002 4.42491,9.693659 9.99991,9.999909 h 4.23385 c -5.575,-0.30625 -10.00043,-4.674907 -10.00043,-9.999909 0,-4.512497 3.17791,-8.325172 7.54166,-9.568923 0.36984,-5.117375 4.15439,-9.28873 9.08989,-10.2309 -0.68475,-0.130707 -1.3914,-0.200504 -2.1146,-0.200504 z" />
      </g>
      <g
         id="g22138-5-3-3-7-1-31"
         transform="translate(29.81882,54.442617)"
         style="display:inline">
        <g
           id="Page-1-8-4-1-3-5-9-02"
           stroke="none"
           stroke-width="1"
           fill="none"
           fill-rule="evenodd"
           sketch:type="MSPage"
           style="fill:#81cc29;fill-opacity:1"
           transform="matrix(1.25,0,0,1.25,123.91155,12.485537)">
          <g
             id="Icon-Set-Filled-8-8-5-8-0-0"
             sketch:type="MSLayerGroup"
             transform="translate(-519,-781)"
             fill="#000000"
             style="fill:#81cc29;fill-opacity:1">
            <path
               d="M 542.067,786.028 C 540.599,783.053 537.543,781 534,781 c -4.749,0 -8.63,3.682 -8.967,8.345 C 521.542,790.34 519,793.39 519,797 c 0,4.26 3.54,7.755 8,8 h 15 c 4.966,0 9,-4.253 9,-9.5 0,-5.056 -3.951,-9.177 -8.933,-9.472"
               id="cloud-3-11-3-0-5-6"
               sketch:type="MSShapeGroup"
               style="fill:#99ffcc;fill-opacity:1" />
          </g>
        </g>
        <path
           id="cloud-7-4-4-6-2-6-1"
           style="fill:#5de7a2;fill-opacity:1;fill-rule:evenodd;stroke:none;stroke-width:1.25"
           d="m 142.66142,12.485383 c -5.93625,0 -10.78737,4.602654 -11.20862,10.431404 -4.36375,1.243751 -7.54166,5.056426 -7.54166,9.568923 0,5.325002 4.42491,9.693659 9.99991,9.999909 h 4.23385 c -5.575,-0.30625 -10.00043,-4.674907 -10.00043,-9.999909 0,-4.512497 3.17791,-8.325172 7.54166,-9.568923 0.36984,-5.117375 4.15439,-9.28873 9.08989,-10.2309 -0.68475,-0.130707 -1.3914,-0.200504 -2.1146,-0.200504 z" />
      </g>
    </g>
  </g>
</svg>
