<?xml version="1.0" encoding="UTF-8" standalone="no"?>
<!-- Created with Inkscape (http://www.inkscape.org/) -->

<svg
   width="500"
   height="500"
   viewBox="0 0 132.29166 132.29167"
   version="1.1"
   id="svg2515"
   inkscape:version="1.1.2 (b8e25be833, 2022-02-05)"
   sodipodi:docname="bonsai01s02blooming.svg"
   inkscape:export-filename="C:\Users\Lenovo\Desktop\Coding\Media files\Bonsais\bonsai01.png"
   inkscape:export-xdpi="96"
   inkscape:export-ydpi="96"
   xmlns:inkscape="http://www.inkscape.org/namespaces/inkscape"
   xmlns:sodipodi="http://sodipodi.sourceforge.net/DTD/sodipodi-0.dtd"
   xmlns="http://www.w3.org/2000/svg"
   xmlns:svg="http://www.w3.org/2000/svg">
  <sodipodi:namedview
     id="namedview2517"
     pagecolor="#ffffff"
     bordercolor="#666666"
     borderopacity="1.0"
     inkscape:pageshadow="2"
     inkscape:pageopacity="0.0"
     inkscape:pagecheckerboard="0"
     inkscape:document-units="mm"
     showgrid="false"
     units="px"
     inkscape:zoom="1.4142136"
     inkscape:cx="235.82011"
     inkscape:cy="247.84092"
     inkscape:window-width="1920"
     inkscape:window-height="1001"
     inkscape:window-x="-9"
     inkscape:window-y="-9"
     inkscape:window-maximized="1"
     inkscape:current-layer="g17385" />
  <defs
     id="defs2512">
    <marker
       style="overflow:visible"
       id="Arrow1Sstart"
       refX="0.0"
       refY="0.0"
       orient="auto"
       inkscape:stockid="Arrow1Sstart"
       inkscape:isstock="true">
      <path
         transform="scale(0.2) translate(6,0)"
         style="fill-rule:evenodd;fill:context-stroke;stroke:context-stroke;stroke-width:1.0pt"
         d="M 0.0,0.0 L 5.0,-5.0 L -12.5,0.0 L 5.0,5.0 L 0.0,0.0 z "
         id="path24092" />
    </marker>
    <marker
       style="overflow:visible"
       id="Arrow1Mstart"
       refX="0.0"
       refY="0.0"
       orient="auto"
       inkscape:stockid="Arrow1Mstart"
       inkscape:isstock="true">
      <path
         transform="scale(0.4) translate(10,0)"
         style="fill-rule:evenodd;fill:context-stroke;stroke:context-stroke;stroke-width:1.0pt"
         d="M 0.0,0.0 L 5.0,-5.0 L -12.5,0.0 L 5.0,5.0 L 0.0,0.0 z "
         id="path24086" />
    </marker>
    <marker
       style="overflow:visible"
       id="Arrow1Lstart"
       refX="0.0"
       refY="0.0"
       orient="auto"
       inkscape:stockid="Arrow1Lstart"
       inkscape:isstock="true">
      <path
         transform="scale(0.8) translate(12.5,0)"
         style="fill-rule:evenodd;fill:context-stroke;stroke:context-stroke;stroke-width:1.0pt"
         d="M 0.0,0.0 L 5.0,-5.0 L -12.5,0.0 L 5.0,5.0 L 0.0,0.0 z "
         id="path24080" />
    </marker>
    <marker
       style="overflow:visible;"
       id="Arrow1Lend"
       refX="0.0"
       refY="0.0"
       orient="auto"
       inkscape:stockid="Arrow1Lend"
       inkscape:isstock="true">
      <path
         transform="scale(0.8) rotate(180) translate(12.5,0)"
         style="fill-rule:evenodd;fill:context-stroke;stroke:context-stroke;stroke-width:1.0pt;"
         d="M 0.0,0.0 L 5.0,-5.0 L -12.5,0.0 L 5.0,5.0 L 0.0,0.0 z "
         id="path24083" />
    </marker>
  </defs>
  <g
     inkscape:label="Informal Upright Style"
     inkscape:groupmode="layer"
     id="g17385"
     style="display:inline">
    <g
       id="g17299"
       transform="translate(157.36058,-8.4372489)"
       style="display:inline">
      <g
         id="g17297"
         transform="translate(-99.28418,15.207661)">
        <path
           style="display:inline;fill:#d25c4f;fill-opacity:1;stroke:#d25c4f;stroke-width:1;stroke-linecap:round;stroke-linejoin:round;stroke-miterlimit:4;stroke-dasharray:none;stroke-opacity:1"
           d="m 1.3438111,105.02403 c 0,0 1.67276,-4.3889 -5.29634,-12.902323 -5.77031,-7.049 -13.8088901,-10.89145 -10.0810001,-22.220767 2.98845,-9.082106 31.71641,-16.843433 36.92376,-22.50005 9.82115,-10.668487 4.67956,-12.619651 -1.58353,-22.120096 C 16.120271,17.413522 8.0705011,20.957555 7.7574611,9.5870616 14.803541,20.119696 25.572371,18.866153 27.251611,28.55162 c 3.25423,4.596313 8.98302,11.718683 5.98525,14.797826 -2.2954,2.357716 -9.08519,15.422411 -20.03503,17.643247 -9.5903099,1.945097 -16.1629199,12.6144 -16.1629199,12.6144 -0.83876,8.885304 16.1910099,9.784984 21.9744099,18.254694 5.64474,8.266633 8.35928,5.77528 10.95842,12.103913 1.20531,2.9348 -28.6279299,1.05833 -28.6279299,1.05833 z"
           id="path17293"
           sodipodi:nodetypes="cssssccsssssc" />
        <path
           id="path17295"
           style="display:inline;fill:#ae4942;fill-opacity:1;stroke:#ae4942;stroke-width:3.77953;stroke-linecap:round;stroke-linejoin:round;stroke-miterlimit:4;stroke-dasharray:none;stroke-opacity:1"
           d="m 616.93555,1.8886719 c 0.55432,20.1347921 7.52722,27.8974661 16.79883,33.5175781 -5.45695,-5.012127 -9.35289,-12.21383 -10.31641,-24.990234 -2.22889,-2.6069221 -4.40217,-5.4177306 -6.48242,-8.5273441 z m 41.48828,48.2539061 c 3.39981,2.902953 6.69017,6.465507 9.7207,11.0625 23.67153,35.907194 43.10565,43.281672 5.98633,83.603512 -19.68132,21.37934 -128.25976,50.713 -139.55469,85.03907 -14.08966,42.81948 16.29251,57.34248 38.10156,83.98437 26.33989,32.17671 20.01758,48.76367 20.01758,48.76367 0,0 2.85378,0.16826 6.91797,0.39063 0.26375,-6.79288 -1.99109,-21.72151 -20.65039,-44.51563 -21.80905,-26.64189 -52.19123,-41.16294 -38.10156,-83.98242 11.29493,-34.32607 119.87336,-63.66167 139.55469,-85.04101 37.11932,-40.32185 17.68519,-47.69633 -5.98633,-83.60352 -4.87199,-7.390285 -10.41195,-12.111719 -16.00586,-15.701172 z"
           transform="matrix(0.26458333,0,0,0.26458333,-155.47346,9.0871833)"
           sodipodi:nodetypes="cccccssssccssssc" />
      </g>
    </g>
    <g
       id="g12660-3-0"
       transform="matrix(1.4229856,0,0,0.65562122,-134.68783,69.746814)"
       style="display:inline">
      <path
         d="m 168.27731,59.952815 h -51.86892 c -6.1983,10.167055 -5.11175,20.330583 1.09009,30.497638 h 49.68875 c 5.49627,-10.167055 6.58636,-20.330583 1.09008,-30.497638"
         style="fill:#d49f28;fill-opacity:1;fill-rule:nonzero;stroke:none;stroke-width:0.0352778"
         id="path428-9-2" />
      <path
         d="m 161.81903,71.418093 c 1.00444,0 1.81871,1.767416 1.81871,3.947583 0,2.180166 -0.81427,3.947583 -1.81871,3.947583 -1.00443,0 -1.81871,-1.767417 -1.81871,-3.947583 0,-2.180167 0.81428,-3.947583 1.81871,-3.947583"
         style="fill:#e9b22a;fill-opacity:1;fill-rule:nonzero;stroke:none;stroke-width:0.0239452"
         id="path430-3-7" />
      <path
         d="m 143.20502,71.418093 c 1.00444,0 1.81871,1.767335 1.81871,3.947401 0,2.180066 -0.81427,3.947401 -1.81871,3.947401 -1.00443,0 -1.81871,-1.767335 -1.81871,-3.947401 0,-2.180066 0.81428,-3.947401 1.81871,-3.947401"
         style="fill:#e9b22a;fill-opacity:1;fill-rule:nonzero;stroke:none;stroke-width:0.0239446"
         id="path432-8-9" />
      <path
         d="m 126.63982,71.418093 c 1.00444,0 1.81871,1.767416 1.81871,3.947583 0,2.180166 -0.81427,3.947583 -1.81871,3.947583 -1.00443,0 -1.81871,-1.767417 -1.81871,-3.947583 0,-2.180167 0.81428,-3.947583 1.81871,-3.947583"
         style="fill:#e9b22a;fill-opacity:1;fill-rule:nonzero;stroke:none;stroke-width:0.0239452"
         id="path434-6-0" />
      <path
         d="m 121.35081,59.952815 h -4.94242 c -6.1983,10.167055 -5.11175,20.330583 1.09009,30.497638 h 4.93889 C 116.23553,80.283398 115.14898,70.11987 121.35081,59.952815"
         style="fill:#ac7a1d;fill-opacity:1;fill-rule:nonzero;stroke:none;stroke-width:0.0352778"
         id="path442-4-6" />
      <path
         d="m 119.75273,55.599537 h 44.65461 v 4.353278 h -44.65461 v -4.353278"
         style="fill:#e9b22a;fill-opacity:1;fill-rule:nonzero;stroke:none;stroke-width:0.0352778"
         id="path446-0-5" />
      <path
         d="m 119.75273,55.599537 h 4.94241 v 4.353278 h -4.94241 v -4.353278"
         style="fill:#c9941c;fill-opacity:1;fill-rule:nonzero;stroke:none;stroke-width:0.0352778"
         id="path448-8-3" />
    </g>
    <g
       id="g9919-7-49-7"
       style="display:inline"
       transform="translate(-31.928172,21.386355)">
      <g
         id="g2059-1-1-34-1"
         transform="matrix(0.6528399,0,0,0.6528399,28.524238,38.464072)"
         style="display:inline">
        <path
           class="cls-2"
           d="m 33.56,14 a 16,16 0 1 0 16,16 16.06,16.06 0 0 0 -16,-16 z"
           id="path2055-45-7-5-1"
           style="fill:#33cc33;fill-opacity:1" />
        <path
           id="path2057-69-2-2-2"
           style="fill:#369936;fill-opacity:1;stroke-width:1"
           class="cls-2"
           d="M 33.56,14 A 16,16 0 1 0 34.987246,45.935791 16,16 0 0 1 35.966739,14.192871 16.06,16.06 0 0 0 33.56,14 Z" />
      </g>
      <g
         id="g2059-1-9-3-0-2"
         transform="matrix(0.6528399,0,0,0.6528399,43.416966,32.530547)"
         style="display:inline">
        <path
           class="cls-2"
           d="m 33.56,14 a 16,16 0 1 0 16,16 16.06,16.06 0 0 0 -16,-16 z"
           id="path2055-45-3-6-4-6"
           style="fill:#33cc33;fill-opacity:1" />
        <path
           id="path2057-69-3-3-5-9"
           style="fill:#369936;fill-opacity:1;stroke-width:1"
           class="cls-2"
           d="M 33.56,14 A 16,16 0 1 0 34.987246,45.935791 16,16 0 0 1 35.966739,14.192871 16.06,16.06 0 0 0 33.56,14 Z" />
      </g>
      <g
         id="g2059-11-78-0"
         transform="matrix(0.6528399,0,0,0.6528399,60.630276,38.462622)"
         style="display:inline">
        <path
           class="cls-2"
           d="m 33.56,14 a 16,16 0 1 0 16,16 16.06,16.06 0 0 0 -16,-16 z"
           id="path2055-5-79-9"
           style="fill:#33cc33;fill-opacity:1" />
        <path
           id="path2057-6-5-6"
           style="fill:#369936;fill-opacity:1;stroke-width:1"
           class="cls-2"
           d="M 33.56,14 A 16,16 0 1 0 34.987246,45.935791 16,16 0 0 1 35.966739,14.192871 16.06,16.06 0 0 0 33.56,14 Z" />
      </g>
      <g
         id="g8733-3-8-8-95-1"
         transform="matrix(0.02343754,0,0,0.02343754,80.641983,55.839657)"
         style="display:inline;fill:#f4f522;fill-opacity:1">
        <path
           class="st0"
           d="m 330.555,101.873 c 0,-34.164 -13.767,-65.108 -36.047,-87.622 -2.432,-2.465 -9.63,-4.349 -14.212,3.466 -4.589,7.808 -17.205,27.431 -17.205,27.431 -1.534,2.438 -4.219,3.918 -7.089,3.918 -2.883,0 -5.555,-1.48 -7.089,-3.918 0,0 -12.623,-19.623 -17.205,-27.431 -4.582,-7.815 -11.781,-5.931 -14.219,-3.466 -22.274,22.514 -36.04,53.458 -36.04,87.622 0,51.02 30.663,94.847 74.553,114.142 43.89,-19.295 74.553,-63.123 74.553,-114.142 z"
           id="path8723-8-6-51-2-2"
           style="fill:#f4f522;fill-opacity:1" />
        <path
           class="st0"
           d="m 204.51,253.425 c -4.78,-47.705 -36.998,-90.409 -85.518,-106.176 -32.492,-10.554 -66.177,-7.027 -94.47,7.205 -3.096,1.555 -7.117,7.822 -1.096,14.589 6.007,6.774 20.766,24.842 20.766,24.842 1.849,2.212 2.432,5.22 1.542,7.952 -0.891,2.74 -3.13,4.829 -5.918,5.528 0,0 -22.562,5.945 -31.404,7.89 -8.849,1.945 -9.281,9.37 -7.692,12.445 14.527,28.144 39.698,50.801 72.197,61.362 48.519,15.766 99.683,0.15 131.593,-35.637 z"
           id="path8725-5-6-3-1-1"
           style="fill:#f4f522;fill-opacity:1" />
        <path
           class="st0"
           d="M 96.772,362.484 C 76.69,390.127 69.636,423.25 74.43,454.558 c 0.527,3.424 5.233,9.178 13.527,5.554 8.308,-3.63 30.054,-12.088 30.054,-12.088 2.672,-1.062 5.698,-0.692 8.041,1 2.329,1.692 3.623,4.466 3.418,7.335 0,0 -1.308,23.294 -2.199,32.315 -0.883,9.006 6.048,11.712 9.466,11.15 31.252,-5.116 60.581,-22.054 80.662,-49.704 29.993,-41.266 30.944,-94.758 6.781,-136.155 -46.848,-10.192 -97.422,7.239 -127.408,48.519 z"
           id="path8727-3-5-0-9-5"
           style="fill:#f4f522;fill-opacity:1" />
        <path
           class="st0"
           d="m 287.824,313.964 c -24.165,41.397 -23.212,94.888 6.78,136.155 20.082,27.65 49.41,44.588 80.663,49.704 3.418,0.562 10.349,-2.144 9.466,-11.15 -0.89,-9.021 -2.205,-32.315 -2.205,-32.315 -0.198,-2.869 1.102,-5.643 3.431,-7.335 2.322,-1.692 5.363,-2.062 8.034,-1 0,0 21.746,8.458 30.047,12.088 8.294,3.623 13.007,-2.13 13.534,-5.554 4.787,-31.308 -2.254,-64.43 -22.342,-92.074 -29.986,-41.279 -80.56,-58.717 -127.408,-48.519 z"
           id="path8729-3-8-1-24-9"
           style="fill:#f4f522;fill-opacity:1" />
        <path
           class="st0"
           d="m 503.6,215.254 c -8.849,-1.945 -31.41,-7.89 -31.41,-7.89 -2.795,-0.706 -5.027,-2.788 -5.918,-5.528 -0.89,-2.732 -0.308,-5.74 1.534,-7.952 0,0 14.76,-18.068 20.78,-24.842 6.014,-6.766 1.993,-13.034 -1.096,-14.589 -28.301,-14.232 -61.978,-17.76 -94.485,-7.205 -48.519,15.767 -80.731,58.472 -85.512,106.176 31.91,35.787 83.067,51.403 131.593,35.636 32.492,-10.561 57.67,-33.218 72.191,-61.362 1.59,-3.074 1.172,-10.499 -7.677,-12.444 z"
           id="path8731-7-2-49-2-7"
           style="fill:#f4f522;fill-opacity:1" />
      </g>
      <g
         id="g8733-3-8-3-1-7-3"
         transform="matrix(0.02343754,0,0,0.02343754,48.535945,55.841107)"
         style="display:inline;fill:#f4f522;fill-opacity:1">
        <path
           class="st0"
           d="m 330.555,101.873 c 0,-34.164 -13.767,-65.108 -36.047,-87.622 -2.432,-2.465 -9.63,-4.349 -14.212,3.466 -4.589,7.808 -17.205,27.431 -17.205,27.431 -1.534,2.438 -4.219,3.918 -7.089,3.918 -2.883,0 -5.555,-1.48 -7.089,-3.918 0,0 -12.623,-19.623 -17.205,-27.431 -4.582,-7.815 -11.781,-5.931 -14.219,-3.466 -22.274,22.514 -36.04,53.458 -36.04,87.622 0,51.02 30.663,94.847 74.553,114.142 43.89,-19.295 74.553,-63.123 74.553,-114.142 z"
           id="path8723-8-6-60-9-5-0"
           style="fill:#f4f522;fill-opacity:1" />
        <path
           class="st0"
           d="m 204.51,253.425 c -4.78,-47.705 -36.998,-90.409 -85.518,-106.176 -32.492,-10.554 -66.177,-7.027 -94.47,7.205 -3.096,1.555 -7.117,7.822 -1.096,14.589 6.007,6.774 20.766,24.842 20.766,24.842 1.849,2.212 2.432,5.22 1.542,7.952 -0.891,2.74 -3.13,4.829 -5.918,5.528 0,0 -22.562,5.945 -31.404,7.89 -8.849,1.945 -9.281,9.37 -7.692,12.445 14.527,28.144 39.698,50.801 72.197,61.362 48.519,15.766 99.683,0.15 131.593,-35.637 z"
           id="path8725-5-6-20-4-7-2"
           style="fill:#f4f522;fill-opacity:1" />
        <path
           class="st0"
           d="M 96.772,362.484 C 76.69,390.127 69.636,423.25 74.43,454.558 c 0.527,3.424 5.233,9.178 13.527,5.554 8.308,-3.63 30.054,-12.088 30.054,-12.088 2.672,-1.062 5.698,-0.692 8.041,1 2.329,1.692 3.623,4.466 3.418,7.335 0,0 -1.308,23.294 -2.199,32.315 -0.883,9.006 6.048,11.712 9.466,11.15 31.252,-5.116 60.581,-22.054 80.662,-49.704 29.993,-41.266 30.944,-94.758 6.781,-136.155 -46.848,-10.192 -97.422,7.239 -127.408,48.519 z"
           id="path8727-3-5-442-1-16-7"
           style="fill:#f4f522;fill-opacity:1" />
        <path
           class="st0"
           d="m 287.824,313.964 c -24.165,41.397 -23.212,94.888 6.78,136.155 20.082,27.65 49.41,44.588 80.663,49.704 3.418,0.562 10.349,-2.144 9.466,-11.15 -0.89,-9.021 -2.205,-32.315 -2.205,-32.315 -0.198,-2.869 1.102,-5.643 3.431,-7.335 2.322,-1.692 5.363,-2.062 8.034,-1 0,0 21.746,8.458 30.047,12.088 8.294,3.623 13.007,-2.13 13.534,-5.554 4.787,-31.308 -2.254,-64.43 -22.342,-92.074 -29.986,-41.279 -80.56,-58.717 -127.408,-48.519 z"
           id="path8729-3-8-5-7-8-0"
           style="fill:#f4f522;fill-opacity:1" />
        <path
           class="st0"
           d="m 503.6,215.254 c -8.849,-1.945 -31.41,-7.89 -31.41,-7.89 -2.795,-0.706 -5.027,-2.788 -5.918,-5.528 -0.89,-2.732 -0.308,-5.74 1.534,-7.952 0,0 14.76,-18.068 20.78,-24.842 6.014,-6.766 1.993,-13.034 -1.096,-14.589 -28.301,-14.232 -61.978,-17.76 -94.485,-7.205 -48.519,15.767 -80.731,58.472 -85.512,106.176 31.91,35.787 83.067,51.403 131.593,35.636 32.492,-10.561 57.67,-33.218 72.191,-61.362 1.59,-3.074 1.172,-10.499 -7.677,-12.444 z"
           id="path8731-7-2-4-4-40-4"
           style="fill:#f4f522;fill-opacity:1" />
      </g>
      <g
         id="g8733-3-8-3-5-5-06-8"
         transform="matrix(0.02343754,0,0,0.02343754,63.428673,49.907582)"
         style="display:inline;fill:#f4f522;fill-opacity:1">
        <path
           class="st0"
           d="m 330.555,101.873 c 0,-34.164 -13.767,-65.108 -36.047,-87.622 -2.432,-2.465 -9.63,-4.349 -14.212,3.466 -4.589,7.808 -17.205,27.431 -17.205,27.431 -1.534,2.438 -4.219,3.918 -7.089,3.918 -2.883,0 -5.555,-1.48 -7.089,-3.918 0,0 -12.623,-19.623 -17.205,-27.431 -4.582,-7.815 -11.781,-5.931 -14.219,-3.466 -22.274,22.514 -36.04,53.458 -36.04,87.622 0,51.02 30.663,94.847 74.553,114.142 43.89,-19.295 74.553,-63.123 74.553,-114.142 z"
           id="path8723-8-6-60-1-4-5-0"
           style="fill:#f4f522;fill-opacity:1" />
        <path
           class="st0"
           d="m 204.51,253.425 c -4.78,-47.705 -36.998,-90.409 -85.518,-106.176 -32.492,-10.554 -66.177,-7.027 -94.47,7.205 -3.096,1.555 -7.117,7.822 -1.096,14.589 6.007,6.774 20.766,24.842 20.766,24.842 1.849,2.212 2.432,5.22 1.542,7.952 -0.891,2.74 -3.13,4.829 -5.918,5.528 0,0 -22.562,5.945 -31.404,7.89 -8.849,1.945 -9.281,9.37 -7.692,12.445 14.527,28.144 39.698,50.801 72.197,61.362 48.519,15.766 99.683,0.15 131.593,-35.637 z"
           id="path8725-5-6-20-3-3-02-2"
           style="fill:#f4f522;fill-opacity:1" />
        <path
           class="st0"
           d="M 96.772,362.484 C 76.69,390.127 69.636,423.25 74.43,454.558 c 0.527,3.424 5.233,9.178 13.527,5.554 8.308,-3.63 30.054,-12.088 30.054,-12.088 2.672,-1.062 5.698,-0.692 8.041,1 2.329,1.692 3.623,4.466 3.418,7.335 0,0 -1.308,23.294 -2.199,32.315 -0.883,9.006 6.048,11.712 9.466,11.15 31.252,-5.116 60.581,-22.054 80.662,-49.704 29.993,-41.266 30.944,-94.758 6.781,-136.155 -46.848,-10.192 -97.422,7.239 -127.408,48.519 z"
           id="path8727-3-5-442-5-7-48-3"
           style="fill:#f4f522;fill-opacity:1" />
        <path
           class="st0"
           d="m 287.824,313.964 c -24.165,41.397 -23.212,94.888 6.78,136.155 20.082,27.65 49.41,44.588 80.663,49.704 3.418,0.562 10.349,-2.144 9.466,-11.15 -0.89,-9.021 -2.205,-32.315 -2.205,-32.315 -0.198,-2.869 1.102,-5.643 3.431,-7.335 2.322,-1.692 5.363,-2.062 8.034,-1 0,0 21.746,8.458 30.047,12.088 8.294,3.623 13.007,-2.13 13.534,-5.554 4.787,-31.308 -2.254,-64.43 -22.342,-92.074 -29.986,-41.279 -80.56,-58.717 -127.408,-48.519 z"
           id="path8729-3-8-5-8-5-74-8"
           style="fill:#f4f522;fill-opacity:1" />
        <path
           class="st0"
           d="m 503.6,215.254 c -8.849,-1.945 -31.41,-7.89 -31.41,-7.89 -2.795,-0.706 -5.027,-2.788 -5.918,-5.528 -0.89,-2.732 -0.308,-5.74 1.534,-7.952 0,0 14.76,-18.068 20.78,-24.842 6.014,-6.766 1.993,-13.034 -1.096,-14.589 -28.301,-14.232 -61.978,-17.76 -94.485,-7.205 -48.519,15.767 -80.731,58.472 -85.512,106.176 31.91,35.787 83.067,51.403 131.593,35.636 32.492,-10.561 57.67,-33.218 72.191,-61.362 1.59,-3.074 1.172,-10.499 -7.677,-12.444 z"
           id="path8731-7-2-4-8-1-4-4"
           style="fill:#f4f522;fill-opacity:1" />
      </g>
    </g>
    <g
       id="g9919-7-49"
       style="display:inline"
       transform="translate(32.428712,12.143905)">
      <g
         id="g2059-1-1-34"
         transform="matrix(0.6528399,0,0,0.6528399,28.524238,38.464072)"
         style="display:inline">
        <path
           class="cls-2"
           d="m 33.56,14 a 16,16 0 1 0 16,16 16.06,16.06 0 0 0 -16,-16 z"
           id="path2055-45-7-5"
           style="fill:#33cc33;fill-opacity:1" />
        <path
           id="path2057-69-2-2"
           style="fill:#369936;fill-opacity:1;stroke-width:1"
           class="cls-2"
           d="M 33.56,14 A 16,16 0 1 0 34.987246,45.935791 16,16 0 0 1 35.966739,14.192871 16.06,16.06 0 0 0 33.56,14 Z" />
      </g>
      <g
         id="g2059-1-9-3-0"
         transform="matrix(0.6528399,0,0,0.6528399,43.416966,32.530547)"
         style="display:inline">
        <path
           class="cls-2"
           d="m 33.56,14 a 16,16 0 1 0 16,16 16.06,16.06 0 0 0 -16,-16 z"
           id="path2055-45-3-6-4"
           style="fill:#33cc33;fill-opacity:1" />
        <path
           id="path2057-69-3-3-5"
           style="fill:#369936;fill-opacity:1;stroke-width:1"
           class="cls-2"
           d="M 33.56,14 A 16,16 0 1 0 34.987246,45.935791 16,16 0 0 1 35.966739,14.192871 16.06,16.06 0 0 0 33.56,14 Z" />
      </g>
      <g
         id="g2059-11-78"
         transform="matrix(0.6528399,0,0,0.6528399,60.630276,38.462622)"
         style="display:inline">
        <path
           class="cls-2"
           d="m 33.56,14 a 16,16 0 1 0 16,16 16.06,16.06 0 0 0 -16,-16 z"
           id="path2055-5-79"
           style="fill:#33cc33;fill-opacity:1" />
        <path
           id="path2057-6-5"
           style="fill:#369936;fill-opacity:1;stroke-width:1"
           class="cls-2"
           d="M 33.56,14 A 16,16 0 1 0 34.987246,45.935791 16,16 0 0 1 35.966739,14.192871 16.06,16.06 0 0 0 33.56,14 Z" />
      </g>
      <g
         id="g8733-3-8-8-95"
         transform="matrix(0.02343754,0,0,0.02343754,80.641983,55.839657)"
         style="display:inline;fill:#f4f522;fill-opacity:1">
        <path
           class="st0"
           d="m 330.555,101.873 c 0,-34.164 -13.767,-65.108 -36.047,-87.622 -2.432,-2.465 -9.63,-4.349 -14.212,3.466 -4.589,7.808 -17.205,27.431 -17.205,27.431 -1.534,2.438 -4.219,3.918 -7.089,3.918 -2.883,0 -5.555,-1.48 -7.089,-3.918 0,0 -12.623,-19.623 -17.205,-27.431 -4.582,-7.815 -11.781,-5.931 -14.219,-3.466 -22.274,22.514 -36.04,53.458 -36.04,87.622 0,51.02 30.663,94.847 74.553,114.142 43.89,-19.295 74.553,-63.123 74.553,-114.142 z"
           id="path8723-8-6-51-2"
           style="fill:#f4f522;fill-opacity:1" />
        <path
           class="st0"
           d="m 204.51,253.425 c -4.78,-47.705 -36.998,-90.409 -85.518,-106.176 -32.492,-10.554 -66.177,-7.027 -94.47,7.205 -3.096,1.555 -7.117,7.822 -1.096,14.589 6.007,6.774 20.766,24.842 20.766,24.842 1.849,2.212 2.432,5.22 1.542,7.952 -0.891,2.74 -3.13,4.829 -5.918,5.528 0,0 -22.562,5.945 -31.404,7.89 -8.849,1.945 -9.281,9.37 -7.692,12.445 14.527,28.144 39.698,50.801 72.197,61.362 48.519,15.766 99.683,0.15 131.593,-35.637 z"
           id="path8725-5-6-3-1"
           style="fill:#f4f522;fill-opacity:1" />
        <path
           class="st0"
           d="M 96.772,362.484 C 76.69,390.127 69.636,423.25 74.43,454.558 c 0.527,3.424 5.233,9.178 13.527,5.554 8.308,-3.63 30.054,-12.088 30.054,-12.088 2.672,-1.062 5.698,-0.692 8.041,1 2.329,1.692 3.623,4.466 3.418,7.335 0,0 -1.308,23.294 -2.199,32.315 -0.883,9.006 6.048,11.712 9.466,11.15 31.252,-5.116 60.581,-22.054 80.662,-49.704 29.993,-41.266 30.944,-94.758 6.781,-136.155 -46.848,-10.192 -97.422,7.239 -127.408,48.519 z"
           id="path8727-3-5-0-9"
           style="fill:#f4f522;fill-opacity:1" />
        <path
           class="st0"
           d="m 287.824,313.964 c -24.165,41.397 -23.212,94.888 6.78,136.155 20.082,27.65 49.41,44.588 80.663,49.704 3.418,0.562 10.349,-2.144 9.466,-11.15 -0.89,-9.021 -2.205,-32.315 -2.205,-32.315 -0.198,-2.869 1.102,-5.643 3.431,-7.335 2.322,-1.692 5.363,-2.062 8.034,-1 0,0 21.746,8.458 30.047,12.088 8.294,3.623 13.007,-2.13 13.534,-5.554 4.787,-31.308 -2.254,-64.43 -22.342,-92.074 -29.986,-41.279 -80.56,-58.717 -127.408,-48.519 z"
           id="path8729-3-8-1-24"
           style="fill:#f4f522;fill-opacity:1" />
        <path
           class="st0"
           d="m 503.6,215.254 c -8.849,-1.945 -31.41,-7.89 -31.41,-7.89 -2.795,-0.706 -5.027,-2.788 -5.918,-5.528 -0.89,-2.732 -0.308,-5.74 1.534,-7.952 0,0 14.76,-18.068 20.78,-24.842 6.014,-6.766 1.993,-13.034 -1.096,-14.589 -28.301,-14.232 -61.978,-17.76 -94.485,-7.205 -48.519,15.767 -80.731,58.472 -85.512,106.176 31.91,35.787 83.067,51.403 131.593,35.636 32.492,-10.561 57.67,-33.218 72.191,-61.362 1.59,-3.074 1.172,-10.499 -7.677,-12.444 z"
           id="path8731-7-2-49-2"
           style="fill:#f4f522;fill-opacity:1" />
      </g>
      <g
         id="g8733-3-8-3-1-7"
         transform="matrix(0.02343754,0,0,0.02343754,48.535945,55.841107)"
         style="display:inline;fill:#f4f522;fill-opacity:1">
        <path
           class="st0"
           d="m 330.555,101.873 c 0,-34.164 -13.767,-65.108 -36.047,-87.622 -2.432,-2.465 -9.63,-4.349 -14.212,3.466 -4.589,7.808 -17.205,27.431 -17.205,27.431 -1.534,2.438 -4.219,3.918 -7.089,3.918 -2.883,0 -5.555,-1.48 -7.089,-3.918 0,0 -12.623,-19.623 -17.205,-27.431 -4.582,-7.815 -11.781,-5.931 -14.219,-3.466 -22.274,22.514 -36.04,53.458 -36.04,87.622 0,51.02 30.663,94.847 74.553,114.142 43.89,-19.295 74.553,-63.123 74.553,-114.142 z"
           id="path8723-8-6-60-9-5"
           style="fill:#f4f522;fill-opacity:1" />
        <path
           class="st0"
           d="m 204.51,253.425 c -4.78,-47.705 -36.998,-90.409 -85.518,-106.176 -32.492,-10.554 -66.177,-7.027 -94.47,7.205 -3.096,1.555 -7.117,7.822 -1.096,14.589 6.007,6.774 20.766,24.842 20.766,24.842 1.849,2.212 2.432,5.22 1.542,7.952 -0.891,2.74 -3.13,4.829 -5.918,5.528 0,0 -22.562,5.945 -31.404,7.89 -8.849,1.945 -9.281,9.37 -7.692,12.445 14.527,28.144 39.698,50.801 72.197,61.362 48.519,15.766 99.683,0.15 131.593,-35.637 z"
           id="path8725-5-6-20-4-7"
           style="fill:#f4f522;fill-opacity:1" />
        <path
           class="st0"
           d="M 96.772,362.484 C 76.69,390.127 69.636,423.25 74.43,454.558 c 0.527,3.424 5.233,9.178 13.527,5.554 8.308,-3.63 30.054,-12.088 30.054,-12.088 2.672,-1.062 5.698,-0.692 8.041,1 2.329,1.692 3.623,4.466 3.418,7.335 0,0 -1.308,23.294 -2.199,32.315 -0.883,9.006 6.048,11.712 9.466,11.15 31.252,-5.116 60.581,-22.054 80.662,-49.704 29.993,-41.266 30.944,-94.758 6.781,-136.155 -46.848,-10.192 -97.422,7.239 -127.408,48.519 z"
           id="path8727-3-5-442-1-16"
           style="fill:#f4f522;fill-opacity:1" />
        <path
           class="st0"
           d="m 287.824,313.964 c -24.165,41.397 -23.212,94.888 6.78,136.155 20.082,27.65 49.41,44.588 80.663,49.704 3.418,0.562 10.349,-2.144 9.466,-11.15 -0.89,-9.021 -2.205,-32.315 -2.205,-32.315 -0.198,-2.869 1.102,-5.643 3.431,-7.335 2.322,-1.692 5.363,-2.062 8.034,-1 0,0 21.746,8.458 30.047,12.088 8.294,3.623 13.007,-2.13 13.534,-5.554 4.787,-31.308 -2.254,-64.43 -22.342,-92.074 -29.986,-41.279 -80.56,-58.717 -127.408,-48.519 z"
           id="path8729-3-8-5-7-8"
           style="fill:#f4f522;fill-opacity:1" />
        <path
           class="st0"
           d="m 503.6,215.254 c -8.849,-1.945 -31.41,-7.89 -31.41,-7.89 -2.795,-0.706 -5.027,-2.788 -5.918,-5.528 -0.89,-2.732 -0.308,-5.74 1.534,-7.952 0,0 14.76,-18.068 20.78,-24.842 6.014,-6.766 1.993,-13.034 -1.096,-14.589 -28.301,-14.232 -61.978,-17.76 -94.485,-7.205 -48.519,15.767 -80.731,58.472 -85.512,106.176 31.91,35.787 83.067,51.403 131.593,35.636 32.492,-10.561 57.67,-33.218 72.191,-61.362 1.59,-3.074 1.172,-10.499 -7.677,-12.444 z"
           id="path8731-7-2-4-4-40"
           style="fill:#f4f522;fill-opacity:1" />
      </g>
      <g
         id="g8733-3-8-3-5-5-06"
         transform="matrix(0.02343754,0,0,0.02343754,63.428673,49.907582)"
         style="display:inline;fill:#f4f522;fill-opacity:1">
        <path
           class="st0"
           d="m 330.555,101.873 c 0,-34.164 -13.767,-65.108 -36.047,-87.622 -2.432,-2.465 -9.63,-4.349 -14.212,3.466 -4.589,7.808 -17.205,27.431 -17.205,27.431 -1.534,2.438 -4.219,3.918 -7.089,3.918 -2.883,0 -5.555,-1.48 -7.089,-3.918 0,0 -12.623,-19.623 -17.205,-27.431 -4.582,-7.815 -11.781,-5.931 -14.219,-3.466 -22.274,22.514 -36.04,53.458 -36.04,87.622 0,51.02 30.663,94.847 74.553,114.142 43.89,-19.295 74.553,-63.123 74.553,-114.142 z"
           id="path8723-8-6-60-1-4-5"
           style="fill:#f4f522;fill-opacity:1" />
        <path
           class="st0"
           d="m 204.51,253.425 c -4.78,-47.705 -36.998,-90.409 -85.518,-106.176 -32.492,-10.554 -66.177,-7.027 -94.47,7.205 -3.096,1.555 -7.117,7.822 -1.096,14.589 6.007,6.774 20.766,24.842 20.766,24.842 1.849,2.212 2.432,5.22 1.542,7.952 -0.891,2.74 -3.13,4.829 -5.918,5.528 0,0 -22.562,5.945 -31.404,7.89 -8.849,1.945 -9.281,9.37 -7.692,12.445 14.527,28.144 39.698,50.801 72.197,61.362 48.519,15.766 99.683,0.15 131.593,-35.637 z"
           id="path8725-5-6-20-3-3-02"
           style="fill:#f4f522;fill-opacity:1" />
        <path
           class="st0"
           d="M 96.772,362.484 C 76.69,390.127 69.636,423.25 74.43,454.558 c 0.527,3.424 5.233,9.178 13.527,5.554 8.308,-3.63 30.054,-12.088 30.054,-12.088 2.672,-1.062 5.698,-0.692 8.041,1 2.329,1.692 3.623,4.466 3.418,7.335 0,0 -1.308,23.294 -2.199,32.315 -0.883,9.006 6.048,11.712 9.466,11.15 31.252,-5.116 60.581,-22.054 80.662,-49.704 29.993,-41.266 30.944,-94.758 6.781,-136.155 -46.848,-10.192 -97.422,7.239 -127.408,48.519 z"
           id="path8727-3-5-442-5-7-48"
           style="fill:#f4f522;fill-opacity:1" />
        <path
           class="st0"
           d="m 287.824,313.964 c -24.165,41.397 -23.212,94.888 6.78,136.155 20.082,27.65 49.41,44.588 80.663,49.704 3.418,0.562 10.349,-2.144 9.466,-11.15 -0.89,-9.021 -2.205,-32.315 -2.205,-32.315 -0.198,-2.869 1.102,-5.643 3.431,-7.335 2.322,-1.692 5.363,-2.062 8.034,-1 0,0 21.746,8.458 30.047,12.088 8.294,3.623 13.007,-2.13 13.534,-5.554 4.787,-31.308 -2.254,-64.43 -22.342,-92.074 -29.986,-41.279 -80.56,-58.717 -127.408,-48.519 z"
           id="path8729-3-8-5-8-5-74"
           style="fill:#f4f522;fill-opacity:1" />
        <path
           class="st0"
           d="m 503.6,215.254 c -8.849,-1.945 -31.41,-7.89 -31.41,-7.89 -2.795,-0.706 -5.027,-2.788 -5.918,-5.528 -0.89,-2.732 -0.308,-5.74 1.534,-7.952 0,0 14.76,-18.068 20.78,-24.842 6.014,-6.766 1.993,-13.034 -1.096,-14.589 -28.301,-14.232 -61.978,-17.76 -94.485,-7.205 -48.519,15.767 -80.731,58.472 -85.512,106.176 31.91,35.787 83.067,51.403 131.593,35.636 32.492,-10.561 57.67,-33.218 72.191,-61.362 1.59,-3.074 1.172,-10.499 -7.677,-12.444 z"
           id="path8731-7-2-4-8-1-4"
           style="fill:#f4f522;fill-opacity:1" />
      </g>
    </g>
    <g
       id="g9919-7-49-8-1"
       style="display:inline"
       transform="matrix(0.75471698,0,0,0.75471698,16.856787,-25.789249)">
      <g
         id="g2059-1-1-34-0-7"
         transform="matrix(0.6528399,0,0,0.6528399,28.524238,38.464072)"
         style="display:inline">
        <path
           class="cls-2"
           d="m 33.56,14 a 16,16 0 1 0 16,16 16.06,16.06 0 0 0 -16,-16 z"
           id="path2055-45-7-5-8-2"
           style="fill:#33cc33;fill-opacity:1" />
        <path
           id="path2057-69-2-2-6-87"
           style="fill:#369936;fill-opacity:1;stroke-width:1"
           class="cls-2"
           d="M 33.56,14 A 16,16 0 1 0 34.987246,45.935791 16,16 0 0 1 35.966739,14.192871 16.06,16.06 0 0 0 33.56,14 Z" />
      </g>
      <g
         id="g2059-1-9-3-0-1-6"
         transform="matrix(0.6528399,0,0,0.6528399,43.416966,32.530547)"
         style="display:inline">
        <path
           class="cls-2"
           d="m 33.56,14 a 16,16 0 1 0 16,16 16.06,16.06 0 0 0 -16,-16 z"
           id="path2055-45-3-6-4-1-2"
           style="fill:#33cc33;fill-opacity:1" />
        <path
           id="path2057-69-3-3-5-3-9"
           style="fill:#369936;fill-opacity:1;stroke-width:1"
           class="cls-2"
           d="M 33.56,14 A 16,16 0 1 0 34.987246,45.935791 16,16 0 0 1 35.966739,14.192871 16.06,16.06 0 0 0 33.56,14 Z" />
      </g>
      <g
         id="g2059-11-78-1-6"
         transform="matrix(0.6528399,0,0,0.6528399,60.630276,38.462622)"
         style="display:inline">
        <path
           class="cls-2"
           d="m 33.56,14 a 16,16 0 1 0 16,16 16.06,16.06 0 0 0 -16,-16 z"
           id="path2055-5-79-6-2"
           style="fill:#33cc33;fill-opacity:1" />
        <path
           id="path2057-6-5-8-1"
           style="fill:#369936;fill-opacity:1;stroke-width:1"
           class="cls-2"
           d="M 33.56,14 A 16,16 0 1 0 34.987246,45.935791 16,16 0 0 1 35.966739,14.192871 16.06,16.06 0 0 0 33.56,14 Z" />
      </g>
      <g
         id="g8733-3-8-8-95-11-9"
         transform="matrix(0.02343754,0,0,0.02343754,80.641983,55.839657)"
         style="display:inline;fill:#f4f522;fill-opacity:1">
        <path
           class="st0"
           d="m 330.555,101.873 c 0,-34.164 -13.767,-65.108 -36.047,-87.622 -2.432,-2.465 -9.63,-4.349 -14.212,3.466 -4.589,7.808 -17.205,27.431 -17.205,27.431 -1.534,2.438 -4.219,3.918 -7.089,3.918 -2.883,0 -5.555,-1.48 -7.089,-3.918 0,0 -12.623,-19.623 -17.205,-27.431 -4.582,-7.815 -11.781,-5.931 -14.219,-3.466 -22.274,22.514 -36.04,53.458 -36.04,87.622 0,51.02 30.663,94.847 74.553,114.142 43.89,-19.295 74.553,-63.123 74.553,-114.142 z"
           id="path8723-8-6-51-2-1-0"
           style="fill:#f4f522;fill-opacity:1" />
        <path
           class="st0"
           d="m 204.51,253.425 c -4.78,-47.705 -36.998,-90.409 -85.518,-106.176 -32.492,-10.554 -66.177,-7.027 -94.47,7.205 -3.096,1.555 -7.117,7.822 -1.096,14.589 6.007,6.774 20.766,24.842 20.766,24.842 1.849,2.212 2.432,5.22 1.542,7.952 -0.891,2.74 -3.13,4.829 -5.918,5.528 0,0 -22.562,5.945 -31.404,7.89 -8.849,1.945 -9.281,9.37 -7.692,12.445 14.527,28.144 39.698,50.801 72.197,61.362 48.519,15.766 99.683,0.15 131.593,-35.637 z"
           id="path8725-5-6-3-1-9-5"
           style="fill:#f4f522;fill-opacity:1" />
        <path
           class="st0"
           d="M 96.772,362.484 C 76.69,390.127 69.636,423.25 74.43,454.558 c 0.527,3.424 5.233,9.178 13.527,5.554 8.308,-3.63 30.054,-12.088 30.054,-12.088 2.672,-1.062 5.698,-0.692 8.041,1 2.329,1.692 3.623,4.466 3.418,7.335 0,0 -1.308,23.294 -2.199,32.315 -0.883,9.006 6.048,11.712 9.466,11.15 31.252,-5.116 60.581,-22.054 80.662,-49.704 29.993,-41.266 30.944,-94.758 6.781,-136.155 -46.848,-10.192 -97.422,7.239 -127.408,48.519 z"
           id="path8727-3-5-0-9-3-0"
           style="fill:#f4f522;fill-opacity:1" />
        <path
           class="st0"
           d="m 287.824,313.964 c -24.165,41.397 -23.212,94.888 6.78,136.155 20.082,27.65 49.41,44.588 80.663,49.704 3.418,0.562 10.349,-2.144 9.466,-11.15 -0.89,-9.021 -2.205,-32.315 -2.205,-32.315 -0.198,-2.869 1.102,-5.643 3.431,-7.335 2.322,-1.692 5.363,-2.062 8.034,-1 0,0 21.746,8.458 30.047,12.088 8.294,3.623 13.007,-2.13 13.534,-5.554 4.787,-31.308 -2.254,-64.43 -22.342,-92.074 -29.986,-41.279 -80.56,-58.717 -127.408,-48.519 z"
           id="path8729-3-8-1-24-1-8"
           style="fill:#f4f522;fill-opacity:1" />
        <path
           class="st0"
           d="m 503.6,215.254 c -8.849,-1.945 -31.41,-7.89 -31.41,-7.89 -2.795,-0.706 -5.027,-2.788 -5.918,-5.528 -0.89,-2.732 -0.308,-5.74 1.534,-7.952 0,0 14.76,-18.068 20.78,-24.842 6.014,-6.766 1.993,-13.034 -1.096,-14.589 -28.301,-14.232 -61.978,-17.76 -94.485,-7.205 -48.519,15.767 -80.731,58.472 -85.512,106.176 31.91,35.787 83.067,51.403 131.593,35.636 32.492,-10.561 57.67,-33.218 72.191,-61.362 1.59,-3.074 1.172,-10.499 -7.677,-12.444 z"
           id="path8731-7-2-49-2-8-8"
           style="fill:#f4f522;fill-opacity:1" />
      </g>
      <g
         id="g8733-3-8-3-1-7-7-2"
         transform="matrix(0.02343754,0,0,0.02343754,48.535945,55.841107)"
         style="display:inline;fill:#f4f522;fill-opacity:1">
        <path
           class="st0"
           d="m 330.555,101.873 c 0,-34.164 -13.767,-65.108 -36.047,-87.622 -2.432,-2.465 -9.63,-4.349 -14.212,3.466 -4.589,7.808 -17.205,27.431 -17.205,27.431 -1.534,2.438 -4.219,3.918 -7.089,3.918 -2.883,0 -5.555,-1.48 -7.089,-3.918 0,0 -12.623,-19.623 -17.205,-27.431 -4.582,-7.815 -11.781,-5.931 -14.219,-3.466 -22.274,22.514 -36.04,53.458 -36.04,87.622 0,51.02 30.663,94.847 74.553,114.142 43.89,-19.295 74.553,-63.123 74.553,-114.142 z"
           id="path8723-8-6-60-9-5-9-0"
           style="fill:#f4f522;fill-opacity:1" />
        <path
           class="st0"
           d="m 204.51,253.425 c -4.78,-47.705 -36.998,-90.409 -85.518,-106.176 -32.492,-10.554 -66.177,-7.027 -94.47,7.205 -3.096,1.555 -7.117,7.822 -1.096,14.589 6.007,6.774 20.766,24.842 20.766,24.842 1.849,2.212 2.432,5.22 1.542,7.952 -0.891,2.74 -3.13,4.829 -5.918,5.528 0,0 -22.562,5.945 -31.404,7.89 -8.849,1.945 -9.281,9.37 -7.692,12.445 14.527,28.144 39.698,50.801 72.197,61.362 48.519,15.766 99.683,0.15 131.593,-35.637 z"
           id="path8725-5-6-20-4-7-1-3"
           style="fill:#f4f522;fill-opacity:1" />
        <path
           class="st0"
           d="M 96.772,362.484 C 76.69,390.127 69.636,423.25 74.43,454.558 c 0.527,3.424 5.233,9.178 13.527,5.554 8.308,-3.63 30.054,-12.088 30.054,-12.088 2.672,-1.062 5.698,-0.692 8.041,1 2.329,1.692 3.623,4.466 3.418,7.335 0,0 -1.308,23.294 -2.199,32.315 -0.883,9.006 6.048,11.712 9.466,11.15 31.252,-5.116 60.581,-22.054 80.662,-49.704 29.993,-41.266 30.944,-94.758 6.781,-136.155 -46.848,-10.192 -97.422,7.239 -127.408,48.519 z"
           id="path8727-3-5-442-1-16-8-3"
           style="fill:#f4f522;fill-opacity:1" />
        <path
           class="st0"
           d="m 287.824,313.964 c -24.165,41.397 -23.212,94.888 6.78,136.155 20.082,27.65 49.41,44.588 80.663,49.704 3.418,0.562 10.349,-2.144 9.466,-11.15 -0.89,-9.021 -2.205,-32.315 -2.205,-32.315 -0.198,-2.869 1.102,-5.643 3.431,-7.335 2.322,-1.692 5.363,-2.062 8.034,-1 0,0 21.746,8.458 30.047,12.088 8.294,3.623 13.007,-2.13 13.534,-5.554 4.787,-31.308 -2.254,-64.43 -22.342,-92.074 -29.986,-41.279 -80.56,-58.717 -127.408,-48.519 z"
           id="path8729-3-8-5-7-8-8-93"
           style="fill:#f4f522;fill-opacity:1" />
        <path
           class="st0"
           d="m 503.6,215.254 c -8.849,-1.945 -31.41,-7.89 -31.41,-7.89 -2.795,-0.706 -5.027,-2.788 -5.918,-5.528 -0.89,-2.732 -0.308,-5.74 1.534,-7.952 0,0 14.76,-18.068 20.78,-24.842 6.014,-6.766 1.993,-13.034 -1.096,-14.589 -28.301,-14.232 -61.978,-17.76 -94.485,-7.205 -48.519,15.767 -80.731,58.472 -85.512,106.176 31.91,35.787 83.067,51.403 131.593,35.636 32.492,-10.561 57.67,-33.218 72.191,-61.362 1.59,-3.074 1.172,-10.499 -7.677,-12.444 z"
           id="path8731-7-2-4-4-40-9-7"
           style="fill:#f4f522;fill-opacity:1" />
      </g>
      <g
         id="g8733-3-8-3-5-5-06-3-9"
         transform="matrix(0.02343754,0,0,0.02343754,63.428673,49.907582)"
         style="display:inline;fill:#f4f522;fill-opacity:1">
        <path
           class="st0"
           d="m 330.555,101.873 c 0,-34.164 -13.767,-65.108 -36.047,-87.622 -2.432,-2.465 -9.63,-4.349 -14.212,3.466 -4.589,7.808 -17.205,27.431 -17.205,27.431 -1.534,2.438 -4.219,3.918 -7.089,3.918 -2.883,0 -5.555,-1.48 -7.089,-3.918 0,0 -12.623,-19.623 -17.205,-27.431 -4.582,-7.815 -11.781,-5.931 -14.219,-3.466 -22.274,22.514 -36.04,53.458 -36.04,87.622 0,51.02 30.663,94.847 74.553,114.142 43.89,-19.295 74.553,-63.123 74.553,-114.142 z"
           id="path8723-8-6-60-1-4-5-8-7"
           style="fill:#f4f522;fill-opacity:1" />
        <path
           class="st0"
           d="m 204.51,253.425 c -4.78,-47.705 -36.998,-90.409 -85.518,-106.176 -32.492,-10.554 -66.177,-7.027 -94.47,7.205 -3.096,1.555 -7.117,7.822 -1.096,14.589 6.007,6.774 20.766,24.842 20.766,24.842 1.849,2.212 2.432,5.22 1.542,7.952 -0.891,2.74 -3.13,4.829 -5.918,5.528 0,0 -22.562,5.945 -31.404,7.89 -8.849,1.945 -9.281,9.37 -7.692,12.445 14.527,28.144 39.698,50.801 72.197,61.362 48.519,15.766 99.683,0.15 131.593,-35.637 z"
           id="path8725-5-6-20-3-3-02-1-0"
           style="fill:#f4f522;fill-opacity:1" />
        <path
           class="st0"
           d="M 96.772,362.484 C 76.69,390.127 69.636,423.25 74.43,454.558 c 0.527,3.424 5.233,9.178 13.527,5.554 8.308,-3.63 30.054,-12.088 30.054,-12.088 2.672,-1.062 5.698,-0.692 8.041,1 2.329,1.692 3.623,4.466 3.418,7.335 0,0 -1.308,23.294 -2.199,32.315 -0.883,9.006 6.048,11.712 9.466,11.15 31.252,-5.116 60.581,-22.054 80.662,-49.704 29.993,-41.266 30.944,-94.758 6.781,-136.155 -46.848,-10.192 -97.422,7.239 -127.408,48.519 z"
           id="path8727-3-5-442-5-7-48-2-6"
           style="fill:#f4f522;fill-opacity:1" />
        <path
           class="st0"
           d="m 287.824,313.964 c -24.165,41.397 -23.212,94.888 6.78,136.155 20.082,27.65 49.41,44.588 80.663,49.704 3.418,0.562 10.349,-2.144 9.466,-11.15 -0.89,-9.021 -2.205,-32.315 -2.205,-32.315 -0.198,-2.869 1.102,-5.643 3.431,-7.335 2.322,-1.692 5.363,-2.062 8.034,-1 0,0 21.746,8.458 30.047,12.088 8.294,3.623 13.007,-2.13 13.534,-5.554 4.787,-31.308 -2.254,-64.43 -22.342,-92.074 -29.986,-41.279 -80.56,-58.717 -127.408,-48.519 z"
           id="path8729-3-8-5-8-5-74-9-6"
           style="fill:#f4f522;fill-opacity:1" />
        <path
           class="st0"
           d="m 503.6,215.254 c -8.849,-1.945 -31.41,-7.89 -31.41,-7.89 -2.795,-0.706 -5.027,-2.788 -5.918,-5.528 -0.89,-2.732 -0.308,-5.74 1.534,-7.952 0,0 14.76,-18.068 20.78,-24.842 6.014,-6.766 1.993,-13.034 -1.096,-14.589 -28.301,-14.232 -61.978,-17.76 -94.485,-7.205 -48.519,15.767 -80.731,58.472 -85.512,106.176 31.91,35.787 83.067,51.403 131.593,35.636 32.492,-10.561 57.67,-33.218 72.191,-61.362 1.59,-3.074 1.172,-10.499 -7.677,-12.444 z"
           id="path8731-7-2-4-8-1-4-9-90"
           style="fill:#f4f522;fill-opacity:1" />
      </g>
    </g>
    <g
       id="g9919-7-49-8-6"
       style="display:inline"
       transform="matrix(0.8490566,0,0,0.8490566,39.396526,-10.196738)">
      <g
         id="g2059-1-1-34-0-3"
         transform="matrix(0.6528399,0,0,0.6528399,28.524238,38.464072)"
         style="display:inline">
        <path
           class="cls-2"
           d="m 33.56,14 a 16,16 0 1 0 16,16 16.06,16.06 0 0 0 -16,-16 z"
           id="path2055-45-7-5-8-6"
           style="fill:#33cc33;fill-opacity:1" />
        <path
           id="path2057-69-2-2-6-8"
           style="fill:#369936;fill-opacity:1;stroke-width:1"
           class="cls-2"
           d="M 33.56,14 A 16,16 0 1 0 34.987246,45.935791 16,16 0 0 1 35.966739,14.192871 16.06,16.06 0 0 0 33.56,14 Z" />
      </g>
      <g
         id="g2059-1-9-3-0-1-4"
         transform="matrix(0.6528399,0,0,0.6528399,43.416966,32.530547)"
         style="display:inline">
        <path
           class="cls-2"
           d="m 33.56,14 a 16,16 0 1 0 16,16 16.06,16.06 0 0 0 -16,-16 z"
           id="path2055-45-3-6-4-1-6"
           style="fill:#33cc33;fill-opacity:1" />
        <path
           id="path2057-69-3-3-5-3-4"
           style="fill:#369936;fill-opacity:1;stroke-width:1"
           class="cls-2"
           d="M 33.56,14 A 16,16 0 1 0 34.987246,45.935791 16,16 0 0 1 35.966739,14.192871 16.06,16.06 0 0 0 33.56,14 Z" />
      </g>
      <g
         id="g2059-11-78-1-7"
         transform="matrix(0.6528399,0,0,0.6528399,60.630276,38.462622)"
         style="display:inline">
        <path
           class="cls-2"
           d="m 33.56,14 a 16,16 0 1 0 16,16 16.06,16.06 0 0 0 -16,-16 z"
           id="path2055-5-79-6-0"
           style="fill:#33cc33;fill-opacity:1" />
        <path
           id="path2057-6-5-8-7"
           style="fill:#369936;fill-opacity:1;stroke-width:1"
           class="cls-2"
           d="M 33.56,14 A 16,16 0 1 0 34.987246,45.935791 16,16 0 0 1 35.966739,14.192871 16.06,16.06 0 0 0 33.56,14 Z" />
      </g>
      <g
         id="g8733-3-8-8-95-11-6"
         transform="matrix(0.02343754,0,0,0.02343754,80.641983,55.839657)"
         style="display:inline;fill:#f4f522;fill-opacity:1">
        <path
           class="st0"
           d="m 330.555,101.873 c 0,-34.164 -13.767,-65.108 -36.047,-87.622 -2.432,-2.465 -9.63,-4.349 -14.212,3.466 -4.589,7.808 -17.205,27.431 -17.205,27.431 -1.534,2.438 -4.219,3.918 -7.089,3.918 -2.883,0 -5.555,-1.48 -7.089,-3.918 0,0 -12.623,-19.623 -17.205,-27.431 -4.582,-7.815 -11.781,-5.931 -14.219,-3.466 -22.274,22.514 -36.04,53.458 -36.04,87.622 0,51.02 30.663,94.847 74.553,114.142 43.89,-19.295 74.553,-63.123 74.553,-114.142 z"
           id="path8723-8-6-51-2-1-5"
           style="fill:#f4f522;fill-opacity:1" />
        <path
           class="st0"
           d="m 204.51,253.425 c -4.78,-47.705 -36.998,-90.409 -85.518,-106.176 -32.492,-10.554 -66.177,-7.027 -94.47,7.205 -3.096,1.555 -7.117,7.822 -1.096,14.589 6.007,6.774 20.766,24.842 20.766,24.842 1.849,2.212 2.432,5.22 1.542,7.952 -0.891,2.74 -3.13,4.829 -5.918,5.528 0,0 -22.562,5.945 -31.404,7.89 -8.849,1.945 -9.281,9.37 -7.692,12.445 14.527,28.144 39.698,50.801 72.197,61.362 48.519,15.766 99.683,0.15 131.593,-35.637 z"
           id="path8725-5-6-3-1-9-8"
           style="fill:#f4f522;fill-opacity:1" />
        <path
           class="st0"
           d="M 96.772,362.484 C 76.69,390.127 69.636,423.25 74.43,454.558 c 0.527,3.424 5.233,9.178 13.527,5.554 8.308,-3.63 30.054,-12.088 30.054,-12.088 2.672,-1.062 5.698,-0.692 8.041,1 2.329,1.692 3.623,4.466 3.418,7.335 0,0 -1.308,23.294 -2.199,32.315 -0.883,9.006 6.048,11.712 9.466,11.15 31.252,-5.116 60.581,-22.054 80.662,-49.704 29.993,-41.266 30.944,-94.758 6.781,-136.155 -46.848,-10.192 -97.422,7.239 -127.408,48.519 z"
           id="path8727-3-5-0-9-3-3"
           style="fill:#f4f522;fill-opacity:1" />
        <path
           class="st0"
           d="m 287.824,313.964 c -24.165,41.397 -23.212,94.888 6.78,136.155 20.082,27.65 49.41,44.588 80.663,49.704 3.418,0.562 10.349,-2.144 9.466,-11.15 -0.89,-9.021 -2.205,-32.315 -2.205,-32.315 -0.198,-2.869 1.102,-5.643 3.431,-7.335 2.322,-1.692 5.363,-2.062 8.034,-1 0,0 21.746,8.458 30.047,12.088 8.294,3.623 13.007,-2.13 13.534,-5.554 4.787,-31.308 -2.254,-64.43 -22.342,-92.074 -29.986,-41.279 -80.56,-58.717 -127.408,-48.519 z"
           id="path8729-3-8-1-24-1-1"
           style="fill:#f4f522;fill-opacity:1" />
        <path
           class="st0"
           d="m 503.6,215.254 c -8.849,-1.945 -31.41,-7.89 -31.41,-7.89 -2.795,-0.706 -5.027,-2.788 -5.918,-5.528 -0.89,-2.732 -0.308,-5.74 1.534,-7.952 0,0 14.76,-18.068 20.78,-24.842 6.014,-6.766 1.993,-13.034 -1.096,-14.589 -28.301,-14.232 -61.978,-17.76 -94.485,-7.205 -48.519,15.767 -80.731,58.472 -85.512,106.176 31.91,35.787 83.067,51.403 131.593,35.636 32.492,-10.561 57.67,-33.218 72.191,-61.362 1.59,-3.074 1.172,-10.499 -7.677,-12.444 z"
           id="path8731-7-2-49-2-8-3"
           style="fill:#f4f522;fill-opacity:1" />
      </g>
      <g
         id="g8733-3-8-3-1-7-7-5"
         transform="matrix(0.02343754,0,0,0.02343754,48.535945,55.841107)"
         style="display:inline;fill:#f4f522;fill-opacity:1">
        <path
           class="st0"
           d="m 330.555,101.873 c 0,-34.164 -13.767,-65.108 -36.047,-87.622 -2.432,-2.465 -9.63,-4.349 -14.212,3.466 -4.589,7.808 -17.205,27.431 -17.205,27.431 -1.534,2.438 -4.219,3.918 -7.089,3.918 -2.883,0 -5.555,-1.48 -7.089,-3.918 0,0 -12.623,-19.623 -17.205,-27.431 -4.582,-7.815 -11.781,-5.931 -14.219,-3.466 -22.274,22.514 -36.04,53.458 -36.04,87.622 0,51.02 30.663,94.847 74.553,114.142 43.89,-19.295 74.553,-63.123 74.553,-114.142 z"
           id="path8723-8-6-60-9-5-9-1"
           style="fill:#f4f522;fill-opacity:1" />
        <path
           class="st0"
           d="m 204.51,253.425 c -4.78,-47.705 -36.998,-90.409 -85.518,-106.176 -32.492,-10.554 -66.177,-7.027 -94.47,7.205 -3.096,1.555 -7.117,7.822 -1.096,14.589 6.007,6.774 20.766,24.842 20.766,24.842 1.849,2.212 2.432,5.22 1.542,7.952 -0.891,2.74 -3.13,4.829 -5.918,5.528 0,0 -22.562,5.945 -31.404,7.89 -8.849,1.945 -9.281,9.37 -7.692,12.445 14.527,28.144 39.698,50.801 72.197,61.362 48.519,15.766 99.683,0.15 131.593,-35.637 z"
           id="path8725-5-6-20-4-7-1-6"
           style="fill:#f4f522;fill-opacity:1" />
        <path
           class="st0"
           d="M 96.772,362.484 C 76.69,390.127 69.636,423.25 74.43,454.558 c 0.527,3.424 5.233,9.178 13.527,5.554 8.308,-3.63 30.054,-12.088 30.054,-12.088 2.672,-1.062 5.698,-0.692 8.041,1 2.329,1.692 3.623,4.466 3.418,7.335 0,0 -1.308,23.294 -2.199,32.315 -0.883,9.006 6.048,11.712 9.466,11.15 31.252,-5.116 60.581,-22.054 80.662,-49.704 29.993,-41.266 30.944,-94.758 6.781,-136.155 -46.848,-10.192 -97.422,7.239 -127.408,48.519 z"
           id="path8727-3-5-442-1-16-8-6"
           style="fill:#f4f522;fill-opacity:1" />
        <path
           class="st0"
           d="m 287.824,313.964 c -24.165,41.397 -23.212,94.888 6.78,136.155 20.082,27.65 49.41,44.588 80.663,49.704 3.418,0.562 10.349,-2.144 9.466,-11.15 -0.89,-9.021 -2.205,-32.315 -2.205,-32.315 -0.198,-2.869 1.102,-5.643 3.431,-7.335 2.322,-1.692 5.363,-2.062 8.034,-1 0,0 21.746,8.458 30.047,12.088 8.294,3.623 13.007,-2.13 13.534,-5.554 4.787,-31.308 -2.254,-64.43 -22.342,-92.074 -29.986,-41.279 -80.56,-58.717 -127.408,-48.519 z"
           id="path8729-3-8-5-7-8-8-9"
           style="fill:#f4f522;fill-opacity:1" />
        <path
           class="st0"
           d="m 503.6,215.254 c -8.849,-1.945 -31.41,-7.89 -31.41,-7.89 -2.795,-0.706 -5.027,-2.788 -5.918,-5.528 -0.89,-2.732 -0.308,-5.74 1.534,-7.952 0,0 14.76,-18.068 20.78,-24.842 6.014,-6.766 1.993,-13.034 -1.096,-14.589 -28.301,-14.232 -61.978,-17.76 -94.485,-7.205 -48.519,15.767 -80.731,58.472 -85.512,106.176 31.91,35.787 83.067,51.403 131.593,35.636 32.492,-10.561 57.67,-33.218 72.191,-61.362 1.59,-3.074 1.172,-10.499 -7.677,-12.444 z"
           id="path8731-7-2-4-4-40-9-2"
           style="fill:#f4f522;fill-opacity:1" />
      </g>
      <g
         id="g8733-3-8-3-5-5-06-3-0"
         transform="matrix(0.02343754,0,0,0.02343754,63.428673,49.907582)"
         style="display:inline;fill:#f4f522;fill-opacity:1">
        <path
           class="st0"
           d="m 330.555,101.873 c 0,-34.164 -13.767,-65.108 -36.047,-87.622 -2.432,-2.465 -9.63,-4.349 -14.212,3.466 -4.589,7.808 -17.205,27.431 -17.205,27.431 -1.534,2.438 -4.219,3.918 -7.089,3.918 -2.883,0 -5.555,-1.48 -7.089,-3.918 0,0 -12.623,-19.623 -17.205,-27.431 -4.582,-7.815 -11.781,-5.931 -14.219,-3.466 -22.274,22.514 -36.04,53.458 -36.04,87.622 0,51.02 30.663,94.847 74.553,114.142 43.89,-19.295 74.553,-63.123 74.553,-114.142 z"
           id="path8723-8-6-60-1-4-5-8-4"
           style="fill:#f4f522;fill-opacity:1" />
        <path
           class="st0"
           d="m 204.51,253.425 c -4.78,-47.705 -36.998,-90.409 -85.518,-106.176 -32.492,-10.554 -66.177,-7.027 -94.47,7.205 -3.096,1.555 -7.117,7.822 -1.096,14.589 6.007,6.774 20.766,24.842 20.766,24.842 1.849,2.212 2.432,5.22 1.542,7.952 -0.891,2.74 -3.13,4.829 -5.918,5.528 0,0 -22.562,5.945 -31.404,7.89 -8.849,1.945 -9.281,9.37 -7.692,12.445 14.527,28.144 39.698,50.801 72.197,61.362 48.519,15.766 99.683,0.15 131.593,-35.637 z"
           id="path8725-5-6-20-3-3-02-1-5"
           style="fill:#f4f522;fill-opacity:1" />
        <path
           class="st0"
           d="M 96.772,362.484 C 76.69,390.127 69.636,423.25 74.43,454.558 c 0.527,3.424 5.233,9.178 13.527,5.554 8.308,-3.63 30.054,-12.088 30.054,-12.088 2.672,-1.062 5.698,-0.692 8.041,1 2.329,1.692 3.623,4.466 3.418,7.335 0,0 -1.308,23.294 -2.199,32.315 -0.883,9.006 6.048,11.712 9.466,11.15 31.252,-5.116 60.581,-22.054 80.662,-49.704 29.993,-41.266 30.944,-94.758 6.781,-136.155 -46.848,-10.192 -97.422,7.239 -127.408,48.519 z"
           id="path8727-3-5-442-5-7-48-2-5"
           style="fill:#f4f522;fill-opacity:1" />
        <path
           class="st0"
           d="m 287.824,313.964 c -24.165,41.397 -23.212,94.888 6.78,136.155 20.082,27.65 49.41,44.588 80.663,49.704 3.418,0.562 10.349,-2.144 9.466,-11.15 -0.89,-9.021 -2.205,-32.315 -2.205,-32.315 -0.198,-2.869 1.102,-5.643 3.431,-7.335 2.322,-1.692 5.363,-2.062 8.034,-1 0,0 21.746,8.458 30.047,12.088 8.294,3.623 13.007,-2.13 13.534,-5.554 4.787,-31.308 -2.254,-64.43 -22.342,-92.074 -29.986,-41.279 -80.56,-58.717 -127.408,-48.519 z"
           id="path8729-3-8-5-8-5-74-9-3"
           style="fill:#f4f522;fill-opacity:1" />
        <path
           class="st0"
           d="m 503.6,215.254 c -8.849,-1.945 -31.41,-7.89 -31.41,-7.89 -2.795,-0.706 -5.027,-2.788 -5.918,-5.528 -0.89,-2.732 -0.308,-5.74 1.534,-7.952 0,0 14.76,-18.068 20.78,-24.842 6.014,-6.766 1.993,-13.034 -1.096,-14.589 -28.301,-14.232 -61.978,-17.76 -94.485,-7.205 -48.519,15.767 -80.731,58.472 -85.512,106.176 31.91,35.787 83.067,51.403 131.593,35.636 32.492,-10.561 57.67,-33.218 72.191,-61.362 1.59,-3.074 1.172,-10.499 -7.677,-12.444 z"
           id="path8731-7-2-4-8-1-4-9-9"
           style="fill:#f4f522;fill-opacity:1" />
      </g>
    </g>
    <g
       id="g9919-7-49-8"
       style="display:inline"
       transform="matrix(0.8490566,0,0,0.8490566,0.60173197,4.1847795)">
      <g
         id="g2059-1-1-34-0"
         transform="matrix(0.6528399,0,0,0.6528399,28.524238,38.464072)"
         style="display:inline">
        <path
           class="cls-2"
           d="m 33.56,14 a 16,16 0 1 0 16,16 16.06,16.06 0 0 0 -16,-16 z"
           id="path2055-45-7-5-8"
           style="fill:#33cc33;fill-opacity:1" />
        <path
           id="path2057-69-2-2-6"
           style="fill:#369936;fill-opacity:1;stroke-width:1"
           class="cls-2"
           d="M 33.56,14 A 16,16 0 1 0 34.987246,45.935791 16,16 0 0 1 35.966739,14.192871 16.06,16.06 0 0 0 33.56,14 Z" />
      </g>
      <g
         id="g2059-1-9-3-0-1"
         transform="matrix(0.6528399,0,0,0.6528399,43.416966,32.530547)"
         style="display:inline">
        <path
           class="cls-2"
           d="m 33.56,14 a 16,16 0 1 0 16,16 16.06,16.06 0 0 0 -16,-16 z"
           id="path2055-45-3-6-4-1"
           style="fill:#33cc33;fill-opacity:1" />
        <path
           id="path2057-69-3-3-5-3"
           style="fill:#369936;fill-opacity:1;stroke-width:1"
           class="cls-2"
           d="M 33.56,14 A 16,16 0 1 0 34.987246,45.935791 16,16 0 0 1 35.966739,14.192871 16.06,16.06 0 0 0 33.56,14 Z" />
      </g>
      <g
         id="g2059-11-78-1"
         transform="matrix(0.6528399,0,0,0.6528399,60.630276,38.462622)"
         style="display:inline">
        <path
           class="cls-2"
           d="m 33.56,14 a 16,16 0 1 0 16,16 16.06,16.06 0 0 0 -16,-16 z"
           id="path2055-5-79-6"
           style="fill:#33cc33;fill-opacity:1" />
        <path
           id="path2057-6-5-8"
           style="fill:#369936;fill-opacity:1;stroke-width:1"
           class="cls-2"
           d="M 33.56,14 A 16,16 0 1 0 34.987246,45.935791 16,16 0 0 1 35.966739,14.192871 16.06,16.06 0 0 0 33.56,14 Z" />
      </g>
      <g
         id="g8733-3-8-8-95-11"
         transform="matrix(0.02343754,0,0,0.02343754,80.641983,55.839657)"
         style="display:inline;fill:#f4f522;fill-opacity:1">
        <path
           class="st0"
           d="m 330.555,101.873 c 0,-34.164 -13.767,-65.108 -36.047,-87.622 -2.432,-2.465 -9.63,-4.349 -14.212,3.466 -4.589,7.808 -17.205,27.431 -17.205,27.431 -1.534,2.438 -4.219,3.918 -7.089,3.918 -2.883,0 -5.555,-1.48 -7.089,-3.918 0,0 -12.623,-19.623 -17.205,-27.431 -4.582,-7.815 -11.781,-5.931 -14.219,-3.466 -22.274,22.514 -36.04,53.458 -36.04,87.622 0,51.02 30.663,94.847 74.553,114.142 43.89,-19.295 74.553,-63.123 74.553,-114.142 z"
           id="path8723-8-6-51-2-1"
           style="fill:#f4f522;fill-opacity:1" />
        <path
           class="st0"
           d="m 204.51,253.425 c -4.78,-47.705 -36.998,-90.409 -85.518,-106.176 -32.492,-10.554 -66.177,-7.027 -94.47,7.205 -3.096,1.555 -7.117,7.822 -1.096,14.589 6.007,6.774 20.766,24.842 20.766,24.842 1.849,2.212 2.432,5.22 1.542,7.952 -0.891,2.74 -3.13,4.829 -5.918,5.528 0,0 -22.562,5.945 -31.404,7.89 -8.849,1.945 -9.281,9.37 -7.692,12.445 14.527,28.144 39.698,50.801 72.197,61.362 48.519,15.766 99.683,0.15 131.593,-35.637 z"
           id="path8725-5-6-3-1-9"
           style="fill:#f4f522;fill-opacity:1" />
        <path
           class="st0"
           d="M 96.772,362.484 C 76.69,390.127 69.636,423.25 74.43,454.558 c 0.527,3.424 5.233,9.178 13.527,5.554 8.308,-3.63 30.054,-12.088 30.054,-12.088 2.672,-1.062 5.698,-0.692 8.041,1 2.329,1.692 3.623,4.466 3.418,7.335 0,0 -1.308,23.294 -2.199,32.315 -0.883,9.006 6.048,11.712 9.466,11.15 31.252,-5.116 60.581,-22.054 80.662,-49.704 29.993,-41.266 30.944,-94.758 6.781,-136.155 -46.848,-10.192 -97.422,7.239 -127.408,48.519 z"
           id="path8727-3-5-0-9-3"
           style="fill:#f4f522;fill-opacity:1" />
        <path
           class="st0"
           d="m 287.824,313.964 c -24.165,41.397 -23.212,94.888 6.78,136.155 20.082,27.65 49.41,44.588 80.663,49.704 3.418,0.562 10.349,-2.144 9.466,-11.15 -0.89,-9.021 -2.205,-32.315 -2.205,-32.315 -0.198,-2.869 1.102,-5.643 3.431,-7.335 2.322,-1.692 5.363,-2.062 8.034,-1 0,0 21.746,8.458 30.047,12.088 8.294,3.623 13.007,-2.13 13.534,-5.554 4.787,-31.308 -2.254,-64.43 -22.342,-92.074 -29.986,-41.279 -80.56,-58.717 -127.408,-48.519 z"
           id="path8729-3-8-1-24-1"
           style="fill:#f4f522;fill-opacity:1" />
        <path
           class="st0"
           d="m 503.6,215.254 c -8.849,-1.945 -31.41,-7.89 -31.41,-7.89 -2.795,-0.706 -5.027,-2.788 -5.918,-5.528 -0.89,-2.732 -0.308,-5.74 1.534,-7.952 0,0 14.76,-18.068 20.78,-24.842 6.014,-6.766 1.993,-13.034 -1.096,-14.589 -28.301,-14.232 -61.978,-17.76 -94.485,-7.205 -48.519,15.767 -80.731,58.472 -85.512,106.176 31.91,35.787 83.067,51.403 131.593,35.636 32.492,-10.561 57.67,-33.218 72.191,-61.362 1.59,-3.074 1.172,-10.499 -7.677,-12.444 z"
           id="path8731-7-2-49-2-8"
           style="fill:#f4f522;fill-opacity:1" />
      </g>
      <g
         id="g8733-3-8-3-1-7-7"
         transform="matrix(0.02343754,0,0,0.02343754,48.535945,55.841107)"
         style="display:inline;fill:#f4f522;fill-opacity:1">
        <path
           class="st0"
           d="m 330.555,101.873 c 0,-34.164 -13.767,-65.108 -36.047,-87.622 -2.432,-2.465 -9.63,-4.349 -14.212,3.466 -4.589,7.808 -17.205,27.431 -17.205,27.431 -1.534,2.438 -4.219,3.918 -7.089,3.918 -2.883,0 -5.555,-1.48 -7.089,-3.918 0,0 -12.623,-19.623 -17.205,-27.431 -4.582,-7.815 -11.781,-5.931 -14.219,-3.466 -22.274,22.514 -36.04,53.458 -36.04,87.622 0,51.02 30.663,94.847 74.553,114.142 43.89,-19.295 74.553,-63.123 74.553,-114.142 z"
           id="path8723-8-6-60-9-5-9"
           style="fill:#f4f522;fill-opacity:1" />
        <path
           class="st0"
           d="m 204.51,253.425 c -4.78,-47.705 -36.998,-90.409 -85.518,-106.176 -32.492,-10.554 -66.177,-7.027 -94.47,7.205 -3.096,1.555 -7.117,7.822 -1.096,14.589 6.007,6.774 20.766,24.842 20.766,24.842 1.849,2.212 2.432,5.22 1.542,7.952 -0.891,2.74 -3.13,4.829 -5.918,5.528 0,0 -22.562,5.945 -31.404,7.89 -8.849,1.945 -9.281,9.37 -7.692,12.445 14.527,28.144 39.698,50.801 72.197,61.362 48.519,15.766 99.683,0.15 131.593,-35.637 z"
           id="path8725-5-6-20-4-7-1"
           style="fill:#f4f522;fill-opacity:1" />
        <path
           class="st0"
           d="M 96.772,362.484 C 76.69,390.127 69.636,423.25 74.43,454.558 c 0.527,3.424 5.233,9.178 13.527,5.554 8.308,-3.63 30.054,-12.088 30.054,-12.088 2.672,-1.062 5.698,-0.692 8.041,1 2.329,1.692 3.623,4.466 3.418,7.335 0,0 -1.308,23.294 -2.199,32.315 -0.883,9.006 6.048,11.712 9.466,11.15 31.252,-5.116 60.581,-22.054 80.662,-49.704 29.993,-41.266 30.944,-94.758 6.781,-136.155 -46.848,-10.192 -97.422,7.239 -127.408,48.519 z"
           id="path8727-3-5-442-1-16-8"
           style="fill:#f4f522;fill-opacity:1" />
        <path
           class="st0"
           d="m 287.824,313.964 c -24.165,41.397 -23.212,94.888 6.78,136.155 20.082,27.65 49.41,44.588 80.663,49.704 3.418,0.562 10.349,-2.144 9.466,-11.15 -0.89,-9.021 -2.205,-32.315 -2.205,-32.315 -0.198,-2.869 1.102,-5.643 3.431,-7.335 2.322,-1.692 5.363,-2.062 8.034,-1 0,0 21.746,8.458 30.047,12.088 8.294,3.623 13.007,-2.13 13.534,-5.554 4.787,-31.308 -2.254,-64.43 -22.342,-92.074 -29.986,-41.279 -80.56,-58.717 -127.408,-48.519 z"
           id="path8729-3-8-5-7-8-8"
           style="fill:#f4f522;fill-opacity:1" />
        <path
           class="st0"
           d="m 503.6,215.254 c -8.849,-1.945 -31.41,-7.89 -31.41,-7.89 -2.795,-0.706 -5.027,-2.788 -5.918,-5.528 -0.89,-2.732 -0.308,-5.74 1.534,-7.952 0,0 14.76,-18.068 20.78,-24.842 6.014,-6.766 1.993,-13.034 -1.096,-14.589 -28.301,-14.232 -61.978,-17.76 -94.485,-7.205 -48.519,15.767 -80.731,58.472 -85.512,106.176 31.91,35.787 83.067,51.403 131.593,35.636 32.492,-10.561 57.67,-33.218 72.191,-61.362 1.59,-3.074 1.172,-10.499 -7.677,-12.444 z"
           id="path8731-7-2-4-4-40-9"
           style="fill:#f4f522;fill-opacity:1" />
      </g>
      <g
         id="g8733-3-8-3-5-5-06-3"
         transform="matrix(0.02343754,0,0,0.02343754,63.428673,49.907582)"
         style="display:inline;fill:#f4f522;fill-opacity:1">
        <path
           class="st0"
           d="m 330.555,101.873 c 0,-34.164 -13.767,-65.108 -36.047,-87.622 -2.432,-2.465 -9.63,-4.349 -14.212,3.466 -4.589,7.808 -17.205,27.431 -17.205,27.431 -1.534,2.438 -4.219,3.918 -7.089,3.918 -2.883,0 -5.555,-1.48 -7.089,-3.918 0,0 -12.623,-19.623 -17.205,-27.431 -4.582,-7.815 -11.781,-5.931 -14.219,-3.466 -22.274,22.514 -36.04,53.458 -36.04,87.622 0,51.02 30.663,94.847 74.553,114.142 43.89,-19.295 74.553,-63.123 74.553,-114.142 z"
           id="path8723-8-6-60-1-4-5-8"
           style="fill:#f4f522;fill-opacity:1" />
        <path
           class="st0"
           d="m 204.51,253.425 c -4.78,-47.705 -36.998,-90.409 -85.518,-106.176 -32.492,-10.554 -66.177,-7.027 -94.47,7.205 -3.096,1.555 -7.117,7.822 -1.096,14.589 6.007,6.774 20.766,24.842 20.766,24.842 1.849,2.212 2.432,5.22 1.542,7.952 -0.891,2.74 -3.13,4.829 -5.918,5.528 0,0 -22.562,5.945 -31.404,7.89 -8.849,1.945 -9.281,9.37 -7.692,12.445 14.527,28.144 39.698,50.801 72.197,61.362 48.519,15.766 99.683,0.15 131.593,-35.637 z"
           id="path8725-5-6-20-3-3-02-1"
           style="fill:#f4f522;fill-opacity:1" />
        <path
           class="st0"
           d="M 96.772,362.484 C 76.69,390.127 69.636,423.25 74.43,454.558 c 0.527,3.424 5.233,9.178 13.527,5.554 8.308,-3.63 30.054,-12.088 30.054,-12.088 2.672,-1.062 5.698,-0.692 8.041,1 2.329,1.692 3.623,4.466 3.418,7.335 0,0 -1.308,23.294 -2.199,32.315 -0.883,9.006 6.048,11.712 9.466,11.15 31.252,-5.116 60.581,-22.054 80.662,-49.704 29.993,-41.266 30.944,-94.758 6.781,-136.155 -46.848,-10.192 -97.422,7.239 -127.408,48.519 z"
           id="path8727-3-5-442-5-7-48-2"
           style="fill:#f4f522;fill-opacity:1" />
        <path
           class="st0"
           d="m 287.824,313.964 c -24.165,41.397 -23.212,94.888 6.78,136.155 20.082,27.65 49.41,44.588 80.663,49.704 3.418,0.562 10.349,-2.144 9.466,-11.15 -0.89,-9.021 -2.205,-32.315 -2.205,-32.315 -0.198,-2.869 1.102,-5.643 3.431,-7.335 2.322,-1.692 5.363,-2.062 8.034,-1 0,0 21.746,8.458 30.047,12.088 8.294,3.623 13.007,-2.13 13.534,-5.554 4.787,-31.308 -2.254,-64.43 -22.342,-92.074 -29.986,-41.279 -80.56,-58.717 -127.408,-48.519 z"
           id="path8729-3-8-5-8-5-74-9"
           style="fill:#f4f522;fill-opacity:1" />
        <path
           class="st0"
           d="m 503.6,215.254 c -8.849,-1.945 -31.41,-7.89 -31.41,-7.89 -2.795,-0.706 -5.027,-2.788 -5.918,-5.528 -0.89,-2.732 -0.308,-5.74 1.534,-7.952 0,0 14.76,-18.068 20.78,-24.842 6.014,-6.766 1.993,-13.034 -1.096,-14.589 -28.301,-14.232 -61.978,-17.76 -94.485,-7.205 -48.519,15.767 -80.731,58.472 -85.512,106.176 31.91,35.787 83.067,51.403 131.593,35.636 32.492,-10.561 57.67,-33.218 72.191,-61.362 1.59,-3.074 1.172,-10.499 -7.677,-12.444 z"
           id="path8731-7-2-4-8-1-4-9"
           style="fill:#f4f522;fill-opacity:1" />
      </g>
    </g>
  </g>
</svg>
