<?xml version="1.0" encoding="UTF-8" standalone="no"?>
<!-- Created with Inkscape (http://www.inkscape.org/) -->

<svg
   width="500"
   height="500"
   viewBox="0 0 132.29167 132.29167"
   version="1.1"
   id="svg58"
   inkscape:version="1.1.2 (b8e25be833, 2022-02-05)"
   sodipodi:docname="b01r02.svg"
   xmlns:inkscape="http://www.inkscape.org/namespaces/inkscape"
   xmlns:sodipodi="http://sodipodi.sourceforge.net/DTD/sodipodi-0.dtd"
   xmlns="http://www.w3.org/2000/svg"
   xmlns:svg="http://www.w3.org/2000/svg">
  <sodipodi:namedview
     id="namedview60"
     pagecolor="#ffffff"
     bordercolor="#666666"
     borderopacity="1.0"
     inkscape:pageshadow="2"
     inkscape:pageopacity="0.0"
     inkscape:pagecheckerboard="true"
     inkscape:document-units="px"
     showgrid="false"
     units="px"
     inkscape:zoom="1"
     inkscape:cx="94.5"
     inkscape:cy="261.5"
     inkscape:window-width="1920"
     inkscape:window-height="1001"
     inkscape:window-x="-9"
     inkscape:window-y="-9"
     inkscape:window-maximized="1"
     inkscape:current-layer="g4908"
     showguides="false" />
  <defs
     id="defs55" />
  <g
     inkscape:label="Layer 1 copy"
     inkscape:groupmode="layer"
     id="g4908"
     style="display:inline">
    <ellipse
       style="fill:none;fill-opacity:1;stroke:#777777;stroke-width:2.59917;stroke-miterlimit:4;stroke-dasharray:none;stroke-opacity:1"
       id="ellipse4890"
       cx="66.145836"
       cy="66.145828"
       rx="64.846252"
       ry="64.846245" />
    <circle
       style="fill:none;fill-opacity:1;stroke:#00e2a7;stroke-width:7.77241;stroke-miterlimit:4;stroke-dasharray:none;stroke-opacity:1"
       id="circle4892"
       cx="66.145836"
       cy="66.145836"
       r="60.936714" />
    <rect
       x="25.304049"
       y="92.079575"
       style="fill:#c7cac7;stroke-width:1.59662"
       width="79.8312"
       height="6.3864961"
       id="rect2" />
    <path
       style="fill:#afb6bb;stroke-width:1.59662"
       d="M 95.659281,109.64243 H 34.78001 c -3.469461,0 -6.282713,-2.81326 -6.282713,-6.28272 V 98.466053 H 101.942 v 4.893657 c 0,3.46946 -2.813248,6.28272 -6.282719,6.28272 z"
       id="path4" />
    <rect
       x="38.077042"
       y="109.64243"
       style="fill:#c7cac7;stroke-width:1.59662"
       width="9.5797443"
       height="4.7898722"
       id="rect6" />
    <rect
       x="82.782501"
       y="109.64243"
       style="fill:#c7cac7;stroke-width:1.59662"
       width="9.5797443"
       height="4.7898722"
       id="rect8" />
    <path
       style="fill:#43b05c;stroke-width:1.59662"
       d="m 61.263212,48.965923 c -0.518905,-1.00587 -0.250672,-2.2225 0.627477,-2.936193 1.066541,-0.865369 1.732338,-2.085192 1.732338,-3.445516 0,-2.645601 -2.501915,-4.789871 -5.588186,-4.789871 -0.919655,0 -1.773848,0.209156 -2.538635,0.54606 -0.560422,-2.137878 -2.781318,-3.739292 -5.444486,-3.739292 -1.633348,0 -3.089469,0.611505 -4.112906,1.569479 -1.194272,-1.312421 -2.899466,-2.150654 -4.813816,-2.150654 -1.306038,0 -2.516283,0.392785 -3.536521,1.053772 -1.473688,-2.615267 -4.532821,-4.218279 -7.876149,-3.48862 -2.436447,0.530069 -4.456177,2.399727 -5.214573,4.773905 -0.515706,1.614188 -0.43587,3.153331 0.02414,4.52004 -3.239552,0.962765 -5.604153,3.959629 -5.604153,7.510518 0,4.328451 3.509378,7.837828 7.837829,7.837828 0.119724,0 0.23631,-0.01269 0.354466,-0.0175 0.804698,2.287968 2.961737,3.937273 5.524317,3.937273 1.397049,0 2.661575,-0.504543 3.664253,-1.322003 1.564693,1.75469 4.277357,2.918633 7.366826,2.918633 3.107029,0 5.832467,-1.175125 7.39077,-2.947368 0.84621,-0.961178 2.160231,-1.240583 3.322576,-0.70252 0.637054,0.293755 1.329987,0.456628 2.059641,0.456628 3.086276,0 5.588186,-2.859553 5.588186,-6.386497 0,-1.170322 -0.279397,-2.25922 -0.763188,-3.198036 z"
       id="path10" />
    <path
       style="fill:#6b4842;stroke-width:1.59662"
       d="m 39.673662,66.533575 v -5.498771 c -1.371499,-0.512513 -2.540228,-1.272503 -3.375261,-2.208132 -1.002679,0.815876 -2.267204,1.32041 -3.664254,1.32041 -0.914864,0 -1.77225,-0.217123 -2.540228,-0.592349 v 11.768715 4.789872 c 0,2.645606 2.144269,4.789873 4.789872,4.789873 h 3.811144 c 1.438555,-1.004273 3.185266,-1.59663 5.074072,-1.59663 3.910129,0 7.081026,-3.170887 7.081026,-7.081025 v -0.90209 h -6.386499 c -2.645602,0 -4.789872,-2.144266 -4.789872,-4.789873 z"
       id="path12" />
    <path
       style="fill:#88c057;stroke-width:1.59662"
       d="m 104.43432,42.148338 c 3.18048,-1.052173 5.49079,-4.01391 5.49079,-7.547239 0,-4.408281 -3.57483,-7.983121 -7.98311,-7.983121 -0.60511,0 -1.19108,0.07983 -1.75788,0.207586 -0.635464,-2.856362 -3.175694,-4.997434 -6.225244,-4.997434 -3.526941,0 -6.38649,2.859555 -6.38649,6.386494 0,0.510939 0.075,1.001084 0.188396,1.47688 -0.742429,0.52687 -1.38906,1.178304 -1.915948,1.919141 -0.0097,0.0016 -0.02052,0.0031 -0.03017,0.0048 -0.635455,-2.856362 -3.175684,-4.997434 -6.225234,-4.997434 -3.526945,0 -6.386494,2.859555 -6.386494,6.386494 0,0.51094 0.07501,1.001085 0.188397,1.47688 -2.040482,1.446538 -3.381646,3.814337 -3.381646,6.506242 0,4.408281 3.57484,7.983122 7.983121,7.983122 2.311907,0 4.377939,-0.997893 5.83566,-2.568971 0.03862,0.02052 0.07984,0.035 0.118155,0.05612 -0.72966,1.199064 -1.163937,2.599299 -1.163937,4.109707 0,4.40828 3.57484,7.983121 7.983116,7.983121 2.311914,0 4.377946,-0.997894 5.835653,-2.568965 1.12084,0.600311 2.383762,0.972343 3.744095,0.972343 4.40827,0 7.98311,-3.574846 7.98311,-7.983121 0,-2.907451 -1.57107,-5.426927 -3.89416,-6.822377 z"
       id="path14" />
    <g
       id="g18"
       transform="matrix(1.5966239,0,0,1.5966239,18.917553,21.828106)">
      <path
         style="fill:#23a24d"
         d="m 40,18 c 0,-0.946 0.272,-1.823 0.729,-2.575 C 40.705,15.413 40.679,15.403 40.655,15.39 39.742,16.375 38.448,17 37,17 34.239,17 32,14.761 32,12 32,10.314 32.84,8.831 34.118,7.925 34.047,7.627 34,7.32 34,7 34,6.111 34.299,5.299 34.789,4.635 34.669,3.876 34.331,3.145 33.746,2.56 32.273,1.087 29.885,1.087 28.412,2.56 28.394,2.578 28.38,2.597 28.362,2.615 28.185,2.063 27.88,1.543 27.442,1.105 25.788,-0.549 22.98,-0.345 21.61,1.716 20.797,2.938 20.797,4.581 21.6,5.81 c 0.501,0.768 1.201,1.274 1.966,1.532 0.038,0.013 0.049,0.056 0.024,0.087 -0.667,0.814 -0.9,1.859 -0.709,2.837 0.008,0.026 0.021,0.05 0.028,0.077 C 23.389,10.131 23.924,10 24.5,10 c 1.933,0 3.5,1.343 3.5,3 0,0.853 -0.417,1.616 -1.085,2.159 -0.409,0.332 -0.604,0.838 -0.546,1.334 0.038,0.041 0.065,0.088 0.104,0.127 1.143,1.143 2.836,1.397 4.225,0.766 0.156,-0.071 0.319,-0.105 0.483,-0.124 C 31.744,19.409 33.678,21 36,21 37.693,21 39.183,20.154 40.087,18.867 40.038,18.584 40,18.297 40,18 Z"
         id="path16" />
    </g>
    <g
       id="g22"
       transform="matrix(1.5966239,0,0,1.5966239,18.917553,21.828106)">
      <path
         style="fill:#6b5b4b"
         d="m 42.435,36 h -9 C 30.986,36 29,34.014 29,31.565 29,29.044 31.044,27 33.565,27 H 39 40.037 C 40.028,26.878 40,26.761 40,26.636 40,24.778 41.04,23.174 42.563,22.341 41.282,21.62 40.35,20.366 40.087,18.867 39.183,20.154 37.693,21 36,21 33.953,21 32.21,19.763 31.44,18 h -4.556 c 0.074,0.319 0.116,0.654 0.116,1 0,2.209 -1.567,4 -3.5,4 -0.457,0 -0.891,-0.102 -1.289,-0.286 -0.728,-0.336 -1.552,-0.162 -2.081,0.44 -0.04,0.045 -0.088,0.086 -0.13,0.129 V 24 27 31.565 C 20,34.014 18.014,36 15.565,36 12.492,36 10,38.491 10,41.565 V 44 H 48 V 41.565 C 48,38.491 45.508,36 42.435,36 Z"
         id="path20" />
    </g>
    <path
       style="fill:#61b872;stroke-width:1.59662"
       d="m 111.52174,56.517949 c 0,-2.476361 -1.39385,-4.604657 -3.42636,-5.712715 -0.83183,3.520554 -3.97558,6.148597 -7.75001,6.148597 -1.360319,0 -2.62325,-0.372024 -3.744082,-0.972344 -1.457715,1.57108 -3.523747,2.568974 -5.835659,2.568974 -1.420994,0 -2.735014,-0.402387 -3.890968,-1.052179 -2.431662,1.329982 -4.092147,3.890976 -4.092147,6.857497 0,4.32845 3.509379,7.83783 7.837823,7.83783 0.119725,0 0.236311,-0.01269 0.354466,-0.0175 0.804702,2.287959 2.961734,3.937272 5.52432,3.937272 3.033582,0 5.500377,-2.305528 5.816497,-5.256089 4.41308,-0.303354 7.9001,-3.970803 7.9001,-8.460506 0,-0.606725 -0.067,-1.197464 -0.18683,-1.769058 0.91807,-1.124025 1.49285,-2.543424 1.49285,-4.109717 z"
       id="path24" />
    <circle
       style="fill:#23a24d;stroke-width:1.59662"
       cx="64.421333"
       cy="48.172375"
       r="5.5881834"
       id="circle26" />
  </g>
</svg>
