<?xml version="1.0" encoding="UTF-8" standalone="no"?>
<!-- Created with Inkscape (http://www.inkscape.org/) -->

<svg
   width="500"
   height="500"
   viewBox="0 0 132.29167 132.29167"
   version="1.1"
   id="svg58"
   inkscape:version="1.1.2 (b8e25be833, 2022-02-05)"
   sodipodi:docname="b02r01.svg"
   xmlns:inkscape="http://www.inkscape.org/namespaces/inkscape"
   xmlns:sodipodi="http://sodipodi.sourceforge.net/DTD/sodipodi-0.dtd"
   xmlns="http://www.w3.org/2000/svg"
   xmlns:svg="http://www.w3.org/2000/svg">
  <sodipodi:namedview
     id="namedview60"
     pagecolor="#ffffff"
     bordercolor="#666666"
     borderopacity="1.0"
     inkscape:pageshadow="2"
     inkscape:pageopacity="0.0"
     inkscape:pagecheckerboard="true"
     inkscape:document-units="px"
     showgrid="false"
     units="px"
     inkscape:zoom="1"
     inkscape:cx="94.5"
     inkscape:cy="261.5"
     inkscape:window-width="1920"
     inkscape:window-height="1001"
     inkscape:window-x="-9"
     inkscape:window-y="-9"
     inkscape:window-maximized="1"
     inkscape:current-layer="g4908"
     showguides="false" />
  <defs
     id="defs55" />
  <g
     inkscape:label="Layer 1 copy"
     inkscape:groupmode="layer"
     id="g4908"
     style="display:inline">
    <ellipse
       style="fill:none;fill-opacity:1;stroke:#777777;stroke-width:2.59917;stroke-miterlimit:4;stroke-dasharray:none;stroke-opacity:1"
       id="ellipse4890"
       cx="66.145836"
       cy="66.145828"
       rx="64.846252"
       ry="64.846245" />
    <circle
       style="fill:none;fill-opacity:1;stroke:#33ccff;stroke-width:7.77241;stroke-miterlimit:4;stroke-dasharray:none;stroke-opacity:1"
       id="circle4892"
       cx="66.145836"
       cy="66.145836"
       r="60.936714" />
    <g
       id="g903"
       transform="matrix(0.17949506,0,0,0.17949506,19.711458,18.732862)">
      <path
         style="fill:#b36e44"
         d="M 361.275,421.642 V 316.327 c 0,-33.946 -27.508,-61.464 -61.44,-61.464 h -52.009 c -5.804,0 -10.51,-4.707 -10.51,-10.514 V 118.258 h -35.57 v 154.089 c 0,12.633 10.237,22.874 22.865,22.874 h 43.155 c 6.444,0 11.667,5.226 11.667,11.672 v 114.751 h 81.841 v -0.002 z"
         id="path2" />
      <path
         style="fill:#8c5635"
         d="M 294.265,421.642 V 304.625 c 0,-13.824 -11.207,-25.031 -25.031,-25.031 h -43.691 c -3.956,0 -7.163,-3.207 -7.163,-7.163 V 118.257 h -16.634 v 154.089 c 0,12.633 10.241,22.874 22.874,22.874 h 43.147 c 6.444,0 11.667,5.223 11.667,11.667 v 114.755 z"
         id="path4" />
      <path
         style="fill:#a9cf54"
         d="m 358.313,97.053 v 2.437 c 0,0.377 0,0.766 -0.01,1.143 v 0.108 c -0.668,25.75 -21.601,46.691 -47.352,47.359 h -0.097 c -7.276,-0.183 -14.131,-2.049 -20.19,-5.219 -6.748,6.286 -15.78,10.147 -25.74,10.147 -9.658,0 -18.454,-3.623 -25.126,-9.586 -6.112,2.998 -13,4.669 -20.265,4.669 -7.545,0 -14.67,-1.8 -20.954,-5.003 -6.716,6.158 -15.662,9.92 -25.492,9.92 -9.776,0 -18.659,-3.72 -25.363,-9.802 -5.896,2.965 -12.515,4.701 -19.521,4.874 h -0.097 c -25.74,-0.669 -46.672,-21.61 -47.341,-47.359 v -0.108 c -0.01,-0.377 -0.01,-0.766 -0.01,-1.143 v -2.437 c 0,-46.345 37.91,-84.27 84.238,-84.27 h 109.072 c 46.339,0 84.248,37.925 84.248,84.27 z"
         id="path6" />
      <path
         style="fill:#92b83d"
         d="m 98.045,101.193 v -0.108 c -0.01,-0.377 -0.01,-0.766 -0.01,-1.143 v -2.437 c 0,-46.345 37.91,-84.27 84.238,-84.27 h 100.489 c -2.86,-0.297 -5.761,-0.451 -8.696,-0.451 H 164.994 c -46.328,0 -84.238,37.925 -84.238,84.27 v 2.437 c 0,0.377 0,0.766 0.011,1.143 v 0.108 c 0.669,25.75 21.601,46.691 47.341,47.359 h 0.097 c 2.547,-0.063 5.042,-0.338 7.471,-0.798 -21.104,-4.923 -37.049,-23.691 -37.631,-46.11 z"
         id="path8" />
      <path
         style="fill:#b36e44"
         d="m 324.626,281.02 h 61.178 c 3.571,0 6.467,-2.896 6.467,-6.47 v -84.333 h 31.619 v 86.705 c 0,20.923 -16.956,37.885 -37.87,37.885 h -48.1 z"
         id="path10" />
      <path
         style="fill:#8c5635"
         d="m 392.27,190.217 v 84.333 c 0,3.574 -2.896,6.47 -6.47,6.47 h -61.175 v 0 c 3.394,8.627 11.721,14.298 20.99,14.298 h 40.317 c 12.216,0 22.119,-9.902 22.119,-22.119 v -82.982 z"
         id="path12" />
      <path
         style="fill:#a9cf54"
         d="m 500.223,195.847 v 1.619 c 0,0.251 0,0.509 -0.007,0.76 v 0.072 c -0.444,17.102 -14.346,31.009 -31.448,31.454 h -0.065 c -4.833,-0.122 -9.385,-1.36 -13.408,-3.466 -4.482,4.175 -10.48,6.739 -17.096,6.739 -6.415,0 -12.256,-2.406 -16.687,-6.367 -4.059,1.991 -8.634,3.101 -13.458,3.101 -5.011,0 -9.743,-1.196 -13.917,-3.323 -4.46,4.09 -10.402,6.589 -16.93,6.589 -6.493,0 -12.391,-2.471 -16.845,-6.51 -3.916,1.97 -8.311,3.122 -12.965,3.237 h -0.065 C 330.236,229.308 316.334,215.4 315.89,198.298 v -0.072 c -0.007,-0.251 -0.007,-0.509 -0.007,-0.76 v -1.619 c 0,-30.781 25.178,-55.968 55.946,-55.968 h 72.44 c 30.776,0.001 55.954,25.189 55.954,55.968 z"
         id="path14" />
      <path
         style="fill:#92b83d"
         d="m 330.172,198.297 v -0.072 c -0.007,-0.251 -0.007,-0.509 -0.007,-0.759 v -1.619 c 0,-30.781 25.178,-55.968 55.946,-55.968 h -14.282 c -30.769,0 -55.946,25.187 -55.946,55.968 v 1.619 c 0,0.251 0,0.509 0.007,0.759 v 0.072 c 0.444,17.102 14.346,31.009 31.442,31.454 h 0.064 c 2.436,-0.06 4.798,-0.411 7.06,-1.008 -13.662,-3.519 -23.904,-15.808 -24.284,-30.446 z"
         id="path16" />
      <path
         style="fill:#b36e44"
         d="M 298.144,326.751 H 165.953 c -14.363,0 -26.006,-11.649 -26.006,-26.017 v -64.786 h -31.619 v 67.482 c 0,31.54 25.558,57.108 57.086,57.108 h 132.73 z"
         id="path18" />
      <path
         style="fill:#8c5635"
         d="m 179.267,347.487 c -43.094,0 -56.279,-20.884 -56.279,-59.01 v -53.47 l -14.659,0.94 v 67.482 c 0,31.54 25.558,57.108 57.086,57.108 h 128.851 c 0,-7.134 -5.784,-12.917 -12.917,-12.917 z"
         id="path20" />
      <path
         style="fill:#a9cf54"
         d="m 212.924,242.419 v 1.619 c 0,0.251 0,0.509 -0.007,0.76 v 0.072 c -0.444,17.102 -14.346,31.009 -31.448,31.454 h -0.065 c -4.833,-0.122 -9.385,-1.36 -13.408,-3.466 -4.482,4.175 -10.48,6.739 -17.096,6.739 -6.415,0 -12.256,-2.406 -16.687,-6.367 -4.059,1.991 -8.634,3.101 -13.458,3.101 -5.011,0 -9.743,-1.196 -13.917,-3.323 -4.46,4.09 -10.402,6.589 -16.93,6.589 -6.493,0 -12.391,-2.471 -16.845,-6.51 -3.916,1.97 -8.311,3.122 -12.965,3.237 H 60.033 C 42.937,275.88 29.035,261.972 28.591,244.87 v -0.072 c -0.007,-0.251 -0.007,-0.509 -0.007,-0.76 v -1.619 c 0,-30.781 25.178,-55.968 55.946,-55.968 h 72.44 c 30.776,0.001 55.954,25.188 55.954,55.968 z"
         id="path22" />
      <path
         style="fill:#92b83d"
         d="m 42.963,244.869 v -0.072 c -0.007,-0.251 -0.007,-0.509 -0.007,-0.759 v -1.619 c 0,-30.781 25.178,-55.968 55.946,-55.968 H 84.53 c -30.768,0 -55.946,25.187 -55.946,55.968 v 1.619 c 0,0.251 0,0.509 0.007,0.759 v 0.072 c 0.444,17.102 14.346,31.009 31.442,31.454 h 0.064 c 2.451,-0.061 4.827,-0.416 7.103,-1.02 -13.637,-3.536 -23.857,-15.814 -24.237,-30.434 z"
         id="path24" />
      <path
         style="fill:#f75534"
         d="m 512,405.289 v 0.01 c 0,35.721 -28.964,64.684 -64.684,64.684 H 64.684 C 28.964,469.984 0,441.021 0,405.299 v -0.01 c 0,-2.382 1.93,-4.311 4.311,-4.311 h 503.376 c 2.383,-0.001 4.313,1.928 4.313,4.311 z"
         id="path26" />
      <path
         style="fill:#bd391e"
         d="M 94.542,469.984 H 64.684 C 28.964,469.984 0,441.021 0,405.299 v -0.01 c 0,-2.382 1.93,-4.311 4.311,-4.311 h 17.828 c -2.382,0 -4.311,1.929 -4.311,4.311 v 0.01 c 0,35.722 40.972,64.685 76.714,64.685 z"
         id="path28" />
      <path
         style="fill:#362928"
         d="m 444.341,469.984 v 23.919 c 0,2.932 -2.382,5.314 -5.314,5.314 H 72.974 c -2.932,0 -5.314,-2.382 -5.314,-5.314 v -23.919 z"
         id="path30" />
      <path
         style="fill:#2e2322"
         d="M 90.856,499.217 H 72.974 c -2.932,0 -5.314,-2.382 -5.314,-5.314 v -23.919 h 19.402 v 23.919 c 0,2.931 1.703,5.314 3.794,5.314 z"
         id="path32" />
      <g
         id="g54">
        <circle
           style="fill:#627d2a"
           cx="212.929"
           cy="51.890999"
           r="8.0839996"
           id="circle34" />
        <circle
           style="fill:#627d2a"
           cx="153.642"
           cy="68.065002"
           r="8.0839996"
           id="circle36" />
        <circle
           style="fill:#627d2a"
           cx="244.89301"
           cy="87.333"
           r="8.0839996"
           id="circle38" />
        <circle
           style="fill:#627d2a"
           cx="289.59299"
           cy="64.494003"
           r="8.0839996"
           id="circle40" />
        <circle
           style="fill:#627d2a"
           cx="448.564"
           cy="187.601"
           r="8.0839996"
           id="circle42" />
        <circle
           style="fill:#627d2a"
           cx="405.483"
           cy="166.567"
           r="8.0839996"
           id="circle44" />
        <circle
           style="fill:#627d2a"
           cx="369.633"
           cy="190.83"
           r="8.0839996"
           id="circle46" />
        <circle
           style="fill:#627d2a"
           cx="76.893997"
           cy="233.02299"
           r="8.0839996"
           id="circle48" />
        <circle
           style="fill:#627d2a"
           cx="164.561"
           cy="233.02299"
           r="8.0839996"
           id="circle50" />
        <circle
           style="fill:#627d2a"
           cx="120.748"
           cy="216.07401"
           r="8.0839996"
           id="circle52" />
      </g>
    </g>
  </g>
</svg>
