<?xml version="1.0" encoding="UTF-8" standalone="no"?>
<!-- Created with Inkscape (http://www.inkscape.org/) -->

<svg
   width="500"
   height="500"
   viewBox="0 0 132.29167 132.29167"
   version="1.1"
   id="svg58"
   inkscape:version="1.1.2 (b8e25be833, 2022-02-05)"
   sodipodi:docname="b03r01.svg"
   xmlns:inkscape="http://www.inkscape.org/namespaces/inkscape"
   xmlns:sodipodi="http://sodipodi.sourceforge.net/DTD/sodipodi-0.dtd"
   xmlns="http://www.w3.org/2000/svg"
   xmlns:svg="http://www.w3.org/2000/svg">
  <sodipodi:namedview
     id="namedview60"
     pagecolor="#ffffff"
     bordercolor="#666666"
     borderopacity="1.0"
     inkscape:pageshadow="2"
     inkscape:pageopacity="0.0"
     inkscape:pagecheckerboard="true"
     inkscape:document-units="px"
     showgrid="false"
     units="px"
     inkscape:zoom="1"
     inkscape:cx="94.5"
     inkscape:cy="261.5"
     inkscape:window-width="1920"
     inkscape:window-height="1001"
     inkscape:window-x="-9"
     inkscape:window-y="-9"
     inkscape:window-maximized="1"
     inkscape:current-layer="g4908"
     showguides="false" />
  <defs
     id="defs55" />
  <g
     inkscape:label="Layer 1 copy"
     inkscape:groupmode="layer"
     id="g4908"
     style="display:inline">
    <ellipse
       style="fill:none;fill-opacity:1;stroke:#777777;stroke-width:2.59917;stroke-miterlimit:4;stroke-dasharray:none;stroke-opacity:1"
       id="ellipse4890"
       cx="66.145836"
       cy="66.145828"
       rx="64.846252"
       ry="64.846245" />
    <circle
       style="fill:none;fill-opacity:1;stroke:#33ccff;stroke-width:7.77241;stroke-miterlimit:4;stroke-dasharray:none;stroke-opacity:1"
       id="circle4892"
       cx="66.145836"
       cy="66.145836"
       r="60.936714" />
    <path
       style="fill:#7f4545;stroke-width:0.180875"
       d="m 76.106427,67.57164 c -8.97553,0 -15.70298,-3.14559 -19.83759,-5.858706 -4.72516,-3.102902 -7.16552,-6.302207 -7.26735,-6.437863 l 3.08029,-2.322971 c 0.0186,0.0255 2.22132,2.882777 6.43642,5.621037 4.83984,3.14251 10.22338,4.85521 16.03958,5.109523 -5.95475,-2.554674 -8.16033,-6.330427 -8.27066,-6.528303 l 3.35594,-1.902076 -0.008,-0.01682 c 0.10907,0.183769 2.74423,4.501966 10.62041,6.220091 l 3.60048,0.782823 -5.66914,5.284971 -0.71789,0.02551 c -0.46051,0.01431 -0.91523,0.02279 -1.36199,0.02279 z"
       id="path2-9" />
    <path
       style="fill:#a85d5d;stroke-width:0.180875"
       d="m 88.908717,52.101629 c -3.85497,-2.498238 -9.30924,-5.267787 -16.2049,-8.229426 -11.06409,-4.750667 -22.42626,-8.515026 -23.65711,-8.919099 l -2.62955,-1.209688 -1.72536,3.447828 c 0.0875,0.04811 8.83137,4.795886 17.55277,10.250155 5.08981,3.184837 9.1707,5.980071 12.12673,8.308648 4.45078,3.507335 5.12092,5.002083 5.21696,5.327294 -0.30531,0.731818 -2.35136,3.897122 -15.90537,13.745915 -7.6982,5.595712 -15.3018,10.577899 -15.37813,10.626195 l -5.22112,3.416715 29.637,0.601771 0.54263,-0.435003 c 0.21759,-0.172552 5.38083,-4.304089 10.80688,-9.653994 7.48893,-7.387272 11.62643,-13.299336 12.29042,-17.572493 0.472444,-3.024038 -1.89593,-6.107226 -7.45185,-9.704818 z"
       id="path4-1" />
    <g
       id="g12"
       transform="matrix(0.18087444,0,0,0.18087444,22.274757,20.350748)">
      <path
         style="fill:#424953"
         d="m 427.084,447.329 c 0,5.891 -4.781,10.656 -10.672,10.656 H 75.095 c -5.89,0 -10.671,-4.766 -10.671,-10.656 v -95.34 c 0,-5.891 4.781,-10.657 10.671,-10.657 h 341.317 c 5.891,0 10.672,4.767 10.672,10.657 z"
         id="path6-5" />
      <path
         style="fill:#424953"
         d="m 405.74,501.327 c 0,5.891 -4.781,10.656 -10.655,10.656 -5.906,0 -10.671,-4.766 -10.671,-10.656 0,-5.89 4.765,-10.671 10.671,-10.671 5.874,0 10.655,4.78 10.655,10.671 z"
         id="path8-4" />
      <path
         style="fill:#424953"
         d="m 107.095,501.327 c 0,5.891 -4.781,10.656 -10.672,10.656 -5.891,0 -10.664,-4.766 -10.664,-10.656 0,-5.89 4.773,-10.671 10.664,-10.671 5.891,0 10.672,4.78 10.672,10.671 z"
         id="path10-3" />
    </g>
    <path
       style="fill:#46cead;stroke-width:0.180875"
       d="M 103.38085,89.804185 H 30.069727 c -2.12239,0 -3.26551,1.633477 -2.54075,3.625988 l 5.07986,13.969117 c 0.72495,1.99523 3.05515,3.6287 5.17735,3.6287 h 57.876385 c 2.125275,0 4.453858,-1.63329 5.177348,-3.6287 l 5.08149,-13.969117 c 0.72368,-1.992511 -0.41818,-3.625988 -2.54056,-3.625988 z"
       id="path14-5" />
    <g
       id="g20"
       transform="matrix(0.18087444,0,0,0.18087444,22.274757,20.350748)">
      <path
         style="fill:#9ed36a"
         d="m 468.458,65.889 c -0.5,-13.031 -1.5,-14.031 -15.813,-24.046 C 438.333,31.827 362.273,29.077 344.196,25.327 326.119,21.562 336.665,-6.218 286.964,1.281 237.254,8.797 153.663,10.297 112.243,5.797 70.822,1.281 56.752,24.28 36.565,27.436 16.379,30.577 10.574,52.357 4.551,71.139 c -6.031,18.78 -8.289,43.561 7.531,61.592 15.812,18.03 37.976,16.53 52.498,33.046 14.522,16.53 63.686,10.53 80.044,22.921 16.352,12.39 51.709,21.405 97.146,21.405 45.444,0 44.663,-6.266 66.631,-21.405 21.983,-15.156 108.34,-46.702 122.402,-41.687 14.062,5 52.217,2.5 61.748,-9.016 9.531,-11.515 25.108,-21.53 17.327,-36.811 -7.796,-15.266 -10.296,-6.766 -28.624,-7.516 -18.327,-0.749 -12.296,-14.764 -12.796,-27.779 z"
         id="path16-2" />
      <path
         style="fill:#9ed36a"
         d="m 468.364,64.076 c -0.095,-2.094 -0.219,-3.844 -0.469,-5.359 -0.015,1.922 0.094,3.718 0.469,5.359 z"
         id="path18-6" />
    </g>
    <path
       style="fill:#8ac054;stroke-width:0.180875"
       d="m 114.24145,38.177553 c -0.73471,1.136072 -1.96122,2.167418 -2.8768,3.272561 -1.72392,2.085663 -8.62536,2.537849 -11.16864,1.630764 -2.543638,-0.904372 -18.163233,4.801493 -22.139393,7.540113 -3.97345,2.741152 -3.83219,3.871617 -12.05185,3.871617 -8.21839,0 -14.61357,-1.630764 -17.57123,-3.871617 -2.95874,-2.241216 -11.85107,-1.153075 -14.47791,-4.14311 -2.62666,-2.989855 -6.63574,-2.71583 -9.49555,-5.977177 -1.15596,-1.316766 -1.77763,-2.83159 -2.03628,-4.394526 -0.40281,2.80066 -0.0664,5.85563 2.03628,8.252216 2.85999,3.261166 6.86889,2.989854 9.49555,5.977177 2.62666,2.989854 11.51917,1.904608 14.47791,4.145823 2.95766,2.241034 9.35284,3.871617 17.57123,3.871617 8.21966,0 8.0784,-1.133359 12.05185,-3.871617 3.97616,-2.741333 19.595936,-8.447198 22.139393,-7.540113 2.54346,0.904372 9.44472,0.452186 11.16864,-1.630764 1.72391,-2.082769 4.54139,-3.894227 3.13401,-6.658169 -0.0904,-0.175087 -0.17527,-0.333352 -0.25721,-0.474795 z"
       id="path22-5" />
  </g>
</svg>
