<?xml version="1.0" encoding="UTF-8" standalone="no"?>
<!-- Uploaded to: SVG Repo, www.svgrepo.com, Generator: SVG Repo Mixer Tools -->

<svg
   fill="#000000"
   height="800px"
   width="800px"
   version="1.1"
   id="Layer_1"
   viewBox="0 0 512 512"
   xml:space="preserve"
   sodipodi:docname="backpack.svg"
   inkscape:version="1.1.2 (b8e25be833, 2022-02-05)"
   xmlns:inkscape="http://www.inkscape.org/namespaces/inkscape"
   xmlns:sodipodi="http://sodipodi.sourceforge.net/DTD/sodipodi-0.dtd"
   xmlns="http://www.w3.org/2000/svg"
   xmlns:svg="http://www.w3.org/2000/svg"><defs
   id="defs29" /><sodipodi:namedview
   id="namedview27"
   pagecolor="#ffffff"
   bordercolor="#666666"
   borderopacity="1.0"
   inkscape:pageshadow="2"
   inkscape:pageopacity="0.0"
   inkscape:pagecheckerboard="0"
   showgrid="false"
   inkscape:zoom="1.01"
   inkscape:cx="399.50495"
   inkscape:cy="400.49505"
   inkscape:window-width="1920"
   inkscape:window-height="1001"
   inkscape:window-x="-9"
   inkscape:window-y="-9"
   inkscape:window-maximized="1"
   inkscape:current-layer="Layer_1" />
<g
   id="g6"
   style="fill:#555555;fill-opacity:1">
	<g
   id="g4"
   style="fill:#555555;fill-opacity:1">
		<path
   d="M456.892,326.622C476.851,294.34,486.4,242.116,486.4,192c0-80.145-24.03-166.4-76.8-166.4    c-21.999,0-38.929,15.13-51.268,38.434c-6.417-3.226-13.065-5.828-19.96-7.851C334.464,24.619,307.806,0,275.2,0h-38.4    c-32.606,0-59.264,24.619-63.172,56.183c-6.886,2.022-13.534,4.625-19.942,7.851C141.346,40.704,124.407,25.6,102.4,25.6    c-52.77,0-76.8,86.255-76.8,166.4c0,50.142,9.523,102.434,29.491,134.716l-14.899,79.479c-5.12,27.298,1.451,54.409,18.022,74.377    C74.795,500.548,100.224,512,128,512h256c27.776,0,53.205-11.452,69.777-31.428c16.572-19.968,23.142-47.078,18.022-74.377    L456.892,326.622z M236.8,25.6h38.4c16.802,0,30.942,10.931,36.122,25.993c-1.382-0.051-2.731-0.393-4.122-0.393H204.8    c-1.391,0-2.739,0.341-4.122,0.393C205.858,36.531,219.998,25.6,236.8,25.6z M51.2,192c0-77.764,22.921-140.8,51.2-140.8    c11.102,0,21.342,9.839,29.713,26.385c-21.956,17.442-38.195,42.078-43.435,69.982L63.343,282.709    C55.799,258.21,51.2,226.628,51.2,192z M384,486.4H128c-42.24,0-70.434-33.971-62.643-75.486l48.495-258.628    C121.634,110.771,162.56,76.8,204.8,76.8h102.4c42.24,0,83.166,33.971,90.957,75.486l48.495,258.628    C454.434,452.429,426.24,486.4,384,486.4z M448.623,282.564l-25.31-134.997c-5.222-27.836-21.385-52.42-43.247-69.854    C388.429,61.286,398.541,51.2,409.6,51.2c28.279,0,51.2,63.036,51.2,140.8C460.8,226.611,456.175,258.082,448.623,282.564z"
   id="path2"
   style="fill:#555555;fill-opacity:1" />
	</g>
</g>
<g
   id="g12"
   style="fill:#555555;fill-opacity:1">
	<g
   id="g10"
   style="fill:#555555;fill-opacity:1">
		<path
   d="M372.983,156.996c-5.53-29.594-35.661-54.596-65.783-54.596H204.8c-30.123,0-60.254,25.003-65.783,54.596L128,217.6    c0,7.066,5.734,12.8,12.8,12.8c7.066,0,12.8-5.734,12.8-12.8l10.573-55.885C167.475,144.06,186.837,128,204.8,128h102.4    c17.963,0,37.325,16.06,40.627,33.715L358.4,217.6c0,7.066,5.734,12.8,12.8,12.8s12.8-5.734,12.8-12.8L372.983,156.996z"
   id="path8"
   style="fill:#555555;fill-opacity:1" />
	</g>
</g>
<g
   id="g18"
   style="fill:#555555;fill-opacity:1">
	<g
   id="g16"
   style="fill:#555555;fill-opacity:1">
		<path
   d="M332.8,281.6H179.2c-28.228,0-51.2,22.972-51.2,51.2v76.8c0,28.228,22.972,51.2,51.2,51.2h153.6    c28.228,0,51.2-22.972,51.2-51.2v-76.8C384,304.572,361.028,281.6,332.8,281.6z M358.4,409.6c0,14.14-11.46,25.6-25.6,25.6H179.2    c-14.14,0-25.6-11.46-25.6-25.6v-76.8c0-14.14,11.46-25.6,25.6-25.6h153.6c14.14,0,25.6,11.46,25.6,25.6V409.6z"
   id="path14"
   style="fill:#555555;fill-opacity:1" />
	</g>
</g>
<g
   id="g24"
   style="fill:#555555;fill-opacity:1">
	<g
   id="g22"
   style="fill:#555555;fill-opacity:1">
		<path
   d="M320,332.8H192c-7.074,0-12.8,5.726-12.8,12.8c0,7.074,5.726,12.8,12.8,12.8h76.8V384c0,7.074,5.726,12.8,12.8,12.8    c7.074,0,12.8-5.726,12.8-12.8v-25.6H320c7.074,0,12.8-5.726,12.8-12.8C332.8,338.526,327.074,332.8,320,332.8z"
   id="path20"
   style="fill:#555555;fill-opacity:1" />
	</g>
</g>
</svg>
