<?xml version="1.0" encoding="UTF-8" standalone="no"?>
<!-- Uploaded to: SVG Repo, www.svgrepo.com, Generator: SVG Repo Mixer Tools -->

<svg
   width="800px"
   height="800px"
   viewBox="0 0 24 24"
   version="1.1"
   id="svg11"
   sodipodi:docname="bondex_white.svg"
   inkscape:version="1.1.2 (b8e25be833, 2022-02-05)"
   xmlns:inkscape="http://www.inkscape.org/namespaces/inkscape"
   xmlns:sodipodi="http://sodipodi.sourceforge.net/DTD/sodipodi-0.dtd"
   xmlns="http://www.w3.org/2000/svg"
   xmlns:svg="http://www.w3.org/2000/svg">
  <sodipodi:namedview
     id="namedview13"
     pagecolor="#ffffff"
     bordercolor="#666666"
     borderopacity="1.0"
     inkscape:pageshadow="2"
     inkscape:pageopacity="0.0"
     inkscape:pagecheckerboard="0"
     showgrid="false"
     inkscape:zoom="0.71417785"
     inkscape:cx="399.76037"
     inkscape:cy="401.16058"
     inkscape:window-width="1920"
     inkscape:window-height="1001"
     inkscape:window-x="-9"
     inkscape:window-y="-9"
     inkscape:window-maximized="1"
     inkscape:current-layer="svg11" />
  <title
     id="title2">/svg/ic-folders</title>
  <desc
     id="desc4">Created with Sketch.</desc>
  <defs
     id="defs6" />
  <g
     id="Page-1"
     stroke="none"
     stroke-width="1"
     fill="none"
     fill-rule="evenodd"
     style="fill:#ffffff;fill-opacity:1"
     transform="matrix(1.0909091,0,0,1.0909091,-1.0909091,-1.6363623)">
    <g
       id="ic-folders"
       fill-rule="nonzero"
       fill="#4A4A4A"
       style="fill:#ffffff;fill-opacity:1">
      <path
         d="M 3,9.0024733 V 18.997527 C 3,19.544239 3.4447593,20 3.9933977,20 H 20.006602 C 20.555054,20 21,19.553384 21,19.002455 v -7.00491 C 21,11.446311 20.553873,11 20.003548,11 H 14.71137 L 12.049139,8 H 4.0029911 C 3.4487482,8 3,8.4488226 3,9.0024733 Z M 20.003548,9 C 21.658944,9 23,10.342243 23,11.997545 v 7.00491 C 23,20.656086 21.661499,22 20.006602,22 H 3.9933977 C 2.3362989,22 1,20.645046 1,18.997527 V 9.0024733 C 1,7.3440106 2.3444212,6 4.0029911,6 h 8.9452729 l 2.662232,3 z M 6.6363636,5.4395096 c 0,0 0,0.1152781 0,0.6729172 C 6.6363636,6.4937709 7.7366308,7.1238605 9,7 10.165603,6.8857246 12.679989,6.8876532 13.195047,7.5786145 15,10 21.363636,10.736293 21.363636,10 V 7.873005 c 0,-0.447877 -0.365013,-0.810505 -0.815279,-0.810505 H 16.218394 L 14.040205,4.625 H 7.4569927 c -0.4534714,0 -0.8206291,0.3646683 -0.8206291,0.8145096 z M 20.548357,5.4375 C 21.902772,5.4375 23,6.5280725 23,7.873005 V 12 C 23,12.456905 22,10 15,10 12.980396,9.2422821 14.10249,8.4533324 12,7.873005 9.7415877,7.24964 7.0566768,7.947622 5.7938273,7.9251489 4.9797152,7.9106613 5,7.2850984 5,7 V 5.4395096 C 5,4.0920086 6.099981,3 7.4569927,3 h 7.3188603 l 2.178189,2.4375 z"
         id="Rectangle-73"
         style="fill:#ffffff;fill-opacity:1" />
    </g>
  </g>
  <path
     id="path17293"
     style="display:inline;fill:#ffffff;fill-opacity:1;stroke:#ffffff;stroke-width:0.0861523;stroke-linecap:round;stroke-linejoin:round;stroke-miterlimit:4;stroke-dasharray:none;stroke-opacity:1"
     d="m 8.2800912,8.3804065 a 0.67916722,0.67916722 0 0 0 -0.049462,0.00188 0.67916722,0.67916722 0 0 0 -0.016295,0.00164 0.67916722,0.67916722 0 0 0 -0.034414,0.0041 0.67916722,0.67916722 0 0 0 -0.015272,0.00257 0.67916722,0.67916722 0 0 0 -0.03428,0.00669 0.67916722,0.67916722 0 0 0 -0.016473,0.0041 0.67916722,0.67916722 0 0 0 -0.031342,0.00867 0.67916722,0.67916722 0 0 0 -0.017897,0.00575 0.67916722,0.67916722 0 0 0 -0.031031,0.011255 0.67916722,0.67916722 0 0 0 -0.015226,0.0061 0.67916722,0.67916722 0 0 0 -0.032011,0.014468 0.67916722,0.67916722 0 0 0 -0.013801,0.00657 0.67916722,0.67916722 0 0 0 -0.035884,0.01972 0.67916722,0.67916722 0 0 0 -0.00748,0.00422 0.67916722,0.67916722 0 0 0 -0.083744,0.059526 0.67916722,0.67916722 0 0 0 -0.00312,0.00281 0.67916722,0.67916722 0 0 0 -0.03397,0.030636 0.67916722,0.67916722 0 0 0 -0.00819,0.00832 0.67916722,0.67916722 0 0 0 -0.026934,0.028361 0.67916722,0.67916722 0 0 0 -0.00823,0.0095 0.67916722,0.67916722 0 0 0 -0.024619,0.030366 0.67916722,0.67916722 0 0 0 -0.00681,0.009 0.67916722,0.67916722 0 0 0 -0.023105,0.03349 0.67916722,0.67916722 0 0 0 -0.00561,0.0087 0.67916722,0.67916722 0 0 0 -0.020702,0.03544 0.67916722,0.67916722 0 0 0 -0.0049,0.0089 0.67916722,0.67916722 0 0 0 -0.020435,0.04226 0.67916722,0.67916722 0 0 0 -0.00134,0.0028 0.67916722,0.67916722 0 0 0 -0.023105,0.06113 0.68171408,0.68171408 0 0 0 -0.2304817,-0.07617 0.68171408,0.68171408 0 0 0 -0.033791,-0.0039 0.68171408,0.68171408 0 0 0 -0.014336,-0.0012 0.68171408,0.68171408 0 0 0 -0.044076,-0.0018 0.67916722,0.67916722 0 0 0 -0.1490097,0.01679 0.67916722,0.67916722 0 0 0 -0.00476,0.0012 0.67916722,0.67916722 0 0 0 -0.1380131,0.04826 0.67916722,0.67916722 0 0 0 -0.00535,0.0026 0.67916722,0.67916722 0 0 0 -0.124924,0.0785 0.67916722,0.67916722 0 0 0 -0.00218,0.0016 0.67916722,0.67916722 0 0 0 -0.1869408,0.234401 0.67916722,0.67916722 0 0 0 -0.00124,0.0027 0.67916722,0.67916722 0 0 0 -0.049106,0.140328 0.67916722,0.67916722 0 0 0 -7.566e-4,0.0032 0.67916722,0.67916722 0 0 0 0.049819,0.442665 0.67916722,0.67916722 0 0 0 0.00166,0.0033 0.67916722,0.67916722 0 0 0 0.078668,0.125192 0.67916722,0.67916722 0 0 0 0.00245,0.0032 0.67916722,0.67916722 0 0 0 0.106092,0.106091 0.67916722,0.67916722 0 0 0 3.122e-4,2.67e-4 0.67916722,0.67916722 0 0 0 0.1276399,0.080179 0.67916722,0.67916722 0 0 0 0.00263,0.0012 0.67916722,0.67916722 0 0 0 0.139037,0.04866 0.67916722,0.67916722 0 0 0 0.00619,0.0014 0.67916722,0.67916722 0 0 0 0.1444241,0.01625 0.67916722,0.67916722 0 0 0 0.00601,8.9e-5 0.67916722,0.67916722 0 0 0 0.057965,-0.0023 0.67916722,0.67916722 0 0 1 -0.013534,-0.0026 0.67916722,0.67916722 0 0 0 0.5947027,-0.4644805 0.67916722,0.67916722 0 0 0 0.03397,0.0175 0.67916722,0.67916722 0 0 0 0.014291,0.0064 0.67916722,0.67916722 0 0 0 0.031075,0.01308 0.67916722,0.67916722 0 0 0 0.016695,0.0063 0.67916722,0.67916722 0 0 0 0.031477,0.01047 0.67916722,0.67916722 0 0 0 0.016607,0.0049 0.67916722,0.67916722 0 0 0 0.031654,0.008 0.67916722,0.67916722 0 0 0 0.017585,0.004 0.67916722,0.67916722 0 0 0 0.034369,0.0058 0.67916722,0.67916722 0 0 0 0.014736,0.0022 0.67916722,0.67916722 0 0 0 0.042562,0.0038 0.67916722,0.67916722 0 0 0 0.00735,5.78e-4 0.67916722,0.67916722 0 0 0 0.050131,6.68e-4 0.67916722,0.67916722 0 0 0 0.012956,-7.56e-4 0.67916722,0.67916722 0 0 0 0.024397,-0.0013 c 0.00137,0.0032 0.00292,0.0061 0.00432,0.0092 0.0043,0.0096 0.00873,0.01909 0.013312,0.02822 0.00363,0.0073 0.00736,0.01436 0.011173,0.02133 0.00472,0.0087 0.00958,0.01707 0.014558,0.02529 0.00406,0.0067 0.00819,0.0133 0.012421,0.01972 0.00532,0.0081 0.010778,0.01592 0.01634,0.0236 0.00411,0.0057 0.00826,0.01137 0.01251,0.01682 0.00586,0.0075 0.011918,0.01482 0.018031,0.02199 0.0046,0.0053 0.0092,0.01091 0.013934,0.01607 0.00608,0.0067 0.012372,0.01303 0.018655,0.01936 0.00491,0.0049 0.00975,0.0099 0.014781,0.01478 0.00706,0.0067 0.014342,0.01308 0.021637,0.01945 0.00446,0.0038 0.00885,0.008 0.013401,0.01173 0.0089,0.0074 0.017999,0.01451 0.027202,0.021499 0.0032,0.0025 0.00633,0.005 0.00957,0.0074 0.012584,0.0093 0.025417,0.01827 0.03851,0.02698 0.013488,0.0089 0.027206,0.01765 0.041181,0.02614 1.76e-5,10e-6 2.29e-5,3.4e-5 4.56e-5,4.6e-5 0.169988,0.103035 0.3738772,0.174623 0.5627812,0.335905 4.6e-5,2.3e-5 9.1e-5,6.8e-5 1.37e-4,9e-5 6.72e-4,5.75e-4 0.0013,0.0012 0.002,0.0017 0.01149,0.0098 0.02287,0.02012 0.03424,0.03066 0.0048,0.0045 0.0095,0.0089 0.01425,0.01345 0.01221,0.01173 0.02439,0.02377 0.03642,0.03641 0.0034,0.0035 0.0067,0.0073 0.0101,0.01091 0.01068,0.01149 0.02127,0.02341 0.03179,0.03571 0.003,0.0035 0.0061,0.0069 0.009,0.01058 0.0057,0.0068 0.01118,0.01416 0.01678,0.02118 a 0.76406316,0.76406316 0 0 0 -0.01981,0.0095 0.76406316,0.76406316 0 0 0 -0.01496,0.0073 0.76406316,0.76406316 0 0 0 -0.04109,0.02257 0.76406316,0.76406316 0 0 0 -0.0077,0.0044 0.76406316,0.76406316 0 0 0 -0.09483,0.0675 0.76406316,0.76406316 0 0 0 -3.56e-4,3.1e-4 0.76406316,0.76406316 0 0 0 -0.04109,0.03708 0.76406316,0.76406316 0 0 0 -0.0086,0.0087 0.76406316,0.76406316 0 0 0 -0.03068,0.03232 0.76406316,0.76406316 0 0 0 -0.0094,0.01091 0.76406316,0.76406316 0 0 0 -0.02751,0.03393 0.76406316,0.76406316 0 0 0 -0.0078,0.01047 0.76406316,0.76406316 0 0 0 -0.026,0.03753 0.76406316,0.76406316 0 0 0 -0.0061,0.0094 0.76406316,0.76406316 0 0 0 -0.024397,0.04181 0.76406316,0.76406316 0 0 0 -0.00428,0.0077 0.76406316,0.76406316 0 0 0 -0.075684,0.217703 0.76406316,0.76406316 0 0 0 -0.00129,0.008 0.76406316,0.76406316 0 0 0 -0.00689,0.04831 0.76406316,0.76406316 0 0 0 -0.00107,0.01149 0.76406316,0.76406316 0 0 0 -0.00295,0.04576 0.76406316,0.76406316 0 0 0 -2.669e-4,0.01202 0.76406316,0.76406316 0 0 0 5.792e-4,0.04617 0.76406316,0.76406316 0 0 0 5.333e-4,0.01137 0.76406316,0.76406316 0 0 0 0.00432,0.04786 0.76406316,0.76406316 0 0 0 9.802e-4,0.0088 0.76406316,0.76406316 0 0 0 0.00922,0.05459 0.76406316,0.76406316 0 0 0 2.279e-4,0.0012 0.76406316,0.76406316 0 0 0 0.055204,0.165794 0.76406316,0.76406316 0 0 0 0.00302,0.0062 0.76406316,0.76406316 0 0 0 0.022929,0.04443 0.76406316,0.76406316 0 0 0 0.00552,0.0096 0.76406316,0.76406316 0 0 0 0.02373,0.03838 0.76406316,0.76406316 0 0 0 0.0081,0.01189 0.76406316,0.76406316 0 0 0 0.02555,0.03495 0.76406316,0.76406316 0 0 0 0.0085,0.01091 0.76406316,0.76406316 0 0 0 0.02912,0.03402 0.76406316,0.76406316 0 0 0 0.0082,0.0092 0.76406316,0.76406316 0 0 0 0.03504,0.03503 0.76406316,0.76406316 0 0 0 0.0051,0.0049 0.76406316,0.76406316 0 0 0 0.09109,0.07203 0.76406316,0.76406316 0 0 0 0.0026,0.0016 0.76406316,0.76406316 0 0 0 0.04501,0.02777 0.76406316,0.76406316 0 0 0 0.01238,0.0067 0.76406316,0.76406316 0 0 0 0.03735,0.01928 0.76406316,0.76406316 0 0 0 0.01598,0.0073 0.76406316,0.76406316 0 0 0 0.03651,0.0154 0.76406316,0.76406316 0 0 0 0.01647,0.0062 0.76406316,0.76406316 0 0 0 0.03642,0.0122 0.76406316,0.76406316 0 0 0 0.01914,0.0057 0.76406316,0.76406316 0 0 0 0.03473,0.0087 0.76406316,0.76406316 0 0 0 0.02079,0.0047 0.76406316,0.76406316 0 0 0 0.03593,0.0061 0.76406316,0.76406316 0 0 0 0.01945,0.0029 0.76406316,0.76406316 0 0 0 0.04483,0.004 0.76406316,0.76406316 0 0 0 0.01091,9.12e-4 0.76406316,0.76406316 0 0 0 0.05601,7.12e-4 0.76406316,0.76406316 0 0 0 0.0162,-9.12e-4 0.76406316,0.76406316 0 0 0 0.03419,-0.0019 0.76406316,0.76406316 0 0 1 -0.0012,-2.28e-4 0.76406316,0.76406316 0 0 0 0.250383,-0.06616 c -0.0045,0.01137 -0.0084,0.02257 -0.01357,0.03419 -0.01726,0.03947 -0.03837,0.08048 -0.06367,0.12341 -0.01265,0.02147 -0.02633,0.04338 -0.04109,0.06585 -8e-6,1.1e-5 6e-6,2.3e-5 0,4.5e-5 -0.01476,0.02244 -0.0306,0.04538 -0.04754,0.06891 -7e-6,10e-6 7e-6,4.5e-5 0,4.5e-5 -0.01694,0.02353 -0.03502,0.0476 -0.05423,0.07231 -0.05765,0.07414 -0.125638,0.153698 -0.20497,0.239875 -0.02103,0.02285 -0.0465,0.04609 -0.076,0.06972 -0.0098,0.0079 -0.02014,0.01582 -0.03085,0.02378 -0.01131,0.0084 -0.02434,0.017 -0.0366,0.02552 a 0.76406316,0.76406316 0 0 0 0.0215,-0.179372 0.76692833,0.76692833 0 0 0 -0.6609494,-0.756402 0.76692833,0.76692833 0 0 0 -0.036908,-0.0043 0.76692833,0.76692833 0 0 0 -0.017541,-0.0014 0.76692833,0.76692833 0 0 0 -0.048661,-0.002 0.76406316,0.76406316 0 0 0 -0.05623,0.0022 0.76406316,0.76406316 0 0 0 -0.016116,0.0016 0.76406316,0.76406316 0 0 0 -0.039756,0.0047 0.76406316,0.76406316 0 0 0 -0.019678,0.0034 0.76406316,0.76406316 0 0 0 -0.03584,0.007 0.76406316,0.76406316 0 0 0 -0.019989,0.0048 0.76406316,0.76406316 0 0 0 -0.03535,0.0098 0.76406316,0.76406316 0 0 0 -0.018341,0.0059 0.76406316,0.76406316 0 0 0 -0.035973,0.013 0.76406316,0.76406316 0 0 0 -0.017452,0.0069 0.76406316,0.76406316 0 0 0 -0.03664,0.01661 0.76406316,0.76406316 0 0 0 -0.013934,0.0067 0.76406316,0.76406316 0 0 0 -0.042072,0.02306 0.76406316,0.76406316 0 0 0 -0.00717,0.0041 0.76406316,0.76406316 0 0 0 -0.094606,0.06728 0.76406316,0.76406316 0 0 0 -0.00191,0.0017 0.76406316,0.76406316 0 0 0 -0.017229,0.01514 0.76692833,0.76692833 0 0 0 -0.6446545,-0.619855 0.76692833,0.76692833 0 0 0 -0.041225,-0.0048 0.76692833,0.76692833 0 0 0 -0.015314,-0.0012 0.76692833,0.76692833 0 0 0 -0.049641,-0.0021 0.76406316,0.76406316 0 0 0 -0.056185,0.0022 0.76406316,0.76406316 0 0 0 -0.016295,0.0016 0.76406316,0.76406316 0 0 0 -0.039624,0.0047 0.76406316,0.76406316 0 0 0 -0.019277,0.0034 0.76406316,0.76406316 0 0 0 -0.036373,0.007 0.76406316,0.76406316 0 0 0 -0.019857,0.0048 0.76406316,0.76406316 0 0 0 -0.034993,0.0097 0.76406316,0.76406316 0 0 0 -0.019233,0.0061 0.76406316,0.76406316 0 0 0 -0.035705,0.01296 0.76406316,0.76406316 0 0 0 -0.016651,0.0065 0.76406316,0.76406316 0 0 0 -0.03664,0.01652 0.76406316,0.76406316 0 0 0 -0.015003,0.0073 0.76406316,0.76406316 0 0 0 -0.040826,0.02244 0.76406316,0.76406316 0 0 0 -0.00793,0.0045 0.76406316,0.76406316 0 0 0 -0.094516,0.06728 0.76406316,0.76406316 0 0 0 -0.00223,0.0019 0.76406316,0.76406316 0 0 0 -0.03989,0.03607 0.76406316,0.76406316 0 0 0 -0.00717,0.0073 0.76406316,0.76406316 0 0 0 -0.032054,0.03374 0.76406316,0.76406316 0 0 0 -0.00881,0.01025 0.76406316,0.76406316 0 0 0 -0.027336,0.03361 0.76406316,0.76406316 0 0 0 -0.00887,0.01184 0.76406316,0.76406316 0 0 0 -0.024708,0.03575 0.76406316,0.76406316 0 0 0 -0.00717,0.01114 0.76406316,0.76406316 0 0 0 -0.023151,0.03968 0.76406316,0.76406316 0 0 0 -0.00543,0.0098 0.76406316,0.76406316 0 0 0 -0.023105,0.04772 0.76406316,0.76406316 0 0 0 -0.00134,0.0029 0.76406316,0.76406316 0 0 0 -0.026,0.06884 0.76692833,0.76692833 0 0 0 -0.2593756,-0.0857 0.76692833,0.76692833 0 0 0 -0.03851,-0.0045 0.76692833,0.76692833 0 0 0 -0.015494,-0.0012 0.76692833,0.76692833 0 0 0 -0.049641,-0.002 0.76406316,0.76406316 0 0 0 -0.056185,0.0022 0.76406316,0.76406316 0 0 0 -0.016473,0.0016 0.76406316,0.76406316 0 0 0 -0.039578,0.0046 0.76406316,0.76406316 0 0 0 -0.018965,0.0033 0.76406316,0.76406316 0 0 0 -0.036552,0.0072 0.76406316,0.76406316 0 0 0 -0.019857,0.0048 0.76406316,0.76406316 0 0 0 -0.034993,0.0097 0.76406316,0.76406316 0 0 0 -0.019233,0.0061 0.76406316,0.76406316 0 0 0 -0.035705,0.01296 0.76406316,0.76406316 0 0 0 -0.016649,0.0065 0.76406316,0.76406316 0 0 0 -0.03664,0.01652 0.76406316,0.76406316 0 0 0 -0.015002,0.0073 0.76406316,0.76406316 0 0 0 -0.040824,0.02244 0.76406316,0.76406316 0 0 0 -0.00793,0.0045 0.76406316,0.76406316 0 0 0 -0.094516,0.06728 0.76406316,0.76406316 0 0 0 -0.00223,0.0019 0.76406316,0.76406316 0 0 0 -0.03989,0.03607 0.76406316,0.76406316 0 0 0 -0.00717,0.0073 0.76406316,0.76406316 0 0 0 -0.032188,0.03388 0.76406316,0.76406316 0 0 0 -0.00845,0.0098 0.76406316,0.76406316 0 0 0 -0.027647,0.03397 0.76406316,0.76406316 0 0 0 -0.00864,0.01149 0.76406316,0.76406316 0 0 0 -0.025155,0.03647 0.76406316,0.76406316 0 0 0 -0.00676,0.01047 0.76406316,0.76406316 0 0 0 -0.02324,0.03988 0.76406316,0.76406316 0 0 0 -0.00543,0.0098 0.76406316,0.76406316 0 0 0 -0.023105,0.04772 0.76406316,0.76406316 0 0 0 -0.00134,0.0029 0.76406316,0.76406316 0 0 0 -0.05102,0.167086 0.76406316,0.76406316 0 0 0 -8.89e-4,0.0056 0.76406316,0.76406316 0 0 0 -0.00717,0.05026 0.76406316,0.76406316 0 0 0 -9.801e-4,0.01058 0.76406316,0.76406316 0 0 0 -0.00308,0.04719 0.76406316,0.76406316 0 0 0 -2.28e-4,0.0108 0.76406316,0.76406316 0 0 0 5.791e-4,0.04734 0.76406316,0.76406316 0 0 0 4.444e-4,0.0099 0.76406316,0.76406316 0 0 0 0.00445,0.0492 0.76406316,0.76406316 0 0 0 8.891e-4,0.008 0.76406316,0.76406316 0 0 0 0.00926,0.05475 0.76406316,0.76406316 0 0 0 2.279e-4,0.0012 0.76406316,0.76406316 0 0 0 0.055116,0.16566 0.76406316,0.76406316 0 0 0 0.00338,0.0069 0.76406316,0.76406316 0 0 0 0.022305,0.04323 0.76406316,0.76406316 0 0 0 0.00637,0.01091 0.76406316,0.76406316 0 0 0 0.023462,0.03797 0.76406316,0.76406316 0 0 0 0.0074,0.01091 0.76406316,0.76406316 0 0 0 0.026312,0.03602 0.76406316,0.76406316 0 0 0 0.00802,0.01015 0.76406316,0.76406316 0 0 0 0.029784,0.03477 0.76406316,0.76406316 0 0 0 0.00735,0.0082 0.76406316,0.76406316 0 0 0 0.03575,0.03575 0.76406316,0.76406316 0 0 0 0.00464,0.0045 0.76406316,0.76406316 0 0 0 0.091311,0.07221 0.76406316,0.76406316 0 0 0 0.00107,6.66e-4 0.76406316,0.76406316 0 0 0 0.046747,0.0289 0.76406316,0.76406316 0 0 0 0.011044,0.006 0.76406316,0.76406316 0 0 0 0.038644,0.01994 0.76406316,0.76406316 0 0 0 0.015537,0.007 0.76406316,0.76406316 0 0 0 0.036373,0.01533 0.76406316,0.76406316 0 0 0 0.01714,0.0064 0.76406316,0.76406316 0 0 0 0.03566,0.01189 0.76406316,0.76406316 0 0 0 0.019767,0.0059 0.76406316,0.76406316 0 0 0 0.034235,0.0085 0.76406316,0.76406316 0 0 0 0.020925,0.0047 0.76406316,0.76406316 0 0 0 0.037843,0.0063 0.76406316,0.76406316 0 0 0 0.017051,0.0026 0.76406316,0.76406316 0 0 0 0.046612,0.0043 0.76406316,0.76406316 0 0 0 0.00975,8.35e-4 0.76406316,0.76406316 0 0 0 0.056051,7.12e-4 0.76406316,0.76406316 0 0 0 0.016205,-9.11e-4 0.76406316,0.76406316 0 0 0 0.034192,-0.0019 0.76406316,0.76406316 0 0 1 -0.0012,-2.29e-4 0.76406316,0.76406316 0 0 0 0.6589898,-0.523114 0.76406316,0.76406316 0 0 0 0.034237,0.01759 0.76406316,0.76406316 0 0 0 0.015537,0.007 0.76406316,0.76406316 0 0 0 0.036373,0.01533 0.76406316,0.76406316 0 0 0 0.017096,0.0063 0.76406316,0.76406316 0 0 0 0.036016,0.01202 0.76406316,0.76406316 0 0 0 0.019233,0.0058 0.76406316,0.76406316 0 0 0 0.034904,0.0087 0.76406316,0.76406316 0 0 0 0.020435,0.0046 0.76406316,0.76406316 0 0 0 0.036284,0.0061 0.76406316,0.76406316 0 0 0 0.019277,0.0029 0.76406316,0.76406316 0 0 0 0.045189,0.0041 0.76406316,0.76406316 0 0 0 0.010549,8.37e-4 0.76406316,0.76406316 0 0 0 0.056051,7.1e-4 0.76406316,0.76406316 0 0 0 0.016205,-9.11e-4 0.76406316,0.76406316 0 0 0 0.034192,-0.0019 0.76406316,0.76406316 0 0 1 -0.0012,-2.27e-4 0.76406316,0.76406316 0 0 0 0.4407069,-0.189967 0.76406316,0.76406316 0 0 0 0.00338,0.01831 0.76406316,0.76406316 0 0 0 2.28e-4,0.0014 0.76406316,0.76406316 0 0 0 0.055117,0.165661 0.76406316,0.76406316 0 0 0 0.0032,0.0065 0.76406316,0.76406316 0 0 0 0.022661,0.04394 0.76406316,0.76406316 0 0 0 0.00579,0.0099 0.76406316,0.76406316 0 0 0 0.023774,0.03846 0.76406316,0.76406316 0 0 0 0.0077,0.01138 0.76406316,0.76406316 0 0 0 0.025822,0.03535 0.76406316,0.76406316 0 0 0 0.00842,0.0108 0.76406316,0.76406316 0 0 0 0.029205,0.03411 0.76406316,0.76406316 0 0 0 0.00811,0.0091 0.76406316,0.76406316 0 0 0 0.034058,0.03406 0.76406316,0.76406316 0 0 0 0.00641,0.0061 0.76406316,0.76406316 0 0 0 0.09091,0.0719 0.76406316,0.76406316 0 0 0 0.00107,6.68e-4 0.76406316,0.76406316 0 0 0 0.046747,0.0289 0.76406316,0.76406316 0 0 0 0.011044,0.006 0.76406316,0.76406316 0 0 0 0.038644,0.01994 0.76406316,0.76406316 0 0 0 0.015537,0.007 0.76406316,0.76406316 0 0 0 0.015314,0.0069 c -0.00332,0.0015 -0.00673,0.0031 -0.010058,0.0045 -0.2399186,0.107237 -0.4904693,0.218839 -0.7308135,0.335058 -0.2025108,0.09792 -0.3966875,0.19899 -0.5705282,0.302827 a 0.90327121,0.90327121 0 0 0 -0.042116,-0.0048 0.90327121,0.90327121 0 0 0 -0.019634,-0.0016 0.90327121,0.90327121 0 0 0 -0.057698,-0.0024 0.89989657,0.89989657 0 0 0 -0.066245,0.0026 0.89989657,0.89989657 0 0 0 -0.01852,0.0019 0.89989657,0.89989657 0 0 0 -0.047503,0.0056 0.89989657,0.89989657 0 0 0 -0.022661,0.004 0.89989657,0.89989657 0 0 0 -0.042606,0.0083 0.89989657,0.89989657 0 0 0 -0.022884,0.0056 0.89989657,0.89989657 0 0 0 -0.042471,0.0118 0.89989657,0.89989657 0 0 0 -0.02137,0.0068 0.89989657,0.89989657 0 0 0 -0.04265,0.01546 0.89989657,0.89989657 0 0 0 -0.019723,0.0079 0.89989657,0.89989657 0 0 0 -0.043541,0.01967 0.89989657,0.89989657 0 0 0 -0.016828,0.0081 0.89989657,0.89989657 0 0 0 -0.046924,0.02578 0.89989657,0.89989657 0 0 0 -0.011267,0.0063 0.89989657,0.89989657 0 0 0 -0.1109005,0.07897 0.89989657,0.89989657 0 0 0 -0.00214,0.0019 0.89989657,0.89989657 0 0 0 -0.02039,0.01793 0.90327121,0.90327121 0 0 0 -0.7618319,-0.730311 0.90327121,0.90327121 0 0 0 -0.045544,-0.0052 0.90327121,0.90327121 0 0 0 -0.018476,-0.0015 0.90327121,0.90327121 0 0 0 -0.058499,-0.0025 0.89989657,0.89989657 0 0 0 -0.066158,0.0025 0.89989657,0.89989657 0 0 0 -0.019233,0.002 0.89989657,0.89989657 0 0 0 -0.047014,0.0056 0.89989657,0.89989657 0 0 0 -0.021591,0.0037 0.89989657,0.89989657 0 0 0 -0.04363,0.0085 0.89989657,0.89989657 0 0 0 -0.023328,0.0058 0.89989657,0.89989657 0 0 0 -0.040914,0.01137 0.89989657,0.89989657 0 0 0 -0.023462,0.0075 0.89989657,0.89989657 0 0 0 -0.040603,0.01469 0.89989657,0.89989657 0 0 0 -0.021058,0.0083 0.89989657,0.89989657 0 0 0 -0.043274,0.01959 0.89989657,0.89989657 0 0 0 -0.016649,0.008 0.89989657,0.89989657 0 0 0 -0.050086,0.02751 0.89989657,0.89989657 0 0 0 -0.00743,0.0043 0.89989657,0.89989657 0 0 0 -0.1113015,0.0792 0.89989657,0.89989657 0 0 0 -0.00419,0.0036 0.89989657,0.89989657 0 0 0 -0.045543,0.04114 0.89989657,0.89989657 0 0 0 -0.00899,0.0091 0.89989657,0.89989657 0 0 0 -0.037397,0.0394 0.89989657,0.89989657 0 0 0 -0.010015,0.01161 0.89989657,0.89989657 0 0 0 -0.033212,0.04088 0.89989657,0.89989657 0 0 0 -0.00909,0.01211 0.89989657,0.89989657 0 0 0 -0.030229,0.04377 0.89989657,0.89989657 0 0 0 -0.00783,0.01211 0.89989657,0.89989657 0 0 0 -0.028537,0.04893 0.89989657,0.89989657 0 0 0 -0.00476,0.0085 0.89989657,0.89989657 0 0 0 -0.059924,0.141708 0.90327121,0.90327121 0 0 0 -0.3050534,-0.100877 0.90327121,0.90327121 0 0 0 -0.045543,-0.0052 0.90327121,0.90327121 0 0 0 -0.018476,-0.0015 0.90327121,0.90327121 0 0 0 -0.058499,-0.0025 0.89989657,0.89989657 0 0 0 -0.065578,0.0025 0.89989657,0.89989657 0 0 0 -0.021637,0.0022 0.89989657,0.89989657 0 0 0 -0.045099,0.0052 0.89989657,0.89989657 0 0 0 -0.021591,0.0037 0.89989657,0.89989657 0 0 0 -0.044342,0.0087 0.89989657,0.89989657 0 0 0 -0.021592,0.0052 0.89989657,0.89989657 0 0 0 -0.043052,0.01193 0.89989657,0.89989657 0 0 0 -0.021548,0.0069 0.89989657,0.89989657 0 0 0 -0.041938,0.01513 0.89989657,0.89989657 0 0 0 -0.02039,0.0081 0.89989657,0.89989657 0 0 0 -0.043853,0.01986 0.89989657,0.89989657 0 0 0 -0.01625,0.0077 0.89989657,0.89989657 0 0 0 -0.048838,0.0268 0.89989657,0.89989657 0 0 0 -0.00904,0.005 0.89989657,0.89989657 0 0 0 -0.111345,0.07929 0.89989657,0.89989657 0 0 0 -0.00214,0.0019 0.89989657,0.89989657 0 0 0 -0.047236,0.04261 0.89989657,0.89989657 0 0 0 -0.00931,0.0094 0.89989657,0.89989657 0 0 0 -0.037041,0.03901 0.89989657,0.89989657 0 0 0 -0.0102,0.01179 0.89989657,0.89989657 0 0 0 -0.033078,0.04069 0.89989657,0.89989657 0 0 0 -0.00909,0.01215 0.89989657,0.89989657 0 0 0 -0.030229,0.04377 0.89989657,0.89989657 0 0 0 -0.00788,0.01216 0.89989657,0.89989657 0 0 0 -0.027736,0.04755 0.89989657,0.89989657 0 0 0 -0.00587,0.01058 0.89989657,0.89989657 0 0 0 -0.028047,0.05797 0.89989657,0.89989657 0 0 0 -7.978e-4,0.0016 0.89989657,0.89989657 0 0 0 -0.060101,0.19638 0.89989657,0.89989657 0 0 0 -0.00143,0.0088 0.89989657,0.89989657 0 0 0 -0.00825,0.05809 0.89989657,0.89989657 0 0 0 -0.00107,0.01137 0.89989657,0.89989657 0 0 0 -0.00364,0.05641 0.89989657,0.89989657 0 0 0 -2.671e-4,0.01228 0.89989657,0.89989657 0 0 0 7.123e-4,0.05573 0.89989657,0.89989657 0 0 0 5.344e-4,0.01243 0.89989657,0.89989657 0 0 0 0.00516,0.05715 0.89989657,0.89989657 0 0 0 0.00111,0.0099 0.89989657,0.89989657 0 0 0 0.010778,0.06375 0.89989657,0.89989657 0 0 0 4.007e-4,0.0022 0.89989657,0.89989657 0 0 0 0.06491,0.19491 0.89989657,0.89989657 0 0 0 0.00383,0.0077 0.89989657,0.89989657 0 0 0 0.026757,0.05187 0.89989657,0.89989657 0 0 0 0.00655,0.01126 0.89989657,0.89989657 0 0 0 0.028492,0.04608 0.89989657,0.89989657 0 0 0 0.00823,0.0122 0.89989657,0.89989657 0 0 0 0.031431,0.043 0.89989657,0.89989657 0 0 0 0.00904,0.01161 0.89989657,0.89989657 0 0 0 0.034726,0.04056 0.89989657,0.89989657 0 0 0 0.00961,0.01069 0.89989657,0.89989657 0 0 0 0.041627,0.04159 0.89989657,0.89989657 0 0 0 0.00548,0.0052 0.89989657,0.89989657 0 0 0 0.1072494,0.08489 0.89989657,0.89989657 0 0 0 0.00405,0.0026 0.89989657,0.89989657 0 0 0 0.052223,0.03224 0.89989657,0.89989657 0 0 0 0.014246,0.0077 0.89989657,0.89989657 0 0 0 0.044832,0.02311 0.89989657,0.89989657 0 0 0 0.01763,0.008 0.89989657,0.89989657 0 0 0 0.043274,0.01825 0.89989657,0.89989657 0 0 0 0.02039,0.0076 0.89989657,0.89989657 0 0 0 0.042249,0.01411 0.89989657,0.89989657 0 0 0 0.022305,0.0065 0.89989657,0.89989657 0 0 0 0.042206,0.01058 0.89989657,0.89989657 0 0 0 0.022749,0.005 0.89989657,0.89989657 0 0 0 0.045054,0.0076 0.89989657,0.89989657 0 0 0 0.020479,0.0032 0.89989657,0.89989657 0 0 0 0.051821,0.0047 0.89989657,0.89989657 0 0 0 0.014603,0.0012 0.89989657,0.89989657 0 0 0 0.065445,8.36e-4 0.89989657,0.89989657 0 0 0 0.020702,-0.0011 0.89989657,0.89989657 0 0 0 0.038866,-0.0021 0.89989657,0.89989657 0 0 1 -0.00143,-2.66e-4 0.89989657,0.89989657 0 0 0 0.7761675,-0.616073 0.89989657,0.89989657 0 0 0 0.04038,0.02071 0.89989657,0.89989657 0 0 0 0.017896,0.0081 0.89989657,0.89989657 0 0 0 0.043185,0.01821 0.89989657,0.89989657 0 0 0 0.020345,0.0076 0.89989657,0.89989657 0 0 0 0.04225,0.01412 0.89989657,0.89989657 0 0 0 0.02226,0.0065 0.89989657,0.89989657 0 0 0 0.042562,0.01058 0.89989657,0.89989657 0 0 0 0.022305,0.005 0.89989657,0.89989657 0 0 0 0.045321,0.0076 0.89989657,0.89989657 0 0 0 0.020346,0.0032 0.89989657,0.89989657 0 0 0 0.051466,0.0047 0.89989657,0.89989657 0 0 0 0.015002,0.0012 0.89989657,0.89989657 0 0 0 0.0654,8.37e-4 0.89989657,0.89989657 0 0 0 0.020791,-0.0011 0.89989657,0.89989657 0 0 0 0.038777,-0.0021 0.89989657,0.89989657 0 0 1 -0.00142,-2.66e-4 0.89989657,0.89989657 0 0 0 0.5190625,-0.223715 0.89989657,0.89989657 0 0 0 0.00396,0.02146 0.89989657,0.89989657 0 0 0 3.123e-4,0.0016 0.89989657,0.89989657 0 0 0 0.065,0.195311 0.89989657,0.89989657 0 0 0 0.00343,0.0069 0.89989657,0.89989657 0 0 0 0.027069,0.05244 0.89989657,0.89989657 0 0 0 0.00655,0.01126 0.89989657,0.89989657 0 0 0 0.028492,0.04608 0.89989657,0.89989657 0 0 0 0.00825,0.0122 0.89989657,0.89989657 0 0 0 0.031431,0.043 0.89989657,0.89989657 0 0 0 0.00904,0.01161 0.89989657,0.89989657 0 0 0 0.034726,0.04055 0.89989657,0.89989657 0 0 0 0.00961,0.01069 0.89989657,0.89989657 0 0 0 0.040291,0.0403 0.89989657,0.89989657 0 0 0 0.00721,0.007 0.89989657,0.89989657 0 0 0 0.097945,0.07845 c 0.00176,0.0032 0.00338,0.0063 0.00517,0.0096 6.4e-6,1.1e-5 -6.4e-6,2.3e-5 0,4.6e-5 0.010451,0.01836 0.021414,0.03649 0.032768,0.0544 0.011361,0.01793 0.023147,0.03565 0.03535,0.0532 0.024392,0.03508 0.050352,0.06947 0.077643,0.103331 0.013646,0.01694 0.027634,0.03373 0.041894,0.05045 0.014268,0.01672 0.028821,0.03334 0.04363,0.0499 0.029604,0.03311 0.060209,0.06591 0.091534,0.0987 0.062655,0.06557 0.1281133,0.130964 0.1941086,0.197981 0.032993,0.03351 0.066116,0.06742 0.099058,0.101957 0.065894,0.06908 0.1310707,0.140671 0.1932182,0.216591 0.018763,0.02292 0.036801,0.04549 0.054136,0.06772 0.017336,0.02223 0.033989,0.04409 0.049952,0.06562 0.015971,0.02153 0.031249,0.04273 0.0459,0.06357 0.029289,0.04165 0.055975,0.08192 0.080315,0.120782 0.01217,0.01944 0.023756,0.03853 0.03477,0.05725 0.01101,0.01873 0.021474,0.03708 0.031388,0.05511 5.9e-6,10e-6 -6.2e-6,2.3e-5 0,4.6e-5 0.00991,0.01801 0.019277,0.03566 0.028137,0.05299 0.026603,0.05198 0.048587,0.100822 0.066735,0.146429 H 6.2634092 5.6575318 V 17.28747 H 5.247544 c -0.7598695,0.574268 -0.6266979,1.148314 0.1336055,1.722582 h 0.6054766 5.4860189 c 0.673804,-0.574268 0.807458,-1.148314 0.133649,-1.722582 H 11.131886 V 17.041583 H 9.884916 C 9.721054,16.914422 9.518524,16.824778 9.221741,16.390144 8.8697816,15.874704 8.0349013,15.684485 7.6001323,15.347522 a 0.89989657,0.89989657 0 0 0 0.2403206,-0.61131 0.90327121,0.90327121 0 0 0 -0.1056022,-0.419204 c 0.2436611,-0.245067 0.583988,-0.504708 0.9862145,-0.586287 0.044593,-0.0091 0.088347,-0.02024 0.131335,-0.03326 a 0.89989657,0.89989657 0 0 0 -0.018297,0.07973 0.89989657,0.89989657 0 0 0 -9.802e-4,0.006 0.89989657,0.89989657 0 0 0 -0.0086,0.06005 0.89989657,0.89989657 0 0 0 -0.00111,0.01216 0.89989657,0.89989657 0 0 0 -0.00357,0.05503 0.89989657,0.89989657 0 0 0 -3.122e-4,0.01348 0.89989657,0.89989657 0 0 0 7.113e-4,0.05525 0.89989657,0.89989657 0 0 0 5.333e-4,0.01243 0.89989657,0.89989657 0 0 0 0.00517,0.05734 0.89989657,0.89989657 0 0 0 0.00111,0.0096 0.89989657,0.89989657 0 0 0 0.010778,0.06388 0.89989657,0.89989657 0 0 0 4.011e-4,0.0022 0.89989657,0.89989657 0 0 0 0.064865,0.194822 0.89989657,0.89989657 0 0 0 0.00419,0.0085 0.89989657,0.89989657 0 0 0 0.026179,0.05076 0.89989657,0.89989657 0 0 0 0.00717,0.01234 0.89989657,0.89989657 0 0 0 0.027959,0.04523 0.89989657,0.89989657 0 0 0 0.00877,0.01296 0.89989657,0.89989657 0 0 0 0.030496,0.04172 0.89989657,0.89989657 0 0 0 0.01001,0.01286 0.89989657,0.89989657 0 0 0 0.03468,0.04047 0.89989657,0.89989657 0 0 0 0.009,0.0099 0.89989657,0.89989657 0 0 0 0.04198,0.04198 0.89989657,0.89989657 0 0 0 0.0054,0.0052 0.89989657,0.89989657 0 0 0 0.107428,0.08499 0.89989657,0.89989657 0 0 0 0.0025,0.0016 0.89989657,0.89989657 0 0 0 0.05405,0.03342 0.89989657,0.89989657 0 0 0 0.01282,0.0069 0.89989657,0.89989657 0 0 0 0.04568,0.02355 0.89989657,0.89989657 0 0 0 0.0179,0.0081 0.89989657,0.89989657 0 0 0 0.04318,0.01821 0.89989657,0.89989657 0 0 0 0.02034,0.0076 0.89989657,0.89989657 0 0 0 0.04225,0.01412 0.89989657,0.89989657 0 0 0 0.02226,0.0065 0.89989657,0.89989657 0 0 0 0.04256,0.01058 0.89989657,0.89989657 0 0 0 0.02231,0.005 0.89989657,0.89989657 0 0 0 0.04532,0.0076 0.89989657,0.89989657 0 0 0 0.02031,0.0032 0.89989657,0.89989657 0 0 0 0.05618,0.005 0.89989657,0.89989657 0 0 0 0.0097,8.37e-4 0.89989657,0.89989657 0 0 0 0.06602,9.12e-4 0.89989657,0.89989657 0 0 0 0.02079,-0.0011 0.89989657,0.89989657 0 0 0 0.03877,-0.0021 0.89989657,0.89989657 0 0 1 -0.0014,-2.66e-4 0.89989657,0.89989657 0 0 0 0.7761665,-0.616117 0.89989657,0.89989657 0 0 0 0.0402,0.02066 0.89989657,0.89989657 0 0 0 0.01887,0.0085 0.89989657,0.89989657 0 0 0 0.04144,0.01754 0.89989657,0.89989657 0 0 0 0.02244,0.0083 0.89989657,0.89989657 0 0 0 0.04033,0.01345 0.89989657,0.89989657 0 0 0 0.02328,0.0069 0.89989657,0.89989657 0 0 0 0.04229,0.01058 0.89989657,0.89989657 0 0 0 0.0223,0.005 0.89989657,0.89989657 0 0 0 0.04533,0.0076 0.89989657,0.89989657 0 0 0 0.02031,0.0032 0.89989657,0.89989657 0 0 0 0.05618,0.005 0.89989657,0.89989657 0 0 0 0.0097,8.36e-4 0.89989657,0.89989657 0 0 0 0.06669,8.35e-4 0.89989657,0.89989657 0 0 0 0.01625,-9.11e-4 0.89989657,0.89989657 0 0 0 0.04269,-0.0024 0.89989657,0.89989657 0 0 1 -0.0014,-2.67e-4 0.89989657,0.89989657 0 0 0 0.519063,-0.223713 0.89989657,0.89989657 0 0 0 0.0038,0.02105 0.89989657,0.89989657 0 0 0 4.03e-4,0.0022 0.89989657,0.89989657 0 0 0 0.06491,0.194911 0.89989657,0.89989657 0 0 0 0.0037,0.0077 0.89989657,0.89989657 0 0 0 0.02675,0.05187 0.89989657,0.89989657 0 0 0 0.0065,0.01126 0.89989657,0.89989657 0 0 0 0.02831,0.04581 0.89989657,0.89989657 0 0 0 0.0088,0.01296 0.89989657,0.89989657 0 0 0 0.03072,0.04202 0.89989657,0.89989657 0 0 0 0.0096,0.01228 0.89989657,0.89989657 0 0 0 0.03455,0.04037 0.89989657,0.89989657 0 0 0 0.0096,0.01069 0.89989657,0.89989657 0 0 0 0.04162,0.04159 0.89989657,0.89989657 0 0 0 0.0056,0.0052 0.89989657,0.89989657 0 0 0 0.106985,0.08468 0.89989657,0.89989657 0 0 0 0.0058,0.0036 0.89989657,0.89989657 0 0 0 0.05138,0.0317 0.89989657,0.89989657 0 0 0 0.01202,0.0065 0.89989657,0.89989657 0 0 0 0.04692,0.02421 0.89989657,0.89989657 0 0 0 0.01675,0.0076 0.89989657,0.89989657 0 0 0 0.04381,0.01848 0.89989657,0.89989657 0 0 0 0.02036,0.0076 0.89989657,0.89989657 0 0 0 0.04224,0.01412 0.89989657,0.89989657 0 0 0 0.02227,0.0065 0.89989657,0.89989657 0 0 0 0.04256,0.01058 0.89989657,0.89989657 0 0 0 0.02231,0.005 0.89989657,0.89989657 0 0 0 0.04533,0.0076 0.89989657,0.89989657 0 0 0 0.02036,0.0032 0.89989657,0.89989657 0 0 0 0.05147,0.0047 0.89989657,0.89989657 0 0 0 0.01501,0.0012 0.89989657,0.89989657 0 0 0 0.0654,8.35e-4 0.89989657,0.89989657 0 0 0 0.02078,-0.0011 0.89989657,0.89989657 0 0 0 0.03877,-0.0021 0.89989657,0.89989657 0 0 1 -0.0014,-2.68e-4 0.89989657,0.89989657 0 0 0 0.821044,-0.896016 0.90327121,0.90327121 0 0 0 -0.777369,-0.890719 0.90327121,0.90327121 0 0 0 -0.04555,-0.0052 0.90327121,0.90327121 0 0 0 -0.01848,-0.0015 0.90327121,0.90327121 0 0 0 -0.05849,-0.0025 0.89989657,0.89989657 0 0 0 -0.06616,0.0025 0.89989657,0.89989657 0 0 0 -0.01923,0.002 0.89989657,0.89989657 0 0 0 -0.04702,0.0056 0.89989657,0.89989657 0 0 0 -0.02115,0.0036 0.89989657,0.89989657 0 0 0 -0.04487,0.0088 0.89989657,0.89989657 0 0 0 -0.0211,0.0051 0.89989657,0.89989657 0 0 0 -0.04341,0.01202 0.89989657,0.89989657 0 0 0 -0.0215,0.0069 0.89989657,0.89989657 0 0 0 -0.04172,0.01509 0.89989657,0.89989657 0 0 0 -0.02084,0.0082 0.89989657,0.89989657 0 0 0 -0.04328,0.01959 0.89989657,0.89989657 0 0 0 -0.01665,0.008 0.89989657,0.89989657 0 0 0 -0.05008,0.02751 0.89989657,0.89989657 0 0 0 -0.0075,0.0043 0.89989657,0.89989657 0 0 0 -0.111347,0.0792 0.89989657,0.89989657 0 0 0 -0.0037,0.0034 0.89989657,0.89989657 0 0 0 -0.019,0.01675 0.90327121,0.90327121 0 0 0 -0.76103,-0.730266 0.90327121,0.90327121 0 0 0 -0.04724,-0.0056 0.90327121,0.90327121 0 0 0 -0.01719,-0.0014 0.90327121,0.90327121 0 0 0 -0.05891,-0.0025 0.89989657,0.89989657 0 0 0 -0.06616,0.0025 0.89989657,0.89989657 0 0 0 -0.01936,0.002 0.89989657,0.89989657 0 0 0 -0.0467,0.0056 0.89989657,0.89989657 0 0 0 -0.02208,0.0037 0.89989657,0.89989657 0 0 0 -0.04319,0.0084 0.89989657,0.89989657 0 0 0 -0.0236,0.0058 0.89989657,0.89989657 0 0 0 -0.04078,0.01126 0.89989657,0.89989657 0 0 0 -0.02337,0.0075 0.89989657,0.89989657 0 0 0 -0.04105,0.01491 0.89989657,0.89989657 0 0 0 -0.02039,0.0081 0.89989657,0.89989657 0 0 0 -0.0442,0.02 0.89989657,0.89989657 0 0 0 -0.01576,0.0076 0.89989657,0.89989657 0 0 0 -0.04956,0.0272 0.89989657,0.89989657 0 0 0 -0.0084,0.0048 0.89989657,0.89989657 0 0 0 -0.111477,0.07934 0.89989657,0.89989657 0 0 0 -0.0019,0.0016 0.89989657,0.89989657 0 0 0 -0.04746,0.04279 0.89989657,0.89989657 0 0 0 -0.0093,0.0094 0.89989657,0.89989657 0 0 0 -0.03699,0.03896 0.89989657,0.89989657 0 0 0 -0.01058,0.01224 0.89989657,0.89989657 0 0 0 -0.03223,0.03967 0.89989657,0.89989657 0 0 0 -0.01025,0.01362 0.89989657,0.89989657 0 0 0 -0.02933,0.04244 0.89989657,0.89989657 0 0 0 -0.0083,0.01286 0.89989657,0.89989657 0 0 0 -0.02796,0.0479 0.89989657,0.89989657 0 0 0 -0.0052,0.0097 0.89989657,0.89989657 0 0 0 -0.0284,0.05871 0.89989657,0.89989657 0 0 0 -5.8e-4,0.0012 0.89989657,0.89989657 0 0 0 -0.03081,0.08147 0.90327121,0.90327121 0 0 0 -0.3050525,-0.100887 0.90327121,0.90327121 0 0 0 -0.04007,-0.0048 c 0.3230785,-0.352427 0.5398285,-0.725144 0.6456335,-0.833821 0.138669,-0.142434 0.05996,-0.385425 -0.08548,-0.641094 a 0.76406316,0.76406316 0 0 0 0.02782,-0.07145 0.76406316,0.76406316 0 0 0 0.03393,0.01745 0.76406316,0.76406316 0 0 0 0.01598,0.0073 0.76406316,0.76406316 0 0 0 0.03651,0.0154 0.76406316,0.76406316 0 0 0 0.01647,0.0061 0.76406316,0.76406316 0 0 0 0.03641,0.0122 0.76406316,0.76406316 0 0 0 0.01914,0.0057 0.76406316,0.76406316 0 0 0 0.03548,0.0089 0.76406316,0.76406316 0 0 0 0.01932,0.0044 0.76406316,0.76406316 0 0 0 0.03783,0.0063 0.76406316,0.76406316 0 0 0 0.01816,0.0027 0.76406316,0.76406316 0 0 0 0.04491,0.004 0.76406316,0.76406316 0 0 0 0.01091,9.12e-4 0.76406316,0.76406316 0 0 0 0.05605,7.11e-4 0.76406316,0.76406316 0 0 0 0.01612,-9.12e-4 0.76406316,0.76406316 0 0 0 0.03429,-0.0019 0.76406316,0.76406316 0 0 1 -0.0012,-2.28e-4 0.76406316,0.76406316 0 0 0 0.440661,-0.189967 0.76406316,0.76406316 0 0 0 0.0034,0.01831 0.76406316,0.76406316 0 0 0 2.29e-4,0.0014 0.76406316,0.76406316 0 0 0 0.05521,0.165748 0.76406316,0.76406316 0 0 0 0.0029,0.0059 0.76406316,0.76406316 0 0 0 0.0232,0.04501 0.76406316,0.76406316 0 0 0 0.0052,0.0089 0.76406316,0.76406316 0 0 0 0.02364,0.03829 0.76406316,0.76406316 0 0 0 0.0087,0.01286 0.76406316,0.76406316 0 0 0 0.02483,0.03402 0.76406316,0.76406316 0 0 0 0.0089,0.01149 0.76406316,0.76406316 0 0 0 0.02858,0.03339 0.76406316,0.76406316 0 0 0 0.0089,0.0098 0.76406316,0.76406316 0 0 0 0.03464,0.03459 0.76406316,0.76406316 0 0 0 0.0052,0.005 0.76406316,0.76406316 0 0 0 0.13877,0.101553 0.76406316,0.76406316 0 0 0 0.01234,0.0067 0.76406316,0.76406316 0 0 0 0.03735,0.01928 0.76406316,0.76406316 0 0 0 0.01598,0.0073 0.76406316,0.76406316 0 0 0 0.03624,0.01532 0.76406316,0.76406316 0 0 0 0.01728,0.0063 0.76406316,0.76406316 0 0 0 0.03611,0.01207 0.76406316,0.76406316 0 0 0 0.01821,0.0053 0.76406316,0.76406316 0 0 0 0.03713,0.0093 0.76406316,0.76406316 0 0 0 0.01825,0.0041 0.76406316,0.76406316 0 0 0 0.03949,0.0067 0.76406316,0.76406316 0 0 0 0.01603,0.0025 0.76406316,0.76406316 0 0 0 0.05138,0.0047 0.76406316,0.76406316 0 0 0 0.0045,3.57e-4 0.76406316,0.76406316 0 0 0 0.05601,7.56e-4 0.76406316,0.76406316 0 0 0 0.02026,-0.0011 0.76406316,0.76406316 0 0 0 0.03076,-0.0016 0.76406316,0.76406316 0 0 1 -0.0012,-2.28e-4 0.76406316,0.76406316 0 0 0 0.697144,-0.760764 0.76692833,0.76692833 0 0 0 -0.661082,-0.7564 0.76692833,0.76692833 0 0 0 -0.03669,-0.0043 0.76692833,0.76692833 0 0 0 -0.01772,-0.0014 0.76692833,0.76692833 0 0 0 -0.04858,-0.002 0.76406316,0.76406316 0 0 0 -0.05628,0.0022 0.76406316,0.76406316 0 0 0 -0.01625,0.0016 0.76406316,0.76406316 0 0 0 -0.03954,0.0046 0.76406316,0.76406316 0 0 0 -0.0198,0.0035 0.76406316,0.76406316 0 0 0 -0.03593,0.007 0.76406316,0.76406316 0 0 0 -0.01977,0.0048 0.76406316,0.76406316 0 0 0 -0.03513,0.0097 0.76406316,0.76406316 0 0 0 -0.01896,0.006 0.76406316,0.76406316 0 0 0 -0.03534,0.01283 0.76406316,0.76406316 0 0 0 -0.01782,0.007 0.76406316,0.76406316 0 0 0 -0.03659,0.01656 0.76406316,0.76406316 0 0 0 -0.01394,0.0067 0.76406316,0.76406316 0 0 0 -0.04225,0.02324 0.76406316,0.76406316 0 0 0 -0.0069,0.0038 0.76406316,0.76406316 0 0 0 -0.09495,0.06758 0.76406316,0.76406316 0 0 0 -4.6e-5,4.6e-5 0.76406316,0.76406316 0 0 0 -0.0188,0.01652 0.76692833,0.76692833 0 0 0 -0.644744,-0.619812 0.76692833,0.76692833 0 0 0 -0.04105,-0.0048 0.76692833,0.76692833 0 0 0 -0.01549,-0.0013 0.76692833,0.76692833 0 0 0 -0.04956,-0.002 0.76406316,0.76406316 0 0 0 -0.05618,0.0022 0.76406316,0.76406316 0 0 0 -0.01647,0.0016 0.76406316,0.76406316 0 0 0 -0.03958,0.0046 0.76406316,0.76406316 0 0 0 -0.01897,0.0033 0.76406316,0.76406316 0 0 0 -0.03656,0.0072 0.76406316,0.76406316 0 0 0 -0.01994,0.0049 0.76406316,0.76406316 0 0 0 -0.03468,0.0096 0.76406316,0.76406316 0 0 0 -0.0198,0.0063 0.76406316,0.76406316 0 0 0 -0.03508,0.01273 0.76406316,0.76406316 0 0 0 -0.017,0.0067 0.76406316,0.76406316 0 0 0 -0.03718,0.01682 0.76406316,0.76406316 0 0 0 -0.01407,0.0067 0.76406316,0.76406316 0 0 0 -0.04154,0.02284 0.76406316,0.76406316 0 0 0 -0.0074,0.0043 0.76406316,0.76406316 0 0 0 -0.09456,0.06728 0.76406316,0.76406316 0 0 0 -0.0022,0.002 0.76406316,0.76406316 0 0 0 -0.03949,0.03562 0.76406316,0.76406316 0 0 0 -0.0084,0.0085 0.76406316,0.76406316 0 0 0 -0.03124,0.0329 0.76406316,0.76406316 0 0 0 -0.0083,0.0097 0.76406316,0.76406316 0 0 0 -0.02827,0.03478 0.76406316,0.76406316 0 0 0 -0.0077,0.01036 0.76406316,0.76406316 0 0 0 -0.02601,0.03753 0.76406316,0.76406316 0 0 0 -0.0061,0.0094 0.76406316,0.76406316 0 0 0 -0.0244,0.04181 0.76406316,0.76406316 0 0 0 -0.0043,0.0077 0.76406316,0.76406316 0 0 0 -0.05087,0.119988 0.76692833,0.76692833 0 0 0 -0.2594195,-0.08576 0.76692833,0.76692833 0 0 0 -0.03411,-0.0041 C 9.58293,10.323501 9.369238,10.207048 9.13658,10.071549 a 0.67916722,0.67916722 0 0 0 0.01634,0.0063 0.67916722,0.67916722 0 0 0 0.01554,0.0058 0.67916722,0.67916722 0 0 0 0.03139,0.01058 0.67916722,0.67916722 0 0 0 0.01692,0.005 0.67916722,0.67916722 0 0 0 0.03263,0.0081 0.67916722,0.67916722 0 0 0 0.01647,0.0036 0.67916722,0.67916722 0 0 0 0.03268,0.0056 0.67916722,0.67916722 0 0 0 0.01732,0.0027 0.67916722,0.67916722 0 0 0 0.03669,0.0033 0.67916722,0.67916722 0 0 0 0.01313,0.0011 0.67916722,0.67916722 0 0 0 0.04955,6.67e-4 0.67916722,0.67916722 0 0 0 0.013,-7.56e-4 0.67916722,0.67916722 0 0 0 0.03165,-0.0017 0.67916722,0.67916722 0 0 1 -0.0012,-2.24e-4 0.67916722,0.67916722 0 0 0 0.619724,-0.676218 0.68171408,0.68171408 0 0 0 -0.58709,-0.672303 0.68171408,0.68171408 0 0 0 -0.03357,-0.0039 0.68171408,0.68171408 0 0 0 -0.0146,-0.0012 0.68171408,0.68171408 0 0 0 -0.0439,-0.0019 0.67916722,0.67916722 0 0 0 -0.05009,0.002 0.67916722,0.67916722 0 0 0 -0.01411,0.0014 0.67916722,0.67916722 0 0 0 -0.03535,0.0041 0.67916722,0.67916722 0 0 0 -0.01776,0.003 0.67916722,0.67916722 0 0 0 -0.03134,0.0061 0.67916722,0.67916722 0 0 0 -0.01874,0.0046 0.67916722,0.67916722 0 0 0 -0.03018,0.0083 0.67916722,0.67916722 0 0 0 -0.01772,0.0056 0.67916722,0.67916722 0 0 0 -0.0305,0.01102 0.67916722,0.67916722 0 0 0 -0.01616,0.0064 0.67916722,0.67916722 0 0 0 -0.0329,0.01491 0.67916722,0.67916722 0 0 0 -0.01202,0.0058 0.67916722,0.67916722 0 0 0 -0.03784,0.02074 0.67916722,0.67916722 0 0 0 -0.0059,0.0033 0.67916722,0.67916722 0 0 0 -0.083922,0.0597 0.67916722,0.67916722 0 0 0 -0.00289,0.0026 0.67916722,0.67916722 0 0 0 -0.01438,0.01264 0.68171408,0.68171408 0 0 0 -0.5752027,-0.5512055 0.68171408,0.68171408 0 0 0 -0.033658,-0.00387 0.68171408,0.68171408 0 0 0 -0.015314,-0.00129 0.68171408,0.68171408 0 0 0 -0.043229,-0.00176 z M 8.7313495,9.566962 a 0.67916722,0.67916722 0 0 0 0.00312,0.01701 0.67916722,0.67916722 0 0 0 4.54e-5,2.68e-4 0.67916722,0.67916722 0 0 0 0.048751,0.146872 0.67916722,0.67916722 0 0 0 0.00401,0.0081 0.67916722,0.67916722 0 0 0 0.0191,0.03699 0.67916722,0.67916722 0 0 0 0.00555,0.0096 0.67916722,0.67916722 0 0 0 0.020702,0.03348 0.67916722,0.67916722 0 0 0 0.00721,0.01069 0.67916722,0.67916722 0 0 0 0.022438,0.03067 0.67916722,0.67916722 0 0 0 0.00801,0.01025 0.67916722,0.67916722 0 0 0 0.025777,0.03004 0.67916722,0.67916722 0 0 0 0.00712,0.008 0.67916722,0.67916722 0 0 0 0.03152,0.03152 0.67916722,0.67916722 0 0 0 0.00413,0.004 0.67916722,0.67916722 0 0 0 0.032768,0.02827 C 8.8377471,9.889415 8.7013394,9.794147 8.5700087,9.673233 A 0.67916722,0.67916722 0 0 0 8.7313495,9.566968 Z" />
</svg>
