<svg width="512" height="512" viewBox="0 0 135.467 135.467" xmlns="http://www.w3.org/2000/svg"><path d="M100.987 66.492a2.799 2.799 0 0 1 2.192-2.221 2.698 2.698 0 0 0 2.163-2.4 3.042 3.042 0 0 1 3.046-2.773c.891 0 1.737.39 2.321 1.068a2.698 2.698 0 0 0 2.728.851c.231-.06.47-.09.71-.09 1.122 0 2.13.667 2.568 1.701a2.7 2.7 0 0 0 2.875 1.62 2.793 2.793 0 0 1 3.193 2.755A2.79 2.79 0 0 1 120 69.79l-16.74-.042a2.783 2.783 0 0 1-2.272-3.255zM68.32 24.447a5.642 5.642 0 0 1-5.636-5.636 5.642 5.642 0 0 1 6.459-5.575 2.697 2.697 0 0 0 2.873-1.619 5.63 5.63 0 0 1 5.193-3.442c.485 0 .967.062 1.432.184a2.697 2.697 0 0 0 2.73-.851 6.05 6.05 0 0 1 4.59-2.111 6.019 6.019 0 0 1 6.024 5.487c.11 1.191.99 2.168 2.163 2.4a5.644 5.644 0 0 1 4.532 5.527 5.642 5.642 0 0 1-5.635 5.636H68.319Zm-42.75 15.212v.001a4.57 4.57 0 0 1-4.565-4.565 4.57 4.57 0 0 1 3.67-4.476 2.698 2.698 0 0 0 2.163-2.4 4.9 4.9 0 0 1 4.905-4.468c1.436 0 2.798.627 3.737 1.72a2.698 2.698 0 0 0 2.73.85 4.56 4.56 0 0 1 5.367 2.64 2.698 2.698 0 0 0 2.873 1.618c2.817-.409 5.233 1.78 5.232 4.516a4.57 4.57 0 0 1-4.565 4.564zM54.768 79.23a2.699 2.699 0 0 0-1.122-3.88c-1.081-.514-2.313-1.538-3.662-3.044-7.866-8.78-10.284-21.29-11.012-27.25h1.58c.396 3.47 1.877 9.225 6.916 15.524 5.518 6.897 10.233 8.72 13.217 9.034a2.705 2.705 0 0 0 2.348-.947c3.094-3.679 4.278-4.997 6.333-7.052l.59-.59c6.204-6.187 12.236-12.673 11.94-18.016-.173-3.094-1.35-7.256-2.39-10.927-.219-.775-.433-1.534-.626-2.239h5.305c2.123 3.973 6.395 12.129 7.683 15.808 1.277 3.65 1.58 4.517-10.214 15.263-3.026 2.757-4.997 6.611-5.857 11.455a2.698 2.698 0 0 0 4.025 2.797c5.393-3.173 11.26-4.942 15.933-5.926.168.6.403 1.172.696 1.709-3.07.98-6.745 2.742-10.65 5.866-7.029 5.623-8.803 10.407-9.054 13.43a2.69 2.69 0 0 0 .054.802c.731 3.33 1.6 6.255 2.304 8.397H46.902c.878-4.325 3.055-12.612 7.866-20.214zm49.348 50.84H31.35c-13.446 0-24.384-10.939-24.384-24.384v-.767h121.532v.767c0 13.445-10.938 24.384-24.383 24.384z" fill="#a40"/><path d="M82.404 108.786H15.413a2.699 2.699 0 0 0 0 5.397h66.99a2.699 2.699 0 0 0 0-5.397zM104.022 108.786h-8.807a2.699 2.699 0 0 0 0 5.397h8.807a2.699 2.699 0 0 0 0-5.397zM61.93 78.224a2.699 2.699 0 0 0-3.712.89c-4.215 6.872-6.321 13.393-6.409 13.667a2.697 2.697 0 0 0 2.571 3.52c1.142 0 2.203-.73 2.57-1.876.02-.061 2.01-6.199 5.869-12.49a2.7 2.7 0 0 0-.89-3.71z"/><g><path d="M84.839 99.522a82.043 82.043 0 0 1-2.67-9.192c.245-1.52 1.459-4.864 7.004-9.3 6.117-4.893 11.333-5.77 13.898-5.858l16.92.015h.007c4.512 0 8.183-3.671 8.183-8.183 0-4.264-3.278-7.777-7.447-8.15a8.17 8.17 0 0 0-7.077-3.31 8.445 8.445 0 0 0-5.269-1.843 8.411 8.411 0 0 0-8.054 5.86 8.293 8.293 0 0 0-4.062 4.076c-3.72.693-8.358 1.865-13.082 3.84a11.575 11.575 0 0 1 2.099-2.572C97.17 54.078 99.483 51.076 96.96 43.87c-1.157-3.308-4.272-9.465-6.668-14.026h2.75c6.084 0 11.033-4.949 11.033-11.032 0-4.603-2.87-8.667-7.043-10.287C95.741 3.553 91.269 0 85.959 0c-2.796 0-5.472 1.02-7.548 2.843a11.013 11.013 0 0 0-10.447 4.94c-5.92.19-10.678 5.064-10.678 11.028 0 6.084 4.949 11.033 11.033 11.033H73.3c.274 1.097.628 2.352 1.013 3.709.915 3.234 2.054 7.258 2.193 9.756.032.593-.223 2.392-3.306 6.28-2.19 2.763-5.002 5.567-7.055 7.614l-.597.595c-1.933 1.934-3.128 3.238-5.597 6.152-1.751-.585-4.653-2.222-8.27-6.742-3.992-4.991-5.299-9.389-5.7-12.151h1.134c5.493 0 9.962-4.469 9.962-9.962 0-5.325-4.2-9.688-9.46-9.949a9.944 9.944 0 0 0-9.183-4.327 10.312 10.312 0 0 0-6.692-2.465c-4.728 0-8.72 3.125-9.94 7.518-3.68 1.505-6.196 5.128-6.196 9.223 0 5.493 4.47 9.962 9.962 9.962h7.965c.728 6.702 3.314 20.674 12.43 30.85.979 1.093 1.929 2.001 2.866 2.739-4.739 8.374-6.72 16.892-7.445 20.876zm16.148-33.03a2.799 2.799 0 0 1 2.192-2.221 2.698 2.698 0 0 0 2.163-2.4 3.042 3.042 0 0 1 3.046-2.773c.891 0 1.737.39 2.321 1.068a2.698 2.698 0 0 0 2.728.851c.231-.06.47-.09.71-.09 1.122 0 2.13.667 2.568 1.701a2.7 2.7 0 0 0 2.875 1.62 2.793 2.793 0 0 1 3.193 2.755A2.79 2.79 0 0 1 120 69.79l-16.74-.042a2.783 2.783 0 0 1-2.272-3.255zM68.32 24.447a5.642 5.642 0 0 1-5.636-5.636 5.642 5.642 0 0 1 6.459-5.575 2.697 2.697 0 0 0 2.873-1.619 5.63 5.63 0 0 1 5.193-3.442c.485 0 .967.062 1.432.184a2.697 2.697 0 0 0 2.73-.851 6.05 6.05 0 0 1 4.59-2.111 6.019 6.019 0 0 1 6.024 5.487c.11 1.191.99 2.168 2.163 2.4a5.644 5.644 0 0 1 4.532 5.527 5.642 5.642 0 0 1-5.635 5.636H68.319Zm-42.75 15.212v.001a4.57 4.57 0 0 1-4.565-4.565 4.57 4.57 0 0 1 3.67-4.476 2.698 2.698 0 0 0 2.163-2.4 4.9 4.9 0 0 1 4.905-4.468c1.436 0 2.798.627 3.737 1.72a2.698 2.698 0 0 0 2.73.85 4.56 4.56 0 0 1 5.367 2.64 2.698 2.698 0 0 0 2.873 1.618c2.817-.409 5.233 1.78 5.232 4.516a4.57 4.57 0 0 1-4.565 4.564zM54.768 79.23a2.699 2.699 0 0 0-1.122-3.88c-1.081-.514-2.313-1.538-3.662-3.044-7.866-8.78-10.284-21.29-11.012-27.25h1.58c.396 3.47 1.877 9.225 6.916 15.524 5.518 6.897 10.233 8.72 13.217 9.034a2.705 2.705 0 0 0 2.348-.947c3.094-3.679 4.278-4.997 6.333-7.052l.59-.59c6.204-6.187 12.236-12.673 11.94-18.016-.173-3.094-1.35-7.256-2.39-10.927-.219-.775-.433-1.534-.626-2.239h5.305c2.123 3.973 6.395 12.129 7.683 15.808 1.277 3.65 1.58 4.517-10.214 15.263-3.026 2.757-4.997 6.611-5.857 11.455a2.698 2.698 0 0 0 4.025 2.797c5.393-3.173 11.26-4.942 15.933-5.926.168.6.403 1.172.696 1.709-3.07.98-6.745 2.742-10.65 5.866-7.029 5.623-8.803 10.407-9.054 13.43a2.69 2.69 0 0 0 .054.802c.731 3.33 1.6 6.255 2.304 8.397H46.902c.878-4.325 3.055-12.612 7.866-20.214zm49.348 50.84H31.35c-13.446 0-24.384-10.939-24.384-24.384v-.767h121.532v.767c0 13.445-10.938 24.384-24.383 24.384z" fill="#214478"/><path d="M82.404 108.786H15.413a2.699 2.699 0 0 0 0 5.397h66.99a2.699 2.699 0 0 0 0-5.397zM104.022 108.786h-8.807a2.699 2.699 0 0 0 0 5.397h8.807a2.699 2.699 0 0 0 0-5.397zM61.93 78.224a2.699 2.699 0 0 0-3.712.89c-4.215 6.872-6.321 13.393-6.409 13.667a2.697 2.697 0 0 0 2.571 3.52c1.142 0 2.203-.73 2.57-1.876.02-.061 2.01-6.199 5.869-12.49a2.7 2.7 0 0 0-.89-3.71z"/></g><g><path d="M131.198 99.522h-46.36a82.043 82.043 0 0 1-2.668-9.192c.244-1.52 1.458-4.864 7.003-9.3 6.117-4.893 11.333-5.77 13.898-5.858l-6.8-11.535c-3.719.693-8.357 1.865-13.081 3.84a11.575 11.575 0 0 1 2.099-2.572C97.17 54.078 99.483 51.076 96.96 43.87c-1.157-3.308-4.272-9.465-6.668-14.026H73.301c.274 1.097.628 2.352 1.013 3.709.915 3.234 2.054 7.258 2.193 9.756.032.593-.223 2.392-3.306 6.28-2.19 2.763-5.002 5.567-7.055 7.614l-.597.595c-1.933 1.934-3.128 3.238-5.597 6.152-1.751-.585-4.653-2.222-8.27-6.742-3.992-4.991-5.299-9.389-5.7-12.151H33.534c.728 6.702 3.314 20.674 12.43 30.85.979 1.093 1.929 2.001 2.866 2.739-4.739 8.374-6.72 16.892-7.445 20.876H4.27a2.699 2.699 0 0 0-2.699 2.699v3.464c0 16.422 13.36 29.782 29.781 29.782h72.764c16.422 0 29.781-13.36 29.781-29.781v-3.465a2.698 2.698 0 0 0-2.698-2.699zm-30.21-33.03a2.799 2.799 0 0 1 2.19-2.221 2.698 2.698 0 0 0 2.164-2.4 3.042 3.042 0 0 1 3.046-2.773c.891 0 1.737.39 2.321 1.068a2.698 2.698 0 0 0 2.728.851c.231-.06.47-.09.71-.09 1.122 0 2.13.667 2.568 1.701a2.7 2.7 0 0 0 2.875 1.62 2.793 2.793 0 0 1 3.193 2.755A2.79 2.79 0 0 1 120 69.79l-16.74-.042a2.783 2.783 0 0 1-2.272-3.255zm-32.67-42.045a5.642 5.642 0 0 1-5.635-5.636 5.642 5.642 0 0 1 6.459-5.575 2.697 2.697 0 0 0 2.873-1.619 5.63 5.63 0 0 1 5.193-3.442c.485 0 .967.062 1.432.184a2.697 2.697 0 0 0 2.73-.851 6.05 6.05 0 0 1 4.59-2.111 6.019 6.019 0 0 1 6.024 5.487c.11 1.191.99 2.168 2.163 2.4a5.644 5.644 0 0 1 4.532 5.527 5.642 5.642 0 0 1-5.635 5.636H68.319Zm-42.75 15.212v.001a4.57 4.57 0 0 1-4.564-4.565 4.57 4.57 0 0 1 3.67-4.476 2.698 2.698 0 0 0 2.163-2.4 4.9 4.9 0 0 1 4.905-4.468c1.436 0 2.798.627 3.737 1.72a2.698 2.698 0 0 0 2.73.85 4.56 4.56 0 0 1 5.367 2.64 2.698 2.698 0 0 0 2.873 1.618c2.817-.409 5.233 1.78 5.232 4.516a4.57 4.57 0 0 1-4.565 4.564zm29.2 39.571a2.699 2.699 0 0 0-1.122-3.88c-1.081-.514-2.313-1.538-3.662-3.044-7.866-8.78-10.284-21.29-11.012-27.25h1.58c.396 3.47 1.877 9.225 6.916 15.524 5.518 6.897 10.233 8.72 13.217 9.034a2.705 2.705 0 0 0 2.348-.947c3.094-3.679 4.278-4.997 6.333-7.052l.59-.59c6.204-6.187 12.236-12.673 11.94-18.016-.173-3.094-1.35-7.256-2.39-10.927-.219-.775-.433-1.534-.626-2.239h5.305c2.123 3.973 6.395 12.129 7.683 15.808 1.277 3.65 1.58 4.517-10.214 15.263-3.026 2.757-4.997 6.611-5.857 11.455a2.698 2.698 0 0 0 4.025 2.797c5.393-3.173 11.26-4.942 15.933-5.926.168.6.403 1.172.696 1.709-3.07.98-6.745 2.742-10.65 5.866-7.029 5.623-8.803 10.407-9.054 13.43a2.69 2.69 0 0 0 .054.802c.731 3.33 1.6 6.255 2.304 8.397H46.902c.878-4.325 3.055-12.612 7.866-20.214zm49.348 50.84H31.35c-13.446 0-24.384-10.939-24.384-24.384v-.767h121.532v.767c0 13.445-10.938 24.384-24.383 24.384z" fill="green"/><path d="M82.404 108.786H15.413a2.699 2.699 0 0 0 0 5.397h66.99a2.699 2.699 0 0 0 0-5.397zM104.022 108.786h-8.807a2.699 2.699 0 0 0 0 5.397h8.807a2.699 2.699 0 0 0 0-5.397zM61.93 78.224a2.699 2.699 0 0 0-3.712.89c-4.215 6.872-6.321 13.393-6.409 13.667a2.697 2.697 0 0 0 2.571 3.52c1.142 0 2.203-.73 2.57-1.876.02-.061 2.01-6.199 5.869-12.49a2.7 2.7 0 0 0-.89-3.71z"/></g><g><path d="M131.198 99.522h-46.36a82.043 82.043 0 0 1-2.668-9.192c.244-1.52 1.458-4.864 7.003-9.3 6.117-4.893 11.333-5.77 13.898-5.858l16.92.015h.007c4.512 0 8.183-3.671 8.183-8.183 0-4.264-3.278-7.777-7.447-8.15a8.17 8.17 0 0 0-7.077-3.31 8.445 8.445 0 0 0-5.269-1.843 8.411 8.411 0 0 0-8.054 5.86 8.293 8.293 0 0 0-4.062 4.076c-3.72.693-8.358 1.865-13.082 3.84a11.575 11.575 0 0 1 2.099-2.572C97.17 54.078 99.483 51.076 96.96 43.87c-1.157-3.308-4.272-9.465-6.668-14.026h2.75c6.084 0 11.033-4.949 11.033-11.032 0-4.603-2.87-8.667-7.043-10.287C95.741 3.553 91.269 0 85.959 0c-2.796 0-5.472 1.02-7.548 2.843a11.013 11.013 0 0 0-10.447 4.94c-5.92.19-10.678 5.064-10.678 11.028 0 6.084 4.949 11.033 11.033 11.033H73.3c.274 1.097.628 2.352 1.013 3.709.915 3.234 2.054 7.258 2.193 9.756.032.593-.223 2.392-3.306 6.28-2.19 2.763-5.002 5.567-7.055 7.614l-.597.595c-1.933 1.934-3.128 3.238-5.597 6.152-1.751-.585-4.653-2.222-8.27-6.742-3.992-4.991-5.299-9.389-5.7-12.151h1.134c5.493 0 9.962-4.469 9.962-9.962 0-5.325-4.2-9.688-9.46-9.949a9.944 9.944 0 0 0-9.183-4.327 10.312 10.312 0 0 0-6.692-2.465c-4.728 0-8.72 3.125-9.94 7.518-3.68 1.505-6.196 5.128-6.196 9.223 0 5.493 4.47 9.962 9.962 9.962h7.965c.728 6.702 3.314 20.674 12.43 30.85.979 1.093 1.929 2.001 2.866 2.739-4.739 8.374-6.72 16.892-7.445 20.876H4.27a2.699 2.699 0 0 0-2.699 2.699v3.464c0 16.422 13.36 29.782 29.781 29.782h72.764c16.422 0 29.781-13.36 29.781-29.781v-3.465a2.698 2.698 0 0 0-2.698-2.699zm-30.21-33.03a2.799 2.799 0 0 1 2.19-2.221 2.698 2.698 0 0 0 2.164-2.4 3.042 3.042 0 0 1 3.046-2.773c.891 0 1.737.39 2.321 1.068a2.698 2.698 0 0 0 2.728.851c.231-.06.47-.09.71-.09 1.122 0 2.13.667 2.568 1.701a2.7 2.7 0 0 0 2.875 1.62 2.793 2.793 0 0 1 3.193 2.755A2.79 2.79 0 0 1 120 69.79l-16.74-.042a2.783 2.783 0 0 1-2.272-3.255zm-32.67-42.045a5.642 5.642 0 0 1-5.635-5.636 5.642 5.642 0 0 1 6.459-5.575 2.697 2.697 0 0 0 2.873-1.619 5.63 5.63 0 0 1 5.193-3.442c.485 0 .967.062 1.432.184a2.697 2.697 0 0 0 2.73-.851 6.05 6.05 0 0 1 4.59-2.111 6.019 6.019 0 0 1 6.024 5.487c.11 1.191.99 2.168 2.163 2.4a5.644 5.644 0 0 1 4.532 5.527 5.642 5.642 0 0 1-5.635 5.636H68.319Zm-42.75 15.212v.001a4.57 4.57 0 0 1-4.564-4.565 4.57 4.57 0 0 1 3.67-4.476 2.698 2.698 0 0 0 2.163-2.4 4.9 4.9 0 0 1 4.905-4.468c1.436 0 2.798.627 3.737 1.72a2.698 2.698 0 0 0 2.73.85 4.56 4.56 0 0 1 5.367 2.64 2.698 2.698 0 0 0 2.873 1.618c2.817-.409 5.233 1.78 5.232 4.516a4.57 4.57 0 0 1-4.565 4.564zm29.2 39.571a2.699 2.699 0 0 0-1.122-3.88c-1.081-.514-2.313-1.538-3.662-3.044-7.866-8.78-10.284-21.29-11.012-27.25h1.58c.396 3.47 1.877 9.225 6.916 15.524 5.518 6.897 10.233 8.72 13.217 9.034a2.705 2.705 0 0 0 2.348-.947c3.094-3.679 4.278-4.997 6.333-7.052l.59-.59c6.204-6.187 12.236-12.673 11.94-18.016-.173-3.094-1.35-7.256-2.39-10.927-.219-.775-.433-1.534-.626-2.239h5.305c2.123 3.973 6.395 12.129 7.683 15.808 1.277 3.65 1.58 4.517-10.214 15.263-3.026 2.757-4.997 6.611-5.857 11.455a2.698 2.698 0 0 0 4.025 2.797c5.393-3.173 11.26-4.942 15.933-5.926.168.6.403 1.172.696 1.709-3.07.98-6.745 2.742-10.65 5.866-7.029 5.623-8.803 10.407-9.054 13.43a2.69 2.69 0 0 0 .054.802c.731 3.33 1.6 6.255 2.304 8.397H46.902c.878-4.325 3.055-12.612 7.866-20.214zm49.348 50.84H31.35c-13.446 0-24.384-10.939-24.384-24.384v-.767h121.532v.767c0 13.445-10.938 24.384-24.383 24.384z"/><path d="M82.404 108.786H15.413a2.699 2.699 0 0 0 0 5.397h66.99a2.699 2.699 0 0 0 0-5.397zM104.022 108.786h-8.807a2.699 2.699 0 0 0 0 5.397h8.807a2.699 2.699 0 0 0 0-5.397zM61.93 78.224a2.699 2.699 0 0 0-3.712.89c-4.215 6.872-6.321 13.393-6.409 13.667a2.697 2.697 0 0 0 2.571 3.52c1.142 0 2.203-.73 2.57-1.876.02-.061 2.01-6.199 5.869-12.49a2.7 2.7 0 0 0-.89-3.71z"/></g></svg>