<?xml version="1.0" encoding="iso-8859-1"?>
<!-- Uploaded to: SVG Repo, www.svgrepo.com, Transformed by: SVG Repo Mixer Tools -->
<svg height="800px" width="800px" version="1.1" id="Layer_1" xmlns="http://www.w3.org/2000/svg" xmlns:xlink="http://www.w3.org/1999/xlink" 
	 viewBox="0 0 511.986 511.986" xml:space="preserve">
<path style="fill:#7F4545;" d="M297.619,261.07c-49.623,0-86.817-17.391-109.676-32.391c-26.124-17.155-39.616-34.843-40.179-35.593
	l17.03-12.843c0.103,0.141,12.281,15.938,35.585,31.077c26.758,17.374,56.522,26.843,88.678,28.249
	c-32.922-14.124-45.116-34.999-45.726-36.093l18.554-10.516l-0.047-0.093c0.603,1.016,15.172,24.89,58.717,34.389l19.906,4.328
	l-31.343,29.219l-3.969,0.141C302.603,261.023,300.089,261.07,297.619,261.07z"/>
<path style="fill:#A85D5D;" d="M368.399,175.541c-21.313-13.812-51.468-29.124-89.592-45.498
	c-61.17-26.265-123.988-47.077-130.793-49.311l-14.538-6.688l-9.539,19.062c0.484,0.266,48.826,26.515,97.044,56.67
	c28.14,17.608,50.702,33.062,67.045,45.936c24.607,19.391,28.312,27.655,28.843,29.453c-1.688,4.046-13,21.546-87.936,75.997
	c-42.561,30.937-84.599,58.482-85.021,58.749l-28.866,18.89l163.854,3.327l3-2.405c1.203-0.954,29.749-23.796,59.748-53.374
	c41.404-40.842,64.279-73.528,67.95-97.153C412.21,212.477,399.116,195.431,368.399,175.541z"/>
<g>
	<path style="fill:#424953;" d="M427.084,447.329c0,5.891-4.781,10.656-10.672,10.656H75.095c-5.89,0-10.671-4.766-10.671-10.656
		v-95.34c0-5.891,4.781-10.657,10.671-10.657h341.317c5.891,0,10.672,4.767,10.672,10.657V447.329z"/>
	<path style="fill:#424953;" d="M405.74,501.327c0,5.891-4.781,10.656-10.655,10.656c-5.906,0-10.671-4.766-10.671-10.656
		s4.765-10.671,10.671-10.671C400.959,490.656,405.74,495.436,405.74,501.327z"/>
	<path style="fill:#424953;" d="M107.095,501.327c0,5.891-4.781,10.656-10.672,10.656s-10.664-4.766-10.664-10.656
		s4.773-10.671,10.664-10.671S107.095,495.436,107.095,501.327z"/>
</g>
<path style="fill:#46CEAD;" d="M448.411,383.987H43.096c-11.734,0-18.054,9.031-14.047,20.047l28.085,77.231
	c4.008,11.031,16.891,20.062,28.624,20.062h319.981c11.75,0,24.624-9.03,28.624-20.062l28.094-77.231
	C466.458,393.018,460.145,383.987,448.411,383.987z"/>
<g>
	<path style="fill:#9ED36A;" d="M468.458,65.889c-0.5-13.031-1.5-14.031-15.813-24.046c-14.312-10.016-90.372-12.766-108.449-16.516
		c-18.077-3.765-7.531-31.545-57.232-24.046c-49.71,7.516-133.301,9.016-174.721,4.516C70.822,1.281,56.752,24.28,36.565,27.436
		C16.379,30.577,10.574,52.357,4.551,71.139c-6.031,18.78-8.289,43.561,7.531,61.592c15.812,18.03,37.976,16.53,52.498,33.046
		c14.522,16.53,63.686,10.53,80.044,22.921c16.352,12.39,51.709,21.405,97.146,21.405c45.444,0,44.663-6.266,66.631-21.405
		c21.983-15.156,108.34-46.702,122.402-41.687c14.062,5,52.217,2.5,61.748-9.016c9.531-11.515,25.108-21.53,17.327-36.811
		c-7.796-15.266-10.296-6.766-28.624-7.516C462.927,92.919,468.958,78.904,468.458,65.889z"/>
	<path style="fill:#9ED36A;" d="M468.364,64.076c-0.095-2.094-0.219-3.844-0.469-5.359C467.88,60.639,467.989,62.435,468.364,64.076
		z"/>
</g>
<path style="fill:#8AC054;" d="M508.456,98.559c-4.062,6.281-10.843,11.983-15.905,18.093c-9.531,11.531-47.687,14.031-61.748,9.016
	c-14.063-5-100.419,26.546-122.402,41.687c-21.968,15.155-21.187,21.405-66.631,21.405c-45.437,0-80.794-9.016-97.146-21.405
	c-16.358-12.391-65.521-6.375-80.044-22.906c-14.522-16.53-36.687-15.015-52.498-33.046c-6.391-7.28-9.828-15.655-11.258-24.296
	c-2.227,15.484-0.367,32.374,11.258,45.624c15.812,18.03,37.976,16.53,52.498,33.046c14.522,16.53,63.686,10.53,80.044,22.921
	c16.352,12.39,51.709,21.405,97.146,21.405c45.444,0,44.663-6.266,66.631-21.405c21.983-15.156,108.34-46.702,122.402-41.687
	c14.062,5,52.217,2.5,61.748-9.016c9.531-11.515,25.108-21.53,17.327-36.811C509.378,100.216,508.909,99.341,508.456,98.559z"/>
</svg>