<?xml version="1.0" encoding="UTF-8" standalone="no"?>
<!-- Created with Inkscape (http://www.inkscape.org/) -->

<svg
   width="500"
   height="500"
   viewBox="0 0 132.29167 132.29167"
   version="1.1"
   id="svg58"
   inkscape:version="1.1.2 (b8e25be833, 2022-02-05)"
   sodipodi:docname="bonsai04_stamp.svg"
   xmlns:inkscape="http://www.inkscape.org/namespaces/inkscape"
   xmlns:sodipodi="http://sodipodi.sourceforge.net/DTD/sodipodi-0.dtd"
   xmlns="http://www.w3.org/2000/svg"
   xmlns:svg="http://www.w3.org/2000/svg">
  <sodipodi:namedview
     id="namedview60"
     pagecolor="#ffffff"
     bordercolor="#666666"
     borderopacity="1.0"
     inkscape:pageshadow="2"
     inkscape:pageopacity="0.0"
     inkscape:pagecheckerboard="true"
     inkscape:document-units="px"
     showgrid="false"
     units="px"
     inkscape:zoom="1"
     inkscape:cx="94.5"
     inkscape:cy="261.5"
     inkscape:window-width="1920"
     inkscape:window-height="1001"
     inkscape:window-x="-9"
     inkscape:window-y="-9"
     inkscape:window-maximized="1"
     inkscape:current-layer="g4908"
     showguides="false" />
  <defs
     id="defs55" />
  <g
     inkscape:label="Layer 1 copy"
     inkscape:groupmode="layer"
     id="g4908"
     style="display:inline">
    <ellipse
       style="fill:none;fill-opacity:1;stroke:#777777;stroke-width:2.59917;stroke-miterlimit:4;stroke-dasharray:none;stroke-opacity:1"
       id="ellipse4890"
       cx="66.145836"
       cy="66.145828"
       rx="64.846252"
       ry="64.846245" />
    <circle
       style="fill:none;fill-opacity:1;stroke:#777777;stroke-width:7.77241;stroke-miterlimit:4;stroke-dasharray:none;stroke-opacity:1"
       id="circle4892"
       cx="66.145836"
       cy="66.145836"
       r="60.936714" />
    <g
       id="g878"
       transform="matrix(0.31869634,0,0,0.31869634,12.320832,11.861926)">
      <path
         d="m 78.425,167.767 h 21.563 c 0,0 7.464,36.906 47.272,35.662 39.808,-1.244 42.492,-2.074 42.492,-2.074 l -13.05,25.3 c 0,0 -80.861,17.411 -98.277,-58.888 z"
         style="fill:#473b37"
         id="path4" />
      <path
         d="m 23.784,176.89 h 52.84 a 51.708,51.708 0 0 1 14.457,2.139 c 6.149,1.792 17.22,3.612 32.543,0.582 12.237,-2.421 19.489,-8.578 23.685,-14.139 a 21.321,21.321 0 0 0 2.226,-22.2 c -4.39,-9.057 -14.963,-20.982 -40.425,-26.506 a 50.518,50.518 0 0 0 -15.98,0.817 24.3,24.3 0 0 1 -12.573,-0.412 C 70.6,114.118 50,111.049 26.2,126.024 a 13.482,13.482 0 0 0 1.534,23.682 c 0.169,0.077 0.34,0.154 0.515,0.23 0,0 -20.3,1.6 -18.661,15.729 a 12.269,12.269 0 0 0 6.412,9.265 15.631,15.631 0 0 0 7.784,1.96 z"
         style="fill:#9fc2ab"
         id="path6" />
      <path
         d="m 147.309,165.472 a 21.321,21.321 0 0 0 2.226,-22.2 c -4.269,-8.808 -14.391,-20.327 -38.364,-26.035 a 28.6,28.6 0 0 1 6.677,15.271 c 1.221,12.508 -7.43,23.776 -19.62,26.832 -6.081,1.524 -14.556,2.536 -26.233,2.028 H 49.853 a 8.424,8.424 0 0 1 -7.485,-12.34 c 0.061,-0.112 0.123,-0.226 0.187,-0.341 a 3.157,3.157 0 0 0 -1.815,-4.549 c -5.483,-1.741 -14.872,-5.943 -18.108,-14.877 a 13.489,13.489 0 0 0 5.1,20.448 c 0.169,0.077 0.34,0.154 0.515,0.23 0,0 -20.3,1.6 -18.661,15.729 a 12.269,12.269 0 0 0 6.414,9.262 15.63,15.63 0 0 0 7.781,1.96 h 52.843 a 51.708,51.708 0 0 1 14.457,2.139 c 6.149,1.792 17.22,3.612 32.543,0.582 12.237,-2.421 19.489,-8.578 23.685,-14.139 z"
         style="fill:#698779"
         id="path8" />
      <path
         d="m 76.293,251 h 197.088 v 3.765 A 14.837,14.837 0 0 1 258.544,269.6 H 91.13 A 14.837,14.837 0 0 1 76.293,254.763 Z"
         style="fill:#e8756d"
         id="path10" />
      <path
         d="M 174.837,269.6 H 91.13 c 0,0 8.636,18.6 10.851,35.875 a 31.573,31.573 0 0 0 1.05,5.029 21.42,21.42 0 0 0 20.575,15.158 h 102.462 a 21.42,21.42 0 0 0 20.575,-15.158 31.573,31.573 0 0 0 1.05,-5.029 c 2.215,-17.273 10.851,-35.875 10.851,-35.875 z"
         style="fill:#e8756d"
         id="path12" />
      <path
         d="m 91.13,269.6 c 0,0 1.966,4.237 4.261,10.539 h 158.892 c 2.3,-6.3 4.261,-10.539 4.261,-10.539 z"
         style="fill:#bc4242"
         id="path14" />
      <path
         d="m 213.607,174.4 c 0,0 39.809,12.44 41.882,-22.392 h 17.892 c 0,0 4.086,19.074 -18.307,33.173 -22.393,14.099 -25.294,30.123 -25.294,30.123 z"
         style="fill:#9b7b76"
         id="path16" />
      <path
         d="m 134.089,87.886 h 16.9 c 0,0 0.338,26.389 30.233,26.389 l -33.136,27.368 a 23.52,23.52 0 0 0 2.151,-9.876 21.574,21.574 0 0 0 -6.012,-14.652 C 140.295,112.9 132.607,102.62 134.089,87.886 Z"
         style="fill:#473b37"
         id="path18" />
      <path
         d="m 177.453,179.611 c 0,0 13.594,7.209 -2.616,30.041 C 158.627,232.484 126.584,251 126.584,251 H 214.3 c 0,0 24.837,-60.174 -36.847,-71.389 z"
         style="fill:#473b37"
         id="path20" />
      <path
         d="m 193.475,87.886 c 0,0 2.8,18.024 -21.63,30.441 0,0 -15.909,7.392 -26.047,19.632 a 27.077,27.077 0 0 0 5.469,39.38 c 5.965,4.218 14.412,8.606 26.186,11.885 0,0 33.646,9.212 34.447,34.046 a 37.122,37.122 0 0 1 -5.3,16.074 c 0,0 -2.468,8.405 -8.028,11.657 h 23.338 c 0,0 27.622,-20.563 14.322,-54.92 a 55.884,55.884 0 0 0 -21.545,-26.346 149.7,149.7 0 0 0 -28.973,-14.8 11.013,11.013 0 0 1 -4.169,-17.7 125.674,125.674 0 0 1 13.128,-12.5 C 210.7,111.518 207.9,87.886 207.9,87.886 Z"
         style="fill:#9b7b76"
         id="path22" />
      <path
         d="m 255.489,152.01 c -0.444,7.456 -2.62,12.741 -5.762,16.451 l 19.809,2.259 c 5.7,-10 3.845,-18.71 3.845,-18.71 z"
         style="fill:#473b37"
         id="path24" />
      <path
         d="m 232.682,156.986 h 65.1 c 0,0 29.992,2.359 32.56,-15.4 a 14.185,14.185 0 0 0 -4.764,-13.045 q -0.309,-0.255 -0.645,-0.5 a 13.871,13.871 0 0 1 -4.8,-6.14 c -2.232,-5.811 -10.188,-15.912 -38.538,-15.912 H 260.68 a 40.572,40.572 0 0 0 -21.463,5.945 32.77,32.77 0 0 0 -6.733,5.472 47.881,47.881 0 0 1 -10.358,8.559 c -0.12,0.073 -0.241,0.146 -0.362,0.222 -12.942,8.017 -9.162,28.1 5.881,30.435 a 32.766,32.766 0 0 0 5.037,0.364 z"
         style="fill:#9fc2ab"
         id="path26" />
      <path
         d="m 193.475,87.886 c 0,0 1.338,8.651 -5.959,18.1 h 18.751 a 52.849,52.849 0 0 0 1.633,-18.1 z"
         style="fill:#473b37"
         id="path28" />
      <path
         d="m 95.26,94.538 c 2.919,-0.1 5.848,-0.118 8.767,-0.044 l 109.58,2.779 c 0,0 4.481,0.5 10.164,-2.942 A 24.317,24.317 0 0 1 237.525,90.9 c 14.59,0.69 44.011,-0.019 57.888,-15.238 4.684,-5.137 3.113,-13.5 -3.3,-16.177 -0.2,-0.084 -0.41,-0.167 -0.624,-0.247 a 9.888,9.888 0 0 1 -4.9,-4.02 C 282.654,48.892 270.994,34.706 244,30.985 a 59.257,59.257 0 0 1 -20.6,-6.994 c -12.273,-6.8 -37.229,-15.466 -74.484,-4.261 0,0 -57.225,-20.734 -87.5,24.051 0,0 -18.568,3.961 -24.9,18.387 a 19.357,19.357 0 0 0 9.355,25 c 8.597,4.295 23.594,8.263 49.389,7.37 z"
         style="fill:#9fc2ab"
         id="path30" />
      <path
         d="m 330.345,141.581 a 14.18,14.18 0 0 0 -4.763,-13.045 q -0.309,-0.255 -0.645,-0.5 a 13.886,13.886 0 0 1 -4.8,-6.14 c -1.285,-3.349 -4.483,-8.12 -12.379,-11.564 2.743,9.8 -10.02,13.219 -17.783,14.38 a 5.19,5.19 0 0 0 -4.38,5.639 c 0.986,10.969 -11.923,11.295 -11.923,11.295 H 243.64 c -20.715,0 -23.892,-8.307 -23.472,-14.334 -10.98,8.623 -6.906,27.071 7.477,29.305 a 32.766,32.766 0 0 0 5.037,0.372 h 65.1 c 0,0 29.996,2.356 32.563,-15.408 z"
         style="fill:#698779"
         id="path32" />
      <path
         d="m 295.413,75.662 c 4.684,-5.137 3.113,-13.5 -3.3,-16.177 -0.2,-0.084 -0.41,-0.167 -0.624,-0.247 a 9.884,9.884 0 0 1 -4.9,-4.02 42.781,42.781 0 0 0 -6.105,-7.593 c -16.645,14.923 -69.454,13 -69.454,13 h -41.3 a 80.759,80.759 0 0 0 -23.8,3.585 l -16.626,5.125 a 80.759,80.759 0 0 1 -23.8,3.585 H 80.582 C 51.665,72.92 45.104,61.542 44.81,51.748 a 27.541,27.541 0 0 0 -8.292,10.421 19.357,19.357 0 0 0 9.355,25 c 8.6,4.3 23.592,8.266 49.388,7.373 2.918,-0.1 5.847,-0.118 8.766,-0.044 l 109.58,2.779 c 0,0 4.481,0.5 10.164,-2.943 a 24.325,24.325 0 0 1 13.754,-3.43 c 14.59,0.686 44.011,-0.023 57.888,-15.242 z"
         style="fill:#698779"
         id="path34" />
      <path
         d="m 214.691,169.735 a 149.7,149.7 0 0 0 -28.973,-14.8 11.013,11.013 0 0 1 -4.169,-17.7 c 0,0 -10.9,8.119 -5.959,19.427 a 11.061,11.061 0 0 0 6.356,5.932 c 6.03,2.209 18.488,7.043 25.436,11.657 a 11.725,11.725 0 0 0 6.483,1.955 l 8.981,0.008 a 58.225,58.225 0 0 0 -8.155,-6.479 z"
         style="fill:#473b37"
         id="path36" />
      <path
         d="M 206.6,239.342 A 33.655,33.655 0 0 1 194.735,251 h 27.179 a 48.633,48.633 0 0 0 10.392,-11.659 z"
         style="fill:#473b37"
         id="path38" />
    </g>
  </g>
</svg>
