<?xml version="1.0" encoding="UTF-8" standalone="no"?>
<!-- Uploaded to: SVG Repo, www.svgrepo.com, Generator: SVG Repo Mixer Tools -->

<svg
   height="800px"
   width="800px"
   version="1.1"
   id="Icons"
   viewBox="0 0 32 32"
   xml:space="preserve"
   sodipodi:docname="book.svg"
   inkscape:version="1.1.2 (b8e25be833, 2022-02-05)"
   xmlns:inkscape="http://www.inkscape.org/namespaces/inkscape"
   xmlns:sodipodi="http://sodipodi.sourceforge.net/DTD/sodipodi-0.dtd"
   xmlns="http://www.w3.org/2000/svg"
   xmlns:svg="http://www.w3.org/2000/svg"><defs
   id="defs13" /><sodipodi:namedview
   id="namedview11"
   pagecolor="#ffffff"
   bordercolor="#666666"
   borderopacity="1.0"
   inkscape:pageshadow="2"
   inkscape:pageopacity="0.0"
   inkscape:pagecheckerboard="0"
   showgrid="false"
   inkscape:zoom="1.01"
   inkscape:cx="399.50495"
   inkscape:cy="400.49505"
   inkscape:window-width="1920"
   inkscape:window-height="1001"
   inkscape:window-x="-9"
   inkscape:window-y="-9"
   inkscape:window-maximized="1"
   inkscape:current-layer="Icons" />
<style
   type="text/css"
   id="style2">
	.st0{fill:#FFFFFF;}
</style>
<g
   id="g6"
   style="fill:#555555;fill-opacity:1">
	<path
   d="M26,7H9C8.4,7,8,6.6,8,6s0.4-1,1-1h17c0.6,0,1,0.4,1,1S26.6,7,26,7z"
   id="path4"
   style="fill:#555555;fill-opacity:1" />
</g>
<path
   d="M26,8H11H9C7.9,8,7,7.1,7,6s0.9-2,2-2h17c0.6,0,1-0.4,1-1s-0.4-1-1-1H9C6.8,2,5,3.8,5,6v20c0,2.2,1.8,4,4,4h2h15  c0.6,0,1-0.4,1-1V9C27,8.4,26.6,8,26,8z"
   id="path8"
   style="fill:#555555;fill-opacity:1" />
</svg>
