<?xml version="1.0" encoding="UTF-8" standalone="no"?>
<!-- Uploaded to: SVG Repo, www.svgrepo.com, Generator: SVG Repo Mixer Tools -->

<svg
   fill="#000000"
   width="800px"
   height="800px"
   viewBox="0 0 32 32"
   version="1.1"
   id="svg6"
   sodipodi:docname="book.svg"
   inkscape:version="1.1.2 (b8e25be833, 2022-02-05)"
   xmlns:inkscape="http://www.inkscape.org/namespaces/inkscape"
   xmlns:sodipodi="http://sodipodi.sourceforge.net/DTD/sodipodi-0.dtd"
   xmlns="http://www.w3.org/2000/svg"
   xmlns:svg="http://www.w3.org/2000/svg">
  <defs
     id="defs10" />
  <sodipodi:namedview
     id="namedview8"
     pagecolor="#ffffff"
     bordercolor="#666666"
     borderopacity="1.0"
     inkscape:pageshadow="2"
     inkscape:pageopacity="0.0"
     inkscape:pagecheckerboard="0"
     showgrid="false"
     inkscape:zoom="0.71417785"
     inkscape:cx="399.76037"
     inkscape:cy="479.57242"
     inkscape:window-width="1920"
     inkscape:window-height="1001"
     inkscape:window-x="-9"
     inkscape:window-y="-9"
     inkscape:window-maximized="1"
     inkscape:current-layer="svg6" />
  <title
     id="title2">book</title>
  <path
     d="m 28.742198,0.8155353 c 0,-0.4489782 -0.364388,-0.8133663 -0.813366,-0.8133663 H 6.4559609 C 6.4255952,0.0010845 6.3898071,0 6.3540189,0 4.6828223,0 3.3207048,1.3230759 3.25672,2.9780052 v 0.00542 26.4495878 C 3.3792672,30.87647 4.5808804,32 6.0460242,32 c 0.068323,0 0.1355611,-0.0022 0.2027994,-0.0076 h -0.00868 21.6897684 c 0.448978,0 0.813367,-0.364389 0.813367,-0.813367 0,-0.448978 -0.364389,-0.813366 -0.813367,-0.813366 v 0 H 6.4570453 c -0.024943,0.0011 -0.054224,0.0022 -0.083506,0.0022 -0.7775782,0 -1.4163418,-0.593215 -1.4890026,-1.352357 v -0.0065 -1.326329 c 0,-0.497781 0.6333413,-0.933745 1.3534416,-0.933745 l 21.6919377,0.06182 c 0,0 0.0011,0 0.0011,0 0.224489,0 0.427288,-0.0911 0.573694,-0.238588 v 0 c 0.01844,-0.01844 0.02711,-0.04446 0.04338,-0.06507 0.05097,-0.05531 0.09435,-0.119294 0.127969,-0.187616 l 0.0022,-0.0043 c 0.01735,-0.05314 0.03145,-0.113872 0.03687,-0.177856 v -0.0033 c 0.01193,-0.03796 0.02169,-0.08351 0.02711,-0.131223 v -0.0033 -0.0022 z M 27.115465,25.185075 10.305895,25.137357 V 1.6289016 h 16.80957 z M 4.8834526,25.41824 V 2.9845121 c 0.072661,-0.7645643 0.7125089,-1.3577795 1.4900871,-1.3577795 0.029281,0 0.058562,0.00108 0.086759,0.00217 h -0.00434 2.2232012 V 25.131935 l -2.4400989,-0.0065 c -0.4912733,0.0022 -0.9576033,0.109533 -1.3762158,0.301488 z M 13.830482,7.0513437 h 9.760396 c 0.448978,0 0.813366,-0.3643881 0.813366,-0.8133663 0,-0.4489782 -0.364388,-0.8133663 -0.813366,-0.8133663 v 0 h -9.760396 c -0.448978,0 -0.813366,0.3643881 -0.813366,0.8133663 0,0.4489782 0.364388,0.8133663 0.813366,0.8133663 z m 9.760396,2.7112213 h -9.760396 c -0.448978,0 -0.813366,0.364388 -0.813366,0.813366 0,0.448978 0.364388,0.813366 0.813366,0.813366 v 0 h 9.760396 c 0.448978,0 0.813366,-0.364388 0.813366,-0.813366 0,-0.448978 -0.364388,-0.813366 -0.813366,-0.813366 z"
     id="path4"
     style="fill:#555555;fill-opacity:1;stroke-width:1.08449" />
</svg>
