<?xml version="1.0" encoding="UTF-8" standalone="no"?>
<!-- Uploaded to: SVG Repo, www.svgrepo.com, Generator: SVG Repo Mixer Tools -->

<svg
   width="2000"
   height="800"
   viewBox="0 0 60 24"
   fill="none"
   version="1.1"
   id="svg6"
   sodipodi:docname="bought.svg"
   inkscape:version="1.1.2 (b8e25be833, 2022-02-05)"
   xmlns:inkscape="http://www.inkscape.org/namespaces/inkscape"
   xmlns:sodipodi="http://sodipodi.sourceforge.net/DTD/sodipodi-0.dtd"
   xmlns="http://www.w3.org/2000/svg"
   xmlns:svg="http://www.w3.org/2000/svg">
  <defs
     id="defs10" />
  <sodipodi:namedview
     id="namedview8"
     pagecolor="#ffffff"
     bordercolor="#666666"
     borderopacity="1.0"
     inkscape:pageshadow="2"
     inkscape:pageopacity="0"
     inkscape:pagecheckerboard="0"
     showgrid="false"
     inkscape:zoom="0.35708893"
     inkscape:cx="1048.7584"
     inkscape:cy="197.42981"
     inkscape:window-width="1920"
     inkscape:window-height="1001"
     inkscape:window-x="-9"
     inkscape:window-y="-9"
     inkscape:window-maximized="1"
     inkscape:current-layer="svg6"
     width="1600px" />
  <path
     d="M 1.2,6.0000001 C 1.2,3.349032 3.3490318,1.2 5.9999997,1.2 H 17.999999 c 2.65092,0 4.799999,2.149032 4.799999,4.8000001 V 18 c 0,2.65092 -2.149079,4.8 -4.799999,4.8 H 5.9999997 C 3.3490318,22.8 1.2,20.65092 1.2,18 Z"
     stroke="#000000"
     stroke-width="2.4"
     id="path2"
     style="fill:#ffffff;fill-opacity:0.631373;stroke:#555555;stroke-opacity:1" />
  <path
     d="M 13.2,6.0000001 C 13.2,3.349032 15.349032,1.2 18,1.2 h 11.999999 c 2.65092,0 4.799999,2.149032 4.799999,4.8000001 V 18 c 0,2.65092 -2.149079,4.8 -4.799999,4.8 H 18 c -2.650968,0 -4.8,-2.14908 -4.8,-4.8 z"
     stroke="#000000"
     stroke-width="2.4"
     id="path2-8"
     style="fill:#ffffff;fill-opacity:0.631373;stroke:#555555;stroke-opacity:1" />
  <path
     d="M 25.2,6.0000001 C 25.2,3.349032 27.349032,1.2 30,1.2 h 11.999999 c 2.65092,0 4.799999,2.149032 4.799999,4.8000001 V 18 c 0,2.65092 -2.149079,4.8 -4.799999,4.8 H 30 c -2.650968,0 -4.8,-2.14908 -4.8,-4.8 z"
     stroke="#000000"
     stroke-width="2.4"
     id="path2-8-7"
     style="fill:#ffffff;fill-opacity:0.631373;stroke:#555555;stroke-opacity:1" />
  <path
     d="M 37.2,6.0000001 C 37.2,3.349032 39.349032,1.2 42,1.2 h 11.999999 c 2.65092,0 4.799999,2.149032 4.799999,4.8000001 V 18 c 0,2.65092 -2.149079,4.8 -4.799999,4.8 H 42 c -2.650968,0 -4.8,-2.14908 -4.8,-4.8 z"
     stroke="#000000"
     stroke-width="2.4"
     id="path2-7"
     style="fill:#ffffff;fill-opacity:0.631373;stroke:#555555;stroke-opacity:1" />
  <path
     d="m 31.148885,7.304937 c 0,-2.074411 2.517375,-3.756052 5.622716,-3.756052 h 14.056796 c 3.105285,0 5.622716,1.681641 5.622716,3.756052 v 9.390129 c 0,2.074374 -2.517431,3.756053 -5.622716,3.756053 H 36.771601 c -3.105341,0 -5.622716,-1.681679 -5.622716,-3.756053 z"
     stroke="#000000"
     stroke-width="2.29777"
     id="path2-7-7"
     style="fill:#ffffff;fill-opacity:1;stroke:#ffffff;stroke-opacity:1" />
  <path
     d="m 17.348885,7.304937 c 0,-2.074411 2.517375,-3.756052 5.622716,-3.756052 h 14.056796 c 3.105285,0 5.622716,1.681641 5.622716,3.756052 v 9.390129 c 0,2.074374 -2.517431,3.756053 -5.622716,3.756053 H 22.971601 c -3.105341,0 -5.622716,-1.681679 -5.622716,-3.756053 z"
     stroke="#000000"
     stroke-width="2.29777"
     id="path2-7-7-11"
     style="fill:#ffffff;fill-opacity:1;stroke:#ffffff;stroke-opacity:1" />
  <path
     d="m 3.548885,7.3049371 c 0,-2.0744114 2.5173751,-3.7560521 5.6227159,-3.7560521 H 23.228398 c 3.105285,0 5.622716,1.6816407 5.622716,3.7560521 v 9.3901289 c 0,2.074374 -2.517431,3.756053 -5.622716,3.756053 H 9.1716009 c -3.1053408,0 -5.6227159,-1.681679 -5.6227159,-3.756053 z"
     stroke="#000000"
     stroke-width="2.29777"
     id="path2-7-7-1"
     style="fill:#ffffff;fill-opacity:1;stroke:#ffffff;stroke-opacity:1" />
  <g
     aria-label="Bought"
     id="text5359"
     style="font-size:13.6px;line-height:1.25;fill:#000000;stroke-width:0.03">
    <path
       d="m 11.933136,13.618428 q 0,0.717187 -0.292188,1.281641 -0.285547,0.564453 -0.790234,0.936328 -0.584375,0.438281 -1.2882816,0.624219 -0.6972656,0.185937 -1.7730469,0.185937 H 3.4729791 V 6.7586621 h 3.8382814 q 1.1953125,0 1.7464844,0.079688 0.5578125,0.079688 1.1023441,0.3519532 0.564453,0.2855469 0.836718,0.7703125 0.278907,0.478125 0.278907,1.0957032 0,0.7171875 -0.378516,1.2683595 -0.378516,0.544531 -1.0691406,0.85 v 0.05312 q 0.9695316,0.192578 1.5339846,0.796875 0.571094,0.604297 0.571094,1.59375 z M 8.665948,9.5543653 q 0,-0.2457031 -0.1261719,-0.4914062 Q 8.4202449,8.8172559 8.1081355,8.6977247 7.8292292,8.5914747 7.4108698,8.5848341 6.9991511,8.5715528 6.2487604,8.5715528 H 6.0096979 V 10.66335 h 0.3984375 q 0.6042969,0 1.0292969,-0.01992 0.4250001,-0.01992 0.6707032,-0.132813 0.3453125,-0.152734 0.4515625,-0.391797 0.10625,-0.2457027 0.10625,-0.5644527 z m 0.6242188,4.0242187 q 0,-0.471484 -0.1859375,-0.723828 Q 8.9249324,12.595772 8.4866511,12.4696 8.187823,12.383272 7.6632136,12.376631 7.1386042,12.36999 6.5675104,12.36999 H 6.0096979 v 2.463672 h 0.1859375 q 1.0757813,0 1.5406251,-0.0066 0.4648437,-0.0066 0.8566406,-0.172657 0.3984375,-0.166015 0.5445313,-0.438281 0.1527344,-0.278906 0.1527344,-0.6375 z"
       style="font-weight:bold;-inkscape-font-specification:'sans-serif Bold';fill:#555555"
       id="path12793" />
    <path
       d="m 21.322979,12.921162 q 0,1.839453 -1.075781,2.901954 -1.069141,1.055859 -3.008203,1.055859 -1.939063,0 -3.014844,-1.055859 -1.069141,-1.062501 -1.069141,-2.901954 0,-1.852734 1.075782,-2.908594 1.082422,-1.0558589 3.008203,-1.0558589 1.952344,0 3.014844,1.0624999 1.06914,1.0625 1.06914,2.901953 z m -2.941797,1.812891 q 0.232422,-0.285547 0.345313,-0.683984 0.119531,-0.405079 0.119531,-1.115625 0,-0.657422 -0.119531,-1.102344 -0.119531,-0.444922 -0.332031,-0.710547 -0.2125,-0.272266 -0.511329,-0.385156 -0.298828,-0.112891 -0.64414,-0.112891 -0.345313,0 -0.617578,0.09297 -0.265625,0.09297 -0.511328,0.371875 -0.219141,0.258984 -0.351954,0.710547 -0.126171,0.451562 -0.126171,1.135547 0,0.610937 0.11289,1.0625 0.112891,0.444921 0.332031,0.717187 0.2125,0.258984 0.504688,0.378516 0.298828,0.119531 0.677344,0.119531 0.32539,0 0.617578,-0.10625 0.298828,-0.112891 0.504687,-0.371875 z"
       style="font-weight:bold;-inkscape-font-specification:'sans-serif Bold';fill:#555555"
       id="path12795" />
    <path
       d="m 30.467121,16.646553 h -2.390625 v -0.823437 q -0.664063,0.504687 -1.215235,0.770312 -0.551172,0.258984 -1.314844,0.258984 -1.235156,0 -1.905859,-0.710546 -0.664063,-0.710547 -0.664063,-2.098438 V 9.189131 h 2.403907 v 3.698828 q 0,0.564453 0.0332,0.942969 0.03984,0.371875 0.172656,0.617578 0.126172,0.245703 0.378516,0.358594 0.258984,0.11289 0.717187,0.11289 0.305469,0 0.677344,-0.11289 0.371875,-0.112891 0.717188,-0.332031 V 9.189131 h 2.390625 z"
       style="font-weight:bold;-inkscape-font-specification:'sans-serif Bold';fill:#555555"
       id="path12797" />
    <path
       d="m 39.976495,15.789912 q 0,1.049219 -0.298828,1.766407 -0.298828,0.717187 -0.836719,1.122265 -0.537891,0.411719 -1.301563,0.591016 -0.757031,0.185937 -1.713281,0.185937 -0.776953,0 -1.533984,-0.09297 -0.750391,-0.09297 -1.301563,-0.225782 v -1.866015 h 0.292188 q 0.438281,0.172656 1.06914,0.312109 0.63086,0.146094 1.128907,0.146094 0.664062,0 1.075781,-0.126172 0.418359,-0.119531 0.6375,-0.345312 0.205859,-0.2125 0.298828,-0.544532 0.09297,-0.332031 0.09297,-0.796875 v -0.139453 q -0.431641,0.351953 -0.95625,0.557813 -0.52461,0.205859 -1.16875,0.205859 -1.567188,0 -2.417188,-0.942969 -0.85,-0.942969 -0.85,-2.86875 0,-0.923047 0.258985,-1.59375 0.258984,-0.670703 0.730468,-1.1687499 0.438282,-0.4648438 1.075782,-0.7238281 0.64414,-0.2589844 1.314843,-0.2589844 0.604297,0 1.095704,0.1460937 0.498046,0.1394532 0.903125,0.3917969 l 0.08633,-0.3320312 h 2.317578 z m -2.390625,-1.49414 v -3.380078 q -0.20586,-0.08633 -0.504688,-0.132813 -0.298828,-0.05312 -0.53789,-0.05312 -0.942969,0 -1.414453,0.544531 -0.471485,0.537891 -0.471485,1.507422 0,1.075781 0.398438,1.500781 0.405078,0.425 1.195312,0.425 0.358594,0 0.703906,-0.11289 0.345313,-0.112891 0.63086,-0.298828 z"
       style="font-weight:bold;-inkscape-font-specification:'sans-serif Bold';fill:#555555"
       id="path12799" />
    <path
       d="m 49.724934,16.646553 h -2.403906 v -3.698828 q 0,-0.451563 -0.04648,-0.896485 -0.04648,-0.451562 -0.159375,-0.664062 -0.132812,-0.245703 -0.391797,-0.358594 -0.252343,-0.11289 -0.710547,-0.11289 -0.32539,0 -0.664062,0.10625 -0.332031,0.10625 -0.723828,0.338671 v 5.285938 H 42.234309 V 6.3137402 h 2.390625 v 3.6988278 q 0.6375,-0.4980464 1.221875,-0.7636714 0.591015,-0.265625 1.308203,-0.265625 1.208594,0 1.885938,0.7039062 0.683984,0.7039062 0.683984,2.1050782 z"
       style="font-weight:bold;-inkscape-font-specification:'sans-serif Bold';fill:#555555"
       id="path12801" />
    <path
       d="m 56.690949,16.580147 q -0.385157,0.09961 -0.816797,0.152734 -0.431641,0.05977 -1.05586,0.05977 -1.394531,0 -2.078515,-0.564453 -0.677344,-0.564453 -0.677344,-1.932422 V 10.809444 H 51.07962 V 9.189131 h 0.982813 V 7.0574903 h 2.390625 V 9.189131 h 2.237891 v 1.620313 h -2.237891 v 2.642968 q 0,0.391797 0.0066,0.683985 0.0066,0.292187 0.10625,0.524609 0.09297,0.232422 0.32539,0.371875 0.239063,0.132813 0.690625,0.132813 0.185938,0 0.484766,-0.07969 0.305469,-0.07969 0.425,-0.146094 h 0.199219 z"
       style="font-weight:bold;-inkscape-font-specification:'sans-serif Bold';fill:#555555"
       id="path12803" />
  </g>
</svg>
