<?xml version="1.0" encoding="UTF-8" standalone="no"?>
<!-- Uploaded to: SVG Repo, www.svgrepo.com, Generator: SVG Repo Mixer Tools -->

<svg
   width="2000"
   height="800"
   viewBox="0 0 60 24"
   fill="none"
   version="1.1"
   id="svg6"
   sodipodi:docname="buy.svg"
   inkscape:version="1.1.2 (b8e25be833, 2022-02-05)"
   xmlns:inkscape="http://www.inkscape.org/namespaces/inkscape"
   xmlns:sodipodi="http://sodipodi.sourceforge.net/DTD/sodipodi-0.dtd"
   xmlns="http://www.w3.org/2000/svg"
   xmlns:svg="http://www.w3.org/2000/svg">
  <defs
     id="defs10" />
  <sodipodi:namedview
     id="namedview8"
     pagecolor="#ffffff"
     bordercolor="#666666"
     borderopacity="1.0"
     inkscape:pageshadow="2"
     inkscape:pageopacity="0"
     inkscape:pagecheckerboard="0"
     showgrid="false"
     inkscape:zoom="0.35708893"
     inkscape:cx="1048.7584"
     inkscape:cy="197.42981"
     inkscape:window-width="1920"
     inkscape:window-height="1001"
     inkscape:window-x="-9"
     inkscape:window-y="-9"
     inkscape:window-maximized="1"
     inkscape:current-layer="text2325"
     width="1600px" />
  <path
     d="M 1.2,6.0000001 C 1.2,3.349032 3.3490318,1.2 5.9999997,1.2 H 17.999999 c 2.65092,0 4.799999,2.149032 4.799999,4.8000001 V 18 c 0,2.65092 -2.149079,4.8 -4.799999,4.8 H 5.9999997 C 3.3490318,22.8 1.2,20.65092 1.2,18 Z"
     stroke="#000000"
     stroke-width="2.4"
     id="path2"
     style="fill:#ffffff;fill-opacity:0.631373;stroke:#555555;stroke-opacity:1" />
  <path
     d="M 13.2,6.0000001 C 13.2,3.349032 15.349032,1.2 18,1.2 h 11.999999 c 2.65092,0 4.799999,2.149032 4.799999,4.8000001 V 18 c 0,2.65092 -2.149079,4.8 -4.799999,4.8 H 18 c -2.650968,0 -4.8,-2.14908 -4.8,-4.8 z"
     stroke="#000000"
     stroke-width="2.4"
     id="path2-8"
     style="fill:#ffffff;fill-opacity:0.631373;stroke:#555555;stroke-opacity:1" />
  <path
     d="M 25.2,6.0000001 C 25.2,3.349032 27.349032,1.2 30,1.2 h 11.999999 c 2.65092,0 4.799999,2.149032 4.799999,4.8000001 V 18 c 0,2.65092 -2.149079,4.8 -4.799999,4.8 H 30 c -2.650968,0 -4.8,-2.14908 -4.8,-4.8 z"
     stroke="#000000"
     stroke-width="2.4"
     id="path2-8-7"
     style="fill:#ffffff;fill-opacity:0.631373;stroke:#555555;stroke-opacity:1" />
  <path
     d="M 37.2,6.0000001 C 37.2,3.349032 39.349032,1.2 42,1.2 h 11.999999 c 2.65092,0 4.799999,2.149032 4.799999,4.8000001 V 18 c 0,2.65092 -2.149079,4.8 -4.799999,4.8 H 42 c -2.650968,0 -4.8,-2.14908 -4.8,-4.8 z"
     stroke="#000000"
     stroke-width="2.4"
     id="path2-7"
     style="fill:#ffffff;fill-opacity:0.631373;stroke:#555555;stroke-opacity:1" />
  <path
     d="m 31.148885,7.304937 c 0,-2.074411 2.517375,-3.756052 5.622716,-3.756052 h 14.056796 c 3.105285,0 5.622716,1.681641 5.622716,3.756052 v 9.390129 c 0,2.074374 -2.517431,3.756053 -5.622716,3.756053 H 36.771601 c -3.105341,0 -5.622716,-1.681679 -5.622716,-3.756053 z"
     stroke="#000000"
     stroke-width="2.29777"
     id="path2-7-7"
     style="fill:#ffffff;fill-opacity:1;stroke:#ffffff;stroke-opacity:1" />
  <path
     d="m 17.348885,7.304937 c 0,-2.074411 2.517375,-3.756052 5.622716,-3.756052 h 14.056796 c 3.105285,0 5.622716,1.681641 5.622716,3.756052 v 9.390129 c 0,2.074374 -2.517431,3.756053 -5.622716,3.756053 H 22.971601 c -3.105341,0 -5.622716,-1.681679 -5.622716,-3.756053 z"
     stroke="#000000"
     stroke-width="2.29777"
     id="path2-7-7-11"
     style="fill:#ffffff;fill-opacity:1;stroke:#ffffff;stroke-opacity:1" />
  <path
     d="m 3.548885,7.3049371 c 0,-2.0744114 2.5173751,-3.7560521 5.6227159,-3.7560521 H 23.228398 c 3.105285,0 5.622716,1.6816407 5.622716,3.7560521 v 9.3901289 c 0,2.074374 -2.517431,3.756053 -5.622716,3.756053 H 9.1716009 c -3.1053408,0 -5.6227159,-1.681679 -5.6227159,-3.756053 z"
     stroke="#000000"
     stroke-width="2.29777"
     id="path2-7-7-1"
     style="fill:#ffffff;fill-opacity:1;stroke:#ffffff;stroke-opacity:1" />
  <g
     aria-label=".1"
     id="text2325"
     style="font-size:14px;line-height:1.25;fill:#000000;stroke-width:0.03"
     transform="translate(11.929802,-23.77559)">
    <g
       aria-label="Buy"
       id="text2163"
       style="fill:#555555;stroke-width:0.0009">
      <path
         d="m 12.622368,36.629673 q 0,0.738281 -0.300781,1.319336 -0.293946,0.581055 -0.813477,0.963867 -0.601562,0.451172 -1.326172,0.642578 -0.7177733,0.191407 -1.8251951,0.191407 H 3.9133835 V 29.56815 h 3.9511719 q 1.2304687,0 1.7978515,0.08203 0.5742191,0.08203 1.1347661,0.362305 0.581054,0.293945 0.861328,0.792968 0.287109,0.492188 0.287109,1.12793 0,0.738281 -0.389648,1.305664 -0.389649,0.560547 -1.100586,0.875 v 0.05469 q 0.998047,0.198242 1.579101,0.820312 0.587891,0.62207 0.587891,1.640625 z M 9.2590866,32.446079 q 0,-0.252929 -0.1298828,-0.505859 Q 9.0061569,31.68729 8.6848679,31.564243 8.3977585,31.454868 7.9670944,31.448032 7.5432663,31.434361 6.7708054,31.434361 H 6.5247116 v 2.15332 h 0.4101563 q 0.6220703,0 1.0595703,-0.02051 0.4375,-0.02051 0.6904297,-0.136719 0.3554687,-0.157226 0.4648437,-0.40332 0.109375,-0.25293 0.109375,-0.581055 z m 0.6425781,4.142578 q 0,-0.485351 -0.1914062,-0.745117 -0.1845703,-0.266601 -0.6357422,-0.396484 -0.3076172,-0.08887 -0.8476563,-0.0957 -0.540039,-0.0068 -1.1279296,-0.0068 H 6.5247116 v 2.536133 h 0.1914063 q 1.1074218,0 1.5859375,-0.0068 0.4785156,-0.0068 0.8818359,-0.177735 0.4101562,-0.170898 0.5605469,-0.451172 0.1572265,-0.287109 0.1572265,-0.65625 z"
         style="font-weight:bold;-inkscape-font-specification:'sans-serif Bold'"
         id="path13206" />
      <path
         d="m 22.090141,39.746861 h -2.460937 v -0.847657 q -0.683594,0.519532 -1.250977,0.792969 -0.567383,0.266602 -1.353515,0.266602 -1.271485,0 -1.961914,-0.731446 -0.683594,-0.731445 -0.683594,-2.160156 v -4.99707 h 2.474609 v 3.807617 q 0,0.581055 0.03418,0.970703 0.04101,0.382813 0.177734,0.635742 0.129883,0.25293 0.389649,0.369141 0.266601,0.116211 0.738281,0.116211 0.314453,0 0.697266,-0.116211 0.382812,-0.116211 0.738281,-0.341797 v -5.441406 h 2.460937 z"
         style="font-weight:bold;-inkscape-font-specification:'sans-serif Bold'"
         id="path13208" />
      <path
         d="m 27.88018,37.032993 1.75,-4.96289 h 2.529297 l -4.265625,10.493164 h -2.666015 l 1.216796,-2.871094 -2.987304,-7.62207 h 2.583984 z"
         style="font-weight:bold;-inkscape-font-specification:'sans-serif Bold'"
         id="path13210" />
    </g>
  </g>
</svg>
