<?xml version="1.0" encoding="UTF-8" standalone="no"?>
<!-- Created with Inkscape (http://www.inkscape.org/) -->

<svg
   width="500"
   height="500"
   viewBox="0 0 132.29167 132.29167"
   version="1.1"
   id="svg58"
   inkscape:version="1.1.2 (b8e25be833, 2022-02-05)"
   sodipodi:docname="circle2.svg"
   xmlns:inkscape="http://www.inkscape.org/namespaces/inkscape"
   xmlns:sodipodi="http://sodipodi.sourceforge.net/DTD/sodipodi-0.dtd"
   xmlns="http://www.w3.org/2000/svg"
   xmlns:svg="http://www.w3.org/2000/svg">
  <sodipodi:namedview
     id="namedview60"
     pagecolor="#ffffff"
     bordercolor="#666666"
     borderopacity="1.0"
     inkscape:pageshadow="2"
     inkscape:pageopacity="0.0"
     inkscape:pagecheckerboard="true"
     inkscape:document-units="px"
     showgrid="false"
     units="px"
     inkscape:zoom="1.1426846"
     inkscape:cx="249.85023"
     inkscape:cy="249.85023"
     inkscape:window-width="1920"
     inkscape:window-height="1001"
     inkscape:window-x="-9"
     inkscape:window-y="-9"
     inkscape:window-maximized="1"
     inkscape:current-layer="layer1" />
  <defs
     id="defs55">
    <inkscape:perspective
       sodipodi:type="inkscape:persp3d"
       inkscape:vp_x="0 : 66.145835 : 1"
       inkscape:vp_y="0 : 1000 : 0"
       inkscape:vp_z="132.29167 : 66.145835 : 1"
       inkscape:persp3d-origin="66.145835 : 44.097223 : 1"
       id="perspective1183" />
  </defs>
  <g
     inkscape:label="Layer 1"
     inkscape:groupmode="layer"
     id="layer1">
    <path
       style="fill:#ffffff;fill-opacity:0.659919;stroke-width:0.258382"
       d="m 66.145835,2.0458701 c 23.118063,0 43.375205,12.2342229 54.651045,30.5822889 5.99297,9.751808 9.44892,21.230663 9.44892,33.51768 0,35.405071 -28.69489,64.099961 -64.099965,64.099961 -35.405075,0 -64.0999649,-28.69489 -64.0999649,-64.099961 0,-35.405079 28.6948899,-64.0999689 64.0999649,-64.0999689 z"
       id="path2"
       sodipodi:nodetypes="ssssss" />
    <path
       d="M 112.91921,19.372461 C 100.42694,6.8799424 83.815558,0 66.145835,0 48.476112,0 31.864723,6.8799424 19.372461,19.372461 6.8802002,31.86498 0,48.476112 0,66.145839 c 0,17.669717 6.8799424,34.281111 19.372461,46.773371 12.492262,12.49252 29.103651,19.37246 46.773374,19.37246 17.669723,0 34.281105,-6.87994 46.773375,-19.37246 12.49252,-12.49226 19.37246,-29.103654 19.37246,-46.773371 0,-16.738946 -6.17421,-32.528117 -17.44518,-44.765388 -0.62673,-0.680462 -1.26921,-1.34994 -1.92728,-2.00799 z m -2.89284,90.653909 c -11.71971,11.71943 -27.303511,18.17382 -43.880535,18.17382 -16.577024,0 -32.160828,-6.45439 -43.880526,-18.17382 C 10.545609,98.306924 4.0914814,82.72286 4.0914814,66.145839 c 0,-0.987598 0.02291,-1.97167 0.068477,-2.951605 C 4.879225,47.725683 11.244068,33.286793 22.265311,22.265309 33.984748,10.545609 49.568811,4.0914814 66.145835,4.0914814 c 16.577024,0 32.160825,6.4543866 43.880535,18.1738276 11.71969,11.719439 18.17382,27.303502 18.17382,43.88053 0,16.577021 -6.45439,32.160821 -18.17382,43.880531 z"
       id="path4"
       sodipodi:nodetypes="cssscscssccssssssssc"
       style="fill:#e3dbdb;fill-opacity:0.663968;stroke-width:0.258382" />
    <g
       id="g8"
       transform="scale(0.25838217)" />
    <g
       id="g10"
       transform="scale(0.25838217)" />
    <g
       id="g12"
       transform="scale(0.25838217)" />
    <g
       id="g14"
       transform="scale(0.25838217)" />
    <g
       id="g16"
       transform="scale(0.25838217)" />
    <g
       id="g18"
       transform="scale(0.25838217)" />
    <g
       id="g20"
       transform="scale(0.25838217)" />
    <g
       id="g22"
       transform="scale(0.25838217)" />
    <g
       id="g24"
       transform="scale(0.25838217)" />
    <g
       id="g26"
       transform="scale(0.25838217)" />
    <g
       id="g28"
       transform="scale(0.25838217)" />
    <g
       id="g30"
       transform="scale(0.25838217)" />
    <g
       id="g32"
       transform="scale(0.25838217)" />
    <g
       id="g34"
       transform="scale(0.25838217)" />
    <g
       id="g36"
       transform="scale(0.25838217)" />
    <path
       style="fill:#ffffff;fill-opacity:0.659919;stroke-width:0.258382"
       d="m 66.145835,2.0458701 c 23.118063,0 43.375205,12.2342229 54.651045,30.5822889 5.99297,9.751808 9.44892,21.230663 9.44892,33.51768 0,35.405071 -28.69489,64.099961 -64.099965,64.099961 -35.405075,0 -64.0999649,-28.69489 -64.0999649,-64.099961 0,-35.405079 28.6948899,-64.0999689 64.0999649,-64.0999689 z"
       id="path1028"
       sodipodi:nodetypes="ssssss" />
    <path
       d="M 112.91921,19.372461 C 100.42694,6.8799424 83.815558,0 66.145835,0 48.476112,0 31.864723,6.8799424 19.372461,19.372461 6.8802002,31.86498 0,48.476112 0,66.145839 c 0,17.669717 6.8799424,34.281111 19.372461,46.773371 12.492262,12.49252 29.103651,19.37246 46.773374,19.37246 17.669723,0 34.281105,-6.87994 46.773375,-19.37246 12.49252,-12.49226 19.37246,-29.103654 19.37246,-46.773371 0,-16.738946 -6.17421,-32.528117 -17.44518,-44.765388 -0.62673,-0.680462 -1.26921,-1.34994 -1.92728,-2.00799 z m -2.89284,90.653909 c -11.71971,11.71943 -27.303511,18.17382 -43.880535,18.17382 -16.577024,0 -32.160828,-6.45439 -43.880526,-18.17382 C 10.545609,98.306924 4.0914814,82.72286 4.0914814,66.145839 c 0,-0.987598 0.02291,-1.97167 0.068477,-2.951605 C 4.879225,47.725683 11.244068,33.286793 22.265311,22.265309 33.984748,10.545609 49.568811,4.0914814 66.145835,4.0914814 c 16.577024,0 32.160825,6.4543866 43.880535,18.1738276 11.71969,11.719439 18.17382,27.303502 18.17382,43.88053 0,16.577021 -6.45439,32.160821 -18.17382,43.880531 z"
       id="path1030"
       sodipodi:nodetypes="cssscscssccssssssssc"
       style="fill:#e3dbdb;fill-opacity:0.663968;stroke-width:0.258382" />
    <g
       id="g1032"
       transform="scale(0.25838217)" />
    <g
       id="g1034"
       transform="scale(0.25838217)" />
    <g
       id="g1036"
       transform="scale(0.25838217)" />
    <g
       id="g1038"
       transform="scale(0.25838217)" />
    <g
       id="g1040"
       transform="scale(0.25838217)" />
    <g
       id="g1042"
       transform="scale(0.25838217)" />
    <g
       id="g1044"
       transform="scale(0.25838217)" />
    <g
       id="g1046"
       transform="scale(0.25838217)" />
    <g
       id="g1048"
       transform="scale(0.25838217)" />
    <g
       id="g1050"
       transform="scale(0.25838217)" />
    <g
       id="g1052"
       transform="scale(0.25838217)" />
    <g
       id="g1054"
       transform="scale(0.25838217)" />
    <g
       id="g1056"
       transform="scale(0.25838217)" />
    <g
       id="g1058"
       transform="scale(0.25838217)" />
    <g
       id="g1060"
       transform="scale(0.25838217)" />
    <path
       style="fill:#ffffff;fill-opacity:0.659919;stroke-width:0.258382"
       d="m 66.145835,2.0458701 c 23.118063,0 43.375205,12.2342229 54.651045,30.5822889 5.99297,9.751808 9.44892,21.230663 9.44892,33.51768 0,35.405071 -28.69489,64.099961 -64.099965,64.099961 -35.405075,0 -64.0999649,-28.69489 -64.0999649,-64.099961 0,-35.405079 28.6948899,-64.0999689 64.0999649,-64.0999689 z"
       id="path1062"
       sodipodi:nodetypes="ssssss" />
    <path
       d="M 112.91921,19.372461 C 100.42694,6.8799424 83.815558,0 66.145835,0 48.476112,0 31.864723,6.8799424 19.372461,19.372461 6.8802002,31.86498 0,48.476112 0,66.145839 c 0,17.669717 6.8799424,34.281111 19.372461,46.773371 12.492262,12.49252 29.103651,19.37246 46.773374,19.37246 17.669723,0 34.281105,-6.87994 46.773375,-19.37246 12.49252,-12.49226 19.37246,-29.103654 19.37246,-46.773371 0,-16.738946 -6.17421,-32.528117 -17.44518,-44.765388 -0.62673,-0.680462 -1.26921,-1.34994 -1.92728,-2.00799 z m -2.89284,90.653909 c -11.71971,11.71943 -27.303511,18.17382 -43.880535,18.17382 -16.577024,0 -32.160828,-6.45439 -43.880526,-18.17382 C 10.545609,98.306924 4.0914814,82.72286 4.0914814,66.145839 c 0,-0.987598 0.02291,-1.97167 0.068477,-2.951605 C 4.879225,47.725683 11.244068,33.286793 22.265311,22.265309 33.984748,10.545609 49.568811,4.0914814 66.145835,4.0914814 c 16.577024,0 32.160825,6.4543866 43.880535,18.1738276 11.71969,11.719439 18.17382,27.303502 18.17382,43.88053 0,16.577021 -6.45439,32.160821 -18.17382,43.880531 z"
       id="path1064"
       sodipodi:nodetypes="cssscscssccssssssssc"
       style="fill:#e3dbdb;fill-opacity:0.663968;stroke-width:0.258382" />
    <g
       id="g1066"
       transform="scale(0.25838217)" />
    <g
       id="g1068"
       transform="scale(0.25838217)" />
    <g
       id="g1070"
       transform="scale(0.25838217)" />
    <g
       id="g1072"
       transform="scale(0.25838217)" />
    <g
       id="g1074"
       transform="scale(0.25838217)" />
    <g
       id="g1076"
       transform="scale(0.25838217)" />
    <g
       id="g1078"
       transform="scale(0.25838217)" />
    <g
       id="g1080"
       transform="scale(0.25838217)" />
    <g
       id="g1082"
       transform="scale(0.25838217)" />
    <g
       id="g1084"
       transform="scale(0.25838217)" />
    <g
       id="g1086"
       transform="scale(0.25838217)" />
    <g
       id="g1088"
       transform="scale(0.25838217)" />
    <g
       id="g1090"
       transform="scale(0.25838217)" />
    <g
       id="g1092"
       transform="scale(0.25838217)" />
    <g
       id="g1094"
       transform="scale(0.25838217)" />
  </g>
</svg>
