<?xml version="1.0" encoding="UTF-8" standalone="no"?>
<!-- Uploaded to: SVG Repo, www.svgrepo.com, Generator: SVG Repo Mixer Tools -->

<svg
   width="800px"
   height="800px"
   viewBox="0 0 24 24"
   fill="none"
   version="1.1"
   id="svg4"
   sodipodi:docname="competition_white.svg"
   inkscape:version="1.1.2 (b8e25be833, 2022-02-05)"
   xmlns:inkscape="http://www.inkscape.org/namespaces/inkscape"
   xmlns:sodipodi="http://sodipodi.sourceforge.net/DTD/sodipodi-0.dtd"
   xmlns="http://www.w3.org/2000/svg"
   xmlns:svg="http://www.w3.org/2000/svg">
  <defs
     id="defs8" />
  <sodipodi:namedview
     id="namedview6"
     pagecolor="#ffffff"
     bordercolor="#666666"
     borderopacity="1.0"
     inkscape:pageshadow="2"
     inkscape:pageopacity="0.0"
     inkscape:pagecheckerboard="0"
     showgrid="false"
     inkscape:zoom="0.505"
     inkscape:cx="400.9901"
     inkscape:cy="399.0099"
     inkscape:window-width="1920"
     inkscape:window-height="1001"
     inkscape:window-x="-9"
     inkscape:window-y="-9"
     inkscape:window-maximized="1"
     inkscape:current-layer="svg4" />
  <path
     fill-rule="evenodd"
     clip-rule="evenodd"
     d="M 4.3636364,3.2727273 C 4.3636364,1.4652545 5.8288909,0 7.6363636,0 h 8.7271634 c 1.807528,0 3.272837,1.4652436 3.272837,3.2727273 h 1.090909 C 22.5348,3.2727273 24,4.7379818 24,6.5454545 v 0.704651 c 0,1.33824 -0.8148,2.5416435 -2.057236,3.0386945 l -3.363491,1.345309 c -0.474,0.872073 -1.170546,1.752982 -2.190109,2.432727 -0.886255,0.590728 -1.975637,1.002109 -3.298255,1.147746 v 2.239963 h 2.181818 c 1.807528,0 3.272728,1.4652 3.272728,3.272728 v 1.090909 C 18.545455,23.0232 17.568655,24 16.363636,24 H 7.6363636 C 6.4313782,24 5.4545455,23.0232 5.4545455,21.818182 v -1.090909 c 0,-1.807528 1.4652545,-3.272728 3.2727272,-3.272728 H 10.909091 V 15.214582 C 9.58644,15.069055 8.4969818,14.657564 7.6107382,14.066727 6.5911418,13.387091 5.8945636,12.506182 5.4206182,11.634109 L 2.0572691,10.2888 C 0.8147455,9.791749 0,8.5883455 0,7.2501055 V 6.5454545 C 0,4.7379818 1.4652545,3.2727273 3.2727273,3.2727273 Z m 0,2.1818182 H 3.2727273 c -0.6024873,0 -1.0909091,0.4884218 -1.0909091,1.090909 v 0.704651 c 0,0.4460836 0.2715818,0.8472218 0.6857563,1.0128872 L 4.4935309,8.9133818 C 4.4202982,8.4941236 4.3643236,8.0641527 4.3636364,7.6374982 Z M 19.636364,7.6363636 V 5.4545455 h 1.090909 c 0.602509,0 1.090909,0.4884218 1.090909,1.090909 v 0.704651 c 0,0.4460836 -0.271637,0.8472218 -0.685746,1.0128872 l -1.626,0.6504109 c 0.072,-0.4221927 0.129928,-0.8484654 0.129928,-1.27704 z M 7.6363636,2.1818182 c -0.6024872,0 -1.0909091,0.4884218 -1.0909091,1.0909091 v 4.36044 0.00136 c 0,0.00179 0,0.00268 0,0 0.00554,0.2828618 0.040975,0.5665309 0.087426,0.8452255 0.09036,0.5421922 0.2690509,1.2484362 0.6155564,1.9414792 0.3443781,0.6888 0.8438181,1.344328 1.5725563,1.830219 0.7219088,0.4812 1.7334428,0.839454 3.1790068,0.839454 1.445455,0 2.456946,-0.358254 3.178909,-0.839564 0.728727,-0.485781 1.228146,-1.141309 1.572546,-1.830109 0.346581,-0.693054 0.525272,-1.399298 0.6156,-1.9414901 0.04647,-0.279 0.07985,-0.5614037 0.08749,-0.8443746 v -4.36264 c 0,-0.6024873 -0.488509,-1.0909091 -1.091018,-1.0909091 z M 8.7272727,19.636364 c -0.6024872,0 -1.0909091,0.4884 -1.0909091,1.090909 v 1.090909 h 8.7272724 v -1.090909 c 0,-0.602509 -0.4884,-1.090909 -1.090909,-1.090909 z"
     fill="#0f0f0f"
     id="path2"
     style="stroke-width:1.09091;fill:#ffffff;fill-opacity:1" />
</svg>
