<?xml version="1.0" encoding="UTF-8" standalone="no"?>
<!-- Uploaded to: SVG Repo, www.svgrepo.com, Generator: SVG Repo Mixer Tools -->

<svg
   fill="#000000"
   width="800px"
   height="800px"
   viewBox="0 0 512 512"
   version="1.1"
   id="svg8"
   sodipodi:docname="crafting_white.svg"
   inkscape:version="1.1.2 (b8e25be833, 2022-02-05)"
   xmlns:inkscape="http://www.inkscape.org/namespaces/inkscape"
   xmlns:sodipodi="http://sodipodi.sourceforge.net/DTD/sodipodi-0.dtd"
   xmlns="http://www.w3.org/2000/svg"
   xmlns:svg="http://www.w3.org/2000/svg">
  <defs
     id="defs12" />
  <sodipodi:namedview
     id="namedview10"
     pagecolor="#ffffff"
     bordercolor="#666666"
     borderopacity="1.0"
     inkscape:pageshadow="2"
     inkscape:pageopacity="0.0"
     inkscape:pagecheckerboard="0"
     showgrid="false"
     inkscape:zoom="0.505"
     inkscape:cx="399.0099"
     inkscape:cy="400.9901"
     inkscape:window-width="1920"
     inkscape:window-height="1001"
     inkscape:window-x="-9"
     inkscape:window-y="-9"
     inkscape:window-maximized="1"
     inkscape:current-layer="svg8" />
  <title
     id="title2">ionicons-v5-i</title>
  <path
     d="M 296.61418,252.77651 240.0951,196.26782 a 12.462862,12.462862 0 0 0 -17.65573,0 L 3.9134756,402.43471 a 12.462862,12.462862 0 0 0 -0.280415,17.86344 l 68.5976704,68.83654 a 12.462862,12.462862 0 0 0 17.884207,-0.23887 L 296.5934,270.42185 a 12.462862,12.462862 0 0 0 0.0208,-17.64534 z"
     id="path4"
     style="fill:#ffffff;fill-opacity:1;stroke:none;stroke-width:1.03857;stroke-opacity:1" />
  <path
     d="m 509.57333,192.98593 -45.58292,-45.26096 a 22.287752,22.287752 0 0 0 -15.86937,-6.50146 22.734338,22.734338 0 0 0 -13.28334,4.29969 c 0,-0.44659 0.0623,-0.88279 0.0935,-1.26706 0.46736,-6.75072 1.19436,-16.94949 -5.40057,-26.19278 a 267.95153,267.95153 0 0 0 -25.75658,-29.848564 0.6231431,0.6231431 0 0 0 -0.0831,-0.0831 C 389.85715,74.50565 359.74896,48.84254 313.62598,30.034004 A 144.9327,144.9327 0 0 0 258.47782,19.2017 c -32.77733,0 -57.70305,14.789263 -67.24753,23.554809 A 55.459736,55.459736 0 0 0 173.7719,75.461136 l 16.61715,10.209161 c 0,0 8.37089,-2.077143 14.3946,-3.520758 a 65.149611,65.149611 0 0 1 19.16165,-1.194358 c 13.69877,1.132044 29.90049,7.934685 37.06663,13.594905 12.15129,9.772964 17.99845,22.942054 18.96432,42.674924 0.20772,4.39316 -9.8872,22.17351 -25.09189,41.3767 a 8.3085747,8.3085747 0 0 0 0.63353,11.02963 l 47.12,47.12001 a 8.3085747,8.3085747 0 0 0 11.42429,0.25964 c 12.53556,-11.42429 31.66606,-29.08001 36.00729,-31.76991 7.98662,-4.91245 13.69876,-5.85755 15.267,-6.02372 a 19.919808,19.919808 0 0 1 11.72548,2.4718 1.2878291,1.2878291 0 0 1 -0.32196,0.98664 l -1.8902,1.79673 -0.31157,0.2908 a 22.350066,22.350066 0 0 0 0.0519,31.71799 l 45.64523,45.36482 a 8.3085747,8.3085747 0 0 0 11.71509,0 l 77.56055,-77.06203 a 8.3085747,8.3085747 0 0 0 0.0623,-11.79818 z"
     id="path6"
     style="fill:#ffffff;fill-opacity:1;stroke:none;stroke-width:1.03857;stroke-opacity:1" />
</svg>
