<?xml version="1.0" encoding="UTF-8" standalone="no"?>
<!-- Uploaded to: SVG Repo, www.svgrepo.com, Generator: SVG Repo Mixer Tools -->

<svg
   fill="#000000"
   width="800px"
   height="800px"
   viewBox="0 0 512 512"
   version="1.1"
   id="svg8"
   sodipodi:docname="crafting.svg"
   inkscape:version="1.1.2 (b8e25be833, 2022-02-05)"
   xmlns:inkscape="http://www.inkscape.org/namespaces/inkscape"
   xmlns:sodipodi="http://sodipodi.sourceforge.net/DTD/sodipodi-0.dtd"
   xmlns="http://www.w3.org/2000/svg"
   xmlns:svg="http://www.w3.org/2000/svg">
  <defs
     id="defs12" />
  <sodipodi:namedview
     id="namedview10"
     pagecolor="#ffffff"
     bordercolor="#666666"
     borderopacity="1.0"
     inkscape:pageshadow="2"
     inkscape:pageopacity="0.0"
     inkscape:pagecheckerboard="0"
     showgrid="false"
     inkscape:zoom="1.01"
     inkscape:cx="399.50495"
     inkscape:cy="400.49505"
     inkscape:window-width="1920"
     inkscape:window-height="1001"
     inkscape:window-x="-9"
     inkscape:window-y="-9"
     inkscape:window-maximized="1"
     inkscape:current-layer="svg8" />
  <title
     id="title2">ionicons-v5-i</title>
  <path
     d="M294.28,256.9l-54.42-54.41a12,12,0,0,0-17,0L12.45,401a12,12,0,0,0-.27,17.2l66.05,66.28a12,12,0,0,0,17.22-.23L294.26,273.89A12,12,0,0,0,294.28,256.9Z"
     id="path4"
     style="stroke:none;stroke-opacity:1;fill:#555555;fill-opacity:1" />
  <path
     d="M499.33,199.33l-43.89-43.58a21.46,21.46,0,0,0-15.28-6.26,21.89,21.89,0,0,0-12.79,4.14c0-.43.06-.85.09-1.22.45-6.5,1.15-16.32-5.2-25.22a258,258,0,0,0-24.8-28.74.6.6,0,0,0-.08-.08c-13.32-13.12-42.31-37.83-86.72-55.94A139.55,139.55,0,0,0,257.56,32C226,32,202,46.24,192.81,54.68A53.4,53.4,0,0,0,176,86.17L192,96s8.06-2,13.86-3.39a62.73,62.73,0,0,1,18.45-1.15C237.5,92.55,253.1,99.1,260,104.55c11.7,9.41,17.33,22.09,18.26,41.09.2,4.23-9.52,21.35-24.16,39.84a8,8,0,0,0,.61,10.62l45.37,45.37a8,8,0,0,0,11,.25c12.07-11,30.49-28,34.67-30.59,7.69-4.73,13.19-5.64,14.7-5.8a19.18,19.18,0,0,1,11.29,2.38,1.24,1.24,0,0,1-.31.95l-1.82,1.73-.3.28a21.52,21.52,0,0,0,.05,30.54l43.95,43.68a8,8,0,0,0,11.28,0l74.68-74.2A8,8,0,0,0,499.33,199.33Z"
     id="path6"
     style="stroke:none;stroke-opacity:1;fill:#555555;fill-opacity:1" />
</svg>
