<?xml version="1.0" encoding="UTF-8" standalone="no"?>
<!-- Uploaded to: SVG Repo, www.svgrepo.com, Generator: SVG Repo Mixer Tools -->

<svg
   version="1.1"
   width="800px"
   height="800px"
   viewBox="0 0 96 96"
   xml:space="preserve"
   id="svg23"
   sodipodi:docname="money.svg"
   inkscape:version="1.1.2 (b8e25be833, 2022-02-05)"
   xmlns:inkscape="http://www.inkscape.org/namespaces/inkscape"
   xmlns:sodipodi="http://sodipodi.sourceforge.net/DTD/sodipodi-0.dtd"
   xmlns="http://www.w3.org/2000/svg"
   xmlns:svg="http://www.w3.org/2000/svg"><defs
   id="defs27">
	
	
	
	
	
</defs><sodipodi:namedview
   id="namedview25"
   pagecolor="#ffffff"
   bordercolor="#666666"
   borderopacity="1.0"
   inkscape:pageshadow="2"
   inkscape:pageopacity="0.0"
   inkscape:pagecheckerboard="0"
   showgrid="false"
   inkscape:zoom="1.01"
   inkscape:cx="399.50495"
   inkscape:cy="400.49505"
   inkscape:window-width="1920"
   inkscape:window-height="1001"
   inkscape:window-x="-9"
   inkscape:window-y="-9"
   inkscape:window-maximized="1"
   inkscape:current-layer="svg23" />
<style
   type="text/css"
   id="style2">
	.st0{fill:#353535;}
	.st1{fill:#FFFFFF;}
	.st2{fill:#FFBD1A;}
	.st3{fill:none;stroke:#353535;stroke-width:6;stroke-linecap:round;stroke-miterlimit:10;}
	.st4{fill:none;stroke:#353535;stroke-width:6;stroke-linecap:round;stroke-linejoin:round;stroke-miterlimit:10;}
	.st5{fill:#FFBD1A;stroke:#353535;stroke-width:6;stroke-linecap:round;stroke-miterlimit:10;}
</style>
<g
   id="guides_1_"
   style="fill:none;fill-opacity:1;stroke:#555555;stroke-opacity:1">
</g>
<g
   id="Mug"
   style="fill:none;fill-opacity:1;stroke:#555555;stroke-opacity:1">
</g>
<g
   id="Mug_2"
   style="fill:none;fill-opacity:1;stroke:#555555;stroke-opacity:1">
</g>
<g
   id="Can"
   style="fill:none;fill-opacity:1;stroke:#555555;stroke-opacity:1">
</g>
<g
   id="g10"
   style="fill:none;fill-opacity:1;stroke:#555555;stroke-opacity:1">
		<path
   class="st4"
   d="m 45,4.7 c 1.6,-1.5 4.3,-1.5 5.9,0 l 1.8,1.7 c 1.6,1.5 4.7,2.1 6.7,1.3 l 2.3,-0.8 c 2.1,-0.7 4.5,0.3 5.5,2.3 l 1.1,2.2 c 0.9,2 3.5,3.7 5.7,3.8 l 2.5,0.1 c 2.2,0.1 4.1,2 4.2,4.2 l 0.1,2.5 c 0.1,2.2 1.8,4.8 3.8,5.7 l 2.2,1.1 c 2,0.9 3,3.4 2.3,5.5 l -0.8,2.3 c -0.7,2.1 -0.1,5.1 1.3,6.7 l 1.7,1.8 c 1.5,1.6 1.5,4.3 0,5.9 l -1.7,1.8 c -1.5,1.6 -2.1,4.7 -1.3,6.7 l 0.8,2.3 c 0.7,2.1 -0.3,4.5 -2.3,5.5 l -2.2,1.1 c -2,0.9 -3.7,3.5 -3.8,5.7 l -0.1,2.5 c -0.1,2.2 -2,4.1 -4.2,4.2 L 74,80.9 c -2.2,0.1 -4.8,1.8 -5.7,3.8 l -1.1,2.2 c -0.9,2 -3.4,3 -5.5,2.3 l -2.3,-0.8 c -2.1,-0.7 -5.1,-0.1 -6.7,1.3 L 51,91.3 c -1.6,1.5 -4.3,1.5 -5.9,0 l -1.8,-1.7 c -1.6,-1.5 -4.7,-2.1 -6.7,-1.3 l -2.3,0.8 c -2.1,0.7 -4.5,-0.3 -5.5,-2.3 l -1.1,-2.2 c -0.9,-2 -3.5,-3.7 -5.7,-3.8 l -2.5,-0.1 c -2.2,-0.1 -4.1,-2 -4.2,-4.2 L 15.2,74 C 15.1,71.8 13.4,69.2 11.4,68.3 L 9.2,67.2 c -2,-0.9 -3,-3.4 -2.3,-5.5 L 7.7,59.4 C 8.4,57.3 7.8,54.3 6.4,52.7 L 4.7,51 C 3.2,49.4 3.2,46.7 4.7,45.1 L 6.4,43.3 C 7.9,41.7 8.5,38.6 7.7,36.6 L 6.9,34.3 C 6.2,32.2 7.2,29.8 9.2,28.8 l 2.2,-1.1 c 2,-0.9 3.7,-3.5 3.8,-5.7 l 0.1,-2.5 c 0.1,-2.2 2,-4.1 4.2,-4.2 L 22,15.2 c 2.2,-0.1 4.8,-1.8 5.7,-3.8 l 1.1,-2.2 c 0.9,-2 3.4,-3 5.5,-2.3 l 2.3,0.8 c 2.1,0.7 5.1,0.1 6.7,-1.3 z"
   id="path8"
   style="fill:none;fill-opacity:1;stroke:#555555;stroke-opacity:1" />
	</g><path
   class="st3"
   d="M 79,48 C 79,65.1 65.1,79 48,79 30.9,79 17,65.1 17,48"
   id="path12"
   style="fill:none;fill-opacity:1;stroke:#555555;stroke-opacity:1" /><path
   class="st3"
   d="m 18.6,38.1 c 0.4,-1.3 0.9,-2.5 1.5,-3.7"
   id="path14"
   style="fill:none;fill-opacity:1;stroke:#555555;stroke-opacity:1" /><path
   class="st3"
   d="m 48,17 c 11.8,0 22,6.6 27.3,16.2 0.5,1 1,2 1.4,3 0.2,0.5 0.4,0.9 0.5,1.4"
   id="path16"
   style="fill:none;fill-opacity:1;stroke:#555555;stroke-opacity:1" />
<g
   id="Hop"
   style="fill:none;fill-opacity:1;stroke:#555555;stroke-opacity:1">
</g>
<g
   id="Barley"
   style="fill:none;fill-opacity:1;stroke:#555555;stroke-opacity:1">
</g>
</svg>
