<?xml version="1.0" encoding="UTF-8" standalone="no"?>
<!-- Uploaded to: SVG Repo, www.svgrepo.com, Generator: SVG Repo Mixer Tools -->

<svg
   width="800px"
   height="800px"
   viewBox="0 0 24 24"
   fill="none"
   version="1.1"
   id="svg4"
   sodipodi:docname="dislike.svg"
   inkscape:version="1.1.2 (b8e25be833, 2022-02-05)"
   xmlns:inkscape="http://www.inkscape.org/namespaces/inkscape"
   xmlns:sodipodi="http://sodipodi.sourceforge.net/DTD/sodipodi-0.dtd"
   xmlns="http://www.w3.org/2000/svg"
   xmlns:svg="http://www.w3.org/2000/svg">
  <defs
     id="defs8" />
  <sodipodi:namedview
     id="namedview6"
     pagecolor="#ffffff"
     bordercolor="#666666"
     borderopacity="1.0"
     inkscape:pageshadow="2"
     inkscape:pageopacity="0.0"
     inkscape:pagecheckerboard="0"
     showgrid="false"
     inkscape:zoom="1.01"
     inkscape:cx="399.50495"
     inkscape:cy="400.49505"
     inkscape:window-width="1920"
     inkscape:window-height="1001"
     inkscape:window-x="-9"
     inkscape:window-y="-9"
     inkscape:window-maximized="1"
     inkscape:current-layer="svg4" />
  <path
     fill-rule="evenodd"
     clip-rule="evenodd"
     d="M8.1 20.5c0 1.5 1.482 2.5 2.64 2.5.806 0 .869-.613.993-1.82.055-.53.121-1.174.267-1.93.386-2.002 1.72-4.56 2.996-5.325V8C15 5.75 14.25 5 11 5H7.227C5.051 5 4.524 6.432 4.328 6.964A15.85 15.85 0 0 1 4.315 7c-.114.306-.358.546-.638.82-.31.306-.664.653-.927 1.18-.311.623-.27 1.177-.233 1.67.023.299.044.575-.017.83-.064.27-.146.475-.225.671-.143.356-.275.686-.275 1.329 0 1.5.748 2.498 2.315 2.498H8.5S8.1 19 8.1 20.5zM18.5 15a1.5 1.5 0 0 0 1.5-1.5v-7a1.5 1.5 0 0 0-3 0v7a1.5 1.5 0 0 0 1.5 1.5z"
     fill="#000000"
     id="path2"
     style="fill:#800000" />
</svg>
