<?xml version="1.0" encoding="UTF-8" standalone="no"?>
<!-- Uploaded to: SVG Repo, www.svgrepo.com, Transformed by: SVG Repo Mixer Tools -->

<svg
   width="800px"
   height="800px"
   viewBox="0 0 16 16"
   fill="none"
   version="1.1"
   id="svg8"
   sodipodi:docname="edit.svg"
   inkscape:version="1.1.2 (b8e25be833, 2022-02-05)"
   xmlns:inkscape="http://www.inkscape.org/namespaces/inkscape"
   xmlns:sodipodi="http://sodipodi.sourceforge.net/DTD/sodipodi-0.dtd"
   xmlns="http://www.w3.org/2000/svg"
   xmlns:svg="http://www.w3.org/2000/svg">
  <defs
     id="defs12" />
  <sodipodi:namedview
     id="namedview10"
     pagecolor="#ffffff"
     bordercolor="#666666"
     borderopacity="1.0"
     inkscape:pageshadow="2"
     inkscape:pageopacity="0.0"
     inkscape:pagecheckerboard="0"
     showgrid="false"
     inkscape:zoom="1.01"
     inkscape:cx="399.50495"
     inkscape:cy="400.49505"
     inkscape:window-width="1920"
     inkscape:window-height="1001"
     inkscape:window-x="-9"
     inkscape:window-y="-9"
     inkscape:window-maximized="1"
     inkscape:current-layer="svg8" />
  <g
     fill="#000000"
     id="g6"
     style="fill:#f1f1f1;fill-opacity:1">
    <path
       fill-rule="evenodd"
       d="M11.436 1.005A1.75 1.75 0 0113.902.79l.702.589a1.75 1.75 0 01.216 2.465l-5.704 6.798a4.75 4.75 0 01-1.497 1.187l-2.572 1.299a.75.75 0 01-1.056-.886l.833-2.759a4.75 4.75 0 01.908-1.68l5.704-6.798zm1.502.934a.25.25 0 00-.353.03l-.53.633 1.082.914.534-.636a.25.25 0 00-.031-.352l-.703-.59zm-.765 2.726l-1.082-.914-4.21 5.016a3.25 3.25 0 00-.621 1.15L5.933 11l1.01-.51a3.249 3.249 0 001.024-.812l4.206-5.013z"
       clip-rule="evenodd"
       id="path2"
       style="fill:#f1f1f1;fill-opacity:1" />
    <path
       d="M3.25 3.5a.75.75 0 00-.75.75v9.5c0 .414.336.75.75.75h9.5a.75.75 0 00.75-.75V9A.75.75 0 0115 9v4.75A2.25 2.25 0 0112.75 16h-9.5A2.25 2.25 0 011 13.75v-9.5A2.25 2.25 0 013.25 2H6a.75.75 0 010 1.5H3.25z"
       id="path4"
       style="fill:#f1f1f1;fill-opacity:1" />
  </g>
</svg>
