<?xml version="1.0" encoding="UTF-8" standalone="no"?>
<!-- Created with Inkscape (http://www.inkscape.org/) -->

<svg
   width="500"
   height="500"
   viewBox="0 0 132.29167 132.29167"
   version="1.1"
   id="svg58"
   inkscape:version="1.1.2 (b8e25be833, 2022-02-05)"
   sodipodi:docname="eight_stamp.svg"
   xmlns:inkscape="http://www.inkscape.org/namespaces/inkscape"
   xmlns:sodipodi="http://sodipodi.sourceforge.net/DTD/sodipodi-0.dtd"
   xmlns="http://www.w3.org/2000/svg"
   xmlns:svg="http://www.w3.org/2000/svg">
  <sodipodi:namedview
     id="namedview60"
     pagecolor="#ffffff"
     bordercolor="#666666"
     borderopacity="1.0"
     inkscape:pageshadow="2"
     inkscape:pageopacity="0.0"
     inkscape:pagecheckerboard="true"
     inkscape:document-units="px"
     showgrid="false"
     units="px"
     inkscape:zoom="1"
     inkscape:cx="94.5"
     inkscape:cy="261.5"
     inkscape:window-width="1920"
     inkscape:window-height="1001"
     inkscape:window-x="-9"
     inkscape:window-y="-9"
     inkscape:window-maximized="1"
     inkscape:current-layer="g4908"
     showguides="false" />
  <defs
     id="defs55" />
  <g
     inkscape:label="Layer 1"
     inkscape:groupmode="layer"
     id="g4447"
     style="display:inline">
    <ellipse
       style="fill:none;fill-opacity:1;stroke:#777777;stroke-width:2.59917;stroke-miterlimit:4;stroke-dasharray:none;stroke-opacity:1"
       id="ellipse4425"
       cx="66.145836"
       cy="66.145828"
       rx="64.846252"
       ry="64.846245" />
    <circle
       style="fill:none;fill-opacity:1;stroke:#777777;stroke-width:7.77241;stroke-miterlimit:4;stroke-dasharray:none;stroke-opacity:1"
       id="circle4427"
       cx="66.145836"
       cy="66.145836"
       r="60.936714" />
    <g
       id="g67"
       transform="matrix(0.31749999,0,0,0.31749984,-291.99693,-301.96867)"
       style="display:inline;fill:#b3b3b3;fill-opacity:1">
      <g
         id="g61"
         style="fill:#b3b3b3;fill-opacity:1">
        <path
           d="m 1078.7,1114.6 c -1.1,-7.1 -6.2,-16.3 -12.9,-19.4 -12.5,-5.6 -25.2,6.3 -18.5,19 0.9,1.7 2.2,3.1 3.4,4.5 0.1,0.1 0.1,0.1 0.1,0.1 0.2,0.3 0.5,0.7 0.7,1 0.4,0.6 0.7,1.3 1,2 -1,-2.1 0.4,1.5 0.6,2.2 0.2,0.8 0.4,1.6 0.5,2.4 -0.4,-2.1 0.5,4.5 0.7,6.1 -0.4,-2.8 -0.3,0.8 -0.3,1.3 -0.1,0.7 -0.1,1.4 -0.2,2.1 0,0.2 -0.1,0.4 -0.1,0.7 -1.9,12.2 -6.4,24 -11.2,35.3 -5.8,13.8 -12.8,26.9 -19.3,40.4 -3.7,7.6 -8.2,14.4 -12.6,21.6 -4.4,7.2 -8.3,15 -11.9,22.6 -0.7,1.5 1.5,3 2.7,1.8 6.5,-6.5 13.4,-12.9 19.2,-20.1 6.1,-7.6 12.6,-14.7 18.6,-22.3 9.4,-12.1 16.6,-25.6 23.5,-39.2 6.4,-12.6 12.6,-25.9 15.2,-39.8 1.4,-7.7 2.1,-14.3 0.8,-22.3 z"
           id="path59"
           style="fill:#b3b3b3;fill-opacity:1" />
      </g>
      <g
         id="g65"
         style="fill:#b3b3b3;fill-opacity:1">
        <path
           d="m 1275.8,1228.8 c -2.6,-0.5 -4.5,-1.7 -7,-2.6 -2.8,-1 -5.9,-1.3 -8.8,-2 -6.1,-1.4 -12.1,-3.7 -17.8,-6.4 -5.5,-2.6 -10.8,-5.7 -15.9,-9 -3,-1.9 -5,-3.7 -7.6,-5.5 -2.2,-1.5 -6.3,-4.4 -7.3,-5.2 -10,-8.2 -19.3,-17.3 -28.1,-26.9 -1.9,-2 -3.7,-4.2 -5.5,-6.3 0.1,0.1 -1.9,-2.3 -1.9,-2.4 -0.9,-1.2 -1.9,-2.4 -2.8,-3.6 -3.9,-5.2 -7.4,-10.6 -10.9,-16 -1.5,-2.3 -2.9,-4.6 -4.2,-7.1 -0.3,-0.7 -0.6,-1.3 -1,-2 -0.4,-1 -1.3,-3 -1.6,-3.7 -3.1,-7.3 -6.1,-14.7 -9.2,-22.1 -7.1,-17 -15.3,-35.4 -28.1,-48.9 -5.8,-6.1 -12.4,-11.1 -20.1,-14.6 -2.8,-1.3 -6.6,-1.5 -9.7,-1.4 -3.3,0.2 -6.5,2.8 -9.2,4.3 -1.3,0.7 -0.7,2.8 0.8,2.5 4.9,-0.9 9.9,3.7 12.8,6.8 2,2.2 2.9,3.7 4.6,6.8 0.9,1.6 1.6,3.2 2.4,4.8 0.4,0.9 0.8,1.7 1.1,2.6 0.5,1.2 0.5,1.2 0,0.1 0.2,0.6 0.5,1.2 0.7,1.8 1,2.5 1.9,5 3,7.5 0.4,0.9 0.9,1.9 1.3,2.8 0.1,0.2 0.5,1.1 0.7,1.6 1.7,4 3.2,8.1 4.7,12.3 3,8.4 5.9,16.8 8.8,25.2 5.1,14.6 9.6,29.5 18.3,42.5 15.1,22.5 34.3,42.7 57.8,56.3 11.9,6.9 24.6,11.9 38.2,14.6 6.7,1.3 13.4,2.1 20.2,2.4 3.5,0.1 7.1,0.2 10.6,0 3.6,-0.2 6.7,-2.2 10.2,-3.1 2.9,-0.7 3.9,-5.4 0.5,-6.1 z"
           id="path63"
           style="fill:#b3b3b3;fill-opacity:1" />
      </g>
    </g>
  </g>
  <g
     inkscape:label="Layer 1 copy"
     inkscape:groupmode="layer"
     id="g4908"
     style="display:inline">
    <ellipse
       style="fill:none;fill-opacity:1;stroke:#777777;stroke-width:2.59917;stroke-miterlimit:4;stroke-dasharray:none;stroke-opacity:1"
       id="ellipse4890"
       cx="66.145836"
       cy="66.145828"
       rx="64.846252"
       ry="64.846245" />
    <circle
       style="fill:none;fill-opacity:1;stroke:#777777;stroke-width:7.77241;stroke-miterlimit:4;stroke-dasharray:none;stroke-opacity:1"
       id="circle4892"
       cx="66.145836"
       cy="66.145836"
       r="60.936714" />
    <g
       id="g4906"
       transform="matrix(0.31749999,0,0,0.31749984,-296.75951,-305.67278)"
       style="display:inline;fill:#cc3399;fill-opacity:1;stroke:#ffffff;stroke-width:2.5;stroke-miterlimit:4;stroke-dasharray:none;stroke-opacity:1">
      <g
         id="g4900"
         style="fill:#cc3399;fill-opacity:1;stroke:#ffffff;stroke-width:2.5;stroke-miterlimit:4;stroke-dasharray:none;stroke-opacity:1">
        <path
           d="m 1078.7,1114.6 c -1.1,-7.1 -6.2,-16.3 -12.9,-19.4 -12.5,-5.6 -25.2,6.3 -18.5,19 0.9,1.7 2.2,3.1 3.4,4.5 0.1,0.1 0.1,0.1 0.1,0.1 0.2,0.3 0.5,0.7 0.7,1 0.4,0.6 0.7,1.3 1,2 -1,-2.1 0.4,1.5 0.6,2.2 0.2,0.8 0.4,1.6 0.5,2.4 -0.4,-2.1 0.5,4.5 0.7,6.1 -0.4,-2.8 -0.3,0.8 -0.3,1.3 -0.1,0.7 -0.1,1.4 -0.2,2.1 0,0.2 -0.1,0.4 -0.1,0.7 -1.9,12.2 -6.4,24 -11.2,35.3 -5.8,13.8 -12.8,26.9 -19.3,40.4 -3.7,7.6 -8.2,14.4 -12.6,21.6 -4.4,7.2 -8.3,15 -11.9,22.6 -0.7,1.5 1.5,3 2.7,1.8 6.5,-6.5 13.4,-12.9 19.2,-20.1 6.1,-7.6 12.6,-14.7 18.6,-22.3 9.4,-12.1 16.6,-25.6 23.5,-39.2 6.4,-12.6 12.6,-25.9 15.2,-39.8 1.4,-7.7 2.1,-14.3 0.8,-22.3 z"
           id="path4898"
           style="fill:#cc3399;fill-opacity:1;stroke:#ffffff;stroke-width:2.5;stroke-miterlimit:4;stroke-dasharray:none;stroke-opacity:1" />
      </g>
      <g
         id="g4904"
         style="fill:#cc3399;fill-opacity:1;stroke:#ffffff;stroke-width:2.5;stroke-miterlimit:4;stroke-dasharray:none;stroke-opacity:1">
        <path
           d="m 1275.8,1228.8 c -2.6,-0.5 -4.5,-1.7 -7,-2.6 -2.8,-1 -5.9,-1.3 -8.8,-2 -6.1,-1.4 -12.1,-3.7 -17.8,-6.4 -5.5,-2.6 -10.8,-5.7 -15.9,-9 -3,-1.9 -5,-3.7 -7.6,-5.5 -2.2,-1.5 -6.3,-4.4 -7.3,-5.2 -10,-8.2 -19.3,-17.3 -28.1,-26.9 -1.9,-2 -3.7,-4.2 -5.5,-6.3 0.1,0.1 -1.9,-2.3 -1.9,-2.4 -0.9,-1.2 -1.9,-2.4 -2.8,-3.6 -3.9,-5.2 -7.4,-10.6 -10.9,-16 -1.5,-2.3 -2.9,-4.6 -4.2,-7.1 -0.3,-0.7 -0.6,-1.3 -1,-2 -0.4,-1 -1.3,-3 -1.6,-3.7 -3.1,-7.3 -6.1,-14.7 -9.2,-22.1 -7.1,-17 -15.3,-35.4 -28.1,-48.9 -5.8,-6.1 -12.4,-11.1 -20.1,-14.6 -2.8,-1.3 -6.6,-1.5 -9.7,-1.4 -3.3,0.2 -6.5,2.8 -9.2,4.3 -1.3,0.7 -0.7,2.8 0.8,2.5 4.9,-0.9 9.9,3.7 12.8,6.8 2,2.2 2.9,3.7 4.6,6.8 0.9,1.6 1.6,3.2 2.4,4.8 0.4,0.9 0.8,1.7 1.1,2.6 0.5,1.2 0.5,1.2 0,0.1 0.2,0.6 0.5,1.2 0.7,1.8 1,2.5 1.9,5 3,7.5 0.4,0.9 0.9,1.9 1.3,2.8 0.1,0.2 0.5,1.1 0.7,1.6 1.7,4 3.2,8.1 4.7,12.3 3,8.4 5.9,16.8 8.8,25.2 5.1,14.6 9.6,29.5 18.3,42.5 15.1,22.5 34.3,42.7 57.8,56.3 11.9,6.9 24.6,11.9 38.2,14.6 6.7,1.3 13.4,2.1 20.2,2.4 3.5,0.1 7.1,0.2 10.6,0 3.6,-0.2 6.7,-2.2 10.2,-3.1 2.9,-0.7 3.9,-5.4 0.5,-6.1 z"
           id="path4902"
           style="fill:#cc3399;fill-opacity:1;stroke:#ffffff;stroke-width:2.5;stroke-miterlimit:4;stroke-dasharray:none;stroke-opacity:1" />
      </g>
    </g>
  </g>
</svg>
