<?xml version="1.0" encoding="UTF-8" standalone="no"?>
<!-- Uploaded to: SVG Repo, www.svgrepo.com, Transformed by: SVG Repo Mixer Tools -->

<svg
   fill="#000000"
   version="1.1"
   id="Capa_1"
   width="800px"
   height="800px"
   viewBox="0 0 310.42 310.42"
   xml:space="preserve"
   sodipodi:docname="expedition.svg"
   inkscape:version="1.1.2 (b8e25be833, 2022-02-05)"
   xmlns:inkscape="http://www.inkscape.org/namespaces/inkscape"
   xmlns:sodipodi="http://sodipodi.sourceforge.net/DTD/sodipodi-0.dtd"
   xmlns="http://www.w3.org/2000/svg"
   xmlns:svg="http://www.w3.org/2000/svg"><defs
   id="defs13">
	

		
		
	</defs><sodipodi:namedview
   id="namedview11"
   pagecolor="#ffffff"
   bordercolor="#666666"
   borderopacity="1.0"
   inkscape:pageshadow="2"
   inkscape:pageopacity="0.0"
   inkscape:pagecheckerboard="0"
   showgrid="false"
   inkscape:zoom="0.71417785"
   inkscape:cx="399.76037"
   inkscape:cy="321.34853"
   inkscape:window-width="1920"
   inkscape:window-height="1001"
   inkscape:window-x="-9"
   inkscape:window-y="-9"
   inkscape:window-maximized="1"
   inkscape:current-layer="Capa_1" />
<g
   id="g824"
   style="fill:#555555;fill-opacity:1"><path
     d="m 36.8332,95.45506 c -49.11,49.111 -49.109,129.021 0,178.132 49.111,49.111 129.021,49.111 178.131,0 41.664,-41.664 47.974,-103.629 18.946,-152.017 0,0 -2.085,-3.496 0.731,-6.312 16.064,-16.064 64.262,-64.263 64.262,-64.263 12.791,-12.79 15.837,-30.675 4.494,-42.02 l -1.953,-1.951 c -11.344,-11.345 -29.23,-8.301 -42.02,4.49 0,0 -48.096,48.097 -64.129,64.128 -2.95,2.951 -6.447,0.866 -6.447,0.866 -48.386,-29.026 -110.351,-22.717 -152.015,18.947 z m 154.875,23.255 c 36.288,36.288 36.287,95.332 0,131.62 -36.288,36.287 -95.332,36.288 -131.619,0 -36.288,-36.287 -36.288,-95.332 0,-131.62 36.288,-36.287 95.332,-36.287 131.619,0 z"
     id="path2"
     style="fill:#555555;fill-opacity:1" /><path
     d="m 125.3662,122.24006 c 25.956,0 46.999,22.015 46.999,47.973 0,35.54 -40.313,76.044 -46.999,76.044 -6.807,0 -47.001,-40.261 -47.001,-76.044 0,-25.958 21.043,-47.973 47.001,-47.973 z m -0.001,76.641 c 15.574,0 28.199,-12.626 28.199,-28.2 0,-15.574 -12.625,-28.2 -28.199,-28.2 -15.575,0 -28.2,12.625 -28.2,28.2 0,15.575 12.625,28.2 28.2,28.2 z"
     id="path4"
     style="fill:#555555;fill-opacity:1" /></g>
</svg>
