<?xml version="1.0" encoding="UTF-8" standalone="no"?>
<!-- Uploaded to: SVG Repo, www.svgrepo.com, Generator: SVG Repo Mixer Tools -->

<svg
   width="800px"
   height="800px"
   viewBox="0 0 512 512"
   version="1.1"
   id="svg8"
   sodipodi:docname="expedition_white.svg"
   inkscape:version="1.1.2 (b8e25be833, 2022-02-05)"
   xmlns:inkscape="http://www.inkscape.org/namespaces/inkscape"
   xmlns:sodipodi="http://sodipodi.sourceforge.net/DTD/sodipodi-0.dtd"
   xmlns="http://www.w3.org/2000/svg"
   xmlns:svg="http://www.w3.org/2000/svg">
  <defs
     id="defs12" />
  <sodipodi:namedview
     id="namedview10"
     pagecolor="#ffffff"
     bordercolor="#666666"
     borderopacity="1.0"
     inkscape:pageshadow="2"
     inkscape:pageopacity="0.0"
     inkscape:pagecheckerboard="0"
     showgrid="false"
     inkscape:zoom="0.505"
     inkscape:cx="400.9901"
     inkscape:cy="399.0099"
     inkscape:window-width="1920"
     inkscape:window-height="1001"
     inkscape:window-x="-9"
     inkscape:window-y="-9"
     inkscape:window-maximized="1"
     inkscape:current-layer="svg8" />
  <title
     id="title2">ionicons-v5-l</title>
  <path
     d="m 60.749997,157.44356 c -81.000821,81.00246 -80.999172,212.80404 0,293.8065 81.002473,81.00248 212.804043,81.00248 293.804873,0 68.71956,-68.71956 79.12712,-170.9231 31.24905,-250.73307 0,0 -3.43894,-5.76622 1.2057,-10.41086 26.49556,-26.49556 105.99215,-105.993798 105.99215,-105.993798 21.09716,-21.095513 26.12115,-50.59459 7.4123,-69.306746 l -3.22124,-3.217935 c -18.71051,-18.7121564 -48.21123,-13.6914653 -69.30674,7.405697 0,0 -79.32835,79.329998 -105.77279,105.771132 -4.86566,4.86731 -10.63353,1.42836 -10.63353,1.42836 C 231.67311,78.318072 129.46957,88.723983 60.749997,157.44356 Z m 255.446993,38.35622 c 59.85253,59.85252 59.85088,157.23824 0,217.09076 -59.85253,59.85089 -157.23824,59.85254 -217.089121,0 -59.852533,-59.85087 -59.852533,-157.23824 0,-217.09076 59.852531,-59.85088 157.238241,-59.85088 217.089121,0 z"
     id="path2"
     style="fill:#ffffff;fill-opacity:1;stroke-width:1.64938" />
  <path
     d="m 206.77414,201.62207 c 42.81118,0 77.51898,36.31099 77.51898,79.12548 0,58.61879 -66.49126,125.42509 -77.51898,125.42509 -11.2273,0 -77.52229,-66.4055 -77.52229,-125.42509 0,-42.81449 34.70781,-79.12548 77.52229,-79.12548 z m -0.002,126.40976 c 25.68736,0 46.51073,-20.825 46.51073,-46.51237 0,-25.68738 -20.82337,-46.51239 -46.51073,-46.51239 -25.68902,0 -46.51239,20.82336 -46.51239,46.51239 0,25.68901 20.82337,46.51237 46.51239,46.51237 z"
     id="path4"
     style="fill:#ffffff;fill-opacity:1;stroke-width:1.64938" />
</svg>
