<?xml version="1.0" encoding="UTF-8" standalone="no"?>
<!-- Uploaded to: SVG Repo, www.svgrepo.com, Generator: SVG Repo Mixer Tools -->

<svg
   fill="#000000"
   height="800px"
   width="800px"
   version="1.1"
   id="Layer_1"
   viewBox="0 0 297 297"
   xml:space="preserve"
   sodipodi:docname="gears_white.svg"
   inkscape:version="1.1.2 (b8e25be833, 2022-02-05)"
   xmlns:inkscape="http://www.inkscape.org/namespaces/inkscape"
   xmlns:sodipodi="http://sodipodi.sourceforge.net/DTD/sodipodi-0.dtd"
   xmlns="http://www.w3.org/2000/svg"
   xmlns:svg="http://www.w3.org/2000/svg"><defs
   id="defs15" /><sodipodi:namedview
   id="namedview13"
   pagecolor="#ffffff"
   bordercolor="#666666"
   borderopacity="1.0"
   inkscape:pageshadow="2"
   inkscape:pageopacity="0.0"
   inkscape:pagecheckerboard="0"
   showgrid="false"
   inkscape:zoom="0.71417785"
   inkscape:cx="399.76037"
   inkscape:cy="401.16058"
   inkscape:window-width="1920"
   inkscape:window-height="1001"
   inkscape:window-x="-9"
   inkscape:window-y="-9"
   inkscape:window-maximized="1"
   inkscape:current-layer="Layer_1"
   showguides="true"><inkscape:grid
     type="xygrid"
     id="grid825" /></sodipodi:namedview>
<g
   id="g10"
   style="fill:#ffffff;fill-opacity:1"
   transform="translate(0,2.5375e-4)">
	<g
   id="g8"
   style="fill:#ffffff;fill-opacity:1">
		<g
   id="g6"
   style="fill:#ffffff;fill-opacity:1">
			<path
   d="m 170.755,154.495 -13.94,-13.941 c 2.221,-4.142 4.02,-8.484 5.378,-12.984 h 19.715 c 3.314,0 6,-2.687 6,-6 V 92.251 c 0,-3.314 -2.687,-6 -6,-6 h -19.715 c -1.358,-4.5 -3.157,-8.842 -5.379,-12.983 l 13.941,-13.942 c 2.344,-2.343 2.344,-6.142 0,-8.485 L 150.024,30.11 c -2.342,-2.344 -6.143,-2.344 -8.485,0 l -13.941,13.941 c -4.142,-2.222 -8.484,-4.021 -12.984,-5.379 V 18.956 c 0,-3.314 -2.687,-6 -6,-6 H 79.295 c -3.314,0 -6,2.687 -6,6 v 19.715 c -4.5,1.358 -8.842,3.157 -12.983,5.379 L 46.372,30.109 c -1.126,-1.126 -2.652,-1.758 -4.243,-1.758 -1.591,0 -3.117,0.632 -4.242,1.757 L 17.153,50.839 c -2.344,2.344 -2.344,6.143 -10e-4,8.486 l 13.941,13.942 c -2.222,4.142 -4.021,8.484 -5.379,12.983 H 6 c -3.314,0 -6,2.687 -6,6 v 29.318 c 0,3.314 2.687,6 6,6 h 19.714 c 1.358,4.499 3.157,8.841 5.379,12.984 l -13.94,13.941 c -2.344,2.343 -2.344,6.142 0,8.485 l 20.731,20.731 c 2.341,2.343 6.142,2.344 8.485,0.001 L 60.31,169.77 c 4.143,2.222 8.485,4.021 12.984,5.379 v 19.715 c 0,3.314 2.687,6 6,6 h 29.318 c 3.314,0 6,-2.687 6,-6 V 175.15 c 4.499,-1.358 8.841,-3.157 12.983,-5.379 l 13.942,13.941 c 2.342,2.342 6.143,2.343 8.485,-10e-4 l 20.731,-20.731 c 2.346,-2.343 2.346,-6.142 0.002,-8.485 z M 93.954,129.339 c -12.367,0 -22.429,-10.062 -22.429,-22.429 0,-12.368 10.062,-22.429 22.429,-22.429 12.367,0 22.429,10.061 22.429,22.429 0,12.367 -10.062,22.429 -22.429,22.429 z"
   id="path2"
   style="fill:#ffffff;fill-opacity:1" />
			<path
   d="m 296.899,212.598 -3.774,-20.458 c -0.289,-1.566 -1.188,-2.951 -2.498,-3.855 -1.311,-0.902 -2.923,-1.247 -4.491,-0.958 l -12.502,2.307 c -1.239,-2.266 -2.643,-4.432 -4.204,-6.488 l 7.209,-10.471 c 0.902,-1.311 1.247,-2.926 0.958,-4.491 -0.289,-1.565 -1.188,-2.951 -2.498,-3.854 l -17.136,-11.798 c -2.728,-1.876 -6.465,-1.19 -8.345,1.54 l -7.208,10.47 c -2.479,-0.725 -5.002,-1.264 -7.56,-1.612 l -2.307,-12.502 c -0.601,-3.259 -3.736,-5.417 -6.989,-4.812 l -20.458,3.774 c -1.566,0.289 -2.951,1.188 -3.855,2.498 -0.902,1.311 -1.247,2.926 -0.958,4.491 l 2.307,12.502 c -2.266,1.239 -4.432,2.643 -6.488,4.204 l -10.471,-7.209 c -1.311,-0.901 -2.924,-1.247 -4.492,-0.958 -1.565,0.289 -2.951,1.188 -3.854,2.498 l -11.798,17.136 c -0.902,1.311 -1.247,2.926 -0.958,4.492 0.289,1.565 1.188,2.951 2.498,3.854 l 10.47,7.208 c -0.725,2.478 -1.264,5.002 -1.612,7.56 l -12.503,2.307 c -1.565,0.289 -2.951,1.188 -3.854,2.498 -0.902,1.311 -1.247,2.926 -0.958,4.491 l 3.775,20.458 c 0.602,3.259 3.735,5.419 6.99,4.812 l 12.502,-2.307 c 1.238,2.265 2.644,4.432 4.204,6.488 l -7.208,10.47 c -0.903,1.311 -1.248,2.926 -0.959,4.491 0.289,1.565 1.188,2.951 2.498,3.854 l 17.136,11.798 c 2.727,1.876 6.465,1.19 8.345,-1.54 l 7.208,-10.47 c 2.478,0.726 5.002,1.264 7.56,1.613 l 2.307,12.502 c 0.533,2.891 3.056,4.912 5.894,4.912 0.361,0 0.728,-0.032 1.095,-0.101 l 20.458,-3.774 c 1.566,-0.289 2.951,-1.188 3.855,-2.498 0.902,-1.311 1.247,-2.926 0.958,-4.491 l -2.307,-12.502 c 2.266,-1.239 4.432,-2.643 6.487,-4.204 l 10.471,7.209 c 1.31,0.901 2.921,1.244 4.491,0.958 1.565,-0.289 2.951,-1.188 3.854,-2.498 l 11.798,-17.136 c 1.879,-2.73 1.19,-6.465 -1.54,-8.345 l -10.47,-7.208 c 0.726,-2.478 1.264,-5.002 1.613,-7.56 l 12.502,-2.307 c 3.259,-0.601 5.414,-3.73 4.812,-6.988 z m -57.489,10.22 c -4.432,6.436 -13.272,8.069 -19.712,3.637 -6.437,-4.433 -8.068,-13.275 -3.636,-19.712 2.147,-3.118 5.379,-5.213 9.102,-5.901 0.867,-0.16 1.737,-0.239 2.601,-0.239 2.843,0 5.617,0.857 8.008,2.504 6.436,4.43 8.067,13.273 3.637,19.711 z"
   id="path4"
   style="fill:#ffffff;fill-opacity:1" />
		</g>
	</g>
</g>
</svg>
