<?xml version="1.0" encoding="UTF-8" standalone="no"?>
<!-- Uploaded to: SVG Repo, www.svgrepo.com, Transformed by: SVG Repo Mixer Tools -->

<svg
   fill="#000000"
   height="800px"
   width="800px"
   version="1.1"
   id="Layer_1"
   viewBox="0 0 512.001 512.001"
   xml:space="preserve"
   sodipodi:docname="growing.svg"
   inkscape:version="1.1.2 (b8e25be833, 2022-02-05)"
   xmlns:inkscape="http://www.inkscape.org/namespaces/inkscape"
   xmlns:sodipodi="http://sodipodi.sourceforge.net/DTD/sodipodi-0.dtd"
   xmlns="http://www.w3.org/2000/svg"
   xmlns:svg="http://www.w3.org/2000/svg"><defs
   id="defs53" /><sodipodi:namedview
   id="namedview51"
   pagecolor="#ffffff"
   bordercolor="#666666"
   borderopacity="1.0"
   inkscape:pageshadow="2"
   inkscape:pageopacity="0.0"
   inkscape:pagecheckerboard="0"
   showgrid="false"
   inkscape:zoom="0.71417785"
   inkscape:cx="399.76037"
   inkscape:cy="399.76037"
   inkscape:window-width="1920"
   inkscape:window-height="1001"
   inkscape:window-x="-9"
   inkscape:window-y="-9"
   inkscape:window-maximized="1"
   inkscape:current-layer="Layer_1" />







<g
   id="g894"
   style="fill:#555555;fill-opacity:1"><g
     id="g6"
     style="fill:#555555;fill-opacity:1">
	<g
   id="g4"
   style="fill:#555555;fill-opacity:1">
		<path
   d="M482.509,122.333l-28.474-25.31c6.255-2.52,12.002-6.275,16.823-11.096c19.63-19.631,19.63-51.572,0-71.204    c-19.632-19.631-51.572-19.632-71.206,0c-6.272,6.272-10.706,14.002-12.985,22.417l-12.089-10.745    c-3.145-2.796-7.927-2.656-10.903,0.32l-83.946,83.946c-2.976,2.976-3.116,7.757-0.32,10.903l29.321,32.987l-78.297-3.729    c-7.168-13.55-21.654-22.444-37.082-22.444c-4.391,0-7.95,3.559-7.95,7.95v67.839c0,4.39,3.558,7.95,7.95,7.95    c10.753,0,21.337-4.269,29.039-11.711c2.714-2.621,5.016-5.563,6.888-8.724l128.817,18.402l17.252,19.409    c2.995,3.37,8.375,3.528,11.563,0.339l95.939-95.939C486.038,130.707,485.877,125.328,482.509,122.333z M211.341,188.973    c-2.831,2.737-6.296,4.779-10.04,5.986v-49.354c7.016,2.363,13.078,7.696,15.983,14.545    C221.374,169.787,218.931,181.639,211.341,188.973z M400.845,48.654c0.413-8.563,3.982-16.619,10.05-22.688    c13.429-13.432,35.286-13.433,48.719,0c13.432,13.432,13.432,35.288,0.001,48.718c-5.405,5.404-12.201,8.765-19.717,9.773    L400.728,49.64C400.785,49.318,400.829,48.99,400.845,48.654z M296.272,116.604l73.346-73.345l26.189,23.279l-76.256,76.255    L296.272,116.604z M234.708,176.398c0.47-3.114,0.593-6.28,0.356-9.436l88.44,4.211l0.675,0.759l17.561,19.756L234.708,176.398z     M381.63,212.631l-28.923-32.537l43.302-43.302c3.105-3.105,3.105-8.139,0-11.242c-3.106-3.105-8.139-3.105-11.243,0    l-42.641,42.641l-11.993-13.491l77.578-77.578l13.491,11.993l-11.88,11.88c-3.105,3.105-3.105,8.139,0,11.242    c3.106,3.105,8.138,3.105,11.243,0l12.542-12.543l32.538,28.923L381.63,212.631z"
   id="path2"
   style="fill:#555555;fill-opacity:1" />
	</g>
</g><g
     id="g12"
     style="fill:#555555;fill-opacity:1">
	<g
   id="g10"
   style="fill:#555555;fill-opacity:1">
		<path
   d="M165.605,228.532c-3.093-3.12-8.127-3.138-11.243-0.046c-6.3,6.253-12.153,13.05-17.391,20.203    c-2.33,3.181-1.927,7.726,0.925,10.448c3.425,3.268,9.108,2.76,11.903-1.053c4.748-6.483,10.051-12.643,15.764-18.311    C168.678,236.682,168.698,231.647,165.605,228.532z"
   id="path8"
   style="fill:#555555;fill-opacity:1" />
	</g>
</g><g
     id="g18"
     style="fill:#555555;fill-opacity:1">
	<g
   id="g16"
   style="fill:#555555;fill-opacity:1">
		<path
   d="M125.822,224.049c-3.468-2.691-8.464-2.064-11.155,1.406c-5.4,6.957-10.385,14.335-14.817,21.931    c-2.043,3.501-1.057,8.111,2.238,10.47c3.758,2.69,9.167,1.53,11.494-2.455c4.083-6.996,8.675-13.791,13.646-20.198    C129.92,231.735,129.29,226.741,125.822,224.049z"
   id="path14"
   style="fill:#555555;fill-opacity:1" />
	</g>
</g><g
     id="g24"
     style="fill:#555555;fill-opacity:1">
	<g
   id="g22"
   style="fill:#555555;fill-opacity:1">
		<path
   d="M163.346,189.863c-2.652-3.498-7.637-4.186-11.137-1.532c-7.01,5.315-13.734,11.145-19.987,17.328    c-3.122,3.088-3.15,8.122-0.064,11.242c1.555,1.572,3.603,2.361,5.653,2.361c2.019,0,4.041-0.765,5.589-2.297    c5.761-5.697,11.955-11.067,18.414-15.964C165.314,198.349,165.998,193.362,163.346,189.863z"
   id="path20"
   style="fill:#555555;fill-opacity:1" />
	</g>
</g><g
     id="g30"
     style="fill:#555555;fill-opacity:1">
	<g
   id="g28"
   style="fill:#555555;fill-opacity:1">
		<path
   d="M83.078,221.001c-3.728-2.318-8.63-1.175-10.948,2.553c-4.619,7.43-8.87,15.196-12.631,23.081    c-1.89,3.962-0.21,8.708,3.753,10.598c3.913,1.867,8.733,0.156,10.598-3.753c3.509-7.354,7.472-14.598,11.782-21.529    C87.951,228.222,86.806,223.321,83.078,221.001z"
   id="path26"
   style="fill:#555555;fill-opacity:1" />
	</g>
</g><g
     id="g36"
     style="fill:#555555;fill-opacity:1">
	<g
   id="g34"
   style="fill:#555555;fill-opacity:1">
		<path
   d="M115.87,182.202c-3.129-3.079-8.163-3.042-11.242,0.088c-6.137,6.234-11.987,12.872-17.388,19.73    c-2.719,3.45-2.124,8.448,1.325,11.165c3.405,2.682,8.485,2.075,11.164-1.326c5.041-6.4,10.501-12.596,16.229-18.415    C119.038,190.315,118.998,185.282,115.87,182.202z"
   id="path32"
   style="fill:#555555;fill-opacity:1" />
	</g>
</g><g
     id="g42"
     style="fill:#555555;fill-opacity:1">
	<g
   id="g40"
   style="fill:#555555;fill-opacity:1">
		<path
   d="M156.359,151.542c-2.376-3.691-7.296-4.755-10.988-2.38c-7.342,4.729-14.505,9.921-21.285,15.436    c-2.474,2.011-3.516,5.404-2.599,8.458c0.997,3.323,4.149,5.659,7.619,5.659c1.762,0,3.536-0.583,5.01-1.782    c6.329-5.145,13.011-9.992,19.863-14.404C157.67,160.152,158.735,155.233,156.359,151.542z"
   id="path38"
   style="fill:#555555;fill-opacity:1" />
	</g>
</g><g
     id="g48"
     style="fill:#555555;fill-opacity:1">
	<g
   id="g46"
   style="fill:#555555;fill-opacity:1">
		<path
   d="M175.186,314.386c-0.939-2.206-2.821-3.872-5.125-4.534c-2.302-0.662-4.783-0.25-6.748,1.122    c-6.837,4.776-41.202,29.49-46.251,47.061c-2.776,9.661-1.625,19.824,3.244,28.617c2.188,3.953,5.014,7.411,8.335,10.279    c-6.628,6.307-15.354,12.24-26.847,16.987c-2.657-8.688-5.681-16.827-8.664-24.846c-3.154-8.48-6.148-16.535-8.513-24.717    c4.883-1.613,9.423-4.237,13.36-7.78c7.47-6.726,11.873-15.958,12.399-25.995c0.957-18.258-23.469-52.827-28.375-59.573    c-2.923-4.019-9.003-4.339-12.334-0.647c-5.585,6.195-33.491,38.021-34.447,56.28c-1.047,19.957,13.736,37.144,33.342,39.354    c2.655,9.767,6.12,19.089,9.666,28.622c5.778,15.533,11.725,31.532,14.457,50.975c-31.44,3.058-58.015,25.413-66.01,56.475    c-1.094,4.253,1.466,8.587,5.719,9.681c4.257,1.098,8.587-1.466,9.681-5.718c6.805-26.442,30.657-44.91,58.002-44.91    s51.197,18.468,58.002,44.91c1.111,4.317,5.706,6.896,9.974,5.636c4.043-1.194,6.472-5.526,5.424-9.599    c-7.887-30.643-33.857-52.812-64.741-56.341c-0.721-5.722-1.682-11.141-2.832-16.315c16.904-6.649,28.909-15.562,37.433-24.692    c15.377,4.2,32.212-2.011,41.113-15.247c2.194-3.263,3.862-6.871,4.947-10.648C194.446,361.25,178.446,322.063,175.186,314.386z     M80.417,318.132c0.514-4.361-2.604-8.311-6.964-8.825c-4.371-0.515-8.312,2.604-8.825,6.965    c-1.411,11.974-1.089,22.652,0.336,32.596c-8.517-3.303-14.37-11.788-13.867-21.395c0.407-7.757,12.612-25.27,23.797-38.815    c9.705,14.633,20.011,33.321,19.604,41.091c-0.438,8.335-5.747,15.789-13.468,18.957    C79.505,339.325,79.092,329.377,80.417,318.132z M174.111,374.43c-1.604,5.579-5.283,10.199-10.36,13.009    c-2.959,1.639-6.189,2.525-9.473,2.682c1.6-2.707,2.943-5.332,4.064-7.811c7.597-16.8,7.089-30.853,7.064-31.443    c-0.189-4.387-3.88-7.776-8.284-7.601c-4.386,0.189-7.79,3.898-7.601,8.284c0.012,0.266,0.466,16.228-10.653,33.169    c-1.842-1.626-3.428-3.553-4.653-5.767c-2.81-5.078-3.476-10.946-1.873-16.525c2.144-7.464,17.985-21.773,31.934-32.447    C170.431,346.431,176.257,366.966,174.111,374.43z"
   id="path44"
   style="fill:#555555;fill-opacity:1" />
	</g>
</g></g>
</svg>
