<?xml version="1.0" encoding="UTF-8" standalone="no"?>
<!-- Uploaded to: SVG Repo, www.svgrepo.com, Generator: SVG Repo Mixer Tools -->

<svg
   fill="#000000"
   version="1.1"
   id="Layer_1"
   width="800px"
   height="800px"
   viewBox="0 0 92 92"
   enable-background="new 0 0 92 92"
   xml:space="preserve"
   sodipodi:docname="information_white.svg"
   inkscape:version="1.1.2 (b8e25be833, 2022-02-05)"
   xmlns:inkscape="http://www.inkscape.org/namespaces/inkscape"
   xmlns:sodipodi="http://sodipodi.sourceforge.net/DTD/sodipodi-0.dtd"
   xmlns="http://www.w3.org/2000/svg"
   xmlns:svg="http://www.w3.org/2000/svg"><defs
   id="defs6" /><sodipodi:namedview
   id="namedview4"
   pagecolor="#ffffff"
   bordercolor="#666666"
   borderopacity="1.0"
   inkscape:pageshadow="2"
   inkscape:pageopacity="0.0"
   inkscape:pagecheckerboard="0"
   showgrid="false"
   inkscape:zoom="1.01"
   inkscape:cx="399.50495"
   inkscape:cy="400.49505"
   inkscape:window-width="1920"
   inkscape:window-height="1001"
   inkscape:window-x="-9"
   inkscape:window-y="-9"
   inkscape:window-maximized="1"
   inkscape:current-layer="Layer_1" />
<path
   id="XMLID_89_"
   d="m 43.7725,68.935 c -0.66,0 -1.32,-0.2475 -1.815,-0.66 -0.825,-0.66 -1.2375,-1.7325 -0.99,-2.805 L 45.01,44.845 42.7825,46.0825 c -1.4025,0.7425 -3.135,0.33 -3.96,-1.0725 -0.7425,-1.4025 -0.33,-3.135 1.0725,-3.96 l 7.6725,-4.3725 c 0.99,-0.5775 2.2275,-0.495 3.135,0.165 0.9075,0.66 1.32,1.815 1.155,2.8875 L 47.65,61.18 51.115,59.695 c 1.485,-0.66 3.135,0 3.795,1.485 0.66,1.485 0,3.135 -1.485,3.795 l -8.4975,3.7125 c -0.33,0.165 -0.7425,0.2475 -1.155,0.2475 z M 51.94,29.5 c 0.7425,-0.7425 1.2375,-1.815 1.2375,-2.8875 0,-1.0725 -0.4125,-2.145 -1.2375,-2.8875 -0.7425,-0.7425 -1.815,-1.2375 -2.8875,-1.2375 -1.0725,0 -2.145,0.4125 -2.8875,1.2375 -0.7425,0.7425 -1.2375,1.815 -1.2375,2.8875 0,1.0725 0.4125,2.145 1.2375,2.8875 0.7425,0.7425 1.815,1.2375 2.8875,1.2375 1.0725,0 2.145,-0.4125 2.8875,-1.2375 z M 83.95,46 C 83.95,25.045 66.955,8.05 46,8.05 25.045,8.05 8.05,25.045 8.05,46 8.05,66.955 25.045,83.95 46,83.95 66.955,83.95 83.95,66.955 83.95,46 Z m -6.6,0 C 77.35,63.325 63.325,77.35 46,77.35 28.675,77.35 14.65,63.325 14.65,46 14.65,28.675 28.675,14.65 46,14.65 63.325,14.65 77.35,28.675 77.35,46 Z"
   style="fill:#ffffff;fill-opacity:1;stroke-width:0.825" />
</svg>
