<?xml version="1.0" encoding="UTF-8" standalone="no"?>
<!-- Uploaded to: SVG Repo, www.svgrepo.com, Generator: SVG Repo Mixer Tools -->

<svg
   height="800px"
   width="800px"
   version="1.1"
   id="Icons"
   viewBox="0 0 32 32"
   xml:space="preserve"
   sodipodi:docname="learning.svg"
   inkscape:version="1.1.2 (b8e25be833, 2022-02-05)"
   xmlns:inkscape="http://www.inkscape.org/namespaces/inkscape"
   xmlns:sodipodi="http://sodipodi.sourceforge.net/DTD/sodipodi-0.dtd"
   xmlns="http://www.w3.org/2000/svg"
   xmlns:svg="http://www.w3.org/2000/svg"><defs
   id="defs15" /><sodipodi:namedview
   id="namedview13"
   pagecolor="#ffffff"
   bordercolor="#666666"
   borderopacity="1.0"
   inkscape:pageshadow="2"
   inkscape:pageopacity="0.0"
   inkscape:pagecheckerboard="0"
   showgrid="false"
   inkscape:zoom="0.71417785"
   inkscape:cx="401.16058"
   inkscape:cy="399.76037"
   inkscape:window-width="1920"
   inkscape:window-height="1001"
   inkscape:window-x="-9"
   inkscape:window-y="-9"
   inkscape:window-maximized="1"
   inkscape:current-layer="Icons" />
<style
   type="text/css"
   id="style2">
	.st0{fill:#FFFFFF;}
</style>

<g
   id="g8"
   style="fill:#555555;fill-opacity:1"
   transform="matrix(0.89852,0,0,0.93852604,0,-0.35500692)">
	<path
   d="M 6,7 H 0.9 C 0.4,7 0,7.4 0,7.9 V 17 c 0,0.6 0.4,1 0.9,1 H 6 c 1.7,0 3,1.3 3,3 V 10 C 9,8.3 7.7,7 6,7 Z"
   id="path4"
   style="fill:#555555;fill-opacity:1" />
	<path
   d="M 18.1,7 H 13 c -1.7,0 -3,1.3 -3,3 v 11 c 0,-1.7 1.3,-3 3,-3 h 5.1 C 18.6,18 19,17.6 19,17.1 V 7.9 C 19,7.4 18.6,7 18.1,7 Z"
   id="path6"
   style="fill:#555555;fill-opacity:1" />
</g><path
   d="m 31.547813,17.892473 -3.326164,-6.65233 C 28.106953,5.046595 22.945663,0 16.752115,0 13.540645,0 10.558566,1.3763441 8.379355,3.6702509 8.838136,3.5555555 9.296917,3.4408602 9.870394,3.4408602 h 5.849463 c 1.835125,0 3.326164,1.4910394 3.326164,3.3261649 V 17.204301 c 0,1.835125 -1.491039,3.326165 -3.326164,3.326165 H 9.870394 c -0.688172,0 -1.146953,0.458781 -1.146953,1.146953 v 6.881721 c 0,0.573476 0.344086,1.032258 0.917563,1.146953 L 21.110538,32 c 0.114695,0 0.114695,0 0.22939,0 0.229391,0 0.573477,-0.114695 0.688172,-0.229391 0.229391,-0.229391 0.458782,-0.573477 0.458782,-0.917563 v -4.587813 h 2.293906 c 1.949821,0 3.440861,-1.49104 3.440861,-3.44086 v -3.440861 h 2.293906 c 0.344086,0 0.802868,-0.22939 1.032258,-0.573476 0.229391,-0.344086 0.114696,-0.573477 0,-0.917563 z"
   id="path10"
   style="fill:#555555;fill-opacity:1;stroke-width:1.14695" />
</svg>
