<?xml version="1.0" encoding="UTF-8" standalone="no"?>
<!-- Uploaded to: SVG Repo, www.svgrepo.com, Generator: SVG Repo Mixer Tools -->

<svg
   width="800px"
   height="800px"
   viewBox="0 0 24 24"
   fill="none"
   version="1.1"
   id="svg6"
   sodipodi:docname="m10.svg"
   inkscape:version="1.1.2 (b8e25be833, 2022-02-05)"
   xmlns:inkscape="http://www.inkscape.org/namespaces/inkscape"
   xmlns:sodipodi="http://sodipodi.sourceforge.net/DTD/sodipodi-0.dtd"
   xmlns="http://www.w3.org/2000/svg"
   xmlns:svg="http://www.w3.org/2000/svg">
  <defs
     id="defs10" />
  <sodipodi:namedview
     id="namedview8"
     pagecolor="#ffffff"
     bordercolor="#666666"
     borderopacity="1.0"
     inkscape:pageshadow="2"
     inkscape:pageopacity="0.0"
     inkscape:pagecheckerboard="0"
     showgrid="false"
     inkscape:zoom="0.71417785"
     inkscape:cx="399.76037"
     inkscape:cy="399.76037"
     inkscape:window-width="1920"
     inkscape:window-height="1001"
     inkscape:window-x="-9"
     inkscape:window-y="-9"
     inkscape:window-maximized="1"
     inkscape:current-layer="svg6" />
  <path
     d="M 1.2,6.0000001 C 1.2,3.349032 3.3490318,1.2 5.9999997,1.2 H 17.999999 c 2.65092,0 4.799999,2.149032 4.799999,4.8000001 V 18 c 0,2.65092 -2.149079,4.8 -4.799999,4.8 H 5.9999997 C 3.3490318,22.8 1.2,20.65092 1.2,18 Z"
     stroke="#000000"
     stroke-width="2.4"
     id="path2"
     style="fill:#db3e2b;fill-opacity:0.63137257;stroke:#555555;stroke-opacity:1" />
  <g
     aria-label="10"
     id="text2325"
     style="font-size:14px;line-height:1.25;fill:#000000;stroke-width:0.03">
    <path
       d="M 10.16188,17.018391 H 3.3669586 V 15.241047 H 5.513443 V 9.8611641 H 3.3669586 V 8.2000313 q 0.4921875,0 0.9433594,-0.054687 Q 4.7614899,8.0838203 5.0622711,7.9402657 5.4177399,7.7693672 5.5954742,7.4959297 5.7732086,7.2224922 5.8005524,6.812336 h 2.2626953 v 8.428711 H 10.16188 Z"
       style="font-weight:bold;-inkscape-font-specification:'sans-serif Bold';fill:#555555"
       id="path32888" />
    <path
       d="m 20.689224,11.925617 q 0,1.285156 -0.232422,2.303711 -0.232422,1.011719 -0.724609,1.661133 -0.505859,0.663086 -1.298828,1.004883 -0.792969,0.334961 -1.955078,0.334961 -1.141602,0 -1.948242,-0.341797 -0.806641,-0.341797 -1.305665,-1.011719 -0.505859,-0.669922 -0.731445,-1.661133 -0.225586,-0.998047 -0.225586,-2.283203 0,-1.326172 0.232422,-2.3037108 0.232422,-0.977539 0.738281,-1.6542969 0.50586,-0.6699218 1.3125,-1.0048828 0.806641,-0.3349609 1.927735,-0.3349609 1.168945,0 1.961914,0.3486328 0.792969,0.3417969 1.298828,1.0253906 0.499023,0.6699219 0.724609,1.6542969 0.225586,0.9775391 0.225586,2.2626951 z m -2.645508,0 q 0,-1.845703 -0.362304,-2.6249998 -0.362305,-0.7861328 -1.203125,-0.7861328 -0.840821,0 -1.203125,0.7861328 -0.362305,0.7792968 -0.362305,2.6386718 0,1.811524 0.369141,2.611328 0.36914,0.799805 1.196289,0.799805 0.827148,0 1.196289,-0.799805 0.36914,-0.799804 0.36914,-2.625 z"
       style="font-weight:bold;-inkscape-font-specification:'sans-serif Bold';fill:#555555"
       id="path32890" />
  </g>
</svg>
