<?xml version="1.0" encoding="UTF-8" standalone="no"?>
<!-- Uploaded to: SVG Repo, www.svgrepo.com, Generator: SVG Repo Mixer Tools -->

<svg
   width="800px"
   height="800px"
   viewBox="0 0 512 512"
   version="1.1"
   id="svg4"
   sodipodi:docname="metal.svg"
   inkscape:version="1.1.2 (b8e25be833, 2022-02-05)"
   xmlns:inkscape="http://www.inkscape.org/namespaces/inkscape"
   xmlns:sodipodi="http://sodipodi.sourceforge.net/DTD/sodipodi-0.dtd"
   xmlns="http://www.w3.org/2000/svg"
   xmlns:svg="http://www.w3.org/2000/svg">
  <defs
     id="defs8" />
  <sodipodi:namedview
     id="namedview6"
     pagecolor="#ffffff"
     bordercolor="#666666"
     borderopacity="1.0"
     inkscape:pageshadow="2"
     inkscape:pageopacity="0.0"
     inkscape:pagecheckerboard="0"
     showgrid="false"
     inkscape:zoom="1.01"
     inkscape:cx="399.50495"
     inkscape:cy="400.49505"
     inkscape:window-width="1920"
     inkscape:window-height="1001"
     inkscape:window-x="-9"
     inkscape:window-y="-9"
     inkscape:window-maximized="1"
     inkscape:current-layer="svg4" />
  <path
     fill="#000000"
     d="M39.557 19L323.44 273h149.003L188.56 19H39.558zM25 30.13v25.847L311 311.87V286.024L25 30.13zm64 107.263v34.584L375 427.87v-84.843l-64-13.002L89 137.393zM77.555 185.89l-42.9 10.723 287.79 257.498 42.9-10.723L77.556 185.89zM25 212.13v23.847L311 491.87v-23.847L25 212.13zM329 291v21.973l64 16v126.054l-64 16V493h158v-21.973l-64-16V328.973l64-16V291H329zm112 135.865v14.108l21.88 5.47L441 426.865z"
     id="path2"
     style="fill:#555555;fill-opacity:1" />
</svg>
