<?xml version="1.0" encoding="UTF-8" standalone="no"?>
<!-- Created with Inkscape (http://www.inkscape.org/) -->

<svg
   width="500"
   height="500"
   viewBox="0 0 132.29167 132.29167"
   version="1.1"
   id="svg58"
   inkscape:version="1.1.2 (b8e25be833, 2022-02-05)"
   sodipodi:docname="one_stamp.svg"
   xmlns:inkscape="http://www.inkscape.org/namespaces/inkscape"
   xmlns:sodipodi="http://sodipodi.sourceforge.net/DTD/sodipodi-0.dtd"
   xmlns="http://www.w3.org/2000/svg"
   xmlns:svg="http://www.w3.org/2000/svg">
  <sodipodi:namedview
     id="namedview60"
     pagecolor="#ffffff"
     bordercolor="#666666"
     borderopacity="1.0"
     inkscape:pageshadow="2"
     inkscape:pageopacity="0.0"
     inkscape:pagecheckerboard="true"
     inkscape:document-units="px"
     showgrid="false"
     units="px"
     inkscape:zoom="1"
     inkscape:cx="94.5"
     inkscape:cy="261.5"
     inkscape:window-width="1920"
     inkscape:window-height="1001"
     inkscape:window-x="-9"
     inkscape:window-y="-9"
     inkscape:window-maximized="1"
     inkscape:current-layer="g1166"
     showguides="false" />
  <defs
     id="defs55" />
  <g
     inkscape:label="Layer 1 copy"
     inkscape:groupmode="layer"
     id="g1558"
     style="display:none">
    <g
       id="g1556"
       transform="matrix(0.31749997,0,0,0.31749999,-408.23707,-296.72452)"
       style="fill:#b3b3b3;fill-opacity:1;stroke:#ffffff;stroke-width:2.5;stroke-miterlimit:4;stroke-dasharray:none;stroke-opacity:1">
      <path
         d="m 1600.3,1214.3 c -11.8,-7.9 -25.1,9.9 -14.9,19.5 0.5,0.4 0.9,0.9 1.3,1.3 -0.9,0.6 -1.9,1.2 -3.1,1.8 -2.2,1.2 -3.1,1.5 -6.2,2.5 -4.5,1.4 -9,2.7 -13.5,4 -6.1,1.7 -9.8,2.6 -15.1,2.6 -0.4,0 -0.6,0 -0.8,0 -0.2,-0.1 -0.4,-0.1 -0.7,-0.2 -0.2,-0.1 -0.4,-0.1 -0.5,-0.1 -0.2,-0.1 -0.3,-0.2 -0.6,-0.4 -0.1,-0.1 -0.2,-0.1 -0.3,-0.2 -0.1,-0.1 -0.3,-0.3 -0.5,-0.5 -0.1,-0.1 -0.2,-0.1 -0.3,-0.2 0,0 0,0 0,-0.1 0,-0.1 -0.1,-0.1 -0.1,-0.2 0,0 0,-0.1 0,-0.1 -0.2,-0.6 -0.3,-1.1 -0.5,-1.7 0.2,1 -0.2,-1.5 -0.2,-2.1 -0.1,-1.6 0,-3.2 0,-4.8 0.4,-9.7 3.8,-19.7 6.7,-28.9 3.9,-12.3 8.9,-24.1 14.7,-35.7 6,-12.1 11.9,-24.4 18.4,-36.2 6,-11 11.5,-22 12.9,-34.6 1.3,-12.2 -6,-21.5 -15.4,-27.9 -10.6,-7.3 -24.3,-17.6 -37.8,-12.6 -8.9,3.3 -16.3,10.2 -24.5,14.8 -12.4,6.9 -24.8,12.7 -37.3,18 0.2,-4 0.3,-8 0.2,-12 -0.2,-21.1 -3.9,-44.1 -18.9,-60 -4.6,-4.8 -12,-7.3 -18.5,-4.9 -4.5,1.7 -7.3,4.8 -7.6,9.8 -0.1,1.5 0,2.2 0.2,3.6 -0.5,-3.2 0.6,4.2 0.4,3.6 1.1,2.8 2.1,4.7 4,7 0.1,0.1 0.2,0.2 0.3,0.4 1.2,1.6 2.2,3.4 3.2,5.2 0.5,0.9 1,1.8 1.5,2.7 0.2,0.4 0.8,1.8 1.2,2.4 1.5,3.8 2.6,7.7 3.6,11.6 0.4,1.8 0.8,3.6 1.1,5.4 0,0.3 0.3,2.1 0.3,2.4 0.2,1.6 0.4,3.3 0.5,4.9 0.9,9.5 0.9,19.1 0.3,28.8 -13.4,4.9 -27,9.4 -40.9,14.2 -3.7,1.2 -7.2,2.7 -10.7,4.5 -3,1.6 -3.4,3.7 -4,6.8 -0.1,0.7 0.5,1.2 1.1,1.3 2,0.3 3.8,1.3 5.8,0.3 2.3,-1.1 4.7,-2 7.1,-2.8 13.2,-4.3 26.8,-7.3 40.3,-10.2 -0.6,5.7 -1.3,11.4 -2.2,17 -1.5,10.4 -3.5,20.7 -5.5,31 -3,15.2 -5.8,30.4 -10.5,45.2 -4.1,13 -8.9,25.9 -13.4,38.8 -4.4,12.3 -8.4,24.8 -13.6,36.7 -0.4,1 0.9,1.7 1.6,1.1 10.3,-8.2 17.7,-19 23.6,-30.6 6.2,-12.1 12.2,-24.4 18,-36.7 11.7,-24.4 18.7,-50.2 24.3,-76.6 2.2,-10.5 4.1,-21.1 5.4,-31.8 18.5,-4.3 36.8,-9.6 54,-18.5 5.9,-3.1 11.1,-7.3 17,-10.4 1,0.5 2.5,1.2 3,1.4 4.3,2.4 8.5,5 12.5,7.8 0.5,0.4 2.7,2 3.4,2.5 0.2,0.1 0.3,0.3 0.5,0.4 0.3,0.3 0.5,0.4 0.6,0.5 0.1,0.2 0.2,0.4 0.4,0.6 0,0 0,0 0,0.1 0,0.1 0.3,1.6 0.3,2.1 0,0.3 0,0.5 0,0.7 0,0.2 -0.1,0.4 -0.1,0.6 -0.3,1.6 -0.9,3.2 -1.4,4.8 -0.1,0.3 -0.2,0.5 -0.2,0.7 -0.1,0.2 -0.3,0.6 -0.5,1.1 -0.6,1.2 -1.2,2.5 -1.8,3.7 -1.3,2.5 -2.7,4.9 -4.2,7.3 -2.9,4.8 -6,9.5 -8.7,14.5 -7.4,13.4 -14.5,27 -20.7,41 -7.2,16.2 -13.5,33.6 -16.3,51.2 -2.8,17.8 -1.5,42.2 20.4,46.7 16.9,3.4 36,-4 51.3,-10.7 7.7,-3.4 15.2,-8.6 19.6,-15.9 6.4,-11.3 0.9,-22.6 -9,-29.3 z"
         id="path1554"
         style="fill:#b3b3b3;fill-opacity:1;stroke:#ffffff;stroke-width:2.5;stroke-miterlimit:4;stroke-dasharray:none;stroke-opacity:1" />
    </g>
  </g>
  <g
     inkscape:label="Layer 1 copy copy"
     inkscape:groupmode="layer"
     id="g2115"
     style="display:inline">
    <g
       id="g7"
       transform="matrix(0.31750001,0,0,0.31750003,-43.673166,-69.044701)"
       style="fill:#b3b3b3;fill-opacity:1">
      <g
         id="g5"
         style="fill:#b3b3b3;fill-opacity:1">
        <path
           d="m 482.7,412.9 c -12.9,-7.3 -25.5,-17.6 -41,-17.3 -10.2,0.2 -17.9,10.7 -17.2,20.2 -2.8,0.1 -5.7,0.1 -8.5,0.3 -21.9,1 -43.7,4.1 -65.5,6.3 -21.3,2.1 -42.4,5.1 -63.6,8.1 -11.6,1.7 -23,3.9 -34.5,5.7 -5.7,0.9 -10.8,2.4 -16.3,4.1 -2.4,0.7 -4.7,1.6 -7.1,2.4 -3.4,1.1 -5,2.9 -7.8,4.8 -3,2 -3.8,6.4 -0.4,8.6 2.1,1.4 3.5,3.5 6.1,4.3 2.4,0.7 4.9,1.4 7.3,2 6,1.6 12.6,2.9 18.8,2.9 11,0.1 22.1,-0.1 33.1,-1.2 22,-2.1 43.9,-4.5 65.8,-6.7 21.8,-2.3 43.6,-5.2 65.4,-6.7 19.2,-1.3 38.5,-1.1 57.7,-3.6 8.1,-1.1 14.9,-5.7 16.8,-14 1.9,-8.3 -2.1,-16.2 -9.1,-20.2 z"
           id="path3"
           style="fill:#b3b3b3;fill-opacity:1" />
      </g>
    </g>
  </g>
  <g
     inkscape:label="Layer 1 copy copy copy"
     inkscape:groupmode="layer"
     id="g1166"
     style="display:inline">
    <ellipse
       style="fill:none;fill-opacity:1;stroke:#777777;stroke-width:2.59917;stroke-miterlimit:4;stroke-dasharray:none;stroke-opacity:1"
       id="ellipse1152"
       cx="66.145836"
       cy="66.145828"
       rx="64.846252"
       ry="64.846245" />
    <g
       id="g1158"
       transform="matrix(0.31750001,0,0,0.31750003,-46.848249,-72.219667)"
       style="stroke:#ffffff;fill:#33ccff;fill-opacity:1;stroke-width:2.49999991;stroke-miterlimit:4;stroke-dasharray:none;stroke-opacity:1">
      <g
         id="g1156"
         style="stroke:#ffffff;fill:#33ccff;fill-opacity:1;stroke-width:2.49999991;stroke-miterlimit:4;stroke-dasharray:none;stroke-opacity:1">
        <path
           d="m 482.7,412.9 c -12.9,-7.3 -25.5,-17.6 -41,-17.3 -10.2,0.2 -17.9,10.7 -17.2,20.2 -2.8,0.1 -5.7,0.1 -8.5,0.3 -21.9,1 -43.7,4.1 -65.5,6.3 -21.3,2.1 -42.4,5.1 -63.6,8.1 -11.6,1.7 -23,3.9 -34.5,5.7 -5.7,0.9 -10.8,2.4 -16.3,4.1 -2.4,0.7 -4.7,1.6 -7.1,2.4 -3.4,1.1 -5,2.9 -7.8,4.8 -3,2 -3.8,6.4 -0.4,8.6 2.1,1.4 3.5,3.5 6.1,4.3 2.4,0.7 4.9,1.4 7.3,2 6,1.6 12.6,2.9 18.8,2.9 11,0.1 22.1,-0.1 33.1,-1.2 22,-2.1 43.9,-4.5 65.8,-6.7 21.8,-2.3 43.6,-5.2 65.4,-6.7 19.2,-1.3 38.5,-1.1 57.7,-3.6 8.1,-1.1 14.9,-5.7 16.8,-14 1.9,-8.3 -2.1,-16.2 -9.1,-20.2 z"
           id="path1154"
           style="stroke:#ffffff;fill:#33ccff;fill-opacity:1;stroke-width:2.49999991;stroke-miterlimit:4;stroke-dasharray:none;stroke-opacity:1" />
      </g>
    </g>
    <circle
       style="fill:none;stroke:#777777;stroke-width:7.77241;stroke-miterlimit:4;stroke-dasharray:none;stroke-opacity:1;fill-opacity:1"
       id="circle1160"
       cx="66.145836"
       cy="66.145836"
       r="60.936714" />
  </g>
</svg>
