<?xml version="1.0" encoding="UTF-8" standalone="no"?>
<!-- Uploaded to: SVG Repo, www.svgrepo.com, Generator: SVG Repo Mixer Tools -->

<svg
   width="800px"
   height="800px"
   viewBox="0 0 24 24"
   fill="none"
   version="1.1"
   id="svg6"
   sodipodi:docname="m0x.svg"
   inkscape:version="1.1.2 (b8e25be833, 2022-02-05)"
   xmlns:inkscape="http://www.inkscape.org/namespaces/inkscape"
   xmlns:sodipodi="http://sodipodi.sourceforge.net/DTD/sodipodi-0.dtd"
   xmlns="http://www.w3.org/2000/svg"
   xmlns:svg="http://www.w3.org/2000/svg">
  <defs
     id="defs10" />
  <sodipodi:namedview
     id="namedview8"
     pagecolor="#ffffff"
     bordercolor="#666666"
     borderopacity="1.0"
     inkscape:pageshadow="2"
     inkscape:pageopacity="0.0"
     inkscape:pagecheckerboard="0"
     showgrid="false"
     inkscape:zoom="0.71417785"
     inkscape:cx="399.76037"
     inkscape:cy="399.76037"
     inkscape:window-width="1920"
     inkscape:window-height="1001"
     inkscape:window-x="-9"
     inkscape:window-y="-9"
     inkscape:window-maximized="1"
     inkscape:current-layer="svg6" />
  <path
     d="M 1.2,6.0000001 C 1.2,3.349032 3.3490318,1.2 5.9999997,1.2 H 17.999999 c 2.65092,0 4.799999,2.149032 4.799999,4.8000001 V 18 c 0,2.65092 -2.149079,4.8 -4.799999,4.8 H 5.9999997 C 3.3490318,22.8 1.2,20.65092 1.2,18 Z"
     stroke="#000000"
     stroke-width="2.4"
     id="path2"
     style="fill:#ffffff;fill-opacity:0.63137257;stroke:#555555;stroke-opacity:1" />
  <g
     aria-label=".1"
     id="text2325"
     style="font-size:14px;line-height:1.25;fill:#000000;stroke-width:0.03">
    <path
       d="M 8.2362137,17.018391 H 5.6795731 v -2.686524 h 2.5566406 z"
       style="font-weight:bold;-inkscape-font-specification:'sans-serif Bold';fill:#555555"
       id="path35393" />
    <path
       d="M 18.100471,17.018391 H 11.30555 v -1.777344 h 2.146484 V 9.8611641 H 11.30555 V 8.2000313 q 0.492187,0 0.943359,-0.054687 0.451172,-0.061523 0.751953,-0.2050781 0.355469,-0.1708985 0.533203,-0.444336 Q 13.7118,7.2224922 13.739143,6.812336 h 2.262696 v 8.428711 h 2.098632 z"
       style="font-weight:bold;-inkscape-font-specification:'sans-serif Bold';fill:#555555"
       id="path35395" />
  </g>
</svg>
