<?xml version="1.0" encoding="UTF-8" standalone="no"?>
<!-- Uploaded to: SVG Repo, www.svgrepo.com, Transformed by: SVG Repo Mixer Tools -->

<svg
   fill="#000000"
   height="800px"
   width="800px"
   version="1.1"
   id="Layer_1"
   viewBox="0 0 512.001 512.001"
   xml:space="preserve"
   sodipodi:docname="robot.svg"
   inkscape:version="1.1.2 (b8e25be833, 2022-02-05)"
   xmlns:inkscape="http://www.inkscape.org/namespaces/inkscape"
   xmlns:sodipodi="http://sodipodi.sourceforge.net/DTD/sodipodi-0.dtd"
   xmlns="http://www.w3.org/2000/svg"
   xmlns:svg="http://www.w3.org/2000/svg"><defs
   id="defs53" /><sodipodi:namedview
   id="namedview51"
   pagecolor="#ffffff"
   bordercolor="#666666"
   borderopacity="1.0"
   inkscape:pageshadow="2"
   inkscape:pageopacity="0.0"
   inkscape:pagecheckerboard="0"
   showgrid="false"
   inkscape:zoom="0.71417785"
   inkscape:cx="399.76037"
   inkscape:cy="399.76037"
   inkscape:window-width="1920"
   inkscape:window-height="1001"
   inkscape:window-x="-9"
   inkscape:window-y="-9"
   inkscape:window-maximized="1"
   inkscape:current-layer="Layer_1" />







<g
   id="g894"
   style="stroke:#555555;stroke-opacity:1;stroke-width:0.99968195;stroke-miterlimit:4;stroke-dasharray:none;fill:#555555;fill-opacity:1"><g
     id="g6"
     style="stroke:#555555;stroke-opacity:1;stroke-width:0.99968195;stroke-miterlimit:4;stroke-dasharray:none;fill:#555555;fill-opacity:1">
	<g
   id="g4"
   style="stroke:#555555;stroke-opacity:1;stroke-width:0.99968195;stroke-miterlimit:4;stroke-dasharray:none;fill:#555555;fill-opacity:1">
		<path
   d="M422.327,332.132v-87.835c0-4.518-3.661-8.18-8.18-8.18s-8.18,3.662-8.18,8.18v87.835    c0,21.936-17.846,39.784-39.784,39.784h-28.929v-32.55c0-21.745-17.691-39.435-39.434-39.435H214.18    c-21.745,0-39.434,17.691-39.434,39.434v32.55h-28.928c-21.937,0-39.784-17.846-39.784-39.784V203.383    c0-21.936,17.846-39.784,39.784-39.784h220.365c21.936,0,39.784,17.846,39.784,39.784v13.647c-0.001,4.518,3.661,8.18,8.179,8.18    c4.519,0,8.18-3.662,8.18-8.18v-13.647c0-30.957-25.186-56.144-56.144-56.144H215.924c3.8-18.646,20.324-32.72,40.076-32.72    c14.746,0,28.408,7.99,35.658,20.851c2.217,3.936,7.206,5.326,11.142,3.109c3.935-2.218,5.328-7.207,3.109-11.142    c-8.787-15.591-24.316-26.059-41.73-28.582V60.141c12.929-3.588,22.45-15.456,22.45-29.511c0-16.889-13.74-30.63-30.63-30.63    s-30.63,13.741-30.63,30.63c0,14.056,9.52,25.923,22.45,29.511v38.612c-25.037,3.598-44.888,23.448-48.486,48.486h-53.517    c-30.958,0-56.144,25.186-56.144,56.144v128.749c0,28.179,20.87,51.569,47.964,55.541v22.97    c-27.094,3.973-47.964,27.361-47.964,55.541v37.636c0,4.518,3.661,8.18,8.18,8.18c4.519,0,8.18-3.662,8.18-8.18v-37.636    c0-21.937,17.846-39.784,39.784-39.784h162.537c4.519,0,8.18-3.662,8.18-8.18s-3.661-8.18-8.18-8.18H153.999v-21.765h204.005    v21.765h-22.381c-4.519,0-8.18,3.662-8.18,8.18s3.661,8.18,8.18,8.18h30.561c21.936,0,39.784,17.846,39.784,39.784v37.637    c0,4.518,3.661,8.18,8.18,8.18s8.18-3.662,8.18-8.18v-37.637c0-28.179-20.87-51.569-47.964-55.541v-22.97    C401.458,383.7,422.327,360.311,422.327,332.132z M241.73,30.63c0-7.868,6.401-14.27,14.27-14.27s14.27,6.402,14.27,14.27    s-6.401,14.269-14.27,14.269S241.73,38.498,241.73,30.63z M206,371.915h-14.894v-32.55c0-9.84,6.203-18.238,14.894-21.549V371.915    z M247.821,371.915h-25.46v-55.624h25.46V371.915z M320.895,371.915h-14.894V350.09c0-4.518-3.661-8.18-8.18-8.18    s-8.18,3.662-8.18,8.18v21.825h-25.46v-55.624h25.46v11.985c0,4.518,3.661,8.18,8.18,8.18s8.18-3.662,8.18-8.18v-10.461    c8.692,3.312,14.894,11.709,14.894,21.549V371.915z"
   id="path2"
   style="stroke:#555555;stroke-opacity:1;stroke-width:0.99968195;stroke-miterlimit:4;stroke-dasharray:none;fill:#555555;fill-opacity:1" />
	</g>
</g><g
     id="g12"
     style="stroke:#555555;stroke-opacity:1;stroke-width:0.99968195;stroke-miterlimit:4;stroke-dasharray:none;fill:#555555;fill-opacity:1">
	<g
   id="g10"
   style="stroke:#555555;stroke-opacity:1;stroke-width:0.99968195;stroke-miterlimit:4;stroke-dasharray:none;fill:#555555;fill-opacity:1">
		<path
   d="M346.926,209.407c-21.951,0-39.809,17.858-39.809,39.809c0,21.951,17.858,39.809,39.809,39.809    c21.951,0,39.809-17.858,39.809-39.809C386.735,227.265,368.876,209.407,346.926,209.407z M346.926,272.665    c-12.93,0-23.449-10.519-23.449-23.449c0-12.93,10.519-23.449,23.449-23.449s23.449,10.519,23.449,23.449    C370.375,262.146,359.856,272.665,346.926,272.665z"
   id="path8"
   style="stroke:#555555;stroke-opacity:1;stroke-width:0.99968195;stroke-miterlimit:4;stroke-dasharray:none;fill:#555555;fill-opacity:1" />
	</g>
</g><g
     id="g18"
     style="stroke:#555555;stroke-opacity:1;stroke-width:0.99968195;stroke-miterlimit:4;stroke-dasharray:none;fill:#555555;fill-opacity:1">
	<g
   id="g16"
   style="stroke:#555555;stroke-opacity:1;stroke-width:0.99968195;stroke-miterlimit:4;stroke-dasharray:none;fill:#555555;fill-opacity:1">
		<path
   d="M165.075,209.407c-21.951,0-39.809,17.858-39.809,39.809c0,21.951,17.858,39.809,39.809,39.809    c21.951,0,39.809-17.858,39.809-39.809C204.885,227.265,187.026,209.407,165.075,209.407z M165.075,272.665    c-12.93,0-23.449-10.519-23.449-23.449c0-12.93,10.519-23.449,23.449-23.449c12.93,0,23.449,10.519,23.449,23.449    C188.525,262.146,178.005,272.665,165.075,272.665z"
   id="path14"
   style="stroke:#555555;stroke-opacity:1;stroke-width:0.99968195;stroke-miterlimit:4;stroke-dasharray:none;fill:#555555;fill-opacity:1" />
	</g>
</g><g
     id="g24"
     style="stroke:#555555;stroke-opacity:1;stroke-width:0.99968195;stroke-miterlimit:4;stroke-dasharray:none;fill:#555555;fill-opacity:1">
	<g
   id="g22"
   style="stroke:#555555;stroke-opacity:1;stroke-width:0.99968195;stroke-miterlimit:4;stroke-dasharray:none;fill:#555555;fill-opacity:1">
		<path
   d="M202.833,447.653h-5.725c-4.519,0-8.18,3.662-8.18,8.18s3.661,8.18,8.18,8.18h5.725c4.519,0,8.18-3.662,8.18-8.18    S207.352,447.653,202.833,447.653z"
   id="path20"
   style="stroke:#555555;stroke-opacity:1;stroke-width:0.99968195;stroke-miterlimit:4;stroke-dasharray:none;fill:#555555;fill-opacity:1" />
	</g>
</g><g
     id="g30"
     style="stroke:#555555;stroke-opacity:1;stroke-width:0.99968195;stroke-miterlimit:4;stroke-dasharray:none;fill:#555555;fill-opacity:1">
	<g
   id="g28"
   style="stroke:#555555;stroke-opacity:1;stroke-width:0.99968195;stroke-miterlimit:4;stroke-dasharray:none;fill:#555555;fill-opacity:1">
		<path
   d="M175.295,447.653h-21.538c-4.519,0-8.18,3.662-8.18,8.18s3.662,8.18,8.18,8.18h21.538c4.519,0,8.18-3.662,8.18-8.18    S179.814,447.653,175.295,447.653z"
   id="path26"
   style="stroke:#555555;stroke-opacity:1;stroke-width:0.99968195;stroke-miterlimit:4;stroke-dasharray:none;fill:#555555;fill-opacity:1" />
	</g>
</g><g
     id="g36"
     style="stroke:#555555;stroke-opacity:1;stroke-width:0.99968195;stroke-miterlimit:4;stroke-dasharray:none;fill:#555555;fill-opacity:1">
	<g
   id="g34"
   style="stroke:#555555;stroke-opacity:1;stroke-width:0.99968195;stroke-miterlimit:4;stroke-dasharray:none;fill:#555555;fill-opacity:1">
		<path
   d="M202.833,473.827h-49.076c-4.519,0-8.18,3.662-8.18,8.18s3.661,8.18,8.18,8.18h49.076c4.519,0,8.18-3.662,8.18-8.18    S207.352,473.827,202.833,473.827z"
   id="path32"
   style="stroke:#555555;stroke-opacity:1;stroke-width:0.99968195;stroke-miterlimit:4;stroke-dasharray:none;fill:#555555;fill-opacity:1" />
	</g>
</g><g
     id="g42"
     style="stroke:#555555;stroke-opacity:1;stroke-width:0.99968195;stroke-miterlimit:4;stroke-dasharray:none;fill:#555555;fill-opacity:1">
	<g
   id="g40"
   style="stroke:#555555;stroke-opacity:1;stroke-width:0.99968195;stroke-miterlimit:4;stroke-dasharray:none;fill:#555555;fill-opacity:1">
		<path
   d="M358.245,447.653h-49.078c-4.519,0-8.18,3.662-8.18,8.18s3.661,8.18,8.18,8.18h49.078c4.519,0,8.18-3.662,8.18-8.18    S362.763,447.653,358.245,447.653z"
   id="path38"
   style="stroke:#555555;stroke-opacity:1;stroke-width:0.99968195;stroke-miterlimit:4;stroke-dasharray:none;fill:#555555;fill-opacity:1" />
	</g>
</g><g
     id="g48"
     style="stroke:#555555;stroke-opacity:1;stroke-width:0.99968195;stroke-miterlimit:4;stroke-dasharray:none;fill:#555555;fill-opacity:1">
	<g
   id="g46"
   style="stroke:#555555;stroke-opacity:1;stroke-width:0.99968195;stroke-miterlimit:4;stroke-dasharray:none;fill:#555555;fill-opacity:1">
		<path
   d="M358.245,473.827h-49.078c-4.519,0-8.18,3.662-8.18,8.18s3.661,8.18,8.18,8.18h49.078c4.519,0,8.18-3.662,8.18-8.18    S362.763,473.827,358.245,473.827z"
   id="path44"
   style="stroke:#555555;stroke-opacity:1;stroke-width:0.99968195;stroke-miterlimit:4;stroke-dasharray:none;fill:#555555;fill-opacity:1" />
	</g>
</g></g>
</svg>
