<?xml version="1.0" encoding="UTF-8" standalone="no"?>
<!-- Uploaded to: SVG Repo, www.svgrepo.com, Generator: SVG Repo Mixer Tools -->

<svg
   fill="#000000"
   width="800px"
   height="800px"
   viewBox="0 0 32 32"
   version="1.1"
   id="svg4"
   sodipodi:docname="seedlings.svg"
   inkscape:version="1.1.2 (b8e25be833, 2022-02-05)"
   xmlns:inkscape="http://www.inkscape.org/namespaces/inkscape"
   xmlns:sodipodi="http://sodipodi.sourceforge.net/DTD/sodipodi-0.dtd"
   xmlns="http://www.w3.org/2000/svg"
   xmlns:svg="http://www.w3.org/2000/svg">
  <defs
     id="defs8" />
  <sodipodi:namedview
     id="namedview6"
     pagecolor="#ffffff"
     bordercolor="#666666"
     borderopacity="1.0"
     inkscape:pageshadow="2"
     inkscape:pageopacity="0.0"
     inkscape:pagecheckerboard="0"
     showgrid="false"
     inkscape:zoom="0.71417785"
     inkscape:cx="399.76037"
     inkscape:cy="399.76037"
     inkscape:window-width="1920"
     inkscape:window-height="1001"
     inkscape:window-x="-9"
     inkscape:window-y="-9"
     inkscape:window-maximized="1"
     inkscape:current-layer="svg4" />
  <path
     d="m 24.83385,13.627114 c -0.410438,0.02359 -0.679345,-0.108507 -0.712369,-0.132095 l -2.038037,1.302079 c 0.44818,0.702933 1.372844,1.179418 2.410733,1.240748 0.0802,0.0047 0.160401,0.0047 0.240601,0.0047 1.363409,0 2.70323,-0.688781 3.717529,-1.915377 1.731388,-2.104083 2.948549,-4.3355452 3.000443,-4.4298992 L 32,8.6829708 31.014006,8.0885428 C 25.541501,4.8003403 22.413681,6.3618916 21.323899,7.1874841 19.91803,8.2536798 19.276426,9.9992198 19.630252,11.702302 c -1.122807,0.717087 -2.240896,1.622881 -3.132537,2.726816 -0.514226,-1.203008 -1.316232,-2.283355 -2.250331,-3.236325 0.08492,-0.221731 0.141529,-0.438745 0.179271,-0.599146 0.01887,-0.08492 0.03774,-0.165119 0.06133,-0.235884 C 15.106,8.2867038 14.256818,5.8712532 12.374465,4.3521607 11.034645,3.271813 7.227481,1.1394232 0.8255925,4.6682453 L 0,5.1211423 0.2358832,6.0269362 c 0.047177,0.1839897 1.1888546,4.4865108 3.4580567,7.0057498 0.9812768,1.089784 2.2125913,1.703081 3.5665641,1.769129 0.08492,0.0047 0.169836,0.0047 0.250037,0.0047 1.519092,0 2.82117,-0.674628 3.34955,-1.15583 l -1.622881,-1.788 C 9.21834,11.876835 7.189739,13.301576 5.4913757,11.414506 4.1751436,9.9567608 3.2787844,7.616793 2.8541941,6.3335849 7.425622,4.1304296 9.954297,5.5032738 10.855374,6.2297966 11.912133,7.0836958 12.435796,8.3433158 12.218782,9.4378168 9.619342,7.5130047 6.911396,6.4373744 6.6943823,6.357173 L 5.8216124,8.6075058 c 2.4673456,0.95297 8.8692326,4.3685682 8.8692326,8.6144772 v 3.797729 c -0.919948,0.240602 -1.759694,0.735958 -2.391863,1.448327 -0.566121,-0.273624 -1.188854,-0.415155 -1.835176,-0.415155 -1.726669,0 -3.212737,1.037889 -3.8684946,2.528674 -0.3160846,-0.07548 -0.6368867,-0.113224 -0.9624061,-0.113224 -2.3305316,0 -4.2270383,1.896507 -4.2270383,4.227039 v 0.603862 h 2.4154505 v -0.603862 c 0,-1.000148 0.8114404,-1.811588 1.8115878,-1.811588 0.485921,0 0.8586178,0.20286 1.0850663,0.372696 L 8.652218,26.294075 v -0.01887 c 0.0047,-0.99543 0.816158,-1.806871 1.811588,-1.806871 0.485921,0 0.943536,0.193425 1.287926,0.542533 l 1.957836,-0.339672 c 0.396285,-0.858618 1.254902,-1.410586 2.189002,-1.410586 0.877488,0 1.688929,0.490638 2.113519,1.283208 l 1.905941,0.292497 c 0.240602,-0.235885 0.561404,-0.36798 0.89636,-0.36798 0.70765,0 1.287925,0.580275 1.287925,1.287926 0,0.141531 -0.02831,0.28306 -0.08492,0.438745 l 1.938966,1.31623 c 0.320802,-0.287778 0.858617,-0.62745 1.60401,-0.62745 1.330385,0 2.41545,1.085066 2.41545,2.41545 h 2.415451 c 0,-2.665487 -2.165414,-4.830901 -4.830901,-4.830901 -0.415156,0 -0.825594,0.05661 -1.21716,0.160402 -0.481204,-1.495505 -1.882354,-2.575852 -3.528822,-2.575852 -0.504792,0 -0.985996,0.09907 -1.438893,0.287778 -0.618015,-0.646322 -1.405867,-1.094501 -2.269202,-1.32095 v -1.382279 h 0.0047 v -0.396285 c 0,-5.01489 7.887956,-7.416187 7.968157,-7.439775 L 24.399806,9.4849928 c -0.12266,0.03302 -1.108655,0.334955 -2.406016,0.9293822 0.09435,-0.5000732 0.353826,-0.9671232 0.79257,-1.2973602 1.27849,-0.971842 3.448622,-0.787852 5.934838,0.467049 -0.485921,0.7925702 -1.24075,1.9295312 -2.13239,3.0098782 -0.665194,0.806723 -1.32095,1.009583 -1.754976,1.033172 z m -11.973464,-3.8684952 0.01415,0.188707 c -0.06133,-0.04718 -0.127377,-0.09435 -0.188707,-0.146248 0.05661,-0.01415 0.108507,-0.03774 0.174554,-0.04246 z"
     id="path2"
     style="fill:#555555;fill-opacity:1;stroke-width:1.20773" />
</svg>
