<?xml version="1.0" encoding="UTF-8" standalone="no"?>
<!-- Uploaded to: SVG Repo, www.svgrepo.com, Generator: SVG Repo Mixer Tools -->

<svg
   width="2000"
   height="800"
   viewBox="0 0 60 24"
   fill="none"
   version="1.1"
   id="svg6"
   sodipodi:docname="sell.svg"
   inkscape:version="1.1.2 (b8e25be833, 2022-02-05)"
   xmlns:inkscape="http://www.inkscape.org/namespaces/inkscape"
   xmlns:sodipodi="http://sodipodi.sourceforge.net/DTD/sodipodi-0.dtd"
   xmlns="http://www.w3.org/2000/svg"
   xmlns:svg="http://www.w3.org/2000/svg">
  <defs
     id="defs10" />
  <sodipodi:namedview
     id="namedview8"
     pagecolor="#ffffff"
     bordercolor="#666666"
     borderopacity="1.0"
     inkscape:pageshadow="2"
     inkscape:pageopacity="0"
     inkscape:pagecheckerboard="0"
     showgrid="false"
     inkscape:zoom="0.35708893"
     inkscape:cx="1048.7584"
     inkscape:cy="197.42981"
     inkscape:window-width="1920"
     inkscape:window-height="1001"
     inkscape:window-x="-9"
     inkscape:window-y="-9"
     inkscape:window-maximized="1"
     inkscape:current-layer="text2325"
     width="1600px" />
  <path
     d="M 1.2,6.0000001 C 1.2,3.349032 3.3490318,1.2 5.9999997,1.2 H 17.999999 c 2.65092,0 4.799999,2.149032 4.799999,4.8000001 V 18 c 0,2.65092 -2.149079,4.8 -4.799999,4.8 H 5.9999997 C 3.3490318,22.8 1.2,20.65092 1.2,18 Z"
     stroke="#000000"
     stroke-width="2.4"
     id="path2"
     style="fill:#ffffff;fill-opacity:0.631373;stroke:#555555;stroke-opacity:1" />
  <path
     d="M 13.2,6.0000001 C 13.2,3.349032 15.349032,1.2 18,1.2 h 11.999999 c 2.65092,0 4.799999,2.149032 4.799999,4.8000001 V 18 c 0,2.65092 -2.149079,4.8 -4.799999,4.8 H 18 c -2.650968,0 -4.8,-2.14908 -4.8,-4.8 z"
     stroke="#000000"
     stroke-width="2.4"
     id="path2-8"
     style="fill:#ffffff;fill-opacity:0.631373;stroke:#555555;stroke-opacity:1" />
  <path
     d="M 25.2,6.0000001 C 25.2,3.349032 27.349032,1.2 30,1.2 h 11.999999 c 2.65092,0 4.799999,2.149032 4.799999,4.8000001 V 18 c 0,2.65092 -2.149079,4.8 -4.799999,4.8 H 30 c -2.650968,0 -4.8,-2.14908 -4.8,-4.8 z"
     stroke="#000000"
     stroke-width="2.4"
     id="path2-8-7"
     style="fill:#ffffff;fill-opacity:0.631373;stroke:#555555;stroke-opacity:1" />
  <path
     d="M 37.2,6.0000001 C 37.2,3.349032 39.349032,1.2 42,1.2 h 11.999999 c 2.65092,0 4.799999,2.149032 4.799999,4.8000001 V 18 c 0,2.65092 -2.149079,4.8 -4.799999,4.8 H 42 c -2.650968,0 -4.8,-2.14908 -4.8,-4.8 z"
     stroke="#000000"
     stroke-width="2.4"
     id="path2-7"
     style="fill:#ffffff;fill-opacity:0.631373;stroke:#555555;stroke-opacity:1" />
  <path
     d="m 31.148885,7.304937 c 0,-2.074411 2.517375,-3.756052 5.622716,-3.756052 h 14.056796 c 3.105285,0 5.622716,1.681641 5.622716,3.756052 v 9.390129 c 0,2.074374 -2.517431,3.756053 -5.622716,3.756053 H 36.771601 c -3.105341,0 -5.622716,-1.681679 -5.622716,-3.756053 z"
     stroke="#000000"
     stroke-width="2.29777"
     id="path2-7-7"
     style="fill:#ffffff;fill-opacity:1;stroke:#ffffff;stroke-opacity:1" />
  <path
     d="m 17.348885,7.304937 c 0,-2.074411 2.517375,-3.756052 5.622716,-3.756052 h 14.056796 c 3.105285,0 5.622716,1.681641 5.622716,3.756052 v 9.390129 c 0,2.074374 -2.517431,3.756053 -5.622716,3.756053 H 22.971601 c -3.105341,0 -5.622716,-1.681679 -5.622716,-3.756053 z"
     stroke="#000000"
     stroke-width="2.29777"
     id="path2-7-7-11"
     style="fill:#ffffff;fill-opacity:1;stroke:#ffffff;stroke-opacity:1" />
  <path
     d="m 3.548885,7.3049371 c 0,-2.0744114 2.5173751,-3.7560521 5.6227159,-3.7560521 H 23.228398 c 3.105285,0 5.622716,1.6816407 5.622716,3.7560521 v 9.3901289 c 0,2.074374 -2.517431,3.756053 -5.622716,3.756053 H 9.1716009 c -3.1053408,0 -5.6227159,-1.681679 -5.6227159,-3.756053 z"
     stroke="#000000"
     stroke-width="2.29777"
     id="path2-7-7-1"
     style="fill:#ffffff;fill-opacity:1;stroke:#ffffff;stroke-opacity:1" />
  <g
     aria-label=".1"
     id="text2325"
     style="font-size:14px;line-height:1.25;fill:#000000;stroke-width:0.03"
     transform="translate(11.929802,-23.77559)">
    <g
       aria-label="Sell"
       id="text2163"
       style="fill:#555555;stroke-width:0.0009">
      <path
         d="m 13.38182,37.447662 q 0,1.503907 -1.278321,2.447266 -1.271484,0.936523 -3.458984,0.936523 -1.2646484,0 -2.2080078,-0.21875 -0.9365234,-0.225586 -1.7568359,-0.567382 v -2.44043 h 0.2871094 q 0.8134765,0.649414 1.8183593,0.998047 1.0117188,0.348633 1.9414063,0.348633 0.2392578,0 0.6289062,-0.04102 0.3896485,-0.04102 0.6357422,-0.136719 0.3007813,-0.123047 0.4921873,-0.307617 0.198242,-0.18457 0.198242,-0.546875 0,-0.334961 -0.287109,-0.574219 Q 10.114242,37.09903 9.5673666,36.969147 8.9931479,36.832428 8.3505697,36.716217 7.7148275,36.59317 7.1542807,36.4086 5.8691244,35.991608 5.3017416,35.28067 4.7411947,34.562897 4.7411947,33.503326 q 0,-1.421875 1.2714844,-2.317382 1.2783203,-0.902344 3.28125,-0.902344 1.0048829,0 1.9824219,0.198242 0.984375,0.191406 1.702148,0.485352 v 2.344726 h -0.280273 q -0.615234,-0.492187 -1.510742,-0.820312 -0.888672,-0.334961 -1.8183596,-0.334961 -0.328125,0 -0.65625,0.04785 -0.321289,0.04102 -0.6220703,0.164063 Q 7.8242025,32.4711 7.6327963,32.683014 7.44139,32.888092 7.44139,33.154694 q 0,0.40332 0.3076172,0.62207 0.3076172,0.211914 1.1621094,0.389648 0.5605469,0.116211 1.0732422,0.225586 0.5195312,0.109375 1.1142582,0.300782 1.168945,0.382812 1.722656,1.045898 0.560547,0.65625 0.560547,1.708984 z"
         style="font-weight:bold;-inkscape-font-specification:'sans-serif Bold'"
         id="path11831" />
      <path
         d="m 22.603499,37.263092 h -5.632812 q 0.05469,0.902344 0.683594,1.380859 0.635742,0.478516 1.866211,0.478516 0.779296,0 1.510742,-0.280273 0.731445,-0.280274 1.155273,-0.601563 h 0.273438 v 1.975586 q -0.833985,0.334961 -1.572266,0.485352 -0.738281,0.15039 -1.633789,0.15039 -2.310547,0 -3.541016,-1.039062 -1.230468,-1.039063 -1.230468,-2.959961 0,-1.900391 1.162109,-3.007813 1.168945,-1.114258 3.199219,-1.114258 1.873047,0 2.816406,0.950196 0.943359,0.943359 0.943359,2.720703 z m -2.447265,-1.442383 q -0.02051,-0.772461 -0.382813,-1.162109 -0.362304,-0.389649 -1.127929,-0.389649 -0.710938,0 -1.168946,0.369141 -0.458008,0.369141 -0.512695,1.182617 z"
         style="font-weight:bold;-inkscape-font-specification:'sans-serif Bold'"
         id="path11833" />
      <path
         d="M 26.800765,40.646881 H 24.339828 V 30.010162 h 2.460937 z"
         style="font-weight:bold;-inkscape-font-specification:'sans-serif Bold'"
         id="path11835" />
      <path
         d="M 31.585921,40.646881 H 29.124984 V 30.010162 h 2.460937 z"
         style="font-weight:bold;-inkscape-font-specification:'sans-serif Bold'"
         id="path11837" />
    </g>
  </g>
</svg>
