<?xml version="1.0" encoding="UTF-8" standalone="no"?>
<!-- Created with Inkscape (http://www.inkscape.org/) -->

<svg
   width="500"
   height="500"
   viewBox="0 0 132.29167 132.29167"
   version="1.1"
   id="svg58"
   inkscape:version="1.1.2 (b8e25be833, 2022-02-05)"
   sodipodi:docname="seven_stamp.svg"
   xmlns:inkscape="http://www.inkscape.org/namespaces/inkscape"
   xmlns:sodipodi="http://sodipodi.sourceforge.net/DTD/sodipodi-0.dtd"
   xmlns="http://www.w3.org/2000/svg"
   xmlns:svg="http://www.w3.org/2000/svg">
  <sodipodi:namedview
     id="namedview60"
     pagecolor="#ffffff"
     bordercolor="#666666"
     borderopacity="1.0"
     inkscape:pageshadow="2"
     inkscape:pageopacity="0.0"
     inkscape:pagecheckerboard="true"
     inkscape:document-units="px"
     showgrid="false"
     units="px"
     inkscape:zoom="1"
     inkscape:cx="94.5"
     inkscape:cy="261.5"
     inkscape:window-width="1920"
     inkscape:window-height="1001"
     inkscape:window-x="-9"
     inkscape:window-y="-9"
     inkscape:window-maximized="1"
     inkscape:current-layer="g3927"
     showguides="false" />
  <defs
     id="defs55" />
  <g
     inkscape:label="Layer 1 c copy 1 copy copy"
     inkscape:groupmode="layer"
     id="g3927"
     style="display:inline">
    <ellipse
       style="fill:none;fill-opacity:1;stroke:#777777;stroke-width:2.59917;stroke-miterlimit:4;stroke-dasharray:none;stroke-opacity:1"
       id="ellipse3905"
       cx="66.145836"
       cy="66.145828"
       rx="64.846252"
       ry="64.846245" />
    <circle
       style="fill:none;fill-opacity:1;stroke:#777777;stroke-width:7.77241;stroke-miterlimit:4;stroke-dasharray:none;stroke-opacity:1"
       id="circle3907"
       cx="66.145836"
       cy="66.145836"
       r="60.936714" />
    <g
       id="g57"
       transform="matrix(0.31749999,0,0,0.31750002,-166.30754,-296.37205)"
       style="display:inline;fill:#b3b3b3;fill-opacity:1">
      <path
         d="m 885.1,1096.3 c -3.5,-4.7 -7.3,-8.3 -11.9,-12 -4.6,-3.7 -8.5,-8.6 -13.9,-11 -4.4,-2 -8.8,-1.7 -12.1,0.3 0.1,-0.1 0.1,-0.2 0.2,-0.4 -3.7,1.8 -5.8,6.2 -5.8,10.1 0,5.8 1.9,10.3 5.2,14.3 -29.7,9 -60.5,14.3 -91,20.6 2,-8.5 4.3,-16.9 6.7,-25.3 2.7,-9.3 6.1,-20.3 4.7,-30.1 -0.8,-5.3 -1.8,-9.7 -4.3,-14.5 -3.1,-5.8 -7.5,-8.9 -13.6,-9.9 -7.2,-3.2 -15,-4.2 -22.9,-3.9 -3.8,0.1 -6.8,5.7 -2.6,7.9 3.3,1.8 6.6,3.6 9.8,5.7 1.2,0.8 2.3,1.6 3.4,2.6 0.1,0.1 0.5,0.5 0.8,0.8 0.2,1.8 0.5,3.4 1.5,5.1 0.2,0.3 0.4,0.8 0.6,1.2 0.1,0.3 0.2,0.7 0.3,1 0,0.1 0.1,0.3 0.1,0.5 0,0.6 0.1,1.3 0.1,1.9 0,0.8 -0.3,4.7 -0.3,4.4 -1.6,11.1 -6,22.1 -8.8,33 -2.3,8.8 -4.2,17.5 -5.8,26.4 -21,5.2 -41.1,13.3 -61.8,19.4 -10.6,3.1 -21,6.7 -31.2,10.9 -8.5,3.5 -21.3,7.8 -26.3,16.2 -2.1,3.5 0.8,6.9 4.5,6.6 4.2,-0.4 9.2,-2.9 13,-4.8 4.9,-2.4 9.9,-4.5 14.9,-6.5 10.2,-4 20.7,-7.2 31.2,-10.1 16.8,-4.7 34.7,-5.9 52.2,-7.7 -1.5,13.7 -2.3,27.4 -2.5,41.3 -0.2,24.9 2.5,59.3 27.9,72.1 18.1,9.2 44.2,6.1 58.6,-8.4 1.6,-1.6 1,-5.1 -1.7,-5.1 -9.4,0 -18.4,1.8 -27.7,2.4 -8.1,0.5 -16.4,-0.6 -22.5,-6.4 -7.5,-7.2 -8.8,-19.4 -9.2,-29.2 -0.4,-13.1 1,-26.2 2.3,-39.2 1,-10.5 1.9,-20.9 3.4,-31.2 42.8,-5.8 86,-12.9 126.4,-28.4 7.7,-2.8 14,-12.8 8.1,-20.6 z"
         id="path55"
         style="fill:#b3b3b3;fill-opacity:1" />
    </g>
  </g>
  <g
     inkscape:label="Layer 1"
     inkscape:groupmode="layer"
     id="g4447"
     style="display:inline">
    <ellipse
       style="fill:none;fill-opacity:1;stroke:#777777;stroke-width:2.59917;stroke-miterlimit:4;stroke-dasharray:none;stroke-opacity:1"
       id="ellipse4425"
       cx="66.145836"
       cy="66.145828"
       rx="64.846252"
       ry="64.846245" />
    <circle
       style="fill:none;fill-opacity:1;stroke:#777777;stroke-width:7.77241;stroke-miterlimit:4;stroke-dasharray:none;stroke-opacity:1"
       id="circle4427"
       cx="66.145836"
       cy="66.145836"
       r="60.936714" />
    <g
       id="g4445"
       transform="matrix(0.31749999,0,0,0.31750002,-170.01175,-299.01796)"
       style="display:inline;stroke:#ffffff;stroke-opacity:1;stroke-width:2.50000002;stroke-miterlimit:4;stroke-dasharray:none;fill:#ff0000;fill-opacity:1">
      <path
         d="m 885.1,1096.3 c -3.5,-4.7 -7.3,-8.3 -11.9,-12 -4.6,-3.7 -8.5,-8.6 -13.9,-11 -4.4,-2 -8.8,-1.7 -12.1,0.3 0.1,-0.1 0.1,-0.2 0.2,-0.4 -3.7,1.8 -5.8,6.2 -5.8,10.1 0,5.8 1.9,10.3 5.2,14.3 -29.7,9 -60.5,14.3 -91,20.6 2,-8.5 4.3,-16.9 6.7,-25.3 2.7,-9.3 6.1,-20.3 4.7,-30.1 -0.8,-5.3 -1.8,-9.7 -4.3,-14.5 -3.1,-5.8 -7.5,-8.9 -13.6,-9.9 -7.2,-3.2 -15,-4.2 -22.9,-3.9 -3.8,0.1 -6.8,5.7 -2.6,7.9 3.3,1.8 6.6,3.6 9.8,5.7 1.2,0.8 2.3,1.6 3.4,2.6 0.1,0.1 0.5,0.5 0.8,0.8 0.2,1.8 0.5,3.4 1.5,5.1 0.2,0.3 0.4,0.8 0.6,1.2 0.1,0.3 0.2,0.7 0.3,1 0,0.1 0.1,0.3 0.1,0.5 0,0.6 0.1,1.3 0.1,1.9 0,0.8 -0.3,4.7 -0.3,4.4 -1.6,11.1 -6,22.1 -8.8,33 -2.3,8.8 -4.2,17.5 -5.8,26.4 -21,5.2 -41.1,13.3 -61.8,19.4 -10.6,3.1 -21,6.7 -31.2,10.9 -8.5,3.5 -21.3,7.8 -26.3,16.2 -2.1,3.5 0.8,6.9 4.5,6.6 4.2,-0.4 9.2,-2.9 13,-4.8 4.9,-2.4 9.9,-4.5 14.9,-6.5 10.2,-4 20.7,-7.2 31.2,-10.1 16.8,-4.7 34.7,-5.9 52.2,-7.7 -1.5,13.7 -2.3,27.4 -2.5,41.3 -0.2,24.9 2.5,59.3 27.9,72.1 18.1,9.2 44.2,6.1 58.6,-8.4 1.6,-1.6 1,-5.1 -1.7,-5.1 -9.4,0 -18.4,1.8 -27.7,2.4 -8.1,0.5 -16.4,-0.6 -22.5,-6.4 -7.5,-7.2 -8.8,-19.4 -9.2,-29.2 -0.4,-13.1 1,-26.2 2.3,-39.2 1,-10.5 1.9,-20.9 3.4,-31.2 42.8,-5.8 86,-12.9 126.4,-28.4 7.7,-2.8 14,-12.8 8.1,-20.6 z"
         id="path4443"
         style="stroke:#ffffff;stroke-opacity:1;stroke-width:2.50000002;stroke-miterlimit:4;stroke-dasharray:none;fill:#ff0000;fill-opacity:1" />
    </g>
  </g>
</svg>
