<?xml version="1.0" encoding="UTF-8" standalone="no"?>
<!-- Uploaded to: SVG Repo, www.svgrepo.com, Generator: SVG Repo Mixer Tools -->

<svg
   width="800px"
   height="800px"
   viewBox="0 0 16 16"
   fill="none"
   version="1.1"
   id="svg8"
   sodipodi:docname="shopping_white.svg"
   inkscape:version="1.1.2 (b8e25be833, 2022-02-05)"
   xmlns:inkscape="http://www.inkscape.org/namespaces/inkscape"
   xmlns:sodipodi="http://sodipodi.sourceforge.net/DTD/sodipodi-0.dtd"
   xmlns="http://www.w3.org/2000/svg"
   xmlns:svg="http://www.w3.org/2000/svg">
  <defs
     id="defs12" />
  <sodipodi:namedview
     id="namedview10"
     pagecolor="#ffffff"
     bordercolor="#666666"
     borderopacity="1.0"
     inkscape:pageshadow="2"
     inkscape:pageopacity="0.0"
     inkscape:pagecheckerboard="0"
     showgrid="false"
     inkscape:zoom="0.71417785"
     inkscape:cx="399.76037"
     inkscape:cy="399.76037"
     inkscape:window-width="1920"
     inkscape:window-height="1001"
     inkscape:window-x="-9"
     inkscape:window-y="-9"
     inkscape:window-maximized="1"
     inkscape:current-layer="svg8" />
  <g
     fill="#000000"
     id="g6"
     transform="matrix(1.052479,0,0,1.052479,-0.5262395,-0.6829485)"
     style="fill:#ffffff;fill-opacity:1">
    <path
       fill-rule="evenodd"
       d="m 1.25,1.5 a 0.75,0.75 0 0 0 0,1.5 H 2.404 A 0.75,0.75 0 0 1 3.14,3.604 l 0.874,4.413 0.405,2.15 A 2.25,2.25 0 0 0 6.63,12 h 6.095 a 2.25,2.25 0 0 0 2.214,-1.848 l 0.727,-4 A 2.25,2.25 0 0 0 13.453,3.5 H 4.648 L 4.611,3.313 A 2.25,2.25 0 0 0 2.404,1.5 Z M 5.487,7.736 4.945,5 h 8.508 a 0.75,0.75 0 0 1 0.738,0.884 l -0.728,4 A 0.75,0.75 0 0 1 12.725,10.5 H 6.63 A 0.75,0.75 0 0 1 5.893,9.889 Z"
       clip-rule="evenodd"
       id="path2"
       style="fill:#ffffff;fill-opacity:1" />
    <path
       d="M 7.5,13.75 C 7.5,14.44 6.94,15 6.25,15 H 6.24 a 1.25,1.25 0 1 1 0,-2.5 h 0.01 c 0.69,0 1.25,0.56 1.25,1.25 z m 6.5,0 C 14,14.44 13.44,15 12.75,15 h -0.01 a 1.25,1.25 0 1 1 0,-2.5 h 0.01 c 0.69,0 1.25,0.56 1.25,1.25 z"
       id="path4"
       style="fill:#ffffff;fill-opacity:1" />
  </g>
</svg>
