<?xml version="1.0" encoding="UTF-8" standalone="no"?>
<!-- Created with Inkscape (http://www.inkscape.org/) -->

<svg
   width="500"
   height="500"
   viewBox="0 0 132.29167 132.29167"
   version="1.1"
   id="svg58"
   inkscape:version="1.1.2 (b8e25be833, 2022-02-05)"
   sodipodi:docname="six_stamp.svg"
   xmlns:inkscape="http://www.inkscape.org/namespaces/inkscape"
   xmlns:sodipodi="http://sodipodi.sourceforge.net/DTD/sodipodi-0.dtd"
   xmlns="http://www.w3.org/2000/svg"
   xmlns:svg="http://www.w3.org/2000/svg">
  <sodipodi:namedview
     id="namedview60"
     pagecolor="#ffffff"
     bordercolor="#666666"
     borderopacity="1.0"
     inkscape:pageshadow="2"
     inkscape:pageopacity="0.0"
     inkscape:pagecheckerboard="true"
     inkscape:document-units="px"
     showgrid="false"
     units="px"
     inkscape:zoom="1"
     inkscape:cx="94.5"
     inkscape:cy="261.5"
     inkscape:window-width="1920"
     inkscape:window-height="1001"
     inkscape:window-x="-9"
     inkscape:window-y="-9"
     inkscape:window-maximized="1"
     inkscape:current-layer="g3319"
     showguides="false" />
  <defs
     id="defs55" />
  <g
     inkscape:label="Layer 1 c copy 1 copy"
     inkscape:groupmode="layer"
     id="g3319"
     style="display:inline">
    <ellipse
       style="fill:none;fill-opacity:1;stroke:#777777;stroke-width:2.59917;stroke-miterlimit:4;stroke-dasharray:none;stroke-opacity:1"
       id="ellipse3297"
       cx="66.145836"
       cy="66.145828"
       rx="64.846252"
       ry="64.846245" />
    <circle
       style="fill:none;fill-opacity:1;stroke:#777777;stroke-width:7.77241;stroke-miterlimit:4;stroke-dasharray:none;stroke-opacity:1"
       id="circle3299"
       cx="66.145836"
       cy="66.145836"
       r="60.936714" />
    <g
       id="g53"
       transform="matrix(0.31749999,0,0,0.31750002,-49.673316,-300.3667)"
       style="display:inline;fill:#b3b3b3;fill-opacity:1">
      <g
         id="g43"
         style="fill:#b3b3b3;fill-opacity:1">
        <path
           d="m 498.5,1070.2 c -7.6,-4 -15.5,-7.2 -23.3,-10.8 -9.3,-4.2 -18,-10.5 -28.7,-9.6 -9.6,0.8 -15,8 -13.4,17.5 0.8,4.8 2.9,8.8 5.9,12.2 -25.7,4.3 -51.8,6.6 -77.6,11 0.4,-3.6 0.6,-7.3 0.9,-11 0.7,-10 3.3,-19.8 2.2,-29.9 -1.3,-13.4 -8.8,-22.9 -20.8,-28.9 -7.2,-3.6 -14.5,-5 -22.4,-3.2 -3.7,0.9 -7.4,2.4 -9.5,5.8 -3.2,5.2 -1.3,11.5 3.5,14.8 3.6,2.5 6.5,5.6 10.6,7.5 1.7,0.8 3.3,1.7 4.9,2.7 0.2,0.1 0.4,0.3 0.5,0.4 0.8,0.7 1.5,1.4 2.2,2.1 0.4,0.5 0.7,0.8 0.8,0.9 0.7,1 1.5,1.9 2.3,2.7 1,1.1 2.2,2 3.2,3.1 0.4,0.4 0.8,0.8 1.1,1.3 0.1,0.1 0.2,0.2 0.3,0.4 1.1,1.6 2,3.3 2.9,5.1 2.8,5.5 3.7,13.9 3.9,20.6 0.1,2.8 0.1,5.5 0.2,8.2 -24.1,5 -47,13.9 -69.9,22.7 -23.6,9.1 -47.6,14.7 -72.4,19.1 -3.1,0.6 -2.9,5.8 0.4,5.7 24.5,-0.9 48.6,-6.1 72.9,-9.2 24.6,-3.2 48.8,-8.2 73.4,-11.8 47.2,-6.9 96.2,-3.5 142.3,-17.1 14.3,-4.3 17.2,-25.1 3.6,-32.3 z"
           id="path41"
           style="fill:#b3b3b3;fill-opacity:1" />
      </g>
      <g
         id="g47"
         style="fill:#b3b3b3;fill-opacity:1">
        <path
           d="m 338.8,1161.3 c -8.8,-2.2 -18,3 -20.3,11.8 -0.8,3.2 -0.9,6.3 0,9.5 -0.1,-0.5 0.6,1.4 1.4,3 0,0.1 0,0.2 0,0.3 0,0.8 0,1.6 -0.1,2.4 0,0.1 0,0.1 0,0.2 -0.4,2.3 -1,4.7 -1.7,6.9 -3.5,12.3 -7.3,19.6 -13.1,31 -5.8,11.4 -11.6,22.7 -17.5,34 -4.3,8.1 -8.3,16 -11.1,24.7 -0.1,0.2 0.2,0.4 0.4,0.3 19.7,-13 35.9,-31.9 50.2,-50.5 7.7,-9.9 15.2,-20.3 20.3,-31.8 5.8,-12.9 11,-37 -8.5,-41.8 z"
           id="path45"
           style="fill:#b3b3b3;fill-opacity:1" />
      </g>
      <g
         id="g51"
         style="fill:#b3b3b3;fill-opacity:1">
        <path
           d="m 489.1,1238.8 c -5.3,-12.5 -12.3,-24.3 -21.4,-34.5 -7.9,-8.9 -16.8,-16.7 -26.3,-24 -4.5,-3.5 -10.8,-7.8 -16.6,-8.7 -3.1,-0.5 -6.3,-0.7 -9.4,-1.2 -2.4,-0.4 -5,0.1 -7.3,-0.6 -1.3,-0.4 -2.1,1 -1.4,2 1.9,2.9 2.9,8.4 3.8,11.8 1.3,5 3.9,8.9 6.5,13.3 2.6,4.4 6.4,7.9 9.2,11.6 3.8,5.1 7.5,10.3 10.9,15.6 2.7,4.2 5.5,8.5 8.1,12.8 1.3,2.1 2.5,4.2 3.7,6.4 0.6,1.1 1.1,2.1 1.7,3.2 0.2,0.3 0.3,0.6 0.4,0.9 0.1,0.3 0.3,0.6 0.5,1.1 1.8,4.2 3,8.6 4.3,12.9 0.6,2.1 1,4.2 1.4,6.3 0.6,2.1 1.4,4.1 2.5,5.9 0.1,0.2 10.6,11.3 4.8,5 5.9,6.4 14.3,5.7 20.6,1.5 l -0.1,0.1 c 14.3,-9.8 9.9,-27.9 4.1,-41.4 z"
           id="path49"
           style="fill:#b3b3b3;fill-opacity:1" />
      </g>
    </g>
  </g>
  <g
     inkscape:label="Layer 1 c copy 1 copy copy"
     inkscape:groupmode="layer"
     id="g3927"
     style="display:inline">
    <ellipse
       style="fill:none;fill-opacity:1;stroke:#777777;stroke-width:2.59917;stroke-miterlimit:4;stroke-dasharray:none;stroke-opacity:1"
       id="ellipse3905"
       cx="66.145836"
       cy="66.145828"
       rx="64.846252"
       ry="64.846245" />
    <circle
       style="fill:none;fill-opacity:1;stroke:#777777;stroke-width:7.77241;stroke-miterlimit:4;stroke-dasharray:none;stroke-opacity:1"
       id="circle3907"
       cx="66.145836"
       cy="66.145836"
       r="60.936714" />
    <g
       id="g3925"
       transform="matrix(0.31749999,0,0,0.31750002,-52.848379,-302.48336)"
       style="display:inline;fill:#ff9933;fill-opacity:1;stroke:#ffffff;stroke-opacity:1;stroke-width:2.50000002;stroke-miterlimit:4;stroke-dasharray:none">
      <g
         id="g3915"
         style="fill:#ff9933;fill-opacity:1;stroke:#ffffff;stroke-opacity:1;stroke-width:2.50000002;stroke-miterlimit:4;stroke-dasharray:none">
        <path
           d="m 498.5,1070.2 c -7.6,-4 -15.5,-7.2 -23.3,-10.8 -9.3,-4.2 -18,-10.5 -28.7,-9.6 -9.6,0.8 -15,8 -13.4,17.5 0.8,4.8 2.9,8.8 5.9,12.2 -25.7,4.3 -51.8,6.6 -77.6,11 0.4,-3.6 0.6,-7.3 0.9,-11 0.7,-10 3.3,-19.8 2.2,-29.9 -1.3,-13.4 -8.8,-22.9 -20.8,-28.9 -7.2,-3.6 -14.5,-5 -22.4,-3.2 -3.7,0.9 -7.4,2.4 -9.5,5.8 -3.2,5.2 -1.3,11.5 3.5,14.8 3.6,2.5 6.5,5.6 10.6,7.5 1.7,0.8 3.3,1.7 4.9,2.7 0.2,0.1 0.4,0.3 0.5,0.4 0.8,0.7 1.5,1.4 2.2,2.1 0.4,0.5 0.7,0.8 0.8,0.9 0.7,1 1.5,1.9 2.3,2.7 1,1.1 2.2,2 3.2,3.1 0.4,0.4 0.8,0.8 1.1,1.3 0.1,0.1 0.2,0.2 0.3,0.4 1.1,1.6 2,3.3 2.9,5.1 2.8,5.5 3.7,13.9 3.9,20.6 0.1,2.8 0.1,5.5 0.2,8.2 -24.1,5 -47,13.9 -69.9,22.7 -23.6,9.1 -47.6,14.7 -72.4,19.1 -3.1,0.6 -2.9,5.8 0.4,5.7 24.5,-0.9 48.6,-6.1 72.9,-9.2 24.6,-3.2 48.8,-8.2 73.4,-11.8 47.2,-6.9 96.2,-3.5 142.3,-17.1 14.3,-4.3 17.2,-25.1 3.6,-32.3 z"
           id="path3913"
           style="fill:#ff9933;fill-opacity:1;stroke:#ffffff;stroke-opacity:1;stroke-width:2.50000002;stroke-miterlimit:4;stroke-dasharray:none" />
      </g>
      <g
         id="g3919"
         style="fill:#ff9933;fill-opacity:1;stroke:#ffffff;stroke-opacity:1;stroke-width:2.50000002;stroke-miterlimit:4;stroke-dasharray:none">
        <path
           d="m 338.8,1161.3 c -8.8,-2.2 -18,3 -20.3,11.8 -0.8,3.2 -0.9,6.3 0,9.5 -0.1,-0.5 0.6,1.4 1.4,3 0,0.1 0,0.2 0,0.3 0,0.8 0,1.6 -0.1,2.4 0,0.1 0,0.1 0,0.2 -0.4,2.3 -1,4.7 -1.7,6.9 -3.5,12.3 -7.3,19.6 -13.1,31 -5.8,11.4 -11.6,22.7 -17.5,34 -4.3,8.1 -8.3,16 -11.1,24.7 -0.1,0.2 0.2,0.4 0.4,0.3 19.7,-13 35.9,-31.9 50.2,-50.5 7.7,-9.9 15.2,-20.3 20.3,-31.8 5.8,-12.9 11,-37 -8.5,-41.8 z"
           id="path3917"
           style="fill:#ff9933;fill-opacity:1;stroke:#ffffff;stroke-opacity:1;stroke-width:2.50000002;stroke-miterlimit:4;stroke-dasharray:none" />
      </g>
      <g
         id="g3923"
         style="fill:#ff9933;fill-opacity:1;stroke:#ffffff;stroke-opacity:1;stroke-width:2.50000002;stroke-miterlimit:4;stroke-dasharray:none">
        <path
           d="m 489.1,1238.8 c -5.3,-12.5 -12.3,-24.3 -21.4,-34.5 -7.9,-8.9 -16.8,-16.7 -26.3,-24 -4.5,-3.5 -10.8,-7.8 -16.6,-8.7 -3.1,-0.5 -6.3,-0.7 -9.4,-1.2 -2.4,-0.4 -5,0.1 -7.3,-0.6 -1.3,-0.4 -2.1,1 -1.4,2 1.9,2.9 2.9,8.4 3.8,11.8 1.3,5 3.9,8.9 6.5,13.3 2.6,4.4 6.4,7.9 9.2,11.6 3.8,5.1 7.5,10.3 10.9,15.6 2.7,4.2 5.5,8.5 8.1,12.8 1.3,2.1 2.5,4.2 3.7,6.4 0.6,1.1 1.1,2.1 1.7,3.2 0.2,0.3 0.3,0.6 0.4,0.9 0.1,0.3 0.3,0.6 0.5,1.1 1.8,4.2 3,8.6 4.3,12.9 0.6,2.1 1,4.2 1.4,6.3 0.6,2.1 1.4,4.1 2.5,5.9 0.1,0.2 10.6,11.3 4.8,5 5.9,6.4 14.3,5.7 20.6,1.5 l -0.1,0.1 c 14.3,-9.8 9.9,-27.9 4.1,-41.4 z"
           id="path3921"
           style="fill:#ff9933;fill-opacity:1;stroke:#ffffff;stroke-opacity:1;stroke-width:2.50000002;stroke-miterlimit:4;stroke-dasharray:none" />
      </g>
    </g>
  </g>
</svg>
