<?xml version="1.0" encoding="UTF-8" standalone="no"?>
<!-- Uploaded to: SVG Repo, www.svgrepo.com, Generator: SVG Repo Mixer Tools -->

<svg
   height="800px"
   width="800px"
   version="1.1"
   id="Icons"
   viewBox="0 0 32 32"
   xml:space="preserve"
   sodipodi:docname="skill_white.svg"
   inkscape:version="1.1.2 (b8e25be833, 2022-02-05)"
   xmlns:inkscape="http://www.inkscape.org/namespaces/inkscape"
   xmlns:sodipodi="http://sodipodi.sourceforge.net/DTD/sodipodi-0.dtd"
   xmlns="http://www.w3.org/2000/svg"
   xmlns:svg="http://www.w3.org/2000/svg"><defs
   id="defs11" /><sodipodi:namedview
   id="namedview9"
   pagecolor="#ffffff"
   bordercolor="#666666"
   borderopacity="1.0"
   inkscape:pageshadow="2"
   inkscape:pageopacity="0.0"
   inkscape:pagecheckerboard="0"
   showgrid="false"
   inkscape:zoom="0.71417785"
   inkscape:cx="399.76037"
   inkscape:cy="399.76037"
   inkscape:window-width="1920"
   inkscape:window-height="1001"
   inkscape:window-x="-9"
   inkscape:window-y="-9"
   inkscape:window-maximized="1"
   inkscape:current-layer="Icons" />
<style
   type="text/css"
   id="style2">
	.st0{fill:#FFFFFF;}
</style>

<g
   id="g830"
   transform="matrix(1.1428571,0,0,1.1428571,-3.2171427,-2.2857142)"
   style="fill:#ffffff;fill-opacity:1"><path
     d="M 19.1,11.1 C 19,10.9 18.8,10.8 18.7,10.8 17.8,11 17,10.8 16.7,10.3 16.4,9.8 16.6,9 17.3,8.3 17.4,8.2 17.4,7.9 17.3,7.8 16.4,6.9 15.3,6.2 14,5.9 13.8,5.8 13.6,6 13.5,6.2 13.2,7 12.6,7.6 12,7.6 11.4,7.6 10.8,7 10.5,6.1 10.4,5.9 10.2,5.8 10,5.8 8.7,6.1 7.6,6.8 6.7,7.7 c -0.1,0.1 -0.1,0.4 0,0.5 0.6,0.7 0.9,1.5 0.6,2 -0.3,0.5 -1.1,0.7 -2,0.5 -0.2,0 -0.4,0.1 -0.4,0.3 -0.2,0.6 -0.3,1.3 -0.3,1.9 0,0.6 0.1,1.3 0.3,1.9 0.1,0.2 0.3,0.3 0.4,0.3 0.9,-0.2 1.7,0 2,0.5 0.3,0.5 0.1,1.3 -0.6,2 -0.1,0.1 -0.1,0.4 0,0.5 0.9,0.9 2,1.6 3.3,1.9 0,0 0.1,0 0.1,0 0.2,0 0.3,-0.1 0.4,-0.3 0.3,-0.9 0.8,-1.5 1.5,-1.5 0.7,0 1.2,0.6 1.5,1.5 0.1,0.2 0.3,0.3 0.5,0.3 1.3,-0.3 2.4,-1 3.3,-1.9 0.1,-0.1 0.1,-0.4 0,-0.5 -0.6,-0.7 -0.9,-1.5 -0.6,-2 0.3,-0.5 1.1,-0.7 2,-0.5 0.2,0 0.4,-0.1 0.4,-0.3 0.2,-0.6 0.3,-1.3 0.3,-1.9 0,-0.6 -0.1,-1.2 -0.3,-1.8 z m -6.2,2.3 c -0.1,0.1 -0.1,0.2 -0.2,0.3 -0.2,0.2 -0.4,0.3 -0.7,0.3 -0.1,0 -0.3,0 -0.4,-0.1 -0.1,-0.1 -0.2,-0.1 -0.3,-0.2 -0.1,-0.1 -0.2,-0.2 -0.2,-0.3 0,-0.1 -0.1,-0.3 -0.1,-0.4 0,-0.1 0,-0.3 0.1,-0.4 0.1,-0.1 0.1,-0.2 0.2,-0.3 0.4,-0.4 1,-0.4 1.4,0 0.1,0.1 0.2,0.2 0.2,0.3 0,0.1 0.1,0.3 0.1,0.4 0,0.1 0,0.3 -0.1,0.4 z"
     id="path4"
     style="fill:#ffffff;fill-opacity:1" /><path
     d="M 28.9,17.6 26,11.8 C 25.9,6.4 21.4,2 16,2 13.6,2 11.4,2.8 9.6,4.3 10.4,4.1 11.2,4 12,4 c 5,0 9,4 9,9 0,5 -4,9 -9,9 -1.1,0 -2.1,-0.2 -3,-0.5 V 27 c 0,0.5 0.3,0.9 0.8,1 l 10,2 c 0.1,0 0.1,0 0.2,0 0.2,0 0.5,-0.1 0.6,-0.2 C 20.8,29.6 21,29.3 21,29 v -4 h 2 c 1.7,0 3,-1.3 3,-3 v -3 h 2 c 0.3,0 0.7,-0.2 0.9,-0.5 0.2,-0.3 0.1,-0.6 0,-0.9 z"
     id="path6"
     style="fill:#ffffff;fill-opacity:1" /></g>
</svg>
