<?xml version="1.0" encoding="UTF-8" standalone="no"?>
<!-- Uploaded to: SVG Repo, www.svgrepo.com, Generator: SVG Repo Mixer Tools -->

<svg
   height="800px"
   width="800px"
   version="1.1"
   id="Icons"
   viewBox="0 0 32 32"
   xml:space="preserve"
   sodipodi:docname="skillpoints.svg"
   inkscape:version="1.1.2 (b8e25be833, 2022-02-05)"
   xmlns:inkscape="http://www.inkscape.org/namespaces/inkscape"
   xmlns:sodipodi="http://sodipodi.sourceforge.net/DTD/sodipodi-0.dtd"
   xmlns="http://www.w3.org/2000/svg"
   xmlns:svg="http://www.w3.org/2000/svg"><defs
   id="defs17" /><sodipodi:namedview
   id="namedview15"
   pagecolor="#ffffff"
   bordercolor="#666666"
   borderopacity="1.0"
   inkscape:pageshadow="2"
   inkscape:pageopacity="0.0"
   inkscape:pagecheckerboard="0"
   showgrid="false"
   inkscape:zoom="1.01"
   inkscape:cx="399.50495"
   inkscape:cy="400.49505"
   inkscape:window-width="1920"
   inkscape:window-height="1001"
   inkscape:window-x="-9"
   inkscape:window-y="-9"
   inkscape:window-maximized="1"
   inkscape:current-layer="Icons" />
<style
   type="text/css"
   id="style2">
	.st0{fill:#FFFFFF;}
</style>
<g
   id="g6"
   style="fill:#555555;fill-opacity:1">
	<path
   d="M31,26c-0.6,0-1-0.4-1-1V12c0-0.6,0.4-1,1-1s1,0.4,1,1v13C32,25.6,31.6,26,31,26z"
   id="path4"
   style="fill:#555555;fill-opacity:1" />
</g>
<g
   id="g10"
   style="fill:#555555;fill-opacity:1">
	<path
   d="M16,21c-0.2,0-0.3,0-0.5-0.1l-15-8C0.2,12.7,0,12.4,0,12s0.2-0.7,0.5-0.9l15-8c0.3-0.2,0.6-0.2,0.9,0l15,8   c0.3,0.2,0.5,0.5,0.5,0.9s-0.2,0.7-0.5,0.9l-15,8C16.3,21,16.2,21,16,21z"
   id="path8"
   style="fill:#555555;fill-opacity:1" />
</g>
<path
   d="M17.4,22.6C17,22.9,16.5,23,16,23s-1-0.1-1.4-0.4L6,18.1V22c0,3.1,4.9,6,10,6s10-2.9,10-6v-3.9L17.4,22.6z"
   id="path12"
   style="fill:#555555;fill-opacity:1" />
</svg>
