<?xml version="1.0" encoding="UTF-8" standalone="no"?>
<!-- Uploaded to: SVG Repo, www.svgrepo.com, Generator: SVG Repo Mixer Tools -->

<svg
   fill="#000000"
   width="800px"
   height="800px"
   viewBox="0 0 256 256"
   id="Flat"
   version="1.1"
   sodipodi:docname="smiley_neutral.svg"
   inkscape:version="1.1.2 (b8e25be833, 2022-02-05)"
   xmlns:inkscape="http://www.inkscape.org/namespaces/inkscape"
   xmlns:sodipodi="http://sodipodi.sourceforge.net/DTD/sodipodi-0.dtd"
   xmlns="http://www.w3.org/2000/svg"
   xmlns:svg="http://www.w3.org/2000/svg">
  <defs
     id="defs19" />
  <sodipodi:namedview
     id="namedview17"
     pagecolor="#ffffff"
     bordercolor="#666666"
     borderopacity="1.0"
     inkscape:pageshadow="2"
     inkscape:pageopacity="0.0"
     inkscape:pagecheckerboard="0"
     showgrid="false"
     inkscape:zoom="0.71417785"
     inkscape:cx="399.76037"
     inkscape:cy="399.76037"
     inkscape:window-width="1920"
     inkscape:window-height="1001"
     inkscape:window-x="-9"
     inkscape:window-y="-9"
     inkscape:window-maximized="1"
     inkscape:current-layer="Flat" />
  <g
     opacity="0.2"
     id="g4"
     style="fill:#9f9f9f;fill-opacity:1;opacity:1"
     transform="matrix(1.2307692,0,0,1.2307692,-29.538461,-29.538461)">
    <circle
       cx="128"
       cy="128"
       r="96"
       id="circle2"
       style="fill:#9f9f9f;fill-opacity:1" />
  </g>
  <g
     id="g14"
     transform="matrix(1.2307692,0,0,1.2307692,-29.538461,-29.538461)"
     style="fill:#555555;fill-opacity:1">
    <circle
       cx="92"
       cy="108"
       r="12"
       id="circle6"
       style="fill:#555555;fill-opacity:1" />
    <circle
       cx="164"
       cy="108"
       r="12"
       id="circle8"
       style="fill:#555555;fill-opacity:1" />
    <path
       d="M 128,24 A 104,104 0 1 0 232,128 104.11791,104.11791 0 0 0 128,24 Z m 0,192 a 88,88 0 1 1 88,-88 88.09957,88.09957 0 0 1 -88,88 z"
       id="path10"
       style="fill:#555555;fill-opacity:1" />
    <path
       d="M 168,152 H 88 a 8,8 0 0 0 0,16 h 80 a 8,8 0 0 0 0,-16 z"
       id="path12"
       style="fill:#555555;fill-opacity:1" />
  </g>
</svg>
