<?xml version="1.0" encoding="UTF-8" standalone="no"?>
<!-- Created with Inkscape (http://www.inkscape.org/) -->

<svg
   width="500"
   height="500"
   viewBox="0 0 132.29167 132.29167"
   version="1.1"
   id="svg58"
   inkscape:version="1.1.2 (b8e25be833, 2022-02-05)"
   sodipodi:docname="ten_stamp.svg"
   xmlns:inkscape="http://www.inkscape.org/namespaces/inkscape"
   xmlns:sodipodi="http://sodipodi.sourceforge.net/DTD/sodipodi-0.dtd"
   xmlns="http://www.w3.org/2000/svg"
   xmlns:svg="http://www.w3.org/2000/svg">
  <sodipodi:namedview
     id="namedview60"
     pagecolor="#ffffff"
     bordercolor="#666666"
     borderopacity="1.0"
     inkscape:pageshadow="2"
     inkscape:pageopacity="0.0"
     inkscape:pagecheckerboard="true"
     inkscape:document-units="px"
     showgrid="false"
     units="px"
     inkscape:zoom="1"
     inkscape:cx="94.5"
     inkscape:cy="261.5"
     inkscape:window-width="1920"
     inkscape:window-height="1001"
     inkscape:window-x="-9"
     inkscape:window-y="-9"
     inkscape:window-maximized="1"
     inkscape:current-layer="g5333"
     showguides="false" />
  <defs
     id="defs55" />
  <g
     inkscape:label="Layer 1 copy"
     inkscape:groupmode="layer"
     id="g4908"
     style="display:inline">
    <ellipse
       style="fill:none;fill-opacity:1;stroke:#777777;stroke-width:2.59917;stroke-miterlimit:4;stroke-dasharray:none;stroke-opacity:1"
       id="ellipse4890"
       cx="66.145836"
       cy="66.145828"
       rx="64.846252"
       ry="64.846245" />
    <circle
       style="fill:none;fill-opacity:1;stroke:#777777;stroke-width:7.77241;stroke-miterlimit:4;stroke-dasharray:none;stroke-opacity:1"
       id="circle4892"
       cx="66.145836"
       cy="66.145836"
       r="60.936714" />
    <g
       id="g85"
       transform="matrix(0.31749999,0,0,0.31750002,-539.97919,-296.46234)"
       style="display:inline;fill:#b3b3b3;fill-opacity:1">
      <g
         id="g75"
         style="fill:#b3b3b3;fill-opacity:1">
        <path
           d="m 1853,1017.3 c 0,0 0,0 0,0 0,0 0,0 0,0 z"
           id="path73"
           style="fill:#b3b3b3;fill-opacity:1" />
      </g>
      <g
         id="g79"
         style="fill:#b3b3b3;fill-opacity:1">
        <path
           d="m 1855.4,1020.4 c 0,0 0,0 0,0 0.9,1.3 0.7,0.9 0,0 z"
           id="path77"
           style="fill:#b3b3b3;fill-opacity:1" />
      </g>
      <g
         id="g83"
         style="fill:#b3b3b3;fill-opacity:1">
        <path
           d="m 2065.8,1101.8 c -3.1,-5.3 -7.3,-9.8 -12,-13.7 -7,-5.8 -13.7,-8.2 -22.8,-8.6 -6.5,-0.3 -12,5.4 -12.1,11.7 -0.1,1.6 0,3.2 0.4,4.9 -0.4,-1.5 -0.5,-1.5 -0.3,0.2 -36.6,4 -73.1,9.8 -109.3,16.2 -0.3,-19.2 -2.3,-38.4 -5.6,-57.3 -3.3,-18.9 -9.5,-39.8 -23.6,-53.6 -7.8,-7.7 -18.9,-8.7 -28.3,-3.6 -5.2,2.9 -6.8,10.5 -2.4,14.9 0.4,0.4 0.7,0.7 1.1,1.1 0.7,1.1 1.2,2.3 1.9,3.4 -0.1,-0.2 1,1.3 1.9,2.5 0.2,0.2 0.3,0.4 0.5,0.6 -0.1,-0.1 -0.2,-0.2 -0.3,-0.4 0.1,0.2 0.2,0.3 0.3,0.5 0.8,1.1 1.6,2.1 2.6,3 0.6,0.6 1.2,1.2 1.7,1.8 0.1,0.1 0.3,0.3 0.4,0.4 2.2,3 3.9,6.2 5.4,9.5 0,0.1 0.1,0.2 0.1,0.3 0.4,1 0.8,2 1.2,3 0.9,2.5 1.7,5 2.5,7.6 3,10 5.1,20.3 6.8,30.6 0.2,1.3 0.4,2.6 0.6,3.9 0,0.1 0,0.2 0.1,0.3 0,0.2 0.1,0.5 0.1,0.8 0.4,2.6 0.7,5.3 1,7.9 0.6,5.6 1.1,11.3 1.6,16.9 0.3,3.8 0.6,7.6 0.8,11.4 -17.9,3.4 -35.6,7.1 -53.2,11.7 -11.4,2.9 -22.6,6.2 -33.7,10.2 -12.4,4.4 -24,10 -35.9,15.4 -3.8,1.7 -1.6,8.4 2.4,7 22.1,-7.6 46.5,-10.4 69.6,-13.1 17.4,-2 34.9,-3.3 52.4,-4.9 2.5,43.4 4.2,86.9 8.4,130.2 1,11 2.7,21.9 4.3,32.8 0.1,0.5 0.8,0.4 0.9,0 5.7,-39.7 5.2,-79.8 8.9,-119.7 0.9,-9.8 2.2,-19.5 3.6,-29.3 -0.9,6 0.3,-2.4 0.4,-4 0.1,-1.8 0.3,-3.7 0.4,-5.5 0.2,-2.3 0.3,-4.7 0.4,-7.1 47.2,-4.8 94.6,-8.4 141.8,-12.7 13.6,-1.4 22.1,-14.9 15,-27.2 z"
           id="path81"
           style="fill:#b3b3b3;fill-opacity:1" />
      </g>
    </g>
  </g>
  <g
     inkscape:label="Layer 1 copy copy"
     inkscape:groupmode="layer"
     id="g5333"
     style="display:inline">
    <ellipse
       style="fill:none;fill-opacity:1;stroke:#777777;stroke-width:2.59917;stroke-miterlimit:4;stroke-dasharray:none;stroke-opacity:1"
       id="ellipse5301"
       cx="66.145836"
       cy="66.145828"
       rx="64.846252"
       ry="64.846245" />
    <circle
       style="fill:none;fill-opacity:1;stroke:#777777;stroke-width:7.77241;stroke-miterlimit:4;stroke-dasharray:none;stroke-opacity:1"
       id="circle5303"
       cx="66.145836"
       cy="66.145836"
       r="60.936714" />
    <g
       id="g5331"
       transform="matrix(0.31749999,0,0,0.31750002,-543.15418,-299.63723)"
       style="display:inline;stroke:#ffffff;stroke-opacity:1;stroke-width:2.50000002;stroke-miterlimit:4;stroke-dasharray:none;fill:#0033cc;fill-opacity:1">
      <g
         id="g5321"
         style="stroke:#ffffff;stroke-opacity:1;stroke-width:2.50000002;stroke-miterlimit:4;stroke-dasharray:none;fill:#0033cc;fill-opacity:1">
        <path
           d="m 1853,1017.3 c 0,0 0,0 0,0 0,0 0,0 0,0 z"
           id="path5319"
           style="stroke:#ffffff;stroke-opacity:1;stroke-width:2.50000002;stroke-miterlimit:4;stroke-dasharray:none;fill:#0033cc;fill-opacity:1" />
      </g>
      <g
         id="g5325"
         style="stroke:#ffffff;stroke-opacity:1;stroke-width:2.50000002;stroke-miterlimit:4;stroke-dasharray:none;fill:#0033cc;fill-opacity:1">
        <path
           d="m 1855.4,1020.4 c 0,0 0,0 0,0 0.9,1.3 0.7,0.9 0,0 z"
           id="path5323"
           style="stroke:#ffffff;stroke-opacity:1;stroke-width:2.50000002;stroke-miterlimit:4;stroke-dasharray:none;fill:#0033cc;fill-opacity:1" />
      </g>
      <g
         id="g5329"
         style="stroke:#ffffff;stroke-opacity:1;stroke-width:2.50000002;stroke-miterlimit:4;stroke-dasharray:none;fill:#0033cc;fill-opacity:1">
        <path
           d="m 2065.8,1101.8 c -3.1,-5.3 -7.3,-9.8 -12,-13.7 -7,-5.8 -13.7,-8.2 -22.8,-8.6 -6.5,-0.3 -12,5.4 -12.1,11.7 -0.1,1.6 0,3.2 0.4,4.9 -0.4,-1.5 -0.5,-1.5 -0.3,0.2 -36.6,4 -73.1,9.8 -109.3,16.2 -0.3,-19.2 -2.3,-38.4 -5.6,-57.3 -3.3,-18.9 -9.5,-39.8 -23.6,-53.6 -7.8,-7.7 -18.9,-8.7 -28.3,-3.6 -5.2,2.9 -6.8,10.5 -2.4,14.9 0.4,0.4 0.7,0.7 1.1,1.1 0.7,1.1 1.2,2.3 1.9,3.4 -0.1,-0.2 1,1.3 1.9,2.5 0.2,0.2 0.3,0.4 0.5,0.6 -0.1,-0.1 -0.2,-0.2 -0.3,-0.4 0.1,0.2 0.2,0.3 0.3,0.5 0.8,1.1 1.6,2.1 2.6,3 0.6,0.6 1.2,1.2 1.7,1.8 0.1,0.1 0.3,0.3 0.4,0.4 2.2,3 3.9,6.2 5.4,9.5 0,0.1 0.1,0.2 0.1,0.3 0.4,1 0.8,2 1.2,3 0.9,2.5 1.7,5 2.5,7.6 3,10 5.1,20.3 6.8,30.6 0.2,1.3 0.4,2.6 0.6,3.9 0,0.1 0,0.2 0.1,0.3 0,0.2 0.1,0.5 0.1,0.8 0.4,2.6 0.7,5.3 1,7.9 0.6,5.6 1.1,11.3 1.6,16.9 0.3,3.8 0.6,7.6 0.8,11.4 -17.9,3.4 -35.6,7.1 -53.2,11.7 -11.4,2.9 -22.6,6.2 -33.7,10.2 -12.4,4.4 -24,10 -35.9,15.4 -3.8,1.7 -1.6,8.4 2.4,7 22.1,-7.6 46.5,-10.4 69.6,-13.1 17.4,-2 34.9,-3.3 52.4,-4.9 2.5,43.4 4.2,86.9 8.4,130.2 1,11 2.7,21.9 4.3,32.8 0.1,0.5 0.8,0.4 0.9,0 5.7,-39.7 5.2,-79.8 8.9,-119.7 0.9,-9.8 2.2,-19.5 3.6,-29.3 -0.9,6 0.3,-2.4 0.4,-4 0.1,-1.8 0.3,-3.7 0.4,-5.5 0.2,-2.3 0.3,-4.7 0.4,-7.1 47.2,-4.8 94.6,-8.4 141.8,-12.7 13.6,-1.4 22.1,-14.9 15,-27.2 z"
           id="path5327"
           style="stroke:#ffffff;stroke-opacity:1;stroke-width:2.50000002;stroke-miterlimit:4;stroke-dasharray:none;fill:#0033cc;fill-opacity:1" />
      </g>
    </g>
  </g>
</svg>
