<?xml version="1.0" encoding="UTF-8" standalone="no"?>
<!-- Created with Inkscape (http://www.inkscape.org/) -->

<svg
   width="500"
   height="500"
   viewBox="0 0 132.29167 132.29167"
   version="1.1"
   id="svg58"
   inkscape:version="1.1.2 (b8e25be833, 2022-02-05)"
   sodipodi:docname="three_stamp.svg"
   xmlns:inkscape="http://www.inkscape.org/namespaces/inkscape"
   xmlns:sodipodi="http://sodipodi.sourceforge.net/DTD/sodipodi-0.dtd"
   xmlns="http://www.w3.org/2000/svg"
   xmlns:svg="http://www.w3.org/2000/svg">
  <sodipodi:namedview
     id="namedview60"
     pagecolor="#ffffff"
     bordercolor="#666666"
     borderopacity="1.0"
     inkscape:pageshadow="2"
     inkscape:pageopacity="0.0"
     inkscape:pagecheckerboard="true"
     inkscape:document-units="px"
     showgrid="false"
     units="px"
     inkscape:zoom="1"
     inkscape:cx="94.5"
     inkscape:cy="261.5"
     inkscape:window-width="1920"
     inkscape:window-height="1001"
     inkscape:window-x="-9"
     inkscape:window-y="-9"
     inkscape:window-maximized="1"
     inkscape:current-layer="g2827"
     showguides="false" />
  <defs
     id="defs55" />
  <g
     inkscape:label="Layer 1 c"
     inkscape:groupmode="layer"
     id="g1882"
     style="display:inline">
    <ellipse
       style="fill:none;fill-opacity:1;stroke:#777777;stroke-width:2.59917;stroke-miterlimit:4;stroke-dasharray:none;stroke-opacity:1"
       id="ellipse1868"
       cx="66.145836"
       cy="66.145828"
       rx="64.846252"
       ry="64.846245" />
    <circle
       style="fill:none;fill-opacity:1;stroke:#777777;stroke-width:7.77241;stroke-miterlimit:4;stroke-dasharray:none;stroke-opacity:1"
       id="circle1876"
       cx="66.145836"
       cy="66.145836"
       r="60.936714" />
    <g
       id="g31"
       transform="matrix(0.31749999,0,0,0.31750002,-292.40471,-70.259952)"
       style="display:inline;fill:#b3b3b3;fill-opacity:1">
      <g
         id="g21"
         style="fill:#b3b3b3;fill-opacity:1">
        <path
           d="m 1205.4,325.1 c -0.1,0 -0.2,-0.1 -0.3,-0.1 -0.8,-0.4 -1.6,-0.8 -2.4,-1.2 -2.2,-1.2 -4.2,-2.5 -6.3,-3.7 -7.3,-4.2 -15.1,-6.1 -22.9,-1.8 -4.4,2.5 -7.1,8.3 -6.2,13.3 -13.6,2.5 -27.3,4.8 -40.8,8.1 -11.3,2.8 -22.1,7.5 -33.2,11.3 -5.2,1.8 -10.5,3.4 -15.9,4.8 -5.6,1.5 -11.6,1.9 -16.6,4.8 -1.2,0.7 -1.7,2.7 -0.3,3.6 4.5,2.5 9.2,2.7 14.2,3 6.2,0.4 12.4,0.5 18.5,0.5 12.3,-0.1 24.7,-0.6 36.9,-1.9 25.4,-2.8 51.3,-2.7 76,-10 6.8,-2 11.4,-8.6 11.2,-15.6 -0.1,-7.6 -5.1,-13 -11.9,-15.1 z"
           id="path19"
           style="fill:#b3b3b3;fill-opacity:1" />
      </g>
      <g
         id="g25"
         style="fill:#b3b3b3;fill-opacity:1">
        <path
           d="m 1230.4,414.6 c -4.9,-4 -10,-7.9 -14.8,-12 -6.4,-5.5 -15.9,-5.8 -22,0.6 -3.2,3.4 -4.7,8.4 -4.1,13.1 -2.3,0.3 -4.7,0.7 -7.2,1.2 -13.1,2.5 -25.9,6.1 -39,8.4 -11.9,2.1 -23.5,5.3 -35.3,7.5 -9,1.7 -27,0.2 -31.6,9.9 -1,2.2 0.8,4.3 2.6,5.2 4.3,2 11.6,0.1 16.2,0 5.8,-0.1 11.7,0.2 17.5,-0.3 12.6,-1 24.8,0 37.5,0.5 12.8,0.5 25.5,-2.2 38.2,-3.1 12,-0.9 24.6,-1.2 36.1,-4.9 10,-3.5 15.3,-18.6 5.9,-26.1 z"
           id="path23"
           style="fill:#b3b3b3;fill-opacity:1" />
      </g>
      <g
         id="g29"
         style="fill:#b3b3b3;fill-opacity:1">
        <path
           d="m 1262.9,499.6 c -6,-11 -16.4,-17.8 -26.6,-24.4 -12.8,-8.4 -27.3,6.5 -25,18.9 -9.9,1.6 -19.5,3.4 -29.3,4.6 -23.7,2.9 -47.1,7.2 -70.6,11.3 -27.3,4.8 -56.5,12.9 -83.9,21.4 -6.2,1.9 -13.1,6.1 -16.2,12 -0.4,0.8 0.1,1.8 1,1.6 67.7,-10.7 136.9,-13.8 205,-20.1 10.7,-1 21.3,1.3 31.9,0.2 13.1,-1.4 20,-14 13.7,-25.5 z"
           id="path27"
           style="fill:#b3b3b3;fill-opacity:1" />
      </g>
    </g>
  </g>
  <g
     inkscape:label="Layer 1 c copy 1"
     inkscape:groupmode="layer"
     id="g2827"
     style="display:inline">
    <ellipse
       style="fill:none;fill-opacity:1;stroke:#777777;stroke-width:2.59917;stroke-miterlimit:4;stroke-dasharray:none;stroke-opacity:1"
       id="ellipse2799"
       cx="66.145836"
       cy="66.145828"
       rx="64.846252"
       ry="64.846245" />
    <circle
       style="fill:none;fill-opacity:1;stroke:#777777;stroke-width:7.77241;stroke-miterlimit:4;stroke-dasharray:none;stroke-opacity:1"
       id="circle2801"
       cx="66.145836"
       cy="66.145836"
       r="60.936714" />
    <g
       id="g2825"
       transform="matrix(0.31749999,0,0,0.31750002,-295.57982,-73.434894)"
       style="display:inline;fill:#00cc00;fill-opacity:1;stroke:#ffffff;stroke-width:2.5;stroke-miterlimit:4;stroke-dasharray:none;stroke-opacity:1">
      <g
         id="g2815"
         style="fill:#00cc00;fill-opacity:1;stroke:#ffffff;stroke-width:2.5;stroke-miterlimit:4;stroke-dasharray:none;stroke-opacity:1">
        <path
           d="m 1205.4,325.1 c -0.1,0 -0.2,-0.1 -0.3,-0.1 -0.8,-0.4 -1.6,-0.8 -2.4,-1.2 -2.2,-1.2 -4.2,-2.5 -6.3,-3.7 -7.3,-4.2 -15.1,-6.1 -22.9,-1.8 -4.4,2.5 -7.1,8.3 -6.2,13.3 -13.6,2.5 -27.3,4.8 -40.8,8.1 -11.3,2.8 -22.1,7.5 -33.2,11.3 -5.2,1.8 -10.5,3.4 -15.9,4.8 -5.6,1.5 -11.6,1.9 -16.6,4.8 -1.2,0.7 -1.7,2.7 -0.3,3.6 4.5,2.5 9.2,2.7 14.2,3 6.2,0.4 12.4,0.5 18.5,0.5 12.3,-0.1 24.7,-0.6 36.9,-1.9 25.4,-2.8 51.3,-2.7 76,-10 6.8,-2 11.4,-8.6 11.2,-15.6 -0.1,-7.6 -5.1,-13 -11.9,-15.1 z"
           id="path2813"
           style="fill:#00cc00;fill-opacity:1;stroke:#ffffff;stroke-width:2.5;stroke-miterlimit:4;stroke-dasharray:none;stroke-opacity:1" />
      </g>
      <g
         id="g2819"
         style="fill:#00cc00;fill-opacity:1;stroke:#ffffff;stroke-width:2.5;stroke-miterlimit:4;stroke-dasharray:none;stroke-opacity:1">
        <path
           d="m 1230.4,414.6 c -4.9,-4 -10,-7.9 -14.8,-12 -6.4,-5.5 -15.9,-5.8 -22,0.6 -3.2,3.4 -4.7,8.4 -4.1,13.1 -2.3,0.3 -4.7,0.7 -7.2,1.2 -13.1,2.5 -25.9,6.1 -39,8.4 -11.9,2.1 -23.5,5.3 -35.3,7.5 -9,1.7 -27,0.2 -31.6,9.9 -1,2.2 0.8,4.3 2.6,5.2 4.3,2 11.6,0.1 16.2,0 5.8,-0.1 11.7,0.2 17.5,-0.3 12.6,-1 24.8,0 37.5,0.5 12.8,0.5 25.5,-2.2 38.2,-3.1 12,-0.9 24.6,-1.2 36.1,-4.9 10,-3.5 15.3,-18.6 5.9,-26.1 z"
           id="path2817"
           style="fill:#00cc00;fill-opacity:1;stroke:#ffffff;stroke-width:2.5;stroke-miterlimit:4;stroke-dasharray:none;stroke-opacity:1" />
      </g>
      <g
         id="g2823"
         style="fill:#00cc00;fill-opacity:1;stroke:#ffffff;stroke-width:2.5;stroke-miterlimit:4;stroke-dasharray:none;stroke-opacity:1">
        <path
           d="m 1262.9,499.6 c -6,-11 -16.4,-17.8 -26.6,-24.4 -12.8,-8.4 -27.3,6.5 -25,18.9 -9.9,1.6 -19.5,3.4 -29.3,4.6 -23.7,2.9 -47.1,7.2 -70.6,11.3 -27.3,4.8 -56.5,12.9 -83.9,21.4 -6.2,1.9 -13.1,6.1 -16.2,12 -0.4,0.8 0.1,1.8 1,1.6 67.7,-10.7 136.9,-13.8 205,-20.1 10.7,-1 21.3,1.3 31.9,0.2 13.1,-1.4 20,-14 13.7,-25.5 z"
           id="path2821"
           style="fill:#00cc00;fill-opacity:1;stroke:#ffffff;stroke-width:2.5;stroke-miterlimit:4;stroke-dasharray:none;stroke-opacity:1" />
      </g>
    </g>
  </g>
  <g
     inkscape:label="Layer 1 c copy"
     inkscape:groupmode="layer"
     id="g2362"
     style="display:none">
    <ellipse
       style="fill:none;fill-opacity:1;stroke:#777777;stroke-width:2.59917;stroke-miterlimit:4;stroke-dasharray:none;stroke-opacity:1"
       id="ellipse2344"
       cx="66.145836"
       cy="66.145828"
       rx="64.846252"
       ry="64.846245" />
    <circle
       style="fill:none;fill-opacity:1;stroke:#777777;stroke-width:7.77241;stroke-miterlimit:4;stroke-dasharray:none;stroke-opacity:1"
       id="circle2346"
       cx="66.145836"
       cy="66.145836"
       r="60.936714" />
    <g
       id="g2360"
       transform="matrix(0.31750001,0,0,0.31750003,-170.94661,-70.803645)"
       style="fill:#00e2a7;fill-opacity:1;stroke:#ffffff;stroke-width:2.5;stroke-miterlimit:4;stroke-dasharray:none;stroke-opacity:1">
      <g
         id="g2354"
         style="fill:#00e2a7;fill-opacity:1;stroke:#ffffff;stroke-width:2.5;stroke-miterlimit:4;stroke-dasharray:none;stroke-opacity:1">
        <path
           d="m 813.1,360.9 c -0.3,-0.2 -0.5,-0.4 -0.9,-0.6 -1.9,-0.8 -3.8,-1.5 -5.7,-2.2 -0.1,0 -0.1,0 -0.2,-0.1 -0.7,-0.3 -1.4,-0.6 -2.1,-0.9 -1.1,-0.5 -2.2,-1.1 -3.2,-1.6 -0.5,-0.4 -1.3,-1 -1.7,-1.4 -5.2,-5.9 -15.4,-5.9 -21.6,-1.9 -5.7,3.6 -8,9.1 -7.8,14.9 -9.1,0.6 -18.3,1 -27.5,1.5 -23,1.2 -48,4.8 -69.5,13.1 -8,3.1 -8.3,12.6 -0.4,16.1 13.2,5.8 31.7,1.5 45.7,0.5 24.6,-1.7 49,-3.3 73.5,-6.2 3.4,-0.4 6.8,-0.9 10.2,-1.5 0.8,-0.1 1.7,-0.3 2.5,-0.5 2.3,-0.2 6.3,-1.1 4.3,-0.9 6.1,-1.1 11.2,-4.7 12.8,-11.1 1.8,-7.1 -2,-14.2 -8.4,-17.2 z"
           id="path2352"
           style="fill:#00e2a7;fill-opacity:1;stroke:#ffffff;stroke-width:2.5;stroke-miterlimit:4;stroke-dasharray:none;stroke-opacity:1" />
      </g>
      <g
         id="g2358"
         style="fill:#00e2a7;fill-opacity:1;stroke:#ffffff;stroke-width:2.5;stroke-miterlimit:4;stroke-dasharray:none;stroke-opacity:1">
        <path
           d="m 853.3,465.4 c -6.3,-6.1 -13.7,-11.2 -21.3,-15.6 -8.8,-5.1 -20.5,-0.8 -25.1,7.9 -1.4,2.6 -2,5.5 -2,8.4 0.2,5.1 -154.8,13.3 -170.2,29.6 -4.1,4.3 -2.7,11.3 3.1,13.3 17.7,5.9 44.5,-1 62.8,-2.1 23,-1.5 46,-3.7 69,-6.1 14.4,-1.5 29.2,-4.7 43.6,-5.2 13.1,-0.6 67,-4.4 40.1,-30.2 z"
           id="path2356"
           style="fill:#00e2a7;fill-opacity:1;stroke:#ffffff;stroke-width:2.5;stroke-miterlimit:4;stroke-dasharray:none;stroke-opacity:1" />
      </g>
    </g>
  </g>
</svg>
