<?xml version="1.0" encoding="UTF-8" standalone="no"?>
<!-- Uploaded to: SVG Repo, www.svgrepo.com, Generator: SVG Repo Mixer Tools -->

<svg
   fill="#000000"
   height="800px"
   width="800px"
   version="1.1"
   id="Capa_1"
   viewBox="0 0 612.001 612.001"
   xml:space="preserve"
   sodipodi:docname="tools.svg"
   inkscape:version="1.1.2 (b8e25be833, 2022-02-05)"
   xmlns:inkscape="http://www.inkscape.org/namespaces/inkscape"
   xmlns:sodipodi="http://sodipodi.sourceforge.net/DTD/sodipodi-0.dtd"
   xmlns="http://www.w3.org/2000/svg"
   xmlns:svg="http://www.w3.org/2000/svg"><defs
   id="defs11" /><sodipodi:namedview
   id="namedview9"
   pagecolor="#ffffff"
   bordercolor="#666666"
   borderopacity="1.0"
   inkscape:pageshadow="2"
   inkscape:pageopacity="0.0"
   inkscape:pagecheckerboard="0"
   showgrid="false"
   inkscape:zoom="1.01"
   inkscape:cx="399.50495"
   inkscape:cy="400.49505"
   inkscape:window-width="1920"
   inkscape:window-height="1001"
   inkscape:window-x="-9"
   inkscape:window-y="-9"
   inkscape:window-maximized="1"
   inkscape:current-layer="Capa_1" />
<g
   id="g6"
   style="fill:#555555;fill-opacity:1">
	<g
   id="g4"
   style="fill:#555555;fill-opacity:1">
		<path
   d="M514.432,493.976l-38.537-50.91c-11.152-14.811-26.986-24.584-44.734-27.998l-75.69-108.315    c-1.605-2.297-3.392-4.427-5.308-6.411c4.684-2.184,9.404-4.579,14.091-7.176c21.159-11.728,51.346-32.812,74.997-66.656    c21.022-30.083,41.318-77.718,55.682-130.687c5.786-21.331,10.155-42.107,12.304-58.503c3.187-24.309,0.638-31.091-1.941-34.287    C503.716,1.079,501.532,0,499.146,0c-5.003,0-7.922,4.534-9.878,7.853L304.535,272.209L122.722,12.029    c-1.957-3.318-4.874-7.84-9.872-7.84c-2.386,0-4.57,1.077-6.15,3.033c-2.578,3.195-5.127,9.977-1.941,34.287    c2.151,16.396,6.52,37.172,12.304,58.503c14.365,52.971,34.661,100.604,55.684,130.687c23.651,33.844,53.838,54.928,74.997,66.654    c3.027,1.678,6.069,3.271,9.106,4.78c-0.105,0.147-0.22,0.286-0.324,0.434l-75.691,108.316    c-17.747,3.414-33.579,13.184-44.723,27.984l-38.557,50.936c-11.839,15.723-16.846,35.115-14.099,54.605    c2.748,19.489,12.919,36.743,28.642,48.581c12.88,9.698,28.188,14.824,44.271,14.824c23.389,0,44.864-10.703,58.906-29.354    l38.557-50.935c12.529-16.639,16.899-36.909,13.833-56.011l36.872-52.764l39.771,56.913c-0.078,0.483-0.172,0.959-0.24,1.445    c-2.748,19.489,2.26,38.881,14.109,54.618l38.537,50.91c14.052,18.661,35.526,29.367,58.915,29.367c0.001,0,0.001,0,0.003,0    c16.08,0,31.389-5.126,44.269-14.824c15.723-11.838,25.896-29.091,28.642-48.581C531.291,529.106,526.282,509.713,514.432,493.976    z M195.389,570.515c-8.123,10.79-19.963,17.77-33.337,19.655c-2.394,0.338-4.787,0.505-7.163,0.505    c-10.895,0-21.45-3.51-30.309-10.179c-10.789-8.124-17.77-19.962-19.654-33.336c-1.885-13.373,1.551-26.681,9.675-37.47    l21.65-28.601c4.271-5.64,12.303-6.749,17.944-2.482c5.64,4.271,6.752,12.303,2.482,17.944l-21.631,28.576    c-3.989,5.298-5.683,11.862-4.753,18.46c0.93,6.597,4.374,12.439,9.696,16.445c5.323,4.008,11.891,5.704,18.486,4.775    c6.598-0.931,12.439-4.374,16.447-9.696c4.254-5.651,12.285-6.784,17.937-2.53C198.512,556.834,199.644,564.864,195.389,570.515z     M271.922,337.376c0-18.505,15.055-33.561,33.56-33.561c18.505,0,33.56,15.056,33.56,33.561c0,18.504-15.055,33.558-33.56,33.558    S271.922,355.88,271.922,337.376z M489.434,580.496c-8.856,6.668-19.412,10.178-30.307,10.178c-2.376,0-4.768-0.167-7.162-0.505    c-13.374-1.885-25.215-8.865-33.337-19.656c-4.255-5.65-3.123-13.683,2.529-17.936c5.649-4.255,13.683-3.124,17.937,2.529    c4.009,5.322,9.849,8.766,16.448,9.696c6.597,0.93,13.161-0.767,18.485-4.774c10.989-8.273,13.198-23.944,4.925-34.933    l-21.61-28.548c-4.271-5.641-3.16-13.675,2.481-17.944c5.64-4.272,13.676-3.16,17.944,2.481l21.632,28.576    C516.185,531.964,511.707,563.728,489.434,580.496z"
   id="path2"
   style="fill:#555555;fill-opacity:1" />
	</g>
</g>
</svg>
