<?xml version="1.0" encoding="UTF-8" standalone="no"?>
<!-- Created with Inkscape (http://www.inkscape.org/) -->

<svg
   width="500"
   height="500"
   viewBox="0 0 132.29167 132.29167"
   version="1.1"
   id="svg58"
   inkscape:version="1.1.2 (b8e25be833, 2022-02-05)"
   sodipodi:docname="two_stamp.svg"
   xmlns:inkscape="http://www.inkscape.org/namespaces/inkscape"
   xmlns:sodipodi="http://sodipodi.sourceforge.net/DTD/sodipodi-0.dtd"
   xmlns="http://www.w3.org/2000/svg"
   xmlns:svg="http://www.w3.org/2000/svg">
  <sodipodi:namedview
     id="namedview60"
     pagecolor="#ffffff"
     bordercolor="#666666"
     borderopacity="1.0"
     inkscape:pageshadow="2"
     inkscape:pageopacity="0.0"
     inkscape:pagecheckerboard="true"
     inkscape:document-units="px"
     showgrid="false"
     units="px"
     inkscape:zoom="1"
     inkscape:cx="94.5"
     inkscape:cy="261.5"
     inkscape:window-width="1920"
     inkscape:window-height="1001"
     inkscape:window-x="-9"
     inkscape:window-y="-9"
     inkscape:window-maximized="1"
     inkscape:current-layer="g1882"
     showguides="false" />
  <defs
     id="defs55" />
  <g
     inkscape:label="Layer 1 c"
     inkscape:groupmode="layer"
     id="g1882"
     style="display:inline">
    <ellipse
       style="fill:none;fill-opacity:1;stroke:#777777;stroke-width:2.59917;stroke-miterlimit:4;stroke-dasharray:none;stroke-opacity:1"
       id="ellipse1868"
       cx="66.145836"
       cy="66.145828"
       rx="64.846252"
       ry="64.846245" />
    <circle
       style="fill:none;fill-opacity:1;stroke:#777777;stroke-width:7.77241;stroke-miterlimit:4;stroke-dasharray:none;stroke-opacity:1"
       id="circle1876"
       cx="66.145836"
       cy="66.145836"
       r="60.936714" />
    <g
       id="g17"
       transform="matrix(0.31750001,0,0,0.31750003,-167.77171,-67.628759)"
       style="fill:#b3b3b3;fill-opacity:1">
      <g
         id="g11"
         style="fill:#b3b3b3;fill-opacity:1">
        <path
           d="m 813.1,360.9 c -0.3,-0.2 -0.5,-0.4 -0.9,-0.6 -1.9,-0.8 -3.8,-1.5 -5.7,-2.2 -0.1,0 -0.1,0 -0.2,-0.1 -0.7,-0.3 -1.4,-0.6 -2.1,-0.9 -1.1,-0.5 -2.2,-1.1 -3.2,-1.6 -0.5,-0.4 -1.3,-1 -1.7,-1.4 -5.2,-5.9 -15.4,-5.9 -21.6,-1.9 -5.7,3.6 -8,9.1 -7.8,14.9 -9.1,0.6 -18.3,1 -27.5,1.5 -23,1.2 -48,4.8 -69.5,13.1 -8,3.1 -8.3,12.6 -0.4,16.1 13.2,5.8 31.7,1.5 45.7,0.5 24.6,-1.7 49,-3.3 73.5,-6.2 3.4,-0.4 6.8,-0.9 10.2,-1.5 0.8,-0.1 1.7,-0.3 2.5,-0.5 2.3,-0.2 6.3,-1.1 4.3,-0.9 6.1,-1.1 11.2,-4.7 12.8,-11.1 1.8,-7.1 -2,-14.2 -8.4,-17.2 z"
           id="path9"
           style="fill:#b3b3b3;fill-opacity:1" />
      </g>
      <g
         id="g15"
         style="fill:#b3b3b3;fill-opacity:1">
        <path
           d="m 853.3,465.4 c -6.3,-6.1 -13.7,-11.2 -21.3,-15.6 -8.8,-5.1 -20.5,-0.8 -25.1,7.9 -1.4,2.6 -2,5.5 -2,8.4 0.2,5.1 -154.8,13.3 -170.2,29.6 -4.1,4.3 -2.7,11.3 3.1,13.3 17.7,5.9 44.5,-1 62.8,-2.1 23,-1.5 46,-3.7 69,-6.1 14.4,-1.5 29.2,-4.7 43.6,-5.2 13.1,-0.6 67,-4.4 40.1,-30.2 z"
           id="path13"
           style="fill:#b3b3b3;fill-opacity:1" />
      </g>
    </g>
  </g>
  <g
     inkscape:label="Layer 1 c copy"
     inkscape:groupmode="layer"
     id="g2362"
     style="display:inline">
    <ellipse
       style="fill:none;fill-opacity:1;stroke:#777777;stroke-width:2.59917;stroke-miterlimit:4;stroke-dasharray:none;stroke-opacity:1"
       id="ellipse2344"
       cx="66.145836"
       cy="66.145828"
       rx="64.846252"
       ry="64.846245" />
    <circle
       style="fill:none;fill-opacity:1;stroke:#777777;stroke-width:7.77241;stroke-miterlimit:4;stroke-dasharray:none;stroke-opacity:1"
       id="circle2346"
       cx="66.145836"
       cy="66.145836"
       r="60.936714" />
    <g
       id="g2360"
       transform="matrix(0.31750001,0,0,0.31750003,-170.94661,-70.803645)"
       style="fill:#00e2a7;fill-opacity:1;stroke-width:2.49999991;stroke-miterlimit:4;stroke-dasharray:none;stroke:#ffffff;stroke-opacity:1">
      <g
         id="g2354"
         style="fill:#00e2a7;fill-opacity:1;stroke-width:2.49999991;stroke-miterlimit:4;stroke-dasharray:none;stroke:#ffffff;stroke-opacity:1">
        <path
           d="m 813.1,360.9 c -0.3,-0.2 -0.5,-0.4 -0.9,-0.6 -1.9,-0.8 -3.8,-1.5 -5.7,-2.2 -0.1,0 -0.1,0 -0.2,-0.1 -0.7,-0.3 -1.4,-0.6 -2.1,-0.9 -1.1,-0.5 -2.2,-1.1 -3.2,-1.6 -0.5,-0.4 -1.3,-1 -1.7,-1.4 -5.2,-5.9 -15.4,-5.9 -21.6,-1.9 -5.7,3.6 -8,9.1 -7.8,14.9 -9.1,0.6 -18.3,1 -27.5,1.5 -23,1.2 -48,4.8 -69.5,13.1 -8,3.1 -8.3,12.6 -0.4,16.1 13.2,5.8 31.7,1.5 45.7,0.5 24.6,-1.7 49,-3.3 73.5,-6.2 3.4,-0.4 6.8,-0.9 10.2,-1.5 0.8,-0.1 1.7,-0.3 2.5,-0.5 2.3,-0.2 6.3,-1.1 4.3,-0.9 6.1,-1.1 11.2,-4.7 12.8,-11.1 1.8,-7.1 -2,-14.2 -8.4,-17.2 z"
           id="path2352"
           style="fill:#00e2a7;fill-opacity:1;stroke-width:2.49999991;stroke-miterlimit:4;stroke-dasharray:none;stroke:#ffffff;stroke-opacity:1" />
      </g>
      <g
         id="g2358"
         style="fill:#00e2a7;fill-opacity:1;stroke-width:2.49999991;stroke-miterlimit:4;stroke-dasharray:none;stroke:#ffffff;stroke-opacity:1">
        <path
           d="m 853.3,465.4 c -6.3,-6.1 -13.7,-11.2 -21.3,-15.6 -8.8,-5.1 -20.5,-0.8 -25.1,7.9 -1.4,2.6 -2,5.5 -2,8.4 0.2,5.1 -154.8,13.3 -170.2,29.6 -4.1,4.3 -2.7,11.3 3.1,13.3 17.7,5.9 44.5,-1 62.8,-2.1 23,-1.5 46,-3.7 69,-6.1 14.4,-1.5 29.2,-4.7 43.6,-5.2 13.1,-0.6 67,-4.4 40.1,-30.2 z"
           id="path2356"
           style="fill:#00e2a7;fill-opacity:1;stroke-width:2.49999991;stroke-miterlimit:4;stroke-dasharray:none;stroke:#ffffff;stroke-opacity:1" />
      </g>
    </g>
  </g>
</svg>
