<?xml version="1.0" encoding="UTF-8" standalone="no"?>
<!-- Created with Inkscape (http://www.inkscape.org/) -->

<svg
   width="500"
   height="500"
   viewBox="0 0 132.29167 132.29167"
   version="1.1"
   id="svg58"
   inkscape:version="1.1.2 (b8e25be833, 2022-02-05)"
   sodipodi:docname="b03r02.svg"
   xmlns:inkscape="http://www.inkscape.org/namespaces/inkscape"
   xmlns:sodipodi="http://sodipodi.sourceforge.net/DTD/sodipodi-0.dtd"
   xmlns="http://www.w3.org/2000/svg"
   xmlns:svg="http://www.w3.org/2000/svg">
  <sodipodi:namedview
     id="namedview60"
     pagecolor="#ffffff"
     bordercolor="#666666"
     borderopacity="1.0"
     inkscape:pageshadow="2"
     inkscape:pageopacity="0.0"
     inkscape:pagecheckerboard="true"
     inkscape:document-units="px"
     showgrid="false"
     units="px"
     inkscape:zoom="1"
     inkscape:cx="94.5"
     inkscape:cy="261.5"
     inkscape:window-width="1920"
     inkscape:window-height="1001"
     inkscape:window-x="-9"
     inkscape:window-y="-9"
     inkscape:window-maximized="1"
     inkscape:current-layer="g4908"
     showguides="false" />
  <defs
     id="defs55" />
  <g
     inkscape:label="Layer 1 copy"
     inkscape:groupmode="layer"
     id="g4908"
     style="display:inline">
    <path
       style="display:inline;fill:#c18b56;fill-opacity:1;stroke:#c18b56;stroke-width:1;stroke-linecap:round;stroke-linejoin:round;stroke-miterlimit:4;stroke-dasharray:none;stroke-opacity:1"
       d="m 53.645022,123.41739 c 0,0 -1.22655,-8.85048 0.25991,-18.194 1.81941,-11.436224 -1.63806,-0.83728 2.08985,-12.166594 2.98845,-9.082109 4.31728,-7.712389 5.9675,-16.9438 1.41058,-7.890775 -2.31023,-5.889355 1.59146,-20.003429 2.479,-8.96759 -4.71405,11.370493 0,0 3.34191,11.855552 3.71105,-8.872791 5.39029,0.812675 0.66099,9.858354 -0.45632,5.141212 2.11525,13.732557 2.5466,8.507925 2.94535,11.827711 1.29958,19.493567 -2.59946,12.107924 -2.71809,4.744035 -0.77975,14.815114 1.46671,7.62066 5.97803,16.63451 8.57716,18.45391 2.59916,1.8194 -26.51125,0 -26.51125,0 z"
       id="path14864-2"
       sodipodi:nodetypes="cssssccssssc" />
    <ellipse
       style="fill:none;fill-opacity:1;stroke:#777777;stroke-width:2.59917;stroke-miterlimit:4;stroke-dasharray:none;stroke-opacity:1"
       id="ellipse4890"
       cx="66.145836"
       cy="66.145828"
       rx="64.846252"
       ry="64.846245" />
    <path
       id="path14864-2-2"
       style="display:inline;fill:#9b6b45;fill-opacity:1;stroke:#9b6b45;stroke-width:1;stroke-linecap:round;stroke-linejoin:round;stroke-miterlimit:4;stroke-dasharray:none;stroke-opacity:1"
       d="m 63.553732,56.109567 c -4.71405,11.370494 2.4792,-8.967812 2.1e-4,-2.24e-4 -3.90169,14.114074 -0.18106,12.112657 -1.59163,20.003431 -1.65023,9.231411 -2.97914,7.862075 -5.9676,16.944184 -3.7279,11.329312 -0.2704,0.729956 -2.08979,12.166182 -1.48647,9.34352 -0.25994,18.19424 -0.25994,18.19424 0,0 0.81833,0.0488 1.94924,0.11369 -0.27333,-2.76423 -0.74574,-9.65015 0.40514,-16.88425 1.8194,-11.43622 -1.6381,-0.83738 2.0898,-12.166692 2.98846,-9.082109 4.31736,-7.712258 5.96759,-16.943668 1.41057,-7.890774 -2.31006,-5.889358 1.59164,-20.003431 2.2715,-8.217033 0.5493,9.531167 3.29564,-0.610787 -0.29709,-1.180173 -4.91463,0.874784 -5.3903,-0.812675 z"
       sodipodi:nodetypes="cssssccsssccc" />
    <circle
       style="fill:none;fill-opacity:1;stroke:#00e2a7;stroke-width:7.77241;stroke-miterlimit:4;stroke-dasharray:none;stroke-opacity:1"
       id="circle4892"
       cx="66.145836"
       cy="66.145836"
       r="60.936714" />
    <g
       id="g11655-5-4-9-4-2-6-8-0"
       transform="matrix(0.75251874,0,0,0.75251874,-65.953693,6.7097496)"
       style="display:inline">
      <g
         id="g5519-5-9-3"
         transform="matrix(0.84003753,0,0,0.84003753,215.22739,29.253776)"
         style="display:inline">
        <g
           id="g5395-44-6-73"
           transform="translate(-85.460416,22.382686)">
          <g
             id="g2523-0-9-1-21"
             transform="matrix(4.2577182,0,0,4.2577182,200.10696,-35.748312)"
             style="display:inline">
            <g
               id="g3373-7-6-1-92"
               transform="matrix(-0.20953371,-0.00371336,0.00371336,-0.20953371,-91.221922,31.90476)">
              <g
                 id="g2459-5-6-2-3-52"
                 transform="matrix(0.4417475,0,0,0.4417475,-21.883357,22.162069)"
                 style="display:inline">
                <path
                   id="path14-1-6-0"
                   style="fill:#a4a42a;fill-opacity:1;stroke-width:5.37006"
                   class="cls-2"
                   d="m -393.27782,217.70077 a 85.921004,85.921004 0 1 0 -16.37634,-170.402578 85.921004,85.921004 0 0 1 7.41181,169.988428 86.243208,86.243208 0 0 0 8.96453,0.41415 z m -12.77061,-38.71275 a 46.988049,46.988049 0 0 0 5.92824,-0.58891 46.988049,46.988049 0 0 1 -41.66076,-45.77326 46.988049,46.988049 0 0 1 42.47865,-46.881497 46.988049,46.988049 0 0 0 -54.55939,47.095587 46.988049,46.988049 0 0 0 47.81326,46.14808 z" />
                <path
                   id="path14-8-4-16-9-20"
                   style="display:inline;fill:#cccc00;fill-opacity:1;stroke-width:5.37006"
                   class="cls-2"
                   d="m -405.35857,217.91486 a 85.921004,85.921004 0 1 0 -87.42996,-84.38506 86.243208,86.243208 0 0 0 87.42996,84.38506 z m -0.68986,-38.92684 a 46.988049,46.988049 0 0 1 -47.81326,-46.14808 46.988049,46.988049 0 1 1 47.81326,46.14808 z" />
              </g>
            </g>
          </g>
        </g>
        <g
           id="g2523-0-6-3-1-3"
           transform="matrix(4.2577182,0,0,4.2577182,161.75656,-46.486242)"
           style="display:inline">
          <g
             id="g3373-7-9-9-5-64"
             transform="matrix(-0.20953371,-0.00371336,0.00371336,-0.20953371,-91.221922,31.90476)">
            <g
               id="g2459-5-6-1-4-5-18"
               transform="matrix(0.4417475,0,0,0.4417475,-21.883357,22.162069)"
               style="display:inline">
              <path
                 id="path14-7-8-9-07"
                 style="fill:#a4a42a;fill-opacity:1;stroke-width:5.37006"
                 class="cls-2"
                 d="m -393.27782,217.70077 a 85.921004,85.921004 0 1 0 -16.37634,-170.402578 85.921004,85.921004 0 0 1 7.41181,169.988428 86.243208,86.243208 0 0 0 8.96453,0.41415 z m -12.77061,-38.71275 a 46.988049,46.988049 0 0 0 5.92824,-0.58891 46.988049,46.988049 0 0 1 -41.66076,-45.77326 46.988049,46.988049 0 0 1 42.47865,-46.881497 46.988049,46.988049 0 0 0 -54.55939,47.095587 46.988049,46.988049 0 0 0 47.81326,46.14808 z" />
              <path
                 id="path14-8-4-0-4-7-55"
                 style="display:inline;fill:#cccc00;fill-opacity:1;stroke-width:5.37006"
                 class="cls-2"
                 d="m -405.35857,217.91486 a 85.921004,85.921004 0 1 0 -87.42996,-84.38506 86.243208,86.243208 0 0 0 87.42996,84.38506 z m -0.68986,-38.92684 a 46.988049,46.988049 0 0 1 -47.81326,-46.14808 46.988049,46.988049 0 1 1 47.81326,46.14808 z" />
            </g>
          </g>
        </g>
        <g
           id="g5395-9-2-2-7"
           style="display:inline"
           transform="translate(9.151695,22.382686)">
          <g
             id="g2523-0-1-8-7-96"
             transform="matrix(4.2577182,0,0,4.2577182,200.10696,-35.748312)"
             style="display:inline">
            <g
               id="g3373-7-90-9-7-92"
               transform="matrix(-0.20953371,-0.00371336,0.00371336,-0.20953371,-91.221922,31.90476)">
              <g
                 id="g2459-5-6-4-0-3-05"
                 transform="matrix(0.4417475,0,0,0.4417475,-21.883357,22.162069)"
                 style="display:inline">
                <path
                   id="path14-73-8-8-69"
                   style="fill:#a4a42a;fill-opacity:1;stroke-width:5.37006"
                   class="cls-2"
                   d="m -393.27782,217.70077 a 85.921004,85.921004 0 1 0 -16.37634,-170.402578 85.921004,85.921004 0 0 1 7.41181,169.988428 86.243208,86.243208 0 0 0 8.96453,0.41415 z m -12.77061,-38.71275 a 46.988049,46.988049 0 0 0 5.92824,-0.58891 46.988049,46.988049 0 0 1 -41.66076,-45.77326 46.988049,46.988049 0 0 1 42.47865,-46.881497 46.988049,46.988049 0 0 0 -54.55939,47.095587 46.988049,46.988049 0 0 0 47.81326,46.14808 z" />
                <path
                   id="path14-8-4-1-9-2-53"
                   style="display:inline;fill:#cccc00;fill-opacity:1;stroke-width:5.37006"
                   class="cls-2"
                   d="m -405.35857,217.91486 a 85.921004,85.921004 0 1 0 -87.42996,-84.38506 86.243208,86.243208 0 0 0 87.42996,84.38506 z m -0.68986,-38.92684 a 46.988049,46.988049 0 0 1 -47.81326,-46.14808 46.988049,46.988049 0 1 1 47.81326,46.14808 z" />
              </g>
            </g>
          </g>
        </g>
      </g>
    </g>
  </g>
</svg>
