<?xml version="1.0" encoding="UTF-8" standalone="no"?>
<!-- Created with Inkscape (http://www.inkscape.org/) -->

<svg
   width="500"
   height="500"
   viewBox="0 0 132.29167 132.29167"
   version="1.1"
   id="svg58"
   inkscape:version="1.1.2 (b8e25be833, 2022-02-05)"
   sodipodi:docname="b06r04.svg"
   xmlns:inkscape="http://www.inkscape.org/namespaces/inkscape"
   xmlns:sodipodi="http://sodipodi.sourceforge.net/DTD/sodipodi-0.dtd"
   xmlns="http://www.w3.org/2000/svg"
   xmlns:svg="http://www.w3.org/2000/svg"
   xmlns:sketch="http://www.bohemiancoding.com/sketch/ns">
  <sodipodi:namedview
     id="namedview60"
     pagecolor="#ffffff"
     bordercolor="#666666"
     borderopacity="1.0"
     inkscape:pageshadow="2"
     inkscape:pageopacity="0.0"
     inkscape:pagecheckerboard="true"
     inkscape:document-units="px"
     showgrid="false"
     units="px"
     inkscape:zoom="1"
     inkscape:cx="94.5"
     inkscape:cy="261.5"
     inkscape:window-width="1920"
     inkscape:window-height="1001"
     inkscape:window-x="-9"
     inkscape:window-y="-9"
     inkscape:window-maximized="1"
     inkscape:current-layer="g4908"
     showguides="false" />
  <defs
     id="defs55" />
  <g
     inkscape:label="Layer 1 copy"
     inkscape:groupmode="layer"
     id="g4908"
     style="display:inline">
    <path
       style="display:inline;fill:#c49078;fill-opacity:1;stroke:#c49078;stroke-width:1;stroke-linecap:round;stroke-linejoin:round;stroke-miterlimit:4;stroke-dasharray:none;stroke-opacity:1"
       d="m 53.645018,123.41739 c 0,0 -1.22655,-8.85048 0.25991,-18.194 1.819404,-11.436231 -1.63806,-0.83728 2.089844,-12.166601 2.98845,-9.082109 4.31728,-7.712389 5.9675,-16.9438 1.41058,-7.890775 -2.31023,-5.889355 1.59146,-20.003429 2.479,-8.96759 -4.030492,-0.883058 0.683558,-12.253551 3.34191,11.855552 1.815212,-8.301244 3.494452,1.384223 0.66099,9.858353 0.75596,16.823215 3.32753,25.41456 2.5466,8.507925 2.94536,11.827711 1.29958,19.493567 -2.59946,12.107921 -2.71809,4.744035 -0.77975,14.815111 1.46672,7.62067 5.97803,16.63452 8.57717,18.45392 2.59915,1.8194 -26.511254,0 -26.511254,0 z"
       id="path14864-2-0"
       sodipodi:nodetypes="cssssccssssc" />
    <ellipse
       style="fill:none;fill-opacity:1;stroke:#777777;stroke-width:2.59917;stroke-miterlimit:4;stroke-dasharray:none;stroke-opacity:1"
       id="ellipse4890"
       cx="66.145836"
       cy="66.145828"
       rx="64.846252"
       ry="64.846245" />
    <path
       id="path14864-2-2-1"
       style="display:inline;fill:#9f6a57;fill-opacity:1;stroke:#9f6a57;stroke-width:1;stroke-linecap:round;stroke-linejoin:round;stroke-miterlimit:4;stroke-dasharray:none;stroke-opacity:1"
       d="m 64.23729,43.856009 c -4.71405,11.370494 1.795642,3.285739 -0.683348,12.253327 -3.90169,14.114074 -0.18106,12.112657 -1.59163,20.003431 -1.65023,9.231411 -2.97914,7.862075 -5.9676,16.944184 -3.727904,11.329319 -0.2704,0.729956 -2.089794,12.166189 -1.48647,9.34352 -0.25994,18.19423 -0.25994,18.19423 0,0 0.81833,0.0488 1.949244,0.11369 -0.273334,-2.76422 -0.745744,-9.65014 0.40514,-16.88424 1.8194,-11.436227 -1.638104,-0.83738 2.0898,-12.166699 2.98846,-9.082109 4.31736,-7.712258 5.96759,-16.943668 1.41057,-7.890774 -2.31006,-5.889358 1.59164,-20.003431 2.2715,-8.217033 -4.157442,-3.535059 -1.411102,-13.677013 -0.29709,-1.180173 0.47567,1.687459 0,0 z"
       sodipodi:nodetypes="cssssccsssccc" />
    <ellipse
       style="fill:none;fill-opacity:1;stroke:#ccff33;stroke-width:7.77241;stroke-miterlimit:4;stroke-dasharray:none;stroke-opacity:1"
       id="circle4892"
       cx="66.145836"
       cy="66.145836"
       rx="60.936718"
       ry="60.936714" />
    <g
       id="g22226-7-9"
       transform="matrix(1.0949859,0,0,1.0949859,-92.069451,-26.209709)"
       style="display:inline">
      <g
         id="g22138-0-2"
         transform="translate(-26.833461,54.442803)">
        <g
           id="Page-1-8-2-4"
           stroke="none"
           stroke-width="1"
           fill="none"
           fill-rule="evenodd"
           sketch:type="MSPage"
           style="fill:#81cc29;fill-opacity:1"
           transform="matrix(1.25,0,0,1.25,123.91155,12.485537)">
          <g
             id="Icon-Set-Filled-29-3"
             sketch:type="MSLayerGroup"
             transform="translate(-519,-781)"
             fill="#000000"
             style="fill:#81cc29;fill-opacity:1">
            <path
               d="M 542.067,786.028 C 540.599,783.053 537.543,781 534,781 c -4.749,0 -8.63,3.682 -8.967,8.345 C 521.542,790.34 519,793.39 519,797 c 0,4.26 3.54,7.755 8,8 h 15 c 4.966,0 9,-4.253 9,-9.5 0,-5.056 -3.951,-9.177 -8.933,-9.472"
               id="cloud-6-3"
               sketch:type="MSShapeGroup"
               style="fill:#99ffcc;fill-opacity:1" />
          </g>
        </g>
        <path
           id="cloud-7-3-9"
           style="fill:#5de7a2;fill-opacity:1;fill-rule:evenodd;stroke:none;stroke-width:1.25"
           d="m 142.66142,12.485383 c -5.93625,0 -10.78737,4.602654 -11.20862,10.431404 -4.36375,1.243751 -7.54166,5.056426 -7.54166,9.568923 0,5.325002 4.42491,9.693659 9.99991,9.999909 h 4.23385 c -5.575,-0.30625 -10.00043,-4.674907 -10.00043,-9.999909 0,-4.512497 3.17791,-8.325172 7.54166,-9.568923 0.36984,-5.117375 4.15439,-9.28873 9.08989,-10.2309 -0.68475,-0.130707 -1.3914,-0.200504 -2.1146,-0.200504 z" />
      </g>
      <g
         id="g22138-4-6-3"
         transform="translate(0.33401899,35.484808)"
         style="display:inline">
        <g
           id="Page-1-8-0-8-6"
           stroke="none"
           stroke-width="1"
           fill="none"
           fill-rule="evenodd"
           sketch:type="MSPage"
           style="fill:#81cc29;fill-opacity:1"
           transform="matrix(1.25,0,0,1.25,123.91155,12.485537)">
          <g
             id="Icon-Set-Filled-2-7-9"
             sketch:type="MSLayerGroup"
             transform="translate(-519,-781)"
             fill="#000000"
             style="fill:#81cc29;fill-opacity:1">
            <path
               d="M 542.067,786.028 C 540.599,783.053 537.543,781 534,781 c -4.749,0 -8.63,3.682 -8.967,8.345 C 521.542,790.34 519,793.39 519,797 c 0,4.26 3.54,7.755 8,8 h 15 c 4.966,0 9,-4.253 9,-9.5 0,-5.056 -3.951,-9.177 -8.933,-9.472"
               id="cloud-1-4-0"
               sketch:type="MSShapeGroup"
               style="fill:#99ffcc;fill-opacity:1" />
          </g>
        </g>
        <path
           id="cloud-7-8-8-3"
           style="fill:#5de7a2;fill-opacity:1;fill-rule:evenodd;stroke:none;stroke-width:1.25"
           d="m 142.66142,12.485383 c -5.93625,0 -10.78737,4.602654 -11.20862,10.431404 -4.36375,1.243751 -7.54166,5.056426 -7.54166,9.568923 0,5.325002 4.42491,9.693659 9.99991,9.999909 h 4.23385 c -5.575,-0.30625 -10.00043,-4.674907 -10.00043,-9.999909 0,-4.512497 3.17791,-8.325172 7.54166,-9.568923 0.36984,-5.117375 4.15439,-9.28873 9.08989,-10.2309 -0.68475,-0.130707 -1.3914,-0.200504 -2.1146,-0.200504 z" />
      </g>
      <g
         id="g22138-5-3-3"
         transform="translate(29.81882,54.442617)"
         style="display:inline">
        <g
           id="Page-1-8-4-1-3"
           stroke="none"
           stroke-width="1"
           fill="none"
           fill-rule="evenodd"
           sketch:type="MSPage"
           style="fill:#81cc29;fill-opacity:1"
           transform="matrix(1.25,0,0,1.25,123.91155,12.485537)">
          <g
             id="Icon-Set-Filled-8-8-5"
             sketch:type="MSLayerGroup"
             transform="translate(-519,-781)"
             fill="#000000"
             style="fill:#81cc29;fill-opacity:1">
            <path
               d="M 542.067,786.028 C 540.599,783.053 537.543,781 534,781 c -4.749,0 -8.63,3.682 -8.967,8.345 C 521.542,790.34 519,793.39 519,797 c 0,4.26 3.54,7.755 8,8 h 15 c 4.966,0 9,-4.253 9,-9.5 0,-5.056 -3.951,-9.177 -8.933,-9.472"
               id="cloud-3-11-3"
               sketch:type="MSShapeGroup"
               style="fill:#99ffcc;fill-opacity:1" />
          </g>
        </g>
        <path
           id="cloud-7-4-4-6"
           style="fill:#5de7a2;fill-opacity:1;fill-rule:evenodd;stroke:none;stroke-width:1.25"
           d="m 142.66142,12.485383 c -5.93625,0 -10.78737,4.602654 -11.20862,10.431404 -4.36375,1.243751 -7.54166,5.056426 -7.54166,9.568923 0,5.325002 4.42491,9.693659 9.99991,9.999909 h 4.23385 c -5.575,-0.30625 -10.00043,-4.674907 -10.00043,-9.999909 0,-4.512497 3.17791,-8.325172 7.54166,-9.568923 0.36984,-5.117375 4.15439,-9.28873 9.08989,-10.2309 -0.68475,-0.130707 -1.3914,-0.200504 -2.1146,-0.200504 z" />
      </g>
    </g>
  </g>
</svg>
