<?xml version="1.0" encoding="UTF-8" standalone="no"?>
<!-- Created with Inkscape (http://www.inkscape.org/) -->

<svg
   width="500"
   height="500"
   viewBox="0 0 132.29167 132.29167"
   version="1.1"
   id="svg58"
   inkscape:version="1.1.2 (b8e25be833, 2022-02-05)"
   sodipodi:docname="b07r01.svg"
   xmlns:inkscape="http://www.inkscape.org/namespaces/inkscape"
   xmlns:sodipodi="http://sodipodi.sourceforge.net/DTD/sodipodi-0.dtd"
   xmlns="http://www.w3.org/2000/svg"
   xmlns:svg="http://www.w3.org/2000/svg">
  <sodipodi:namedview
     id="namedview60"
     pagecolor="#ffffff"
     bordercolor="#666666"
     borderopacity="1.0"
     inkscape:pageshadow="2"
     inkscape:pageopacity="0.0"
     inkscape:pagecheckerboard="true"
     inkscape:document-units="px"
     showgrid="false"
     units="px"
     inkscape:zoom="1"
     inkscape:cx="81.5"
     inkscape:cy="261.5"
     inkscape:window-width="1920"
     inkscape:window-height="1001"
     inkscape:window-x="-9"
     inkscape:window-y="-9"
     inkscape:window-maximized="1"
     inkscape:current-layer="g4908"
     showguides="false" />
  <defs
     id="defs55" />
  <g
     inkscape:label="Layer 1 copy"
     inkscape:groupmode="layer"
     id="g4908"
     style="display:inline">
    <path
       style="display:inline;fill:#c49078;fill-opacity:1;stroke:#c49078;stroke-width:1;stroke-linecap:round;stroke-linejoin:round;stroke-miterlimit:4;stroke-dasharray:none;stroke-opacity:1"
       d="m 53.645024,123.41738 c 0,0 -1.22655,-8.85047 0.25991,-18.194 1.819404,-11.436219 -1.63806,-0.83727 2.089844,-12.166589 2.98845,-9.082109 4.31728,-7.712389 5.9675,-16.9438 1.41058,-7.890775 -2.31023,-5.889355 1.59146,-20.003429 2.479,-8.96759 -4.030492,-0.883058 0.683558,-12.253551 3.34191,11.855552 1.815212,-8.301244 3.494452,1.384223 0.66099,9.858353 0.75596,16.823215 3.32753,25.41456 2.5466,8.507925 2.94536,11.827711 1.29958,19.493567 -2.59946,12.107919 -2.71809,4.744035 -0.77975,14.815109 1.46672,7.62066 5.97803,16.63451 8.57717,18.45391 2.59915,1.8194 -26.511254,0 -26.511254,0 z"
       id="path14864-2-0-8"
       sodipodi:nodetypes="cssssccssssc" />
    <ellipse
       style="fill:none;fill-opacity:1;stroke:#777777;stroke-width:2.59917;stroke-miterlimit:4;stroke-dasharray:none;stroke-opacity:1"
       id="ellipse4890"
       cx="66.145836"
       cy="66.145828"
       rx="64.846252"
       ry="64.846245" />
    <path
       id="path14864-2-2-1-8"
       style="display:inline;fill:#996a5a;fill-opacity:1;stroke:#996a5a;stroke-width:1;stroke-linecap:round;stroke-linejoin:round;stroke-miterlimit:4;stroke-dasharray:none;stroke-opacity:1"
       d="m 64.237296,43.856011 c -4.71405,11.370494 1.795642,3.285739 -0.683348,12.253327 -3.90169,14.114074 -0.18106,12.112657 -1.59163,20.003431 -1.65023,9.231411 -2.97914,7.862075 -5.9676,16.944184 -3.727904,11.329317 -0.2704,0.729956 -2.089794,12.166177 -1.48647,9.34352 -0.25994,18.19424 -0.25994,18.19424 0,0 0.81833,0.0488 1.949244,0.11369 -0.273334,-2.76423 -0.745744,-9.65015 0.40514,-16.88424 1.8194,-11.436225 -1.638104,-0.83738 2.0898,-12.166697 2.98846,-9.082109 4.31736,-7.712258 5.96759,-16.943668 1.41057,-7.890774 -2.31006,-5.889358 1.59164,-20.003431 2.2715,-8.217033 -4.157442,-3.535059 -1.411102,-13.677013 -0.29709,-1.180173 0.47567,1.687459 0,0 z"
       sodipodi:nodetypes="cssssccsssccc" />
    <circle
       style="fill:none;fill-opacity:1;stroke:#33ccff;stroke-width:7.77241;stroke-miterlimit:4;stroke-dasharray:none;stroke-opacity:1"
       id="circle4892"
       cx="66.145836"
       cy="66.145836"
       r="60.936714" />
    <g
       id="g13172-1-7-8-6-1-5-4-7-3"
       transform="matrix(0.84484921,0,0,0.84484921,-71.112118,55.020323)"
       style="display:inline">
      <g
         id="g1026-5-3-4-9-4-9-3-0-7"
         transform="matrix(1.7323514,0,0,1.7323514,88.015267,-80.552475)">
        <polygon
           class="cls-1"
           points="30.37,37.27 15.24,37.27 7.67,50.37 15.24,63.47 30.37,63.47 37.93,50.37 "
           id="polygon14-4-2-88-8-40-3-0-8-5"
           style="fill:#99cc00;fill-opacity:1" />
        <path
           id="polygon16-3-6-8-4-2-9-1-6-1"
           style="fill:#6d9003;fill-opacity:1;stroke-width:1"
           class="cls-1"
           d="M 15.240068,37.269902 7.67,50.37 15.240068,63.480107 h 5.759521 L 13.479081,50.448613 21.03914,37.348516 h 9.376221 l -0.04541,-0.07861 z" />
      </g>
      <g
         id="g1026-9-48-4-02-1-7-6-9-63-7"
         transform="matrix(1.7323514,0,0,1.7323514,124.5879,-98.495687)">
        <polygon
           class="cls-1"
           points="7.67,50.37 15.24,63.47 30.37,63.47 37.93,50.37 30.37,37.27 15.24,37.27 "
           id="polygon14-3-3-3-9-6-7-4-3-9-6"
           style="fill:#99cc00;fill-opacity:1" />
        <path
           id="polygon16-8-8-5-2-4-9-9-7-4-2"
           style="fill:#6d9003;fill-opacity:1;stroke-width:1"
           class="cls-1"
           d="M 15.240068,37.269902 7.67,50.37 15.240068,63.480107 h 5.759521 L 13.479081,50.448613 21.03914,37.348516 h 9.376221 l -0.04541,-0.07861 z" />
      </g>
      <g
         id="g1026-9-4-4-7-5-2-7-5-2-4-6"
         transform="matrix(1.7323514,0,0,1.7323514,160.86322,-80.773313)">
        <polygon
           class="cls-1"
           points="7.67,50.37 15.24,63.47 30.37,63.47 37.93,50.37 30.37,37.27 15.24,37.27 "
           id="polygon14-3-9-4-8-8-8-85-0-0-7-2"
           style="fill:#99cc00;fill-opacity:1" />
        <path
           id="polygon16-8-1-0-7-7-6-9-3-2-6-7"
           style="fill:#6d9003;fill-opacity:1;stroke-width:1"
           class="cls-1"
           d="M 15.240068,37.269902 7.67,50.37 15.240068,63.480107 h 5.759521 L 13.479081,50.448613 21.03914,37.348516 h 9.376221 l -0.04541,-0.07861 z" />
      </g>
    </g>
  </g>
</svg>
